<?xml version="1.0" encoding="UTF-8"?>
<svg id="FAVICON" xmlns="http://www.w3.org/2000/svg" viewBox="0 0 520.41 522.23">
  <defs>
    <style>
      .cls-1 {
        fill: #d2d700;
      }
    </style>
  </defs>
  <path class="cls-1" d="m178,211.37c-6.32,6.32-9.48,13.91-9.48,22.78v46.99c0,8.87,3.16,16.46,9.48,22.78,6.32,6.32,13.91,9.47,22.78,9.47s16.46-3.16,22.78-9.47c6.32-6.32,9.47-13.91,9.47-22.78v-46.99c0-8.87-3.16-16.46-9.47-22.78-6.32-6.32-13.91-9.47-22.78-9.47s-16.46,3.16-22.78,9.47Z"/>
  <path class="cls-1" d="m439.94,80.7C389.8,30.97,329.47,6.1,258.95,6.1S128.72,30.97,78.58,80.7C28.84,130.43,3.98,190.56,3.98,261.07s24.86,130.65,74.6,180.38c50.14,49.74,110.26,74.6,180.38,74.6s130.85-24.86,180.99-74.6c49.73-49.73,74.6-109.85,74.6-180.38s-24.87-130.64-74.6-180.38Zm-303.72,247.9H47.5v-10.91c0-13.65,4.12-24.69,12.35-33.11,4.98-5.04,14.07-10.88,27.27-17.51,10.27-5.17,17.32-9.57,21.15-13.21,6.38-6.19,9.57-13.94,9.57-23.26,0-7.4-2.62-13.72-7.85-18.95-5.23-5.23-11.55-7.85-18.95-7.85s-13.72,2.62-18.95,7.85c-5.23,5.23-7.85,11.55-7.85,18.95h-15.98c0-11.8,4.18-21.88,12.54-30.24,8.36-8.36,18.44-12.54,30.24-12.54s21.88,4.18,30.24,12.54,12.54,18.44,12.54,30.24c0,13.72-4.12,24.79-12.35,33.21-4.98,5.04-14.07,10.88-27.27,17.51-9.38,4.66-15.92,8.61-19.62,11.87-6.19,5.3-9.76,11.77-10.72,19.43h72.35v15.98Zm112.8-48.79c0,13.27-4.72,24.63-14.17,34.07-9.44,9.44-20.8,14.17-34.07,14.17s-24.63-4.72-34.07-14.17c-9.44-9.44-14.17-20.8-14.17-34.07v-46.99c0-13.27,4.72-24.63,14.17-34.07,9.44-9.44,20.8-14.16,34.07-14.16s24.63,4.72,34.07,14.16c9.44,9.44,14.17,20.8,14.17,34.07v46.99Zm105.52,48.23h-88.72v-10.91c0-13.65,4.12-24.69,12.35-33.11,4.98-5.04,14.07-10.88,27.27-17.51,10.27-5.17,17.32-9.57,21.15-13.21,6.38-6.19,9.57-13.94,9.57-23.26,0-7.4-2.62-13.72-7.85-18.95-5.23-5.23-11.55-7.85-18.95-7.85s-13.72,2.62-18.95,7.85-7.85,11.55-7.85,18.95h-15.98c0-11.8,4.18-21.88,12.54-30.24s18.44-12.54,30.24-12.54,21.88,4.18,30.24,12.54,12.54,18.44,12.54,30.24c0,13.72-4.12,24.79-12.35,33.21-4.98,5.04-14.07,10.88-27.27,17.51-9.38,4.66-15.92,8.61-19.62,11.87-6.19,5.3-9.76,11.77-10.72,19.43h72.35v15.98Zm95.52-34.36v34.36h-15.98v-34.36h-65.46v-9l69.39-95.22h12.06v88.24h20.48v15.98h-20.48Z"/>
  <polygon class="cls-1" points="434.99 276.78 434.99 220.99 394.31 276.78 434.99 276.78"/>
</svg>