<?xml version="1.0" encoding="UTF-8"?>
<svg id="AZUL_YOOTHEME" data-name="AZUL YOOTHEME" xmlns="http://www.w3.org/2000/svg" viewBox="0 0 1790.2 1089.09">
  <defs>
    <style>
      .cls-1 {
        fill: #1d3859;
      }
    </style>
  </defs>
  <rect class="cls-1" x=".11" y="266.09" width="94.77" height="490.38"/>
  <path class="cls-1" d="m1381.14,553.47c7.34,26.09,20.79,48.92,40.36,68.48,31.38,31.39,69.09,47.08,113.12,47.08s82.33-15.69,113.73-47.08c4.48-4.48,8.96-9.57,13.46-15.29h108.84c-13.05,31.39-31.4,58.91-55.03,82.54-50.14,49.74-110.48,74.6-180.99,74.6s-130.24-24.86-180.38-74.6c-49.74-49.73-74.6-109.85-74.6-180.38s24.86-130.64,74.6-180.38c50.14-49.73,110.26-74.6,180.38-74.6s130.85,24.87,180.99,74.6c49.73,49.74,74.6,109.86,74.6,180.38,0,15.09-1.44,29.96-4.28,44.64h-404.78Zm309.39-83.77c-7.34-28.53-21.4-53.2-42.19-73.98-31.39-31.38-69.3-47.08-113.73-47.08s-81.73,15.7-113.12,47.08c-20.79,20.79-34.85,45.46-42.19,73.98h311.23Z"/>
  <g>
    <path class="cls-1" d="m890.68,459.13c-6.32,6.32-9.48,13.91-9.48,22.78v46.99c0,8.87,3.16,16.46,9.48,22.78,6.32,6.32,13.91,9.47,22.78,9.47s16.46-3.16,22.78-9.47c6.32-6.32,9.47-13.91,9.47-22.78v-46.99c0-8.87-3.16-16.46-9.47-22.78-6.32-6.32-13.91-9.47-22.78-9.47s-16.46,3.16-22.78,9.47Z"/>
    <path class="cls-1" d="m1152.62,328.46c-50.14-49.73-110.47-74.6-180.99-74.6s-130.24,24.87-180.38,74.6c-49.74,49.74-74.6,109.86-74.6,180.38s24.86,130.65,74.6,180.38c50.14,49.74,110.26,74.6,180.38,74.6s130.85-24.86,180.99-74.6c49.73-49.73,74.6-109.85,74.6-180.38s-24.87-130.64-74.6-180.38Zm-303.72,247.9h-88.72v-10.91c0-13.65,4.12-24.69,12.35-33.11,4.98-5.04,14.07-10.88,27.27-17.51,10.27-5.17,17.32-9.57,21.15-13.21,6.38-6.19,9.57-13.94,9.57-23.26,0-7.4-2.62-13.72-7.85-18.95-5.23-5.23-11.55-7.85-18.95-7.85s-13.72,2.62-18.95,7.85c-5.23,5.23-7.85,11.55-7.85,18.95h-15.98c0-11.8,4.18-21.88,12.54-30.24,8.36-8.36,18.44-12.54,30.24-12.54s21.88,4.18,30.24,12.54,12.54,18.44,12.54,30.24c0,13.72-4.12,24.79-12.35,33.21-4.98,5.04-14.07,10.88-27.27,17.51-9.38,4.66-15.92,8.61-19.62,11.87-6.19,5.3-9.76,11.77-10.72,19.43h72.35v15.98Zm112.8-48.79c0,13.27-4.72,24.63-14.17,34.07-9.44,9.44-20.8,14.17-34.07,14.17s-24.63-4.72-34.07-14.17c-9.44-9.44-14.17-20.8-14.17-34.07v-46.99c0-13.27,4.72-24.63,14.17-34.07,9.44-9.44,20.8-14.16,34.07-14.16s24.63,4.72,34.07,14.16c9.44,9.44,14.17,20.8,14.17,34.07v46.99Zm105.52,48.23h-88.72v-10.91c0-13.65,4.12-24.69,12.35-33.11,4.98-5.04,14.07-10.88,27.27-17.51,10.27-5.17,17.32-9.57,21.15-13.21,6.38-6.19,9.57-13.94,9.57-23.26,0-7.4-2.62-13.72-7.85-18.95-5.23-5.23-11.55-7.85-18.95-7.85s-13.72,2.62-18.95,7.85-7.85,11.55-7.85,18.95h-15.98c0-11.8,4.18-21.88,12.54-30.24s18.44-12.54,30.24-12.54,21.88,4.18,30.24,12.54,12.54,18.44,12.54,30.24c0,13.72-4.12,24.79-12.35,33.21-4.98,5.04-14.07,10.88-27.27,17.51-9.38,4.66-15.92,8.61-19.62,11.87-6.19,5.3-9.76,11.77-10.72,19.43h72.35v15.98Zm95.52-34.36v34.36h-15.98v-34.36h-65.46v-9l69.39-95.22h12.06v88.24h20.48v15.98h-20.48Z"/>
    <polygon class="cls-1" points="1147.67 524.55 1147.67 468.75 1106.99 524.55 1147.67 524.55"/>
  </g>
  <path class="cls-1" d="m591.01,329.07c-50.14-50.14-110.47-75.21-180.99-75.21s-130.24,25.07-180.38,75.21c-46.2,46.2-70.92,101.37-74.2,165.5v-.02s-.02.29-.02.29c-.24,4.82-.38,9.68-.38,14.6,0,2.42.06,4.81.15,7.19l-.15,14.21v558.25h94.77v-380.93c46.87,37.51,100.28,56.25,160.2,56.25,70.51,0,130.85-24.86,180.99-74.6,49.73-49.73,74.6-109.85,74.6-180.38s-24.87-130.64-74.6-180.38Z"/>
  <circle class="cls-1" cx="47.5" cy="47.5" r="47.5"/>
</svg>