<?xml version="1.0" encoding="UTF-8"?>
<svg id="a" data-name="svg2" xmlns="http://www.w3.org/2000/svg" width="426.67" height="185.51" xmlns:xlink="http://www.w3.org/1999/xlink" viewBox="0 0 426.67 185.51">
  <defs>
    <style>
      .by {
        opacity: .5;
      }

      .bz {
        clip-path: url(#bi);
      }

      .ca {
        clip-path: url(#bu);
      }

      .cb {
        fill: #eedc00;
      }

      .cb, .cc, .cd, .ce, .cf {
        stroke-width: 0px;
      }

      .cg {
        clip-path: url(#bl);
      }

      .cc {
        fill: none;
      }

      .cd {
        fill: #48a9c5;
      }

      .ch {
        clip-path: url(#br);
      }

      .ci {
        clip-path: url(#c);
      }

      .ce {
        fill: #97d700;
      }

      .cf {
        fill: #004976;
      }
    </style>
    <clipPath id="c">
      <rect class="cc" width="426.67" height="185.51"/>
    </clipPath>
    <clipPath id="bi">
      <rect class="cc" x="54.78" y="46.38" width="50.22" height="37.65"/>
    </clipPath>
    <clipPath id="bl">
      <rect class="cc" x="54.78" y="46.38" width="50.22" height="37.65"/>
    </clipPath>
    <clipPath id="br">
      <rect class="cc" x="46.38" y="86.21" width="37.65" height="50.21"/>
    </clipPath>
    <clipPath id="bu">
      <rect class="cc" x="46.38" y="86.21" width="37.65" height="50.21"/>
    </clipPath>
  </defs>
  <g id="b" data-name="g10">
    <g class="ci">
      <g id="d" data-name="g74">
        <g id="e" data-name="g80">
          <path id="f" data-name="path82" class="cf" d="M146.86,80.7c3.18,0,5.44-1.63,5.44-4.35v-.06c0-2.6-2-4.17-5.41-4.17h-6.53v8.59h6.5ZM137.97,69.9h9.1c2.6,0,4.69.79,6.02,2.12,1.03,1.03,1.63,2.51,1.63,4.17v.06c0,3.51-2.42,5.56-5.75,6.17l6.5,8.65h-2.93l-6.14-8.23h-6.05v8.23h-2.39v-21.17Z"/>
        </g>
        <g id="g" data-name="g84">
          <path id="h" data-name="path86" class="cf" d="M177.4,80.55v-.06c0-4.81-3.51-8.74-8.35-8.74s-8.29,3.87-8.29,8.68v.06c0,4.81,3.51,8.74,8.35,8.74s8.29-3.87,8.29-8.68M158.29,80.55v-.06c0-5.84,4.39-10.95,10.83-10.95s10.77,5.05,10.77,10.89t0,.06c0,5.84-4.38,10.95-10.83,10.95s-10.77-5.05-10.77-10.89"/>
        </g>
        <g id="i" data-name="g88">
          <path id="j" data-name="path90" class="cf" d="M189.13,82.69l-8.8-12.79h2.9l7.14,10.58,7.2-10.58h2.78l-8.8,12.76v8.41h-2.42v-8.38Z"/>
        </g>
        <g id="k" data-name="g92">
          <path id="l" data-name="path94" class="cf" d="M213.95,83.33l-4.81-10.8-4.84,10.8h9.65ZM208.05,69.75h2.24l9.65,21.32h-2.57l-2.48-5.59h-11.52l-2.51,5.59h-2.45l9.65-21.32Z"/>
        </g>
        <g id="m" data-name="g96">
          <path id="n" data-name="path98" class="cf" d="M223.5,69.9h2.39v18.96h11.92v2.21h-14.3v-21.17Z"/>
        </g>
        <g id="o" data-name="g100">
          <path id="p" data-name="path102" class="cf" d="M248.69,87.99l1.48-1.75c2.21,2,4.32,2.99,7.26,2.99s4.72-1.51,4.72-3.6v-.06c0-1.97-1.06-3.09-5.5-4.02-4.87-1.06-7.11-2.63-7.11-6.11v-.06c0-3.33,2.93-5.78,6.95-5.78,3.09,0,5.29.88,7.44,2.6l-1.39,1.84c-1.97-1.6-3.93-2.3-6.11-2.3-2.75,0-4.51,1.51-4.51,3.42v.06c0,2,1.09,3.11,5.75,4.11,4.72,1.03,6.89,2.75,6.89,5.99v.06c0,3.63-3.02,5.99-7.23,5.99-3.36,0-6.11-1.12-8.65-3.39"/>
        </g>
        <g id="q" data-name="g104">
          <path id="r" data-name="path106" class="cf" d="M287,80.55v-.06c0-4.81-3.51-8.74-8.35-8.74s-8.29,3.87-8.29,8.68v.06c0,4.81,3.51,8.74,8.35,8.74s8.29-3.87,8.29-8.68M267.89,80.55v-.06c0-5.84,4.39-10.95,10.83-10.95s10.77,5.05,10.77,10.89t0,.06c0,5.84-4.38,10.95-10.83,10.95s-10.77-5.05-10.77-10.89"/>
        </g>
        <g id="s" data-name="g108">
          <path id="t" data-name="path110" class="cf" d="M292.99,80.55v-.06c0-5.99,4.47-10.95,10.71-10.95,3.84,0,6.14,1.36,8.26,3.36l-1.63,1.75c-1.79-1.69-3.78-2.9-6.65-2.9-4.69,0-8.2,3.81-8.2,8.68v.06c0,4.9,3.54,8.74,8.2,8.74,2.9,0,4.81-1.12,6.83-3.05l1.57,1.54c-2.21,2.24-4.63,3.72-8.47,3.72-6.11,0-10.61-4.81-10.61-10.89"/>
        </g>
        <path id="u" data-name="path112" class="cf" d="M315.88,69.9h2.39v21.17h-2.39v-21.17Z"/>
        <g id="v" data-name="g114">
          <path id="w" data-name="path116" class="cf" d="M323.8,69.9h15.3v2.18h-12.91v7.23h11.55v2.18h-11.55v7.41h13.06v2.18h-15.45v-21.17Z"/>
        </g>
        <g id="x" data-name="g118">
          <path id="y" data-name="path120" class="cf" d="M349.05,72.11h-7.11v-2.21h16.63v2.21h-7.11v18.96h-2.42v-18.96Z"/>
        </g>
        <g id="z" data-name="g122">
          <path id="aa" data-name="path124" class="cf" d="M369.06,82.69l-8.8-12.79h2.9l7.14,10.58,7.2-10.58h2.78l-8.8,12.76v8.41h-2.42v-8.38Z"/>
        </g>
        <g id="ab" data-name="g126">
          <path id="ac" data-name="path128" class="cf" d="M156.14,110.78v-.06c0-4.81-3.51-8.74-8.35-8.74s-8.29,3.87-8.29,8.68v.06c0,4.81,3.51,8.74,8.35,8.74,4.84,0,8.29-3.87,8.29-8.68M137.03,110.78v-.06c0-5.84,4.39-10.95,10.83-10.95s10.77,5.05,10.77,10.89t0,.06c0,5.84-4.38,10.95-10.83,10.95s-10.77-5.05-10.77-10.89"/>
        </g>
        <g id="ad" data-name="g130">
          <path id="ae" data-name="path132" class="cf" d="M164.27,100.14h15.21v2.21h-12.82v7.56h11.46v2.18h-11.46v9.22h-2.39v-21.17Z"/>
        </g>
        <g id="af" data-name="g134">
          <path id="ag" data-name="path136" class="cf" d="M202.64,121.67c-6.23,0-10.86-4.81-10.86-10.89v-.06c0-6.02,4.54-10.95,11.04-10.95,3.99,0,6.38,1.33,8.35,3.27l-2.96,3.42c-1.63-1.48-3.3-2.39-5.41-2.39-3.57,0-6.14,2.97-6.14,6.59v.06c0,3.63,2.51,6.65,6.14,6.65,2.42,0,3.9-.97,5.56-2.48l2.97,2.99c-2.18,2.33-4.6,3.78-8.68,3.78"/>
        </g>
        <g id="ah" data-name="g138">
          <path id="ai" data-name="path140" class="cf" d="M229.19,121.31v-8.5h-8.59v8.5h-4.66v-21.17h4.66v8.38h8.59v-8.38h4.66v21.17h-4.66Z"/>
        </g>
        <g id="aj" data-name="g142">
          <path id="ak" data-name="path144" class="cf" d="M239.83,121.31v-21.17h15.97v4.14h-11.34v4.29h9.98v4.14h-9.98v4.45h11.49v4.14h-16.12Z"/>
        </g>
        <g id="al" data-name="g146">
          <path id="am" data-name="path148" class="cf" d="M277.54,121.31v-13.82l-5.96,9.04h-.12l-5.9-8.95v13.73h-4.57v-21.17h5.02l5.56,8.95,5.56-8.95h5.02v21.17h-4.63Z"/>
        </g>
        <path id="an" data-name="path150" class="cf" d="M288.37,100.14h4.66v21.17h-4.66v-21.17Z"/>
        <g id="ao" data-name="g152">
          <path id="ap" data-name="path154" class="cf" d="M306.75,121.61c-3.21,0-6.44-1.12-8.98-3.39l2.75-3.3c1.91,1.57,3.9,2.57,6.32,2.57,1.91,0,3.05-.76,3.05-2v-.06c0-1.18-.73-1.78-4.26-2.69-4.27-1.09-7.02-2.27-7.02-6.47v-.06c0-3.84,3.08-6.38,7.41-6.38,3.09,0,5.72.97,7.86,2.69l-2.42,3.51c-1.87-1.3-3.72-2.09-5.5-2.09s-2.72.82-2.72,1.85v.06c0,1.39.91,1.85,4.57,2.78,4.29,1.12,6.71,2.66,6.71,6.35v.06c0,4.2-3.21,6.56-7.77,6.56"/>
        </g>
        <g id="aq" data-name="g156">
          <path id="ar" data-name="path158" class="cf" d="M328.61,104.43v16.88h-4.66v-16.88h-6.44v-4.29h17.54v4.29h-6.44Z"/>
        </g>
        <g id="as" data-name="g160">
          <path id="at" data-name="path162" class="cf" d="M352.47,107.37c0-2-1.39-3.02-3.66-3.02h-4.63v6.08h4.72c2.27,0,3.57-1.21,3.57-2.99v-.06ZM352.38,121.31l-4.54-6.77h-3.66v6.77h-4.66v-21.17h9.68c4.99,0,7.98,2.63,7.98,6.98v.06c0,3.42-1.84,5.57-4.54,6.56l5.17,7.56h-5.44Z"/>
        </g>
        <g id="au" data-name="g164">
          <path id="av" data-name="path166" class="cf" d="M372.15,112.87v8.44h-4.66v-8.35l-8.13-12.82h5.44l5.05,8.5,5.14-8.5h5.29l-8.13,12.73Z"/>
        </g>
        <g id="aw" data-name="g168">
          <path id="ax" data-name="path170" class="cf" d="M126.38,64.83c-1.97-1.97-4.13-3.75-6.44-5.31-2.32-1.56-4.79-2.91-7.39-4.01-2.6-1.1-5.34-1.96-8.17-2.54s-5.77-.88-8.77-.88v17.11c1.82,0,3.6.18,5.32.54,1.72.35,3.38.87,4.96,1.54,1.58.67,3.08,1.49,4.49,2.44,1.4.95,2.71,2.03,3.91,3.22l12.1-12.1Z"/>
        </g>
        <g id="ay" data-name="g172">
          <path id="az" data-name="path174" class="cf" d="M114.28,114.28c-1.2,1.2-2.5,2.28-3.91,3.23-1.41.95-2.91,1.77-4.49,2.44-1.58.67-3.24,1.19-4.96,1.54-1.72.35-3.5.54-5.32.54s-3.6-.18-5.32-.54c-1.72-.35-3.38-.87-4.96-1.54-1.58-.67-3.08-1.49-4.49-2.44-1.41-.95-2.71-2.03-3.91-3.23l-12.1,12.1c1.97,1.97,4.13,3.75,6.44,5.32,2.31,1.56,4.79,2.91,7.39,4.01,2.6,1.1,5.34,1.96,8.17,2.54,2.83.58,5.77.88,8.77.88s5.94-.31,8.77-.88c2.83-.58,5.57-1.43,8.17-2.54,2.6-1.1,5.08-2.45,7.39-4.01,2.32-1.56,4.47-3.35,6.44-5.32l-12.1-12.1Z"/>
        </g>
        <g id="ba" data-name="g176">
          <path id="bb" data-name="path178" class="cb" d="M76.93,114.28c-1.2-1.2-2.28-2.5-3.23-3.91-.95-1.4-1.77-2.91-2.44-4.49-.67-1.58-1.19-3.24-1.54-4.96-.35-1.72-.54-3.5-.54-5.32h-17.11c0,3.01.31,5.94.89,8.77.58,2.83,1.43,5.57,2.54,8.17,1.1,2.6,2.45,5.08,4.01,7.39,1.56,2.32,3.35,4.47,5.32,6.44l12.1-12.1Z"/>
        </g>
        <g id="bc" data-name="g180">
          <path id="bd" data-name="path182" class="ce" d="M69.19,95.61c0-1.82.18-3.6.54-5.32.35-1.72.87-3.38,1.54-4.96.67-1.58,1.49-3.08,2.43-4.49s2.03-2.71,3.23-3.91l-12.1-12.1c-1.97,1.97-3.75,4.13-5.31,6.44-1.56,2.32-2.91,4.79-4.01,7.39-1.1,2.6-1.96,5.34-2.54,8.17-.58,2.83-.88,5.77-.88,8.77h17.11Z"/>
        </g>
        <g id="be" data-name="g184">
          <path id="bf" data-name="path186" class="cd" d="M76.93,76.93c1.2-1.2,2.5-2.27,3.91-3.23,1.41-.95,2.91-1.77,4.49-2.44,1.58-.67,3.24-1.19,4.96-1.54,1.72-.35,3.5-.54,5.32-.54v-17.11c-3.01,0-5.94.31-8.77.89-2.83.58-5.57,1.43-8.17,2.54-2.6,1.1-5.08,2.45-7.39,4.01-2.32,1.57-4.47,3.35-6.44,5.32l12.1,12.1Z"/>
        </g>
        <g id="bg" data-name="g188">
          <g id="bh" data-name="g210">
            <g class="bz">
              <g id="bj" data-name="g208" class="by">
                <g id="bk" data-name="g206">
                  <g class="cg">
                    <g id="bm" data-name="g204">
                      <g id="bn" data-name="g202">
                        <path id="bo" data-name="path200" class="cd" d="M105,47.28c-3.04-.59-6.18-.9-9.39-.9-3.4,0-6.72.35-9.92,1-3.2.66-6.29,1.62-9.24,2.87-2.94,1.25-5.74,2.77-8.36,4.54-2.62,1.77-5.06,3.78-7.29,6.01-2.23,2.23-4.24,4.67-6.01,7.29l23.65,15.94c.74-1.1,1.59-2.13,2.53-3.07.94-.94,1.96-1.78,3.07-2.53,1.1-.75,2.28-1.39,3.52-1.91,1.24-.52,2.54-.93,3.89-1.21,1.35-.28,2.74-.42,4.17-.42,1.35,0,2.67.13,3.95.38l5.44-28Z"/>
                      </g>
                    </g>
                  </g>
                </g>
              </g>
            </g>
          </g>
        </g>
        <g id="bp" data-name="g212">
          <g id="bq" data-name="g234">
            <g class="ch">
              <g id="bs" data-name="g232" class="by">
                <g id="bt" data-name="g230">
                  <g class="ca">
                    <g id="bv" data-name="g228">
                      <g id="bw" data-name="g226">
                        <path id="bx" data-name="path224" class="cb" d="M80.96,110.25c-.94-.94-1.78-1.96-2.53-3.07-.74-1.1-1.39-2.28-1.91-3.52-.52-1.24-.93-2.54-1.21-3.89-.28-1.35-.42-2.74-.42-4.17,0-1.35.13-2.67.38-3.95l-28-5.44c-.59,3.04-.9,6.18-.9,9.39,0,3.4.34,6.72,1,9.92.65,3.2,1.62,6.3,2.87,9.24,1.25,2.95,2.77,5.74,4.54,8.36,1.77,2.62,3.79,5.06,6.01,7.29,2.23,2.23,4.67,4.24,7.29,6.01l15.95-23.65c-1.1-.75-2.13-1.59-3.07-2.53"/>
                      </g>
                    </g>
                  </g>
                </g>
              </g>
            </g>
          </g>
        </g>
      </g>
    </g>
  </g>
</svg>