<svg version="1.1" id="Ebene_1" xmlns="http://www.w3.org/2000/svg" xmlns:xlink="http://www.w3.org/1999/xlink" x="0px" y="0px"
	 width="1825.518px" height="1110px" viewBox="0 0 1825.518 1110" enable-background="new 0 0 1825.518 1110" xml:space="preserve">
<path fill="#3E59B8" fill-opacity="0.03" d="M574.999,233.53c-52.276,82.9-124.51-5.26-217.537-30.526
	C269.53,179.11,169.07,208.98,169.07,310.536c0,89.94,131.431,112.45,196.74,133.75c97.86,31.9,202.45,70.28,254.479,166.03
	c100.424,184.813-23.789,417.143-212.499,476.982c-96.12,30.479-202.067,25.31-298.101-2.471
	c-35.021-10.131-238.229-86.401-209.439-132.004c21.319-33.761,40.17-75.591,66.609-105.479C10.47,770,98.47,871,203.35,900.198
	c66.107,18.4,173.01,14.61,203.069-61c43.229-108.75-54.382-160.52-142.933-184.92c-88.869-24.49-187.359-49.76-253.89-117.67
	c-65.729-67.09-86.42-171.06-71.53-261.64C-27.53,65.65,168.47-19,377.47,5c93.39,10.72,190.33,48.146,259.99,112.91
	C641.76,141.71,587.32,210.73,574.999,233.53z"/>
<linearGradient id="SVGID_1_" gradientUnits="userSpaceOnUse" x1="1887.4387" y1="412.009" x2="1888.1392" y2="412.009" gradientTransform="matrix(16.9073 23.2709 23.2709 -16.9073 -40013.5 -36823.0234)">
	<stop  offset="0" style="stop-color:#FF7E54"/>
	<stop  offset="1" style="stop-color:#F95962"/>
</linearGradient>
<path fill="url(#SVGID_1_)" d="M1490.999,128l11,6.25v12.5l-11,6.25l-11-6.25v-12.5L1490.999,128z"/>
</svg>
