<?xml version="1.0" encoding="utf-8"?>
<!-- Generator: Adobe Illustrator 21.1.0, SVG Export Plug-In . SVG Version: 6.00 Build 0)  -->
<svg version="1.1" id="Ebene_1" xmlns="http://www.w3.org/2000/svg" xmlns:xlink="http://www.w3.org/1999/xlink" x="0px" y="0px"
	 viewBox="0 0 1603 590" style="enable-background:new 0 0 1603 590;" xml:space="preserve">
<style type="text/css">
	.st0{fill:none;}
	.st1{display:none;fill:#F9FAFE;}
	.st2{fill:none;stroke:#A1A1A1;stroke-linecap:round;stroke-linejoin:round;stroke-miterlimit:1.5;}
	.st3{fill:none;stroke:#FC6C5B;stroke-width:2;stroke-linecap:round;stroke-linejoin:round;stroke-miterlimit:1.5;}
	.st4{fill:url(#SVGID_1_);}
	.st5{fill:#F9FAFE;}
</style>
<rect class="st0" width="1604" height="484"/>
<path class="st1" d="M449.9,126.7c14.8,0,28,2.2,39.9,6.5s21.9,10.3,30.2,18c8.3,7.7,14.7,16.8,19.2,27.4c4.4,10.6,6.7,22.3,6.7,35
	c0,10.9-1.5,21.1-4.6,30.4c-3.1,9.3-7.3,18.2-12.6,26.6c-5.3,8.4-11.5,16.6-18.5,24.4c-7,7.9-14.5,15.8-22.4,23.9l-58.4,60
	c7.5-2.2,14.9-3.9,22.2-5.2c7.3-1.3,14.2-2,20.6-2h55.7c6.8,0,12.2,1.9,16.2,5.6c4,3.8,5.9,8.7,5.9,14.9v37H340.1v-20.5
	c0-4,0.8-8.2,2.5-12.7c1.6-4.5,4.5-8.6,8.6-12.3l86.1-86.8c7.4-7.4,13.8-14.4,19.3-21.1c5.5-6.7,10-13.3,13.5-19.8
	c3.6-6.5,6.2-13,8-19.5c1.8-6.5,2.7-13.4,2.7-20.6c0-11.9-2.8-21-8.5-27.4c-5.7-6.4-14.3-9.5-25.9-9.5c-4.8,0-9.2,0.7-13.1,2.1
	c-4,1.4-7.5,3.2-10.7,5.5c-3.1,2.3-5.8,5.1-8.1,8.2c-2.3,3.1-4.1,6.6-5.4,10.3c-2.2,6.2-5,10.6-8.3,13.3c-3.3,2.7-7.9,4.1-13.6,4.1
	c-1.4,0-2.8-0.1-4.4-0.2c-1.6-0.1-3.2-0.3-4.8-0.6l-33.6-6c2.2-14.9,6.4-27.9,12.6-39c6.2-11.1,13.9-20.3,23.2-27.7
	c9.2-7.4,19.8-12.9,31.7-16.5C423.5,128.5,436.3,126.7,449.9,126.7z M793.8,279.5c0,26.1-2.8,48.8-8.4,68
	c-5.6,19.2-13.4,35-23.3,47.6c-9.9,12.6-21.7,22-35.2,28.1c-13.6,6.2-28.3,9.2-44.2,9.2c-15.8,0-30.5-3.1-44-9.2
	c-13.5-6.2-25.1-15.5-34.9-28.1c-9.8-12.6-17.5-28.5-23.1-47.6c-5.5-19.2-8.3-41.8-8.3-68s2.8-48.8,8.3-68
	c5.5-19.2,13.2-35,23.1-47.6c9.8-12.6,21.5-21.9,34.9-28c13.5-6.1,28.1-9.1,44-9.1c15.8,0,30.6,3,44.2,9.1
	c13.6,6.1,25.3,15.4,35.2,28c9.9,12.6,17.7,28.5,23.3,47.6C791,230.7,793.8,253.3,793.8,279.5z M728.2,279.5
	c0-20.7-1.3-37.6-3.9-50.8c-2.6-13.2-6-23.6-10.3-31.1c-4.3-7.5-9.2-12.7-14.7-15.5c-5.5-2.8-11-4.2-16.6-4.2s-11.1,1.4-16.5,4.2
	c-5.4,2.8-10.2,8-14.3,15.5c-4.2,7.5-7.5,17.9-10,31.1c-2.5,13.2-3.8,30.1-3.8,50.8c0,20.8,1.3,37.8,3.8,50.9
	c2.5,13.1,5.9,23.5,10,31.1c4.2,7.6,8.9,12.8,14.3,15.6c5.4,2.8,10.9,4.2,16.5,4.2c5.6,0,11.1-1.4,16.6-4.2s10.3-8,14.7-15.6
	c4.3-7.6,7.8-18,10.3-31.1C726.9,317.2,728.2,300.3,728.2,279.5z M853.6,383.1H911V232.2c0-7.4,0.2-15.1,0.6-23.2l-33.8,28.1
	c-2.2,1.8-4.4,3-6.6,3.8c-2.2,0.8-4.3,1.1-6.4,1.1c-3.6,0-6.7-0.8-9.5-2.4c-2.8-1.6-4.9-3.3-6.3-5L829,208l93-78.2h52.5v253.4h49.2
	v46H853.6V383.1z M1266.3,130v26.7c0,7.5-0.8,13.6-2.5,18.3c-1.6,4.7-3.2,8.6-4.7,11.9l-104.3,221.3c-2.7,5.9-6.8,10.8-12.1,14.9
	c-5.3,4-12.4,6.1-21.1,6.1h-46.3L1181.9,215c2.9-5.9,6-11.2,9.3-15.8c3.4-4.7,7-9.1,11-13.3h-131.3c-1.9,0-3.7-0.4-5.4-1.1
	c-1.7-0.8-3.2-1.8-4.5-3.1c-1.3-1.3-2.4-2.8-3.2-4.5c-0.8-1.7-1.2-3.5-1.2-5.2V130L1266.3,130L1266.3,130L1266.3,130z"/>
<path class="st2" d="M17,47.1l9.6,5.5v11.1L17,69.3l-9.6-5.5V52.6L17,47.1z"/>
<path class="st3" d="M456.2,4.2l13.7,7.9v15.8l-13.7,7.9l-13.7-7.9V12.1L456.2,4.2z"/>
<linearGradient id="SVGID_1_" gradientUnits="userSpaceOnUse" x1="1964.7491" y1="372.7798" x2="1965.7483" y2="372.7798" gradientTransform="matrix(8 11 11 -8 -18475.4063 -18432.0938)">
	<stop  offset="0" style="stop-color:#FF7E54"/>
	<stop  offset="1" style="stop-color:#F95962"/>
</linearGradient>
<path class="st4" d="M1346.5,194l7.4,4.3v8.5l-7.4,4.3l-7.4-4.3v-8.5L1346.5,194z"/>
<g>
	<path class="st5" d="M313.1,466.2v-64l106-106c20.5-20.5,34-36,40-46s9-21,9-33.5c0-18.5-12-37-38-37c-28.5,0-42.5,18-42.5,53.5
		h-74c0-38.5,11-68.5,32.5-91c22-22.5,50.5-33.5,85.5-33.5c37.5,0,66,10.5,85.5,32s29.5,46.5,29.5,76c0,24-4.5,44-14,60.5
		c-9,16-27,37-54.5,63l-57.5,55h126.5v71H313.1z"/>
	<path class="st5" d="M606.1,351.7V231.2c0-79.5,47-122.5,123-122.5c76.5,0,123,43,123,122.5v120.5c0,79.5-45.5,122-123,122
		C653.1,473.7,606.1,431.2,606.1,351.7z M773.1,226.7c0-27.5-14.5-47-44-47s-44,19.5-44,47v130c0,27.5,14,46,44,46s44-18.5,44-46
		V226.7z"/>
	<path class="st5" d="M940.6,466.2v-242h-32.5v-42.5l101.5-65.5h10v350H940.6z"/>
	<path class="st5" d="M1298.6,282.7c26.5,14.5,47,46,47,81.5c0,33.5-11.5,60-35,80c-23,19.5-54,29.5-93,29.5s-70-10-93.5-29.5
		c-23-20-34.5-46.5-34.5-80c0-35.5,20.5-67,47-81.5c-26-20.5-39-45.5-39-75c0-27.5,10.5-51,32-70c21.5-19.5,50.5-29,88-29
		s66.5,9.5,88,29c21.5,19,32,42.5,32,70C1337.6,237.2,1324.6,262.2,1298.6,282.7z M1217.6,314.2c-27.5,0-48.5,16-48.5,43.5
		c0,25.5,16.5,45,48.5,45s48.5-19.5,48.5-45C1266.1,330.2,1245.1,314.2,1217.6,314.2z M1217.6,176.7c-28.5,0-41.5,15.5-41.5,37.5
		c-3.5,54.5,86.5,54.5,83,0C1259.1,192.2,1246.1,176.7,1217.6,176.7z"/>
</g>
</svg>
