<?xml version="1.0" encoding="UTF-8"?><svg id="Capa_1" xmlns="http://www.w3.org/2000/svg" viewBox="0 0 51.45 58.71"><defs><style>.cls-1{fill:#fff;}</style></defs><path class="cls-1" d="M38.85,57.54l-2.35-7.8c-.08-.34-.25-.42-.5-.42H15.45c-.25,0-.42,.08-.5,.42l-2.35,7.8c-.25,.75-.75,1.17-1.59,1.17H1.28c-1.01,0-1.51-.67-1.17-1.59L17.97,1.17c.25-.76,.76-1.17,1.59-1.17h12.33c.84,0,1.34,.42,1.59,1.17l17.86,55.94c.34,.92-.17,1.59-1.17,1.59h-9.73c-.84,0-1.34-.42-1.59-1.17Zm-20.55-17.36h14.85c.34,0,.5-.17,.42-.59l-7.55-25.58c-.17-.42-.5-.42-.67,0l-7.46,25.58c-.08,.42,.08,.59,.42,.59Z"/></svg>