<?xml version="1.0" encoding="utf-8"?>
<!-- Generator: Adobe Illustrator 23.1.1, SVG Export Plug-In . SVG Version: 6.00 Build 0)  -->
<svg version="1.1" id="Capa_1" xmlns="http://www.w3.org/2000/svg" xmlns:xlink="http://www.w3.org/1999/xlink" x="0px" y="0px"
	 viewBox="0 0 1600 900" style="enable-background:new 0 0 1600 900;" xml:space="preserve">
<style type="text/css">
	.st0{fill:#003474;}
	.st1{fill-rule:evenodd;clip-rule:evenodd;fill:#08427C;}
	.st2{fill-rule:evenodd;clip-rule:evenodd;fill:#0C5189;}
</style>
<g id="Fondo">
	<rect x="-9.6" y="-11.2" class="st0" width="1621.5" height="924.5"/>
	<g>
		<g>
			<path class="st1" d="M473.7,5.9c0,0,118.4,177.9,165.2,197.9c0,0,58.5-4.4,66.4,0s42.6,25.9,46.2,34.3c3.6,8.4,6,26.3,13.2,34.7
				s71.9,39.5,94.6,43.1c22.8,3.6,77.8,14.4,88.6,21.6s7.2,24,13.2,32.3c6,8.4,41.9,22.8,56.3,32.3c14.4,9.6,59.3,7.2,72.7,13.2
				c13.5,6,42.2,24,42.2,24l10.8,9.6c0,0-6,20.4,0,26.3c6,6,31.2,10.8,31.2,10.8s-19.2-19.2-19.2-31.1c0-12-12-21.6-12-21.6
				s-59.9-27.5-68.3-34.7S991,329.1,985,318.4c-6-10.8-19.2-40.7-26.3-49.1c-7.2-8.4-75.4-26.3-92.2-33.5s-38.3-28.7-48.5-46.7
				s-29.3-67.7-35.3-74.3s-92.7,1.9-92.7,1.9L473.7,5.9z"/>
			<path class="st1" d="M202.1,257.9c0,0,76.1,49.7,97.3,68c21.3,18.2,91.1,26.3,104.8,31.4c13.7,5.1,46.5,50.6,46.5,50.6
				s18.9,33.7,23.4,57.9c4.5,24.2,65.2,51.5,65.2,51.5l57.5,24.3c0,0-89.2-100.3-99.1-124.6c-10-24.3,2.2-46.6-23.6-59.8
				c-25.8-13.2-88.7-34.4-95.3-58.7c-6.5-24.3-108.8-109.4-141.2-124.6c-32.4-15.2-128.5-51.6-128.5-51.6S171.6,224.5,202.1,257.9z"
				/>
			<path class="st1" d="M556.2,734.7c0,0-71.2-63.8-113.6-88.6c-42.3-24.8-65.5-14.2-65.5-14.2s-37.4-10.9-60.3-28.5
				s-19.3-49.5-33.5-67.2s-72.7-5.3-72.7-5.3L123,434.1l-57.9-60.9c0,0,62.5,81.5,73,99.2s83.2,120.5,97.3,138.2
				c14.2,17.7,33.7,14.2,47.8,39c14.2,24.8,30.1,53.2,53.2,74.4c23,21.3,70.8,53.2,96.6,67.3c25.7,14.2,66.5,28.4,66.5,28.4
				l70.9,15.9l116.7-21.4l178.6,80.4c0,0-107.8-108.3-178.6-134.9C660.3,749.6,556.2,734.7,556.2,734.7z"/>
			<path class="st1" d="M256.3,856.5c0,0-34.1-48.6-58.6-62.8c-24.4-14.1-55.3-20.1-66.9-34.3C119.2,745.3,74.5,713,74.5,713
				l-64.2-26.5c0,0,87.4,73.9,97,91.1s35.3,31.3,35.3,31.3L256.3,856.5z"/>
			<path class="st1" d="M1558,794c0,0,18.2-82-0.7-98.5s-9.3-147.4-26.1-164.6c-16.8-17.2-32.3-81.8-53.5-105.2
				c-21.2-23.4-31.8-60.5-55.7-88.2s-64.6-39-85.1-51.5s-84-42.7-84-42.7s77.6,36.3,90.2,72.6s5.5,81.5,5.5,81.5s-16.3,3.6,0,33.6
				c16.3,30.1,2.7,49.2,23.1,74.4s30.2,70.6,16.2,91.8s0,45.3,7.2,82.3s-104-8.8-104-8.8s-95.4-9.1-106.9-24.2
				c-11.5-15.1-95.5-40-95.5-40s-67.1-3.7-76.3,0c-9.1,3.7-37.9-20.5-61.3-41.7c-23.4-21.2-28-8.3-60.5-30.9
				c-32.5-22.7-38.8-56.9-57.4-73.5c0,0,20.9,36.5,27.5,73.5c0,0-33.4-3.7-57.6-9.7c-24.2-6.1-35.8-4.7-52.5-17.5
				s-35.1-20.8-35.1-20.8s28.3,25.5,35.1,39.7c6.8,14.1,12.2,28.2,20.9,33.6c8.7,5.4,107.6,30.3,132.9,42.1
				c25.3,11.7,46.8,50.4,46.8,50.4s58,81.5,94.5,82.7c36.6,1.2,96.2,41.9,124,35.3c73.2-17.6,219.6,71.6,291,85.3
				c39.3,7.6,87.8,47.7,130.5,39.6C1608.5,891.3,1558,794,1558,794z"/>
		</g>
		<g>
			<circle class="st2" cx="1136" cy="455.6" r="6.5"/>
			<circle class="st2" cx="1360.1" cy="366.8" r="6.5"/>
			<circle class="st2" cx="1524.2" cy="67.4" r="6.5"/>
			<circle class="st2" cx="1520.3" cy="478.6" r="10.4"/>
			<circle class="st2" cx="467.1" cy="707.8" r="5.5"/>
			<circle class="st2" cx="1224.8" cy="792.1" r="5.5"/>
			<circle class="st2" cx="1364.7" cy="536.7" r="5.5"/>
			<ellipse class="st2" cx="1094" cy="710.6" rx="8.9" ry="8.9"/>
			<circle class="st2" cx="346.2" cy="351.6" r="6.8"/>
			<circle class="st2" cx="1282.8" cy="455.7" r="6.8"/>
			<circle class="st2" cx="1455.8" cy="140.1" r="6.8"/>
			<circle class="st2" cx="1121.1" cy="355.1" r="10.9"/>
			<circle class="st2" cx="18.7" cy="674.5" r="6.5"/>
			<circle class="st2" cx="242.9" cy="585.7" r="6.5"/>
			<circle class="st2" cx="247.5" cy="755.6" r="5.5"/>
			<circle class="st2" cx="113.6" cy="444.8" r="6.8"/>
			<circle class="st2" cx="86.6" cy="239.4" r="10.9"/>
			<circle class="st2" cx="982.7" cy="707.8" r="5.5"/>
			<circle class="st2" cx="861.8" cy="351.6" r="6.8"/>
			<circle class="st2" cx="534.3" cy="674.5" r="6.5"/>
			<circle class="st2" cx="758.5" cy="585.7" r="6.5"/>
			<circle class="st2" cx="763.1" cy="755.6" r="5.5"/>
			<circle class="st2" cx="660.3" cy="424.4" r="5.5"/>
			<circle class="st2" cx="629.2" cy="444.8" r="6.8"/>
			<circle class="st2" cx="665.8" cy="245.9" r="5.5"/>
			<circle class="st2" cx="757.6" cy="54.1" r="6.8"/>
			<circle class="st2" cx="972.8" cy="170.7" r="10.9"/>
		</g>
		<g>
			<circle class="st2" cx="451.7" cy="848.9" r="5.4"/>
			<circle class="st2" cx="51" cy="509.7" r="5.4"/>
			<circle class="st2" cx="1219.3" cy="16.9" r="5.4"/>
			<circle class="st2" cx="242" cy="424.4" r="8.6"/>
			<circle class="st2" cx="961.9" cy="843.5" r="8.6"/>
			<circle class="st2" cx="1504.5" cy="166.1" r="4.6"/>
			<circle class="st2" cx="1230.3" cy="290.1" r="4.6"/>
			<circle class="st2" cx="473.8" cy="329.9" r="4.6"/>
			<circle class="st2" cx="303.1" cy="414.9" r="4.6"/>
			<circle class="st2" cx="977.4" cy="414.9" r="4.6"/>
			<circle class="st2" cx="353" cy="122.3" r="7.3"/>
			<circle class="st2" cx="1136" cy="84" r="5.7"/>
			<circle class="st2" cx="425.8" cy="608.4" r="5.7"/>
			<circle class="st2" cx="472.6" cy="547.9" r="5.7"/>
			<circle class="st2" cx="282.6" cy="869.9" r="5.7"/>
			<circle class="st2" cx="48.6" cy="820.4" r="9.1"/>
			<circle class="st2" cx="1509.9" cy="353" r="5.4"/>
			<circle class="st2" cx="1207.2" cy="526" r="5.4"/>
			<circle class="st2" cx="1252" cy="161.5" r="4.6"/>
			<circle class="st2" cx="1487.6" cy="637.3" r="5.7"/>
			<circle class="st2" cx="1509.9" cy="808.7" r="9.1"/>
		</g>
		<g>
			<circle class="st2" cx="470.7" cy="847.2" r="5.4"/>
			<circle class="st2" cx="51" cy="616" r="5.4"/>
			<circle class="st2" cx="97.6" cy="156.2" r="5.4"/>
			<circle class="st2" cx="141.9" cy="25.5" r="8.6"/>
			<circle class="st2" cx="844.9" cy="156.2" r="5.4"/>
			<circle class="st2" cx="839.5" cy="115" r="8.6"/>
			<circle class="st2" cx="1353.6" cy="579.4" r="4.6"/>
			<circle class="st2" cx="473.8" cy="436.1" r="4.6"/>
			<circle class="st2" cx="284.7" cy="493.2" r="4.6"/>
			<circle class="st2" cx="353" cy="228.6" r="7.3"/>
			<circle class="st2" cx="1199.2" cy="841.8" r="5.7"/>
			<circle class="st2" cx="393.1" cy="698" r="5.7"/>
			<circle class="st2" cx="498.8" cy="95.3" r="5.7"/>
			<circle class="st2" cx="203.9" cy="576.8" r="9.1"/>
			<circle class="st2" cx="743.1" cy="707.8" r="5.4"/>
			<circle class="st2" cx="972.8" cy="531.4" r="4.6"/>
			<circle class="st2" cx="916.3" cy="493.2" r="4.6"/>
			<circle class="st2" cx="906.1" cy="761.1" r="5.7"/>
			<circle class="st2" cx="734" cy="332" r="9.1"/>
			<circle class="st2" cx="1563.4" cy="589" r="5.4"/>
			<circle class="st2" cx="1207.2" cy="632.3" r="5.4"/>
			<circle class="st2" cx="1326.5" cy="115" r="4.6"/>
			<circle class="st2" cx="1487.6" cy="743.6" r="5.7"/>
			<circle class="st2" cx="1427.6" cy="817.8" r="9.1"/>
		</g>
		<path class="st1" d="M1195.1,164c0,0-42.8-28-54.8-38.3s-51.3-14.8-59-17.7c-7.7-2.9-26.2-28.5-26.2-28.5s-10.6-19-13.2-32.6
			s-36.7-29-36.7-29L972.8,4.2c0,0,50.2,56.4,55.8,70.1s-1.3,26.2,13.3,33.6c14.6,7.4,49.9,19.4,53.6,33.1s61.3,61.6,79.5,70.1
			c18.2,8.6,72.3,29.1,72.3,29.1S1212.2,182.8,1195.1,164z"/>
	</g>
</g>
<g id="Introduccion">
</g>
</svg>
