<?xml version="1.0" encoding="utf-8"?>
<!-- Generator: Adobe Illustrator 23.1.1, SVG Export Plug-In . SVG Version: 6.00 Build 0)  -->
<svg version="1.1" id="Capa_1" xmlns="http://www.w3.org/2000/svg" xmlns:xlink="http://www.w3.org/1999/xlink" x="0px" y="0px"
	 viewBox="0 0 340 300" style="enable-background:new 0 0 340 300;" xml:space="preserve">
<style type="text/css">
	.st0{clip-path:url(#SVGID_2_);}
	.st1{fill:#FFE8D7;}
	.st2{fill:#DBAF91;}
	.st3{fill:#079B6D;}
	.st4{fill:#068C60;}
	.st5{fill:#606060;}
	.st6{fill:#09D198;}
	.st7{fill:#FFFFFF;}
	.st8{fill:#0CBA84;}
	.st9{fill:#F7D7C1;}
	.st10{opacity:0.47;fill:#0CBA84;enable-background:new    ;}
	.st11{fill:#12DB9D;}
	.st12{opacity:0.42;fill:#0BAD77;enable-background:new    ;}
	.st13{fill:#898989;}
	.st14{fill:#777777;}
	.st15{opacity:0.36;fill:#0BA873;enable-background:new    ;}
	.st16{fill:#09D390;}
	.st17{opacity:0.35;fill:#12DB9D;enable-background:new    ;}
</style>
<g>
	<g>
		<defs>
			<rect id="SVGID_1_" x="25.5" y="22.7" width="314.5" height="277.3"/>
		</defs>
		<clipPath id="SVGID_2_">
			<use xlink:href="#SVGID_1_"  style="overflow:visible;"/>
		</clipPath>
		<g class="st0">
			<g>
				<path class="st1" d="M133.7,187.2c0,0,1.1-14.3-1.8-18.1c-3-3.8-9.8-23-12.1-42.2c0,0,1.1,1.1,3.8,1.1c2.7,0,29.4-3.8,37.3-3.8
					s23.8,1.8,23.8,1.8s15.1,1.1,21.5,3.4c0,0,0,21.2-9.8,38.8l-0.7,18.5L133.7,187.2z"/>
				<path class="st2" d="M147.7,149.6c0,0,3-1.2,7.1-1.7c3.3-0.4,2.9-0.1,11.3-0.1c8.4,0,8.7,0.6,11.6,1.8c0,0-6.2-5.8-9-6.7
					c-3.3-1-4.4,2.4-8.1,0.6l-0.4-0.2c-0.5-0.2-2.3-1.6-6.8,1.8C149.8,148,149.8,148.4,147.7,149.6z"/>
				<path class="st2" d="M152.6,152.4c0,0,5.4,1.8,10.7,1.7c5.2-0.2,8.4-0.8,9.5-1.7c1-0.8-1,6-10.1,6
					C157.7,158.4,153.4,155.3,152.6,152.4z"/>
				<path class="st2" d="M153.7,132.2c0,0,1.3,1.9,3.9,1.8c0,0,2.1,0.4,4.4,2.3c1.4,1.2,3.3-0.6,4.4-1.4c1.1-0.8,3.6,0,5.2-1.7
					c1.7-1.7,0-2.3,0-2.3s-4.7,1.8-8.6,1.5c-3.9-0.3-3-0.6-5.5-1.3C155,130.2,153.7,132.2,153.7,132.2z"/>
				<path class="st3" d="M119.8,127c0,0-1.6-19.5,1.8-30.2c3.3-10.7,8.8-21.4,10.2-22.8c1.4-1.4,9.1-8.5,9.1-8.5l3,10.7l6.3,17.3
					l14.6,18.7l15.3,13.5c0,0-11.8-17.3-14-20.9c-2.2-3.6-10.4-17.3-13.2-26.3s-3-11.3-3-11.3s11.6,25.8,22.6,34.9l-4.7-11.6
					l-9.1-22.6l7.1,9.1L176,89.1l8.8,5.5c0,0,6,9.6,6.8,11.3c0.8,1.7,3.3,14,3.3,14s1.7-20.6,1.7-23.4s3.6,10.4,3.6,10.4l2.5,18.4
					l3.9-20.9c0,0,0.8,20.7-0.6,25.2c0,0-8.2-4.1-23.4-4.1l-14.6-1.1H156l-27.4,2.8l-7.9,1.7L119.8,127z"/>
				<path class="st4" d="M189.6,126.2l-3.3-14.9c0,0-9.9-18.6-11.6-20.6c-1.7-2,6.6,35,6.6,35s-16.8-14-23.4-29.2
					c-6.6-15.2-8.1-29.6-8.1-29.6l15.9,1.1l23.9,15.2L204,98.6c0,0,2.9,21.4,2.9,22.6s3.3,9.9,3.3,9.9L189.6,126.2z"/>
				<path class="st5" d="M130.9,171.2c0,0-32.2-29.7-33.3-39c-1.1-9.3,2.2-46.1,21.7-83c0,0,15.3-3,19.5-2.5
					c4.2,0.6,11-15.1,19.2-15.3s20.9,1.1,20.9,1.1S200.4,38.2,213,58s18.9,30.2,20.3,33.3s5,8.5,13.2,12.1s18.7-0.3,18.7-0.3
					s-15.1,12.7-18.4,13.5s1.1,5.2,1.1,5.2s3.6,5.2,11,4.2c7.4-1.1,12.9-1.7,12.9-1.7l-11.8,7.9c0,0,8.8-0.8,7.1,0.8
					s-12.4,10.4-12.4,10.4s10.2,0.3,9.6,1.7s-19.2,12.4-19.2,12.4l-48.8,11c0,0,9.5-18.4,10.4-42.3v-19.9l-3.6,17
					c0,0-1.9-14.9-3.3-20.3c-1.4-5.5-2.8-3.9-2.8-3.9l-1.9,20.6c0,0-4.4-21.4-10.2-25.2c-5.7-3.9-22.6-17.8-26.3-26.6
					c0,0,3.9,18.7,16.5,36.2c0,0-17.8-14.3-25.2-37.1c0,0,3.9,26.3,30.2,58.5c0,0-33.8-23.7-39.3-60.2c0,0-15.1,7.4-20.1,35.1
					s6.8,60.2,8.5,65.3C130.9,171.2,130.9,171.2,130.9,171.2z"/>
				<path class="st6" d="M84.7,325.9c1.5-3,2.3-4.7,2.3-4.7l4.4,4.9c23.9,0.4,47.9-0.1,71.8-0.9c26.3-0.9,52.7-2.2,79-3.3
					c6.4-0.3,12.7-0.6,19-0.7c2.3-3.9,3.8-6.5,3.8-6.5c1.7,1.9,3.6,4,5.6,6.1c16.4-0.5,32.7-0.8,49.1-0.8h26.2l-0.3-0.4l-23.1-25.2
					l-28.9-41.2c0,0-12.9-7.1-15.3-10.4c-2.5-3.3-15.8-5.5-33.9-9.6s-39.6-18.1-44.1-23.9c-4.5-5.7-4.8-22.2-4.8-22.2l-61.8,0.4
					l-3.4,12.8c-7.4,22.3-35.9,26.8-35.9,26.8l-17.3,3.7c0,0-11.1,2-16.1,3.7s-10.7,13.2-11.1,15.2c-0.4,2-3.3,18.9-6.2,28
					c-3,9.1-15.8,39.2-15.8,39.2l-2.7,5.5C45.2,324.3,65,325.4,84.7,325.9z"/>
				<path class="st7" d="M133,109.5c0,0,8.7-4.3,12.6-4.2c3.9,0.2,6.4,2,6.4,2s2.3,3.9,1.8,3.9C153,111.4,141.9,112.5,133,109.5z"/>
				<path class="st7" d="M192.6,109.5c0,0-8.7-4.3-12.6-4.2c-3.9,0.2-6.4,2-6.4,2s-2.3,3.9-1.8,3.9
					C172.4,111.3,183.7,112.5,192.6,109.5z"/>
				<path class="st8" d="M145.5,186.5l50.2,0.4c0,0-1.3,23.8,14.1,32.6C209.7,219.5,173.5,231.1,145.5,186.5z"/>
				<path class="st9" d="M145.5,186.5l-11-14.6c0,0,14,8.7,36.7,6.6c0,0,18.8-2.1,25.2-10.2l-0.7,18.5L145.5,186.5z"/>
				<path class="st9" d="M134.5,172c0,0,28.5,5.4,35.4,3.3c7-2,11.6-1.7,15.2-11.9c3.7-10.3,6.6-23.5,7.4-36.7l13.6,3
					c0,0-2.8,29.8-11.6,39.1c-8.8,9.3-10.7,11.9-13.2,11.9c-2.5,0-23.1,0.4-25.1,0.4S134.5,172,134.5,172z"/>
				<path class="st4" d="M128.6,127.2c0,0-3.9-31.1,6.6-56c0,0-19.5,15.3-14.6,57.7L128.6,127.2z"/>
				<path class="st10" d="M84.2,325.9l2.9-4.7l4.4,4.9c16.3,0.3,32.6,0.1,48.9-0.3c-6.9-4.5-36.7-18.9-29-55.7
					c5.7-27.4,31.6-67,28-82.4l-5.6-0.4c0,0-4.3,30.9-26.5,36.6c-22.3,5.7-40.9,4.7-46.1,10.3c-8.9,9.6-10.7,20.1-11.6,22.6
					c-0.6,1.7-15.1,39.6-24.9,65.2C44.4,324.3,64.3,325.4,84.2,325.9z"/>
				<path class="st10" d="M163.4,325.1c15.7-0.6,31.3-1.2,47-1.9c-2.7-1.2-5.2-2.1-7.3-2.6c-5.3-1-28.7-4.7-58.7,5.1
					C150.7,325.5,157.1,325.3,163.4,325.1z"/>
				<path class="st11" d="M249.2,303c-7-5.5,0.7-25.6-2.2-41c0,0-1.8-5.9,0.9-5.9c3.8,0,10.5,23,12.1,31.5
					c0.8,4.6,2.2,11.4-0.4,14.2C257.5,304.1,252.8,305.8,249.2,303z"/>
				<path class="st12" d="M163.4,325.1c15.6-0.6,31.2-1.2,46.8-1.9c-8.8-3.3-17.4-3.7-28.4-4.9c-8.6-0.9-24.4,3.2-37.5,7.4
					C150.7,325.5,157,325.3,163.4,325.1z"/>
				<path class="st13" d="M202.5,61.6c2,2,11.1,17.7,16.9,28.8s32.2,29.3,52.3,6.2c0,0-21.8,26-43.3-15.2S202.5,61.6,202.5,61.6z"/>
				<path class="st13" d="M208.1,108c0,0,1.4,15.3,9.9,21.4c0,0-5.2-11-5.5-16.2c0,0,6.3,14.9,23.1,18.7c0,0-11.8-6.8-15.1-13.8
					c0,0,17.3,13.5,37.8,10.8c0,0-26.3-5.8-33.8-16.3c0,0,17.9,1.8,29.5-3c0,0-27.2,4.2-36-7.6c-8.8-11.8-11.6-15.9-11.6-15.9
					L208.1,108z"/>
				<path class="st14" d="M151.2,66.2c0,0,12.5-4,19.2,1.7c1.7,1.4,16.7,9.2,26.6,31.3c0,0-9.9-29.4-29.7-40.9c0,0,20.9,0,40.9,42.6
					c0,0,8.2,10.7,16.5,14.6c0,0-11.3-9.9-17.8-26.3s-21.4-36.5-33.8-40.7c0,0,18.1,3.3,46.1,33.8c0,0,25.8,36.8,45.8,20.9
					c0,0-21.2,12.1-43.4-29.9c0,0-44.3-77.7-80.8-26.6L151.2,66.2z"/>
				<path class="st14" d="M151.2,66.2c0,0-9.8-10.8-22.6,0.6c0,0-14,10.7-14,44.9c0,0,0.4,12.4,2.9,30.1c0,0-9.9-20.6-5.7-57.7
					c0,0-4.5,15.6-6.6,30.1c0,0-6.2-28,7.4-55.2l6.7-9.9c0,0,12.5-5.6,21.2-3.9L151.2,66.2z"/>
				<path class="st5" d="M144.7,54.2c0,0-7.4-1.7-14.9,4.2s-12.7,21-14.3,43.2c0,0,5.1-47.4,31.5-42.9L144.7,54.2z"/>
				<path class="st5" d="M145.7,55.2c0,0,6-13.2,28.7-14.2c0,0-17.7-4.3-30.5,11.7L145.7,55.2z"/>
				<path class="st5" d="M146.7,58.2c0,0,22-15.6,49.6,6.6c0,0-22.3-21.8-51.5-10.7L146.7,58.2z"/>
				<path class="st5" d="M143.1,50.8c0,0-14-5.4-30.5,8.2c0,0,13.2-14.9,26.2-12.4L143.1,50.8z"/>
				<path class="st5" d="M144.6,53.6l-2.5-4.6c0,0-4.5-1.8-13.6,6.4C128.4,55.4,138.6,49.1,144.6,53.6z"/>
				<path class="st5" d="M113.2,80c-0.6,1.6,5.2-17.9,11.9-23.7C125.2,56.4,116.5,71,113.2,80z"/>
				<path class="st14" d="M118,147.9c0.9,0.9-9.5-19.6-10.3-33.4c0,0,0.6,16.3,2,19.4C111.2,137,116.1,146,118,147.9z"/>
				<path class="st5" d="M111.4,123.4c0-1,2.9-33.4,9.1-45.6c0,0-7.6,15.9-10.1,36.5L111.4,123.4z"/>
				<path class="st14" d="M145.4,61.4c-2.3,0.2,2,16.1,8.7,28.8c6.7,12.8,28.5,37.9,28.5,37.9s-20.1-25.5-26.2-40.8
					c-6-15.2-7.9-21.4-6.2-23.3C151.7,62.2,145.4,61.4,145.4,61.4z"/>
				<path class="st14" d="M144.6,53.6c0,0-13.5,1.8-17.6,13.3c0,0,8-10.5,19.1-10.1L144.6,53.6z"/>
				<path class="st5" d="M210.5,93.4c-1.1-0.8-15.1-31.3-38.7-38.2c0,0,16.5,1.9,27.2,16.5S210.5,93.4,210.5,93.4z"/>
				<path class="st5" d="M172.1,43.7c0,0,24.5-1.9,47.2,28.8C219.3,72.6,198.2,47,172.1,43.7z"/>
				<path class="st14" d="M151.2,66.2c0,0,13.5,26.3,23.9,37.9c0,0-18.9-28.8-20.6-40.1C152.8,52.7,151.2,66.2,151.2,66.2z"/>
				<path class="st14" d="M181.1,90.9c0.7,0.6-17.8-33.8-22.8-26.3C158.3,64.6,177.3,87.3,181.1,90.9z"/>
				<path class="st14" d="M195.2,119.8c0,0-2.8-37.3-22.6-51.9l10.7,7.7c0,0,12.1,12.9,12.4,25.5
					C195.9,109.7,196.3,114.9,195.2,119.8z"/>
				<path class="st14" d="M130,72c0.8-0.6-8.8,12.1-9.3,30.8C120.7,102.8,118,81.1,130,72z"/>
				<path class="st13" d="M110.8,107.1c0,0,0-30.2,13.5-42.9C124.3,64.3,111.4,90.9,110.8,107.1z"/>
				<path class="st13" d="M145.5,55.2c0,0,6.1-3.8,17-3c11,0.8,24.5,9.1,24.5,9.1s-26.1-12.7-39.6-1.9L145.5,55.2z"/>
				<path class="st13" d="M145.5,55.2c0,0,4.2-5.7,13.5-9.6c9.3-3.9,25,0.8,37.9,7.4c0,0-34.4-15.1-47.2,1.7L145.5,55.2z"/>
				<path class="st13" d="M193.5,82.7c0,0,11.6,23.9,9.6,40.7c0,0,3.3-18.7,0.9-24.8c-2.3-6-12.8-25-18-29.4L193.5,82.7z"/>
				<path class="st14" d="M222.1,98.1c-6-5.2-28-41.8-34.9-44.5c-6.8-2.8,15.2,7.9,15.2,7.9L222.1,98.1z"/>
				<path class="st13" d="M151.9,57.4c0,0,16.6-2.2,25.1,9.6c0,0-12.1-9.3-28.8-4.7l-1.7-5L151.9,57.4L151.9,57.4z"/>
				<path class="st13" d="M143.1,50.8c0,0,10.4-18.9,31.9-17.2c0,0-18-6.5-28.3,3S142.1,49,142.1,49L143.1,50.8z"/>
				<path class="st13" d="M150.1,66.4c0,0-0.1,7.3,2.2,12.9c0,0-5.6-15.3-5.4-20.6C147.2,53.4,150.1,66.4,150.1,66.4z"/>
				<path class="st13" d="M146.2,56.8c0,0-6.9,0.2-10.5,2.8c0,0,2-3.2,9.7-4.4L146.2,56.8z"/>
				<path class="st5" d="M155.7,68.3c0,0-3.1-6.8-3.6-7.4c-0.4-0.6,4.2,1.4,6.2,3.7c2,2.3,4.4,7,3.4,6.8
					C160.8,71.3,155.7,68.3,155.7,68.3z"/>
				<path class="st13" d="M153,60.5c0,0,8.4,3.1,13,8.8c0,0,4.3,5.5,6.2,6.7c0,0-9.3-14.7-11.6-15.9C158.5,59,153,60.5,153,60.5z"/>
				<path class="st13" d="M147.7,60.5c0,0-1.8,6.6-0.9,11.8c0,0-2.5-8.7-2.3-10.4c0,0-3.6-1.2-7.4-0.1c-3.9,1.1,8.7-3.4,11.4-3.3
					C151.1,58.7,147.7,60.5,147.7,60.5z"/>
				<path class="st14" d="M150,65.1c0,0-1.5-5.4-1.7-6.6c-0.1-1.2,3.9,2.3,3.9,2.3l1.8,5.1L150,65.1z"/>
				<path class="st14" d="M162.9,66.2c0,0-8.2-6.3-9.9-7l7.4,7.9L162.9,66.2z"/>
				<path class="st5" d="M180.6,127.5c0,0,4.8,4,6.2,4.9c0,0-2.9-4.1-3.9-5.1c-1-1-2-1.8-2-1.8L180.6,127.5"/>
				<path class="st15" d="M292.7,320.1c-1.8-1.8-3-3-3.3-3.4l3,3.4C292.5,320.1,292.6,320.1,292.7,320.1z"/>
				<path class="st11" d="M336.3,319.9h11.3c-2.2-2.2-4.3-4.3-5.9-5.8c-10.4-10.2-32.2-34.7-35-30.9c-2.5,3.2,2.7,6.5,4.5,9.9
					C312.3,294.9,323.8,306.9,336.3,319.9z"/>
				<path class="st11" d="M337.1,319.9h9.6l-11.6-11.9l-16.5-19.8l-9.1-16.5l-21-22.6c2,3.3,14.4,33.5,18.6,38.7
					C309,290.2,322.8,304.9,337.1,319.9z"/>
				<polygon class="st8" points="123.2,233.4 114,235.5 110,242.9 114.2,251.2 123.7,250.6 127.2,241.8 				"/>
				<polygon class="st8" points="109.9,244.6 100.7,246.8 97.5,256.1 102.1,264 110.3,261.9 113.4,252.4 				"/>
				<polygon class="st8" points="175.3,219.1 166.2,219.1 161.6,224.5 165.7,231 174.6,231.3 179,225.3 				"/>
				<polygon class="st8" points="140.8,188.5 133.9,188.4 130.5,193.7 133.9,198.4 140.8,198.7 144.4,193.7 				"/>
				<polygon class="st8" points="87.2,257.8 96.2,255.5 99.3,245.9 94.6,238.4 86,240.8 82.1,251 				"/>
				<path class="st8" d="M154.9,288c0-0.6,11.7-2,11.7-2l4.5-8.2l-6.6-9.5l-10.9,0.8l-4.5,10.3L154.9,288z"/>
				<polygon class="st8" points="167.8,267 174.7,275.8 186.1,276.4 191.8,268 185.6,258.3 172.8,257.5 				"/>
				<polygon class="st8" points="193.4,269.7 206.2,271.3 211.5,280.1 206,289.6 193.6,287.6 187.8,277.7 				"/>
				<polygon class="st8" points="193.7,247.5 189.7,240.4 194,234.4 202.5,235 206.8,242.1 202.8,248.6 				"/>
				<polygon class="st16" points="179.6,239.1 175.6,232.3 180,226.3 188.5,227.3 192.6,233.6 188.5,239.6 				"/>
				<polygon class="st8" points="194.1,232.8 190,225.9 194,221.6 202.3,222.8 206.7,228.3 202.8,233.6 				"/>
				<path class="st17" d="M202.8,211.6l-8.9-0.8l-3.8-4.9l4.2-4.3l3.8,0.8C198.1,202.3,200.3,209.4,202.8,211.6z"/>
				<path class="st5" d="M132.1,172.4c-2.4-4.3-4.2-8.8-5.8-13.4c-1.6-4.6-2.9-9.2-4-14c-2.1-9.5-3.3-19.2-3.8-28.9
					c-0.6-9.8,0.7-19.8,4.2-29c1.8-4.6,4.1-9.1,7-13c3-4.1,6.3-7.7,10.5-10.6c0.6-0.5,1.6-0.3,2,0.4c0.2,0.2,0.3,0.5,0.3,0.7v0.2
					c0.2,3,0.8,6.2,1.6,9.1l0.6,2.3l0.7,2.2c0.5,1.5,1.1,3,1.7,4.4c2.4,5.9,5.6,11.5,9.1,16.7l2.8,3.9c0.9,1.3,2,2.5,3,3.8
					c1.9,2.5,4.2,4.8,6.4,7.2c1,1.2,2.2,2.3,3.4,3.4l3.5,3.3c2.4,2.1,4.9,4.1,7.4,6.2l-1.1,1.1c-3.8-4.6-7.3-9.4-10.6-14.2
					c-3.3-4.9-6.6-9.9-9.5-15.1c-2.9-5.2-5.6-10.4-7.8-16s-3.9-11.3-4.5-17.3c0-0.4,0.2-0.6,0.6-0.6c0.3,0,0.6,0.2,0.6,0.4l0,0
					c1.2,3.7,2.9,7.3,4.6,10.7c1.8,3.5,3.8,6.8,5.9,10.2c2.1,3.2,4.5,6.4,7.1,9.3c2.5,3,5.4,5.6,8.3,8.1l-1.7,1.5
					c-4-5.9-7.6-11.9-10.8-18.2c-1.6-3.1-3.1-6.4-4.4-9.7c-1.3-3.3-2.4-6.7-2.9-10.4c-0.1-0.8,0.5-1.6,1.3-1.7
					c0.6-0.1,1.1,0.2,1.4,0.6l0,0c1.8,2.7,3.7,5.3,5.6,7.8c2,2.5,4.1,5,6.3,7.4c2.2,2.3,4.5,4.6,6.9,6.7c2.4,2,5,4,7.7,5.5l0,0
					c0.2,0.1,0.3,0.2,0.4,0.4c1.7,2,3,4.1,4.3,6.3c1.3,2.1,2.4,4.4,3.3,6.7c0.9,2.3,1.7,4.8,2.2,7.3c0.5,2.5,0.6,5.2,0.5,7.8
					l-3.4-0.5c0.5-2.5,0.8-5.1,1.1-7.6c0.3-2.6,0.4-5.2,0.4-7.8c0-5.2-0.6-10.3-2-15.1v-0.1c-0.3-0.9,0.2-1.8,1.1-2.1
					c0.7-0.2,1.5,0.1,1.9,0.7c1.8,2.9,3,5.7,4.1,8.8c1.1,3,1.9,6,2.6,9.1c0.6,3.1,1.1,6.2,1.4,9.3c0.3,3.1,0.3,6.3,0.3,9.4l-2.9-0.5
					c1.1-4.2,2-8.4,2.7-12.6c0.6-4.3,1.1-8.5,0.7-12.7v-0.1c-0.1-0.7,0.5-1.3,1.1-1.4c0.6-0.1,1.2,0.4,1.4,1
					c1,5.9,1.2,11.8,1.1,17.7c-0.1,5.9-0.6,11.8-1.5,17.7c-0.9,5.8-2.1,11.6-3.9,17.2c-1.7,5.6-3.9,11.1-6.2,16.5l-0.3-0.1
					c2.1-5.5,4.2-10.9,5.5-16.6c1.6-5.6,2.5-11.4,3.2-17.2c0.7-5.7,1-11.6,1-17.4c-0.1-5.8-0.6-11.6-1.6-17.2l2.5-0.4
					c0.5,4.5,0.1,9-0.6,13.4c-0.6,4.3-1.5,8.7-2.6,13c-0.2,0.8-1,1.3-1.8,1.1c-0.6-0.2-1.1-0.7-1.1-1.4v-0.1c0-3-0.1-6.1-0.4-9.1
					c-0.3-3-0.8-6-1.4-9c-0.6-3-1.5-5.8-2.6-8.7c-1-2.8-2.3-5.6-3.8-8l3-1.5c1.7,5.3,2.2,10.7,2.2,16.1c0,2.7-0.2,5.4-0.4,8
					c-0.3,2.7-0.6,5.3-1.2,8c-0.2,0.9-1.1,1.6-2,1.4c-0.8-0.2-1.4-0.9-1.4-1.8v-0.1c0.1-2.3,0-4.5-0.5-6.8c-0.5-2.2-1.1-4.5-2-6.7
					c-0.8-2.2-1.9-4.3-3-6.4c-1.2-2-2.5-4.1-3.9-5.8l0.5,0.4c-5.8-3.5-10.7-8.1-15.2-12.9c-2.2-2.5-4.3-5-6.4-7.6
					c-2-2.6-4-5.3-5.7-8l2.8-1c0.4,3.2,1.4,6.6,2.6,9.8c1.2,3.2,2.6,6.4,4.2,9.5c1.6,3.1,3.1,6.2,4.9,9.2c1.8,3,3.5,6,5.4,9v0.1
					c0.4,0.6,0.2,1.2-0.4,1.6c-0.5,0.3-1,0.2-1.4-0.1c-3-2.7-5.8-5.5-8.3-8.6c-2.6-3-4.9-6.3-7-9.6c-2.1-3.3-4.1-6.8-5.8-10.4
					c-1.8-3.6-3.2-7.2-4.5-11l1.2-0.2c0.6,5.8,2.2,11.5,4.3,17c2,5.5,4.8,10.7,7.7,15.9c3,5.1,6.2,10.1,9.6,14.9s7,9.5,10.8,14l0,0
					c0.3,0.4,0.3,0.8-0.1,1.1c-0.3,0.3-0.7,0.3-1,0c-2.6-2-5.2-4-7.7-6l-3.6-3.2c-1.2-1.1-2.5-2.1-3.6-3.3c-2.3-2.3-4.6-4.6-6.7-7.1
					c-1-1.3-2.2-2.4-3.1-3.8l-3-3.9c-3.8-5.4-7-11.1-9.6-17.1c-0.6-1.6-1.3-3-1.8-4.6l-0.8-2.3l-0.3-3c-0.8-3.2-1.6-6.4-1.8-9.9
					l2.2,1.2c-3.7,2.5-7.1,6-9.8,9.8c-2.8,3.8-5,7.9-6.7,12.4c-3.3,8.9-4.7,18.4-4.4,28c0.2,9.6,1.2,19.2,3,28.7
					c1.8,9.4,4.4,18.9,8.6,27.5L132.1,172.4z"/>
				<path class="st5" d="M155.1,177.6c4,0.3,7.9,0.3,11.9,0.1c4-0.2,7.9-0.6,11.6-1.6s7.3-2.4,10.6-4.2c3.3-1.7,6.1-4.2,8.5-7.4
					l0.3,0.1c-0.6,4.1-3.5,7.9-7.1,10.2c-1.8,1.2-3.7,2-5.7,2.6c-2,0.6-4.1,0.9-6.1,1.3c-4.1,0.6-8.1,0.7-12.1,0.6
					c-4.1-0.2-8-0.6-12-1.4L155.1,177.6z"/>
				<path class="st5" d="M146.8,176.6c-4.2-0.5-9.8-2.9-13.2-5.4c-1.8-1.2-2.9-1.6-4.1-3.2c-1.3-1.7-1.2-3.9-1.8-5.9l0.2-0.1
					c1.4,1.6,2.5,3.2,3.9,4.7c1.3,1.5,2.7,3,4.2,4.3c1.6,1.3,3.2,2.4,5.1,3.3c1.8,0.9,3.7,1.7,5.7,2.1L146.8,176.6z"/>
				
					<rect x="133.4" y="185.2" transform="matrix(1 -8.788384e-03 8.788384e-03 1 -1.636 1.4545)" class="st5" width="62.7" height="3.3"/>
				<path class="st5" d="M149.2,325.6c9.9-3,20.1-5.1,30.5-5.2c8.4-0.2,17,0.7,25.1,3c2.4-0.1,4.9-0.2,7.3-0.4
					c-1.6-0.6-3.1-1.3-4.7-1.8c-3-1-6-1.8-9.1-2.4c-3-0.6-6.2-1.1-9.3-1.4c-1.6-0.1-3.1-0.3-4.7-0.3l-4.6-0.1
					c-6.3,0-12.6,0.9-18.7,2.2c-6.1,1.4-12,3.1-17.7,5.4c-0.9,0.4-1.8,0.7-2.8,1.1C143.3,325.7,146.2,325.6,149.2,325.6z"/>
				<path class="st5" d="M131.6,329.4c-1.8,0.6-3.5,1.2-5.3,1.8c-2.9,0.9-5.7,1.7-8.7,2.3c-1.5,0.4-3,0.6-4.4,0.8
					c-1.5,0.3-3,0.6-4.4,0.5l-0.1,0.3c1.6,0.3,3,0.1,4.6,0c1.5-0.1,3-0.3,4.5-0.5c3-0.5,6-1,9-1.7c3.9-0.8,7.7-2.2,11.4-3.6
					C135.9,329.3,133.7,329.4,131.6,329.4z"/>
				<path class="st5" d="M205.9,130.2c-11.5-3.7-36-4.6-44-4.9h-0.6c-7.6-0.3-40.5,3.5-40.8,3.6l-0.2-1.7c1.4-0.2,33.4-3.8,41-3.6
					h0.6c8.1,0.3,32.8,1.2,44.5,5L205.9,130.2z"/>
				<g>
					<path class="st5" d="M88.2,320.1c-0.4-0.4-0.9-0.6-1.4-0.6c-0.6,0.1-1,0.4-1.2,0.8l-2.9,5.5c0.7,0,1.4,0,2.1,0.1
						c0.6,0,1,0,1.6,0l1-1.9l1.8,1.9c1.5,0,3,0.1,4.5,0.1L88.2,320.1z"/>
					<path class="st5" d="M265.8,314.2c-0.6-0.6-1.7-0.6-2.3,0c-0.6,0.6-0.6,1.7,0,2.3c0.5,0.5,2,1.9,4.3,4.3c1.6-0.1,3-0.1,4.6-0.2
						C268.4,316.7,266,314.3,265.8,314.2z"/>
					<path class="st5" d="M27.2,322.4c8.3-20.3,16.5-44.5,22.1-60.8c2.8-8,4.9-14.4,5.8-16.7c3.8-9,14-11.9,15.2-12.2
						c12.8-0.9,51.4-3.6,60.1-29.1c8.3-24.3,3.6-31.5,3-32.3c-0.1-0.1-0.1-0.1-0.2-0.2c-12.3-11.8-32-32.3-33.5-37.4
						c0.1-3.9,1.9-56.6,21.3-83.6c2-0.6,10.4-3.3,19-1.9c0.7,0.1,1.5-0.3,1.8-1c0.1-0.1,4.8-11.8,17.6-15c12.7-3,39,4.9,55.4,31.7
						c1.1,1.8,2.2,3.6,3.2,5.4c13.5,22.3,25.3,41.8,42.6,36.6c-1.5,1.6-3.2,3.3-5.4,4.8c-5.6,4.1-10.4,5.2-10.4,5.2
						c-0.5,0.1-0.8,0.4-1.1,0.8c-0.2,0.4-0.3,0.9-0.1,1.4c0.1,0.2,2,5.6,7.5,8.1c4,1.8,8.6,1.6,13.9-0.6l3.4-1.2
						c-2.5,2.4-5.9,5.1-10,6.3c-0.6,0.2-1.1,0.8-1.2,1.5c0,0.7,0.4,1.3,1,1.6c0.2,0.1,2.8,1.1,6.5,0.9c-3.9,3.3-8.9,7.2-12.3,8
						c-0.7,0.2-1.3,0.8-1.3,1.7c0,0.7,0.6,1.4,1.3,1.6c0.2,0,3.9,0.7,8.3,0.6c-8.9,5.4-28.7,15-64.8,20.9c-0.7,0.1-1.3,0.7-1.4,1.5
						c-0.1,1.3-2.7,31.4,4.2,41.7c7.2,10.8,43.6,23.8,57.8,27.1c0,0,4,0.6,8.8,1.8c6.3,1.5,11.2,3.3,14.2,5.2
						c14.6,9.2,28.3,27.6,36.2,41.8c3,5.4,14.8,18.9,28.6,33.6h4.4c-14.3-15.2-27-29.8-30-35.2c-8.1-14.4-22.3-33.3-37.3-42.9
						c-3.3-2.1-8.4-4-15.2-5.6c-5-1.2-8.9-1.8-9-1.8c-15.9-3.6-49.6-16.7-55.5-25.7c-5.5-8.2-4.1-32.5-3.7-38.4
						c52.2-8.8,70.2-24.8,71-25.5c0.6-0.6,0.7-1.4,0.3-2c-0.4-0.6-1.2-1-1.9-0.7c-2.7,0.9-5.7,1.1-8.2,1
						c6.1-3.8,12.4-10.1,12.7-10.4c0.6-0.6,0.6-1.5,0.2-2.1c-0.5-0.6-1.3-0.9-2-0.6c-1.8,0.8-3.5,1.1-5.1,1.2
						c6.3-3.8,10.3-9.4,10.4-9.8c0.4-0.6,0.4-1.4-0.1-1.9c-0.5-0.6-1.2-0.8-1.8-0.6l-9.4,3.3c-4.3,1.8-8.1,2-11.3,0.6
						c-2.6-1.2-4.2-3.2-5-4.7c2.1-0.7,5.6-2.3,9.6-5.2c6.2-4.5,10.2-10.6,10.4-10.9c0.4-0.6,0.4-1.5-0.2-2c-0.6-0.6-1.4-0.6-2-0.3
						c-17.2,10.4-28.1-5.6-44.5-32.6c-1.1-1.8-2.1-3.5-3.2-5.4c-17.2-28.1-45.4-36.4-59-33.2c-12,2.9-17.7,12.4-19.3,15.7
						c-10.3-1.2-19.5,2.3-20,2.5c-0.3,0.1-0.6,0.3-0.7,0.6c-21,28.9-22.3,84-22.3,86.3c0,0.1,0,0.3,0,0.4
						c1.7,7.3,30.4,35.3,34.4,39.1c0.5,0.8,3.7,8-3.6,29.2c-8,23.5-45.1,26.1-57.3,26.9c-0.1,0-0.2,0-0.3,0
						c-0.6,0.1-12.9,3-17.7,14.1c-1,2.4-3,8.5-5.9,16.9c-5.3,15.5-13.9,40.8-22.4,61.6C24.9,322.2,26.1,322.3,27.2,322.4z"/>
				</g>
				<path class="st5" d="M149.7,112.1c-3.7,0-6.5,0-15.5-1.9l-2.8-0.9l1-0.6c0.4-0.2,9.2-3.9,14-3.9c0.1,0,4.3-0.3,6.7,3l0.1,0.2
					l1.1,3.9l-1,0.1C153.2,112,151.9,112.1,149.7,112.1z M133.6,109.2c8.5,2.1,16.7,2,19.1,1.8l-0.9-2.4c-1.9-2.5-5.2-2.3-5.3-2.3
					C143.5,106.3,136.6,108,133.6,109.2z"/>
				<path class="st5" d="M143.1,105.1c0.6-0.2-10.7,1.9-14.1-0.6c0,0-0.3,3.7,2.5,4.7C131.4,109.2,141.2,105.8,143.1,105.1z"/>
				<path class="st5" d="M172.2,111.9l-1-0.1l1.1-3.9l0.1-0.2c2.4-3.3,6.6-3.1,6.7-3c4.8,0,13.7,3.8,14,3.9l1,0.6l-2.8,0.9
					c-9.1,1.9-11.8,1.9-15.5,1.9C173.6,112.1,172.3,112,172.2,111.9z M179,106.3c0,0-3.3-0.2-5.3,2.3l-0.9,2.4
					c2.4,0.2,10.7,0.3,19.1-1.8C189,108,182.1,106.3,179,106.3z"/>
				<path class="st5" d="M192.8,105.6c-4.5,0.5-10.7-0.6-10.4-0.6c1.8,0.6,10,3.5,11.5,4L192.8,105.6z"/>
				<polygon class="st5" points="174.9,105.5 185.2,114.8 176.6,104.1 				"/>
				<path class="st5" d="M193.2,121.4l-2.1,18.9c0,0,4.8-14,5.5-18.4C197.3,117.5,193.2,121.4,193.2,121.4z"/>
				<polygon class="st5" points="201.2,125.7 200.6,137.2 204,126.5 				"/>
				<path class="st5" d="M263.3,107.7c0,0,4.5-4.7,9.3-12.5l-8.6,5.5c0,0-1,2.4-1.2,2.8C262.7,103.9,263.3,107.7,263.3,107.7z"/>
				<path class="st5" d="M264,122.4l14.3-6.2c0,0-2,6.3-6.9,9.9l-9.2,3.9L264,122.4z"/>
				<path class="st5" d="M270,130.1l7.8-3.4c0,0-6.7,7.3-9.3,9.3c-2.7,2-1.6-2.3-1.6-2.3L270,130.1z"/>
				<path class="st5" d="M267.4,142.1l8-2.7c0,0-5.5,5.1-8.4,7c-3,1.9-2.1-0.6-1.9-1C265.3,145,267.4,142.1,267.4,142.1z"/>
				<polygon class="st5" points="197.8,164.5 200.8,159.8 200.3,164.6 196.7,169 				"/>
			</g>
		</g>
	</g>
</g>
</svg>
