<?xml version="1.0" encoding="utf-8"?>
<!-- Generator: Adobe Illustrator 23.1.1, SVG Export Plug-In . SVG Version: 6.00 Build 0)  -->
<svg version="1.1" id="Capa_1" xmlns="http://www.w3.org/2000/svg" xmlns:xlink="http://www.w3.org/1999/xlink" x="0px" y="0px"
	 viewBox="0 0 340 300" style="enable-background:new 0 0 340 300;" xml:space="preserve">
<style type="text/css">
	.st0{clip-path:url(#SVGID_2_);}
	.st1{fill:#F2F2F2;}
	.st2{display:none;fill:url(#SVGID_3_);}
	.st3{display:none;fill:url(#SVGID_4_);}
	.st4{fill:none;}
	.st5{fill:#24FF87;}
	.st6{opacity:0.96;fill:#FFFFFF;}
	.st7{fill:#E2E2E2;}
	.st8{fill:#CECECE;}
	.st9{fill:#C1C1C1;}
	.st10{opacity:0.68;fill:#FFFFFF;}
	.st11{fill:#EAEAEA;}
	.st12{fill:url(#SVGID_5_);}
	.st13{fill:#C7F9D9;}
	.st14{fill:#606060;}
	.st15{fill:#2EA366;}
	.st16{opacity:0.34;fill:#21844E;}
	.st17{fill:url(#SVGID_6_);}
	.st18{fill:url(#SVGID_7_);}
	.st19{fill:url(#SVGID_8_);}
	.st20{fill:url(#SVGID_9_);}
	.st21{fill:url(#SVGID_10_);}
</style>
<g>
	<defs>
		<rect id="SVGID_1_" width="340" height="299.8"/>
	</defs>
	<clipPath id="SVGID_2_">
		<use xlink:href="#SVGID_1_"  style="overflow:visible;"/>
	</clipPath>
	<g class="st0">
		<g>
			<path class="st1" d="M103.2,196c0,0,26.6-0.3,34,1.3c0,0,50.6,47.6,133.2,25c0,0,10.3-81.5-59-92.4s-74.2,67.4-74.2,67.4"/>
			<path class="st1" d="M9.6,313.3c23.7-0.3,47.4-0.7,71.1-1.2c-0.5-6.2-1.7-10.5-1.7-10.5l19.8-9.9l14.6,19.9
				c29.7-0.5,59.3-1.1,89-1.5c46.7-0.7,93.4-1.1,140.1-0.9c-2.1-2.2-3.5-3.4-3.5-3.4c0.5-5.2-9.2-15.1-9.2-15.1
				c0-33.9-12.2-49.6-32.1-61.1c-19.8-11.5-42.8-5.7-42.8-5.7l-13.2-1.6l-85-9.4c-14.3-18.3-32.6-19.8-32.6-19.8
				c-80.9-3.1-93.1,72-93.1,72c-13.7,7.8-14.8,20.4-14.8,20.4l-5.6,2.1c-6.1,8.8-10.7,17.5-14.1,26C1,313.4,5.3,313.3,9.6,313.3z"/>
			<path class="st1" d="M278.3,309.2c6.9-19.9,14.1-49.8,3.2-65.6l-8.6,65.6C274.8,309.2,276.5,309.2,278.3,309.2z"/>
			<path class="st1" d="M79,301.6c0,0-18.8-20.9-27-23"/>
			<path class="st1" d="M95.8,293.7c0,0,22.9-11.5,27-50.1"/>
			<path class="st1" d="M165.3,212.3c0,0,25.6,23.9,63.4,18.4"/>
			<linearGradient id="SVGID_3_" gradientUnits="userSpaceOnUse" x1="196.8936" y1="200.8143" x2="207.6985" y2="194.5761">
				<stop  offset="0" style="stop-color:#24FFFF"/>
				<stop  offset="0.1068" style="stop-color:#24F8F9"/>
				<stop  offset="0.2566" style="stop-color:#23E6EA"/>
				<stop  offset="0.4318" style="stop-color:#22C8D0"/>
				<stop  offset="0.6263" style="stop-color:#219EAD"/>
				<stop  offset="0.834" style="stop-color:#1F6A80"/>
				<stop  offset="1" style="stop-color:#1E3A57"/>
			</linearGradient>
			<ellipse class="st2" cx="202.3" cy="197.7" rx="5.7" ry="7.6"/>
			<linearGradient id="SVGID_4_" gradientUnits="userSpaceOnUse" x1="223.7634" y1="204.2022" x2="232.7413" y2="199.0188">
				<stop  offset="0" style="stop-color:#24FFFF"/>
				<stop  offset="0.1068" style="stop-color:#24F8F9"/>
				<stop  offset="0.2566" style="stop-color:#23E6EA"/>
				<stop  offset="0.4318" style="stop-color:#22C8D0"/>
				<stop  offset="0.6263" style="stop-color:#219EAD"/>
				<stop  offset="0.834" style="stop-color:#1F6A80"/>
				<stop  offset="1" style="stop-color:#1E3A57"/>
			</linearGradient>
			<path class="st3" d="M223.8,200.7c-0.6,3.2,0.8,6.3,3.3,6.8s5-1.7,5.6-4.9c0.6-3.2-0.8-6.3-3.3-6.8
				C227,195.2,224.5,197.4,223.8,200.7z"/>
			<path class="st4" d="M122.9,308.2c-5.4-9.8-10.3-20.4-11.8-31.7"/>
			<path class="st1" d="M288.5,309.1l-5.9-12.8c1,4.4,2.8,8.7,4.8,12.8C287.7,309.1,288.1,309.1,288.5,309.1z"/>
			<ellipse class="st5" cx="99.2" cy="149.7" rx="13.4" ry="13.7"/>
			<ellipse class="st1" cx="251.3" cy="286.7" rx="3.3" ry="3.4"/>
		</g>
		<path class="st1" d="M148.2,204l29.5,2.1c0,0,21.9,16.2,21.4,17.2c-0.5,1-12,7.8-12,7.8l-43.3-8.4L148.2,204z"/>
		<path class="st1" d="M203.6,112.2c-1.5,13.8-5,20.4-5,20.4l13.8,1.1c-1.4-32-5.2-49.4-6.2-53.7c1.8-0.9,3-2.8,2.9-5
			c-0.1-2.9-2.5-5.2-5.4-5.1c-2.9,0.1-5.1,2.6-4.9,5.5c0.1,2.5,1.9,4.5,4.2,5C203.5,85.5,204.8,100.8,203.6,112.2z"/>
		<path class="st6" d="M205.8,187.5c0.8-0.8,2.2-5.4,1.8-7.1s-2.5-6.7-2.5-6.7s-3.1-2.2-4-2s-3.4,0.1-4.7,1.5s-5.1,6.3-0.9,14
			C195.4,187.3,199.4,194.4,205.8,187.5z"/>
		<path class="st6" d="M252.7,185c-0.5-1.7-0.1-5-2.7-6.2c-2.5-1.2-4.5-0.4-4.5-0.4s-3,1.2-3.8,6c-0.7,4.8,2.2,7.1,2.2,7.1
			s1.7,1.4,3.1,1.1c1.4-0.3,2.7,0.3,3.7-2.1C251.8,188.3,252.7,185,252.7,185z"/>
		<path class="st7" d="M9.6,313.3c7.3-0.1,14.6-0.2,21.9-0.3c1.5-5.8,3.7-10.6,6.8-12.9c18.3-13.6,3.1-17.2,9.2-21.9
			c6.1-4.7,20.9-82,87.6-82.9c0,0-38.7-9.8-69.2,13.2C34.4,232,31.2,265,31.2,265s-13.6,8.7-16.2,17.1c-0.4,1.3-4.2,5.4-4.2,5.4
			c-3.7,5.7-8.6,14.7-12.7,25.9C1.9,313.4,5.8,313.3,9.6,313.3z"/>
		<path class="st8" d="M148.2,204"/>
		<path class="st7" d="M173.1,310.5c6.1-6,14.3-10.6,25-12.6c23.7-4.4,41.3,3,53.3,11.5c8.6-0.1,17.2-0.2,25.9-0.2
			c2.3-7.9,4.3-15.4,4.3-15.4s-27-15.7-56.5-24.5c-29.5-8.9-78.4,18.3-91.1,1c-7-9.4-11.7-26.1-11.7-26.1
			c-0.5,26.6-22.9,47.5-22.9,47.5l14.4,19.9C133.5,311.2,153.3,310.8,173.1,310.5z"/>
		<path class="st9" d="M131.4,311.2c-2.1-7-5.2-16.2-9.2-24.2c-5.8-12-1.5-35-1.5-35c-3.6,20.4-21.4,39.7-21.4,39.7l14.4,19.9
			C119.6,311.4,125.5,311.3,131.4,311.2z"/>
		<path class="st10" d="M236.7,309.6c-3.3-1.1-6.1-1.3-7.6,0.1C231.6,309.6,234.2,309.6,236.7,309.6z"/>
		<path class="st11" d="M76.1,312.2c1.5,0,2.9-0.1,4.4-0.1c-0.4-5.7-1.1-9.8-1.1-9.8l12.6-7.8c19.1-9.4,28.8-42.5,28.8-42.5
			c-10.2,26.4-51.7,38.6-51.7,38.6l9.2,9.4C77.9,304.5,77.1,308.6,76.1,312.2z"/>
		<path class="st10" d="M234.3,252.2c16.3,2.7,25.4,15.6,35.7,13.5c10.3-2,13.5-10.2,9.1-15.4c-4.4-5.3-19.8-7.9-35.7-7.3
			c-9.9,0.4-22.1-1-23.3,3.2C218.7,250.7,234.3,252.2,234.3,252.2z"/>
		<path class="st7" d="M305.2,309.1c-1.9-2.1-3.5-4.3-4.8-6.5c-5.1-8.4-13.2-30.8-13.2-30.8c-0.4,11.1-5.3,28-8.3,37.4
			C287.6,309.1,296.4,309.1,305.2,309.1z"/>
		<path class="st9" d="M291.7,309.1c-0.3-1.7-0.5-3.6-0.5-5.5c-0.2-9.1-4.6-48.8-4.6-45.9c0,16.4-5.4,39.9-8.3,51.5
			C282.8,309.2,287.3,309.1,291.7,309.1z"/>
		<path class="st10" d="M301.7,236.2c0,4.2,15.8,26.6,17.8,39.7c2,13.1,9.7,4.9,8-5.2c-2.7-16.1-10.1-24.5-18.2-31.8
			C301.2,231.5,301.7,236.2,301.7,236.2z"/>
		<linearGradient id="SVGID_5_" gradientUnits="userSpaceOnUse" x1="86.0064" y1="157.3507" x2="109.6552" y2="143.697">
			<stop  offset="0" style="stop-color:#24FF87"/>
			<stop  offset="0.1486" style="stop-color:#24F884"/>
			<stop  offset="0.3569" style="stop-color:#23E67D"/>
			<stop  offset="0.6004" style="stop-color:#21C871"/>
			<stop  offset="0.8687" style="stop-color:#1F9F60"/>
			<stop  offset="1" style="stop-color:#1E8857"/>
		</linearGradient>
		<path class="st12" d="M98.3,136c-1.9,0.8-5.2,10.2,2.9,14.8c7.3,4.2,11.4-2.1,11.4-2.1s0.6,15.9-17,14.4
			C78,161.5,84.6,137.6,98.3,136"/>
		
			<ellipse transform="matrix(0.888 -0.4599 0.4599 0.888 -53.9656 64.9707)" class="st13" cx="106.4" cy="143.2" rx="2.9" ry="3.8"/>
		
			<ellipse transform="matrix(0.888 -0.4599 0.4599 0.888 -52.8664 61.9131)" class="st13" cx="100.6" cy="139.5" rx="1.5" ry="1.9"/>
		<path class="st14" d="M284.7,275.8c-0.5,3.6-1.2,7.2-1.9,10.8c-1.5,7.2-3.5,14.3-5.6,21.4c-0.1,0.4-0.2,0.8-0.4,1.2
			c1,0,2.1,0,3.1,0c0,0,0-0.1,0.1-0.1c1.4-3.5,2.6-7,3.7-10.6c0.6-1.8,1-3.6,1.5-5.4c0.5-1.8,0.9-3.7,1.3-5.5
			c0.4-1.8,0.7-3.7,1.1-5.6c0.3-1.9,0.6-3.7,0.7-5.6c0.4-3.8,0.6-7.6,0.4-11.4c-0.2-3.8-0.7-7.6-1.8-11.3c-1.1-3.6-2.8-7.2-5.2-10
			c1.7,3.3,2.8,6.8,3.4,10.4c0.6,3.6,0.7,7.2,0.7,10.9C285.5,268.6,285.2,272.2,284.7,275.8z"/>
		<path class="st14" d="M78.9,302.5c-2.4-1.9-4.5-4.7-6.7-6.7c-2.2-2-4.4-4-6.5-6c-2.2-2-4.3-4-6.5-5.9c-1.1-1-2.2-1.9-3.4-2.8
			c-1.2-0.9-2.4-1.7-3.7-2.4c1.5,0.1,2.9,0.8,4.3,1.4c1.3,0.7,2.6,1.5,3.9,2.3c2.5,1.7,4.8,3.6,7,5.7c1.1,1,2.2,2.1,3.2,3.1
			c1,1.1,2.1,2.2,3.1,3.3C75.5,296.7,77.2,299.9,78.9,302.5z"/>
		<path class="st14" d="M95.5,292.9c3.5-3.6,6.6-6.6,9.3-10.4c2.6-3.9,4.9-7.9,7.1-12c1-2.1,2.1-4.2,2.9-6.4l0.7-1.6l0.4-0.8
			l0.3-0.8c0.4-1.1,0.9-2.2,1.3-3.3c0.2-0.6,0.5-1.1,0.7-1.7c0.2-0.6,0.4-1.1,0.6-1.7l1.3-3.4c0.8-2.3,1.5-4.7,2.6-7l0.4,0
			c-0.3,2.5-0.6,4.9-1,7.4l-0.8,3.6c-0.3,1.2-0.5,2.4-0.9,3.6l-1,3.6l-0.3,0.9l-0.3,0.9l-0.6,1.7l-0.6,1.7l-0.3,0.9l-0.4,0.8
			l-1.5,3.4c-2.3,4.4-5,8.6-8.2,12.3c-3.2,3.7-6.9,7.1-11.2,9.4L95.5,292.9z"/>
		<path class="st14" d="M116.3,295.4c2.3,5.5,5,10.8,8,15.9c0.3,0,0.5,0,0.8,0c-3-5.2-5.9-10.5-8.3-16.1c-2.6-6-4.7-12.2-5.7-18.7
			c0.4,3.3,1.1,6.5,2,9.6C114,289.3,115.1,292.4,116.3,295.4z"/>
		<path class="st14" d="M287.2,309.1c0.2,0,0.3,0,0.5,0c-0.6-1.2-1.2-2.4-1.7-3.6c-1.3-3-2.4-6.1-3.3-9.2c0.7,3.2,1.8,6.3,3,9.4
			C286.1,306.9,286.6,308,287.2,309.1z"/>
		<path class="st15" d="M107.2,138.4c2.8,2.2,4.9,5.4,5.6,9c0.8,3.6,0.1,7.7-2,10.8c-2.1,3.2-5.5,5.5-9.3,6.2
			c-3.8,0.7-7.8-0.1-11-2.4c-3.2-2.2-5.6-5.9-6.3-9.9c-0.4-2-0.3-4.1,0.1-6.1c0.5-2,1.4-3.9,2.6-5.5c1.2-1.6,2.8-3,4.5-3.9
			c1.8-0.9,3.7-1.4,5.6-1.5C100.7,134.9,104.3,136.2,107.2,138.4z M106.9,138.8c-1.4-1-3.1-1.7-4.7-1.9c-1.7-0.2-3.4-0.1-4.9,0.4
			c-3.1,1-5.7,3.1-7.3,5.6c-1.7,2.6-2.4,5.7-2,8.7c0.2,1.5,0.6,3,1.4,4.4c0.8,1.4,1.8,2.6,3,3.6c2.5,2,5.7,2.9,8.9,2.4
			c3.2-0.4,6.2-2.2,8.1-4.8c2-2.6,3.1-6.1,2.7-9.6c-0.2-1.7-0.7-3.5-1.6-5C109.6,141.1,108.4,139.8,106.9,138.8z"/>
		<path class="st16" d="M90.2,161.9c0,0,7.6-12,21.2-4.8c0,0-3.7,6.1-8.8,7.2C97.6,165.3,94.9,164.5,90.2,161.9z"/>
		<g>
			<ellipse class="st5" cx="21.9" cy="239.7" rx="4.7" ry="4.8"/>
			<linearGradient id="SVGID_6_" gradientUnits="userSpaceOnUse" x1="17.2476" y1="242.3334" x2="25.5165" y2="237.5594">
				<stop  offset="0" style="stop-color:#24FF87"/>
				<stop  offset="0.1486" style="stop-color:#24F884"/>
				<stop  offset="0.3569" style="stop-color:#23E67D"/>
				<stop  offset="0.6004" style="stop-color:#21C871"/>
				<stop  offset="0.8687" style="stop-color:#1F9F60"/>
				<stop  offset="1" style="stop-color:#1E8857"/>
			</linearGradient>
			<path class="st17" d="M21.5,234.9c-0.7,0.3-1.8,3.5,1,5.2c2.5,1.5,4-0.7,4-0.7s0.2,5.6-5.9,5S16.7,235.4,21.5,234.9"/>
			<ellipse transform="matrix(0.888 -0.4599 0.4599 0.888 -106.46 37.8072)" class="st13" cx="24.4" cy="237.4" rx="1" ry="1.3"/>
			
				<ellipse transform="matrix(0.888 -0.4599 0.4599 0.888 -106.0757 36.7382)" class="st13" cx="22.4" cy="236.1" rx="0.5" ry="0.7"/>
			<path class="st15" d="M24.6,235.7c1,0.8,1.7,1.9,2,3.2c0.3,1.3,0,2.7-0.7,3.8c-0.7,1.1-1.9,1.9-3.2,2.2c-1.3,0.3-2.7,0-3.9-0.8
				c-1.1-0.8-1.9-2.1-2.2-3.5c-0.1-0.7-0.1-1.4,0-2.1c0.2-0.7,0.5-1.4,0.9-1.9c0.4-0.6,1-1,1.6-1.4c0.6-0.3,1.3-0.5,1.9-0.5
				C22.4,234.5,23.7,235,24.6,235.7z M24.6,235.8c-0.5-0.3-1.1-0.6-1.7-0.7c-0.6-0.1-1.2,0-1.7,0.1c-1.1,0.3-2,1.1-2.6,2
				c-0.6,0.9-0.8,2-0.7,3.1c0.1,0.5,0.2,1.1,0.5,1.5c0.3,0.5,0.6,0.9,1,1.2c0.9,0.7,2,1,3.1,0.9c1.1-0.1,2.2-0.8,2.8-1.7
				c0.7-0.9,1.1-2.1,1-3.3c-0.1-0.6-0.2-1.2-0.6-1.7C25.5,236.6,25.1,236.2,24.6,235.8z"/>
			<path class="st16" d="M18.7,243.9c0,0,2.7-4.2,7.4-1.7c0,0-1.3,2.1-3.1,2.5C21.3,245.1,20.4,244.8,18.7,243.9z"/>
		</g>
		<g>
			<ellipse class="st5" cx="305.1" cy="161.8" rx="8.4" ry="8.6"/>
			<linearGradient id="SVGID_7_" gradientUnits="userSpaceOnUse" x1="296.8385" y1="166.6143" x2="311.681" y2="158.045">
				<stop  offset="0" style="stop-color:#24FF87"/>
				<stop  offset="0.1486" style="stop-color:#24F884"/>
				<stop  offset="0.3569" style="stop-color:#23E67D"/>
				<stop  offset="0.6004" style="stop-color:#21C871"/>
				<stop  offset="0.8687" style="stop-color:#1F9F60"/>
				<stop  offset="1" style="stop-color:#1E8857"/>
			</linearGradient>
			<path class="st18" d="M304.5,153.2c-1.2,0.5-3.2,6.4,1.8,9.3c4.6,2.6,7.2-1.3,7.2-1.3s0.4,10-10.7,9
				C291.8,169.2,295.9,154.2,304.5,153.2"/>
			
				<ellipse transform="matrix(0.888 -0.4599 0.4599 0.888 -37.8681 160.081)" class="st13" cx="309.6" cy="157.8" rx="1.8" ry="2.4"/>
			<ellipse transform="matrix(0.888 -0.4599 0.4599 0.888 -37.1782 158.162)" class="st13" cx="306" cy="155.4" rx="0.9" ry="1.2"/>
			<path class="st15" d="M310.1,154.7c1.8,1.4,3.1,3.4,3.5,5.7c0.5,2.3,0.1,4.8-1.3,6.8c-1.3,2-3.5,3.4-5.8,3.9
				c-2.4,0.5-4.9-0.1-6.9-1.5c-2-1.4-3.5-3.7-4-6.2c-0.2-1.3-0.2-2.6,0.1-3.8c0.3-1.3,0.9-2.5,1.6-3.5c0.8-1,1.7-1.9,2.8-2.4
				c1.1-0.6,2.3-0.9,3.5-0.9C306.1,152.6,308.4,153.4,310.1,154.7z M310,154.9c-0.9-0.6-1.9-1-3-1.2c-1.1-0.2-2.1-0.1-3.1,0.2
				c-2,0.6-3.6,1.9-4.6,3.5c-1.1,1.6-1.5,3.6-1.3,5.5c0.1,1,0.4,1.9,0.9,2.8c0.5,0.9,1.1,1.6,1.9,2.2c1.5,1.2,3.6,1.8,5.6,1.5
				c2-0.3,3.9-1.4,5.1-3c1.3-1.6,1.9-3.8,1.7-6c-0.1-1.1-0.4-2.2-1-3.1C311.6,156.4,310.9,155.6,310,154.9z"/>
			<path class="st16" d="M299.5,169.5c0,0,4.8-7.5,13.3-3c0,0-2.3,3.8-5.5,4.5C304.1,171.6,302.4,171.1,299.5,169.5z"/>
		</g>
		<g>
			<ellipse class="st5" cx="311.5" cy="219.5" rx="3.3" ry="3.4"/>
			<linearGradient id="SVGID_8_" gradientUnits="userSpaceOnUse" x1="308.2126" y1="221.3703" x2="314.1158" y2="217.962">
				<stop  offset="0" style="stop-color:#24FF87"/>
				<stop  offset="0.1486" style="stop-color:#24F884"/>
				<stop  offset="0.3569" style="stop-color:#23E67D"/>
				<stop  offset="0.6004" style="stop-color:#21C871"/>
				<stop  offset="0.8687" style="stop-color:#1F9F60"/>
				<stop  offset="1" style="stop-color:#1E8857"/>
			</linearGradient>
			<path class="st19" d="M311.3,216c-0.5,0.2-1.3,2.5,0.7,3.7c1.8,1,2.8-0.5,2.8-0.5s0.1,4-4.2,3.6S307.8,216.4,311.3,216"/>
			
				<ellipse transform="matrix(0.888 -0.4599 0.4599 0.888 -65.0928 168.5063)" class="st13" cx="313.3" cy="217.8" rx="0.7" ry="0.9"/>
			
				<ellipse transform="matrix(0.888 -0.4599 0.4599 0.888 -64.8184 167.7431)" class="st13" cx="311.9" cy="216.9" rx="0.4" ry="0.5"/>
			<path class="st15" d="M313.5,216.6c0.7,0.5,1.2,1.3,1.4,2.3c0.2,0.9,0,1.9-0.5,2.7c-0.5,0.8-1.4,1.4-2.3,1.5
				c-0.9,0.2-2,0-2.8-0.6c-0.8-0.6-1.4-1.5-1.6-2.5c-0.1-0.5-0.1-1,0-1.5c0.1-0.5,0.3-1,0.6-1.4c0.3-0.4,0.7-0.7,1.1-1
				c0.4-0.2,0.9-0.4,1.4-0.4C311.9,215.8,312.8,216.1,313.5,216.6z M313.4,216.7c-0.4-0.2-0.8-0.4-1.2-0.5c-0.4-0.1-0.8,0-1.2,0.1
				c-0.8,0.2-1.4,0.8-1.8,1.4c-0.4,0.6-0.6,1.4-0.5,2.2c0,0.4,0.2,0.8,0.3,1.1c0.2,0.3,0.4,0.6,0.7,0.9c0.6,0.5,1.4,0.7,2.2,0.6
				c0.8-0.1,1.5-0.5,2-1.2c0.5-0.7,0.8-1.5,0.7-2.4c0-0.4-0.2-0.9-0.4-1.2C314.1,217.3,313.8,217,313.4,216.7z"/>
			<path class="st16" d="M309.3,222.5c0,0,1.9-3,5.3-1.2c0,0-0.9,1.5-2.2,1.8C311.1,223.4,310.4,223.2,309.3,222.5z"/>
		</g>
		<g>
			<ellipse class="st5" cx="263" cy="271.7" rx="7.5" ry="7.7"/>
			<linearGradient id="SVGID_9_" gradientUnits="userSpaceOnUse" x1="255.5501" y1="275.9919" x2="268.8203" y2="268.3304">
				<stop  offset="0" style="stop-color:#24FF87"/>
				<stop  offset="0.1486" style="stop-color:#24F884"/>
				<stop  offset="0.3569" style="stop-color:#23E67D"/>
				<stop  offset="0.6004" style="stop-color:#21C871"/>
				<stop  offset="0.8687" style="stop-color:#1F9F60"/>
				<stop  offset="1" style="stop-color:#1E8857"/>
			</linearGradient>
			<path class="st20" d="M262.4,264c-1.1,0.5-2.9,5.7,1.6,8.3c4.1,2.3,6.4-1.2,6.4-1.2s0.3,8.9-9.5,8.1
				C251.1,278.3,254.7,264.9,262.4,264"/>
			
				<ellipse transform="matrix(0.888 -0.4599 0.4599 0.888 -93.3846 152.8292)" class="st13" cx="267" cy="268.1" rx="1.7" ry="2.1"/>
			
				<ellipse transform="matrix(0.888 -0.4599 0.4599 0.888 -92.7678 151.1135)" class="st13" cx="263.8" cy="266" rx="0.8" ry="1.1"/>
			<path class="st15" d="M267.4,265.4c1.6,1.2,2.7,3,3.2,5.1c0.4,2,0.1,4.3-1.1,6.1c-1.2,1.8-3.1,3.1-5.2,3.5
				c-2.1,0.4-4.4-0.1-6.2-1.4c-1.8-1.3-3.1-3.3-3.6-5.6c-0.2-1.1-0.2-2.3,0.1-3.4c0.3-1.1,0.8-2.2,1.4-3.1c0.7-0.9,1.6-1.7,2.5-2.2
				c1-0.5,2.1-0.8,3.1-0.8C263.8,263.4,265.8,264.1,267.4,265.4z M267.3,265.6c-0.8-0.6-1.7-0.9-2.7-1.1c-0.9-0.1-1.9-0.1-2.8,0.2
				c-1.8,0.5-3.2,1.7-4.1,3.1c-0.9,1.4-1.4,3.2-1.2,4.9c0.1,0.9,0.4,1.7,0.8,2.5c0.4,0.8,1,1.4,1.7,2c1.4,1.1,3.2,1.6,5,1.4
				c1.8-0.2,3.5-1.2,4.6-2.7c1.1-1.5,1.7-3.4,1.5-5.4c-0.1-1-0.4-1.9-0.9-2.8C268.8,266.9,268.1,266.1,267.3,265.6z"/>
			<path class="st16" d="M257.9,278.5c0,0,4.3-6.7,11.9-2.7c0,0-2.1,3.4-4.9,4C262,280.5,260.5,280,257.9,278.5z"/>
		</g>
		<g>
			<ellipse class="st5" cx="273.3" cy="86.9" rx="6" ry="6.1"/>
			<linearGradient id="SVGID_10_" gradientUnits="userSpaceOnUse" x1="267.3716" y1="90.3794" x2="277.9796" y2="84.2548">
				<stop  offset="0" style="stop-color:#24FF87"/>
				<stop  offset="0.1486" style="stop-color:#24F884"/>
				<stop  offset="0.3569" style="stop-color:#23E67D"/>
				<stop  offset="0.6004" style="stop-color:#21C871"/>
				<stop  offset="0.8687" style="stop-color:#1F9F60"/>
				<stop  offset="1" style="stop-color:#1E8857"/>
			</linearGradient>
			<path class="st21" d="M272.9,80.8c-0.9,0.4-2.3,4.6,1.3,6.6c3.3,1.9,5.1-0.9,5.1-0.9s0.3,7.2-7.6,6.4S266.7,81.5,272.9,80.8"/>
			
				<ellipse transform="matrix(0.888 -0.4599 0.4599 0.888 -7.6765 136.5925)" class="st13" cx="276.5" cy="84.1" rx="1.3" ry="1.7"/>
			<ellipse transform="matrix(0.888 -0.4599 0.4599 0.888 -7.1835 135.221)" class="st13" cx="273.9" cy="82.4" rx="0.7" ry="0.8"/>
			<path class="st15" d="M276.9,81.9c1.3,1,2.2,2.4,2.5,4c0.4,1.6,0.1,3.4-0.9,4.9c-0.9,1.4-2.5,2.5-4.2,2.8c-1.7,0.3-3.5-0.1-5-1.1
				c-1.4-1-2.5-2.6-2.8-4.4c-0.2-0.9-0.1-1.8,0.1-2.7c0.2-0.9,0.6-1.8,1.1-2.5c0.5-0.7,1.2-1.3,2-1.7c0.8-0.4,1.6-0.6,2.5-0.7
				C274,80.3,275.6,80.9,276.9,81.9z M276.8,82c-0.6-0.4-1.4-0.7-2.1-0.9c-0.8-0.1-1.5,0-2.2,0.2c-1.4,0.4-2.5,1.4-3.3,2.5
				c-0.8,1.2-1.1,2.5-0.9,3.9c0.1,0.7,0.3,1.4,0.6,2c0.3,0.6,0.8,1.2,1.3,1.6c1.1,0.9,2.6,1.3,4,1.1c1.4-0.2,2.8-1,3.6-2.2
				c0.9-1.2,1.4-2.7,1.2-4.3c-0.1-0.8-0.3-1.5-0.7-2.2C277.9,83.1,277.4,82.5,276.8,82z"/>
			<path class="st16" d="M269.3,92.4c0,0,3.4-5.4,9.5-2.2c0,0-1.7,2.8-3.9,3.2C272.6,93.9,271.4,93.6,269.3,92.4z"/>
		</g>
		<path class="st14" d="M135.8,195.5c-1.3-0.2-2.6-0.8-4-1.2c-1.7-0.6-3.2-0.9-4.9-1.2c-0.9-0.2-1.9-0.4-2.9-0.4l-2.6-0.2
			c-7-0.2-14,0.2-20.9,1.4c-6.9,1.2-13.7,3.1-20.2,5.9c-6.5,2.8-12.6,6.4-18.2,10.9c-5.5,4.4-10.5,9.6-14.8,15.3
			c-4.3,5.7-7.9,11.9-10.9,18.5c-1.5,3.3-2.8,6.6-3.9,10c-1.1,3.2-2,6.4-2.7,9.8c-1.7,1-3.4,2.2-4.9,3.5c-1.7,1.5-3.3,3.1-4.7,5
			c-0.3,0.3-0.5,0.7-0.7,1l2.4,1.8c0.2-0.3,0.6-0.7,0.9-1c0,0,1.5-1.7,3.1-3.5c1.9-2.1,4.1-3.6,5.9-4.6l0.6-0.3l0.1-0.7
			c0.6-3.3,1.5-6.8,2.6-10.1c1.1-3.3,2.3-6.6,3.7-9.8c2.8-6.4,6.3-12.5,10.4-18.1c4.1-5.6,8.9-10.7,14.2-15.1
			c5.4-4.4,11.3-8,17.6-10.8c6.3-2.8,12.9-4.8,19.7-6.1c6.8-1.3,13.7-1.8,20.6-1.7l2.7,0.2c0.8,0,1.7,0.2,2.6,0.3
			c1.7,0.3,3.1,0.6,4.7,1.2c1.5,0.5,2.9,1.2,4.4,1.8L135.8,195.5z"/>
		<g>
			<path class="st14" d="M23.8,273.5c0.1-0.1,0.2-0.2,0.3-0.3C24,273.3,23.9,273.4,23.8,273.5z"/>
			<path class="st14" d="M22.2,275.1c0.6-0.6,1-1,1.4-1.4C23.1,274.2,22.5,274.8,22.2,275.1z"/>
			<path class="st14" d="M23.6,273.7c0.1-0.1,0.2-0.2,0.2-0.2C23.7,273.6,23.7,273.6,23.6,273.7z"/>
			<path class="st14" d="M22.2,275.1C22.2,275.1,22.2,275.1,22.2,275.1C22.2,275.1,22.2,275.1,22.2,275.1z"/>
			<path class="st14" d="M22,275.4c0,0,0,0,0.1-0.1C22,275.3,22,275.3,22,275.4z"/>
			<path class="st14" d="M22.1,275.3c0,0,0.1-0.1,0.1-0.1C22.1,275.2,22.1,275.2,22.1,275.3z"/>
			<path class="st14" d="M24.5,272.8C24.5,272.8,24.5,272.7,24.5,272.8C24.5,272.7,24.5,272.8,24.5,272.8z"/>
			<path class="st14" d="M24.5,272.7C24.5,272.7,24.6,272.7,24.5,272.7C24.6,272.7,24.5,272.7,24.5,272.7z"/>
			<path class="st14" d="M24.6,272.7C24.6,272.7,24.6,272.7,24.6,272.7L24.6,272.7z"/>
			<path class="st14" d="M24.1,273.2c0.1-0.1,0.1-0.1,0.2-0.2C24.2,273.1,24.1,273.2,24.1,273.2z"/>
			<path class="st14" d="M78.5,309.1c0.1,1,0.2,2,0.3,3c1.3,0,2.5,0,3.8-0.1c-0.1-1.2-0.2-2.3-0.4-3.5c-0.3-2-0.6-4-1-6l17.1-8.6
				l12.9,17.5c1.5,0,2.9-0.1,4.4-0.1l-15.3-21l-0.9-1.2L98,290l-19.9,9.9l-1.4,0.7l0.4,1.6C77.8,304.3,78.2,306.8,78.5,309.1z"/>
			<path class="st14" d="M284.4,225.1c4.6,1.2,8.4,2.4,12.5,4.8c4.2,2.4,8.2,5.1,11.8,8.3c3.6,3.1,6.9,6.7,9.6,10.7
				c2.7,4,4.8,8.4,6.4,13c3.1,9.2,4,19.1,4,28.9l0,0.5l0.4,0.4c1,1,2,2.2,2.9,3.3c0.9,1.1,1.8,2.3,2.7,3.5c0.8,1.2,1.6,2.4,2.2,3.7
				c0.6,1.2,1.1,2.6,1,3.6l-0.1,0.7l0.6,0.5c0.8,0.7,1.6,1.5,2.4,2.3c1.2,0,2.5,0,3.7,0c-1.3-1.4-2.5-2.7-4-4c0-0.7-0.2-1.4-0.4-2
				c-0.2-0.8-0.6-1.6-0.9-2.3c-0.7-1.4-1.6-2.8-2.5-4c-0.9-1.3-1.8-2.5-2.8-3.6c-0.9-1-1.8-2-2.7-3c-0.1-9.8-1.1-19.7-4.4-29.1
				c-1.7-4.7-3.9-9.3-6.8-13.4c-2.9-4.1-6.3-7.8-10.1-10.9c-3.8-3.2-7.9-5.8-12.2-8.2c-4.3-2.4-9-4.1-13.7-5.1
				c-3.3-0.8-6.7-1.2-10.1-1.4l0.1,1.6C277.3,223.9,281.2,224.3,284.4,225.1z"/>
			<path class="st14" d="M-1.4,313.4c2.3-5.4,4.9-10.8,7.7-15.7c0,0,8.9-15.5,15.7-22.4l-0.6-2.7l8.5-8.6c0,0-12.7,6.3-27.8,34.3
				c-2.7,4.9-5.2,9.9-7.3,15.1C-3.9,313.5-2.6,313.4-1.4,313.4z"/>
			<path class="st14" d="M24.5,272.8C24.5,272.8,24.5,272.8,24.5,272.8C24.5,272.8,24.5,272.8,24.5,272.8z"/>
			<path class="st14" d="M24.2,273.1c0.1-0.1,0.2-0.2,0.2-0.2C24.4,272.9,24.3,273,24.2,273.1z"/>
		</g>
		<path class="st14" d="M117.8,192.3c0,0,9.3-0.2,18.2,2.7l0.6,2.1l-0.7,0c0,0-7.5-3.6-18-3.5C110.9,193.6,117.8,192.3,117.8,192.3z
			"/>
		<path class="st14" d="M88.9,294.3c0,0,12-5.1,21-20.6s1.3,1.2,1.3,1.2s-12,17.6-17.9,20.2s-15.1,4.7-15.1,4.7L88.9,294.3z"/>
		<path class="st14" d="M150.5,215.1c0,0,15.9,16.9,56.9,20.1C207.5,235.2,164,225.7,150.5,215.1z"/>
		<g>
			<path class="st9" d="M198.8,199.2c-6.3-0.9-13.1-5.5-14.7-13.8c-2-10.1,2.6-19.8,10.1-22.2c7.5-2.4,25.9,8.6,50.2,6.7
				c0,0,9.4-0.5,12.5,8.6c3.8,11.3-2.1,20.7-10.6,22.1C235.2,202.3,229,203.3,198.8,199.2z"/>
			<path class="st7" d="M146,203.9c3.3,1,7.6,5.4,12.1,6.6c17.6,5,40.4,15.8,61.5,16.7c36.7,1.5,0,0,0,0s-64.6-13.7-61.3-50.5
				c1.9-20.9,13-31,23.3-37.7c8.1-5.2,20.6-4.3,21.8-5c0,0-2.7-3-4.8-3.7c-2.4-0.9-1.6-1.1-1.6-1.1s-46-5.9-60.4,59.5
				c-1.6,7.4,0,0,0,0l-0.7,7.5"/>
			<path class="st10" d="M254,159.3c-3.7,5.7-10.6,2.8-19.5-3.2c-8.9-6-16.4-12.9-12.7-18.6s9.3-1.6,18.2,4.5
				C248.9,148,257.7,153.6,254,159.3z"/>
			<path class="st7" d="M204.2,134.4c0,0,1.5-7.5,2.1-17.2c0.5-9.7-0.3-31.2-1.9-37l-2,0.8l0.8,19.7l-1.5,17.2c0,0-2.7,7.7-2.8,8.6
				c-0.1,0.9-2.5,1.9-1.7,2.8C197.9,130.1,201.7,134.3,204.2,134.4z"/>
			<path class="st7" d="M204.3,80.2c0,0-6.4-5.1-1.9-10.5c0,0-5.5,1.1-4.4,7.6C198,77.2,201.6,82.2,204.3,80.2z"/>
			
				<ellipse transform="matrix(0.9688 -0.2479 0.2479 0.9688 -11.7457 53.6764)" class="st10" cx="207.3" cy="73.5" rx="1.9" ry="2.6"/>
			<path class="st14" d="M240.6,184.5c-0.3,1.7-0.1,3.5,0.7,5c0.8,1.5,2.2,2.7,3.7,2.8c1.5,0.1,2.9-0.7,3.9-1.9
				c1-1.2,1.6-2.7,1.8-4.2c0.3-1.5,0.1-3.1-0.4-4.6c-0.5-1.4-1.6-2.7-3.1-3.1c-1.5-0.4-3.2,0.2-4.4,1.4
				C241.7,181.1,240.9,182.8,240.6,184.5z"/>
			<path class="st14" d="M200.7,125.1c0,0,4.8-11.2,2.3-44.9c0,0-0.2,37.2-6.1,46.9L200.7,125.1z"/>
			<path class="st14" d="M198.6,127.8c0,0,2.5,5,5.6,6.6c0,0-6.4-0.4-7.4-4.6L198.6,127.8z"/>
			<path class="st14" d="M211.6,126.2c0,0-1.8-33.4-5.3-46.4c0,0,0.5-0.1,1.3-1c0,0,6,24,7.2,50.2L211.6,126.2z"/>
			<path class="st14" d="M203,80.2c0,0-3.3-0.4-4.1-4.2c0,0-1-4.9,4.6-6.2c0,0,3.4-0.6,5,2.4c0,0,1.7,3-0.2,5.6l-1,1.2l0.2,1.1
				c0,0,2.8-2.1,2.8-5c0-2.8-1.9-7-6.7-6.6c-6.6,0.5-5.9,7.2-5.9,7.2s0.2,3.3,2.6,4.6c0,0,1.3,0.6,1.6,0.7l0.3,19.6l1-8.7L203,80.2z
				"/>
			<path class="st14" d="M203,80.2c0,0,0.8,0.2,1.6,0c0,0-0.9,1-2.2,1.1L203,80.2z"/>
			<path class="st14" d="M199.5,70.5c-0.1,0-1.8,1.5-2.2,4.5c-0.3,2.8,1.5,5.9,4.5,6.3c0,0-1.2-1.4-1.8-2.1
				c-0.6-0.7-1.3-2.9-1.3-2.9l0.2-2.9l0.5-2.1L199.5,70.5z"/>
			<path class="st14" d="M192.5,180.5c0,0-0.2-4.4,3-7.4c3.2-3,6.9-0.9,6.9-0.9s2.7,1.4,3.5,4.2c0.8,2.8,1.2,5.9,0.7,7.5
				c-0.5,1.6-1.6,4.3-3,5.1c-1.3,0.8-3.8,1.8-6.2,0.6S192.6,185.6,192.5,180.5z"/>
		</g>
		<path class="st14" d="M135,195.2c0,0,1.3-9.3,2.6-13.9c1.3-4.7,0.8,1.4,0.8,1.4l-2.4,13.6L135,195.2z"/>
		<path class="st14" d="M260.1,161.8c-16.7-28.3-45.4-32.9-45.4-32.9l-0.2-2.2l0.1,0c-1-0.2-2-0.4-3-0.5l0.4,7.4l1.6,0.3
			c4.6,0.9,9,2.4,13.3,4l3.2,1.4l1.6,0.7c0.5,0.3,1,0.6,1.5,0.8l3,1.7l2.9,1.9c7.6,5.3,13.9,12.4,18.6,20.7
			c9,16.1,12.4,35.6,11.6,54.3l-0.1,2.2c-59.8,14.2-105.9-9.6-113.8-14c-6.6-3.5-13-7.5-18.8-12.1l-0.1,0c1.6-9.5,4.4-18.9,8.4-27.5
			c4.1-8.8,9.4-17,16.5-23.3c3.5-3.1,7.4-5.7,11.5-7.7c1.1-0.5,2-1.1,3.1-1.4l3.2-1.2c2.2-0.6,4.4-1.3,6.7-1.6
			c2.2-0.5,4.6-0.6,6.8-0.8c1.1-0.1,2.3,0,3.5-0.1c0.7,0,1.3,0,2,0c0.4-0.9,1.8-4.2,2.5-6.9c-1,0-1.6,0-2.6,0l-1.2,2
			c0,0-43.4-1.7-59.3,54.1c-0.9,4.7-1.6,9.4-1.9,14.1l0,1.6c9.3,7.8,19.7,13.8,30.6,18.8c11,4.9,22.5,8.6,34.3,10.9
			c2.9,0.6,5.9,1,8.9,1.4c3,0.3,6,0.7,9,0.9c6,0.5,12,0.5,18,0.3c12-0.5,24-2.3,35.7-5.2l1.7-0.4l0.2-1.8l-2.3,0
			C274.2,184.1,260.1,161.8,260.1,161.8z"/>
		<path class="st14" d="M271.8,221.4c0,0,5.2,0.3,12.5,2.1l-1.1,1.3c0,0-7.6-1.4-12.4-0.4C266,225.2,271.8,221.4,271.8,221.4z"/>
	</g>
</g>
</svg>
