<?xml version="1.0" encoding="utf-8"?>
<!-- Generator: Adobe Illustrator 23.1.1, SVG Export Plug-In . SVG Version: 6.00 Build 0)  -->
<svg version="1.1" id="Capa_1" xmlns="http://www.w3.org/2000/svg" xmlns:xlink="http://www.w3.org/1999/xlink" x="0px" y="0px"
	 viewBox="0 0 340 300" style="enable-background:new 0 0 340 300;" xml:space="preserve">
<style type="text/css">
	.st0{clip-path:url(#SVGID_2_);}
	.st1{fill:#99E7FF;}
	.st2{fill:#955DD1;}
	.st3{fill:#FFE8D7;}
	.st4{fill:#7F34C1;}
	.st5{fill:#F7D7C1;}
	.st6{fill:#69D0E8;}
	.st7{fill:#56C5D8;}
	.st8{opacity:0.49;fill:none;}
	.st9{opacity:0.49;fill:#FFFFFF;}
	.st10{fill:#606161;}
	.st11{fill:#6A6B6B;}
	.st12{fill:#7E7F7F;}
	.st13{fill:#C3A0EF;}
	.st14{fill:#E6E7E8;}
	.st15{fill:#606060;}
	.st16{fill:#DBAF91;}
</style>
<g>
	<defs>
		<rect id="SVGID_1_" width="340" height="300"/>
	</defs>
	<clipPath id="SVGID_2_">
		<use xlink:href="#SVGID_1_"  style="overflow:visible;"/>
	</clipPath>
	<g class="st0">
		<path class="st1" d="M238.3,303c-47,0.8-94,1.6-141,2.2c-0.7-3.2-1.6-5.4-2.7-4.8c-1.3,0.8-3.4,2.8-5.5,4.9
			c-24.8,0.3-49.6,0.6-74.5,0.8c-5.4,0-10.7,0.1-16.1,0.1l13.5-18c0,0,13.1-12.7,19.9-17.7c6.8-5,23.6-29.5,23.6-29.5
			s8.2-13.1,24.9-31.3c16.8-18.1,61.6-19.5,61.6-19.5l20.8-1.4c0,0,16.3-16.3,19.5-19.9c3.2-3.6-0.9-9.1-0.9-10.9
			c0-1.8-7.2-26.3-7.2-26.3v-39l-0.5-21.3c0,0,5-16.8,5.9-18.1s15-26.7,43.5-21.3c28.5,5.4,35.8,15.9,39.4,27.2
			c3.6,11.3,3.2,25.8,3.2,25.8v50.3c0.5,3.6-4.5,14.5-4.5,14.5l-1.4,34V197c0,0,10.4,11.3,11.8,12.7c1.4,1.4,15,8.2,17.2,9.5
			c2.3,1.4,16.3,5.9,18.1,7.2c1.8,1.4,15.4,13.1,21.3,17.7c5.9,4.5,6.3,14.5,8.2,20.8c1.5,5.3-3.9,28.6-5.8,36.1
			C300,301.8,269.1,302.4,238.3,303z"/>
		<polyline class="st2" points="257.6,218.3 259.8,187.6 261.8,150.5 265.4,143.4 266.6,116.3 266.3,67.1 264.3,62.2 256.6,59.1 
			245.6,59.7 234.8,61 206.4,61.3 187.2,58.7 177,61.9 172.5,70.9 174.3,131.8 183,162.8 183.1,172.1 163,188.9 197.9,213 
			257.6,218.3 		"/>
		<path class="st3" d="M248,162.8c1.2-1.2,6.5-6.5,6.5-6.5l3.6-12.3l1.5-13.3l0.2-7.7l-26.6-0.2c0,0-6,1.2-9,2.7s-10.4,0.2-10.4,0.2
			l-7.5-2.4l-16.5-0.5l-10.6,0.2l1.5,13.3c0,0,1.9,21.5,8,29.8l16.2,10.6l21.5,0.5l14.3-8.7L248,162.8z"/>
		<path class="st4" d="M217.5,94c0,0,0.5-10-14.9-11.3c-9.1-0.8-4.2-16.9-4.2-16.9s5.3-25.9,18.4-33.9c0,0-30,3-36.9,21.4
			c-4.9,13-5.3,26.6-5.3,26.6l-0.1,12.8c0,0,12.9-7.3,24-5l13.1,5l2.8,3.6L217.5,94z"/>
		<path class="st4" d="M219,104.4c0,0-0.3,18.7-1,20.1c-0.7,1.4-4.1,1.2-4.1,1.2l-7.5-2.4l-27.1-0.2l1.5,13.3c0,0,2.2,23.7,8,29.8
			l-5.8-3.2c0,0-6.8-15.6-6.5-16.7c0.3-1-1.4-17-1.4-17l0.6-17.7c0,0,9.7,6,19.6,5.9c8.8-0.1,13.5,2.4,15-1.8
			c1.3-3.9,3.7-12.4,3.7-12.4L219,104.4z"/>
		<path class="st4" d="M179.9,115.9l-0.6,7c0,0,1.6,15.4,2.3,18.8c0.7,3.4,2.3,18.2,7.1,24.2c0,0-8.1-3.5-10.2-15.7
			s-2-17.7-3.4-21.1c-1.4-3.4-1.7-17.3-1.7-17.3L179.9,115.9z"/>
		<path class="st5" d="M248.9,123.4c0,0-14.3,1.4-18,2.4c-3.7,1-9.2,4.8-14.3,4.1c-5.1-0.7-10.3-3.3-11.7-1.9
			c-1.4,1.4-0.2,7.5-0.9,11.1c-0.5,2.6-3.4,4.3-2.5,8.3c1.2,5.7,2.9,27.7,9.7,29.4c0,0-18.7-6.6-22.4-10.8c0,0-6.3-9.6-9.4-43.1
			l27.1,0.2c0,0,11.7,4.8,17.9,2.2S248.9,123.4,248.9,123.4z"/>
		<path class="st4" d="M170.7,180.3c0,0,13.6-12.7,12.2-17.4c0,0,18.2,15.1,33.5,15.1c12.1,0,25.4-7.6,38.1-21.6
			c0,0-21.7,48.4-37.1,57.5l-19.6-0.8l-33-23.9L170.7,180.3z"/>
		<path class="st6" d="M139.5,304.6c-5.2-6.6-9.6-14.2-14.1-21c-10.9-16.3-24.5,10-24.5,10c-3.4,3.9-7.1,7.8-11,11.7
			c-5.1,0.1-10.2,0.1-15.4,0.2c0,0,0.1-0.1,0.1-0.1c11.8-10,28.2-26.1,34-34c7.2-10,12.4-27.4,16.5-27c5.8,0.7,9.7,29.8,26.5,52.8
			c1.9,2.7,5,5,8.8,7.1C153.5,304.4,146.5,304.5,139.5,304.6z"/>
		<path class="st6" d="M91.9,293.6c-0.9,0.7-5.9,5.6-12.1,11.8c-21.7,0.3-43.4,0.5-65.1,0.7c-5.2,0-10.3,0.1-15.5,0.1l5.7-7.2
			c0,0,21.7-23.6,27.2-28.5c5.4-5,23.6-29.5,23.6-29.5c16.3-33.5,53.5-44.4,53.5-44.4c-39.3,13.5-70.9,65.8-60.7,67.5
			c19,3.2,53,6.3,73.7-16.3C122.1,247.8,109.9,280.1,91.9,293.6z"/>
		<path class="st7" d="M79.9,305.4c13.5-9.7,28.3-20.9,28.3-20.9c-5.5,7.4-11.4,14.3-17.5,20.7C87.1,305.3,83.5,305.3,79.9,305.4z"
			/>
		<path class="st6" d="M313.2,301.5c-0.1-14.4-2-27.4-2-27.4c2.2,8.7,2.8,18,2.6,27.4C313.6,301.5,313.4,301.5,313.2,301.5z"/>
		<path class="st6" d="M96,305.2c-0.9-3-1.4-4.8-1.4-4.8s17-24.7,23.1-22.7c6.1,2,20.4,21.1,20.4,21.1s1.5,2.5,3.8,5.8
			C126.6,304.8,111.3,305,96,305.2z"/>
		<path class="st7" d="M95.8,305.2c-0.7-3-1.2-4.8-1.2-4.8s22.7-36.7,30.8-16.8l12.7,15.2c0,0-0.4,2.2-0.9,5.8
			C123.4,304.8,109.6,305,95.8,305.2z"/>
		
			<ellipse transform="matrix(0.8144 -0.5803 0.5803 0.8144 -120.6781 106.0722)" class="st8" cx="105.5" cy="241.7" rx="12.5" ry="5.5"/>
		<path class="st9" d="M315.3,232.6c-2.9,2.5-0.5,15,4,20.3c4.4,5.3,12.8,9.6,15.8,7.1c2.9-2.5-0.7-10.8-5.1-16
			C325.4,238.7,318.2,230.2,315.3,232.6z"/>
		<path class="st1" d="M27.6,305.9c-4.3,0-8.6,0.1-12.9,0.1c-5.2,0-10.4,0.1-15.6,0.1c3.2-4,5.8-7.2,5.8-7.2l13.6-17.2
			c0,0,8.8-4.3,13.6-11.3c4.8-7,14.3-17.9,14.3-17.9l2.6,1.1c-0.7,1.4,0.9,3.4-1.2,6.3c-7.1,9.9,2.5,14,9.3,15.4
			c2.4,0.5,7.8-0.6,13.8-2.2c-8.6,5.2-20.8,13-27.8,18.8C39.1,295.1,33.3,300.5,27.6,305.9z"/>
		<path class="st6" d="M53.4,273.6c2.7,0,9.5,2.3,3.2,8.6c-3.9,3.9,13.6,3.6,13.6,3.6s14-9.5,10-11.8c-4.1-2.3-19.5-4.1-19.5-4.1
			L53.4,273.6z"/>
		<path class="st1" d="M48.4,264.1c0,0-2.3-1.2-3.1,2c-0.4,1.8-3,1.2-1.9-1.3c1.1-2.5,5.2-6.8,5.2-6.8l1.6,3.6L48.4,264.1z"/>
		<g>
			<path class="st10" d="M267,66l-10.4-6.6c0,0-51.8,5.1-72.1-0.7L173,67.5l1.9-24.2c0,0,7.2-0.2,12.2-7.6c4.9-7.4,11.3-4.3,12.6-5
				c1.3-0.7,8-9.2,11.3-8.8c3.3,0.3,11,2,12.3,2.1s5.3,1,8.9,2.2s10.5,3.6,13,3.4c2.5-0.2,11.5,2,12.1,3.7
				c0.7,1.7,10.9,15.7,10.9,15.7L267,66z"/>
			<path class="st11" d="M228.2,21.8c1.1,0.1,4.6,3.5,5.8,5.6s-0.5,2.2-6.2,1.3c-5.7-0.9-14.5-4.8-12.1-1.2s8,6.4,8,6.4
				s-2.4,1.3-10.4,0.9c-11.5-0.6-11.2-1.9-8.5,3.7s-4.9,1.9-7.9,9.6s1.9,13.7,1.9,13.7l-11.6-3L177,62.9l-4,2.4l1.8-22
				c0,0,4.1,1,4.7-0.1c0.7-1,4.3-9.3,5.4-9.7c1.2-0.4,5.3,0,9.3-1.3c4-1.3,10-7.9,12.3-9s3.4-1,6.5-0.7c3,0.3,12.3,1.8,12.3,1.8
				L228.2,21.8z"/>
			<path class="st11" d="M243.2,40.5c-4.5-2.4-5-3-11-3.9c-6-0.9-6-0.9-6-0.9s8.8,2.6,12.1,4.4c6.7,3.7,8,5.9,8.2,4.5
				C246.6,43.2,243.2,40.5,243.2,40.5z"/>
			<path class="st11" d="M219.9,36.7c-0.5-0.5,17.6,9.6,16.9,21.5l-6,2.1C230.7,60.3,234.8,49.5,219.9,36.7z"/>
			<path class="st10" d="M189.7,58.8c0.1-0.5-0.7-11.9,4.8-15.3c5.5-3.5,6.8-5.1,7.5-7.1c0,0-1.8,4.4-7.2,5.5
				c-5.4,1.1-11,6.8-11,15.5L189.7,58.8z"/>
			<path class="st10" d="M225.2,33.8c0,0-15.6-1.2-17.1-1.7c0,0,11.5,3.2,14.9,3.4C226.2,35.7,225.2,33.8,225.2,33.8z"/>
			<path class="st11" d="M227.3,60.9c-0.1-1,3.8-14-2.2-20c0,0,5.3,11.3-1.9,20.8l1.5,0.1C224.7,61.8,227.6,63.8,227.3,60.9z"/>
			<path class="st11" d="M220.2,61.4c0,0,3.5-17.3-6.9-26.7c0,0,8.9,9.7,2.2,27.4L220.2,61.4z"/>
			<path class="st11" d="M206.4,61.3c-0.7-1.4-3.6-5.3-0.9-10.7c2.7-5.4,6.9-8,3.3-12.2c0,0-4.2-2.7-3.7-5.2c0,0-1.3,2.4,1.1,4.8
				c3.2,3.3,0.4,6.3-0.7,7.1s-7.9,5.6-4.5,15.6L206.4,61.3z"/>
			<path class="st11" d="M209.4,37.1c-0.2-0.2,3,2.9,1.3,6.8C210.7,43.9,213.7,41,209.4,37.1z"/>
			<path class="st11" d="M214,60.8c0,0,3.3-5.6,3-12.2c0,0-0.2,6.8-4.9,12.5L214,60.8z"/>
			<path class="st12" d="M196,54.7c0.1,0.3,0.4-8.8,6.1-12C202.2,42.7,194.5,45.5,196,54.7z"/>
			<path class="st12" d="M204.7,46.6c0,0,6-3.8,2.7-7.7c0,0,1.4,2.5-0.6,5.1C204.7,46.6,204.6,46.1,204.7,46.6z"/>
			<path class="st12" d="M221.8,55.5c0,0,2.7-11.1-4.6-18C217.2,37.6,222.2,42.5,221.8,55.5z"/>
			<path class="st12" d="M210.7,26.6c-0.8,0.5-2.5,2.1-3,3.6c-0.5,1.4-5.1,3.2-5.1,3.2s3.6-1.6,4.3-3.5
				C207.6,27.9,210.7,26.6,210.7,26.6z"/>
			<path class="st12" d="M209.5,60.7c-0.8-1.1-4.6-6.2-1.1-13.3c0,0-4.6,5.3-2.3,12.9L209.5,60.7z"/>
			<path class="st12" d="M179.8,59c0-0.6,0.5-8.6,0.5-8.6s2.3-1.2,4-3.9c1.7-2.6,1.2-4.7,4.3-7.9c2.1-2.2,3.2-3.3,6.1-3.4
				s4.9-3.2,4.9-3.2l-11.5,2.3l-3.9,4.4l-3.2,5.5c0,0-2.6,1.8-3.5,2c-1,0.2-2.5,2.4-2.5,3.1c0,0.6,0.2,10.6,0.2,10.6L179.8,59z"/>
		</g>
		<path class="st10" d="M264.3,62.2c0.2,0.5,2,14.6,2,14.6L267,66l-0.3-7L264.3,62.2z"/>
		<path class="st9" d="M301.8,301.8c0.6-7.6,2.1-34.9-2.6-54c0,0,1.4-2.7,3.2,0.5c1.4,2.4,8.6,28.5,8.1,53.3
			C307.5,301.6,304.7,301.7,301.8,301.8z"/>
		<path class="st9" d="M171.8,304.1c-3.6-1.3-6.9-2.6-9.6-4c0,0-2.5-1-5-3.7c-2.1-2-6.4-7.9-8.8-12.6c-2.5-5-9.5-19.2-11.2-25.8
			c-0.5-2.1-0.8-4.4,1.2-4.4c2,0,5.2,5.6,8.3,12.6c0,0,8.3,17.2,14.8,25.5c5,6.5,18.3,9.9,18.3,9.9c2,0.8,4.3,1.6,6.9,2.3
			C181.8,303.9,176.8,304,171.8,304.1z"/>
		<polygon class="st13" points="254,215.9 258.4,152.5 254.5,156.3 246.8,215.9 		"/>
		<polygon class="st13" points="256.6,59.2 257.1,121.7 263,121.7 262.8,63.6 256.6,59.4 		"/>
		<path class="st4" d="M211.5,101.8c0,0-0.9-2.2-2.4-3.5c-1.5-1.4-10.3-6.3-17.8,1.1l-2.9,2.4l22.1,0.3l1.2-0.9l2.7,1l0.7,4.8
			c0,0-28.4-1.3-30.6,0c-2.3,1.2-0.6,8.9-0.6,8.9l-9.6-3.3l-0.6-25.4l14.3-1.6c0,0,18.1-0.1,20.7,2.7s6.5,4.9,6.5,4.9l2.3,0.7
			c0,0,0.4,4.6,1.5,10.4l-3.2,3.6l-1.6-1.8L211.5,101.8z"/>
		<path class="st4" d="M203.3,119.3c-0.8,0-15.3-10-15.6-12.2c-0.3-2.2,26.9,0,26.9,0l-26.6-3.7c0,0-7.5,2-7.6,2.7
			c-0.2,0.7,1,11.6,1,11.6L203.3,119.3z"/>
		<path class="st14" d="M211.5,101.8c0,0,0-1.5-2.5-2.9s-6.5-2.9-6.5-2.9l-5.6,0.5l-5.7,3.1l-1.1,2l10.5,2.4l4.1-0.9
			C204.8,102.9,211,101.8,211.5,101.8z"/>
		<path class="st14" d="M229.3,101.8c0,0,0-1.5,2.5-2.9s6.5-2.9,6.5-2.9l5.6,0.5l5.7,3.1l1.1,2l-10.5,2.4l-4.1-0.9
			C235.9,102.9,229.7,101.8,229.3,101.8z"/>
		<path class="st2" d="M203.6,92.5c-3.5-2.5-15.1-0.1-17.2,1.6c-1.2,1-2.1,1.8,0.4,3.4c2.1,1.3,4.9-2.1,10.7-3.3
			C199.1,94,204.4,93.1,203.6,92.5z"/>
		<path class="st4" d="M219,104.4c0,0,0.3-6.5-0.3-9.1c-0.6-2.6-2.1-7.6-7.4-10.4s-0.4,5.9-0.4,5.9l6.9,12L219,104.4z"/>
		<path class="st4" d="M229.3,101.8c0,0-2.5-4.7-1.5-7.6c1-2.9,2.2-4.6,6.1-5.1c3.9-0.5,17.3-0.7,20.2,1.7c5.5,4.6,0,10.5-1.4,10.9
			c-1.4,0.3-3.4-2.3-3.4-2.3s-5.1-4.5-11-3.6C232.6,96.7,230.7,98.3,229.3,101.8"/>
		<path class="st4" d="M256.4,96.9c0,0.3-4.2,10.4-6.5,11.8c-1.8,1.1-10,0.7-16-2.9c-1.7-1-3.3-2.3-4.5-4c-0.1-0.1,0,0,0,0
			s11.1,2.3,14.6,1.5s5.7-1.7,6.5-1.8s1-4.2,1-4.2L256.4,96.9z"/>
		<path class="st4" d="M227.6,96.7c0,0.2,0.8,4.6,1.1,5.1c0.3,0.5,1,0.7,1.5,1.1c0.5,0.4,1.4,1.5,2.3,1.6c0.9,0.2-1.4-1.9-1.6-1.9
			c-0.2-0.1-2.1-0.7-2-2.6C229.1,98.2,227.6,96.7,227.6,96.7z"/>
		<path class="st13" d="M263,121.7c0,0,0,17.7-3.9,29.9l0,0l-4.6,4.7c0,0,3.9-10.3,4.7-16.9c0.8-6.6,1-20.1,1-20.1L263,121.7z"/>
		<path class="st15" d="M260.8,150.3c-0.5,0.4-0.5-0.7-1-0.3c-0.4,0.3-1.6,2.1-2,2.5c-5,4.6-10.1,8.5-15.3,12.5
			c-3.1,2.3-6.2,4.7-9.4,6.7c-1.6,1-3.2,2-4.8,2.7c-0.8,0.3-1.6,0.6-2.3,0.7c-0.1,0-0.4,0.1-0.6,0.1l-0.7,0.1l-1.4,0.1
			c-3.8,0.3-7.7,0.5-11.4,0.3c-1.9-0.1-3.7-0.3-5.4-0.7c-0.4-0.1-0.8-0.2-1.2-0.4l-1.3-0.6c-0.9-0.4-1.8-0.8-2.6-1.2
			c-3.5-1.7-6.9-3.5-10.1-5.5c-3.3-2-6.4-4.3-9.2-7.1c2.1,3.3,5,6.2,8,8.7c3.1,2.5,6.4,4.8,9.8,6.7c0.9,0.5,1.7,1,2.6,1.5
			c0.4,0.2,0.9,0.5,1.4,0.7c0.5,0.2,1,0.5,1.5,0.6c2.1,0.7,4.2,1,6.2,1.2c4.1,0.3,8.1,0.1,12-0.1l1.5-0.1l0.7-0.1
			c0.2,0,0.5,0,0.8-0.1c1.3-0.2,2.3-0.6,3.3-1.1c1.9-0.9,3.7-2,5.3-3.1c3.3-2.3,6.4-4.8,9.3-7.5
			C250.4,162.1,255.8,156.4,260.8,150.3z"/>
		<path class="st15" d="M257.8,194.9l-0.1,22.1l2.7-21.9c0-0.1-0.1-0.2-0.2-0.2L257.8,194.9z"/>
		<path class="st15" d="M139.7,304.6c-1.4-1.9-2.8-3.9-4.2-5.8c-3.6-5.1-7.1-10.1-10.8-15l-1.4-1.8l-0.7-0.9l-0.7-0.7
			c-0.9-0.8-1.9-1.3-3-1.2c-2.3,0-4.8,1.9-6.7,3.8c-2.4,3.3-5,6.5-7.6,9.7c-1.4,1.6-2.7,3.1-4.2,4.6c-1.4,1.5-2.9,3-4.5,4.5
			l-2.6-3.1c1.4-1.2,2.9-2.7,4.3-4.1c1.4-1.4,2.8-2.9,4.1-4.4c2.7-3,5.3-6.1,7.8-9.4l0.1-0.1l0,0c1.3-1.3,2.5-2.3,4-3.2
			c1.5-0.8,3.2-1.5,5.2-1.5c2,0,4,0.9,5.3,2.2l0.9,1l0.7,0.9l1.4,1.9c3.7,5,7.1,10.2,10.5,15.3c1.6,2.4,3.3,4.9,5,7.3
			C141.7,304.5,140.7,304.6,139.7,304.6z"/>
		<path class="st15" d="M312.5,301.5c0.2-6.4-0.1-12.8-0.7-19.2c-1.2-12.2-3.8-24.4-8.3-35.9c4.8,11.4,7.8,23.5,9.3,35.8
			c0.8,6.4,1.2,12.8,1.2,19.3C313.5,301.5,313,301.5,312.5,301.5z"/>
		<path class="st15" d="M189.4,166.6c-2.3-3-3.5-6.7-4.6-10.3c-1-3.6-1.8-7.3-2.4-11.1c-1.2-7.5-2-15-2.4-22.6l-0.7,0.8l20.4,0.2
			c1.7,0,3.4,0,5,0.1c1.6,0.1,3.3,0.4,4.8,0.8c0.8,0.2,1.6,0.4,2.4,0.7c0.8,0.3,1.5,0.6,2.4,0.9c1.7,0.6,3.5,0.9,5.4,0.9
			c1.8,0,3.6-0.3,5.3-0.8c0.8-0.2,1.7-0.6,2.5-0.8c0.8-0.3,1.5-0.5,2.3-0.7c1.6-0.4,3.1-0.5,4.7-0.5l5.1,0c3.4,0,6.8,0,10.2,0
			c3.4,0,6.8,0,10.2-0.1l-1.3-1.2c0.1,2.9,0,5.9-0.1,8.8c-0.2,3-0.3,5.9-0.7,8.8c-0.3,2.9-0.8,5.9-1.5,8.7c-0.7,2.9-1.6,5.7-2.9,8.4
			l0.2,0.1c1.7-2.5,2.8-5.3,3.8-8.2c1-2.9,1.6-5.8,2.1-8.8c0.5-3,0.9-6,1.2-9c0.2-3,0.4-6,0.4-9l0-1.2l-1.3,0
			c-3.4-0.1-6.8-0.1-10.2-0.1c-3.4,0-6.8,0-10.2,0l-5.1,0c-1.8,0-3.6,0.3-5.3,0.7c-0.9,0.2-1.7,0.5-2.6,0.8
			c-0.8,0.3-1.5,0.6-2.3,0.9c-1.5,0.5-3.1,0.8-4.7,0.9c-1.6,0.1-3.1-0.2-4.6-0.6c-0.7-0.2-1.6-0.6-2.4-0.8c-0.8-0.3-1.7-0.5-2.5-0.7
			c-1.7-0.4-3.5-0.6-5.2-0.7c-1.8-0.1-3.4,0-5.1,0l-20.4,0.2l-0.8,0l0.1,0.8c0.5,7.6,1.5,15.2,2.9,22.6c0.7,3.7,1.6,7.4,2.7,11.1
			c1.1,3.6,2.5,7.3,4.9,10.3L189.4,166.6z"/>
		<path class="st16" d="M234.6,146.3c0.5-0.2-7.6-5.9-9.2-6.6c-1.5-0.7-3.1-1.1-4.1-0.6c-1.4,0.7-4,0.9-6.1-0.3
			c-1.8-1-8.4,4.2-10.9,5.6c-1.5,0.8-1.5,1.2-0.7,1.4c0.8,0.2,7.1-2.5,8.7-2.7c1.5-0.2,3.7,0.2,6.1,0c2.4-0.2,4.1-0.3,5.4-0.2
			C225.3,143.1,233.8,146.6,234.6,146.3z"/>
		<path class="st16" d="M226.3,147.7c-1,0.4-12.1,0.7-15.1,0.2c0,0-2-0.7-1.7,0.2c0.3,0.8,2.2,2.9,9,2.9s9.7-2.4,9.2-2.9
			C227.1,147.5,226.3,147.7,226.3,147.7z"/>
		<polygon class="st15" points="257.8,215.6 198,211.9 198.2,212 163.2,188 197.6,212.9 197.7,213 197.9,213 257.6,218.3 		"/>
		<path class="st15" d="M93.7,305.2c-0.1-0.4-0.2-0.8-0.3-1.2l-1.3,1.2c-1.9,0-3.9,0-5.8,0.1l6.8-6.6l2.6-2.5l0.8,3.5
			c0.4,1.8,0.9,3.6,1.3,5.4C96.4,305.2,95.1,305.2,93.7,305.2z"/>
		<polygon class="st15" points="257.8,194.9 255.5,217.2 257.6,218.3 259.6,198 		"/>
		<g>
			<path class="st15" d="M175.3,65.8l9.2-4.4l-1.5,0.1c4.5,1.1,8.8,1.5,13.2,1.8c4.3,0.3,8.7,0.4,13,0.4c8.6,0,17.2-0.3,25.8-0.8
				l0.1,0l0,0c3.5-0.7,7.1-1.3,10.7-1.9c1.8-0.3,3.6-0.6,5.3-0.8c0.9-0.1,1.8-0.2,2.7-0.3c0.8-0.1,1.9-0.2,2.5-0.1l0,0L267,66
				l-10.4-6.9l0,0l0,0c-0.6-0.2-1-0.1-1.5-0.1c-0.5,0-0.9,0-1.4,0c-0.9,0-1.8,0.1-2.7,0.2c-1.8,0.1-3.6,0.3-5.4,0.5
				c-3.6,0.4-7.2,0.8-10.8,1.3l0.1,0c-8.6,0.1-17.1-0.1-25.7-0.5c-4.3-0.2-8.5-0.6-12.7-1c-4.2-0.5-8.4-1.1-12.2-2.3l-0.7-0.2
				l-0.8,0.3l-9.5,3.9L175.3,65.8z"/>
			<path class="st15" d="M265.9,87.4L265,49.7l-13.9-19.1c-0.7,0-1.4-0.1-2.1-0.1c-1.1,0-2.3-0.1-3.4,0c-1.1,0-2.2,0.1-3.2,0.2
				c-0.5,0.1-1,0.1-1.4,0.2c-0.2,0-0.3,0.1-0.5,0.2c-0.2,0.1-0.1,0.1-0.2,0.1l-2.5,0.1c-0.4,0-0.8-0.1-1.1-0.4
				c-0.6-0.5-1.6-1.2-2.4-1.7c-0.9-0.5-1.8-1-2.7-1.5c-1.5-0.7-3.1-1.2-4.7-1.6c-0.3,0.2-0.7,0.4-1,0.5c-0.8,0.4-1.7,0.9-2.6,0.8
				c-1.7-0.1-1.9-1.3-2.9-1.5c-0.9-0.1-1.7-0.4-2.4-0.8c-2.1-0.6-4.6-1-6.7-1c-1.1,0-2.1,0.2-2.7,0.5c-0.3,0.2-0.6,0.3-0.8,0.5
				c-0.1,0-0.4,0.4-0.5,0.6l-0.6,0.7c-1.7,1.9-3.6,4.6-6.7,6.2c-1.5,0.8-3.2,1.3-4.9,1.4c-1.3,0.1-2.6,0.1-3.8-0.1
				c-1.2,0.6-2.5,1.3-3.6,2.2c-1.2,1-2.2,3.4-2.6,4.5c0,0.1,0,0.1-0.1,0.2l-0.1,0.4c-0.1,0.3-0.2,0.5-0.3,0.8
				c-0.2,0.5-0.5,1.1-0.7,1.6c-0.6,1.1-1.4,2.3-2.9,3.3c-0.7,0.5-1.7,0.8-2.6,0.9c-0.5,0-1,0-1.5,0L176,68.8l-3.3-0.1l0.8-24.9
				c0-0.5,0-1.4,0.2-1.9c0.9-1.4,1.3-1.2,2.4-0.7l0.3,0.1c0.6,0.4,1.7,0.8,2.1,0.9c0.5,0.1,0.4,0,0.5,0c0.1,0,0.5-0.4,0.8-1
				c0.2-0.3,0.3-0.6,0.4-1l0.5-1.3c1-2.6,1.3-4.3,3.1-5.7c1.8-1.4,3.5-2.4,5.7-3.3c0.4-0.2,0.9-0.3,1.4-0.2l0.1,0
				c2.3,0.3,4.3,0.2,5.9-0.7c1.7-0.8,3.2-2.6,4.9-4.6l0.7-0.8c0.3-0.3,0.4-0.5,0.8-0.9c0.8-0.8,1.6-1.3,2.5-1.7c1.7-0.8,3.4-1,5-1.1
				c3.2-0.1,5.9,0.4,8.9,1.3l0.5,0.2c0.3,0.1,0.6,0.3,0.9,0.3c0.3,0,0.6,0.1,1,0c0.4-0.1,0.8-0.2,1.1-0.4c0.4-0.1,0.9-0.5,1-0.6
				l0.1-0.1c0.6-0.5,1.5-0.7,2.3-0.6c2.5,0.5,5,1.2,7.3,2.3c1.1,0.5,2.3,1.1,3.3,1.8c0.6,0.4,1.1,0.7,1.7,1.1
				c0.2-0.1,0.3-0.1,0.5-0.1c0.7-0.2,1.4-0.3,2.1-0.4c1.3-0.2,2.6-0.2,3.9-0.2c1.3,0,2.5,0,3.7,0c1.2,0,2.4,0.1,3.7,0.2
				c0.8,0.1,1.6,0.5,2.1,1.2l0,0l13.3,21l0,0c0.4,0.5,0.6,1.2,0.6,1.9l-1.9,51.2L265.9,87.4z"/>
		</g>
		<g>
			<path class="st15" d="M336.3,286.8c-0.7,4.8-1.6,9.5-2.6,14.3c-1.6,0-3.3,0.1-4.9,0.1c1.1-5,2.1-10,2.9-15.1
				c1-6.1,1.7-12.3,2-18.4c0.1-3.1,0.1-6.1-0.2-9.1c-0.3-2.9-0.9-5.9-2.3-7.9c-3.6-4.9-7.8-9.5-12.3-13.6c-4.6-4.1-9.6-7.7-15-10.5
				l-2-1l-2-0.9c-1.4-0.6-2.9-1.1-4.4-1.6l-4.4-1.6c-1.5-0.6-3-1.2-4.4-1.9c-5.8-2.6-11.4-5.7-16.6-9.4c-2.6-1.9-5-4-7.2-6.4
				c-2.1-2.4-4-5.3-5-8.5l-0.1-0.2l0-0.2l1-22.3l0.9-22.3l0-0.2l0.1-0.2c0.9-1.5,1.8-3.1,2.6-4.7c0.4-0.8,0.8-1.6,1.1-2.4
				c0.4-0.8,0.4-1.4,0.5-2.4c0.3-3.6,0.5-7.2,0.7-10.8c0.4-7.2,0.6-14.4,0.7-21.7c0.1-7.2,0.1-14.5-0.1-21.7
				c-0.1-3.6-0.2-7.2-0.4-10.8c-0.1-1.8-0.1-3.6-0.4-5.4l-0.3-2.6c-0.1-0.9-0.4-1.7-0.5-2.6c-0.5-2.2-1.2-4.3-2-6.3l2-0.1
				c0.8,2,1.4,4,1.8,6c0.2,0.9,0.5,1.8,0.6,2.7l0.3,2.7c0.3,1.8,0.3,3.6,0.4,5.5c0.2,3.6,0.3,7.2,0.3,10.9c0.1,7.2,0.1,14.5,0,21.7
				c-0.1,7.2-0.3,14.5-0.6,21.7c-0.2,3.6-0.3,7.2-0.7,10.9c-0.1,0.8-0.2,2.1-0.6,2.9c-0.4,0.9-0.8,1.7-1.2,2.5
				c-0.8,1.6-1.6,3.1-2.5,4.6l-0.8,22l-0.7,22c0.9,2.7,2.5,5.2,4.5,7.3c2,2.2,4.4,4.2,6.9,5.9c5,3.5,10.5,6.4,16.2,8.8
				c1.4,0.6,2.9,1.2,4.3,1.7l4.4,1.6c1.5,0.5,3,1,4.5,1.6l2.2,1l2.2,1.1c5.7,2.9,11,6.6,15.9,10.8c4.8,4.2,9.2,8.9,13.1,14
				c2.3,3.2,2.8,6.6,3.2,9.9c0.4,3.3,0.4,6.5,0.4,9.7C337.9,274.2,337.2,280.5,336.3,286.8z"/>
			<path class="st15" d="M184.3,170.8c-0.2,0.3-0.6,0.7-0.7,0.9l-0.4,0.4c-2.4,2.6-5,5.3-7.6,7.9c-2.6,2.6-5.4,5.1-8.4,7.4
				c-0.8,0.6-1.5,1.1-2.3,1.7c-0.8,0.5-1.6,1.1-2.5,1.5c-1.7,1-3.6,1.9-6,2.2l-0.2,0l-0.4,0c-4.3-0.5-8.9-0.6-13.4-0.5
				c-4.5,0.1-9,0.5-13.5,1.1c-8.9,1.2-17.7,3.4-26,6.8c-4.2,1.7-8.2,3.7-12,6c-1.9,1.1-3.7,2.4-5.6,3.7c-1.8,1.4-3.6,2.6-5.2,4.1
				c-3.4,2.8-6.5,6.1-9.3,9.5c-1.4,1.8-2.8,3.5-4,5.3c-0.6,0.9-1.3,1.8-1.9,2.8l-1.7,2.9c-5,8-10.4,15.5-16.2,22.8
				c-2.9,3.6-5.9,7.2-9.2,10.7c-1.6,1.7-3.3,3.4-5,5l-5.2,4.6c-6.6,6.1-12.7,12.9-18.5,19.9c-2.3,2.8-4.6,5.6-6.9,8.5
				c-2.4,0-4.9,0-7.3,0.1c0.3-0.5,0.7-0.9,1-1.4c2.8-3.7,5.7-7.3,8.7-10.9c5.9-7.1,12.1-14.1,19.1-20.5l5.2-4.6
				c1.6-1.5,3.2-3.1,4.7-4.7c3.1-3.3,6-6.7,8.8-10.3c2.8-3.6,5.6-7.2,8.2-10.9c2.6-3.7,5.3-7.5,7.6-11.3l1.8-3c0.6-1,1.3-2,2-2.9
				c1.3-2,2.8-3.8,4.3-5.7c3.1-3.6,6.4-7.1,10.1-10.1c1.8-1.6,3.7-3,5.6-4.4c2-1.3,3.9-2.7,6-3.9c4.1-2.4,8.3-4.5,12.7-6.3
				c8.8-3.6,18-5.8,27.3-7c4.7-0.6,9.3-1,14-1.1c4.6-0.1,9,0,13.7,0.5c1.2-0.2,2.6-0.8,4-1.6c0.7-0.4,1.4-0.9,2.1-1.3
				c0.7-0.5,1.4-1,2.1-1.5c2.8-2.1,5.4-4.5,8-6.9c2.6-2.5,5-5,7.5-7.7l0.5-0.5c0.1-0.2,0.1-0.1,0.1-0.2c0.1-0.1,0.2-0.3,0.2-0.6
				c0.2-0.5,0.2-1.3,0.2-2c0-0.7-0.1-1.5-0.2-2.3c-0.1-0.8-0.4-1.6-0.6-2.1c-0.4-1-0.7-2-1-2.8l-0.8-2.6l-1.5-5.3
				c-0.9-3.5-1.4-6.4-2.3-9.9c-0.4-1.8-0.8-3.2-1.2-5.1c-0.3-2.1-0.7-4.8-0.8-6.7c-0.1-3.6-0.2-7.3-0.3-10.9
				c-0.1-7.3-0.1-14.5-0.1-21.8c0.1-7.3,0.2-17.9,0.5-25.3c0.2-4.9,0.4-8.8,0.4-8.8l4.1-0.2c0,0-0.7,8.3-0.9,12.7
				c-0.3,7.1-0.3,14.4-0.3,21.6c0.1,7.2,0.2,14.4,0.4,21.7c0.1,3.6,0.2,7.2,0.4,10.8c0.1,1.8,0.2,3.6,0.4,5.1
				c0.3,1.6,0.8,3.4,1.2,5.1c0.9,3.5,1.8,7,2.8,10.4l1.5,5.2l0.8,2.5c0.3,0.9,0.5,1.6,0.8,2.3c0.5,1.1,0.7,2.1,1,3.1
				c0.2,1,0.3,2,0.4,3.1c0,1.1,0,2.2-0.3,3.4C184.9,169.5,184.7,170.2,184.3,170.8z"/>
		</g>
		<path class="st15" d="M260.9,148.3c0,0-3.2,3.7-4.4,4.9c-1,0.9-2.1,2.3-2.1,2.3l0,0l1.1,0.8l5.5-5.1L260.9,148.3z"/>
		<path class="st15" d="M206,103.9c-1.8,0.8-3.8,1.1-5.7,1.2c-1.9,0.1-3.9-0.1-5.8-0.6c-1.9-0.4-3.8-0.9-5.6-1.9l-2.1-1.2l1.7-1.1
			c1.9-1.3,3.9-2.4,5.9-3.5c2-1,4.1-2.2,6.6-2.5c1.2-0.2,2.5-0.2,3.7,0.2c1.2,0.3,2.3,1,3.2,1.7c0.9,0.8,1.7,1.7,2.4,2.6
			c0.4,0.5,0.7,0.9,1,1.4c0.2,0.2,0.3,0.5,0.4,0.8c0.1,0.1,0.1,0.3,0.1,0.5c0.1,0.2-0.2,0.5-0.4,0.5
			C209.6,102.4,207.9,103.2,206,103.9z M211.3,101.2c-0.1-0.2-0.3-0.4-0.5-0.6c-0.4-0.4-0.8-0.7-1.3-0.9c-0.9-0.5-2-0.8-3-1.1
			c-2.1-0.5-3.6-1-5.6-1.3c-1.9-0.4-4.2-0.5-6,0.7c-1.9,1-3.2,2.7-4.5,4.5l-0.4-2.3c1.6,0.3,3.4,0.6,5.2,0.7l5.3,0.3
			c1.8,0,3.5,0.3,5.4,0.6c1.9,0.3,3.8,0.4,5.6,0C211.5,101.6,211.4,101.4,211.3,101.2z"/>
		<path class="st15" d="M235,101.6c1.9-0.3,3.6-0.5,5.4-0.6l5.3-0.3c1.7-0.1,3.5-0.4,5.2-0.7l-0.4,2.3c-1.3-1.7-2.7-3.5-4.5-4.5
			c-1.8-1.1-4.1-1.1-6-0.7c-2,0.3-3.6,0.8-5.6,1.3c-1,0.3-2,0.6-3,1.1c-0.5,0.3-0.9,0.6-1.3,0.9c-0.2,0.2-0.4,0.4-0.5,0.6
			c-0.1,0.2-0.2,0.4-0.1,0.4C231.2,102,233.1,101.9,235,101.6z M229,101.5c0-0.2,0.1-0.3,0.1-0.5c0.1-0.3,0.3-0.5,0.4-0.8
			c0.3-0.5,0.7-0.9,1-1.4c0.7-0.9,1.5-1.9,2.4-2.6c0.9-0.8,2-1.4,3.2-1.7c1.2-0.4,2.5-0.4,3.7-0.2c2.4,0.4,4.6,1.5,6.6,2.5
			c2,1.1,4,2.2,5.9,3.5l1.7,1.1l-2.1,1.2c-1.9,1-3.7,1.5-5.6,1.9c-1.9,0.4-3.9,0.6-5.8,0.6c-1.9-0.1-3.9-0.4-5.7-1.2
			c-1.8-0.7-3.6-1.5-5.4-1.9C229.1,102,228.9,101.7,229,101.5z"/>
	</g>
</g>
</svg>
