<?xml version="1.0" encoding="utf-8"?>
<!-- Generator: Adobe Illustrator 23.1.1, SVG Export Plug-In . SVG Version: 6.00 Build 0)  -->
<svg version="1.1" id="Capa_1" xmlns="http://www.w3.org/2000/svg" xmlns:xlink="http://www.w3.org/1999/xlink" x="0px" y="0px"
	 viewBox="0 0 50 50" style="enable-background:new 0 0 50 50;" xml:space="preserve">
<style type="text/css">
	.st0{fill:#1DCE58;}
</style>
<g>
	<path class="st0" d="M40.3,30.8l-0.5-0.9l-0.2-0.4c0.4-1.4,0.7-2.9,0.7-4.5c0-1.9-0.4-3.8-1-5.5l0.2-0.3l0.5-0.9l-1-0.3l-0.4-0.1
		c-1.5-2.9-4-5.3-7-6.7l-0.2-0.6l-0.3-1l-0.9,0.5l-0.6,0.3c-1.4-0.4-3-0.7-4.5-0.7c-1.7,0-3.4,0.3-4.9,0.8l-0.6-0.3l-0.9-0.5l-0.3,1
		L18,11.4c-2.9,1.5-5.2,3.8-6.7,6.7l-0.6,0.2l-1,0.3l0.5,0.9l0.3,0.5c-0.5,1.6-0.8,3.3-0.8,5c0,1.7,0.3,3.4,0.8,4.9l-0.1,0.3L9.9,31
		l1,0.3l0.2,0.1c1.5,3.2,4,5.8,7.1,7.3l0.1,0.4l0.3,1l0.9-0.5l0.3-0.2c1.6,0.6,3.3,0.9,5.1,0.9c1.7,0,3.4-0.3,5-0.8l0.4,0.2l0.9,0.5
		l0.3-1l0.1-0.4c3.2-1.6,5.8-4.2,7.2-7.4l0.4-0.1L40.3,30.8z M25,39c-7.7,0-14-6.3-14-14s6.3-14,14-14c7.7,0,14,6.3,14,14
		S32.7,39,25,39"/>
	<path class="st0" d="M41.7,7.9c-0.3-0.3-0.8-0.3-1,0c-0.3,0.3-0.3,0.8,0,1c0.7,0.7,1.3,1.4,1.9,2.1l-0.1,0.2l-0.4,1.3l1.3,0.1
		l0.2,0c2.2,3.3,3.4,7,3.6,11l-0.3,0.2l-1,0.8l1,0.8l0.3,0.3c-0.1,3.8-1.2,7.4-3.1,10.7l-0.5,0l-1.3,0.1l0.4,1.3l0.2,0.5
		c-0.7,0.9-1.5,1.8-2.3,2.6c-0.3,0.3-0.3,0.7,0,1c0.1,0.1,0.3,0.2,0.5,0.2c0.2,0,0.4-0.1,0.5-0.2c4.6-4.5,7.2-10.6,7.2-17.1
		C48.9,18.5,46.3,12.5,41.7,7.9"/>
	<path class="st0" d="M9.3,7.9c-0.3-0.3-0.7-0.3-1,0C3.7,12.5,1.1,18.5,1.1,25c0,6.5,2.6,12.5,7.2,17.1c0.1,0.1,0.3,0.2,0.5,0.2
		c0.2,0,0.4-0.1,0.5-0.2c0.3-0.3,0.3-0.8,0-1c-0.9-0.8-1.6-1.7-2.3-2.7l0.1-0.5l0.4-1.3l-1.3-0.1l-0.4,0c-1.9-3.2-3-6.9-3.1-10.7
		l0.3-0.2l1-0.8l-1-0.8l-0.2-0.2c0.2-4,1.5-7.7,3.7-11l0.2,0l1.3-0.1l-0.4-1.3l0-0.1C8,10.4,8.6,9.7,9.3,9C9.6,8.7,9.6,8.2,9.3,7.9"
		/>
	<path class="st0" d="M29,25.4c0,2.2-1.8,4-4,4c-2.2,0-4-1.8-4-4c0-2.2,1.8-4,4-4C27.2,21.4,29,23.2,29,25.4"/>
</g>
</svg>
