<?xml version="1.0" encoding="utf-8"?>
<!-- Generator: Adobe Illustrator 23.1.1, SVG Export Plug-In . SVG Version: 6.00 Build 0)  -->
<svg version="1.1" id="Capa_1" xmlns="http://www.w3.org/2000/svg" xmlns:xlink="http://www.w3.org/1999/xlink" x="0px" y="0px"
	 viewBox="0 0 94 80" style="enable-background:new 0 0 94 80;" xml:space="preserve">
<style type="text/css">
	.st0{fill:#1DCE58;}
	.st1{fill:#FFFFFF;}
	.st2{clip-path:url(#SVGID_2_);}
	.st3{fill:#F1F1F1;}
	.st4{display:none;fill:url(#SVGID_3_);}
	.st5{display:none;fill:url(#SVGID_4_);}
	.st6{fill:none;}
	.st7{opacity:0.96;fill:#FFFFFF;}
	.st8{fill:#C0C0C0;}
	.st9{fill:#E1E0E0;}
	.st10{fill:#CDCDCC;}
	.st11{opacity:0.68;fill:#FFFFFF;}
	.st12{fill:#E9E9E9;}
	.st13{fill:#616160;}
	.st14{fill:none;stroke:#616160;stroke-width:5;stroke-miterlimit:10;}
	.st15{fill:#72BA6E;}
	.st16{fill:url(#SVGID_5_);}
	.st17{fill:#C9E3D0;}
	.st18{fill:#2DA266;}
	.st19{opacity:0.34;fill:#20844F;}
	.st20{fill:url(#SVGID_6_);}
	.st21{fill:url(#SVGID_7_);}
	.st22{fill:url(#SVGID_8_);}
	.st23{fill:url(#SVGID_9_);}
	.st24{fill:url(#SVGID_10_);}
	.st25{fill:url(#SVGID_11_);}
</style>
<g>
	<g>
		<g>
			<g>
				<g>
					<path class="st0" d="M79,11.1c-0.6-0.5-1.4-0.5-2,0c-0.5,0.6-0.5,1.4,0,2c1.3,1.3,2.5,2.7,3.7,4.1l-0.1,0.3L79.9,20l2.5,0.2
						l0.4,0c4.1,6.2,6.5,13.4,7,21l-0.6,0.5l-1.9,1.6l1.9,1.6l0.6,0.5c-0.3,7.3-2.3,14.3-6,20.4l-1,0.1L80.5,66l0.7,2.4l0.3,1
						c-1.3,1.8-2.8,3.5-4.4,5.1c-0.6,0.5-0.6,1.4,0,2c0.3,0.3,0.6,0.4,1,0.4c0.4,0,0.7-0.1,1-0.4c8.9-8.7,13.8-20.3,13.8-32.7
						C92.8,31.4,87.9,19.8,79,11.1z"/>
				</g>
				<g>
					<path class="st0" d="M17,11.2c-0.5-0.6-1.4-0.6-2,0C6.1,19.8,1.2,31.4,1.2,43.8c0,12.4,4.9,24,13.8,32.7c0.3,0.3,0.6,0.4,1,0.4
						c0.4,0,0.7-0.1,1-0.4c0.5-0.6,0.5-1.4,0-2c-1.6-1.6-3.1-3.3-4.5-5.1l0.3-1l0.7-2.4l-2.5-0.2l-0.9-0.1c-3.7-6.2-5.7-13.2-6-20.5
						l0.5-0.4l1.9-1.6l-1.9-1.6l-0.5-0.4c0.4-7.6,2.9-14.8,7-21.1l0.3,0L14,20l-0.7-2.4l-0.1-0.3c1.2-1.5,2.4-2.9,3.7-4.2
						C17.5,12.6,17.5,11.7,17,11.2z"/>
				</g>
			</g>
		</g>
	</g>
	<g>
		<g>
			<path class="st1" d="M47.4,79.5c-19.8,0-36-16.1-36-36s16.1-36,36-36s36,16.1,36,36S67.2,79.5,47.4,79.5z M47.4,8.6
				c-19.3,0-35,15.7-35,35c0,19.3,15.7,35,35,35c19.3,0,35-15.7,35-35C82.4,24.3,66.7,8.6,47.4,8.6z"/>
		</g>
	</g>
	<g>
		<g>
			<defs>
				<path id="SVGID_1_" d="M82.4,43.7c0,19.3-15.6,34.9-34.9,34.9S12.6,62.9,12.6,43.7S28.8,1.9,48.1,1.9S82.4,24.4,82.4,43.7z"/>
			</defs>
			<clipPath id="SVGID_2_">
				<use xlink:href="#SVGID_1_"  style="overflow:visible;"/>
			</clipPath>
			<g class="st2">
				<g>
					<path class="st3" d="M13.4,47.1c0,0,9.3-0.1,11.9,0.4c0,0,17.7,16.2,46.5,8.5c0,0,3.6-27.7-20.6-31.4S25.3,47.5,25.3,47.5"/>
					<path class="st3" d="M61.8,56l4.6,0.5c0,0,8-2,14.9,2s11.2,9.2,11.2,20.8c0,0,3.4,3.4,3.2,5.1c0,0,15.1,12.1,4.8,34.6
						c0,0-2.3,4.1-3.4,4.6c-1.1,0.5-2.8,1.6-3.6,1.6s-1.6-1.1-1.6-1.1s-3.6,2-6.4,0.2l-1.8-0.9c0,0-0.5-3.2-2.7-6.2
						c0,0-1.1-4.3,2.3-4.4c0,0,1.6-0.7,2-1.4s1.1-2.5,1.1-2.5s-3.7-1.8-6-6.9c-2.3-5.1-1.2-9.1-1.2-9.1l-5.5-5.5l-2,5
						c0,0,0.7,14.6-0.9,18.5c-3,7.5-14.9,16-25.9,15.6c0,0-4.3-0.4-5-0.2c-0.7,0.2-4.3,18.8-13.3,19.7s-19.4-4.1-17.9-13.5
						s6.9-18.1,11.5-22.2c0,0,0.2-7.3,2.3-11.4l-1.4-7.1l-9.2-12.2L5,83c0,0,3.7,13.3-6.4,17.2l0.4,3.6c0,0,3,2.7,3.6,5
						c0,0-1.4,6.6-2.3,6.7c-0.9,0.2-2.8,0.9-2.8,0.9s0.5,3.7-3.6,4.6c0,0-2.9,0.9-5.7,0.9c-1.9,0-3,0-3,0l-2.9-0.1l-0.7,0
						c-1,0-5.7-5.1-5.9-5.6c-0.2-0.5-8.3-18.5,5.5-38l2-0.7c0,0,0.4-4.3,5.1-6.9c0,0,4.3-25.6,32.5-24.5c0,0,6.4,0.5,11.4,6.7"/>
					<path class="st3" d="M70.6,110.2c0,0,12.3,8.3,4.2,30.1c0,0-2.3,8.7-22.5,1.1l-2.5-15.8"/>
					<path class="st3" d="M53.7,141.9c0,0-5.1,4.8-4.8,11.4c0.4,6.6,4.1,14.9,4.1,14.9s4.6,1.1,7.1-0.9c2.5-2,6.6-4.1,11.2-3.2
						c0,0,3.7-12.8,3.6-16.2c-0.2-3.4-2.5-5-2.5-5"/>
					<path class="st3" d="M56.5,168.5c0,0,13.1,0.4,14.9-0.4s1.1-3.2,1.1-3.2l-1.2-0.9"/>
					<path class="st3" d="M8.9,137.6c0,0-7.8,9.1-8.5,24.5c0,0,0.2,1.8,0.9,2.3c0,0,0.4,1.2,2.7,0.5s5-1.8,8,0.4
						c3,2.1,4.3,3.9,7.5,0.2c3.2-3.7,11.2-5.9,7.3-19.5"/>
					<path class="st3" d="M1.3,164.4c0,0-1.1,3.2,3.9,4.1s9.4,1.2,10.8-0.7"/>
					<path class="st3" d="M71.8,92.4c0,0,9.9-20.6,3.9-29.1"/>
					<path class="st3" d="M79.2,92.9c0,0,5.1,1.1,11-5"/>
					<path class="st3" d="M99.3,105c-9.4-0.5-12.8,3.9-12.8,3.9s7.5-3.2,12.8,0"/>
					<path class="st3" d="M5,83c0,0-6.6-7.1-9.4-7.8"/>
					<path class="st3" d="M10.9,80.3c0,0,8-3.9,9.4-17"/>
					<path class="st3" d="M20.3,110.3c0,0,12.8,0.2,17,9.4"/>
					<path class="st3" d="M35.1,52.6c0,0,8.9,8.1,22.1,6.3"/>
					<linearGradient id="SVGID_3_" gradientUnits="userSpaceOnUse" x1="46.1489" y1="48.7153" x2="49.8832" y2="46.5593">
						<stop  offset="0" style="stop-color:#71C6D9"/>
						<stop  offset="0.1336" style="stop-color:#6DBFD3"/>
						<stop  offset="0.3208" style="stop-color:#62ADC2"/>
						<stop  offset="0.5399" style="stop-color:#518FA6"/>
						<stop  offset="0.7809" style="stop-color:#386680"/>
						<stop  offset="1" style="stop-color:#1E3A57"/>
					</linearGradient>
					<ellipse class="st4" cx="48" cy="47.6" rx="2" ry="2.6"/>
					<linearGradient id="SVGID_4_" gradientUnits="userSpaceOnUse" x1="55.5185" y1="49.8644" x2="58.6211" y2="48.0731">
						<stop  offset="0" style="stop-color:#71C6D9"/>
						<stop  offset="0.1336" style="stop-color:#6DBFD3"/>
						<stop  offset="0.3208" style="stop-color:#62ADC2"/>
						<stop  offset="0.5399" style="stop-color:#518FA6"/>
						<stop  offset="0.7809" style="stop-color:#386680"/>
						<stop  offset="1" style="stop-color:#1E3A57"/>
					</linearGradient>
					<path class="st5" d="M55.5,48.7c-0.2,1.1,0.3,2.1,1.1,2.3s1.7-0.6,2-1.7c0.2-1.1-0.3-2.1-1.1-2.3S55.8,47.6,55.5,48.7z"/>
					<path class="st6" d="M22.1,110.5c0,0,0.9-8.7,2.7-11.2c0,0-0.7-7.3-0.7-8c0-0.7-6.7-9.1-7.8-16.9"/>
					<path class="st3" d="M88.3,106.9c0,0-5.9-5.5-5.7-14.2c0,0-5.1-5.7-6.6-11.5"/>
					<path class="st3" d="M52.8,124.7l2.8,18.1c0,0-6.7,8.3-1.4,25.6"/>
					<path class="st3" d="M-9.9,122.2"/>
					<path class="st3" d="M82.8,119"/>
					<path class="st3" d="M92,124.2"/>
					<path class="st3" d="M-2.6,116.3"/>
					<circle class="st3" cx="65.1" cy="77.9" r="1.2"/>
					<circle class="st3" cx="33.4" cy="92" r="3.2"/>
				</g>
				<path class="st3" d="M29.2,49.8l10.3,0.7c0,0,7.6,5.5,7.5,5.9c-0.2,0.4-4.2,2.7-4.2,2.7l-15.1-2.8L29.2,49.8z"/>
				<path class="st3" d="M3.1,166.5c-0.3-0.6-1.1-4.3,0.8-5.2s8.3-0.4,8.3-0.4s3.8,2.3,4,3.7c0.2,1.4,1.8,3.6-2.1,3.7
					S3.1,166.5,3.1,166.5z"/>
				<path class="st3" d="M58.2,167.2c0,0,3.8-6.6,5.1-6.8c1.2-0.3,4.9,0,5.9,0.6c1,0.6,2.7,2.8,2.2,4.3c-0.4,1.4-4.2,2.1-4.2,2.1
					l-8.4,0.7L58.2,167.2z"/>
				<path class="st3" d="M48.5,18.6c-0.5,4.7-1.7,6.9-1.7,6.9l4.8,0.4C51.1,15,49.7,9.1,49.4,7.6c0.6-0.3,1-1,1-1.7
					c0-1-0.9-1.8-1.9-1.7c-1,0-1.8,0.9-1.7,1.9c0,0.9,0.7,1.5,1.5,1.7C48.4,9.5,48.9,14.7,48.5,18.6z"/>
				<path class="st7" d="M49.2,44.2c0.3-0.3,0.8-1.8,0.6-2.4c-0.1-0.6-0.9-2.3-0.9-2.3s-1.1-0.8-1.4-0.7c-0.3,0.1-1.2,0-1.6,0.5
					c-0.5,0.5-1.8,2.2-0.3,4.8C45.6,44.1,47,46.5,49.2,44.2z"/>
				<path class="st7" d="M65.6,43.3c-0.2-0.6,0-1.7-0.9-2.1c-0.9-0.4-1.6-0.1-1.6-0.1s-1.1,0.4-1.3,2.1c-0.3,1.6,0.8,2.4,0.8,2.4
					s0.6,0.5,1.1,0.4c0.5-0.1,0.9,0.1,1.3-0.7C65.3,44.4,65.6,43.3,65.6,43.3z"/>
				<path class="st8" d="M-18.4,121.7l-5.9-5.6c0,0,0.9-1.2,4.3-1.2s7.1,1,9.2-0.3c1.7-1,4.3,4,5.9,4.7
					C-3.3,120.1-12,122.7-18.4,121.7"/>
				<path class="st9" d="M-23.7,116.3c0,0,13.7,1.2,13.5-3.4c-0.2-4.6-2.5-14.6-2.5-14.6s-0.2-13.2,3.6-16c6.4-4.6,1.1-5.9,3.2-7.5
					c2.1-1.6,7.3-27.9,30.5-28.2c0,0-13.5-3.3-24.2,4.5c-10.9,8-12.1,19.3-12.1,19.3s-4.8,3-5.6,5.8c-0.1,0.4-1.5,1.8-1.5,1.8
					C-22.6,83.9-30,99.2-23.7,116.3z"/>
				<path class="st10" d="M29.2,49.8"/>
				<path class="st8" d="M19.6,66.1c0,0-1.5,7.8,0.5,11.9c2.7,5.3,4.3,12.1,4.3,12.1L24,91.5l0.7,7.8c0,0-2.8,10.3-3,11
					c-0.2,0.7-1.4,0.4-1.4,0.4s0.2-8,2.5-11.9l-2-7.5l-8.7-11.7C12.1,79.6,18.3,73,19.6,66.1z"/>
				<path class="st9" d="M22.9,121.6c2.8-6.4,10.5-5.5,14-0.4c3.5,5.1,0.7-2.1-0.1-3.2c-0.8-1.1-5.1-5.7-8.4-6.3
					c-3.3-0.5-6.5,4.4-6.5,4.4L22.9,121.6z"/>
				<path class="st9" d="M17.4,137.7c-0.1,0.9,1.6,4.1,6.9,5.6c5.3,1.5,7.1,0.1,8.4-1.2c0,0-2.7,5.5-12.9,3.6s-6.4-8.4-6-9.9
					S17.4,137.7,17.4,137.7z"/>
				<path class="st8" d="M9.6,139.2c-0.4-0.5,3,9.2,15.1,9.9c0,0,3.4,6.4-2.5,13.1c0,0,8.2-4.4,4.4-16.3
					C26.7,146,16.4,147.9,9.6,139.2z"/>
				<path class="st8" d="M10.5,168.9c0,0-4.1-2.8,0.4-3.7c0,0-0.7-2.3-6.2-0.5c0,0-2.3,1.6-3.1,0.2C0.6,163.4,0.6,170.1,10.5,168.9z
					"/>
				<path class="st11" d="M56.9,86.4c-0.5,1.9,1.3,6.9,0.3,16.2s-2.7,13.3-4.8,16.8c-2.1,3.5,6.9,2.1,12.2-4.3s7.2-19.7,4-23.4
					C65.5,88,57.7,83.2,56.9,86.4z"/>
				<path class="st12" d="M-2,100.7L-3,95.7c0,0,6.9-3.2,7.7-13.3l-3.2-3.2c0,0,14.5-4.2,18-13.1c0,0-3.4,11.3-10,14.5l-4.4,2.7
					c0,0,1.9,10.8-1.6,13.7C0.1,99.9-2,100.7-2,100.7z"/>
				<path class="st11" d="M59.2,66.2c5.7,0.9,8.8,5.3,12.4,4.6c3.6-0.7,4.7-3.5,3.2-5.3c-1.5-1.8-6.9-2.7-12.5-2.5
					c-3.5,0.1-7.7-0.3-8.1,1.1C53.7,65.7,59.2,66.2,59.2,66.2z"/>
				<path class="st8" d="M1.1,164.6c0,0,2.8-17.8,8.9-24.7c0,0-0.7-13,9.1-28.6c0,0-9.9,9.9-10.5,24.1l0.5,2.1c0,0-5.3,6.4-7.5,14.6
					C-0.5,160.4,0.6,163.2,1.1,164.6z"/>
				<path class="st9" d="M55.4,124.2c0,0-12.8,1.6-18.6-7.6s-8.5-7.1-8.5-7.1l1.8,3.4c0,0,6,7.4,7.3,9.2c1,1.4,2.2,4.3,2.2,4.3
					S51.9,127.2,55.4,124.2z"/>
				<path class="st9" d="M70.5,117c-1.1,1.8-1.8,6.8-7,9.5s-0.1,17.3-0.1,17.3s-10.2,5.3-5,22.1c0,0,0.1,1.3,2.5,0.5
					c0,0-2.7,3.2-8,1.6c0,0-3.6-8.8-4-13.6c-0.4-4.8,1.1-8,4.9-12.6l-1.6-0.7l-2.5-15.3c0,0,13.5-0.8,21.4-15.3
					c0,0,5.6,4.8,6.3,12.3C77.4,122.8,73.3,112.4,70.5,117z"/>
				<path class="st8" d="M63.5,119.4c0,0-6.1,4-8.4,5.7c-2.3,1.7,0.4,16.8,0.4,16.8s-3.2,4.5-3.1,16.2c0,0,0.7,8.4,1.6,10l-1.1-0.1
					c0,0-5.6-12.6-3.6-18.5s4.5-7.7,4.5-7.7l-1.6-0.7l-2.5-15.3C49.7,125.8,56.5,126.1,63.5,119.4z"/>
				<path class="st8" d="M51.9,145.5c0,0,16.9,4.5,21.4-1.5l-0.9-1.1c0,0-6.7,4-18.5-1.2L51.9,145.5z"/>
				<path class="st8" d="M67.5,163.9c1.1-0.3-2.3,4.5,0.8,4.4c3.1-0.1-8.9,0.5-9.7,0.3C57.7,168.3,64.3,164.7,67.5,163.9z"/>
				<path class="st9" d="M77.6,72.8c0,0,2.8,7.6,4.6,10.5c1.8,2.8,5.5,6.2,7.6,5.1c0,0-2.8,5.1-0.7,9.1s3,7.3,4.1,7.8
					c0,0-2,1.6-0.5,2c0,0-1.6,5.1-3.7,5.7c-2.1,0.5-3.6,1.8-3.6,2.8c0,1.1,0.7,6.4-1.2,6.9l-3-5.1c0,0-0.4-3.9,1.2-4.4
					c1.6-0.5,2.7-1.8,3.4-2.8c0.7-1.1-0.2-1.6-0.2-1.6s-7.3-4.4-6.6-15.8l-5.1-5C73.9,87.9,77.4,78.3,77.6,72.8z"/>
				<path class="st8" d="M77.4,68.1c0-1,1.5,12.5,1.6,15.6c0.1,4.6,2.5,8,3.6,9.1c0,0,0.7,9.1,5.7,14.2l-1.8,2c0,0-7.8-5.1-7.5-16
					l-5.1-5C73.9,87.9,77.5,75.7,77.4,68.1z"/>
				<path class="st8" d="M84.2,122.7L84.2,122.7c0,0,0.5-0.4,2.3,0.5s1.6,0.4,3.6-0.2c2-0.5,2.1,0.3,2.1,0.3s4.1,0.9,6.2-1.6
					c0,0-3.9,3.9-5.1,3.4s-1.2-0.9-2.5-0.4C89.5,125.4,85.3,125,84.2,122.7z"/>
				<path class="st11" d="M82.7,60.7c0,1.4,5.5,9.1,6.2,13.5c0.7,4.4,3.4,1.7,2.8-1.8c-0.9-5.5-3.5-8.3-6.3-10.8
					S82.7,60.7,82.7,60.7z"/>
				<path class="st11" d="M72.2,141c-3.7-3.7,2.7-7.6,4-15.6c0.7-4.2,1.1,4,1.1,4.9c0,0.1,0,0.1,0,0.2
					C77.2,131.7,75.6,144.4,72.2,141z"/>
				<path class="st13" d="M70.9,110.4c1.1,0.7,2.1,1.7,2.9,2.8c0.9,1.1,1.6,2.2,2.2,3.5c0.6,1.2,1.1,2.5,1.4,3.8
					c0.3,1.3,0.6,2.7,0.7,4c0.1,1.4,0.1,2.7,0,4.1c-0.1,1.4-0.3,2.7-0.5,4.1c-0.5,2.7-1.2,5.3-2.2,7.9l0-0.1c0,0.1-0.1,0.2-0.1,0.3
					c0,0.1-0.1,0.1-0.1,0.2c-0.1,0.1-0.1,0.3-0.2,0.4c-0.1,0.3-0.3,0.5-0.5,0.7c-0.4,0.4-0.8,0.8-1.2,1.2c-0.9,0.7-1.9,1.1-3,1.4
					c-2.1,0.6-4.2,0.6-6.3,0.4c-2.1-0.2-4.1-0.7-6.1-1.2c-2-0.6-3.9-1.3-5.9-2l-0.3-0.1l0-0.3l-0.5-3.8l-0.5-3.8
					c-0.3-2.6-0.7-5.1-1-7.7c0.5,2.5,1,5.1,1.5,7.6l0.7,3.8l0.7,3.8l-0.3-0.4c1.9,0.7,3.9,1.3,5.8,1.8c2,0.5,3.9,0.9,5.9,1.1
					c2,0.2,4,0.1,5.8-0.4c0.5-0.1,0.9-0.3,1.3-0.5c0.4-0.2,0.8-0.4,1.2-0.7c0.4-0.3,0.7-0.6,1-0.9c0.1-0.2,0.3-0.4,0.4-0.5
					c0.1-0.1,0.1-0.2,0.2-0.3l0.1-0.1c0,0,0-0.1,0-0.1l0-0.1c0.5-1.2,0.9-2.5,1.3-3.8c0.4-1.3,0.7-2.6,1-3.9
					c0.5-2.6,0.8-5.2,0.7-7.9c-0.1-1.3-0.2-2.6-0.5-3.9c-0.3-1.3-0.7-2.6-1.2-3.8c-0.5-1.2-1.1-2.4-1.9-3.5
					c-0.4-0.5-0.8-1.1-1.2-1.6C71.9,111.3,71.4,110.8,70.9,110.4z"/>
				<path class="st13" d="M53.7,142c-0.8,0.9-1.4,1.9-2,2.9c-0.6,1-1.1,2-1.5,3.1c-0.4,1.1-0.6,2.2-0.7,3.3l-0.1,0.8l0,0.8
					c0,0.3,0,0.6,0.1,0.8c0,0.3,0,0.6,0.1,0.9c0.3,2.3,0.7,4.6,1.3,6.8c0.6,2.3,1.3,4.5,2.2,6.7L53,168c0.8,0.2,1.6,0.2,2.4,0.2
					c0.8,0,1.6-0.1,2.3-0.2c0.8-0.2,1.5-0.5,2-0.9c0.6-0.5,1.3-1,2-1.5c0.7-0.4,1.4-0.8,2.2-1.2c0.8-0.3,1.6-0.6,2.4-0.8
					c0.8-0.2,1.7-0.3,2.5-0.3c0.9,0,1.7,0,2.5,0.2l-0.8,0.5l1.5-5.4c0.2-0.9,0.5-1.8,0.7-2.7c0.2-0.9,0.5-1.8,0.7-2.7l0.3-1.3
					c0.1-0.4,0.2-0.9,0.3-1.3c0.2-0.9,0.3-1.8,0.3-2.7c0-0.9-0.2-1.8-0.6-2.6c-0.2-0.4-0.4-0.8-0.7-1.2c-0.3-0.4-0.6-0.7-0.9-1
					l0.1-0.1c1.6,1.1,2.6,2.9,2.8,4.8c0,0.5,0,1,0,1.5c0,0.5-0.1,0.9-0.1,1.4c-0.1,0.5-0.1,0.9-0.2,1.4c-0.1,0.5-0.2,0.9-0.2,1.4
					c-0.2,0.9-0.4,1.8-0.6,2.7c-0.2,0.9-0.4,1.8-0.6,2.7c-0.2,0.9-0.5,1.8-0.7,2.7c-0.2,0.9-0.5,1.8-0.8,2.7l-0.2,0.6l-0.6-0.1
					c-0.7-0.1-1.5-0.2-2.3-0.2c-0.8,0-1.5,0.1-2.3,0.2c-0.8,0.2-1.5,0.4-2.2,0.6c-0.7,0.3-1.4,0.6-2.1,1c-0.7,0.4-1.3,0.8-2,1.3
					c-0.7,0.5-1.6,0.8-2.4,0.9c-0.8,0.1-1.7,0.2-2.5,0.1c-0.8,0-1.6-0.1-2.4-0.3l-0.1,0l0-0.1c-0.5-1.1-0.9-2.2-1.4-3.3
					c-0.4-1.1-0.9-2.2-1.3-3.3c-0.8-2.2-1.5-4.5-1.7-6.9c0-0.3-0.1-0.6-0.1-0.9c0-0.3,0-0.6,0-0.9l0-0.9l0.1-0.9
					c0.2-1.2,0.5-2.4,1-3.5c0.5-1.1,1.1-2.2,1.8-3.1C51.9,143.5,52.7,142.6,53.7,142L53.7,142z"/>
				<path class="st13" d="M56.5,168.5c1.6-0.2,3.1-0.3,4.7-0.4c1.6-0.1,3.1-0.1,4.6-0.2l2.3-0.1c0.8,0,1.5,0,2.3-0.1
					c0.2,0,0.4,0,0.5-0.1c0.2,0,0.3,0,0.4-0.1c0.3-0.1,0.5-0.3,0.6-0.5c0.2-0.3,0.3-0.6,0.3-0.9c0-0.3,0-0.7,0-1.1l0.1,0.1
					c-0.4-0.3-0.8-0.7-1.1-1.1c0.5,0.2,0.9,0.5,1.4,0.7l0.1,0l0,0.1c0.1,0.4,0.2,0.8,0.3,1.2c0,0.4,0,0.9-0.2,1.3
					c-0.2,0.4-0.5,0.9-0.9,1.1c-0.2,0.1-0.5,0.2-0.7,0.3c-0.2,0.1-0.4,0.1-0.6,0.1c-0.8,0.1-1.6,0.2-2.4,0.2c-0.8,0-1.6,0.1-2.3,0.1
					c-1.6,0-3.1,0-4.7-0.2C59.6,169,58,168.8,56.5,168.5z"/>
				<path class="st13" d="M9,137.7c-1.2,1.8-2.3,3.7-3.2,5.7c-0.9,2-1.7,4-2.4,6c-0.2,0.5-0.3,1-0.5,1.6c-0.2,0.5-0.3,1-0.4,1.6
					L2,154.1c-0.1,0.5-0.2,1.1-0.4,1.6c-0.3,1.1-0.4,2.1-0.6,3.2c-0.2,1.1-0.3,2.2-0.4,3.3l0,0c0,0.2,0,0.4,0.1,0.6
					c0,0.2,0.1,0.4,0.1,0.6c0.1,0.2,0.1,0.4,0.2,0.6c0.1,0.2,0.2,0.3,0.3,0.4l0,0l0,0.1c0,0.1,0.1,0.1,0.1,0.2
					c0.1,0.1,0.1,0.1,0.2,0.2c0.2,0.1,0.3,0.2,0.5,0.2c0.4,0.1,0.8,0,1.2-0.1c0.8-0.2,1.7-0.6,2.6-0.8c0.9-0.2,1.8-0.4,2.8-0.3
					c1,0.1,1.9,0.4,2.7,0.8c0.2,0.1,0.4,0.2,0.6,0.4l0.6,0.4l1.1,0.8c0.4,0.3,0.7,0.5,1.1,0.7c0.4,0.2,0.7,0.3,1,0.3
					c0.3,0,0.6-0.1,1-0.3l0.2-0.2c0.1-0.1,0.2-0.1,0.2-0.2l0.2-0.2c0.1-0.1,0.2-0.1,0.2-0.2c0.1-0.1,0.3-0.3,0.4-0.4l0.4-0.5
					c0.3-0.3,0.6-0.7,1-1c1.4-1.3,2.8-2.3,4-3.5c0.6-0.6,1.2-1.3,1.6-2c0.5-0.7,0.8-1.5,1.1-2.3c0.3-0.8,0.5-1.6,0.6-2.5
					c0.1-0.4,0.1-0.9,0.1-1.3c0-0.2,0-0.4,0-0.7c0-0.2,0-0.4,0-0.7l0-0.7l-0.1-0.7c0-0.4-0.1-0.9-0.1-1.3c-0.1-0.4-0.1-0.9-0.2-1.3
					l-0.3-1.3l0.1,0c0.1,0.4,0.3,0.8,0.4,1.3c0.1,0.4,0.3,0.9,0.4,1.3c0.1,0.4,0.2,0.9,0.3,1.3l0.1,0.7l0.1,0.7
					c0.2,1.8,0.2,3.7-0.4,5.5c-0.5,1.8-1.6,3.5-2.9,4.8c-0.6,0.7-1.3,1.3-2,1.9c-0.7,0.6-1.4,1.1-2,1.7c-0.3,0.3-0.6,0.6-0.9,0.9
					l-0.5,0.5c-0.2,0.2-0.3,0.3-0.5,0.5c-0.2,0.2-0.4,0.3-0.6,0.5c-0.1,0.1-0.2,0.1-0.3,0.2l-0.3,0.2c-0.5,0.2-1,0.4-1.6,0.4
					c-0.6,0-1.1-0.2-1.5-0.5c-0.4-0.2-0.8-0.5-1.2-0.8c-0.4-0.3-0.7-0.6-1.1-0.8l-0.5-0.4c-0.2-0.1-0.3-0.2-0.5-0.4
					c-0.7-0.5-1.5-0.8-2.3-0.9c-0.8-0.1-1.7-0.1-2.6,0.1c-0.4,0.1-0.9,0.2-1.3,0.3c-0.4,0.1-0.8,0.3-1.3,0.4
					c-0.5,0.1-0.9,0.2-1.4,0.1c-0.5-0.1-1-0.3-1.2-0.9l0.1,0.1c-0.2-0.2-0.3-0.4-0.4-0.6c-0.1-0.2-0.2-0.4-0.3-0.6
					c-0.1-0.2-0.1-0.4-0.2-0.6c0-0.2-0.1-0.4-0.1-0.6l0,0l0,0l0.1-1.7c0-0.6,0-1.1,0.1-1.7c0.1-1.1,0.2-2.2,0.4-3.3
					c0.3-2.2,0.9-4.4,1.6-6.5l0.6-1.6c0.2-0.5,0.4-1,0.7-1.5c0.5-1,0.9-2,1.5-3c1.1-1.9,2.3-3.8,3.9-5.4L9,137.7z"/>
				<path class="st13" d="M1.3,164.5c-0.1,0.7,0,1.4,0.4,2c0.4,0.6,1,0.9,1.6,1.2c0.3,0.1,0.7,0.2,1,0.3c0.4,0.1,0.7,0.1,1.1,0.2
					c0.7,0.1,1.5,0.2,2.2,0.3c0.7,0.1,1.5,0.1,2.2,0.1l2.1,0.1c0.7,0,1.4,0,2.1-0.1c0.7-0.1,1.3-0.3,1.9-0.7l0.1,0.1
					c-0.1,0.4-0.4,0.7-0.7,0.9c-0.3,0.3-0.7,0.5-1.1,0.6c-0.7,0.3-1.5,0.4-2.3,0.5c-0.8,0.1-1.5,0-2.3-0.1c-0.7-0.1-1.5-0.2-2.2-0.4
					c-0.7-0.1-1.5-0.3-2.2-0.4c-0.4-0.1-0.7-0.2-1.1-0.3c-0.4-0.1-0.7-0.3-1.1-0.4c-0.7-0.4-1.3-0.9-1.7-1.6
					C1,166,1,165.1,1.2,164.4L1.3,164.5z"/>
				<path class="st13" d="M79.2,92.9c1.1,0,2.1-0.2,3-0.5c1-0.3,1.9-0.7,2.8-1.1l0.7-0.4c0.2-0.1,0.4-0.3,0.7-0.4
					c0.5-0.2,0.9-0.6,1.3-0.8c0.2-0.1,0.4-0.3,0.6-0.4l0.6-0.4c0.4-0.3,0.8-0.6,1.3-0.9c-0.3,0.4-0.6,0.8-1,1.2
					c-0.4,0.4-0.7,0.8-1.1,1.1c-0.4,0.3-0.8,0.7-1.3,1c-0.2,0.1-0.4,0.3-0.7,0.4L85.4,92c-0.2,0.1-0.5,0.2-0.7,0.3l-0.4,0.2
					c-0.1,0-0.3,0.1-0.4,0.1c-0.3,0.1-0.5,0.2-0.8,0.2c-0.3,0.1-0.5,0.1-0.8,0.2C81.3,93.2,80.2,93.2,79.2,92.9z"/>
				<path class="st13" d="M99.3,105c-0.6,0-1.2,0-1.7,0.1c-0.6,0.1-1.1,0.1-1.7,0.2l-0.8,0.1c-0.1,0-0.3,0-0.4,0.1l-0.4,0.1
					l-0.8,0.2l-0.8,0.2c-1.1,0.3-2.1,0.7-3.1,1.3c-0.5,0.3-1,0.6-1.4,0.9c-0.2,0.2-0.4,0.3-0.6,0.5c-0.2,0.2-0.4,0.4-0.5,0.6
					l-0.5-0.6c1.1-0.4,2.1-0.7,3.2-1c1.1-0.2,2.2-0.4,3.3-0.4c1.1,0,2.2,0.1,3.3,0.4c0.5,0.1,1.1,0.3,1.6,0.5c0.5,0.2,1,0.5,1.4,0.8
					c-0.5-0.2-1-0.4-1.5-0.6c-0.5-0.2-1-0.3-1.6-0.4c-1.1-0.2-2.2-0.2-3.2-0.1c-1.1,0.1-2.1,0.2-3.2,0.5c-1,0.3-2.1,0.6-3.1,1l0,0
					c-0.2,0.1-0.4,0-0.5-0.2c-0.1-0.1,0-0.3,0.1-0.4c0.2-0.3,0.4-0.5,0.7-0.7c0.2-0.2,0.5-0.4,0.7-0.6c0.5-0.4,1-0.7,1.5-0.9
					c1.1-0.5,2.2-0.9,3.3-1.2l0.9-0.2c0.3,0,0.6-0.1,0.9-0.1l0.4-0.1c0.1,0,0.3,0,0.4,0l0.9-0.1c0.6,0,1.2,0,1.7,0
					C98.1,104.9,98.7,104.9,99.3,105z"/>
				<path class="st13" d="M5,83.3c-0.8-0.6-1.6-1.6-2.3-2.3c-0.8-0.7-1.5-1.4-2.3-2c-0.8-0.7-1.5-1.4-2.3-2c-0.4-0.3-0.8-0.7-1.2-1
					c-0.4-0.3-0.8-0.6-1.3-0.8c0.5,0,1,0.3,1.5,0.5c0.5,0.2,0.9,0.5,1.4,0.8c0.9,0.6,1.7,1.2,2.4,1.9C1.3,78.7,1.7,79,2,79.4
					c0.4,0.4,0.7,0.7,1.1,1.1C3.8,81.3,4.4,82.4,5,83.3z"/>
				<path class="st13" d="M20.3,110.3c1.7-0.1,3.4,0.1,5.1,0.4c0.8,0.2,1.7,0.4,2.5,0.7c0.8,0.3,1.6,0.6,2.4,1
					c0.8,0.4,1.5,0.8,2.2,1.3c0.7,0.5,1.4,1.1,2,1.7c1.2,1.2,2.2,2.7,2.8,4.3c-0.9-1.5-1.9-2.8-3.2-3.9c-0.6-0.5-1.3-1.1-2-1.5
					c-0.7-0.5-1.4-0.9-2.2-1.2c-1.5-0.7-3.1-1.3-4.7-1.8C23.6,110.9,22,110.5,20.3,110.3z"/>
				<path class="st13" d="M22.1,110.5c0.1-1,0.2-1.9,0.3-2.9c0.1-1,0.3-1.9,0.5-2.9c0.2-0.9,0.4-1.9,0.7-2.8l0.2-0.7l0.2-0.7
					c0.1-0.2,0.2-0.4,0.3-0.7c0.1-0.2,0.2-0.4,0.4-0.6l0,0.1c-0.2-2.2-0.4-4.4-0.6-6.7l-0.1-0.8c0-0.1,0-0.3,0-0.4c0,0,0-0.1,0-0.1
					c0,0,0,0,0-0.1c0-0.1,0-0.1-0.1-0.2c-0.3-0.5-0.6-0.9-0.9-1.4c-0.6-0.9-1.2-1.9-1.8-2.8c-1.2-1.9-2.2-3.9-3.1-5.9
					c-0.4-1-0.8-2.1-1.1-3.1c-0.3-1.1-0.6-2.2-0.7-3.3c0.3,2.2,1.1,4.3,2,6.4c0.9,2,2,4,3.1,5.9c0.6,1,1.2,1.9,1.8,2.8
					c0.3,0.5,0.6,0.9,0.9,1.4c0,0.1,0.1,0.1,0.1,0.2c0,0,0,0.1,0,0.1c0,0.1,0,0.1,0,0.1c0,0.1,0,0.3,0,0.4l0.1,0.8
					c0.2,2.2,0.4,4.4,0.6,6.7l0,0l0,0c-0.1,0.2-0.3,0.4-0.4,0.6c-0.1,0.2-0.2,0.4-0.3,0.6l-0.3,0.7l-0.2,0.7
					c-0.3,0.9-0.5,1.9-0.7,2.8c-0.2,0.9-0.4,1.9-0.5,2.8C22.3,108.6,22.2,109.5,22.1,110.5z"/>
				<path class="st13" d="M88.3,106.9c-0.9-0.9-1.8-1.9-2.5-3c-0.7-1.1-1.3-2.3-1.8-3.5l-0.2-0.5c-0.1-0.2-0.1-0.3-0.2-0.5
					c-0.1-0.3-0.2-0.6-0.3-0.9c-0.2-0.6-0.4-1.3-0.5-1.9c-0.3-1.3-0.3-2.6-0.3-3.9l0,0.1c-0.7-0.8-1.4-1.7-2.1-2.6
					c-0.7-0.9-1.3-1.8-1.8-2.8c-0.6-1-1.1-2-1.5-3c-0.4-1-0.8-2.1-1-3.2c0.3,1.1,0.7,2.1,1.2,3.1c0.5,1,1,2,1.6,2.9
					c0.6,0.9,1.2,1.9,1.9,2.8c0.7,0.9,1.3,1.8,2.1,2.6l0,0l0,0.1c0,1.3,0.1,2.6,0.3,3.9c0.1,0.6,0.3,1.3,0.4,1.9
					c0.1,0.3,0.2,0.6,0.3,0.9c0.1,0.2,0.1,0.3,0.2,0.5l0.2,0.5c0.5,1.2,1.1,2.4,1.8,3.5C86.6,104.9,87.4,106,88.3,106.9z"/>
				<path class="st13" d="M52.9,125.3l0.7,4.4l0.7,4.4l0.7,4.4l0.7,4.4l0,0.1l0,0c-0.6,0.9-1.1,1.9-1.6,2.9c-0.4,1-0.8,2.1-1,3.1
					c-0.5,2.1-0.8,4.3-0.8,6.5c-0.1,2.2,0.1,4.4,0.5,6.6c0.3,2.2,0.8,4.3,1.5,6.4c-0.7-2.1-1.2-4.2-1.6-6.4
					c-0.4-2.2-0.6-4.4-0.6-6.6c0-2.2,0.3-4.4,0.8-6.6c0.3-1.1,0.6-2.1,1-3.2c0.4-1,0.9-2,1.6-2.9l0,0.1l-0.7-4.4l-0.7-4.4l-0.7-4.4
					L52.9,125.3z"/>
				<path class="st14" d="M-9.9,122.2"/>
				<path class="st14" d="M82.8,119"/>
				<path class="st14" d="M92,124.2"/>
				<path class="st14" d="M-2.6,116.3"/>
				<g>
					<circle class="st15" cx="-14.9" cy="61.9" r="1.6"/>
					<linearGradient id="SVGID_5_" gradientUnits="userSpaceOnUse" x1="-16.5189" y1="62.8346" x2="-13.6469" y2="61.1764">
						<stop  offset="0" style="stop-color:#72BA6E"/>
						<stop  offset="0.1852" style="stop-color:#6BB66C"/>
						<stop  offset="0.4448" style="stop-color:#59AB67"/>
						<stop  offset="0.7469" style="stop-color:#3C995F"/>
						<stop  offset="1" style="stop-color:#1D8757"/>
					</linearGradient>
					<path class="st16" d="M-15,60.3c-0.2,0.1-0.6,1.2,0.4,1.8c0.9,0.5,1.4-0.3,1.4-0.3s0.1,1.9-2.1,1.7S-16.7,60.5-15,60.3"/>
					<ellipse transform="matrix(0.866 -0.5 0.5 0.866 -32.4518 1.1674)" class="st17" cx="-14" cy="61.1" rx="0.4" ry="0.5"/>
					<ellipse transform="matrix(0.866 -0.5 0.5 0.866 -32.3204 0.758)" class="st17" cx="-14.7" cy="60.7" rx="0.2" ry="0.2"/>
					<path class="st18" d="M-13.9,60.6c0.3,0.3,0.6,0.6,0.7,1.1c0.1,0.4,0,0.9-0.2,1.3c-0.3,0.4-0.7,0.7-1.1,0.7
						c-0.5,0.1-1,0-1.3-0.3c-0.4-0.3-0.7-0.7-0.8-1.2c0-0.2,0-0.5,0-0.7c0.1-0.2,0.2-0.5,0.3-0.7c0.1-0.2,0.3-0.4,0.6-0.5
						c0.2-0.1,0.4-0.2,0.7-0.2C-14.7,60.2-14.3,60.3-13.9,60.6z M-14,60.6c-0.2-0.1-0.4-0.2-0.6-0.2c-0.2,0-0.4,0-0.6,0
						c-0.4,0.1-0.7,0.4-0.9,0.7c-0.2,0.3-0.3,0.7-0.3,1c0,0.2,0.1,0.4,0.2,0.5c0.1,0.2,0.2,0.3,0.4,0.4c0.3,0.2,0.7,0.3,1.1,0.3
						c0.4,0,0.8-0.3,1-0.6c0.2-0.3,0.4-0.7,0.3-1.1c0-0.2-0.1-0.4-0.2-0.6C-13.7,60.9-13.8,60.7-14,60.6z"/>
					<path class="st19" d="M-16,63.4c0,0,0.9-1.4,2.6-0.6c0,0-0.5,0.7-1.1,0.9C-15.1,63.8-15.4,63.7-16,63.4z"/>
				</g>
				<circle class="st15" cx="33.4" cy="91.9" r="3.2"/>
				<linearGradient id="SVGID_6_" gradientUnits="userSpaceOnUse" x1="30.1813" y1="93.697" x2="35.8713" y2="90.4119">
					<stop  offset="0" style="stop-color:#72BA6E"/>
					<stop  offset="0.1852" style="stop-color:#6BB66C"/>
					<stop  offset="0.4448" style="stop-color:#59AB67"/>
					<stop  offset="0.7469" style="stop-color:#3C995F"/>
					<stop  offset="1" style="stop-color:#1D8757"/>
				</linearGradient>
				<path class="st20" d="M33.1,88.6c-0.5,0.2-1.2,2.4,0.7,3.5c1.8,1,2.8-0.5,2.8-0.5s0.1,3.8-4.1,3.4S29.8,89,33.1,88.6"/>
				<ellipse transform="matrix(0.866 -0.5 0.5 0.866 -40.47 29.6419)" class="st17" cx="35.1" cy="90.3" rx="0.7" ry="0.9"/>
				<ellipse transform="matrix(0.866 -0.5 0.5 0.866 -40.2095 28.8308)" class="st17" cx="33.7" cy="89.4" rx="0.4" ry="0.4"/>
				<path class="st18" d="M35.3,89.2c0.7,0.5,1.2,1.3,1.4,2.1c0.2,0.8,0,1.8-0.5,2.6c-0.5,0.7-1.3,1.3-2.2,1.5
					c-0.9,0.2-1.9,0-2.7-0.6c-0.8-0.5-1.3-1.4-1.5-2.3c-0.1-0.5-0.1-1,0-1.4c0.1-0.5,0.3-0.9,0.6-1.3c0.3-0.4,0.7-0.7,1.1-0.9
					c0.4-0.2,0.9-0.3,1.3-0.4C33.7,88.4,34.6,88.7,35.3,89.2z M35.2,89.3c-0.3-0.2-0.7-0.4-1.1-0.5c-0.4-0.1-0.8,0-1.2,0.1
					c-0.8,0.2-1.4,0.7-1.8,1.3c-0.4,0.6-0.6,1.3-0.5,2.1c0,0.4,0.2,0.7,0.3,1c0.2,0.3,0.4,0.6,0.7,0.8c0.6,0.5,1.4,0.7,2.1,0.6
					c0.8-0.1,1.5-0.5,2-1.1c0.5-0.6,0.7-1.4,0.7-2.3c0-0.4-0.2-0.8-0.4-1.2C35.9,89.8,35.6,89.5,35.2,89.3z"/>
				<path class="st19" d="M31.2,94.7c0,0,1.8-2.8,5.1-1.1c0,0-0.9,1.4-2.1,1.7C33,95.5,32.3,95.4,31.2,94.7z"/>
				<g>
					<circle class="st15" cx="107.1" cy="80.1" r="1.2"/>
					<linearGradient id="SVGID_7_" gradientUnits="userSpaceOnUse" x1="105.9181" y1="80.7788" x2="107.9685" y2="79.595">
						<stop  offset="0" style="stop-color:#72BA6E"/>
						<stop  offset="0.1852" style="stop-color:#6BB66C"/>
						<stop  offset="0.4448" style="stop-color:#59AB67"/>
						<stop  offset="0.7469" style="stop-color:#3C995F"/>
						<stop  offset="1" style="stop-color:#1D8757"/>
					</linearGradient>
					<path class="st21" d="M107,79c-0.2,0.1-0.4,0.9,0.3,1.3c0.6,0.4,1-0.2,1-0.2s0,1.4-1.5,1.2C105.2,81.1,105.8,79.1,107,79"/>
					<ellipse transform="matrix(0.866 -0.5 0.5 0.866 -25.3577 64.5014)" class="st17" cx="107.7" cy="79.6" rx="0.3" ry="0.3"/>
					<ellipse transform="matrix(0.866 -0.5 0.5 0.866 -25.2638 64.2091)" class="st17" cx="107.2" cy="79.2" rx="0.1" ry="0.2"/>
					<path class="st18" d="M107.8,79.2c0.2,0.2,0.4,0.5,0.5,0.8c0.1,0.3,0,0.6-0.2,0.9c-0.2,0.3-0.5,0.5-0.8,0.5
						c-0.3,0.1-0.7,0-1-0.2c-0.3-0.2-0.5-0.5-0.6-0.8c0-0.2,0-0.3,0-0.5c0-0.2,0.1-0.3,0.2-0.5c0.1-0.1,0.2-0.3,0.4-0.3
						c0.2-0.1,0.3-0.1,0.5-0.1C107.2,78.9,107.5,79,107.8,79.2z M107.7,79.2c-0.1-0.1-0.3-0.1-0.4-0.2c-0.1,0-0.3,0-0.4,0
						c-0.3,0.1-0.5,0.3-0.6,0.5c-0.1,0.2-0.2,0.5-0.2,0.7c0,0.1,0.1,0.3,0.1,0.4c0.1,0.1,0.2,0.2,0.3,0.3c0.2,0.2,0.5,0.2,0.8,0.2
						c0.3,0,0.5-0.2,0.7-0.4c0.2-0.2,0.3-0.5,0.2-0.8c0-0.1-0.1-0.3-0.1-0.4C108,79.4,107.9,79.3,107.7,79.2z"/>
					<path class="st19" d="M106.3,81.2c0,0,0.7-1,1.9-0.4c0,0-0.3,0.5-0.8,0.6C106.9,81.4,106.7,81.4,106.3,81.2z"/>
				</g>
				<path class="st13" d="M24.8,46.9c-0.4-0.1-0.9-0.3-1.4-0.4c-0.6-0.2-1.1-0.3-1.7-0.4c-0.3-0.1-0.7-0.1-1-0.1l-0.9-0.1
					c-2.4-0.1-4.9,0.1-7.3,0.5c-2.4,0.4-4.8,1-7,2c-2.3,0.9-4.4,2.2-6.3,3.7c-1.9,1.5-3.7,3.3-5.2,5.2c-1.5,1.9-2.8,4.1-3.8,6.3
					c-0.5,1.1-1,2.3-1.4,3.4c-0.4,1.1-0.7,2.2-0.9,3.3c-0.6,0.3-1.2,0.7-1.7,1.2c-0.6,0.5-1.1,1.1-1.6,1.7c-0.1,0.1-0.2,0.2-0.3,0.4
					l0.8,0.6c0.1-0.1,0.2-0.2,0.3-0.3c0,0,0.5-0.6,1.1-1.2c0.7-0.7,1.4-1.2,2.1-1.6l0.2-0.1l0-0.2c0.2-1.1,0.5-2.3,0.9-3.4
					c0.4-1.1,0.8-2.2,1.3-3.3c1-2.2,2.2-4.3,3.6-6.2c1.4-1.9,3.1-3.6,5-5.1c1.9-1.5,3.9-2.7,6.1-3.7c2.2-1,4.5-1.6,6.9-2.1
					c2.4-0.4,4.8-0.6,7.2-0.6l1,0.1c0.3,0,0.6,0.1,0.9,0.1c0.6,0.1,1.1,0.2,1.7,0.4c0.5,0.2,1,0.4,1.5,0.6L24.8,46.9z"/>
				<g>
					<path class="st13" d="M-14.2,73.4C-14.2,73.4-14.2,73.4-14.2,73.4C-14.2,73.4-14.2,73.4-14.2,73.4z"/>
					<path class="st13" d="M-14.8,74c0.2-0.2,0.4-0.4,0.5-0.5C-14.5,73.7-14.7,73.9-14.8,74z"/>
					<path class="st13" d="M-14.3,73.5C-14.3,73.5-14.3,73.4-14.3,73.5C-14.3,73.4-14.3,73.5-14.3,73.5z"/>
					<path class="st13" d="M-14.8,74C-14.8,74-14.8,74-14.8,74C-14.8,74-14.8,74-14.8,74z"/>
					<path class="st13" d="M-14.9,74.1C-14.9,74.1-14.9,74-14.9,74.1C-14.9,74-14.9,74-14.9,74.1z"/>
					<path class="st13" d="M-14.8,74C-14.8,74-14.8,74-14.8,74C-14.8,74-14.8,74-14.8,74z"/>
					<path class="st13" d="M-14,73.2C-14,73.2-14,73.2-14,73.2C-14,73.2-14,73.2-14,73.2z"/>
					<path class="st13" d="M-14,73.2C-14,73.2-14,73.2-14,73.2C-14,73.2-14,73.2-14,73.2z"/>
					<path class="st13" d="M-14,73.2C-14,73.1-14,73.1-14,73.2L-14,73.2z"/>
					<path class="st13" d="M-14.2,73.3C-14.1,73.3-14.1,73.3-14.2,73.3C-14.1,73.3-14.1,73.3-14.2,73.3z"/>
					<path class="st13" d="M104.5,100.7c-0.4-3.2-1.3-6.3-2.7-9.1c-0.7-1.4-1.6-2.8-2.5-4.1c-0.5-0.6-1-1.3-1.5-1.8
						c-0.5-0.5-1-1-1.6-1.5c0-0.2-0.1-0.5-0.1-0.7c-0.1-0.3-0.2-0.5-0.3-0.8c-0.2-0.5-0.5-0.9-0.9-1.4c-0.3-0.4-0.6-0.8-1-1.2
						c-0.3-0.4-0.6-0.7-0.9-1c0-3.3-0.4-6.7-1.5-9.9c-0.6-1.6-1.4-3.2-2.4-4.6c-1-1.4-2.2-2.6-3.5-3.7c-1.3-1.1-2.8-2-4.3-2.8
						c-1.5-0.8-3.1-1.4-4.8-1.7c-1.2-0.3-2.3-0.4-3.5-0.5l0,0.5c1.2,0.1,2.5,0.2,3.6,0.5c1.6,0.4,2.9,0.8,4.4,1.6
						c1.4,0.8,2.8,1.7,4.1,2.8c1.3,1.1,2.4,2.3,3.4,3.6c0.9,1.4,1.7,2.8,2.2,4.4c1.1,3.1,1.4,6.5,1.4,9.8l0,0.2l0.1,0.1
						c0.3,0.4,0.7,0.7,1,1.1c0.3,0.4,0.6,0.8,0.9,1.2c0.3,0.4,0.6,0.8,0.8,1.3c0.2,0.4,0.4,0.9,0.3,1.2l0,0.2l0.2,0.2
						c0.6,0.5,1.1,1,1.6,1.6c0.5,0.6,1,1.2,1.4,1.8c0.9,1.2,1.7,2.6,2.4,3.9c1.4,2.7,2.2,5.7,2.5,8.8c0.3,3.1,0.1,6.1-0.5,9.2
						c-0.6,3-1.6,5.9-2.9,8.7c-0.5,0.8-1,1.6-1.5,2.4c-0.3,0.4-0.5,0.8-0.8,1.1c-0.1,0.2-0.3,0.4-0.4,0.5c-0.1,0.1-0.1,0.1-0.2,0.2
						c0,0-0.1,0-0.1,0.1c0,0,0,0-0.1,0.1c-0.9,0.4-1.7,0.9-2.6,1.3c-0.2,0.1-0.4,0.2-0.6,0.2c0,0-0.1,0-0.1,0c0,0,0,0,0,0
						c0,0-0.1,0-0.2-0.1c-0.3-0.2-0.7-0.5-0.9-0.8l-0.3-0.4l-0.4,0.2c-0.2,0.1-0.5,0.2-0.7,0.3c-0.2,0.1-0.5,0.2-0.7,0.2
						c-0.5,0.1-1,0.2-1.5,0.3c-0.5,0-1,0-1.5-0.1c-0.5-0.1-0.9-0.3-1.4-0.5l0,0l0,0l-1.5-0.8c-0.1-0.5-0.2-1-0.4-1.4
						c-0.2-0.6-0.4-1.1-0.6-1.6c-0.2-0.5-0.5-1.1-0.8-1.6c-0.3-0.5-0.6-0.9-0.9-1.4c-0.1-0.4-0.1-0.8-0.1-1.2c0-0.4,0.1-0.9,0.2-1.2
						c0.1-0.4,0.3-0.7,0.6-0.9c0.3-0.2,0.7-0.3,1.1-0.3l0.1,0l0.1,0c0.4-0.2,0.8-0.4,1.2-0.7c0.2-0.1,0.4-0.3,0.6-0.5
						c0.1-0.1,0.2-0.2,0.3-0.3c0-0.1,0.1-0.1,0.1-0.2c0,0,0-0.1,0-0.1l0-0.1c0.2-0.4,0.4-0.8,0.5-1.2l0.5-1.2l0.2-0.5l-0.5-0.2
						c-0.1-0.1-0.3-0.2-0.5-0.3c-0.2-0.1-0.3-0.2-0.5-0.3c-0.3-0.2-0.6-0.4-0.9-0.7c-0.6-0.5-1.1-1-1.6-1.6c-1-1.1-1.8-2.4-2.4-3.8
						c-0.6-1.4-1.1-2.8-1.3-4.3c-0.1-0.7-0.2-1.5-0.2-2.2c0-0.4,0-0.7,0.1-1.1c0-0.4,0.1-0.8,0.2-1.1l0.1-0.3l-0.2-0.2L74,87.1
						l-0.4-0.4l-0.2,0.6l-1.9,5l0,0.1l0,0.1c0.1,2.7,0.2,5.5,0.2,8.2c0,1.4,0,2.7-0.1,4.1c-0.1,1.4-0.2,2.7-0.4,4.1
						c-0.1,0.7-0.2,1.3-0.5,1.9c-0.3,0.6-0.5,1.2-0.9,1.8c-0.7,1.2-1.5,2.3-2.4,3.3c-1.8,2-3.9,3.8-6.2,5.3
						c-2.3,1.5-4.7,2.7-7.3,3.6c-2.6,0.9-5.3,1.5-8,1.5c-0.3,0-0.7,0-1,0l-1-0.1c-0.7,0-1.4-0.1-2.1-0.1c-0.3,0-0.7,0-1,0
						c-0.2,0-0.3,0-0.5,0c-0.1,0-0.2,0-0.3,0l0,0c0,0-0.1,0-0.1,0c-0.1,0-0.1,0.1-0.1,0.1c0,0.1-0.1,0.1-0.1,0.1
						c-0.2,0.3-0.3,0.7-0.4,1l-0.3,1c-0.8,2.6-1.7,5.2-2.8,7.7c-0.6,1.2-1.2,2.5-1.9,3.6c-0.7,1.2-1.5,2.3-2.4,3.2
						c-0.9,1-2,1.8-3.2,2.3c-0.6,0.3-1.3,0.4-1.9,0.5c-0.7,0.1-1.3,0.1-2,0.1c-2.7,0-5.4-0.5-7.9-1.5c-1.2-0.5-2.4-1.2-3.5-2
						c-1.1-0.8-2-1.8-2.7-2.9c-0.7-1.1-1.2-2.4-1.4-3.7c-0.1-0.7-0.1-1.3-0.1-2c0-0.7,0.1-1.3,0.3-2c0.5-2.7,1.3-5.3,2.3-7.8
						c1-2.5,2.3-4.9,3.8-7.2c1.5-2.2,3.2-4.4,5.2-6.2l0.2-0.2l0-0.2c0-0.9,0.1-1.9,0.2-2.9c0.1-1,0.2-1.9,0.4-2.8
						c0.2-0.9,0.4-1.9,0.6-2.8c0.3-0.9,0.6-1.8,1-2.6l0.1-0.2l0-0.2l-1.4-7.1l0-0.1l-0.1-0.1l-9.2-12.3l-0.3-0.4L11.7,79l-6.9,3.4
						l-0.5,0.2l0.1,0.5c0.2,0.8,0.3,1.6,0.4,2.4C4.9,86.3,5,87.2,5,88c0,1.6-0.1,3.3-0.6,4.8c-0.4,1.5-1.2,3-2.2,4.1
						c-1,1.2-2.4,2-3.9,2.6l-0.5,0.2l0.1,0.5l0.3,3.6l0,0.3l0.2,0.2c0.3,0.3,0.7,0.7,1,1c0.3,0.4,0.7,0.7,1,1.1
						c0.3,0.4,0.6,0.8,0.8,1.2c0.2,0.4,0.4,0.7,0.5,1.1c-0.2,0.8-0.4,1.5-0.6,2.3c-0.2,0.8-0.4,1.6-0.7,2.4
						c-0.1,0.4-0.3,0.8-0.4,1.1c0,0.1-0.1,0.2-0.1,0.2c0,0,0,0,0,0.1c-0.1,0-0.2,0.1-0.3,0.1c-0.9,0.2-1.7,0.5-2.5,0.8l-0.5,0.2
						l0.1,0.6c0,0,0,0.1,0,0.1c0,0.1,0,0.1,0,0.2c0,0.1,0,0.2,0,0.3c0,0.2-0.1,0.5-0.1,0.7c-0.1,0.4-0.3,0.8-0.6,1.2
						c-0.1,0.2-0.3,0.3-0.5,0.5c-0.2,0.1-0.4,0.3-0.5,0.4c-0.4,0.2-0.8,0.4-1.3,0.5l0,0l0,0c-1.1,0.3-2.4,0.6-3.6,0.7
						c-0.6,0.1-1.2,0.1-1.8,0.1c-0.6,0-1.3,0-1.9,0l-3.8-0.1l-0.9,0c0,0-0.1,0-0.1-0.1c-0.1-0.1-0.2-0.1-0.3-0.2
						c-0.5-0.3-0.9-0.7-1.4-1.2c-0.9-0.8-1.8-1.7-2.6-2.7c-0.2-0.2-0.4-0.5-0.6-0.7c-0.1-0.1-0.2-0.2-0.2-0.3c0,0,0,0,0,0l0-0.1
						l-0.1-0.2c-0.2-0.6-0.4-1.1-0.6-1.7c-0.8-2.3-1.3-4.8-1.5-7.3c-0.6-4.9-0.2-10,1.2-14.7c1-3.5,2.6-7.1,4.4-10.2
						c0,0,3.1-5.3,5.5-7.6l-0.2-0.9l3-2.9c0,0-4.4,2.1-9.7,11.7c-1.8,3-3.2,6.3-4.1,9.7c-1.4,4.9-1.9,10.1-1.3,15.2
						c0.3,2.5,0.8,5.1,1.6,7.5c0.2,0.6,0.4,1.2,0.7,1.8l0.1,0.2l0,0l0,0c0,0,0,0,0,0c0,0,0,0.1,0,0.1c0,0.1,0.1,0.1,0.1,0.2
						c0.1,0.2,0.2,0.3,0.3,0.4c0.2,0.3,0.4,0.5,0.6,0.7c0.9,1,1.7,1.9,2.7,2.8c0.5,0.4,1,0.9,1.5,1.3c0.1,0.1,0.3,0.2,0.5,0.3
						c0.1,0,0.2,0.1,0.3,0.1c0.1,0,0.1,0,0.2,0.1c0,0,0.1,0,0.1,0c0.1,0,0.1,0,0.1,0l1,0l3.8,0.1c0.6,0,1.3,0,1.9,0
						c0.7,0,1.3-0.1,2-0.1c1.3-0.2,2.5-0.4,3.8-0.8c0.6-0.1,1.1-0.3,1.7-0.6c0.5-0.3,1-0.7,1.4-1.2c0.4-0.5,0.7-1.1,0.8-1.7
						c0.1-0.3,0.1-0.6,0.2-0.9c0-0.1,0-0.2,0-0.4c0.6-0.2,1.3-0.4,1.9-0.6c0.1,0,0.2-0.1,0.3-0.1l0.1,0l0.1,0c0.1,0,0.1,0,0.2-0.1
						c0.2-0.1,0.3-0.2,0.3-0.2c0.1-0.1,0.2-0.3,0.3-0.4c0.1-0.1,0.1-0.2,0.2-0.3c0.2-0.4,0.4-0.8,0.5-1.3c0.3-0.8,0.5-1.7,0.7-2.5
						c0.2-0.8,0.4-1.7,0.6-2.5l0-0.2l0-0.2c-0.1-0.6-0.4-1.1-0.7-1.6c-0.3-0.5-0.6-0.9-0.9-1.4c-0.3-0.4-0.7-0.8-1-1.2
						c-0.3-0.3-0.6-0.6-0.9-0.9l-0.3-2.8c1.5-0.6,2.8-1.6,3.9-2.8c1.2-1.3,2-3,2.5-4.7c0.5-1.7,0.6-3.5,0.6-5.2
						c0-0.9-0.1-1.7-0.2-2.6c-0.1-0.7-0.2-1.4-0.4-2l6-2.9l8.9,11.7l1.4,6.8c-0.4,0.9-0.7,1.7-1,2.6c-0.3,1-0.5,1.9-0.7,2.9
						c-0.2,1-0.3,2-0.4,2.9c-0.1,0.9-0.2,1.8-0.2,2.7c-2,1.9-3.7,4-5.2,6.2c-0.8,1.2-1.5,2.4-2.1,3.6c-0.6,1.2-1.2,2.5-1.7,3.8
						c-1,2.6-1.8,5.2-2.3,8c-0.1,0.7-0.2,1.4-0.2,2.1c0,0.7,0,1.4,0.1,2.1c0.2,1.4,0.8,2.8,1.6,3.9c0.8,1.2,1.8,2.2,2.9,3
						c1.1,0.8,2.4,1.5,3.7,2c2.6,1,5.4,1.5,8.2,1.5c0.7,0,1.4,0,2.1-0.1c0.7-0.1,1.4-0.3,2.1-0.5c1.3-0.6,2.4-1.5,3.4-2.5
						c1-1,1.8-2.2,2.5-3.3c0.7-1.2,1.3-2.4,1.9-3.7c1.1-2.5,2-5.1,2.8-7.8l0.3-1c0.1-0.3,0.2-0.7,0.3-0.9c0,0,0,0,0-0.1
						c0.1,0,0.1,0,0.2,0c0.2,0,0.3,0,0.5,0c0.3,0,0.7,0,1,0c0.7,0,1.4,0.1,2,0.1l1,0.1c0.4,0,0.7,0,1,0c2.8,0,5.5-0.6,8.1-1.5
						c2.6-0.9,5.1-2.2,7.4-3.7c2.3-1.5,4.4-3.3,6.3-5.4c0.9-1,1.8-2.1,2.5-3.3c0.4-0.6,0.7-1.2,0.9-1.9c0.3-0.7,0.4-1.4,0.5-2
						c0.2-1.4,0.3-2.7,0.4-4.1c0.1-1.4,0.1-2.8,0.1-4.1c0-2.7,0-5.4-0.1-8.2l1.7-4.3l4.9,4.9c-0.1,0.3-0.1,0.6-0.1,1
						c0,0.4-0.1,0.8-0.1,1.2c0,0.8,0,1.6,0.2,2.4c0.2,1.6,0.7,3.1,1.3,4.6c0.6,1.5,1.5,2.8,2.5,4.1c0.5,0.6,1.1,1.2,1.7,1.7
						c0.3,0.3,0.6,0.5,1,0.7c0.2,0.1,0.3,0.2,0.5,0.3c0,0,0.1,0,0.1,0.1l-0.3,0.7c-0.2,0.4-0.3,0.8-0.5,1.2l0,0.1c0,0,0,0,0,0.1
						c0,0,0,0,0,0.1c0,0.1-0.1,0.1-0.2,0.2c-0.1,0.1-0.3,0.2-0.4,0.3c-0.3,0.2-0.6,0.4-1,0.5c-0.5,0-1.1,0.2-1.5,0.5
						c-0.5,0.3-0.9,0.9-1.1,1.4c-0.2,0.5-0.3,1.1-0.3,1.6c0,0.3,0,0.5,0,0.8c0,0.3,0.1,0.5,0.1,0.8l0,0.1l0.1,0.1
						c0.3,0.5,0.6,0.9,0.9,1.4c0.3,0.5,0.5,1,0.7,1.5c0.2,0.5,0.4,1,0.6,1.5c0.2,0.5,0.3,1.1,0.4,1.6l0.1,0.3l0.3,0.1l1.8,0.9l0,0
						c0.5,0.3,1.1,0.6,1.7,0.7c0.6,0.1,1.2,0.2,1.8,0.1c0.6,0,1.2-0.2,1.8-0.3c0.3-0.1,0.6-0.2,0.8-0.3c0.1-0.1,0.3-0.1,0.4-0.2
						c0.1,0.1,0.2,0.2,0.3,0.2c0.2,0.2,0.4,0.4,0.7,0.5c0.1,0.1,0.3,0.1,0.5,0.2c0.1,0,0.2,0,0.3,0c0.1,0,0.2,0,0.3,0
						c0.3-0.1,0.6-0.2,0.8-0.3c0.9-0.4,1.8-0.9,2.6-1.3c0,0,0.1-0.1,0.2-0.1c0.1,0,0.1-0.1,0.2-0.1c0.1-0.1,0.2-0.2,0.3-0.3
						c0.2-0.2,0.4-0.4,0.5-0.6c0.3-0.4,0.6-0.8,0.9-1.2c0.6-0.8,1.1-1.7,1.5-2.5l0,0l0,0c1.3-2.9,2.3-5.9,3-9
						C104.6,107.1,104.8,103.9,104.5,100.7z M-23.6,115.9L-23.6,115.9C-23.6,115.9-23.6,115.9-23.6,115.9
						C-23.6,116-23.6,115.9-23.6,115.9z M0.1,114.8L0.1,114.8C0.1,114.8,0.1,114.8,0.1,114.8L0.1,114.8L0.1,114.8z"/>
					<path class="st13" d="M-14,73.2C-14,73.2-14,73.2-14,73.2C-14,73.2-14,73.2-14,73.2z"/>
					<path class="st13" d="M-14.1,73.3C-14.1,73.2-14,73.2-14.1,73.3C-14,73.2-14.1,73.2-14.1,73.3z"/>
				</g>
				<path class="st13" d="M18.6,45.8c0,0,3.2-0.1,6.3,0.9l0.2,0.7l-0.2,0c0,0-2.6-1.2-6.3-1.2C16.1,46.2,18.6,45.8,18.6,45.8z"/>
				<path class="st13" d="M8.5,80.5c0,0,4.2-1.7,7.3-7s0.5,0.4,0.5,0.4s-4.2,6-6.3,6.9c-2.1,0.9-5.3,1.6-5.3,1.6L8.5,80.5z"/>
				<path class="st13" d="M30,53.5c0,0,5.5,5.7,19.9,6.8C49.8,60.4,34.7,57.2,30,53.5z"/>
				<g>
					<path class="st8" d="M46.8,48.2c-2.2-0.3-4.6-1.9-5.1-4.7c-0.7-3.4,0.9-6.7,3.5-7.6s9,2.9,17.5,2.3c0,0,3.3-0.2,4.4,2.9
						c1.3,3.9-0.7,7-3.7,7.5C59.5,49.2,57.3,49.5,46.8,48.2z"/>
					<path class="st9" d="M28.4,49.7c1.2,0.3,2.7,1.8,4.2,2.3c6.1,1.7,14.1,5.4,21.5,5.7c12.8,0.5,0,0,0,0S31.5,53,32.7,40.5
						c0.7-7.1,4.5-10.5,8.1-12.8c2.8-1.8,7.2-1.5,7.6-1.7c0,0-0.9-1-1.7-1.3c-0.8-0.3-0.6-0.4-0.6-0.4s-16.1-2-21.1,20.2
						c-0.6,2.5,0,0,0,0l-0.2,2.6"/>
					<path class="st11" d="M66.1,34.6c-1.3,1.9-3.7,1-6.8-1.1s-5.7-4.4-4.4-6.3s3.2-0.5,6.3,1.5C64.3,30.7,67.3,32.6,66.1,34.6z"/>
					<path class="st9" d="M48.7,26.1c0,0,0.5-2.6,0.7-5.9S49.3,9.6,48.7,7.7L48,7.9l0.3,6.7l-0.5,5.8c0,0-0.9,2.6-1,2.9
						c0,0.3-0.9,0.6-0.6,1C46.5,24.7,47.8,26.1,48.7,26.1z"/>
					<path class="st9" d="M48.7,7.7c0,0-2.2-1.7-0.7-3.6c0,0-1.9,0.4-1.5,2.6C46.5,6.7,47.8,8.4,48.7,7.7z"/>
					
						<ellipse transform="matrix(0.9637 -0.2671 0.2671 0.9637 0.3662 13.4844)" class="st11" cx="49.7" cy="5.4" rx="0.6" ry="0.9"/>
					<path class="st13" d="M61.4,43.1c-0.1,0.6,0,1.2,0.2,1.7c0.3,0.5,0.8,0.9,1.3,0.9c0.5,0,1-0.2,1.4-0.6c0.3-0.4,0.6-0.9,0.6-1.4
						c0.1-0.5,0.1-1.1-0.1-1.6c-0.2-0.5-0.6-0.9-1.1-1c-0.5-0.1-1.1,0.1-1.5,0.5C61.8,42,61.5,42.6,61.4,43.1z"/>
					<path class="st13" d="M47.5,22.9c0,0,1.7-3.8,0.8-15.3c0,0-0.1,12.7-2.1,16L47.5,22.9z"/>
					<path class="st13" d="M46.7,23.9c0,0,0.9,1.7,2,2.3c0,0-2.2-0.1-2.6-1.6L46.7,23.9z"/>
					<path class="st13" d="M51.3,23.3c0,0-0.6-11.4-1.9-15.8c0,0,0.2,0,0.5-0.3c0,0,2.1,8.2,2.5,17.1L51.3,23.3z"/>
					<path class="st13" d="M48.3,7.7c0,0-1.2-0.1-1.4-1.4c0,0-0.3-1.7,1.6-2.1c0,0,1.2-0.2,1.7,0.8c0,0,0.6,1-0.1,1.9l-0.3,0.4
						l0.1,0.4c0,0,1-0.7,1-1.7c0-1-0.7-2.4-2.3-2.3c-2.3,0.2-2,2.5-2,2.5s0.1,1.1,0.9,1.6c0,0,0.4,0.2,0.5,0.2l0.1,6.7l0.3-3
						L48.3,7.7z"/>
					<path class="st13" d="M48.3,7.7c0,0,0.3,0.1,0.5,0c0,0-0.3,0.3-0.8,0.4L48.3,7.7z"/>
					<path class="st13" d="M47.1,4.4c0,0-0.6,0.5-0.8,1.5c-0.1,1,0.5,2,1.6,2.1c0,0-0.4-0.5-0.6-0.7c-0.2-0.2-0.4-1-0.4-1l0.1-1
						L47,4.6L47.1,4.4z"/>
					<path class="st13" d="M44.6,41.8c0,0-0.1-1.5,1-2.5c1.1-1,2.4-0.3,2.4-0.3s0.9,0.5,1.2,1.4c0.3,0.9,0.4,2,0.2,2.6
						c-0.2,0.5-0.6,1.4-1,1.7s-1.3,0.6-2.1,0.2C45.5,44.5,44.6,43.5,44.6,41.8z"/>
				</g>
				<path class="st13" d="M24.5,46.8c0,0,0.5-3.2,0.9-4.7c0.5-1.6,0.3,0.5,0.3,0.5l-0.8,4.6L24.5,46.8z"/>
				<path class="st13" d="M68.2,35.4c-5.8-9.6-15.8-11.2-15.8-11.2l-0.1-0.7l0,0c-0.4-0.1-0.7-0.1-1.1-0.2l0.1,2.5l0.6,0.1
					c1.6,0.3,3.1,0.8,4.6,1.4l1.1,0.5l0.6,0.2c0.2,0.1,0.4,0.2,0.5,0.3l1.1,0.6l1,0.7c2.7,1.8,4.9,4.2,6.5,7
					c3.1,5.5,4.3,12.1,4,18.5l0,0.7c-20.9,4.8-36.9-3.3-39.7-4.8c-2.3-1.2-4.5-2.5-6.6-4.1l0,0c0.6-3.2,1.5-6.4,2.9-9.4
					c1.4-3,3.3-5.8,5.7-7.9c1.2-1.1,2.6-1.9,4-2.6c0.4-0.2,0.7-0.4,1.1-0.5l1.1-0.4c0.8-0.2,1.5-0.4,2.3-0.5
					c0.8-0.2,1.6-0.2,2.4-0.3c0.4,0,0.8,0,1.2,0c0.2,0,0.5,0,0.7,0c0.1-0.3,0.6-1.4,0.9-2.4c-0.3,0-0.6,0-0.9,0l-0.4,0.7
					c0,0-15.1-0.6-20.7,18.4c-0.3,1.6-0.6,3.2-0.6,4.8l0,0.6c3.2,2.7,6.9,4.7,10.7,6.4c3.8,1.7,7.9,2.9,12,3.7
					c1,0.2,2.1,0.3,3.1,0.5c1,0.1,2.1,0.2,3.1,0.3c2.1,0.2,4.2,0.2,6.3,0.1c4.2-0.2,8.4-0.8,12.5-1.8l0.6-0.1l0.1-0.6l-0.8,0
					C73.1,43,68.2,35.4,68.2,35.4z"/>
				<path class="st13" d="M72.3,55.7c0,0,1.8,0.1,4.4,0.7l-0.4,0.4c0,0-2.6-0.5-4.3-0.2C70.3,57,72.3,55.7,72.3,55.7z"/>
			</g>
		</g>
		<g>
			<circle class="st15" cx="15.5" cy="31.9" r="4.7"/>
			<linearGradient id="SVGID_8_" gradientUnits="userSpaceOnUse" x1="10.9349" y1="34.5663" x2="19.149" y2="29.8239">
				<stop  offset="0" style="stop-color:#72BA6E"/>
				<stop  offset="0.1852" style="stop-color:#6BB66C"/>
				<stop  offset="0.4448" style="stop-color:#59AB67"/>
				<stop  offset="0.7469" style="stop-color:#3C995F"/>
				<stop  offset="1" style="stop-color:#1D8757"/>
			</linearGradient>
			<path class="st22" d="M15.2,27.3c-0.7,0.3-1.8,3.5,1,5c2.5,1.4,4-0.7,4-0.7s0.2,5.4-5.9,4.9C8.1,35.9,10.4,27.8,15.2,27.3"/>
			<ellipse transform="matrix(0.866 -0.5 0.5 0.866 -12.4473 12.9832)" class="st17" cx="18" cy="29.7" rx="1" ry="1.3"/>
			<ellipse transform="matrix(0.866 -0.5 0.5 0.866 -12.0714 11.8122)" class="st17" cx="16" cy="28.4" rx="0.5" ry="0.6"/>
			<path class="st18" d="M18.3,28.1c1,0.7,1.7,1.8,2,3.1c0.3,1.2,0,2.6-0.7,3.7c-0.7,1.1-1.9,1.9-3.2,2.1c-1.3,0.2-2.7,0-3.9-0.8
				c-1.1-0.8-1.9-2-2.2-3.4c-0.1-0.7-0.1-1.4,0-2.1c0.2-0.7,0.5-1.3,0.9-1.9c0.4-0.6,1-1,1.6-1.3c0.6-0.3,1.3-0.5,1.9-0.5
				C16,26.9,17.3,27.3,18.3,28.1z M18.2,28.2c-0.5-0.3-1.1-0.6-1.7-0.7c-0.6-0.1-1.2,0-1.7,0.1c-1.1,0.3-2,1-2.6,1.9
				c-0.6,0.9-0.8,1.9-0.7,3c0.1,0.5,0.2,1,0.5,1.5c0.3,0.5,0.6,0.9,1,1.2c0.9,0.7,2,1,3.1,0.8c1.1-0.1,2.1-0.7,2.8-1.6
				c0.7-0.9,1.1-2.1,1-3.3c-0.1-0.6-0.2-1.2-0.6-1.7C19.1,29,18.7,28.5,18.2,28.2z"/>
			<path class="st19" d="M12.4,36.1c0,0,2.7-4.1,7.4-1.6c0,0-1.3,2.1-3.1,2.4C14.9,37.2,14,37,12.4,36.1z"/>
		</g>
		<g>
			<circle class="st15" cx="70.1" cy="71.4" r="2.9"/>
			<linearGradient id="SVGID_9_" gradientUnits="userSpaceOnUse" x1="67.3154" y1="73.0118" x2="72.3868" y2="70.0838">
				<stop  offset="0" style="stop-color:#72BA6E"/>
				<stop  offset="0.1852" style="stop-color:#6BB66C"/>
				<stop  offset="0.4448" style="stop-color:#59AB67"/>
				<stop  offset="0.7469" style="stop-color:#3C995F"/>
				<stop  offset="1" style="stop-color:#1D8757"/>
			</linearGradient>
			<path class="st23" d="M69.9,68.5c-0.4,0.2-1.1,2.1,0.6,3.1c1.6,0.9,2.5-0.4,2.5-0.4s0.1,3.3-3.7,3C65.6,73.9,67,68.8,69.9,68.5"
				/>
			<ellipse transform="matrix(0.866 -0.5 0.5 0.866 -25.4062 45.2205)" class="st17" cx="71.7" cy="70" rx="0.6" ry="0.8"/>
			<ellipse transform="matrix(0.866 -0.5 0.5 0.866 -25.174 44.4975)" class="st17" cx="70.4" cy="69.2" rx="0.3" ry="0.4"/>
			<path class="st18" d="M71.9,69c0.6,0.5,1,1.1,1.2,1.9c0.2,0.8,0,1.6-0.4,2.3c-0.5,0.7-1.2,1.1-2,1.3c-0.8,0.2-1.7,0-2.4-0.5
				c-0.7-0.5-1.2-1.2-1.4-2.1c-0.1-0.4-0.1-0.9,0-1.3c0.1-0.4,0.3-0.8,0.6-1.2c0.3-0.3,0.6-0.6,1-0.8c0.4-0.2,0.8-0.3,1.2-0.3
				C70.5,68.3,71.2,68.5,71.9,69z M71.8,69.1c-0.3-0.2-0.7-0.3-1-0.4c-0.4-0.1-0.7,0-1.1,0.1c-0.7,0.2-1.2,0.6-1.6,1.2
				c-0.4,0.5-0.5,1.2-0.4,1.8c0,0.3,0.1,0.6,0.3,0.9c0.2,0.3,0.4,0.5,0.6,0.7c0.5,0.4,1.2,0.6,1.9,0.5c0.7-0.1,1.3-0.5,1.8-1
				c0.4-0.6,0.7-1.3,0.6-2c0-0.4-0.2-0.7-0.3-1C72.4,69.6,72.1,69.3,71.8,69.1z"/>
			<path class="st19" d="M68.2,73.9c0,0,1.6-2.5,4.6-1c0,0-0.8,1.3-1.9,1.5C69.8,74.6,69.2,74.5,68.2,73.9z"/>
		</g>
		<g>
			<circle class="st15" cx="75.8" cy="21.4" r="2.9"/>
			<linearGradient id="SVGID_10_" gradientUnits="userSpaceOnUse" x1="72.9699" y1="23.0202" x2="78.0413" y2="20.0922">
				<stop  offset="0" style="stop-color:#72BA6E"/>
				<stop  offset="0.1852" style="stop-color:#6BB66C"/>
				<stop  offset="0.4448" style="stop-color:#59AB67"/>
				<stop  offset="0.7469" style="stop-color:#3C995F"/>
				<stop  offset="1" style="stop-color:#1D8757"/>
			</linearGradient>
			<path class="st24" d="M75.6,18.5c-0.4,0.2-1.1,2.1,0.6,3.1c1.6,0.9,2.5-0.4,2.5-0.4s0.1,3.3-3.7,3C71.2,23.9,72.6,18.8,75.6,18.5
				"/>
			<ellipse transform="matrix(0.866 -0.5 0.5 0.866 0.3472 41.3501)" class="st17" cx="77.3" cy="20" rx="0.6" ry="0.8"/>
			<ellipse transform="matrix(0.866 -0.5 0.5 0.866 0.5793 40.6271)" class="st17" cx="76.1" cy="19.2" rx="0.3" ry="0.4"/>
			<path class="st18" d="M77.5,19c0.6,0.5,1,1.1,1.2,1.9c0.2,0.8,0,1.6-0.4,2.3c-0.5,0.7-1.2,1.1-2,1.3c-0.8,0.2-1.7,0-2.4-0.5
				c-0.7-0.5-1.2-1.2-1.4-2.1c-0.1-0.4-0.1-0.9,0-1.3c0.1-0.4,0.3-0.8,0.6-1.2c0.3-0.3,0.6-0.6,1-0.8c0.4-0.2,0.8-0.3,1.2-0.3
				C76.1,18.3,76.9,18.6,77.5,19z M77.5,19.1c-0.3-0.2-0.7-0.3-1-0.4c-0.4-0.1-0.7,0-1.1,0.1c-0.7,0.2-1.2,0.6-1.6,1.2
				c-0.4,0.5-0.5,1.2-0.4,1.8c0,0.3,0.1,0.6,0.3,0.9c0.2,0.3,0.4,0.5,0.6,0.7c0.5,0.4,1.2,0.6,1.9,0.5c0.7-0.1,1.3-0.5,1.8-1
				c0.4-0.6,0.7-1.3,0.6-2c0-0.4-0.2-0.7-0.3-1C78,19.6,77.8,19.3,77.5,19.1z"/>
			<path class="st19" d="M73.9,23.9c0,0,1.6-2.5,4.6-1c0,0-0.8,1.3-1.9,1.5S74.9,24.5,73.9,23.9z"/>
		</g>
		<g>
			<circle class="st15" cx="26.8" cy="55.7" r="2.2"/>
			<linearGradient id="SVGID_11_" gradientUnits="userSpaceOnUse" x1="24.6709" y1="56.9041" x2="28.4924" y2="54.6978">
				<stop  offset="0" style="stop-color:#72BA6E"/>
				<stop  offset="0.1852" style="stop-color:#6BB66C"/>
				<stop  offset="0.4448" style="stop-color:#59AB67"/>
				<stop  offset="0.7469" style="stop-color:#3C995F"/>
				<stop  offset="1" style="stop-color:#1D8757"/>
			</linearGradient>
			<path class="st25" d="M26.6,53.5c-0.3,0.1-0.8,1.6,0.5,2.3c1.2,0.7,1.8-0.3,1.8-0.3s0.1,2.5-2.8,2.3
				C23.4,57.5,24.4,53.7,26.6,53.5"/>
			<ellipse transform="matrix(0.866 -0.5 0.5 0.866 -23.5785 21.3013)" class="st17" cx="28" cy="54.6" rx="0.5" ry="0.6"/>
			<ellipse transform="matrix(0.866 -0.5 0.5 0.866 -23.4036 20.7565)" class="st17" cx="27" cy="54.1" rx="0.2" ry="0.3"/>
			<path class="st18" d="M28.1,53.9c0.5,0.3,0.8,0.9,0.9,1.4c0.1,0.6,0,1.2-0.3,1.7c-0.3,0.5-0.9,0.9-1.5,1c-0.6,0.1-1.3,0-1.8-0.4
				c-0.5-0.4-0.9-0.9-1-1.6c-0.1-0.3-0.1-0.7,0-1c0.1-0.3,0.2-0.6,0.4-0.9c0.2-0.3,0.5-0.5,0.7-0.6c0.3-0.1,0.6-0.2,0.9-0.2
				C27,53.3,27.6,53.5,28.1,53.9z M28.1,53.9c-0.2-0.2-0.5-0.3-0.8-0.3c-0.3,0-0.5,0-0.8,0.1c-0.5,0.2-0.9,0.5-1.2,0.9
				C25,55,24.9,55.5,25,56c0,0.2,0.1,0.5,0.2,0.7c0.1,0.2,0.3,0.4,0.5,0.6c0.4,0.3,0.9,0.5,1.4,0.4c0.5-0.1,1-0.3,1.3-0.8
				c0.3-0.4,0.5-1,0.4-1.5c0-0.3-0.1-0.5-0.3-0.8C28.5,54.3,28.3,54.1,28.1,53.9z"/>
			<path class="st19" d="M25.3,57.6c0,0,1.2-1.9,3.4-0.8c0,0-0.6,1-1.4,1.1C26.5,58.1,26.1,58,25.3,57.6z"/>
		</g>
	</g>
</g>
</svg>
