<?xml version="1.0" encoding="utf-8"?>
<!-- Generator: Adobe Illustrator 23.1.1, SVG Export Plug-In . SVG Version: 6.00 Build 0)  -->
<svg version="1.1" id="Capa_1" xmlns="http://www.w3.org/2000/svg" xmlns:xlink="http://www.w3.org/1999/xlink" x="0px" y="0px"
	 viewBox="0 0 300 120" style="enable-background:new 0 0 300 120;" xml:space="preserve">
<style type="text/css">
	.st0{fill:#99E7FF;}
	.st1{fill:#7F34C1;}
</style>
<g>
	<path class="st0" d="M40.6,23.5c0,0,14.3-9.6,16-9.3c1.7,0.3,16.3-4.9,16.3-4.9l21.2,9.6l5.8-6.7l9.3-1.7l6.5-3.8l10.6,2.9l19.6,8
		l62.9-8l22,9.9l24.2,0.1l21.8-6.5l10.9,19.6l-7.1,23.6l-12.7,11.4l-7.7,24.1l-11,10.1c0,0-31.4,1.6-34.4,0c-3-1.6-32-5.8-32-5.8
		l-23.1,6.6l-30.6-4.4l-14.5,9.1l-12.1,1.1l-5.2-4.2l-11.6-6l-7.5-2l-17.9,8.5l-2.9-4.3l-5.9,4l-5.9-1.1l-7.5-2.7l-17.1-5.9
		l-6.2-5.1l1.1-5.6l3-2.7l-0.8-4l1.9-2.7l3.5-0.2l2.2-0.4l8.8-6.6l-0.7-10.3l11.4-18.5L40.6,23.5z"/>
	<path class="st1" d="M67,64.5l0.3-0.7l-13.2-1.5l14.5-1.5l0.4-0.7l-13.2-1.5l14.4-1.5l0.4-0.7L57.5,55c0.6,0,1.4-0.1,2.6-0.1
		c1.1-0.1,2.3-0.1,3.7-0.2c1.3-0.1,2.7-0.1,4-0.2c1.4-0.1,2.6-0.1,3.7-0.1c1.1,0,2.4-0.1,3.7-0.2h12.2c0.4,0,0.8-0.1,1.2-0.4
		c0.4-0.3,0.8-0.6,1.1-1c0.3-0.4,0.6-0.8,0.7-1.3c0.2-0.5,0.3-0.9,0.3-1.3c0-0.7-0.3-1.1-0.8-1.1h-8c-1.1,0-1.9,0-2.5,0
		c-0.6,0-1.2,0-1.7,0c-0.7,0-1.3,0-1.9-0.1c-0.6,0-1.5-0.1-2.6-0.2c-1.1-0.1-2.6-0.3-4.6-0.5c-1.9-0.2-4.6-0.5-7.9-0.8l16.2-2.2
		l-14.2-2.2L77.7,42l-13.5-2.2l14.5-1.4l0.3-0.8l-13.1-1.5l14.4-1.4l0.3-0.8l-13.2-1.5l15.2-1.4l0.3-0.8L69,28.8l15.2-1.4l1.1-0.8
		l-14.7-1.5l14.9-0.9c2.5-0.1,5.6-0.3,9.2-0.3c3.7-0.1,7.9-0.1,12.8-0.1l-4.4,10H90.3c-0.6,0-1.1,0.2-1.6,0.7
		c-0.5,0.5-0.8,1-1.1,1.5c-0.3,0.6-0.5,1.1-0.7,1.6c-0.2,0.5-0.2,0.8-0.2,0.8c0,0.3,0.6,0.4,1.8,0.4h8c2.9,0,4.3,1.4,4.3,4.2
		c0,0.7-0.1,1.5-0.4,2.3c-0.2,0.8-0.5,1.8-0.9,2.7c-0.4,1-0.8,1.9-1.2,3c-0.5,1-0.9,2-1.4,3c-0.9,2-1.8,3.6-2.8,4.9
		c-1,1.3-2,2.3-3.1,3.1c-1.1,0.8-2.2,1.3-3.3,1.7c-1.1,0.3-2.2,0.5-3.4,0.5H67z"/>
	<path class="st1" d="M112.6,64.5l-23.1-2.2l17.7-2.2l-16.1-1.5l17-2.2L92.8,55l16.9-2.2l-15.4-1.5l16.9-2.2L96,47.8l16.9-2.2
		l-15-2.2l16.5-1.4l-15-2.2l16.7-1.4l-15-2.2l16.7-1.4l-15.1-2.2l16.7-1.4l-15-2.2l16.7-1.4l-15.1-2.2l16.7-1.4h8l-12.3,27.6
		c-0.4,0.8-0.5,1.5-0.5,1.9c0,0.7,0.5,1,1.4,1h5.9c1.4,0,2.6-1,3.5-2.9l12.2-27.6h8l-13.6,30.5c-1.7,3.7-3.5,6.4-5.6,7.9
		c-2.1,1.5-4.4,2.3-6.8,2.3H112.6z"/>
	<path class="st1" d="M150.8,64.5h-8c0,0-0.4-0.1-1.2-0.2c-0.9-0.1-2.2-0.3-4-0.5L127,62.3l17.7-2.2l-16.2-1.5l17.7-2.2L130.3,55
		l17.7-2.2l-16.1-1.5l17.7-2.2l-16.1-1.5l17.6-2.2l-15.7-2.2l17.3-1.4l-15.7-2.2l17.4-1.4l-15.8-2.2l17.4-1.4l-15.8-2.2l17.4-1.4
		l-15.8-2.2l17.4-1.4l-15.8-2.2l18.1-1.4h16c0.3,0,0.7,0,1.3-0.1c0.6-0.1,1-0.1,1.3-0.1c2.1,0,3.2,1,3.2,3c0,1.6-0.6,3.7-1.9,6.6
		l-3.6,8c-0.8,1.7-1.6,3.2-2.4,4.4c-0.8,1.2-1.6,2.2-2.5,3c-0.9,0.8-1.9,1.4-3.1,1.8c-1.1,0.4-2.5,0.7-3.9,0.8
		c-0.3,0-1.2,0.1-2.7,0.1c-1.5,0-3.7,0-6.6,0L150.8,64.5z M171.3,33.9c-0.4,0-0.9,0-1.4,0c-0.5,0-1.1,0-1.8,0h-3.8l-2.9,6.6h3.2
		c0.6,0,1.1,0,1.6,0c0.5,0,0.9,0,1.2,0h1.9c0.3,0,0.6-0.3,0.9-0.8c0.4-0.5,0.7-1.1,1.1-1.8c0.3-0.7,0.6-1.3,0.9-2
		c0.2-0.7,0.4-1.1,0.4-1.4c0-0.5-0.2-0.7-0.7-0.7H171.3z"/>
	<path class="st1" d="M203.5,64.5h-23.9c-1-0.4-6.3-1.1-15.9-2.2l17.7-2.2l-16.2-1.5l17.7-2.2L167,55l17.7-2.2l-16.1-1.5l17.6-2.2
		l-16.1-1.5l17.7-2.2l-15.7-2.2l17.3-1.4l-15.7-2.2l17.4-1.4l-15.8-2.2l17.4-1.4L177,32.5l17.4-1.4l-15.8-2.2l17.4-1.4l-15.8-2.2
		c0.1,0,0.5-0.1,1.2-0.1c0.6,0,1.5-0.1,2.7-0.2l7.3-0.6c4.1-0.3,6.1-0.5,6.2-0.5h24L217,33.9h-16.7L198,39h8l-4.5,10.2h-8l-2.2,5
		H208L203.5,64.5z"/>
	<path class="st1" d="M239.3,64.5H232c3.5-7.8,5.2-11.9,5.2-12.3c0-0.6-0.4-0.9-1.2-0.9c-0.4,0-0.9,0-1.6,0.1
		c-0.7,0-1.4,0.1-2.2,0.1h-3.9l-5.8,13.1l-7.1-0.1c-0.6-0.1-1.3-0.2-2.1-0.4c-0.8-0.1-1.8-0.3-3.1-0.4c-1.2-0.2-2.7-0.4-4.5-0.6
		c-1.8-0.2-3.9-0.5-6.3-0.8l17.7-2.2l-16.2-1.5l17.7-2.2L202.7,55l17.7-2.2l-16.1-1.5l17.6-2.2l-16.1-1.5l17.7-2.2l-15.7-2.2
		l17.3-1.4l-15.7-2.2l17.4-1.4l-15.8-2.2l17.4-1.4l-15.8-2.2l17.4-1.4l-15.8-2.2l17.4-1.4l-15.8-2.2c0.4,0,0.9,0,1.6-0.1
		c0.7-0.1,1.5-0.1,2.4-0.2c0.9-0.1,1.8-0.2,2.8-0.2c1-0.1,2-0.2,3-0.2c2.3-0.2,4.8-0.4,7.5-0.7H250c0.3,0,0.7,0,1.3-0.1
		c0.6-0.1,1-0.1,1.3-0.1c1.8,0,2.7,0.9,2.7,2.7c0,1.5-0.7,3.9-2.1,7l-3.6,8c-1.1,2.4-2.3,4.1-3.7,5.1c0.3,0.3,0.4,0.7,0.4,1.2
		c0,0.7-0.3,1.7-0.9,3.1L239.3,64.5z M244.9,34.7c0-0.6-0.4-0.9-1.2-0.9c-0.4,0-1,0-1.6,0c-0.7,0-1.4,0-2.2,0H236l-2.9,6.6h4
		c0.7,0,1.4,0,1.9,0c0.6,0,1.1,0,1.5,0h0.8c0.3,0,0.6-0.1,0.8-0.3c0.1-0.1,0.4-0.4,0.7-0.9c0.3-0.5,0.6-1.1,0.9-1.7
		c0.3-0.6,0.6-1.2,0.8-1.8C244.8,35.4,244.9,35,244.9,34.7"/>
	<path class="st1" d="M64.5,92.4H53.9L42,91l8.4-0.9l0.2-0.4L43,88.8l7.9-0.9l0.2-0.4L44,86.6l7.9-0.9l0.2-0.4L45,84.4l7.9-0.9
		l0.4-0.9L46,82.2l7.9-0.9l0.4-0.9l-7.1-0.9l7.7-0.4l0.4-0.9l-7.1-0.9l7.9-0.9l0.2-0.5l-7.1-0.9l7.9-0.9l0.2-0.5l-7.1-0.9l7.9-0.9
		l0.6-0.5l-7.6-0.9l8.4-0.9l0.7-0.5l-8.1-0.9l8.5-0.6c2.8-0.2,4.3-0.3,4.3-0.3h10.7l-2.7,6.2h-9.3c-0.9,0-1.6,0.6-2.1,1.8l-3.9,8.9
		c-0.2,0.6-0.4,0.9-0.4,1.2c0,0.4,0.3,0.6,0.9,0.6h9.3L64.5,92.4z"/>
	<path class="st1" d="M74.4,92.4L63,91l7.9-0.9l-0.1-0.9L64,88.8l7.5-0.9l0.4-0.9L65,86.6l7.5-0.9l0.3-0.9L66,84.4l7.5-0.9l0.4-0.9
		L67,82.2l7.5-0.9l0.4-0.9l-6.7-0.9l7.3-0.4l0.4-0.9l-6.7-0.9l7.2-0.4l0.4-0.9l-6.7-0.9l7.3-0.4l0.4-0.9l-6.7-0.9l7.3-0.4l0.4-0.9
		l-6.7-0.9l7.9-0.9l0.2-0.5L73,68.4c3.4-0.3,6.2-0.5,8.2-0.6c2.1-0.1,3.4-0.2,4.1-0.2h6.2c0.2,0,0.4,0,0.8,0c0.3,0,0.6,0,0.8,0
		c1.3,0,1.9,0.6,1.9,1.9c0,0.6-0.1,1.2-0.3,1.8c-0.2,0.6-0.5,1.4-0.8,2.2l-5.7,12.8c-0.5,1.2-1.1,2.2-1.7,3
		c-0.6,0.8-1.2,1.4-1.9,1.9c-0.6,0.5-1.3,0.8-2,1c-0.7,0.2-1.4,0.3-2.1,0.3H74.4z M88.5,74.4c0-0.4-0.3-0.6-0.9-0.6h-3.6
		c-1.1,0-2,0.6-2.5,1.8l-3.9,8.9c-0.2,0.4-0.3,0.7-0.3,1c0,0.5,0.4,0.8,1.2,0.8H82c0.4,0,0.8-0.1,1.2-0.4c0.4-0.3,0.7-0.7,1-1.3
		l3.9-8.9C88.3,74.9,88.5,74.5,88.5,74.4"/>
	<path class="st1" d="M106.7,92.4h-5.3V81.3l-4.9,11.1l-4.8,0c-0.4-0.2-3.7-0.6-9.8-1.3l10.8-1.3L83,88.8l10.8-1.3L84,86.6l10.8-1.3
		L85,84.4l10.8-1.3L86,82.2l10.8-1.3l-9.6-1.4l10.6-0.9l-9.6-1.4l10.6-0.9l-9.6-1.4l10.6-0.9l-9.6-1.4l10.6-0.9l-9.6-1.4l10.6-0.9
		L92,68.4c0.3,0,0.7-0.1,1.4-0.1c0.6-0.1,1.4-0.1,2.2-0.2c0.8-0.1,1.7-0.1,2.5-0.2c0.9-0.1,1.7-0.1,2.4-0.2c0.7-0.1,1.3-0.1,1.8-0.1
		c0.5,0,0.7,0,0.7,0h4.4l-0.4,12.8l5.7-12.8h4.9L106.7,92.4z"/>
	<path class="st1" d="M112.2,92.4c-0.1,0-0.4,0-0.8-0.1c-0.4-0.1-1-0.2-1.8-0.3c-0.8-0.1-1.7-0.3-2.9-0.4c-1.2-0.2-2.6-0.3-4.2-0.5
		l10.8-1.3l-9.9-0.9l10.8-1.3l-9.8-0.9l10.8-1.3l-9.8-0.9l10.8-1.3l-9.8-0.9l10.8-1.3l-9.6-1.4l10.6-0.9l-9.6-1.4l10.6-0.9l-9.6-1.4
		l10.6-0.9l-9.6-1.4l10.6-0.9l-9.6-1.4l10.6-0.9l-9.6-1.4c0.2,0,0.6,0,1,0c0.4,0,0.9-0.1,1.5-0.1c0.6,0,1.2-0.1,1.8-0.1
		c0.6-0.1,1.3-0.1,1.9-0.1c1.5-0.1,3.1-0.2,4.8-0.4h9.8c0.2,0,0.4,0,0.8,0c0.3,0,0.6,0,0.8,0c1.3,0,1.9,0.6,1.9,1.9
		c0,1-0.4,2.3-1.1,4l-5.7,12.8c-0.4,0.8-0.7,1.5-1,2.1s-0.6,1.1-0.9,1.5c-0.4,0.5-0.9,1-1.4,1.3c-0.5,0.3-1.1,0.6-1.6,0.8
		c-0.5,0.2-1,0.3-1.5,0.4c-0.5,0.1-0.8,0.1-1.1,0.1H112.2z M130.2,74.4c0-0.4-0.3-0.6-0.9-0.6h-4l-5.5,12.4h4c0.4,0,0.8-0.1,1.2-0.4
		c0.4-0.3,0.7-0.7,1-1.3l3.9-8.9C130,74.9,130.2,74.5,130.2,74.4"/>
	<path class="st1" d="M137.8,92.4L123.7,91l10.8-1.3l-9.8-0.9l10.4-1.3l-9.3-0.9l10.3-1.3l-9.4-0.9l10.3-1.3l-9.3-0.9l10.3-1.3
		l-9.1-1.4l10.1-0.9l-9.1-1.4l10.2-0.9l-9.2-1.4l10.2-0.9l-9.2-1.4l10.2-0.9l-9.2-1.4l10.2-0.9l-9.2-1.4l10.2-0.9h4.9l-7.5,16.8
		c-0.2,0.5-0.3,0.9-0.3,1.2c0,0.4,0.3,0.6,0.9,0.6h3.6c0.9,0,1.6-0.6,2.1-1.8l7.4-16.8h4.9l-8.3,18.6c-1,2.3-2.2,3.9-3.4,4.8
		c-1.3,0.9-2.7,1.4-4.2,1.4H137.8z"/>
	<path class="st1" d="M169.7,92.4h-10.6L147.2,91l8.4-0.9l0.2-0.4l-7.6-0.9l7.9-0.9l0.2-0.4l-7.1-0.9l7.9-0.9l0.2-0.4l-7.1-0.9
		l7.9-0.9l0.4-0.9l-7.4-0.4l7.9-0.9l0.4-0.9l-7.1-0.9l7.7-0.4l0.4-0.9l-7.1-0.9l7.9-0.9l0.2-0.5l-7.1-0.9l7.9-0.9l0.2-0.5l-7.1-0.9
		l7.9-0.9l0.6-0.5l-7.6-0.9l8.4-0.9l0.7-0.5l-8.1-0.9l8.5-0.6c2.8-0.2,4.3-0.3,4.3-0.3h10.7l-2.7,6.2h-9.3c-0.9,0-1.6,0.6-2.1,1.8
		l-3.9,8.9c-0.2,0.6-0.4,0.9-0.4,1.2c0,0.4,0.3,0.6,0.9,0.6h9.3L169.7,92.4z"/>
	<path class="st1" d="M196.3,73.7h-4.9l-8.3,18.6h-4.9l-8.7-1.3l9.9-1.3l-9-0.9l10-1.3l-8.9-0.9l9.9-1.3l-8.9-0.9l9.9-1.3l-8.9-0.9
		l9.9-1.3l-8.7-1.4l9.7-0.9l-8.7-1.4l9.7-0.9l-8.7-1.4l9.7-0.9l-13.6-1.4l10.6-0.9l-9.6-1.4l10.6-0.9l-9.6-1.4l7.1-0.6
		c0.6,0,1.1-0.1,1.5-0.1c0.4,0,0.8-0.1,1.1-0.1c0.4,0,0.6,0,0.9-0.1H199L196.3,73.7z"/>
	<path class="st1" d="M198,92.4L186.6,91l7.9-0.9l-0.1-0.9l-6.9-0.4l7.5-0.9l0.4-0.9l-6.9-0.4l7.5-0.9l0.3-0.9l-6.8-0.4l7.5-0.9
		l0.4-0.9l-6.9-0.4l7.5-0.9l0.4-0.9l-6.7-0.9l7.3-0.4l0.4-0.9l-6.7-0.9l7.2-0.4l0.4-0.9l-6.7-0.9l7.3-0.4l0.4-0.9l-6.7-0.9l7.3-0.4
		l0.4-0.9l-6.7-0.9l7.9-0.9l0.2-0.5l-7.2-0.9c3.4-0.3,6.2-0.5,8.2-0.6c2.1-0.1,3.4-0.2,4.1-0.2h6.2c0.2,0,0.4,0,0.8,0
		c0.3,0,0.6,0,0.8,0c1.3,0,1.9,0.6,1.9,1.9c0,0.6-0.1,1.2-0.3,1.8c-0.2,0.6-0.5,1.4-0.8,2.2l-5.7,12.8c-0.5,1.2-1.1,2.2-1.7,3
		c-0.6,0.8-1.2,1.4-1.9,1.9c-0.6,0.5-1.3,0.8-2,1c-0.7,0.2-1.4,0.3-2.1,0.3H198z M212.1,74.4c0-0.4-0.3-0.6-0.9-0.6h-3.6
		c-1.1,0-2,0.6-2.5,1.8l-3.9,8.9c-0.2,0.4-0.3,0.7-0.3,1c0,0.5,0.4,0.8,1.2,0.8h3.6c0.4,0,0.8-0.1,1.2-0.4c0.4-0.3,0.7-0.7,1-1.3
		l3.9-8.9C212,74.9,212.1,74.5,212.1,74.4"/>
	<path class="st1" d="M229.5,92.4H225c2.1-4.8,3.2-7.3,3.2-7.5c0-0.4-0.2-0.6-0.7-0.6c-0.2,0-0.6,0-1,0c-0.4,0-0.8,0-1.4,0h-2.3
		l-3.5,8l-4.3,0c-0.4-0.1-0.8-0.1-1.3-0.2c-0.5-0.1-1.1-0.2-1.9-0.3c-0.7-0.1-1.7-0.2-2.7-0.3c-1.1-0.1-2.4-0.3-3.9-0.5l10.8-1.3
		l-9.9-0.9l10.8-1.3l-9.8-0.9l10.8-1.3l-9.8-0.9l10.8-1.3l-9.8-0.9l10.8-1.3l-9.6-1.4l10.6-0.9l-9.6-1.4l10.6-0.9l-9.6-1.4l10.6-0.9
		l-9.6-1.4l10.6-0.9l-9.6-1.4l10.6-0.9l-9.6-1.4c0.2,0,0.5,0,1,0c0.4,0,0.9-0.1,1.5-0.1c0.5,0,1.1-0.1,1.7-0.1
		c0.6-0.1,1.2-0.1,1.8-0.1c1.4-0.1,2.9-0.2,4.6-0.4H236c0.2,0,0.4,0,0.8-0.1c0.3,0,0.6-0.1,0.8-0.1c1.1,0,1.7,0.5,1.7,1.6
		c0,0.9-0.4,2.3-1.3,4.3l-2.2,4.9c-0.7,1.5-1.4,2.5-2.2,3.1c0.2,0.2,0.3,0.4,0.3,0.8c0,0.4-0.2,1-0.6,1.9L229.5,92.4z M232.9,74.2
		c0-0.4-0.2-0.5-0.7-0.5c-0.3,0-0.6,0-1,0c-0.4,0-0.8,0-1.4,0h-2.3l-1.8,4h2.4c0.4,0,0.8,0,1.2,0c0.3,0,0.6,0,0.9,0h0.5
		c0.2,0,0.3-0.1,0.5-0.2c0.1,0,0.2-0.2,0.4-0.5c0.2-0.3,0.4-0.7,0.6-1c0.2-0.4,0.3-0.7,0.5-1.1C232.9,74.6,232.9,74.4,232.9,74.2"/>
	<path class="st0" d="M286.7,33c-0.4-3.4-0.5-13.7-0.5-13.7s-6.8,0.1-9.2-1.7l-3.2-2.1l-12.2,2c0,0-3.7-1.5-4.3-1.8
		c-0.6-0.3-4.6-0.7-2.9-5.7c0,0-13.8-2-16.6-4c0,0-14.9,2.3-17.9,1c0,0-10,10.8-11.7,11.7c-0.4,0.2-0.7,0.6-0.9,1.1
		c0.7,0.1,1.4,0.1,2.1,0.2c0.2-0.5,0.4-0.9,0.8-1.4c0.4-0.5,0.9-0.8,1.5-1.1c0.2-0.4,0.4-0.7,0.6-0.9c0.5-0.8,9.1-7.5,9.1-7.5
		c5-0.1,12.2-0.8,12.2-0.8l16.2,2.6c0,0,5.6,6.5,6.1,7.6l6.1,1.3l10.3-1.9c0,0,9.6-0.6,11.3,1.9c1.7,2.5,1.8,11.8,1.8,11.8
		s1.7,5,4.1,6.9c2.4,1.9-0.6,8.1-7.6,9.5c0,0-4.5,0.2-5.9-1.1c0,0-4.5,4.7-7.2,5.7c0,0,0.2,6-1.5,7.3c0,0,8.1,4.1,8.2,8.5
		c0,4.4,1.8,6.6-1.4,8.5c-3.3,1.9-8.9,4-8.9,4s-3.6,3.1-3.7,5.4c0.4-0.5,5.1-2.1,5.4-2.6c0.2-0.5,0.7-0.8,1.2-1
		c0.1-0.3,0.2-0.5,0.5-0.7c1.2-0.7,9.8-4.4,9.8-4.4c-0.1-1.7-0.2-7.9,0.9-9.8l-4.8-4.8l-1.4-7.8l5-3.6c0,0,6.3-1.9,8.1-2.3
		c1.8-0.3,2-4.1,6.9-5.4c0,0,0.1-4.2,0.5-6C293.3,38.1,287.1,36.4,286.7,33"/>
	<path class="st0" d="M233.3,103.7c-3.4,0.9-7.5,1.5-7.5,1.5s-4.8,1.9-6.3,3.8s-8.1,0.8-10.5-3.8c0,0-0.9-3.1,0.2-4.2
		c0,0-5.3-2.4-6.7-4.1c0,0-5.9,1-7.5,0.1c0,0-2.9,6.1-7.3,6.8c-4.4,0.7-6.3,2.2-8.6,0.3c-2.3-1.9-5.2-5.5-5.2-5.5s-2.2,0.9-4.6,1.1
		c0,0-1.9,2.9-5.1,3.1l-7.5-0.1l-1.1,0.6c0,0,8.5,1,10.2,1.1c2.6,0.1,4.5-3,4.5-3s2.2-1,3-0.3c0.8,0.7,5.7,6,5.7,6
		c1.7-0.3,7.8-1.3,9.8-0.8l4.1-4l7.6-2.1l4.3,2.9c0,0,2.8,4,3.4,5.2c0.6,1.2,4.4,0.7,6.4,3.9c0,0,4.2-0.5,6.1-0.5
		c0,0,0.8-4.5,4.1-5.2c1.7-0.4,6-1.1,9.7-1.7C233.9,104.5,233.6,104.1,233.3,103.7"/>
	<path class="st0" d="M69,96.6c0,0-3.7,0.2-5.3-0.8c0,0,0.7,0.8,3.5,1.7c0,0,2.2,1.2,0.7,3.1c-1.5,1.8-3,3.2-3.6,3.7
		c-0.6,0.5-8,4.1-11.6,3.5c-3.6-0.6-5.6-0.6-5.6-0.6l-11.2-4.2c0,0-2.6-5.6-2.8-6.4L29,94.6l-7.9-0.1c0,0-6.5-2.8-7.2-4.9
		c-0.7-2.1,1.2-8.8,1.2-8.8s-0.1-3.9-1.4-5.6c-1.3-1.7,2.2-5.8,7.6-5.8c0,0,3.3,0.5,4.1,1.6c0,0,4.3-2.7,6.5-3.1
		c0,0,1.2-4.4,2.7-5.1c0,0-5-4.1-4.1-7.4c0.9-3.2,0.1-5,2.9-5.9c2.8-0.9,7.3-1.6,7.3-1.6s-0.1-1.8,0.6-3.5c0,0-2.2-2.3-1.2-4.6
		l2.6-4.2c-0.3-0.2-0.5-0.5-0.7-0.8c-1.6,2.1-3.7,4.9-4.1,5.5c-1,1.7,1.3,4.1,1.3,4.1s0.2,1.9-0.8,2.2c-1,0.3-8,1.7-8,1.7
		c-0.3,1.3-1.6,5.8-2.8,6.9l2.4,4.2l-0.7,5.9l-4.4,1.9c0,0-5,0.5-6.3,0.5c-1.3,0-2.3,2.7-6.2,2.9c0,0-1,3-1.7,4.3
		c0,0,4.1,2.1,3.7,4.6c-0.4,2.5-3.2,11.8-3.2,11.8s5,0.9,6.3,2.6l1.9,2l9.3,0.3c0,0,2.4,1.6,2.7,1.9c0.3,0.3,3.2,1.2,0.8,4.5
		c0,0,9.6,3.5,11.1,5.3c0,0,11.3,0.5,13.2,1.9c0,0,9.6-6.4,11.1-6.8c1.5-0.4,2.5-3.6,3.1-4.4C70.8,98.9,69.3,98,69,96.6"/>
	<path class="st0" d="M124.6,95.8l4-1.3l3.5,1l1.4,2.7c0,0,0.2,3,0.1,3.8c-0.1,0.8,2.3,1.4,2.3,3.7c0,0,2.6,0.7,3.7,1.1
		c0,0,2-2.4,4.2-2.1c2.2,0.3,10.2,2.2,10.2,2.2s1-2.9,2.5-3.7l1.8-1l0.6-5.5c0,0,1.5-1.3,1.8-1.5c0.3-0.2,2.7-1.4,4.5-0.7l1.6-1.9
		c-2.4,1-6.2,2-8.3,2.4l-1.1,1.6l-0.4,4.6c0,0-2.7,3.8-4.5,4.1c-1.8,0.3-7.6-1-7.6-1s-3.4,0-4.9,0.7c-1.6,0.7-5-1.4-4.7-4.6
		c0,0,0.6-2,1.6-2.4c0,0-2.2-2.6-2.4-3.9c0,0-3.8-0.8-4.3-1.7c0,0-5.7,3.3-8.5,2.7L124.6,95.8z"/>
	<path class="st0" d="M69.1,16c0.1,0,3.4,0.1,3.7,0l-0.5-0.7c-0.2-0.2-2,0.1-3.1-0.5c0,0-2.3-3.3-3.6-5.7c0,0-0.4-2.4,2.5-2.8
		c2.9-0.3,5.4-0.2,6.3-0.2c0.9,0,10,2.5,12,5.5c2,3,0.1,2.4,0.1,2.4l1.3,2c0.1,0-0.1,0,0,0c-0.6,0.5-2.1-0.1-2.9-0.2
		c0,0.2,0.1,0.4,0.1,0.6l4.6,0.1c0,0,0.1,0.1,0,0c0.2,0,0.2-0.1,0.4-0.1c-0.2-1.1,0-0.1,0.2-0.7c0,0-4.4-6.3-4.3-8.7
		c0,0-13.4-2-14.9-2.7c-1.5-0.7-5.4,0.9-6.7,1c0,0,0.2,1.7-1,3C63.4,8.5,67.5,13.6,69.1,16"/>
	<path class="st0" d="M125.3,94.8c0.1,0.4,0.2,0.8,0.3,1c0.2,0.6-0.4,6.8-2.8,8.7s-3.4,3.1-3.4,3.1l-9.5,4.7c0,0-6.3-1.1-7.2-1.5
		l-1-0.2l-5.1,5.5l-0.1-6.9c0,0,1.3-1.4,1.8-2l-0.3-0.1c-2.7-0.5-5-2-6.2-4.1c-0.7-1.1-1.2-2.1-1.2-2.1l-7-0.5l-2-5.1L80,94.9
		c0,0,3.3,5.5,2.8,7.4c0,0,6.6-0.7,7.5,0c0.9,0.7,1.7,1.7,1.4,3.4l2.8,2.4c0.7,1.2,1.1,10.4,1.1,10.4l4.8-5.2c0,0,2.6-0.6,3.1-0.7
		c0.5-0.1,2.7-1.3,4.5,1.7c0,0,8-4.1,10.5-4.1c0,0,6.2-6.6,8.4-7.1c0,0-0.5-5.7-0.6-8.5C126.1,94.8,125.7,94.8,125.3,94.8z"/>
	<path class="st0" d="M257.6,95.5c0-0.3,0.1-0.5,0.1-0.8h0c0,0,0,0,0,0c0.2-1,0.5-1.9,0.9-2.8c-0.2,0-0.3,0-0.3,0l-2.7,2.1l-3.1,7.4
		c0,0-6.4,5.2-9.5,5.1c-3.1-0.1-11.9-4.3-11.9-4.3s-5.5-1.2-8.4-0.6c-2.6,0.5-6.4-3.3-5.6-7.7c-0.5,0-0.9,0-1.4,0.1
		c-0.5,0-0.9,0-1.3-0.1c-0.1,0.3-0.2,0.5-0.2,0.6c-0.5,1.3,2.9,3.1,1.8,6.9c0,0,3.9,2,5.4,3.1c0,0,4.5-3.1,7.9-1.9
		c3.3,1.3,15.4,7.2,15.4,7.2s3.2-4.4,6-5.1l3.5-1.1l3.6-7.8C257.6,95.6,257.6,95.6,257.6,95.5"/>
	<path class="st0" d="M165.4,14.7c-2.6-0.4-5,2.5-5,2.5s-2.4,0.8-3.1,0c-0.7-0.8-4.6-6.6-4.6-6.6c-1.8,0.1-8,0.4-9.9-0.3l-4.7,3.5
		l-7.9,1.2l-3.7-3.4c0,0-2.1-4.3-2.5-5.5c-0.4-1.2-4.2-1.2-5.7-4.6c0,0-4.2,0.1-6.1-0.2c0,0-1.6,4.3-4.9,4.7
		C103.9,6.5,90.9,7,90.9,7s0.2,4.7-1.4,6.4l-2.1,2.3l2,4.5c0.8,0,1.6,0,2.4,0l-1.9-3.4c0,0,1.7-6.7,4.2-7.9
		C96.6,7.6,106,7.2,106,7.2s5-1.3,6.9-3c1.9-1.7,8.2,0.1,9.8,5c0,0,0.4,3.1-0.9,4.1c0,0,4.8,2.9,6,4.8c0,0,6-0.3,7.4,0.8
		c0,0,3.9-5.8,8.4-5.9c4.5-0.2,6.6-1.5,8.6,0.7c2,2.2,4.2,6,4.2,6s2.3-0.6,4.8-0.6c0,0,2.4-2.7,5.6-2.5l7.4,1l1.2-0.5
		C175.3,17,167,15,165.4,14.7"/>
	<path class="st0" d="M144.2,14.1c0,0,1.4-0.9,2.8-2c-1,0.7-2,1.4-3.1,2.2C144.1,14.1,144.2,14.1,144.2,14.1"/>
	<path class="st0" d="M203.2,4.6c-2.6,0.4-3.7,3.7-3.7,3.7s-1.9,1.4-2.9,0.9c-1-0.5-7.1-4.9-7.1-4.9c-1.6,0.6-7.3,2.6-9.4,2.5
		l-3,4.6l-3.8,1.8c-0.2,0.2-0.3,0.5-0.6,0.7c-1.5,1.4-3.3,2.5-5.1,3.5c0.6,0.3,1.1,0.6,1.5,0.8c0,0,5.5-2,7.3-1.4
		c0,0,1.3-6.5,5.4-7.9c4.1-1.4,5.6-3.3,8.4-1.8c2.8,1.5,6.5,4.5,6.5,4.5s1.9-1.2,4.3-1.9c0,0,1.1-3.2,4.2-3.9L220,9.3l0.6-0.9
		C220.6,8.4,204.9,4.4,203.2,4.6"/>
	<path class="st0" d="M53.5,3.6l-1.1,6.5c0,0-1.9,1.6-2.3,1.8c-0.4,0.2-1.6,2.3-5,0.3c0,0-4.5,6.8-6.7,7.8c0,0-1.5,5.7-3.1,7
		c0,0,6.1,7.4,6.4,8.5c0.3,1.1,3.6,2.1,4.5,2.6c0,0,1.1-1,2.6-1.2c0,0,0-2.7,1.3-3.8c0,0-1,0.4-2.1,2.4c0,0-1.5,1.5-3.4,0.3
		c-1.8-1.2-3.2-2.4-3.7-2.9c-0.5-0.4-3.8-6.1-2.8-8.7c1-2.6,1.1-4,1.1-4l5.5-5.3c0,0,6.2-1.6,7.2-1.6l1-0.3l1.1-6.8l4.2,5.9
		c0,0-0.3,1.7-0.4,2.4l0.3-0.1c2.7-0.6,5.6-0.3,7.9,1.1c1.3,0.7,2.3,1.4,2.3,1.4l6.4-2.4l4.8,3.6l1.8-0.3c0,0-6.1-3.5-6.9-5.3
		c0,0-5.3,3.2-6.5,3c-1.2-0.2-2.5-0.8-3.3-2.4l-3.9-0.9C59.3,11.5,53.5,3.6,53.5,3.6"/>
</g>
</svg>
