<?xml version="1.0" encoding="utf-8"?>
<!-- Generator: Adobe Illustrator 23.1.1, SVG Export Plug-In . SVG Version: 6.00 Build 0)  -->
<svg version="1.1" id="Capa_1" xmlns="http://www.w3.org/2000/svg" xmlns:xlink="http://www.w3.org/1999/xlink" x="0px" y="0px"
	 viewBox="0 0 500 410" style="enable-background:new 0 0 500 410;" xml:space="preserve">
<style type="text/css">
	.st0{opacity:0.25;}
	.st1{fill:#517791;}
	.st2{fill:#DF172F;}
	.st3{fill:#FFFFFF;}
</style>
<g class="st0">
	<path class="st1" d="M458.7,203.3l1-0.7h0.1c0.4-0.5,0.6-1,0.7-1.5c0-0.3,0.1-0.5,0.1-0.8s0-0.5,0-0.8v-0.2l-0.1-0.1l-0.7-1.1
		l0.8-0.6l0.1-0.1l0.1-0.1c0.3-0.6,0.4-1.2,0.5-1.9c0.1-0.3,0.1-0.7,0.1-1s-0.1-0.6-0.1-1v-0.2l-0.1-0.1l-0.9-0.9
		c-1-4.8-2.4-9.4-4.4-13.8c-2-4.5-4.4-8.8-7.1-12.8c-1.7-2.5-3.5-4.8-5.4-7.1c-0.4-0.5-0.8-1-1.2-1.5c-3-3.5-7.1-7.6-9.7-11.3
		c0,0,0,0,0-0.1c0.1,0.1,0.1,0.1,0.1,0.1l-0.4-1c-1.4-2.4-2-4.6-2.3-6.1c0.2-0.1,0.3-0.2,0.3-0.2l10.2,1.8c0,0,1.3,1.1,4.2,2.4
		c2.9,1.3,6,9,6.1,9.8c0.1,0.9,0.4,3,0.4,5.7c0,2.7-2.3,2.7-2.3,2.7c-2.5-0.7-3.4-0.2-3.4-0.2c1.7-0.3,4.2,2,4.2,2
		c1-1.2,2.6-1.3,2.6-1.3c0.1-1.1,1.2-4.9,0.4-6.1c-0.8-1.2-3.8-12.9-3.8-12.9c-2.2,0.3-10.3-5.3-10.3-5.3c-1.4,0.8-6,0.2-8.7-0.2
		c0-0.4,0-0.6,0-0.6l-0.5-0.2c0,0,0,0,0,0l0.6,0.2c0.1-0.7,0.1-1.4,0.2-2.1c0.1-0.6,0.2-1.2,0.2-1.8c0-0.2,0-0.3,0.1-0.4l0.1-0.4
		c0.1-0.3,0.1-0.6,0.2-0.9c0.4-2.4,0.6-4.8,0.9-7.2c0.5-4.3,0.9-8.6,1.3-12.9c0.6,0.9,1.2,1.7,1.9,2.6c0.9,1.3,1.8,2.5,2.8,3.7
		c1,1.2,1.9,2.4,3,3.6c0.9,1,1.8,2,2.7,2.9c0,0,0,0.1,0,0.1l0.1,0c0.1,0.1,0.1,0.1,0.2,0.2l-0.2,0.6l-0.1,0.2l0.1,0.2
		c1.3,1.6,2.6,3.1,4,4.6c1.4,1.5,2.8,2.9,4.4,4.3c0.7,0.6,1.3,1.1,1.9,1.6l1.7,1.7c0.2,0.3,0.5,0.6,0.7,0.9c0.6,0.8,1.2,1.6,1.8,2.4
		c0.5,0.6,1,1.3,1.3,2c0,0,0,0,0,0c0.1,0.2,0.2,0.3,0.2,0.4l0.1,0.1c0,0,0.8,0.2,1.6-0.4l0.4-0.1c0.1,0,0.1,0.1,0.2,0.2
		c0,0,0.1,0.1,0.1,0.1c0.3,0.4,0.7,0.8,1.1,1.2c0,0,0,0,0.1,0c0.2,0.2,0.4,0.4,0.5,0.5c0.4,0.2,0.9,0.9,1.2,1.4l0.4,0.9l0.2,0.5
		l0.2,0.5l0.4,1l0.4,1c0.1,0.2,0.1,0.3,0.2,0.5v0.1v0.1c0,0.1,0.1,0.2,0.1,0.3c0.3,0.8,0.6,1.4,0.9,2.1l0.1,0.3h0.3
		c0.6,0,1.2,0,1.9-0.2c0.1-0.1,0.3-0.1,0.5-0.3c0.2-0.3,0.2-0.4,0.3-0.6c0.1-0.3,0.2-0.6,0.2-0.9c0.1-0.7,0.1-1.4,0.1-2.1
		c0.1,0.1,0.3,0.3,0.5,0.4c0.2,0.2,0.5,0.3,0.8,0.5c0.2,0.1,0.4,0.2,0.7,0.3c0.1,0.2,0.2,0.4,0.3,0.6c0.1,0.2,0.2,0.5,0.4,0.7
		c0.1,0.2,0.3,0.5,0.5,0.7c0.2,0.2,0.4,0.3,0.6,0.5c0.1,0.5,0.3,1.1,0.4,1.6c0.1,0.3,0.1,0.6,0.2,0.9c0,0.1,0.1,0.2,0.1,0.3
		c0,0.1,0,0.2,0,0.4c0,0.7-0.1,0.7,0,1.8c0,1-0.5,0.9,0,1.3s1,0.6,1.1,0.6c0,0,0,0,0,0c0,0,0,0,0.1,0c0.2,0,0.4,0,0.6,0
		c0.2-0.1,0.3-0.2,0.5-0.3v-0.1l0.9-2.4c0.2-0.6,0.5-1.2,0.7-1.9l0.5,0.6l0.3,1.7c0,0,0.3,1.8,0.4,1.9c0.1,0.1,0.4,0.5,0.7,0.7
		c0.1,0,0.5,0,0.8,0c0.2,0,0.4,0,0.7,0c0,0,0,0,0,0c0.1,0,0.2,0,0.3-0.1c0.3-0.1,0.5-0.3,0.5-0.6c0,0,0-0.1,0-0.1
		c0.1-0.1,0.1-0.3,0.2-0.4v-0.1v-1.3l0.2-0.1l0,0c0.1,0.3,0.2,0.5,0.4,0.8c0.2,0.4,0.4,0.7,0.9,1c0.3,0.1,0.6,0.2,0.9,0.1
		c0,0,0,0,0.1,0c0,0,0,0,0,0c0.2,0,0.4-0.1,0.5-0.2c0.4-0.1,0.9-0.4,1.1-1c0.1-0.2,0.1-0.5,0-0.8l-0.2-0.6l-0.3-1.1l-0.7-2.2
		l-1.3-4.3l-0.7-2.2c0-0.1,0-0.1-0.1-0.3c-0.1-0.1-0.1-0.2-0.2-0.3c-0.1-0.2-0.2-0.3-0.3-0.5c-0.3-0.3-0.5-0.6-0.8-0.9
		c-0.5-0.5-1.1-1.1-1.6-1.6c-0.6-0.6-1.1-1.1-1.7-1.6c-1.1-1-2.2-2-3.4-3c-0.6-0.5-1.2-1-1.8-1.5c-0.6-0.5-1.2-1-1.9-1.4
		c-0.6-0.4-1.3-0.8-2-1.1c-0.6-0.2-1.2-0.5-1.8-0.7l0.1-0.4V133l-0.1-0.2c-2.3-3.2-4.6-6.5-6.9-9.7c-1.1-1.6-2.2-3.3-3.3-4.9
		c-0.5-0.8-1-1.6-1.4-2.5c-0.5-0.9-0.8-1.8-1.1-2.7l-0.1-0.4h-0.4c-0.2,0-0.3,0-0.5,0s-0.3,0-0.5,0s-0.3,0-0.5,0l-9.6-12.9
		c-0.4-2.6-0.7-5.3-0.9-7.9c-0.1-1.3-0.2-2.7-0.3-4c-0.1-1.4-0.1-2.7-0.1-4c0.4-1.8,0.6-3.6,0.8-5.4c0.2-1.9,0.3-3.7,0.3-5.6
		c0-0.9,0-1.8-0.2-2.8c-0.2-0.9-0.4-1.9-1.1-2.8c-1.2-1.4-2.5-2.7-4-3.9c-1.5-1.1-3.1-2.1-4.8-2.9l-0.6-0.3l-0.7-0.3
		c-0.4-0.1-0.9-0.3-1.3-0.4l-1.3-0.4c-0.5-0.1-0.9-0.2-1.3-0.4c-1.7-0.7-3.3-1.4-4.8-2.4c-0.8-0.4-1.5-1-2.1-1.6
		c-0.6-0.6-1.1-1.3-1.4-2.1l-0.1-6.4v-6.4c0.3-0.5,0.5-0.9,0.7-1.4c0.1-0.3,0.2-0.5,0.3-0.8c0.1-0.3,0.1-0.7,0.1-0.9
		c0.1-1.1,0.1-2.1,0.1-3.2c0-2.2,0-4.3-0.1-6.4c-0.1-2.1-0.2-4.2-0.3-6.3c0-1.1-0.1-2.1-0.2-3.2c0-0.1,0-0.3-0.1-0.4l0-5l0.1-2.2
		c0,0-0.5-0.6-1-1.3L417,3.6c-0.1-0.2-0.4-0.3-0.6-0.3c-0.4,0-0.7,0-1.1,0c-0.4,0-0.7,0-1.1,0c-0.3,0-0.7,0-1.1,0.1
		c-0.2,0-0.4,0-0.6,0.1h-0.1c-0.2-0.1-0.3-0.2-0.5-0.3c-0.3-0.2-0.7-0.4-1-0.5c-0.6-0.3-1.4-0.5-2.1-0.6c-0.3,0-0.5,0-0.7,0.2
		c-0.1,0.1-0.2,0.2-0.3,0.2c-0.1,0-0.2,0.1-0.3,0.1c-0.1,0-0.2,0-0.3,0c-0.1,0-0.2-0.1-0.3-0.1l-0.2-0.1c-0.9-0.3-1.7-0.4-2.6-0.3
		c-0.4,0.1-0.9,0.1-1.4,0.4c-0.2,0.1-0.5,0.3-0.7,0.5c-0.1,0.2-0.1,0.2-0.2,0.3l-0.2,0.2c-0.5,0.6-0.9,1.1-1.4,1.4
		c-0.5,0.3-1,0.4-1.7,0.3c-0.1,0-0.3,0-0.4,0.1c-0.6,0.3-1.1,0.6-1.6,1C396,6.7,396,7.2,395.7,8l-0.1,0.4c0,0.1-0.1,0.2-0.1,0.3
		c-0.1,0.2-0.2,0.3-0.2,0.3c-0.1,0-0.1,0-0.2,0c-0.1,0-0.4-0.1-0.6-0.2h-0.1c-0.3-0.2-0.5-0.2-0.7,0.2c0,0.2,0,0.5,0,0.6l0.1,4.9
		l-0.5,0c0,0,0,1.2,0,2.6c0,2.2,0.1,5.3,0.2,7.4c0.1,2.2,0.2,4.3,0.3,6.4c0.1,1.1,0.1,2.1,0.2,3.2c0,0.5,0.2,1.3,0.3,1.9
		c0.1,0.6,0.3,1,0.4,1.5c0.3,1.1,0.5,1.9,0.8,2.9l0.5,1.5l0.3,0.8c0.1,0.2,0.2,0.5,0.3,0.8c0.1,0.2,0.1,0.4,0.2,0.6
		c0.1,0.3,0.1,0.5,0.1,0.7s0,0.4,0,0.6c-0.1,0.1-0.1,0.2-0.1,0.2l-0.1,0.2c-0.7,0.8-1.4,1.5-2.1,2.3c-0.7,0.7-1.4,1.5-2.2,2.1
		c-0.2,0.2-0.4,0.3-0.6,0.5c-0.2,0.1-0.4,0.3-0.6,0.4c-0.4,0.2-0.8,0.4-1.1,0.5c-1.4-0.1-2.7-0.1-4,0c-1.4,0.1-2.7,0.3-4.1,0.5
		c-2.7,0.5-5.4,1.3-7.9,2.4c-1.2,0.6-2.4,1.2-3.6,2c-0.6,0.4-1.1,0.8-1.7,1.2c-0.5,0.5-1.1,0.9-1.6,1.4c-1,1-1.9,2-2.8,3.1
		c-0.4,0.6-0.8,1.1-1.2,1.7c-0.1,0.3-0.3,0.6-0.5,0.9l-0.5,0.9c-0.6,1.2-1.4,2.3-2.1,3.4c-0.8,1.1-1.5,2.2-2.3,3.3
		c-0.8,1.1-1.6,2.1-2.5,3.1c-0.4,0.5-0.8,0.9-1.3,1.4l-1.4,1.4c-1.9,1.9-3.7,4-5.3,6.2c-0.8,1.1-1.6,2.2-2.4,3.3
		c-0.3,0.6-0.7,1.1-1.1,1.7c-0.3,0.6-0.7,1.1-1,1.7c-0.4,0.4-0.8,0.9-1.3,1.3s-1,0.8-1.5,1.1c-0.2,0.1-0.3,0.1-0.4,0.2l-0.2,0.1
		c-0.1,0-0.2,0.1-0.3,0.1c-0.4,0.2-0.7,0.4-1,0.6c-0.6,0.4-1.2,0.8-1.7,1.4l-0.2,0.2v0.3l-0.1,1.9c-0.3,0.8-0.6,1.6-0.8,2.4
		c-0.2,0.5-0.3,0.9-0.4,1.4l-3.2-0.8c0,0-1.6-1.6-3.1-2.5c-2.3-1.4-7.6-2.1-7.6-2.1s-2.7,0.1-3-1.1c-0.3-1.2-1.5-9.6-1.5-9.6
		c-1.8-0.5-8-2.4-9.5-3.9l-6.2,2.5l-8.2-1.3l-2.1-5.4c0,0-0.1-5.9,0.1-7.5c0.2-1.6-3.6-3-3.4-7.5c0,0-4.2-1.4-5.9-2.4
		c0,0-3.5,4.7-7,3.9c-3.5-0.7-16.4-4.8-16.4-4.8s-1.9,5.8-4.3,7.2l-3,2L249,80.2c0,0-2.5,2.6-3,3c-0.3,0.2-0.8,1.2-1.9,1.6l-0.3,0.1
		c-1,0.3-2.4,0.1-4.3-1.2c0,0-6,11-8.8,12.7c0,0-2,13.3-4.1,15.4c0,0,1.8,2.7,3.8,5.7c-1.7,0.7-3.3,1.3-3.8,1.5
		c-0.2-0.4-0.4-0.8-0.6-1.2c-0.8-1.5-1.8-2.9-3-4.2c-0.3-0.3-0.6-0.6-0.9-0.9c-0.3-0.3-0.7-0.6-1-0.9l-1-0.8l-1-0.8
		c-1.3-1-2.5-2-3.8-3.1c-1.3-1-2.6-2.1-3.8-3.2c-1.2-1.1-2.5-2.2-3.5-3.4c-0.1-0.1-0.1-0.1-0.1-0.1c-0.9-0.9-1.9-1.5-2.9-2.2
		c-1-0.7-2.1-1.3-3.2-1.8c-1.1-0.5-2.2-1-3.4-1.3c-1.1-0.3-2.1-0.5-3.2-0.6c-0.1-0.1-0.1-0.3-0.2-0.4c-0.1-0.2-0.2-0.5-0.3-0.8
		c-0.2-0.5-0.3-1.1-0.5-1.7c-0.3-0.9-0.5-1.9-0.7-2.8c-0.1-0.6-0.2-1.2-0.3-1.8c-0.1-0.8-0.2-1.6-0.2-2.4l-0.1-1.8v-1.1l0-0.8
		l-0.1-11.3l0,0c0-0.8,0.1-2.4,0.1-2.5l-0.1-4.9c0-0.1,0-0.1,0-0.2l0,0c0-0.1-0.1-0.3-0.1-0.5c-0.4-1.6-1.7-6.2-9.1-7.9
		c-7.6-1.7-13,0.6-15.9,3.1c-3.1,2.7-3.4,6.7-3.5,6.7h0.1l0.5,6.6c0,0.3,0.1,0.9,0.2,1.5c0,0,0,0,0,0l-0.1,0.1l1.3,7.8l0,0l0.4,2.4
		l2,13.3c0,0.2,0.1,0.3,0.2,0.4c0.3,0.3,0.6,0.5,1,0.8c0.3,0.3,0.7,0.5,1.1,0.7c0.4,0.2,0.8,0.4,1.2,0.5c0.2,0.1,0.4,0.1,0.6,0.2
		l-0.2,2.9l-13.3,6.8c0.5-1,1-1.9,1.5-2.9c0.5-0.4,0.9-0.9,1.2-1.4c0.2-0.3,0.3-0.6,0.4-0.8c0.1-0.3,0.2-0.6,0.3-0.9l0.7-4.5
		c0.2-1.5,0.4-3,0.7-4.5v-0.1V92c0-0.1,0-0.2,0.1-0.3c0-0.2,0-0.4,0-0.6c-0.1-0.4-0.3-0.9-0.7-1.1c-0.1-0.1-0.2-0.1-0.3-0.2
		c-0.1,0-0.2-0.1-0.2-0.1c-0.2-0.1-0.3-0.2-0.3-0.3c-0.2-0.2-0.3-0.6-0.5-1c-0.2-0.3-0.4-0.7-0.6-1c-0.3-0.3-0.7-0.6-1.1-0.7
		c-0.1,0-0.2-0.1-0.3-0.1c-0.1,0-0.2,0-0.2-0.1c-0.1-0.1-0.3-0.2-0.4-0.3c-0.2-0.2-0.4-0.5-0.4-0.8v-0.1c-0.2-0.3-0.3-0.5-0.5-0.7
		c-0.2-0.2-0.4-0.4-0.7-0.6c-0.1-0.1-0.3-0.2-0.5-0.2h-0.2c-0.1,0-0.1,0-0.2,0c0,0,0,0,0,0c-0.1,0-0.1,0-0.2,0c0,0-0.1,0-0.1-0.1
		c-0.1,0-0.2-0.1-0.3-0.1c-0.2-0.3-0.4-0.6-0.7-0.9c-0.2-0.2-0.3-0.3-0.6-0.4c-0.2-0.1-0.5-0.2-0.7-0.1c-0.2,0-0.5,0.1-0.7,0.2
		c-0.2,0.1-0.4,0.2-0.5,0.4c-0.3,0.3-0.6,0.5-0.9,0.8c-1.2,1.1-2.2,2.2-3.3,3.4l-0.1,0.1v0.1l-0.3,1.3c-0.2,0.1-0.3,0.2-0.5,0.3
		c-0.3,0.1-0.6,0.4-0.9,0.9c-0.1,0.2-0.2,0.4-0.3,0.6c-0.1,0.4-0.1,0.9,0,1.4c0.1,0.4,0.2,0.7,0.3,1.1c0.1,0.8,0.2,1.5,0.3,2.3
		c0.1,0.8,0.1,1.6,0.1,2.3v0.1l0.1,0.1l3.6,4.7c-0.3,0.6-0.6,1.1-1,1.6c-0.4,0.6-0.8,1.2-1.3,1.7c-0.9,1.1-1.9,2.1-3,3.1
		c-1.1,0.9-2.2,1.8-3.4,2.7c-1.2,0.8-2.4,1.6-3.6,2.3l-6.7,1.7L124,89.9c0.4-0.1,0.7-0.3,0.9-0.4c0.1,0,0.2-0.1,0.2-0.1l-0.1,0
		c0.2-0.1,0.3-0.2,0.5-0.3c0.6-0.5,1.2-1,1.6-1.6c0.9-1.2,1.6-2.5,2.1-3.9c0.2-0.8,0.3-1.5,0.3-2.2c0-0.7,0-1.5,0-2.2
		c-0.1-1.4-0.2-2.9-0.6-4.3c-0.3-1.4-0.8-2.8-1.6-4.1c-0.7-1.3-1.8-2.5-3.1-3.3c-0.3-0.2-0.7-0.4-1-0.5c-0.4-0.1-0.7-0.2-1-0.3
		c-0.6-0.2-1.3-0.4-1.9-0.8c-1.2-0.6-2.2-1.4-3.1-2.4c-0.9-1-1.5-2.2-2.1-3.4c-0.5-1.3-0.9-2.6-1.3-4c-0.8-2.7-1.6-5.4-2.1-8.2
		c-0.3-1.4-0.5-2.7-0.7-4.1c0-0.3-0.1-0.7-0.1-1s-0.1-0.7-0.1-1.1c-0.1-0.8-0.4-1.5-0.7-2.2c-0.7-1.4-1.6-2.6-2.7-3.6
		c-0.9-0.9-1.9-1.7-3.1-2.4c0-0.2,0-0.4,0-0.6c-0.1-0.4-0.3-0.9-0.6-1.2c-0.3-0.3-0.7-0.5-1.1-0.6c-0.1,0-0.2-0.1-0.3-0.1
		c-0.1,0-0.1,0-0.2-0.1c-0.1,0-0.2-0.1-0.4-0.1c-1.1-0.4-2.2-1-3.3-1.5c-2.2-1.1-4.3-2.3-6.5-3.4l-0.4-0.2l-0.4,0.2
		c-0.4,0.3-0.9,0.4-1.5,0.6c-0.5,0.1-1.1,0.2-1.7,0.2c-0.6,0-1.2,0-1.7-0.1c-0.5,0-1.1-0.1-1.6-0.2c-0.7-0.6-1.6-1.1-2.5-1.5
		c-1-0.4-2.1-0.6-3.1-0.6c-1.1,0-2,0.1-3,0.6c-0.5,0.2-1.3,0.5-1.7,0.8c-0.4,0.3-0.8,0.5-1.2,0.9c0,0-1.4,0.7-3.2,4.5
		c0,0,0,0-0.1,0.1c-0.2,0.3-0.6,0.6-1.1,0.9s-1,0.5-1.6,0.8c-0.6,0.2-1.1,0.4-1.7,0.7c-0.1,0-0.2,0.1-0.3,0.1
		c-0.1,0.1-0.3,0.2-0.4,0.3c-0.2,0.2-0.3,0.4-0.3,0.6c-0.1,0.4-0.2,0.7-0.2,1c-0.1,0.6-0.3,1.1-0.5,1.5c-0.1,0.1-0.1,0.2-0.2,0.3
		l-0.1,0.2l-0.2,0.2c-0.2,0.3-0.4,0.6-0.5,0.9c-0.6,1.1-1,2.3-1.3,3.5c-0.7,1.2-1.6,2.3-2.6,3.4c-0.5,0.6-0.9,1.2-1.4,1.8
		c-0.4,0.6-0.9,1.3-1.2,2.1c-0.1,0.4-0.3,0.8-0.3,1.2c0,0.2,0,0.4,0,0.7c0,0.2,0.1,0.5,0.1,0.7c0.3,0.9,0.8,1.5,1.3,2.1
		c0.5,0.6,1.1,1.1,1.8,1.5c0.6,0.4,1.1,0.8,1.7,1.1c0.1,0.2,0.1,0.5,0.1,0.7c0,0.3,0.1,0.7,0.1,1c0,0.7,0,1.4,0,2.1
		c-0.1,0.7-0.2,1.4-0.4,2c-0.1,0.3-0.2,0.6-0.4,0.9s-0.3,0.6-0.5,0.9c-0.4,0.6-0.8,1-1.3,1.6c-0.3,0.3-0.5,0.6-0.7,1
		c-0.2,0.4-0.4,0.7-0.5,1.1c-0.3,0.7-0.4,1.5-0.5,2.3c0,0.8,0,1.3,0.4,2.1c0.1,0.2,0.2,0.5,0.3,0.7c0.2,0.3,0.5,0.7,0.8,0.9
		c0.2,0.2,0.4,0.3,0.7,0.4c0.2,0.1,0.5,0.1,0.8,0.1c0.5,0,0.9-1,1.6-0.9c0.6,0.1,0.9,0.9,0.9,0.9c0.2,0.4,0.3,0.6,0.5,0.7
		c0.4,0.2,0.5,0.4,1,0.5c0.5,0.1,0.9,0.1,1.1,0.1c0.2,0,0.4,0.1,0.6,0.3c0.2,0.2,0.4,0.4,0.5,0.7c0.3,0.5,0.4,1.2,0.4,1.9
		c0,0.3,0,0.7-0.1,1c-0.1,0.4-0.1,0.8-0.1,1.1c0,0.6,0,1.2,0,1.7c-1,0.2-1.9,0.5-2.8,1.1c-1,0.6-1.9,1.4-2.6,2.4
		c-0.3,0.5-0.6,1-0.9,1.5l-0.4,0.7l-0.1,0.2l-0.1,0.1c0,0.1,0,0.1-0.1,0.1C59,88.8,59,89,58.9,89.1c-0.4,1.1-0.7,2.1-1,3.2
		c-1.2,4.2-2.4,8.4-3.6,12.6c-2.3,8.4-4.6,16.7-6.9,25.1c-0.2,0-0.4,0.1-0.6,0.2c-1.3,0.3-2.5,0.8-3.7,1.4c-1.4,0.6-2.9,1.3-4.3,2
		l-4.2,2.1c-0.7,0.4-1.4,0.7-2.1,0.9c-0.3,0.1-0.7,0.2-1,0.3c-0.1,0-0.2,0.1-0.3,0.1c-0.3,0.1-0.6,0.1-0.9,0.2
		c-0.6,0.1-1.1,0.2-1.7,0.3c-7.3,1.2-16.3,0.7-16.3,0.7c0,0.1-0.1,0.2-0.2,0.2c-0.2,0-0.4,0-0.5,0h-0.1l-0.1,0.1
		c-0.2,0.3-0.5,0.5-0.8,0.6c-0.3,0.2-0.6,0.3-0.9,0.4c-0.1,0-0.2,0.1-0.4,0.1c-0.8,0.2-1.4,0.2-1.4,0.2s0,0,0,0.1l0-0.2l0,0.2
		c-0.2,0-0.3,0.1-0.5,0.1H7.2v0.2c-0.1,0.4-0.1,0.7-0.3,1.1c-0.1,0.3-0.2,0.6-0.4,0.8c-0.1,0.1-0.2,0.2-0.4,0.3
		c-0.2,0.1-0.3,0.2-0.5,0.3c-0.2,0.1-0.3,0.3-0.4,0.4c-0.1,0.2-0.1,0.4-0.1,0.6c-0.2,1.4-0.6,2.8-0.9,4.2c-0.1,0.7-0.3,1.4-0.4,2.1
		c0,0.1,0,0.2,0,0.3v0.1c0,0,0,0,0,0.1v0.1c0,0.1,0,0.3,0.1,0.5s0.3,0.3,0.5,0.4c0.2,0,0.3,0.1,0.5,0.1c0.7,0.2,1.3,0.5,2,0.8l2,0.9
		l2.2-1.2c0.4,0.2,0.8,0.4,1.3,0.4c0.2,0,0.5,0,0.7-0.1c0.2-0.1,0.4-0.2,0.6-0.3c0.4-0.2,0.8-0.4,1.2-0.5c0.4-0.1,0.9,0,1.3,0.1
		c0.9,0.1,1.8,0.3,2.6,0.5c0.9,0.2,1.8,0.4,2.6,0.6h0.1l0.1-0.1c0.5-0.5,1.1-1,1.6-1.6c0.3-0.3,0.5-0.5,0.8-0.8
		c0.2-0.3,0.4-0.5,0.6-0.8l25-3.3c0.5-0.1,1.1-0.2,1.6-0.2s1.1-0.1,1.6-0.2c0.3-0.1,0.5-0.1,0.8-0.3c0.1-0.1,0.3-0.2,0.4-0.3
		c0.1-0.1,0.1-0.2,0.2-0.3l0.1-0.2l0.6-1.5c0.2-0.5,0.4-1,0.6-1.4l0.1-0.1l0.1-0.2c0.1-0.1,0.2-0.2,0.2-0.4c0.1-0.2,0.3-0.5,0.4-0.7
		c0.5-0.9,1-1.8,1.6-2.8c1.9-3.5,3.8-7,5.7-10.5c0.8,1,1.6,2.1,2.3,3.1c0.4,0.6,0.9,1.2,1.3,1.9c0.2,0.3,0.4,0.6,0.6,1
		c0.1,0.2,0.2,0.3,0.2,0.5l0.2,0.5c0.5,1.4,0.9,2.9,1.3,4.4c0.4,1.5,0.8,2.9,1.2,4.4c0.4,1.5,0.7,3,1.1,4.4c0.2,0.7,0.3,1.5,0.5,2.2
		c0.1,0.8,0.3,1.5,0.5,2.3c0.8,2.9,1.7,5.6,2.7,8.4c-5.1,4.5-9.8,9.5-14.2,14.7c-0.6,0.7-1.1,1.3-1.7,2l-0.8,1
		c-0.3,0.4-0.5,0.7-0.8,1.1c-0.5,0.7-1,1.5-1.3,2.4c-0.4,0.8-0.7,1.7-0.8,2.6c-0.1,0.5-0.1,0.9-0.1,1.4c0,0.2,0.1,0.5,0.1,0.7
		l0.1,0.6l0.4,2.5c0.3,1.7,0.6,3.4,1,5.1c0.2,0.9,0.4,1.7,0.7,2.6c0.1,0.2,0.2,0.4,0.3,0.7c0.1,0.1,0.1,0.2,0.2,0.4
		c0.1,0.1,0.2,0.2,0.2,0.3c0.3,0.4,0.6,0.7,1,1c0.7,0.6,1.4,1.2,2.1,1.7c0.4,0.2,0.8,0.5,1.2,0.7c0.2,0.1,0.5,0.2,0.8,0.2
		c0.1,0,0.2,0,0.3,0h0.2c0.1,0,0.2,0,0.3,0c1.7,0,3.4,0.1,5.1,0.3c0.4,0,0.8,0.1,1.3,0.2c0.2,0,0.4,0.1,0.6,0.1s0.4,0.1,0.6,0.2
		c0.8,0.3,1.6,0.6,2.4,0.9c1.6,0.6,3.2,1.3,4.9,1.9c0.8,0.3,1.7,0.6,2.5,0.8c0.4,0.1,0.9,0.2,1.3,0.3c0.2,0,0.5,0.1,0.7,0.1
		s0.5,0,0.7,0c1.8-0.1,3.5-0.4,5.2-0.6c1.6-0.2,3.1-0.5,4.7-0.8l14.7,15.6c0.5,0.8,1,1.5,1.6,2.1c0.6,0.7,1.2,1.3,1.8,2
		c1.2,1.2,2.4,2.4,3.6,3.6c0.7,1.9,1.8,3.6,2.8,5.2c1.1,1.7,2.3,3.3,3.6,4.8c2.5,3.1,5.1,6,7.8,9l1,1.1l0.5,0.5
		c0.1,0.2,0.3,0.3,0.4,0.5c0.6,0.8,1.1,1.6,1.6,2.4c1,1.6,2,3.3,3,5s1.9,3.4,2.9,5.1c0.2,0.4,0.5,0.9,0.7,1.3l0.1,0.1
		c0,0.2,0.1,0.2,0.1,0.4c0.1,0.2,0.1,0.5,0.2,0.7c0.1,0.2,0.1,0.4,0.1,0.6c0,0.1,0,0.2,0,0.2v0.2c0,0.2,0,0.3,0.1,0.5
		c0.2,0.5,0.4,0.8,0.6,1c0.1,0.1,0.3,0.3,0.4,0.4l3.4,10.9l0.9,2.8l0.5,1.4l0.1,0.4l0.1,0.3l0.2,0.7c0.3,0.9,0.5,1.8,0.7,2.7
		c0,0.1,0,0.2,0,0.3v0.3c0,0.3,0.1,0.6,0.2,0.9c0.1,0.5,0.3,0.9,0.6,1.3c-0.1,1.2-0.1,2.3,0,3.4c0,0.6,0.1,1.2,0.2,1.8l0.1,0.5
		c0,0.2,0.1,0.4,0.1,0.5c0.1,0.4,0.2,0.7,0.4,1c0.6,1.2,1.4,2.2,2.3,3.1c0.9,0.9,1.8,1.7,2.8,2.4l0.3,0.2h0.3l4.2-0.4h0.3l0.2-0.2
		c0.3-0.3,0.6-0.6,0.8-0.8c0.7,3.1,1.5,6.1,2.1,9.2c0.7,3.6,1.3,7.2,1.6,10.8c0.3,3.6,0.5,4.3,0.2,7.9c-0.2,1.7-0.4,3.5-1,5.2
		c-0.3,0.8-0.7,1.6-1.2,2.3c-0.2,0.4-0.5,0.7-0.8,1.1l-0.9,1c-1.2,1.3-2.5,2.6-3.8,3.9c-1.4,1.2-2.7,2.4-4.1,3.6
		c-1.4,1.2-2.8,2.3-4.3,3.3c-1.5,1.1-3,2-4.6,2.8c-1.6,0.8-3.3,1.5-5,2c-0.9,0.3-1.7,0.5-2.6,0.6c-0.9,0.2-1.8,0.2-2.6,0.2
		c-0.1,0-0.2,0-0.3,0.1c-0.5,0.3-0.2,0-0.6,0.5c-0.2,0.3-1.1,1.2-1.2,1.5c-0.2,0.3-0.3,0.5-0.4,0.8c-0.5,1.1-0.6,2.3-0.1,3.8
		c0,1.1,0.4,2.2,0.7,3.3c0.3,0.5,0.5,1,0.7,1.5l0.8,1.5c0.1,0.1,0.2,0.2,0.3,0.2c0.8,0.4,1.5,0.6,2.3,0.8l1.1,0.3l1.1,0.2
		c0.8,0.1,1.5,0.2,2.3,0.3c0.8,0.1,1.5,0.2,2.3,0.2c3.1,0.1,6.2,0,9.3-0.3c3-0.2,6.1-0.8,9.1-1.4c1.5-0.3,3.3,0.5,4.8,0.1l4.4-1.2
		c1.4-0.2,2.9-0.3,4.4-0.4c1.5-0.1,3-0.1,4.5-0.1c1.5,0.1,3,0.1,4.5,0.2c1.5,0,2.2,0.5,3.7,0.6c0.4,0.1,0.7-0.2,0.8-0.6l2.3-10.5
		c0-0.1,0-0.2,0-0.3c-0.9-3.8-1.6-9.7-2.2-13.5c-0.2-1.9-0.3-3.9-0.3-5.8c-0.1-2,0-3.9,0-5.9c0.1-3.9,0.3-4.9,0.7-8.8
		c0.1-1,0.2-1.9,0.3-2.9c0.1-1,0.3-1.9,0.4-2.9c0-0.5,0.1-0.9,0.2-1.4c1,6.5,1.9,13,2.7,19.6c0.2,2,0.5,4,0.7,6
		c0.3,3,0.6,6.1,0.8,9.1c0,1,0.1,2,0.1,2.9c0.1,2,0.1,4,0,6c-0.1,2-0.3,4-0.6,5.9c-0.4,2-0.9,3.9-1.6,5.7l-1.2,1.7
		c-0.5,0.8-0.9,1-1.4,1.8c-0.3,0.5-0.5,0.9-0.8,1.3l-0.8,1.2c-0.6,0.8-1.2,1.6-1.8,2.4c-2.4,3.2-4.9,6.4-7.5,9.4
		c-0.7,0.8-1.3,1.6-2,2.3l-1.1,1.2c-0.5,0.6-0.7,1.2-0.8,1.9c-0.1,0.7,0,1.4,0.1,1.9c0.1,0.5,0.2,1,0.4,1.5c0.4,1,0.7,1.9,1.1,2.9
		c0.1,0.2,0.3,0.4,0.5,0.5c1,0.3,1.9,0.6,2.8,0.9c0.9,0.3,1.8,0.5,2.8,0.7c1.9,0.3,3.9,0.6,5.8,0.6c1.9,0,3.9-0.1,5.8-0.5
		c1.9-0.4,3.8-1,5.6-1.9c0.8-0.5,1.7-1,2.5-1.5s1.6-1.1,2.4-1.6c1.5-1.1,3.1-2.3,4.5-3.6c0.7-0.7,1.3-1.4,2-2
		c0.6-0.6,1.7-0.1,2.4-0.6c1.5-1.1,3.1-2,4.7-3c0.3-0.2,0.5-0.5,0.5-0.8l1-10.9c0-0.2,0-0.4-0.1-0.6l-0.1-0.1c0,0-0.1-0.2-0.2-0.3
		c-0.1-0.2-0.1-0.3-0.2-0.5c-0.1-0.3-0.2-0.7-0.3-1c-0.1-0.3-0.1-0.6-0.2-1c-0.1-0.4-0.2-0.7-0.2-1.1c-0.2-1.5-0.7-2.3-0.7-3.8
		c0-2.9,0.2-5.9,0.6-8.9c0.8-6.1,1.5-12.1,2-18.2c0.5-6.1,0.8-12.2,0.8-18.3c-0.1-6.1-0.4-12.2-1.5-18.3c0-0.1-0.1-0.3-0.2-0.4
		l-0.9-1.1c-0.4-2.2-1-4.3-1.6-6.4c-0.6-2.2-1.4-4.4-2.3-6.5c-0.8-2.2-1.9-4.2-3-6.2c-1.1-1.9-2.4-3.8-3.8-5.5l-6.3-33l-3.1-16.6
		c-0.3-1.4-0.3-2.7-0.4-4.1c0-1.3,0-2.7,0.1-4.1c0.2-2.8,0.7-5.5,1.4-8.2v-0.1c0.2-1.5,0.1-2.9-0.1-4.3c-0.2-1.4-0.5-2.8-1-4.1
		s-1.1-2.6-1.8-3.8c-0.7-1.2-1.5-2.3-2.4-3.3c-0.3-0.8-0.6-1.7-0.9-2.5c-0.3-0.9-0.5-1.8-0.7-2.7c-0.1-0.4-0.2-0.8-0.2-1.2
		c2-1.3,4.2-0.9,4.7-1.8c0.2-0.3,0.5-0.8,1-1.4c7.4,10.2,15.1,16.2,21.7,19.8c0,0.1,0,0.2,0.1,0.3c0.3,1.6,0.5,3.3,0.6,5
		c-1.5,0.7-3,1.5-4.4,2.3c-0.8,0.4-1.5,0.9-2.2,1.4c-0.4,0.2-0.7,0.5-1,0.8s-0.5,0.7-0.7,1.1l-4.8,9c-0.1,0.3-0.2,0.6-0.2,0.9
		c0,0.4,0,0.7,0,1s0.1,0.6,0.2,0.9c0.1,0.3,0.4,0.6,0.6,0.8c0,0,0.1,0,0.1,0.1c0.1,0.2,0.3,0.3,0.5,0.4c0.6,0.3,1.3,0.7,1.9,1
		c-0.1,0.1-0.1,0.1-0.2,0.2c-0.1,0.2-0.2,0.3-0.3,0.5c-0.2,0.3-0.4,0.7-0.4,1.1s0.1,0.7,0.2,1.1l0.3,1.1c0.4,1.4,0.8,2.8,1.2,4.2
		l0.1,0.1l0.3,0.1l0.1,0.3l4.9,1.7l15.4-2.8l2.3-2.4c0,0,0.2-0.6,0.4-1.4c0.1-0.3,0.2-0.5,0.3-0.8c0.1-0.6,0.3-1.1,0.4-1.6
		c0,0,0-0.1,0-0.1c0.1-0.2,0.1-0.4,0.2-0.6c0.2-1.1,0.4-2.2,0.6-3.3l0,0c0,0,0,0,0,0c0.1-0.4,0.1-0.8,0.2-1.3
		c0.2-1.6,0.3-3.1,0.5-4.7c0,0,0,0,0,0l0.4-3.4c0.1,0,0.1,0,0.2,0l-0.2-0.4l0-0.4c0.9-0.3,1.5-0.8,1.8-1.2c0.1-0.1,0.2-0.1,0.4-0.2
		c0,0,0.3-5,2.7-11.1c0.2-0.5,0.4-0.9,0.5-1.4c0.3,1.1,0.6,2.7,0.8,3.7c-0.1,0.1-0.2,0.2-0.2,0.3c-0.3,0.5-0.6,1-0.7,1.5
		c-0.1,0.5-0.1,1.1,0,1.6c0.1,0.5,0.3,1,0.6,1.5c0.1,0.1,0.2,0.2,0.3,0.3c0.2,0.3,0.5,0.6,0.8,0.8c0.9,0.6,2,0.8,3,0.6
		s1.9-0.8,2.5-1.6c0.1-0.1,0.1-0.2,0.1-0.3c0,0,0.1-0.1,0.1-0.1c0,0,0,0,0,0c0.1-0.1,0.1-0.3,0.2-0.4c0.5,1.2,1.1,3.2,1.8,5.3
		c-4.7,13-4.5,25.1-4.3,33.9c0.1,4.9,2,12,4.3,18.9c-0.5,0.1-1,0.2-1.6,0.1c0,0-1.5,3.8-2.4,5.4c0,0,4.2,3.4,3.3,6.6
		c-0.9,3.2-5.2,15.1-5.2,15.1s5.2,1.9,6.5,4.2l1.7,2.9l7.3,1.2c0,1.3,0,2.2,0,2.5c-0.3,1-2.8,10.4-2.2,17.1
		c0.7,6.7,11.6,39.7,12.9,43.4v0.1c0.1,0.4,0.8,2.8,1,6c0.1,1.5,0.5,3.1,1,4.4l0,0.4c0,0,0.1,0.3,0.4,0.8c0.3,0.8,0.6,1.4,0.7,1.7
		c0,0,0,0.1,0,0.1c0.1,0.7,0.7,4.9,0,9.7c-0.8,5.3-1.3,11.4-1.3,11.5v0.1c0.1,0.6,0.3,1.1,0.5,1.6c0.1,0.1,0.1,0.3,0.2,0.4
		c0.5,1,1.1,1.9,2,2.4c1.2,0.8,2.7,1,3.8,1c1.1,0,1.9-0.2,1.8-0.4c1.3-0.4,2.3-1,3-1.7c0,0,0,0,0,0s0,0,0,0c2.7-2.9,1.6-7.9,1.1-9.8
		v-0.2c-0.3-1.4-0.1-3.1,0.1-4.7c0.1-0.8,0.2-1.4,0.2-2.1c0-1.4-0.6-3.9-1.2-5.8c-0.1-0.5-0.3-1-0.4-1.4c0-1,0-1.9,0.1-2.4
		c0,0,0,0,0-0.1c0.1-0.1,0.1-0.2,0.2-0.3c0.4-0.8,0.8-1.6,0.3-2.3c-0.3-0.4-0.7-1.5-1.1-2.6l-1.1-9.7l0-0.4
		c-0.1-3.7-0.3-7.9-0.4-9.4c0.1,0,0.1,0,0.2,0c0.9,0,2.3-0.2,3.2-1.1c0.2-0.2,0.4-0.5,0.6-0.9c1.4-1.5,2.1-3.5,2.6-4.8
		c0.2-0.5,0.3-0.9,0.4-1c0.4-0.7,0.5-3.6,0.6-9.8c0-2.4,0.1-5.2,0.2-6.2c0.3-0.3,0.6-0.7,0.8-0.9c0.2-0.1,0.3-0.3,0.4-0.4
		c0.3-0.1,0.5-0.3,0.7-0.6c0,0,0,0.1,0.1,0.1c1.1,1.2,2.3,2.4,3.5,3.6c0.6,0.6,1.2,1.1,2,1.7c0.2,0.1,0.4,0.3,0.6,0.4
		c0.1,0.1,0.2,0.1,0.4,0.2c0.1,0,0.2,0.1,0.3,0.1c0.1,0,0.1,0,0.2,0c0.1,0,0.2,0,0.2,0h1.2l4.9,0.1c0.8,0,1.6,0,2.5,0
		c0.9,0,1.7-0.1,2.6-0.2c1.7-0.2,3.3-0.5,4.9-1c0.7-0.2,1.5-0.4,2.2-0.8c0.7-0.4,1.4-0.9,1.9-1.6s0.9-1.4,1.1-2.2
		c0.1-0.4,0.2-0.8,0.2-1.2c0-0.2,0-0.3,0-0.5c0.8-0.3,1.6-0.6,2.4-0.8c0.1,0,0.2-0.1,0.4-0.1h0.1h0.1c0.1,0,0.1,0,0.2-0.1
		c0.2-0.1,0.3-0.2,0.4-0.3c0.2-0.2,0.3-0.3,0.4-0.5c0.1-0.2,0.2-0.3,0.2-0.4c0.3-0.6,0.5-1.1,0.7-1.6c0.4-1.1,0.7-2.2,1-3.2
		c0.3-1.1,0.5-2.2,0.8-3.3v-0.2V318c-0.2-0.8-0.5-1.5-0.9-2.1c-0.4-0.6-0.8-1.2-1.2-1.8c-0.4-0.6-0.9-1.1-1.4-1.6
		c-0.4-0.4-0.8-0.8-1.2-1.2l-0.4-3.6c1.9-0.8,3.7-2,5.1-3.6c1.6-1.8,2.6-3.9,3.2-6.1c0.6-2.2,0.8-4.5,0.8-6.7c0-1.1-0.1-2.2-0.3-3.4
		c-0.1-0.9-0.3-1.8-0.5-2.6l7.7-3.8l8.2,10.8l3.1,19.4c-0.1,0.5-0.2,1.1-0.3,1.6c-0.6,2.6-0.7,4.5-0.6,5.7c0,0.5,0,0.9-0.1,1.1
		c-0.6,0.6-1.2,1.2-1.8,1.8c0.1-0.1,0.1-0.2,0.2-0.3c0,0-6.3,6.3-10.3,16.4c0,0,0,0,0,0.1c-0.2,0.4-0.4,0.9-0.5,1.4
		c-1.1,3.1-2,6.3-2.5,9.6c-0.1,1-0.2,1.9-0.1,2.8c0,0.4,0,0.7-0.1,1.1l0.7,2.8l0,0h-0.2c-2,2.1-3.6,4.5-5,7
		c-0.7,1.3-1.3,2.6-1.9,3.9c-0.3,0.7-0.6,1.3-0.9,2l-0.7,2c-1,2.7-1.7,5.5-2.1,8.4c-0.3,1.4-0.4,2.9-0.5,4.3
		c-0.1,0.7-0.1,1.4-0.1,2.1l-0.1,2.1c0.1,0.3,0.1,0.5,0.2,0.8c0,0.3,0.1,0.5,0.2,0.8c0.1,0.3,0.2,0.5,0.3,0.8
		c0.2,0.2,0.2,0.4,0.4,0.5c0,0.1,0.1,0.2,0.1,0.3c0,0,0-0.1,0-0.2c0,0.1,0.1,0.1,0.1,0.1c-0.3,0.8-0.2,1.8,0.3,2.6
		c0.5,0.9,1.3,1.5,2.2,2c0.5,0.3,0.9,0.4,1.4,0.6c0.4,0.1,0.9,0.3,1.4,0.4c0.9,0.2,1.8,0.4,2.8,0.6s1.9,0.4,2.9,0.5
		c1,0.1,2,0.2,3,0.1c1,0,2-0.2,3-0.6c0.5-0.2,1-0.5,1.4-0.8c0.3-0.2,0.5-0.4,0.6-0.7c0.1,0,0.2,0,0.3,0c0.8,0,1.5-0.2,2.1-0.5h0.5
		c0.1-0.1,0.3-0.2,0.4-0.3c0.2-0.2,0.5-0.4,0.7-0.6s0.5-0.4,0.7-0.6l0.6-0.7c0.4-0.5,0.8-0.8,1.2-1.2c0.8-0.7,1.7-1.5,2.6-2.2
		c0.9-0.7,1.8-1.5,2.6-2.4c1.7-1.8,3-3.9,3.7-6.3s0.8-4.9,0.5-7.2l-0.1-0.9l-0.2-0.9c-0.1-0.6-0.3-1.1-0.4-1.7
		c-0.2-0.6-0.3-1.1-0.5-1.7c0,0,0,0,0,0c-0.1-0.4-0.2-0.9-0.4-1.3c0.2,0,0.4,0,0.7-0.1c0.9-0.1,1.8-0.3,2.7-0.7
		c1.7-0.7,3.2-1.9,4.4-3.2c1.2-1.3,2.3-2.8,3.2-4.3c0.9-1.5,1.7-3.1,2.5-4.8c1.5-3.3,2.6-6.7,3.7-10.1l0.4-1.3
		c0.1-0.4,0.3-0.8,0.5-1.2v-0.1c0.1,0,0.2,0,0.3,0c0.2,0,0.4,0,0.6,0c0.4,0,0.9,0,1.3,0c0.9,0,1.8,0.1,2.7,0.1l1.3,0.1
		c0.5,0,0.9,0,1.4,0c1.4,0,2.7-0.2,4.1-0.4l0.4,2.2c0.3,2.5,0.6,4.9,0.9,7.4l0.7,5l0.7,5v0.3l0.3,0.1c0.5,0.2,1,0.4,1.6,0.6
		c-0.8,0.6-2.6,2.2-3.9,4.7c-0.5,0.8-1,1.7-1.3,2.5c-0.7,1.4-0.9,0.9-1.1,2.5l-0.1,1.2v1.2c-0.1,0.4,0,0.8,0,1.2
		c0,0.4,0,0.8,0.1,1.2c0.4,3.1,1.3,6.1,2.3,9c0.5,1.4,1,2.9,1.6,4.3c0.6,1.4,1.2,2.8,1.8,4.2l0.1,0.1h0.1c1.1,0.2,2.1,0.3,3.2,0.4
		c1,0,1.9,0,2.9-0.2c1.6,0.3,3.1,0.4,4.8,0.7c2.1,0.1,4.1,0.2,6.1,0.2c1,0,2,0,3-0.1c1,0,2.1-0.1,3.1-0.3c0.3-0.1,0.5-0.1,0.8-0.2
		c0.3-0.1,0.6-0.2,0.9-0.4c0.5-0.3,1-0.8,1.2-1.4c0.2-0.6,0.2-1.2,0.2-1.7c-0.1-0.6-0.2-1.1-0.4-1.6v-0.1h-0.1
		c-0.3-0.2-0.7-0.3-1-0.5l0,0l0-0.2c0.3-1.2,0.7-2.3,1-3.5s0.6-2.3,0.9-3.5c0.2-1.1,0.5-2.3,0.8-3.5c0.2-1.2,0.5-2.4,0.7-3.6
		c0.1-0.6,0.2-1.2,0.3-1.8c0.1-0.6,0.2-1.2,0.3-1.8c0-0.1,0-0.1,0-0.1c0.1-0.5,0.1-1.1,0-1.6c-0.2-2-1.2-4-2.6-5.4
		c-0.1-0.1-0.2-0.2-0.3-0.3c0.2-0.1,0.4-0.3,0.7-0.4c0.6-0.4,1.1-0.9,1.6-1.5c0.2-0.3,0.4-0.6,0.6-0.9c0.1-0.2,0.2-0.3,0.3-0.5
		c0-0.1,0.1-0.2,0.1-0.3c0-0.1,0.1-0.1,0.1-0.3v0.1c1.2-3.3,2.2-6.7,2.8-10.2c0.3-1.8,0.5-3.5,0.6-5.3c0.1-1.8,0.1-3.5,0-5.3
		c-0.2-1.7-0.5-3.5-0.9-5.2c-0.4-1.7-1-3.4-1.8-5c-0.8-1.6-1.7-3.1-2.8-4.5c-0.8-1-1.7-2-2.7-2.8c0-0.1,0.1-0.2,0.1-0.3
		c0.3-0.9,0.5-1.8,0.7-2.7c0.3-1.8,0.4-3.6,0.6-5.3c0.1-1.8,0.2-3.6,0.2-5.4c0.1-3.5,0-7.1-0.1-10.6l2-5l6,5.8
		c-0.2,0.6-1.2,5.4,1.6,11.6c0.9,2,2,3.7,3.1,5c2,2.6,3.9,3.8,3.9,3.8s0.4,0.3,0.5,0.9c-0.2,0.6-0.6,1.4-0.9,2
		c-0.3,0.4-0.7,0.8-1.1,1.2c-0.3,0.2-0.5,0.3-0.8,0.5c-0.7,0.1-1.4,0.2-2,0.6c-0.4,0.2-0.7,0.5-0.9,0.9c-1.8,1.6-1,5-1,5
		c0.1,0.1,0.2,0.3,0.3,0.4c0,0.1,0,0.2,0,0.2l1.7,2.9c1.2,2.6,1.5,4.6,1.5,4.6l0.5,0.2l0.2,0.2l2.3,1.2h-0.1
		c0.7,0.4,1.5,0.7,2.2,0.9c0.8,0.2,1.6,0.2,2.4,0.2c0.8-0.1,1.5-0.2,2.3-0.4c0.4-0.1,0.7-0.2,1.1-0.4c0,0,0.1,0,0.1,0
		c0.3,0.2,0.7,0.4,1.3,0.6c0,0,0.1,0,0.2,0c0,0,0.1,0.1,0.1,0.1c0.2,0.1,0.4,0.2,0.6,0.2c0.1,0,0.3,0,0.4,0c0.1,0,0.2,0,0.4,0
		c0.4-0.1,0.7-0.2,1-0.3c1.2-0.5,2.3-1.2,3.4-1.7c0,0,0.2-0.1,0.3-0.2c0.1-0.1,0.2-0.1,0.3-0.2c0.2-0.1,0.3-0.3,0.4-0.4
		c0.2-0.3,0.5-0.5,0.7-0.8c0.4-0.5,0.8-1,1.1-1.6c0.7-1.1,1.4-2.1,2-3.3c1.7-3.7,3-7.7,3.9-11.7c0.1-3.7,0.3-7.8-0.1-11.9
		c-0.5-4.1-1.6-8.1-3.5-11.8c-0.9-1.8-2-3.6-3.3-5.3c-0.6-0.8-1.3-1.6-2-2.4c-0.6-0.7-1.3-1.4-2-2c0-0.3-0.1-0.6-0.2-0.9
		c-0.1-0.4-0.3-0.7-0.4-1c-0.3-0.6-0.7-1.2-1.1-1.8c-0.4-0.6-0.8-1.1-1.3-1.6c-0.4-0.5-0.8-0.9-1.2-1.3c-0.1-4.3-0.5-8.7-2-12.8
		c-0.8-2.1-1.8-4.1-3.1-5.9s-2.9-3.4-4.6-4.8c-1.7-1.4-3.6-2.6-5.5-3.6c-1.9-1.1-4-1.8-6.1-2.3l0.1-0.1c-3.3-0.8-5.6-0.9-5.6-0.9
		s0,0-0.1,0.1c1.2-16.5-5.2-26.4-5.2-26.4c-1.2-2.1-2.6-3.8-4.1-5.3c1-1.2,2-2.3,2.4-2.8c0,0-1.4-5.6-1.5-6.4
		c-0.1-0.8,1.5-1.8,1.5-1.8s2.9,0.1,3.9-1.6c0.7-1.1,4.4-9.3,4.4-9.3l-1.7,0.8l-3,6.7c-1.5,2-4.2,1.9-4.2,1.9
		c-1.2,1.5-2.7,2.5-2.7,2.5s1.1,3.5,1.4,5.9c0.2,1.4-0.4,2.2-1.4,3.1c-3.6-3.5-7.6-5.6-10.5-6.8l0.5-3.9l1.5-4.1
		c1-1.1,2.2-1.6,2.2-1.6c0.5-2.1,1.6-3.9,1.6-3.9s-0.5-0.6-1.2-1.4c0.3-0.9,0.6-1.7,1-2.6c0.9-2.5,1.5-5,2.1-7.6
		c0.3-1.3,0.5-2.6,0.8-3.9l0.2-1c0-0.3,0.1-0.6,0.2-0.9c0.1-0.3,0.2-0.5,0.3-0.8c0.6-0.2,0.9-0.3,0.9-0.3c-0.2-0.4-0.2-1.2,0-2
		c0.3-0.7,0.7-1.5,1.2-2.1c0.7-0.9,1.6-1.7,2.6-2.3c1.4-0.4,2.6-0.3,3.4,0c0.5,0.4,1.3,1.1,2.3,2.3l2.4,3.7c0,0,0.5,0.5,1,1.2
		c0.3,0.6,0.6,1.1,1,1.8c0,0,7.5,7.7,10.8,10.1l-0.1,0.5l-0.1,0l0,0.1l-1.1,3.8l-0.2,0.9c-0.1-0.1-0.2-0.2-0.4-0.4
		c-0.4-0.4-0.7-0.8-1-1.2l-0.1-0.1h-0.2l-2.5-0.6h-0.1H425h-2.1c-0.5,0-1,0.1-1.4,0.3c-0.4,0.2-0.8,0.4-1.1,0.7
		c-0.6,0.6-1.1,1.3-1.5,2c-0.1,0.1-0.2,0.3-0.2,0.5l-0.2,0.1c0,0,0,0,0,0l-0.1,0.1l0,0c0,0-0.1,0-0.1,0c-0.9,0-0.3,1.7-0.3,2.1
		c0,0,0,0,0,0c0,0.1,0,0.1,0,0.2c0,0.1,0,0.2,0,0.3v0.3c0,0.3,0,0.7,0,1.1c0,1.5,0,3.1,0,4.6c0,0.8-0.1,1.6-0.1,2.3v0.1
		c-0.1,0.1-0.1,0.3-0.1,0.4l-0.1,0.6l-0.1,1.2c-0.3,3.1-0.5,6.2-0.5,9.3c0,2.3,0.1,4.6,0.2,6.8c0,1.3,0,2.3,0,2.4
		c0,0.1,0.2,0.7,0.4,1.6c0,0.3,0.1,0.5,0.1,0.8c0.1,0.7,0.3,1.5,0.5,2.3c0.1,0.5,0.3,1,0.6,1.5c0.2,0.8,0.3,1.4,0.3,1.4l0.8,0.7
		c0.2,0.3,0.4,0.5,0.6,0.7c1.1,1.3,2.6,2.1,4.2,2.6c0.7,0.2,1.5,0,2.2,0c0,0,0.1,0,0.1,0c0.1,0,0.1,0,0.2,0c0.2,0,0.5,0,0.7,0
		c0.2,0,0.3,0,0.5,0c0.5,0,0.9-0.1,1.3-0.3c0.9-0.3,1.6-0.8,2.2-1.5s1-1.4,1.3-2.2c0.6-1.5,0.9-3.1,1-4.7c0-0.4-0.2-13.7-0.2-14.1
		c-0.2,0-0.4,0.3-0.6,0.5c0-0.1,0-0.3,0-0.4c0-0.5,0.1-0.9,0.1-1.3c0.1-0.1,0.2-0.2,0.2-0.3c0.1-0.1,0.1-0.2,0.2-0.3
		c0-0.1,0.1-0.2,0.2-0.3c0.1-0.1,0.2-0.2,0.3-0.3c0.1-0.1,0.2-0.2,0.3-0.3l0.3-0.2c0.4-0.3,0.9-0.6,1.4-0.8c0.3-0.1,0.5-0.2,0.8-0.3
		l0.4-0.1c0.1,0,0.3-0.1,0.4-0.1l0.8-0.2l0.8-0.2c0.6-0.1,1.1-0.2,1.7-0.3l1.7-0.3c0.3,0,0.6,0,0.9-0.1l0.9-0.2
		c0.3-0.1,0.6-0.1,0.9-0.2l0.9-0.2c0.6-0.1,1.1-0.3,1.7-0.5c0.3-0.1,0.5-0.2,0.8-0.3c0.3-0.1,0.5-0.2,0.8-0.3l0.8-0.4
		c0.3-0.1,0.5-0.3,0.8-0.4c0.3-0.1,0.5-0.3,0.8-0.4c0.1,0,0.3-0.1,0.4-0.2l0.4-0.2l0.4-0.3l0.3-0.3c0.3-0.1,0.5-0.3,0.7-0.5
		c0.1-0.1,0.3-0.2,0.4-0.3c0.8-0.3,1.5-0.5,2.3-0.8h0.1h0.1c0.3-0.2,0.4-0.5,0.6-0.7c0.2-0.2,0.3-0.5,0.4-0.7s0.2-0.5,0.3-0.7
		c0.1-0.2,0.1-0.4,0.2-0.7v-0.2l-0.1-0.2L458.7,203.3z M484.2,157.1C484.2,157.1,484.2,157.1,484.2,157.1
		C484.2,157.1,484.2,157.1,484.2,157.1C484.2,157.1,484.2,157.1,484.2,157.1L484.2,157.1z M55.6,140.6v0.1l-0.1,0.1
		c-0.1,0.1-0.1,0.1-0.1,0.2c-0.3,0.5-0.5,1-0.7,1.5l-0.5,1.5l-0.1,0.2c0,0,0,0-0.1,0.1c0,0.1-0.1,0.1-0.2,0.2
		c-0.1,0-0.1,0.1-0.2,0.1c0-0.1,0.1-0.2,0.2-0.3c0.1-0.1,0.2-0.2,0.2-0.3c0.3-0.6,0.7-1.8,1.1-2.7c0.2-0.3,0.4-0.6,0.6-0.8
		C55.7,140.5,55.6,140.6,55.6,140.6z M106.9,131.3c-0.4-0.4-0.8-0.9-1.2-1.4c0.7,0.8,1.4,1.6,2.2,2.4
		C107.6,132,107.2,131.6,106.9,131.3z M147.2,129.8c-0.7,1.5-1.2,3.1-1.6,4.7c-0.5,1.6-0.7,3.2-0.9,4.9c-0.1,1.7-0.1,3.3,0.2,5
		c0,0.1,0,0.2,0.1,0.3l3.6,3.6c-0.1,4-0.1,8.1-0.2,12.1l-0.5,12.3l-0.2,6.2c0,1-0.1,2.1-0.1,3.1v3.1l0.2,12.2
		c-0.4,0.6-0.7,1.2-0.9,1.9c-0.1,0.3-0.2,0.7-0.2,1.1c0,0.3,0,0.7,0,1l0.1,4.1c0.1,2.7,0.1,5.5,0.1,8.2c0,1.4,0,2.8-0.2,4.1
		c-0.2,1.4-0.5,2.7-0.7,4.1c-0.5,2.7-0.9,5.5-1.2,8.2c0,0.3,0,0.5-0.1,0.8c-0.3-1.6-1-3-1.7-4.4c-0.4-0.7-0.8-1.4-1.3-2.1
		c-0.4-0.6-0.8-1.1-1.3-1.7c0.2-1.7,0.3-3.4,0.4-5.1c0.1-0.9,0.1-1.8,0.2-2.7c0-0.5,0-0.9,0-1.4v-0.7c0-0.2,0-0.5-0.1-0.7
		c-0.1-1-0.4-1.9-0.6-2.8c-0.3-0.9-0.6-1.7-0.9-2.6c-0.3-0.9-0.7-1.7-1.1-2.5c-0.2-0.4-0.4-0.8-0.7-1.2c-0.1-0.2-0.2-0.4-0.4-0.6
		c-0.1-0.2-0.3-0.4-0.5-0.6c-0.7-0.8-1.5-1.3-2.4-1.7c-0.8-0.4-1.7-0.8-2.5-1.1c-0.9-0.3-1.7-0.6-2.5-0.9c-0.4-0.2-0.8-0.3-1.2-0.5
		c-0.3-0.2-0.6-0.4-0.9-0.7c-0.6-0.6-1.1-1.3-1.6-2s-0.9-1.5-1.2-2.3c-0.1-0.2-0.2-0.4-0.2-0.6l-0.1-0.3l-0.1-0.4
		c-0.2-0.5-0.4-0.9-0.7-1.3c-0.3-0.4-0.7-0.8-1.1-1.1c-0.2-0.2-0.4-0.3-0.6-0.4c-0.1-0.1-0.3-0.2-0.4-0.2l-2.2-6.9
		c0.6-0.2,1.2-0.5,1.8-0.7c0.8-0.4,1.6-0.8,2.3-1.3c0.7-0.5,1.4-1,2.1-1.6c0.7-0.6,1.3-1.2,1.9-1.9c1.1-1.8,1.9-3.7,2.5-5.7
		c0.6-2,0.9-4,1.1-6c0.3-4.1,0-8.2-1.1-12.1c-0.3-1-0.6-2-1-2.9c-0.4-1-0.9-1.9-1.4-2.7c-1.1-1.7-2.6-3.2-4.1-4.6
		c-1.5-1.3-3.2-2.5-4.9-3.6c-1.7-1.1-3.5-2-5.3-2.8c-1.2-0.8-2.4-1.8-3.6-2.8c-1.1-1-2.2-2-3.1-3.2c-0.9-1.2-1.7-2.5-2.2-3.9
		c-0.5-1.4-0.6-2.9-0.1-4.2c0.5-1.5,1-2.9,1.4-4.4l1.3-4.4c0.8-2.6,1.5-5.2,2.3-7.9c0.2,0.4,0.4,0.8,0.5,1.1c0.3,0.7,0.7,1.3,1,2
		c0.7,1.3,1.4,2.6,2.2,3.9c1.5,2.6,3,5.1,4.5,7.6c0.8,1.3,1.5,2.5,2.3,3.8c0.4,0.6,0.8,1.2,1.2,1.9c0.4,0.6,0.8,1.2,1.2,1.8
		c1.4,2.6,2.7,5.3,3.8,7.9v0.1c0.5,0.4,1,0.7,1.6,1c0.3,0.1,0.6,0.2,1,0.2c0.2,0,0.4-0.1,0.5-0.2c0.2-0.1,0.2-0.2,0.4-0.3
		c0.5-0.3,1-0.5,1.6-0.8c0.5-0.2,1.1-0.4,1.6-0.6c1.7-0.4,3.4-1,5-1.8c1.5-0.7,2.9-1.6,4.2-2.5c0.2-0.1,0.4-0.2,0.4-0.2
		c1.7-1.2,3.6-3,5.3-5c0.6-0.6,1.1-1.3,1.7-1.9c0,1,0.1,2,0.3,3C148.4,126.9,147.8,128.3,147.2,129.8z M162.7,338.5
		c-0.4,0.4-0.8,0.9-1.3,1.3c-0.1,0-0.1,0.1-0.2,0.1c0.2-0.2,0.4-0.4,0.5-0.6l0.9-1.1c0.2-0.4,0.5-0.7,0.8-1.1
		c0.1-0.1,0.1-0.2,0.2-0.2C163.3,337.5,163,338.1,162.7,338.5z M182.6,296l-0.3,0.1c0.2,0,0.3-0.1,0.4-0.1
		C182.7,296,182.6,296,182.6,296z M192,188.2c-0.1-0.9-0.2-1.9-0.3-2.9c0-0.5,0-0.9,0-1.4s0-0.9,0-1.4l0.1-1.4l0.2-1.4
		c0-0.7,0.1-1.3,0.2-1.9c1.5,2.5,2.9,4.8,4.4,7C195.4,186.6,193.6,187.7,192,188.2z M214,178.2c-0.1,0.7-0.2,1.5-0.2,2.2
		c-4.1-3.5-8.8-8.3-13.1-14.8c1.3-1.4,2.6-2.9,3.6-4.2l2.1-2.3c0.4,1.2,0.8,2.4,1.2,3.5c0.6,1.5,1.2,3,1.9,4.4
		c0.7,1.5,1.5,2.9,2.4,4.2c0.9,1.2,1.8,2.4,3,3.4C214.5,175.9,214.2,177,214,178.2z M207.3,228.1C207.3,228,207.3,228,207.3,228.1
		c0-0.2,0-0.3,0-0.4C207.3,227.8,207.3,227.9,207.3,228.1z M210.1,232.4c0,0-0.2,0.2-0.3,0.5c0-0.4,0.1-0.7,0.3-0.9
		c0.1-0.1,0.2-0.3,0.3-0.4c0.1-0.1,0.1-0.1,0.1-0.1c0,0,0.1,0,0.1,0.1c-0.2,0.2-0.4,0.4-0.6,0.7c0.2-0.2,0.4-0.4,0.7-0.6
		c0,0,0,0,0,0L210.1,232.4z M213,216.6l-4.3,7.8c0,0-1.1,1.8-1.4,3.2c0-0.5,0.1-0.9,0.3-1.4l4.9-8.9c0.2-0.3,0.4-0.7,0.6-1
		s0.6-0.6,0.9-0.8c0.6-0.5,1.4-0.9,2.1-1.3c1.5-0.8,3-1.6,4.5-2.3c0,0,0.1-0.1,0.1-0.2c-0.1-1.6-0.3-3.2-0.5-4.7
		c0.3,1.6,0.5,3.3,0.6,5C220.8,212,214.6,214.7,213,216.6z M367.6,60.4c-0.1,0.2-0.3,0.3-0.4,0.5c-0.2,0.2-0.5,0.4-0.7,0.6
		C366.9,61.1,367.2,60.7,367.6,60.4z M350.6,111.5c0.5-0.8,0.9-1.6,1.3-2.4c0.3-0.9,0.7-1.7,0.9-2.6c0.2-0.8,0.3-1.6,0.3-2.5
		c2-1.1,3.9-2.3,5.8-3.6c1.9-1.4,3.8-2.9,5.5-4.5c0.9-0.8,1.7-1.6,2.5-2.5c0.9-0.8,1.7-1.7,2.5-2.5l4.2-4.3c1,3.7,2.1,7.4,3.2,11.1
		c1.2,4.1,2.5,8.1,3.9,12c0.2,0.5,0.3,0.9,0.5,1.4c-0.2-0.2-0.4-0.3-0.6-0.5c0,0,0.2,0.3,0.8,0.9c0.2,0.5,0.4,1,0.6,1.5
		c-3.5-3-12.1-8.8-12.5-9.1c-0.3-0.1-0.5-0.1-0.7,0.1c-1.3,1.3-5.2,3.1-5.2,3.1c-0.2,0.1-0.3,0.2-0.3,0.3l-0.6,1.6l-1.8,1.1
		c-0.1,0.1-0.2,0.2-0.2,0.3l0,0c-0.3,0.4-1.9,2.3-1.1,3.5c0.3,0.5,0.9,0.7,1.6,0.8c0.4,0.1,0.9,0.1,1.2,0.1v0.2
		c0.1,0.5,0.3,0.9,0.7,1.1c0.1,0.3,0.5,0.4,0.9,0.5l-0.1,0.9c-0.1,0.7,0.4,1.3,1,1.5c1.1,0.3,3.1,0.9,3.8,1c0.2,0,0.5-0.1,0.7-0.2
		c0,0,0,0,0.1,0c0.2-0.1,0.3-0.3,0.3-0.5c0-0.1,0.1-0.1,0.1-0.2c1.8,1.5,5.1,2,6.1,2.1l0.2,0.6c0.1,0.3,0.4,0.8,0.8,1.1l0,0.1
		c0.1,0,0.2,0,0.3,0c0,0,0,0,0,0c-3,1.2-7.7,2.5-10.2,1.7c-3.8-1.3-6-1.6-6-1.6l-11.5-7.1c0,0-0.1-0.2-0.2-0.6l0.3-0.6l0.1-0.2
		l-0.1-0.2l-0.5-0.9C349.7,112.9,350.2,112.2,350.6,111.5z M342.7,92.7C342.7,92.7,342.7,92.7,342.7,92.7c0.1-0.1,0.2-0.1,0.2-0.2
		l-0.1,0.2l-0.3,0.2C342.6,92.8,342.6,92.8,342.7,92.7z M337.4,96.6c0.2-0.3,0.5-0.5,0.7-0.7l0,0.1c-0.2,0.2-0.5,0.5-0.7,0.9
		L337.4,96.6z M336.4,100.8c0.2-0.5,0.3-0.9,0.5-1.4c0,0.4,0,0.8-0.1,1.2l-0.2,0.6l0,0.3c-0.1,0.3-0.2,0.6-0.3,1l-0.3-0.1
		C336.1,101.9,336.3,101.3,336.4,100.8z M251.5,80.6l1.1-9.3c0,0,4.7-7.5,7.7-8.1c2-0.4,6.9,0.7,9.9,1.5c0.3,2.6-0.5,4.8-1.9,5.3
		c-2.5,0.9-5.9,4.8-5.9,4.8s-4,8.2-6.2,9.9c-1.4,1.1-5.2,0.8-7.7,0.5L251.5,80.6z M230.2,107.4c1.3-4.2,1.5-6.5,1.5-6.5l1.6-2.8
		l3.9,6.4c0,0,0.7,7.7-1.1,9.7c-0.7,0.8-2.5,1.8-4.4,2.7C230.5,113.8,229.5,109.8,230.2,107.4z M243.5,202.1
		c0.1-0.2,0.2-0.5,0.2-0.7c0.3-0.7,0.5-1.4,0.7-2.1c0.2-0.6,0.5-1.2,0.6-1.7c0.3-0.7,0.4-2,0.4-3.4c0.1-1.1,0.2-2.2,0.2-3.2
		c1.5-2.5,3-5.1,4.2-7.4c0.3-0.5,0.6-1,0.9-1.6c0-0.1,0.1-0.1,0.1-0.2l0.3,0.2l3.1,6.7l-2.8,4.3c0,0-4.2,3.1-5.4,3.8
		C245,197.4,245.5,200,243.5,202.1z M256.2,303c0,0-6.7-4.6-7.1-7.4c-0.4-2.8,2.6-11.4,2.6-11.4s0.4-5.1-0.7-7.6
		c-0.5-1.2,0.1-2.8,1.6-4.1c2.3,6.7,5,13,6.5,16.8c0.7,1.6,1.1,2.7,1.3,3.2c0.6,1.7,0.9,7.2,0.9,11.2L256.2,303z M261.8,196.6
		c-0.7,3.6-2.9,7.1-2.9,7.1c-2.8,4.1-4.9,8.3-6.5,12.3c-0.7-1.8-1.1-3.3-1.1-3.3s-0.4-0.6-1-1.5c0-0.3,0-0.6-0.1-0.9
		c-0.2-1-0.7-1.8-1.5-2.4c-0.8-0.6-1.7-0.9-2.7-0.8c-1.8-1.7-1-7.3,3.5-9.8c0,0,3.3-1.2,4.7-0.3c0,0,2.1-5.1,3.8-6.7
		c0,0-1.7-5.3-0.9-6.9c0,0-3.2-0.8-5.7-2.6c0.6-1,1-1.7,1.1-1.8l0.9-1.8l8.4,9.1V196.6z M280.7,316c-0.1,1-0.3,2.1-0.6,3.3
		c-0.1-0.4-0.2-0.7-0.3-1.1c-0.3-1.1-0.6-2.2-0.8-3.3c-0.4-2.2-0.7-4.4-0.7-6.7c0-1.2,0.1-2.3,0.2-3.4c0.1-0.6,0.2-1.1,0.3-1.7
		c0.1-0.3,0.1-0.5,0.2-0.8l0.2-0.8c0.3-2.3,0.4-4.5,0.5-6.8c0-0.1,0-0.1,0-0.2l0.1,1c0.2,2.2,0.5,4.3,0.7,6.4
		c-0.4,1.4-0.5,2.8-0.5,4.3c0,1.6,0.1,3.1,0.3,4.6c0.1,0.7,0.2,1.5,0.3,2.2c0.1,0.7,0.1,1.5,0.1,2.2
		C280.7,315.5,280.7,315.7,280.7,316z M362.2,364.8c0.2-0.2,0.5-0.3,0.7-0.5c0.1-0.1,0.3-0.2,0.4-0.3
		C363,364.3,362.6,364.5,362.2,364.8z M355.9,231.8c-0.3,1.6-0.6,3.2-0.7,4.9c-0.1,0.5-0.1,0.8-0.2,1c-0.4-0.5-0.9-1.2-1.6-2
		c-1.8-2-1.6-9.2-1.4-9.9s0.8-2.5,1.7-4.6c1-2.1,2.8-1.3,2.8-1.3c1.8,1.4,2.7,1.3,2.7,1.3c-1.4-0.4-2.6-3.1-2.6-3.1
		c-1.3,0.6-2.6,0.1-2.6,0.1c-0.4,0.9-2.6,3.5-2.4,4.7c0.2,1.2-1.5,11.5-1.5,11.5c0.7,0.2,1.8,1.4,2.9,2.8c-3.1-0.6-5.8-0.6-5.8-0.6
		s-0.2,0-0.4,0.1c-2.5,0-4.9,0.2-7.4,0.6c-1.2,0.2-2.3,0.4-3.4,0.7c-0.2,0-0.4,0.1-0.6,0.2c-0.3,0.1-0.5,0.1-0.8,0.2
		c-3.4,0.9-6.8,2.4-10.1,4.6c-0.8,0.5-1.6,1.1-2.4,1.7c-2.5,2-4.8,4.2-6.7,6.8c-1.7,2.3-3.2,4.8-4.5,7.4c0.4-2.5,0.7-4.9,1-7.2
		c1.1-10.1-2.2-21.3-5.2-29c0.3,0,0.5,0,0.7,0c0,0,1.1-3,2.4-6.1c0.5,0.1,1,0.1,1.4,0c0.9-0.2,1.6-0.7,2.1-1.4
		c0.4-0.7,0.6-1.6,0.4-2.4c-0.1-0.4-0.3-0.8-0.6-1.2c-0.2-0.3-0.4-0.5-0.6-0.7c0,0-0.1-0.1-0.1-0.1c0,0,0,0,0,0
		c0.3-0.5,0.5-0.9,0.6-1.1c1-1.2,0-5.1,0-6.3c0,0-1.9-0.2-3.1-1.5c0,0-7.6,2.4-9.4,2.9c0,0,6.4-0.8,8.3-1c0,0,2.8,0.2,2.6,2.9
		c-0.1,1.3-0.3,2.5-0.4,3.5c-0.3,0-0.5-0.1-0.8,0c-0.5,0-0.9,0.1-1.3,0.3c-0.4,0.2-0.7,0.5-1,0.9c-0.3,0.3-0.5,0.8-0.6,1.2
		c-0.1,0.4-0.1,0.9,0,1.3c0.1,0.8,0.6,1.6,1.3,2.1c-0.8,1.3-1.9,2.7-3,3.9c-1.5-3.7-2.8-6.2-3.2-6.9c0.2-1,0.1-1.9-0.2-2.8
		c-2.4-6.4-3.4-11.2-2.7-12.3c0.9-1.4,1.6-4.8,2-7.5c0.4-1.7,0.7-3.1,0.9-4.2c0.4-0.6,0.9-1.3,1.2-1.6l0.1,0.1
		c0.6-0.7,1.1-1.4,1.6-2.1c0.4-0.7,0.9-1.5,1.3-2.2c0.8-1.5,1.5-3.1,2-4.7c0.1-0.2,0.1-0.5,0.2-0.7c1.2,1.2,5.9,5.7,11.8,11.1
		c0.9,0.8,1.9,1.8,3.1,2.9c6.6,5.9,14.1,12.5,20.3,17.2c1.6,1.5,6.6,5.6,9.7,6.2c0.3,0.1,0.6,0.1,1,0.2c6.7,1.9,12-0.5,14.7-2.3
		c0,0.6,0,1.2,0,1.8C364.3,215.4,359,221.3,355.9,231.8z M317.2,154.2c1,0,1.8,0.2,2,0.3c0.4,0.2,3,1.6,3,1.6l3.6,8.1l2.8,0.8
		c1.2,0.3,2.5,1.6,3.5,2.7l-2.9,1.5l-0.1,0.4c-1.8-2.1-3.2-3.8-3.7-4.7C323.5,161.5,320.5,157.3,317.2,154.2z M374.8,341.2
		c-0.2,0.4-0.3,0.9-0.5,1.3l-0.4,1.3c-1.1,3.4-2.2,6.8-3.7,10c-0.7,1.6-1.5,3.2-2.4,4.7c-0.8,1.3-1.6,2.5-2.6,3.6
		c0.1-0.1,0.2-0.3,0.2-0.4c6-7.3,8.7-20.2,9.4-20.7c0,0,0,0,0,0C374.8,341.1,374.8,341.1,374.8,341.2z M383.8,146.7
		c-0.1,0.2-0.2,0.3-0.2,0.5c-0.1,0.1-0.2,0.3-0.2,0.4c-0.3,0.5-0.4,0.9-0.6,1.3c-0.7,1.6-1.3,3.2-1.9,4.9c-0.2,0.5-0.4,1.1-0.6,1.6
		l-1.1,2.9l-0.8,2.6c-1.4,4.3-2.7,8.6-3.9,12.9c-0.4,1.3-0.7,2.5-1.1,3.8c-0.2-0.9-0.2-1.8,0.1-2.4c0,0-5.2-1.9-6.8-3.5
		c0,0-5.2,2-6.8,1.2c0,0-1.6,7.2-5.4,8.6c-3.9,1.4-5.3,3.4-7.8,1.6c-1.4-1-5.2-2-6.4-3.2c-0.3,0.6,3,3.6,3,3.6l3,3
		c1.5-0.6,7.9-2.6,9.8-2.4l3-5l6.5-3.4l4.4,2.6c0,0,1.4,1.7,2.5,3.2c0,0.2-0.1,0.4-0.1,0.6c-3.1,4.6-11,11.2-12.3,11.7
		c-0.6-0.1-1,0.2-1.3,0.6c-0.4-0.4-1-0.7-1.9-0.6c-1,0.2-2.8-0.9-5.5-2.5c-0.5-0.2-0.9-0.5-1.4-0.8c-2.6-1.6-12.9-11.9-19.3-19.1
		c0.5-0.7,0.8-1.2,0.8-1.2l1.9-1c0.2,0.3,0.3,0.4,0.3,0.4s1.3-0.9,3-2.1l1.5-0.8l0.4-0.5c2.6-1.7,5.4-3.6,6.7-4.3
		c2.6-1.4,6.3,1.4,6.3,1.4c1.1-1.1,4-3.2,4-3.2c-1.1-3.5,1.5-5.5,1-6.7c-0.4-1.2-1.7-5.8-1.7-5.8l0.4-4.7l3.9-3l5.7,0.4l3.4-2.5
		c-3.2,2.2-12.1-0.5-12.1-0.5c-0.2,1.6-4.5,4.4-4.5,4.4c0.3,2.1-1.1,7-1.1,7c1.5,0.1,3.2,2.9,3.2,2.9c2,4.8-1.2,9.5-3.5,9.1
		c-2.4-0.5-6.6,1-6.6,1s-1.8,1.2-3.9,2.4c-0.4-2.9-1-8-0.7-11.5l-2.1,3.2c1.9,1.8,1.4,5.5,1.3,6c-0.2,0.4-1.4,3.1-1.4,3.1l-2.6,1.4
		c-2.5-0.1-7.5-4.4-7.5-4.4l-2.9-6.9l-2.2-1.9c-1.4,0.1-3.4,0.2-5.5,0.2c-0.8-0.6-1.5-1.2-2.3-1.7c-1-0.6-2.6-1.2-4.7-1.7
		c-1.6-0.3-2.8-0.5-2.8-0.5c-3.8-0.8-10.8-3.5-14.8-5.9c0.3-0.4,0.7-0.8,1.1-1l2.6-1.8l0.3-3.7c0.5-0.1,1-0.5,1.3-0.9
		c0.3-0.4,0.4-1,0.3-1.5c0-0.2-0.1-0.4-0.2-0.6c0.1,0.2,0.1,0.3,0.1,0.5c0,0.1,0,0.1,0,0.2c0-0.5-0.2-0.9-0.5-1.2
		c0.1,0.1,0.1,0.1,0.2,0.2c-0.1-0.1-0.2-0.3-0.4-0.4c-0.1-0.1-0.2-0.2-0.4-0.2l0.2-2c0,0,2.1-2.4,2.6-2.7c0.4-0.3,1.7-3.3,5.7-0.6
		c0,0,0.8-1.6,2-3.7c-3.5,1.8-7.8,3.1-10.8,3.9l-1.6,2.7l-0.2,2.5c-0.1,0.1-0.3,0.2-0.4,0.4c-0.2,0.3-0.3,0.5-0.4,0.8
		c0,0.3-0.1,0.6,0,0.9c0.1,0.5,0.3,0.9,0.6,1.2l-0.2,2.4c0,0-1.2,2.1-2.8,4c-0.7-0.5-1.3-1-1.6-1.5c-1.7-2.5-1.2-10.1-1.1-11.9
		c12.8-2.1,19-5.7,21.2-7.2c0.1,0,0.2-0.1,0.4-0.2c0.9-0.6,2.6-2.2,2.6-2.2l-2.5,0.8c0,0,0,0-0.1,0.1c0,0,0,0,0,0
		c-0.9,0.3-1.8,0.3-2.6,0.3c1.9-1.1,3.9-3.1,4-3.2c0,0,0,0,0,0c0.9-0.9,1.9-2,1.9-2l-2.4,1.1c0,0,0,0,0,0c-0.6,0.3-1.1,0.4-1.6,0.4
		c1-0.6,1.9-1.3,2.4-1.9c1.3-1.1,1.8-2.8,1.8-2.8l-4.5,1.9l0,0c-1.3,0.6-2.4,0.6-3.4,0.2c-0.8-0.4-1.3-1.1-1.6-1.5
		c0.6-0.2,1.8-0.7,3-1.6c1.9-1.4,3.1-3.3,3.2-3.4c0,0,0,0,0,0c0.4-0.6,1-1.3,1.5-2.2l-2.7,1.7c0,0,0,0,0,0.1
		c-5.1,2.6-8.4-2.4-13.4-10.5c-0.3-0.6-0.7-1.1-1-1.7c-3.4-5.5-8.2-8.6-12.3-9.8c-0.3-0.1-0.6-0.2-0.9-0.2c-2-0.5-3.8-0.5-5.2-0.2
		c-3.7,0.9-5.5,3.8-6,4.9c-3.2-0.4-6.1,0.8-6.2,0.8c-0.1,0.1-0.1,0.1-0.2,0.2c-6.6,8.9-7,26.1-7,26.8v0.1c0.5,2.3,9.5,11,10.7,12.2
		c0.2,0.3,1.2,2.5-1.1,9.1c-0.5,1.4-1.2,2.5-2.2,3.4c-1-1.4-1.6-3.3-1.5-5.5c0,0,0-0.1,0.1-0.3c0.1-0.1,0.2-0.2,0.2-0.3
		c0-0.1,0.1-0.1,0.1-0.2c0,0,0,0,0,0c0,0,0,0,0,0c0.2-0.3,0.2-0.7,0.2-1.1c0.4-0.9,0.9-1.9,1.7-2.2c0,0-3.2-4.6-3.5-6.9
		c0,0-6,1-8.1,0.2l-1.9,0.8l2.3,5.4l-4.7,3c0,0,1.7,3.3,0.2,5.3c-1.5,2.1-2.5,1.6-2.5,1.6l1.5,2.1c0,0,1.8-2.7,1.9-3.8
		c0.1-1.1-0.3-4.3,0.5-5.2c0.8-0.9,4.6-2,4.6-2l-2.9-6l6.6,1l1,4.4c-0.1,0-0.2,0-0.2,0.1c-0.2,0.1-0.5,0.3-0.7,0.6s-0.3,0.6-0.4,0.9
		c-0.1,0.3-0.1,0.7,0,1c0,0.1,0,0.1,0.1,0.2c0,0.7,0.4,1.3,1.1,1.5c0.1,0.1,0.3,0.2,0.4,0.2c0,1,0,1.9,0,2.4c-0.1,1,1.7,1.9,2.7,3.8
		c-4.5,3.3-11.6,3.8-14.5,4h-0.1c0,0-0.1,0-0.3,0.1l0.1-3l-1.5-2.1c0,0-0.1,2.6-0.2,5.7c-1.2,0.6-2.8,1.8-3.6,3.7
		c-0.4,0.8-1,2.7-1.9,5.3c-0.7,2.1-1.6,4.7-2.6,7.6c-0.5-0.5-0.9-1.1-1.2-1.6c-0.8-1.3-1.4-2.7-1.9-4.1c-0.6-1.4-0.8-2.9-1.1-4.4
		c-0.1-0.8-0.2-1.5-0.3-2.3l-0.1-1.5c0-0.2,0-0.5,0-0.7c0-0.1,0.1-0.2,0.1-0.3c0.1-0.2,0.2-0.4,0.3-0.6c0.2-0.5,0.3-0.9,0.4-1.3
		c0.1-0.4,0.1-0.9,0.2-1.3c0.1-0.4,0.1-0.9,0.1-1.3c0-1.7-0.4-3.4-0.9-5c-0.2-0.8-0.6-1.5-0.9-2.3c-0.4-0.7-0.8-1.5-1.2-2.2
		c-0.5-0.7-0.9-1.4-1.4-2.1l-1.2-1.6c0-0.2-0.1-0.4-0.1-0.6c0.1-1.5,0.1-2.9,0-4.4c-0.1-1.7-0.4-3.4-0.9-5c-0.2-0.8-0.5-1.7-0.9-2.5
		c4.1-1.7,12.8-4.8,12.8-4.8s-1.8-5-0.8-7.3l1.1-3l-4.8-8.4c0,0,0.1-0.9,0.2-1.8l3.8-6.7c0,0,2.8-0.9,5.4-1.7l1.7,1.2l3.3-0.8
		c2.5-0.7,7.6,1.6,7.6,1.6s5.4-11.4,7.1-14.3c1.7-2.9,7-2.3,7-2.3c0.4-1.8,2.1-5.5,2.1-5.5c-0.3-0.3-0.6-0.6-0.8-0.9
		c0.1,0,0.2,0,0.2,0s5.5,0.2,8.1-1.2c2.6-1.4,7.9,3.1,7.3,9.4c0,0-1.1,3.9-2.8,4.7c0,0,3.4,5.3,3.6,7.9c0,0,6,1.8,6.9,3.6
		c0,0,6.4-5.5,10.9-4.2c4.4,1.4,7.1,0.6,8.1,3.9s1.4,8.8,1.4,8.8s2.5,0.1,4.9,1c0,0,3.3,0.6,6.3,2l5.1,3.7l1.8,0.3
		c0,0.2-0.1,0.5-0.1,0.7c0,0.7,0,1.3,0,1.9h-0.5H333l0.2,0.9c0,0.3,0.1,0.6,0.1,0.9c0.1,0.3,0.1,0.6,0.1,0.9
		c0.1,0.7,0.1,1.3,0.1,1.9c0,1.3,0,2.5-0.1,3.8c-0.1,2.6-0.4,5-0.7,7.6c-0.2,1.3-0.3,2.6-0.5,3.8c-0.2,1.3-0.4,2.5-0.7,3.7l-0.3,0.8
		c0.4-0.5,0.7-1,1-1.3l-0.1,0.4c-0.3,0.3-0.5,0.5-0.7,0.8c-0.1,0.2-0.2,0.4-0.4,0.5c0-0.1,0-0.2,0.1-0.3l0-0.1
		c-0.2,0.3-0.5,0.7-0.7,1c0.1,0.1,0.1,0.1,0.2,0.1c-0.2,0.2-0.3,0.5-0.5,0.7c-0.2,0.3-0.4,0.6-0.7,0.8l-0.9,0.7
		c-1.2,0.9-2.3,2-3.4,3v0.1c-0.1,0.2-0.2,0.4-0.3,0.6c0,0.1-0.1,0.2-0.1,0.4c0,0.2,0,0.3,0,0.4c0,0.4,0.1,0.7,0.1,1.1l-1.8,2.7v-0.1
		c-0.1,0.2-0.3,0.4-0.4,0.6c-0.1,0.2-0.2,0.5-0.3,0.8c-0.1,0.3-0.1,0.5-0.1,0.7l-0.1,0.7c-0.1,0.9-0.1,1.8-0.2,2.7v0.5l0.4,0.1
		c0.3,0.2,0.6,0.2,0.9,0.2c0.1,0,0.3,0,0.5-0.1c0.1,0,0.2-0.1,0.3-0.1l0.2-0.1c0.2-0.1,0.3-0.2,0.5-0.3l0.3,1.6v0.1l0.1,0.1
		c0.7,1,1.4,1.9,2.1,2.8l0.4,0.5l0.5-0.4c0.2-0.2,0.3-0.3,0.5-0.5c0.2-0.1,0.3-0.3,0.5-0.6c0-0.1,0.1-0.3,0.1-0.6c0-0.1,0-0.2,0-0.2
		V152l-0.1-0.6c-0.1-0.4-0.2-0.9-0.3-1.3c-0.1-0.3-0.3-0.7-0.5-1.1l0.4-3.2l0.8-1.2c0.4,0,0.8-0.1,1.1-0.2c0.5-0.1,0.9-0.2,1.3-0.3
		c0.6-0.1,1.2-0.4,1.8-0.6l1.9-0.5l1.6-0.6l0.6-0.2l0.7-0.4l1.3-0.5l2.5-0.7c0.4,0.2,1.2,0.9,1.2,0.9s0.4,0.6,0.9,1.3
		c0.1,0.2,0.3,0.5,0.4,0.7c0.2,0.3,0.4,0.7,0.7,1s0.6,0.7,1.1,0.9c0.1,0.1,0.1,0.1,0.2,0.1c0.1,0,0.1,0,0.1,0l0.2,0.2l0.3-0.2
		c0.4,0,1.1-0.1,1.5-0.4c0.1-0.1,0.2-0.1,0.3-0.2l0.3-0.2l-0.1-0.3c-0.3-1.4-0.6-2.9-0.9-4.4v-0.3c0-0.1,0-0.1,0-0.3
		c-0.1-0.3-0.2-0.5-0.3-0.7c-0.2-0.4-0.4-0.7-0.6-1s-0.4-0.6-0.6-0.9c-0.1-0.2-0.2-0.3-0.3-0.5c-0.1-0.1-0.2-0.3-0.3-0.5
		c-0.2-0.4-0.4-0.7-0.6-1c-0.1-0.1-0.2-0.3-0.3-0.4c0-0.1-0.1-0.1-0.1-0.2v-0.1c-0.1-0.1-0.1-0.1-0.1-0.2c-0.3-0.7-0.7-1.4-1.2-2
		l0,0c0.7-2.9,1.4-5.6,2.2-8.5c0.5-1.5,0.9-3,1.4-4.5c0.1-0.2,0.1-0.3,0.2-0.5l0.2-0.5l0.4-1c3,1.9,7.7,5.1,8.7,6.9
		c0,0,12.2,2.2,14.1,4.3c0,0,3.9-2.5,7.5-4.6l0.4,0.2c0.2,0.1,0.4,0.3,0.7,0.5c0.1,0.2,0.2,0.3,0.3,0.5c1.3,2,3.6,5.6,4.5,13.9
		c-0.2-0.1-0.4-0.1-0.5-0.2c-0.4-0.5-1-0.8-1.7-0.8c0,0,0,0,0,0c-1.5-0.8-2.9-1.7-3.6-2.7c-2.5-3.6-0.4-3.1-0.4-3.1l-0.7-1.1
		c0.4-0.2,0.8-0.5,1.1-0.8c0.2-0.2,0.3-0.5,0.3-0.7c1.2,0,2.5,0.1,2.9,0.1c-0.1-0.2-0.1-0.5-0.2-0.7l-2.7,0.2c0-0.1,0-0.2,0-0.4
		c0,0.1,0,0.1,0,0.2c0-0.3-0.1-0.6-0.3-0.9c0.1,0.2,0.2,0.4,0.3,0.7c0-0.2-0.1-0.5-0.2-0.7c-0.1-0.1-0.2-0.2-0.2-0.2
		c0,0,0.1,0.1,0.1,0.1c-0.1-0.1-0.1-0.2-0.2-0.2c0,0,0.1,0.1,0.1,0.1c-0.1-0.1-0.2-0.3-0.4-0.4c-0.4-0.3-0.9-0.4-1.5-0.4
		c-0.3,0-0.5,0.1-0.8,0.2c-0.2,0.1-0.4,0.3-0.6,0.5c-0.2,0.3-0.3,0.5-0.4,0.8c0,0.3-0.1,0.5,0,0.8l-0.3,0c0,0,0.1,0.1,0.2,0.2
		c-0.2,0-0.4-0.1-0.7-0.1c0.3,1.4,0,0.2-0.1,0.9c0,0,4.7,6.4,5.6,9.8c0,0.2,0,0.4,0.1,0.6c0.1,0.2,0.1,0.3,0.2,0.5
		c0.1,0.4,0.3,0.8,0.8,1.1c0,0,0,0,0,0c0,0,0.1,0,0.1,0c0.1,0.1,0.2,0.1,0.3,0.2c0.2,0.1,0.4,0.2,0.6,0.2c0.2,0,0.3,0,0.5,0
		c0.2,0,0.4,0,0.6,0c0.1,0,0.2-0.1,0.3-0.1c0.5-0.2,0.9-0.5,1.2-0.9c0.1-0.2,0.2-0.4,0.2-0.6c0.1,0,0.2,0,0.2,0
		c0,0.6,0.1,1.2,0.1,1.8L383.8,146.7z M266.4,127.2C266.4,127.2,266.3,127.2,266.4,127.2c-0.1-0.1-0.1-0.2-0.1-0.3
		C266.3,127,266.3,127.1,266.4,127.2z M334.5,108.8l-0.3,0c0,0,0,0,0,0H334.5z M386.7,340.8c0.1,0,0.3,0,0.4-0.1
		c0.1,0,0.3,0,0.4-0.1C387.2,340.8,386.9,340.8,386.7,340.8z M393.9,50.6c-0.2,0.2-0.3,0.3-0.4,0.5l-0.9,0.8l-0.1-0.1l0.1,0.1
		l-0.1,0.1l0.1,0.1c0,0,0,0,0,0l-0.8,0.1c0.2-0.2,0.5-0.3,0.7-0.5c0.3-0.2,0.5-0.3,0.7-0.5c0.3-0.3,0.6-0.5,0.8-0.8L393.9,50.6z
		 M417.1,322.1c0.6,0.6,1.1,1.3,1.6,2c0.4,0.5,0.7,1,1,1.6c-1.1-1.7-2.2-3-3.1-3.9C416.8,321.9,416.9,322,417.1,322.1z M416,314.4
		c-0.1,1.3-0.2,2.7-0.4,4c-0.1,0.7-0.2,1.4-0.5,2c0,0,0,0,0,0c0,0,0,0,0,0c0,0,0,0,0,0c0,0,0,0-0.1,0
		C415.6,319,415.8,316.8,416,314.4z M395.3,209.8C395.2,209.8,395.2,209.8,395.3,209.8l0-0.2C395.3,209.6,395.3,209.7,395.3,209.8z
		 M398.5,199.5C398.5,199.5,398.5,199.5,398.5,199.5l1-2.9c0,0.1,0.1,0.1,0.1,0.2C399.2,197.6,398.9,198.6,398.5,199.5z
		 M403.1,185.1c-0.6,2.6-1.2,5.1-2,7.6c-0.2,0.7-0.5,1.3-0.8,2c-0.1-0.1-0.1-0.1-0.2-0.2l0.6-1.8l0.4-1.1l0-0.2l1-2.8l0.4-2
		c0.3-1,0.5-1.9,0.7-2.9c0.1-0.6,0.3-1.5,0.6-2.4C403.6,182.6,403.4,183.8,403.1,185.1z M445.1,197.7c0.1,0,0.1,0,0.2,0
		c0.2,0,0.5,0.1,0.7,0.1C445.7,197.8,445.4,197.8,445.1,197.7z M453.7,208.5L453.7,208.5l0.3-0.2c0,0,0,0,0,0
		C453.9,208.4,453.8,208.5,453.7,208.5z"/>
	<path class="st1" d="M494.1,172.4c-0.9-0.4-4.1-2.2-4.1-2.2l-2.3-2.8l0.5-3.7l3.3-2.9l0.5-3.2c-0.6,2.8-6.8,6.2-6.8,6.2
		c0.7,1-0.1,4.8-0.1,4.8c1.3,0.9,3.2,4.3,3.2,4.3c0.9-0.7,3.3-0.1,3.3-0.1c3.6,1.5,4.5,5.8,3,6.8s-3,4.1-3,4.1s-1.2,5.9-2.4,7.4
		c-1.2,1.4-6.6,1.8-6.6,1.8l-5.3-2.2l-2.2,0.2c-1.2,1.4-3.3,3.7-5.2,5.3c-0.3-1-0.7-1.9-0.7-1.9s-3.8-4.7-4.1-6.6
		c-0.3-1.9,2.9-6.2,2.9-6.2l5.1-2.6l1.3-1.8c-0.4-2.2-0.8-6.1-0.6-8.9l-1.6,2.4c1.5,1.4,1.1,4.2,1,4.6c-0.1,0.4-1,2.4-1,2.4
		l-5.9,3.2l-0.5,2.2c-0.3,1.8-3.2,4.1-3.2,4.1s5.3,6.5,6.5,8.4c0.2,0.3,0.4,0.7,0.4,1.1c-0.3,0.2-0.5,0.4-0.8,0.6l1-0.2
		c-0.1,1.6-1.1,3.2-1.1,3.2c0.9,0.8,2.7,2.9,2.7,2.9c2.6-1,4.2,0.8,5.1,0.4c0.9-0.5,4.3-1.7,4.3-1.7l3.6,0.1l2.5,2.8l0.1,4.4
		l2.1,2.4c-1.8-2.3-0.3-9.2-0.3-9.2c-1.2-0.1-3.6-3.2-3.6-3.2c-1.6,0.4-5.4-0.4-5.4-0.4c0,1.1-2,2.6-2,2.6c-3.5,1.8-7.3-0.3-7.1-2.1
		c0-0.6-0.1-1.4-0.3-2.2l1.5-0.2c0-2,2.4-3.5,2.8-3.7c0.4-0.2,2.5-0.8,2.5-0.8l6.3,2.4l2-1.1c1.5-0.9,5.1-0.2,5.1-0.2
		s1.6-8.3,2.2-10.4c0.6-2.1,4.1-2.6,4.1-2.6c0-1.2,0.4-3.9,0.4-3.9C494.7,175.2,495,172.8,494.1,172.4z"/>
	<path class="st1" d="M296.7,133.6c0.1,0.1,0.2,0.2,0.2,0.4c0-0.1-0.1-0.2-0.1-0.2C296.8,133.7,296.7,133.6,296.7,133.6z"/>
	<path class="st1" d="M347.6,218.5c-1.3-0.9-2.9-1.5-4.5-1.5c-0.8,0.1-1.7,0.3-2.5,0.7c-0.8,0.4-1.5,1-2.1,1.7
		c-0.6,0.7-1,1.5-1.2,2.4c-0.3,0.9-0.3,1.8-0.1,2.7c0.1,0.6,0.3,1.1,0.6,1.6c0.3,1,1,1.9,2,2.5c0.1,0,0.1,0.1,0.2,0.1
		c0,0.1-0.1,0.1-0.1,0.1c2.2,1.1,3.4,1.5,5.6,1.1c0.6-0.1,1.2-0.4,1.7-0.8c0.8-0.5,1.5-1.1,2.1-1.9c1-1.4,1.3-3.2,0.9-4.8
		C349.8,220.9,348.9,219.5,347.6,218.5z"/>
	<path class="st1" d="M420.5,370.6c0,0.1,0,0.2,0,0.3C420.5,371.4,420.6,370.4,420.5,370.6z"/>
	<path class="st1" d="M436.3,248.3c0-0.4-0.3-0.8-0.6-1s-0.7-0.3-1.1-0.4c-0.2,0-0.4,0.1-0.6,0.2s-0.4,0.2-0.5,0.4s-0.2,0.4-0.3,0.6
		c0,0.2,0,0.5,0,0.7c0,0,0,0,0,0c0,0.5,0.2,1,0.9,1.2c0.2,0.1,0.5,0.2,0.7,0.2c0.1,0,0.2,0,0.4,0c0.6-0.1,1-0.8,1-0.8c0,0,0,0,0,0
		C436.3,249,436.4,248.7,436.3,248.3z M435.7,247.4C435.7,247.4,435.7,247.4,435.7,247.4c0.2,0.1,0.3,0.2,0.4,0.4
		C435.9,247.6,435.8,247.5,435.7,247.4z M436.3,248.5c0-0.2,0-0.3-0.1-0.5C436.2,248.1,436.3,248.3,436.3,248.5
		C436.3,248.4,436.3,248.5,436.3,248.5z"/>
	<path class="st1" d="M462.6,330.7c-0.1-0.4-0.3-0.8-0.6-1s-0.7-0.3-1.1-0.4c-0.2,0-0.4,0.1-0.6,0.2c-0.2,0.1-0.4,0.2-0.5,0.4
		s-0.2,0.4-0.3,0.6c0,0.2,0,0.5,0,0.7c0,0,0,0,0,0c0,0.5,0.2,1,0.9,1.2c0.2,0.1,0.5,0.2,0.7,0.2c0.1,0,0.2,0,0.4,0
		c0.6-0.1,1-0.8,1-0.8c0,0,0,0,0,0C462.6,331.4,462.7,331.1,462.6,330.7z M462,329.8C462,329.8,462,329.8,462,329.8
		c0.2,0.1,0.3,0.2,0.4,0.4C462.2,330,462.1,329.9,462,329.8z M462.6,330.9c0-0.2,0-0.3-0.1-0.5C462.5,330.5,462.6,330.7,462.6,330.9
		C462.6,330.8,462.6,330.9,462.6,330.9z"/>
</g>
<circle class="st2" cx="250" cy="205" r="41.9"/>
<path class="st3" d="M266.8,201.6v-4.3c0-9.3-7.5-16.9-16.8-16.9c-9.3,0-16.9,7.6-16.9,16.9v4.3h-1.9v19.2c0,4.9,3.9,8.8,8.8,8.8h20
	c4.9,0,8.8-3.9,8.8-8.8v-19.2H266.8z M252.8,221.8h-5.7l1.7-7.9c-1.3-0.5-2.2-1.7-2.2-3.1c0-1.8,1.5-3.3,3.3-3.3
	c1.8,0,3.3,1.5,3.3,3.3c0,1.4-0.9,2.6-2.2,3.1L252.8,221.8z M238.1,201.6v-4.3c0-6.5,5.3-11.9,11.9-11.9c6.5,0,11.9,5.3,11.9,11.9
	v4.3C261.9,201.6,238.1,201.6,238.1,201.6z"/>
</svg>
