<?xml version="1.0" encoding="utf-8"?>
<!-- Generator: Adobe Illustrator 23.1.1, SVG Export Plug-In . SVG Version: 6.00 Build 0)  -->
<svg version="1.1" id="Capa_1" xmlns="http://www.w3.org/2000/svg" xmlns:xlink="http://www.w3.org/1999/xlink" x="0px" y="0px"
	 viewBox="0 0 380 160" style="enable-background:new 0 0 380 160;" xml:space="preserve">
<polygon points="25.3,27.1 3.5,27.1 3.5,5.2 5.5,5.2 5.5,25.1 25.3,25.1 "/>
<polygon points="240,27.1 218.1,27.1 218.1,5.2 220.1,5.2 220.1,25.1 240,25.1 "/>
<polygon points="78.5,27.1 56.6,27.1 56.6,25.1 76.5,25.1 76.5,5.2 78.5,5.2 "/>
<polygon points="39.2,26.8 28.1,15.6 39.2,4.5 40.6,5.9 30.9,15.6 40.6,25.4 "/>
<polygon points="118.8,26.8 117.4,25.4 127.1,15.6 117.4,5.9 118.8,4.5 130,15.6 "/>
<polygon points="5.2,69.2 3.7,67.8 13.5,58.1 3.7,48.4 5.2,46.9 16.3,58.1 "/>
<polygon points="307,69.2 305.6,67.8 315.4,58.1 305.6,48.4 307,46.9 318.2,58.1 "/>
<polygon points="178.8,69.2 167.6,58.1 178.8,46.9 180.2,48.4 170.5,58.1 180.2,67.8 "/>
<polygon points="176.2,25.1 165,14 166.4,12.5 176.2,22.3 185.9,12.5 187.3,14 "/>
<polygon points="342.5,25.1 331.4,14 332.8,12.5 342.5,22.3 352.2,12.5 353.7,14 "/>
<path d="M106.2,27.1H83.3V4.2h22.9V27.1z M85.3,25.1h18.9V6.2H85.3V25.1z"/>
<path d="M78.5,69.5H55.6V46.6h22.9V69.5z M57.6,67.5h18.9V48.6H57.6V67.5z"/>
<path d="M132.8,69.5h-22.9V46.6h22.9V69.5z M111.9,67.5h18.9V48.6h-18.9V67.5z"/>
<path d="M294.6,69.5h-22.9V46.6h22.9V69.5z M273.8,67.5h18.9V48.6h-18.9V67.5z"/>
<polygon points="378,111.9 356.1,111.9 356.1,109.9 376,109.9 376,90.1 378,90.1 "/>
<polygon points="30.5,68.5 28.5,68.5 28.5,46.6 50.4,46.6 50.4,48.6 30.5,48.6 "/>
<path d="M265.7,27.1h-22.9V4.2h22.9V27.1z M244.9,25.1h18.9V6.2h-18.9V25.1z"/>
<path d="M94.7,23.1c-1.1,0-2.1-0.9-2.1-2.1s0.9-2.1,2.1-2.1c1.1,0,2.1,0.9,2.1,2.1S95.9,23.1,94.7,23.1z"/>
<path d="M106.4,69.5H83.5V46.6h22.9V69.5z M85.5,67.5h18.9V48.6H85.5V67.5z"/>
<path d="M95,65.5c-1.1,0-2.1-0.9-2.1-2.1c0-1.1,0.9-2.1,2.1-2.1c1.1,0,2.1,0.9,2.1,2.1C97,64.6,96.1,65.5,95,65.5z"/>
<polygon points="172.4,110.9 170.4,110.9 170.4,91.1 150.6,91.1 150.6,89.1 172.4,89.1 "/>
<path d="M163,96.1c0-1.1,0.9-2.1,2.1-2.1c1.1,0,2.1,0.9,2.1,2.1c0,1.1-0.9,2.1-2.1,2.1C164,98.1,163,97.2,163,96.1z"/>
<polygon points="76,89.1 78,89.1 78,108.9 97.9,108.9 97.9,110.9 76,110.9 "/>
<path d="M85.4,103.9c0,1.1-0.9,2.1-2.1,2.1c-1.1,0-2.1-0.9-2.1-2.1c0-1.1,0.9-2.1,2.1-2.1C84.5,101.9,85.4,102.8,85.4,103.9z"/>
<polygon points="192.9,154.4 190.9,154.4 190.9,132.5 212.8,132.5 212.8,134.5 192.9,134.5 "/>
<path d="M198.3,141.6c-1.1,0-2.1-0.9-2.1-2.1c0-1.1,0.9-2.1,2.1-2.1s2.1,0.9,2.1,2.1C200.3,140.7,199.4,141.6,198.3,141.6z"/>
<path d="M213.8,69.5h-22.9V46.6h22.9V69.5z M192.9,67.5h18.9V48.6h-18.9V67.5z"/>
<path d="M202.4,65.5c-1.1,0-2.1-0.9-2.1-2.1c0-1.1,0.9-2.1,2.1-2.1c1.1,0,2.1,0.9,2.1,2.1C204.4,64.6,203.5,65.5,202.4,65.5z"/>
<polygon points="266.2,69.5 244.3,69.5 244.3,67.5 264.2,67.5 264.2,48.6 244.3,48.6 244.3,46.6 266.2,46.6 "/>
<path d="M259.8,60.1c-1.1,0-2.1-0.9-2.1-2.1s0.9-2.1,2.1-2.1c1.1,0,2.1,0.9,2.1,2.1S261,60.1,259.8,60.1z"/>
<polygon points="279.8,112 257.9,112 257.9,110 277.8,110 277.8,91.1 257.9,91.1 257.9,89.1 279.8,89.1 "/>
<path d="M273.4,102.6c-1.1,0-2.1-0.9-2.1-2.1c0-1.1,0.9-2.1,2.1-2.1c1.1,0,2.1,0.9,2.1,2.1C275.5,101.7,274.5,102.6,273.4,102.6z"/>
<polygon points="306,112 284.1,112 284.1,89.1 306,89.1 306,91.1 286.1,91.1 286.1,110 306,110 "/>
<path d="M290.5,98.5c1.1,0,2.1,0.9,2.1,2.1c0,1.1-0.9,2.1-2.1,2.1c-1.1,0-2.1-0.9-2.1-2.1C288.4,99.4,289.4,98.5,290.5,98.5z"/>
<polygon points="124.5,112 102.6,112 102.6,89.1 124.5,89.1 124.5,91.1 104.6,91.1 104.6,110 124.5,110 "/>
<path d="M109,98.5c1.1,0,2.1,0.9,2.1,2.1c0,1.1-0.9,2.1-2.1,2.1c-1.1,0-2.1-0.9-2.1-2.1C107,99.4,107.9,98.5,109,98.5z"/>
<polygon points="330.7,68.5 328.7,68.5 328.7,46.6 350.5,46.6 350.5,48.6 330.7,48.6 "/>
<path d="M335.1,56c1.1,0,2.1,0.9,2.1,2.1s-0.9,2.1-2.1,2.1c-1.1,0-2.1-0.9-2.1-2.1S333.9,56,335.1,56z"/>
<polygon points="377.6,69.5 355.7,69.5 355.7,46.6 377.6,46.6 377.6,48.6 357.7,48.6 357.7,67.5 377.6,67.5 "/>
<path d="M362.1,56c1.1,0,2.1,0.9,2.1,2.1s-0.9,2.1-2.1,2.1c-1.1,0-2.1-0.9-2.1-2.1S361,56,362.1,56z"/>
<polygon points="170.7,155.1 169.3,153.7 179,144 169.3,134.3 170.7,132.8 181.9,144 "/>
<polygon points="51.4,155.4 29.5,155.4 29.5,153.4 49.4,153.4 49.4,133.5 51.4,133.5 "/>
<polygon points="105.4,155.4 83.5,155.4 83.5,132.5 105.4,132.5 105.4,134.5 85.5,134.5 85.5,153.4 105.4,153.4 "/>
<path d="M92.7,144c0,1.1-0.9,2.1-2.1,2.1c-1.1,0-2.1-0.9-2.1-2.1c0-1.1,0.9-2.1,2.1-2.1C91.8,141.9,92.7,142.9,92.7,144z"/>
<polygon points="240,155.4 218.1,155.4 218.1,132.5 240,132.5 240,134.5 220.1,134.5 220.1,153.4 240,153.4 "/>
<path d="M227.2,144c0,1.1-0.9,2.1-2.1,2.1c-1.1,0-2.1-0.9-2.1-2.1c0-1.1,0.9-2.1,2.1-2.1C226.3,141.9,227.2,142.9,227.2,144z"/>
<polygon points="132.5,155.4 110.6,155.4 110.6,153.4 130.5,153.4 130.5,134.5 110.6,134.5 110.6,132.5 132.5,132.5 "/>
<path d="M123.4,144c0-1.1,0.9-2.1,2.1-2.1s2.1,0.9,2.1,2.1c0,1.1-0.9,2.1-2.1,2.1S123.4,145.1,123.4,144z"/>
<path d="M78.5,155.4H55.6v-22.9h22.9V155.4z M57.6,153.4h18.9v-18.9H57.6V153.4z"/>
<path d="M67,151.4c-1.1,0-2.1-0.9-2.1-2.1c0-1.1,0.9-2.1,2.1-2.1c1.1,0,2.1,0.9,2.1,2.1C69.1,150.5,68.2,151.4,67,151.4z"/>
<path d="M25.3,155.4H2.5v-22.9h22.9V155.4z M4.5,153.4h18.9v-18.9H4.5V153.4z"/>
<path d="M13.9,151.4c-1.1,0-2.1-0.9-2.1-2.1c0-1.1,0.9-2.1,2.1-2.1c1.1,0,2.1,0.9,2.1,2.1C15.9,150.5,15,151.4,13.9,151.4z"/>
<path d="M159.6,155.4h-22.9v-22.9h22.9V155.4z M138.7,153.4h18.9v-18.9h-18.9V153.4z"/>
<polygon points="158.6,27.1 136.7,27.1 136.7,4.2 158.6,4.2 158.6,6.2 138.7,6.2 138.7,25.1 158.6,25.1 "/>
<path d="M140.7,15.6c0-1.1,0.9-2.1,2.1-2.1c1.1,0,2.1,0.9,2.1,2.1c0,1.1-0.9,2.1-2.1,2.1C141.6,17.7,140.7,16.8,140.7,15.6z"/>
<polygon points="199,112 177.1,112 177.1,110 197,110 197,90.1 199,90.1 "/>
<polygon points="251.7,112 229.8,112 229.8,110 249.7,110 249.7,90.1 251.7,90.1 "/>
<polygon points="13.9,110 2.7,98.8 4.2,97.4 13.9,107.2 23.6,97.4 25,98.8 "/>
<polygon points="216.1,110 205,98.8 206.4,97.4 216.1,107.2 225.9,97.4 227.3,98.8 "/>
<polygon points="320.8,110 309.6,98.8 311,97.4 320.8,107.2 330.5,97.4 331.9,98.8 "/>
<polygon points="254.8,152.5 243.6,141.4 245,140 254.8,149.7 264.5,140 265.9,141.4 "/>
<polygon points="30.5,110.9 28.5,110.9 28.5,89.1 50.4,89.1 50.4,91.1 30.5,91.1 "/>
<path d="M32.5,100.5"/>
<polygon points="321,27.1 299.2,27.1 299.2,4.2 321,4.2 321,6.2 301.2,6.2 301.2,25.1 321,25.1 "/>
<path d="M303.1,15.6c0-1.1,0.9-2.1,2.1-2.1c1.1,0,2.1,0.9,2.1,2.1c0,1.1-0.9,2.1-2.1,2.1C304.1,17.7,303.1,16.8,303.1,15.6z"/>
<polygon points="273.8,26.1 271.8,26.1 271.8,4.2 293.7,4.2 293.7,6.2 273.8,6.2 "/>
<path d="M275.8,15.6c0-1.1,0.9-2.1,2.1-2.1c1.1,0,2.1,0.9,2.1,2.1c0,1.1-0.9,2.1-2.1,2.1C276.7,17.7,275.8,16.8,275.8,15.6z"/>
</svg>
