<?xml version="1.0" encoding="utf-8"?>
<!-- Generator: Adobe Illustrator 23.1.1, SVG Export Plug-In . SVG Version: 6.00 Build 0)  -->
<svg version="1.1" id="Capa_1" xmlns="http://www.w3.org/2000/svg" xmlns:xlink="http://www.w3.org/1999/xlink" x="0px" y="0px"
	 viewBox="0 0 340 400" style="enable-background:new 0 0 340 400;" xml:space="preserve">
<style type="text/css">
	.st0{fill:#F8E7BC;}
	.st1{fill:#FFDF00;}
	.st2{fill:#DF172F;}
	.st3{fill:#FFFFFF;}
	.st4{fill:#0F5AD2;}
	.st5{fill:#171829;}
</style>
<g>
	<g>
		<rect x="140.8" y="1.8" class="st0" width="58.7" height="58.7"/>
		<rect x="210.3" y="1.8" class="st0" width="58.7" height="58.7"/>
		<rect x="278.7" y="1.8" class="st0" width="58.7" height="58.7"/>
	</g>
	<g>
		<rect x="2.6" y="68.7" class="st0" width="58.7" height="58.7"/>
		<rect x="72.1" y="68.7" class="st0" width="58.7" height="58.7"/>
		<rect x="140.8" y="68.7" class="st0" width="58.7" height="58.7"/>
		<rect x="210.3" y="68.7" class="st0" width="58.7" height="58.7"/>
		<rect x="278.7" y="68.7" class="st0" width="58.7" height="58.7"/>
	</g>
	<g>
		<rect x="2.6" y="137.4" class="st0" width="58.7" height="58.7"/>
		<rect x="72.1" y="137.4" class="st0" width="58.7" height="58.7"/>
		<rect x="140.8" y="137.4" class="st0" width="58.7" height="58.7"/>
		<rect x="210.3" y="137.4" class="st0" width="58.7" height="58.7"/>
		<rect x="278.7" y="137.4" class="st0" width="58.7" height="58.7"/>
	</g>
	<g>
		<rect x="2.6" y="204.3" class="st0" width="58.7" height="58.7"/>
		<rect x="140.8" y="204.3" class="st0" width="58.7" height="58.7"/>
		<rect x="209.5" y="204.3" class="st0" width="58.7" height="58.7"/>
		<rect x="279" y="204.3" class="st0" width="58.7" height="58.7"/>
		<rect x="2.6" y="273" class="st0" width="58.7" height="58.7"/>
	</g>
	<g>
		<rect x="71.3" y="273" class="st0" width="58.7" height="58.7"/>
		<rect x="140.8" y="273" class="st0" width="58.7" height="58.7"/>
		<rect x="209.5" y="273" class="st0" width="58.7" height="58.7"/>
		<rect x="279" y="273" class="st0" width="58.7" height="58.7"/>
		<rect x="2.6" y="340" class="st0" width="58.7" height="58.7"/>
	</g>
	<g>
		<rect x="71.3" y="340" class="st0" width="58.7" height="58.7"/>
		<rect x="140.8" y="340" class="st0" width="58.7" height="58.7"/>
		<rect x="209.5" y="340" class="st0" width="58.7" height="58.7"/>
	</g>
	<g>
		<g>
			<rect x="167.5" y="230.7" class="st1" width="27.1" height="27.1"/>
			<polygon class="st2" points="194.6,257.8 167.5,230.7 194.6,230.7 			"/>
		</g>
	</g>
	<g>
		<g>
			<path d="M157.9,21.4h-6.4l-1.2,3.7h-3.9L153,7.3h3.4L163,25h-3.9L157.9,21.4z M152.5,18.4h4.4l-2.2-6.7L152.5,18.4z"/>
		</g>
		<g>
			<path d="M217.2,25V7.3h6.2c2.2,0,3.8,0.4,4.9,1.2c1.1,0.8,1.7,2,1.7,3.6c0,0.9-0.2,1.6-0.7,2.3c-0.4,0.7-1.1,1.1-1.9,1.5
				c0.9,0.2,1.6,0.7,2.2,1.4c0.5,0.7,0.8,1.5,0.8,2.5c0,1.7-0.5,3-1.6,3.9s-2.6,1.3-4.7,1.3H217.2z M220.9,14.7h2.7
				c1.8,0,2.8-0.8,2.8-2.2c0-0.8-0.2-1.4-0.7-1.7c-0.5-0.4-1.2-0.5-2.2-0.5h-2.6V14.7z M220.9,17.3v4.8h3.1c0.9,0,1.5-0.2,2-0.6
				c0.5-0.4,0.7-1,0.7-1.7c0-1.6-0.8-2.5-2.5-2.5H220.9z"/>
		</g>
		<g>
			<path d="M300.5,19.1c-0.1,1.9-0.8,3.4-2.1,4.5c-1.3,1.1-3,1.6-5,1.6c-2.3,0-4.1-0.8-5.4-2.3c-1.3-1.5-2-3.6-2-6.3v-1.1
				c0-1.7,0.3-3.2,0.9-4.5c0.6-1.3,1.5-2.3,2.6-3c1.1-0.7,2.4-1,3.9-1c2.1,0,3.7,0.5,5,1.6s2,2.6,2.2,4.6h-3.7c-0.1-1.1-0.4-2-1-2.5
				c-0.5-0.5-1.4-0.8-2.5-0.8c-1.2,0-2.1,0.4-2.7,1.3c-0.6,0.9-0.9,2.2-0.9,4.1v1.3c0,1.9,0.3,3.3,0.9,4.2c0.6,0.9,1.5,1.3,2.8,1.3
				c1.1,0,2-0.3,2.5-0.8c0.6-0.5,0.9-1.3,1-2.4H300.5z"/>
		</g>
		<g>
			<path d="M9.2,93.1V75.3h5.5c1.6,0,3,0.4,4.2,1.1c1.2,0.7,2.2,1.7,2.9,3c0.7,1.3,1,2.8,1,4.4v0.8c0,1.7-0.3,3.1-1,4.4
				c-0.7,1.3-1.6,2.3-2.9,3s-2.6,1.1-4.2,1.1H9.2z M12.8,78.3v11.9h1.8c1.4,0,2.5-0.5,3.3-1.4c0.8-0.9,1.1-2.3,1.2-4v-0.9
				c0-1.8-0.4-3.2-1.1-4.1c-0.7-0.9-1.8-1.4-3.3-1.4H12.8z"/>
		</g>
		<g>
			<path d="M89.4,85.4h-7v4.8h8.3v2.9H78.7V75.3h11.9v3h-8.2v4.2h7V85.4z"/>
		</g>
		<g>
			<path d="M158.6,85.8h-7v7.3h-3.7V75.3h11.6v3h-7.9v4.6h7V85.8z"/>
		</g>
		<g>
			<path d="M231.3,90.8c-0.7,0.8-1.6,1.4-2.8,1.8c-1.2,0.4-2.5,0.7-4,0.7c-1.5,0-2.9-0.3-4-1c-1.2-0.7-2.1-1.6-2.7-2.9
				c-0.6-1.3-1-2.8-1-4.5v-1.2c0-1.8,0.3-3.3,0.9-4.6c0.6-1.3,1.5-2.3,2.6-3c1.1-0.7,2.4-1,4-1c2.1,0,3.8,0.5,4.9,1.5
				c1.2,1,1.9,2.5,2.1,4.4h-3.6c-0.2-1-0.5-1.8-1.1-2.2c-0.6-0.5-1.3-0.7-2.3-0.7c-1.2,0-2.2,0.5-2.8,1.4c-0.7,0.9-1,2.3-1,4.2v1.1
				c0,1.9,0.4,3.3,1.1,4.2s1.7,1.4,3.1,1.4c1.4,0,2.4-0.3,2.9-0.9v-3.1h-3.3v-2.7h7V90.8z"/>
		</g>
		<g>
			<path d="M301,93.1h-3.7v-7.6h-7.1v7.6h-3.7V75.3h3.7v7.2h7.1v-7.2h3.7V93.1z"/>
		</g>
		<g>
			<path d="M13.1,160.9H9.4v-17.8h3.7V160.9z"/>
		</g>
		<g>
			<path d="M85.8,143.1h3.7v12.3c0,1.1-0.2,2.1-0.8,3c-0.5,0.9-1.2,1.5-2.1,2s-1.9,0.7-3.1,0.7c-1.9,0-3.3-0.5-4.4-1.4
				c-1-1-1.6-2.3-1.6-4.1h3.7c0,0.9,0.2,1.5,0.5,1.9c0.4,0.4,0.9,0.6,1.7,0.6c0.7,0,1.3-0.2,1.7-0.7c0.4-0.5,0.6-1.2,0.6-2.1V143.1z
				"/>
		</g>
		<g>
			<path d="M153.4,153.8l-1.9,2.1v5.1h-3.7v-17.8h3.7v8.1l1.6-2.2l4.5-5.8h4.5l-6.3,7.9l6.5,9.9H158L153.4,153.8z"/>
		</g>
		<g>
			<path d="M220.9,158h7.8v2.9h-11.4v-17.8h3.7V158z"/>
		</g>
		<g>
			<path d="M291.4,143.1l4.6,12.9l4.5-12.9h4.8v17.8h-3.7v-4.9l0.4-8.4l-4.8,13.2h-2.5l-4.8-13.2l0.4,8.4v4.9h-3.7v-17.8H291.4z"/>
		</g>
		<g>
			<path d="M23.6,229H20l-7.1-11.7V229H9.2v-17.8h3.7l7.1,11.7v-11.7h3.6V229z"/>
		</g>
		<g>
			<path d="M161.9,220.6c0,1.8-0.3,3.3-0.9,4.6s-1.5,2.3-2.7,3.1c-1.2,0.7-2.5,1.1-4,1.1c-1.5,0-2.8-0.4-3.9-1.1
				c-1.2-0.7-2.1-1.7-2.7-3c-0.6-1.3-1-2.8-1-4.5v-0.9c0-1.8,0.3-3.3,0.9-4.6c0.6-1.3,1.5-2.4,2.7-3.1s2.5-1.1,3.9-1.1
				s2.8,0.4,3.9,1.1c1.2,0.7,2,1.7,2.7,3.1c0.6,1.3,0.9,2.9,0.9,4.6V220.6z M158.2,219.8c0-1.9-0.3-3.3-1-4.2s-1.6-1.5-2.9-1.5
				c-1.2,0-2.2,0.5-2.8,1.4c-0.7,1-1,2.4-1,4.2v0.9c0,1.8,0.3,3.2,1,4.2s1.6,1.5,2.9,1.5c1.2,0,2.2-0.5,2.8-1.4c0.7-1,1-2.4,1-4.2
				V219.8z"/>
		</g>
		<g>
			<path d="M220.2,222.8v6.3h-3.7v-17.8h6.9c1.3,0,2.5,0.2,3.5,0.7c1,0.5,1.8,1.2,2.3,2.1c0.5,0.9,0.8,1.9,0.8,3.1
				c0,1.7-0.6,3.1-1.8,4.1s-2.8,1.5-5,1.5H220.2z M220.2,219.9h3.3c1,0,1.7-0.2,2.2-0.7c0.5-0.5,0.8-1.1,0.8-2
				c0-0.9-0.3-1.6-0.8-2.1c-0.5-0.5-1.2-0.8-2.1-0.8h-3.4V219.9z"/>
		</g>
		<g>
			<path d="M300.5,220.6c0,1.7-0.3,3.1-0.8,4.3s-1.3,2.2-2.2,2.9l3,2.3l-2.3,2.1l-3.8-3c-0.4,0.1-0.9,0.1-1.3,0.1
				c-1.5,0-2.8-0.4-3.9-1.1c-1.2-0.7-2.1-1.7-2.7-3c-0.6-1.3-1-2.8-1-4.5v-0.9c0-1.8,0.3-3.3,0.9-4.6c0.6-1.3,1.5-2.4,2.7-3.1
				s2.5-1.1,3.9-1.1s2.8,0.4,3.9,1.1c1.2,0.7,2,1.7,2.7,3.1c0.6,1.3,0.9,2.9,0.9,4.6V220.6z M296.8,219.8c0-1.9-0.3-3.3-1-4.2
				s-1.6-1.5-2.9-1.5c-1.2,0-2.2,0.5-2.8,1.4c-0.7,1-1,2.4-1,4.2v0.9c0,1.8,0.3,3.2,1,4.2s1.6,1.5,2.9,1.5c1.2,0,2.2-0.5,2.8-1.4
				c0.7-1,1-2.4,1-4.2V219.8z"/>
		</g>
		<g>
			<path d="M17.1,291.3h-2.9v6.5h-3.7V280h6.6c2.1,0,3.7,0.5,4.9,1.4c1.1,0.9,1.7,2.3,1.7,4c0,1.2-0.3,2.2-0.8,3
				c-0.5,0.8-1.3,1.5-2.4,1.9l3.8,7.3v0.2h-3.9L17.1,291.3z M14.2,288.3h3c0.9,0,1.6-0.2,2.1-0.7c0.5-0.5,0.8-1.1,0.8-1.9
				c0-0.8-0.2-1.5-0.7-2c-0.5-0.5-1.2-0.7-2.2-0.7h-2.9V288.3z"/>
		</g>
		<g>
			<path d="M87.1,292.7c0-0.7-0.2-1.2-0.7-1.6s-1.4-0.8-2.6-1.2s-2.3-0.8-3-1.2c-2-1.1-3-2.6-3-4.4c0-1,0.3-1.8,0.8-2.6
				c0.5-0.8,1.3-1.3,2.3-1.8c1-0.4,2.2-0.6,3.4-0.6c1.3,0,2.4,0.2,3.4,0.7c1,0.5,1.8,1.1,2.3,1.9c0.5,0.8,0.8,1.8,0.8,2.9h-3.7
				c0-0.8-0.3-1.4-0.8-1.9c-0.5-0.5-1.2-0.7-2.2-0.7c-0.9,0-1.6,0.2-2.1,0.6c-0.5,0.4-0.7,0.9-0.7,1.5c0,0.6,0.3,1.1,0.9,1.5
				c0.6,0.4,1.4,0.8,2.6,1.1c2.1,0.6,3.6,1.4,4.6,2.3c1,0.9,1.4,2.1,1.4,3.5c0,1.5-0.6,2.7-1.7,3.6c-1.2,0.9-2.7,1.3-4.7,1.3
				c-1.4,0-2.6-0.2-3.7-0.8c-1.1-0.5-2-1.2-2.6-2.1c-0.6-0.9-0.9-1.9-0.9-3h3.7c0,2,1.2,2.9,3.5,2.9c0.9,0,1.5-0.2,2-0.5
				C86.8,293.8,87.1,293.3,87.1,292.7z"/>
		</g>
		<g>
			<path d="M160.7,282.6h-5.4v14.8h-3.7v-14.8h-5.4v-3h14.5V282.6z"/>
		</g>
		<g>
			<path d="M230,279.6v11.7c0,1.9-0.6,3.5-1.8,4.6s-2.9,1.7-5,1.7c-2.1,0-3.7-0.5-4.9-1.6s-1.8-2.6-1.9-4.5v-11.8h3.7v11.7
				c0,1.2,0.3,2,0.8,2.5s1.3,0.8,2.3,0.8c2.1,0,3.1-1.1,3.1-3.2v-11.8H230z"/>
		</g>
		<g>
			<path d="M292.5,293l4-13.4h4.1l-6.2,17.8h-3.8l-6.2-17.8h4.1L292.5,293z"/>
		</g>
		<g>
			<path d="M24.3,359.2l2.4-12.6h3.7l-3.9,17.8h-3.7l-2.9-11.9L17,364.3h-3.7l-3.9-17.8H13l2.4,12.6l2.9-12.6h3.1L24.3,359.2z"/>
		</g>
		<g>
			<path d="M84.2,353.8l3.3-6.1h4.2l-5.2,8.8l5.3,9h-4.3l-3.4-6.2l-3.4,6.2h-4.3l5.3-9l-5.2-8.8h4.2L84.2,353.8z"/>
		</g>
		<g>
			<path d="M153.5,355.6l3.7-8h4l-5.8,11.3v6.4h-3.7V359l-5.8-11.3h4L153.5,355.6z"/>
		</g>
		<g>
			<path d="M220.4,362.5h9v2.9h-13.5v-2.1l8.8-12.7h-8.8v-3h13.3v2.1L220.4,362.5z"/>
		</g>
	</g>
	<g>
		<rect x="167" y="29.3" class="st3" width="13.6" height="27.1"/>
		<polygon class="st4" points="194.1,56.4 180.5,56.4 180.5,29.3 194.1,29.3 184.1,42.8 		"/>
	</g>
	<polygon class="st2" points="263.1,29.3 249.6,29.3 236,29.3 236,56.4 249.6,56.4 263.1,56.4 253.1,42.8 	"/>
	<g>
		
			<rect x="316.2" y="40" transform="matrix(6.123234e-17 -1 1 6.123234e-17 265.2879 372.3537)" class="st4" width="5.3" height="27.1"/>
		
			<rect x="316.2" y="34.6" transform="matrix(6.123234e-17 -1 1 6.123234e-17 270.6283 367.0133)" class="st3" width="5.3" height="27.1"/>
		
			<rect x="316.2" y="29.3" transform="matrix(6.123234e-17 -1 1 6.123234e-17 276.0102 361.6315)" class="st2" width="5.3" height="27.1"/>
		
			<rect x="316.2" y="23.9" transform="matrix(6.123234e-17 -1 1 6.123234e-17 281.3506 356.291)" class="st3" width="5.3" height="27.1"/>
		
			<rect x="316.2" y="18.6" transform="matrix(6.123234e-17 -1 1 6.123234e-17 286.691 350.9506)" class="st4" width="5.3" height="27.1"/>
	</g>
	<g>
		<rect x="29.2" y="94.6" class="st1" width="27.1" height="9"/>
		<rect x="29.2" y="103.6" class="st4" width="27.1" height="9"/>
		<rect x="29.2" y="112.6" class="st1" width="27.1" height="9"/>
	</g>
	<g>
		
			<rect x="105.5" y="87.8" transform="matrix(-1.836970e-16 1 -1 -1.836970e-16 213.6265 -10.9181)" class="st4" width="13.6" height="27.1"/>
		
			<rect x="105.5" y="101.4" transform="matrix(-1.836970e-16 1 -1 -1.836970e-16 227.1814 2.6368)" class="st2" width="13.6" height="27.1"/>
	</g>
	<g>
		<rect x="167" y="94.6" class="st3" width="27.1" height="27.1"/>
		
			<rect x="170.8" y="98.4" transform="matrix(0.7071 -0.7071 0.7071 0.7071 -23.5888 159.3149)" class="st2" width="19.4" height="19.4"/>
	</g>
	<g>
		<rect x="28.2" y="162.7" class="st1" width="27.1" height="27.1"/>
		<circle class="st5" cx="41.8" cy="176.3" r="7.9"/>
	</g>
	<g>
		<rect x="236.4" y="94.6" class="st1" width="4.5" height="27.1"/>
		<rect x="240.9" y="94.6" class="st4" width="4.5" height="27.1"/>
		<rect x="245.5" y="94.6" class="st1" width="4.5" height="27.1"/>
		<rect x="250" y="94.6" class="st4" width="4.5" height="27.1"/>
		<rect x="254.5" y="94.6" class="st1" width="4.5" height="27.1"/>
		<rect x="259" y="94.6" class="st4" width="4.5" height="27.1"/>
	</g>
	<g>
		<rect x="305.4" y="94.6" class="st3" width="13.6" height="27.1"/>
		<rect x="318.9" y="94.6" class="st2" width="13.6" height="27.1"/>
	</g>
	<g>
		<rect x="98.1" y="163.5" class="st4" width="27.1" height="9"/>
		<rect x="98.1" y="172.5" class="st3" width="27.1" height="9"/>
		<rect x="98.1" y="181.5" class="st4" width="27.1" height="9"/>
	</g>
	<g>
		<rect x="167" y="163.5" class="st1" width="13.6" height="27.1"/>
		<rect x="180.5" y="163.5" class="st4" width="13.6" height="27.1"/>
	</g>
	<g>
		<rect x="250" y="164" class="st5" width="13.6" height="13.6"/>
		<rect x="236.4" y="164" class="st1" width="13.6" height="13.6"/>
		<rect x="250" y="177.6" class="st1" width="13.6" height="13.6"/>
		<rect x="236.4" y="177.6" class="st5" width="13.6" height="13.6"/>
	</g>
	<g>
		<g>
			<rect x="36" y="230.6" class="st3" width="6.8" height="6.8"/>
			<rect x="29.1" y="230.6" class="st4" width="6.8" height="6.8"/>
			<rect x="36" y="237.4" class="st4" width="6.8" height="6.8"/>
			<rect x="29.1" y="237.4" class="st3" width="6.8" height="6.8"/>
		</g>
		<g>
			<rect x="49.6" y="230.6" class="st3" width="6.8" height="6.8"/>
			<rect x="42.8" y="230.6" class="st4" width="6.8" height="6.8"/>
			<rect x="49.6" y="237.4" class="st4" width="6.8" height="6.8"/>
			<rect x="42.8" y="237.4" class="st3" width="6.8" height="6.8"/>
		</g>
		<g>
			<rect x="36" y="244.2" class="st3" width="6.8" height="6.8"/>
			<rect x="29.1" y="244.2" class="st4" width="6.8" height="6.8"/>
			<rect x="36" y="251" class="st4" width="6.8" height="6.8"/>
			<rect x="29.1" y="251" class="st3" width="6.8" height="6.8"/>
		</g>
		<g>
			<rect x="49.6" y="244.2" class="st3" width="6.8" height="6.8"/>
			<rect x="42.8" y="244.2" class="st4" width="6.8" height="6.8"/>
			<rect x="49.6" y="251" class="st4" width="6.8" height="6.8"/>
			<rect x="42.8" y="251" class="st3" width="6.8" height="6.8"/>
		</g>
	</g>
	<g>
		<rect x="305.3" y="164" class="st4" width="27.1" height="27.1"/>
		<polygon class="st3" points="332.4,166.3 332.4,164 330.2,164 318.8,175.4 307.5,164 305.3,164 305.3,166.2 316.6,177.6 
			305.3,188.9 305.3,191.1 307.5,191.1 318.8,179.8 330.2,191.1 332.4,191.1 332.4,188.9 321,177.6 		"/>
	</g>
	<g>
		
			<rect x="163" y="308.5" transform="matrix(6.123234e-17 -1 1 6.123234e-17 -136.5077 489.6132)" class="st4" width="27.1" height="9"/>
		
			<rect x="172" y="308.5" transform="matrix(6.123234e-17 -1 1 6.123234e-17 -127.4711 498.6498)" class="st3" width="27.1" height="9"/>
		
			<rect x="181.1" y="308.5" transform="matrix(6.123234e-17 -1 1 6.123234e-17 -118.4345 507.6864)" class="st2" width="27.1" height="9"/>
	</g>
	<g>
		<rect x="98" y="299.5" class="st3" width="27.1" height="27.1"/>
		<rect x="101.8" y="303.4" class="st4" width="19.4" height="19.4"/>
	</g>
	<g>
		<rect x="249.2" y="299.5" class="st3" width="13.6" height="13.6"/>
		<rect x="235.6" y="299.5" class="st2" width="13.6" height="13.6"/>
		<rect x="249.2" y="313.1" class="st2" width="13.6" height="13.6"/>
		<rect x="235.6" y="313.1" class="st3" width="13.6" height="13.6"/>
	</g>
	<g>
		<rect x="305.8" y="298.8" class="st3" width="27.1" height="27.1"/>
		<polygon class="st2" points="332.9,301.1 332.9,298.8 330.7,298.8 319.4,310.1 308,298.8 305.8,298.8 305.8,301 317.2,312.3 
			305.8,323.7 305.8,325.9 308,325.9 319.4,314.5 330.7,325.9 332.9,325.9 332.9,323.7 321.6,312.3 		"/>
	</g>
	<g>
		<rect x="29.2" y="365.9" class="st4" width="27.1" height="27.1"/>
		<rect x="33" y="369.7" class="st3" width="19.4" height="19.4"/>
		<rect x="37" y="373.7" class="st2" width="11.5" height="11.5"/>
	</g>
	<g>
		<rect x="29.2" y="300.2" class="st2" width="27.1" height="27.1"/>
		<polygon class="st3" points="44.4,312.2 44.4,300.1 41.1,300.1 41.1,312.2 29.1,312.2 29.1,315.4 41.1,315.4 41.1,327.4 
			44.4,327.4 44.4,315.4 56.4,315.4 56.4,312.2 		"/>
	</g>
	<g>
		<rect x="304.7" y="231.5" class="st1" width="27.1" height="27.1"/>
	</g>
	<g>
		<rect x="235.6" y="230.7" class="st4" width="27.1" height="27.1"/>
		<rect x="239.5" y="234.5" class="st3" width="19.4" height="19.4"/>
	</g>
	<rect x="72.1" y="204.3" class="st0" width="58.7" height="58.7"/>
	<g>
		<path d="M93.6,229.1h-3.7l-7.1-11.7v11.7h-3.7v-17.8h3.7l7.1,11.7v-11.7h3.6V229.1z M91,206.7c0,0.9-0.3,1.7-0.8,2.3
			c-0.5,0.6-1.2,0.9-2,0.9c-0.3,0-0.6,0-0.8-0.1c-0.2-0.1-0.6-0.2-1-0.4s-0.7-0.4-0.9-0.4c-0.2-0.1-0.4-0.1-0.6-0.1
			c-0.3,0-0.5,0.1-0.7,0.3c-0.2,0.2-0.3,0.5-0.3,0.9l-2.1-0.1c0-0.9,0.3-1.7,0.8-2.3s1.2-1,2-1c0.2,0,0.5,0,0.7,0.1
			c0.2,0.1,0.6,0.2,1.1,0.4s0.8,0.4,1,0.4c0.2,0,0.4,0.1,0.6,0.1c0.3,0,0.5-0.1,0.7-0.3c0.2-0.2,0.3-0.5,0.3-0.9L91,206.7z"/>
	</g>
	<g>
		<rect x="98.2" y="230.7" class="st3" width="27.1" height="27.1"/>
	</g>
	<g>
		<rect x="98" y="366.9" class="st3" width="27.1" height="27.1"/>
		<polygon class="st4" points="113.2,378.8 113.2,366.8 109.9,366.8 109.9,378.8 97.9,378.8 97.9,382.1 109.9,382.1 109.9,394.1 
			113.2,394.1 113.2,382.1 125.2,382.1 125.2,378.8 		"/>
	</g>
	<g>
		<polygon class="st1" points="166.8,394 176.8,394 193.9,376.9 193.9,366.9 		"/>
		<polygon class="st2" points="186.8,394 193.9,386.9 193.9,376.9 176.8,394 		"/>
		<polygon class="st1" points="193.9,394 193.9,386.9 186.8,394 		"/>
		<polygon class="st2" points="193.9,366.9 183.9,366.9 166.8,384 166.8,394 		"/>
		<polygon class="st1" points="173.9,366.9 166.8,374 166.8,384 183.9,366.9 		"/>
		<polygon class="st2" points="166.8,366.9 166.8,374 173.9,366.9 		"/>
	</g>
	<g>
		<polygon class="st1" points="262.6,366.9 235.6,366.9 235.6,366.9 249.1,380.4 		"/>
		<polygon class="st2" points="235.6,394 262.6,394 249.1,380.5 		"/>
		<polygon class="st4" points="262.7,366.9 262.6,366.9 249.1,380.4 249.2,380.5 249.1,380.5 262.6,394 262.7,394 		"/>
		<polygon class="st5" points="249.1,380.5 249.1,380.4 235.6,366.9 235.6,394 249.1,380.5 		"/>
	</g>
</g>
</svg>
