<?xml version="1.0" encoding="utf-8"?>
<!-- Generator: Adobe Illustrator 23.1.1, SVG Export Plug-In . SVG Version: 6.00 Build 0)  -->
<svg version="1.1" id="Capa_1" xmlns="http://www.w3.org/2000/svg" xmlns:xlink="http://www.w3.org/1999/xlink" x="0px" y="0px"
	 viewBox="0 0 340 280" style="enable-background:new 0 0 340 280;" xml:space="preserve">
<style type="text/css">
	.st0{fill:#171829;}
	.st1{fill:#1FB122;}
	.st2{fill:#DF172F;}
	.st3{fill:#FFDF00;}
	.st4{fill:#0F5AD2;}
</style>
<g>
	<path class="st0" d="M213,96.3c0-0.1-0.1-0.3-0.1-0.3l0,0l-1.1-0.5c-0.3-2-0.7-4.1-1.1-6.2c-0.3-1.1-0.4-2.1-0.7-3.1
		c-0.3-1.1-0.5-2-0.9-3.1c0-0.1-0.1-0.1-0.1-0.1l0,0c-0.1-0.1-0.4-0.3-0.5-0.4l-0.7-0.7c-0.3-0.3-0.5-0.5-0.7-0.9
		c-0.5-0.8-0.9-1.6-1.3-2.5c-0.4-0.9-0.5-1.9-0.8-2.8c-0.1-0.5-0.1-0.9-0.3-1.5l-0.1-1.3c0-0.1,0.1-0.1,0.1-0.3
		c0-0.1,0.1-0.3,0.1-0.4c0.1-0.3,0.1-0.5,0.3-0.8c0-0.3,0.1-0.5,0.1-0.8s0-0.5,0-0.8c0-1.1-0.3-2.1-0.7-3.2
		c-0.1-0.5-0.4-0.9-0.7-1.5c-0.3-0.5-0.5-0.9-0.8-1.3c-0.3-0.4-0.5-0.9-0.9-1.3l-0.9-1.1c0.1-1.1,0-2-0.1-3.1s-0.4-2.1-0.7-3.2
		c-0.3-1.1-0.8-2-1.3-2.9s-1.2-1.9-2-2.5c-0.1-0.1-0.4-0.4-0.5-0.5c-0.3-0.1-0.4-0.4-0.7-0.5l-0.7-0.5l-0.7-0.5
		c-0.8-0.7-1.6-1.3-2.5-1.9c-0.8-0.7-1.6-1.3-2.4-2c-0.8-0.7-1.6-1.3-2.3-2.1l0,0l0,0c-0.7-0.5-1.2-0.9-1.9-1.3
		c-0.7-0.4-1.3-0.8-2-1.1s-1.5-0.5-2.1-0.8c-0.7-0.1-1.3-0.3-2-0.3l0,0c0-0.1-0.1-0.1-0.1-0.3c-0.1-0.1-0.1-0.4-0.3-0.5
		c-0.1-0.4-0.3-0.7-0.4-1.1c-0.3-0.7-0.4-1.5-0.5-2.3s-0.3-1.5-0.4-2.3l-0.1-1.2v-0.7l-0.1-1.1l0,0l-0.3-7l0,0c0-0.5,0-1.6,0-1.6
		l0,0L177,17l0,0c0-0.1,0-0.3-0.1-0.4c-0.3-1.1-1.2-3.9-5.9-4.8c-4.8-0.9-8.2,0.7-10,2.3c-2,1.7-2.1,4.3-2.1,4.3l0.4,4.3
		c0,0.3,0.1,0.5,0.1,0.9l0.9,5l0.3,1.6l1.5,8.4l0,0c0,0.1,0.1,0.1,0.1,0.3c0.3,0.1,0.4,0.4,0.7,0.5s0.4,0.3,0.7,0.4
		c0.3,0.1,0.5,0.3,0.8,0.3c0.1,0,0.3,0.1,0.4,0.1l-0.1,1.9l-10.3,5.6l0,0c0,0,0,0-0.1,0c-0.8,0.7-1.3,1.5-1.9,2.3
		c-0.5,0.8-1.1,1.7-1.5,2.5c-0.4,0.9-0.7,1.9-0.8,2.9c-0.1,0.9,0,1.9,0.3,2.8c-0.4,0.9-0.8,1.9-1.2,2.8c-0.4,0.9-0.7,2-0.9,3.1
		c-0.3,1.1-0.4,2.1-0.4,3.1c0,1.1,0,2.1,0.3,3.2c0,0.1,0,0.1,0.1,0.1l0,0l2.3,2.3c0,2.5,0.1,5.1,0.1,7.8l-0.1,7.9v3.9
		c0,0.7,0,1.3,0,2l0.1,2l0.3,7.8c-0.3,0.4-0.4,0.8-0.5,1.2c0,0.3-0.1,0.4-0.1,0.7c0,0.3,0,0.4,0,0.7l0.1,2.7
		c0.1,1.7,0.1,3.5,0.3,5.2c0,0.9,0,1.7-0.1,2.5s-0.3,1.7-0.4,2.5c-0.3,1.7-0.4,3.5-0.7,5.2c-0.3,3.5-0.5,7-0.3,10.6
		c0.1,3.3,0.7,6.7,1.9,9.8l4.4,10.2l0.3,0.7l0.3,0.8l0.1,0.1l0.1,0.4l1.5,3.3l2-0.1l0.5,1.7c-0.1,0-0.1,0-0.3,0.1
		c-0.1,0-0.3,0.1-0.4,0.3c-0.3,0.3-0.4,0.7-0.3,0.9c0,0.3,0.1,0.7,0.1,0.9l0.3,0.8l0.9,3.3c0.5,2.3,1.2,4.4,1.7,6.7s1.1,4.5,1.2,6.8
		c0.3,2.3,0.4,4.5,0.3,7c0,1.2-0.1,2.3-0.5,3.3c-0.1,0.5-0.4,1.1-0.8,1.5c-0.1,0.3-0.3,0.4-0.5,0.7l-0.5,0.7
		c-0.7,0.9-1.5,1.7-2.3,2.5s-1.6,1.6-2.5,2.4c-0.8,0.8-1.7,1.5-2.7,2.1c-0.9,0.7-1.9,1.3-2.9,1.9s-2,0.9-3.1,1.3
		c-0.5,0.1-1.1,0.3-1.6,0.4c-0.5,0.1-1.1,0.1-1.6,0.1l0,0c-0.1,0-0.1,0-0.1,0c-0.4,0.3-0.1,0-0.4,0.4c-0.1,0.1-0.7,0.8-0.7,0.9
		c-0.1,0.1-0.1,0.4-0.3,0.5c-0.3,0.7-0.4,1.5-0.3,2.1c0,0.7,0.3,1.5,0.5,2.1c0.1,0.3,0.3,0.7,0.4,0.9l0.5,0.9c0,0.1,0.1,0.1,0.1,0.1
		l0,0c0.5,0.3,0.9,0.3,1.5,0.4l0.7,0.1l0.7,0.1c0.5,0.1,0.9,0.1,1.5,0.1c0.5,0,0.9,0,1.5,0.1c2,0,3.9-0.1,5.9-0.4
		c2-0.3,3.9-0.7,5.8-1.1c0.9-0.3,1.9-0.5,2.8-0.8l2.8-0.9c0.9-0.1,1.9-0.3,2.8-0.3c0.9-0.1,1.9-0.1,2.8-0.1c0.9,0,1.9,0,2.9,0
		c0.9,0,1.9,0.1,2.9,0.1c0.3,0,0.5-0.1,0.5-0.4l0.9-7.1v-0.1l0,0c-0.7-2.4-1.2-4.8-1.6-7.2c-0.1-1.2-0.3-2.4-0.3-3.6
		s-0.1-2.5-0.1-3.7c0-2.5,0-5,0.3-7.5c0-0.7,0.1-1.2,0.1-1.9s0.1-1.2,0.1-1.9c0-0.3,0.1-0.5,0.1-0.9c0.7,4.1,1.5,8.3,2,12.4
		c0.4,2.5,0.8,5.1,1.1,7.6c0.1,0.7,0.1,1.2,0.1,1.9s0.1,1.3,0.1,1.9c0.1,1.3,0.1,2.5,0.1,3.7s-0.1,2.5-0.3,3.7
		c-0.1,1.2-0.5,2.4-0.9,3.6c-0.1,0.3-0.3,0.5-0.3,0.9l-0.4,0.8c-0.3,0.5-0.5,1.1-0.8,1.6c-0.1,0.3-0.3,0.5-0.5,0.8l-0.5,0.8
		c-0.4,0.5-0.7,1.1-1.1,1.6c-1.5,2.1-2.9,4.1-4.5,6.2c-0.4,0.5-0.8,0.9-1.2,1.5l-0.7,0.8c-0.3,0.4-0.4,0.8-0.4,1.2s0,0.8,0.1,1.2
		s0.1,0.7,0.3,0.9c0.3,0.7,0.4,1.2,0.7,1.9l0,0c0.1,0.1,0.1,0.3,0.4,0.4c0.7,0.3,1.2,0.4,1.7,0.5s1.2,0.3,1.9,0.4
		c1.2,0.1,2.4,0.3,3.7,0.3c1.2,0,2.5-0.1,3.7-0.4c1.2-0.3,2.4-0.7,3.5-1.3c0.5-0.3,1.1-0.7,1.6-0.9c0.5-0.4,0.9-0.7,1.5-1.1
		c0.9-0.7,2-1.5,2.8-2.4c0.4-0.4,0.8-0.9,1.2-1.3c0.4-0.4,0.8-0.8,1.3-1.1c0.9-0.7,1.9-1.3,2.9-2l0,0c0.1-0.1,0.3-0.3,0.3-0.5l0.4-7
		c0-0.1,0-0.3-0.1-0.4l0,0c0,0-0.1-0.1-0.1-0.3c0-0.1-0.1-0.1-0.1-0.3c-0.1-0.1-0.1-0.4-0.3-0.7c0-0.3-0.1-0.4-0.1-0.7
		s-0.1-0.4-0.1-0.7c-0.1-0.9-0.3-1.9-0.3-2.8c-0.1-1.9,0-3.7,0.3-5.8c0.4-3.9,0.7-7.8,0.9-11.6c0.3-3.9,0.3-7.8,0.1-11.6
		c-0.1-3.9-0.5-7.8-1.2-11.6c0-0.1-0.1-0.1-0.1-0.3l0,0l-0.7-0.7c-0.3-1.3-0.7-2.7-1.1-4c-0.4-1.3-0.9-2.7-1.6-4
		c-0.5-1.3-1.3-2.7-2-3.9c-0.8-1.2-1.6-2.3-2.5-3.3l-4.5-20.9l-2.3-10.4c-0.3-0.8-0.3-1.7-0.4-2.5c0-0.9,0-1.7,0-2.7
		c0.1-1.7,0.3-3.5,0.7-5.2l0,0l0,0c0-0.9,0-1.9-0.1-2.7c-0.1-0.9-0.4-1.7-0.7-2.5s-0.7-1.6-1.2-2.4c-0.4-0.8-1.1-1.5-1.6-2
		c-0.3-0.5-0.4-1.1-0.7-1.6c-0.1-0.5-0.4-1.1-0.5-1.7c-0.3-1.2-0.4-2.3-0.5-3.5c0-0.3,0-0.5,0-0.9c0-0.3,0-0.5,0-0.9v-0.9l0.1-0.9
		c0-0.5,0.1-1.2,0.3-1.7c0.1-0.5,0.3-1.1,0.4-1.6l8.4-9.6c0.3,0.8,0.5,1.6,0.9,2.3c0.4,0.9,0.8,1.9,1.3,2.7c0.4,0.9,0.9,1.7,1.6,2.5
		c0.5,0.8,1.2,1.5,2,2.1c-0.3,0.7-0.4,1.5-0.5,2.3s-0.1,1.6-0.1,2.5c0,0.4,0.1,0.8,0.1,1.2c0,0.3,0,0.4,0.1,0.7l0.1,0.7
		c0,0.3,0.1,0.4,0.1,0.5l0.1,0.5c0.1,0.4,0.3,0.7,0.4,1.1l-0.3,0.9v0.1c0.5,0.9,0.9,2,1.3,3.1c0.4,1.1,0.8,2.1,1.1,3.1
		c0.3,1.1,0.7,2.1,0.8,3.2c0.3,1.1,0.4,2.1,0.5,3.2c-0.9,0.5-1.9,0.9-2.7,1.5c-0.4,0.3-0.9,0.5-1.3,0.9c-0.3,0.1-0.4,0.4-0.7,0.5
		c-0.1,0.3-0.3,0.5-0.4,0.7l-2.8,5.8l0,0l0,0c0,0.3-0.1,0.4-0.1,0.7s0,0.4,0,0.7s0.1,0.4,0.1,0.5c0.1,0.1,0.3,0.4,0.4,0.5l0,0
		c0.5,0.3,1.1,0.5,1.6,0.8l0,0l0,0v0.4c-0.1,0.1-0.1,0.1-0.3,0.3c-0.1,0.3-0.3,0.4-0.3,0.7s0.1,0.5,0.1,0.7l0.3,0.7
		c0.3,0.9,0.5,1.7,0.9,2.7l0,0l0,0l3.1,1.1l0,0l0,0c1.6-0.4,3.2-0.8,4.8-1.1c0.8-0.1,1.6-0.3,2.4-0.5c0.8-0.1,1.6-0.3,2.4-0.4h0.1
		l1.3-1.3l0,0c0.1-0.1,0.1-0.1,0.1-0.1s0-0.1,0.1-0.1c0-0.1,0.1-0.3,0.1-0.4c0.1-0.3,0.1-0.5,0.3-0.7c0.1-0.5,0.3-0.9,0.4-1.5
		c0.1-0.9,0.3-2,0.4-2.9s0.1-2,0.3-2.9c0.1-0.9,0.1-1.9,0.1-2.8l1.3-0.9l0.1-0.1l0,0c0.1-1.5,0.3-3.1,0.7-4.5
		c0.1-0.8,0.4-1.5,0.7-2.1c0.3-0.7,0.5-1.5,0.8-2.1c0.5-1.5,0.9-3.1,1.2-4.5C213.3,99.5,213.2,97.9,213,96.3z"/>
	<rect x="126.7" y="258.8" class="st1" width="18.1" height="18.1"/>
	<rect x="149.2" y="258.8" class="st2" width="18.1" height="18.1"/>
	<rect x="171.8" y="258.8" class="st3" width="18.1" height="18.1"/>
	<rect x="194.3" y="258.8" class="st4" width="18.1" height="18.1"/>
</g>
<g>
	<g>
		<rect x="2.6" y="258.8" class="st4" width="18.1" height="18.1"/>
		<rect x="25.1" y="258.8" class="st1" width="18.1" height="18.1"/>
		<rect x="47.6" y="258.8" class="st2" width="18.1" height="18.1"/>
		<rect x="70.2" y="258.8" class="st3" width="18.1" height="18.1"/>
	</g>
	<g>
		<path class="st0" d="M88.9,96.3c0-0.1-0.1-0.3-0.1-0.3l-1.1-0.5c-0.3-2-0.7-4.1-1.1-6.2c-0.3-1.1-0.4-2.1-0.7-3.1
			c-0.3-1.1-0.5-2-0.9-3.1c0-0.1-0.1-0.1-0.1-0.1c-0.1-0.1-0.4-0.3-0.5-0.4l-0.7-0.7c-0.3-0.3-0.5-0.5-0.7-0.9
			c-0.5-0.8-0.9-1.6-1.3-2.5s-0.5-1.9-0.8-2.8c-0.1-0.5-0.1-0.9-0.3-1.5l-0.1-1.3c0-0.1,0.1-0.1,0.1-0.3s0.1-0.3,0.1-0.4
			c0.1-0.3,0.1-0.5,0.3-0.8c0-0.3,0.1-0.5,0.1-0.8v-0.8c0-1.1-0.3-2.1-0.7-3.2c-0.1-0.5-0.4-0.9-0.7-1.5c-0.3-0.5-0.5-0.9-0.8-1.3
			c-0.3-0.4-0.5-0.9-0.9-1.3l-0.9-1.1c0.1-1.1,0-2-0.1-3.1s-0.4-2.1-0.7-3.2c-0.3-1.1-0.8-2-1.3-2.9s-1.2-1.9-2-2.5
			c-0.1-0.1-0.4-0.4-0.5-0.5c-0.3-0.1-0.4-0.4-0.7-0.5L71.1,48l-0.7-0.5c-0.8-0.7-1.6-1.3-2.5-1.9c-0.8-0.7-1.6-1.3-2.4-2
			s-1.6-1.3-2.3-2.1c-0.7-0.5-1.2-0.9-1.9-1.3s-1.3-0.8-2-1.1s-1.5-0.5-2.1-0.8c-0.7-0.1-1.3-0.3-2-0.3c0-0.1-0.1-0.1-0.1-0.3
			c-0.1-0.1-0.1-0.4-0.3-0.5c-0.1-0.4-0.3-0.7-0.4-1.1c-0.3-0.7-0.4-1.5-0.5-2.3s-0.3-1.5-0.4-2.3l-0.1-1.2v-0.7l-0.1-1.1l-0.3-7
			c0-0.5,0-1.6,0-1.6l-0.1-3.1c0-0.1,0-0.3-0.1-0.4c-0.3-1.1-1.2-3.9-5.9-4.8c-4.8-0.9-8.2,0.7-10,2.3c-2,1.7-2.1,4.3-2.1,4.3
			l0.4,4.3c0,0.3,0.1,0.5,0.1,0.9l0.9,5l0.3,1.6l1.5,8.4c0,0.1,0.1,0.1,0.1,0.3c0.3,0.1,0.4,0.4,0.7,0.5s0.4,0.3,0.7,0.4
			c0.3,0.1,0.5,0.3,0.8,0.3c0.1,0,0.3,0.1,0.4,0.1l-0.1,1.9L30,47.6c0,0,0,0-0.1,0c-0.8,0.7-1.3,1.5-1.9,2.3
			c-0.5,0.8-1.1,1.7-1.5,2.5c-0.4,0.9-0.7,1.9-0.8,2.9c-0.1,0.9,0,1.9,0.3,2.8c-0.4,0.9-0.8,1.9-1.2,2.8c-0.4,0.9-0.7,2-0.9,3.1
			c-0.3,1.1-0.4,2.1-0.4,3.1c0,1.1,0,2.1,0.3,3.2c0,0.1,0,0.1,0.1,0.1l2.3,2.3c0,2.5,0.1,5.1,0.1,7.8l-0.1,7.9v5.9l0.1,2l0.3,7.8
			c-0.3,0.4-0.4,0.8-0.5,1.2c0,0.3-0.1,0.4-0.1,0.7v0.7l0.1,2.7c0.1,1.7,0.1,3.5,0.3,5.2c0,0.9,0,1.7-0.1,2.5s-0.3,1.7-0.4,2.5
			c-0.3,1.7-0.4,3.5-0.7,5.2c-0.3,3.5-0.5,7-0.3,10.6c0.1,3.3,0.7,6.7,1.9,9.8l4.4,10.2l0.3,0.7l0.3,0.8l0.1,0.1l0.1,0.4l1.5,3.3
			l2-0.1l0.5,1.7c-0.1,0-0.1,0-0.3,0.1c-0.1,0-0.3,0.1-0.4,0.3c-0.3,0.3-0.4,0.7-0.3,0.9c0,0.3,0.1,0.7,0.1,0.9l0.3,0.8l0.9,3.3
			c0.5,2.3,1.2,4.4,1.7,6.7s1.1,4.5,1.2,6.8c0.3,2.3,0.4,4.5,0.3,7c0,1.2-0.1,2.3-0.5,3.3c-0.1,0.5-0.4,1.1-0.8,1.5
			c-0.1,0.3-0.3,0.4-0.5,0.7l-0.5,0.7c-0.7,0.9-1.5,1.7-2.3,2.5s-1.6,1.6-2.5,2.4c-0.8,0.8-1.7,1.5-2.7,2.1
			c-0.9,0.7-1.9,1.3-2.9,1.9c-1.1,0.5-2,0.9-3.1,1.3c-0.5,0.1-1.1,0.3-1.6,0.4c-0.5,0.1-1.1,0.1-1.6,0.1c-0.1,0-0.1,0-0.1,0
			c-0.4,0.3-0.1,0-0.4,0.4c-0.1,0.1-0.7,0.8-0.7,0.9c-0.1,0.1-0.1,0.4-0.3,0.5c-0.3,0.7-0.4,1.5-0.3,2.1c0,0.7,0.3,1.5,0.5,2.1
			c0.1,0.3,0.3,0.7,0.4,0.9l0.5,0.9c0,0.1,0.1,0.1,0.1,0.1c0.5,0.3,0.9,0.3,1.5,0.4l0.7,0.1l0.7,0.1c0.5,0.1,0.9,0.1,1.5,0.1
			c0.5,0,0.9,0,1.5,0.1c2,0,3.9-0.1,5.9-0.4c2-0.3,3.9-0.7,5.8-1.1c0.9-0.3,1.9-0.5,2.8-0.8l2.8-0.9c0.9-0.1,1.9-0.3,2.8-0.3
			c0.9-0.1,1.9-0.1,2.8-0.1h2.9c0.9,0,1.9,0.1,2.9,0.1c0.3,0,0.5-0.1,0.5-0.4l0.9-7.1v-0.1c-0.7-2.4-1.2-4.8-1.6-7.2
			c-0.1-1.2-0.3-2.4-0.3-3.6s-0.1-2.5-0.1-3.7c0-2.5,0-5,0.3-7.5c0-0.7,0.1-1.2,0.1-1.9s0.1-1.2,0.1-1.9c0-0.3,0.1-0.5,0.1-0.9
			c0.7,4.1,1.5,8.3,2,12.4c0.4,2.5,0.8,5.1,1.1,7.6c0.1,0.7,0.1,1.2,0.1,1.9s0.1,1.3,0.1,1.9c0.1,1.3,0.1,2.5,0.1,3.7
			s-0.1,2.5-0.3,3.7c-0.1,1.2-0.5,2.4-0.9,3.6c-0.1,0.3-0.3,0.5-0.3,0.9l-0.4,0.8c-0.3,0.5-0.5,1.1-0.8,1.6
			c-0.1,0.3-0.3,0.5-0.5,0.8l-0.5,0.8c-0.4,0.5-0.7,1.1-1.1,1.6c-1.5,2.1-2.9,4.1-4.5,6.2c-0.4,0.5-0.8,0.9-1.2,1.5l-0.7,0.8
			c-0.3,0.4-0.4,0.8-0.4,1.2s0,0.8,0.1,1.2s0.1,0.7,0.3,0.9c0.3,0.7,0.4,1.2,0.7,1.9c0.1,0.1,0.1,0.3,0.4,0.4
			c0.7,0.3,1.2,0.4,1.7,0.5s1.2,0.3,1.9,0.4c1.2,0.1,2.4,0.3,3.7,0.3c1.2,0,2.5-0.1,3.7-0.4c1.2-0.3,2.4-0.7,3.5-1.3
			c0.5-0.3,1.1-0.7,1.6-0.9c0.5-0.4,0.9-0.7,1.5-1.1c0.9-0.7,2-1.5,2.8-2.4c0.4-0.4,0.8-0.9,1.2-1.3s0.8-0.8,1.3-1.1
			c0.9-0.7,1.9-1.3,2.9-2c0.1-0.1,0.3-0.3,0.3-0.5l0.4-7c0-0.1,0-0.3-0.1-0.4c0,0-0.1-0.1-0.1-0.3s-0.1-0.1-0.1-0.3
			c-0.1-0.1-0.1-0.4-0.3-0.7c0-0.3-0.1-0.4-0.1-0.7s-0.1-0.4-0.1-0.7c-0.1-0.9-0.3-1.9-0.3-2.8c-0.1-1.9,0-3.7,0.3-5.8
			c0.4-3.9,0.7-7.8,0.9-11.6s0.3-7.8,0.1-11.6c-0.1-3.9-0.5-7.8-1.2-11.6c0-0.1-0.1-0.1-0.1-0.3l-0.7-0.7c-0.3-1.3-0.7-2.7-1.1-4
			s-0.9-2.7-1.6-4c-0.5-1.3-1.3-2.7-2-3.9c-0.8-1.2-1.6-2.3-2.5-3.3l-6.8-31.3c-0.3-0.8-0.3-1.7-0.4-2.5v-2.7
			c0.1-1.7,0.3-3.5,0.7-5.2c0-0.9,0-1.9-0.1-2.7c-0.1-0.9-0.4-1.7-0.7-2.5s-0.7-1.6-1.2-2.4c-0.4-0.8-1.1-1.5-1.6-2
			c-0.3-0.5-0.4-1.1-0.7-1.6c-0.1-0.5-0.4-1.1-0.5-1.7c-0.3-1.2-0.4-2.3-0.5-3.5v-2.8l0.1-0.9c0-0.5,0.1-1.2,0.3-1.7
			c0.1-0.5,0.3-1.1,0.4-1.6l8.4-9.6c0.3,0.8,0.5,1.6,0.9,2.3c0.4,0.9,0.8,1.9,1.3,2.7c0.4,0.9,0.9,1.7,1.6,2.5
			c0.5,0.8,1.2,1.5,2,2.1c-0.3,0.7-0.4,1.5-0.5,2.3s-0.1,1.6-0.1,2.5c0,0.4,0.1,0.8,0.1,1.2c0,0.3,0,0.4,0.1,0.7l0.1,0.7
			c0,0.3,0.1,0.4,0.1,0.5l0.1,0.5c0.1,0.4,0.3,0.7,0.4,1.1l-0.3,0.9v0.1c0.5,0.9,0.9,2,1.3,3.1s0.8,2.1,1.1,3.1
			c0.3,1.1,0.7,2.1,0.8,3.2c0.3,1.1,0.4,2.1,0.5,3.2c-0.9,0.5-1.7,0.9-2.5,1.4c-0.7,1-1.3,2.2-1.8,3.5c-0.9,3.3,0,7.3,2.8,9.2
			c5.2,3.6,11.7-1.3,11.3-7.2c-0.1-1,0.4-1.7,1-2c0-0.3,0-0.6,0-0.9l1.3-0.9l0.1-0.1c0.1-1.5,0.3-3.1,0.7-4.5
			c0.1-0.8,0.4-1.5,0.7-2.1c0.3-0.7,0.5-1.5,0.8-2.1c0.5-1.5,0.9-3.1,1.2-4.5C89.2,99.5,89,97.9,88.9,96.3z"/>
	</g>
</g>
<g>
	<path class="st0" d="M337.2,96.3c0-0.1-0.1-0.3-0.1-0.3l0,0l-1.1-0.5c-0.3-2-0.7-4.1-1.1-6.2c-0.3-1.1-0.4-2.1-0.7-3.1
		c-0.3-1.1-0.5-2-0.9-3.1c0-0.1-0.1-0.1-0.1-0.1l0,0c-0.1-0.1-0.4-0.3-0.5-0.4l-0.7-0.7c-0.3-0.3-0.5-0.5-0.7-0.9
		c-0.5-0.8-0.9-1.6-1.3-2.5s-0.5-1.9-0.8-2.8c-0.1-0.5-0.1-0.9-0.3-1.5l-0.1-1.3c0-0.1,0.1-0.1,0.1-0.3c0-0.1,0.1-0.3,0.1-0.4
		c0.1-0.3,0.1-0.5,0.3-0.8c0-0.3,0.1-0.5,0.1-0.8s0-0.5,0-0.8c0-1.1-0.3-2.1-0.7-3.2c-0.1-0.5-0.4-0.9-0.7-1.5
		c-0.3-0.5-0.5-0.9-0.8-1.3s-0.5-0.9-0.9-1.3l-0.9-1.1c0.1-1.1,0-2-0.1-3.1s-0.4-2.1-0.7-3.2s-0.8-2-1.3-2.9s-1.2-1.9-2-2.5
		c-0.1-0.1-0.4-0.4-0.5-0.5c-0.3-0.1-0.4-0.4-0.7-0.5l-0.7-0.5l-0.7-0.5c-0.8-0.7-1.6-1.3-2.5-1.9c-0.8-0.7-1.6-1.3-2.4-2
		s-1.6-1.3-2.3-2.1l0,0l0,0c-0.7-0.5-1.2-0.9-1.9-1.3c-0.7-0.4-1.3-0.8-2-1.1s-1.5-0.5-2.1-0.8c-0.7-0.1-1.3-0.3-2-0.3l0,0
		c0-0.1-0.1-0.1-0.1-0.3c-0.1-0.1-0.1-0.4-0.3-0.5c-0.1-0.4-0.3-0.7-0.4-1.1c-0.3-0.7-0.4-1.5-0.5-2.3s-0.3-1.5-0.4-2.3l-0.1-1.2
		v-0.7l-0.1-1.1l-0.3-7l0,0c0-0.5,0-1.6,0-1.6l0,0l-0.1-3.1l0,0c0-0.1,0-0.3-0.1-0.4c-0.3-1.1-1.2-3.9-5.9-4.8
		c-4.8-0.9-8.2,0.7-10,2.3c-2,1.7-2.1,4.3-2.1,4.3l0.4,4.3c0,0.3,0.1,0.5,0.1,0.9l0.9,5l0.3,1.6l1.5,8.4l0,0c0,0.1,0.1,0.1,0.1,0.3
		c0.3,0.1,0.4,0.4,0.7,0.5s0.4,0.3,0.7,0.4c0.3,0.1,0.5,0.3,0.8,0.3c0.1,0,0.3,0.1,0.4,0.1l-0.1,1.9l-3.1,1.2c0,0.1-3.9,2.8-4,2.8
		c-4,2.4-6.2,39.3-6.4,41.9c0,0.5-0.1,1.1-0.1,1.6c0,0.8,0,1.7,0,2.5c0,4.3-0.4,8.6-1.2,12.7c-0.8,4,1.2,12.3,0.4,16.1
		c-0.1,0.4-0.3,0.7-0.4,1.1c-0.1,0.9-0.3,1.7-0.3,2.7c-0.3,3.5-0.5,7-0.3,10.6c0.1,3.3,0.7,6.7,1.9,9.8l4.4,10.2l0.3,0.7l0.3,0.8
		l0.1,0.1l0.1,0.4l1.5,3.3l2-0.1l0.5,1.7c-0.1,0-0.1,0-0.3,0.1c-0.1,0-0.3,0.1-0.4,0.3c-0.3,0.3-0.3,0.7-0.3,0.9
		c0,0.3,0.1,0.7,0.1,0.9l0.3,0.8l0.9,3.3c0.5,2.3,1.2,4.4,1.7,6.7s1.1,4.5,1.2,6.8c0.3,2.3,0.4,4.5,0.3,7c0,1.2-0.1,2.3-0.5,3.3
		c-0.1,0.5-0.4,1.1-0.8,1.5c-0.1,0.3-0.3,0.4-0.5,0.7l-0.5,0.7c-0.7,0.9-1.5,1.7-2.3,2.5s-1.6,1.6-2.5,2.4c-0.8,0.8-1.7,1.5-2.7,2.1
		c-0.9,0.7-1.9,1.3-2.9,1.9c-1.1,0.5-2,0.9-3.1,1.3c-0.5,0.1-1.1,0.3-1.6,0.4c-0.5,0.1-1.1,0.1-1.6,0.1l0,0c-0.1,0-0.1,0-0.1,0
		c-0.4,0.3-0.1,0-0.4,0.4c-0.1,0.1-0.7,0.8-0.7,0.9c-0.1,0.1-0.1,0.4-0.3,0.5c-0.3,0.7-0.4,1.5-0.3,2.1c0,0.7,0.3,1.5,0.5,2.1
		c0.1,0.3,0.3,0.7,0.4,0.9l0.5,0.9c0,0.1,0.1,0.1,0.1,0.1l0,0c0.5,0.3,0.9,0.3,1.5,0.4l0.7,0.1l0.7,0.1c0.5,0.1,0.9,0.1,1.5,0.1
		c0.5,0,0.9,0,1.5,0.1c2,0,3.9-0.1,5.9-0.4c2-0.3,3.9-0.7,5.8-1.1c0.9-0.3,1.9-0.5,2.8-0.8l2.8-0.9c0.9-0.1,1.9-0.3,2.8-0.3
		c0.9-0.1,1.9-0.1,2.8-0.1s1.9,0,2.9,0c0.9,0,1.9,0.1,2.9,0.1c0.3,0,0.5-0.1,0.5-0.4l0.9-7.1v0.4l0,0c-0.7-2.4-1.2-4.8-1.6-7.2
		c-0.1-1.2-0.3-2.4-0.3-3.6s-0.1-2.5-0.1-3.7c0-2.5,0-5,0.3-7.5c0-0.7,0.1-1.2,0.1-1.9s0.1-1.2,0.1-1.9c0-0.3,0.1-0.5,0.1-0.9
		c0.7,4.1,1.5,8.3,2,12.4c0.4,2.5,0.8,5.1,1.1,7.6c0.1,0.7,0.1,1.2,0.1,1.9s0.1,1.3,0.1,1.9c0.1,1.3,0.1,2.5,0.1,3.7
		s-0.1,2.5-0.3,3.7s-0.5,2.4-0.9,3.6c-0.1,0.3-0.3,0.5-0.3,0.9l-0.4,0.8c-0.3,0.5-0.5,1.1-0.8,1.6c-0.1,0.3-0.3,0.5-0.5,0.8
		l-0.5,0.8c-0.4,0.5-0.7,1.1-1.1,1.6c-1.5,2.1-2.9,4.1-4.5,6.2c-0.4,0.5-0.8,0.9-1.2,1.5l-0.7,0.8c-0.3,0.4-0.4,0.8-0.4,1.2
		s0,0.8,0.1,1.2s0.1,0.7,0.3,0.9c0.3,0.7,0.4,1.2,0.7,1.9l0,0c0.1,0.1,0.1,0.3,0.4,0.4c0.7,0.3,1.2,0.4,1.7,0.5s1.2,0.3,1.9,0.4
		c1.2,0.1,2.4,0.3,3.7,0.3c1.2,0,2.5-0.1,3.7-0.4c1.2-0.3,2.4-0.7,3.5-1.3c0.5-0.3,1.1-0.7,1.6-0.9c0.5-0.4,0.9-0.7,1.5-1.1
		c0.9-0.7,2-1.5,2.8-2.4c0.4-0.4,0.8-0.9,1.2-1.3c0.4-0.4,0.8-0.8,1.3-1.1c0.9-0.7,1.9-1.3,2.9-2l0,0c0.1-0.1,0.3-0.3,0.3-0.5l0.4-7
		c0-0.1,0-0.3-0.1-0.4l0,0c0,0-0.1-0.1-0.1-0.3c0-0.1-0.1-0.1-0.1-0.3c-0.1-0.1-0.1-0.4-0.3-0.7c0-0.3-0.1-0.4-0.1-0.7
		s-0.1-0.4-0.1-0.7c-0.1-0.9-0.3-1.9-0.3-2.8c-0.1-1.9,0-3.7,0.3-5.8c0.4-3.9,0.7-7.8,0.9-11.5c0.3-3.9,0.3-7.8,0.1-11.6
		s-0.5-7.8-1.2-11.6c0-0.1-0.1-0.1-0.1-0.3l0,0l-0.7-0.7c-0.3-1.3-0.7-2.7-1.1-4s-0.9-2.7-1.6-4c-0.5-1.3-1.3-2.7-2-3.9
		c-0.8-1.2-1.6-2.3-2.5-3.3l-4.5-20.9l-2.3-10.4c-0.3-0.8-0.3-1.7-0.4-2.5c0-0.9,0-1.7,0-2.7c0.1-1.7,0.3-3.5,0.7-5.2l0,0l0,0
		c0-0.9,0-1.9-0.1-2.7c-0.1-0.9-0.4-1.7-0.7-2.5c-0.3-0.8-0.7-1.6-1.2-2.4c-0.4-0.8-1.1-1.5-1.6-2c-0.3-0.5-0.4-1.1-0.7-1.6
		c-0.1-0.5-0.4-1.1-0.5-1.7c-0.3-1.2-0.4-2.3-0.5-3.5c0-0.3,0-0.5,0-0.9c0-0.3,0-0.5,0-0.9v-0.9l0.1-0.9c0-0.5,0.1-1.2,0.3-1.7
		c0.1-0.5,0.3-1.1,0.4-1.6l8.4-9.6c0.3,0.8,0.5,1.6,0.9,2.3c0.4,0.9,0.8,1.9,1.3,2.7c0.4,0.9,0.9,1.7,1.6,2.5c0.5,0.8,1.2,1.5,2,2.1
		c-0.3,0.7-0.4,1.5-0.5,2.3s-0.1,1.6-0.1,2.5c0,0.4,0.1,0.8,0.1,1.2c0,0.3,0,0.4,0.1,0.7l0.1,0.7c0,0.3,0.1,0.4,0.1,0.5l0.1,0.5
		c0.1,0.4,0.3,0.7,0.4,1.1l-0.3,0.9v0.1c0.5,0.9,0.9,2,1.3,3.1s0.8,2.1,1.1,3.1c0.3,1.1,0.7,2.1,0.8,3.2c0.3,1.1,0.4,2.1,0.5,3.2
		c-0.9,0.5-1.9,0.9-2.7,1.5c-0.4,0.3-0.9,0.5-1.3,0.9c-0.3,0.1-0.4,0.4-0.7,0.5c-0.1,0.3-0.3,0.5-0.4,0.7l-2.8,5.8l0,0l0,0
		c0,0.3-0.1,0.4-0.1,0.7s0,0.4,0,0.7c0,0.3,0.1,0.4,0.1,0.5c0.1,0.1,0.3,0.4,0.4,0.5l0,0c0.5,0.3,1.1,0.5,1.6,0.8l0,0l0,0l-0.1,0.1
		c-0.1,0.1-0.1,0.1-0.3,0.3c-0.1,0.3-0.3,0.4-0.3,0.7c0,0.3,0.1,0.5,0.1,0.7l0.3,0.7c0.3,0.9,0.5,1.7,0.9,2.7l0,0l0,0l3.1,1.1l0,0
		l0,0c1.6-0.4,3.2-0.8,4.8-1.1c0.8-0.1,1.6-0.3,2.4-0.5c0.8-0.1,1.6-0.3,2.4-0.4h0.1l1.3-1.3l0,0c0.1-0.1,0.1-0.1,0.1-0.1
		s0-0.1,0.1-0.1c0-0.1,0.1-0.3,0.1-0.4c0.1-0.3,0.1-0.5,0.3-0.7c0.1-0.5,0.3-0.9,0.4-1.5c0.1-0.9,0.3-2,0.4-2.9s0.1-2,0.3-2.9
		c0.1-0.9,0.1-1.9,0.1-2.8l1.3-0.9l0.1-0.1l0,0c0.1-1.5,0.3-3.1,0.7-4.5c0.1-0.8,0.4-1.5,0.7-2.1c0.3-0.7,0.5-1.5,0.8-2.1
		c0.5-1.5,0.9-3.1,1.2-4.5C337.5,99.5,337.3,97.9,337.2,96.3z"/>
	<rect x="250.9" y="258.8" class="st3" width="18.1" height="18.1"/>
	<rect x="273.4" y="258.8" class="st2" width="18.1" height="18.1"/>
	<rect x="296" y="258.8" class="st4" width="18.1" height="18.1"/>
	<rect x="318.5" y="258.8" class="st1" width="18.1" height="18.1"/>
</g>
</svg>
