<?xml version="1.0" encoding="utf-8"?>
<!-- Generator: Adobe Illustrator 23.1.1, SVG Export Plug-In . SVG Version: 6.00 Build 0)  -->
<svg version="1.1" id="Capa_1" xmlns="http://www.w3.org/2000/svg" xmlns:xlink="http://www.w3.org/1999/xlink" x="0px" y="0px"
	 viewBox="0 0 380 220" style="enable-background:new 0 0 380 220;" xml:space="preserve">
<g>
	<g>
		<path d="M207.8,24.5c-1.1,0-2-0.9-2-2c0-1.1,0.9-2,2-2c1.1,0,2,0.9,2,2C209.8,23.6,208.9,24.5,207.8,24.5z"/>
		<rect x="212.4" y="20.5" width="7" height="4"/>
	</g>
</g>
<g>
	<g>
		<path d="M328,24.5c-1.1,0-2-0.9-2-2c0-1.1,0.9-2,2-2s2,0.9,2,2C330,23.6,329.1,24.5,328,24.5z"/>
		<rect x="332.6" y="20.5" width="7" height="4"/>
	</g>
</g>
<g>
	<g>
		<path d="M12.1,217.3c-1.1,0-2-0.9-2-2c0-1.1,0.9-2,2-2s2,0.9,2,2C14.1,216.4,13.2,217.3,12.1,217.3z"/>
		<rect x="16.7" y="213.3" width="7" height="4"/>
	</g>
</g>
<g>
	<g>
		<path d="M171,217.3c-1.1,0-2-0.9-2-2c0-1.1,0.9-2,2-2c1.1,0,2,0.9,2,2C173,216.4,172.1,217.3,171,217.3z"/>
		<rect x="175.6" y="213.3" width="7" height="4"/>
	</g>
</g>
<g>
	<g>
		<path d="M365.6,217.3c-1.1,0-2-0.9-2-2c0-1.1,0.9-2,2-2c1.1,0,2,0.9,2,2C367.6,216.4,366.8,217.3,365.6,217.3z"/>
		<rect x="370.3" y="213.3" width="7" height="4"/>
	</g>
</g>
<g>
	<g>
		<path d="M57.4,217c-1.1,0-2-0.9-2-2c0-1.1,0.9-2,2-2s2,0.9,2,2C59.4,216.1,58.6,217,57.4,217z"/>
		<path d="M51,217c-1.1,0-2-0.9-2-2c0-1.1,0.9-2,2-2c1.1,0,2,0.9,2,2C53.1,216.1,52.2,217,51,217z"/>
		<path d="M63.3,217c-1.1,0-2-0.9-2-2c0-1.1,0.9-2,2-2c1.1,0,2,0.9,2,2C65.3,216.1,64.5,217,63.3,217z"/>
	</g>
</g>
<g>
	<path d="M55,63.2c-1.1,0-2-0.9-2-2s0.9-2,2-2c1.1,0,2,0.9,2,2S56.1,63.2,55,63.2z"/>
	<path d="M60.9,63.2c-1.1,0-2-0.9-2-2s0.9-2,2-2c1.1,0,2,0.9,2,2S62,63.2,60.9,63.2z"/>
</g>
<g>
	<path d="M171.6,24.5c-1.1,0-2-0.9-2-2c0-1.1,0.9-2,2-2c1.1,0,2,0.9,2,2C173.6,23.6,172.7,24.5,171.6,24.5z"/>
	<rect x="159.7" y="20.5" width="7" height="4"/>
	<path d="M187.8,24.5c-1.1,0-2-0.9-2-2c0-1.1,0.9-2,2-2c1.1,0,2,0.9,2,2C189.8,23.6,188.9,24.5,187.8,24.5z"/>
	<rect x="175.9" y="20.5" width="7" height="4"/>
</g>
<g>
	<path d="M132.5,101.9c-1.1,0-2-0.9-2-2s0.9-2,2-2c1.1,0,2,0.9,2,2S133.7,101.9,132.5,101.9z"/>
	<rect x="120.6" y="97.9" width="7" height="4"/>
	<path d="M148.7,101.9c-1.1,0-2-0.9-2-2s0.9-2,2-2c1.1,0,2,0.9,2,2S149.8,101.9,148.7,101.9z"/>
	<rect x="136.8" y="97.9" width="7" height="4"/>
</g>
<g>
	<path d="M250.8,217.3c-1.1,0-2-0.9-2-2c0-1.1,0.9-2,2-2c1.1,0,2,0.9,2,2C252.8,216.4,252,217.3,250.8,217.3z"/>
	<rect x="238.9" y="213.3" width="7" height="4"/>
	<path d="M267,217.3c-1.1,0-2-0.9-2-2c0-1.1,0.9-2,2-2s2,0.9,2,2C269,216.4,268.1,217.3,267,217.3z"/>
	<rect x="255.1" y="213.3" width="7" height="4"/>
</g>
<g>
	<path d="M14.5,140.2c-1.1,0-2-0.9-2-2s0.9-2,2-2s2,0.9,2,2S15.6,140.2,14.5,140.2z"/>
	<rect x="2.6" y="136.2" width="7" height="4"/>
	<path d="M30.6,140.2c-1.1,0-2-0.9-2-2s0.9-2,2-2c1.1,0,2,0.9,2,2S31.8,140.2,30.6,140.2z"/>
	<rect x="18.8" y="136.2" width="7" height="4"/>
</g>
<g>
	<g>
		<rect x="250.6" y="97.1" width="6.9" height="4"/>
		<rect x="241.2" y="97.1" width="6.9" height="4"/>
		<rect x="260.1" y="97.1" width="6.9" height="4"/>
	</g>
</g>
<g>
	<g>
		<rect x="55.1" y="135.4" width="6.9" height="4"/>
		<rect x="45.6" y="135.4" width="6.9" height="4"/>
		<rect x="64.6" y="135.4" width="6.9" height="4"/>
	</g>
</g>
<g>
	<g>
		<rect x="290.7" y="212.6" width="6.9" height="4"/>
		<rect x="281.2" y="212.6" width="6.9" height="4"/>
		<rect x="300.2" y="212.6" width="6.9" height="4"/>
	</g>
</g>
<g>
	<g>
		<rect x="15.1" y="59.3" width="6.9" height="4"/>
	</g>
</g>
<g>
	<g>
		<rect x="172.9" y="97.6" width="6.9" height="4"/>
	</g>
</g>
<g>
	<g>
		<rect x="290.1" y="175" width="6.9" height="4"/>
	</g>
</g>
<g>
	<g>
		<path d="M46.9,97.5c1.1,0,2,0.9,2,2c0,1.1-0.9,2-2,2c-1.1,0-2-0.9-2-2C44.9,98.4,45.8,97.5,46.9,97.5z"/>
		<rect x="51.8" y="97.5" transform="matrix(-1 -1.224647e-16 1.224647e-16 -1 110.5872 199.0245)" width="7" height="4"/>
		<path d="M63.7,97.5c1.1,0,2,0.9,2,2c0,1.1-0.9,2-2,2c-1.1,0-2-0.9-2-2C61.7,98.4,62.6,97.5,63.7,97.5z"/>
		<path d="M70.3,97.5c1.1,0,2,0.9,2,2c0,1.1-0.9,2-2,2c-1.1,0-2-0.9-2-2C68.3,98.4,69.1,97.5,70.3,97.5z"/>
	</g>
</g>
<g>
	<g>
		<path d="M125.7,213c1.1,0,2,0.9,2,2c0,1.1-0.9,2-2,2s-2-0.9-2-2C123.7,213.9,124.6,213,125.7,213z"/>
		<rect x="130.6" y="213" transform="matrix(-1 -1.224647e-16 1.224647e-16 -1 268.246 429.9282)" width="7" height="4"/>
		<path d="M142.6,213c1.1,0,2,0.9,2,2c0,1.1-0.9,2-2,2c-1.1,0-2-0.9-2-2C140.6,213.9,141.4,213,142.6,213z"/>
		<path d="M149.1,213c1.1,0,2,0.9,2,2c0,1.1-0.9,2-2,2s-2-0.9-2-2C147.1,213.9,148,213,149.1,213z"/>
	</g>
</g>
<g>
	<g>
		<path d="M243,135.8c1.1,0,2,0.9,2,2c0,1.1-0.9,2-2,2c-1.1,0-2-0.9-2-2C241,136.7,241.8,135.8,243,135.8z"/>
		<rect x="247.9" y="135.8" transform="matrix(-1 -1.224647e-16 1.224647e-16 -1 502.7101 275.6335)" width="7" height="4"/>
		<path d="M259.8,135.8c1.1,0,2,0.9,2,2c0,1.1-0.9,2-2,2c-1.1,0-2-0.9-2-2C257.8,136.7,258.6,135.8,259.8,135.8z"/>
		<path d="M266.4,135.8c1.1,0,2,0.9,2,2c0,1.1-0.9,2-2,2s-2-0.9-2-2C264.4,136.7,265.2,135.8,266.4,135.8z"/>
	</g>
</g>
<g>
	<g>
		<rect x="61.1" y="20.2" width="7" height="4"/>
		<path d="M56.2,24.2c-1.1,0-2-0.9-2-2c0-1.1,0.9-2,2-2c1.1,0,2,0.9,2,2C58.2,23.3,57.3,24.2,56.2,24.2z"/>
		<path d="M49.6,24.2c-1.1,0-2-0.9-2-2c0-1.1,0.9-2,2-2c1.1,0,2,0.9,2,2C51.6,23.3,50.8,24.2,49.6,24.2z"/>
	</g>
</g>
<g>
	<g>
		<rect x="257.1" y="59.3" width="7" height="4"/>
		<path d="M252.2,63.3c-1.1,0-2-0.9-2-2c0-1.1,0.9-2,2-2c1.1,0,2,0.9,2,2C254.2,62.4,253.3,63.3,252.2,63.3z"/>
		<path d="M245.6,63.3c-1.1,0-2-0.9-2-2c0-1.1,0.9-2,2-2c1.1,0,2,0.9,2,2C247.6,62.4,246.7,63.3,245.6,63.3z"/>
	</g>
</g>
<g>
	<g>
		<rect x="61.1" y="174.5" width="7" height="4"/>
		<path d="M56.2,178.5c-1.1,0-2-0.9-2-2c0-1.1,0.9-2,2-2c1.1,0,2,0.9,2,2C58.2,177.6,57.3,178.5,56.2,178.5z"/>
		<path d="M49.6,178.5c-1.1,0-2-0.9-2-2c0-1.1,0.9-2,2-2c1.1,0,2,0.9,2,2C51.6,177.6,50.8,178.5,49.6,178.5z"/>
	</g>
</g>
<g>
	<g>
		<path d="M244.6,19.7c1.1,0,2,0.9,2,2c0,1.1-0.9,2-2,2c-1.1,0-2-0.9-2-2C242.6,20.6,243.5,19.7,244.6,19.7z"/>
		<rect x="249.5" y="19.7" transform="matrix(-1 -1.224647e-16 1.224647e-16 -1 506.0228 43.4874)" width="7" height="4"/>
		<path d="M261.4,19.7c1.1,0,2,0.9,2,2c0,1.1-0.9,2-2,2s-2-0.9-2-2C259.4,20.6,260.3,19.7,261.4,19.7z"/>
	</g>
</g>
<g>
	<g>
		<path d="M206.8,97.1c1.1,0,2,0.9,2,2s-0.9,2-2,2c-1.1,0-2-0.9-2-2S205.6,97.1,206.8,97.1z"/>
		<rect x="211.7" y="97.1" transform="matrix(-1 -1.224647e-16 1.224647e-16 -1 430.3536 198.2949)" width="7" height="4"/>
		<path d="M223.6,97.1c1.1,0,2,0.9,2,2s-0.9,2-2,2c-1.1,0-2-0.9-2-2S222.5,97.1,223.6,97.1z"/>
	</g>
</g>
<g>
	<g>
		<path d="M324,174.5c1.1,0,2,0.9,2,2s-0.9,2-2,2s-2-0.9-2-2S322.8,174.5,324,174.5z"/>
		<rect x="328.8" y="174.5" transform="matrix(-1 -1.224647e-16 1.224647e-16 -1 664.6649 353.1068)" width="7" height="4"/>
		<path d="M340.8,174.5c1.1,0,2,0.9,2,2s-0.9,2-2,2s-2-0.9-2-2S339.6,174.5,340.8,174.5z"/>
	</g>
</g>
<g>
	<g>
		<rect x="212.2" y="174.5" width="6.9" height="4"/>
		<rect x="202.7" y="174.5" width="6.9" height="4"/>
		<rect x="221.7" y="174.5" width="6.9" height="4"/>
	</g>
</g>
<g>
	<g>
		<path d="M168.4,174.5c1.1,0,2,0.9,2,2s-0.9,2-2,2s-2-0.9-2-2S167.2,174.5,168.4,174.5z"/>
		<rect x="173.3" y="174.5" transform="matrix(-1 -1.224647e-16 1.224647e-16 -1 353.5243 353.1068)" width="7" height="4"/>
		<path d="M185.2,174.5c1.1,0,2,0.9,2,2s-0.9,2-2,2c-1.1,0-2-0.9-2-2S184,174.5,185.2,174.5z"/>
	</g>
</g>
<g>
	<g>
		<path d="M303,24.2c-1.1,0-2-0.9-2-2c0-1.1,0.9-2,2-2s2,0.9,2,2C305,23.3,304.1,24.2,303,24.2z"/>
		<rect x="291.1" y="20.2" width="7" height="4"/>
		<rect x="281.1" y="20.2" width="7" height="4"/>
	</g>
</g>
<g>
	<g>
		<path d="M107,139.9c-1.1,0-2-0.9-2-2c0-1.1,0.9-2,2-2c1.1,0,2,0.9,2,2C109,139,108.2,139.9,107,139.9z"/>
		<rect x="95.1" y="135.9" width="7" height="4"/>
		<rect x="85.2" y="135.9" width="7" height="4"/>
	</g>
</g>
<g>
	<g>
		<path d="M22.8,23.8c-1.1,0-2-0.9-2-2c0-1.1,0.9-2,2-2s2,0.9,2,2C24.8,22.8,23.9,23.8,22.8,23.8z"/>
		<rect x="12.4" y="19.7" width="6.6" height="4"/>
		<rect x="26" y="19.7" width="6.6" height="4"/>
		<rect x="3.9" y="19.7" width="6.6" height="4"/>
	</g>
</g>
<g>
	<g>
		<rect x="100.3" y="174.4" width="7" height="4"/>
		<rect x="90.4" y="174.4" width="7" height="4"/>
	</g>
</g>
<g>
	<g>
		<rect x="334.3" y="213" width="7" height="4"/>
		<rect x="324.3" y="213" width="7" height="4"/>
	</g>
</g>
<g>
	<g>
		<path d="M140.2,62.8c-1.1,0-2-0.9-2-2c0-1.1,0.9-2,2-2c1.1,0,2,0.9,2,2C142.2,61.9,141.3,62.8,140.2,62.8z"/>
		<rect x="128.3" y="58.8" width="7" height="4"/>
	</g>
</g>
<g>
	<g>
		<path d="M22.1,178c-1.1,0-2-0.9-2-2c0-1.1,0.9-2,2-2c1.1,0,2,0.9,2,2C24.1,177.1,23.3,178,22.1,178z"/>
		<rect x="10.2" y="174" width="7" height="4"/>
	</g>
</g>
<g>
	<g>
		<path d="M298.1,62.8c-1.1,0-2-0.9-2-2c0-1.1,0.9-2,2-2c1.1,0,2,0.9,2,2C300.1,61.9,299.3,62.8,298.1,62.8z"/>
		<rect x="286.2" y="58.8" width="7" height="4"/>
	</g>
</g>
<g>
	<g>
		<path d="M297.1,101.2c-1.1,0-2-0.9-2-2s0.9-2,2-2c1.1,0,2,0.9,2,2S298.3,101.2,297.1,101.2z"/>
		<rect x="285.3" y="97.1" width="7" height="4"/>
	</g>
</g>
<g>
	<path d="M98.4,24.2c-1.1,0-2-0.9-2-2c0-1.1,0.9-2,2-2c1.1,0,2,0.9,2,2C100.4,23.3,99.6,24.2,98.4,24.2z"/>
</g>
<g>
	<path d="M19.3,101.6c-1.1,0-2-0.9-2-2s0.9-2,2-2c1.1,0,2,0.9,2,2S20.4,101.6,19.3,101.6z"/>
</g>
<g>
	<path d="M98.4,101.6c-1.1,0-2-0.9-2-2s0.9-2,2-2c1.1,0,2,0.9,2,2S99.6,101.6,98.4,101.6z"/>
</g>
<g>
	<path d="M137.5,140.3c-1.1,0-2-0.9-2-2c0-1.1,0.9-2,2-2s2,0.9,2,2C139.5,139.4,138.6,140.3,137.5,140.3z"/>
</g>
<g>
	<path d="M137.5,179c-1.1,0-2-0.9-2-2c0-1.1,0.9-2,2-2s2,0.9,2,2C139.5,178.1,138.6,179,137.5,179z"/>
</g>
<g>
	<path d="M98.4,63.3c-1.1,0-2-0.9-2-2c0-1.1,0.9-2,2-2c1.1,0,2,0.9,2,2C100.4,62.4,99.6,63.3,98.4,63.3z"/>
</g>
<g>
	<path d="M175.9,63.3c-1.1,0-2-0.9-2-2c0-1.1,0.9-2,2-2c1.1,0,2,0.9,2,2C177.9,62.4,177,63.3,175.9,63.3z"/>
</g>
<g>
	<path d="M216.4,140.3c-1.1,0-2-0.9-2-2c0-1.1,0.9-2,2-2c1.1,0,2,0.9,2,2C218.4,139.4,217.6,140.3,216.4,140.3z"/>
</g>
<g>
	<path d="M323.3,142.5h-2.8v-11l-3.4,1.1v-2.3l5.9-2.1h0.3V142.5z"/>
	<path d="M333,142.7c-1.6,0-2.8-0.5-3.8-1.4c-1-1-1.5-2.2-1.5-3.8v-0.3c0-1.1,0.2-2,0.6-2.9c0.4-0.8,1-1.5,1.8-1.9
		c0.8-0.5,1.6-0.7,2.6-0.7c1.5,0,2.6,0.5,3.4,1.4c0.8,0.9,1.3,2.2,1.3,3.9v1.2h-6.8c0.1,0.7,0.4,1.3,0.8,1.7c0.5,0.4,1,0.6,1.8,0.6
		c1.1,0,2-0.4,2.6-1.2l1.4,1.6c-0.4,0.6-1,1.1-1.7,1.4C334.7,142.5,333.9,142.7,333,142.7z M332.7,134c-0.6,0-1,0.2-1.4,0.6
		c-0.4,0.4-0.6,0.9-0.7,1.6h4V136c0-0.6-0.2-1.1-0.5-1.5C333.8,134.1,333.3,134,332.7,134z"/>
	<path d="M345,134.5c-0.4-0.1-0.7-0.1-1-0.1c-1.1,0-1.8,0.4-2.1,1.1v7H339v-10.6h2.7l0.1,1.3c0.6-1,1.4-1.5,2.4-1.5
		c0.3,0,0.6,0,0.9,0.1L345,134.5z"/>
</g>
<g id="aqkymb_1_">
	
		<image style="overflow:visible;" width="1844" height="604" id="aqkymb_2_" xlink:href="CE3A4B06406A4F29.png"  transform="matrix(0.5 0 0 0.5 -190.8406 555.8531)">
	</image>
</g>
</svg>
