<?xml version="1.0" encoding="utf-8"?>
<!-- Generator: Adobe Illustrator 23.1.1, SVG Export Plug-In . SVG Version: 6.00 Build 0)  -->
<svg version="1.1" id="Capa_1" xmlns="http://www.w3.org/2000/svg" xmlns:xlink="http://www.w3.org/1999/xlink" x="0px" y="0px"
	 viewBox="0 0 340 230" style="enable-background:new 0 0 340 230;" xml:space="preserve">
<style type="text/css">
	.st0{fill:#1FB122;}
	.st1{fill:#E400FF;}
	.st2{fill:#FFDF00;}
	.st3{fill:#0F5AD2;}
	.st4{fill:#DF172F;}
	.st5{fill:#171829;}
</style>
<rect x="201.7" y="211" class="st0" width="15.9" height="15.9"/>
<rect x="182" y="211" class="st1" width="15.9" height="15.9"/>
<rect x="162.1" y="211" class="st2" width="15.9" height="15.9"/>
<rect x="142.4" y="211" class="st3" width="15.9" height="15.9"/>
<rect x="122.5" y="211" class="st4" width="15.9" height="15.9"/>
<g>
	<rect x="321.6" y="211" class="st4" width="15.9" height="15.9"/>
	<rect x="301.9" y="211" class="st3" width="15.9" height="15.9"/>
	<rect x="282.1" y="211" class="st0" width="15.9" height="15.9"/>
	<rect x="262.3" y="211" class="st1" width="15.9" height="15.9"/>
	<rect x="242.5" y="211" class="st2" width="15.9" height="15.9"/>
</g>
<rect x="81.7" y="211" class="st2" width="15.9" height="15.9"/>
<rect x="61.9" y="211" class="st0" width="15.9" height="15.9"/>
<rect x="42.1" y="211" class="st3" width="15.9" height="15.9"/>
<rect x="22.3" y="211" class="st4" width="15.9" height="15.9"/>
<rect x="2.6" y="211" class="st1" width="15.9" height="15.9"/>
<path class="st5" d="M338.3,51.6c0-0.3-0.1-0.6-0.4-0.8c-0.1-0.1-0.1-0.1-0.2-0.1s-0.1-0.1-0.1-0.1c-0.1-0.1-0.2-0.1-0.2-0.2
	c-0.1-0.2-0.1-0.4-0.2-0.7c-0.1-0.2-0.2-0.5-0.4-0.7c-0.1-0.1-0.2-0.3-0.3-0.3c-0.1-0.1-0.2-0.1-0.3-0.2c0,0,0,0-0.1,0
	s-0.2-0.1-0.2-0.1c-0.1-0.1-0.2-0.1-0.2-0.2c-0.1-0.1-0.2-0.4-0.2-0.5v-0.1v-0.1c-0.1-0.2-0.2-0.4-0.3-0.5c-0.1-0.1-0.1-0.2-0.2-0.3
	c0-0.1-0.1-0.1-0.1-0.2c-0.3-0.4-0.7-0.3-1.2-0.6c0-0.1-0.1-0.2-0.1-0.3l-0.1-0.1c-0.2-0.4-0.6-0.7-1.1-0.6
	c-0.8,0.2-3.3,2.6-3.3,2.6l-0.3,0.9c0,0-0.2,0.1-0.4,0.2c-0.2,0.1-0.4,0.3-0.6,0.6c-0.1,0.1-0.1,0.3-0.2,0.4c0,0.1-0.1,0.1-0.1,0.2
	c-0.1,0.2-0.1,0.3-0.1,0.5c0-0.1,0-0.2,0.1-0.3c0-0.1,0.1-0.1,0.1-0.2c0,0.1,0,0.2,0,0.3c0.2,1.2,0,3.7,0,3.7l0.1,0.2l0,0l2,3.2l0,0
	l-0.2,0.3l-2-3.2c0.1-0.5,0.1-1,0.1-1.4v-0.1l0,0c0,0.5-0.1,1-0.1,1.5v0.1l0.1,0.1l1.9,3.2l-1,1.2c-2.9,3.2-7.5,5-7.5,5l-3.4,0.5
	c-0.5,0-0.8,0-0.8,0s-0.1,0-0.2,0.1l-3-14.3l0,0l0,0l-0.5-2.2c0.4-0.1,0.7-0.2,1-0.4c0.4-0.2,0.8-0.5,1.1-0.9
	c0.7-0.7,1.2-1.5,1.6-2.4c0.2-0.5,0.2-1,0.4-1.4c0.1-0.5,0.1-0.9,0.1-1.4c0.1-0.9,0.1-1.8-0.1-2.8c-0.1-0.9-0.3-1.8-0.7-2.7
	c-0.4-0.9-1-1.7-1.8-2.3c-0.2-0.1-0.4-0.3-0.7-0.4c-0.2-0.1-0.5-0.2-0.7-0.3c-0.4-0.2-0.8-0.4-1.1-0.6c-0.7-0.5-1.3-1.1-1.8-1.8
	c-0.5-0.7-0.8-1.5-1.1-2.3c-0.2-0.8-0.4-1.7-0.5-2.6c-0.4-1.8-0.6-3.5-0.8-5.3c-0.1-0.9-0.1-1.8-0.2-2.7c0-0.2,0-0.4,0-0.7
	c0-0.2,0-0.4,0-0.7c0-0.5-0.1-1-0.3-1.4c-0.3-1-0.8-1.7-1.4-2.4c-0.5-0.7-1.1-1.2-1.8-1.7c0-0.1,0.1-0.2,0.1-0.4
	c0-0.3-0.1-0.6-0.3-0.8c-0.2-0.2-0.4-0.4-0.6-0.5c-0.1,0-0.1-0.1-0.2-0.1s-0.1-0.1-0.1-0.1c-0.1-0.1-0.2-0.1-0.2-0.1
	c-0.7-0.4-1.3-0.8-2-1.2c-1.3-0.8-2.6-1.7-3.9-2.6L297,5.1l-0.2,0.1c-0.3,0.1-0.6,0.2-1,0.2c-0.4,0.1-0.7,0.1-1.1,0
	c-0.4,0-0.7-0.1-1.1-0.2s-0.7-0.1-1-0.2c-0.4-0.4-1-0.8-1.5-1.1c-0.6-0.3-1.2-0.5-2-0.6c-0.7-0.1-1.2-0.1-1.9,0.2
	c-0.3,0.1-0.8,0.2-1.1,0.4c-0.3,0.1-0.5,0.3-0.8,0.5c0,0-0.3,0.1-0.9,0.7l-0.3,0.1l-0.2,0.5C283.6,6,283.3,6.4,283,7
	c0,0,0,0-0.1,0.1c-0.2,0.2-0.4,0.4-0.7,0.5c-0.3,0.1-0.7,0.2-1.1,0.4c-0.4,0.1-0.7,0.2-1.1,0.3c-0.1,0-0.1,0.1-0.2,0.1
	c-0.1,0.1-0.2,0.1-0.2,0.2c-0.1,0.1-0.2,0.2-0.2,0.4c-0.1,0.2-0.2,0.4-0.2,0.6c-0.1,0.4-0.2,0.7-0.4,1c-0.1,0.1-0.1,0.1-0.1,0.2
	l-0.1,0.1l-0.1,0.1c-0.1,0.2-0.3,0.4-0.4,0.5c-0.4,0.7-0.8,1.4-1.1,2.1c-0.5,0.7-1.2,1.3-1.8,2c-0.4,0.4-0.7,0.7-1,1
	c-0.3,0.4-0.7,0.8-0.9,1.2c-0.1,0.2-0.2,0.5-0.3,0.8c-0.1,0.1-0.1,0.3-0.1,0.4c0,0.2,0,0.3,0.1,0.4c0.1,0.5,0.4,1,0.7,1.4
	c0.3,0.4,0.7,0.8,1,1.1c0.3,0.3,0.7,0.5,1,0.8c0,0.1,0,0.3,0.1,0.5c0,0.2,0,0.4,0,0.7c0,0.4-0.1,0.9-0.2,1.3s-0.2,0.8-0.4,1.2
	c-0.1,0.2-0.2,0.4-0.3,0.5c-0.1,0.2-0.2,0.4-0.4,0.5c-0.3,0.4-0.6,0.6-1,1c-0.2,0.2-0.4,0.4-0.5,0.5c-0.2,0.2-0.3,0.4-0.4,0.7
	c-0.2,0.4-0.4,0.9-0.5,1.4s-0.1,0.8,0.1,1.3c0.1,0.2,0.1,0.3,0.2,0.5s0.2,0.5,0.4,0.7c0.1,0.1,0.2,0.2,0.4,0.3
	c0.1,0.1,0.3,0.1,0.5,0.1c0.3,0.1,0.7-0.6,1.1-0.5s0.5,0.7,0.5,0.7c0.1,0.2,0.2,0.4,0.3,0.5c0.2,0.2,0.3,0.3,0.6,0.4
	c0.3,0.1,0.6,0.1,0.7,0.1s0.2,0.1,0.4,0.2c0.1,0.1,0.2,0.3,0.2,0.5c0.1,0.4,0.2,0.8,0.1,1.2c0,0.2-0.1,0.4-0.1,0.6
	c-0.1,0.2-0.1,0.5-0.1,0.7c-0.1,0.4-0.1,0.7-0.1,1.1c-0.7,0.1-1.2,0.2-1.8,0.5c-0.7,0.3-1.3,0.8-1.8,1.3c-0.2,0.3-0.5,0.6-0.7,0.8
	l-0.3,0.4l-0.1,0.1l-0.1,0.1c0,0.1,0,0.1-0.1,0.1c-0.1,0.1-0.1,0.2-0.1,0.2c-0.3,0.7-0.6,1.3-0.8,2c-0.9,2.2-1.8,4.4-2.7,6.6
	c-0.1,0.2-0.3,0.4-0.4,0.6c-0.5,0.8-0.8,1.6-1.1,2.5c-0.1,0.4-0.2,0.7-0.2,1.1c-1.6,4.1-3.2,8.2-4.8,12.3c-1,0.1-1.9,0.4-2.8,0.7
	c-1,0.3-1.9,0.7-2.9,1l-2.8,1c-0.5,0.2-1,0.4-1.4,0.4c-0.5,0.1-1,0.2-1.4,0.2c-2,0.2-4,0.2-5.9,0.1c-1.8-0.1-3.6-0.3-5.5-0.5
	c-0.3,0-0.4-0.1-0.4-0.1l0,0c0,0,0,0-0.1,0H239l-0.1,0.1c-0.1,0.2-0.3,0.3-0.5,0.4s-0.4,0.1-0.5,0.2c-0.5,0.1-1.1,0.1-1.4,0.1h-0.1
	h-0.1l0,0l0,0l-0.1,0.1c-0.1,0.2-0.1,0.4-0.2,0.7c-0.1,0.2-0.2,0.4-0.3,0.5s-0.2,0.1-0.2,0.1c-0.1,0.1-0.2,0.1-0.4,0.1
	c-0.1,0.1-0.2,0.1-0.3,0.2s-0.1,0.2-0.1,0.4c-0.2,0.9-0.5,1.7-0.8,2.6c-0.1,0.4-0.3,0.9-0.4,1.3c0,0.1,0,0.1-0.1,0.2v0.1V78v0.1
	c0,0.1,0,0.2,0,0.4c0,0,0,0.1,0.1,0.1c0-0.1,0-0.2,0-0.3c0,0.1,0.1,0.2,0.4,0.3c0.5,0.2,2.2,1.2,2.5,1.4l0,0v0.1l0,0l0,0l0,0
	l0.7-0.3l0.9-0.3c0,0,0.7,0.4,1.1,0.3c-0.2,0.1-0.4,0.1-0.5,0.1c-0.3,0-0.5-0.1-0.8-0.3l-1.5,0.6l-1.2-0.7c-0.4-0.2-0.8-0.4-1.2-0.6
	c-0.1-0.1-0.2-0.1-0.3-0.1s-0.2-0.1-0.2-0.2l0,0c0,0.1,0.1,0.1,0.2,0.2c0.1,0.1,0.2,0.1,0.3,0.1c0.5,0.2,0.8,0.4,1.2,0.7l0.6,0.4
	l0.3,0.2l0.1,0.1l0.1,0.1c0,0.1,0.1,0.1,0.1,0.1l1.4-0.7h0.1h0.1c0.2,0.1,0.5,0.2,0.8,0.3c0.2,0.1,0.5-0.1,0.8-0.2
	c0.2-0.1,0.5-0.2,0.8-0.2c0.2,0,0.4,0.1,0.5,0.1c0.1,0.1,0.3,0.1,0.4,0.1c0.6,0.1,1.1,0.3,1.7,0.5c0.5,0.2,1,0.4,1.5,0.5
	c0,0,0.1,0,0.1-0.1l0,0c-0.5-0.2-1.1-0.4-1.6-0.6c-0.6-0.2-1.1-0.4-1.7-0.5c-0.3-0.1-0.5-0.1-0.8-0.1l0,0c0.6-0.1,4,1.1,4.1,1.2
	c0,0-0.1,0-0.1,0.1l0,0l0.1-0.1c0.1-0.1,0.2-0.1,0.2-0.2l0,0c0.2-0.1,0.4-0.4,0.7-0.6c-0.1,0.1-0.2,0.2-0.3,0.3
	c0.2-0.1,0.4-0.3,0.6-0.4c0.1-0.1,0.2-0.2,0.3-0.3l0,0c0.2-0.2,0.5-0.5,0.6-0.6l5.1-0.2l-5,0.1l0,0l0,0c0,0,3.2-0.1,6.9-0.2
	l-1.9,0.1l11.1-0.3c0.4,0,0.7,0,1,0c0.4,0,0.7,0,1,0c0.2,0,0.4-0.1,0.5-0.1c0.1-0.1,0.2-0.1,0.3-0.2c0.1-0.1,0.1-0.1,0.1-0.1
	l0.1-0.1l0.5-0.9c0.2-0.3,0.3-0.6,0.5-0.8l0.1-0.1l0.1-0.1c0.1-0.1,0.1-0.1,0.2-0.2s0.2-0.3,0.3-0.4c0.4-0.5,0.8-1.1,1.2-1.7
	c1.5-2.1,2.9-4.2,4.3-6.3c0.4,0.7,0.9,1.4,1.2,2.1c0.2,0.4,0.4,0.7,0.6,1.1c0.3,0.9,0.6,1.9,0.8,2.8c0.1,0.5,0.2,1,0.3,1.5
	c0.2,1,0.3,1.9,0.4,2.9s0.2,1.9,0.4,2.9c0.1,0.5,0.1,1,0.1,1.4c0.1,0.5,0.1,1,0.2,1.5c0.3,1.7,0.6,3.3,1.1,5l0.1,0.5
	c-3.6,2.5-6.8,5.3-9.9,8.3c-0.4,0.4-0.8,0.8-1.2,1.1l-0.6,0.6c-0.2,0.2-0.4,0.4-0.6,0.7c-0.4,0.4-0.7,0.9-1,1.4s-0.5,1-0.7,1.6
	c-0.1,0.3-0.1,0.6-0.1,0.9c0,0.2,0,0.3,0,0.5l0.1,0.4l0.1,1.7c0.1,1.1,0.1,2.2,0.2,3.3c0.1,0.5,0.1,1.1,0.2,1.7
	c0.1,0.1,0.1,0.3,0.1,0.5c0.1,0.1,0.1,0.2,0.1,0.2c0.1,0.1,0.1,0.1,0.1,0.2c0.2,0.2,0.4,0.5,0.5,0.7c0.4,0.4,0.8,0.8,1.2,1.2
	c0.2,0.2,0.5,0.4,0.8,0.5c0.1,0.1,0.3,0.1,0.5,0.2c0.1,0,0.1,0,0.2,0h0.1c0.1,0,0.1,0,0.2,0c1.1,0.1,2.1,0.3,3.2,0.5
	c0.2,0.1,0.5,0.1,0.8,0.2c0.1,0.1,0.2,0.1,0.4,0.1c0.1,0.1,0.2,0.1,0.4,0.1c0.5,0.2,1,0.5,1.4,0.7c1,0.5,2,1,2.9,1.5
	c0.5,0.2,1,0.5,1.5,0.7c0.2,0.1,0.5,0.2,0.8,0.3c0.1,0.1,0.3,0.1,0.4,0.1c0.2,0.1,0.4,0.1,0.5,0.1c1.1,0.1,2.3,0,3.3-0.1
	s2-0.1,3-0.2l8.2,10.8c0.2,0.5,0.5,1,0.8,1.4c0.3,0.5,0.7,1,1,1.4c0.7,0.8,1.3,1.7,2,2.5c0.4,1.2,0.9,2.4,1.4,3.4
	c0.6,1.1,1.2,2.2,1.9,3.3c1.4,2.1,2.9,4.2,4.3,6.2l0.5,0.8l0.3,0.4c0.1,0.1,0.2,0.2,0.2,0.4c0.3,0.5,0.6,1.1,0.9,1.6
	c0.5,1.1,1.1,2.3,1.5,3.4s1,2.3,1.5,3.4c0.1,0.3,0.2,0.6,0.4,0.8l0.1,0.1c0,0.1,0,0.2,0.1,0.2c0,0.2,0.1,0.3,0.1,0.5
	c0,0.1,0.1,0.3,0.1,0.4c0,0.1,0,0.1,0,0.1v0.1c0,0.1,0,0.2,0,0.3c0.1,0.4,0.2,0.5,0.4,0.7c0.1,0.1,0.2,0.2,0.2,0.2l1.4,7.1l0.4,1.8
	l0.2,0.9l0.1,0.2l0.1,0.2l0.1,0.4c0.1,0.6,0.2,1.2,0.2,1.8c0,0.1,0,0.1,0,0.2v0.2c0,0.2,0,0.4,0.1,0.6c0.1,0.3,0.1,0.6,0.2,0.8
	c-0.1,0.7-0.2,1.4-0.2,2.1c0,0.4-0.1,0.8,0,1.2v0.3c0,0.1,0,0.2,0.1,0.4s0.1,0.4,0.2,0.7c0.3,0.8,0.8,1.5,1.2,2.1
	c0.5,0.6,1,1.2,1.6,1.7l0.2,0.1h0.2h2.7h0.2l0.1-0.1c0.3-0.2,0.5-0.5,0.8-0.7c0.2-0.2,0.5-0.5,0.8-0.7c0.5-0.5,1-1,1.4-1.6
	c0.8-1.1,1.5-2.3,2.1-3.6c0.3-0.7,0.5-1.3,0.7-2c0,0,0.1-0.4,0.1-0.7c0-0.1,0-0.2,0.1-0.3v-0.2V174c0-0.2-0.1-0.4-0.1-0.5
	c-0.3-1.4-0.7-2.6-1-3.9c-0.2-0.7-0.3-1.3-0.5-2l-0.1-0.5c-0.1-0.2-0.1-0.3-0.1-0.5c-0.1-0.3-0.1-0.7-0.1-1c0-0.7,0-1.2,0.1-1.9
	s0.2-1.2,0.4-2c0.1-0.4,0.2-0.7,0.2-1.1c0-0.4-0.1-0.8-0.2-1.1c-0.2-0.7-0.5-1.4-1-2c-0.2-0.3-0.4-0.6-0.7-0.8
	c-0.2-0.3-0.5-0.5-0.8-0.7c-0.5-0.4-1-0.7-1.6-1c0-0.1-0.1-0.1-0.1-0.2c-0.1-0.1-0.1-0.3-0.2-0.4c-0.2-0.2-0.4-0.5-0.5-0.7
	c-0.2-0.2-0.4-0.4-0.7-0.5l-0.3-0.2c-0.1-0.1-0.2-0.1-0.3-0.2c-0.7-0.5-1.3-1.4-1.8-2.2c-0.2-0.4-0.5-0.8-0.7-1.3
	c-0.1-0.2-0.2-0.5-0.3-0.7l-0.1-0.3l-0.1-0.4c-0.2-1-0.4-1.9-0.5-2.9s-0.2-2-0.2-3c0-0.5,0-1,0-1.5c0-0.2,0-0.5,0-0.8
	c0-0.2,0-0.5,0-0.8c-0.1-1.1-0.4-2.1-0.8-3.1c-0.2-0.5-0.4-1-0.7-1.4c-0.2-0.4-0.5-0.8-0.7-1.1c0.2-1.1,0.4-2.1,0.7-3.2
	c0.1-0.6,0.2-1.1,0.3-1.7c0.1-0.3,0.1-0.6,0.1-0.9l0.1-0.4c0-0.2,0-0.3,0-0.5c0-0.7-0.1-1.2-0.2-1.8c-0.1-0.6-0.2-1.1-0.4-1.7
	c-0.2-0.5-0.4-1.1-0.5-1.7c-0.1-0.3-0.2-0.5-0.4-0.8c-0.1-0.1-0.1-0.3-0.2-0.4s-0.2-0.3-0.2-0.4c-0.4-0.5-0.9-0.9-1.4-1.2
	c-0.5-0.4-1-0.6-1.5-0.9c-0.5-0.2-1.1-0.5-1.5-0.8c-0.2-0.1-0.5-0.2-0.7-0.4c-0.2-0.1-0.4-0.3-0.5-0.5c-0.4-0.4-0.6-0.9-0.8-1.4
	c-0.2-0.5-0.4-1-0.6-1.5c-0.1-0.1-0.1-0.2-0.1-0.4l-0.1-0.2l-0.1-0.2c-0.1-0.3-0.2-0.6-0.4-0.9c-0.2-0.3-0.4-0.5-0.6-0.8
	c-0.1-0.1-0.2-0.2-0.4-0.3c-0.1-0.1-0.2-0.1-0.2-0.2l-1-4.5c0.4-0.1,0.8-0.2,1.2-0.4c0.5-0.2,1.1-0.4,1.5-0.7c0.5-0.2,1-0.5,1.4-0.8
	c0.5-0.3,0.9-0.7,1.3-1.1c0.8-1,1.4-2.2,2-3.4c0.5-1.2,0.8-2.5,1.1-3.7c0.5-2.6,0.5-5.2,0.1-7.7c-0.1-0.7-0.2-1.2-0.4-1.9
	c-0.2-0.7-0.4-1.2-0.7-1.8c-0.6-1.2-1.4-2.2-2.3-3.2s-1.8-1.8-2.9-2.6c-1-0.8-2.1-1.5-3.2-2.1c-0.7-0.6-1.4-1.3-2.1-2
	s-1.2-1.4-1.8-2.3c-0.5-0.8-0.9-1.7-1.1-2.6s-0.2-1.9,0.2-2.7c0.4-0.9,0.8-1.8,1.2-2.7l1.1-2.7c0.6-1.6,1.3-3.1,1.9-4.7
	c0-0.1-0.1-0.2-0.1-0.3v-0.1c0.1-0.2,0.1-0.3,0.1-0.4v0.1c0.2,0.9,1,2.9,2,5.2c0.8,2,1.6,3.6,1.6,3.6s0.4,0.8,1,2
	c0.8,1.6,1.4,2.9,1.7,3.3c0,0,0.1,0.1,0.1,0.2c0.1,0.1,0.1,0.2,0.2,0.4c0.7,1.4,1.5,3.9,1.9,5.2c0.1,0.6,0.2,0.9,0.2,0.9l0.3,0.2
	c0.3,0.2,0.7,0.6,1.1,0.6h0.1c0,0,0,0,0.1,0s0.2,0,0.3-0.1l0.1-0.1c0.4-0.2,1.1-0.4,2.1-0.7h0.1c1.8-0.2,3.6-0.9,5.1-1.5
	c0.7-0.2,1.1-0.4,1.3-0.5c-0.2,0.1-0.3,0.2-0.5,0.3c-0.3,0.2-0.7,0.4-1.1,0.6c0.5-0.2,1-0.5,1.5-0.7c0.2-0.1,0.5-0.3,0.7-0.4
	l0.4-0.2c0.1-0.1,0.2-0.2,0.4-0.2c0.5-0.4,0.9-0.7,1.3-1c0.8-0.7,1.7-1.5,2.5-2.3c1.6-1.6,3-3.3,4.5-5c1.4-1.7,2.7-3.5,3.9-5.4
	c0.4-0.2,0.6-0.5,0.8-0.8c0.1-0.2,0.2-0.4,0.4-0.5c0.1-0.2,0.2-0.4,0.3-0.5l0.7-2.8c0.2-1,0.5-1.9,0.8-2.8v-0.1l0.1-0.1
	c0-0.1,0.1-0.1,0.1-0.2C338.3,51.8,338.4,51.7,338.3,51.6z M233.4,77.7c0,0.1,0,0.1,0,0.2C233.4,77.8,233.4,77.8,233.4,77.7z
	 M303.3,105.1L303.3,105.1c0.4-0.1,0.7-0.2,1.1-0.3l0,0C304,104.9,303.7,105,303.3,105.1z M335.1,59.5L335.1,59.5
	C335.2,59.4,335.2,59.4,335.1,59.5C335.2,59.5,335.2,59.5,335.1,59.5z"/>
<path class="st5" d="M224.3,51.6c0-0.3-0.1-0.6-0.4-0.8c-0.1-0.1-0.1-0.1-0.2-0.1c-0.1,0-0.1-0.1-0.1-0.1c-0.1-0.1-0.2-0.1-0.2-0.2
	c-0.1-0.2-0.1-0.4-0.2-0.7c-0.1-0.2-0.2-0.5-0.4-0.7c-0.1-0.1-0.2-0.3-0.3-0.3c-0.1-0.1-0.2-0.1-0.3-0.2c0,0,0,0-0.1,0
	s-0.2-0.1-0.2-0.1c-0.1-0.1-0.2-0.1-0.2-0.2c-0.1-0.1-0.2-0.4-0.2-0.5v-0.1c-0.1-0.2-0.2-0.4-0.3-0.5s-0.1-0.2-0.2-0.3
	c0-0.1-0.1-0.1-0.1-0.2c-0.3-0.4-0.7-0.3-1.2-0.6c0-0.1-0.1-0.2-0.1-0.3l-0.1-0.1c-0.2-0.4-0.6-0.7-1.1-0.6
	c-0.8,0.2-3.3,2.6-3.3,2.6l-0.3,0.9c0,0-0.2,0.1-0.4,0.2c-0.2,0.1-0.4,0.3-0.6,0.6c-0.1,0.1-0.1,0.3-0.2,0.4c0,0.1-0.1,0.1-0.1,0.2
	c-0.1,0.2-0.1,0.3-0.1,0.5c0-0.1,0-0.2,0.1-0.3c0-0.1,0.1-0.1,0.1-0.2c0,0.1,0,0.2,0,0.3c0.2,1.2,0,3.7,0,3.7l0.1,0.2l0,0l2,3.2l0,0
	l-0.2,0.3l-2-3.2c0.1-0.5,0.1-1,0.1-1.4v0l0,0c0,0.5-0.1,1-0.1,1.5v0.1l0.1,0.1l1.9,3.2l-1,1.2c-2.9,3.2-7.5,5-7.5,5l-3.4,0.5
	c-0.5,0-0.8,0-0.8,0s-0.1,0-0.2,0.1l-3-14.3l0,0l0,0l-0.5-2.2c0.4-0.1,0.7-0.2,1-0.4c0.4-0.2,0.8-0.5,1.1-0.9
	c0.7-0.7,1.2-1.5,1.6-2.4c0.2-0.5,0.2-1,0.4-1.4c0.1-0.5,0.1-0.9,0.1-1.4c0.1-0.9,0.1-1.8-0.1-2.8c-0.1-0.9-0.3-1.8-0.7-2.7
	s-1-1.7-1.8-2.3c-0.2-0.1-0.4-0.3-0.7-0.4s-0.5-0.2-0.7-0.3c-0.4-0.2-0.8-0.4-1.1-0.6c-0.7-0.5-1.3-1.1-1.8-1.8
	c-0.5-0.7-0.8-1.5-1.1-2.3c-0.2-0.8-0.4-1.7-0.5-2.6c-0.4-1.8-0.6-3.5-0.8-5.3c-0.1-0.9-0.1-1.8-0.2-2.7v-1.4c0-0.5-0.1-1-0.3-1.4
	c-0.3-1-0.8-1.7-1.4-2.4c-0.5-0.7-1.1-1.2-1.8-1.7c0-0.1,0.1-0.2,0.1-0.4c0-0.3-0.1-0.6-0.3-0.8s-0.4-0.4-0.6-0.5
	c-0.1,0-0.1-0.1-0.2-0.1s-0.1-0.1-0.1-0.1C189.1,9,189,9,189,9c-0.7-0.4-1.3-0.8-2-1.2c-1.3-0.8-2.6-1.7-3.9-2.6L183,5.1l-0.2,0.1
	c-0.3,0.1-0.6,0.2-1,0.2c-0.4,0.1-0.7,0.1-1.1,0c-0.4,0-0.7-0.1-1.1-0.2c-0.4-0.1-0.7-0.1-1-0.2c-0.4-0.4-1-0.8-1.5-1.1
	c-0.6-0.3-1.2-0.5-2-0.6c-0.7-0.1-1.2-0.1-1.9,0.2c-0.3,0.1-0.8,0.2-1.1,0.4c-0.3,0.1-0.5,0.3-0.8,0.5c0,0-0.3,0.1-0.9,0.7l-0.3,0.1
	l-0.2,0.5C169.6,6,169.3,6.4,169,7c0,0,0,0-0.1,0.1c-0.2,0.2-0.4,0.4-0.7,0.5s-0.7,0.2-1.1,0.4c-0.3,0-0.6,0-1.1,0.1
	c-0.1,0-0.1,0.1-0.2,0.1c-0.1,0.1-0.2,0.1-0.2,0.2c-0.1,0.1-0.2,0.2-0.2,0.4c-0.1,0.2-0.2,0.4-0.2,0.6c-0.1,0.4-0.2,0.7-0.4,1
	c-0.1,0.1-0.1,0.1-0.1,0.2l-0.1,0.1l-0.1,0.1c-0.1,0.2-0.3,0.4-0.4,0.5c-0.4,0.7-0.8,1.4-1.1,2.1c-0.5,0.7-1.2,1.3-1.8,2
	c-0.4,0.4-0.7,0.7-1,1c-0.3,0.4-0.7,0.8-0.9,1.2c-0.1,0.2-0.2,0.5-0.3,0.8c-0.1,0.1-0.1,0.3-0.1,0.4c0,0.2,0,0.3,0.1,0.4
	c0.1,0.5,0.4,1,0.7,1.4s0.7,0.8,1,1.1c0.3,0.3,0.7,0.5,1,0.8c0,0.1,0,0.3,0.1,0.5v0.7c0,0.4-0.1,0.9-0.2,1.3s-0.2,0.8-0.4,1.2
	c-0.1,0.2-0.2,0.4-0.3,0.5c-0.1,0.2-0.2,0.4-0.4,0.5c-0.3,0.4-0.6,0.6-1,1c-0.2,0.2-0.4,0.4-0.5,0.5c-0.2,0.2-0.3,0.4-0.4,0.7
	c-0.2,0.4-0.4,0.9-0.5,1.4s-0.1,0.8,0.1,1.3c0.1,0.2,0.1,0.3,0.2,0.5c0.1,0.2,0.2,0.5,0.4,0.7c0.1,0.1,0.2,0.2,0.4,0.3
	c0.1,0.1,0.3,0.1,0.5,0.1c0.3,0.1,0.7-0.6,1.1-0.5c0.4,0.1,0.5,0.7,0.5,0.7c0.1,0.2,0.2,0.4,0.3,0.5c0.2,0.2,0.3,0.3,0.6,0.4
	c0.3,0.1,0.6,0.1,0.7,0.1s0.2,0.1,0.4,0.2s0.2,0.3,0.2,0.5c0.1,0.4,0.2,0.8,0.1,1.2c0,0.2-0.1,0.4-0.1,0.6c-0.1,0.2-0.1,0.5-0.1,0.7
	c-0.1,0.4-0.1,0.7-0.1,1.1c-0.7,0.1-1.2,0.2-1.8,0.5c-0.7,0.3-1.3,0.8-1.8,1.3c-0.2,0.3-0.5,0.6-0.7,0.8l-0.3,0.4l-0.1,0.1l-0.1,0.1
	c0,0.1,0,0.1-0.1,0.1c-0.1,0.1-0.1,0.2-0.1,0.2c-0.3,0.7-0.6,1.3-0.8,2c-0.9,2.2-1.8,4.4-2.7,6.6c-0.1,0.2-0.3,0.4-0.4,0.6
	c-0.5,0.8-0.8,1.6-1.1,2.5c-0.1,0.4-0.2,0.7-0.2,1.1c-1.6,4.1-3.2,8.2-4.8,12.3c-1,0.1-1.9,0.4-2.8,0.7c-1,0.3-1.9,0.7-2.9,1l-2.8,1
	c-0.5,0.2-1,0.4-1.4,0.4c-0.5,0.1-1,0.2-1.4,0.2c-2,0.2-4,0.2-5.9,0.1c-1.8-0.1-3.6-0.3-5.5-0.5c-0.3,0-0.4-0.1-0.4-0.1l0,0
	c0,0,0,0-0.1,0H125l-0.1,0.1c-0.1,0.2-0.3,0.3-0.5,0.4s-0.4,0.1-0.5,0.2c-0.5,0.1-1.1,0.1-1.4,0.1h-0.1h-0.1l0,0l0,0l-0.1,0.1
	c-0.1,0.2-0.1,0.4-0.2,0.7c-0.1,0.2-0.2,0.4-0.3,0.5c-0.1,0.1-0.2,0.1-0.2,0.1c-0.1,0.1-0.2,0.1-0.4,0.1c-0.1,0.1-0.2,0.1-0.3,0.2
	c-0.1,0.1-0.1,0.2-0.1,0.4c-0.2,0.9-0.5,1.7-0.8,2.6c-0.1,0.4-0.3,0.9-0.4,1.3c0,0.1,0,0.1-0.1,0.2v0.1v0.5c0,0,0,0.1,0.1,0.1V78
	c0,0.1,0.1,0.2,0.4,0.3c0.5,0.2,2.2,1.2,2.5,1.4l0,0v0.1l0,0l0,0l0,0l0.7-0.3l0.9-0.3c0,0,0.7,0.4,1.1,0.3c-0.2,0.1-0.4,0.1-0.5,0.1
	c-0.3,0-0.5-0.1-0.8-0.3l-1.5,0.6l-1.2-0.7c-0.4-0.2-0.8-0.4-1.2-0.6c-0.1-0.1-0.2-0.1-0.3-0.1c-0.1,0-0.2-0.1-0.2-0.2l0,0
	c0,0.1,0.1,0.1,0.2,0.2s0.2,0.1,0.3,0.1c0.5,0.2,0.8,0.4,1.2,0.7l0.6,0.4l0.3,0.2l0.1,0.1l0.1,0.1c0,0.1,0.1,0.1,0.1,0.1l1.4-0.7
	h0.1c0.2,0.1,0.5,0.2,0.8,0.3c0.2,0.1,0.5-0.1,0.8-0.2c0.2-0.1,0.5-0.2,0.8-0.2c0.2,0,0.4,0.1,0.5,0.1c0.1,0.1,0.3,0.1,0.4,0.1
	c0.6,0.1,1.1,0.3,1.7,0.5c0.5,0.2,1,0.4,1.5,0.5c0,0,0.1,0,0.1-0.1l0,0c-0.5-0.2-1.1-0.4-1.6-0.6c-0.6-0.2-1.1-0.4-1.7-0.5
	c-0.3-0.1-0.5-0.1-0.8-0.1l0,0c0.6-0.1,4,1.1,4.1,1.2c0,0-0.1,0-0.1,0.1l0,0l0.1-0.1c0.1-0.1,0.2-0.1,0.2-0.2l0,0
	c0.2-0.1,0.4-0.4,0.7-0.6c-0.1,0.1-0.2,0.2-0.3,0.3c0.2-0.1,0.4-0.3,0.6-0.4c0.1-0.1,0.2-0.2,0.3-0.3l0,0c0.2-0.2,0.5-0.5,0.6-0.6
	l5.1-0.2l-5,0.1l0,0l0,0c0,0,3.2-0.1,6.9-0.2l-1.9,0.1l11.1-0.3h2c0.2,0,0.4-0.1,0.5-0.1c0.1-0.1,0.2-0.1,0.3-0.2s0.1-0.1,0.1-0.1
	l0.1-0.1l0.5-0.9c0.2-0.3,0.3-0.6,0.5-0.8l0.1-0.1l0.1-0.1c0.1-0.1,0.1-0.1,0.2-0.2c0.1-0.1,0.2-0.3,0.3-0.4
	c0.4-0.5,0.8-1.1,1.2-1.7c1.5-2.1,2.9-4.2,4.3-6.3c0.4,0.7,0.9,1.4,1.2,2.1c0.2,0.4,0.4,0.7,0.6,1.1c0.3,0.9,0.6,1.9,0.8,2.8
	c0.1,0.5,0.2,1,0.3,1.5c0.2,1,0.3,1.9,0.4,2.9c0.1,1,0.2,1.9,0.4,2.9c0.1,0.5,0.1,1,0.1,1.4c0.1,0.5,0.1,1,0.2,1.5
	c0.3,1.7,0.6,3.3,1.1,5l0.1,0.5c-3.6,2.5-6.8,5.3-9.9,8.3c-0.4,0.4-0.8,0.8-1.2,1.1l-0.6,0.6c-0.2,0.2-0.4,0.4-0.6,0.7
	c-0.4,0.4-0.7,0.9-1,1.4s-0.5,1-0.7,1.6c-0.1,0.3-0.1,0.6-0.1,0.9v0.5l0.1,0.4l0.1,1.7c0.1,1.1,0.1,2.2,0.2,3.3
	c0.1,0.5,0.1,1.1,0.2,1.7c0.1,0.1,0.1,0.3,0.1,0.4c0.1,0.1,0.2,0.3,0.3,0.4c0.5,0.5,1,1,1.5,1.5c0.7,0.6,0.8,0.7,1.5,1.2
	c0.6,0.4,1.3,0.9,2,1.2c1.4,0.8,2.8,1.5,4.2,2.2l0,0l1.8-0.1l8.2,10.8c0.2,0.5,0.5,1,0.8,1.4c0.3,0.5,0.7,1,1,1.4
	c0.7,0.8,1.3,1.7,2,2.5c0.4,1.2,0.9,2.4,1.4,3.4c0.6,1.1,1.2,2.2,1.9,3.3c1.4,2.1,2.9,4.2,4.3,6.2l0.5,0.8l0.3,0.4
	c0.1,0.1,0.2,0.2,0.2,0.4c0.3,0.5,0.6,1.1,0.9,1.6c0.5,1.1,1.1,2.3,1.5,3.4s1,2.3,1.5,3.4c0.1,0.3,0.2,0.6,0.4,0.8l0.1,0.1
	c0,0.1,0,0.2,0.1,0.2c0,0.2,0.1,0.3,0.1,0.5c0,0.1,0.1,0.3,0.1,0.4c0,0.1,0,0.1,0,0.1v0.4c0.1,0.4,0.2,0.5,0.4,0.7
	c0.1,0.1,0.2,0.2,0.2,0.2l1.4,7.1l0.4,1.8l0.2,0.9l0.1,0.2l0.1,0.2l0.1,0.4c0.1,0.6,0.2,1.2,0.2,1.8v0.4c0,0.2,0,0.4,0.1,0.6
	c0.1,0.3,0.1,0.6,0.2,0.8c-0.1,0.7-0.2,1.4-0.2,2.1c0,0.4-0.1,0.8,0,1.2v0.3c0,0.1,0,0.2,0.1,0.4s0.1,0.4,0.2,0.7
	c0.3,0.8,0.8,1.5,1.2,2.1c0.5,0.6,1,1.2,1.6,1.7l0.2,0.1h3.1l0.1-0.1c0.3-0.2,0.5-0.5,0.8-0.7c0.2-0.2,0.5-0.5,0.8-0.7
	c0.5-0.5,1-1,1.4-1.6c0.8-1.1,1.5-2.3,2.1-3.6c0.3-0.7,0.5-1.3,0.7-2c0,0,0.1-0.4,0.1-0.7c0-0.1,0-0.2,0.1-0.3V173
	c0-0.2-0.1-0.4-0.1-0.5c-0.3-1.4-0.7-2.6-1-3.9c-0.2-0.7-0.3-1.3-0.5-2l-0.1-0.5c-0.1-0.2-0.1-0.3-0.1-0.5c-0.1-0.3-0.1-0.7-0.1-1
	c0-0.7,0-1.2,0.1-1.9s0.2-1.2,0.4-2c0.1-0.4,0.2-0.7,0.2-1.1s-0.1-0.8-0.2-1.1c-0.2-0.7-0.5-1.4-1-2c-0.2-0.3-0.4-0.6-0.7-0.8
	c-0.2-0.3-0.5-0.5-0.8-0.7c-0.5-0.4-1-0.7-1.6-1c0-0.1-0.1-0.1-0.1-0.2c-0.1-0.1-0.1-0.3-0.2-0.4c-0.2-0.2-0.4-0.5-0.5-0.7
	c-0.2-0.2-0.4-0.4-0.7-0.5l-0.3-0.2c-0.1-0.1-0.2-0.1-0.3-0.2c-0.7-0.5-1.3-1.4-1.8-2.2c-0.2-0.4-0.5-0.8-0.7-1.3
	c-0.1-0.2-0.2-0.5-0.3-0.7l-0.1-0.3l-0.1-0.4c-0.2-1-0.4-1.9-0.5-2.9s-0.2-2-0.2-3v-3.1c-0.1-1.1-0.4-2.1-0.8-3.1
	c-0.2-0.5-0.4-1-0.7-1.4c-0.2-0.4-0.5-0.8-0.7-1.1c0.2-1.1,0.4-2.1,0.7-3.2c0.1-0.6,0.2-1.1,0.3-1.7c0.1-0.3,0.1-0.6,0.1-0.9
	l0.1-0.4v-0.5c0-0.7-0.1-1.2-0.2-1.8c-0.1-0.6-0.2-1.1-0.4-1.7c-0.2-0.5-0.4-1.1-0.5-1.7c-0.1-0.3-0.2-0.5-0.4-0.8
	c-0.1-0.1-0.1-0.3-0.2-0.4c-0.1-0.1-0.2-0.3-0.2-0.4c-0.4-0.5-0.9-0.9-1.4-1.2c-0.5-0.4-1-0.6-1.5-0.9c-0.5-0.2-1.1-0.5-1.5-0.8
	c-0.2-0.1-0.5-0.2-0.7-0.4c-0.2-0.1-0.4-0.3-0.5-0.5c-0.4-0.4-0.6-0.9-0.8-1.4s-0.4-1-0.6-1.5c-0.1-0.1-0.1-0.2-0.1-0.4l-0.1-0.2
	l-0.1-0.2c-0.1-0.3-0.2-0.6-0.4-0.9s-0.4-0.5-0.6-0.8c-0.1-0.1-0.2-0.2-0.4-0.3c-0.1-0.1-0.2-0.1-0.2-0.2l10.1-3.7
	c0.4-0.1,0.8-0.2,1.2-0.4c0.5-0.2,1.1-0.4,1.5-0.7c0.5-0.2,1-0.5,1.4-0.8c0.5-0.3,0.9-0.7,1.3-1.1c0.8-1,1.4-2.2,2-3.4
	c0.5-1.2,0.8-2.5,1.1-3.7c0.5-2.6,0.5-5.2,0.1-7.7c-0.1-0.7-0.2-1.2-0.4-1.9c-0.2-0.7-0.4-1.2-0.7-1.8c-0.6-1.2-1.4-2.2-2.3-3.2
	s-1.8-1.8-2.9-2.6c-1-0.8-2.1-1.5-3.2-2.1c-0.7-0.6-1.4-1.3-2.1-2c-0.7-0.7-1.2-1.4-1.8-2.3c-0.5-0.8-0.9-1.7-1.1-2.6
	c-0.2-0.9-0.2-1.9,0.2-2.7c0.4-0.9,0.8-1.8,1.2-2.7l1.1-2.7c0.6-1.6,1.3-3.1,1.9-4.7c0-0.1-0.1-0.2-0.1-0.3v-0.1
	c0.1-0.2,0.1-0.3,0.1-0.4v0.1c0.2,0.9,1,2.9,2,5.2c0.8,2,1.6,3.6,1.6,3.6s0.4,0.8,1,2c0.8,1.6,1.4,2.9,1.7,3.3c0,0,0.1,0.1,0.1,0.2
	c0.1,0.1,0.1,0.2,0.2,0.4c0.7,1.4,1.5,3.9,1.9,5.2c0.1,0.6,0.2,0.9,0.2,0.9l0.3,0.2c0.3,0.2,0.7,0.6,1.1,0.6h0.1c0,0,0,0,0.1,0
	s0.2,0,0.3-0.1l0.1-0.1c0.4-0.2,1.1-0.4,2.1-0.7h0.1c1.8-0.2,3.6-0.9,5.1-1.5c0.7-0.2,1.1-0.4,1.3-0.5c-0.2,0.1-0.3,0.2-0.5,0.3
	c-0.3,0.2-0.7,0.4-1.1,0.6c0.5-0.2,1-0.5,1.5-0.7c0.2-0.1,0.5-0.3,0.7-0.4l0.4-0.2c0.1-0.1,0.2-0.2,0.4-0.2c0.5-0.4,0.9-0.7,1.3-1
	c0.8-0.7,1.7-1.5,2.5-2.3c1.6-1.6,3-3.3,4.5-5c1.4-1.7,2.7-3.5,3.9-5.4c0.4-0.2,0.6-0.5,0.8-0.8c0.1-0.2,0.2-0.4,0.4-0.5
	c0.1-0.2,0.2-0.4,0.3-0.5l0.7-2.8c0.2-1,0.5-1.9,0.8-2.8v-0.1l0.1-0.1c0-0.1,0.1-0.1,0.1-0.2C224.3,51.8,224.3,51.7,224.3,51.6z"/>
<path class="st5" d="M235.1,82.7c0,0.1,0,0.1,0,0.2C235.1,82.8,235.1,82.8,235.1,82.7z"/>
<path class="st5" d="M305,110.1L305,110.1c0.4-0.1,0.7-0.2,1.1-0.3l0,0C305.7,109.9,305.3,110,305,110.1z"/>
<path class="st5" d="M336.8,59.5L336.8,59.5C336.9,59.4,336.9,59.4,336.8,59.5C336.9,59.5,336.8,59.5,336.8,59.5z"/>
<path class="st5" d="M105.8,51.6c0-0.3-0.1-0.6-0.4-0.8c-0.1-0.1-0.1-0.1-0.2-0.1s-0.1-0.1-0.1-0.1c-0.1-0.1-0.2-0.1-0.2-0.2
	c-0.1-0.2-0.1-0.4-0.2-0.7c-0.1-0.2-0.2-0.5-0.4-0.7c-0.1-0.1-0.2-0.3-0.3-0.3c-0.1-0.1-0.2-0.1-0.3-0.2c0,0,0,0-0.1,0
	s-0.2-0.1-0.2-0.1c-0.1-0.1-0.2-0.1-0.2-0.2c-0.1-0.1-0.2-0.4-0.2-0.5v-0.1v-0.1c-0.1-0.2-0.2-0.4-0.3-0.5c-0.1-0.1-0.1-0.2-0.2-0.3
	c0-0.1-0.1-0.1-0.1-0.2c-0.3-0.4-0.7-0.3-1.2-0.6c0-0.1-0.1-0.2-0.1-0.3l-0.1-0.1c-0.2-0.4-0.6-0.7-1.1-0.6
	c-0.8,0.2-3.3,2.6-3.3,2.6l-0.3,0.9c0,0-0.2,0.1-0.4,0.2c-0.2,0.1-0.4,0.3-0.6,0.6c-0.1,0.1-0.1,0.3-0.2,0.4c0,0.1-0.1,0.1-0.1,0.2
	c-0.1,0.2-0.1,0.3-0.1,0.5c0-0.1,0-0.2,0.1-0.3c0-0.1,0.1-0.1,0.1-0.2c0,0.1,0,0.2,0,0.3c0.2,1.2,0,3.7,0,3.7l0.1,0.2l0,0l2,3.2l0,0
	L97,57.8l-2-3.2c0.1-0.5,0.1-1,0.1-1.4v-0.1l0,0c0,0.5-0.1,1-0.1,1.5v0.1l0.1,0.1L97,58l-1,1c-2.9,3.2-7.5,5-7.5,5L85,64.6
	c-0.5,0-0.8,0-0.8,0s-0.1,0-0.2,0.1l-3-14.3l0,0l0,0l-0.5-2.2c0.4-0.1,0.7-0.2,1-0.4c0.4-0.2,0.8-0.5,1.1-0.9
	c0.7-0.7,1.2-1.5,1.6-2.4c0.2-0.5,0.2-1,0.4-1.4c0.1-0.5,0.1-0.9,0.1-1.4c0.1-0.9,0.1-1.8-0.1-2.8c-0.1-0.9-0.3-1.8-0.7-2.7
	c-0.4-0.9-1-1.7-1.8-2.3c-0.2-0.1-0.4-0.3-0.7-0.4s-0.5-0.2-0.7-0.3c-0.4-0.2-0.8-0.4-1.1-0.6c-0.7-0.5-1.3-1.1-1.8-1.8
	c-0.5-0.7-0.8-1.5-1.1-2.3c-0.2-0.8-0.4-1.7-0.5-2.6c-0.4-1.8-0.6-3.5-0.8-5.3c-0.1-0.9-0.1-1.8-0.2-2.7c0-0.2,0-0.4,0-0.7
	c0-0.2,0-0.4,0-0.7c0-0.5-0.1-1-0.3-1.4c-0.3-1-0.8-1.7-1.4-2.4C73,12,72.4,11.5,71.7,11c0-0.1,0.1-0.2,0.1-0.4
	c0-0.3-0.1-0.6-0.3-0.8s-0.4-0.4-0.6-0.5c-0.1,0-0.1-0.1-0.2-0.1s-0.1-0.1-0.1-0.1C70.5,9,70.4,9,70.4,9c-0.7-0.4-1.3-0.8-2-1.2
	c-1.3-0.8-2.6-1.7-3.9-2.6L64.3,5l-0.2,0.1c-0.3,0.1-0.6,0.2-1,0.2c-0.4,0.1-0.7,0.1-1.1,0c-0.4,0-0.7-0.1-1.1-0.2
	c-0.4-0.1-0.7-0.1-1-0.2c-0.4-0.4-1-0.8-1.5-1.1c-0.6-0.3-1.2-0.5-2-0.6c-0.7-0.1-1.2-0.1-1.9,0.2c-0.3,0.1-0.8,0.2-1.1,0.4
	c-0.3,0.1-0.5,0.3-0.8,0.5c0,0-0.3,0.1-0.9,0.7l-0.3,0.1l-0.2,0.5c0,0.4-0.3,0.8-0.6,1.4c0,0,0,0-0.1,0.1c-0.2,0.2-0.4,0.4-0.7,0.5
	S49.1,7.8,48.7,8c-0.3,0-0.7,0-1.1,0.1c-0.1,0-0.1,0.1-0.2,0.1c-0.1,0.1-0.2,0.1-0.2,0.2C47.1,8.5,47,8.6,47,8.7
	c-0.1,0.2-0.2,0.4-0.2,0.6c-0.1,0.4-0.2,0.7-0.4,1c-0.1,0.1-0.1,0.1-0.1,0.2l-0.1,0.1L46,10.7c-0.1,0.2-0.3,0.4-0.4,0.5
	c-0.4,0.7-0.8,1.4-1.1,2.1c-0.5,0.7-1.2,1.3-1.8,2c-0.4,0.4-0.7,0.7-1,1c-0.3,0.4-0.7,0.8-0.9,1.2c-0.1,0.2-0.2,0.5-0.3,0.8
	c-0.1,0.1-0.1,0.3-0.1,0.4c0,0.2,0,0.3,0.1,0.4c0.1,0.5,0.4,1,0.7,1.4s0.7,0.8,1,1.1c0.3,0.3,0.7,0.5,1,0.8c0,0.1,0,0.3,0.1,0.5
	c0,0.2,0,0.4,0,0.7c0,0.4-0.1,0.9-0.2,1.3c-0.1,0.4-0.2,0.8-0.4,1.2c-0.1,0.2-0.2,0.4-0.3,0.5c-0.1,0.2-0.2,0.4-0.4,0.5
	c-2,1.7-4.7,1.9-4.5,5.6s1.6,4.9,1.1,6.4c-0.5,1.4-5.8,7-1.7,10.8c-0.2,0.4-0.3,0.8-0.5,1.2c-0.1,0.2-0.3,0.4-0.4,0.6
	c-0.5,0.8-0.8,1.6-1.1,2.5c-0.1,0.4-0.2,0.7-0.2,1.1c-1.6,4.1-3.2,8.2-4.8,12.3c-1,0.1-1.9,0.4-2.8,0.7c-1,0.3-1.9,0.7-2.9,1l-2.8,1
	c-0.5,0.2-1,0.4-1.4,0.4c-0.5,0.1-1,0.2-1.4,0.2c-2,0.2-4,0.2-5.9,0.1c-1.9,0.1-3.7,0-5.5-0.3c-0.3,0-0.4-0.1-0.4-0.1l0,0
	c0,0,0,0-0.1,0H6.6l-0.1,0.1C6.4,70.9,6.2,71,6,71.1s-0.4,0.1-0.5,0.2c-0.5,0.1-1.1,0.1-1.4,0.1H4H3.8l0,0l0,0l-0.1,0.1
	c-0.1,0.2-0.1,0.4-0.2,0.7c-0.1,0.2-0.2,0.4-0.3,0.5c0,0-0.2,0-0.2,0c-0.1,0.1-0.2,0.1-0.4,0.1c-0.1,0.1-0.2,0.1-0.3,0.2
	s-0.1,0.2-0.1,0.4C2,74.3,1.7,75.2,1.4,76c-0.1,0.4-0.3,0.9-0.4,1.3c0,0.1,0,0.1-0.1,0.2v0.1v0.1v0.1c0,0.1,0,0.2,0,0.4
	c0,0,0,0.1,0.1,0.1c0-0.1,0-0.2,0-0.3c0,0.1,0.1,0.2,0.4,0.3c0.5,0.2,2.2,1.2,2.5,1.4l0,0v0.1l0,0l0,0l0,0l0.7-0.3l0.9-0.3
	c0,0,0.7,0.4,1.1,0.3c-0.2,0.1-0.4,0.1-0.5,0.1c-0.3,0-0.5-0.1-0.8-0.3l-1.5,0.6l-1.2-0.7c-0.4-0.2-0.8-0.4-1.2-0.6
	c-0.1-0.1-0.2-0.1-0.3-0.1c-0.1,0-0.2-0.1-0.2-0.2l0,0c0,0.1,0.1,0.1,0.2,0.2s0.2,0.1,0.3,0.1c0.5,0.2,0.8,0.4,1.2,0.7l0.6,0.4
	l0.3,0.2L3.6,80l0.1,0.1c0,0.1,0.1,0.1,0.1,0.1l1.4-0.7h0.1h0.1c0.2,0.1,0.5,0.2,0.8,0.3c0.2,0.1,0.5-0.1,0.8-0.2
	c0.2-0.1,0.5-0.2,0.8-0.2c0.2,0,0.4,0.1,0.5,0.1c0.1,0.1,0.3,0.1,0.4,0.1c0.6,0.1,1.1,0.3,1.7,0.5c0.5,0.2,1,0.4,1.5,0.5
	c0,0,0.1,0,0.1-0.1l0,0c-0.5-0.2-1.1-0.4-1.6-0.6c-0.6-0.2-1.1-0.4-1.7-0.5C8.4,79.1,8.1,79,7.9,79l0,0c0.6-0.1,4,1.1,4.1,1.2
	c0,0-0.1,0-0.1,0.1l0,0l0.1-0.1c0.1-0.1,0.2-0.1,0.2-0.2l0,0c0.2-0.1,0.4-0.4,0.7-0.6c-0.1,0.1-0.2,0.2-0.3,0.3
	c0.2-0.1,0.4-0.3,0.6-0.4c0.1-0.1,0.2-0.2,0.3-0.3l0,0c0.2-0.2,0.5-0.5,0.6-0.6l5.1-0.2l-5,0.1l0,0l0,0c0,0,3.2-0.1,6.9-0.2
	l-1.9,0.1l11-0.2c0.4,0,0.7,0,1,0c0.4,0,0.7,0,1,0c0.2,0,0.4-0.1,0.5-0.1c0.1-0.1,0.2-0.1,0.3-0.2s0.1-0.1,0.1-0.1l0.1-0.1l0.5-0.9
	c0.2-0.3,0.3-0.6,0.5-0.8l0.1-0.1l0.1-0.1c0.1-0.1,0.1-0.1,0.2-0.2c0.1-0.1,0.2-0.3,0.3-0.4c0.4-0.5,0.8-1.1,1.2-1.7
	c1.5-2.1,2.9-4.2,4.3-6.3c0.4,0.7,0.9,1.4,1.2,2.1c0.2,0.4,0.4,0.7,0.6,1.1c0.3,0.9,0.6,1.9,0.8,2.8c0.1,0.5,0.2,1,0.3,1.5
	c0.2,1,0.3,1.9,0.4,2.9s0.2,1.9,0.4,2.9c0.1,0.5,0.1,1,0.1,1.4c0.1,0.5,0.1,1,0.2,1.5c0.3,1.7,0.6,3.3,1.1,5l0.1,0.5
	C42,91.2,38.8,94,35.7,97c-0.4,0.4-0.8,0.8-1.2,1.1l-0.6,0.6c-0.2,0.2-0.4,0.4-0.6,0.7c-0.4,0.4-0.7,0.9-1,1.4s-0.5,1-0.7,1.6
	c-0.1,0.3-0.1,0.6-0.1,0.9c0,0.2,0,0.3,0,0.5l0.1,0.4l0.1,1.7c0.1,1.1,0.1,2.2,0.2,3.3c0.1,0.5,0.1,1.1,0.2,1.7
	c0.1,0.1,0.1,0.3,0.1,0.5c0.1,0.1,0.1,0.2,0.1,0.2c0.1,0.1,0.1,0.1,0.1,0.2c0.2,0.2,0.4,0.5,0.5,0.7c0.4,0.4,0.8,0.8,1.2,1.2
	c0.2,0.2,0.5,0.4,0.8,0.5c0.1,0.1,0.3,0.1,0.5,0.2c0.1,0,0.1,0,0.2,0h0.1c0.1,0,0.1,0,0.2,0c1.1,0.1,2.1,0.3,3.2,0.5
	c0.2,0.1,0.5,0.1,0.8,0.2c0.1,0.1,0.2,0.1,0.4,0.1c0.1,0.1,0.2,0.1,0.4,0.1c0.5,0.2,1,0.5,1.4,0.7c1,0.5,2,1,2.9,1.5
	c0.5,0.2,1,0.5,1.5,0.7c0.2,0.1,0.5,0.2,0.8,0.3c0.1,0.1,0.3,0.1,0.4,0.1c0.2,0.1,0.4,0.1,0.5,0.1c1.1,0.1,2.3,0,3.3-0.1
	s2-0.1,3-0.2l8.2,10.8c0.2,0.5,0.5,1,0.8,1.4c0.3,0.5,0.7,1,1,1.4c0.7,0.8,1.3,1.7,2,2.5c0.4,1.2,0.9,2.4,1.4,3.4
	c0.6,1.1,1.2,2.2,1.9,3.3c1.4,2.1,2.9,4.2,4.3,6.2l0.5,0.8l0.3,0.4c0.1,0.1,0.2,0.2,0.2,0.4c0.3,0.5,0.6,1.1,0.9,1.6
	c0.5,1.1,1.1,2.3,1.5,3.4s1,2.3,1.5,3.4c0.1,0.3,0.2,0.6,0.4,0.8l0.1,0.1c0,0.1,0,0.2,0.1,0.2c0,0.2,0.1,0.3,0.1,0.5
	c0,0.1,0.1,0.3,0.1,0.4c0,0.1,0,0.1,0,0.1v0.1c0,0.1,0,0.2,0,0.3c0.1,0.4,0.2,0.5,0.4,0.7c0.1,0.1,0.2,0.2,0.2,0.2l1.4,7.1l0.4,1.8
	l0.2,0.9l0.1,0.2l0.1,0.2l0.1,0.4c0.1,0.6,0.2,1.2,0.2,1.8c0,0.1,0,0.1,0,0.2v0.2c0,0.2,0,0.4,0.1,0.6c0.1,0.3,0.1,0.6,0.2,0.8
	c-0.1,0.7-0.2,1.4-0.2,2.1c0,0.4-0.1,0.8,0,1.2v0.3c0,0.1,0,0.2,0.1,0.4s0.1,0.4,0.2,0.7c0.3,0.8,0.8,1.5,1.2,2.1s1,1.2,1.6,1.7
	l0.2,0.1h0.2h2.7h0.2l0.1-0.1c0.3-0.2,0.5-0.5,0.8-0.7c0.2-0.2,0.5-0.5,0.8-0.7c0.5-0.5,1-1,1.4-1.6c0.8-1.1,1.5-2.3,2.1-3.6
	c0.3-0.7,0.5-1.3,0.7-2c0,0,0.1-0.4,0.1-0.7c0-0.1,0-0.2,0.1-0.3v-0.2v-0.2c0-0.2-0.1-0.4-0.1-0.5c-0.3-1.4-0.7-2.6-1-3.9
	c-0.2-0.7-0.3-1.3-0.5-2l-0.1-0.5c-0.1-0.2-0.1-0.3-0.1-0.5c-0.1-0.3-0.1-0.7-0.1-1c0-0.7,0-1.2,0.1-1.9s0.2-1.2,0.4-2
	c0.1-0.4,0.2-0.7,0.2-1.1s-0.1-0.8-0.2-1.1c-0.2-0.7-0.5-1.4-1-2c-0.2-0.3-0.4-0.6-0.7-0.8c-0.2-0.3-0.5-0.5-0.8-0.7
	c-0.5-0.4-1-0.7-1.6-1c0-0.1-0.1-0.1-0.1-0.2c-0.1-0.1-0.1-0.3-0.2-0.4c-0.2-0.2-0.4-0.5-0.5-0.7s-0.4-0.4-0.7-0.5l-0.3-0.2
	c-0.1-0.1-0.2-0.1-0.3-0.2c-0.7-0.5-1.3-1.4-1.8-2.2c-0.2-0.4-0.5-0.8-0.7-1.3c-0.1-0.2-0.2-0.5-0.3-0.7l-0.1-0.3l-0.1-0.4
	c-0.2-1-0.4-1.9-0.5-2.9s-0.2-2-0.2-3c0-0.5,0-1,0-1.5c0-0.2,0-0.5,0-0.8c0-0.2,0-0.5,0-0.8c-0.1-1.1-0.4-2.1-0.8-3.1
	c-0.2-0.5-0.4-1-0.7-1.4c-0.2-0.4-0.5-0.8-0.7-1.1c0.2-1.1,0.4-2.1,0.7-3.2c0.1-0.6,0.2-1.1,0.3-1.7c0.1-0.3,0.1-0.6,0.1-0.9
	l0.1-0.4c0-0.2,0-0.3,0-0.5c0-0.7-0.1-1.2-0.2-1.8s-0.2-1.1-0.4-1.7c-0.2-0.5-0.4-1.1-0.5-1.7c-0.1-0.3-0.2-0.5-0.4-0.8
	c-0.1-0.1-0.1-0.3-0.2-0.4s-0.2-0.3-0.2-0.4c-0.4-0.5-0.9-0.9-1.4-1.2c-0.5-0.4-1-0.6-1.5-0.9c-0.5-0.2-1.1-0.5-1.5-0.8
	c-0.2-0.1-0.5-0.2-0.7-0.4c-0.2-0.1-0.4-0.3-0.5-0.5c-0.4-0.4-0.6-0.9-0.8-1.4c-0.2-0.5-0.4-1-0.6-1.5c-0.1-0.1-0.1-0.2-0.1-0.4
	l-0.1-0.2l-0.1-0.2c-0.1-0.3-0.2-0.6-0.4-0.9c-0.2-0.3-0.4-0.5-0.6-0.8c-0.1-0.1-0.2-0.2-0.4-0.3c-0.1-0.1-0.2-0.1-0.2-0.2l-1-4.5
	c0.4-0.1,0.8-0.2,1.2-0.4c0.5-0.2,1.1-0.4,1.5-0.7c0.5-0.2,1-0.5,1.4-0.8c0.5-0.3,0.9-0.7,1.3-1.1c0.8-1,1.4-2.2,2-3.4
	c0.5-1.2,0.8-2.5,1.1-3.7c0.5-2.6,0.5-5.2,0.1-7.7c-0.1-0.7-0.2-1.2-0.4-1.9c-0.2-0.7-0.4-1.2-0.7-1.8c-0.6-1.2-1.4-2.2-2.3-3.2
	s-1.8-1.8-2.9-2.6c-1-0.8-2.1-1.5-3.2-2.1c-0.7-0.6-1.4-1.3-2.1-2s-1.2-1.4-1.8-2.3c-0.5-0.8-0.9-1.7-1.1-2.6s-0.2-1.9,0.2-2.7
	c0.4-0.9,0.8-1.8,1.2-2.7l1.1-2.7c0.6-1.6,1.3-3.1,1.9-4.7c0-0.1-0.1-0.2-0.1-0.3v-0.1c0.1-0.2,0.1-0.3,0.1-0.4v0.1
	c0.2,0.9,1,2.9,2,5.2c0.8,2,1.6,3.6,1.6,3.6s0.4,0.8,1,2c0.8,1.6,1.4,2.9,1.7,3.3c0,0,0.1,0.1,0.1,0.2c0.1,0.1,0.1,0.2,0.2,0.4
	c0.7,1.4,1.5,3.9,1.9,5.2c0.1,0.6,0.2,0.9,0.2,0.9l0.3,0.2c0.3,0.2,0.7,0.6,1.1,0.6h0.1c0,0,0,0,0.1,0s0.2,0,0.3-0.1l0.1-0.1
	c0.4-0.2,1.1-0.4,2.1-0.7h0.1c1.8-0.2,3.6-0.9,5.1-1.5c0.7-0.2,1.1-0.4,1.3-0.5c-0.2,0.1-0.3,0.2-0.5,0.3c-0.3,0.2-0.7,0.4-1.1,0.6
	c0.5-0.2,1-0.5,1.5-0.7c0.2-0.1,0.5-0.3,0.7-0.4l0.4-0.2c0.1-0.1,0.2-0.2,0.4-0.2c0.5-0.4,0.9-0.7,1.3-1c0.8-0.7,1.7-1.5,2.5-2.3
	c1.6-1.6,3-3.3,4.5-5c1.4-1.7,2.7-3.5,3.9-5.4c0.4-0.2,0.6-0.5,0.8-0.8c0.1-0.2,0.2-0.4,0.4-0.5c0.1-0.2,0.2-0.4,0.3-0.5l0.7-2.8
	c0.2-1,0.5-1.9,0.8-2.8v-0.1l0.1-0.1c0-0.1,0.1-0.1,0.1-0.2C105.8,51.8,105.9,51.7,105.8,51.6z M1,77.9c0,0,0-0.1,0-0.2
	C1,77.8,1,77.8,1,77.9z M70.8,105c0.4-0.1,0.7-0.2,1.1-0.3l0,0C71.5,104.9,71.2,105,70.8,105L70.8,105z M102.7,59.5L102.7,59.5
	C102.7,59.4,102.7,59.4,102.7,59.5L102.7,59.5z"/>
</svg>
