<?xml version="1.0" encoding="utf-8"?>
<!-- Generator: Adobe Illustrator 23.1.1, SVG Export Plug-In . SVG Version: 6.00 Build 0)  -->
<svg version="1.1" id="Capa_1" xmlns="http://www.w3.org/2000/svg" xmlns:xlink="http://www.w3.org/1999/xlink" x="0px" y="0px"
	 viewBox="0 0 340 300" style="enable-background:new 0 0 340 300;" xml:space="preserve">
<path d="M31.7,34.5h-6.4l-1.2,3.7h-3.9l6.6-17.8h3.4l6.6,17.7h-3.9L31.7,34.5z M26.3,31.5h4.4l-2.2-6.7L26.3,31.5z"/>
<path d="M72,38.1V20.4h6.2c2.2,0,3.8,0.4,4.9,1.2c1.1,0.8,1.7,2,1.7,3.6c0,0.9-0.2,1.6-0.7,2.3c-0.4,0.7-1.1,1.1-1.9,1.5
	c0.9,0.2,1.6,0.7,2.2,1.4c0.5,0.7,0.8,1.5,0.8,2.5c0,1.7-0.5,3-1.6,3.9c-1.1,0.9-2.6,1.3-4.7,1.3H72z M75.7,27.8h2.7
	c1.8,0,2.8-0.8,2.8-2.2c0-0.8-0.2-1.4-0.7-1.7c-0.5-0.4-1.2-0.5-2.2-0.5h-2.6V27.8z M75.7,30.4v4.8h3.1c0.9,0,1.5-0.2,2-0.6
	c0.5-0.4,0.7-1,0.7-1.7c0-1.6-0.8-2.5-2.5-2.5C79,30.4,75.7,30.4,75.7,30.4z"/>
<path d="M135.9,32.2c-0.1,1.9-0.8,3.4-2.1,4.5c-1.3,1.1-3,1.6-5,1.6c-2.3,0-4.1-0.8-5.4-2.3s-2-3.6-2-6.3v-1.1
	c0-1.7,0.3-3.2,0.9-4.5c0.6-1.3,1.5-2.3,2.6-3c1.1-0.7,2.4-1,3.9-1c2.1,0,3.7,0.5,5,1.6s2,2.6,2.2,4.6h-3.7c-0.1-1.1-0.4-2-1-2.5
	c-0.5-0.5-1.4-0.8-2.5-0.8c-1.2,0-2.1,0.4-2.7,1.3c-0.6,0.9-0.9,2.2-0.9,4.1v1.3c0,1.9,0.3,3.3,0.9,4.2s1.5,1.3,2.8,1.3
	c1.1,0,2-0.3,2.5-0.8c0.6-0.5,0.9-1.3,1-2.4h3.5V32.2z"/>
<path d="M22.2,88.1V70.3h5.5c1.6,0,3,0.4,4.2,1.1c1.2,0.7,2.2,1.7,2.9,3s1,2.8,1,4.4v0.8c0,1.7-0.3,3.1-1,4.4s-1.6,2.3-2.9,3
	s-2.6,1.1-4.2,1.1C27.7,88.1,22.2,88.1,22.2,88.1z M25.8,73.3v11.9h1.8c1.4,0,2.5-0.5,3.3-1.4s1.1-2.3,1.2-4v-0.9
	c0-1.8-0.4-3.2-1.1-4.1s-1.8-1.4-3.3-1.4L25.8,73.3L25.8,73.3z"/>
<path d="M83.3,80.4h-7v4.8h8.3v2.9h-12V70.3h11.9v3h-8.2v4.2h7V80.4z"/>
<path d="M133.6,80.8h-7v7.3h-3.7V70.3h11.6v3h-7.9v4.6h7L133.6,80.8L133.6,80.8z"/>
<path d="M34.7,135.9c-0.7,0.8-1.6,1.4-2.8,1.8c-1.2,0.4-2.5,0.7-4,0.7s-2.9-0.3-4-1c-1.2-0.7-2.1-1.6-2.7-2.9c-0.6-1.3-1-2.8-1-4.5
	v-1.2c0-1.8,0.3-3.3,0.9-4.6c0.6-1.3,1.5-2.3,2.6-3s2.4-1,4-1c2.1,0,3.8,0.5,4.9,1.5c1.2,1,1.9,2.5,2.1,4.4h-3.6
	c-0.2-1-0.5-1.8-1.1-2.2c-0.6-0.5-1.3-0.7-2.3-0.7c-1.2,0-2.2,0.5-2.8,1.4c-0.7,0.9-1,2.3-1,4.2v1.1c0,1.9,0.4,3.3,1.1,4.2
	s1.7,1.4,3.1,1.4c1.4,0,2.4-0.3,2.9-0.9v-3.1h-3.3v-2.7h7L34.7,135.9L34.7,135.9z"/>
<path d="M85.9,138.2h-3.7v-7.6h-7.1v7.6h-3.7v-17.8h3.7v7.2h7.1v-7.2h3.7V138.2z"/>
<path d="M130.6,138.2h-3.7v-17.8h3.7C130.6,120.4,130.6,138.2,130.6,138.2z"/>
<path d="M214,20.3h3.7v12.3c0,1.1-0.2,2.1-0.8,3c-0.5,0.9-1.2,1.5-2.1,2c-0.9,0.5-1.9,0.7-3.1,0.7c-1.9,0-3.3-0.5-4.4-1.4
	c-1-1-1.6-2.3-1.6-4.1h3.7c0,0.9,0.2,1.5,0.5,1.9c0.4,0.4,0.9,0.6,1.7,0.6c0.7,0,1.3-0.2,1.7-0.7s0.6-1.2,0.6-2.1V20.3H214z"/>
<path d="M263.4,31l-1.9,2.1v5.1h-3.7V20.4h3.7v8.1l1.6-2.2l4.5-5.8h4.5l-6.3,7.9l6.5,9.9H268L263.4,31z"/>
<path d="M312,35.2h7.8v2.9h-11.4V20.3h3.7v14.9H312z"/>
<path d="M207.4,70l4.6,12.9l4.5-12.9h4.8v17.8h-3.7v-4.9l0.4-8.4l-4.8,13.2h-2.5l-4.8-13.2l0.4,8.4v4.9h-3.7V70H207.4z"/>
<path d="M270.8,87.8h-3.6l-7.1-11.7v11.7h-3.7V70h3.7l7.1,11.7V70h3.6V87.8z"/>
<path d="M321.6,79.3c0,1.8-0.3,3.3-0.9,4.6c-0.6,1.3-1.5,2.3-2.7,3.1c-1.2,0.7-2.5,1.1-4,1.1s-2.8-0.4-3.9-1.1
	c-1.2-0.7-2.1-1.7-2.7-3s-1-2.8-1-4.5v-0.9c0-1.8,0.3-3.3,0.9-4.6c0.6-1.3,1.5-2.4,2.7-3.1c1.2-0.7,2.5-1.1,3.9-1.1s2.8,0.4,3.9,1.1
	c1.2,0.7,2,1.7,2.7,3.1c0.6,1.3,0.9,2.9,0.9,4.6v0.7H321.6z M317.9,78.5c0-1.9-0.3-3.3-1-4.2c-0.7-0.9-1.6-1.5-2.9-1.5
	c-1.2,0-2.2,0.5-2.8,1.4c-0.7,1-1,2.4-1,4.2v0.9c0,1.8,0.3,3.2,1,4.2c0.7,1,1.6,1.5,2.9,1.5c1.2,0,2.2-0.5,2.8-1.4
	c0.7-1,1-2.4,1-4.2V78.5z"/>
<path d="M209.9,131.4v6.3h-3.7v-17.8h6.9c1.3,0,2.5,0.2,3.5,0.7s1.8,1.2,2.3,2.1c0.5,0.9,0.8,1.9,0.8,3.1c0,1.7-0.6,3.1-1.8,4.1
	s-2.8,1.5-5,1.5L209.9,131.4L209.9,131.4z M209.9,128.5h3.3c1,0,1.7-0.2,2.2-0.7c0.5-0.5,0.8-1.1,0.8-2s-0.3-1.6-0.8-2.1
	s-1.2-0.8-2.1-0.8h-3.4V128.5z"/>
<path d="M271.1,127.8c0,1.7-0.3,3.1-0.8,4.3s-1.3,2.2-2.2,2.9l3,2.3l-2.3,2.1l-3.8-3c-0.4,0.1-0.9,0.1-1.3,0.1
	c-1.5,0-2.8-0.4-3.9-1.1c-1.2-0.7-2.1-1.7-2.7-3s-1-2.8-1-4.5V127c0-1.8,0.3-3.3,0.9-4.6s1.5-2.4,2.7-3.1s2.5-1.1,3.9-1.1
	s2.8,0.4,3.9,1.1c1.2,0.7,2,1.7,2.7,3.1c0.6,1.3,0.9,2.9,0.9,4.6L271.1,127.8L271.1,127.8z M267.4,127c0-1.9-0.3-3.3-1-4.2
	s-1.6-1.5-2.9-1.5c-1.2,0-2.2,0.5-2.8,1.4c-0.7,1-1,2.4-1,4.2v0.9c0,1.8,0.3,3.2,1,4.2s1.6,1.5,2.9,1.5c1.2,0,2.2-0.5,2.8-1.4
	c0.7-1,1-2.4,1-4.2V127z"/>
<path d="M314.8,131.2h-2.9v6.5h-3.7v-17.8h6.6c2.1,0,3.7,0.5,4.9,1.4c1.1,0.9,1.7,2.3,1.7,4c0,1.2-0.3,2.2-0.8,3s-1.3,1.5-2.4,1.9
	l3.8,7.3v0.2h-3.9L314.8,131.2z M311.9,128.2h3c0.9,0,1.6-0.2,2.1-0.7s0.8-1.1,0.8-1.9s-0.2-1.5-0.7-2s-1.2-0.7-2.2-0.7H312v5.3
	H311.9z"/>
<path d="M84.3,200.6c0-0.7-0.2-1.2-0.7-1.6s-1.4-0.8-2.6-1.2s-2.3-0.8-3-1.2c-2-1.1-3-2.6-3-4.4c0-1,0.3-1.8,0.8-2.6
	c0.5-0.8,1.3-1.3,2.3-1.8c1-0.4,2.2-0.6,3.4-0.6c1.3,0,2.4,0.2,3.4,0.7s1.8,1.1,2.3,1.9s0.8,1.8,0.8,2.9h-3.7c0-0.8-0.3-1.4-0.8-1.9
	s-1.2-0.7-2.2-0.7c-0.9,0-1.6,0.2-2.1,0.6s-0.7,0.9-0.7,1.5s0.3,1.1,0.9,1.5s1.4,0.8,2.6,1.1c2.1,0.6,3.6,1.4,4.6,2.3
	s1.4,2.1,1.4,3.5c0,1.5-0.6,2.7-1.7,3.6c-1.2,0.9-2.7,1.3-4.7,1.3c-1.4,0-2.6-0.2-3.7-0.8c-1.1-0.5-2-1.2-2.6-2.1s-0.9-1.9-0.9-3
	h3.7c0,2,1.2,2.9,3.5,2.9c0.9,0,1.5-0.2,2-0.5C84,201.7,84.3,201.2,84.3,200.6z"/>
<path d="M45,231h-5.4v14.8h-3.7V231h-5.4v-3H45L45,231L45,231z"/>
<path d="M125.5,227.9v11.7c0,1.9-0.6,3.5-1.8,4.6s-2.9,1.7-5,1.7s-3.7-0.5-4.9-1.6s-1.8-2.6-1.9-4.5V228h3.7v11.7
	c0,1.2,0.3,2,0.8,2.5s1.3,0.8,2.3,0.8c2.1,0,3.1-1.1,3.1-3.2V228h3.7V227.9z"/>
<path d="M82.5,278.1l4-13.4h4.1l-6.2,17.8h-3.8l-6.2-17.8h4.1L82.5,278.1z"/>
<path d="M269.5,200.1l2.4-12.6h3.7l-3.9,17.8H268l-2.9-11.9l-2.9,11.8h-3.7l-3.9-17.8h3.6l2.4,12.6l2.9-12.6h3.1L269.5,200.1z"/>
<path d="M221.7,234.1l3.3-6.1h4.2l-5.2,8.8l5.3,9H225l-3.4-6.2l-3.4,6.2h-4.3l5.3-9L214,228h4.2L221.7,234.1z"/>
<path d="M302.9,236.6l3.7-8h4l-5.8,11.3v6.4h-3.7V240l-5.8-11.3h4L302.9,236.6z"/>
<path d="M264.3,279.1h9v2.9h-13.5v-2.1l8.8-12.7h-8.8v-3h13.3v2.1L264.3,279.1z"/>
<rect x="52.9" y="6.5" width="2" height="145"/>
<rect x="101.2" y="6.5" width="2" height="145"/>
<rect x="6.6" y="102.2" width="144" height="2"/>
<rect x="6.6" y="53.9" width="144" height="2"/>
<rect x="238.4" y="6.5" width="2" height="145"/>
<rect x="286.7" y="6.5" width="2" height="145"/>
<rect x="192.1" y="102.2" width="144" height="2"/>
<rect x="192.1" y="53.9" width="144" height="2"/>
<path d="M264.3,48.7c-1.8,0-3.3-1.5-3.3-3.3s1.5-3.3,3.3-3.3c1.8,0,3.3,1.5,3.3,3.3S266.1,48.7,264.3,48.7z"/>
<path d="M298.5,48.7c-1.8,0-3.3-1.5-3.3-3.3s1.5-3.3,3.3-3.3c1.8,0,3.3,1.5,3.3,3.3S300.3,48.7,298.5,48.7z"/>
<path d="M229.9,48.7c-1.8,0-3.3-1.5-3.3-3.3s1.5-3.3,3.3-3.3c1.8,0,3.3,1.5,3.3,3.3S231.7,48.7,229.9,48.7z"/>
<path d="M264.3,115.5c-1.8,0-3.3-1.5-3.3-3.3s1.5-3.3,3.3-3.3c1.8,0,3.3,1.5,3.3,3.3S266.1,115.5,264.3,115.5z"/>
<path d="M264.2,225.8c-1.4,0-2.6-1.1-2.6-2.6c0-1.4,1.1-2.6,2.6-2.6c1.4,0,2.6,1.1,2.6,2.6C266.7,224.6,265.6,225.8,264.2,225.8z"/>
<path d="M264.2,255.1c-1.4,0-2.6-1.1-2.6-2.6c0-1.4,1.1-2.6,2.6-2.6c1.4,0,2.6,1.1,2.6,2.6C266.7,253.9,265.6,255.1,264.2,255.1z"/>
<path d="M298.5,115.5c-1.8,0-3.3-1.5-3.3-3.3s1.5-3.3,3.3-3.3c1.8,0,3.3,1.5,3.3,3.3S300.3,115.5,298.5,115.5z"/>
<path d="M229.9,115.5c-1.8,0-3.3-1.5-3.3-3.3s1.5-3.3,3.3-3.3c1.8,0,3.3,1.5,3.3,3.3S231.7,115.5,229.9,115.5z"/>
<path d="M264.3,98.8c-1.8,0-3.3-1.5-3.3-3.3s1.5-3.3,3.3-3.3c1.8,0,3.3,1.5,3.3,3.3S266.1,98.8,264.3,98.8z"/>
<path d="M298.5,82.6c-1.8,0-3.3-1.5-3.3-3.3s1.5-3.3,3.3-3.3c1.8,0,3.3,1.5,3.3,3.3S300.3,82.6,298.5,82.6z"/>
<path d="M229.9,82.6c-1.8,0-3.3-1.5-3.3-3.3s1.5-3.3,3.3-3.3c1.8,0,3.3,1.5,3.3,3.3S231.7,82.6,229.9,82.6z"/>
<rect x="190.1" y="236.7" transform="matrix(0.7071 -0.7071 0.7071 0.7071 -90.8991 255.9479)" width="146.8" height="2"/>
<rect x="262.5" y="164.3" transform="matrix(0.7071 -0.7071 0.7071 0.7071 -90.8991 255.9479)" width="2" height="146.8"/>
<path d="M252.1,237.9c0,1.4-1.1,2.6-2.6,2.6c-1.4,0-2.6-1.1-2.6-2.6c0-1.4,1.1-2.6,2.6-2.6C250.9,235.3,252.1,236.5,252.1,237.9z"/>
<path d="M281.4,237.9c0,1.4-1.1,2.6-2.6,2.6s-2.6-1.1-2.6-2.6c0-1.4,1.1-2.6,2.6-2.6S281.4,236.5,281.4,237.9z"/>
<rect x="7.8" y="236.7" transform="matrix(0.7071 -0.7071 0.7071 0.7071 -144.2942 127.0407)" width="146.8" height="2"/>
<rect x="80.2" y="164.3" transform="matrix(0.7071 -0.7071 0.7071 0.7071 -144.2942 127.0407)" width="2" height="146.8"/>
</svg>
