<?xml version="1.0" encoding="utf-8"?>
<!-- Generator: Adobe Illustrator 23.1.1, SVG Export Plug-In . SVG Version: 6.00 Build 0)  -->
<svg version="1.1" id="Capa_1" xmlns="http://www.w3.org/2000/svg" xmlns:xlink="http://www.w3.org/1999/xlink" x="0px" y="0px"
	 viewBox="0 0 340 180" style="enable-background:new 0 0 340 180;" xml:space="preserve">
<style type="text/css">
	.st0{fill:#FFDF00;}
	.st1{fill:#DF172F;}
	.st2{fill:#1FB122;}
	.st3{fill:#0F5AD2;}
	.st4{fill:#A26D6D;}
	.st5{fill:#E400FF;}
</style>
<g>
	<rect x="2" y="164.6" class="st0" width="14.2" height="14.2"/>
	<rect x="19.6" y="164.6" class="st1" width="14.2" height="14.2"/>
	<rect x="37.2" y="164.6" class="st2" width="14.2" height="14.2"/>
	<rect x="54.9" y="164.6" class="st3" width="14.2" height="14.2"/>
	<rect x="72.5" y="164.6" class="st4" width="14.2" height="14.2"/>
	<rect x="90.2" y="164.6" class="st5" width="14.2" height="14.2"/>
</g>
<g>
	<rect x="119.6" y="164.6" class="st1" width="14.2" height="14.2"/>
	<rect x="137.2" y="164.6" class="st4" width="14.2" height="14.2"/>
	<rect x="154.8" y="164.6" class="st2" width="14.2" height="14.2"/>
	<rect x="172.5" y="164.6" class="st0" width="14.2" height="14.2"/>
	<rect x="190.2" y="164.6" class="st5" width="14.2" height="14.2"/>
	<rect x="207.8" y="164.6" class="st3" width="14.2" height="14.2"/>
</g>
<g>
	<rect x="236.6" y="164.6" class="st3" width="14.2" height="14.2"/>
	<rect x="254.2" y="164.6" class="st2" width="14.2" height="14.2"/>
	<rect x="271.8" y="164.6" class="st4" width="14.2" height="14.2"/>
	<rect x="289.5" y="164.6" class="st5" width="14.2" height="14.2"/>
	<rect x="307.2" y="164.6" class="st1" width="14.2" height="14.2"/>
	<rect x="324.8" y="164.6" class="st0" width="14.2" height="14.2"/>
</g>
<g>
	<path d="M219.7,34.5l-0.1-0.3c0.1-0.2,0.1-0.5,0-0.8l-0.1-0.1c0,0,0,0,0-0.1c0-0.3-0.3-0.6-0.6-0.6c-0.2-0.1-0.5-0.2-0.8-0.2h-0.3
		c-0.1-0.1-0.2-0.2-0.2-0.3c-0.1-0.2-0.2-0.3-0.3-0.4c-0.1-0.1-0.3-0.1-0.4-0.1c-0.1,0.1-0.2,0.2-0.3,0.3c-0.1,0.3,0.1,0.5,0.5,1.1
		c0,0.1-0.1,0.1-0.1,0.2c0,0,0,0.1-0.1,0.2c0,0.1,0,0.1,0,0.2v0.5c0,0.4,0.2,0.5,0.3,0.7c0,0,0.2,0.2,0.4,0.2
		c0.3,0.1,0.5,0.2,0.7,0.1c0,0.4-0.2,0.7-0.7,0.8c-0.3,0.1-0.6,0.1-0.9,0.2c0-0.1,0-0.2,0-0.2c0-0.2-0.1-0.5-0.1-0.7
		c-0.3-1.5-0.8-3-1.7-4.7c-0.7-1.5-1.4-2.5-2-3.3c0.1-0.3,0.3-0.6,0.4-0.7c0.1-0.1,0.1-0.4,0-0.5c0,0-0.5-0.5-0.6-1.2
		c0-0.2-0.2-0.3-0.3-0.3c-0.4,0-1.7-0.2-2.2-0.7c-0.1-0.1-0.3-0.1-0.5,0c-0.1,0.1-0.2,0.3-0.1,0.4c-0.1-0.1-0.2-0.1-0.3-0.2
		c-1-0.8-2.2-1.6-3-2.1c-0.4-0.3-0.7-0.5-0.7-0.5l-0.1-0.1c0,0,0-0.1-0.1-0.1c0,0,0,0-0.1-0.1c-0.1,0-0.1-0.1-0.2-0.1
		c-0.1,0-0.2,0-0.2,0.1l-1.5,1.2c-0.3,0.1-0.4,0.2-0.5,0.3l-0.1,0.1l-0.1,0.1l-0.2,0.3l-0.1,0.1c-0.1,0.1-0.2,0.2-0.3,0.3
		c-0.2,0-0.3,0.1-0.4,0.2c0,0-1,1.2-0.5,2c0.2,0.3,0.7,0.5,1,0.5c0,0.4,0.3,0.7,0.6,0.8v0.1c0,0.5,0.2,0.8,0.7,1
		c0.2,0,0.5,0.1,0.7,0.2c0.4,0.1,0.7,0.2,1,0.2c0.1,0,0.4,0,0.6-0.1c0,0,0,0,0.1,0c0.7,0.4,1.6,0.6,2.1,0.6
		c-1.5,0.5-2.8,0.7-3.4,0.4c-1.4-0.5-2.2-0.7-2.5-0.7l-4.6-2.9c-0.2-0.6-0.8-3.1-0.9-3.5c0-0.1-0.1-0.2-0.2-0.2l-1.8-1.2
		c0,0-0.1,0-0.1-0.1l-4.8-1.2c-0.2-0.2-0.8-0.7-1.3-1c-1.1-0.6-3.2-0.9-3.4-1c-0.4,0-0.9-0.1-0.9-0.2c-0.1-0.5-0.7-4-0.7-4
		c0-0.1-0.1-0.3-0.3-0.3c-0.9-0.2-3.2-1-3.8-1.5c-0.1-0.1-0.3-0.1-0.4-0.1l-2.5,1.1l-3.1-0.5l-0.7-1.9V7.1c0-0.4-0.3-0.7-0.6-1
		c-0.4-0.5-0.9-1.1-0.9-2.2c0-0.2-0.1-0.3-0.2-0.4c0,0-1.7-0.6-2.3-1c-0.2-0.1-0.4-0.1-0.5,0.1c-0.4,0.5-1.6,1.7-2.5,1.5
		c-0.1,0-0.2,0-0.5-0.1H165c-0.2-0.5-0.5-0.9-0.9-1.2c-0.6-0.5-1.4-0.7-2-0.6c-0.4,0-0.9,0.1-1.2,0.4c0,0-0.1,0-0.1,0.1h-0.1
		L158.4,2c-0.2-0.1-0.4,0-0.5,0.2c-0.2,0.6-0.9,2.4-1.6,2.9L155,6c-0.1,0.1-0.2,0.2-0.2,0.3l-0.6,4.5l-1.2,1.1l-0.1,0.1
		c-0.1,0.1-0.2,0.3-0.5,0.5h-0.1c-0.2,0.1-0.7,0.1-1.5-0.5c-0.1-0.1-0.2-0.1-0.3,0c-0.1,0-0.2,0.1-0.2,0.2c-0.7,1.3-2.6,4.6-3.6,5.2
		c-0.1,0.1-0.2,0.2-0.2,0.3c-0.3,2.1-1,5.7-1.6,6.3c-0.1,0.1-0.1,0.3,0,0.5c0,0,0.7,0.9,1.4,2c-0.7,0.3-1.3,0.5-1.3,0.5h-0.1
		c-0.1,0.1-1.8,1.3-2.2,2.3c-0.1,0.2-0.5,0.4-0.9,0.4c-0.8,0-2-0.4-2.7-1.5c-0.2-0.5-0.4-1.4-0.2-1.6c0.1-0.1,0.1-0.2,0-0.3
		c0-0.1-0.1-0.2-0.2-0.2c-0.6-0.2-2.2-0.9-2.8-1.4c-0.1-0.1-0.3-0.1-0.4-0.1c-1,0.4-2.3,0.7-2.6,0.5h-0.3c-0.1,0-0.2,0.1-0.2,0.3
		c0,0-0.3,1.5-1.1,2.5c-0.1-0.1-0.2-0.2-0.3-0.3c-0.1-0.1-0.2-0.1-0.2-0.2l0.1-0.5v-0.1c0-0.3-0.1-0.6-0.2-0.8c0-0.2,0-0.5-0.2-0.7
		c-0.1-0.1-0.3-0.1-0.4-0.1c-0.1,0-0.2,0.1-0.2,0.2c-0.4-0.1-0.7,0-0.9,0.1c-0.1,0-0.2,0-0.3,0.1l-0.1,0.1c-0.1,0-0.1,0-0.2,0.1
		h-0.8c-0.1,0-0.1,0-0.2,0c-0.1,0-0.1,0.1-0.1,0.1c-0.1,0-0.2,0-0.2,0.1c-3,2.3-2.9,2.8-2.9,3.1c0,0.1,0,0.1,0,0.1
		c0.1,0.2,0.1,1.4,0.1,2.1v1.6c0,0,0,0-0.1,0h-0.4c-0.1,0-0.3,0.1-0.3,0.2c0,0-0.1,0.1-0.2,0.3c0,0-0.1,0-0.1,0.1c0,0,0,0-0.1,0
		c0,0-0.1,0.1-0.1,0.2c-0.1,0-0.2,0-0.3,0.1l-0.1,0.1c-0.1,0.1-0.1,0.2-0.1,0.3v0.1c-0.1,0.2-0.3,0.6-0.6,1
		c-0.7,0.8-1.5,1.6-1.5,1.6c-0.1,0.1-0.1,0.3-0.1,0.4c0.1,0.1,0.1,0.3,0.2,0.4c-0.1,0.1-0.2,0.2-0.2,0.5v0.4c0,0.2,0,0.3,0.1,0.4
		c0.1,0.2,0.2,0.3,0.3,0.4c0,0,0,0,0.1,0c0,0.1,0.1,0.1,0.2,0.1c0,0,0,0,0.1,0c0.7,1.3,1.3,3.4,1.3,3.7c0,0.2,0.1,1,0.2,1.4l-2,3.4
		c-0.1,0.1-0.1,0.2,0,0.3l0.4,1.3c0.2,0.6-0.1,2-0.3,2.7c-0.1,0.2,0,0.4,0.2,0.5c0,0,4.6,1.6,5.7,2.2c1,0.5,0.9,2.2,0.9,2.2
		c0,0.2,0.1,0.4,0.3,0.4c0.7,0.1,2.1,0.6,2.1,0.6c0.2,0,0.3,0,0.4-0.1c0.5-0.7,1.2-0.8,1.7-0.9c0.4-0.1,0.8-0.2,0.9-0.5
		c0,0,0.1-0.1,0.1-0.2c4.3,5.8,8.7,8.3,11.7,9.4h0.1c1.6,0.4,3.1-0.1,4.2-1.2c1.3-1.3,4.8-7.2,6.4-9.9l0.9,2l-1,1.6
		c-0.5,0.4-1.7,1.3-2.2,1.5c-0.3,0.2-0.4,0.6-0.5,0.9c-0.1,0.5-0.3,1.2-1.1,1.8c-0.1,0.1-0.2,0.3-0.2,0.4c0,0,0.3,1.1,0.5,1.9
		l-0.1,0.1l-0.1,0.1l-0.3,0.6c0,0.1,0,0.1,0,0.2v0.7c0,0.2,0,0.3,0.1,0.4c0,0.3,0.2,0.8,0.8,1.1c0.2,0.1,0.3,0.2,0.4,0.2
		c0.2,0.1,0.5,0.2,0.8,0.2h0.4c0.3,0,0.5-0.2,0.6-0.3c0.1-0.1,0.3-0.2,0.4-0.3c0.1,0.4,0.3,0.9,0.5,1.5c-0.8,2.1-1.2,4.2-1.5,6
		l-0.1,0.5v0.4c-0.3,2.4-0.3,4.9-0.2,7.4c0,1.4,0.4,3.4,1.1,5.7c0.1,0.2,0.2,0.4,0.3,0.6c0,0.2,0.1,0.3,0.2,0.5c0,0,0.1,0.1,0.1,0.2
		c0,0.1,0.1,0.2,0.1,0.2c0.1,0.2,0.2,0.3,0.2,0.5c0.4,0.8,0.8,1.5,1.2,2.3c1,1.9,1.9,3.7,2.6,5.7c0.7,1.8,1.2,3.8,1,5.7
		c-0.1,1.2-0.4,2.2-1,3.2c-0.7,2.7-0.9,5-0.8,6.6c0.3,2.9,5,17.1,5.4,18.2c0,0.1,0,0.2,0.1,0.4c0.1,0.4,0.2,1.2,0.3,2
		c0,0.2,0,0.3,0.1,0.5v0.5c0,0.1,0.1,0.2,0.1,0.4c0,0.1,0,0.3,0.1,0.4v0.2c0,0,0.2,0.5,0.5,1.2c0.1,0.3,0.2,1.9,0,3.9
		c-0.3,2.2-0.6,4.8-0.6,4.9c0.1,1,0.6,1.7,1.3,2.1c0.7,0.4,1.4,0.5,1.8,0.5h0.6c0.1,0.1,0.2,0.1,0.3,0.1h0.1
		c0.9-0.2,1.5-0.7,1.9-1.4c0.7-1.3,0.4-2.9,0.1-3.9v-0.1c-0.1-0.4,0-0.8,0-1.2v-0.7c0-0.1,0-0.3,0.1-0.4v-0.4c0-0.7-0.2-1.7-0.5-2.5
		c0-0.2-0.1-0.3-0.2-0.5c-0.1-0.2-0.1-0.4-0.1-0.5c0-0.1,0-0.2,0.1-0.4l0.1-0.2c0-0.1,0-0.1,0.1-0.2c0.1-0.3,0.3-0.7,0-1.1
		c-0.2-0.3-0.7-1.9-0.7-2.2c0-0.5-0.2-4.9-0.3-6.5c1.5-0.3,2.3-2,2.7-2.9l0.1-0.2c0-0.1,0.1-0.2,0.1-0.3l0.1-0.1
		c0-0.1,0.1-0.3,0.1-0.5c0-0.1,0-0.1,0-0.2v-0.1c0.1-0.9,0.1-2.3,0.1-3.5c0-0.9,0-2.3,0.1-2.5c0,0,0,0,0-0.1c0,0,0.1-0.1,0.2-0.2
		c0.6-0.3,0.8-0.7,0.7-1.2v-0.1c0-0.1-0.1-0.2,0-0.4c0.1,0,0.2-0.1,0.2-0.2c0.1-0.1,0.1-0.3,0.1-0.4c0-0.1,0-0.2,0.1-0.3
		c0.1-0.2,0.2-0.5,0.4-0.7c0.1-0.1,0.1-0.3,0.1-0.4c0.8-1.3,1.9-3.1,2.7-4.9c0.1,0,0.1,0,0.2,0c0.2,0,0.3-0.2,0.3-0.4v-0.1
		c0-0.1,0-0.2-0.1-0.3c0,0,0,0-0.1,0c1.2-2.9,0.4-5.4,0.2-6.1c0.3-0.9,1.8-6.4,3-12c0.6-2.9,0.9-5.1,1.1-6.5
		c0.1-0.8,0.1-1.7,0.1-2.5c0-0.1-0.1-0.2-0.2-0.3c0-0.4-0.1-0.8-0.1-1.3c0.1-0.1,0.1-0.2,0.1-0.3c0-0.2-0.1-0.5-0.1-0.7
		s0-0.4-0.1-0.6c0-0.2-0.1-0.4-0.1-0.6c-0.3-1.3-0.6-2.7-1.1-4.1c0-0.1-0.2-0.2-0.3-0.3c-0.1-0.4-0.3-0.8-0.4-1.2
		c0.1,0,0.1-0.1,0.1-0.2l0.9-2.4h0.4c0.7-0.1,1-0.8,1.1-1c0.1-0.3,0.2-0.7,0.1-1.1c0-0.3-0.2-0.6-0.4-0.8c0-0.1,0.1-0.1,0.1-0.2
		c0.4-0.5,0.3-1.3,0.1-2.4c0-0.2-0.1-0.5-0.1-0.6c0-0.2-0.1-0.3-0.3-0.4c0,0-0.7-0.1-1.1-0.6c-0.3,0.2-0.5,0.2-0.6,0.2
		c0,0-1.7,0.5-2.9,0.9c-0.1,0-0.1,0-0.2,0c-0.1,0-0.1,0-0.2,0c-0.1,0-0.2,0.1-0.3,0.2c-0.3-1.4-0.2-1.7-0.2-1.7c0.7-1,0.9-3.6,1-3.9
		c0-0.2,0-0.5,0.1-0.6c0-0.1,0-0.1,0-0.2c0.1-0.2,0.4-0.6,0.6-0.8c0.1-0.1,0.2-0.2,0.2-0.4c0-0.1,0-0.2-0.1-0.3
		c0-0.1,0.1-0.1,0.1-0.2c0.1-0.1,0.2-0.3,0.3-0.4l0.6-0.9c0.3-0.5,0.6-1,0.7-1.6c2.6,2.5,14.8,14.1,18.6,15.4
		c3.5,1.1,6.1-0.4,7.1-1.1c0.4-0.3,0.5-0.4,0.6-0.6c1.5-1.7,2.9-3.4,4.1-5.2l0.1-0.2c1.8-2.7,3.2-5.4,4.2-8.1
		c1.8-0.7,4.3-1.6,4.3-1.6c0.1,0,0.2-0.1,0.2-0.2v-0.3c-0.1-0.3-0.3-0.9-0.4-1.6c0.1-0.5,0.1-1,0.1-1.5l0.3-1v-0.3l-1.9-3.4
		c0-0.5,0.1-1,0.1-1.2c0.5-0.3,0.9-1.2,1.4-2.3c0.4-0.9,0.8-1.8,1.2-2.3c0.1-0.1,0.1-0.2,0.1-0.3c0,0-0.2-0.8,0.2-1.3
		C219.8,34.9,219.8,34.6,219.7,34.5z M179.8,63.4c0.1,0,0.4,0.1,0.6,0.3c0.1,0.1,0.1,0.3,0.1,0.5c0.1,0.4,0.1,0.8,0,1
		c-0.1,0-0.1,0-0.2,0c-0.2,0-0.4,0-0.7,0.1c0,0-0.1,0-0.1,0.1c0,0,0,0-0.1,0.1c-0.1,0.1-0.3,0.2-0.4,0.4v0.2
		c-0.1,0.1-0.2,0.3-0.2,0.5v0.6c0,0.3,0.2,0.6,0.4,0.8l0.1,0.1c-0.2,0.3-0.4,0.5-0.6,0.8c-0.5-1-0.7-1.5-0.9-1.8
		c0-0.4,0-0.8-0.1-1.2c-0.3-0.8-0.6-1.5-0.8-2.2C177.4,63.7,178.3,63.6,179.8,63.4z M210.5,32.5c0.3,0.6,0.6,1.5,0.7,2.7
		c-0.1,0-0.1-0.1-0.2-0.1c-0.7-0.3-1.2-0.7-1.4-1c-0.2-0.4-0.4-0.6-0.4-0.7c0.1,0,0.1-0.1,0.2-0.1c0.1-0.1,0.1-0.3,0-0.4l-0.1-0.2
		c0.1-0.1,0.2-0.2,0.2-0.3c0.2,0,0.4,0,0.6,0.1H210.5z M209.2,29.9l0.3,0.1c0,0.3,0,0.4,0.1,0.5c0.1,0.2,0.3,0.5,0.5,0.8h-0.5v-0.1
		c0-0.3-0.2-0.4-0.3-0.5c0,0,0,0-0.1,0c0,0,0,0,0-0.1c-0.1-0.1-0.3-0.2-0.4-0.2c-0.1,0-0.1,0-0.2-0.1
		C208.8,30.2,209,30.1,209.2,29.9z M156,11.6c0-0.1,0.1-0.1,0.1-0.2l0.4-3.8c0.8-1.2,2.2-3,2.8-3.1c-0.1,0.1-0.1,0.2-0.1,0.2v1
		c0,0.3,0.1,0.5,0.2,0.7c0.1,0.5,0.4,0.9,0.8,1.1l0.1,0.1c0,0,0,0,0.1,0c0,0.1,0.1,0.1,0.1,0.1l0.1,0.1c0,0,0,0,0.1,0l-0.9,0.9
		c-0.4,0.9-1.7,3.4-2.5,3.9c-0.3,0.3-1.3,0.4-2.2,0.3L156,11.6z M147.2,22.7c0.5-1.5,0.6-2.4,0.6-2.7l0.3-0.6l1.2,2.1
		c0.1,1.3,0.1,3.2-0.4,3.6c-0.2,0.2-0.7,0.6-1.3,0.9C147.2,24.6,147,23.4,147.2,22.7z M130.5,35.4c0,0.1,0,0.1,0.1,0.2
		c0.1,0.1,0.1,0.1,0.2,0.2c-0.1,0.1-0.2,0.3-0.4,0.7l-0.1,0.1V36h-0.1C130.3,35.8,130.4,35.6,130.5,35.4z M122.2,36.3
		c0.2-0.2,0.3-0.5,0.4-0.7c0.2-0.3,0.5-0.6,0.7-0.8c0,0,0.1-0.1,0.1-0.2c0.2,0,0.4-0.2,0.5-0.3c0-0.1,0.1-0.3,0-0.4
		c0.1,0,0.1-0.1,0.2-0.1c0.1,0,0.2,0,0.3-0.1c0.1,0.6,0.2,1.3,0.3,1.8c0.1,0.4,0.1,0.7,0.1,0.8l0.2,1.6c0,0,0,0.1,0,0.2
		c-0.5,0-1.2-0.1-2.1-0.3c0-0.3-0.1-0.5-0.3-0.7c0.1-0.1,0.1-0.2,0.1-0.2c0-0.1,0-0.2-0.1-0.3C122.6,36.5,122.4,36.3,122.2,36.3z
		 M129.7,56.4c-0.4-0.2-0.7-0.3-0.8-0.5c-0.5-1.1-2.2-2.2-2.2-2.3h-0.1c-1.2-0.5-3.4-1.4-3.9-1.9s-0.5-2.4-0.4-3.6l1.7-2.7
		c0-0.1,0-0.1,0.1-0.2l0.1-1.3c0-0.1,0-0.2-0.1-0.3c-0.4-0.5-0.6-1.4-0.8-2.3c-0.1-0.3-0.2-0.8-0.3-1.2c0.3,0.1,0.6,0.1,0.9,0
		c0,0,0.3-0.1,1.5-0.2c0.5,1.8,1.8,5.9,4,10.2c1,1.9,1.9,3.5,3,5.1C131.6,56.1,130.5,56.5,129.7,56.4z M159.9,59.9
		c0,0-0.1,0.1-0.1,0.2c-0.3,1.4-1.1,2.9-1.1,2.9c-0.9,1.4-1.7,2.8-2.4,4.3c-0.1-0.3-0.2-0.6-0.2-0.6v-0.1l-0.3-0.5v-0.4
		c-0.2-0.6-0.5-1-0.9-1.2c-0.3-0.2-0.7-0.3-1.1-0.4c-0.2-0.2-0.2-0.6-0.2-1.1c0.1-0.8,0.6-1.8,1.6-2.3c0.5-0.2,1.4-0.3,1.7-0.1
		c0.1,0.1,0.2,0.1,0.3,0c0.1,0,0.2-0.1,0.2-0.2c0.2-0.6,1-2.2,1.5-2.7c0.1-0.1,0.2-0.3,0.1-0.4c-0.4-1-0.6-2.2-0.4-2.6l1.3,1.4V59.9
		z M156.5,53.5c0,0,0-0.1,0.1-0.1c0-0.1,0.1-0.2,0.1-0.2l0.2-0.3l1.2,1.3C157.7,54.1,157.1,53.9,156.5,53.5z M166,12.6
		c-0.4,0.1-0.8,0.3-1.2,0.5c-0.2,0.1-0.5,0.2-0.7,0.4c-0.4,0.3-0.7,0.7-0.8,1c-0.8,0-1.6,0.3-1.8,0.3l-0.5,0.8c-0.1,0-0.1,0-0.1,0.1
		c-0.1,0-0.2,0.1-0.3,0.2c0,0.1-0.1,0.1-0.1,0.2c0,0.1-0.1,0.1-0.1,0.2l-0.6,0.5l-0.3,0.2c0,0,0,0.1-0.1,0.1c-0.5,1-0.7,1.8-0.9,2.7
		l-0.3,1.2c-0.9,3-0.9,5.2-0.8,5.9v0.5c0.1,0.4,0.7,1.4,4.4,5.1l0.1,0.1c0.1,0.2,0.2,0.8,0,1.9l-0.1,0.1c-0.1,0.1-0.1,0.3,0,0.5
		c-0.1,0.3-0.2,0.6-0.3,0.9c0,0.1,0,0,0,0.1l-0.1,0.1c-0.1,0.2-0.1,0.3-0.3,0.4c-0.1,0.2-0.1,0.3-0.2,0.4c-0.7,0.8-1.7,1.3-2.3,1.6
		c-1.3,0.3-2.5,0.5-3.5,0.6c-0.3,0-0.6,0.1-0.8,0.1v-1c0-0.1,0-0.2-0.1-0.2l-0.7-0.8c-0.1-0.1-0.3-0.2-0.4-0.1
		c-0.1,0.1-0.2,0.2-0.2,0.4c0,0,0,1.1-0.1,2.3c-0.1,0-0.1,0.1-0.2,0.1h-0.1c-0.7,0.4-1.5,1.8-1.5,2.3v0.1c0,0.1-0.1,0.4-0.1,0.6
		c-0.1,0.2-0.2,0.5-0.3,0.8c-0.1,0.4-0.3,0.9-0.5,1.4c-0.2,0.7-0.5,1.4-0.7,2.2c-0.7,1.6-1.4,3.5-1.9,5.1c-0.1,0.1-0.1,0.2-0.1,0.3
		c0,0,0,0.1-0.1,0.2l-0.2,0.4c-0.3,0.6-0.5,1.1-0.7,1.5h-0.1c-0.1,0-0.2,0-0.3,0.1c-0.2,0.2-0.8,0.5-1.3,0.7
		c-0.3,0.1-0.6,0.3-0.9,0.4c-0.2-0.1-0.3-0.2-0.5-0.3c-0.5-0.3-1.1-0.6-1.5-1l-0.1-0.1c-0.8-0.7-1.9-1.5-3-2.5
		c-3.3-3.3-5.9-7.4-7.7-12.1c0.1-0.1,0.2-0.2,0.2-0.3c0.2-0.3,0.2-0.7,0.1-1c0-0.3-0.2-0.6-0.4-0.8c0.4-0.8,1.1-1.8,1.4-2.4h0.1
		c0.3,0,0.6-0.2,0.8-0.5c0.2-0.2,0.2-0.5,0.2-0.7c0-0.4-0.3-0.7-0.8-0.9c-0.1-0.1-0.2-0.1-0.3-0.1c-0.1,0-0.3,0-0.5,0.1
		c-0.2,0.1-0.3,0.2-0.4,0.4c0,0.1-0.1,0.1-0.1,0.2c-0.2,0-0.5-0.1-0.7-0.1c0-0.3,0.1-0.6,0.1-0.9h0.3c0.2,0,0.3,0,0.4-0.1l0.1-0.1
		c0.1-0.1,0.1-0.1,0.1-0.2c0-0.1,0.1-0.3,0.2-0.5c0.3-0.9,0.4-1.3,0.4-1.5c0-0.1,0-0.3-0.1-0.4v-0.1c0-0.1,0-0.2-0.1-0.3l0.5-0.9
		l2.4-1.3l1.6,1c0.4,0.5,1.4,1.7,1.6,2.1c0.2,0.3,0.6,0.4,1,0.5c0.5,0.1,1.2,0.2,1.7,1c0.1,0.1,0.3,0.2,0.4,0.1c0,0,1.6-0.5,2.2-0.6
		c0.2,0,0.3-0.2,0.3-0.4c0-0.5,0.2-2,1-2.4c1.2-0.6,5.8-2.3,5.9-2.3c0.1,0,0.2-0.1,0.2-0.2c0-0.1,0.1-0.4,0.1-0.5
		c-0.2-0.5-0.7-2.1-0.4-2.9l0.4-1.3v-0.3l-1.9-3.4c0-0.1,0-0.3,0.1-0.6l1.5-2.6c0.3-0.1,1.2-0.4,2-0.6l0.6,0.4
		c0.1,0.1,0.2,0.1,0.3,0.1l1.4-0.3c0.8-0.2,2.4,0.4,2.9,0.7c0.2,0.1,0.4,0,0.5-0.2c0,0,2.3-4.8,3-5.9c0.3-0.4,0.7-0.7,0.9-0.8h0.7
		c0.2,0,0.4-0.1,0.5-0.2h0.7c0.2,0,0.4-0.2,0.4-0.4c0-0.1,0-0.2,0.1-0.4l0.1-0.1L164.6,7c0.2-0.3,0.3-0.7,0.4-1.1
		c0.1-0.2,0.1-0.3,0.1-0.4c1.3,0,2.4-0.2,3-0.5c0.2-0.1,0.6-0.1,1,0.2c0.9,0.5,1.7,1.8,1.6,3.3c-0.2,0.6-0.6,1.5-1,1.8
		c-0.1,0.1-0.2,0.1-0.2,0.2v0.3c0.4,0.6,1.3,2.1,1.5,3C169.1,12.6,167.2,12.3,166,12.6z M205.9,54.2c-0.3,0.4-0.7,0.8-1,1.2
		c-0.3,0.3-0.5,0.6-0.5,0.6l-0.3,0.3c-1.2,1-2.5,2-3,2.3l-1,0.1l-1.5-0.6c-0.2-0.1-0.3-0.2-0.5-0.3l-0.1-0.1l-0.6-0.3
		c-0.3-0.2-1-0.7-1.8-1.5c0.1-0.1,0.2-0.1,0.3-0.1c0.9-0.3,2.8-0.9,3.4-0.8c0.1,0,0.3-0.1,0.4-0.2l1.2-2l2.4-1.3l1.6,1
		c0.2,0.2,0.7,0.9,1.2,1.5C206,54.1,206,54.2,205.9,54.2z M211.4,39.7c-0.2,5.9-2.7,10-4.3,12.4c-0.1-0.4-0.2-0.9-0.1-1.1
		c0.1-0.1,0.1-0.2,0-0.3c0-0.1-0.1-0.2-0.2-0.2c-0.6-0.2-2.2-0.9-2.8-1.4c-0.1-0.1-0.3-0.1-0.4-0.1c-1,0.4-2.3,0.7-2.6,0.5h-0.3
		c-0.1,0.1-0.2,0.1-0.2,0.3c-0.2,0.8-0.9,3-2.1,3.3c-0.5,0.2-0.8,0.4-1.2,0.5c-0.9,0.4-1.3,0.6-1.8,0.2c-0.3-0.2-0.7-0.3-1.1-0.5
		c-0.6-0.2-1.3-0.5-1.5-0.8c-0.1-0.1-0.2-0.1-0.3-0.1s-0.2,0.1-0.3,0.2c-2.4-2.4-4.8-5.1-5.2-6c-0.5-0.9-2.5-4.1-5-5.7
		c-0.5-0.4-1.2-0.7-2.2-0.9c-0.7-0.1-1.2-0.2-1.2-0.2c-2.2-0.6-6-2-7-3.1c-0.5-0.9-0.5-3.4-0.5-4.4v-0.1c7-1.3,9.2-3.3,9.2-3.4
		c0.2-0.2,0.2-0.3,0.2-0.4c0.3-0.2,0.5-0.4,0.5-0.5c0.1-0.1,0.1-0.3,0.1-0.5c-0.1-0.1-0.3-0.2-0.4-0.2l0.1-0.1
		c0.1-0.1,0.2-0.3,0.2-0.5l0.5-0.5c0.1-0.1,0.1-0.3,0-0.5c-0.1-0.1-0.1-0.1-0.2-0.1c0-0.1,0.1-0.2,0.1-0.2v-0.1
		c0.2-0.3,0.3-0.6,0.3-0.6c0-0.1,0-0.3-0.1-0.4c-0.1-0.1-0.3-0.1-0.4-0.1l-1.9,0.8c-0.1,0-0.2,0.2-0.2,0.3c-0.3,0.1-0.5,0.1-0.8-0.1
		c-0.1,0-0.1-0.1-0.2-0.1c0.3-0.2,0.6-0.3,0.9-0.5c0.8-0.6,1.4-1.4,1.5-1.5c0-0.1,0.1-0.1,0.1-0.2v-0.2c0.2-0.2,0.4-0.5,0.5-0.7
		c0.1-0.1,0.1-0.3,0-0.5c-0.1-0.1-0.3-0.1-0.5-0.1l-1.1,0.7c-0.1,0-0.1,0.1-0.1,0.1s0,0.1-0.1,0.1s-0.1,0-0.2,0.1
		c-1.5,0.3-2.7-1.4-4.6-4.4c-0.1-0.1-0.1-0.2-0.2-0.4c-0.1-0.1-0.1-0.2-0.2-0.4c-0.7-1.1-1.4-1.9-2.2-2.6c0.9,0.4,1.9,0.8,2.1,1.1
		c0.1,0.1,0.2,0.2,0.3,0.2c0.1,0,0.2,0,0.3-0.1c0,0,2.6-2.2,4.2-1.6c0.6,0.2,1.1,0.3,1.6,0.4c1,0.2,1.4,0.3,1.6,1
		c0.4,1.3,0.6,3.6,0.6,3.6c0,0.2,0.2,0.3,0.4,0.3c0,0,1,0,2,0.4c0,0,1.3,0.3,2.5,0.8l2.1,1.6c0,0,0.1,0.1,0.2,0.1L194,23
		c0.4,0.4,0.9,0.9,0.9,1c0,0.1,0.1,0.2,0.2,0.2c0.3,0.3,0.8,0.7-0.1,1.9c-0.1,0.1-0.1,0.2-0.1,0.3c0,0.1,0.1,0.2,0.2,0.3
		c1.1,0.7,4.1,2.6,4.7,3.5c0.1,0.1,0.1,0.2,0.3,0.2c1.9,0.3,5.2,1.1,5.7,1.7c0.1,0.1,0.3,0.2,0.5,0.1c0,0,0.5-0.3,1.2-0.7
		c0,0.1,0,0.1,0,0.2v0.1c-0.1,0-0.2,0.1-0.2,0.1c-0.3-0.2-0.3,0-0.3,0.1c0,0.1,0,0.1,0,0.1c0,0.1,0,0.2,0,0.2c0,0.1,0,0.2,0.1,0.2
		c0,0,1.8,2.5,2.2,3.8v0.3c0,0.4,0.3,0.7,0.6,0.8c0.4,0.2,0.7,0.4,1.1,0.2c0.2,0,0.3-0.1,0.4-0.2V39.7z M216.8,44.4l1,1.6v1.2
		c-0.2,0.4-0.2,0.9-0.1,1.5c-0.1,0.4-0.2,0.7-0.3,0.9c-0.3,0.3-1.2,0.8-2,1.2C216.1,48.7,216.6,46.6,216.8,44.4z"/>
	<path d="M97.1,37.7c0,0.2-0.1,0.3-0.1,0.5C97,38,97,37.9,97.1,37.7C97,37.7,97,37.7,97.1,37.7z"/>
	<path d="M10.7,34.8l-0.2,0.3C10.5,35,10.5,34.9,10.7,34.8L10.7,34.8z"/>
	<path d="M100.5,34.2c0.1-0.2,0.1-0.5,0-0.7c0-0.1,0-0.2-0.1-0.3l0,0c0-0.3-0.3-0.6-0.6-0.6c-0.2-0.1-0.5-0.2-0.8-0.2
		c-0.1,0-0.2,0-0.3,0c-0.1-0.1-0.2-0.2-0.2-0.3c-0.1-0.2-0.2-0.3-0.3-0.4s-0.3-0.1-0.4-0.1c-0.1,0.1-0.2,0.2-0.3,0.3
		c-0.1,0.3,0.1,0.5,0.5,1.1c0,0.1-0.1,0.1-0.1,0.2c0,0,0,0.1-0.1,0.2c0,0.1,0,0.1,0,0.2v0.5c0,0.4,0.2,0.5,0.3,0.7
		c0,0,0.2,0.2,0.4,0.2c0.3,0.1,0.5,0.2,0.7,0.1c0,0.4-0.2,0.7-0.7,0.8c-0.3,0.1-0.6,0.1-0.9,0.2c0-0.1,0-0.2,0-0.2
		c0-0.2-0.1-0.5-0.1-0.7c-0.3-1.5-0.8-3-1.7-4.7c-0.7-1.5-1.4-2.5-2-3.3c0.1-0.3,0.3-0.6,0.4-0.7c0.1-0.1,0.1-0.4,0-0.5
		c0,0-0.5-0.5-0.6-1.2c0-0.2-0.2-0.3-0.3-0.3c-0.4,0-1.7-0.2-2.2-0.7c-0.1-0.1-0.3-0.1-0.5,0c-0.1,0.1-0.2,0.3-0.2,0.4
		c-0.1-0.1-0.2-0.1-0.3-0.2c-1-0.8-2.2-1.6-3-2.1c-0.4-0.3-0.7-0.5-0.7-0.5c-0.1-0.1-0.2-0.1-0.3-0.1l0,0l0,0l0,0l0,0H86l0,0l0,0
		l0,0l0,0h-0.1l0,0l0,0l0,0h-0.1l0,0l0,0h-0.1l0,0l0,0l0,0l0,0l0,0l-1.6,1.2c-0.3,0.1-0.4,0.2-0.5,0.3l-0.1,0.1L83.4,23l-0.2,0.3
		l-0.1,0.1c-0.1,0.1-0.2,0.2-0.3,0.3c-0.2,0-0.3,0.1-0.4,0.2c0,0-1,1.2-0.5,2c0.2,0.3,0.7,0.5,1,0.5c0,0.4,0.3,0.7,0.6,0.8v0.1
		c0,0.5,0.2,0.8,0.7,1c0.2,0,0.5,0.1,0.7,0.2c0.4,0.1,0.7,0.2,1,0.2c0.1,0,0.4,0,0.6-0.1c0,0,0,0,0.1,0c0.7,0.4,1.6,0.6,2.1,0.6l0,0
		c-1.5,0.5-2.8,0.7-3.4,0.5c-1.4-0.5-2.2-0.7-2.5-0.7l-4.6-2.9c-0.2-0.6-0.8-3.1-0.9-3.5c0-0.1-0.1-0.2-0.2-0.2l-1.8-1.2
		c0,0-0.1,0-0.1-0.1l-4.8-1.2c-0.2-0.2-0.8-0.7-1.3-1c-1.1-0.6-3.2-0.9-3.4-1c-0.4,0-0.9-0.1-0.9-0.2c-0.1-0.5-0.7-4-0.7-4
		c0-0.1-0.1-0.3-0.3-0.3c-0.9-0.2-3.2-1-3.8-1.5c-0.1-0.1-0.3-0.1-0.4-0.1l-2.5,1.1L54,12.4l-0.8-2V7.1c0-0.4-0.3-0.7-0.6-1
		c-0.4-0.5-0.9-1.1-0.9-2.2c0-0.2-0.1-0.3-0.2-0.4c0,0-1.7-0.6-2.3-1c-0.2-0.1-0.4-0.1-0.5,0.1c-0.4,0.5-1.6,1.7-2.5,1.5
		c-0.1,0-0.2,0-0.5-0.1h-0.1c-0.2-0.5-0.5-0.9-0.9-1.2c-0.6-0.5-1.4-0.7-2-0.6c-0.4,0-0.9,0.1-1.2,0.4c0,0-0.1,0-0.1,0.1h-0.1
		L39.1,2c-0.2-0.1-0.4,0-0.5,0.2c-0.2,0.6-0.9,2.4-1.6,2.9L35.7,6c-0.1,0.1-0.2,0.2-0.2,0.3l-0.6,4.5L33.7,12l-0.1,0.1
		c-0.1,0.1-0.2,0.3-0.5,0.5H33c-0.2,0.1-0.7,0.1-1.5-0.5c-0.1-0.1-0.2-0.1-0.3,0S31,12.2,31,12.3c-0.7,1.3-2.6,4.6-3.6,5.2
		c-0.1,0.1-0.2,0.2-0.2,0.3c-0.3,2.1-1,5.7-1.6,6.3c-0.1,0.1-0.1,0.3,0,0.5c0,0,0.7,0.9,1.4,2c-0.7,0.3-1.3,0.5-1.3,0.5h-0.1
		c-0.1,0.1-1.8,1.3-2.2,2.3c-0.1,0.2-0.5,0.4-0.9,0.4c-0.8,0-2-0.4-2.7-1.5c-0.2-0.5-0.4-1.4-0.2-1.6c0.1-0.1,0.1-0.2,0-0.3
		c0-0.1-0.1-0.2-0.2-0.2c-0.6-0.2-2.2-0.9-2.8-1.4c-0.1-0.1-0.3-0.1-0.4-0.1c-1,0.4-2.3,0.7-2.6,0.5c-0.1,0-0.2,0-0.3,0
		c-0.1,0.1-0.2,0.1-0.2,0.3c0,0-0.3,1.5-1.1,2.5c-0.1-0.1-0.2-0.2-0.3-0.3c-0.1-0.1-0.2-0.1-0.2-0.2v-0.2c0-0.1,0.1-0.1,0.1-0.2
		s0-0.1,0-0.2v-0.1c0-0.8-0.3-1.3-1.1-1.4c-0.4-0.1-0.7,0-0.9,0.1l0,0c-0.1,0-0.2,0-0.3,0.1l-0.1,0.1c-0.1,0-0.1,0-0.2,0.1H8.4
		c-0.1,0-0.1,0-0.2,0s-0.1,0.1-0.1,0.1c-0.1,0-0.2,0-0.2,0.1c-3,2.3-2.9,2.8-2.9,3.1c0,0.1,0,0.1,0,0.1c0.1,0.2,0.1,1.4,0.1,2.1v1.1
		c0,0.1,0,0.3,0,0.5c0,0,0,0-0.1,0H4.3C4.2,32.9,4,33,4,33.1c0,0,0,0.1-0.1,0.2H3.8H3.5c-0.1,0-0.2,0-0.3,0.1l-0.1,0.1
		C3,33.6,3,33.7,3,33.8v0.4c-0.9,1.1-2.1,2.4-2.1,2.4c-0.1,0.1-0.1,0.3-0.1,0.4c0.1,0.1,0.1,0.3,0.2,0.4l-0.1,0.1
		c-0.1,0.1-0.1,0.2-0.1,0.3v0.4c0,0.2,0,0.3,0.1,0.4C1,38.8,1.1,38.9,1.2,39c0,0,0,0,0.1,0c0,0.1,0.1,0.1,0.2,0.1c0,0,0,0,0.1,0
		c0.7,1.3,1.3,3.4,1.3,3.7c0,0.2,0.1,1,0.2,1.4l-1.9,3.3c-0.1,0.1-0.1,0.2,0,0.3L1.6,49c0.2,0.6-0.1,2-0.3,2.7
		c-0.1,0.2,0,0.4,0.2,0.5c0,0,4.6,1.6,5.7,2.2c1,0.5,0.9,2.2,0.9,2.2c0,0.2,0.1,0.4,0.3,0.4c0.7,0.1,2.1,0.6,2.1,0.6
		c0.2,0,0.3,0,0.4-0.1c0.2-0.2,0.4-0.4,0.6-0.5c0.5-0.1,1-0.2,1.5-0.5c0.2-0.1,0.4-0.2,0.5-0.3c0.1,0,0.1-0.1,0.2-0.2
		c4.3,5.7,8.6,8.2,11.6,9.3h0.1c1.6,0.4,3.1-0.1,4.2-1.2c0.3-0.3,0.6-0.7,1.1-1.4c0,0.1,0.1,0.2,0.1,0.2c0.2,0.1,0.4,0.1,0.5-0.1
		c0.2-0.3,0.5-0.7,0.7-1.1c0.1-0.2,0.3-0.4,0.4-0.6c0.1-0.2,0.1-0.4-0.1-0.5c-0.1-0.1-0.1-0.1-0.2-0.1c1.4-2.2,3-4.8,3.9-6.3l0.9,2
		l-1,1.6c-0.5,0.4-1.7,1.3-2.2,1.5c-0.3,0.2-0.4,0.6-0.5,0.9c-0.1,0.5-0.3,1.2-1.1,1.8c-0.1,0.1-0.2,0.3-0.2,0.4
		c0,0,0.3,1.1,0.5,1.9l-0.1,0.1l-0.1,0.1l-0.3,0.6c0,0.1,0,0.1,0,0.2V66c0,0.2,0,0.3,0.1,0.4c0,0.3,0.2,0.8,0.8,1.1
		c0.2,0.1,0.3,0.2,0.4,0.2c0.2,0.1,0.5,0.2,0.8,0.2h0.4c0.3,0,0.5-0.2,0.6-0.3c0.1-0.1,0.3-0.2,0.4-0.3c0.1,0.4,0.3,0.9,0.5,1.5
		c-0.8,2.1-1.2,4.2-1.5,6l-0.1,0.5v0.4c-0.3,2.4-0.3,4.9-0.2,7.4c0,1.8,0.6,4.3,1.7,7.5c-0.1,0-0.1,0-0.2,0c-0.2,0-0.3,0.1-0.4,0.2
		c0,0-0.6,1.6-1,2.2c-0.1,0.2-0.1,0.4,0.1,0.5c0.4,0.3,1.5,1.5,1.3,2.4c-0.3,1.4-2.2,6.3-2.2,6.3c0,0.1,0,0.2,0,0.3
		c0,0.1,0.1,0.2,0.2,0.2c0.6,0.2,2.1,0.9,2.5,1.7l0.8,1.2c0.1,0.1,0.1,0.1,0.3,0.2l2.8,0.5v0.7v0.1c-0.8,2.9-1.1,5.4-0.9,7.2
		c0.3,2.9,5,17.1,5.4,18.2c0,0.1,0,0.2,0.1,0.4c0.1,0.4,0.2,1.2,0.3,2c0,0.2,0,0.3,0.1,0.5c0,0.1,0,0.3,0,0.4v0.1
		c0,0.1,0.1,0.2,0.1,0.4c0,0.1,0,0.3,0.1,0.4v0.1v0.1c0,0,0.2,0.5,0.5,1.2c0.1,0.3,0.2,1.9,0,3.9c-0.3,2.2-0.6,4.8-0.6,4.9
		c0.1,1,0.6,1.7,1.3,2.1c0.7,0.4,1.4,0.5,1.8,0.5c0.1,0,0.2,0,0.3,0s0.3,0.1,0.4,0.1c0.1,0,0.1,0,0.2,0h0.1l0,0
		c0.5,0,0.8-0.1,0.8-0.1c0.5-0.1,0.9-0.4,1.2-0.6c0.1-0.1,0.1-0.2,0.1-0.3c0.2,0,0.3-0.1,0.4-0.2c0.2-0.5,0.3-1.2,0.3-1.7
		c0-0.2-0.1-0.4-0.3-0.4c-0.1,0-0.2,0-0.3,0.1c0-0.8-0.2-1.5-0.3-2.1v-0.1c-0.1-0.4,0-0.8,0-1.2c0-0.2,0-0.5,0-0.7
		c0-0.1,0-0.3,0.1-0.4c0-0.1,0-0.3,0-0.4c0-0.7-0.2-1.7-0.5-2.5c0-0.2-0.1-0.3-0.2-0.5c-0.1-0.2-0.1-0.4-0.1-0.5s0-0.2,0.1-0.4
		l0.1-0.2c0-0.1,0-0.1,0.1-0.2c0.1-0.3,0.3-0.7,0-1.1c-0.2-0.3-0.7-1.9-0.7-2.2c0-0.5-0.2-4.9-0.3-6.5c1.1-0.2,1.8-1.1,2.2-2
		c0,0.1,0.1,0.3,0.3,0.3s0.3,0,0.4-0.2c0.2-0.4,0.4-0.8,0.5-1.1c0-0.1,0.1-0.2,0.1-0.3c0.1-0.1,0.1-0.2,0.1-0.3v-0.6
		c0-0.2-0.2-0.4-0.4-0.4c-0.1,0-0.2,0-0.2,0.1c0.1-0.9,0.1-2.1,0.1-3.2c0-0.9,0-2.3,0.1-2.5c0,0,0,0,0-0.1c0,0,0.1-0.1,0.2-0.2
		c0.1-0.1,0.4-0.2,0.5-0.4c0.1,0.1,0.2,0.2,0.3,0.1l0,0h0.1c0.2,0,0.4-0.2,0.4-0.4c0-0.1-0.1-0.2-0.1-0.3c-0.1-0.1-0.4-0.1-0.5-0.1
		c0-0.1,0-0.1,0-0.2v-0.1c0-0.1-0.1-0.2,0-0.4l0.3-0.2c1-0.6,1.9-1.1,2.6-1.5c0.8-0.3,1.5-0.6,1.6-0.7s0.2-0.2,0.4-0.3l0,0
		c0.5-0.1,1-0.6,1.4-1.3c0.1-0.1,0.1-0.1,0.2-0.2c0.3-0.3,0.4-0.6,0.4-0.9l0,0c0.1-0.1,0.1-0.3-0.1-0.5l0,0
		c-0.1-0.3-0.3-0.6-0.5-0.8c0-0.1-0.1-0.2-0.1-0.4c0-0.2-0.2-0.3-0.3-0.3c-0.2,0-0.5,0-0.8-0.1c-0.1-0.1-0.2-0.2-0.3-0.3l-0.1-0.1
		l0,0v-0.1c0-0.1,0-0.1,0-0.1v-0.1c0-0.1,0-0.1,0-0.2c0.1-0.2,0.1-0.4,0.1-0.5s0-0.1,0-0.2c-0.1-0.1-0.3-0.2-0.4-0.2
		c0.4-1.8,0.1-3.2-0.1-4.1c0.2,0,0.4-0.1,0.4-0.3l0.1-0.4c2.6-9.3,3.6-14.8,3.9-17.7c0.1-0.8,0.1-1.7,0.1-2.5c0-0.2-0.2-0.4-0.4-0.4
		c-0.1,0-0.2,0-0.2,0.1c0-0.4,0-0.8-0.1-1.2c0.1,0,0.1,0,0.2,0c0.2,0,0.3-0.2,0.3-0.4c0-0.2-0.1-0.5-0.1-0.7s0-0.4-0.1-0.6
		c0-0.2-0.1-0.4-0.1-0.6c-0.3-1.3-0.6-2.7-1.1-4.1c-0.1-0.2-0.3-0.3-0.5-0.2h-0.1c-0.2-0.7-0.4-1.3-0.7-1.9c0.1,0,0.1-0.1,0.1-0.2
		l0.4-1.1l0.1-0.1c0.3-0.4,0.6-0.8,0.9-1.2c0.6-0.2,0.9-0.8,1-0.9c0.1-0.3,0.2-0.7,0.1-1.1c0-0.2-0.1-0.3-0.1-0.5
		c0.1,0,0.1-0.1,0.1-0.2c0.1-0.4,0.2-0.9,0.2-1.6c0-0.4-0.1-0.8-0.3-1l0,0v-0.1c0-0.2-0.1-0.5-0.1-0.6c0-0.2-0.1-0.3-0.3-0.4
		c0,0-0.7-0.1-1.1-0.6c-0.1-0.1-0.3-0.2-0.4-0.1c0,0-2.4,0.8-3.5,1.1c-0.3-1.4-0.2-1.7-0.2-1.7c0.7-1,0.9-3.6,1-3.9
		c0-0.2,0-0.5,0.1-0.6c0-0.1,0-0.1,0-0.2c0.1-0.2,0.4-0.6,0.6-0.8c0.2-0.2,0.2-0.4,0.1-0.7c0-0.1,0.1-0.1,0.1-0.2
		c0.1-0.1,0.2-0.3,0.3-0.4l0.6-0.9c0.3-0.5,0.6-1,0.7-1.6c2.6,2.5,14.8,14.1,18.6,15.4c1.2,0.4,2.2,0.5,3.2,0.4c0.1,0,0.2,0,0.3,0
		c0.8,0,1.6-0.1,2.3-0.3c0.2-0.1,0.3-0.3,0.3-0.4c0,0,0,0,0-0.1c0.3-0.1,0.5-0.3,0.7-0.4l0,0c0.1,0.3,0.5,0.3,0.7,0.1
		c0.6-0.5,1.1-0.8,1.1-0.8l0,0c0.3-0.3,0.5-0.6,0.8-0.9l0.2-0.3c0.1-0.2,0.1-0.4,0-0.5s-0.2-0.1-0.3-0.1c0.4-0.5,0.9-1.1,1.3-1.7
		c-0.1,0.2,0,0.3,0.1,0.4c0.2,0.1,0.4,0.1,0.5-0.1l1.3-1.8c0.1-0.2,0.1-0.4-0.1-0.5c-0.2-0.1-0.4-0.1-0.5,0.1l0,0
		c1.8-2.7,3.3-5.5,4.3-8.3c0.2-0.1,0.4-0.1,0.6-0.2c0,0,0,0.1,0.1,0.1c0.1,0.1,0.3,0.1,0.4,0.1c0.6-0.3,1.9-0.8,2.6-1.3
		c0.4-0.2,0.7-0.3,0.7-0.3c0.1,0,0.2-0.1,0.2-0.2c0-0.1,0-0.2,0-0.3s-0.1-0.2-0.1-0.3c0.4-1.2,0.3-3.2,0.2-3.6c0-0.1,0-0.1-0.1-0.2
		l-0.1-0.1c0-0.1,0-0.2,0-0.3l-1.9-3.4c0-0.2,0-0.4,0.1-0.6c0.1,0,0.1,0.1,0.2,0.1c0.2,0,0.4-0.1,0.4-0.2c0.1-0.2,0.1-0.4,0.2-0.6
		c0.6-0.4,1-1.3,1.4-2.1c0.3-0.6,0.7-1.3,1-1.7c0.1-0.1,0.1-0.2,0.1-0.3c0,0-0.2-0.8,0.2-1.3c0.1-0.1,0.1-0.4,0-0.5L100.5,34.2z
		 M98,37.7c0,0.2-0.1,0.3-0.1,0.5c0-0.2,0-0.3,0-0.5C97.9,37.7,97.9,37.7,98,37.7z M98.4,49.4c0,0.1-0.1,0.1-0.1,0.2
		c-0.1,0.1-0.1,0.1-0.2,0.2c-0.4,0.2-1,0.4-1.6,0.6c0.6-2,1.1-4,1.3-6.1l0.8,1.3l-0.3,1C97.8,47.4,98.1,48.6,98.4,49.4z M61.2,64.9
		C61.1,65,61,65.1,61,65.2c-0.1,0-0.3,0-0.5,0.1c0,0-0.1,0-0.1,0.1c0,0,0,0-0.1,0.1s-0.3,0.2-0.4,0.4c-0.2,0.2-0.3,0.5-0.3,0.7v0.6
		c0,0.2,0.1,0.5,0.2,0.6l-0.1,0.1l-0.3,0.7c-0.4-0.9-0.6-1.3-0.8-1.6c0-0.4,0-0.8-0.1-1.2c-0.3-0.8-0.6-1.5-0.8-2.2
		c0.5,0,1.4-0.1,2.9-0.3c0.1,0,0.3,0.1,0.4,0.2C61.3,64.1,61.4,64.8,61.2,64.9z M55.5,113c0.8-1.2,1.7-2.9,2.4-4.4
		c0.1,0,0.2,0,0.2,0.1c0.2,0.2,0.5,0.4,1,0.6c0.1,0.2,0.3,0.5,0.4,0.6c0,0.1-0.1,0.1-0.1,0.2c-0.1,0.1-0.2,0.4-0.3,0.6
		c-0.4,0.5-0.8,0.8-1.2,1.1c-0.4,0.2-1.1,0.5-2,1C55.8,112.9,55.7,113,55.5,113z M12.1,55.9c-0.3,0.1-0.8,0.2-1.2,0.4
		c-0.1,0-0.3,0-0.4,0c-0.4,0-0.6-0.2-0.7-0.3c-0.4-1-2-2.1-2.2-2.3H7.5c-1.2-0.5-3.4-1.4-3.9-1.9s-0.5-2.4-0.4-3.6l1.7-2.7
		c0-0.1,0-0.1,0.1-0.2L5.1,44c0-0.1,0-0.2-0.1-0.3c-0.4-0.5-0.6-1.4-0.8-2.3C4.1,41,4,40.5,3.9,40.1c0.3,0.1,0.6,0.1,0.9,0
		c0,0,0.3-0.1,1.5-0.2c0.5,1.8,1.8,5.9,4,10.2c0.9,1.9,1.8,3.4,2.9,5c0,0-0.1,0-0.1,0.1c-0.2,0.2-0.3,0.3-0.3,0.5
		c0,0.1-0.1,0.1-0.1,0.1l0,0c-0.1,0.1-0.1,0.1-0.2,0.1C12.3,55.8,12.2,55.8,12.1,55.9z M46.1,5.6c1.3,0,2.4-0.2,3-0.5
		c0.2-0.1,0.6-0.1,1,0.2c0.8,0.5,1.7,1.8,1.5,3.4c-0.2,0.6-0.6,1.5-1,1.8c-0.1,0.1-0.2,0.1-0.2,0.2c0,0.1,0,0.2,0,0.3
		c0.4,0.6,1.4,2.3,1.5,3.2c0,0.1,0.1,0.2,0.3,0.3c1.1,0.4,2.5,1,2.7,1.3c0.1,0.1,0.2,0.2,0.3,0.2s0.2,0,0.3-0.1
		c0.7-0.6,2.8-2.1,4.2-1.6c0.6,0.2,1.1,0.3,1.6,0.4c1,0.2,1.4,0.3,1.6,1c0.4,1.3,0.6,3.6,0.6,3.6c0,0.2,0.2,0.3,0.4,0.3
		c0,0,1,0,2,0.4c0,0,1.3,0.3,2.5,0.8l2.1,1.6c0,0,0.1,0.1,0.2,0.1l4.2,0.7c0.4,0.4,0.9,0.9,0.9,1s0.1,0.2,0.2,0.2
		c0.3,0.3,0.8,0.7-0.1,1.9c-0.1,0.1-0.1,0.2-0.1,0.3s0.1,0.2,0.2,0.3c1.1,0.7,4.1,2.6,4.7,3.5c0.1,0.1,0.2,0.2,0.3,0.2
		c1.9,0.3,5.2,1.1,5.7,1.7c0.1,0.1,0.3,0.2,0.5,0.1c0,0,0.5-0.3,1.2-0.7c0,0.1,0,0.1,0,0.2V32c-0.1,0-0.2,0.1-0.2,0.1
		c-0.1,0.1-0.1,0.2-0.1,0.3s0,0.1,0,0.1c0,0.1,0,0.2,0,0.2c0,0.1,0,0.2,0.1,0.2c0,0,1.8,2.5,2.2,3.8V37c0,0.4,0.3,0.7,0.6,0.8
		c0.4,0.2,0.7,0.4,1.1,0.2c0.2,0,0.3-0.1,0.4-0.2c0,0.7,0,1.4,0,2.3c-0.1,5.8-2.6,10-4.3,12.5c-0.1-0.4-0.2-0.9-0.1-1.1
		c0.1-0.1,0.1-0.2,0-0.3S88,51,87.9,51c-0.6-0.2-2.2-0.9-2.8-1.4c-0.1-0.1-0.3-0.1-0.4-0.1c-1,0.4-2.3,0.7-2.6,0.5
		c-0.1,0-0.2,0-0.3,0c-0.1,0.1-0.2,0.1-0.2,0.3c-0.2,0.8-0.9,3-2.1,3.3c-0.5,0.2-0.8,0.4-1.2,0.5c-0.9,0.4-1.2,0.6-1.8,0.2
		c-0.3-0.2-0.7-0.3-1.1-0.5c-0.6-0.2-1.3-0.5-1.5-0.8c-0.1-0.1-0.2-0.1-0.3-0.1s-0.2,0.1-0.3,0.2c-2.4-2.5-4.9-5.2-5.3-6.1
		c-0.5-0.9-2.5-4.1-5-5.7c-0.5-0.4-1.2-0.7-2.2-0.9c-0.7-0.1-1.2-0.2-1.2-0.2c-2.2-0.6-6-2-7-3.1l0,0c-0.5-0.9-0.5-3.4-0.5-4.4v-0.1
		c7-1.3,9.2-3.3,9.2-3.4c0.1-0.1,0.2-0.3,0.2-0.4c0.3-0.2,0.5-0.4,0.5-0.5c0.1-0.1,0.1-0.3,0.1-0.5c-0.1-0.1-0.3-0.2-0.4-0.2l0,0
		l0.1-0.1c0.2-0.2,0.2-0.3,0.2-0.4c0,0,0,0,0-0.1l0.5-0.5c0.1-0.1,0.1-0.3,0-0.5c-0.1-0.1-0.1-0.1-0.2-0.1c0-0.1,0.1-0.2,0.1-0.2
		v-0.1c0.2-0.3,0.3-0.6,0.3-0.6c0-0.1,0-0.3-0.1-0.4s-0.3-0.1-0.4-0.1l-1.9,0.8c-0.1,0-0.2,0.2-0.2,0.3c-0.3,0.1-0.5,0.1-0.8-0.1
		c-0.1,0-0.1-0.1-0.2-0.1c0.3-0.2,0.6-0.3,0.9-0.5c0.8-0.6,1.5-1.4,1.5-1.5s0.1-0.1,0.1-0.2V23c0.2-0.2,0.4-0.5,0.5-0.7
		c0.1-0.1,0.1-0.3,0-0.5c-0.1-0.1-0.3-0.1-0.5-0.1l-1.1,0.7c-0.1,0-0.1,0.1-0.1,0.1s0,0.1-0.1,0.1s-0.1,0-0.2,0.1
		c-1.5,0.3-2.7-1.4-4.6-4.4c-0.1-0.1-0.1-0.2-0.2-0.4c-0.1-0.1-0.1-0.2-0.2-0.4c-2.5-4-6.2-5-8.1-4.5c-0.4,0.1-0.8,0.3-1.2,0.5
		c-0.2,0.1-0.5,0.2-0.7,0.4c-0.4,0.3-0.7,0.7-0.8,1c-0.8,0-1.6,0.3-1.8,0.3l-0.6,0.2c-0.1,0-0.1,0-0.1,0.1c-0.1,0-0.2,0.1-0.3,0.2
		c0,0.1-0.1,0.1-0.1,0.2c-0.1,0.1-0.1,0.2-0.1,0.2l-0.4,0.5l-0.2,0.2l0,0l0,0l0,0l0,0l0,0l0,0l0,0l0,0l0,0l0,0l0,0l0,0l0,0l0,0
		c0,0,0,0.1-0.1,0.1c-0.5,1-0.7,1.8-0.9,2.7l-0.3,1.2c-0.9,3-0.9,5.2-0.8,5.9v0.5c0.1,0.4,0.7,1.4,4.4,5.1l0.1,0.1
		c0.1,0.2,0.2,0.8,0,1.9L43,34.4c-0.1,0.1-0.1,0.2-0.1,0.3s0,0.1,0.1,0.2c-0.1,0.3-0.2,0.6-0.3,0.9c0,0.1,0,0,0,0.1L42.6,36
		c-0.1,0.2-0.1,0.3-0.3,0.4c-0.1,0.1-0.1,0.2-0.2,0.2c-0.7,0.8-1.7,1.3-2.3,1.6c-1.3,0.3-2.5,0.5-3.5,0.6c-0.3,0-0.6,0.1-0.8,0.1v-1
		c0-0.1,0-0.2-0.1-0.2l-0.7-0.8c-0.1-0.1-0.3-0.2-0.4-0.1c-0.1,0.1-0.2,0.2-0.2,0.4c0,0,0,1.1-0.1,2.3c-0.1,0-0.1,0.1-0.2,0.1
		l-0.1,0.1c-0.7,0.4-1.5,1.8-1.5,2.3v0.1c0,0.1-0.1,0.4-0.1,0.6c-0.1,0.2-0.2,0.5-0.3,0.8c-0.1,0.4-0.3,0.9-0.5,1.4
		c-0.2,0.7-0.5,1.4-0.7,2.2c-0.7,1.6-1.4,3.5-1.9,5.1c-0.1,0.1-0.1,0.2-0.1,0.3c0,0,0,0.1-0.1,0.2l-0.2,0.4
		c-0.3,0.6-0.5,1.1-0.7,1.5h-0.1c-0.1,0-0.2,0-0.3,0.1c-0.2,0.2-0.8,0.5-1.3,0.7c-0.3,0.1-0.6,0.3-0.9,0.4c-0.2-0.1-0.3-0.2-0.5-0.3
		c-0.5-0.3-1.1-0.6-1.5-1l-0.1-0.1c-0.8-0.7-1.9-1.5-3-2.5c-3.3-3.3-5.9-7.4-7.7-12.1c0.1-0.1,0.2-0.2,0.2-0.3
		c0.2-0.3,0.2-0.7,0.1-1c0-0.3-0.2-0.6-0.4-0.8l0,0l0,0c0.4-0.8,1.1-1.8,1.4-2.4h0.1c0.3,0,0.6-0.2,0.8-0.5c0.2-0.2,0.2-0.5,0.2-0.7
		c0-0.4-0.3-0.7-0.8-0.9c-0.1-0.1-0.2-0.1-0.3-0.1s-0.3,0-0.5,0.1s-0.3,0.2-0.4,0.4c0,0.1-0.1,0.1-0.1,0.2c-0.2-0.1-0.5-0.1-0.7-0.1
		c0-0.3,0.1-0.6,0.1-0.9c0.1,0,0.2,0,0.3,0c0.2,0,0.3,0,0.4-0.1l0.1-0.1c0.1-0.1,0.1-0.1,0.1-0.2c0-0.1,0.1-0.3,0.2-0.5
		c0.3-0.9,0.4-1.3,0.4-1.5s-0.1-0.4-0.2-0.5c0-0.1,0-0.1-0.1-0.2l0.6-1l2.4-1.3l1.6,1c0.4,0.5,1.4,1.7,1.6,2.1
		c0.2,0.3,0.6,0.4,1,0.5c0.5,0.1,1.2,0.2,1.7,1c0.1,0.1,0.3,0.2,0.4,0.1c0,0,1.6-0.5,2.2-0.6c0.2,0,0.3-0.2,0.3-0.4
		c0-0.5,0.2-2,1-2.4c1.2-0.6,5.8-2.3,5.9-2.3c0.1,0,0.2-0.1,0.2-0.2s0-0.2,0-0.3c-0.2-0.5-0.7-2.1-0.4-2.9l0.4-1.3
		c0-0.1,0-0.2,0-0.3L30.1,18c0-0.1,0-0.3,0.1-0.6l1.5-2.6c0.3-0.1,1.2-0.4,2-0.6l0.6,0.4c0.1,0.1,0.2,0.1,0.3,0.1l1.4-0.3
		c0.8-0.2,2.4,0.4,2.9,0.7c0.2,0.1,0.4,0,0.5-0.2c0,0,2.3-4.8,3-6c0.1-0.3,0.4-0.4,0.8-0.6h0.6c0.2,0,0.4-0.1,0.5-0.2H45
		c0.2,0,0.4-0.2,0.4-0.4c0-0.1,0-0.2,0.1-0.3l0.1-0.1l0.2-0.2C46,6.8,46.1,6.4,46.2,6C46.1,5.8,46.1,5.7,46.1,5.6L46.1,5.6z
		 M37.2,97L37.2,97c0-0.2,0.2-2.4-0.3-3.5c-0.1-0.2-0.1-0.6,0.2-0.9c0.9,2.5,1.9,4.9,2.6,6.6c0.1,0.4,0.3,0.7,0.4,0.9
		c0,0.1,0.1,0.2,0.1,0.3c0,0.1,0,0.1,0,0.1c0.2,0.5,0.3,2.1,0.4,4l-1.7-0.2c-1-0.7-2.6-2.1-2.8-2.8C35.9,100.7,36.8,98,37.2,97z
		 M37.2,67.3C37.1,67,37,66.7,37,66.7v-0.1l-0.3-0.5v-0.4c-0.2-0.6-0.5-1-0.9-1.2c-0.3-0.2-0.7-0.3-1.1-0.4
		c-0.2-0.2-0.2-0.6-0.2-1.1c0.1-0.8,0.6-1.8,1.6-2.3c0.5-0.2,1.4-0.3,1.7-0.1c0.1,0.1,0.2,0.1,0.3,0c0.1,0,0.2-0.1,0.2-0.2
		c0.2-0.6,1-2.2,1.5-2.7c0.1-0.1,0.2-0.3,0.1-0.4c-0.4-1-0.6-2.2-0.4-2.6l0,0l1.3,1.4v3.8c0,0-0.1,0.1-0.1,0.2
		c-0.3,1.4-1.1,2.9-1.1,2.9C38.7,64.4,37.9,65.8,37.2,67.3z M37.6,53.2l0.2-0.3l1.2,1.3c-0.4-0.1-1-0.3-1.6-0.7c0,0,0-0.1,0.1-0.1
		C37.5,53.3,37.6,53.2,37.6,53.2z M11.6,35.8c-0.1,0.1-0.2,0.3-0.4,0.7l-0.1,0.1V36c0.1-0.2,0.2-0.4,0.3-0.6c0,0.1,0,0.1,0.1,0.2
		C11.5,35.7,11.5,35.7,11.6,35.8z M11.4,35.1c0-0.1,0.1-0.2,0.1-0.3h0.1L11.4,35.1z M90.5,30.6c0.1,0.2,0.3,0.5,0.5,0.8h-0.5v-0.1
		c0-0.3-0.2-0.4-0.3-0.5c0,0,0,0-0.1,0c0,0,0,0,0-0.1c-0.1-0.1-0.3-0.2-0.4-0.2c-0.1,0-0.1,0-0.2-0.1l0,0c0.2-0.1,0.4-0.2,0.6-0.4
		l0.3,0.1l0,0C90.4,30.4,90.4,30.5,90.5,30.6z M92.1,35.3c-0.1,0-0.1-0.1-0.2-0.1c-0.7-0.3-1.2-0.7-1.4-1c-0.2-0.4-0.4-0.6-0.4-0.7
		c0.1,0,0.1-0.1,0.2-0.1c0.1-0.1,0.1-0.3,0-0.4l-0.1-0.2c0.1-0.1,0.2-0.2,0.2-0.3l0,0c0.2,0,0.4,0,0.6,0.1c0.2,0,0.3,0,0.4,0
		C91.7,33.2,92,34.1,92.1,35.3L92.1,35.3z M76.8,55.9c0.9-0.3,2.8-0.9,3.4-0.8c0.1,0,0.3-0.1,0.4-0.2l1.2-2l2.4-1.3l1.6,1
		c0.2,0.2,0.7,0.9,1.2,1.5c-0.1,0.1-0.1,0.2-0.2,0.2c-0.3,0.4-0.7,0.8-1,1.2c-0.3,0.3-0.5,0.6-0.6,0.7l-0.3,0.3c-1.2,1-2.5,2-3,2.3
		h-0.1l-1-0.1L79.4,58c-0.2-0.1-0.3-0.2-0.5-0.3l-0.1-0.1l-0.6-0.3c-0.3-0.2-0.9-0.7-1.6-1.3C76.6,55.9,76.7,55.9,76.8,55.9z
		 M36.9,11.6c0-0.1,0.1-0.1,0.1-0.2l0.4-3.8c0.8-1.3,2.2-3,2.8-3.1v0.1c0,0.1,0,0.1,0,0.2v1c0,0.3,0.1,0.5,0.2,0.7
		c0.1,0.5,0.4,0.9,0.8,1.1l0.1,0.1c0,0,0,0,0.1,0c0,0.1,0.1,0.1,0.1,0.1l0.1,0.1c0,0,0,0,0.1,0L41,8.7l-0.1,0.1
		c-0.4,0.9-1.7,3.4-2.5,3.9C38,12.9,37,13,36.1,12.9L36.9,11.6z M28.6,26c-0.5-1.4-0.7-2.6-0.5-3.3l0,0c0.5-1.5,0.6-2.4,0.6-2.7
		l0.3-0.6l1.2,2.1c0.1,1.3,0.1,3.2-0.4,3.6C29.7,25.3,29.2,25.7,28.6,26z M5.1,33.7c0.1,0.6,0.2,1.3,0.3,1.8
		c0.1,0.4,0.1,0.7,0.1,0.8l0.2,1.6c0,0,0,0.1,0,0.2c-0.5,0-1.2-0.1-2.1-0.3l0,0c0-0.4-0.3-0.6-0.5-0.9L3,36.8
		c-0.1-0.1-0.2-0.1-0.4-0.2v-0.1c0.2-0.4,0.5-0.7,0.6-1c0.3-0.4,0.5-0.7,0.6-0.9h0.1c0.3,0,0.4-0.2,0.6-0.3c0.1-0.1,0.1-0.1,0.1-0.2
		c0,0,0-0.1,0-0.2l0,0c0.1,0,0.1-0.1,0.2-0.1C4.9,33.8,5,33.8,5.1,33.7z M89.1,61.9L89.1,61.9l0.3,0.2L89.1,61.9z"/>
	<path d="M337.1,34.6c-0.2,0.3-0.2,0.1-0.3-0.1l-0.3-0.3c0.1-0.2,0.1-0.5,0-0.8l-0.1-0.1c-0.1-0.2-0.2-0.5-0.5-0.7
		c-0.2-0.1-0.6-0.2-0.9-0.2h-0.3c-0.1-0.1-0.2-0.2-0.2-0.3c-0.1-0.2-0.2-0.3-0.3-0.4c-0.1-0.1-0.3-0.1-0.4-0.1l-0.3,0.3
		c-0.1,0.3,0.1,0.5,0.5,1.1c0,0.1-0.1,0.1-0.1,0.2c0,0,0,0.1-0.1,0.2c0,0.1,0,0.1,0,0.2v0.5c0,0.4,0.2,0.5,0.3,0.7
		c0,0,0.2,0.2,0.4,0.2c0.3,0.1,0.5,0.2,0.7,0.1c0,0.4-0.2,0.7-0.7,0.8c-0.3,0.1-0.6,0.1-0.9,0.2c0-0.1,0-0.2,0-0.2
		c0-0.2-0.1-0.5-0.1-0.7c-0.3-1.5-0.8-3-1.7-4.7c-0.7-1.5-1.4-2.5-2-3.3c0.1-0.3,0.3-0.6,0.4-0.7c0.1-0.1,0.1-0.4,0-0.5
		c0,0-0.5-0.5-0.6-1.2c0-0.2-0.2-0.3-0.3-0.3c-0.4,0-1.7-0.2-2.2-0.7c-0.1-0.1-0.3-0.1-0.5,0c-0.1,0.1-0.2,0.3-0.2,0.4
		c-0.1-0.1-0.2-0.1-0.3-0.2c-1-0.8-2.2-1.6-3-2.1c-0.4-0.3-0.7-0.5-0.7-0.5c-0.1-0.1-0.2-0.1-0.3-0.1c0,0,0,0-0.1,0h-0.3l-1.6,1.2
		c-0.3,0.1-0.4,0.2-0.5,0.3l-0.1,0.1l-0.1,0.1l-0.2,0.3l-0.1,0.1c-0.1,0.1-0.2,0.2-0.3,0.3c-0.2,0-0.3,0.1-0.4,0.2c0,0-1,1.2-0.5,2
		c0.2,0.3,0.7,0.5,1,0.5c0,0.4,0.3,0.7,0.6,0.8v0.1c0,0.5,0.2,0.8,0.7,1c0.2,0,0.5,0.1,0.7,0.2c0.4,0.1,0.7,0.2,1,0.2
		c0.1,0,0.4,0,0.6-0.1c0,0,0,0,0.1,0c0.7,0.4,1.6,0.6,2.1,0.6c-1.5,0.5-2.8,0.7-3.4,0.5c-1.4-0.5-2.2-0.7-2.5-0.7l-4.6-2.9
		c-0.2-0.6-0.8-3.1-0.9-3.5c0-0.1-0.1-0.2-0.2-0.2l-1.8-1.2c0,0-0.1,0-0.1-0.1l-4.8-1.2c-0.2-0.2-0.8-0.7-1.3-1
		c-1.1-0.6-3.2-0.9-3.4-1c-0.4,0-0.9-0.1-0.9-0.2c-0.1-0.5-0.7-4-0.7-4c0-0.1-0.1-0.3-0.3-0.3c-0.9-0.2-3.2-1-3.8-1.5
		c-0.1-0.1-0.3-0.1-0.4-0.1l-2.5,1.1l-3.1-0.5l-0.8-2V7.1c0-0.4-0.3-0.7-0.6-1c-0.4-0.5-0.9-1.1-0.9-2.2c0-0.2-0.1-0.3-0.2-0.4
		c0,0-1.7-0.6-2.3-1c-0.2-0.1-0.4-0.1-0.5,0.1c-0.4,0.5-1.5,1.7-2.5,1.5c-0.1,0-0.2,0-0.5-0.1h-0.1c-0.2-0.5-0.5-0.9-0.9-1.2
		c-0.6-0.5-1.4-0.7-2-0.6c-0.4,0-0.9,0.1-1.2,0.4c0,0-0.1,0-0.1,0.1h-0.1L275,2c-0.2-0.1-0.4,0-0.5,0.2c-0.2,0.6-0.9,2.4-1.6,2.9
		L271.6,6c-0.1,0.1-0.2,0.2-0.2,0.3l-0.6,4.5l-1.3,1.3c-0.1,0.1-0.2,0.3-0.5,0.5h-0.1c-0.2,0.1-0.7,0.1-1.5-0.5
		c-0.1-0.1-0.2-0.1-0.3,0c-0.1,0-0.2,0.1-0.2,0.2c-0.7,1.3-2.7,4.6-3.6,5.2c-0.1,0.1-0.2,0.2-0.2,0.3c-0.3,2.1-1,5.7-1.6,6.3
		c-0.1,0.1-0.1,0.3,0,0.5c0,0,0.7,0.9,1.4,2c-0.7,0.3-1.3,0.5-1.3,0.5h-0.1c-0.1,0.1-1.8,1.3-2.2,2.3c-0.1,0.2-0.5,0.4-0.9,0.4
		c-0.8,0-2-0.4-2.7-1.5c-0.2-0.5-0.4-1.4-0.2-1.6c0.1-0.1,0.1-0.2,0-0.3c-0.1-0.1-0.1-0.2-0.2-0.2c-0.6-0.2-2.2-0.9-2.8-1.4
		c-0.1-0.1-0.3-0.1-0.4-0.1c-1,0.4-2.3,0.7-2.6,0.5h-0.3c-0.1,0.1-0.2,0.1-0.2,0.3c0,0-0.3,1.5-1.1,2.5c-0.1-0.1-0.2-0.2-0.3-0.3
		c-0.1-0.1-0.2-0.1-0.2-0.2v-0.2c0-0.1,0.1-0.1,0.1-0.2s0-0.1,0-0.2v-0.1c0-0.8-0.3-1.3-1.1-1.4c-0.4-0.1-0.7,0-0.9,0.1
		c-0.1,0-0.2,0-0.3,0.1l-0.1,0.1c-0.1,0-0.1,0-0.2,0.1h-0.6c-0.1,0-0.1,0-0.2,0c-0.1,0-0.1,0.1-0.1,0.1c-0.1,0-0.2,0-0.2,0.1
		c-3,2.3-2.9,2.8-2.9,3.1c0,0.1,0,0.1,0,0.1c0.1,0.2,0.1,1.4,0.1,2.1v1.6h-0.3c-0.1,0-0.3,0.1-0.3,0.2c0,0,0,0.1-0.1,0.2H240
		c-0.1,0-0.2,0-0.3,0.1l-0.1,0.1c-0.1,0.1-0.1,0.2-0.1,0.3V34c-0.1,0-0.1,0.1-0.2,0.2c-0.1,0.1-0.1,0.2-0.2,0.4
		c-0.8,0.9-1.7,1.9-1.7,1.9c-0.1,0.1-0.1,0.3-0.1,0.4c0.1,0.1,0.1,0.3,0.2,0.4c0,0-0.1,0.1-0.1,0.2c-0.1,0.1-0.1,0.2-0.1,0.3v0.4
		c0,0.2,0,0.3,0.1,0.4c0.1,0.2,0.2,0.3,0.3,0.4c0,0,0,0,0.1,0c0,0,0,0,0,0.1l0.1,0.1c0,0,0,0,0.1,0c0.7,1.3,1.3,3.4,1.3,3.7
		c0,0.2,0.1,1,0.2,1.4l-1.9,3.3c-0.1,0.1-0.1,0.2,0,0.3l0.4,1.2c0.2,0.6-0.1,2-0.3,2.7c-0.1,0.2,0,0.4,0.2,0.5c0,0,1.8,0.6,3.3,1.2
		c0.9,0.4,1.8,0.8,2.1,0.9c0.2,0.1,0.4,0.3,0.7,0.5c0.5,0.7,0.4,1.8,0.4,1.8c0,0.2,0.1,0.4,0.3,0.4c0.7,0.1,2.1,0.6,2.1,0.6
		c0.1,0,0.3,0,0.4-0.1c0.5-0.7,1.2-0.8,1.7-0.9c0.4-0.1,0.8-0.2,0.9-0.5c0,0,0.1-0.1,0.1-0.2c0.7,0.9,1.4,1.8,2.1,2.5
		c-0.1,0.1-0.2,0.2-0.2,0.3V59c0,0.2,0.2,0.4,0.4,0.4c0.2,0,0.3-0.1,0.4-0.3c3.4,3.6,6.7,5.4,9,6.3h0.1c1.6,0.4,3.1-0.1,4.2-1.2
		c0.2-0.2,0.5-0.6,0.9-1.1c0.1,0,0.2-0.1,0.2-0.1c0.2-0.3,0.5-0.7,0.7-1.1c0.1-0.2,0.3-0.4,0.4-0.6c0-0.1,0-0.1,0-0.2
		c0.9-1.4,2-3.1,2.9-4.6c0.3-0.7,0.6-1.2,1-1.7l0.1-0.1c0.2-0.4,0.4-0.6,0.5-0.9c0.2-0.1,0.5-0.3,0.5-0.6c0-0.1,0-0.1,0-0.2
		c0.1-0.1,0.1-0.2,0.1-0.2c0.1,0,0.1-0.1,0.2-0.2l0.2-0.3l3,3.3v4.1c-0.3,1.4-1.1,2.9-1.1,2.9c-1.1,1.6-2,3.3-2.6,5
		c-0.3,0.2-0.4,0.7-0.4,1c-0.8,2.1-1.2,4.3-1.5,6.1l-0.1,0.5v0.4c-0.3,2.4-0.3,4.9-0.2,7.4c0,1.8,0.6,4.3,1.7,7.5
		c-0.1,0-0.1,0-0.2,0c-0.2,0-0.3,0.1-0.4,0.2c0,0-0.6,1.6-1,2.2c-0.1,0.2-0.1,0.4,0.1,0.5c0.4,0.3,1.5,1.5,1.3,2.4
		c-0.3,1.4-2.2,6.3-2.2,6.3v0.3c0,0.1,0.1,0.2,0.2,0.2c0.6,0.2,2.1,0.9,2.5,1.7l0.8,1.2c0.1,0.1,0.1,0.1,0.3,0.2l2.8,0.5v0.8
		c-0.8,2.9-1.1,5.4-0.9,7.2c0.3,2.9,5,17.1,5.4,18.2c0,0.1,0,0.2,0.1,0.4c0.1,0.4,0.2,1.2,0.3,2c0,0.2,0,0.3,0.1,0.5v0.5
		c0,0.1,0.1,0.2,0.1,0.4c0,0.1,0,0.3,0.1,0.4v0.2c0,0,0.2,0.5,0.5,1.2c0.1,0.3,0.2,1.9,0,3.9c-0.3,2.2-0.6,4.8-0.6,4.9
		c0.1,1,0.6,1.7,1.3,2.1c0.1,0,0.1,0.1,0.2,0.1l0.2,0.1c0.5,0.3,1.1,0.4,1.6,0.4c0.4,0,0.8-0.1,0.8-0.1c0.5-0.1,0.9-0.4,1.2-0.6
		l0.1-0.1c0.1-0.1,0.1-0.1,0.2-0.2c0.1,0,0.1-0.1,0.2-0.2v-0.1c0.1-0.1,0.1-0.2,0.2-0.3c0.7-1.3,0.4-2.9,0.1-3.9v-0.1
		c-0.1-0.4,0-0.8,0-1.2V142c0-0.1,0-0.3,0.1-0.4v-0.4c0-0.7-0.2-1.7-0.5-2.5c0-0.2-0.1-0.3-0.2-0.5c-0.1-0.2-0.1-0.4-0.1-0.5
		c0-0.1,0-0.2,0.1-0.4l0.1-0.2c0-0.1,0-0.1,0.1-0.2c0.1-0.3,0.3-0.7,0-1.1c-0.2-0.3-0.7-1.9-0.7-2.2c0-0.5-0.2-4.9-0.3-6.5
		c1.5-0.3,2.3-2,2.7-2.9l0.1-0.2c0-0.1,0.1-0.2,0.1-0.3l0.1-0.1c0.2-0.4,0.2-2.9,0.2-4.3c0-0.9,0-2.3,0.1-2.5c0,0,0,0,0-0.1
		c0,0,0.1-0.1,0.2-0.2c0.2-0.1,0.9-0.4,0.7-1.2v-0.1c0-0.1-0.1-0.2,0-0.4l0.3-0.2c2.8-1.7,4.4-2.6,4.7-2.6c0.7-0.1,1.2-1,1.7-2.1
		c0.1-0.2,0.2-0.3,0.2-0.4c0.1-0.1,0.1-0.3-0.1-0.5c0,0-0.5-0.5-0.6-1.2c0-0.2-0.2-0.3-0.3-0.3c-0.5,0-1.4-0.2-1.9-0.5
		c1.2-2.9,0.4-5.4,0.2-6.1c0.4-1.2,3.2-11.1,4-18.1c0.4-3.3-0.4-6.9-1.3-9.8c-0.4-0.9-1-1.7-1.6-2.6c-2.1-2.7-3.6-6.2-2.4-9.4
		c-0.1-0.6,0-0.8,0-0.8c0.7-1,0.9-3.6,1-3.9c0-0.2,0-0.5,0.1-0.6c0-0.1,0-0.1,0-0.2c0.1-0.2,0.4-0.6,0.6-0.8
		c0.1-0.1,0.2-0.2,0.2-0.4c0-0.1,0-0.2-0.1-0.3c0-0.1,0.1-0.1,0.1-0.2c0.1-0.1,0.2-0.3,0.3-0.4l0.6-0.9c0.3-0.5,0.6-1,0.7-1.6
		c1.6,1.5,6.4,6.1,11,10c0.3,0.3,0.6,0.5,0.9,0.8c0.4,0.4,0.8,0.7,1.2,1c0.1,0.1,0.1,0.1,0.2,0.1c2.2,1.7,4.1,3.1,5.3,3.5
		c0.7,0.2,1.4,0.4,2.1,0.4c0.1,0.2,0.3,0.2,0.5,0.2c0.8,0,1.6-0.1,2.3-0.3c0.2,0,0.3-0.2,0.3-0.3c0.3-0.1,0.7-0.3,0.9-0.4
		c0.1,0.1,0.3,0.1,0.4,0c0.7-0.4,1.2-0.8,1.2-0.9c0.3-0.3,0.5-0.6,0.8-0.9l0.2-0.3c0.1-0.1,0.1-0.2,0.1-0.2
		c3.3-3.9,5.8-8.1,7.4-12.2c0.1,0,0.1,0,0.2,0c0.5-0.2,1.4-0.6,2.1-1c1.1-0.4,2.1-0.8,2.1-0.8c0.1,0,0.2-0.1,0.2-0.2V49
		c-0.2-0.5-0.7-2.1-0.4-2.9l0.4-1.3v-0.3l-1.9-3.4c0-0.4,0.1-0.8,0.1-1.1c0.4-0.1,0.6-0.7,1.1-1.6c0.3-0.8,0.8-1.7,1.2-2.2
		c0.1-0.1,0.1-0.2,0.1-0.3C336.9,35.9,336.7,35.1,337.1,34.6z M274.8,104.3c-1-0.7-2.6-2.1-2.8-2.8c-0.2-0.8,0.7-3.5,1.1-4.5
		c0-0.2,0.2-2.4-0.3-3.5c-0.1-0.2-0.1-0.6,0.2-0.9c0.9,2.5,1.9,4.9,2.6,6.6c0.1,0.4,0.3,0.7,0.4,0.9c0,0.1,0.1,0.2,0.1,0.3
		c0,0.1,0,0.1,0,0.1c0.2,0.5,0.3,2.1,0.4,4L274.8,104.3z M327.3,32.5c0.3,0.6,0.6,1.5,0.7,2.7c-0.1,0-0.1-0.1-0.2-0.1
		c-0.7-0.3-1.2-0.7-1.4-1c-0.2-0.4-0.4-0.6-0.4-0.7c0.1,0,0.1-0.1,0.2-0.1c0.1-0.1,0.1-0.3,0-0.4l-0.1-0.2c0.1-0.1,0.2-0.2,0.2-0.3
		c0.2,0,0.4,0,0.6,0.1H327.3z M326,29.9l0.3,0.1c0,0.3,0,0.4,0.1,0.5c0.1,0.2,0.3,0.5,0.5,0.8h-0.5v-0.1c0-0.3-0.2-0.4-0.3-0.5
		c0,0,0,0-0.1,0c0,0,0,0,0-0.1c-0.1-0.1-0.3-0.2-0.4-0.2c-0.1,0-0.1,0-0.2-0.1C325.6,30.2,325.8,30.1,326,29.9z M272.7,11.5
		c0-0.1,0.1-0.1,0.1-0.2l0.4-3.8c0.8-1.3,2.2-3,2.8-3.1v0.1c0,0.1,0,0.1,0,0.2v1c0,0.3,0.2,0.5,0.2,0.7c0.1,0.5,0.4,0.9,0.8,1.1
		l0.1,0.1c0,0,0,0,0.1,0c0,0.1,0.1,0.1,0.1,0.1l0.1,0.1c0,0,0,0,0.1,0l-0.9,0.9c-0.4,0.9-1.7,3.4-2.5,3.9c-0.4,0.2-1.4,0.3-2.3,0.2
		L272.7,11.5z M264,22.7c0.5-1.5,0.6-2.4,0.6-2.7l0.3-0.6l1.2,2.1c0.2,1.3,0.2,3.2-0.3,3.6c-0.2,0.2-0.7,0.6-1.3,0.9
		C264,24.6,263.8,23.4,264,22.7z M247.3,35.4c0,0.1,0,0.1,0.1,0.2c0.1,0.1,0.1,0.1,0.2,0.2c-0.1,0.1-0.2,0.3-0.4,0.7l-0.1,0.1V36
		H247C247.1,35.8,247.2,35.6,247.3,35.4z M239.4,37.9c0-0.4-0.3-0.6-0.5-0.9l-0.1-0.1c-0.1-0.1-0.2-0.1-0.4-0.2v-0.1
		c0.2-0.4,0.5-0.7,0.6-1c0.2-0.2,0.3-0.5,0.4-0.6c0.1-0.1,0.2-0.2,0.3-0.3c0.3,0,0.4-0.2,0.6-0.3c0.1-0.1,0.1-0.1,0.1-0.2v-0.1
		l0.1-0.1c0,0,0-0.1,0.1-0.1h0.1c0.1,0,0.1,0,0.2,0c0.1,0.5,0.2,1.1,0.3,1.7c0.1,0.4,0.1,0.7,0.1,0.8l0.2,1.6c0,0,0,0.1,0,0.2
		C241,38.2,240.3,38.1,239.4,37.9z M246.5,56.2c-0.4,0-0.7-0.1-0.8-0.3c-0.2-0.5-0.9-1.1-1.4-1.6c-0.2-0.2-0.4-0.4-0.7-0.6
		c-0.4-0.2-1.4-0.6-2.3-1c-0.8-0.4-1.5-0.8-1.8-1.1c-0.5-0.5-0.5-2.4-0.4-3.6l1.7-2.7c0-0.1,0-0.1,0.1-0.2l0.1-1.3
		c0-0.1,0-0.2-0.1-0.3c-0.4-0.5-0.6-1.4-0.8-2.3c-0.1-0.4-0.2-0.9-0.3-1.3c0.3,0.1,0.6,0.1,0.9,0c0,0,0.3-0.1,1.5-0.2
		c0.5,1.8,1.8,5.9,4,10.2c1,1.9,1.9,3.5,3,5.1C248.4,55.9,247.3,56.3,246.5,56.2z M283.1,12.7c-0.4,0.1-0.8,0.3-1.2,0.5
		c-0.2,0.1-0.5,0.2-0.7,0.4c-0.4,0.3-0.7,0.7-0.8,1c-0.8,0-1.6,0.3-1.8,0.3l-0.6,0.2c-0.1,0-0.1,0-0.1,0.1c-0.1,0-0.2,0.1-0.3,0.2
		c0,0.1-0.1,0.1-0.1,0.2c-0.1,0.1-0.1,0.2-0.2,0.2l-0.4,0.5l-0.1,0.1l-0.1,0.1l-0.1,0.1c-0.5,1-0.7,1.8-0.9,2.7l-0.3,1.2
		c-0.9,3-0.9,5.2-0.8,5.9v0.5c0.1,0.4,0.7,1.4,4.4,5.1l0.1,0.1c0.1,0.2,0.2,0.8,0,1.9l-0.1,0.1c-0.1,0.1-0.1,0.3,0,0.5
		c-0.1,0.3-0.2,0.6-0.3,0.9c0,0.1,0,0,0,0.1l-0.1,0.1c-0.1,0.2-0.1,0.3-0.3,0.4c-0.1,0.1-0.1,0.2-0.2,0.2c-0.7,0.8-1.7,1.3-2.3,1.6
		c-1.3,0.3-2.5,0.5-3.5,0.6c-0.3,0-0.6,0.1-0.8,0.1v-1c0-0.1,0-0.2-0.1-0.2l-0.7-0.8c-0.1-0.1-0.3-0.2-0.4-0.1
		c-0.1,0.1-0.2,0.2-0.2,0.4c0,0,0,1.1-0.1,2.3c-0.1,0-0.1,0.1-0.2,0.1l-0.1,0.1c-0.7,0.4-1.5,1.8-1.5,2.3v0.1c0,0.1-0.1,0.4-0.1,0.6
		c-0.1,0.2-0.2,0.5-0.3,0.8c-0.1,0.4-0.3,0.9-0.5,1.4c-0.2,0.7-0.5,1.4-0.7,2.2c-0.7,1.6-1.4,3.5-1.9,5.1c-0.1,0.1-0.1,0.2-0.1,0.3
		c0,0,0,0.1-0.1,0.2l-0.2,0.4c-0.3,0.6-0.5,1.1-0.7,1.5h-0.1c-0.1,0-0.2,0-0.3,0.1c-0.2,0.2-0.8,0.5-1.3,0.7
		c-0.3,0.1-0.6,0.3-0.9,0.4c-0.2-0.1-0.3-0.2-0.5-0.3c-0.5-0.3-1-0.6-1.5-1l-0.1-0.1c-0.9-0.7-1.9-1.5-3-2.5
		c-3.3-3.3-5.9-7.4-7.7-12.1c0.1-0.1,0.2-0.2,0.2-0.3c0.2-0.3,0.2-0.7,0.1-1c0-0.3-0.2-0.6-0.4-0.8c0.4-0.8,1.1-1.8,1.4-2.4h0.1
		c0.3,0,0.6-0.2,0.8-0.5c0.2-0.2,0.2-0.5,0.2-0.7c0-0.4-0.3-0.7-0.8-0.9c-0.1-0.1-0.2-0.1-0.3-0.1c-0.1,0-0.3,0-0.5,0.1
		c-0.2,0.1-0.3,0.2-0.4,0.4c-0.1,0.1-0.1,0.2-0.1,0.3c-0.2-0.1-0.4-0.1-0.7-0.1c0.1-0.4,0.1-0.7,0.1-1h0.3c0.2,0,0.3,0,0.4-0.1
		l0.1-0.1c0.1-0.1,0.1-0.1,0.1-0.2c0-0.1,0.1-0.3,0.2-0.5c0.3-0.9,0.4-1.3,0.4-1.5s-0.1-0.4-0.3-0.6c0,0,0,0-0.1-0.1l0.6-1.1L252,27
		l1.6,1c0.4,0.5,1.4,1.7,1.6,2.1c0.2,0.3,0.6,0.4,1,0.5c0.5,0.1,1.2,0.2,1.7,1c0.1,0.1,0.3,0.2,0.4,0.1c0,0,1.6-0.5,2.2-0.6
		c0.2,0,0.3-0.2,0.3-0.4c-0.1-0.2,0.1-1.7,0.9-2.1c1.2-0.6,5.8-2.3,5.9-2.3c0.1,0,0.2-0.1,0.2-0.2v-0.3c-0.2-0.5-0.7-2.1-0.4-2.9
		l0.4-1.3v-0.3l-1.9-3.4c0-0.1,0-0.3,0.1-0.6l1.5-2.6c0.3-0.1,1.2-0.4,2-0.6l0.6,0.4c0.1,0.1,0.2,0.1,0.3,0.1l1.4-0.3
		c0.8-0.2,2.4,0.4,2.9,0.7c0.2,0.1,0.4,0,0.5-0.2c0,0,2.3-4.8,3-6c0.1-0.3,0.4-0.4,0.8-0.6h0.6c0.2,0,0.4-0.1,0.5-0.2h0.7
		c0.2,0,0.4-0.2,0.4-0.4c0-0.1,0-0.2,0.1-0.4l0.1-0.1l0.2-0.2c0.2-0.3,0.3-0.7,0.4-1.1c0.1-0.2,0.1-0.3,0.1-0.4c1.3,0,2.4-0.2,3-0.5
		c0.2-0.1,0.6-0.1,1,0.2c0.8,0.5,1.7,1.8,1.6,3.4c-0.2,0.6-0.6,1.5-1,1.8c-0.1,0.1-0.2,0.1-0.2,0.2v0.3c0.4,0.6,1.3,2.1,1.5,3
		C286.1,12.7,284.3,12.4,283.1,12.7z M293.9,108.5c0.3,0.2,0.6,0.5,1.3,0.8c0.1,0.1,0.5,0.6,0,1.1c-0.8,0.9-1.5,1.6-1.9,1.8
		c-0.1,0.1-0.9,0.5-1.9,0.8C292.2,111.8,293.1,110,293.9,108.5z M322.7,54.2c-0.3,0.4-0.7,0.8-1,1.2c-0.3,0.3-0.5,0.6-0.5,0.6
		l-0.3,0.3c-1.2,1-2.5,2-3,2.3h-0.1l-1-0.1l-1.5-0.6c-0.2-0.1-0.3-0.2-0.5-0.3l-0.1-0.1l-0.6-0.3c-0.3-0.2-0.9-0.7-1.6-1.3
		c0-0.1,0.1-0.1,0.2-0.1c0.9-0.3,2.8-0.9,3.4-0.8c0.1,0,0.3-0.1,0.4-0.2l1.2-2l2.4-1.3l1.6,1c0.2,0.2,0.7,0.9,1.2,1.5
		C322.8,54.1,322.8,54.2,322.7,54.2z M328.6,39.9c-0.2,5.9-2.7,10-4.3,12.4c-0.1-0.4-0.2-0.9-0.1-1.1c0.1-0.1,0.1-0.2,0-0.3
		c-0.1-0.1-0.1-0.2-0.2-0.2c-0.6-0.2-2.2-0.9-2.8-1.4c-0.1-0.1-0.3-0.1-0.4-0.1c-1,0.4-2.3,0.7-2.6,0.5h-0.3
		c-0.1,0.1-0.2,0.1-0.2,0.3c-0.2,0.8-0.9,3-2.1,3.3c-0.5,0.2-0.8,0.4-1.2,0.5c-0.9,0.4-1.2,0.6-1.8,0.2c-0.3-0.2-0.7-0.3-1.1-0.5
		c-0.6-0.2-1.3-0.5-1.5-0.8c-0.1-0.1-0.2-0.1-0.3-0.1c-0.1,0-0.2,0.1-0.3,0.2c-2.4-2.5-4.9-5.2-5.3-6.1c-0.5-0.9-2.5-4.1-5-5.7
		c-0.5-0.4-1.2-0.7-2.2-0.9c-0.7-0.1-1.2-0.2-1.2-0.2c-2.2-0.6-6-2-7-3.1c-0.5-0.9-0.5-3.4-0.5-4.4v-0.1c7-1.3,9.2-3.3,9.2-3.4
		c0.1-0.1,0.2-0.3,0.2-0.4c0.3-0.2,0.5-0.4,0.5-0.5c0.1-0.1,0.1-0.3,0.1-0.5c-0.1-0.1-0.3-0.2-0.4-0.2l0.1-0.1
		c0.1-0.1,0.2-0.3,0.2-0.5l0.5-0.5c0.1-0.1,0.1-0.3,0-0.5c-0.1-0.1-0.1-0.1-0.2-0.1c0-0.1,0.1-0.2,0.1-0.2v-0.1
		c0.2-0.3,0.3-0.6,0.3-0.6c0-0.1,0-0.3-0.1-0.4c-0.1-0.1-0.3-0.1-0.4-0.1l-1.9,0.8c-0.1,0-0.2,0.2-0.2,0.3c-0.3,0.1-0.5,0.1-0.8-0.1
		c-0.1,0-0.1-0.1-0.2-0.1c0.3-0.2,0.6-0.3,0.9-0.5c0.8-0.6,1.5-1.4,1.5-1.5s0.1-0.1,0.1-0.2v-0.2c0.2-0.2,0.4-0.5,0.5-0.7
		c0.1-0.1,0.1-0.3,0-0.5c-0.1-0.1-0.3-0.1-0.5-0.1l-1.1,0.7c-0.1,0-0.1,0.1-0.1,0.1s0,0.1-0.1,0.1c-0.1,0-0.1,0-0.2,0.1
		c-1.5,0.3-2.7-1.4-4.6-4.4c-0.1-0.1-0.1-0.2-0.2-0.4c-0.1-0.1-0.1-0.2-0.2-0.4c-0.7-1.1-1.5-2-2.3-2.7c1,0.4,1.9,0.8,2.1,1.1
		c0.1,0.1,0.2,0.2,0.3,0.2s0.2,0,0.3-0.1c0.7-0.6,2.8-2.1,4.2-1.6c0.6,0.2,1.1,0.3,1.6,0.4c1,0.2,1.4,0.3,1.6,1
		c0.4,1.3,0.6,3.6,0.6,3.6c0,0.2,0.2,0.3,0.4,0.3c0,0,1,0,2,0.4c0,0,1.3,0.3,2.5,0.8l2.1,1.6c0,0,0.1,0.1,0.2,0.1L311,23
		c0.4,0.4,0.9,0.9,0.9,1c0,0.1,0.1,0.2,0.2,0.2c0.3,0.3,0.8,0.7-0.1,1.9c-0.1,0.1-0.1,0.2-0.1,0.3c0,0.1,0.1,0.2,0.2,0.3
		c1.1,0.7,4.1,2.6,4.7,3.5c0.1,0.1,0.2,0.2,0.3,0.2c1.9,0.3,5.2,1.1,5.7,1.7c0.1,0.1,0.3,0.2,0.5,0.1c0,0,0.5-0.3,1.2-0.7
		c0,0.1,0,0.1,0,0.2v0.1c-0.1,0-0.2,0.1-0.2,0.1c-0.1,0.1-0.1,0.2-0.1,0.3c0,0.1,0,0.1,0,0.1c0,0.1,0,0.2,0,0.2c0,0.1,0,0.2,0.1,0.2
		c0,0,1.8,2.5,2.2,3.8v0.3c0,0.4,0.3,0.7,0.6,0.8c0.4,0.2,0.7,0.4,1.1,0.2c0.2,0,0.3-0.1,0.4-0.2V39.9z M334.6,45.9
		c0.1,1.3,0.1,3.2-0.4,3.6c-0.2,0.2-0.4,0.3-0.7,0.5c-0.4,0.1-0.8,0.3-1.2,0.5c0.6-2,1-4.1,1.3-6.2L334.6,45.9z"/>
	<path d="M333.9,37.7c0,0.2-0.1,0.3-0.1,0.5c0-0.2,0-0.3,0-0.5C333.8,37.7,333.8,37.7,333.9,37.7z"/>
	<path d="M247.3,35.1c0-0.1,0.1-0.3,0.1-0.4h0.2L247.3,35.1z"/>
	<path d="M336,32.6c0.2,0,0.4-0.2,0.4-0.4c0-0.3-0.3-0.6-0.6-0.6l0,0l0,0l0,0l0,0l0,0l0,0l0,0l0,0l0,0l0,0l0,0l0,0l0,0l0,0l0,0l0,0
		c-0.2,0-0.4,0.2-0.4,0.4c0,0.1,0.1,0.2,0.1,0.3C335.6,32.5,335.8,32.6,336,32.6z"/>
</g>
</svg>
