<?xml version="1.0" encoding="utf-8"?>
<!-- Generator: Adobe Illustrator 23.1.1, SVG Export Plug-In . SVG Version: 6.00 Build 0)  -->
<svg version="1.1" id="Capa_1" xmlns="http://www.w3.org/2000/svg" xmlns:xlink="http://www.w3.org/1999/xlink" x="0px" y="0px"
	 viewBox="0 0 600 100" style="enable-background:new 0 0 600 100;" xml:space="preserve">
<style type="text/css">
	.st0{enable-background:new    ;}
	.st1{fill:#171829;}
</style>
<g>
	<g>
		<g class="st0">
			<path class="st1" d="M97.1,50.3l5.1-8.8h6.6l-8.2,13.1l8.4,13.5h-6.6L97.1,59l-5.3,9.1h-6.6l8.4-13.5l-8.1-13.1h6.6L97.1,50.3z"
				/>
			<path class="st1" d="M139.2,48.4h9.4v5.5h-9.4v10.7h-5.8V53.9H124v-5.5h9.4v-10h5.8V48.4z"/>
			<path class="st1" d="M178.2,31.8c3.4,0,6.1,0.9,8.1,2.7c2,1.8,3,4.1,3,7c0,1.6-0.4,3-1.2,4.2c-0.8,1.3-1.9,2.3-3.4,3.1
				c2,0.7,3.5,1.9,4.6,3.4c1.1,1.6,1.6,3.4,1.6,5.5c0,3.4-1,6-3,8c-2,1.9-4.7,2.9-8.1,2.9c-2.7,0-5.1-0.7-7.1-2v11.2h-6V42.1
				c0-1.9,0.5-3.6,1.5-5.2c1-1.6,2.4-2.8,4.2-3.8S176.1,31.8,178.2,31.8z M183.3,41.7c0-1.5-0.5-2.7-1.4-3.7c-0.9-1-2.2-1.5-3.7-1.5
				c-1.6,0-2.9,0.5-4,1.6c-1.1,1-1.6,2.4-1.6,4.1v19.6c1.4,1.3,3.5,2,6,2c1.9,0,3.3-0.6,4.5-1.7c1.1-1.1,1.7-2.6,1.7-4.4
				c0-1.8-0.5-3.3-1.5-4.5c-1-1.2-2.3-1.8-4-1.8h-3v-4.6h1.8C181.5,46.9,183.3,45.2,183.3,41.7z"/>
			<path class="st1" d="M230.5,48.9h-21.2v-5h21.2V48.9z M230.5,59.4h-21.2v-5h21.2V59.4z"/>
			<path class="st1" d="M249.6,53.6c0-3.8,0.5-7.4,1.5-10.8c1-3.4,2.5-6.5,4.5-9.1s4.1-4.6,6.3-5.7l1.2,3.5c-2.3,1.8-4.2,4.4-5.6,8
				c-1.4,3.6-2.2,7.7-2.4,12.4l0,2.1c0,5,0.7,9.4,2.1,13.3c1.4,3.9,3.4,6.9,5.9,8.9l-1.2,3.3c-2.2-1.1-4.3-3-6.3-5.7
				c-2-2.7-3.5-5.7-4.5-9.1C250.1,61.3,249.6,57.6,249.6,53.6z"/>
			<path class="st1" d="M279.4,32.3h6l14.1,35.9h-34.8L279.4,32.3z M273,63.2h18.1l-8.9-23.5L273,63.2z"/>
			<path class="st1" d="M329.7,48.4h9.4v5.5h-9.4v10.7h-5.8V53.9h-9.4v-5.5h9.4v-10h5.8V48.4z"/>
			<path class="st1" d="M379.8,52.7c0,5.2-1,9.1-3.1,11.8c-2,2.7-4.9,4.1-8.6,4.1c-3.7,0-6.5-1.3-8.6-4c-2.1-2.6-3.1-6.4-3.2-11.4
				v-5.7c0-5.1,1-9,3-11.7c2-2.7,4.9-4.1,8.7-4.1c3.7,0,6.6,1.3,8.6,3.9c2,2.6,3.1,6.4,3.2,11.3V52.7z M362.3,47.8h11.5v-1.2
				c0-3.4-0.5-5.9-1.5-7.6c-1-1.7-2.4-2.5-4.3-2.5c-1.8,0-3.2,0.8-4.2,2.5s-1.5,4.2-1.5,7.6V47.8z M373.8,52.5h-11.5v1
				c0,3.4,0.5,6,1.5,7.7s2.4,2.6,4.3,2.6s3.2-0.8,4.2-2.5c1-1.7,1.5-4.1,1.5-7.5V52.5z"/>
			<path class="st1" d="M397.2,53.9c0,3.6-0.5,7.2-1.5,10.6c-1,3.4-2.5,6.5-4.6,9.3c-2,2.8-4.2,4.7-6.4,5.8l-1.2-3.3
				c2.5-1.9,4.4-4.8,5.8-8.7c1.4-3.9,2.2-8.4,2.2-13.4v-0.6c0-4.6-0.6-8.7-1.9-12.5c-1.2-3.8-3-6.8-5.4-9l-0.8-0.7l1.2-3.3
				c2.1,1,4.1,2.8,6.1,5.4c2,2.6,3.5,5.5,4.5,8.7c1.1,3.2,1.6,6.5,1.8,9.9L397.2,53.9z"/>
			<path class="st1" d="M440.2,55.3h-12.9v-4.8h12.9V55.3z"/>
			<path class="st1" d="M457.8,53.6c0-3.8,0.5-7.4,1.5-10.8c1-3.4,2.5-6.5,4.5-9.1s4.1-4.6,6.3-5.7l1.2,3.5c-2.3,1.8-4.2,4.4-5.6,8
				c-1.4,3.6-2.2,7.7-2.4,12.4l0,2.1c0,5,0.7,9.4,2.1,13.3c1.4,3.9,3.4,6.9,5.9,8.9l-1.2,3.3c-2.2-1.1-4.3-3-6.3-5.7
				c-2-2.7-3.5-5.7-4.5-9.1C458.3,61.3,457.8,57.6,457.8,53.6z"/>
			<path class="st1" d="M485.2,60.4l5.8-18.9h6.2l-9.1,25.6v11.3h-6V67L473,41.5h6.2L485.2,60.4z"/>
			<path class="st1" d="M512.4,53.9c0,3.6-0.5,7.2-1.5,10.6c-1,3.4-2.5,6.5-4.6,9.3c-2,2.8-4.2,4.7-6.4,5.8l-1.2-3.3
				c2.5-1.9,4.4-4.8,5.8-8.7c1.4-3.9,2.2-8.4,2.2-13.4v-0.6c0-4.6-0.6-8.7-1.9-12.5c-1.2-3.8-3-6.8-5.4-9l-0.8-0.7L500,28
				c2.1,1,4.1,2.8,6.1,5.4c2,2.6,3.5,5.5,4.5,8.7c1.1,3.2,1.6,6.5,1.8,9.9L512.4,53.9z"/>
		</g>
	</g>
	<g class="st0">
		<path class="st1" d="M418.8,40.4h-16.4v-3.3l7.7-8.2c1.1-1.2,1.8-2.2,2.4-3c0.5-0.9,0.8-1.7,0.8-2.5c0-1.1-0.3-1.9-0.8-2.5
			s-1.3-0.9-2.3-0.9c-1.1,0-1.9,0.4-2.5,1.1s-0.9,1.7-0.9,2.9h-4.8c0-1.5,0.3-2.8,1-4c0.7-1.2,1.7-2.1,2.9-2.8c1.3-0.7,2.7-1,4.3-1
			c2.5,0,4.4,0.6,5.7,1.8c1.4,1.2,2,2.9,2,5c0,1.2-0.3,2.4-0.9,3.6c-0.6,1.2-1.7,2.7-3.2,4.3l-5.4,5.7h10.3V40.4z"/>
	</g>
</g>
</svg>
