<?xml version="1.0" encoding="UTF-8"?>
<svg id="a" data-name="Capa 1" xmlns="http://www.w3.org/2000/svg" width="794.1mm" height="472.02mm" viewBox="0 0 2251 1338">
  <defs>
    <style>
      .b {
        fill: #fff;
        stroke-width: 0px;
      }
    </style>
  </defs>
  <path class="b" d="M875,394.5h250v200h-250v-200Z"/>
  <path class="b" d="M950,219.5h475v75h-475v-75Z"/>
  <path class="b" d="M875,694.5h625.01v50h-625.01v-50Z"/>
  <path class="b" d="M875,844.5h625.01v49.99h-625.01v-49.99Z"/>
  <path class="b" d="M1199.99,394.5h300.01v50h-300.01v-50Z"/>
  <path class="b" d="M1199.99,544.5h300.01v50h-300.01v-50Z"/>
  <path class="b" d="M1625,994.5V219.5c0-82.71-67.27-150-150-150h-799.99c-68.93,0-125,56.07-125,125v175h199.99v724.99c0,82.71,67.29,150,150,150h700.01c82.71,0,150-67.29,150-150v-100h-125.01ZM600,319.5v-124.99c0-41.35,33.64-75,75-75s75,33.64,75,75v125h-150ZM1000,1094.5c0,55.15-44.84,100-100,100s-100-44.84-100-100V194.51c0-28.25-9.77-54.05-25.63-75h700.63c55.13,0,100.01,44.84,100.01,100v775h-575.02v99.99ZM1700,1094.5c0,55.15-44.87,100-100,100h-588.29c23.77-26.56,38.28-61.62,38.28-100v-50h650v50Z"/>
</svg>