<?xml version="1.0" encoding="UTF-8"?>
<svg id="a" data-name="Capa 1" xmlns="http://www.w3.org/2000/svg" width="325" height="325" viewBox="0 0 325 325">
  <defs>
    <style>
      .b, .c {
        stroke-width: 0px;
      }

      .c {
        fill: #fff;
      }
    </style>
  </defs>
  <circle class="b" cx="162.5" cy="162.5" r="162"/>
  <path class="c" d="M162.5,1c43.14,0,83.69,16.8,114.2,47.3s47.3,71.06,47.3,114.2-16.8,83.69-47.3,114.2c-30.5,30.5-71.06,47.3-114.2,47.3s-83.69-16.8-114.2-47.3S1,205.64,1,162.5,17.8,78.81,48.3,48.3C78.81,17.8,119.36,1,162.5,1M162.5,0C72.75,0,0,72.75,0,162.5s72.75,162.5,162.5,162.5,162.5-72.75,162.5-162.5S252.25,0,162.5,0h0Z"/>
</svg>