<svg id="Capa_1" data-name="Capa 1" xmlns="http://www.w3.org/2000/svg" xmlns:xlink="http://www.w3.org/1999/xlink" viewBox="0 0 218.05 216.68"><defs><style>.cls-1{fill:url(#Degradado_sin_nombre_7);}</style><linearGradient id="Degradado_sin_nombre_7" x1="-30.29" y1="81.63" x2="1082.31" y2="81.63" gradientUnits="userSpaceOnUse"><stop offset="0" stop-color="#7423cd"/><stop offset="0.07" stop-color="#6c39c3"/><stop offset="0.23" stop-color="#5c66af"/><stop offset="0.38" stop-color="#4f8c9e"/><stop offset="0.54" stop-color="#44a991"/><stop offset="0.7" stop-color="#3dbd87"/><stop offset="0.85" stop-color="#38ca82"/><stop offset="1" stop-color="#37ce80"/></linearGradient></defs><path class="cls-1" d="M-30.29-89.37v342h1112.6v-342Zm235.1,215.52H66.06c3,21,20.68,35,43.36,35,15,0,24.68-5.67,33.69-17.35h56.7c-17.68,40.36-51.36,64-90.39,64a98,98,0,0,1-98.06-98.06c0-53.37,42.7-99.39,97.06-99.39,55.37,0,97.73,43.69,97.73,101.06A71.38,71.38,0,0,1,204.81,126.15Zm95.39,82.06c-41.69,0-71.38-23.69-75.38-61.38h55c1.66,11.68,10,17,21,17,9.67,0,19.35-5.67,19.35-14.34,0-10.34-6.34-15.67-34-24.35-46.69-14.34-59-32.68-59-54.36,0-36.69,34.35-60.38,71.71-60.38,40,0,68.38,22,71.05,58.37H315.55c-.34-10.67-8-14-17-14-9.34,0-16,5.33-16,12.34,0,10,9,15,34.68,21.68,44,11.67,58.37,29.35,58.37,56.37C375.58,183.86,342.23,208.21,300.2,208.21ZM496.33,58.78H469.64V201.87H414.27V58.78H386.93v-42h27.34v-61.7h55.37v61.7h26.69ZM606.4,207.54c-56.37,0-99.73-41.69-99.73-98.4,0-57.37,44.36-98.39,99.73-98.39,55.7,0,99.72,41.69,99.72,97.73C706.12,166.51,662.1,207.54,606.4,207.54ZM836.2,66.12c-33,.33-43.69,12.67-43.69,33.69V201.87H737.14V16.75h52V36.44h.67c9.67-19.69,25-26,46.36-26Zm203.13,60H900.58c3,21,20.68,35,43.36,35,15,0,24.68-5.67,33.69-17.35h56.7c-17.68,40.36-51.36,64-90.39,64a98,98,0,0,1-98.06-98.06c0-53.36,42.7-99.39,97.06-99.39,55.37,0,97.73,43.69,97.73,101.06a70.79,70.79,0,0,1-1.34,14.68Z"/></svg>