<svg id="Capa_1" data-name="Capa 1" xmlns="http://www.w3.org/2000/svg" viewBox="0 0 1112.61 342"><defs><style>.cls-1{fill:#fff;}</style></defs><path class="cls-1" d="M0,0V342H1112.61V0ZM235.1,215.52H96.35c3,21,20.68,35,43.36,35,15,0,24.68-5.68,33.69-17.35h56.7c-17.67,40.36-51.36,64-90.39,64a98,98,0,0,1-98.05-98v-.11c0-53.37,42.69-99.4,97.06-99.4,55.36,0,97.72,43.7,97.72,101.07A70.76,70.76,0,0,1,235.1,215.52Zm95.4,82.06c-41.7,0-71.38-23.69-75.38-61.38h55c1.67,11.68,10,17,21,17,9.68,0,19.35-5.67,19.35-14.34,0-10.34-6.34-15.68-34-24.35-46.69-14.34-59-32.68-59-54.36,0-36.69,34.36-60.38,71.71-60.38,40,0,68.38,22,71,58.37H345.84c-.33-10.67-8-14-17-14-9.34,0-16,5.33-16,12.34,0,10,9,15,34.69,21.68,44,11.67,58.37,29.35,58.37,56.37,0,38.7-33.38,63-75.4,63ZM526.62,148.15H499.94V291.24H444.57V148.15H417.22v-42h27.35V44.42h55.37v61.7h26.68ZM636.69,296.91c-56.37,0-99.73-41.69-99.73-98.4,0-57.37,44.36-98.39,99.73-98.39,55.7,0,99.73,41.69,99.73,97.73C736.42,255.88,692.39,296.91,636.69,296.91ZM866.5,155.49c-33,.33-43.7,12.67-43.7,33.69V291.24H767.44V106.12h52v19.69h.67c9.67-19.69,25-26,46.36-26Zm203.13,60H930.87c3,21,20.68,35,43.36,35,15,0,24.68-5.67,33.69-17.35h56.7c-17.67,40.36-51.36,64-90.39,64a98,98,0,0,1-98.05-97.95v-.11c0-53.36,42.69-99.39,97.06-99.39,55.37,0,97.73,43.69,97.73,101.06a71.56,71.56,0,0,1-1.34,14.68Z"/></svg>