<svg id="Capa_1" data-name="Capa 1" xmlns="http://www.w3.org/2000/svg" viewBox="0 0 1034 251.2"><defs><style>.cls-1,.cls-2{fill:#fff;}.cls-1{fill-rule:evenodd;}</style></defs><path class="cls-1" d="M228.79,300.07c7.17-1.91-4.68-10.78,1.8-18,5,1.63,2.9,10.3,9,10.8-2.18-8.56,5.83-13.46,9-21.59,3.42,3.37,4.52.19,9,0,7.29,7.58,2.07,11,0,21.59-14.11-1.69-32,9.38-25.19,21.59-4.77,0-10.59-1-10.79,3.59-3.74-.46-.5-7.9-3.6-9,1.4-.41,3.55-.05,3.6-1.8,1.6-.8,3.22-1.58,3.6-3.6,2-.38,2.8-2,3.59-3.6Z" transform="translate(-87 -271.29)"/><path class="cls-1" d="M155,314.47c-1.84,4-8.28-2.36-14.4,0,.23-3.23-2.2-3.8-1.8-7.2-9.74,2.85-14.59,4.49-23.39,10.79-5.36,0-6.11-4.67-10.79-5.39.18-5.82,8.15-3.84,5.4-12.6,9.12-1.32,11.13,4.46,16.19,7.2,5.66.86,7-2.56,10.8-3.6-2.94-12.16-11.82-9.78-25.19-9-4.44-7.54-7.45-8.48-5.4-19.79,9.91-2.71,9.55,4.84,18,3.6,1.29,5.31,2,11.14,5.4,14.4,8.39-1.82-.84-13.1,3.6-16.2,5.63-.84,5.07,4.53,7.19,7.2,1,6.37-6.37,4.42-5.39,10.79q5.85,6.75,16.19,9c0,1.75,2.2,1.39,3.6,1.8v9Z" transform="translate(-87 -271.29)"/><path class="cls-1" d="M423.11,276.68c1.94-3,16.05-3,18,0Z" transform="translate(-87 -271.29)"/><path class="cls-1" d="M797.34,287.48a1485.49,1485.49,0,0,1,0,163.73V287.48Z" transform="translate(-87 -271.29)"/><path class="cls-1" d="M221.6,307.27c-7.29-2.16,4.09-13.53,3.6-3.6-.38,2-2,2.8-3.6,3.6Z" transform="translate(-87 -271.29)"/><path class="cls-1" d="M250.38,300.07c3.46,2.14-3.55,11,7.2,9-1.54,6.85-7,9.74-14.39,10.79-.05-1.75-2.2-1.39-3.6-1.8V305.47c2.9-2.5,9.27-1.52,10.79-5.4Z" transform="translate(-87 -271.29)"/><path class="cls-1" d="M210.8,305.47c-1.24,7.24,1.73,10.27,1.8,16.19-6-2.17-5-10.09-1.8-16.19Z" transform="translate(-87 -271.29)"/><path class="cls-1" d="M147.83,339.66h-7.2c1.51-2.09,2.38-4.83,1.8-9-16.36,6.53-15.69,25.59-37.78,18,.06-4.28,9.22-8.58,3.6-12.59,13.55-5.21,27.92-6,43.18-12.6,1.33,6.59-4.43,10,0,14.4-2.09-.3-3.2.39-3.6,1.8Z" transform="translate(-87 -271.29)"/><path class="cls-1" d="M160.43,327.06h1.79c-1.89,1.87-3.71,12.85,0,14.39-4.69,7.45-5.29-13.65-1.79-14.39Z" transform="translate(-87 -271.29)"/><path class="cls-1" d="M227,355.85c-6.34-1.43,5.44-8.46,0-9,3.92-2,6.25,3.48,12.59-1.8-4.05-7.51,1.89-12.91,9-14.39-1.24,8.12,3,4.12,7.19,3.6,1,2.61-2.1,9.3,1.8,9-2.43,7.76-17.14,3.25-23.39,7.2-1.95.43-4.32,3-1.8,3.6-.3,2.1-2.84,1.95-5.39,1.8Z" transform="translate(-87 -271.29)"/><path class="cls-1" d="M214.4,354.05c2.19,8,16.41,4,19.79,10.79h-1.8c-1.52-1.68-11.47-3.84-12.59,0-3.4-.2-1.25-5.95-5.4-5.39-.7-2.57-2.16-3,0-5.4Z" transform="translate(-87 -271.29)"/><path class="cls-1" d="M743.37,393.63c3,1.94,3,16.05,0,18v-18Z" transform="translate(-87 -271.29)"/><path class="cls-1" d="M176.62,415.22c5.91,3.68,17.1,2.09,21.59,7.2-1.44,9.23,1.93,13.66,3.6,19.79-12.44,2.52-21.37,1.08-32.39-1.8,7.1-3.7,7.49-14.1,7.2-25.19Z" transform="translate(-87 -271.29)"/><path class="cls-1" d="M128,436.81c-4.45-3.34-13.74-1.86-18-5.4,2.07-8.49,21.58-7.1,18,5.4Z" transform="translate(-87 -271.29)"/><path class="cls-1" d="M115.44,451.21c10.86,5.66,32.08,4.34,41.39-1.8,7.09,17.14-42,20.71-41.39,1.8Z" transform="translate(-87 -271.29)"/><path class="cls-1" d="M664.21,460.2c-6.66,3-25.74,3-32.39,0Z" transform="translate(-87 -271.29)"/><path class="cls-1" d="M1002.46,460.2c-2.52,3-17.28,3-19.8,0Z" transform="translate(-87 -271.29)"/><path class="cls-1" d="M218,309.07c-6.26-6.45,4.79-14.81,10.79-9-.79,1.6-1.58,3.22-3.59,3.6.49-9.93-10.89,1.44-3.6,3.6,0,1.75-2.2,1.39-3.6,1.8Z" transform="translate(-87 -271.29)"/><path class="cls-1" d="M147.83,339.66c.4-1.41,1.51-2.1,3.6-1.8,1.74,7.24,12.38,9,19.79,5.39-1.64,3.16-6.3,3.29-9,5.4-7.92.13-7.16-8.43-14.39-9Z" transform="translate(-87 -271.29)"/><path class="cls-1" d="M151.43,303.67h1.8c-.44-3.17-3.1-4.1-7.2-3.6,6-6.47,14.85,9,9,14.4v-9c-1.4-.41-3.55-.05-3.6-1.8Z" transform="translate(-87 -271.29)"/><path class="cls-1" d="M138.83,377.44c.66-5.05,11.3,3.9,7.2,3.6-3.87,1.52-6.36,4.43-5.4,10.79-1.95-.44-1.22-3.58-3.59-3.6-.31-4.07,8.65-7.91,3.59-10.79Z" transform="translate(-87 -271.29)"/><path class="cls-1" d="M151.43,384.63c-.05,1.76-2.2,1.4-3.6,1.81-1.49,5.08,2.54,4.66,1.8,9-5.59,4.72-14.71-5.22-12.59,7.2-4.14-1.42-1.75-11.14,3.59-9,2.66,2.09,4.54,2.09,7.2,0-.41-2.79-6.92-8.39-1.8-10.79-.32,6.89,1.47.65,5.4,1.79Z" transform="translate(-87 -271.29)"/><path class="cls-1" d="M153.23,384.63c1.8,0,2.14,1.46,3.6,1.81,4.84,5.14,5.82,12.38-1.8,16.19,1-.51,6.48-12.78-1.8-18Z" transform="translate(-87 -271.29)"/><path class="cls-1" d="M164,384.63c4.76,23.35-14.34,22.85-21.59,34.19,4.2-.6,7.75-1.85,9-5.4,2.67,1.54,3.87,4.53,3.6,9-4.47,2.31-15.3,7-16.2-1.8,3.27,4.81,11.82,3.52,14.4-1.8-2.91-5.49-8.66,6-12.6,0,3.79-12.62,29.28-12.41,19.8-32.38,1.8,0,2.13-1.46,3.59-1.81Z" transform="translate(-87 -271.29)"/><path class="cls-1" d="M110.05,431.41c4.25,3.54,13.54,2.06,18,5.4,3.59-12.5-15.92-13.89-18-5.4Zm46.78,18c-9.31,6.14-30.53,7.46-41.39,1.8-.6,18.91,48.48,15.34,41.39-1.8ZM119,436.81H108.25V426c5.43-2.43,14.36-2.43,19.79,0,1.57,4.45,3.51,14,0,18-2.43-1.22,1.57-5.48-3.6-7.2-3.61,3-8.36,4.83-9,10.8.75,4,9.87,1.73,9-1.8,2.52.63.16,3.17-1.8,3.6,6.18,3.7,22.31,2,28.79,0-2.08-10,2.61-20.35,10.79-14.4-16.86,15.89,39.16,29.59,50.38,12.6,1.28,17.14,39,23.37,46.78,7.19-7.19-3.53-29.33,4.89-34.18-5.39,5.91,3.68,18.22,1,27,1.8,5.24-2.49-10.65-8.31-5.4-10.8,3.58-3.38,5.5,9.59,14.39,10.8.21,22.86-43.66,19.21-46.78,1.79-15.3,6-34.81,5.76-50.38,0-7.63,23.27-71,13.31-45-16.19Z" transform="translate(-87 -271.29)"/><path class="cls-1" d="M198.21,386.44v-3.6c5.6,0,11.72-4.26,16.19,0-1.34,4.05-10.09.7-14.39,1.79,7.11,9.18,22.46-.43,32.38,0-3.11,6.08-24.86,3.72-36,7.2-1-2.59,7-4.39,1.8-5.39Z" transform="translate(-87 -271.29)"/><path class="cls-1" d="M234.19,364.84a8.48,8.48,0,0,0,5.4,1.8,8.48,8.48,0,0,0-1.8,5.4c-5.58.18-8.6-2.2-12.59-3.6,2.52-5.24,6.2,3.19,10.79,1.8,1-4-3.43-2.56-3.6-5.4Z" transform="translate(-87 -271.29)"/><path class="cls-1" d="M234.19,350.45c-6.4,6.24,6.6,1,7.2,5.4-1.81,0-2.14,1.46-3.6,1.8.85-4.07-9.76,4.14-10.79-1.8,2.55.15,5.09.3,5.39-1.8-2.52-.64-.15-3.17,1.8-3.6Z" transform="translate(-87 -271.29)"/><path class="cls-1" d="M203.6,357.65c.76-4,9.55,0,10.8-3.6-2.16,2.36-.7,2.83,0,5.4-8.62-4.72-6.26,1.32-1.8,5.39-4.18-1.22-4.81-6-9-7.19Z" transform="translate(-87 -271.29)"/><path class="cls-1" d="M214.4,330.66c5.32,3.15-1,9.58,0,14.39,7.39-.41,6.82-8.77,7.2-16.19,6.59,5.8-.24,12.48-3.6,18-7.3.71-12.54-.66-12.59-7.19,2-.45,1.22-3.58,3.59-3.6,1.68-1.92,6.64-.56,5.4-5.4Z" transform="translate(-87 -271.29)"/><path class="cls-1" d="M196.41,366.64c4.59-.2,9.26-.33,9-5.4-5.66-.85-7.36,2.25-9,5.4Zm-36-39.58c7.2-20.87-5.79-35.13,0-50.38,5.49,4.71,5.63,5.42,12.59,1.8C177,292,157.48,303,169.42,319.86a25.42,25.42,0,0,0,9-9c-.58-4.23-2.85-6.76-1.8-12.6,8.4-5.43,11.25-7.54,18-7.19,4,.74-.27,9.86,5.4,9-4.18,3-5.76,8.64-9,12.6-10.64-2.25-12.86,3.93-18,7.19,1.67,4.92,5.52,7.68,7.19,12.6,28.74-3.14,32.21-38.52,21.6-57.58,4.14,4.33,5.8,2.75,12.59,1.8,4,10.57-6.12,18.84-3.6,28.79-3.24,6.1-4.21,14,1.8,16.19-.57,4.17.29,6.91,1.8,9,1.24,4.84-3.72,3.48-5.4,5.4a8.42,8.42,0,0,0,1.8-5.4c-16.06,0-17.83,17.32-12.59,28.79,2.9.5,3.1-1.7,5.39-1.8,4.19,1.21,4.82,6,9,7.19a21.63,21.63,0,0,0,12.6,12.6c-4.77,8.58-18.89-10.11-27,1.8-6.11-4.69-11.48-10.12-19.79-12.6-3.36-3.2,1.46-4.57,0-10.79-3.56,3.37-5.7,9.43-3.6,14.39,2.57,10.63,12.5,13.88,23.39,16.2,5.21,1-2.76,2.8-1.8,5.39-3.34,3.87-1.21,13.18-1.8,19.79-6.35-2-14.81-2-21.59-3.6,6.29-7.84,3.43-20.71-5.4-23.39H164c-1.46.35-1.79,1.81-3.59,1.81-.45-2.27-3.58-1.82-3.6,0-1.46-.35-1.8-1.81-3.6-1.81h-1.8c-3.93-1.14-5.72,5.1-5.4-1.79V381c4.1.3-6.54-8.65-7.2-3.6-3.22-.23-3.79,2.2-7.19,1.8-5.42-1.78-4.93-9.47-12.6-9,1.62-5.27,1.62-5.53,0-10.79,3.19-.41,9,1.81,7.2-3.6,1,6.58,10.75,4.36,12.59,5.39,0,1.76,2.21,1.4,3.6,1.81-2.49,13.79,7,17.22,16.2,14.39.5-4.71-.66-7.74-5.4-7.2,1.76-7.75-6.76-5.23-7.2-10.79,7.77-1.18,10.09,3.1,14.4,5.39,2.1-.29,1.51-3.28,1.79-5.39,4.23.57,4,5.56,7.2,7.19,11.83-10.9,11.16-36.18-7.2-39.58Z" transform="translate(-87 -271.29)"/><path class="cls-1" d="M838.72,451.21c-.77,5,6.71,1.69,7.2,5.39-11.53,8.26-38.27,1.31-55.77,3.6-2.84-8.24,7.46-3.33,7.19-9a1485.49,1485.49,0,0,0,0-163.73c-.43-3.17-3.09-4.1-7.19-3.6.22-.27-.28-1.61,0-1.8,10.82-7.26,38.68-2,55.77-3.6,2.84,8.24-7.47,3.33-7.2,9a1495.41,1495.41,0,0,0,0,163.73Z" transform="translate(-87 -271.29)"/><path class="cls-1" d="M241.39,355.85c5.58.18,10-.82,12.59-3.6,7.64,2.56,11.76,8.63,14.4,16.19-7.34,8.57-23.73,3.26-25.19-9-2.55-.16-5.09-.3-5.4,1.79-2.61-.79.18-1.57,0-3.59,1.46-.34,1.79-1.81,3.6-1.8Z" transform="translate(-87 -271.29)"/><path class="cls-1" d="M146,359.45c.44,5.56,9,3,7.2,10.79V372c-4.48.28-5.57-2.83-9-3.6.45-1.95,3.58-1.22,3.6-3.6-.29-2.1-3.28-1.51-5.4-1.79-1.39-.41-3.55-.05-3.6-1.81,3.77.77,4.77-1.23,7.2-1.79Z" transform="translate(-87 -271.29)"/><path class="cls-1" d="M140.63,391.83c-1-6.36,1.53-9.27,5.4-10.79v1.8c-5.12,2.4,1.39,8,1.8,10.79-2.66,2.09-4.54,2.09-7.2,0v-1.8Z" transform="translate(-87 -271.29)"/><path class="cls-1" d="M137,402.63c-1.62,3.78-2.8,8-5.4,10.79-5.93-.07-9-3-16.2-1.8,2.15-7.66,7.23-10.7,7.2-16.19h10.8c4.88,1.29-1.29-8.48,3.6-7.2,2.37,0,1.64,3.16,3.59,3.6v1.8c-5.34-2.14-7.73,7.58-3.59,9Z" transform="translate(-87 -271.29)"/><path class="cls-1" d="M227,395.43c8.45-8.59,19.6-7.59,21.59,7.2-6.4-.8-7.11-7.29-10.8-10.8-3.57,6.58,7.29,19.95-3.6,25.19-4.48-3.31-4-11.55-14.39-9a16.11,16.11,0,0,1,7.2-7.19c2.66-.94,4.53-2.66,7.19-3.6-1.18-5.39-3.84,1.72-7.19,0v-1.8Z" transform="translate(-87 -271.29)"/><path class="cls-1" d="M149.63,404.43c5.11-1.43-10.23,4.45-10.8,9-4.71,6.95,2.7-11.74,10.8-9Z" transform="translate(-87 -271.29)"/><path class="cls-1" d="M218,442.21c-2.52-.63-.16-3.17,1.8-3.6-1.52-5.27-5.79,1.08-9,0-.5-5.77,7.88-6.54,10.8-3.6,2.06,5.66-2.83,4.38-3.6,7.2Z" transform="translate(-87 -271.29)"/><path class="cls-1" d="M205.41,361.24c.26,5.07-4.41,5.2-9,5.4,1.64-3.15,3.34-6.25,9-5.4Z" transform="translate(-87 -271.29)"/><path class="cls-1" d="M153.23,370.24c4.74-.54,5.9,2.49,5.4,7.2-9.2,2.83-18.69-.6-16.2-14.39,2.12.28,5.11-.31,5.4,1.79,0,2.38-3.15,1.65-3.6,3.6,3.43.77,4.52,3.88,9,3.6v-1.8Z" transform="translate(-87 -271.29)"/><path class="cls-1" d="M227,395.43v1.8c3.35,1.72,6-5.39,7.19,0-2.66.94-4.53,2.66-7.19,3.6-1.64-3.16-6.31-3.29-9-5.4,2.25-4.35,7.37-5.82,12.59-7.2-1.24,3.56-4.8,4.8-9,5.4,1,3.74,2.8,3.81,5.4,1.8Z" transform="translate(-87 -271.29)"/><path class="cls-1" d="M266.58,426v10.79h-16.2c2.63-4,11.77-1.43,14.4-5.4.53-6.42-18.22-4.85-18,0-5.34-6.88,14-9.08,19.79-5.39Z" transform="translate(-87 -271.29)"/><path class="cls-1" d="M838.72,287.48V451.21a1495.41,1495.41,0,0,1,0-163.73Z" transform="translate(-87 -271.29)"/><path class="cls-1" d="M635.42,431.41H667.8c-6.65,3-25.73,3-32.38,0Z" transform="translate(-87 -271.29)"/><path class="cls-1" d="M441.1,276.68c31.18-1,52.94,16.35,79.17,14.4-.81,14.37-17.7,27.73-23.39,43.18C469.18,289,367.07,299,358.34,355.85c-11.47,74.65,83.77,94.3,138.54,55.77,3.08-2.91,4.47-7.52,3.59-14.39,12.45,7.34,15.71,23.88,25.2,34.18-62.79,47.41-198.22,37.94-205.12-54-4-52.82,33.53-96.88,102.56-100.76Z" transform="translate(-87 -271.29)"/><path class="cls-1" d="M667.8,431.41c14.86-1,39.56-6.8,37.79-25.18C703,379,620,389.91,594,379.24c-22.53-9.29-42.91-43.74-19.79-75.57,27.78-38.23,105.68-31.3,147.54-10.79h19.79c-5.14,16.44-15.82,27.35-21.59,43.18-12.12-15.88-27.5-27.84-59.38-30.59-23.86-2.06-57.11,2.8-57.57,21.59-.81,32.89,77.36,16.5,111.55,30.59,16,6.58,26.37,19.79,28.79,36v18c-6.7,35.79-44.15,46.65-79.16,48.58H631.82c-28.41,1.09-49.25-17.29-68.37-14.39,5-14.75,12.22-27.36,18-41.38,9.74,17.25,29.84,24.14,54,27,6.65,3,25.73,3,32.38,0Z" transform="translate(-87 -271.29)"/><path class="cls-1" d="M982.66,460.2C934.93,454.76,901,436.71,889.1,399c-18.32-58.25,18.59-99.79,54-113.35,51.45-19.72,102.11-1,143.94,7.2-10.21,13.18-16.66,30.12-28.79,41.38-16.83-36.52-87-36.17-115.15-12.6-31.1,26-28.31,77.35,7.2,99,28.88,17.58,107.92,13.55,116.94-23.39,9.13,10.06,14,24.36,23.39,34.18v1.8c-29.8,9-53.78,27.93-88.15,27Z" transform="translate(-87 -271.29)"/><path class="cls-2" d="M110.2,521a19.72,19.72,0,0,1-8.08,1.45C93.49,522.44,87,517,87,507c0-9.58,6.49-16.08,16-16.08a16.32,16.32,0,0,1,7.27,1.37l-1,3.22a14.29,14.29,0,0,0-6.17-1.27c-7.17,0-11.94,4.58-11.94,12.62,0,7.49,4.31,12.3,11.76,12.3a15.88,15.88,0,0,0,6.45-1.27Z" transform="translate(-87 -271.29)"/><path class="cls-2" d="M140.39,506.37c0,10.53-6.4,16.11-14.21,16.11-8.08,0-13.76-6.26-13.76-15.52,0-9.72,6-16.08,14.21-16.08C135,490.88,140.39,497.29,140.39,506.37Zm-23.75.5c0,6.53,3.55,12.39,9.76,12.39s9.81-5.77,9.81-12.71c0-6.09-3.18-12.44-9.76-12.44S116.64,500.15,116.64,506.87Z" transform="translate(-87 -271.29)"/><path class="cls-2" d="M145.56,522v-30.6h4.31l9.81,15.49a87.31,87.31,0,0,1,5.49,9.94l.09,0c-.36-4.08-.46-7.81-.46-12.57V491.38h3.73V522h-4l-9.71-15.52a97.13,97.13,0,0,1-5.72-10.22l-.14.05c.23,3.86.32,7.53.32,12.62V522Z" transform="translate(-87 -271.29)"/><path class="cls-2" d="M174.91,517.17a14,14,0,0,0,7.09,2c4,0,6.4-2.13,6.4-5.22,0-2.86-1.64-4.5-5.77-6.09-5-1.77-8.08-4.35-8.08-8.67,0-4.77,3.95-8.31,9.9-8.31a14,14,0,0,1,6.77,1.5l-1.09,3.23a12.12,12.12,0,0,0-5.82-1.46c-4.18,0-5.76,2.5-5.76,4.59,0,2.86,1.86,4.27,6.08,5.9,5.17,2,7.81,4.49,7.81,9,0,4.72-3.5,8.81-10.72,8.81a15.76,15.76,0,0,1-7.8-2Z" transform="translate(-87 -271.29)"/><path class="cls-2" d="M213.72,507.64h-11.9v11h13.25V522h-17.2v-30.6H214.4v3.32H201.82v9.67h11.9Z" transform="translate(-87 -271.29)"/><path class="cls-2" d="M227.31,491.38h3.95v20.48c0,8.13-4,10.62-9.26,10.62a12.78,12.78,0,0,1-4.23-.72l.6-3.23a9.34,9.34,0,0,0,3.31.59c3.54,0,5.63-1.58,5.63-7.58Z" transform="translate(-87 -271.29)"/><path class="cls-2" d="M264,506.37c0,10.53-6.41,16.11-14.22,16.11-8.08,0-13.75-6.26-13.75-15.52,0-9.72,6-16.08,14.2-16.08C258.61,490.88,264,497.29,264,506.37Zm-23.75.5c0,6.53,3.54,12.39,9.76,12.39s9.81-5.77,9.81-12.71c0-6.09-3.18-12.44-9.77-12.44S240.27,500.15,240.27,506.87Z" transform="translate(-87 -271.29)"/><path class="cls-2" d="M278.27,517.17a14,14,0,0,0,7.08,2c4,0,6.4-2.13,6.4-5.22,0-2.86-1.63-4.5-5.76-6.09-5-1.77-8.08-4.35-8.08-8.67,0-4.77,3.95-8.31,9.9-8.31a13.93,13.93,0,0,1,6.76,1.5l-1.09,3.23a12.11,12.11,0,0,0-5.81-1.46c-4.18,0-5.77,2.5-5.77,4.59,0,2.86,1.87,4.27,6.09,5.9,5.17,2,7.8,4.49,7.8,9,0,4.72-3.49,8.81-10.71,8.81a15.83,15.83,0,0,1-7.81-2Z" transform="translate(-87 -271.29)"/><path class="cls-2" d="M305.18,491.38V509.5c0,6.85,3,9.76,7.12,9.76,4.54,0,7.45-3,7.45-9.76V491.38h4v17.85c0,9.39-4.95,13.25-11.58,13.25-6.27,0-11-3.58-11-13.07v-18Z" transform="translate(-87 -271.29)"/><path class="cls-2" d="M330.63,491.75a45.36,45.36,0,0,1,7.58-.6c3.9,0,6.77.91,8.58,2.55a8.23,8.23,0,0,1,2.68,6.4,9,9,0,0,1-2.36,6.54c-2.09,2.22-5.49,3.36-9.35,3.36a14,14,0,0,1-3.18-.27V522h-3.95Zm3.95,14.75a13.17,13.17,0,0,0,3.27.32c4.77,0,7.67-2.32,7.67-6.54,0-4-2.86-6-7.22-6a16.8,16.8,0,0,0-3.72.31Z" transform="translate(-87 -271.29)"/><path class="cls-2" d="M370.66,507.64h-11.9v11H372V522H354.81v-30.6h16.53v3.32H358.76v9.67h11.9Z" transform="translate(-87 -271.29)"/><path class="cls-2" d="M377.18,491.79a41,41,0,0,1,7.58-.64c4.22,0,6.95.78,8.86,2.5a7.63,7.63,0,0,1,2.4,5.82,8.05,8.05,0,0,1-5.77,7.81v.13c2.37.82,3.77,3,4.5,6.18,1,4.26,1.72,7.22,2.36,8.39H393c-.5-.86-1.18-3.49-2-7.3-.91-4.23-2.54-5.82-6.13-5.95h-3.72V522h-3.95Zm3.95,13.94h4c4.22,0,6.9-2.31,6.9-5.81,0-3.95-2.86-5.68-7-5.72a16.35,16.35,0,0,0-3.9.36Z" transform="translate(-87 -271.29)"/><path class="cls-2" d="M405.58,491.38V522h-3.95v-30.6Z" transform="translate(-87 -271.29)"/><path class="cls-2" d="M438.65,506.37c0,10.53-6.41,16.11-14.22,16.11-8.08,0-13.75-6.26-13.75-15.52,0-9.72,6-16.08,14.2-16.08C433.24,490.88,438.65,497.29,438.65,506.37Zm-23.75.5c0,6.53,3.54,12.39,9.76,12.39s9.81-5.77,9.81-12.71c0-6.09-3.18-12.44-9.77-12.44S414.9,500.15,414.9,506.87Z" transform="translate(-87 -271.29)"/><path class="cls-2" d="M443.81,491.79a41,41,0,0,1,7.58-.64c4.23,0,6.95.78,8.86,2.5a7.63,7.63,0,0,1,2.4,5.82,8,8,0,0,1-5.76,7.81v.13c2.36.82,3.77,3,4.49,6.18,1,4.26,1.73,7.22,2.36,8.39h-4.08c-.5-.86-1.18-3.49-2-7.3-.91-4.23-2.55-5.82-6.14-5.95h-3.72V522h-3.95Zm3.95,13.94h4c4.22,0,6.9-2.31,6.9-5.81,0-3.95-2.86-5.68-7-5.72a16.46,16.46,0,0,0-3.91.36Z" transform="translate(-87 -271.29)"/><path class="cls-2" d="M477.91,491.79a56.8,56.8,0,0,1,8.39-.64c5.68,0,9.72,1.32,12.4,3.82s4.31,6,4.31,11-1.54,9.08-4.4,11.89-7.59,4.41-13.53,4.41a62.65,62.65,0,0,1-7.17-.37Zm3.94,27.06a25.11,25.11,0,0,0,4,.23c8.44,0,13-4.72,13-13,0-7.22-4-11.8-12.4-11.8a22.27,22.27,0,0,0-4.63.41Z" transform="translate(-87 -271.29)"/><path class="cls-2" d="M524,507.64h-11.9v11h13.26V522h-17.2v-30.6H524.7v3.32H512.12v9.67H524Z" transform="translate(-87 -271.29)"/><path class="cls-2" d="M544.12,491.38V522h-4v-30.6Z" transform="translate(-87 -271.29)"/><path class="cls-2" d="M551,522v-30.6h4.31l9.8,15.49a87.49,87.49,0,0,1,5.5,9.94l.09,0c-.36-4.08-.46-7.81-.46-12.57V491.38H574V522h-4l-9.72-15.52a99,99,0,0,1-5.72-10.22l-.13.05c.22,3.86.31,7.53.31,12.62V522Z" transform="translate(-87 -271.29)"/><path class="cls-2" d="M587.66,522l-10-30.6h4.27l4.77,15.08c1.32,4.13,2.45,7.85,3.27,11.44h.09c.86-3.54,2.13-7.4,3.5-11.4l5.17-15.12H603L592,522Z" transform="translate(-87 -271.29)"/><path class="cls-2" d="M622.15,507.64h-11.9v11h13.26V522h-17.2v-30.6h16.52v3.32H610.25v9.67h11.9Z" transform="translate(-87 -271.29)"/><path class="cls-2" d="M628.12,517.17a14,14,0,0,0,7.08,2c4,0,6.41-2.13,6.41-5.22,0-2.86-1.64-4.5-5.77-6.09-5-1.77-8.08-4.35-8.08-8.67,0-4.77,4-8.31,9.9-8.31a13.9,13.9,0,0,1,6.76,1.5l-1.09,3.23a12.07,12.07,0,0,0-5.81-1.46c-4.18,0-5.76,2.5-5.76,4.59,0,2.86,1.86,4.27,6.08,5.9,5.17,2,7.81,4.49,7.81,9,0,4.72-3.5,8.81-10.72,8.81a15.83,15.83,0,0,1-7.81-2Z" transform="translate(-87 -271.29)"/><path class="cls-2" d="M656.89,494.74h-9.31v-3.36h22.65v3.36h-9.34V522h-4Z" transform="translate(-87 -271.29)"/><path class="cls-2" d="M677.62,491.38V522h-4v-30.6Z" transform="translate(-87 -271.29)"/><path class="cls-2" d="M707.82,520.62a28.41,28.41,0,0,1-9.4,1.68c-4.63,0-8.44-1.18-11.44-4-2.64-2.54-4.27-6.63-4.27-11.39,0-9.13,6.31-15.81,16.58-15.81a19.12,19.12,0,0,1,7.63,1.41l-1,3.23a15.79,15.79,0,0,0-6.76-1.32c-7.45,0-12.31,4.63-12.31,12.3S691.57,519,698.69,519a13,13,0,0,0,5.27-.81v-9.13h-6.22v-3.18h10.08Z" transform="translate(-87 -271.29)"/><path class="cls-2" d="M718.84,512.36,715.66,522h-4.09l10.4-30.6h4.77L737.19,522H733l-3.27-9.62Zm10-3.09-3-8.81c-.69-2-1.14-3.81-1.59-5.58h-.09c-.45,1.82-1,3.68-1.54,5.54l-3,8.85Z" transform="translate(-87 -271.29)"/><path class="cls-2" d="M762.42,521a19.77,19.77,0,0,1-8.09,1.45c-8.63,0-15.11-5.45-15.11-15.48,0-9.58,6.48-16.08,16-16.08a16.29,16.29,0,0,1,7.27,1.37l-1,3.22a14.38,14.38,0,0,0-6.18-1.27c-7.17,0-11.94,4.58-11.94,12.62,0,7.49,4.31,12.3,11.76,12.3a15.85,15.85,0,0,0,6.45-1.27Z" transform="translate(-87 -271.29)"/><path class="cls-2" d="M771.35,491.38V522h-4v-30.6Z" transform="translate(-87 -271.29)"/><path class="cls-2" d="M804.41,506.37c0,10.53-6.4,16.11-14.21,16.11-8.08,0-13.76-6.26-13.76-15.52,0-9.72,6-16.08,14.21-16.08C799,490.88,804.41,497.29,804.41,506.37Zm-23.75.5c0,6.53,3.55,12.39,9.77,12.39s9.8-5.77,9.8-12.71c0-6.09-3.17-12.44-9.76-12.44S780.66,500.15,780.66,506.87Z" transform="translate(-87 -271.29)"/><path class="cls-2" d="M809.57,522v-30.6h4.32l9.8,15.49a87.49,87.49,0,0,1,5.5,9.94l.09,0c-.36-4.08-.46-7.81-.46-12.57V491.38h3.72V522h-4l-9.72-15.52a99,99,0,0,1-5.72-10.22l-.13.05c.22,3.86.31,7.53.31,12.62V522Z" transform="translate(-87 -271.29)"/><path class="cls-2" d="M855.33,507.64h-11.9v11h13.26V522H839.48v-30.6H856v3.32H843.43v9.67h11.9Z" transform="translate(-87 -271.29)"/><path class="cls-2" d="M861.3,517.17a14,14,0,0,0,7.08,2c4,0,6.41-2.13,6.41-5.22,0-2.86-1.64-4.5-5.77-6.09-5-1.77-8.08-4.35-8.08-8.67,0-4.77,3.95-8.31,9.9-8.31a13.9,13.9,0,0,1,6.76,1.5l-1.09,3.23a12.11,12.11,0,0,0-5.81-1.46c-4.18,0-5.77,2.5-5.77,4.59,0,2.86,1.87,4.27,6.09,5.9,5.17,2,7.81,4.49,7.81,9,0,4.72-3.5,8.81-10.72,8.81a15.83,15.83,0,0,1-7.81-2Z" transform="translate(-87 -271.29)"/><path class="cls-2" d="M915.28,521a19.81,19.81,0,0,1-8.09,1.45c-8.63,0-15.12-5.45-15.12-15.48,0-9.58,6.49-16.08,16-16.08a16.29,16.29,0,0,1,7.27,1.37l-1,3.22a14.38,14.38,0,0,0-6.18-1.27c-7.17,0-11.94,4.58-11.94,12.62,0,7.49,4.31,12.3,11.76,12.3a15.85,15.85,0,0,0,6.45-1.27Z" transform="translate(-87 -271.29)"/><path class="cls-2" d="M924.21,491.38V522h-4v-30.6Z" transform="translate(-87 -271.29)"/><path class="cls-2" d="M947,507.64H935.07v11h13.25V522h-17.2v-30.6h16.53v3.32H935.07v9.67H947Z" transform="translate(-87 -271.29)"/><path class="cls-2" d="M953.48,522v-30.6h4.31l9.8,15.49a87.49,87.49,0,0,1,5.5,9.94l.09,0c-.36-4.08-.46-7.81-.46-12.57V491.38h3.73V522h-4l-9.71-15.52A97.27,97.27,0,0,1,957,496.24l-.13.05c.22,3.86.31,7.53.31,12.62V522Z" transform="translate(-87 -271.29)"/><path class="cls-2" d="M989.2,494.74h-9.31v-3.36h22.65v3.36h-9.35V522h-4Z" transform="translate(-87 -271.29)"/><path class="cls-2" d="M1014.6,484.43l-5.81,5.32h-3.23l4.18-5.32Zm-4.67,6.95V522H1006v-30.6Z" transform="translate(-87 -271.29)"/><path class="cls-2" d="M1016.84,491.38h16.48v3.32h-12.53v10.17h11.58v3.27h-11.58V522h-3.95Z" transform="translate(-87 -271.29)"/><path class="cls-2" d="M1042.93,491.38V522h-4v-30.6Z" transform="translate(-87 -271.29)"/><path class="cls-2" d="M1071.23,521a19.81,19.81,0,0,1-8.09,1.45c-8.63,0-15.12-5.45-15.12-15.48,0-9.58,6.49-16.08,16-16.08a16.29,16.29,0,0,1,7.27,1.37l-1,3.22a14.38,14.38,0,0,0-6.18-1.27c-7.17,0-11.94,4.58-11.94,12.62,0,7.49,4.31,12.3,11.76,12.3a15.85,15.85,0,0,0,6.45-1.27Z" transform="translate(-87 -271.29)"/><path class="cls-2" d="M1081.15,512.36,1078,522h-4.09l10.4-30.6h4.77l10.44,30.6h-4.22l-3.27-9.62Zm10-3.09-3-8.81c-.68-2-1.13-3.81-1.59-5.58h-.09c-.45,1.82-1,3.68-1.54,5.54l-3,8.85Z" transform="translate(-87 -271.29)"/><path class="cls-2" d="M1103.47,517.17a14.06,14.06,0,0,0,7.09,2c4,0,6.4-2.13,6.4-5.22,0-2.86-1.64-4.5-5.77-6.09-5-1.77-8.08-4.35-8.08-8.67,0-4.77,4-8.31,9.9-8.31a14,14,0,0,1,6.77,1.5l-1.09,3.23a12.11,12.11,0,0,0-5.81-1.46c-4.19,0-5.77,2.5-5.77,4.59,0,2.86,1.86,4.27,6.08,5.9,5.17,2,7.81,4.49,7.81,9,0,4.72-3.5,8.81-10.72,8.81a15.76,15.76,0,0,1-7.8-2Z" transform="translate(-87 -271.29)"/></svg>