<svg id="Capa_1" data-name="Capa 1" xmlns="http://www.w3.org/2000/svg" viewBox="0 0 85.6 36.2"><defs><style>.cls-1{fill:#fff;}</style></defs><g id="Capa_1-2" data-name="Capa 1"><path class="cls-1" d="M60,28.6l-.1-.1c-.1.1-.1.2-.2.3a1.16,1.16,0,0,0,0,1,2.19,2.19,0,0,1,.3-.5c.1-.1.3-.2.4-.4A1.38,1.38,0,0,0,60,28.6Z" transform="translate(-27.3 -1)"/><path class="cls-1" d="M60.2,23.5l-.1-.1c-.1-.1-.2-.2-.3-.2h-.6v-.3h-.1v3.5h.1V24.5h.5c.1,0,.1,0,.2-.1s.2-.1.3-.1.2-.2.3-.3C60.3,23.7,60.3,23.6,60.2,23.5Z" transform="translate(-27.3 -1)"/><path class="cls-1" d="M58.3,13.6Z" transform="translate(-27.3 -1)"/><path class="cls-1" d="M58.1,22.5h0v0Zm.4.1h0V26h.1Z" transform="translate(-27.3 -1)"/><path class="cls-1" d="M57.7,13.5Z" transform="translate(-27.3 -1)"/><path class="cls-1" d="M57,20.9v0Z" transform="translate(-27.3 -1)"/><path class="cls-1" d="M56.6,13.6Z" transform="translate(-27.3 -1)"/><path class="cls-1" d="M57,13.8Zm-1.1,0h0c0,.1.1.1,0,0,.1.1.1.1.2.1h.1v-.3a.1.1,0,0,1,.1.1v.1h.2v-.3h-.2v-.1c-.1,0-.1,0-.1-.1l.1-.1v-.1h.2l-.1-.1h.1v-.1a.1.1,0,1,0-.1-.1h-.5a3618779359382.39,3618779359382.39,0,0,0-.2.2l.1.1-.1.1v.1a.1.1,0,0,1,.1.1v.1l.1-.1H56v.1h.2l-.3.3c.1-.1.1,0,.1,0Zm.7.1Zm-.3-1.2h0c-.1,0,0,.1,0,0Zm.2.5h0a.31.31,0,0,1,.1.2l.1-.1h.1v.1h0v.1h-.2a.1.1,0,0,0,.1.1h.2l.1-.1v-.1a.1.1,0,0,1,.2,0v.1a.1.1,0,0,0,.1.1h.2v-.2h-.2v-.1a.1.1,0,0,1-.1-.1.1.1,0,0,0,.1-.1V13h.2c0-.1-.1-.1-.1-.2l-.1-.1v-.2h-.6l.1.1Zm-.2-.4Zm0,1.2h0c-.1,0-.1-.1,0,0Zm1.1-1.1h0c.1.1.1,0,.1,0v-.1l-.1.1Zm-.1-.2h0V13l.1.1-.1-.1v-.6h.2V13l-.1.1.1-.1v-.6h-.2v.3Zm.1.4h0c.1-.1.1,0,.1,0s0-.1-.1,0Zm0,.7Zm.1-1.3h0c-.1-.1-.1,0,0,0Zm-.1.3c.1,0,.1-.1,0,0Zm.9.2h-.6v.2l-.1.1-.1.1c0,.1,0,.2-.1.2h.2a.1.1,0,0,1,.1.1l-.1.1v.1h-.2V14l.1.1h.1l.1-.1v-.2s.1,0,0,.1V14a.1.1,0,0,0,.1.1h.1A.1.1,0,0,0,58,14v-.1h-.2v-.1h-.1l-.1-.1h.2v-.1a.1.1,0,0,1,.1.1V13Zm-.9-.4h0c.1,0,.1-.1,0,0Zm0-.3Zm.5,1.5Zm.4.1Zm1.1-.6h0a.31.31,0,0,0,.1-.2V13C59.5,13.1,59.4,13.2,59.4,13.3Zm.1-.4h0c0-.1-.1-.1,0,0Zm0,.5h0c-.1.1,0,.1,0,0Zm-.8.6h0c-.1-.1-.1,0,0,0Zm.8-1Zm-.1-.3Zm.1.4h0c.1,0,.1-.1,0,0Zm0,.2h0c0,.1.1.1,0,0Zm.1-.1Zm-1-.6H59l.1.1a.35.35,0,0,1,.1.2.37.37,0,0,1-.1.3l.1.1-.1-.1a.1.1,0,0,1,.1-.1v-.3a.1.1,0,0,0-.1-.1l-.1-.1h-.4Zm.2,1.5h0l-.1-.1h0C58.7,14.1,58.7,14.1,58.8,14.1Zm.2-.5h.2v-.1l.1-.1v-.1l-.1-.1.1-.1a3980657295328.24,3980657295328.24,0,0,0-.2-.2h-.4a.1.1,0,0,1-.1-.1.1.1,0,0,1,.1.1.1.1,0,0,1-.1.1v.1h.1a.1.1,0,0,1-.1.1h.2v.1a.1.1,0,0,1,.1.1h-.1v.1h-.1v.2h.1v-.1a.1.1,0,0,1,.1-.1v.2a.1.1,0,0,0,.1.1h.1a.1.1,0,0,0,.1-.1h-.1l-.1-.1Zm-.2-1.1h0c-.1-.1-.1,0,0,0Zm-.1,1.6h-2l-.1.1h2l-.1-.1Zm-2.3.1Zm.5-.1Zm.2,0Zm.5,0h0Zm.2,0Zm.4,0Zm.2.1h0c0-.1.1-.1,0,0Zm.8-1.6h0c-.1-.1-.1,0,0,0Zm.1.1Zm-.4-.2Zm.1.1h0c.1-.1,0-.1,0,0Zm-3.7.4Zm1.3-.6Zm-.4.1h0c.1,0,.1-.1,0,0Zm-.1,0Zm-.1,0Zm-.2.1c.1,0,.1-.1,0,0Zm.6-.1Zm0,.3v.3l.1-.1a.1.1,0,0,1-.1-.1v-.1h0a.1.1,0,0,1,.1-.1v-.1l.1-.1a.1.1,0,0,0,.1-.1h.2c.1,0,.1,0,.1.1a.1.1,0,0,1-.1-.1h-.3a.1.1,0,0,0-.1.1l-.1.1v.2Zm.1-.4Zm-.8.2Zm.6.4Zm0-.4Zm-1,.5Zm0,.1Zm0,.1Zm.1.1ZM59,16.1h.2l.1-.1v-.1h.3V14.6H55.4v1.3h.3V16a.1.1,0,0,0,.1.1h.3l.1.1v.1a.1.1,0,0,1-.1.1h-.2c-.1,0-.1.1-.1.2s0,.2.1.2H56v3.3h.1V16.9h2v0h.3v3.5h.1V16.9H59v3.7h.1V16.8h.1l.1-.1v-.4l-.1-.1H59a.1.1,0,0,1-.1-.1c0,.1,0,.1.1,0Zm-2.1-1.6Zm-1.4,1.2v-1h4v1Zm3.6.8h.1v.2H55.9v-.2h3.2Zm-2.9-.4h2.6v.2H56.2v-.2Zm-.1-.1h-.3v-.1h3.4V16l-.1.1h-.2Zm-.7-3v.2a.1.1,0,0,0,.1.1A.37.37,0,0,1,55.4,13Zm.1-.3Zm0,.6-.1.1.1-.1h0c0-.1-.1-.2,0-.3s0-.1.1-.2l.1-.1h-.2l-.1.1-.1.1a.52.52,0,0,1,.2.4Zm.1-.6Zm-.2.2Zm2.7-.6Zm.2.1h0c0-.1-.1-.1,0,0Zm.1,0Zm-.5,0h-.1a.1.1,0,0,0-.1.1.1.1,0,0,0,.1-.1h.3a.1.1,0,0,1,.1.1l.1.1V13a.1.1,0,0,1-.1.1l.1.1v-.5l-.1-.1h-.3Zm.7.5Zm-.1-.4Zm.1.2Zm0-.2h0c.1,0,0-.1,0,0Zm0,.5Zm-.6-.7Zm.6.3ZM57.4,12h0a.1.1,0,0,0-.1.1h.1Zm-.1.4h0C57.2,12.3,57.2,12.4,57.3,12.4Zm-.2-.1Zm-.2,0Zm1,0Zm-.9,0Zm-.3,0Zm.9.1h0c.1-.1,0-.1,0,0Zm.1-.1Zm-.2-.3v.1h.1A.1.1,0,0,0,57.5,12Zm-.1.1h-.1v.1h.3v-.1h-.2l.1-.3h.1v-.1h-.1v-.1h-.1v.1h-.1v.1h.1Z" transform="translate(-27.3 -1)"/><path class="cls-1" d="M56,22.2v1.3h-.7q-.3.15,0,.3l.1.1.1.1a9951643238341.46,9951643238341.46,0,0,0,.2.2l.1.1.1.1H56v.1a.1.1,0,0,1,.1.1V22H56Z" transform="translate(-27.3 -1)"/><path class="cls-1" d="M60,26.9c-.1,0-.2-.1-.3-.1s-.1-.1-.2-.1h-.4a29854929714985.91,29854929714985.91,0,0,1-.3-.3h-.4a.1.1,0,0,1-.1-.1h-.1a.1.1,0,0,1-.1-.1H58a.1.1,0,0,1-.1-.1h-.4a.1.1,0,0,1-.1-.1.1.1,0,0,1-.1-.1h-.1a14927464857512.76,14927464857512.76,0,0,0-.3-.3h-.2c-.1,0-.1-.1-.2-.1l-.1-.1h-.2l-.1-.1-.1-.1a9951643238341.6,9951643238341.6,0,0,1-.2-.2h-.1a1.38,1.38,0,0,0-.4-.3V26c.1.1.2.3.4.4l.1.1a.1.1,0,0,1,.1.1l.1.1.1.1.1.1h.1l.1.1a.35.35,0,0,0,.2.1h.2a29854929714984.29,29854929714984.29,0,0,0,.3.3h.1a3980657295328.24,3980657295328.24,0,0,0,.2.2h.4a.1.1,0,0,1,.1.1H58a.1.1,0,0,1,.1.1h.1a.1.1,0,0,1,.1.1h.4a.1.1,0,0,1,.1.1h.7c.1,0,.1.1.2.1s.2.1.3.2a2.18,2.18,0,0,1,.5.4,5.85,5.85,0,0,1,.2-1.3A1,1,0,0,0,60,26.9Z" transform="translate(-27.3 -1)"/><path class="cls-1" d="M59.1,28.1h0L59,28v4h-.5V27.8h-.1V32h-.3v0h-2V26.6a.1.1,0,0,1-.1-.1v5.6h3.2Zm.9,6.4a.37.37,0,0,1-.3-.1h-.1V33.1h-.3a.1.1,0,0,1-.1-.1l-.1-.1a.37.37,0,0,1-.1-.3h.1c.1,0,.1-.1.1-.2s0-.1-.1-.1H55.7a.1.1,0,0,0-.1.1c0,.1,0,.1.1.2H56c0,.1,0,.2-.1.2a.1.1,0,0,1-.1.1l-.1.1a.1.1,0,0,0-.1.1h-.2v1.3h0a1.27,1.27,0,0,1-.6.1v2.2c.2,0,.4-.1.6-.1h4.2c.1,0,.1,0,.2.1s.2.1.3.1h.3V34.6A.76.76,0,0,0,60,34.5Zm-4.2-1.4h0c.1-.1.2-.1.2-.2a.37.37,0,0,0,.1-.3H59a.37.37,0,0,0,.1.3c0,.1.1.1.1.2Zm-.3.1h4.1v1H55.5Zm2.7,1.2Zm2,1.9H60a.37.37,0,0,1-.3-.1c-.1,0-.1,0-.2-.1H55.7a4.33,4.33,0,0,1-.5.1v-.4a4.33,4.33,0,0,0,.5-.1h3.9c.1,0,.1,0,.2.1s.2.1.3.1h.2l-.1.4Zm0-.9H60a.37.37,0,0,1-.3-.1c-.1,0-.1,0-.2-.1H55.7a4.33,4.33,0,0,1-.5.1V35a4.33,4.33,0,0,0,.5-.1h3.9c.1,0,.1,0,.2.1s.2.1.3.1h.2l-.1.3Z" transform="translate(-27.3 -1)"/><path class="cls-1" d="M51.8,16.6h0v-.1c.1-.1.1-.2.2-.3a.45.45,0,0,0,0-.5v.1c0,.1-.1.1-.2.2s-.2.1-.2.2l-.1.1V16c0-.1-.1-.1-.1-.2a2.35,2.35,0,0,1-.2.8,3.73,3.73,0,0,0-.2,1.2,3.4,3.4,0,0,0,.2,1.4,1.27,1.27,0,0,1,.1.6.37.37,0,0,1-.1.3c-.1.1-.2.2-.3.2h-.4l-.3-.3a1.76,1.76,0,0,1-.4-.5,1.45,1.45,0,0,1-.2-.7c.1,0,.1.1.2.1a.1.1,0,0,0,.1.1,2.13,2.13,0,0,0,0-.8c.1,0,.2.2.3.3V18a.22.22,0,0,1,.2.2c.1-.3-.1-.4-.2-.7,0-.1-.1-.2,0-.3l.2.2a1.8,1.8,0,0,1-.1-1c.2,0,.4-.1.6-.1H51a.1.1,0,0,0-.1-.1h-.1c0-.1,0-.1-.1-.1a.1.1,0,0,0-.1.1h-.2V16h.1v-.3h-.2v.1h-.2a.14.14,0,0,1,0-.2h.1v-.2H50v.1c-.1,0-.2.1-.2,0s-.1-.1-.1-.2h.1v-.2h-.3v.1h-.3v-.1c.1,0,.1-.2,0-.2s0-.1-.1-.2H49c.1.2,0,.5.1.7-.1,0-.1,0-.2.1l-.1.1-.1.1h-.5V16c.1,0,.1.1.2.1h.1a.22.22,0,0,1,.2.2h-.5c-.1,0-.1,0-.1-.1a.1.1,0,0,1-.1-.1c-.2-.1-.3-.3-.6-.2h-.2c.1,0,.1.1.2.1.2.2.2.4.6.4h.7c0,.1-.1.1-.2.1h-.3a.1.1,0,0,0-.1.1l.1.1a.1.1,0,0,1,.1.1c0,.1,0,.2-.1.2h-.3c-.2,0-.3.1-.5,0l-.1-.1c-.1,0-.1-.1-.2-.1s-.1-.1-.2-.1-.1-.1-.2-.1a.46.46,0,0,1-.3-.5c0-.2.2-.3.1-.6,0-.1-.1-.2-.1-.3h-.2a.37.37,0,0,1,.1.3c-.3.1-.2.3-.2.5v-.1a.37.37,0,0,0-.3-.1h-.2c-.2,0-.3,0-.4.1.1,0,.3,0,.3.1v.1a.1.1,0,0,0,.1.1l.1.1h-.2a.1.1,0,0,0-.1.1c-.1.1-.2.2-.1.3a.31.31,0,0,1,.2-.1h.4c0,.1.1.2.2.4-.1,0-.1,0-.2.1.1,0,.2.1.3.1a.1.1,0,0,1,.1.1h-.1c-.1,0-.1,0-.2.1h.2c.1,0,.2.1.3.1s.1.1.2.1.1.1.2.2a.35.35,0,0,1,.1.2l-.1.1c.1.9.1,1,0,1.1s-.1.1-.2.1h-.4c0-.1-.1-.2-.3-.2h-.2l-.1.1h.2a.22.22,0,0,0,.2.2c.1,0,.1.1.2.1h-.2c-.1,0-.2,0-.2.1a.1.1,0,0,0-.1.1v.1l.1-.1a.44.44,0,0,0,.1.3h.2c-.1.2-.1.3,0,.4s.1.2.2.2h.1c-.1-.1-.1-.2,0-.2s.2-.2.1-.4,0-.1.1-.2h.4v.3l.1-.1.2-.2.2-.2v.3c.1-.2.2-.4.4-.4h.1a.35.35,0,0,0,.1.2c.1.1.1.2.2.2a.1.1,0,0,1,.1.1c.1.1.2.2.3.2a.1.1,0,0,1,.1.1H49c.1,0,0,.1-.1.1H48c-.1.1-.1.2-.1.4v.5a.35.35,0,0,1,.1-.2v.4a.35.35,0,0,1,.1-.2h.1c0,.3,0,.4-.1.4h-.4c-.3-.2-.3-.5-.5-.5H47c-.1,0-.1.1-.2.1H47c.1,0,.1,0,.1.1v.2a.35.35,0,0,0,.2.1h-.6c-.1.1-.2.2-.1.3a.1.1,0,0,1,.1-.1h.1a.1.1,0,0,0,.1.1.14.14,0,0,0,.2,0c.1,0,.1,0,.2-.1-.1.1-.1.2,0,.4s.1.3.2.3v-.3c.2,0,.2-.2.2-.3h.7c.1,0,.2,0,.2.1h.1a.37.37,0,0,0,.1-.3c0-.1-.1-.2-.1-.3V21a.1.1,0,0,1,.1-.1h.3c0,.4,0,.7.1.8a.1.1,0,0,0,.1.1c.1.1.1.2.2.2l.1.1c0-.2-.1-.3,0-.4,0,.1.1.2.2.3,0-.1-.1-.2,0-.3h.1c.1,0,.2.1.2.3-.1,0-.1.1-.1.2h-.5c-.1,0-.1,0-.2.1a.1.1,0,0,0-.1.1.35.35,0,0,0-.1.2h.3a.1.1,0,0,1,.1.1.37.37,0,0,0,.3.1c-.2.1-.3.2-.2.4v.4a.35.35,0,0,1,.1-.2h.1c.1,0,.1-.1.2-.2a.6.6,0,0,0,.1.4c0,.2.1.2.3.3a.37.37,0,0,1-.1-.3c0-.1.2-.3,0-.5,0-.2.1-.3.2-.5s.1-.2.2-.3a.9.9,0,0,1-.1-.5h-.2a.78.78,0,0,1,0-1.1h.1a.37.37,0,0,0,.3-.1c.1,0,.2-.1.3-.2a.37.37,0,0,0,.1-.3v-.6c0-.2-.1-.3-.1-.4a2.9,2.9,0,0,1-.3-1.1v-.3c.1,0,.2-.1.3-.2s.1-.1.1-.2v-.1c0-.2.1-.3.2-.5s.1-.1.2-.2C51.9,16.6,51.8,16.6,51.8,16.6Zm-2.6-.2h0a.31.31,0,0,0-.2-.1.1.1,0,0,0-.1-.1h.2C49.2,16.2,49.2,16.3,49.2,16.4Zm.2-.6a.1.1,0,0,1-.1-.1v-.1c0,.1,0,.1.1.2a.37.37,0,0,1,.3.1l.1.1c.1.1.2.1.2.2s.2.2.2.3h-.1c0-.1-.1-.1-.1-.2s-.2-.2-.3-.2a.1.1,0,0,1-.1-.1l-.2-.2Z" transform="translate(-27.3 -1)"/><path class="cls-1" d="M31.6,22.2v0Zm1.3,1.5c-.1,0-.2-.1-.3-.1s-.2-.1-.3-.1h-.1V22.2h-.1v2.6h.2v-.1a.1.1,0,0,0,.1-.1c.1-.1.2-.1.3-.2l.3-.3C33.1,23.9,33,23.8,32.9,23.7Zm-1.7-1.4v3h.1l-.1-3Z" transform="translate(-27.3 -1)"/><path class="cls-1" d="M32.1,26.6h0L32,32h-.4v-.1h-.3v-5h-.1v5H29.1V27.8H29V32h3.2l-.1-5.4Z" transform="translate(-27.3 -1)"/><path class="cls-1" d="M30,14h-.2a.1.1,0,0,0,0,.2H30c.1-.1.1-.1,0-.2Zm0,.1h0Zm-.4,0h0c-.1.1-.1.1,0,.1s.1,0,0-.1Zm0,.1Zm2,.3h0c.1,0,.2,0,.2-.1l.1-.1v-.2H32l-.1-.1H32a.1.1,0,0,0,.1-.1h.1c.1,0,.1-.1.2-.1v-.2c0-.1.1-.1.2-.1v-.1a.64.64,0,0,0,0-.6v-.1l-.2-.2c-.1,0-.1,0-.2-.1H30.6v-.3h.1V12h-.1v-.1h-.1V12h-.1v.1h.1v.3H29.2c-.1,0-.1,0-.2.1a.22.22,0,0,0-.2.2.85.85,0,0,0,0,.7v.1c.1,0,.2,0,.2.1v.1l.1.1a.35.35,0,0,0,.2.1h.1a.1.1,0,0,0,.1.1v.1l-.1.1h.1v.2c.1,0,.1,0,.2.1H28.6v1.3h.3c0,.1,0,.1.1.2a.35.35,0,0,0,.2.1h.1c.1,0,.1.2,0,.3H29a.35.35,0,0,0-.1.2c0,.1,0,.1.1.2h.1v3.8h.1V16.9h2.1v3.3h.1V16.9h.3v3.2h.1V16.9h.4v3.2h.1V16.8h.1c.1-.1.1-.1.1-.2s0-.2-.1-.2h-.1c-.1,0-.1-.3,0-.3h.2c.1,0,.1-.1.1-.2h.3V14.6Zm.2-.3Zm.1-.1h-.2l.1.1a.31.31,0,0,1-.2-.1H29.4c-.1,0-.2,0-.2.1l.1-.1h-.2c.1,0,.2,0,.2-.1h2.2a.6.6,0,0,0,.4.1Zm.1-.4h0v0l.1-.2.1.1-.2.1Zm.3.1h0C32.4,13.7,32.4,13.8,32.3,13.8Zm.2-.2h0l-.1.1v-.2h.1v.1h0c-.1-.1,0-.1,0-.1v.1Zm-.4-1a.1.1,0,0,1,.1.1c.1.1.2.1.2.2a.1.1,0,0,0,.1.1v.5h-.2l-.1.1v.1a.35.35,0,0,0-.2-.1v.1h-.2a.1.1,0,0,0,.1.1H32l-.1.1a.1.1,0,0,1-.1-.1v-.2a.1.1,0,0,0-.1.1v.1h-.2v-.2h.1a.1.1,0,0,1,.1.1v-.1h.2l-.1-.1v-.1h-.2a.35.35,0,0,0,.1-.2h-.1v-.1l-.1.1v.2l-.1-.1v.1h-.2l.1.1v.1h.2c0,.1-.1.1-.1.2h-.1c-.1,0-.1-.1-.2-.1v-.1a.1.1,0,0,0-.1-.1v.2a.1.1,0,0,1-.1.1h-.1v-.2a.1.1,0,0,0,.1-.1l.2-.2.1-.1h.3c.1,0,.1-.1.2-.1h.1C32,12.7,32,12.7,32.1,12.6Zm-.2,1.2Zm-.1-.3h0v.1h-.2c.1-.1.1-.1.2-.1Zm-.2,0h0c-.1,0-.1-.1,0,0h-.1v-.2l.1-.1v.3Zm-.2,0h.1c0,.1,0,.1-.1,0Zm0,.1h-.2a.1.1,0,0,1-.1-.1h.1v-.1c.1,0,.2,0,.2.2Zm-.3,0h0v0Zm-.2,0h-.1v-.1h.1v.1H31c0-.1,0-.1-.1,0h0C30.8,13.5,30.9,13.5,30.9,13.6Zm-.6-.1h0c-.1,0-.1,0-.1-.1h.1v-.1h.1v.1C30.4,13.6,30.3,13.6,30.3,13.5Zm.2-.2h0c0-.1,0-.2.1-.2a.1.1,0,0,0,.1.1v.1a.1.1,0,0,1-.1.1h-.1Zm-.1.3h.1c0,.1,0,.1-.1.2Zm.1-.2h0c.1-.1.1,0,.1,0s0,.1-.1,0C30.6,13.5,30.5,13.5,30.5,13.4Zm.1.1h0a.1.1,0,0,1,.1.1v.2C30.7,13.7,30.6,13.6,30.6,13.5Zm1.2-1h.3c-.1,0-.1.1-.2.1h-.1c-.1,0-.1.1-.2.1h-.3l-.1.1c-.1.1-.2.1-.2.2h-.1v-.1l.1-.1.2-.2.2-.2.1-.1h.3c-.1.3-.1.2,0,.2Zm-1-.1h.6l-.1.1c-.1.1-.2.2-.3.2l-.1.1a.1.1,0,0,1-.1.1v-.5Zm-.1-.4Zm-.3,0Zm0,.2h0l.1-.1v-.3h-.1v-.1h.1v-.1h.1v.1h.1v.1h-.1v.3h.1v.1Zm0,0h.2C30.5,12.3,30.5,12.3,30.4,12.2Zm.1.2h.2v.8c0-.1-.1-.1-.1-.2a.35.35,0,0,0-.1.2v-.8Zm-.9.1h.8v.2a.76.76,0,0,1-.1.4v.3a.1.1,0,0,0-.1-.1l-.1-.1c-.1-.1-.2-.1-.2-.2s-.1-.1-.2-.1c0-.3,0-.3-.1-.4,0,.1-.1,0-.1,0Zm-.4.1c0-.1.1-.1,0,0h.2c.1,0,.1.1.2.1l.1.1c.1,0,.1.1.2.1s.2.1.2.2l.1.1.1.1v.1h-.1l-.2-.2-.1-.1-.1-.1c-.1-.1-.2-.1-.2-.2-.4-.1-.4-.2-.4-.2Zm-.6.6v-.3c.1-.1.1-.2.2-.2a.31.31,0,0,0,.2-.1.35.35,0,0,1,.2.1c.1.1.2.1.2.2l.1.1c.1,0,.1.1.2.1s.2.1.2.2a.1.1,0,0,1,.1.1v.2h-.1l-.1-.1v-.2a.1.1,0,0,0-.1.1v.1c0,.1-.1.1-.2.1s-.1-.1-.2-.2H30v-.1a.1.1,0,0,0,.1-.1h-.2v-.1c-.1,0-.1.1-.2.1V13l-.1-.1v.2h-.1c0,.1.1.1.1.2h-.2v.1h.1v.1c.1,0,.1-.1.2-.1v.2a.1.1,0,0,0-.1.1h-.1v.1c0,.1,0,.1-.1.1s-.1,0-.1-.1h.1l.1-.1h-.2v-.1c-.1,0-.1.1-.2.1v-.1l-.1-.1h-.2C28.6,13.4,28.6,13.3,28.6,13.2Zm1.6.4h0c-.1,0-.1-.1,0,0h0C30.1,13.5,30.2,13.5,30.2,13.6Zm-.6-.1h0c.1-.1.1,0,.1,0s0,.1-.1,0C29.7,13.6,29.6,13.6,29.6,13.5Zm-.2.1h0v-.1h.2c0,.1-.1.2-.2.1Zm.5-.2H30l-.1.1h-.2C29.8,13.4,29.8,13.4,29.9,13.4Zm-.2-.1v.1a.35.35,0,0,1-.1-.2l.1.1v-.2C29.6,13.2,29.7,13.2,29.7,13.3Zm-.4.5Zm-.6-.2h-.2v-.1h.2s.1,0,0,.1c0-.1,0-.1.1-.1l-.1.1c.1,0,.1,0,.1.1l-.1-.1h0C28.8,13.7,28.8,13.6,28.7,13.6Zm.2.2h0c-.1,0-.1-.1,0,0Zm0-.1h0c0-.1.1-.1.1-.2v.1h.1a.1.1,0,0,1-.1.1Zm.3.3h0l-.2-.1-.1-.1.1.1a.35.35,0,0,1,.2.1l.1-.1v-.1h.2v-.2l.1.1c.1,0,.1,0,.1-.1v-.1l.1.1H30l.1-.1v0a.1.1,0,0,0,.1.1h.2l.1-.1v.1l.1.1h.1a.1.1,0,0,0,.1-.1v.2H31v.1h.1L31,14h-.2v-.1h-.1v-.1h-.2c-.1,0-.1,0-.2-.1h-.2a.1.1,0,0,1-.1-.1h-.2a.1.1,0,0,1-.1-.1l-.1.1h-.4v.1a.1.1,0,0,1-.1.1h-.3C29.3,14,29.2,14,29.2,14Zm2.6,0Zm-.3-.1Zm-.4-.1Zm-.4,0h0Zm-.5,0Zm-.4.1Zm-.4.1Zm-.2.1h0l.1-.1h.4Zm.1.1Zm.1.2h0v-.1a.35.35,0,0,1,.2-.1h2.1c.1,0,.2,0,.2.1a.35.35,0,0,1-.2.1h0c.1,0,.1,0,.2-.1a.31.31,0,0,1-.2-.1H29.5c0,.2-.1.2-.1.2h.2C29.5,14.5,29.4,14.5,29.4,14.4Zm1.5.1h0Zm1.2,2c.1,0,.1,0,.1.1v.1a.1.1,0,0,1-.1.1H29a.1.1,0,0,1-.1-.1l.1-.1Zm-2.8-.4h2.6v.4H29.3v-.1Q29.45,16.1,29.3,16.1Zm3-.3h0c-.1.1-.1.1-.2.1H29a.1.1,0,0,1-.1-.1v-.1Zm.3-.1h-4v-1h4Zm-1-1.6h0c-.1.1,0,.1,0,.1Zm0,.1h0c-.1-.1,0-.1,0,0Zm-.3-.2h-.2a.1.1,0,1,0,0,.2h.2c.1,0,.1-.1,0-.2C31.4,14.1,31.4,14,31.3,14Zm0,.1Zm-.4-.1h0c-.1.1,0,.1,0,.1s.1,0,0-.1Zm0,.1h0c0-.1.1,0,0,0Zm-.2-.1Zm0,.1Zm-.5-.1h0c-.1.1,0,.1,0,.1s.1,0,0-.1Zm0,.1h0c.1-.1.1,0,0,0Z" transform="translate(-27.3 -1)"/><path class="cls-1" d="M58.6,21.1h0a.31.31,0,0,0-.2-.1l-.1.4h.2a.1.1,0,0,0,.1-.1v-.2Zm2,.5c-.2-.1-.3-.2-.5-.3s-.2-.1-.3-.1-.1-.1-.2-.1H55.8a1.27,1.27,0,0,0-.6.1,3.55,3.55,0,0,0-1,.2.37.37,0,0,0-.3.1h-.1V15.1H49.1c.1,0,.2,0,.2-.1h.1c.1,0,.1,0,.2-.1h.3c.1,0,.1-.1.2-.1s.3-.2.3-.4-.1-.2-.2-.3l.1-.2h.2l.3-.1L50,12.6l.1-.2c.1,0,.2,0,.2.1a.32.32,0,0,0,.3-.3v-.1h.1c.1,0,.2-.1.3-.2s.2-.2.3-.2a.35.35,0,0,0,.1-.2l.2-.2h.2a.1.1,0,0,0,.1-.1c.1-.1.2-.1.2-.2s.1-.2,0-.3.1-.2.2-.3.3-.2.5-.3h.3a.9.9,0,0,0-.1-.5h.1c.1,0,.2-.1.2-.3s-.1-.2-.2-.3-.2,0-.2.1a.52.52,0,0,0,.2-.4v.1c0,.1.1.2.3.2s.2-.1.2-.3-.1-.2-.2-.3-.2,0-.2.1a.6.6,0,0,0,.1-.4.35.35,0,0,0,.1.2h.1a.32.32,0,0,0,.3-.3c.2.1.1,0,0,0h-.1a.1.1,0,0,0-.1.1V7.7a.1.1,0,0,0,.1.1h.1a.27.27,0,0,0,.3-.3.27.27,0,0,0-.3-.3h-.1c-.1,0-.1.1-.1.2,0-.2-.1-.3-.1-.5,0,.1.1.1.2.1a.32.32,0,0,0,.3-.3.3.3,0,1,0-.6,0v0c-.1-.1-.1-.2-.2-.3a.35.35,0,0,0,.2.1.3.3,0,1,0-.3-.3v.1a.1.1,0,0,0-.1-.1c-.1-.1-.1-.2-.2-.2H53c.1,0,.2-.1.2-.3a.22.22,0,0,0-.2-.2h-.1a.32.32,0,0,0-.3.3v.1c0,.1,0,.1-.1,0a.1.1,0,0,1-.1-.1h.1a.3.3,0,0,0,0-.6.27.27,0,0,0-.3.3c0,.1,0,.1.1.2a.1.1,0,0,1-.1-.1c-.1,0-.2-.1-.3-.1h-.1c.1,0,.2-.1.2-.3s-.1-.3-.2-.3-.1,0-.2.1-.1.1-.1.2,0,.1.1.2a.35.35,0,0,1-.2-.1h0a.35.35,0,0,0,.1-.2c0-.1,0-.1-.1-.2h-.1a.32.32,0,0,0-.3.3.35.35,0,0,0,.1.2h-.2a.37.37,0,0,1-.3-.1c.1,0,.2-.1.2-.3a.27.27,0,0,0-.3-.3.32.32,0,0,0-.3.3.22.22,0,0,0,.2.2h-.5c.1,0,.2-.1.2-.3a.32.32,0,0,0-.3-.3h-.1a.2.2,0,1,0,0,.4h-.4c.1,0,.1-.1.1-.2s0-.2-.1-.2H49a.1.1,0,0,0-.1.1v.2A.1.1,0,0,0,49,5h-.2c-.1,0-.2,0-.2.1v.2c0-.1-.1-.1-.1-.2a.22.22,0,0,0-.2-.2.35.35,0,0,0,.2.1h.1c.1,0,.1-.1.1-.2a.35.35,0,0,0-.1-.2h-.1c-.1,0-.2.1-.2.3v.2L48.2,5l-.1-.1a.35.35,0,0,0-.2-.1h.2a.2.2,0,1,0,0-.4H48c-.1,0-.1,0-.2.1a.35.35,0,0,0-.1.2c0,.1,0,.1.1.2l-.1-.1-.1-.1a.1.1,0,0,1-.1-.1h.1c.1,0,.1,0,.1-.1a.35.35,0,0,0,.1-.2c0-.1,0-.1-.1-.2.3-.1.3-.1.2-.1a.32.32,0,0,0-.3.3.35.35,0,0,0,.1.2c-.1-.1-.3-.1-.4-.2a.3.3,0,1,0,0-.6c-.1,0-.1,0-.2.1A.35.35,0,0,1,47,4c0,.1,0,.2.1.2h-.4c.1,0,.2,0,.2-.1V3.8c0-.1-.1-.1-.2-.1a.32.32,0,0,0-.3.3c0,.1.1.2.2.3h-.4c.1,0,.2-.1.2-.3a.32.32,0,0,0-.3-.3c-.1,0-.2.1-.2.3s.1.2.2.3h-.4c.1,0,.1-.1.1-.2a.35.35,0,0,0-.1-.2h-.1a.27.27,0,0,0-.3.3.32.32,0,0,0,.3.3c-.2,0-.3.1-.5.2.1,0,.1-.1.1-.2-.1-.4-.1-.5-.2-.5h-.1a.27.27,0,0,0-.3.3v.1h-.1c-.1,0-.1-.1-.2-.1a.35.35,0,0,0,.2-.1,1,1,0,0,0,.4-.7.67.67,0,0,0-.4-.7c-.1,0-.1-.1-.2-.1V2.1h.4V1.5h-.4V1h-.6v.4h-.4V2h.4v.4c-.1,0-.2.1-.3.2s-.2.2-.2.3-.1.2-.1.3v.4c0,.1,0,.2.1.2s.1.2.2.3.2.1.3.2c-.1,0-.2.1-.3.1V4.2c.1-.2,0-.2-.1-.2h-.1a.22.22,0,0,0-.2.2c0,.1,0,.2.1.2-.2-.1-.3-.1-.5-.2a.3.3,0,0,0,0-.6h-.1a.22.22,0,0,0-.2.2.35.35,0,0,0,.1.2c-.2,0-.3-.1-.5-.1.1,0,.2-.1.2-.3s-.1-.2-.2-.3h-.1c-.1,0-.1.1-.1.2s0,.2.1.2h-.4c.1,0,.2-.1.2-.3a.3.3,0,0,0-.6,0,.32.32,0,0,0,.3.3.9.9,0,0,0-.5.1.22.22,0,0,0,.2-.2.32.32,0,0,0-.3-.3h-.1c-.1,0-.1.1-.1.2a.35.35,0,0,0,.1.2h-.1c-.1,0-.2.1-.3.1.1,0,.1-.1.1-.2a.32.32,0,0,0-.3-.3c-.1,0-.1,0-.2.1a.35.35,0,0,0-.1.2c0,.1,0,.1.1.2a.35.35,0,0,0,.2.1h0a.35.35,0,0,1-.2.1l-.1.1c.3.6.3.5.3.4s0-.2-.1-.2a.35.35,0,0,0-.2-.1h-.1a.2.2,0,1,0,0,.4h.2c-.1,0-.1.1-.2.1l-.1.1-.1.1V4.7c0-.1-.1-.3-.2-.3h-.1c-.1,0-.1.1-.1.2s0,.2.1.2h.1c.1,0,.1,0,.2-.1-.1.1-.1.2-.2.2s-.1.1-.1.2V4.9c0-.1-.1-.1-.2-.1s-.1,0-.2-.1h0c.1,0,.1-.1.1-.2s0-.2-.1-.2h-.2a.2.2,0,1,0,0,.4h-.4c.1,0,.1-.1.1-.2a.35.35,0,0,0-.1-.2H38a.32.32,0,0,0-.3.3c0,.1.1.2.2.3h-.5a.22.22,0,0,0,.2-.2.27.27,0,0,0-.3-.3.32.32,0,0,0-.3.3c0,.1.1.2.2.3a.37.37,0,0,0-.3.1h-.2a.22.22,0,0,0,.2-.2.3.3,0,1,0-.3.3.76.76,0,0,0-.4.2c.1,0,.1-.1.1-.2s0-.2-.1-.2a.35.35,0,0,0-.2-.1c.1.1,0,.3,0,.4s.1.3.2.3h-.1a.35.35,0,0,0-.2.1.1.1,0,0,0-.1.1.35.35,0,0,0,.1-.2.32.32,0,0,0-.3-.3h-.1a.2.2,0,1,0,0,.4h.2c-.1,0-.1.1-.2.1s-.1.1-.2.1V5.8a.32.32,0,0,0-.3-.3h-.1c-.1,0-.1.1-.2.1v.2c0,.1.1.1.2.1h.2l-.2.2a.1.1,0,0,1-.1.1V6.1c0-.1,0-.2-.1-.2a.35.35,0,0,0-.2-.1.27.27,0,0,0-.3.3.27.27,0,0,0,.3.3c.1,0,.1,0,.2-.1-.1.1-.1.2-.2.3v0a.27.27,0,0,0-.3-.3.3.3,0,1,0,0,.6.35.35,0,0,0,.2-.1.9.9,0,0,0-.1.5.35.35,0,0,0-.1-.2h-.1a.3.3,0,0,0,0,.6h.1l.1-.1V8a.1.1,0,0,0-.1-.1h-.1a.3.3,0,1,0,0,.6h.1c.1,0,.1-.1.1-.2,0,.1.1.3.1.4,0-.1-.1-.1-.2-.1s-.2.1-.2.3.1.2.2.3.2-.1.3-.2V8.9c0,.1.1.2.2.3v.1h-.1c-.1,0-.2.1-.2.3s.1.2.2.3h.1a.75.75,0,0,0-.1.5h.3c.2,0,.3.1.5.2a1.38,1.38,0,0,1,.3.4v.3c.1.1.1.2.2.2a.1.1,0,0,1,.1.1h.2l.4.4.3.3c.1.1.2.1.3.2h.2v.1a.27.27,0,0,0,.3.3c.1,0,.2,0,.2-.1l.1.2-.3.3.3.1h.2l.1.2-.1.1a.31.31,0,0,0-.1.2c0,.1,0,.2.1.2s.1.1.2.1a.35.35,0,0,0,.2.1h.1c.1,0,.1,0,.2.1s.1,0,.2.1h.1c.1,0,.2,0,.2.1H34.7V21h-.1a.37.37,0,0,1-.3-.1,14.81,14.81,0,0,0-1.9-.3H29.6c-.1,0-.2,0-.2.1a.35.35,0,0,0-.2.1c-.1,0-.1,0-.2.1-.3.1-.5.2-.8.3a2.19,2.19,0,0,0-.5.3.72.72,0,0,0-.4.6v.1c0,.1,0,.2.1.2l.5,1.1a1.76,1.76,0,0,1,.4-.5,2,2,0,0,1,.8-.4.31.31,0,0,0,.2-.1,15734929547254.93,15734929547254.93,0,0,1,.4-.2H30c.1,0,.2,0,.2-.1h2.6a6.28,6.28,0,0,1,1.9.3c.1,0,.2.1.3.1h.1v8.7a2,2,0,0,0,.1.8,1.85,1.85,0,0,0,.2.7,3.13,3.13,0,0,0,.5,1,5.55,5.55,0,0,0,.6.8l.2.2c.1.1.3.2.4.3s.2.1.3.2.2.1.3.2.5.3.7.4a.31.31,0,0,1,.2.1c.1,0,.1.1.2.1a.31.31,0,0,1,.2.1h.1c.1,0,.1,0,.2.1s.1,0,.2.1h.1c.1,0,.2.1.3.1H40c.1,0,.1,0,.2.1h.3c.2,0,.3.1.5.1s.5.1.7.2.3.1.5.1h.2a.9.9,0,0,1,.5.1c.2,0,.4.1.6.1h1.8a1.27,1.27,0,0,0,.6-.1h.4a44505101537423.85,44505101537423.85,0,0,0,.6-.2h.6a1.42,1.42,0,0,0,.6-.2h.2c.1,0,.1,0,.2-.1h.1c.1,0,.2-.1.3-.1H49c.1,0,.1,0,.2-.1h.3c.1,0,.1-.1.2-.1s.2-.1.4-.2a2.51,2.51,0,0,0,.7-.4c.1-.1.2-.1.3-.2s.2-.1.3-.2l.1-.1c.1-.1.2-.1.2-.2l.2-.2a2.65,2.65,0,0,0,.5-.6,3.7,3.7,0,0,0,.5-1.1,4.67,4.67,0,0,0,.3-1.7V22.6h.1c.1,0,.2-.1.3-.1a3.55,3.55,0,0,1,1-.2c.2,0,.4-.1.6-.1h3.2a.1.1,0,0,1,.1.1H59c.1,0,.1.1.2.1s.2.1.3.2.4.3.4.5l.5-1.1a.35.35,0,0,1,.1-.2v-.1C61,22,60.8,21.8,60.6,21.6Zm-7-12.9h0c.1,0,.1.1.1.2s0,.1-.1.1a.1.1,0,0,1-.1-.1C53.5,8.7,53.5,8.7,53.6,8.7Zm0-.5a.1.1,0,0,1,.1-.1.35.35,0,0,1,.2.1c0,.1-.1.1-.2.1s-.1,0-.1-.1Zm0-.6a.1.1,0,0,1,.1-.1.22.22,0,0,1,.2.2c0,.1-.1.1-.2.1A.35.35,0,0,1,53.6,7.6Zm0-.8c.1,0,.1.1.1.2a.1.1,0,0,1-.1.1.35.35,0,0,1-.2-.1C53.5,6.9,53.5,6.8,53.6,6.8Zm-.3-.5a.1.1,0,0,1,0,.2.35.35,0,0,1-.2-.1A.35.35,0,0,0,53.3,6.3ZM48.8,4.8h0c.1,0,.1,0,.1.1v.2l-.1.1c-.1,0-.1-.1-.1-.2S48.7,4.8,48.8,4.8Zm-9.4.3h0c-.1,0-.1,0-.1-.1V4.8l.1-.1a.1.1,0,0,1,.1.1A.44.44,0,0,1,39.4,5.1ZM34.8,6.6a.35.35,0,0,1-.2-.1c0-.1.1-.1.2-.1a.1.1,0,0,1,0,.2Zm-.3.5a.1.1,0,0,1-.1-.1.35.35,0,0,1,.1-.2c.1,0,.1.1.1.2S34.6,7.1,34.5,7.1Zm0,.5a.1.1,0,0,1-.2,0,.35.35,0,0,1,.1-.2C34.4,7.5,34.5,7.5,34.5,7.6Zm0,.7a.1.1,0,1,1-.1-.1c.1,0,.1,0,.1.1Zm0,.6h0a.35.35,0,0,1-.2-.1.1.1,0,0,1,.1-.1c.1,0,.1.1.1.2ZM29.4,21.7h0c-.1,0-.1.1,0,0l-.1.1a.35.35,0,0,1-.2.1H29l.1.2.1.2h-.1l-.2.1v-.1l-.4-1.1.4-.2h.4a.1.1,0,0,0,.1.1C29.5,21.5,29.5,21.6,29.4,21.7Zm1.4.2h-.7v-.1l-.1-.7-.1-.4v-.1h.3v.1l.1.4.1.6h.2Zm1.3-1.2h0l-.2.8-.1.3v.1h-.4v-.1l-.1-.3-.3-.6v-.2h.4l.1.2.1.1.1.1.1.1.1.2.1-.3.1-.4.1-.2-.1.2C32.2,20.6,32.1,20.6,32.1,20.7Zm.8.3a.35.35,0,0,0,.2.1c.1.1.2.1.2.2s.1.1,0,.2,0,.2-.1.2a.4.4,0,0,1-.5.1h-.3a.1.1,0,0,1-.1-.1l.1-.2h.1c.1.1.1.1.2.1h.2l.1-.1c0-.1,0-.1-.1-.1a.35.35,0,0,0-.2-.1c-.1-.1-.2-.1-.2-.2v-.2c0-.1,0-.1.1-.2s.2-.2.4-.1a.37.37,0,0,1,.3.1l-.1.2a.37.37,0,0,0-.3-.1h-.1l-.1.1C32.9,20.9,32.9,21,32.9,21Zm16.9-8.1-.2-.1-.1-.1h.3l.1.2Zm.1-.4h-.8l.1.1.1.1.1.1.2.2v.2a.31.31,0,0,1-.2-.1h-.3c-.1,0-.1,0-.2-.1h-.1a.37.37,0,0,1-.3-.1H48c-.2,0-.4-.1-.6-.1H41.6a1.7,1.7,0,0,0-.7.1.9.9,0,0,0-.5.1h-.6a.37.37,0,0,0-.3.1h-.1c-.1,0-.1,0-.2.1s-.1,0-.2.1h-.1a.1.1,0,0,0-.1.1v-.2l.2-.1.1-.1.2-.2.1-.1h-.8l-.1-.2h.1c.1,0,.1,0,.2-.1h.8a.37.37,0,0,0,.3-.1h.6a.9.9,0,0,0,.5-.1c.2,0,.5-.1.7-.1h5.8c.2,0,.4.1.6.1h.5a.37.37,0,0,1,.3.1h.8c.1,0,.2.1.3.1Zm.4-1.8a.37.37,0,0,0-.2-.5H50q-.15,0-.3.3v.3l-.1.1c-.1,0-.1.1-.2.1h-.6c-.1-.1-.2-.1-.3-.2l-.1-.1a1.48,1.48,0,0,1-.1-.7.1.1,0,0,1,.1.1c.1.1.2.2.3.2a.1.1,0,0,1,.1.1c.1,0,.1.1.2.1h.2v-.3h.3a.76.76,0,0,0,.4-.2c-.1-.1-.2-.3-.4-.4s-.1-.1-.2-.1c.1-.1.1-.2.2-.3h-.9c0-.1.1-.1.1-.2s.1-.1.1-.2a.76.76,0,0,0,.2-.4h-.3V8.3c0-.2-.1-.3-.2-.5a.35.35,0,0,0,.2.1h.1c.1,0,.1-.1.1-.2s0-.2-.1-.2h-.1c-.1,0-.1,0-.2.1l.2-.2a.35.35,0,0,0,.1-.2v.1c0,.1,0,.1.1.2a.35.35,0,0,0,.2.1h.1a.1.1,0,0,0,.1-.1V7.4h.6a1.48,1.48,0,0,1,.7.1h.1c.1,0,.2,0,.2.1s.2.1.3.1a.1.1,0,0,1,.1.1.35.35,0,0,1,.2.1c.1,0,.1.1.2.1a2.19,2.19,0,0,1,.5.3v.1c-.1.1-.1.2-.2.3l.2.4.2.4c-.1,0-.1,0-.2.1a.1.1,0,0,0-.1.1c0-.1-.1-.1-.1-.2-.1.1-.2.2-.3.2a.76.76,0,0,0-.2.4v.2c-.1-.1-.1-.2-.2-.2l-.1-.1c-.1-.1-.2-.1-.3-.2,0,.1-.1.2,0,.3h-.3a.6.6,0,0,0-.4.1,2.09,2.09,0,0,0,.4.6c-.1,0-.1.1-.2.2.1,0,.1,0,.2.1a.37.37,0,0,1,.3.1h.3c-.1.1-.2.1-.3.2s-.2.2-.3.2-.2.1-.3.1-.3-.2-.3-.4C50.2,10.9,50.2,10.8,50.3,10.7Zm-.3.1h-.1v-.2a.35.35,0,0,1,.1-.2h.1a.1.1,0,0,1,.1.1v.2C50.1,10.7,50.1,10.8,50,10.8Zm-3.6-.7c0-.1.1-.1.1-.2s0-.3-.1-.3-.1-.1-.2-.1-.1,0-.2.1-.1.2-.2.3a.37.37,0,0,0,.1.3c-.1.1-.1.2-.2.2l-.1.1c-.2.1-.3.2-.5.1h-.2a.71.71,0,0,1-.6-.6.37.37,0,0,0-.1-.3h.1c.1,0,.1.1.2.1s.2.1.4.2a1.27,1.27,0,0,0,.6.1.37.37,0,0,0-.1-.3c.1,0,.1,0,.2-.1a.1.1,0,0,0,.1-.1q.3-.15.3-.3l.1-.1L46,9.1a.31.31,0,0,1-.2-.1.1.1,0,0,1-.1-.1c-.1,0-.1,0-.2-.1.1-.1.1-.2.1-.4-.2,0-.4.1-.6.1a.76.76,0,0,0-.4.2,1.69,1.69,0,0,0,.3-1h-.2l.3-.2.2-.2a1.34,1.34,0,0,1-.2-.9V6.3a1.27,1.27,0,0,1,.6.1h.1a.37.37,0,0,1,.3.1c.1,0,.2.1.3.1s.2.1.3.1.1,0,.2.1.1,0,.2.1.1,0,.2.1.2.1.4.1H48l-.1.1-.1.1a.1.1,0,0,0-.1.1l.1.2.1.2L48,8c0,.1-.1.1-.1.2l-.1-.1h-.1a3.4,3.4,0,0,0,.1,1c-.2-.1-.4-.3-.6-.3s-.1,0-.2-.1h-.1V9h-.2c-.1,0-.1,0-.2.1s-.2.1-.3.2l.3.3c.1.1.1.1.2.1-.1.1-.1.1-.1.2h.5c.2,0,.4-.1.6-.1v.1a1.08,1.08,0,0,1-.6.7h-.4c-.1,0-.2,0-.2-.1s-.2-.1-.3-.2a.37.37,0,0,1-.1-.3C46.3,10.2,46.3,10.2,46.4,10.1Zm-.2,0h-.1V9.8a.22.22,0,0,1,.2-.2h.1v.2C46.3,10,46.3,10.1,46.2,10.1Zm-3.9-.3c0-.2-.1-.3-.2-.3H42c-.1,0-.2.2-.2.4s.1.3.2.3v.1a.82.82,0,0,1-.5.5c-.1,0-.1,0-.2.1a.9.9,0,0,1-.5-.1c-.2-.1-.3-.3-.5-.6V10a.9.9,0,0,0,.5.1h.6c0-.1-.1-.2-.1-.3a.22.22,0,0,0,.2-.2l.3-.3a.37.37,0,0,0-.3-.1c-.1,0-.3-.1-.4-.1V8.8c-.1,0-.2.1-.4.2s-.3.2-.5.3a3.08,3.08,0,0,0,.1-1h-.1c-.1,0-.1.1-.2.1V8.1l.1-.2.2-.2V7.6l.1-.1h-.1a.35.35,0,0,0-.2-.1L40,7.3h.5a.37.37,0,0,0,.3-.1,4.88,4.88,0,0,0,.7-.3,4.33,4.33,0,0,1,.5-.1h.2a4.33,4.33,0,0,1,.5-.1,1.27,1.27,0,0,0,.6-.1v.1a2.92,2.92,0,0,1-.2.9l.2.2.1.1.2.2h-.2a1.85,1.85,0,0,0,.2.7c0,.1.1.2.2.3-.1,0-.1-.1-.2-.1s-.1-.1-.2-.1h-.1a.9.9,0,0,0-.5-.1.76.76,0,0,0,.1.4c-.1,0-.1,0-.2.1s-.3.2-.5.3a.85.85,0,0,0,.5.3c.1,0,.1.1.2.1a.37.37,0,0,0-.1.3.75.75,0,0,0,.5-.1h.1c.1,0,.1,0,.2-.1s.2-.1.3-.2c0,.2,0,.3-.1.4a1.38,1.38,0,0,1-.3.4c-.1,0-.1.1-.2.1h-.2a1.27,1.27,0,0,1-.6-.1,1.38,1.38,0,0,1-.3-.4A.9.9,0,0,0,42.3,9.8Zm-.2.3H42l-.1-.1V9.6h.2a.35.35,0,0,0,.1.2A.44.44,0,0,1,42.1,10.1Zm-3.6.4a.35.35,0,0,0-.3-.3h-.1c-.2,0-.2.2-.2.5,0,.1.1.2.2.3,0,.3-.1.5-.3.4a.37.37,0,0,1-.3-.1c-.1-.1-.2-.1-.3-.2a.77.77,0,0,1-.3-.2h.2a.37.37,0,0,0,.3-.1c.1,0,.1,0,.2-.1a.22.22,0,0,0-.2-.2,2.09,2.09,0,0,0,.4-.6.6.6,0,0,0-.4-.1h-.3V9.5c-.1,0-.2.1-.3.2a.78.78,0,0,0-.4.4V9.9a.52.52,0,0,0-.2-.4c-.1-.1-.2-.2-.3-.2s-.1.1-.1.2c-.1-.1-.1-.1-.2-.1h-.1l.1-.2.3-.6-.3-.3a1.33,1.33,0,0,1,.6-.5c.1,0,.1-.1.2-.1s.3-.1.4-.2.2-.1.3-.1.1,0,.2-.1h.1c.2,0,.5-.1.7-.1h.6a.1.1,0,0,0,.1.1.35.35,0,0,0,.2.1c.1,0,.1,0,.2-.1a.35.35,0,0,0,.1-.2V7c0,.1.1.1.1.2s.1.1.2.2a.35.35,0,0,0-.2-.1h-.1c-.1,0-.1.1-.1.2s0,.2.1.2h.3c-.1.1-.1.3-.2.4v.2h-.3v.1c.1.2.1.3.2.4s.1.1.1.2a.35.35,0,0,1,.1.2h-.9v.1a.35.35,0,0,0,.1.2.1.1,0,0,0-.1.1.22.22,0,0,0-.2.2c-.1,0-.1.1-.2.2a.35.35,0,0,0,.2.1c.1,0,.1.1.2.1h.3c0,.1-.1.2,0,.3s.1,0,.2-.1.1-.1.2-.1a.1.1,0,0,0,.1-.1c.1-.1.2-.1.3-.2a.1.1,0,0,0,.1-.1.82.82,0,0,1-.1.7.1.1,0,0,1-.1.1c-.1.1-.2.2-.3.2H39c-.1,0-.1,0-.2-.1h-.1c-.1,0-.1-.1-.2-.1l-.1-.1C38.5,10.8,38.5,10.6,38.5,10.5Zm-.2.3h0c-.1.1-.1.1-.2.1s-.1-.1-.1-.2v-.2a.1.1,0,0,1,.1-.1h.1c.1,0,.1.1.2.2C38.3,10.7,38.3,10.7,38.3,10.8Zm.6-3.6a.1.1,0,0,1,.1-.1.35.35,0,0,1,.2.1.22.22,0,0,1-.2.2C38.9,7.4,38.9,7.3,38.9,7.2Zm.7.4h0l.1.1-.1.1V7.6Zm0,.4h0l.1.1c.1.1.1.2.2.2l.1.2a.35.35,0,0,1,.2-.1v.2a1.07,1.07,0,0,1-.2.6h-.3a.1.1,0,0,0-.1.1c-.1-.1-.2-.3-.3-.4a.35.35,0,0,0-.1-.2V8.6h.2V8.4C39.5,8.3,39.5,8.1,39.6,8Zm1.5,1.2a.76.76,0,0,1,.4.1h.1l-.1.1c-.1.1-.2.2-.3.2l-.2.2.2.2h-.4c-.2,0-.3-.1-.4-.1V9.5a2.19,2.19,0,0,1,.5-.3.35.35,0,0,0,.2-.1.37.37,0,0,1-.1.3Zm-2.3.9h-.3a.35.35,0,0,1-.2-.1l.2-.2.1-.1h.2l-.1-.1a.35.35,0,0,1-.1-.2h.6c.1,0,.1,0,.2.1v.2a.35.35,0,0,0,.1.2c-.1.1-.2.2-.3.2a.1.1,0,0,0-.1.1c-.1,0-.1.1-.2.1h-.1a.35.35,0,0,1,.1-.2Zm.7-2.4a.35.35,0,0,1-.1.2c-.1,0-.1,0-.1-.1V7.6l.1-.1C39.4,7.6,39.5,7.6,39.5,7.7Zm.2,2.2a.35.35,0,0,1-.1-.2V9.6c0-.1,0-.1.1-.2l.1-.1h.1a.1.1,0,0,1,.1.1c.1,0,.1.1.1.2s0,.3-.1.3h-.3C39.9,10,39.8,9.9,39.7,9.9ZM39.9,7h0a.22.22,0,0,1-.2-.2c0-.1-.1-.2-.1-.3V5.9c0-.1,0-.2.1-.2s.1-.2.2-.3.1-.1.1-.2a.35.35,0,0,1,.2-.1.76.76,0,0,1,.5-.2,1.85,1.85,0,0,1,.7-.2h.7a.9.9,0,0,1,.5.1l.6.3h.1V6.2c-.2,0-.5,0-.6.1a.9.9,0,0,0-.5.1H42c-.2,0-.3.1-.5.1a4.88,4.88,0,0,1-.7.3.37.37,0,0,0-.3.1h-.4C40,7,40,7,39.9,7Zm4.2-1.8h0a.22.22,0,0,1,.2.2c0,.1,0,.1-.1.2h-.1a.22.22,0,0,1-.2-.2C43.9,5.2,44,5.2,44.1,5.2ZM44,4.8a.1.1,0,0,1,.1-.1h.1l.1.1a.1.1,0,0,1-.1.1h-.1C44,5,44,4.9,44,4.8Zm.1.9a.2.2,0,1,1,0,.4H44a.22.22,0,0,1-.2-.2C43.8,5.8,43.9,5.7,44.1,5.7Zm0,.7h0c.2,0,.2.1.3.2v.2a.22.22,0,0,1-.2.2c-.1,0-.3-.1-.3-.2V6.6C43.8,6.5,43.9,6.4,44.1,6.4Zm.3.6a.37.37,0,0,0,.1-.3.37.37,0,0,0-.1-.3c-.1,0-.1-.1-.2-.1.1,0,.1-.1.2-.1a.35.35,0,0,0,.1-.2c0-.1,0-.1-.1-.2s-.1-.1-.2-.1c.1,0,.2-.2.2-.3s-.1-.2-.2-.3c.1,0,.1-.1.1-.2a.22.22,0,0,0-.2-.2H44a.22.22,0,0,0-.2.2.35.35,0,0,0,.1.2.22.22,0,0,0-.2.2v.2c0,.1.1.1.2.2-.1,0-.1.1-.2.1s-.1.1-.1.2,0,.2.1.2.1.1.2.1c-.1,0-.1.1-.2.1a.37.37,0,0,0-.1.3.37.37,0,0,0,.1.3l.1.1a.1.1,0,0,0-.1.1c-.1.1-.2.2-.2.3l-.1-.1V7.3a1.48,1.48,0,0,0,.1-.7,5.7,5.7,0,0,1,.1-1.3c0-.2,0-.3.1-.4s.1-.1.3-.1h.1c.1,0,.2,0,.2.1a.37.37,0,0,1,.1.3,6.6,6.6,0,0,0,.1,1.4V7a4.33,4.33,0,0,0,.1.5l-.1.1h-.1a.22.22,0,0,0-.2-.2l-.1-.1C44.3,7,44.3,7,44.4,7Zm-.6.3a.37.37,0,0,1,.3-.1h.1a.22.22,0,0,1,.2.2v.1c-.1-.1-.1-.2-.2-.2l-.3.3-.1-.1A.14.14,0,0,1,43.8,7.3Zm0,.8h0l.1-.2a1.33,1.33,0,0,1,.3-.5.76.76,0,0,1,.2.4v.1l.1.2.1-.1a.1.1,0,0,0,.1-.1c0,.1-.1.3-.1.4s-.1.3-.2.4-.1-.1-.2-.1-.2,0-.2.1a.1.1,0,0,0-.1-.1c-.1-.2-.2-.5-.3-.7A.22.22,0,0,0,43.8,8.1Zm1.6.9c.1,0,.1,0,.2.1a.1.1,0,0,1,.1.1l.1.1-.1.1-.1.1c-.1,0-.1.1-.2.1l-.2.1.2.2a.6.6,0,0,1-.4-.1.76.76,0,0,1-.4-.2.1.1,0,0,1-.1-.1c0-.1.1-.2.1-.3s0-.2-.1-.2a.1.1,0,0,0,.1-.1c.1-.1.2-.1.4-.2a.6.6,0,0,1,.4-.1c0,.1-.1.2-.1.3Zm-2.6.6c-.1,0-.1-.1-.2-.1s-.2-.1-.3-.2c.1-.1.2-.1.3-.2s.1-.1.2-.1H43c0-.1-.1-.2-.1-.3s.2.1.4.1h.1c.1,0,.1.1.2.1a.1.1,0,0,0,.1.1v.2a.37.37,0,0,0,.1.3.35.35,0,0,0-.2.1c-.1,0-.1.1-.2.1h-.1c-.1,0-.3.1-.4.1a.22.22,0,0,1,.2-.2Zm1-.2h0V9.2a.45.45,0,0,1,.3-.3.22.22,0,0,1,.2.2v.4c-.1.1-.1.2-.2.2S43.8,9.5,43.8,9.4Zm1.1-3.2V5.1H45l.6-.3H47c.1,0,.1,0,.2.1l.6.3.1.1c.1,0,.1.1.1.2s.2.2.2.3.1.1.1.2v.6c0,.1,0,.1-.1.2a.35.35,0,0,1-.1.2h-.5c-.2,0-.3-.1-.4-.1s-.1,0-.2-.1-.1,0-.2-.1-.1-.1-.2-.1-.2-.1-.3-.1-.2-.1-.3-.1h-.4A6.37,6.37,0,0,0,44.9,6.2Zm3.6,1.6-.1-.1.1-.1v.2Zm0,.2h0a.76.76,0,0,1,.2.4v.2h.2v.1a.35.35,0,0,1-.1.2,1.38,1.38,0,0,1-.3.4h-.1a.1.1,0,0,1-.1-.1h-.2a1.09,1.09,0,0,1-.1-.5V8.4a.1.1,0,0,1,.1.1l.1-.2c.1,0,.1-.1.3-.3Zm.9,1.6h0c.1.1.2.1.3.2l.2.2c-.1,0-.1.1-.2.1s-.1,0-.2.1h-.3c0,.1.1.1.1.2h-.1c-.1,0-.1-.1-.2-.1l-.1-.1c-.1-.1-.2-.2-.3-.2s.1-.1.1-.2V9.6c.1,0,.1,0,.2-.1h.6a.1.1,0,0,1-.1.1l-.1.1Zm-1.6.2a1.09,1.09,0,0,1-.5.1H47c0-.1.1-.1.1-.2h-.2c-.1,0-.1-.1-.2-.2l-.1-.1a.1.1,0,0,0,.1-.1c.1,0,.1,0,.2-.1h.3c0-.1-.1-.2-.1-.3h.1c.2.1.4.3.6.4a.35.35,0,0,0-.1.2A.37.37,0,0,1,47.8,9.8Zm.1-.2a.35.35,0,0,1,.1-.2l.1-.1h.1c.1,0,.1,0,.1.1a.35.35,0,0,1,.1.2v.1c0,.1,0,.1-.1.2s-.1.1-.2.1h-.2Zm.7-1.9c0-.1.1-.1.2-.1s.1,0,.1.1v.2l-.1.1C48.7,7.9,48.6,7.8,48.6,7.7Zm.4-.5a.1.1,0,0,1,.1-.1h.1l.1.1a.1.1,0,0,1-.1.1h-.1C49,7.4,49,7.3,49,7.2Zm2,3.6a.37.37,0,0,1-.3-.1c.1,0,.1-.1.2-.1l-.2-.1a1.38,1.38,0,0,1-.3-.4h.7V9.8a.22.22,0,0,1,.2.2l.1.1c.1.1.2.2.2.3a.1.1,0,0,0,.1.1h-.1l-.1.1c0,.1-.1.1-.1.2H51Zm1.1.1L52,11h-.2c-.1-.1,0-.2,0-.3l.1-.1.1-.1h.2A.6.6,0,0,1,52.1,10.9Zm1.2-1.7h0a.1.1,0,1,1,0,.2.35.35,0,0,1-.2-.1C53.2,9.2,53.2,9.2,53.3,9.2Zm-.1.7h-.4a.76.76,0,0,0-.4.2c-.1.1-.2.2-.2.3h-.3c0-.1-.1-.2-.1-.4s0-.2.1-.2a.1.1,0,0,1,.1-.1c.1-.1.1-.2.2-.2a.37.37,0,0,0,.1.3l.2-.2a.31.31,0,0,1,.2-.1c.1,0,.2,0,.2.1A.27.27,0,0,1,53.2,9.9Zm-.1-.5h0c-.1,0-.1-.1-.2-.1l.1-.1.1-.1v.3Zm.1-2.3a.9.9,0,0,1,.1.5v.7A2.12,2.12,0,0,1,53,9l-.2-.3a1.24,1.24,0,0,1,.2-.3A2,2,0,0,0,53.2,7.1Zm-.3-1.3h0a.35.35,0,0,1,.2.1c0,.1,0,.1-.1.1h-.1a.1.1,0,0,1-.1-.1Zm-.4-.4a.1.1,0,0,1,.1.1.35.35,0,0,1-.1.2.22.22,0,0,1-.2-.2A.35.35,0,0,1,52.5,5.4Zm-.6-.3h0a.22.22,0,0,1,.2.2.1.1,0,1,1-.2,0C51.8,5.2,51.8,5.1,51.9,5.1Zm-.7,0c0-.1.1-.1.2-.1a.1.1,0,0,1,.1.1.35.35,0,0,1-.1.2C51.2,5.2,51.2,5.2,51.2,5.1Zm-.6-.2a.35.35,0,0,1,.1-.2c.1,0,.1.1.1.2a.1.1,0,0,1-.1.1C50.6,5.1,50.6,5,50.6,4.9ZM50,5V4.8h.1a.1.1,0,0,1,.1.1C50.2,5,50.2,5,50,5Zm-.6,0h0V4.8h.1a.35.35,0,0,1,.2.1c-.1.1-.1.1-.2.1Zm0,.3H50a1.7,1.7,0,0,1,.7.1.37.37,0,0,1,.3.1c.1,0,.2.1.3.1h.1a.35.35,0,0,1,.2.1.1.1,0,0,1,.1.1h.1a1,1,0,0,1,.5.4,1,1,0,0,1,.5.8,1.7,1.7,0,0,1,0,1,2.51,2.51,0,0,1-.4.7l.5.3a.35.35,0,0,0-.1.2l-.3-.6V8.5a1.49,1.49,0,0,0,.4-1.4,3,3,0,0,0-.4-.8,1.76,1.76,0,0,0-.5-.4.1.1,0,0,1-.1-.1h-.1a.35.35,0,0,1-.2-.1.1.1,0,0,1-.1-.1c-.1,0-.2-.1-.3-.1h-.3c-.2,0-.4-.1-.7-.1h-.6C49.4,5.4,49.4,5.4,49.4,5.3Zm-.3,0h0l.1.1c0,.1,0,.1-.1.1H49c-.1,0-.1-.1-.1-.2A.14.14,0,0,0,49.1,5.3ZM48.9,7a.37.37,0,0,0,.1-.3c0,.1,0,.2.1.2h.3c.1,0,.1-.1.1-.2a.35.35,0,0,0-.1-.2h-.3l-.1.1V6.2a.1.1,0,0,0,.1.1l.1.1h.2a.2.2,0,0,0,0-.4h-.3c-.1,0-.1.1-.1.2,0-.2-.1-.3-.1-.4,0,.1.1.1.2.1h.1a.1.1,0,0,0,.1-.1H50a1.7,1.7,0,0,1,.7.1A.37.37,0,0,1,51,6c.1,0,.2.1.3.1a.1.1,0,0,1,.1.1.35.35,0,0,1,.2.1c.1,0,.1.1.2.1s.1.1.2.1.3.2.4.3a1.2,1.2,0,0,1,.1,1.5.1.1,0,0,1-.1-.1,2.19,2.19,0,0,1-.5-.3c-.1,0-.1-.1-.2-.1a.35.35,0,0,1-.2-.1.1.1,0,0,1-.1-.1c-.1,0-.2-.1-.3-.1h-.4c-.2,0-.5-.1-.7-.1h-.7c0-.4,0-.4-.1-.4h-.1c0-.1-.1,0-.2,0Zm.3-.3c0-.1,0-.1.1-.1h.1l.1.1v.2l-.1.1h-.1Zm0-.6V6h.2v.2h-.2Zm-.8-1.7h.1v.2h-.1a.35.35,0,0,1-.2-.1A.35.35,0,0,1,48.4,4.4Zm-.7-.2a.35.35,0,0,1,.1-.2c.2.1.2.2.2.2s0,.1-.1.1S47.7,4.3,47.7,4.2ZM47.1,4a.1.1,0,0,1,.1-.1.35.35,0,0,1,.2.1.22.22,0,0,1-.2.2A.35.35,0,0,1,47.1,4Zm-.6-.1a.1.1,0,1,1,.1.1C46.6,4.1,46.5,4,46.5,3.9Zm-.5.2c0-.1-.1-.1-.1-.2s0-.1.1-.1a.1.1,0,0,1,.1.1c.1.1.1.2-.1.2ZM45.3,4c0-.1.1-.1.2-.1h.1v.2l-.1.1A.22.22,0,0,1,45.3,4Zm.3.4h1.6l.6.3.1.1.1.1.2.2.1.1c.1.2.2.3.3.5a1.27,1.27,0,0,1,.1.6,1.27,1.27,0,0,1-.1.6,2.19,2.19,0,0,1-.3.5.1.1,0,0,1-.1.1l-.1.1.1.2-.1.1L48,7.8l-.1-.2V7.5l.1-.1.2-.2.1-.1a1.85,1.85,0,0,0,.2-.7,1.45,1.45,0,0,0-.2-.7.1.1,0,0,0-.1-.1c-.1-.1-.1-.2-.2-.2l-.1-.1c.1-.3.1-.3,0-.3l-.6-.3c-.1,0-.1,0-.2-.1H45.7c-.2.1-.4.1-.6.2H45V4.6a.1.1,0,0,0,.1-.1C45.1,4.6,45.4,4.5,45.6,4.4Zm-.8.2v0l.2-.1C44.9,4.5,44.9,4.5,44.8,4.6Zm.1-.5h0a.1.1,0,0,1,.1.1c0,.1,0,.1-.1.1h-.1a.22.22,0,0,1-.2-.2Zm-.5-1.4a.22.22,0,0,1,.2.2c.1.1.2.2.2.3h-.4Zm-.9.2c.1-.1.2-.2.3-.2v.5h-.4C43.4,3,43.4,2.9,43.5,2.9Zm-.1.4h.5V1.9h-.4V1.6h.4V1.2h.3v.4h.4v.3h-.4V3.3h.5v.3H43.4Zm.1.5h1.1l-.1.1-.2.2c0-.1-.1-.1-.2-.1h-.4C43.7,3.9,43.6,3.9,43.5,3.8Zm0,.7a.1.1,0,0,1,.1-.1.35.35,0,0,1,.2-.1h.5a.35.35,0,0,1,.2.1.1.1,0,0,0,.1.1.6.6,0,0,1,.1.4,6.15,6.15,0,0,0,.1,1.4c0,.2.1.5.1.7s0,.1.1.2v.2l-.4.4c0-.1-.1-.1-.1-.2l.2-.2.2-.2a2.92,2.92,0,0,1-.2-.9,6.6,6.6,0,0,0-.1-1.4.52.52,0,0,0-.2-.4c-.1,0-.1-.1-.2-.1a.37.37,0,0,0-.3.1.76.76,0,0,0-.2.5,5.7,5.7,0,0,1-.1,1.3v.1a2.35,2.35,0,0,1-.2.8l.2.2.2.2-.1.2-.2-.2-.4-.4c0-.1,0-.1.1-.2s.1-.3.1-.4V6a4.87,4.87,0,0,1,.1-1.2A.37.37,0,0,1,43.5,4.5Zm-.2,0h0l.1-.1c0,.1,0,.1-.1.1Zm-.2-.3c0-.1,0-.1.1-.1h.1a.1.1,0,0,1,.1.1c0,.1,0,.1-.1.2h-.1C43.1,4.3,43.1,4.3,43.1,4.2ZM42.5,4V3.9h.1c.1,0,.1.1.1.2a.1.1,0,0,1-.1.1h-.1Zm-.6,0h0a.35.35,0,0,1,.1-.2.1.1,0,0,1,.1.1c0,.1,0,.1-.1.1S41.9,4,41.9,4Zm-.6-.1a.1.1,0,0,1,.1-.1.35.35,0,0,1,.2.1.22.22,0,0,1-.2.2A.35.35,0,0,1,41.3,3.9Zm-.4.3a.1.1,0,0,1-.1-.1V3.9l.1-.1c0,.1.1.1.1.2A.35.35,0,0,1,40.9,4.2Zm-.6.2h0a.1.1,0,0,1-.1-.1c0-.1,0-.1.1-.1s.1.1.1.2C40.4,4.3,40.4,4.4,40.3,4.4Zm-.5.3h0l-.1-.1V4.5h.1a.1.1,0,0,1,.1.1Zm-.4,1.1a2.19,2.19,0,0,1,.3-.5l.1-.1a.35.35,0,0,1,.1-.2l.1-.1a.35.35,0,0,1,.2-.1.76.76,0,0,1,.5-.2c.2-.1.5-.1.7-.2H42a.9.9,0,0,1,.5.1c.2.1.4.1.6.2h.1v.2h-.1a1.42,1.42,0,0,0-.6-.2c-.2,0-.3-.1-.5-.1h-.7a1.45,1.45,0,0,0-.7.2c-.2.1-.3.1-.5.2a.35.35,0,0,1-.2.1l-.1.1-.2.2-.1.1a1.85,1.85,0,0,0-.2.7,1.45,1.45,0,0,0,.2.7l.1.1c.1.1.1.2.2.2l.1.1H40l-.1.1-.1.2.1.4-.1-.1V7.8l.1-.2-.1-.1-.1-.1c-.1-.2-.2-.3-.3-.5a1.27,1.27,0,0,1-.1-.6A.44.44,0,0,1,39.4,5.8ZM39,5.3a.1.1,0,0,1,.1.1.35.35,0,0,1-.1.2.22.22,0,0,1-.2-.2C38.9,5.4,38.9,5.3,39,5.3Zm0,.4c.1,0,.2,0,.2-.1a.6.6,0,0,0-.1.4c0-.1,0-.1-.1-.3,0,.1-.1,0-.2,0h-.1a.2.2,0,0,0,0,.4h.1c.1,0,.1,0,.2-.1l.1-.1v.4a.1.1,0,0,0-.1-.1.35.35,0,0,0-.2-.1h-.1c-.1,0-.1.1-.1.2a.35.35,0,0,0,.1.2h.1c.1,0,.1,0,.2-.1s.1-.1.1-.2c0,.1.1.2.1.3a.35.35,0,0,0-.2-.1c-.1,0-.1,0-.2.1a.1.1,0,0,1-.1.1h-.6a1.48,1.48,0,0,0-.7.1H37c-.1,0-.2.1-.3.1a.76.76,0,0,0-.4.2c-.1,0-.1.1-.2.1-.1.7-.3.8-.5.9a1.48,1.48,0,0,1,0-1.3c.1-.2.3-.3.4-.5.1,0,.1-.1.2-.1s.1-.1.2-.1.3-.1.4-.2.2-.1.3-.1.2-.1.3-.1.5-.1.7,0h.7C38.9,5.7,38.9,5.7,39,5.7Zm0,.4a.35.35,0,0,1-.1.2h-.1V6.1h.1C38.9,5.9,39,6,39,6.1Zm0,.6a.1.1,0,0,1-.2,0V6.5l.1-.1C38.9,6.5,39,6.6,39,6.7ZM38.6,5h0V4.8l.1-.1a.1.1,0,0,1,.1.1c0,.1,0,.1-.1.1Zm-.7-.1a.1.1,0,0,1,.1-.1c.1,0,.1,0,.1.1v.2l-.1.1C38,5,37.9,5,37.9,4.9Zm-.6,0a.35.35,0,0,1,.1-.2.22.22,0,0,1,.2.2c0,.1-.1.1-.2.1S37.3,5,37.3,4.9Zm-.5.3a.22.22,0,0,1-.2-.2c0-.1.1-.1.2-.1a.22.22,0,0,1,.2.2C37,5.2,36.9,5.2,36.8,5.2Zm-.6.2h0a.1.1,0,0,1,0-.2c.1,0,.1.1,0,.2Zm-.5.3h0c-.1-.1-.2-.1-.2-.2a.1.1,0,0,1,.1-.1h.1a.1.1,0,0,1,.1.1C35.8,5.7,35.7,5.7,35.7,5.7Zm-.5.4h0a.1.1,0,0,1-.1-.1c0-.1,0-.1.1-.1h.1a.35.35,0,0,1,.2.1C35.4,6,35.3,6.1,35.2,6.1Zm-.1.9h0a1.16,1.16,0,0,1,.5-.7c.1-.3.4-.4.6-.5h.1a.1.1,0,0,0,.1-.1c.1-.1.3-.1.4-.2s.2-.1.3-.1.2-.1.3-.1.5-.1.7-.1h.6v.1h-.6a1.48,1.48,0,0,0-.7.1h-.3c-.1,0-.2.1-.3.1a.76.76,0,0,0-.4.2h-.1a.1.1,0,0,0-.1.1,1,1,0,0,0-.6.5.91.91,0,0,0-.3.7,1.59,1.59,0,0,0,.3,1.3c0,.1.1.1.1.2l-.1.2-.2.4c-.1-.1-.1-.1-.1-.2l.3-.5a1.61,1.61,0,0,1-.4-.7C35,7.6,35,7.3,35.1,7ZM35,8.7c-.1-.2-.1-.3-.2-.5V7.5c0-.2.1-.3.1-.5v.9a.76.76,0,0,0,.2.4.22.22,0,0,0,.2.2l-.2.3C35.1,8.9,35,8.8,35,8.7Zm0,.5h0l.2.2H35V9.2C35.1,9.3,35.1,9.2,35,9.2Zm-.2.2h0a.35.35,0,0,1-.2-.1.1.1,0,1,1,.2,0C35,9.4,34.9,9.4,34.8,9.4Zm1.1,1c-.1-.1-.1-.3-.2-.3l-.1-.1a.37.37,0,0,0-.3-.1H35c0-.1.1-.2.2-.3a.35.35,0,0,0,.2-.1h.3l.2.2a.37.37,0,0,1,.1-.3c.1.1.2.1.2.2a.1.1,0,0,0,.1.1c0,.1,0,.2.1.2a.76.76,0,0,1-.1.4h-.2C36,10.4,36,10.4,35.9,10.4Zm.5.6h-.2a.1.1,0,0,1-.1-.1c-.1-.1-.2-.3-.1-.3h.2l.1.1.1.1C36.5,10.8,36.5,10.9,36.4,11Zm0-.5h0v-.1l.4-.4c.1-.2.2-.2.2-.3V10h.7c-.1.1-.2.3-.3.4l-.2.1c.1,0,.1.1.2.1a.37.37,0,0,0-.3.1h-.5l-.2-.2Zm1.2,1.4h-.1c-.1,0-.2-.1-.3-.2s-.2-.2-.3-.2l-.3-.3v-.1h.2a.1.1,0,0,1,.1.1c.1.1.2.1.2.2l.1.1c.1.1.2.2.3.2a.6.6,0,0,0,.4.1c.1,0,.2-.1.3-.2s.1-.2.1-.3l.2.2a.35.35,0,0,0,.2.1h.6c.1,0,.1-.1.2-.1a.1.1,0,0,0,.1-.1l.1-.1c0-.1.1-.1.1-.2s.1-.1.1-.2v-.6H40c0,.1.1.2.1.3v.1c.1.1.1.2.2.2s.2.2.3.2a1.49,1.49,0,0,1,.6-.1.37.37,0,0,0,.3-.1.76.76,0,0,0,.4-.2l.1-.1a.37.37,0,0,0,.1-.3c.1.2.3.3.4.4a.6.6,0,0,0,.4.1h.5l.3-.3a.37.37,0,0,0,.1-.3.65.65,0,0,0,.2-.5h.1a.75.75,0,0,0,.1.5.1.1,0,0,0,.1.1c.1.1.1.2.2.2a.35.35,0,0,0,.2.1c.1,0,.1.1.2.1h.3a.76.76,0,0,0,.4-.1.1.1,0,0,0,.1-.1l.3-.3h.1a.76.76,0,0,0,.2.4.1.1,0,0,0,.1.1c.1.1.2.2.3.2h.6a1,1,0,0,0,.5-.4l.1-.1A.6.6,0,0,0,48,10h.1v.4c0,.1,0,.2.1.2a.35.35,0,0,0,.1.2l.1.1c.1,0,.1.1.2.1a.1.1,0,0,1,.1.1h.6c.1,0,.1-.1.2-.1s.1-.1.2-.2h.1c0,.1,0,.2.1.2a.22.22,0,0,0,.2.2c.1,0,.1.1.2.1a.37.37,0,0,0,.3-.1c.1,0,.2-.1.3-.1A.1.1,0,0,0,51,11l.2-.2.1-.1.1-.1v.1l-.1.1c0,.1-.1.1-.1.2s-.2.2-.3.2-.2.1-.3.2h-.4c-.1,0-.2,0-.2-.1h-.1a.52.52,0,0,1-.2-.4c-.1,0-.1.1-.2.1s-.1.1-.2.1H48.2l-.2-.2a.37.37,0,0,1-.1-.3v-.1l-.1.1V11a.76.76,0,0,1-.5.2h-.6c-.1,0-.2-.1-.3-.2l-.3-.3-.1.2-.1.1a.1.1,0,0,0-.1.1H45c-.1,0-.2-.1-.3-.1s-.1-.1-.2-.1-.2-.1-.2-.2l-.2.2L44,11c-.1.1-.2.1-.3.2h-.9a1.38,1.38,0,0,1-.4-.3l-.1.1-.2.2a.1.1,0,0,0-.1.1c-.1.1-.2.1-.4.2h-.8a.76.76,0,0,1-.4-.2l-.1-.1-.1-.1c0,.1,0,.1-.1.2s-.1.1-.1.2l-.2.2h-1c-.1,0-.1,0-.2-.1s-.1-.1-.2-.1,0,.1-.1.2a.22.22,0,0,1-.2.2.1.1,0,0,0-.1.1.37.37,0,0,0-.3.1C37.7,11.9,37.6,11.9,37.6,11.9Zm12.2-.2h-.2a.1.1,0,0,0,.1-.1Zm-1.6-.3h-.5c.1,0,.2-.1.3-.2l.1-.1c0,.1.1.1.1.2S48.1,11.3,48.2,11.4Zm-1.9-.3h-.5a.22.22,0,0,0,.2-.2C46.1,11,46.2,11,46.3,11.1ZM44.4,11h-.6c.1-.1.2-.1.3-.2S44.3,10.9,44.4,11Zm-2,.1h-.5c.1,0,.1-.1.2-.1a.1.1,0,0,1,.1-.1Zm-1.8.2H40l.1-.1c.1-.1.1-.1.1-.2C40.4,11.2,40.5,11.2,40.6,11.3Zm-1.9.3h-.4a.35.35,0,0,0,.1-.2h.1C38.6,11.6,38.7,11.6,38.7,11.6Zm-.8.6c-.1,0-.1.1-.2,0s.1-.1.1-.2.2-.1.3-.1h2a.9.9,0,0,0,.5-.1h.3a.6.6,0,0,0,.4-.1h6c.2,0,.4.1.6.1h.6a.37.37,0,0,1,.3.1h.8l.4.1.3.1a.35.35,0,0,1,.2.1c0,.1-.1.1-.2,0s-.2,0-.2-.1-.2-.1-.4-.1h-.8a.37.37,0,0,1-.3-.1h-.5c-.2,0-.4-.1-.6-.1H41.9a.75.75,0,0,0-.5.1h-.2a.9.9,0,0,0-.5.1h-.6a.37.37,0,0,0-.3.1h-.7l-.2.1h-1Zm.5.7h-.2l.1-.1h.3l-.1.1Zm1,1.2h-.1c-.1,0-.1,0-.2-.1s-.1,0-.2-.1h-.1c-.1,0-.1-.1-.2-.1s-.2-.1-.2-.2a.22.22,0,0,1,.2-.2.35.35,0,0,1,.2-.1h.1c.1,0,.1,0,.2-.1s.1,0,.2-.1h.1a.37.37,0,0,0,.3-.1h.6a1.09,1.09,0,0,0,.5-.1c.2,0,.5-.1.7-.1h5.8a1.27,1.27,0,0,1,.6.1h.5a.37.37,0,0,1,.3.1h.1c.1,0,.1,0,.2.1h.3c.1,0,.1.1.2.1s.2.1.2.2a.22.22,0,0,1-.2.2c-.1,0-.1.1-.2.1H49c-.1,0-.1,0-.2.1h-.1a.37.37,0,0,0-.3.1H47.2c.2,0,.4-.1.6-.1h.5c.1,0,.2-.1.3-.1h.1c.1,0,.1,0,.2-.1H49a.1.1,0,0,0,.1-.1h-.2c-.1,0-.1,0-.2-.1h-.1c-.1,0-.2-.1-.3-.1h-.5c-.2,0-.4-.1-.6-.1H41.4a1.48,1.48,0,0,0-.7.1.9.9,0,0,0-.5.1h-.6a.37.37,0,0,0-.3.1h-.1c-.1,0-.1,0-.2.1s-.1,0-.2.1h0c.1,0,.1,0,.2.1s.1,0,.2.1h.1a.37.37,0,0,1,.3.1h.6a1.09,1.09,0,0,1,.5.1,1.7,1.7,0,0,1,.7.1h-.6a.6.6,0,0,1-.4-.1h-1ZM49.8,26.3h0l.5-.1v.1a.1.1,0,0,0-.1.1v.2a.1.1,0,0,0,.1.1v.1h-.5v-.1a.1.1,0,0,0,.1-.1l-.1-.3Zm.6.6c.1,0,.1,0,.1-.1v-.2h.7l-.2.3-.3.4-.5.5-.2-.1h-.2l-.3.3-.2.2v.1l.1.1-.2.2-.1.1.1.3h-.1l-.2.2h-.1v-1h.1a.1.1,0,0,0,.1-.1v-.7c0-.1,0-.1-.1-.1h-.1v-.4a.1.1,0,0,0,.1-.1c.1,0,.1-.1.1-.2h.5v.3h.9Zm-.5,7.4h0v-.2h-.1V34l.2-.1.3-.1v.1s-.1,0,0,.1l.1.2h.1v.1Zm.5-.7s-.1-.1-.1,0l-.3.1-.4.2s-.1.1,0,.1v.2H49a.35.35,0,0,0-.1-.2l-.1-.1V32.7h.1c.1,0,.1,0,.1-.1v-.7c0-.1,0-.1-.1-.1h-.1V30.5h.1l.2.2.1.1.1.2.1.1.1.1-.1.1v.1l.1.1.2.2.2.2H50l.1-.1.6.7.2.2v.1a.37.37,0,0,0,.1.3l-.3.3-.2.2Zm-2.8.2-.3-.2-.2-.1h-.3l-.1.1h-.1l-.3-.3a.1.1,0,0,0-.1-.1.1.1,0,0,1,.1-.1.35.35,0,0,1,.1-.2v-.2l.3-.4.2-.2.2-.2.1.1h.1l.4-.5v-.1l-.1-.1.2-.2.1-.2.1-.2.1-.1a.1.1,0,0,1,.1.1h.1V32h-.2a.1.1,0,0,0-.1.1v.7l.1.1h.2v1.2h-.1a.22.22,0,0,0-.2.2h-.2a.37.37,0,0,1-.3-.1V34C47.7,33.9,47.7,33.8,47.6,33.8Zm-.3.5h-.2l-.2-.1-.1-.1V34h.1l.1-.1v-.2l.1.1.2.1.2.1v.1h-.1v.2C47.2,34.2,47.3,34.3,47.3,34.3Zm-1.6-2.8h-.2a.1.1,0,0,0-.1.1h-.1v-.5h.1a.1.1,0,0,0,.1.1h.2a.1.1,0,0,0,.1-.1c0,.2,0,.4-.1.4h0C45.8,31.6,45.7,31.6,45.7,31.5Zm1-3.2h0l.2.3.2.2h.1l.1-.1.5.6.1.2c0,.1-.1.1-.1.2h-.4v-.2c0-.1,0-.1-.1-.1h-.7l-.1.1v.2h-.6c0-.1-.1-.2-.2-.3v-.8h.1c.1,0,.1,0,.1-.1v-.7l.3-.3.1.1.3.4.1.1-.1.1Zm.5-.3h0l.4.3-.1.1h-.1l-.1.1v.1h-.1l-.1-.1-.2-.2H47l.1-.1Zm.2,2h0l-.5.1V30a.1.1,0,0,0,.1-.1v-.2a.1.1,0,0,0-.1-.1v-.1h.5v.1h-.1l.1.4Zm-1.6-1.6h0c-.1,0-.1-.1-.2-.1h-.2a.1.1,0,0,0-.1.1h-.1v-.1c.1,0,.2-.1.3-.2l.1-.1v.4Zm-.2,1.3h0c.1,0,.1,0,.2.1V30a.1.1,0,0,1-.1.1.22.22,0,0,1-.2-.2C45.4,29.8,45.5,29.7,45.6,29.7Zm.4,2.7h-.1a12362528204839,12362528204839,0,0,1-.2-.6H46v-.7c0-.1,0-.1-.1-.1h-.1v-.5c.1-.1.2-.2.2-.3h.6v.2a.1.1,0,0,0,.1.1h.7c.1,0,.1,0,.1-.1v-.2H48c0,.1,0,.1.1.2l-.1.2-.4.5-.2-.1h-.1l-.1.1-.2.2-.2.2v.1l.1.1-.2.2-.3.4-.2.2C46.1,32.4,46.1,32.4,46,32.4Zm.2.5c0,.1,0,.1-.1.2H46a.35.35,0,0,1-.2-.1c0-.1.1-.1.2-.1h.1C46.1,32.7,46.2,32.8,46.2,32.9Zm1-1.3h0l-.1-.1H47l-.1-.1.2-.2.2-.2h.1v.1l.1.1h.1l.1.1-.3.4-.2-.1ZM48.7,28h-.2a.1.1,0,0,0-.1.1h-.1v-.5h.1a.1.1,0,0,0,.1.1h.2a.1.1,0,0,0,.1-.1h.1V28Zm-.1,1.5h.2a.1.1,0,0,1,.1.1v.2a.1.1,0,0,1-.1.1h-.4a.1.1,0,0,1-.1-.1.31.31,0,0,1-.1-.2.37.37,0,0,1,.1-.3h.1C48.5,29.5,48.6,29.5,48.6,29.5Zm-.1,2.6h.2a.1.1,0,0,0,.1-.1h.1v.5h-.1a.1.1,0,0,0-.1-.1h-.2a.1.1,0,0,0-.1.1h-.1V32Zm0,2.2a.35.35,0,0,1,.2-.1c.1,0,.1,0,.2.1v.2c0,.1-.1.1-.2.1s-.1,0-.2-.1v-.1C48.4,34.4,48.5,34.3,48.5,34.3Zm1.4-3.2H50l.3.4-.1.1H50v.1h-.1l-.3-.4v-.1h.1l.2-.1Zm.8,1-.4-.4.1-.1v-.1l-.4-.6h-.1l-.2.1-.1-.1-.2-.2-.1-.1-.1-.2-.1-.1.1-.1a.31.31,0,0,1,.1-.2h.4v.2c0,.1,0,.1.1.1h.7c.1,0,.1,0,.1-.1V30h.6c0,.1,0,.1.1.2l.1.1v.5h-.1a.1.1,0,0,0-.1.1v.6c0,.1,0,.1.1.1h.1a10988913959857.46,10988913959857.46,0,0,0-.2.6.37.37,0,0,0-.3.1Zm-.9-2.4h0l.5-.1v.1a.1.1,0,0,0-.1.1V30a.1.1,0,0,0,.1.1v.1h-.5v-.1a.1.1,0,0,0,.1-.1l-.1-.3Zm1.5,3c.1,0,.1,0,.1.1V33l-.1.1a.2.2,0,0,1,0-.4Zm.2-1.1h0a1.09,1.09,0,0,1-.1-.5.1.1,0,0,0,.1.1h.2a.1.1,0,0,0,.1-.1h.1v.5h-.1a.1.1,0,0,0-.1-.1l-.2.1c.1-.1,0-.1,0,0Zm.3-1.6h0c-.1,0-.2,0-.2-.1v-.2c0-.1.1-.1.2-.1h.1c.1,0,.1.1.1.2Zm0-1.7h-.2a.1.1,0,0,0-.1.1v-.5a.1.1,0,0,0,.1.1h.2a.1.1,0,0,0,.1-.1H52v.5l-.2-.1Zm0-1.7h0c-.1,0-.2,0-.2-.1v-.2c0-.1.1-.1.2-.1h.1c.1,0,.1.1.1.2Zm-.3.3h0v.8h-.1a.1.1,0,0,0-.1.1v.7a.1.1,0,0,0,.1.1h.1v.8a.1.1,0,0,0-.1.1.35.35,0,0,0-.1.2h-.7v-.2c0-.1,0-.1-.1-.1h-.7c-.1,0-.1,0-.1.1v.2h-.4v-.1a.1.1,0,0,0-.1-.1l.1-.1.1-.2.1-.1.2-.2.2-.2.2.1h.1l.5-.5v-.1l-.3-.2.3-.3.3-.4.3-.3Zm-1.4,1.2.1.1h.1l.1.1-.4.3v-.1l-.1-.1h-.1l-.1-.1.3-.4.1.2Zm-1.3-1.6c0,.1-.1.1-.2.1s-.1,0-.1-.1v-.2l.1-.1c.1,0,.1,0,.2.1Zm-.3.4v.4h-.2a.1.1,0,0,0-.1.1v.8l.1.1h.2v1h-.1a.1.1,0,0,0-.1.1l-.1-.1-.1-.3-.1-.2-.2-.3.1-.1v-.1l-.4-.5h-.4l-.1-.1-.2-.2-.2-.2c.1-.1.1-.2.2-.3h.7c.1,0,.1,0,.1-.1v-.2h.6v.1c0-.1.1,0,.3.1Zm-1.1-.3h0l-.5.1c0-.1.1-.1.1-.2s.1-.2.1-.3h.3v.1h-.1l.1.3Zm-.5-1.1a1.88,1.88,0,0,1-.2.8,4.88,4.88,0,0,0-.3.7,1.38,1.38,0,0,1-.3.4l-.3.3-.1.1c-.2.1-.4.3-.6.3s-.3.1-.4.1H44a.37.37,0,0,1-.3-.1c-.1,0-.1,0-.2-.1h-.1a2.09,2.09,0,0,1-.6-.4c-.2-.1-.3-.3-.5-.5-.3.1-.3,0-.4-.1a3.13,3.13,0,0,1-.5-1,3.4,3.4,0,0,1-.1-1,3.08,3.08,0,0,1,.1-1,3.13,3.13,0,0,1,.5-1c.1-.1.1-.2.2-.2.1-.2.3-.3.5-.5a2.09,2.09,0,0,1,.6-.4h.1c.1,0,.1-.1.2-.1a.37.37,0,0,0,.3-.1h.7c.1,0,.3.1.4.1l.6.3.1.1.3.3c.1.1.2.3.3.4a4.88,4.88,0,0,1,.3.7,3.09,3.09,0,0,1,.2.8v.5A.73.73,0,0,1,46.9,25.5ZM44,28.6v3a4.3,4.3,0,0,1-.2,1.2l-.3.6c-.1.1-.1.2-.2.3l-.1.1V28.2h.1c.1,0,.1,0,.2.1a.37.37,0,0,1,.3.1C43.9,28.5,43.9,28.6,44,28.6Zm-1.8-.9v7.2h-.1c-.1.1-.1.1-.2.1s-.2.1-.3.1-.1.1-.2.1-.2.1-.3.1V25.4l.3,1.2a1.79,1.79,0,0,0,.5.7c.1.2.1.3.3.4Zm1.6-13.6H40.7a.9.9,0,0,1-.5-.1h-.6a.37.37,0,0,1-.3-.1h0c.1,0,.2-.1.3-.1h.6a.6.6,0,0,0,.4-.1c.2,0,.5-.1.7-.1h6.2a.76.76,0,0,1,.4.1h.5c.1,0,.2.1.3.1h-.1c-.1,0-.2,0-.2.1h-.5c-.2,0-.4.1-.6.1H43.8ZM36,34a2.51,2.51,0,0,1-.4-.7c0-.1-.1-.1-.1-.2a4.06,4.06,0,0,1-.4-1.9V25.1H36Zm2.1,1.5c-.2,0-.3-.1-.5-.1s-.1-.1-.2-.1-.2-.1-.3-.2A.1.1,0,0,1,37,35V25.1h1.1Zm-3-10.7V14.5H44v6.8h-.2a.37.37,0,0,0-.3.1c-.1,0-.1,0-.2.1h-.1l-.6.3c-.1.1-.2.1-.3.2h-.8V19.3h.3V18h-.6v-.8h.3v-.7h-.3v.2H41v-.2h-.3v.2h-.2v-.2h-.3v.7h.3V18H40V16.2h.3v-.8H40v.2h-.2v-.2h-.4v.2h-.2v-.2h-.4v.8h.3V18h-.4v-.8H39v-.7h-.3v.2h-.2v-.2h-.3v.2H38v-.2h-.3v.7H38V18h-.6v1.3h.3V22H37v1.5h4.4a5.07,5.07,0,0,0-.2,1.3ZM41,20.3v.6h-.5v-.6a.27.27,0,0,1,.3-.3C40.9,20,41,20.2,41,20.3Zm-1,2.4v.8h-.8v-.9c0-.1.1-.1.1-.2a.31.31,0,0,1,.2-.1h.2a.22.22,0,0,1,.2.2C40,22.5,40,22.6,40,22.7Zm-1.3-2.4v.6h-.5v-.6c0-.1,0-.2.1-.2a.35.35,0,0,1,.2-.1h.1c.1,0,.1.1.2.1A.31.31,0,0,0,38.7,20.3Zm1.4,4.8V35.6h-.9V25Zm9.3,10.8h0a.35.35,0,0,0-.2.1h-.1c-.1,0-.1,0-.2.1h-.1c-.1,0-.2.1-.3.1h-.1c-.1,0-.1,0-.2.1H48c-.2.1-.4.1-.6.2h-.6a.37.37,0,0,0-.3.1h-.7a1.27,1.27,0,0,0-.6.1H43.4a1.27,1.27,0,0,1-.6-.1.9.9,0,0,1-.5-.1h-.7a1.85,1.85,0,0,1-.7-.2c-.2,0-.3-.1-.5-.1h-.3c-.1,0-.1,0-.2-.1h-.1c-.1,0-.2-.1-.3-.1h-.1c-.1,0-.1,0-.2-.1s-.1,0-.2-.1h1.4a.9.9,0,0,0,.5-.1c.2-.1.5-.1.7-.2s.2-.1.3-.1.1-.1.2-.1.1-.1.2-.1.3-.2.5-.3l.6-.6.1-.1c.1-.1.2-.2.2-.3s.2-.3.3-.5a1.69,1.69,0,0,0,.3-1,2.35,2.35,0,0,0,.2.8c.1.1.1.3.2.4a1,1,0,0,0,.4.5l.6.6.1.1c.1.1.2.1.3.2s.2.1.3.2a.1.1,0,0,1,.1.1c.1,0,.1.1.2.1s.1.1.2.1.1,0,.2.1h.2a1.27,1.27,0,0,0,.6.1h1.2c.2.2.2.1.3.2h0a.1.1,0,0,0,.1-.1Zm3.7-4.7v.6a3.26,3.26,0,0,1-.4,1.4c0,.1-.1.2-.1.3a4.23,4.23,0,0,1-.5.7l-.2.2c-.1.1-.2.1-.2.2l-.1.1-.1.1c-.3.2-.4.2-.5.2s-.2.1-.3.2-.1.1-.2.1-.3.1-.5.1a.76.76,0,0,0-.4.1H48c-.2,0-.4-.1-.6-.1s-.1,0-.2-.1-.1,0-.2-.1-.1-.1-.2-.1h-.1a.35.35,0,0,1-.2-.1c-.1-.1-.2-.1-.3-.2s-.2-.1-.3-.2l-.1-.1c-.2-.2-.5-.4-.6-.7a1.61,1.61,0,0,1-.4-.7,1.42,1.42,0,0,1-.2-.6,2.77,2.77,0,0,1-.1-.9v-3h.3c.1,0,.3-.1.4-.1s.1,0,.2-.1v.1c0,.1,0,.1.1.1h.2v.8a.46.46,0,0,0-.3.5c0,.2.1.4.3.4v.5h-.2c-.1,0-.1,0-.1.1v.6a.1.1,0,0,0,.1.1h.2a.76.76,0,0,0,.1.4c0,.1,0,.2.1.2v.1a.5.5,0,0,0,0,.6l.1.1h.3c.1.1.2.3.3.4s.2.1.2.2l-.1.2v.1l.3.1.2.1.1.1a.1.1,0,0,0,.1-.1l.1-.2c.1,0,.3.1.4.1h.2v.1a.22.22,0,0,0,.2.2h.5a.1.1,0,0,0,.1-.1l.2-.2h.7l.1.2.1.1.6-.3s.1-.1,0-.1V34a.1.1,0,0,0,.1-.1l.3-.3c.1-.1.1-.2.2-.3h.2a.22.22,0,0,0,.2-.2.35.35,0,0,1,.1-.2c0-.1,0-.2-.1-.2a.1.1,0,0,0-.1-.1c0-.1.1-.2.1-.4v-.3h.2c.1,0,.1,0,.1-.1v-.6c0-.1,0-.1-.1-.1h-.2v-.5h.1a.5.5,0,0,0,0-.8h-.1V29h.2c.1,0,.1,0,.1-.1v-.7c0-.1,0-.1-.1-.1h-.2v-.8h.1a.5.5,0,0,0,0-.8c-.1,0-.1-.1-.2-.1h-.3a.1.1,0,0,0-.1.1.35.35,0,0,0-.1.2h-.7v-.2c0-.1,0-.1-.1-.1h-.8v.3h-.5a.35.35,0,0,0-.1-.2l-.1-.1h-.4a.22.22,0,0,0-.2.2v.1h-.6v-.2c0-.1,0-.1-.1-.1H47a.37.37,0,0,1,.1-.3c0-.2.1-.4.1-.6h5.9Zm0-6.4H47.2a1.27,1.27,0,0,0-.1-.6,1.45,1.45,0,0,0-.2-.7c-.1-.2-.1-.3-.2-.4s-.2-.3-.3-.5-.2-.3-.3-.4-.2-.2-.3-.2l-.1-.1-.6-.3c-.1,0-.3-.1-.4-.1h-.3V14.7h8.8Zm2.2-4.1L55,21.9V22h-.3l-.6-1.1v-.1l.4-.1.2.4.2.4.2-.9Zm1.2,1.2h-.8V20.7h.4v1.1h.4Zm1.2-1h-.4V21l-.1.9V22h-.3v-.1l.1-1h-.3v-.2h1v.2Zm1.2.5h0a.35.35,0,0,1-.1.2h-.2l.1.1v.1l.1.2v.2h-.4V22l-.1-.3v-.1l-.2.4v.1h-.3V22l.1-.4L58,21v-.2h.6l.1.1C58.9,21.2,58.9,21.3,58.9,21.4Zm1.4.2-.1,1.2v.1H60l-.2-.1v-.3l-.1-.1-.2-.1h-.1l-.1.1-.1.1-.2-.1.1-.1.1-.1.1-.1.1-.1.1-.1.2-.2.2-.2ZM46,35.8h-.4a.6.6,0,0,0-.4.1c-.1,0-.2,0-.2.1s-.3.2-.4.3a.1.1,0,0,0-.1.1h-.2V36h.1c.1,0,.1,0,.2-.1a.76.76,0,0,0,.4-.2.73.73,0,0,0,.2-.6,1.42,1.42,0,0,0-.2-.6c-.1-.1-.2-.2-.3-.2V34h-.1a.31.31,0,0,0-.2.1V34c0-.1-.1-.1-.2-.2l-.1.1c0,.1-.1.1-.1.2h-.5c.1.1.1.1.1.2l-.1.1c-.1.1-.2.1-.2.2s-.1.1-.1.2v.6c0,.1.1.1.1.2s.1.2.2.2.2.1.3.2.2.1.3.1v.4c-.1,0-.2-.1-.3-.2s-.2-.2-.3-.2-.1-.1-.2-.1h-.1a1.27,1.27,0,0,0-.6-.1H42l.1.1c.2.1.3.3.5.4a.76.76,0,0,0,.5.2h1.1a.6.6,0,0,1-.1.4h.1a.1.1,0,0,0,.1-.1v-.3h1.4c.1,0,.2-.1.3-.1l.3-.3.1-.1h-.1C46.3,35.8,46.2,35.8,46,35.8Zm-1.9,0h0c-.2,0-.3,0-.3-.1s-.1-.1-.2-.1l-.1-.1a.52.52,0,0,1-.2-.4V35a.37.37,0,0,1,.1-.3c0-.1.1-.1.1-.2s.2-.1.3-.2v-.2h.3a3980657295328.31,3980657295328.31,0,0,0,.2-.2c0,.1.1.1.2.2s.1,0,.2-.1v.2a1.38,1.38,0,0,1,.4.3c0,.1.1.1.1.2a.9.9,0,0,1-.1.5,1.38,1.38,0,0,1-.4.3c-.1,0-.1,0-.2.1S44.2,35.8,44.1,35.8ZM59.5,22.1l.2.1.1.1.1-.5-.2.2ZM48.6,12.2h0c-.1,0-.2,0-.2.1s-.1.1-.1.2,0,.2.1.2h.2c.1,0,.2,0,.2-.1s.1-.1.1-.2,0-.1-.1-.2Zm0,.4h0l-.1-.1v-.1l.1-.1c.1,0,.1,0,.1.1A.35.35,0,0,1,48.6,12.6Zm-2.8-.7h-.2c-.1,0-.2.1-.2.3s.1.3.2.3h.1a.37.37,0,0,0,.1-.3Q46,11.9,45.8,11.9Zm-.1.3-.1.1-.1-.1a.1.1,0,0,1,.2,0c0-.1.1-.1,0,0ZM43.5,25.1a.1.1,0,0,0-.1-.1l.1.1a.3.3,0,0,0,0-.4h-.1a.1.1,0,0,1,.1-.1.1.1,0,0,0,.1-.1h.3a.37.37,0,0,0-.1-.3c-.1-.1-.2-.2-.3-.1a.1.1,0,0,0-.1.1.94.94,0,0,0-.1-.9v0a.94.94,0,0,0-.1.9c-.2-.2-.5.1-.5.4H43c.1,0,.1.1.2.2h-.1c-.1,0-.1.2,0,.3H43c0,.1-.1.2-.2.3h.6C43.6,25.3,43.5,25.2,43.5,25.1ZM47.6,12h-.9a.37.37,0,0,0-.3.1l-.1.1c0,.1,0,.2.1.2s.1.1.2.1h.9a.27.27,0,0,0,.3-.3C47.9,12.1,47.7,12,47.6,12Zm-.1.4h-.9a.1.1,0,0,1-.1-.1c0-.1.1-.1.2-.1h1a.1.1,0,0,1,.1.1A.37.37,0,0,1,47.5,12.4ZM45.6,24.2a.19.19,0,0,0-.3,0,.92.92,0,0,0-.2-1c-.1.1-.1.1-.1.3a.85.85,0,0,0,0,.7.25.25,0,0,0-.4.1.37.37,0,0,0-.1.3h.3c.1,0,.1.1.2.2h-.1c-.1,0-.1.2,0,.3H45c0,.1-.1.2-.2.3H45c.1,0,.1,0,.2.1.1-.1.2-.1.4,0-.1-.1-.1-.2-.2-.3h.1c.1,0,.1-.2,0-.3h-.1a.22.22,0,0,1,.2-.2h.2v-.1C45.7,24.3,45.7,24.2,45.6,24.2Zm.2-.9h0c-.1-.1-.1-.2-.2-.3a2.65,2.65,0,0,0-.6-.5c-.1-.1-.3-.1-.4-.2h-.7a.37.37,0,0,0-.3.1c-.1,0-.1.1-.2.1h-.1c-.2.2-.5.4-.6.6a3.7,3.7,0,0,0-.5,1.1c0,.2-.1.5-.1.7a1.7,1.7,0,0,0,.1.7,2.22,2.22,0,0,0,.5,1.1c.2.2.4.5.6.6a.1.1,0,0,1,.1.1c.1,0,.1.1.2.1s.2.1.3.1h.7a.76.76,0,0,0,.4-.2,1.47,1.47,0,0,0,.6-.5c0-.1.1-.1.1-.2v-.1c.1-.2.2-.3.3-.5a3.13,3.13,0,0,0,0-2.2A1.42,1.42,0,0,0,45.8,23.3Zm.2,2a1.4,1.4,0,0,1-.3.9v.1a.35.35,0,0,1-.1.2,1.7,1.7,0,0,1-.6.6c-.1.1-.2.1-.4.2h-.7c-.1,0-.2-.1-.3-.1s-.1-.1-.2-.1a.1.1,0,0,1-.1-.1,1.34,1.34,0,0,1-.6-.7,3.31,3.31,0,0,1-.4-1.5,2.41,2.41,0,0,1,.4-1.5,4.35,4.35,0,0,1,.6-.7.1.1,0,0,0,.1-.1c.1,0,.1-.1.2-.1s.2-.1.3-.1h.7a.76.76,0,0,1,.4.2c.2.2.5.4.6.6a.35.35,0,0,0,.1.2v.1l.3.9v.4C46.1,25.1,46.1,25.2,46,25.3Zm-1.4.6h-.2v-.6a.76.76,0,0,0-.2-.4l-.1.1a1,1,0,0,0-.1.9.31.31,0,0,0-.2-.1.45.45,0,0,0-.3.4h.3a.22.22,0,0,1,.2.2h-.1a.1.1,0,0,0-.1.1v.1a.1.1,0,0,0,.1.1H44c0,.1-.1.2-.2.3h.4a.35.35,0,0,1,.2-.1h.2c-.1-.1-.1-.2-.2-.3h.1a.1.1,0,0,0,.1-.1v-.1a.1.1,0,0,0-.1-.1h-.1c0-.1.1-.1.2-.2h.3C44.8,26.1,44.7,25.9,44.6,25.9ZM39.7,12.2h0c-.1,0-.1-.1-.2-.1s-.2,0-.2.1a.35.35,0,0,0-.1.2c0,.1,0,.1.1.2s.1.1.2.1h.2c.1,0,.1-.1.1-.2S39.8,12.3,39.7,12.2Zm0,.4h0c-.1,0-.2,0-.2-.1a.1.1,0,0,1,.1-.1h.1v.2ZM44.5,35a1.08,1.08,0,0,0-.1-.6c0-.1-.1-.1-.1-.2a.1.1,0,0,0-.1.1,1.32,1.32,0,0,0,0,1.4c.1,0,.1-.1.2-.2A4.33,4.33,0,0,0,44.5,35ZM29.1,21.3h0c-.1-.1-.1-.1-.2-.1h-.1l.1.2v.2H29l.1-.1v-.2Zm12.4-9.4h0l-.8.1h-.1a.3.3,0,0,0,0,.6h.1l.7-.1h.1a.32.32,0,0,0,.3-.3C41.8,12,41.7,11.8,41.5,11.9Zm0,.4h0l-.8.1h-.1c-.1,0-.1,0-.1-.1s0-.1.1-.1h.1l.7-.1h.1c.1,0,.1,0,.1.1S41.6,12.3,41.5,12.3Zm3.2-.6H43.5c-.1,0-.2,0-.2.1s-.1.1-.1.2,0,.2.1.2.1.1.2.1h1.2c.1,0,.2-.1.3-.2v-.2C44.9,11.8,44.8,11.7,44.7,11.7Zm0,.5H43.5a.1.1,0,0,1,0-.2h1.2a.1.1,0,0,1,.1.1Zm-2.1-.4a.3.3,0,1,0,.3.3A.45.45,0,0,0,42.6,11.8Zm0,.4a.1.1,0,0,1-.1-.1c0-.1,0-.1.1-.1s.1,0,.1.1A.1.1,0,0,1,42.6,12.2Z" transform="translate(-27.3 -1)"/><path class="cls-1" d="M29.1,22.8h0v.3h-.5c-.1.1-.2.2-.3.2l-.1.1c-.1.1-.2.2-.1.4s.1.2.3.3a1.55,1.55,0,0,0,.8.2h.1v1.9h.1Z" transform="translate(-27.3 -1)"/><path class="cls-1" d="M33.2,24.2c-.2.2-.4.3-.6.5s-.2.1-.3.2-.1.1-.2.1a.35.35,0,0,0-.2.1h-.1c-.1,0-.1.1-.2.1h-.3a.1.1,0,0,0-.1.1h-.1c-.1,0-.1.1-.2.1h-.1a.31.31,0,0,0-.2.1h-.2c-.1,0-.1,0-.2.1h-.1a.35.35,0,0,0-.2.1c-.1,0-.1,0-.2.1a.1.1,0,0,0-.1.1,31469859094509.05,31469859094509.05,0,0,0-.4.2c-.1,0-.1,0-.2.1s-.3.1-.5.2-.2.1-.3.1a4.35,4.35,0,0,0-.7.6c.1.4.1.9.2,1.3a1.76,1.76,0,0,1,.5-.4,2,2,0,0,1,.8-.4h.1a.35.35,0,0,0,.2-.1.35.35,0,0,0,.2-.1h.1c.1,0,.1,0,.2-.1a.35.35,0,0,0,.2-.1h.1c.1,0,.1,0,.2-.1h.2c.1,0,.1,0,.2-.1h.1c.1,0,.2-.1.3-.1a.1.1,0,0,0,.1-.1h.3c.1,0,.1-.1.2-.1h.1a.35.35,0,0,0,.2-.1h.1a.1.1,0,0,0,.1-.1c.1-.1.2-.1.3-.2l.6-.6Z" transform="translate(-27.3 -1)"/><path class="cls-1" d="M28.2,28.5l-.1.1a.78.78,0,0,0-.4.4c.1.2.3.2.4.4a1.07,1.07,0,0,1,.3.5A1.44,1.44,0,0,0,28.2,28.5Z" transform="translate(-27.3 -1)"/><path class="cls-1" d="M32.7,34.4h0l.1-1.3h-.2c-.1,0-.2-.1-.3-.2a.37.37,0,0,1-.1-.3h.1l.1-.1a.1.1,0,0,0-.1-.1H29.1a.1.1,0,0,0-.1.1v.2l.1.1a.76.76,0,0,1-.2.4c-.1,0-.1.1-.2.1h-.2v1.3c-.1,0-.2.1-.4.1h-.3v2.2h.3a2.35,2.35,0,0,1,.8-.2h.7c.1,0,.1,0,.2.1a.35.35,0,0,1,.2.1h.8c.1,0,.2-.1.3-.1h1.1c.1,0,.2.1.3.1a1.88,1.88,0,0,0,.8.2V34.9C33.1,34.5,32.9,34.4,32.7,34.4ZM29.1,33c.1-.1.1-.2.1-.4h2.9a.37.37,0,0,0,.1.3c0,.1.1.1.2.2H29A.1.1,0,0,1,29.1,33Zm-.5.2h4.1v1H28.6Zm2.7,1.2a.35.35,0,0,0-.2.1h-.8c-.1,0-.2,0-.2-.1Zm2,1.9a1.45,1.45,0,0,1-.7-.2c-.1,0-.2-.1-.3-.1H31.2c-.1,0-.2.1-.3.1h-.8c-.1,0-.2,0-.2-.1s-.1,0-.2-.1h-.1c-.1,0-.2,0-.2-.1H29a3.39,3.39,0,0,1-.8.3H28v-.4h.2a2.35,2.35,0,0,1,.8-.2h.7c.1,0,.1,0,.2.1a.35.35,0,0,1,.2.1h.8c.1,0,.2-.1.3-.1h1.1c.1,0,.2.1.3.1a1.85,1.85,0,0,0,.7.2Zm0-.9a1.45,1.45,0,0,1-.7-.2c-.1,0-.2-.1-.3-.1H31.2c-.1,0-.2.1-.3.1h-.8c-.1,0-.2,0-.2-.1s-.1,0-.2-.1h-.1c-.1,0-.2,0-.2-.1H29a3.39,3.39,0,0,1-.8.3H28V35h.2a2.35,2.35,0,0,1,.8-.2h.7c.1,0,.1,0,.2.1a.35.35,0,0,1,.2.1h.8c.1,0,.2-.1.3-.1h1.1c.1,0,.2.1.3.1a1.85,1.85,0,0,0,.7.2Z" transform="translate(-27.3 -1)"/><polygon class="cls-1" points="44.4 13.7 45 13.7 45 18.1 44.4 18.1 44.4 14.7 43.1 16.4 43 16.4 41.6 14.7 41.6 18.1 41 18.1 41 13.7 41.6 13.7 43 15.5 44.4 13.7"/><rect class="cls-1" x="45.9" y="13.7" width="0.6" height="4.4"/><polygon class="cls-1" points="51 13.7 51.6 13.7 51.6 18.1 51.1 18.1 48.2 14.7 48.2 18.1 47.6 18.1 47.6 13.7 48.1 13.7 51 17.1 51 13.7"/><rect class="cls-1" x="52.5" y="13.7" width="0.6" height="4.4"/><path class="cls-1" d="M82.5,17.2,82,17a3.81,3.81,0,0,1-.6-.5,1.42,1.42,0,0,1-.2-.6.91.91,0,0,1,.4-.8,1.22,1.22,0,0,1,.9-.3,1.69,1.69,0,0,1,1,.3v.7a1.59,1.59,0,0,0-1-.5.75.75,0,0,0-.5.1.52.52,0,0,0-.2.4.6.6,0,0,0,.1.4c.1.1.3.2.5.4l.5.3a1.41,1.41,0,0,1,.8,1.2,1.2,1.2,0,0,1-1.3,1.2,1.92,1.92,0,0,1-1.2-.4v-.8a1.43,1.43,0,0,0,1.2.6.76.76,0,0,0,.5-.2.52.52,0,0,0,.2-.4C83.1,17.7,82.9,17.5,82.5,17.2Z" transform="translate(-27.3 -1)"/><polygon class="cls-1" points="56.7 13.7 60.3 13.7 60.3 14.3 58.8 14.3 58.8 18.1 58.2 18.1 58.2 14.3 56.7 14.3 56.7 13.7"/><polygon class="cls-1" points="60.9 13.7 63.4 13.7 63.4 14.3 61.6 14.3 61.6 15.6 63.4 15.6 63.4 16.2 61.6 16.2 61.6 17.6 63.5 17.6 63.5 18.2 61 18.2 61 13.7 60.9 13.7"/><path class="cls-1" d="M91.4,19.1V14.7h1.1a2,2,0,0,1,1.1.3,1,1,0,0,1,.4.9,1.45,1.45,0,0,1-.2.7,1,1,0,0,1-.5.4c.1.1.3.2.4.4a8,8,0,0,0,.6.8,2.09,2.09,0,0,1,.4.6l.2.3H94l-.2-.3v-.1l-.1-.2-.2-.3-.2-.3a.78.78,0,0,0-.4-.4c-.1-.1-.2-.2-.3-.2s-.2-.1-.4-.1H92v1.9Zm.8-3.9H92v1.4h.2a1.48,1.48,0,0,0,.7-.1c.1-.1.2-.1.3-.2s.1-.2.1-.4a.6.6,0,0,0-.1-.4c-.1-.1-.2-.2-.3-.2A5.64,5.64,0,0,0,92.2,15.2Z" transform="translate(-27.3 -1)"/><rect class="cls-1" x="68" y="13.7" width="0.6" height="4.4"/><path class="cls-1" d="M99,14.6a2.52,2.52,0,0,1,1.7.6,2.36,2.36,0,0,1,.7,1.6,2,2,0,0,1-.7,1.6A2.52,2.52,0,0,1,99,19a2.11,2.11,0,0,1-1.6-.6,2.18,2.18,0,0,1-.7-1.6,1.86,1.86,0,0,1,.7-1.6A2.58,2.58,0,0,1,99,14.6Zm0,.6a1.71,1.71,0,1,0,1.2.5A1.66,1.66,0,0,0,99,15.2Z" transform="translate(-27.3 -1)"/><path class="cls-1" d="M68.2,25.7V21.3h1.5a2.65,2.65,0,0,1,1.4.3,2,2,0,0,1,.8.8,2.28,2.28,0,0,1,.3,1.1,1.88,1.88,0,0,1-.2.8,1.79,1.79,0,0,1-.5.7,3,3,0,0,1-.7.5.9.9,0,0,1-.5.1H68.2Zm1.4-3.8h-.8v3.2h.8c.3,0,.6,0,.7-.1a.52.52,0,0,0,.4-.2c.1-.1.2-.1.3-.2a1.66,1.66,0,0,0,.5-1.2,1.29,1.29,0,0,0-.5-1.1c-.1-.1-.3-.2-.4-.3h-.3A5.64,5.64,0,0,0,69.6,21.9Z" transform="translate(-27.3 -1)"/><polygon class="cls-1" points="45.7 20.4 48.2 20.4 48.2 21 46.4 21 46.4 22.3 48.2 22.3 48.2 22.9 46.4 22.9 46.4 24.3 48.3 24.3 48.3 24.9 45.7 24.9 45.7 20.4"/><path class="cls-1" d="M81.8,24.7v.7a4.19,4.19,0,0,1-1.6.4,2.13,2.13,0,0,1-1.2-.3,3,3,0,0,1-.8-.8,2,2,0,0,1-.3-1.1,2,2,0,0,1,.7-1.6,2.52,2.52,0,0,1,1.7-.6,2.82,2.82,0,0,1,1.5.4v.7a2.82,2.82,0,0,0-1.5-.4,1.7,1.7,0,0,0,0,3.4C80.7,25.2,81.2,25.1,81.8,24.7Z" transform="translate(-27.3 -1)"/><rect class="cls-1" x="55.2" y="20.4" width="0.6" height="4.4"/><polygon class="cls-1" points="56.8 20.4 59.3 20.4 59.3 21 57.5 21 57.5 22.3 59.3 22.3 59.3 22.9 57.5 22.9 57.5 24.3 59.4 24.3 59.4 24.9 56.9 24.9 56.9 20.4 56.8 20.4"/><polygon class="cls-1" points="63.5 20.4 64.1 20.4 64.1 24.8 63.6 24.8 60.7 21.4 60.7 24.8 60.1 24.8 60.1 20.4 60.6 20.4 63.5 23.8 63.5 20.4"/><path class="cls-1" d="M96.1,24.7v.7a4.19,4.19,0,0,1-1.6.4,2.13,2.13,0,0,1-1.2-.3,3,3,0,0,1-.8-.8,2,2,0,0,1-.3-1.1,2,2,0,0,1,.7-1.6,2.52,2.52,0,0,1,1.7-.6,2.82,2.82,0,0,1,1.5.4v.7a2.82,2.82,0,0,0-1.5-.4,1.7,1.7,0,0,0,0,3.4C95,25.2,95.6,25.1,96.1,24.7Z" transform="translate(-27.3 -1)"/><rect class="cls-1" x="69.5" y="20.4" width="0.6" height="4.4"/><path class="cls-1" d="M99.8,21.4h.4l2,4.4h-.6l-.6-1.3H99.1l-.5,1.3H98Zm.9,2.5-.7-1.6-.7,1.6Z" transform="translate(-27.3 -1)"/><rect class="cls-1" x="46.2" y="27" width="0.6" height="4.4"/><polygon class="cls-1" points="51.3 27 51.9 27 51.9 31.4 51.4 31.4 48.5 28 48.5 31.4 47.9 31.4 47.9 27 48.4 27 51.3 30.4 51.3 27"/><polygon class="cls-1" points="56.3 27 56.9 27 56.9 31.4 56.4 31.4 53.5 28 53.5 31.4 52.9 31.4 52.9 27 53.4 27 56.3 30.4 56.3 27"/><path class="cls-1" d="M87.3,27.9a2.52,2.52,0,0,1,1.7.6,2.36,2.36,0,0,1,.7,1.6,2,2,0,0,1-.7,1.6,2.52,2.52,0,0,1-1.7.6,2.11,2.11,0,0,1-1.6-.6,2.18,2.18,0,0,1-.7-1.6,1.86,1.86,0,0,1,.7-1.6A2,2,0,0,1,87.3,27.9Zm0,.6a1.71,1.71,0,1,0,1.2.5A1.66,1.66,0,0,0,87.3,28.5Z" transform="translate(-27.3 -1)"/><polygon class="cls-1" points="65.6 27 66.2 27 64.4 31.4 64.3 31.4 62.4 27 63 27 64.3 30.1 65.6 27"/><path class="cls-1" d="M94.9,28h.4l2,4.4h-.6l-.6-1.3H94.2l-.5,1.3h-.6Zm.9,2.5-.7-1.6-.7,1.6Z" transform="translate(-27.3 -1)"/><path class="cls-1" d="M101.3,31.3V32a4.19,4.19,0,0,1-1.6.4,2.13,2.13,0,0,1-1.2-.3,3,3,0,0,1-.8-.8,2,2,0,0,1-.3-1.1,2,2,0,0,1,.7-1.6,2.52,2.52,0,0,1,1.7-.6,2.82,2.82,0,0,1,1.5.4v.7a2.82,2.82,0,0,0-1.5-.4,1.7,1.7,0,0,0,0,3.4C100.2,31.8,100.7,31.7,101.3,31.3Z" transform="translate(-27.3 -1)"/><rect class="cls-1" x="74.7" y="27" width="0.6" height="4.4"/><path class="cls-1" d="M105.8,27.9a2.52,2.52,0,0,1,1.7.6,2.36,2.36,0,0,1,.7,1.6,2,2,0,0,1-.7,1.6,2.52,2.52,0,0,1-1.7.6,2.11,2.11,0,0,1-1.6-.6,2.18,2.18,0,0,1-.7-1.6,1.86,1.86,0,0,1,.7-1.6A2,2,0,0,1,105.8,27.9Zm0,.6a1.71,1.71,0,1,0,1.2.5A1.66,1.66,0,0,0,105.8,28.5Zm.6-1.8-.7.9h-.4l.4-.9Z" transform="translate(-27.3 -1)"/><polygon class="cls-1" points="85 27 85.6 27 85.6 31.4 85.1 31.4 82.2 28 82.2 31.4 81.6 31.4 81.6 27 82.1 27 85 30.4 85 27"/><polygon class="cls-1" points="40.9 26.9 43.4 26.9 43.4 27.5 41.6 27.5 41.6 28.8 43.4 28.8 43.4 29.4 41.6 29.4 41.6 30.8 43.5 30.8 43.5 31.4 41 31.4 41 26.9 40.9 26.9"/></g></svg>