<svg id="FAVICON" xmlns="http://www.w3.org/2000/svg" xmlns:xlink="http://www.w3.org/1999/xlink" viewBox="0 0 53.05 52.41"><defs><linearGradient id="Degradado_sin_nombre_5" x1="3.64" y1="29.49" x2="48.21" y2="29.49" gradientUnits="userSpaceOnUse"><stop offset="0" stop-color="#0057e2"/><stop offset="0.03" stop-color="#0a5bda"/><stop offset="0.31" stop-color="#60818e"/><stop offset="0.55" stop-color="#a4a051"/><stop offset="0.76" stop-color="#d5b526"/><stop offset="0.91" stop-color="#f4c30b"/><stop offset="1" stop-color="#ffc801"/></linearGradient></defs><path d="M41.07,28.56c3.36-2.07,5.07-5.43,5.07-9.93,0-9.21-5.86-14.14-15.57-14.14H3.64v50H32.71c9.79,0,15.5-4.79,15.5-14.29C48.21,34.13,45.57,30.92,41.07,28.56ZM32,44.49H16.64v-9h6v-11h-6v-9H30.18c1.86,0,3.65,1.49,3.65,4.61S32,24.49,30.18,24.49H26.64v11H32c1.83,0,3.66,1.46,3.66,4.6S33.85,44.49,32,44.49Z" transform="translate(-3.64 -2.08)" style="fill:url(#Degradado_sin_nombre_5)"/><path d="M56.45,7.87v7.18a4,4,0,0,1-.67,2.28,4.37,4.37,0,0,1-1.89,1.53,6.81,6.81,0,0,1-2.79.54,6.54,6.54,0,0,1-2.74-.54,4.46,4.46,0,0,1-1.87-1.5,3.89,3.89,0,0,1-.66-2.24v-.66a.27.27,0,0,1,.28-.29H48.9a.27.27,0,0,1,.29.29v.21A1.74,1.74,0,0,0,49.73,16a1.86,1.86,0,0,0,1.37.53A1.94,1.94,0,0,0,52.53,16a1.82,1.82,0,0,0,.55-1.37V12.38c0-.05,0-.08,0-.09s-.06,0-.09,0a3.83,3.83,0,0,1-2.58.83,5,5,0,0,1-2.57-.65A4.59,4.59,0,0,1,46,10.59a5.75,5.75,0,0,1-.6-2.74,6.08,6.08,0,0,1,.48-2.49,4.68,4.68,0,0,1,1.92-2.21,5.75,5.75,0,0,1,3.11-.82,5.83,5.83,0,0,1,3.16.85A4.84,4.84,0,0,1,56,5.53,6.08,6.08,0,0,1,56.45,7.87ZM52.72,9.35a3.16,3.16,0,0,0,.36-1.6,3.34,3.34,0,0,0-.31-1.45,1.85,1.85,0,0,0-1.81-1,1.94,1.94,0,0,0-1.82,1,3.08,3.08,0,0,0-.36,1.5,3,3,0,0,0,.41,1.57,1.93,1.93,0,0,0,1.74,1A1.89,1.89,0,0,0,52.72,9.35Z" transform="translate(-3.64 -2.08)" style="fill:#e7d738;stroke:#5f72be;stroke-width:0.5px"/></svg>