<svg xmlns="http://www.w3.org/2000/svg" viewBox="0 0 147.38 52.19"><g id="TEXTO_BLANCO" data-name="TEXTO BLANCO"><path d="M69.7,5H65.38a0,0,0,0,0,0,0V8.08a0,0,0,0,0,0,.05h3.06c.08,0,.12,0,.12.11v.31c0,.08,0,.11-.12.11H65.38a0,0,0,0,0,0,.05v3.11a0,0,0,0,0,0,0H69.7a.1.1,0,0,1,.11.11v.31a.1.1,0,0,1-.11.11H64.84a.1.1,0,0,1-.11-.11V4.54a.1.1,0,0,1,.11-.11H69.7a.1.1,0,0,1,.11.11v.31A.1.1,0,0,1,69.7,5Z" transform="translate(-3.64 -2.33)" style="fill:#fff"/><path d="M72.86,12.18a2.26,2.26,0,0,1-.93-.88A2.58,2.58,0,0,1,71.6,10V4.54a.1.1,0,0,1,.11-.11h.38a.1.1,0,0,1,.11.11V10a1.85,1.85,0,0,0,.57,1.41,2.28,2.28,0,0,0,3,0A1.88,1.88,0,0,0,76.28,10V4.54c0-.08,0-.11.12-.11h.37c.08,0,.11,0,.11.11V10a2.57,2.57,0,0,1-.32,1.31,2.32,2.32,0,0,1-.93.88,3.25,3.25,0,0,1-2.77,0Z" transform="translate(-3.64 -2.33)" style="fill:#fff"/><path d="M83.72,12.32,82,8.7a.05.05,0,0,0,0,0H79.78a0,0,0,0,0,0,.05v3.58a.1.1,0,0,1-.11.11h-.38a.1.1,0,0,1-.11-.11V4.54a.1.1,0,0,1,.11-.11h2.87A2.06,2.06,0,0,1,83.66,5a2.1,2.1,0,0,1,.59,1.55,2.08,2.08,0,0,1-.45,1.36,1.9,1.9,0,0,1-1.2.69s0,0,0,.05l1.74,3.59a.13.13,0,0,1,0,.06s0,.08-.09.08h-.37A.14.14,0,0,1,83.72,12.32ZM79.73,5V8.12s0,0,0,0h2.28a1.54,1.54,0,0,0,1.14-.44,1.58,1.58,0,0,0,.44-1.15,1.58,1.58,0,0,0-.44-1.16A1.51,1.51,0,0,0,82.06,5H79.78A0,0,0,0,0,79.73,5Z" transform="translate(-3.64 -2.33)" style="fill:#fff"/><path d="M87.09,12.17a2.24,2.24,0,0,1-.92-.91,2.75,2.75,0,0,1-.33-1.35v-3a2.7,2.7,0,0,1,.33-1.35,2.24,2.24,0,0,1,.92-.91,3.07,3.07,0,0,1,2.77,0,2.29,2.29,0,0,1,.94.91,2.7,2.7,0,0,1,.33,1.35v3a2.75,2.75,0,0,1-.33,1.35,2.29,2.29,0,0,1-.94.91,3.16,3.16,0,0,1-2.77,0ZM90,11.41a2,2,0,0,0,.56-1.48v-3A2,2,0,0,0,90,5.43a2,2,0,0,0-1.49-.56A2,2,0,0,0,87,5.43a2,2,0,0,0-.56,1.48v3a1.92,1.92,0,0,0,2,2A2,2,0,0,0,90,11.41Z" transform="translate(-3.64 -2.33)" style="fill:#fff"/><path d="M97.71,5a2.14,2.14,0,0,1,.6,1.58,2.09,2.09,0,0,1-.6,1.56,2.18,2.18,0,0,1-1.58.59H93.76a0,0,0,0,0-.05,0v3.51a.1.1,0,0,1-.11.11h-.38a.1.1,0,0,1-.11-.11V4.52c0-.08,0-.12.11-.12h2.93A2.08,2.08,0,0,1,97.71,5Zm-.45,2.77a1.62,1.62,0,0,0,.44-1.18,1.65,1.65,0,0,0-.44-1.19A1.52,1.52,0,0,0,96.11,5H93.76s-.05,0-.05,0V8.17a0,0,0,0,0,.05.05h2.35A1.52,1.52,0,0,0,97.26,7.77Z" transform="translate(-3.64 -2.33)" style="fill:#fff"/><path d="M104.88,5h-4.32s0,0,0,0V8.08s0,.05,0,.05h3.07a.1.1,0,0,1,.11.11v.31a.1.1,0,0,1-.11.11h-3.07s0,0,0,.05v3.11s0,0,0,0h4.32c.08,0,.11,0,.11.11v.31a.1.1,0,0,1-.11.11H100c-.08,0-.12,0-.12-.11V4.54c0-.08,0-.11.12-.11h4.85c.08,0,.11,0,.11.11v.31A.1.1,0,0,1,104.88,5Z" transform="translate(-3.64 -2.33)" style="fill:#fff"/><path d="M111.39,12.31l-.5-1.52s0,0,0,0h-3.56s0,0,0,0l-.48,1.52a.13.13,0,0,1-.14.09h-.4q-.12,0-.09-.12l2.53-7.76a.14.14,0,0,1,.14-.09h.51a.13.13,0,0,1,.14.09L112,12.28v0s0,.08-.1.08h-.39A.12.12,0,0,1,111.39,12.31Zm-4-2.07a.05.05,0,0,0,0,0h3.19l0,0s0,0,0,0l-1.6-4.95s0,0,0,0a0,0,0,0,0,0,0l-1.61,4.95S107.43,10.23,107.44,10.24Z" transform="translate(-3.64 -2.33)" style="fill:#fff"/><path d="M118.52,4.43h.37c.08,0,.12,0,.12.11v7.75c0,.07,0,.11-.12.11h-.37a.17.17,0,0,1-.14-.08l-4.12-6.69s0,0,0,0a.05.05,0,0,0,0,0v6.65c0,.07,0,.11-.12.11h-.37a.1.1,0,0,1-.11-.11V4.54c0-.08,0-.11.11-.11h.39a.14.14,0,0,1,.13.08l4.12,6.68s0,0,0,0,0,0,0,0V4.54C118.4,4.46,118.44,4.43,118.52,4.43Z" transform="translate(-3.64 -2.33)" style="fill:#fff"/><path d="M65.71,23.59a2.27,2.27,0,0,1-.92-.87,2.52,2.52,0,0,1-.32-1.29V18.18a2.41,2.41,0,0,1,.32-1.28,2.19,2.19,0,0,1,.92-.86,2.86,2.86,0,0,1,1.37-.31,3,3,0,0,1,1.35.3,2.16,2.16,0,0,1,.92.85,2.46,2.46,0,0,1,.32,1.26v0a.16.16,0,0,1,0,.09.11.11,0,0,1-.08,0l-.38,0a.1.1,0,0,1-.11-.11v0a1.81,1.81,0,0,0-.55-1.38,2.28,2.28,0,0,0-2.9,0,1.81,1.81,0,0,0-.55,1.38v3.3a1.81,1.81,0,0,0,.55,1.38,2,2,0,0,0,1.46.52,2,2,0,0,0,1.44-.52,1.81,1.81,0,0,0,.55-1.38v0a.1.1,0,0,1,.11-.11l.38,0c.08,0,.11,0,.11.1a2.52,2.52,0,0,1-.32,1.27,2.25,2.25,0,0,1-.92.86,3.14,3.14,0,0,1-2.72,0Z" transform="translate(-3.64 -2.33)" style="fill:#fff"/><path d="M72.63,23.56a2.18,2.18,0,0,1-.92-.91,2.7,2.7,0,0,1-.33-1.35v-3A2.75,2.75,0,0,1,71.71,17a2.24,2.24,0,0,1,.92-.91,3.16,3.16,0,0,1,2.77,0,2.29,2.29,0,0,1,.94.91,2.75,2.75,0,0,1,.33,1.35v3a2.7,2.7,0,0,1-.33,1.35,2.23,2.23,0,0,1-.94.91,3.07,3.07,0,0,1-2.77,0Zm2.87-.76a2,2,0,0,0,.56-1.48v-3a2,2,0,0,0-.56-1.47A2,2,0,0,0,72,18.3v3A2.09,2.09,0,0,0,75.5,22.8Z" transform="translate(-3.64 -2.33)" style="fill:#fff"/><path d="M83.65,15.82H84a.1.1,0,0,1,.11.11v7.75c0,.08,0,.12-.11.12h-.38a.16.16,0,0,1-.13-.08L79.39,17s0,0,0,0,0,0,0,0v6.64c0,.08,0,.12-.11.12h-.38c-.07,0-.11,0-.11-.12V15.93a.1.1,0,0,1,.11-.11h.39a.19.19,0,0,1,.14.08l4.11,6.69s0,0,0,0a.05.05,0,0,0,0,0V15.93A.1.1,0,0,1,83.65,15.82Z" transform="translate(-3.64 -2.33)" style="fill:#fff"/><path d="M91.24,16.35H86.93s0,0,0,0v3.08s0,0,0,0H90c.07,0,.11,0,.11.12v.3c0,.08,0,.12-.11.12H86.93s0,0,0,0v3.58a.11.11,0,0,1-.12.12H86.4a.11.11,0,0,1-.12-.12V15.93c0-.07,0-.11.12-.11h4.84a.1.1,0,0,1,.11.11v.31C91.35,16.32,91.32,16.35,91.24,16.35Z" transform="translate(-3.64 -2.33)" style="fill:#fff"/><path d="M97.75,16.35H93.43a0,0,0,0,0-.05,0v3.08s0,0,.05,0h3.06a.11.11,0,0,1,.12.12v.3a.11.11,0,0,1-.12.12H93.43s-.05,0-.05,0v3.11a0,0,0,0,0,.05.05h4.32a.1.1,0,0,1,.11.11v.31c0,.08,0,.12-.11.12H92.89c-.07,0-.11,0-.11-.12V15.93a.1.1,0,0,1,.11-.11h4.86a.1.1,0,0,1,.11.11v.31A.1.1,0,0,1,97.75,16.35Z" transform="translate(-3.64 -2.33)" style="fill:#fff"/><path d="M104.33,23.72l-1.74-3.63a.05.05,0,0,0,0,0h-2.15s0,0,0,0v3.58c0,.08,0,.12-.11.12h-.38c-.07,0-.11,0-.11-.12V15.93a.1.1,0,0,1,.11-.11h2.87a2.18,2.18,0,0,1,1.69,3.5,1.9,1.9,0,0,1-1.2.69s0,0,0,.06l1.74,3.59s0,0,0,.06,0,.08-.09.08h-.37A.14.14,0,0,1,104.33,23.72Zm-4-7.32v3.11a0,0,0,0,0,0,0h2.28a1.51,1.51,0,0,0,1.14-.45,1.57,1.57,0,0,0,.44-1.15,1.59,1.59,0,0,0-.44-1.16,1.51,1.51,0,0,0-1.14-.45h-2.28A0,0,0,0,0,100.34,16.4Z" transform="translate(-3.64 -2.33)" style="fill:#fff"/><path d="M111.68,16.35h-4.32s0,0,0,0v3.08s0,0,0,0h3.07c.07,0,.11,0,.11.12v.3c0,.08,0,.12-.11.12h-3.07s0,0,0,0v3.11s0,.05,0,.05h4.32a.1.1,0,0,1,.11.11v.31c0,.08,0,.12-.11.12h-4.85a.11.11,0,0,1-.12-.12V15.93c0-.07,0-.11.12-.11h4.85a.1.1,0,0,1,.11.11v.31C111.79,16.32,111.76,16.35,111.68,16.35Z" transform="translate(-3.64 -2.33)" style="fill:#fff"/><path d="M118.6,15.82H119c.08,0,.12,0,.12.11v7.75a.11.11,0,0,1-.12.12h-.37a.17.17,0,0,1-.14-.08L114.33,17s0,0,0,0,0,0,0,0v6.64a.11.11,0,0,1-.12.12h-.37a.11.11,0,0,1-.12-.12V15.93c0-.07,0-.11.12-.11h.38a.17.17,0,0,1,.14.08l4.12,6.69a0,0,0,0,0,0,0,.05.05,0,0,0,0,0V15.93C118.48,15.86,118.52,15.82,118.6,15.82Z" transform="translate(-3.64 -2.33)" style="fill:#fff"/><path d="M122.39,23.59a2.27,2.27,0,0,1-.92-.87,2.62,2.62,0,0,1-.32-1.29V18.18a2.51,2.51,0,0,1,.32-1.28,2.19,2.19,0,0,1,.92-.86,2.86,2.86,0,0,1,1.37-.31,2.92,2.92,0,0,1,1.35.3,2.16,2.16,0,0,1,.92.85,2.36,2.36,0,0,1,.32,1.26v0a.16.16,0,0,1,0,.09.11.11,0,0,1-.08,0l-.38,0a.1.1,0,0,1-.11-.11v0a1.81,1.81,0,0,0-.55-1.38,2,2,0,0,0-1.44-.52,2.05,2.05,0,0,0-1.46.52,1.81,1.81,0,0,0-.55,1.38v3.3a1.84,1.84,0,0,0,.55,1.38,2,2,0,0,0,1.46.52,2,2,0,0,0,1.44-.52,1.81,1.81,0,0,0,.55-1.38v0a.1.1,0,0,1,.11-.11l.38,0c.08,0,.11,0,.11.1a2.42,2.42,0,0,1-.32,1.27,2.25,2.25,0,0,1-.92.86,2.8,2.8,0,0,1-1.35.31A2.86,2.86,0,0,1,122.39,23.59Z" transform="translate(-3.64 -2.33)" style="fill:#fff"/><path d="M133.29,16.35H129a0,0,0,0,0,0,0v3.08s0,0,0,0H132c.08,0,.11,0,.11.12v.3c0,.08,0,.12-.11.12H129s0,0,0,0v3.11a0,0,0,0,0,0,.05h4.31c.08,0,.12,0,.12.11v.31a.11.11,0,0,1-.12.12h-4.85c-.08,0-.11,0-.11-.12V15.93a.1.1,0,0,1,.11-.11h4.85c.08,0,.12,0,.12.11v.31C133.41,16.32,133.37,16.35,133.29,16.35Z" transform="translate(-3.64 -2.33)" style="fill:#fff"/><path d="M138.55,23.56a2.18,2.18,0,0,1-.92-.91,2.7,2.7,0,0,1-.33-1.35v-3a2.75,2.75,0,0,1,.33-1.35,2.24,2.24,0,0,1,.92-.91,2.94,2.94,0,0,1,1.39-.32,3,3,0,0,1,1.39.32,2.33,2.33,0,0,1,.93.91,2.75,2.75,0,0,1,.33,1.35v3a2.7,2.7,0,0,1-.33,1.35,2.26,2.26,0,0,1-.93.91,2.88,2.88,0,0,1-1.39.33A2.83,2.83,0,0,1,138.55,23.56Zm2.87-.76a2,2,0,0,0,.57-1.48v-3a2,2,0,1,0-4.08,0v3a2.09,2.09,0,0,0,3.51,1.48Z" transform="translate(-3.64 -2.33)" style="fill:#fff"/><path d="M149.57,15.82H150a.1.1,0,0,1,.11.11v7.75c0,.08,0,.12-.11.12h-.38a.16.16,0,0,1-.13-.08L145.31,17s0,0,0,0,0,0,0,0v6.64a.11.11,0,0,1-.12.12h-.37a.11.11,0,0,1-.12-.12V15.93c0-.07,0-.11.12-.11h.38a.17.17,0,0,1,.14.08l4.11,6.69s0,0,0,0a.05.05,0,0,0,0,0V15.93A.1.1,0,0,1,149.57,15.82Z" transform="translate(-3.64 -2.33)" style="fill:#fff"/><path d="M71.72,33.28a2.87,2.87,0,0,1,1.74,2.81,2.94,2.94,0,0,1-1.08,2.46,4.46,4.46,0,0,1-2.82.84H65.28a.2.2,0,0,1-.15-.06.2.2,0,0,1,0-.15V27.69a.17.17,0,0,1,0-.14.2.2,0,0,1,.15-.06h4.15a4.44,4.44,0,0,1,2.85.8,2.88,2.88,0,0,1,1,2.41,2.5,2.5,0,0,1-1.57,2.48C71.65,33.22,71.65,33.25,71.72,33.28Zm-4.67-4v3.15a.07.07,0,0,0,.08.08h2.3a2.15,2.15,0,0,0,1.42-.43,1.5,1.5,0,0,0,.52-1.2,1.56,1.56,0,0,0-.52-1.23,2.1,2.1,0,0,0-1.42-.45h-2.3A.07.07,0,0,0,67.05,29.27ZM71,37.19a1.89,1.89,0,0,0,0-2.59,2.09,2.09,0,0,0-1.43-.47h-2.4s-.08,0-.08.09v3.37a.07.07,0,0,0,.08.08h2.43A2,2,0,0,0,71,37.19Z" transform="translate(-3.64 -2.33)" style="fill:#fff"/><path d="M77.4,39a3.71,3.71,0,0,1-1.52-1.47,4.4,4.4,0,0,1-.54-2.2V31.5a4.19,4.19,0,0,1,.55-2.17,3.75,3.75,0,0,1,1.52-1.46,4.67,4.67,0,0,1,2.25-.52,4.72,4.72,0,0,1,2.27.52,3.75,3.75,0,0,1,1.52,1.46A4.19,4.19,0,0,1,84,31.5v3.87a4.3,4.3,0,0,1-.55,2.2A3.77,3.77,0,0,1,81.93,39a5.19,5.19,0,0,1-4.53,0Zm4-1.85A2.39,2.39,0,0,0,82,35.44v-4a2.45,2.45,0,0,0-.64-1.77,2.55,2.55,0,0,0-3.42,0,2.45,2.45,0,0,0-.64,1.77v4A2.39,2.39,0,0,0,78,37.19a2.52,2.52,0,0,0,3.42,0Z" transform="translate(-3.64 -2.33)" style="fill:#fff"/><path d="M92.63,39.23l-2.24-4.89a.1.1,0,0,0-.1-.07h-2c-.06,0-.09,0-.09.08v4.83a.2.2,0,0,1-.06.15.2.2,0,0,1-.14.06H86.39a.2.2,0,0,1-.14-.06.2.2,0,0,1-.06-.15V27.69a.18.18,0,0,1,.06-.14.2.2,0,0,1,.14-.06h4.68a3.75,3.75,0,0,1,1.83.43,3.12,3.12,0,0,1,1.25,1.22A3.73,3.73,0,0,1,94.59,31,3.24,3.24,0,0,1,94,33a3.14,3.14,0,0,1-1.67,1.15.05.05,0,0,0,0,0,.08.08,0,0,0,0,.07l2.4,4.95a.26.26,0,0,1,0,.1c0,.09-.06.14-.19.14H92.87A.25.25,0,0,1,92.63,39.23Zm-4.47-10v3.39c0,.05,0,.08.09.08H90.8a1.81,1.81,0,0,0,1.31-.48,1.89,1.89,0,0,0,0-2.58,1.77,1.77,0,0,0-1.31-.49H88.25C88.19,29.19,88.16,29.22,88.16,29.27Z" transform="translate(-3.64 -2.33)" style="fill:#fff"/><path d="M98.38,39a3.65,3.65,0,0,1-1.52-1.47,4.4,4.4,0,0,1-.54-2.2V31.5a4.19,4.19,0,0,1,.55-2.17,3.69,3.69,0,0,1,1.52-1.46,4.67,4.67,0,0,1,2.25-.52,4.72,4.72,0,0,1,2.27.52,3.75,3.75,0,0,1,1.52,1.46A4.29,4.29,0,0,1,105,31.5v3.87a4.41,4.41,0,0,1-.55,2.2A3.77,3.77,0,0,1,102.91,39a5.19,5.19,0,0,1-4.53,0Zm4-1.85a2.39,2.39,0,0,0,.64-1.75v-4a2.45,2.45,0,0,0-.64-1.77,2.31,2.31,0,0,0-1.72-.66,2.27,2.27,0,0,0-1.7.66,2.46,2.46,0,0,0-.65,1.77v4a2.39,2.39,0,0,0,.65,1.75,2.24,2.24,0,0,0,1.7.67A2.27,2.27,0,0,0,102.36,37.19Z" transform="translate(-3.64 -2.33)" style="fill:#fff"/><path d="M114.15,27.55a.18.18,0,0,1,.14-.06h1.56a.2.2,0,0,1,.15.06.18.18,0,0,1,.06.14V39.18a.21.21,0,0,1-.21.21h-1.51a.26.26,0,0,1-.24-.14l-4.89-8s0-.05-.07-.05,0,0,0,.08l0,7.92a.2.2,0,0,1-.06.15.2.2,0,0,1-.14.06h-1.57a.18.18,0,0,1-.14-.06.2.2,0,0,1-.06-.15V27.69a.21.21,0,0,1,.2-.2h1.51a.23.23,0,0,1,.24.13l4.88,8s0,.05.07,0,0,0,0-.08V27.69A.18.18,0,0,1,114.15,27.55Z" transform="translate(-3.64 -2.33)" style="fill:#fff"/><path d="M66.81,54a3.57,3.57,0,0,1-1.5-1.4,4.08,4.08,0,0,1-.52-2.09v-4.2a4.08,4.08,0,0,1,.52-2.09,3.57,3.57,0,0,1,1.5-1.4,5.39,5.39,0,0,1,4.47,0,3.49,3.49,0,0,1,1.5,1.34,3.81,3.81,0,0,1,.52,2,.2.2,0,0,1-.06.14.18.18,0,0,1-.14.06l-1.56.09c-.14,0-.21-.07-.21-.19a2.19,2.19,0,0,0-.62-1.62,2.56,2.56,0,0,0-3.32,0,2.16,2.16,0,0,0-.63,1.62v4.33a2.13,2.13,0,0,0,.63,1.6,2.58,2.58,0,0,0,3.32,0,2.15,2.15,0,0,0,.62-1.61q0-.18.21-.18l1.56.06a.18.18,0,0,1,.14.06.14.14,0,0,1,.06.11,3.92,3.92,0,0,1-.52,2,3.58,3.58,0,0,1-1.5,1.35,5.11,5.11,0,0,1-2.23.47A4.74,4.74,0,0,1,66.81,54Z" transform="translate(-3.64 -2.33)" style="fill:#fff"/><path d="M82,42.55a.2.2,0,0,1,.14-.06h1.57a.2.2,0,0,1,.14.06.18.18,0,0,1,.06.14V54.18a.2.2,0,0,1-.06.15.2.2,0,0,1-.14.06H82.09a.2.2,0,0,1-.14-.06.2.2,0,0,1-.06-.15V49.32c0-.06,0-.08-.09-.08H77.47c-.06,0-.09,0-.09.08v4.86a.2.2,0,0,1-.06.15.18.18,0,0,1-.14.06H75.62a.21.21,0,0,1-.21-.21V42.69a.18.18,0,0,1,.06-.14.2.2,0,0,1,.15-.06h1.56a.21.21,0,0,1,.2.2v4.76a.08.08,0,0,0,.09.09H81.8a.08.08,0,0,0,.09-.09V42.69A.18.18,0,0,1,82,42.55Z" transform="translate(-3.64 -2.33)" style="fill:#fff"/><path d="M94.24,44.13a.2.2,0,0,1-.15.06H88.3c-.06,0-.09,0-.09.08v3.18a.08.08,0,0,0,.09.09h3.89a.2.2,0,0,1,.15.06.22.22,0,0,1,0,.14V49a.25.25,0,0,1,0,.15.2.2,0,0,1-.15.06H88.3c-.06,0-.09,0-.09.08V52.6a.08.08,0,0,0,.09.09h5.79a.2.2,0,0,1,.15.06.18.18,0,0,1,.06.14v1.29a.21.21,0,0,1-.21.21H86.44a.2.2,0,0,1-.14-.06.2.2,0,0,1-.06-.15V42.69a.18.18,0,0,1,.06-.14.2.2,0,0,1,.14-.06h7.65a.2.2,0,0,1,.15.06.18.18,0,0,1,.06.14V44A.2.2,0,0,1,94.24,44.13Z" transform="translate(-3.64 -2.33)" style="fill:#fff"/><path d="M104.21,42.49h1.56a.2.2,0,0,1,.15.06.18.18,0,0,1,.06.14V54.18a.21.21,0,0,1-.21.21h-1.56a.17.17,0,0,1-.14-.06.2.2,0,0,1-.06-.15V46.07A.06.06,0,0,0,104,46s0,0-.06,0l-2.12,3.26a.28.28,0,0,1-.24.14h-.78a.28.28,0,0,1-.24-.14l-2.14-3.24s0-.05-.06,0a.07.07,0,0,0,0,.07v8.09a.21.21,0,0,1-.21.21H96.51a.21.21,0,0,1-.21-.21V42.69a.18.18,0,0,1,.06-.14.2.2,0,0,1,.15-.06h1.56a.27.27,0,0,1,.24.13l2.77,4.2a.13.13,0,0,0,.07,0,.07.07,0,0,0,0,0l2.77-4.2A.27.27,0,0,1,104.21,42.49Z" transform="translate(-3.64 -2.33)" style="fill:#fff"/><path d="M108.52,54.33a.2.2,0,0,1-.06-.15V42.69a.18.18,0,0,1,.06-.14.2.2,0,0,1,.14-.06h1.57a.2.2,0,0,1,.14.06.18.18,0,0,1,.06.14V54.18a.2.2,0,0,1-.06.15.2.2,0,0,1-.14.06h-1.57A.2.2,0,0,1,108.52,54.33Z" transform="translate(-3.64 -2.33)" style="fill:#fff"/><path d="M114.44,54.1a3.59,3.59,0,0,1-1.52-1.19,3.11,3.11,0,0,1-.53-1.8v-.43a.21.21,0,0,1,.2-.2h1.51a.2.2,0,0,1,.15.06.18.18,0,0,1,.06.14V51a1.55,1.55,0,0,0,.69,1.3,3.12,3.12,0,0,0,1.91.52,2.34,2.34,0,0,0,1.56-.44,1.41,1.41,0,0,0,.53-1.14,1.24,1.24,0,0,0-.29-.81,2.72,2.72,0,0,0-.82-.6c-.36-.18-.9-.41-1.61-.68a16,16,0,0,1-2-.83,3.87,3.87,0,0,1-1.25-1.06,2.77,2.77,0,0,1-.5-1.68,2.87,2.87,0,0,1,1.09-2.36,4.54,4.54,0,0,1,2.91-.87,5.47,5.47,0,0,1,2.25.44A3.61,3.61,0,0,1,120.34,44a3.13,3.13,0,0,1,.55,1.82v.29a.21.21,0,0,1-.21.21h-1.53a.2.2,0,0,1-.14-.06.2.2,0,0,1-.06-.15V46a1.7,1.7,0,0,0-.66-1.35,2.75,2.75,0,0,0-1.81-.55,2.38,2.38,0,0,0-1.45.39,1.3,1.3,0,0,0-.52,1.11,1.26,1.26,0,0,0,.27.83,2.48,2.48,0,0,0,.82.59c.36.17.92.4,1.68.67a17.21,17.21,0,0,1,1.93.83,3.67,3.67,0,0,1,1.24,1.05,2.6,2.6,0,0,1,.52,1.67,3,3,0,0,1-1.13,2.43,4.81,4.81,0,0,1-3.08.9A5.9,5.9,0,0,1,114.44,54.1Z" transform="translate(-3.64 -2.33)" style="fill:#fff"/><path d="M130.7,42.55a.18.18,0,0,1,.06.14V44a.21.21,0,0,1-.2.2h-3.13c-.06,0-.08,0-.08.09v9.89a.21.21,0,0,1-.21.21h-1.56a.21.21,0,0,1-.21-.21V44.29c0-.06,0-.09-.08-.09h-3a.21.21,0,0,1-.2-.2V42.69a.21.21,0,0,1,.2-.2h8.28A.18.18,0,0,1,130.7,42.55Z" transform="translate(-3.64 -2.33)" style="fill:#fff"/><path d="M139,54.23l-2.25-4.89a.1.1,0,0,0-.1-.07h-2c-.06,0-.09,0-.09.08v4.83a.2.2,0,0,1-.06.15.18.18,0,0,1-.14.06h-1.56a.21.21,0,0,1-.21-.21V42.69a.18.18,0,0,1,.06-.14.2.2,0,0,1,.15-.06h4.67a3.82,3.82,0,0,1,1.84.43,3.16,3.16,0,0,1,1.24,1.22A3.73,3.73,0,0,1,141,46a3.29,3.29,0,0,1-.6,2,3.17,3.17,0,0,1-1.68,1.15.05.05,0,0,0,0,0,.08.08,0,0,0,0,.07l2.4,4.95a.26.26,0,0,1,0,.1c0,.09-.06.14-.18.14h-1.64A.23.23,0,0,1,139,54.23Zm-4.48-10v3.39c0,.05,0,.08.09.08h2.55a1.85,1.85,0,0,0,1.32-.48,1.91,1.91,0,0,0,0-2.58,1.81,1.81,0,0,0-1.32-.49h-2.55C134.58,44.19,134.55,44.22,134.55,44.27Z" transform="translate(-3.64 -2.33)" style="fill:#fff"/><path d="M145.53,54.31a.2.2,0,0,1-.06-.14V49.61a.22.22,0,0,0,0-.1L142,42.72a.22.22,0,0,1,0-.1c0-.09.06-.13.18-.13h1.69a.23.23,0,0,1,.23.15l2.38,4.74s.07,0,.11,0l2.39-4.74a.27.27,0,0,1,.24-.15h1.7a.18.18,0,0,1,.16.06.15.15,0,0,1,0,.17l-3.52,6.79a.26.26,0,0,0,0,.1v4.56a.21.21,0,0,1-.2.2h-1.57A.2.2,0,0,1,145.53,54.31Z" transform="translate(-3.64 -2.33)" style="fill:#fff"/></g><g id="BLANCO"><path d="M41.07,28.56c3.36-2.07,5.07-5.43,5.07-9.93,0-9.21-5.86-14.14-15.57-14.14H3.64v50H32.71c9.79,0,15.5-4.79,15.5-14.29C48.21,34.13,45.57,30.92,41.07,28.56ZM32,44.49H16.64v-9h6v-11h-6v-9H30.18c1.86,0,3.65,1.49,3.65,4.61S32,24.49,30.18,24.49H26.64v11H32c1.83,0,3.66,1.46,3.66,4.6S33.85,44.49,32,44.49Z" transform="translate(-3.64 -2.33)" style="fill:#fff"/><path d="M56.45,7.87v7.18a4,4,0,0,1-.67,2.28,4.37,4.37,0,0,1-1.89,1.53,6.81,6.81,0,0,1-2.79.54,6.54,6.54,0,0,1-2.74-.54,4.46,4.46,0,0,1-1.87-1.5,3.89,3.89,0,0,1-.66-2.24v-.66a.27.27,0,0,1,.28-.29H48.9a.27.27,0,0,1,.29.29v.21A1.74,1.74,0,0,0,49.73,16a1.86,1.86,0,0,0,1.37.53A1.94,1.94,0,0,0,52.53,16a1.82,1.82,0,0,0,.55-1.37V12.38c0-.05,0-.08,0-.09s-.06,0-.09,0a3.83,3.83,0,0,1-2.58.83,5,5,0,0,1-2.57-.65A4.59,4.59,0,0,1,46,10.59a5.75,5.75,0,0,1-.6-2.74,6.08,6.08,0,0,1,.48-2.49,4.68,4.68,0,0,1,1.92-2.21,5.75,5.75,0,0,1,3.11-.82,5.83,5.83,0,0,1,3.16.85A4.84,4.84,0,0,1,56,5.53,6.08,6.08,0,0,1,56.45,7.87ZM52.72,9.35a3.16,3.16,0,0,0,.36-1.6,3.34,3.34,0,0,0-.31-1.45,1.85,1.85,0,0,0-1.81-1,1.94,1.94,0,0,0-1.82,1,3.08,3.08,0,0,0-.36,1.5,3,3,0,0,0,.41,1.57,1.93,1.93,0,0,0,1.74,1A1.89,1.89,0,0,0,52.72,9.35Z" transform="translate(-3.64 -2.33)" style="fill:#fff"/></g></svg>