<svg id="Capa_1" data-name="Capa 1" xmlns="http://www.w3.org/2000/svg" viewBox="0 0 522.35 628.46"><path d="M34.88,477.67V590.76a37.68,37.68,0,0,0,37.66,37.7h377a37.67,37.67,0,0,0,37.63-37.7V477.67A113,113,0,0,0,374.29,364.59h-9.81a9.93,9.93,0,0,0-9.62,9.16,94.25,94.25,0,0,1-187.6,0,9.92,9.92,0,0,0-9.63-9.16H148A113.1,113.1,0,0,0,34.88,477.67Z" style="fill:#fff"/><path d="M261.06,358.7c74.87,0,135.6-69.39,135.6-155S335.93,48.76,261.06,48.76s-135.6,69.39-135.6,155S186.21,358.7,261.06,358.7Zm0-155c35.37,0,64.89-17.89,74.19-42.22,13.92,16.78,22.66,38.06,22.66,61.59a96.86,96.86,0,0,1-193.71,2v-2c0-23.5,61.48-19.31,96.86-19.31Z" style="fill:#fff"/></svg>