<?xml version="1.0" encoding="UTF-8"?>
<svg id="Capa_1" data-name="Capa 1" xmlns="http://www.w3.org/2000/svg" viewBox="0 0 61.91 62.82">
  <defs>
    <style>
      .cls-1 {
        fill: #fff;
        stroke-width: 0px;
      }
    </style>
  </defs>
  <path class="cls-1" d="m56.94,46.85V15.98c4.16-1.82,6.09-6.71,4.3-10.94-1.79-4.23-6.61-6.18-10.78-4.36-1.91.83-3.43,2.37-4.27,4.3H15.71C13.89.77,9.05-1.14,4.9.71S-1.13,7.47.7,11.68c.84,1.93,2.36,3.47,4.27,4.3v30.87c-4.15,1.84-6.04,6.76-4.23,10.97,1.82,4.21,6.65,6.14,10.8,4.29,1.92-.85,3.44-2.41,4.26-4.37h30.34c1.77,4.23,6.59,6.2,10.76,4.4,4.17-1.8,6.11-6.69,4.33-10.93-.82-1.95-2.34-3.52-4.26-4.37h-.03Zm-21.39-15.49l14.89-15.13v30.24l-14.89-15.12Zm-4.59-4.68l-14.9-15.12h29.79l-14.89,15.12Zm-4.61,4.68l-14.89,15.12v-30.24l14.89,15.13Zm4.61,4.66l14.89,15.12h-29.79l14.9-15.12Z"/>
</svg>