<?xml version="1.0" encoding="UTF-8"?>
<svg id="a" xmlns="http://www.w3.org/2000/svg" viewBox="0 0 278.25 74.92">
  <defs>
    <style>
      .cls-1 {
        fill: #fff;
        stroke-width: 0px;
      }
    </style>
  </defs>
  <g>
    <path class="cls-1" d="m83.3,33.43V9.85h-5.12v-1.5h11.86v1.5h-5.09v23.58s-1.65,0-1.65,0Z"/>
    <path class="cls-1" d="m92.08,14.48c0-.91.11-1.75.32-2.53.22-.78.54-1.44.99-2.01s1.01-1,1.7-1.33c.69-.32,1.52-.48,2.47-.48s1.79.16,2.49.48,1.28.77,1.74,1.33.79,1.23,1,2.01c.22.78.32,1.62.32,2.53v12.83c0,.91-.11,1.75-.32,2.53s-.55,1.44-1,2.01c-.45.56-1.03,1-1.74,1.33-.7.32-1.54.48-2.49.48s-1.78-.16-2.47-.48-1.26-.76-1.7-1.33c-.44-.56-.77-1.23-.99-2.01-.21-.78-.32-1.62-.32-2.53v-12.83Zm1.65,12.93c0,1.36.29,2.49.88,3.39s1.57,1.34,2.96,1.34,2.38-.45,2.99-1.34c.61-.9.91-2.03.91-3.39v-13.04c0-1.36-.3-2.49-.91-3.39-.61-.9-1.61-1.34-2.99-1.34s-2.37.45-2.96,1.34c-.59.9-.88,2.03-.88,3.39v13.04Z"/>
    <path class="cls-1" d="m111.03,8.35c1.94,0,3.31.56,4.14,1.67s1.24,2.59,1.24,4.43v2.72c0,2.01-.47,3.5-1.4,4.48s-2.4,1.47-4.41,1.47h-3.12v10.32h-1.65V8.35h5.2Zm-.43,13.26c1.46,0,2.51-.34,3.17-1.02s.99-1.79.99-3.32v-2.94c0-1.36-.27-2.45-.81-3.26s-1.51-1.22-2.92-1.22h-3.55v11.75h3.12Z"/>
    <path class="cls-1" d="m118.84,14.48c0-.91.11-1.75.32-2.53.22-.78.54-1.44.99-2.01s1.01-1,1.7-1.33c.69-.32,1.52-.48,2.47-.48s1.79.16,2.49.48,1.28.77,1.74,1.33.79,1.23,1,2.01c.22.78.32,1.62.32,2.53v12.83c0,.91-.11,1.75-.32,2.53s-.55,1.44-1,2.01c-.45.56-1.03,1-1.74,1.33-.7.32-1.54.48-2.49.48s-1.78-.16-2.47-.48-1.26-.76-1.7-1.33c-.44-.56-.77-1.23-.99-2.01-.21-.78-.32-1.62-.32-2.53,0,0,0-12.83,0-12.83Zm1.65,12.93c0,1.36.29,2.49.88,3.39s1.57,1.34,2.96,1.34,2.38-.45,2.99-1.34c.61-.9.91-2.03.91-3.39v-13.04c0-1.36-.3-2.49-.91-3.39-.61-.9-1.61-1.34-2.99-1.34s-2.37.45-2.96,1.34c-.59.9-.88,2.03-.88,3.39v13.04Z"/>
    <path class="cls-1" d="m132.6,33.43V8.35h1.65v23.58h7.88v1.5h-9.53Z"/>
    <path class="cls-1" d="m144.49,14.48c0-.91.11-1.75.32-2.53.22-.78.54-1.44.99-2.01s1.01-1,1.7-1.33c.69-.32,1.52-.48,2.47-.48s1.79.16,2.49.48c.7.32,1.28.77,1.74,1.33s.79,1.23,1,2.01c.22.78.32,1.62.32,2.53v12.83c0,.91-.11,1.75-.32,2.53s-.55,1.44-1,2.01c-.45.56-1.03,1-1.74,1.33-.7.32-1.54.48-2.49.48s-1.78-.16-2.47-.48-1.26-.76-1.7-1.33c-.44-.56-.77-1.23-.99-2.01-.21-.78-.32-1.62-.32-2.53v-12.83Zm1.65,12.93c0,1.36.29,2.49.88,3.39.59.9,1.57,1.34,2.96,1.34s2.38-.45,2.99-1.34c.61-.9.91-2.03.91-3.39v-13.04c0-1.36-.3-2.49-.91-3.39-.61-.9-1.61-1.34-2.99-1.34s-2.37.45-2.96,1.34c-.59.9-.88,2.03-.88,3.39v13.04Z"/>
    <path class="cls-1" d="m163.56,8.13c.95,0,1.77.16,2.45.48s1.24.77,1.68,1.33c.44.56.76,1.23.97,2.01.2.78.3,1.62.3,2.53v1.86h-1.58v-1.97c0-.67-.07-1.29-.2-1.86-.13-.57-.35-1.08-.66-1.51s-.7-.76-1.18-1-1.06-.36-1.76-.36-1.28.12-1.76.36-.87.57-1.18,1-.53.93-.66,1.51c-.13.57-.2,1.19-.2,1.86v13.04c0,.67.07,1.29.2,1.86.13.57.35,1.07.66,1.49s.7.75,1.18.99c.48.24,1.06.36,1.76.36s1.28-.12,1.76-.36c.48-.24.87-.57,1.18-.99s.53-.91.66-1.49c.13-.57.2-1.19.2-1.86v-5.41h-3.33v-1.51h4.91v6.81c0,.91-.1,1.75-.3,2.53s-.53,1.44-.97,2.01c-.44.56-1,1-1.68,1.33-.68.32-1.5.48-2.45.48s-1.77-.16-2.45-.48-1.24-.76-1.68-1.33c-.44-.56-.76-1.23-.97-2.01-.2-.78-.3-1.62-.3-2.53v-12.83c0-.91.1-1.75.3-2.53s.52-1.44.97-2.01c.44-.56,1-1,1.68-1.33.68-.32,1.5-.48,2.45-.48h0Z"/>
    <path class="cls-1" d="m173.37,8.35v25.08h-1.65V8.35h1.65Z"/>
    <path class="cls-1" d="m181.54,8.13c.95,0,1.77.16,2.45.48s1.24.77,1.68,1.33c.44.56.76,1.23.97,2.01.2.78.3,1.62.3,2.53v2.08h-1.58v-2.19c0-.67-.07-1.29-.2-1.86-.13-.57-.35-1.08-.66-1.51s-.7-.76-1.18-1-1.06-.36-1.76-.36-1.28.12-1.76.36-.87.57-1.18,1-.53.93-.66,1.51c-.13.57-.2,1.19-.2,1.86v13.04c0,.67.07,1.29.2,1.86.13.57.35,1.07.66,1.49s.7.75,1.18.99c.48.24,1.06.36,1.76.36s1.28-.12,1.76-.36c.48-.24.87-.57,1.18-.99s.53-.91.66-1.49c.13-.57.2-1.19.2-1.86v-2.97h1.58v2.87c0,.91-.1,1.75-.3,2.53s-.53,1.44-.97,2.01c-.44.56-1,1-1.68,1.33-.68.32-1.5.48-2.45.48s-1.77-.16-2.45-.48-1.24-.76-1.68-1.33c-.44-.56-.76-1.23-.97-2.01-.2-.78-.3-1.62-.3-2.53v-12.83c0-.91.1-1.75.3-2.53s.52-1.44.97-2.01c.44-.56,1-1,1.68-1.33.68-.32,1.5-.48,2.45-.48Z"/>
    <path class="cls-1" d="m192.03,27.88l-1.25,5.55h-1.5l5.48-25.12h2.4l5.59,25.12h-1.65l-1.25-5.55h-7.82Zm.25-1.43h7.31l-3.69-16.23-3.62,16.23Z"/>
    <path class="cls-1" d="m205.26,33.43V8.35h1.65v23.58h7.88v1.5h-9.53Z"/>
  </g>
  <path class="cls-1" d="m80.81,38.67h4.82v30.7h-4.82s0-30.7,0-30.7Z"/>
  <path class="cls-1" d="m100.73,47.14v22.24h-4.34v-30.7h6.05l4.96,18.38v-18.38h4.3v30.7h-4.96s-6.01-22.24-6.01-22.24Z"/>
  <path class="cls-1" d="m117.39,38.67h14.91v4.39h-5.04v26.31h-4.82v-26.31h-5.04v-4.39h0Z"/>
  <path class="cls-1" d="m143.92,51.61h6.62v4.39h-6.62v8.99h8.33v4.39h-13.16v-30.7h13.16v4.39h-8.33v8.55h0Z"/>
  <path class="cls-1" d="m169.08,69.37c-.06-.2-.12-.4-.18-.57-.06-.18-.11-.39-.15-.66-.04-.26-.07-.6-.09-1.01-.02-.41-.02-.92-.02-1.53v-4.82c0-1.43-.25-2.44-.75-3.03-.5-.58-1.3-.88-2.41-.88h-1.67v12.5h-4.82v-30.7h7.28c2.51,0,4.33.59,5.46,1.75,1.13,1.17,1.69,2.94,1.69,5.31v2.41c0,3.16-1.05,5.23-3.16,6.23,1.23.5,2.07,1.31,2.52,2.43.45,1.13.68,2.49.68,4.1v4.74c0,.76.03,1.42.09,2,.06.57.2,1.15.44,1.73,0,0-4.91,0-4.91,0Zm-5.27-26.32v9.43h1.89c.91,0,1.62-.23,2.13-.7.51-.47.77-1.32.77-2.54v-3.03c0-1.11-.2-1.91-.59-2.41s-1.02-.74-1.86-.74h-2.34Z"/>
  <path class="cls-1" d="m185.74,52.32h6.23v4.39h-6.23v12.67h-4.82v-30.7h12.76v4.39h-7.94v9.25h0Z"/>
  <path class="cls-1" d="m216.56,69.37h-4.87l-.83-5.57h-5.92l-.83,5.57h-4.43l4.91-30.7h7.06l4.91,30.7h0Zm-11.01-9.74h4.65l-2.32-15.53-2.32,15.53h0Z"/>
  <path class="cls-1" d="m236.12,57.93v4.08c0,2.49-.61,4.39-1.82,5.72s-3,2-5.37,2-4.16-.66-5.37-2c-1.21-1.33-1.82-3.24-1.82-5.72v-15.96c0-2.48.61-4.39,1.82-5.72s3-2,5.37-2,4.16.67,5.37,2,1.82,3.24,1.82,5.72v2.98h-4.56v-3.29c0-1.11-.23-1.89-.68-2.35s-1.06-.68-1.82-.68-1.37.23-1.82.68c-.45.45-.68,1.24-.68,2.35v16.58c0,1.11.23,1.89.68,2.33s1.06.66,1.82.66,1.37-.22,1.82-.66c.45-.44.68-1.21.68-2.33v-4.39s4.56,0,4.56,0Z"/>
  <path class="cls-1" d="m247.99,51.61h6.62v4.39h-6.62v8.99h8.33v4.39h-13.16v-30.7h13.16v4.39h-8.33v8.55h0Z"/>
  <path class="cls-1" d="m263.51,45.36c0-2.48.59-4.39,1.78-5.72s2.96-2,5.33-2,4.14.67,5.33,2c1.18,1.33,1.78,3.24,1.78,5.72v.97h-4.56v-1.27c0-1.11-.21-1.89-.64-2.35s-1.02-.68-1.78-.68-1.35.23-1.78.68c-.42.45-.64,1.24-.64,2.35,0,1.05.23,1.98.7,2.79s1.05,1.56,1.75,2.28c.7.72,1.45,1.43,2.26,2.15.8.72,1.56,1.5,2.26,2.35s1.29,1.81,1.75,2.89c.47,1.08.7,2.35.7,3.82,0,2.49-.61,4.39-1.82,5.72-1.21,1.33-3,2-5.37,2s-4.16-.66-5.37-2c-1.21-1.33-1.82-3.24-1.82-5.72v-1.89h4.56v2.19c0,1.11.23,1.89.68,2.33.45.44,1.06.66,1.82.66s1.37-.22,1.82-.66c.45-.44.68-1.21.68-2.33,0-1.05-.23-1.98-.7-2.79-.47-.8-1.05-1.56-1.75-2.28s-1.45-1.43-2.26-2.15c-.8-.72-1.56-1.5-2.26-2.35s-1.29-1.81-1.75-2.89-.7-2.35-.7-3.82h0Z"/>
  <g>
    <path class="cls-1" d="m224.53,8.13c.98,0,1.81.16,2.49.48.68.32,1.24.77,1.67,1.34s.75,1.25.95,2.02c.2.78.3,1.62.3,2.53,0,1.2-.23,2.28-.68,3.26s-1.02,1.9-1.68,2.76c-.67.86-1.4,1.69-2.19,2.49-.79.8-1.52,1.64-2.2,2.51s-1.25,1.8-1.7,2.79c-.45.99-.69,2.1-.72,3.32v.29h8.96v1.5h-10.61v-1.22c0-1.48.23-2.78.68-3.91.45-1.12,1.02-2.14,1.7-3.06s1.42-1.78,2.2-2.58,1.52-1.61,2.2-2.42,1.25-1.67,1.7-2.58.68-1.94.68-3.08c0-1.46-.28-2.65-.84-3.57s-1.56-1.38-2.99-1.38c-.69,0-1.28.13-1.76.38s-.87.6-1.16,1.04c-.3.44-.51.96-.65,1.54-.13.59-.2,1.21-.2,1.88v1.72h-1.58v-1.61c0-.91.1-1.76.3-2.54.2-.79.52-1.47.95-2.04s.99-1.03,1.67-1.36,1.51-.5,2.49-.5h.02Z"/>
    <path class="cls-1" d="m232.52,14.48c0-.93.11-1.78.32-2.56.22-.78.55-1.44,1-2.01.45-.56,1.03-1,1.72-1.31.69-.31,1.52-.47,2.47-.47s1.78.16,2.47.47,1.27.75,1.72,1.31c.45.56.79,1.23,1,2.01.22.78.32,1.63.32,2.56v12.83c0,.91-.11,1.75-.32,2.53s-.55,1.44-1,2.01c-.45.56-1.03,1-1.72,1.33-.69.32-1.52.48-2.47.48s-1.78-.16-2.47-.48-1.27-.76-1.72-1.33c-.45-.56-.79-1.23-1-2.01s-.32-1.62-.32-2.53v-12.83Zm1.65,12.9c0,1.39.3,2.53.9,3.42.6.9,1.59,1.34,2.97,1.34s2.38-.45,2.97-1.34c.6-.9.9-2.04.9-3.42v-13.01c0-1.36-.3-2.49-.9-3.39-.6-.9-1.59-1.34-2.97-1.34s-2.38.45-2.97,1.34c-.6.9-.9,2.03-.9,3.39v13.01Z"/>
    <path class="cls-1" d="m251.68,8.13c.98,0,1.81.16,2.49.48.68.32,1.24.77,1.67,1.34s.75,1.25.95,2.02c.2.78.3,1.62.3,2.53,0,1.2-.23,2.28-.68,3.26s-1.02,1.9-1.68,2.76c-.67.86-1.4,1.69-2.19,2.49-.79.8-1.52,1.64-2.2,2.51s-1.25,1.8-1.7,2.79c-.45.99-.69,2.1-.72,3.32v.29h8.96v1.5h-10.61v-1.22c0-1.48.23-2.78.68-3.91.45-1.12,1.02-2.14,1.7-3.06s1.42-1.78,2.2-2.58c.79-.8,1.52-1.61,2.2-2.42s1.25-1.67,1.7-2.58.68-1.94.68-3.08c0-1.46-.28-2.65-.84-3.57s-1.56-1.38-2.99-1.38c-.69,0-1.28.13-1.76.38s-.87.6-1.16,1.04c-.3.44-.51.96-.64,1.54-.13.59-.2,1.21-.2,1.88v1.72h-1.58v-1.61c0-.91.1-1.76.3-2.54.2-.79.52-1.47.95-2.04s.99-1.03,1.67-1.36,1.51-.5,2.49-.5h0Z"/>
    <path class="cls-1" d="m269.64,27.88v5.55h-1.61v-5.55h-8.56v-1.54l8.31-18.02h1.86v18.06h2.11v1.51h-2.11Zm-8.68-1.51h7.06v-14.98l-7.06,14.98Z"/>
  </g>
  <path class="cls-1" d="m58.89,53.78v-30.87c4.16-1.82,6.09-6.71,4.3-10.94-1.79-4.23-6.61-6.18-10.78-4.36-1.91.83-3.43,2.37-4.27,4.3h-30.48c-1.82-4.21-6.66-6.12-10.81-4.27S.81,14.39,2.64,18.6c.84,1.93,2.36,3.47,4.27,4.3v30.87c-4.15,1.84-6.04,6.76-4.23,10.97,1.82,4.21,6.65,6.14,10.8,4.29,1.92-.85,3.44-2.41,4.26-4.37h30.34c1.77,4.23,6.59,6.2,10.76,4.4,4.17-1.8,6.11-6.69,4.33-10.93-.82-1.95-2.34-3.52-4.26-4.37h-.03Zm-21.39-15.49l14.89-15.13v30.24l-14.89-15.12Zm-4.59-4.68l-14.9-15.12h29.79l-14.89,15.12Zm-4.61,4.68l-14.89,15.12v-30.24l14.89,15.13Zm4.61,4.66l14.89,15.12h-29.79l14.9-15.12Z"/>
</svg>