<?xml version="1.0" encoding="UTF-8"?>
<svg id="Capa_1" data-name="Capa 1" xmlns="http://www.w3.org/2000/svg" viewBox="0 0 250 154.98">
  <defs>
    <style>
      .cls-1 {
        fill: #fff;
      }
    </style>
  </defs>
  <path class="cls-1" d="m208.57,121.51c-4.29.73-2.71-3.61-4.72-5.18h-7.57c-2.02,1.35-.36,5.72-4.74,5.23.22-.73.36-1.35.58-1.94,1.88-5.21,3.83-10.4,5.64-15.64.45-1.29,1.05-1.72,2.41-1.71,1.26,0,1.85.4,2.27,1.58,2.01,5.72,4.12,11.41,6.18,17.12.04.12-.02.28-.04.54Zm-5.18-7.64c-1.09-3.04-2.11-5.89-3.32-9.26-1.2,3.39-2.22,6.26-3.29,9.26h6.61Z"/>
  <path class="cls-1" d="m190.37,106.69c-6.17-3.14-9.78-3.08-12.05-.07-2.15,2.85-2.03,8.31.24,10.96,2.42,2.82,6.25,2.78,11.27-.18.81,2.05.05,3.11-1.96,3.78-4.46,1.49-9.02.74-11.48-2.06-2.57-2.92-3.08-8.74-1.12-12.54,2.76-5.38,9.86-5.59,14.16-3.1.62.36.57,1.86.94,3.21Z"/>
  <path class="cls-1" d="m223.73,102.43v2.21h-6.77v16.85h-2.55v-16.86h-6.75v-2.21h16.06Z"/>
  <path class="cls-1" d="m185.19,2.35c-1.51-.78-3.01-1.57-4.52-2.35,2.4,0,4.8,0,7.2,0,1.04.61,2.08,1.21,3.12,1.82-1.94.18-3.87.36-5.81.54Z"/>
  <path class="cls-1" d="m175.77,24.84c8.41.05,16.81.11,25.22.16-.69,1.27-1.39,2.53-2.08,3.79-7.78-.02-15.55-.03-23.33-.05l.19-3.9Z"/>
  <path class="cls-1" d="m178.07,33.59c4.99-.08,9.98-.17,14.97-.22.22,0,.44.33.66.51-4.6,3.59-11.67,3.46-15.63-.29Z"/>
  <path class="cls-1" d="m189.11,15.64c.05.18.09.36.14.54-2.36.89-4.73,1.75-7.06,2.7-.68.28-1.27.8-1.9,1.22-.35-.15-.7-.31-1.05-.46.79-.5,1.51-1.16,2.37-1.48,2.47-.91,5-1.69,7.5-2.52Z"/>
  <path class="cls-1" d="m196.44,6.72c.31-.28.63-.55.94-.83,1.17,1.89,2.34,3.78,3.5,5.66-.44-.15-.88-.29-1.33-.43.15-2.31-1.35-3.45-3.12-4.4Z"/>
  <path class="cls-1" d="m190.99,6.81c1.21-.03,2.42-.05,3.62-.08-.8.18-1.61.36-2.61.59.29,1.26.59,2.53.88,3.8-.31.04-.62.08-.94.12-.32-1.47-.64-2.95-.96-4.42Z"/>
  <path class="cls-1" d="m201.35,16.24c.24-.04.48-.09.71-.13.03,1.49.06,2.99.1,4.48-.13-.2-.26-.39-.39-.58-.14-1.26-.28-2.51-.43-3.77Z"/>
  <path class="cls-1" d="m201.89,15.2c-.09-.05-.1-.12-.04-.2,0,0,.13.08.13.08l-.09.12Z"/>
  <path class="cls-1" d="m201.22,24.68s0-.05,0-.05c0,0,0,.05,0,.05Z"/>
  <polygon class="cls-1" points="201.82 22.75 201.84 22.62 201.96 22.71 201.82 22.75"/>
  <path class="cls-1" d="m201.35,16.24c.14,1.26.28,2.51.43,3.77-7.16.03-14.33.06-21.49.09.63-.41,1.21-.94,1.9-1.22,2.34-.95,4.71-1.81,7.06-2.7,4.04.02,8.07.04,12.1.06Z"/>
  <path class="cls-1" d="m192.89,11.11c-.29-1.27-.59-2.54-.88-3.8,1-.22,1.8-.41,2.61-.59.61,0,1.22,0,1.82,0,1.76.95,3.27,2.09,3.12,4.4-2.22,0-4.44,0-6.67-.01Z"/>
  <path class="cls-1" d="m23.79,82.85c11.89-12.42,20.5-26.53,22.71-44.36h23.94c3.06,17.27,6.15,34.64,9.25,52.08h-26.14c.66-4.63,1.32-9.27,2.08-14.61-5.3,0-9.92-.12-14.52.09-1.11.05-2.38.96-3.22,1.82-3.45,3.6-6.76,7.33-10.12,11.01-1.93,1.61-3.86,3.22-5.79,4.83-9.4,7.76-16.78,16.82-13.87,29.88,1.13,5.07,4.91,9.59,7.72,14.22,1.16,1.92,2.94,3.46,3.98,5.63-8.07-2.41-14-7.21-17.17-15.18-.53-1.34-1.15-2.66-1.75-3.97-.05-.11-.41-.2-.44-.16-.18.25-.31.55-.46.82,0-3.33,0-6.67,0-10,.53-.04,1.5-.02,1.51-.12,1.34-10.83,8.84-17.73,15.81-24.98.45-.47.77-1.06,1.15-1.6,1.77-1.8,3.54-3.6,5.31-5.39Zm29.46-15.76c-.53-3.15-.95-5.67-1.54-9.23-2.06,3.5-3.58,6.07-5.44,9.23h6.98Z"/>
  <path class="cls-1" d="m250,43.96c-.59.2-1.63.3-1.7.61-.44,2.05-.66,4.14-.96,6.25-14.52-3.62-14.61-3.64-18.04,10.54-2.29,9.49-4.28,19.06-6.53,29.16h-22.14c3.4-13.5,6.83-27.09,10.59-41.99-5.69.6-10.3,1.09-15.4,1.62,1.03-3.07,1.86-6.59,3.46-9.71.54-1.05,3.03-1.52,4.63-1.52,15.36-.08,30.72,0,46.08.04v5Z"/>
  <path class="cls-1" d="m122.59,55.97c.14,1.99.28,3.99.43,5.98.06,1.02.11,2.03.17,3.05.6-.36,1.2-.72,1.81-1.07,4.55-7.65,9.02-15.36,13.74-22.9.69-1.11,2.59-2.03,3.95-2.06,7.1-.14,14.21.03,21.31.1.4.66.79,1.31,1.19,1.97-1.18,3.64-2.36,7.28-3.54,10.92-.24.66-.47,1.33-.71,1.99-.79,3.33-1.58,6.67-2.37,10-.21.67-.41,1.33-.62,2-.46,2.33-.93,4.67-1.39,7-.2.67-.4,1.34-.6,2-.09.67-.18,1.33-.28,2-.25,1-.49,2-.74,2.99-.08.67-.16,1.34-.24,2.01-.22,1.01-.43,2.02-.65,3.03-.03,1.33-.06,2.67-.08,4-.32.58-.65,1.15-.97,1.73-7.33,0-14.65,0-21.98,0-.03-.97-.05-1.95-.08-2.92,3.01-8.95,6.02-17.91,9.03-26.86-.65-.27-1.3-.54-1.96-.81-5.04,8.32-10.38,16.48-15,25.03-2.47,4.57-5.43,6.6-10.54,5.78-2.11-.34-4.31-.16-6.46-.22-.55-.59-1.1-1.17-1.66-1.76-.11-1.33-.22-2.66-.34-3.99-.23-1.34-.47-2.67-.7-4.01-.09-1-.17-2.01-.26-3.01-.19-1-.39-2-.58-2.99-.16-1.66-.33-3.32-.49-4.98-.2-1.01-.4-2.01-.6-3.02-.19-1.3-.38-2.6-.56-3.9.02-1.02.04-2.05.06-3.07-.46,0-1.31-.09-1.33,0-.22,1-.3,2.02-.42,3.04-.18.64-.37,1.29-.55,1.93-.22.66-.43,1.33-.65,1.99-.12.67-.23,1.34-.35,2-.22.66-.44,1.33-.66,1.99-.11.67-.23,1.34-.34,2.01-.22.66-.45,1.33-.67,1.99-.45,2-.9,4.01-1.35,6.01-.19.67-.38,1.34-.58,2.01.02,2.33.03,4.67.05,7-.34.25-.68.5-1.03.75h-10.86c1.18-3.87,2.23-7.3,3.28-10.73.2-.67.4-1.34.61-2.01.47-2.33.93-4.66,1.4-6.99.21-.67.42-1.33.63-2,.11-.67.22-1.34.33-2,.22-.67.43-1.34.65-2,.11-.67.22-1.33.32-2,.22-.67.44-1.34.67-2.01.1-.67.21-1.33.31-2,.21-.67.42-1.35.63-2.02.1-.66.21-1.32.31-1.98.26-1,.52-1.99.78-2.99.15-1,.29-2,.44-3,.17-.67.34-1.34.51-2.01.06-2.34.13-4.69.19-7.03.26-.28.52-.57.78-.85,7.79-.07,15.59-.01,23.38-.28,3.3-.11,4.09,1.31,3.65,4.15.21,1.34.42,2.68.64,4.02.1,1.67.21,3.33.31,5,.21,1.33.41,2.67.62,4Z"/>
  <path class="cls-1" d="m182.05,90.73h-22.55c4.26-16.92,8.55-33.98,12.99-51.61h21.47c-3.92,17.01-7.86,34.07-11.91,51.61Z"/>
  <path class="cls-1" d="m21.98,93.72c1.93-1.61,3.86-3.22,5.79-4.83,4.7,6.65,9.66,13.14,14.04,19.99,5.8,9.07,10.39,18.67,8.2,29.97-1.59,8.2-7.94,14.34-17.39,16.13,1.79-1.85,2.88-3.08,4.07-4.19,8.08-7.51,10.33-15.49,6.14-25.61-2.19-5.3-5.48-10.22-8.71-15.02-3.8-5.65-8.07-10.98-12.14-16.45Z"/>
  <path class="cls-1" d="m23.79,82.85c-1.77,1.8-3.54,3.6-5.31,5.39-6.8-10.88-12.07-22.17-9.44-35.56,1.29-6.59,5.58-13.98,10.84-17.56-7.22,16.73-6.91,32.74,3.92,47.73Z"/>
  <path class="cls-1" d="m99.13,63.01c.12-1.02.2-2.04.42-3.04.02-.09.87,0,1.33,0-.02,1.02-.04,2.05-.06,3.07l-1.69-.03Z"/>
  <path class="cls-1" d="m124.99,63.92c-.6.36-1.2.72-1.81,1.07-.06-1.02-.11-2.03-.17-3.05.66.66,1.31,1.31,1.97,1.97Z"/>
  <path class="cls-1" d="m121.66,46.97c-.21-1.34-.42-2.68-.64-4.02.21,1.34.42,2.68.64,4.02Z"/>
  <path class="cls-1" d="m122.59,55.97c-.21-1.33-.41-2.67-.62-4,.21,1.33.41,2.67.62,4Z"/>
  <path class="cls-1" d="m103.31,80.95c.23,1.34.47,2.67.7,4.01-.23-1.34-.47-2.67-.7-4.01Z"/>
  <path class="cls-1" d="m92.06,51.98c-.26,1-.52,1.99-.78,2.99.26-1,.52-1.99.78-2.99Z"/>
  <path class="cls-1" d="m101.39,66.94c.2,1.01.4,2.01.6,3.02-.2-1.01-.4-2.01-.6-3.02Z"/>
  <path class="cls-1" d="m102.48,74.94c.19,1,.39,2,.58,2.99-.19-1-.39-2-.58-2.99Z"/>
  <path class="cls-1" d="m154.94,79.94c.25-1,.49-2,.74-2.99-.25,1-.49,2-.74,2.99Z"/>
  <path class="cls-1" d="m154.05,84.97c.22-1.01.43-2.02.65-3.03-.22,1.01-.43,2.02-.65,3.03Z"/>
  <path class="cls-1" d="m130.93,87.78c.03.97.05,1.95.08,2.92-3.61-.87-.33-1.94-.08-2.92Z"/>
  <path class="cls-1" d="m165.18,41.03c-.4-.66-.79-1.31-1.19-1.97.4.66.79,1.31,1.19,1.97Z"/>
  <path class="cls-1" d="m93.02,46.96c-.17.67-.34,1.34-.51,2.01.17-.67.34-1.34.51-2.01Z"/>
  <path class="cls-1" d="m160.94,53.94c.24-.66.47-1.33.71-1.99-.24.66-.47,1.33-.71,1.99Z"/>
  <path class="cls-1" d="m90.97,56.95c-.21.67-.42,1.35-.63,2.02.21-.67.42-1.35.63-2.02Z"/>
  <path class="cls-1" d="m157.95,65.94c.21-.67.41-1.33.62-2-.21.67-.41,1.33-.62,2Z"/>
  <path class="cls-1" d="m89.04,64.97c-.22.67-.43,1.34-.65,2,.22-.67.43-1.34.65-2Z"/>
  <path class="cls-1" d="m97.93,66.94c.22-.66.43-1.33.65-1.99-.22.66-.43,1.33-.65,1.99Z"/>
  <path class="cls-1" d="m88.06,68.98c-.21.67-.42,1.33-.63,2,.21-.67.42-1.33.63-2Z"/>
  <path class="cls-1" d="m96.92,70.94c.22-.66.44-1.33.66-1.99-.22.66-.44,1.33-.66,1.99Z"/>
  <path class="cls-1" d="m95.91,74.93c.22-.66.45-1.33.67-1.99-.22.66-.45,1.33-.67,1.99Z"/>
  <path class="cls-1" d="m155.96,74.94c.2-.67.4-1.34.6-2-.2.67-.4,1.34-.6,2Z"/>
  <path class="cls-1" d="m86.03,77.97c-.2.67-.4,1.34-.61,2.01.2-.67.4-1.34.61-2.01Z"/>
  <path class="cls-1" d="m93.99,82.96c.19-.67.38-1.34.58-2.01-.19.67-.38,1.34-.58,2.01Z"/>
  <path class="cls-1" d="m90.03,60.97c-.22.67-.44,1.34-.67,2.01.22-.67.44-1.34.67-2.01Z"/>
  <path class="cls-1" d="m104.36,88.94c.55.59,1.1,1.17,1.66,1.76-.55-.59-1.1-1.17-1.66-1.76Z"/>
  <path class="cls-1" d="m152.99,90.7c.32-.58.65-1.15.97-1.73-.32.58-.65,1.15-.97,1.73Z"/>
  <path class="cls-1" d="m93.99,39.09c-.26.28-.52.57-.78.85.26-.28.52-.57.78-.85Z"/>
  <path class="cls-1" d="m93.01,90.71c.34-.25.68-.5,1.03-.75-.34.25-.68.5-1.03.75Z"/>
</svg>