<?xml version="1.0" encoding="UTF-8"?>
<svg id="BRUTAL" xmlns="http://www.w3.org/2000/svg" viewBox="0 0 445.49 59.28">
  <defs>
    <style>
      .cls-1 {
        fill: #fff;
      }
    </style>
  </defs>
  <path class="cls-1" d="m0,.66h15.39c4.89,0,8.53,1.21,10.92,3.64,2.39,2.43,3.58,5.99,3.58,10.68v29.31c0,4.69-1.19,8.25-3.58,10.68-2.39,2.43-6.03,3.64-10.92,3.64H0V.66Zm9.73,8.28v41.39h5.48c1.53,0,2.74-.41,3.63-1.24s1.33-2.29,1.33-4.39V14.57c0-2.1-.44-3.56-1.33-4.39s-2.09-1.24-3.63-1.24h-5.48Z"/>
  <path class="cls-1" d="m35.28,14.57c0-4.69,1.27-8.29,3.8-10.8,2.53-2.51,6.19-3.77,10.96-3.77s8.43,1.26,10.97,3.77c2.53,2.51,3.8,6.11,3.8,10.8v30.14c0,4.69-1.27,8.29-3.8,10.8-2.54,2.51-6.19,3.77-10.97,3.77s-8.43-1.25-10.96-3.77c-2.54-2.51-3.8-6.11-3.8-10.8V14.57Zm9.73,30.71c0,2.1.46,3.57,1.37,4.43.91.86,2.14,1.28,3.67,1.28s2.76-.43,3.67-1.28c.91-.86,1.37-2.33,1.37-4.43V13.99c0-2.1-.46-3.57-1.37-4.43-.91-.85-2.14-1.28-3.67-1.28s-2.76.43-3.67,1.28c-.91.86-1.37,2.33-1.37,4.43v31.29Z"/>
  <path class="cls-1" d="m79.76,16.64v41.97h-8.75V.66h12.2l9.99,34.69V.66h8.67v57.95h-9.99l-12.11-41.97Z"/>
  <path class="cls-1" d="m118.58,25.09h13.35v8.28h-13.35v16.97h16.8v8.28h-26.53V.66h26.53v8.28h-16.8v16.14Z"/>
  <path class="cls-1" d="m140.16,14.57c0-4.69,1.19-8.29,3.58-10.8,2.39-2.51,5.97-3.77,10.74-3.77s8.36,1.26,10.74,3.77c2.39,2.51,3.58,6.11,3.58,10.8v1.82h-9.2v-2.4c0-2.1-.43-3.57-1.28-4.43-.86-.85-2.05-1.28-3.58-1.28s-2.73.43-3.58,1.28c-.86.86-1.28,2.33-1.28,4.43,0,1.99.47,3.74,1.41,5.26.94,1.52,2.12,2.95,3.54,4.3,1.42,1.35,2.93,2.71,4.55,4.06,1.62,1.35,3.14,2.83,4.55,4.43,1.42,1.6,2.59,3.42,3.54,5.46.94,2.04,1.41,4.44,1.41,7.2,0,4.69-1.22,8.29-3.67,10.8-2.45,2.51-6.06,3.77-10.83,3.77s-8.39-1.25-10.83-3.77c-2.45-2.51-3.67-6.11-3.67-10.8v-3.56h9.2v4.14c0,2.1.46,3.56,1.37,4.39.91.83,2.14,1.24,3.67,1.24s2.76-.41,3.67-1.24c.91-.83,1.37-2.29,1.37-4.39,0-1.99-.47-3.74-1.41-5.26-.94-1.52-2.12-2.95-3.54-4.3-1.41-1.35-2.93-2.7-4.55-4.06-1.62-1.35-3.14-2.83-4.55-4.43-1.41-1.6-2.59-3.42-3.54-5.46-.94-2.04-1.41-4.44-1.41-7.2Z"/>
  <path class="cls-1" d="m183.13,16.64v41.97h-8.75V.66h12.2l9.99,34.69V.66h8.67v57.95h-9.99l-12.11-41.97Z"/>
  <path class="cls-1" d="m243.7,58.61h-9.81l-1.68-10.51h-11.94l-1.68,10.51h-8.93L219.56.66h14.24l9.9,57.95Zm-22.2-18.38h9.37l-4.69-29.31-4.69,29.31Z"/>
  <path class="cls-1" d="m256.88,16.64v41.97h-8.75V.66h12.2l9.99,34.69V.66h8.67v57.95h-9.99l-12.11-41.97Z"/>
  <path class="cls-1" d="m285.17,14.57c0-4.69,1.27-8.29,3.8-10.8,2.53-2.51,6.19-3.77,10.97-3.77s8.43,1.26,10.97,3.77c2.53,2.51,3.8,6.11,3.8,10.8v30.14c0,4.69-1.27,8.29-3.8,10.8-2.54,2.51-6.19,3.77-10.97,3.77s-8.43-1.25-10.97-3.77c-2.54-2.51-3.8-6.11-3.8-10.8V14.57Zm9.73,30.71c0,2.1.46,3.57,1.37,4.43.91.86,2.14,1.28,3.67,1.28s2.75-.43,3.67-1.28,1.37-2.33,1.37-4.43V13.99c0-2.1-.46-3.57-1.37-4.43-.91-.85-2.14-1.28-3.67-1.28s-2.76.43-3.67,1.28c-.91.86-1.37,2.33-1.37,4.43v31.29Z"/>
  <path class="cls-1" d="m333.9.25c2.42,0,4.45.39,6.1,1.16,1.65.77,2.98,1.84,3.98,3.19,1,1.35,1.72,2.93,2.17,4.72.44,1.79.66,3.71.66,5.75,0,2.7-.57,5.13-1.72,7.29s-2.61,4.22-4.38,6.21-3.67,3.93-5.7,5.84c-2.03,1.9-3.93,3.95-5.7,6.13-1.77,2.18-3.26,4.57-4.47,7.16-1.21,2.59-1.84,5.55-1.9,8.86v.33h23.52v1.74h-25.47v-1.24c0-3.59.59-6.77,1.77-9.56,1.18-2.79,2.65-5.31,4.42-7.58,1.77-2.26,3.68-4.36,5.75-6.29s3.98-3.85,5.75-5.75c1.77-1.9,3.24-3.9,4.42-6,1.18-2.1,1.77-4.44,1.77-7.04,0-1.82-.18-3.53-.53-5.13-.35-1.6-.94-3.01-1.77-4.22-.83-1.21-1.96-2.17-3.4-2.86-1.45-.69-3.23-1.03-5.35-1.03s-3.8.36-5.22,1.08c-1.41.72-2.55,1.7-3.4,2.94-.85,1.24-1.46,2.66-1.81,4.26-.35,1.6-.53,3.26-.53,4.97v3.15h-1.86v-3.06c0-1.99.22-3.89.66-5.71.44-1.82,1.18-3.42,2.21-4.8,1.03-1.38,2.36-2.47,3.98-3.27,1.62-.8,3.64-1.2,6.06-1.2Z"/>
  <path class="cls-1" d="m353.62,14.9c0-2.04.24-3.96.71-5.75.47-1.79,1.24-3.35,2.3-4.68s2.43-2.36,4.11-3.1,3.7-1.12,6.06-1.12,4.38.37,6.06,1.12,3.05,1.78,4.11,3.1c1.06,1.32,1.83,2.88,2.3,4.68.47,1.79.71,3.71.71,5.75v29.47c0,2.04-.24,3.95-.71,5.71-.47,1.77-1.24,3.31-2.3,4.64-1.06,1.32-2.43,2.37-4.11,3.15s-3.7,1.16-6.06,1.16-4.38-.39-6.06-1.16-3.05-1.82-4.11-3.15-1.83-2.87-2.3-4.64c-.47-1.77-.71-3.67-.71-5.71V14.9Zm1.95,29.47c0,1.82.21,3.52.62,5.09.41,1.57,1.06,2.94,1.94,4.1.88,1.16,2.03,2.08,3.45,2.77,1.41.69,3.15,1.03,5.22,1.03s3.8-.34,5.22-1.03c1.41-.69,2.56-1.61,3.45-2.77.88-1.16,1.53-2.52,1.94-4.1.41-1.57.62-3.27.62-5.09V14.82c0-1.77-.21-3.44-.62-5.01-.41-1.57-1.06-2.94-1.94-4.1-.88-1.16-2.03-2.08-3.45-2.77-1.42-.69-3.15-1.03-5.22-1.03s-3.8.35-5.22,1.03c-1.42.69-2.56,1.61-3.45,2.77-.88,1.16-1.53,2.52-1.94,4.1-.41,1.57-.62,3.24-.62,5.01v29.56Z"/>
  <path class="cls-1" d="m399.86.25c2.42,0,4.45.39,6.1,1.16,1.65.77,2.98,1.84,3.98,3.19,1,1.35,1.72,2.93,2.17,4.72.44,1.79.66,3.71.66,5.75,0,2.7-.57,5.13-1.72,7.29s-2.61,4.22-4.38,6.21-3.67,3.93-5.7,5.84c-2.03,1.9-3.93,3.95-5.7,6.13-1.77,2.18-3.26,4.57-4.47,7.16-1.21,2.59-1.84,5.55-1.9,8.86v.33h23.52v1.74h-25.47v-1.24c0-3.59.59-6.77,1.77-9.56,1.18-2.79,2.65-5.31,4.42-7.58,1.77-2.26,3.68-4.36,5.75-6.29s3.98-3.85,5.75-5.75c1.77-1.9,3.24-3.9,4.42-6,1.18-2.1,1.77-4.44,1.77-7.04,0-1.82-.18-3.53-.53-5.13-.35-1.6-.94-3.01-1.77-4.22-.83-1.21-1.96-2.17-3.4-2.86-1.45-.69-3.23-1.03-5.35-1.03s-3.8.36-5.22,1.08c-1.41.72-2.55,1.7-3.4,2.94-.85,1.24-1.46,2.66-1.81,4.26-.35,1.6-.53,3.26-.53,4.97v3.15h-1.86v-3.06c0-1.99.22-3.89.66-5.71.44-1.82,1.18-3.42,2.21-4.8,1.03-1.38,2.36-2.47,3.98-3.27,1.62-.8,3.64-1.2,6.06-1.2Z"/>
  <path class="cls-1" d="m432.58.25c2.36,0,4.36.39,6.01,1.16,1.65.77,2.98,1.82,3.98,3.15,1,1.32,1.74,2.87,2.21,4.64.47,1.77.71,3.67.71,5.71v1.41c0,2.81-.77,5.31-2.3,7.49-1.53,2.18-3.71,3.68-6.54,4.51,3.01.72,5.23,2.13,6.68,4.22,1.44,2.1,2.17,4.55,2.17,7.37v4.47c0,2.04-.24,3.95-.71,5.71-.47,1.77-1.21,3.31-2.21,4.64-1,1.32-2.33,2.37-3.98,3.15-1.65.77-3.66,1.16-6.01,1.16s-4.36-.39-6.01-1.16c-1.65-.77-2.99-1.82-4.02-3.15-1.03-1.32-1.78-2.87-2.25-4.64-.47-1.77-.71-3.67-.71-5.71v-2.73h1.95v2.73c0,1.77.19,3.44.57,5.01.38,1.57,1,2.95,1.86,4.14.85,1.19,1.97,2.13,3.36,2.81,1.38.69,3.11,1.03,5.17,1.03s3.8-.34,5.22-1.03c1.42-.69,2.55-1.63,3.4-2.81.85-1.19,1.47-2.57,1.86-4.14.38-1.57.57-3.27.57-5.09v-4.39c0-3.15-.87-5.67-2.61-7.58-1.74-1.9-4.29-2.94-7.65-3.1h-4.51v-1.66h4.6c3.18-.28,5.67-1.43,7.47-3.48,1.8-2.04,2.7-4.55,2.7-7.53v-1.66c0-1.82-.19-3.52-.57-5.09-.38-1.57-1-2.94-1.86-4.1-.85-1.16-1.99-2.08-3.4-2.77-1.42-.69-3.15-1.03-5.22-1.03s-3.79.35-5.17,1.03c-1.39.69-2.51,1.61-3.36,2.77-.85,1.16-1.47,2.52-1.86,4.1-.38,1.57-.57,3.24-.57,5.01v1.74h-1.95v-1.66c0-2.04.24-3.95.71-5.71.47-1.77,1.22-3.31,2.25-4.64,1.03-1.32,2.37-2.37,4.02-3.15,1.65-.77,3.65-1.16,6.01-1.16Z"/>
</svg>