<svg id="Capa_1" data-name="Capa 1" xmlns="http://www.w3.org/2000/svg" viewBox="0 0 1178.16 598.44"><defs><style>.cls-1{fill:#fff;}</style></defs><path class="cls-1" d="M235.21,314.68c5.19,1.46,10.32,3.8,15.59,4.18a187.47,187.47,0,0,0,28.24,0c6.72-.52,13.26-3,19.95-4.15,23.07-4.07,42.67,9.08,64.08,13.33,7.4,1.47,8.78,8.37,7,17.24-4.43,0-9.27-.23-14.07,0-7,.42-13.07-1.52-18.76,7.93-5.13,8.51-19.33,5.14-29.77,4.9-.8,0-1.27-3.61-2.32-5.27-5.73-9-12.75-15.48-25.54-10.46-.17,16.46-6.53,33-5.52,51,.61,10.84,4.68,17.12,13.31,21.81,2.94,1.6,6,2.94,9,4.39V424c-6.54.37-3.71,5.43-4.37,8.74l-4.37,4.37c-3.32.66-8.37-2.16-8.75,4.38-3.55.19-5.83,3.3-1.83,3.92,9.16,1.42,18.69.45,28.07.45l-12.59,11.46c8.7,8-3.05,8.35-4.93,12.24-1.41,2.89-4.88,6.05-7.92,6.65-10,2-4.92,9.4-4.74,13.78a8.69,8.69,0,0,0,10.38,8.26c5.43-.83,11.4,2.46,16.44-2.75,1.54-1.6,5.31-1.65,8-1.45,17.88,1.37,32.93-4.36,45.43-17.19.75-.76,2.75-.3,4.16-.4,7.21,11.2,5.35,24.93,10.66,36.88s4.16,12.5,14.48,21.15c10.9-9.35,22.09-18.85,33.17-28.48,7.23-6.28,13.8-13,8-25.32,16.33,6.59,29.74,12.1,43.25,17.35,1.9.74,4.92,1.13,6.33.14,6.33-4.46,12.12-.7,18.37-.45,24.68,1,46.86,9.21,69.59,19.9-5.57,5.29-9,12.67-18.51,11.43-1-.14-2.74,1.05-3.39,2.09-8.73,14.06-25.21,13.78-38.13,18.85-10.89,4.27-21.25,8.71-30.89,15.14-1.19.79-2.26,3.05-3.09,2.91-20.12-3.45-31.15,15.68-49,19.47-16.73,3.56-32.08,13.64-48,20.86-28.88,13-58.84,23.46-88.77,33.58-9.5,3.21-16.63,14.79-28.83,9.68-9.39,6.39-21,5.2-31.14,9.24-9.38,3.75-18.66,8-28.35,10.68-14.43,4.07-29.21,6.86-43.78,10.46-15.13,3.74-30.18,7.79-46.6,12.05,0-3-1.63-8.2.26-10.39,12.63-14.63,16.8-33.08,20.19-50.62,3.63-18.79,14.22-32.47,24.58-46.74,5.5-7.57,13.57-13.21,19.77-20.34,6.51-7.47,13.88-9.9,23.9-11.52,15.86-2.57,31.59-7.81,47-12.91,7.91-2.62,14.55-10,20.63-16.4,1.18-1.24,8.29-6.74.69-11.56-5.33-3.38-8.13-9.6-13.28-14-10.31-8.81-23.85-14-30.22-28.25-3.31-7.38-8.77-12.92-10-22.31-1.29-9.64-7.86-18.6-8.27-29.26-.12-2.88-3.6-5.76-5.84-8.39-9.17-10.77-15.72-21.61-16.6-37.16-.67-12-4.32-25.75-12.95-35.76-5.2-6-2.58-15-10.39-20.08-6-3.89,1.92-14.47-6.26-19.19-.48-.28.39-4.07,1.47-5.65,5.43-7.94,5-18.52,1.69-24.55-4.4-7.93-1.31-15.4-4.19-23.42H132.26c-.8-2.53-1.93-4.42-1.91-6.3.14-13.93-1.81-27.74,8-40.5,6.41-8.32,12.68-16.23,21.86-20.89,9.7-4.94,15.58-12.59,21.78-21.19,4.37-6.07,4.63-17.55,16.24-17.1,1.16-17.94,17.93-17.19,28.07-24.86,10.72-8.12,23.35-3,33.39-9.76,3.2-2.16,8-1.79,11.57-3.58,21.67-10.9,41.77-5,60.59,6.55,7.15,4.39,13.41,8.58,22.06,10.41,13.1,2.76,26.45,6.79,38.14,13.13,11.31,6.14,24.13,9.94,33.17,20.74a102.52,102.52,0,0,1,19.66,35.67c4.08,13.15,9.16,26.74,1.27,40.48-.27.47-.7,1.33-.54,1.5,10.9,11.11-.78,16-6.14,22.72a43.16,43.16,0,0,0-3.13,5.26v4.37L432,266.58h-8.74L418.86,271c-3.32.66-8.38-2.17-8.75,4.37-2.69-.51-7.07-.16-7.82-1.64-12.55-24.87-36.09-32.79-60.42-37.2-15.52-2.82-30.12-8.83-45.47-11s-31.08-2.19-46.58-1.54c-7.37.32-18.86,17.86-18.93,26.21-.1,11.82-1.43,23.7,6.6,34.27,8.21,10.82-2.33,17.79-6.66,25.92Zm-75.43-91.82h-2.19V236h2.19Z" transform="translate(-104.09 -95.62)"/><path class="cls-1" d="M235.21,397l-4.38-4.37Z" transform="translate(-104.09 -95.62)"/><path class="cls-1" d="M695.16,184h5.41a.93.93,0,0,1,1,1.05V255.9a.92.92,0,0,1-1,1h-5.31a.92.92,0,0,1-1-1V200.08c0-.21-.05-.31-.15-.31a.57.57,0,0,0-.37.21l-10.83,22.49a1.06,1.06,0,0,1-1,.73,1.12,1.12,0,0,1-1.14-.73l-10.83-22.39a.57.57,0,0,0-.37-.21c-.1,0-.16.11-.16.31V255.9a.92.92,0,0,1-1,1H663a.92.92,0,0,1-1-1V185.09a.93.93,0,0,1,1-1.05h5.42a1.24,1.24,0,0,1,1.25.73l11.87,24.06a.33.33,0,0,0,.62,0l11.77-24.06A1.24,1.24,0,0,1,695.16,184Z" transform="translate(-104.09 -95.62)"/><path class="cls-1" d="M742.33,208.15q4.38,4.74,4.38,12.65v35.1a.93.93,0,0,1-1.05,1h-5.31a.92.92,0,0,1-1-1v-3.13a.24.24,0,0,0-.16-.26c-.1,0-.22,0-.36.16q-3.85,5.1-11.56,5.1a15.68,15.68,0,0,1-9.94-3.28q-4.21-3.28-4.22-11.61,0-8.85,5.1-13t13.44-4.11h7.29a.37.37,0,0,0,.41-.42v-4.06a13.4,13.4,0,0,0-2.39-8.33,7.72,7.72,0,0,0-6.46-3.12A7.58,7.58,0,0,0,725.1,212a8.48,8.48,0,0,0-2.66,5.31.92.92,0,0,1-1,1l-5.83-.1a.94.94,0,0,1-.78-.31.77.77,0,0,1-.16-.73,14.12,14.12,0,0,1,5-9.95,16.47,16.47,0,0,1,11-3.8Q738,203.41,742.33,208.15Zm-6.14,40.4a9.67,9.67,0,0,0,3.12-7.65v-8.75a.37.37,0,0,0-.41-.41h-7.4a11.29,11.29,0,0,0-7.91,2.65q-2.93,2.66-2.92,7.86c0,3.06.75,5.33,2.24,6.83a8,8,0,0,0,5.88,2.23A10.82,10.82,0,0,0,736.19,248.55Z" transform="translate(-104.09 -95.62)"/><path class="cls-1" d="M780.55,204.87a1.13,1.13,0,0,1,.52,1.35l-1.25,5.42c-.07.62-.49.83-1.25.62a7.09,7.09,0,0,0-3.13-.62,5.62,5.62,0,0,0-1.25.1,7.67,7.67,0,0,0-6.14,3.91,16.16,16.16,0,0,0-2.39,9V255.9a.93.93,0,0,1-1,1H759.3a.92.92,0,0,1-1-1V205.29a.92.92,0,0,1,1-1h5.31a.92.92,0,0,1,1,1v6.24c0,.21.05.32.15.32a.57.57,0,0,0,.37-.21q3-7.92,9.89-7.92A8.48,8.48,0,0,1,780.55,204.87Z" transform="translate(-104.09 -95.62)"/><path class="cls-1" d="M788.93,193a5.74,5.74,0,0,1-1.62-4.17,5.56,5.56,0,0,1,5.84-5.83,5.57,5.57,0,0,1,4.11,1.62,5.71,5.71,0,0,1,1.61,4.21,5.77,5.77,0,0,1-1.61,4.17,5.49,5.49,0,0,1-4.11,1.67A5.6,5.6,0,0,1,788.93,193Zm.57,62.9V205.29a.92.92,0,0,1,1-1h5.31a.92.92,0,0,1,1,1V255.9a.93.93,0,0,1-1,1h-5.31A.92.92,0,0,1,789.5,255.9Z" transform="translate(-104.09 -95.62)"/><path class="cls-1" d="M840.73,233.4H817a.37.37,0,0,0-.42.42v7.6a10.33,10.33,0,0,0,2.45,7.13,8.16,8.16,0,0,0,6.41,2.76,8.32,8.32,0,0,0,5.67-2,9.47,9.47,0,0,0,3.07-5.26,1.17,1.17,0,0,1,1.15-.93l5.2.21a1,1,0,0,1,.73.31.85.85,0,0,1,.21.83,14.9,14.9,0,0,1-5.05,9.74q-4.21,3.58-11,3.59-7.39,0-11.82-4.37t-4.43-11.56v-22.5a15.56,15.56,0,0,1,4.43-11.5q4.42-4.43,11.82-4.43t11.92,4.43a15.56,15.56,0,0,1,4.43,11.5v13A.92.92,0,0,1,840.73,233.4ZM819,212.63a10.51,10.51,0,0,0-2.45,7.24v7a.37.37,0,0,0,.42.42h17.08a.37.37,0,0,0,.42-.42v-7a10.4,10.4,0,0,0-2.5-7.24,8.45,8.45,0,0,0-6.56-2.76A8.16,8.16,0,0,0,819,212.63Z" transform="translate(-104.09 -95.62)"/><path class="cls-1" d="M663.82,351.41q-4.8-5.1-4.8-13.32v-2.4a.93.93,0,0,1,1.05-1h5.1a.92.92,0,0,1,1,1v2.08a13.53,13.53,0,0,0,2.81,8.91,9.06,9.06,0,0,0,7.29,3.38,9.41,9.41,0,0,0,7.29-3.23,12.27,12.27,0,0,0,2.92-8.54,12.4,12.4,0,0,0-1.41-6.09,16.33,16.33,0,0,0-3.64-4.48q-2.25-1.92-7.45-5.88t-8.23-6.61a22.4,22.4,0,0,1-4.94-6.61,20,20,0,0,1-1.93-9.06q0-8.13,4.69-12.86A16.36,16.36,0,0,1,675.79,282q7.92,0,12.65,5.15t4.74,13.7v2.6a.92.92,0,0,1-1,1h-5.21a.92.92,0,0,1-1-1V300.7a13.64,13.64,0,0,0-2.76-8.9,9,9,0,0,0-7.34-3.39,8.88,8.88,0,0,0-6.87,3c-1.81,2-2.71,4.78-2.71,8.38a12.73,12.73,0,0,0,1.2,5.68,15.52,15.52,0,0,0,3.59,4.63q2.4,2.19,7.08,5.73a109.15,109.15,0,0,1,9.32,7.45,21.61,21.61,0,0,1,4.74,6.24,18.42,18.42,0,0,1,1.66,8.18q0,8.54-4.89,13.69a16.58,16.58,0,0,1-12.6,5.16A16.31,16.31,0,0,1,663.82,351.41Z" transform="translate(-104.09 -95.62)"/><path class="cls-1" d="M704.32,354.64V283.83a.92.92,0,0,1,1-1h5.31a.92.92,0,0,1,1,1v41.86a.34.34,0,0,0,.21.32.2.2,0,0,0,.31-.11l15.62-22.28a1.41,1.41,0,0,1,1.26-.63h5.41a.88.88,0,0,1,.83.37c.14.24.07.54-.21.88L724.84,319a.45.45,0,0,0-.11.62L737,354.54l.1.42c0,.48-.31.72-.94.72h-5.51a1.2,1.2,0,0,1-1.25-.83l-9.27-29c-.07-.41-.28-.45-.63-.1l-7.6,10.83a.7.7,0,0,0-.21.52v17.49a.91.91,0,0,1-1,1h-5.31A.92.92,0,0,1,704.32,354.64Z" transform="translate(-104.09 -95.62)"/><path class="cls-1" d="M745.87,354.64V283.83a.92.92,0,0,1,1-1h5.31a.92.92,0,0,1,1,1v70.81a.92.92,0,0,1-1,1h-5.31A.92.92,0,0,1,745.87,354.64Z" transform="translate(-104.09 -95.62)"/><path class="cls-1" d="M768.62,352.14q-4.43-4.36-4.42-11.56V318.2a15.62,15.62,0,0,1,4.48-11.56q4.47-4.49,11.87-4.48c5,0,9,1.49,12,4.48A15.62,15.62,0,0,1,797,318.2v22.38q0,7.19-4.48,11.56c-3,2.92-7,4.38-12,4.38S771.57,355.06,768.62,352.14Zm18.43-4.89a10.07,10.07,0,0,0,2.56-7.19V318.61a10.24,10.24,0,0,0-2.56-7.23,8.46,8.46,0,0,0-6.5-2.76,8.32,8.32,0,0,0-6.46,2.76,10.34,10.34,0,0,0-2.5,7.23v21.45a10.17,10.17,0,0,0,2.5,7.19,8.38,8.38,0,0,0,6.46,2.71A8.53,8.53,0,0,0,787.05,347.25Z" transform="translate(-104.09 -95.62)"/><path class="cls-1" d="M833.55,282.79h5.31a.92.92,0,0,1,1,1v70.81a.92.92,0,0,1-1,1h-5.31a.91.91,0,0,1-1-1v-2.29a.36.36,0,0,0-.16-.31c-.1-.07-.23,0-.36.1a12.9,12.9,0,0,1-10,4.38,13.55,13.55,0,0,1-10.62-4.43q-4-4.43-4-11.51V318.09q0-7.29,4-11.61A13.71,13.71,0,0,1,822,302.16a12.56,12.56,0,0,1,10,4.48c.13.14.26.17.36.1a.34.34,0,0,0,.16-.31v-22.6A.92.92,0,0,1,833.55,282.79Zm-3.49,64.51a10.36,10.36,0,0,0,2.45-7.13V318.61a10.5,10.5,0,0,0-2.45-7.23,8,8,0,0,0-6.3-2.76,8.47,8.47,0,0,0-6.51,2.76,10.23,10.23,0,0,0-2.55,7.23v21.56a10.1,10.1,0,0,0,2.55,7.13,8.47,8.47,0,0,0,6.51,2.76A8,8,0,0,0,830.06,347.3Z" transform="translate(-104.09 -95.62)"/><path class="cls-1" d="M855.88,352.14q-4.43-4.36-4.42-11.56V318.2a15.62,15.62,0,0,1,4.48-11.56q4.47-4.49,11.87-4.48c5,0,9,1.49,12,4.48a15.62,15.62,0,0,1,4.48,11.56v22.38q0,7.19-4.48,11.56c-3,2.92-7,4.38-12,4.38S858.83,355.06,855.88,352.14Zm18.43-4.89a10.07,10.07,0,0,0,2.56-7.19V318.61a10.24,10.24,0,0,0-2.56-7.23,8.46,8.46,0,0,0-6.5-2.76,8.32,8.32,0,0,0-6.46,2.76,10.34,10.34,0,0,0-2.5,7.23v21.45a10.17,10.17,0,0,0,2.5,7.19,8.38,8.38,0,0,0,6.46,2.71A8.53,8.53,0,0,0,874.31,347.25Z" transform="translate(-104.09 -95.62)"/><path class="cls-1" d="M901.54,354.75l-11-50.61v-.21a.83.83,0,0,1,.93-.94h5.11a1,1,0,0,1,1.14.94l7.5,39.78q.1.21.21.21t.21-.21l7.7-39.78a1.08,1.08,0,0,1,1.15-.94h4.68a1,1,0,0,1,1.15.94l7.7,39.78q.1.21.21.21t.21-.21l7.71-39.78a1.08,1.08,0,0,1,1.14-.94l5,.11c.76,0,1.08.38.94,1.14l-11,50.51c-.07.62-.45.93-1.15.93H925.7a1.07,1.07,0,0,1-1.14-.93l-7.71-38.12c-.07-.2-.14-.31-.21-.31s-.14.11-.2.31L909,354.75a1,1,0,0,1-1.14.93h-5.21A1.07,1.07,0,0,1,901.54,354.75Z" transform="translate(-104.09 -95.62)"/><path class="cls-1" d="M953.66,352.51a12.32,12.32,0,0,1-4.32-9.84v-.73a.92.92,0,0,1,1-1h5a.92.92,0,0,1,1,1v.62a7.42,7.42,0,0,0,2.45,5.63,9,9,0,0,0,6.4,2.29,8.2,8.2,0,0,0,6-2.29,7.9,7.9,0,0,0,2.3-5.84,7,7,0,0,0-1.46-4.52,11.12,11.12,0,0,0-3.39-2.87q-1.92-1-5.78-2.71a47.9,47.9,0,0,1-6.71-3.28,14.42,14.42,0,0,1-4.59-4.58,13.65,13.65,0,0,1-1.92-7.55q0-6.66,4.11-10.51T965,302.47q7.08,0,11.25,4A13.85,13.85,0,0,1,980.37,317v.31a.92.92,0,0,1-1,1h-4.79a.92.92,0,0,1-1-1v-.63a7.83,7.83,0,0,0-2.34-5.83,8.39,8.39,0,0,0-6.1-2.29,7.89,7.89,0,0,0-6,2.34,8,8,0,0,0-2.24,5.78,6.61,6.61,0,0,0,1.35,4.22,10.84,10.84,0,0,0,3.34,2.81q2,1.09,5.51,2.66a62.26,62.26,0,0,1,7,3.54,15.93,15.93,0,0,1,4.85,4.68A13,13,0,0,1,981,342a13.22,13.22,0,0,1-4.27,10.31q-4.28,3.86-11.56,3.85T953.66,352.51Z" transform="translate(-104.09 -95.62)"/><path class="cls-1" d="M990.37,354.64V283.83a.92.92,0,0,1,1-1h5.31a.92.92,0,0,1,1,1v41.86a.34.34,0,0,0,.21.32.2.2,0,0,0,.31-.11l15.62-22.28a1.41,1.41,0,0,1,1.25-.63h5.42a.89.89,0,0,1,.83.37c.14.24.07.54-.21.88L1010.88,319a.45.45,0,0,0-.1.62l12.29,34.89.1.42c0,.48-.31.72-.94.72h-5.52a1.21,1.21,0,0,1-1.25-.83l-9.26-29c-.07-.41-.28-.45-.63-.1L998,336.63a.7.7,0,0,0-.21.52v17.49a.92.92,0,0,1-1,1h-5.31A.91.91,0,0,1,990.37,354.64Z" transform="translate(-104.09 -95.62)"/><path class="cls-1" d="M1059.62,306.9q4.37,4.74,4.37,12.65v35.09a.92.92,0,0,1-1,1h-5.31a.91.91,0,0,1-1-1v-3.12a.24.24,0,0,0-.16-.26c-.1,0-.23,0-.36.15q-3.86,5.11-11.56,5.11a15.77,15.77,0,0,1-10-3.28q-4.21-3.28-4.21-11.61,0-8.85,5.1-13t13.43-4.11h7.29a.37.37,0,0,0,.42-.42v-4.06a13.32,13.32,0,0,0-2.4-8.33,7.72,7.72,0,0,0-6.45-3.12,7.59,7.59,0,0,0-5.37,2.08,8.47,8.47,0,0,0-2.65,5.31.92.92,0,0,1-1,1l-5.84-.1a1,1,0,0,1-.78-.32.77.77,0,0,1-.15-.72,14,14,0,0,1,5-10,16.47,16.47,0,0,1,11-3.8Q1055.24,302.16,1059.62,306.9Zm-6.15,40.4a9.66,9.66,0,0,0,3.13-7.65V330.9a.37.37,0,0,0-.42-.42h-7.39a11.31,11.31,0,0,0-7.92,2.66Q1038,335.8,1038,341c0,3.06.74,5.33,2.24,6.82a7.91,7.91,0,0,0,5.88,2.24A10.8,10.8,0,0,0,1053.47,347.3Z" transform="translate(-104.09 -95.62)"/><path class="cls-1" d="M1072.53,325.49v-4.38a.92.92,0,0,1,1-1h23.85a.92.92,0,0,1,1,1v4.38a.92.92,0,0,1-1,1h-23.85A.92.92,0,0,1,1072.53,325.49Z" transform="translate(-104.09 -95.62)"/><path class="cls-1" d="M1112.36,351.62q-4.84-4.89-4.85-13.12V299.87c0-5.42,1.62-9.75,4.85-13s7.51-4.89,12.86-4.89,9.73,1.61,13,4.84,4.84,7.59,4.84,13.07v1.77a.92.92,0,0,1-1,1l-5.41.31a.91.91,0,0,1-1-1v-2.6a11.2,11.2,0,0,0-2.81-7.92,10.76,10.76,0,0,0-15,0,11.05,11.05,0,0,0-2.86,7.92v39.78a11,11,0,0,0,2.86,7.91,10.76,10.76,0,0,0,15,0,11.16,11.16,0,0,0,2.81-7.91v-2.61a.92.92,0,0,1,1-1l5.41.31a.92.92,0,0,1,1,1v1.66q0,8.24-4.89,13.12t-12.91,4.9Q1117.19,356.52,1112.36,351.62Z" transform="translate(-104.09 -95.62)"/><path class="cls-1" d="M1179.68,303H1185a.92.92,0,0,1,1,1v50.61a.92.92,0,0,1-1,1h-5.31a.91.91,0,0,1-1-1V351.1c0-.21-.05-.31-.16-.31a.55.55,0,0,0-.36.21q-3.24,5.42-10.42,5.41-6.24,0-9.94-3.8t-3.7-11.5V304a.92.92,0,0,1,1-1h5.31a.93.93,0,0,1,1,1v35.41q0,5.21,2.13,7.86a7.49,7.49,0,0,0,6.2,2.66,7.77,7.77,0,0,0,6.5-3q2.36-3,2.35-8.23V304A.92.92,0,0,1,1179.68,303Z" transform="translate(-104.09 -95.62)"/><path class="cls-1" d="M1221,303.62a1.13,1.13,0,0,1,.52,1.35l-1.25,5.42c-.07.62-.49.83-1.25.62a6.9,6.9,0,0,0-3.13-.62,5.46,5.46,0,0,0-1.24.1,7.67,7.67,0,0,0-6.15,3.91,16.15,16.15,0,0,0-2.39,9v31.24a.92.92,0,0,1-1,1h-5.32a.92.92,0,0,1-1-1V304a.92.92,0,0,1,1-1h5.32a.92.92,0,0,1,1,1v6.25c0,.21,0,.31.15.31a.55.55,0,0,0,.37-.2q3-7.92,9.89-7.92A8.48,8.48,0,0,1,1221,303.62Z" transform="translate(-104.09 -95.62)"/><path class="cls-1" d="M1229.4,291.75a5.81,5.81,0,0,1,4.22-10,5.6,5.6,0,0,1,4.11,1.61,6.27,6.27,0,0,1,0,8.39,5.49,5.49,0,0,1-4.11,1.66A5.61,5.61,0,0,1,1229.4,291.75Zm.57,62.89V304a.92.92,0,0,1,1-1h5.31a.93.93,0,0,1,1,1v50.61a.92.92,0,0,1-1,1H1231A.92.92,0,0,1,1230,354.64Z" transform="translate(-104.09 -95.62)"/><path class="cls-1" d="M1281.2,332.15h-23.74c-.28,0-.41.14-.41.42v7.6a10.36,10.36,0,0,0,2.44,7.13,8.16,8.16,0,0,0,6.41,2.76,8.37,8.37,0,0,0,5.67-2,9.52,9.52,0,0,0,3.08-5.26,1.16,1.16,0,0,1,1.14-.94l5.21.21a1,1,0,0,1,.73.31.89.89,0,0,1,.2.84,14.85,14.85,0,0,1-5,9.73q-4.22,3.6-11,3.6-7.39,0-11.82-4.38t-4.43-11.56V318.09a15.56,15.56,0,0,1,4.43-11.5q4.43-4.43,11.82-4.43t11.92,4.43a15.56,15.56,0,0,1,4.43,11.5v13A.93.93,0,0,1,1281.2,332.15Zm-21.71-20.77a10.5,10.5,0,0,0-2.44,7.23v7c0,.28.13.42.41.42h17.08a.37.37,0,0,0,.42-.42v-7a10.39,10.39,0,0,0-2.5-7.23,8.45,8.45,0,0,0-6.56-2.76A8.16,8.16,0,0,0,1259.49,311.38Z" transform="translate(-104.09 -95.62)"/><path class="cls-1" d="M688.49,453.49l-2.6-12.91a.35.35,0,0,0-.15-.31.67.67,0,0,0-.37-.11H666.52a.61.61,0,0,0-.36.11.34.34,0,0,0-.16.31l-2.6,12.91c-.07.63-.45.94-1.15.94h-5.31a.94.94,0,0,1-.78-.31.93.93,0,0,1-.15-.83l15.62-70.81a1.06,1.06,0,0,1,1.14-.94H679c.69,0,1.08.31,1.14.94L696,453.29v.2a.83.83,0,0,1-.93.94h-5.42A1.07,1.07,0,0,1,688.49,453.49Zm-20.82-19.37h16.45c.21,0,.31-.13.31-.41l-8.33-40.93c-.07-.2-.14-.31-.2-.31s-.15.11-.21.31l-8.33,40.93C667.36,434,667.46,434.12,667.67,434.12Z" transform="translate(-104.09 -95.62)"/><path class="cls-1" d="M706.87,450.89q-4.43-4.38-4.42-11.56V416.84a15.46,15.46,0,0,1,4.48-11.51q4.47-4.43,11.76-4.42a18.27,18.27,0,0,1,8.65,2,14.74,14.74,0,0,1,5.78,5.25,13.53,13.53,0,0,1,2,7.24v1a.92.92,0,0,1-1,1l-5.32.21a.92.92,0,0,1-1-1v-.73a8.22,8.22,0,0,0-2.55-6,8.82,8.82,0,0,0-6.51-2.55,8.14,8.14,0,0,0-6.4,2.76,10.53,10.53,0,0,0-2.45,7.24v21.45a10.51,10.51,0,0,0,2.45,7.24,8.14,8.14,0,0,0,6.4,2.76,8.82,8.82,0,0,0,6.51-2.55,8.2,8.2,0,0,0,2.55-6v-.73a.92.92,0,0,1,1-1l5.32.1a.92.92,0,0,1,1,1v1.15a13.39,13.39,0,0,1-4.53,10.36q-4.53,4.11-11.93,4.11T706.87,450.89Z" transform="translate(-104.09 -95.62)"/><path class="cls-1" d="M762.64,407.26h-7.92c-.28,0-.41.14-.41.42v31.86c0,3.19.55,5.4,1.66,6.61s2.81,1.79,5.1,1.72h1a.92.92,0,0,1,1,1v4.48a.92.92,0,0,1-1,1h-2.61c-4.1,0-7.2-.88-9.32-2.65s-3.17-5.12-3.17-10V407.68a.37.37,0,0,0-.42-.42h-4.06a.92.92,0,0,1-1-1v-3.44a.92.92,0,0,1,1-1h4.06a.37.37,0,0,0,.42-.42V389.66a.92.92,0,0,1,1-1h5.2a.93.93,0,0,1,1,1v11.66c0,.28.13.42.41.42h7.92a.92.92,0,0,1,1,1v3.44A.92.92,0,0,1,762.64,407.26Z" transform="translate(-104.09 -95.62)"/><path class="cls-1" d="M773.2,390.49a5.8,5.8,0,0,1,4.22-10,5.61,5.61,0,0,1,4.12,1.61,6.26,6.26,0,0,1,0,8.38,5.46,5.46,0,0,1-4.12,1.67A5.6,5.6,0,0,1,773.2,390.49Zm.58,62.9V402.78a.92.92,0,0,1,1-1h5.31a.92.92,0,0,1,1,1v50.61a.92.92,0,0,1-1,1h-5.31A.92.92,0,0,1,773.78,453.39Z" transform="translate(-104.09 -95.62)"/><path class="cls-1" d="M797.88,450.89q-4.43-4.38-4.42-11.56V416.94a15.6,15.6,0,0,1,4.48-11.55q4.47-4.49,11.87-4.48c5,0,9,1.49,12,4.48a15.6,15.6,0,0,1,4.48,11.55v22.39q0,7.19-4.48,11.56c-3,2.92-7,4.37-12,4.37S800.83,453.81,797.88,450.89ZM816.31,446a10.07,10.07,0,0,0,2.56-7.19V417.36a10.26,10.26,0,0,0-2.56-7.24,8.46,8.46,0,0,0-6.5-2.76,8.32,8.32,0,0,0-6.46,2.76,10.37,10.37,0,0,0-2.5,7.24v21.45a10.17,10.17,0,0,0,2.5,7.19,8.41,8.41,0,0,0,6.46,2.7A8.55,8.55,0,0,0,816.31,446Z" transform="translate(-104.09 -95.62)"/><path class="cls-1" d="M866.4,405.39q3.5,4.37,3.49,12.18v35.82a.92.92,0,0,1-1,1h-5.31a.92.92,0,0,1-1-1v-35.2q0-5.1-2.24-7.91a7.48,7.48,0,0,0-6.2-2.81,7.77,7.77,0,0,0-6.51,3q-2.34,3-2.34,8.22v34.68a.92.92,0,0,1-1,1h-5.31a.92.92,0,0,1-1-1V402.78a.92.92,0,0,1,1-1h5.31a.92.92,0,0,1,1,1v3.33a.34.34,0,0,0,.21.32c.14.07.24,0,.31-.21a11.74,11.74,0,0,1,4.74-3.91,14.67,14.67,0,0,1,6.09-1.3Q862.91,401,866.4,405.39Z" transform="translate(-104.09 -95.62)"/><path class="cls-1" d="M884.21,451.26a12.32,12.32,0,0,1-4.32-9.85v-.72a.92.92,0,0,1,1-1.05h5a.93.93,0,0,1,1,1.05v.62a7.39,7.39,0,0,0,2.44,5.62,9,9,0,0,0,6.41,2.29,8.16,8.16,0,0,0,6-2.29,7.91,7.91,0,0,0,2.29-5.83,7.05,7.05,0,0,0-1.46-4.53,11.05,11.05,0,0,0-3.38-2.86c-1.29-.69-3.21-1.6-5.78-2.71a48.08,48.08,0,0,1-6.72-3.28,14.3,14.3,0,0,1-4.58-4.58,13.56,13.56,0,0,1-1.93-7.55q0-6.66,4.12-10.52t11.09-3.85q7.08,0,11.24,4a13.81,13.81,0,0,1,4.17,10.51V416a.92.92,0,0,1-1,1h-4.79a.93.93,0,0,1-1.05-1v-.63a7.81,7.81,0,0,0-2.34-5.83,8.32,8.32,0,0,0-6.09-2.29,7.9,7.9,0,0,0-6,2.34,8.06,8.06,0,0,0-2.24,5.78,6.57,6.57,0,0,0,1.36,4.22,10.94,10.94,0,0,0,3.33,2.81c1.32.73,3.16,1.61,5.52,2.66a63.13,63.13,0,0,1,7,3.54,15.9,15.9,0,0,1,4.84,4.68,12.92,12.92,0,0,1,2.08,7.5,13.19,13.19,0,0,1-4.27,10.31Q903,455,895.71,455T884.21,451.26Z" transform="translate(-104.09 -95.62)"/><path class="cls-1" d="M942.89,453.39V382.58a.92.92,0,0,1,1-1h5.31a.92.92,0,0,1,1,1v70.81a.92.92,0,0,1-1,1h-5.31A.92.92,0,0,1,942.89,453.39Z" transform="translate(-104.09 -95.62)"/><path class="cls-1" d="M992.71,405.39q3.49,4.37,3.49,12.18v35.82a.92.92,0,0,1-1,1h-5.31a.92.92,0,0,1-1-1v-35.2q0-5.1-2.24-7.91a7.48,7.48,0,0,0-6.2-2.81,7.79,7.79,0,0,0-6.51,3q-2.34,3-2.34,8.22v34.68a.92.92,0,0,1-1,1h-5.31a.92.92,0,0,1-1-1V402.78a.92.92,0,0,1,1-1h5.31a.92.92,0,0,1,1,1v3.33a.34.34,0,0,0,.21.32c.14.07.24,0,.31-.21a11.74,11.74,0,0,1,4.74-3.91,14.67,14.67,0,0,1,6.09-1.3Q989.22,401,992.71,405.39Z" transform="translate(-104.09 -95.62)"/><path class="cls-1" d="M1033.27,381.54h5.31a.92.92,0,0,1,1,1v70.81a.92.92,0,0,1-1,1h-5.31a.92.92,0,0,1-1-1V451.1a.34.34,0,0,0-.16-.31c-.1-.07-.22,0-.36.1a12.89,12.89,0,0,1-10,4.37,13.54,13.54,0,0,1-10.62-4.42q-4-4.43-4-11.51V416.84q0-7.29,4-11.61a13.71,13.71,0,0,1,10.62-4.32,12.56,12.56,0,0,1,10,4.48c.14.14.26.17.36.1a.34.34,0,0,0,.16-.31v-22.6A.92.92,0,0,1,1033.27,381.54Zm-3.49,64.51a10.36,10.36,0,0,0,2.45-7.13V417.36a10.53,10.53,0,0,0-2.45-7.24,8,8,0,0,0-6.3-2.76,8.47,8.47,0,0,0-6.51,2.76,10.26,10.26,0,0,0-2.55,7.24v21.56a10.1,10.1,0,0,0,2.55,7.13,8.47,8.47,0,0,0,6.51,2.76A8,8,0,0,0,1029.78,446.05Z" transform="translate(-104.09 -95.62)"/><path class="cls-1" d="M1052.58,390.49a5.8,5.8,0,0,1,4.22-10,5.61,5.61,0,0,1,4.12,1.61,6.26,6.26,0,0,1,0,8.38,5.46,5.46,0,0,1-4.12,1.67A5.6,5.6,0,0,1,1052.58,390.49Zm.58,62.9V402.78a.92.92,0,0,1,1-1h5.31a.92.92,0,0,1,1,1v50.61a.92.92,0,0,1-1,1h-5.31A.92.92,0,0,1,1053.16,453.39Z" transform="translate(-104.09 -95.62)"/><path class="cls-1" d="M1083.15,453.49l-12.92-50.6-.1-.42c0-.49.31-.73.94-.73h6a1.07,1.07,0,0,1,1.14.94l9,39.46c.07.21.14.32.21.32s.13-.11.2-.32l8.86-39.46a1.06,1.06,0,0,1,1.14-.94l6,.1a1,1,0,0,1,.78.32.78.78,0,0,1,0,.83l-12.8,50.5a1,1,0,0,1-1.15.94h-6.25A1.06,1.06,0,0,1,1083.15,453.49Z" transform="translate(-104.09 -95.62)"/><path class="cls-1" d="M1113.71,390.49a5.8,5.8,0,0,1,4.22-10,5.6,5.6,0,0,1,4.11,1.61,6.26,6.26,0,0,1,0,8.38,5.46,5.46,0,0,1-4.11,1.67A5.58,5.58,0,0,1,1113.71,390.49Zm.57,62.9V402.78a.92.92,0,0,1,1-1h5.31a.93.93,0,0,1,1,1v50.61a.93.93,0,0,1-1,1h-5.31A.92.92,0,0,1,1114.28,453.39Z" transform="translate(-104.09 -95.62)"/><path class="cls-1" d="M1160.1,381.54h5.31a.92.92,0,0,1,1,1v70.81a.92.92,0,0,1-1,1h-5.31a.92.92,0,0,1-1-1V451.1a.34.34,0,0,0-.16-.31c-.1-.07-.22,0-.36.1a12.89,12.89,0,0,1-10,4.37,13.54,13.54,0,0,1-10.62-4.42q-4-4.43-4-11.51V416.84q0-7.29,4-11.61a13.71,13.71,0,0,1,10.62-4.32,12.56,12.56,0,0,1,10,4.48c.14.14.26.17.36.1a.34.34,0,0,0,.16-.31v-22.6A.92.92,0,0,1,1160.1,381.54Zm-3.49,64.51a10.36,10.36,0,0,0,2.45-7.13V417.36a10.53,10.53,0,0,0-2.45-7.24,8,8,0,0,0-6.3-2.76,8.47,8.47,0,0,0-6.51,2.76,10.26,10.26,0,0,0-2.55,7.24v21.56a10.1,10.1,0,0,0,2.55,7.13,8.47,8.47,0,0,0,6.51,2.76A8,8,0,0,0,1156.61,446.05Z" transform="translate(-104.09 -95.62)"/><path class="cls-1" d="M1204.25,401.74h5.31a.92.92,0,0,1,1,1v50.61a.92.92,0,0,1-1,1h-5.31a.92.92,0,0,1-1-1v-3.54c0-.21,0-.31-.16-.31a.57.57,0,0,0-.36.21q-3.23,5.42-10.42,5.41-6.24,0-9.94-3.8t-3.7-11.51V402.78a.93.93,0,0,1,1-1H1185a.92.92,0,0,1,1,1v35.41q0,5.21,2.13,7.86a7.48,7.48,0,0,0,6.2,2.65,7.78,7.78,0,0,0,6.51-3q2.34-3,2.34-8.22V402.78A.92.92,0,0,1,1204.25,401.74Z" transform="translate(-104.09 -95.62)"/><path class="cls-1" d="M1250.38,405.65q4.38,4.73,4.37,12.65v35.09a.92.92,0,0,1-1,1h-5.31a.92.92,0,0,1-1-1v-3.12c0-.14,0-.23-.16-.26s-.22,0-.36.15q-3.85,5.1-11.56,5.1a15.68,15.68,0,0,1-9.94-3.28q-4.23-3.27-4.22-11.61,0-8.85,5.1-13t13.43-4.11h7.29a.37.37,0,0,0,.42-.42v-4.06a13.32,13.32,0,0,0-2.4-8.33,7.68,7.68,0,0,0-6.45-3.13,7.59,7.59,0,0,0-5.36,2.09,8.48,8.48,0,0,0-2.66,5.31.92.92,0,0,1-1,1l-5.83-.11a.94.94,0,0,1-.78-.31.77.77,0,0,1-.16-.73,14.06,14.06,0,0,1,5-9.94,16.42,16.42,0,0,1,11-3.8Q1246,400.91,1250.38,405.65Zm-6.14,40.4a9.69,9.69,0,0,0,3.12-7.66v-8.74a.37.37,0,0,0-.42-.42h-7.39a11.3,11.3,0,0,0-7.91,2.66q-2.92,2.66-2.92,7.86c0,3.05.75,5.33,2.24,6.82a8,8,0,0,0,5.88,2.24A10.82,10.82,0,0,0,1244.24,446.05Z" transform="translate(-104.09 -95.62)"/><path class="cls-1" d="M1265.69,453.39V382.58a.92.92,0,0,1,1-1H1272a.92.92,0,0,1,1,1v70.81a.92.92,0,0,1-1,1h-5.31A.92.92,0,0,1,1265.69,453.39Z" transform="translate(-104.09 -95.62)"/><path class="cls-1" d="M693.91,490.12H670a.37.37,0,0,0-.42.42v25.83a.37.37,0,0,0,.42.41h15.1a.92.92,0,0,1,1,1v4.48a.92.92,0,0,1-1,1H670a.37.37,0,0,0-.42.42v31.76a.92.92,0,0,1-1,1h-5.31a.92.92,0,0,1-1-1V484.71a.92.92,0,0,1,1-1h30.72a.92.92,0,0,1,1,1v4.37A.92.92,0,0,1,693.91,490.12Z" transform="translate(-104.09 -95.62)"/><path class="cls-1" d="M730.77,533H707a.37.37,0,0,0-.42.41V541a10.37,10.37,0,0,0,2.45,7.14,8.15,8.15,0,0,0,6.4,2.76,8.38,8.38,0,0,0,5.68-2,9.54,9.54,0,0,0,3.07-5.26,1.17,1.17,0,0,1,1.15-.94l5.2.21a1,1,0,0,1,.73.31.86.86,0,0,1,.21.83,14.92,14.92,0,0,1-5,9.74q-4.22,3.6-11,3.59c-4.93,0-8.86-1.45-11.82-4.37s-4.42-6.77-4.42-11.56V519a15.57,15.57,0,0,1,4.42-11.51c3-2.95,6.89-4.42,11.82-4.42s9,1.47,11.93,4.42A15.57,15.57,0,0,1,731.81,519v13A.92.92,0,0,1,730.77,533Zm-21.71-20.78a10.53,10.53,0,0,0-2.45,7.24v7a.37.37,0,0,0,.42.41h17.08a.37.37,0,0,0,.41-.41v-7a10.37,10.37,0,0,0-2.5-7.24,8.42,8.42,0,0,0-6.56-2.76A8.15,8.15,0,0,0,709.06,512.25Z" transform="translate(-104.09 -95.62)"/><path class="cls-1" d="M742.12,555.52V484.71a.92.92,0,0,1,1-1h5.31a.92.92,0,0,1,1,1v70.81a.92.92,0,0,1-1,1h-5.31A.92.92,0,0,1,742.12,555.52Z" transform="translate(-104.09 -95.62)"/><path class="cls-1" d="M761,555.52V484.71a.92.92,0,0,1,1-1h5.31a.92.92,0,0,1,1,1v70.81a.92.92,0,0,1-1,1H762A.92.92,0,0,1,761,555.52Z" transform="translate(-104.09 -95.62)"/><path class="cls-1" d="M783.72,553q-4.43-4.38-4.42-11.56V519.07a15.64,15.64,0,0,1,4.48-11.56q4.47-4.47,11.87-4.47t12,4.47a15.64,15.64,0,0,1,4.48,11.56v22.39q0,7.18-4.48,11.56t-12,4.37Q788.15,557.39,783.72,553Zm18.44-4.89a10.06,10.06,0,0,0,2.55-7.19V519.49a10.26,10.26,0,0,0-2.55-7.24,8.5,8.5,0,0,0-6.51-2.76,8.32,8.32,0,0,0-6.46,2.76,10.41,10.41,0,0,0-2.5,7.24v21.45a10.22,10.22,0,0,0,2.5,7.19,8.41,8.41,0,0,0,6.46,2.7A8.59,8.59,0,0,0,802.16,548.13Z" transform="translate(-104.09 -95.62)"/><path class="cls-1" d="M829.39,555.62l-11-50.61v-.2a.83.83,0,0,1,.94-.94h5.1c.69,0,1.08.31,1.14.94l7.5,39.77c.07.15.14.21.21.21s.14-.06.21-.21l7.7-39.77a1.07,1.07,0,0,1,1.15-.94H847a1,1,0,0,1,1.14.94l7.71,39.77c.06.15.14.21.21.21s.13-.06.2-.21L864,504.81a1.07,1.07,0,0,1,1.14-.94l5,.1c.77,0,1.08.39.94,1.15l-11,50.5a1,1,0,0,1-1.14.94h-5.31a1.07,1.07,0,0,1-1.15-.94l-7.71-38.11c-.06-.21-.14-.31-.2-.31s-.14.1-.21.31l-7.4,38.11c-.06.63-.45.94-1.14.94h-5.21A1.07,1.07,0,0,1,829.39,555.62Z" transform="translate(-104.09 -95.62)"/><path class="cls-1" d="M881.5,553.38a12.29,12.29,0,0,1-4.32-9.84v-.72a.93.93,0,0,1,1-1.05h5a.92.92,0,0,1,1,1.05v.62a7.4,7.4,0,0,0,2.45,5.62,9,9,0,0,0,6.4,2.29,8.14,8.14,0,0,0,6-2.29,7.88,7.88,0,0,0,2.3-5.83A7.05,7.05,0,0,0,900,538.7a11.09,11.09,0,0,0-3.39-2.86q-1.92-1.05-5.78-2.71a48.46,48.46,0,0,1-6.71-3.28,14.42,14.42,0,0,1-4.59-4.58,13.65,13.65,0,0,1-1.92-7.55q0-6.66,4.11-10.52t11.09-3.85q7.08,0,11.25,4a13.84,13.84,0,0,1,4.16,10.51v.32a.92.92,0,0,1-1,1h-4.79a.92.92,0,0,1-1-1v-.63a7.81,7.81,0,0,0-2.34-5.83,8.32,8.32,0,0,0-6.09-2.29,7.9,7.9,0,0,0-6,2.34,8,8,0,0,0-2.24,5.78,6.62,6.62,0,0,0,1.35,4.22,11,11,0,0,0,3.34,2.81c1.31.73,3.15,1.61,5.51,2.66a60.62,60.62,0,0,1,7,3.54,15.93,15.93,0,0,1,4.85,4.68,13,13,0,0,1,2.08,7.5,13.19,13.19,0,0,1-4.27,10.31q-4.27,3.85-11.56,3.85T881.5,553.38Z" transform="translate(-104.09 -95.62)"/><path class="cls-1" d="M946.79,507.51q3.5,4.38,3.49,12.19v35.82a.92.92,0,0,1-1,1h-5.31a.92.92,0,0,1-1-1v-35.2q0-5.1-2.24-7.91a7.47,7.47,0,0,0-6.2-2.81,7.75,7.75,0,0,0-6.5,3q-2.36,3-2.35,8.22v34.68a.92.92,0,0,1-1,1h-5.31a.92.92,0,0,1-1-1V484.71a.92.92,0,0,1,1-1h5.31a.92.92,0,0,1,1,1v23.53a.34.34,0,0,0,.21.32c.14.06.24,0,.31-.21a11.74,11.74,0,0,1,4.74-3.91,14.52,14.52,0,0,1,6.09-1.3Q943.31,503.14,946.79,507.51Z" transform="translate(-104.09 -95.62)"/><path class="cls-1" d="M962.62,492.62a5.8,5.8,0,0,1,4.22-10,5.6,5.6,0,0,1,4.11,1.61,6.23,6.23,0,0,1,0,8.38,5.49,5.49,0,0,1-4.11,1.67A5.62,5.62,0,0,1,962.62,492.62Zm.57,62.9V504.91a.93.93,0,0,1,1-1h5.31a.92.92,0,0,1,1,1v50.61a.92.92,0,0,1-1,1h-5.31A.93.93,0,0,1,963.19,555.52Z" transform="translate(-104.09 -95.62)"/><path class="cls-1" d="M1013.07,507.46q4,4.43,4,11.51v22.49q0,7.29-4,11.61a13.58,13.58,0,0,1-10.52,4.32A14,14,0,0,1,997,556.3a12.4,12.4,0,0,1-4.59-3.38c-.14-.14-.26-.18-.36-.11a.37.37,0,0,0-.16.31v22.6a.92.92,0,0,1-1,1h-5.31a.92.92,0,0,1-1-1V504.91a.92.92,0,0,1,1-1h5.31a.92.92,0,0,1,1,1v2.4a.25.25,0,0,0,.21.26.45.45,0,0,0,.42-.16,11.8,11.8,0,0,1,4.53-3.28,14.19,14.19,0,0,1,5.46-1.09A13.41,13.41,0,0,1,1013.07,507.46Zm-5.88,4.79a8.47,8.47,0,0,0-6.51-2.76,8,8,0,0,0-6.3,2.76,10.53,10.53,0,0,0-2.45,7.24v21.45a10.51,10.51,0,0,0,2.45,7.24,8,8,0,0,0,6.3,2.76,8.47,8.47,0,0,0,6.51-2.76,10.24,10.24,0,0,0,2.55-7.24V519.49A10.26,10.26,0,0,0,1007.19,512.25Z" transform="translate(-104.09 -95.62)"/></svg>