<svg xmlns="http://www.w3.org/2000/svg" viewBox="0 0 545.85 555.85"><defs><style>.cls-1{fill:#fff;}.cls-2{fill:none;}</style></defs><g id="Capa_1" data-name="Capa 1"><path class="cls-1" d="M336.33,190c-4.78-2-21.53-2.47-27.29.2a11.78,11.78,0,0,0-6.61,5.74,20.26,20.26,0,0,0-1.8,6.8,148.12,148.12,0,0,0-.08,20.53,17.24,17.24,0,0,0,1.57,6.26,12.12,12.12,0,0,0,6.76,6.14c5.71,2.65,22.65,2.23,27.45.26a9.37,9.37,0,0,0,5.82-6.53c2-5.47,2-27.32,0-32.8A9.62,9.62,0,0,0,336.33,190Z" transform="translate(-139.84 -11.89)"/><path class="cls-1" d="M684.86,268.1,622.79,446.16,501.72,402.47,428,453.78l-14.43-10.42-.76.35-.75-.35-14.43,10.42-73.77-51.31L202.74,446.16,140.66,268.1q-.81,10.74-.82,21.71c0,153.5,122.19,277.93,272.92,277.93S685.69,443.31,685.69,289.81Q685.69,278.85,684.86,268.1Z" transform="translate(-139.84 -11.89)"/><path class="cls-1" d="M243.61,189.11c-5.24-2-22.76-1.65-27.28.2a9.06,9.06,0,0,0-6,5.73q-1.5,4.2-1.65,13.53h42.62V207.5q0-8.79-1.81-12.93A9.43,9.43,0,0,0,243.61,189.11Z" transform="translate(-139.84 -11.89)"/><path class="cls-2" d="M434.7,208.71c0-6.32-.47-10.82-1.42-13.54a8.23,8.23,0,0,0-5.34-5.4c-5.09-1.89-23.11-2.05-27.76,1.34a11.53,11.53,0,0,0-5.82,7.33,58.15,58.15,0,0,0-1.18,13.46V247H380.44V179h11.32l.63,9.6h.95a17.45,17.45,0,0,1,8.8-7.93c7.13-3.6,28.27-3.71,35.31.07a14.71,14.71,0,0,1,7.94,8.33q2.06,5.53,2.05,15.4V247H434.7Z" transform="translate(-139.84 -11.89)"/><path class="cls-2" d="M434.7,208.71c0-6.32-.47-10.82-1.42-13.54a8.23,8.23,0,0,0-5.34-5.4c-5.09-1.89-23.11-2.05-27.76,1.34a11.53,11.53,0,0,0-5.82,7.33,58.15,58.15,0,0,0-1.18,13.46V247H380.44V179h11.32l.63,9.6h.95a17.45,17.45,0,0,1,8.8-7.93c7.13-3.6,28.27-3.71,35.31.07a14.71,14.71,0,0,1,7.94,8.33q2.06,5.53,2.05,15.4V247H434.7Z" transform="translate(-139.84 -11.89)"/><path class="cls-1" d="M412.76,11.89c-143.27,0-260.75,112.42-272,255.36l.3.49L204.55,371.6l120.6-45.45,74.29,121.48,13.32-10.83,13.33,10.83,74.28-121.48L621,371.6l63.51-103.86.3-.49C673.51,124.31,556,11.89,412.76,11.89Zm-149.17,205H208.7q0,9.74,1.57,13.86t6.84,5.8c10.84,2.9,30,1.53,43.33.2v9.47c-3.36.53-7.7,1-13.05,1.33-11.94.9-31.08,1-39.09-2.66q-7.62-3.21-10-10.27c-3.13-8.13-3.07-34.37-.24-42.66q2.13-7.07,9.6-10.54c7.91-4.35,37.3-4.85,45.53-.06a15.62,15.62,0,0,1,8.57,10.26q1.8,6.87,1.81,21.4Zm90.35,17.6q-2.6,7.47-8.81,10.53c-7.17,4-26.53,3.88-34.6.93a16.77,16.77,0,0,1-9.51-7.46h-.79v35.2H287.49V179h11.33l.63,9.6h.94a16.63,16.63,0,0,1,10-8.4c8.69-3.15,27.24-3.12,34.68.8a17.49,17.49,0,0,1,8.88,10.47C357.42,200.26,357.38,225.66,353.94,234.44ZM447.44,247H434.7V208.71c0-6.32-.47-10.82-1.42-13.54a8.23,8.23,0,0,0-5.34-5.4c-5.09-1.89-23.11-2.05-27.76,1.34a11.53,11.53,0,0,0-5.82,7.33,58.15,58.15,0,0,0-1.18,13.46V247H380.44V179h11.32l.63,9.6h.95a17.45,17.45,0,0,1,8.8-7.93c7.13-3.6,28.27-3.71,35.31.07a14.71,14.71,0,0,1,7.94,8.33q2.06,5.53,2.05,15.4Zm92.08-11.53q-2,6.87-9.2,9.73c-8.08,3.83-40,3.8-48,0q-7.23-2.86-9.2-9.73c-2.61-7.68-2.61-37.25,0-44.93q2-6.87,9.2-9.74c8-3.8,39.88-3.83,48,0q7.23,2.88,9.2,9.74C542.14,198.19,542.14,227.76,539.52,235.44Zm90-18.6H574.67q0,9.74,1.58,13.86t6.84,5.8c10.84,2.9,30,1.53,43.33.2v9.47q-5,.79-13.06,1.33c-11.94.9-31.07,1-39.08-2.66q-7.63-3.21-10-10.27c-3.13-8.13-3.07-34.37-.23-42.66q2.12-7.07,9.59-10.54c7.92-4.35,37.31-4.85,45.53-.06a15.6,15.6,0,0,1,8.58,10.26q1.8,6.87,1.8,21.4Z" transform="translate(-139.84 -11.89)"/><path class="cls-1" d="M522.3,189.51c-4.73-2.32-27.1-2.3-31.85,0a8.37,8.37,0,0,0-5.5,6.33c-1.36,4.78-1.36,29.49,0,34.26a8.4,8.4,0,0,0,5.5,6.34c4.75,2.29,27.12,2.31,31.85,0a8.42,8.42,0,0,0,5.43-6.34c1.36-4.77,1.36-29.48,0-34.26A8.39,8.39,0,0,0,522.3,189.51Z" transform="translate(-139.84 -11.89)"/><path class="cls-1" d="M609.59,189.11c-5.25-2-22.76-1.65-27.29.2a9,9,0,0,0-6,5.73q-1.5,4.2-1.66,13.53H617.3V207.5q0-8.79-1.81-12.93A9.46,9.46,0,0,0,609.59,189.11Z" transform="translate(-139.84 -11.89)"/></g><g id="Capa_2" data-name="Capa 2"><polygon class="cls-1" points="475.69 115.72 469.76 124.48 472.4 124.48 475.69 115.72"/></g></svg>