<svg id="Capa_1" data-name="Capa 1" xmlns="http://www.w3.org/2000/svg" viewBox="0 0 254.05 126.16"><defs><style>.cls-1,.cls-2,.cls-3{fill:#fff;}.cls-2{opacity:0.64;}.cls-3{opacity:0.48;}</style></defs><path class="cls-1" d="M145.31,100.86c.44.79.9,1.3.79,1.48a4.79,4.79,0,0,1-1.18,1c-.26-.33-.77-.72-.71-1C144.32,101.94,144.77,101.57,145.31,100.86Z" transform="translate(-8.32 -15.1)"/><path class="cls-1" d="M15.66,109.14H10.15v5.11h6.14v1.53h-8V101.61H16v1.54H10.15v4.48h5.51Z" transform="translate(-8.32 -15.1)"/><path class="cls-1" d="M27,113c0,1,0,2,.08,2.77H25.42l-.1-1.66h0A3.84,3.84,0,0,1,21.91,116c-1.6,0-3.51-.88-3.51-4.45v-6h1.85v5.63c0,1.94.59,3.24,2.27,3.24A2.68,2.68,0,0,0,25,112.8a2.63,2.63,0,0,0,.17-1v-6.24H27Z" transform="translate(-8.32 -15.1)"/><path class="cls-1" d="M30.05,108.78c0-1.2,0-2.23-.08-3.17h1.62l.06,2h.09a3,3,0,0,1,2.81-2.23,2.15,2.15,0,0,1,.53.06v1.74a2.93,2.93,0,0,0-.63-.06A2.6,2.6,0,0,0,32,109.5a5.29,5.29,0,0,0-.09.86v5.42H30.05Z" transform="translate(-8.32 -15.1)"/><path class="cls-1" d="M45.93,110.61c0,3.76-2.6,5.4-5.06,5.4-2.76,0-4.88-2-4.88-5.23,0-3.41,2.23-5.4,5-5.4S45.93,107.5,45.93,110.61Zm-8.07.11c0,2.23,1.28,3.91,3.09,3.91S44,113,44,110.68c0-1.73-.86-3.92-3-3.92S37.86,108.78,37.86,110.72Z" transform="translate(-8.32 -15.1)"/><path class="cls-1" d="M48.27,108.93c0-1.3,0-2.35-.08-3.32h1.66l.08,1.74h0a4,4,0,0,1,3.61-2c2.46,0,4.31,2.08,4.31,5.17,0,3.66-2.23,5.46-4.62,5.46a3.57,3.57,0,0,1-3.14-1.59h0V120H48.27Zm1.83,2.71a3.6,3.6,0,0,0,.09.76A2.85,2.85,0,0,0,53,114.56c2,0,3.09-1.59,3.09-3.93,0-2-1.07-3.78-3-3.78a2.94,2.94,0,0,0-2.79,2.29,2.69,2.69,0,0,0-.13.76Z" transform="translate(-8.32 -15.1)"/><path class="cls-1" d="M61.27,111a3.26,3.26,0,0,0,3.49,3.53,6.75,6.75,0,0,0,2.82-.52l.31,1.32a8.11,8.11,0,0,1-3.38.63c-3.13,0-5-2.06-5-5.13s1.81-5.48,4.78-5.48c3.32,0,4.2,2.92,4.2,4.79a7.27,7.27,0,0,1-.06.86Zm5.43-1.32c0-1.18-.49-3-2.57-3-1.87,0-2.69,1.73-2.84,3Z" transform="translate(-8.32 -15.1)"/><path class="cls-1" d="M76.41,115.78l-.14-1.28H76.2A3.77,3.77,0,0,1,73.09,116,2.9,2.9,0,0,1,70,113.09c0-2.46,2.19-3.8,6.12-3.78v-.21a2.1,2.1,0,0,0-2.31-2.36,5.08,5.08,0,0,0-2.65.76l-.42-1.22a6.28,6.28,0,0,1,3.34-.9c3.11,0,3.87,2.12,3.87,4.16v3.8a13.87,13.87,0,0,0,.17,2.44Zm-.27-5.19c-2,0-4.31.32-4.31,2.29a1.64,1.64,0,0,0,1.75,1.77A2.54,2.54,0,0,0,76,113a2,2,0,0,0,.1-.59Z" transform="translate(-8.32 -15.1)"/><path class="cls-1" d="M80.92,108.36c0-1,0-1.91-.08-2.75h1.64l.1,1.68h0A3.75,3.75,0,0,1,86,105.38c1.41,0,3.59.84,3.59,4.33v6.07H87.73v-5.86c0-1.64-.61-3-2.35-3a2.62,2.62,0,0,0-2.48,1.89,2.57,2.57,0,0,0-.13.87v6.11H80.92Z" transform="translate(-8.32 -15.1)"/><path class="cls-1" d="M96.87,113.55a6.41,6.41,0,0,0,3.28.93c1.87,0,3-1,3-2.42s-.76-2.08-2.67-2.81c-2.31-.82-3.74-2-3.74-4,0-2.21,1.83-3.85,4.58-3.85a6.39,6.39,0,0,1,3.13.7l-.5,1.49a5.67,5.67,0,0,0-2.69-.67c-1.94,0-2.67,1.15-2.67,2.12,0,1.32.86,2,2.81,2.73,2.4.93,3.62,2.08,3.62,4.16s-1.62,4.08-5,4.08a7.39,7.39,0,0,1-3.62-.9Z" transform="translate(-8.32 -15.1)"/><path class="cls-1" d="M115.94,113c0,1,0,2,.08,2.77h-1.64l-.1-1.66h0a3.84,3.84,0,0,1-3.37,1.89c-1.59,0-3.51-.88-3.51-4.45v-6h1.85v5.63c0,1.94.59,3.24,2.27,3.24a2.67,2.67,0,0,0,2.44-1.68,2.63,2.63,0,0,0,.17-1v-6.24h1.85Z" transform="translate(-8.32 -15.1)"/><path class="cls-1" d="M118.76,113.89a4.86,4.86,0,0,0,2.44.74c1.35,0,2-.67,2-1.52s-.53-1.36-1.89-1.87c-1.83-.65-2.69-1.66-2.69-2.88,0-1.64,1.32-3,3.51-3a5,5,0,0,1,2.5.63l-.46,1.34a4,4,0,0,0-2.08-.59c-1.1,0-1.71.64-1.71,1.39s.61,1.22,1.94,1.73c1.76.67,2.67,1.55,2.67,3.07,0,1.78-1.39,3-3.81,3a5.84,5.84,0,0,1-2.86-.69Z" transform="translate(-8.32 -15.1)"/><path class="cls-1" d="M129.58,102.69v2.92h2.65V107h-2.65v5.48c0,1.27.35,2,1.38,2a3.88,3.88,0,0,0,1.08-.13l.08,1.39a4.51,4.51,0,0,1-1.64.25,2.58,2.58,0,0,1-2-.77,3.8,3.8,0,0,1-.71-2.65V107h-1.58v-1.41h1.58v-2.44Z" transform="translate(-8.32 -15.1)"/><path class="cls-1" d="M140,115.78l-.15-1.28h-.07a3.77,3.77,0,0,1-3.11,1.51,2.9,2.9,0,0,1-3.11-2.92c0-2.46,2.19-3.8,6.12-3.78v-.21a2.1,2.1,0,0,0-2.31-2.36,5.08,5.08,0,0,0-2.65.76l-.42-1.22a6.28,6.28,0,0,1,3.34-.9c3.11,0,3.87,2.12,3.87,4.16v3.8a13.87,13.87,0,0,0,.17,2.44Zm-.28-5.19c-2,0-4.31.32-4.31,2.29a1.64,1.64,0,0,0,1.75,1.77,2.54,2.54,0,0,0,2.46-1.7,2,2,0,0,0,.1-.59Z" transform="translate(-8.32 -15.1)"/><path class="cls-1" d="M146.51,102.75a1.15,1.15,0,0,1-2.29,0,1.13,1.13,0,0,1,1.16-1.16A1.1,1.1,0,0,1,146.51,102.75Zm-2.06,13V105.61h1.85v10.17Z" transform="translate(-8.32 -15.1)"/><path class="cls-1" d="M149.37,108.36c0-1,0-1.91-.08-2.75h1.64l.1,1.68h.05a3.72,3.72,0,0,1,3.36-1.91c1.41,0,3.6.84,3.6,4.33v6.07h-1.86v-5.86c0-1.64-.6-3-2.35-3a2.62,2.62,0,0,0-2.48,1.89,2.84,2.84,0,0,0-.13.87v6.11h-1.85Z" transform="translate(-8.32 -15.1)"/><path class="cls-1" d="M166.68,115.78l-.14-1.28h-.07a3.79,3.79,0,0,1-3.11,1.51,2.9,2.9,0,0,1-3.11-2.92c0-2.46,2.19-3.8,6.12-3.78v-.21a2.1,2.1,0,0,0-2.32-2.36,5.07,5.07,0,0,0-2.64.76l-.43-1.22a6.34,6.34,0,0,1,3.35-.9c3.11,0,3.87,2.12,3.87,4.16v3.8a15,15,0,0,0,.16,2.44Zm-.27-5.19c-2,0-4.31.32-4.31,2.29a1.64,1.64,0,0,0,1.74,1.77,2.52,2.52,0,0,0,2.46-1.7,1.76,1.76,0,0,0,.11-.59Z" transform="translate(-8.32 -15.1)"/><path class="cls-1" d="M171.1,115.78c.05-.69.09-1.72.09-2.62v-12.3H173v6.39h0a3.78,3.78,0,0,1,3.47-1.87c2.52,0,4.31,2.1,4.29,5.19,0,3.64-2.3,5.44-4.57,5.44a3.61,3.61,0,0,1-3.4-1.91h-.06l-.09,1.68ZM173,111.7a3.62,3.62,0,0,0,.08.68,2.86,2.86,0,0,0,2.78,2.16c1.93,0,3.09-1.57,3.09-3.91,0-2-1.05-3.78-3-3.78a3,3,0,0,0-2.82,2.27,3.79,3.79,0,0,0-.1.76Z" transform="translate(-8.32 -15.1)"/><path class="cls-1" d="M183.16,100.86H185v14.92h-1.85Z" transform="translate(-8.32 -15.1)"/><path class="cls-1" d="M189.15,111a3.26,3.26,0,0,0,3.49,3.53,6.75,6.75,0,0,0,2.82-.52l.31,1.32a8.11,8.11,0,0,1-3.38.63c-3.13,0-5-2.06-5-5.13s1.8-5.48,4.77-5.48c3.32,0,4.2,2.92,4.2,4.79a7.27,7.27,0,0,1-.06.86Zm5.43-1.32c0-1.18-.49-3-2.57-3-1.87,0-2.69,1.73-2.84,3Z" transform="translate(-8.32 -15.1)"/><path class="cls-1" d="M210.52,109.14H205v5.11h6.14v1.53h-8V101.61h7.66v1.54H205v4.48h5.51Z" transform="translate(-8.32 -15.1)"/><path class="cls-1" d="M213.47,108.36c0-1,0-1.91-.08-2.75H215l.1,1.68h0a3.74,3.74,0,0,1,3.37-1.91c1.4,0,3.59.84,3.59,4.33v6.07h-1.85v-5.86c0-1.64-.61-3-2.35-3a2.62,2.62,0,0,0-2.48,1.89,2.57,2.57,0,0,0-.13.87v6.11h-1.85Z" transform="translate(-8.32 -15.1)"/><path class="cls-1" d="M226.18,111a3.26,3.26,0,0,0,3.49,3.53,6.74,6.74,0,0,0,2.81-.52l.32,1.32a8.17,8.17,0,0,1-3.39.63c-3.13,0-5-2.06-5-5.13s1.81-5.48,4.77-5.48c3.32,0,4.21,2.92,4.21,4.79a5.34,5.34,0,0,1-.07.86Zm5.42-1.32c0-1.18-.48-3-2.57-3-1.87,0-2.69,1.73-2.83,3Z" transform="translate(-8.32 -15.1)"/><path class="cls-1" d="M235.68,108.78c0-1.2,0-2.23-.08-3.17h1.62l.06,2h.08a3.06,3.06,0,0,1,2.82-2.23,2.15,2.15,0,0,1,.53.06v1.74a2.93,2.93,0,0,0-.63-.06,2.59,2.59,0,0,0-2.48,2.38,4.37,4.37,0,0,0-.09.86v5.42h-1.83Z" transform="translate(-8.32 -15.1)"/><path class="cls-1" d="M251.16,105.61c0,.73-.08,1.55-.08,2.79v5.91c0,2.34-.47,3.77-1.45,4.65a5.43,5.43,0,0,1-3.7,1.22,6.65,6.65,0,0,1-3.39-.84l.46-1.41a5.78,5.78,0,0,0,3,.8c1.89,0,3.28-1,3.28-3.56V114h0a3.65,3.65,0,0,1-3.24,1.7c-2.52,0-4.33-2.14-4.33-5,0-3.45,2.25-5.4,4.58-5.4a3.39,3.39,0,0,1,3.18,1.76h0l.08-1.53Zm-1.91,4a2.51,2.51,0,0,0-.11-.84,2.66,2.66,0,0,0-2.58-2c-1.77,0-3,1.49-3,3.85,0,2,1,3.65,3,3.65a2.7,2.7,0,0,0,2.56-1.89,3.05,3.05,0,0,0,.15-1Z" transform="translate(-8.32 -15.1)"/><path class="cls-1" d="M254.83,105.61l2.22,6c.24.67.49,1.47.66,2.08h0c.19-.61.4-1.38.65-2.12l2-6h1.95l-2.77,7.25c-1.33,3.49-2.23,5.28-3.49,6.37a5,5,0,0,1-2.27,1.2l-.47-1.56A4.67,4.67,0,0,0,255,118a5.52,5.52,0,0,0,1.56-2.06,1.5,1.5,0,0,0,.15-.44,1.53,1.53,0,0,0-.13-.49l-3.76-9.37Z" transform="translate(-8.32 -15.1)"/><path class="cls-1" d="M10.15,126.86V141H8.32V126.86Z" transform="translate(-8.32 -15.1)"/><path class="cls-1" d="M13.5,133.61c0-1.05,0-1.92-.08-2.76h1.64l.1,1.68h0a3.76,3.76,0,0,1,3.37-1.91c1.41,0,3.59.84,3.59,4.33V141H20.31v-5.87c0-1.64-.61-3-2.35-3a2.62,2.62,0,0,0-2.48,1.89,2.47,2.47,0,0,0-.13.86V141H13.5Z" transform="translate(-8.32 -15.1)"/><path class="cls-1" d="M25.17,133.61c0-1.05,0-1.92-.08-2.76h1.64l.11,1.68h0a3.74,3.74,0,0,1,3.36-1.91c1.41,0,3.6.84,3.6,4.33V141H32v-5.87c0-1.64-.61-3-2.36-3a2.63,2.63,0,0,0-2.48,1.89,2.73,2.73,0,0,0-.13.86V141H25.17Z" transform="translate(-8.32 -15.1)"/><path class="cls-1" d="M46.06,135.86c0,3.76-2.61,5.4-5.07,5.4-2.75,0-4.88-2-4.88-5.24,0-3.4,2.23-5.4,5-5.4S46.06,132.74,46.06,135.86ZM38,136c0,2.23,1.29,3.91,3.1,3.91s3.09-1.66,3.09-4c0-1.72-.87-3.91-3.05-3.91S38,134,38,136Z" transform="translate(-8.32 -15.1)"/><path class="cls-1" d="M49,130.85l2,5.72a25.7,25.7,0,0,1,.82,2.61h.07c.23-.84.52-1.68.86-2.61l2-5.72h1.94l-4,10.18H50.86L47,130.85Z" transform="translate(-8.32 -15.1)"/><path class="cls-1" d="M63.92,141l-.15-1.28h-.06a3.79,3.79,0,0,1-3.11,1.51,2.9,2.9,0,0,1-3.11-2.92c0-2.46,2.18-3.81,6.12-3.79v-.21A2.1,2.1,0,0,0,61.29,132a5.12,5.12,0,0,0-2.65.75l-.42-1.21a6.29,6.29,0,0,1,3.35-.91c3.11,0,3.86,2.12,3.86,4.16v3.81A15.07,15.07,0,0,0,65.6,141Zm-.27-5.19c-2-.05-4.31.31-4.31,2.29a1.64,1.64,0,0,0,1.74,1.76,2.52,2.52,0,0,0,2.46-1.7,1.76,1.76,0,0,0,.11-.59Z" transform="translate(-8.32 -15.1)"/><path class="cls-1" d="M70.57,127.93v2.92h2.65v1.41H70.57v5.49c0,1.26.36,2,1.39,2A4.21,4.21,0,0,0,73,139.6l.08,1.39a4.65,4.65,0,0,1-1.64.25,2.57,2.57,0,0,1-2-.78,3.75,3.75,0,0,1-.72-2.65v-5.55H67.18v-1.41h1.58v-2.44Z" transform="translate(-8.32 -15.1)"/><path class="cls-1" d="M77.36,128a1.15,1.15,0,0,1-2.29,0,1.13,1.13,0,0,1,1.16-1.15A1.09,1.09,0,0,1,77.36,128ZM75.3,141V130.85h1.85V141Z" transform="translate(-8.32 -15.1)"/><path class="cls-1" d="M89.43,135.86c0,3.76-2.6,5.4-5.06,5.4-2.76,0-4.88-2-4.88-5.24,0-3.4,2.23-5.4,5.05-5.4S89.43,132.74,89.43,135.86Zm-8.07.1c0,2.23,1.28,3.91,3.09,3.91s3.09-1.66,3.09-4c0-1.72-.86-3.91-3.05-3.91S81.36,134,81.36,136Z" transform="translate(-8.32 -15.1)"/><path class="cls-1" d="M91.77,133.61c0-1.05,0-1.92-.08-2.76h1.64l.11,1.68h0a3.74,3.74,0,0,1,3.36-1.91c1.41,0,3.6.84,3.6,4.33V141H98.59v-5.87c0-1.64-.61-3-2.36-3a2.63,2.63,0,0,0-2.48,1.89,2.73,2.73,0,0,0-.13.86V141H91.77Z" transform="translate(-8.32 -15.1)"/><path class="cls-1" d="M110.26,136.57,108.79,141H106.9l4.81-14.17h2.21L118.76,141h-2l-1.51-4.46Zm4.65-1.43-1.39-4.08c-.31-.92-.52-1.76-.73-2.58h-.05c-.21.84-.44,1.7-.71,2.56l-1.39,4.1Z" transform="translate(-8.32 -15.1)"/><path class="cls-1" d="M120.72,126.1h1.85V141h-1.85Z" transform="translate(-8.32 -15.1)"/><path class="cls-1" d="M125.68,126.1h1.86V141h-1.86Z" transform="translate(-8.32 -15.1)"/><path class="cls-1" d="M132.71,128a1.15,1.15,0,0,1-2.29,0,1.12,1.12,0,0,1,1.15-1.15A1.09,1.09,0,0,1,132.71,128Zm-2.06,13V130.85h1.85V141Z" transform="translate(-8.32 -15.1)"/><path class="cls-1" d="M141.21,141l-.15-1.28H141a3.79,3.79,0,0,1-3.12,1.51,2.9,2.9,0,0,1-3.11-2.92c0-2.46,2.19-3.81,6.12-3.79v-.21a2.09,2.09,0,0,0-2.31-2.35,5.07,5.07,0,0,0-2.65.75l-.42-1.21a6.28,6.28,0,0,1,3.34-.91c3.11,0,3.87,2.12,3.87,4.16v3.81a14,14,0,0,0,.17,2.44Zm-.28-5.19c-2-.05-4.31.31-4.31,2.29a1.64,1.64,0,0,0,1.75,1.76,2.54,2.54,0,0,0,2.46-1.7,2,2,0,0,0,.1-.59Z" transform="translate(-8.32 -15.1)"/><path class="cls-1" d="M145.71,133.61c0-1.05,0-1.92-.08-2.76h1.64l.1,1.68h0a3.77,3.77,0,0,1,3.37-1.91c1.41,0,3.59.84,3.59,4.33V141h-1.85v-5.87c0-1.64-.61-3-2.35-3a2.62,2.62,0,0,0-2.48,1.89,2.47,2.47,0,0,0-.13.86V141h-1.85Z" transform="translate(-8.32 -15.1)"/><path class="cls-1" d="M164.64,140.65a6.84,6.84,0,0,1-2.92.59,4.84,4.84,0,0,1-5.07-5.2,5.17,5.17,0,0,1,5.47-5.4,6.18,6.18,0,0,1,2.56.53l-.42,1.43a4.28,4.28,0,0,0-2.14-.49,3.84,3.84,0,0,0-.07,7.66,5.3,5.3,0,0,0,2.28-.51Z" transform="translate(-8.32 -15.1)"/><path class="cls-1" d="M167.71,136.28a3.26,3.26,0,0,0,3.49,3.53,6.58,6.58,0,0,0,2.82-.53l.32,1.33a8.34,8.34,0,0,1-3.39.63c-3.13,0-5-2.06-5-5.13s1.81-5.49,4.77-5.49c3.32,0,4.21,2.92,4.21,4.79a7,7,0,0,1-.07.87Zm5.43-1.33c0-1.18-.48-3-2.57-3-1.87,0-2.69,1.73-2.83,3Z" transform="translate(-8.32 -15.1)"/><path class="cls-1" d="M8.32,43.75H36.67A22.16,22.16,0,0,1,37.08,48a22.82,22.82,0,0,1-.41,4.37H18.47V63.2H32.91a23.2,23.2,0,0,1,.42,4.31,22.71,22.71,0,0,1-.42,4.37H18.47v13.2H37.15a21.39,21.39,0,0,1,.42,4.24,22.11,22.11,0,0,1-.42,4.37H8.32Z" transform="translate(-8.32 -15.1)"/><path class="cls-1" d="M54.31,70.56a29.9,29.9,0,0,1-4.24-2A12.3,12.3,0,0,1,46.88,66a10.54,10.54,0,0,1-2.05-3.57,15.18,15.18,0,0,1-.73-5,15.15,15.15,0,0,1,1.21-6.25,12.63,12.63,0,0,1,3.44-4.55,15.28,15.28,0,0,1,5.35-2.78,24.55,24.55,0,0,1,7-.93,33.94,33.94,0,0,1,6.63.62,50.57,50.57,0,0,1,6.5,1.81A24.78,24.78,0,0,1,72,53.27l-2.12-.84a16.59,16.59,0,0,0-2.29-.69,22.71,22.71,0,0,0-2.74-.45,30,30,0,0,0-3.47-.18,14.07,14.07,0,0,0-2.4.21,6.48,6.48,0,0,0-2.19.77,4.32,4.32,0,0,0-1.6,1.63,5.62,5.62,0,0,0-.62,2.81,5.09,5.09,0,0,0,.48,2.33,5,5,0,0,0,1.32,1.59,8.2,8.2,0,0,0,1.88,1.12c.69.3,1.39.59,2.08.87L64.52,64q2.64,1.05,4.79,2.16A12.86,12.86,0,0,1,73,68.93a11.59,11.59,0,0,1,2.33,4,17.26,17.26,0,0,1,.83,5.73,16,16,0,0,1-1.28,6.46,13.89,13.89,0,0,1-3.72,5,17.57,17.57,0,0,1-6,3.27,26.49,26.49,0,0,1-8.23,1.18c-1.53,0-2.89,0-4.1-.14a30.12,30.12,0,0,1-3.44-.45,33.1,33.1,0,0,1-3.23-.8c-1.06-.33-2.17-.72-3.33-1.18a29.77,29.77,0,0,1,.76-4.21q.55-2.18,1.32-4.41a36.1,36.1,0,0,0,5.49,1.77,24.06,24.06,0,0,0,5.49.6,12.42,12.42,0,0,0,6.87-1.64,5.51,5.51,0,0,0,2.5-5,5.81,5.81,0,0,0-.59-2.78,6.08,6.08,0,0,0-1.52-1.88A9.57,9.57,0,0,0,61,73.17c-.79-.35-1.6-.69-2.43-1Z" transform="translate(-8.32 -15.1)"/><path class="cls-1" d="M83.41,43.75h28.34a21.39,21.39,0,0,1,.42,4.24,22,22,0,0,1-.42,4.37H93.55V63.2H108a23.2,23.2,0,0,1,.42,4.31,22.71,22.71,0,0,1-.42,4.37H93.55v13.2h18.69a21.39,21.39,0,0,1,.42,4.24,22.11,22.11,0,0,1-.42,4.37H83.41Z" transform="translate(-8.32 -15.1)"/><path class="cls-1" d="M120.3,43.75a31.34,31.34,0,0,1,5.07-.42,32.76,32.76,0,0,1,5.14.42V93.69a32.28,32.28,0,0,1-5.07.42,31.82,31.82,0,0,1-5.14-.42Z" transform="translate(-8.32 -15.1)"/><path class="cls-1" d="M151.83,43.75c1-.14,1.9-.24,2.78-.31s1.85-.11,2.92-.11c.92,0,1.83,0,2.71.11s1.85.17,2.91.31l15.63,49.94a38.05,38.05,0,0,1-5.55.42,30.92,30.92,0,0,1-5.14-.42l-2.78-10H148.78l-2.85,10a29,29,0,0,1-4.79.42,30.43,30.43,0,0,1-5.07-.42ZM163,75.28l-5.77-21-6,21Z" transform="translate(-8.32 -15.1)"/><circle class="cls-2" cx="221.1" cy="26.89" r="26.89"/><circle class="cls-3" cx="221.81" cy="55.62" r="26.89"/><circle class="cls-3" cx="240.38" cy="41.21" r="12.74"/><circle class="cls-3" cx="202.47" cy="59.97" r="20.66"/></svg>