<svg id="Capa_1" data-name="Capa 1" xmlns="http://www.w3.org/2000/svg" viewBox="0 0 52.1 72.3"><defs><style>.cls-1{fill:#fff;}</style></defs><path class="cls-1" d="M0,51.19V49.48a1.55,1.55,0,0,1,1.72-1.72h10.6c1.11,0,1.72.51,1.72,1.31v1.42c0,5.15,5.15,9.59,13.33,9.59,7.67,0,10.5-3.84,10.5-7.87,0-5.15-5.15-7-14.75-10.51C12.62,38.07.5,33.32.5,20,.5,7.57,10.7,0,25.14,0,40.69,0,51.7,8.68,51.7,21.71v1A1.55,1.55,0,0,1,50,24.44H39.38c-1.11,0-1.72-.41-1.72-1v-1c0-5.25-4.54-10.2-13-10.2-6.46,0-10.1,2.83-10.1,7.57,0,5.25,4.44,7.07,15.65,11,9.19,3.33,21.91,7.27,21.91,21,0,12.32-10,20.5-25.85,20.5S0,64,0,51.19Z"/></svg>