<svg id="Capa_1" data-name="Capa 1" xmlns="http://www.w3.org/2000/svg" viewBox="0 0 454 72.6"><defs><style>.cls-1{fill:#274597;}</style></defs><path d="M0,51.3V49.58a1.55,1.55,0,0,1,1.72-1.72h10.6c1.11,0,1.72.51,1.72,1.32v1.41c0,5.15,5.15,9.59,13.33,9.59,7.67,0,10.5-3.83,10.5-7.87,0-5.15-5.15-7-14.75-10.5C12.62,38.17.5,33.42.5,20.09.5,7.67,10.7.1,25.14.1,40.69.1,51.7,8.79,51.7,21.81v1A1.55,1.55,0,0,1,50,24.54H39.38c-1.11,0-1.72-.41-1.72-1v-1c0-5.25-4.54-10.2-13-10.2-6.46,0-10.1,2.83-10.1,7.57,0,5.25,4.44,7.07,15.65,11,9.19,3.33,21.91,7.27,21.91,21,0,12.32-10,20.5-25.85,20.5S0,64.12,0,51.3Z"/><path d="M61.6,48.17V2.63A1.54,1.54,0,0,1,63.31.91H74.12a1.55,1.55,0,0,1,1.72,1.72V48.27c0,7.07,4.74,11.91,11.91,11.91s11.92-4.84,11.92-11.91V2.63A1.54,1.54,0,0,1,101.38.91h10.81a1.54,1.54,0,0,1,1.71,1.72V48.17c0,14.54-10.5,24.23-26.15,24.23S61.6,62.71,61.6,48.17Z"/><path d="M162.78,70.28,150.36,42.81a.76.76,0,0,0-.71-.5h-9.19a.53.53,0,0,0-.6.61v27a1.54,1.54,0,0,1-1.72,1.71h-10.8a1.54,1.54,0,0,1-1.72-1.71V2.52A1.54,1.54,0,0,1,127.34.81h28.37c13,0,21.61,8.58,21.61,21.3,0,9.19-4.95,16.06-12.93,18.79a.5.5,0,0,0-.3.8l13.33,27.87c.61,1.11.1,2-1.21,2H164.8A2.2,2.2,0,0,1,162.78,70.28ZM139.86,13.73v17a.58.58,0,0,0,.6.6h13.13c5.65,0,9.59-3.63,9.59-9s-3.94-9.19-9.59-9.19H140.46A.53.53,0,0,0,139.86,13.73Z"/><path d="M235,13.13H202.46a.58.58,0,0,0-.6.6V29.18a.53.53,0,0,0,.6.61h21.11a1.54,1.54,0,0,1,1.71,1.71v8.79A1.54,1.54,0,0,1,223.57,42H202.46a.58.58,0,0,0-.6.6V58.77a.58.58,0,0,0,.6.6H235a1.54,1.54,0,0,1,1.71,1.72v8.79A1.54,1.54,0,0,1,235,71.59H189.34a1.54,1.54,0,0,1-1.72-1.71V2.63A1.55,1.55,0,0,1,189.34.91H235a1.54,1.54,0,0,1,1.71,1.72v8.78A1.54,1.54,0,0,1,235,13.13Z"/><path class="cls-1" d="M246.39,70.28V66.54a2.44,2.44,0,0,1,.61-1.61c8-9.49,15.55-19,22.82-28.07,5.95-7.58,9.49-13.94,9.49-18.68,0-7.07-5.25-11.82-13.13-11.82-7.67,0-12.82,4.75-12.72,11.92V21.1a1.23,1.23,0,0,1-1.31,1.32H247.5a1.22,1.22,0,0,1-1.31-1.32V17.37C246.49,7,254.77.1,266.18.1c12.42,0,20.4,7.57,20.4,18,0,6-3.33,12.82-9.49,20.7-6.47,8.48-13.64,17.06-20.91,26-.3.3-.1.6.31.6h30.9a1.22,1.22,0,0,1,1.31,1.31v3.64a1.22,1.22,0,0,1-1.31,1.31H247.7A1.21,1.21,0,0,1,246.39,70.28Z"/><path class="cls-1" d="M301.73,52.21V20.3C301.73,8,310,0,322.93,0s21.51,8,21.51,20.3V52.21c0,12.42-8.48,20.39-21.51,20.39S301.73,64.63,301.73,52.21Zm35.54.4V20c0-8.28-5.66-13.63-14.34-13.63-8.48,0-14,5.35-14,13.63V52.61c0,8.28,5.55,13.73,14,13.73C331.61,66.34,337.27,60.89,337.27,52.61Z"/><path class="cls-1" d="M357.57,70.28V66.54a2.48,2.48,0,0,1,.6-1.61c8-9.49,15.55-19,22.82-28.07,6-7.58,9.5-13.94,9.5-18.68,0-7.07-5.26-11.82-13.13-11.82-7.68,0-12.83,4.75-12.72,11.92V21.1a1.23,1.23,0,0,1-1.32,1.32h-4.64a1.23,1.23,0,0,1-1.32-1.32V17.37C357.67,7,366,.1,377.36.1c12.42,0,20.4,7.57,20.4,18,0,6-3.34,12.82-9.5,20.7-6.46,8.48-13.63,17.06-20.9,26-.3.3-.1.6.3.6h30.9a1.23,1.23,0,0,1,1.32,1.31v3.64a1.22,1.22,0,0,1-1.32,1.31H358.88A1.21,1.21,0,0,1,357.57,70.28Z"/><path class="cls-1" d="M411.69,70.28V66.54a2.44,2.44,0,0,1,.61-1.61c8-9.49,15.55-19,22.82-28.07,5.95-7.58,9.49-13.94,9.49-18.68,0-7.07-5.25-11.82-13.13-11.82-7.67,0-12.82,4.75-12.72,11.92V21.1a1.23,1.23,0,0,1-1.31,1.32H412.8a1.22,1.22,0,0,1-1.31-1.32V17.37C411.79,7,420.07.1,431.48.1c12.42,0,20.4,7.57,20.4,18,0,6-3.33,12.82-9.49,20.7-6.46,8.48-13.63,17.06-20.9,26-.31.3-.11.6.3.6h30.9A1.22,1.22,0,0,1,454,66.64v3.64a1.21,1.21,0,0,1-1.31,1.31H413A1.22,1.22,0,0,1,411.69,70.28Z"/></svg>