<svg id="Capa_1" data-name="Capa 1" xmlns="http://www.w3.org/2000/svg" viewBox="0 0 454.02 72.6"><path d="M0,51.3V49.58a1.55,1.55,0,0,1,1.36-1.72h11c1.11,0,1.72.51,1.72,1.32v1.41c0,5.15,5.15,9.59,13.33,9.59,7.67,0,10.5-3.83,10.5-7.87,0-5.15-5.15-7-14.75-10.5C12.62,38.17.5,33.42.5,20.09.5,7.67,10.7.1,25.14.1,40.69.1,51.7,8.79,51.7,21.81v1a1.56,1.56,0,0,1-1.35,1.73,2,2,0,0,1-.35,0H39.38c-1.11,0-1.72-.41-1.72-1v-1c0-5.25-4.54-10.2-13-10.2-6.46,0-10.1,2.83-10.1,7.57,0,5.25,4.44,7.07,15.65,11,9.19,3.33,21.91,7.27,21.91,21,0,12.32-10,20.5-25.85,20.5S0,64.12,0,51.3Z" transform="translate(0.01 0)"/><path d="M61.6,48.17V2.63A1.54,1.54,0,0,1,62.94.91a2.29,2.29,0,0,1,.37,0H74.12a1.55,1.55,0,0,1,1.72,1.36,2.16,2.16,0,0,1,0,.36V48.27c0,7.07,4.74,11.91,11.91,11.91s11.92-4.84,11.92-11.91V2.63A1.54,1.54,0,0,1,101,.91a2.29,2.29,0,0,1,.37,0h10.81a1.54,1.54,0,0,1,1.71,1.35,1.15,1.15,0,0,1,0,.37V48.17c0,14.54-10.5,24.23-26.15,24.23S61.6,62.71,61.6,48.17Z" transform="translate(0.01 0)"/><path d="M162.78,70.28,150.36,42.81a.76.76,0,0,0-.71-.5h-9.19a.53.53,0,0,0-.6.45.43.43,0,0,0,0,.16v27a1.54,1.54,0,0,1-1.35,1.71,1.15,1.15,0,0,1-.37,0h-10.8a1.54,1.54,0,0,1-1.72-1.34,2.29,2.29,0,0,1,0-.37V2.52A1.54,1.54,0,0,1,127,.81a1.15,1.15,0,0,1,.37,0h28.37c13,0,21.61,8.58,21.61,21.3,0,9.19-4.95,16.06-12.93,18.79a.5.5,0,0,0-.4.58.55.55,0,0,0,.1.22l13.33,27.87c.61,1.11.1,2-1.21,2H164.8A2.2,2.2,0,0,1,162.78,70.28ZM139.86,13.73v17a.58.58,0,0,0,.56.6h13.17c5.65,0,9.59-3.63,9.59-9s-3.94-9.19-9.59-9.19H140.46a.53.53,0,0,0-.6.45A.33.33,0,0,0,139.86,13.73Z" transform="translate(0.01 0)"/><path d="M235,13.13H202.46a.58.58,0,0,0-.6.56V29.18a.53.53,0,0,0,.44.61.43.43,0,0,0,.16,0h21.11a1.54,1.54,0,0,1,1.71,1.35,2.16,2.16,0,0,1,0,.36v8.79A1.54,1.54,0,0,1,223.93,42H202.46a.58.58,0,0,0-.6.56V58.77a.58.58,0,0,0,.56.6H235a1.54,1.54,0,0,1,1.71,1.35,1.15,1.15,0,0,1,0,.37v8.79a1.54,1.54,0,0,1-1.35,1.71h-46a1.54,1.54,0,0,1-1.72-1.34,2.29,2.29,0,0,1,0-.37V2.63A1.55,1.55,0,0,1,189,.91a2.16,2.16,0,0,1,.36,0H235a1.54,1.54,0,0,1,1.71,1.35,1.15,1.15,0,0,1,0,.37v8.78a1.54,1.54,0,0,1-1.34,1.72Z" transform="translate(0.01 0)"/><path d="M246.39,70.28V66.54a2.44,2.44,0,0,1,.61-1.61c8-9.49,15.55-19,22.82-28.07,5.95-7.58,9.49-13.94,9.49-18.68,0-7.07-5.25-11.82-13.13-11.82-7.67,0-12.82,4.75-12.72,11.92V21.1a1.23,1.23,0,0,1-1.13,1.32H247.5a1.22,1.22,0,0,1-1.31-1.12.67.67,0,0,1,0-.2V17.37C246.49,7,254.77.1,266.18.1c12.42,0,20.4,7.57,20.4,18,0,6-3.33,12.82-9.49,20.7-6.47,8.48-13.64,17.06-20.91,26-.3.3-.1.6.31.6h30.9a1.22,1.22,0,0,1,1.31,1.12v3.83a1.22,1.22,0,0,1-1.12,1.31H247.7a1.21,1.21,0,0,1-1.32-1.09A1.41,1.41,0,0,1,246.39,70.28Z" transform="translate(0.01 0)"/><path d="M301.73,52.21V20.3C301.73,8,310,0,322.93,0s21.51,8,21.51,20.3V52.21c0,12.42-8.48,20.39-21.51,20.39S301.73,64.63,301.73,52.21Zm35.54.4V20c0-8.28-5.66-13.63-14.34-13.63-8.48,0-14,5.35-14,13.63V52.61c0,8.28,5.55,13.73,14,13.73,8.68,0,14.34-5.45,14.34-13.73Z" transform="translate(0.01 0)"/><path d="M357.57,70.28V66.54a2.45,2.45,0,0,1,.6-1.61c8-9.49,15.55-19,22.82-28.07,6-7.58,9.5-13.94,9.5-18.68,0-7.07-5.26-11.82-13.13-11.82-7.68,0-12.83,4.75-12.72,11.92V21.1a1.23,1.23,0,0,1-1.13,1.32h-4.83a1.23,1.23,0,0,1-1.32-1.13V17.37C357.67,7,366,.1,377.36.1c12.42,0,20.4,7.57,20.4,18,0,6-3.34,12.82-9.5,20.7-6.46,8.48-13.63,17.06-20.9,26-.3.3-.1.6.3.6h30.9a1.23,1.23,0,0,1,1.32,1.13v3.82a1.22,1.22,0,0,1-1.12,1.31.67.67,0,0,1-.2,0H358.88a1.21,1.21,0,0,1-1.32-1.09A1.41,1.41,0,0,1,357.57,70.28Z" transform="translate(0.01 0)"/><path d="M411.69,70.28V66.54a2.44,2.44,0,0,1,.61-1.61c8-9.49,15.55-19,22.82-28.07,5.95-7.58,9.49-13.94,9.49-18.68,0-7.07-5.25-11.82-13.13-11.82-7.67,0-12.82,4.75-12.72,11.92V21.1a1.23,1.23,0,0,1-1.13,1.32H412.8a1.22,1.22,0,0,1-1.31-1.12.67.67,0,0,1,0-.2V17.37C411.79,7,420.07.1,431.48.1c12.42,0,20.4,7.57,20.4,18,0,6-3.33,12.82-9.49,20.7-6.46,8.48-13.63,17.06-20.9,26-.31.3-.11.6.3.6h30.9A1.22,1.22,0,0,1,454,66.53v3.75a1.21,1.21,0,0,1-1.1,1.31H413a1.22,1.22,0,0,1-1.31-1.12Z" transform="translate(0.01 0)"/></svg>