<?xml version="1.0" encoding="UTF-8"?><svg id="a" xmlns="http://www.w3.org/2000/svg" viewBox="0 0 284.54 74.62"><defs><style>.b{fill:#fff;}.c{fill:#2fed41;}</style></defs><path class="b" d="m94.73,30.29c-1.19-1.2-1.78-2.82-1.78-4.84,0-.24.03-.62.09-1.16l2.01-16.32c.3-2.32,1.23-4.2,2.79-5.64,1.56-1.44,3.44-2.16,5.64-2.16,2.02,0,3.63.59,4.84,1.78,1.2,1.19,1.81,2.78,1.81,4.77,0,.24-.03.65-.09,1.25l-2.01,16.32c-.3,2.35-1.23,4.24-2.79,5.66-1.56,1.43-3.46,2.14-5.68,2.14-2.02,0-3.63-.6-4.82-1.81Zm8.54-2.32c.94-.91,1.49-2.07,1.67-3.5l2.05-16.63c.03-.18.04-.42.04-.71,0-1.25-.36-2.26-1.07-3.03-.71-.77-1.67-1.16-2.85-1.16-1.28,0-2.38.45-3.3,1.36-.92.91-1.47,2.09-1.65,3.54l-2.05,16.63c-.03.18-.04.45-.04.8,0,1.22.34,2.2,1.03,2.94.68.74,1.61,1.11,2.76,1.11,1.34,0,2.47-.45,3.41-1.36Z"/><path class="b" d="m124.2,31.38l-2.72-13.78c0-.09-.04-.13-.13-.13h-3.79s-.07.02-.11.04c-.04.03-.07.07-.07.13l-1.65,13.64c-.03.12-.09.22-.18.31s-.19.13-.31.13h-2.23c-.3,0-.42-.15-.36-.45l3.7-30.32c.06-.3.22-.45.49-.45h7.13c1.87,0,3.36.64,4.46,1.92,1.1,1.28,1.65,2.99,1.65,5.13,0,.33-.03.85-.09,1.56-.24,1.93-.85,3.6-1.83,4.99-.98,1.4-2.2,2.38-3.66,2.94-.12.03-.18.1-.18.22l3.03,13.95v.09c0,.27-.15.4-.45.4h-2.23c-.24,0-.4-.12-.49-.36Zm-5.02-28.04s-.07.07-.07.13l-1.38,11.28c0,.06.01.1.04.13.03.03.06.04.09.04h3.92c1.31,0,2.44-.53,3.39-1.58.95-1.05,1.53-2.46,1.74-4.21.03-.27.04-.64.04-1.11,0-1.46-.33-2.61-1-3.46-.67-.85-1.58-1.27-2.74-1.27h-3.88c-.06,0-.11.02-.16.04Z"/><path class="b" d="m144.73,29.51c-1.59,1.49-3.56,2.23-5.91,2.23h-6.64c-.3,0-.42-.15-.36-.45l3.7-30.32c.06-.3.22-.45.49-.45h6.24c2.23,0,3.96.58,5.19,1.74,1.23,1.16,1.85,2.82,1.85,4.99,0,.3-.03.77-.09,1.43-.39,3.33-1.87,5.6-4.46,6.82-.06.03-.09.06-.09.09s.02.06.04.09c1.99,1.31,2.99,3.34,2.99,6.11,0,.27-.03.76-.09,1.47-.33,2.67-1.29,4.76-2.88,6.24Zm-2.01-2.16c1-1.05,1.61-2.53,1.85-4.44.06-.59.09-1.01.09-1.25,0-1.55-.36-2.74-1.09-3.59-.73-.85-1.78-1.27-3.14-1.27h-3.61c-.12,0-.18.06-.18.18l-1.43,11.77s-.03.07,0,.11c.03.04.07.07.13.07h3.57c1.55,0,2.82-.53,3.81-1.58Zm-4.37-24.01s-.07.07-.07.13l-1.29,10.74s-.03.07,0,.11c.03.04.07.07.13.07h3.43c1.72,0,3.1-.59,4.12-1.76,1.03-1.17,1.54-2.79,1.54-4.84,0-1.43-.38-2.53-1.14-3.32-.76-.79-1.82-1.18-3.19-1.18h-3.39c-.06,0-.11.02-.16.04Z"/><path class="b" d="m151.21,31.29l3.7-30.32c.06-.3.22-.45.49-.45h2.23c.12,0,.22.04.29.13.07.09.1.19.07.31l-3.7,30.32c-.03.12-.09.22-.18.31s-.19.13-.31.13h-2.23c-.3,0-.42-.15-.36-.45Z"/><path class="b" d="m177.92.98l-.27,1.87c0,.12-.04.22-.13.31s-.19.13-.31.13h-5.71c-.06,0-.11.02-.16.04-.04.03-.07.07-.07.13l-3.39,27.82c-.03.12-.09.22-.18.31s-.19.13-.31.13h-2.23c-.3,0-.42-.15-.36-.45l3.39-27.82s.03-.07,0-.11c-.03-.04-.07-.07-.13-.07h-5.35c-.15,0-.26-.04-.33-.13-.07-.09-.1-.19-.07-.31l.22-1.87c.06-.3.22-.45.49-.45h14.49c.27,0,.4.15.4.45Z"/><path class="b" d="m188.17,31.34l-.4-5.53c0-.12-.06-.18-.18-.18h-7.85c-.06,0-.11.02-.16.04-.04.03-.07.07-.07.13l-1.78,5.53c-.09.27-.27.4-.53.4h-2.18c-.15,0-.25-.04-.31-.13-.06-.09-.06-.21,0-.36L184.92.93c.06-.27.22-.4.49-.4h2.63c.27,0,.4.13.4.4l2.85,30.32c0,.33-.15.49-.45.49h-2.23c-.3,0-.45-.13-.45-.4Zm-7.62-8.29h6.82c.09,0,.13-.06.13-.18l-1.29-17.52c0-.09-.02-.13-.04-.13s-.07.04-.13.13l-5.62,17.52c0,.12.04.18.13.18Z"/><path class="b" d="m194.95,31.29l3.7-30.32c.06-.3.22-.45.49-.45h2.23c.12,0,.22.04.29.13.07.09.1.19.07.31l-3.43,27.82c0,.12.06.18.18.18h9.9c.3,0,.42.15.36.45l-.22,1.87c0,.12-.04.22-.13.31s-.21.13-.36.13h-12.71c-.3,0-.42-.15-.36-.45Z"/><path class="b" d="m95.67,71.89c-1.82-1.82-2.73-4.23-2.73-7.23v-18.05c0-3.03.91-5.44,2.73-7.23,1.82-1.78,4.23-2.67,7.23-2.67s5.47.89,7.31,2.67c1.83,1.78,2.75,4.19,2.75,7.23v.64c0,.18-.06.34-.19.48-.12.14-.27.21-.45.21l-4.92.21c-.42,0-.64-.21-.64-.64v-1.32c0-1.24-.35-2.24-1.06-3.02-.71-.78-1.64-1.16-2.81-1.16s-2.05.39-2.75,1.16c-.71.78-1.06,1.78-1.06,3.02v18.95c0,1.24.35,2.24,1.06,3.02.71.78,1.62,1.16,2.75,1.16s2.1-.39,2.81-1.16c.71-.78,1.06-1.78,1.06-3.02v-1.32c0-.18.06-.33.19-.45.12-.12.27-.19.45-.19l4.92.21c.18,0,.33.06.45.19.12.12.19.27.19.45v.64c0,3-.92,5.41-2.75,7.23-1.84,1.82-4.27,2.73-7.31,2.73s-5.41-.91-7.23-2.73Z"/><path class="b" d="m120.29,71.68c-1.82-1.96-2.73-4.54-2.73-7.75v-26.15c0-.18.06-.33.19-.45.12-.12.27-.19.45-.19h4.87c.18,0,.33.06.45.19.12.12.19.27.19.45v26.79c0,1.41.35,2.56,1.06,3.44.71.88,1.64,1.32,2.81,1.32s2.1-.44,2.81-1.32c.71-.88,1.06-2.03,1.06-3.44v-26.79c0-.18.06-.33.19-.45.12-.12.27-.19.45-.19h4.87c.18,0,.33.06.45.19.12.12.19.27.19.45v26.15c0,3.21-.92,5.8-2.75,7.75-1.84,1.96-4.25,2.94-7.25,2.94s-5.46-.98-7.28-2.94Z"/><path class="b" d="m157.05,73.67l-4.55-15.25c-.07-.14-.16-.21-.26-.21h-2.75c-.18,0-.26.09-.26.26v15.09c0,.18-.06.33-.19.45s-.27.19-.45.19h-4.87c-.18,0-.33-.06-.45-.19-.12-.12-.19-.27-.19-.45v-35.84c0-.18.06-.33.19-.45.12-.12.27-.19.45-.19h9.95c1.87,0,3.52.45,4.95,1.35,1.43.9,2.54,2.17,3.33,3.81.79,1.64,1.19,3.52,1.19,5.64s-.42,4.09-1.27,5.69c-.85,1.61-2.03,2.81-3.55,3.63-.14.04-.19.14-.16.32l5.19,15.93c.03.07.05.16.05.26,0,.32-.19.48-.58.48h-5.08c-.35,0-.58-.18-.69-.53Zm-7.83-31.02v10.53c0,.18.09.26.26.26h3.23c1.27,0,2.3-.49,3.1-1.48.79-.99,1.19-2.31,1.19-3.97s-.4-3.1-1.19-4.1c-.79-1.01-1.83-1.51-3.1-1.51h-3.23c-.18,0-.26.09-.26.26Z"/><path class="b" d="m181.45,73.67l-4.55-15.25c-.07-.14-.16-.21-.26-.21h-2.75c-.18,0-.26.09-.26.26v15.09c0,.18-.06.33-.19.45s-.27.19-.45.19h-4.87c-.18,0-.33-.06-.45-.19-.12-.12-.19-.27-.19-.45v-35.84c0-.18.06-.33.19-.45.12-.12.27-.19.45-.19h9.95c1.87,0,3.52.45,4.95,1.35,1.43.9,2.54,2.17,3.33,3.81.79,1.64,1.19,3.52,1.19,5.64s-.42,4.09-1.27,5.69c-.85,1.61-2.03,2.81-3.55,3.63-.14.04-.19.14-.16.32l5.19,15.93c.03.07.05.16.05.26,0,.32-.19.48-.58.48h-5.08c-.35,0-.58-.18-.69-.53Zm-7.83-31.02v10.53c0,.18.09.26.26.26h3.23c1.27,0,2.3-.49,3.1-1.48.79-.99,1.19-2.31,1.19-3.97s-.4-3.1-1.19-4.1c-.79-1.01-1.83-1.51-3.1-1.51h-3.23c-.18,0-.26.09-.26.26Z"/><path class="b" d="m210.17,42.25c-.12.12-.27.19-.45.19h-11.43c-.18,0-.26.09-.26.26v10.01c0,.18.09.26.26.26h6.78c.18,0,.33.06.45.19.12.12.19.27.19.45v4.08c0,.18-.06.33-.19.45s-.27.19-.45.19h-6.78c-.18,0-.26.09-.26.26v10.06c0,.18.09.26.26.26h11.43c.18,0,.33.06.45.19.12.12.19.27.19.45v4.02c0,.18-.06.33-.19.45-.12.12-.27.19-.45.19h-17.2c-.18,0-.33-.06-.45-.19-.12-.12-.19-.27-.19-.45v-35.79c0-.18.06-.33.19-.45.12-.12.27-.19.45-.19h17.2c.18,0,.33.06.45.19.12.12.19.27.19.45v4.02c0,.18-.06.33-.19.45Z"/><path class="b" d="m215.15,74.01c-.12-.12-.19-.27-.19-.45v-35.79c0-.18.06-.33.19-.45.12-.12.27-.19.45-.19h5.08c.39,0,.64.16.74.48l8.2,21.54c.07.11.14.16.21.16s.11-.07.11-.21v-21.33c0-.18.06-.33.19-.45.12-.12.27-.19.45-.19h4.82c.18,0,.33.06.45.19.12.12.19.27.19.45v35.79c0,.18-.06.33-.19.45-.12.12-.27.19-.45.19h-5.13c-.39,0-.64-.16-.74-.48l-8.26-21.6c-.04-.11-.1-.15-.19-.13-.09.02-.13.08-.13.19l.05,21.39c0,.18-.06.33-.19.45s-.27.19-.45.19h-4.76c-.18,0-.33-.06-.45-.19Z"/><path class="b" d="m261.2,37.32c.12.12.19.27.19.45v4.02c0,.18-.06.33-.19.45s-.27.19-.45.19h-6.72c-.18,0-.27.09-.27.26v30.86c0,.18-.06.33-.19.45-.12.12-.27.19-.45.19h-4.87c-.18,0-.33-.06-.45-.19-.12-.12-.19-.27-.19-.45v-30.86c0-.18-.09-.26-.26-.26h-6.35c-.18,0-.33-.06-.45-.19-.12-.12-.19-.27-.19-.45v-4.02c0-.18.06-.33.19-.45.12-.12.27-.19.45-.19h19.75c.18,0,.33.06.45.19Z"/><path class="b" d="m267.63,71.94c-1.8-1.78-2.7-4.08-2.7-6.91v-1.48c0-.18.06-.33.19-.45.12-.12.27-.19.45-.19h4.76c.18,0,.33.06.45.19s.19.27.19.45v1.16c0,1.38.35,2.49,1.06,3.33.71.85,1.59,1.27,2.65,1.27s1.99-.4,2.7-1.19,1.06-1.84,1.06-3.15c0-.88-.19-1.67-.58-2.36-.39-.69-.93-1.33-1.61-1.93-.69-.6-1.81-1.46-3.36-2.59-1.77-1.27-3.19-2.4-4.26-3.39-1.08-.99-1.98-2.18-2.7-3.57-.72-1.39-1.08-3.01-1.08-4.84,0-2.93.88-5.26,2.65-6.99,1.76-1.73,4.08-2.59,6.94-2.59s5.35.91,7.15,2.73c1.8,1.82,2.7,4.23,2.7,7.23v1.27c0,.18-.06.33-.19.45-.12.12-.27.19-.45.19h-4.82c-.18,0-.33-.06-.45-.19-.12-.12-.19-.27-.19-.45v-1.38c0-1.38-.34-2.48-1.03-3.31-.69-.83-1.6-1.24-2.73-1.24-1.02,0-1.87.38-2.54,1.14-.67.76-1.01,1.81-1.01,3.15,0,1.27.36,2.35,1.09,3.23.72.88,2.14,2.1,4.26,3.65,2.15,1.62,3.78,2.93,4.87,3.92,1.09.99,1.94,2.08,2.54,3.28.6,1.2.9,2.63.9,4.29,0,3-.91,5.41-2.73,7.23-1.82,1.82-4.19,2.73-7.12,2.73s-5.24-.89-7.04-2.67Z"/><path class="c" d="m221.13,31.8v-.48c0-.21.04-.4.13-.57l3.17-5.6,4.32-7.76c2.06-3.65,3.09-6.66,3.09-9.04,0-1.82-.44-3.29-1.32-4.41-.88-1.12-2.04-1.68-3.48-1.68s-2.5.56-3.35,1.68c-.85,1.12-1.26,2.59-1.24,4.41v1.5c0,.29-.15.44-.44.44h-.48c-.29,0-.44-.15-.44-.44v-1.54c.03-2.18.6-3.93,1.7-5.27,1.1-1.34,2.54-2.01,4.3-2.01s3.29.68,4.41,2.03c1.12,1.35,1.68,3.12,1.68,5.29,0,2.73-1.05,5.97-3.13,9.7l-5.29,9.39-1.9,3.35c-.09.15-.06.22.09.22h10.89c.29,0,.44.15.44.44v.35c0,.29-.15.44-.44.44h-12.26c-.29,0-.44-.15-.44-.44Z"/><path class="c" d="m239.52,30.63c-1.24-1.34-1.85-3.11-1.85-5.31V8.29c0-2.2.62-3.98,1.85-5.31,1.23-1.34,2.88-2.01,4.94-2.01s3.68.67,4.96,2.01c1.28,1.34,1.92,3.11,1.92,5.31v17.02c0,2.21-.64,3.98-1.92,5.31-1.28,1.34-2.93,2.01-4.96,2.01s-3.7-.67-4.94-2.01Zm8.97-.86c1.01-1.09,1.52-2.53,1.52-4.32V8.16c0-1.79-.51-3.23-1.52-4.32-1.01-1.09-2.36-1.63-4.03-1.63s-2.97.54-3.97,1.63c-1,1.09-1.5,2.53-1.5,4.32v17.29c0,1.79.5,3.23,1.5,4.32,1,1.09,2.32,1.63,3.97,1.63s3.02-.54,4.03-1.63Z"/><path class="c" d="m255.3,31.8v-.48c0-.21.04-.4.13-.57l3.18-5.6,4.32-7.76c2.06-3.65,3.09-6.66,3.09-9.04,0-1.82-.44-3.29-1.32-4.41-.88-1.12-2.04-1.68-3.48-1.68s-2.5.56-3.35,1.68c-.85,1.12-1.26,2.59-1.23,4.41v1.5c0,.29-.15.44-.44.44h-.49c-.29,0-.44-.15-.44-.44v-1.54c.03-2.18.6-3.93,1.7-5.27,1.1-1.34,2.54-2.01,4.3-2.01s3.29.68,4.41,2.03c1.12,1.35,1.68,3.12,1.68,5.29,0,2.73-1.04,5.97-3.13,9.7l-5.29,9.39-1.9,3.35c-.09.15-.06.22.09.22h10.89c.29,0,.44.15.44.44v.35c0,.29-.15.44-.44.44h-12.26c-.29,0-.44-.15-.44-.44Z"/><path class="c" d="m284.54,23.15c0,1.68-.16,3.19-.48,4.54-.41,1.59-1.11,2.8-2.09,3.64-.99.84-2.23,1.26-3.73,1.26s-2.84-.43-3.84-1.3c-1-.87-1.69-2.14-2.07-3.81-.23-1.03-.38-2.28-.44-3.75,0-.29.15-.44.44-.44h.44c.29,0,.44.15.44.44.06,1.29.19,2.4.4,3.31.32,1.41.87,2.48,1.65,3.22.78.74,1.77,1.1,2.98,1.1,1.12,0,2.06-.33,2.84-.99.78-.66,1.34-1.62,1.7-2.89.29-1.15.44-2.6.44-4.37,0-2.2-.23-3.97-.71-5.29-.76-2.26-2.19-3.4-4.28-3.4-.27,0-.54.03-.84.09h-.18c-.15,0-.28-.06-.4-.18l-.18-.18c-.18-.18-.21-.38-.09-.62l6.22-10.72c.03-.06.03-.11,0-.15s-.07-.07-.13-.07h-10.23c-.29,0-.44-.15-.44-.44v-.35c0-.29.15-.44.44-.44h11.6c.29,0,.44.15.44.44v.48c0,.21-.04.4-.13.57l-5.91,10.23c-.03.06-.04.11-.02.15.01.04.05.07.11.07,1.23.03,2.29.38,3.17,1.06s1.54,1.63,1.98,2.87c.59,1.44.88,3.41.88,5.91Z"/><path class="b" d="m0,0v74.62h74.62V0H0Zm62.24,62.34c-3.87,3.87-8.22,5.76-13.04,5.64-4.27-.1-8.22-1.74-11.85-4.89-3.65,3.17-7.62,4.81-11.92,4.89-4.84.09-9.23-1.82-13.15-5.75-3.87-3.87-5.76-8.22-5.64-13.04.1-4.28,1.75-8.25,4.93-11.89-3.18-3.64-4.82-7.61-4.93-11.89-.12-4.82,1.76-9.17,5.64-13.04s8.31-5.83,13.15-5.74c4.3.08,8.28,1.72,11.92,4.89,3.63-3.15,7.58-4.79,11.85-4.89,4.82-.12,9.17,1.76,13.04,5.64s5.83,8.31,5.74,13.15c-.08,4.29-1.71,8.25-4.86,11.89h0c3.15,3.64,4.78,7.6,4.86,11.89.09,4.84-1.82,9.23-5.75,13.15Z"/><path class="b" d="m63.13,37.31h0c-.41.47-.84.94-1.3,1.4.46-.46.89-.93,1.3-1.4Z"/><path class="b" d="m37.35,63.09h0c.46-.4.92-.82,1.37-1.27-.45.45-.91.87-1.37,1.27Z"/><path class="b" d="m19.26,19.37c-1.48,1.48-2.11,3.19-1.9,5.15.17,1.63.9,3.2,2.17,4.72l9.74-9.74c-1.52-1.27-3.1-1.98-4.75-2.14-1.99-.18-3.74.49-5.26,2.01Z"/><path class="b" d="m50.1,57.26c1.96.21,3.68-.43,5.15-1.9,1.52-1.52,2.19-3.28,2.01-5.26-.15-1.63-.86-3.2-2.11-4.71l-9.73,9.73c1.5,1.25,3.06,1.97,4.68,2.14Z"/><path class="b" d="m17.36,50.1c-.21,1.96.43,3.68,1.9,5.15s3.28,2.19,5.26,2.01c1.65-.15,3.23-.87,4.75-2.14l-9.74-9.74c-1.27,1.52-2,3.09-2.17,4.72Z"/><rect class="b" x="30.4" y="30.36" width="13.9" height="13.9" transform="translate(-15.44 37.33) rotate(-45)"/><path class="b" d="m57.26,24.52c.18-1.99-.49-3.74-2.01-5.26s-3.19-2.11-5.15-1.9c-1.62.17-3.17.89-4.68,2.14l9.73,9.73c1.25-1.51,1.95-3.08,2.11-4.71Z"/></svg>