<?xml version="1.0" encoding="utf-8"?>
<!-- Generator: Adobe Illustrator 21.1.0, SVG Export Plug-In . SVG Version: 6.00 Build 0)  -->
<svg version="1.2" baseProfile="tiny" xmlns="http://www.w3.org/2000/svg" xmlns:xlink="http://www.w3.org/1999/xlink" x="0px"
	 y="0px" viewBox="0 0 303.7 62.7" overflow="scroll" xml:space="preserve">
<g id="Capa_2" display="none">
	<rect y="-96.7" display="inline" fill="#FFFFFF" width="1624" height="177"/>
</g>
<g id="Capa_1">
	<g>
		<path fill="#24B24B" d="M40.7,60.5C40.7,60.5,40.7,60.5,40.7,60.5C40.7,60.5,40.7,60.5,40.7,60.5C40.7,60.5,40.7,60.5,40.7,60.5z"
			/>
		<g>
			<path fill="#24B24B" d="M30.4,51.5c-11.3,0-20.5-9.2-20.5-20.5s9.2-20.5,20.5-20.5c1.6,0,3.1,0.2,4.5,0.5L42,4
				c-3.6-1.5-7.5-2.4-11.6-2.4C14.1,1.7,0.9,14.8,0.9,31.1s13.2,29.4,29.4,29.4c4.3,0,8.4-0.9,12.1-2.6l-7-7
				C33.8,51.3,32.1,51.5,30.4,51.5z"/>
			<polygon fill="#24B24B" points="20.3,13.1 20.2,13.1 20.3,13.1 			"/>
			<polygon fill="#24B24B" points="21.2,59.1 21.2,59.2 21.2,59.1 			"/>
			<polygon fill="#24B24B" points="24.1,59.8 24.1,59.8 24.1,59.8 			"/>
			<g>
				<path fill="#FFFFFF" d="M32.3,10.6v-3h-2.9V5.1h2.9v-3h2.6v3h2.9v2.4h-2.9v3H32.3z"/>
			</g>
			<rect x="29.4" y="54.7" fill="#FFFFFF" width="8.5" height="2.4"/>
		</g>
		<g>
			<path fill="#5B9CD6" d="M46.2,60.5v-2.4L67.9,2.4h7.2l21.8,55.7v2.4h-7.1l-5.8-15.4H58.8l-6,15.4H46.2z M61,38.9h20.7L71.4,12
				L61,38.9z"/>
			<path fill="#5B9CD6" d="M106.5,60.5V2.4h24.3c10.7,0,16.9,6.6,16.9,17.5c0,8.6-3.7,14.1-11.1,16.7l12,21.5v2.4h-7.1l-12.9-23
				h-14.9v23H106.5z M113.7,31.1h15.9c6.9,0,10.7-3.9,10.7-11.2c0-7.4-3.6-11.1-10.7-11.1h-15.9V31.1z"/>
			<path fill="#5B9CD6" d="M160.6,60.5V2.4H185c9.9,0,15.6,5.3,15.6,15.3c0,6.2-2.5,10.5-7.6,12.6c6.6,1.9,9.8,6.6,9.8,14.4
				c0,10.2-5.9,15.9-15.8,15.9H160.6z M167.8,28.1h16.1c6.1,0,9.5-3.6,9.5-9.6c0-6.2-3.3-9.6-9.6-9.6h-15.9V28.1z M167.8,54.1h18
				c6.3,0,9.8-3.6,9.8-9.9c0-6.4-3.5-10-9.8-10h-18V54.1z"/>
			<path fill="#5B9CD6" d="M209.1,60.5v-2.4l21.7-55.7h7.2l21.8,55.7v2.4h-7.1l-5.8-15.4h-25.1l-6,15.4H209.1z M223.9,38.9h20.7
				L234.3,12L223.9,38.9z"/>
			<path fill="#5B9CD6" d="M276.7,60.5V8.8h-17.7V2.4h42.5v6.4H284v51.7H276.7z"/>
		</g>
	</g>
</g>
</svg>
