<svg id="NEGRO" xmlns="http://www.w3.org/2000/svg" viewBox="0 0 133.54 133.53"><defs><style>.cls-1{stroke:#000;stroke-miterlimit:10;}</style></defs><path class="cls-1" d="M68.45,126.55c-36.31.11-66.28-30-66.27-66.25S32.21-6,68.44-6,134.68,24,134.72,60.31,104.83,126.65,68.45,126.55Zm0-1.67A64.58,64.58,0,1,0,3.88,60.35C3.87,95.84,33.17,125,68.5,124.88Z" transform="translate(-1.68 6.47)"/><path class="cls-1" d="M65.86,0c33.39.17,60.19,26.29,60.28,60,.08,34-26,59.76-60.15,60.78-16.4-.62-31-5.89-42.63-17.67C11.9,91.53,5.57,77.43,5.46,60.93A60.19,60.19,0,0,1,65.86,0Zm0,118.9c32.33-.11,58.4-25.38,58.65-58.2A58.14,58.14,0,0,0,66,1.71C32.75,1.71,7.43,27.7,7.22,60,7,92,32,118.64,65.86,118.91Z" transform="translate(-1.68 6.47)"/><path class="cls-1" d="M63.43,114.84C32.82,114.7,9,90.8,8.87,60.4a54.52,54.52,0,1,1,54.56,54.44Zm-.1-1.67a53,53,0,0,0,52.93-52.78c.08-28.49-23.14-53-52.74-53a52.54,52.54,0,0,0-53,52.8C10.45,89.42,33.38,113,63.33,113.17Z" transform="translate(-1.68 6.47)"/><path class="cls-1" d="M60.7,109.1a48.81,48.81,0,0,1,.19-97.62c27.93,0,48.93,23.42,48.74,49.1C109.43,86.69,88.12,109.18,60.7,109.1Zm0-1.67a47.22,47.22,0,0,0,47.24-47c.17-24.61-19.79-47.21-47-47.34a47.15,47.15,0,0,0-.25,94.29Z" transform="translate(-1.68 6.47)"/><path class="cls-1" d="M58.2,103.37a43.08,43.08,0,1,1,42.87-41.88A43.14,43.14,0,0,1,58.2,103.37Zm-.13-1.67a41.4,41.4,0,0,0,.46-82.8c-21.29-.21-40.71,16.77-41.61,39.68A41.49,41.49,0,0,0,58.07,101.7Z" transform="translate(-1.68 6.47)"/><path class="cls-1" d="M92.81,61.29c-.57,22.53-20.13,37.18-38.59,36.23C34,96.47,17.69,80.3,18.49,59,19.32,36.71,37.78,22.48,57,23.27A36.91,36.91,0,0,1,92.81,61.29Zm-1.64-1a35.27,35.27,0,0,0-35.6-35.4C36.66,25,20.15,39.47,20.12,60.3,20.09,81,36.5,95.54,55.44,95.68A35.3,35.3,0,0,0,91.17,60.3Z" transform="translate(-1.68 6.47)"/><path class="cls-1" d="M21.68,60.29C21.72,42,36.21,29.1,53,29c17.64-.15,31.57,14.54,31.56,31.4A31.54,31.54,0,0,1,53,91.62C36.31,91.47,21.69,78.61,21.68,60.29Zm1.66,0A29.74,29.74,0,1,0,53,30.62,29.5,29.5,0,0,0,23.34,60.32Z" transform="translate(-1.68 6.47)"/><path class="cls-1" d="M76,60.3A25.56,25.56,0,1,1,50.38,34.73C65.36,34.7,75.8,46.32,76,60.3Zm-1.66,0c-.14-12.84-9.64-23.91-23.88-23.94A23.93,23.93,0,1,0,74.33,60.32Z" transform="translate(-1.68 6.47)"/><path class="cls-1" d="M67.73,60.27c-.29,11-8.11,19.72-19.81,19.84a19.83,19.83,0,1,1,0-39.65C59.62,40.56,67.46,49.54,67.73,60.27Zm-1.66.06A18.2,18.2,0,0,0,48,42.09C38,41.92,29.68,50.88,29.69,60.26s8.1,18.35,18.18,18.21C58.57,78.32,65.77,70.37,66.07,60.33Z" transform="translate(-1.68 6.47)"/><path class="cls-1" d="M31.28,60.2c-.21-7,7.09-14.18,14.21-14.05,6.57.11,14.06,6.65,14,14.2-.06,7.18-7.14,14.18-14.33,14.11C37.72,74.39,31,66.81,31.28,60.2Zm1.91.09C33,67.13,39.28,72.65,45.28,72.76s12.57-6.24,12.51-12.45S52.14,48,45.31,48.06A12.2,12.2,0,0,0,33.19,60.29Z" transform="translate(-1.68 6.47)"/><path class="cls-1" d="M34.69,60.29a8.12,8.12,0,1,1,8.05,8.12A8.17,8.17,0,0,1,34.69,60.29Zm1.65,0a6.47,6.47,0,0,0,12.94,0,6.47,6.47,0,1,0-12.94,0Z" transform="translate(-1.68 6.47)"/><path class="cls-1" d="M42.59,60.32a2.33,2.33,0,0,1-2.37,2.34,2.38,2.38,0,1,1,.07-4.75A2.34,2.34,0,0,1,42.59,60.32Zm-2.29,1c.29-.46.6-.73.58-1s-.37-.48-.58-.72c-.24.25-.61.48-.67.76S40,60.84,40.3,61.28Z" transform="translate(-1.68 6.47)"/></svg>