<svg id="COLOR" xmlns="http://www.w3.org/2000/svg" xmlns:xlink="http://www.w3.org/1999/xlink" viewBox="0 0 630.2 109.34"><defs><style>.cls-1{fill:#1d1d1b;}.cls-10,.cls-11,.cls-12,.cls-13,.cls-2,.cls-3,.cls-4,.cls-5,.cls-6,.cls-7,.cls-8,.cls-9{stroke-miterlimit:10;stroke-width:2px;}.cls-2{fill:url(#Naranja_amarillo);stroke:url(#Naranja_amarillo-2);}.cls-3{fill:url(#Naranja_amarillo-3);stroke:url(#Naranja_amarillo-4);}.cls-4{fill:url(#Naranja_amarillo-5);stroke:url(#Naranja_amarillo-6);}.cls-5{fill:url(#Naranja_amarillo-7);stroke:url(#Naranja_amarillo-8);}.cls-6{fill:url(#Naranja_amarillo-9);stroke:url(#Naranja_amarillo-10);}.cls-7{fill:url(#Naranja_amarillo-11);stroke:url(#Naranja_amarillo-12);}.cls-8{fill:url(#Naranja_amarillo-13);stroke:url(#Naranja_amarillo-14);}.cls-9{fill:url(#Naranja_amarillo-15);stroke:url(#Naranja_amarillo-16);}.cls-10{fill:url(#Naranja_amarillo-17);stroke:url(#Naranja_amarillo-18);}.cls-11{fill:url(#Naranja_amarillo-19);stroke:url(#Naranja_amarillo-20);}.cls-12{fill:url(#Naranja_amarillo-21);stroke:url(#Naranja_amarillo-22);}.cls-13{fill:url(#Naranja_amarillo-23);stroke:url(#Naranja_amarillo-24);}</style><linearGradient id="Naranja_amarillo" x1="276.81" y1="59.29" x2="383.43" y2="59.29" gradientUnits="userSpaceOnUse"><stop offset="0" stop-color="#ffef26"/><stop offset="0.02" stop-color="#ffea21"/><stop offset="0.1" stop-color="#fed70f"/><stop offset="0.19" stop-color="#fdcc04"/><stop offset="0.28" stop-color="#fdc800"/><stop offset="0.67" stop-color="#f18f34"/><stop offset="0.89" stop-color="#e95f32"/><stop offset="1" stop-color="#e3312d"/></linearGradient><linearGradient id="Naranja_amarillo-2" x1="275.81" y1="59.29" x2="384.43" y2="59.29" xlink:href="#Naranja_amarillo"/><linearGradient id="Naranja_amarillo-3" x1="279.45" y1="59.39" x2="376.53" y2="59.39" xlink:href="#Naranja_amarillo"/><linearGradient id="Naranja_amarillo-4" x1="278.45" y1="59.39" x2="377.53" y2="59.39" xlink:href="#Naranja_amarillo"/><linearGradient id="Naranja_amarillo-5" x1="282.19" y1="59.3" x2="369.9" y2="59.3" xlink:href="#Naranja_amarillo"/><linearGradient id="Naranja_amarillo-6" x1="281.19" y1="59.3" x2="370.9" y2="59.3" xlink:href="#Naranja_amarillo"/><linearGradient id="Naranja_amarillo-7" x1="284.75" y1="59.29" x2="363.25" y2="59.29" xlink:href="#Naranja_amarillo"/><linearGradient id="Naranja_amarillo-8" x1="283.75" y1="59.29" x2="364.25" y2="59.29" xlink:href="#Naranja_amarillo"/><linearGradient id="Naranja_amarillo-9" x1="287.31" y1="59.29" x2="356.38" y2="59.29" xlink:href="#Naranja_amarillo"/><linearGradient id="Naranja_amarillo-10" x1="286.31" y1="59.29" x2="357.38" y2="59.29" xlink:href="#Naranja_amarillo"/><linearGradient id="Naranja_amarillo-11" x1="289.91" y1="59.38" x2="349.72" y2="59.38" xlink:href="#Naranja_amarillo"/><linearGradient id="Naranja_amarillo-12" x1="288.91" y1="59.38" x2="350.72" y2="59.38" xlink:href="#Naranja_amarillo"/><linearGradient id="Naranja_amarillo-13" x1="292.5" y1="59.29" x2="343.06" y2="59.29" xlink:href="#Naranja_amarillo"/><linearGradient id="Naranja_amarillo-14" x1="291.5" y1="59.29" x2="344.06" y2="59.29" xlink:href="#Naranja_amarillo"/><linearGradient id="Naranja_amarillo-15" x1="295.06" y1="59.3" x2="336.19" y2="59.3" xlink:href="#Naranja_amarillo"/><linearGradient id="Naranja_amarillo-16" x1="294.06" y1="59.3" x2="337.19" y2="59.3" xlink:href="#Naranja_amarillo"/><linearGradient id="Naranja_amarillo-17" x1="297.61" y1="59.28" x2="329.54" y2="59.28" xlink:href="#Naranja_amarillo"/><linearGradient id="Naranja_amarillo-18" x1="296.61" y1="59.28" x2="330.54" y2="59.28" xlink:href="#Naranja_amarillo"/><linearGradient id="Naranja_amarillo-19" x1="300.21" y1="59.3" x2="322.91" y2="59.3" xlink:href="#Naranja_amarillo"/><linearGradient id="Naranja_amarillo-20" x1="299.21" y1="59.3" x2="323.91" y2="59.3" xlink:href="#Naranja_amarillo"/><linearGradient id="Naranja_amarillo-21" x1="302.96" y1="59.29" x2="316.03" y2="59.29" xlink:href="#Naranja_amarillo"/><linearGradient id="Naranja_amarillo-22" x1="301.96" y1="59.29" x2="317.03" y2="59.29" xlink:href="#Naranja_amarillo"/><linearGradient id="Naranja_amarillo-23" x1="305.53" y1="59.29" x2="309.31" y2="59.29" xlink:href="#Naranja_amarillo"/><linearGradient id="Naranja_amarillo-24" x1="304.53" y1="59.29" x2="310.31" y2="59.29" xlink:href="#Naranja_amarillo"/></defs><path class="cls-1" d="M16.08,105.67q-7.44-7.36-7.43-19V82.55a1.66,1.66,0,0,1,.51-1.24,1.68,1.68,0,0,1,1.24-.51H23.52a1.74,1.74,0,0,1,1.75,1.75v3.21A13.87,13.87,0,0,0,28.19,95a9.11,9.11,0,0,0,7.29,3.5,9.52,9.52,0,0,0,7.43-3.28,12.56,12.56,0,0,0,2.92-8.68A13,13,0,0,0,44.23,80a20.24,20.24,0,0,0-4.45-5.32q-2.85-2.48-9.26-7.15A130,130,0,0,1,18.78,58.2a35.07,35.07,0,0,1-7.44-9.84A28.62,28.62,0,0,1,8.35,35q0-12.09,7.3-19.25t19.1-7.14q12.24,0,19.68,7.51T61.87,36v3.5a1.68,1.68,0,0,1-.51,1.24,1.65,1.65,0,0,1-1.24.51H46.85a1.65,1.65,0,0,1-1.24-.51,1.68,1.68,0,0,1-.51-1.24V35.74q0-5.69-2.84-9.11a9.3,9.3,0,0,0-7.51-3.43,8.93,8.93,0,0,0-7,3.14Q25,29.48,25,35a13.55,13.55,0,0,0,3,8.9Q31,47.56,39.71,54q8.88,6.7,13.41,10.79a30.71,30.71,0,0,1,7,9A26.21,26.21,0,0,1,62.6,85.61q0,12.4-7.51,19.91T35.48,113Q23.51,113,16.08,105.67Z" transform="translate(-8.35 -4.98)"/><path class="cls-1" d="M80.75,105.45Q73.1,97.86,73.1,85.32v-49q0-12.54,7.65-20.13T101,8.62q12.54,0,20.27,7.58T129,36.33v49q0,12.54-7.73,20.13T101,113Q88.41,113,80.75,105.45ZM109,95a13,13,0,0,0,3.06-9V35.6a13,13,0,0,0-3.06-9,10.27,10.27,0,0,0-8-3.43,10,10,0,0,0-8,3.43,13.15,13.15,0,0,0-3,9V86.05a13.15,13.15,0,0,0,3,9,10,10,0,0,0,8,3.43A10.23,10.23,0,0,0,109,95Z" transform="translate(-8.35 -4.98)"/><path class="cls-1" d="M185.6,13.43a25.31,25.31,0,0,1,9.19,10.65,35.66,35.66,0,0,1,3.28,15.6q0,13.13-6.93,21.14t-18.3,8H160.45a.65.65,0,0,0-.73.73v40.54a1.68,1.68,0,0,1-.51,1.24,1.71,1.71,0,0,1-1.24.51H144.55a1.74,1.74,0,0,1-1.75-1.75V11.39a1.74,1.74,0,0,1,1.75-1.75H172A24.66,24.66,0,0,1,185.6,13.43Zm-7.73,38q3.28-4.16,3.28-11.3t-3.28-11.6a10.4,10.4,0,0,0-8.67-4.3h-8.75a.65.65,0,0,0-.73.73v29.9a.64.64,0,0,0,.73.72h8.75A10.51,10.51,0,0,0,177.87,51.42Z" transform="translate(-8.35 -4.98)"/><path class="cls-1" d="M247,10.3a1.68,1.68,0,0,1,1.24-.51h13.42a1.74,1.74,0,0,1,1.75,1.75v98.57a1.74,1.74,0,0,1-1.75,1.75H248.23a1.74,1.74,0,0,1-1.75-1.75V68.84a.64.64,0,0,0-.73-.72H227.23a.64.64,0,0,0-.73.72v41.27a1.74,1.74,0,0,1-1.75,1.75H211.34a1.74,1.74,0,0,1-1.75-1.75V11.54a1.74,1.74,0,0,1,1.75-1.75h13.41a1.74,1.74,0,0,1,1.75,1.75V52.66a.64.64,0,0,0,.73.73h18.52a.64.64,0,0,0,.73-.73V11.54A1.68,1.68,0,0,1,247,10.3Z" transform="translate(-8.35 -4.98)"/><path class="cls-1" d="M440.3,11.3a1.68,1.68,0,0,1,.51,1.24V23.62a1.74,1.74,0,0,1-1.75,1.75H420.54a.65.65,0,0,0-.73.73v85a1.68,1.68,0,0,1-.51,1.24,1.65,1.65,0,0,1-1.24.51H404.65a1.65,1.65,0,0,1-1.24-.51,1.68,1.68,0,0,1-.51-1.24v-85a.65.65,0,0,0-.73-.73h-17.5a1.74,1.74,0,0,1-1.75-1.75V12.54a1.74,1.74,0,0,1,1.75-1.75h54.39A1.68,1.68,0,0,1,440.3,11.3Z" transform="translate(-8.35 -4.98)"/><path class="cls-1" d="M451,111.4V107a4.24,4.24,0,0,1,.44-1.9c.77-1.36,1.41-2.38,1.89-3.06q3.64-6,10.94-18.15T476.83,62.7q9.63-17.21,9.63-28.14,0-8.18-3.8-13.13a12.2,12.2,0,0,0-10.2-5,11.91,11.91,0,0,0-10,4.89q-3.72,4.89-3.58,13v5.25a1.29,1.29,0,0,1-1.45,1.46h-5.11a1.29,1.29,0,0,1-1.46-1.46V34.12q.3-10.93,6.27-17.72A19.67,19.67,0,0,1,472.6,9.62q9.76,0,15.75,6.85t6,18.09q0,13.26-10.5,31.49-10.35,18.09-23,39.23a.47.47,0,0,0,0,.51.48.48,0,0,0,.44.22h34.85a1.29,1.29,0,0,1,1.46,1.46v3.93a1.29,1.29,0,0,1-1.46,1.46h-43.6A1.29,1.29,0,0,1,451,111.4Z" transform="translate(-8.35 -4.98)"/><path class="cls-1" d="M514.09,107.32q-6.5-7-6.49-18.37V34.7q0-11.37,6.49-18.37t17.13-7q10.8,0,17.43,7t6.63,18.37V89q0,11.37-6.63,18.37t-17.43,7Q520.59,114.32,514.09,107.32Zm29-4.81q4.44-4.82,4.45-13V34.12q0-8.16-4.45-13t-11.89-4.81a14.75,14.75,0,0,0-11.52,4.88q-4.37,4.89-4.37,12.91V89.53q0,8,4.37,12.91a14.72,14.72,0,0,0,11.52,4.88Q538.66,107.32,543.11,102.51Z" transform="translate(-8.35 -4.98)"/><path class="cls-1" d="M567.24,111.4V107a4.24,4.24,0,0,1,.44-1.9q1.17-2,1.89-3.06,3.64-6,10.94-18.15T593.05,62.7q9.63-17.21,9.63-28.14,0-8.18-3.79-13.13a12.22,12.22,0,0,0-10.21-5,11.91,11.91,0,0,0-10,4.89q-3.72,4.89-3.57,13v5.25a1.29,1.29,0,0,1-1.46,1.46h-5.11a1.29,1.29,0,0,1-1.45-1.46V34.12q.28-10.93,6.27-17.72a19.63,19.63,0,0,1,15.45-6.78q9.78,0,15.75,6.85t6,18.09q0,13.26-10.5,31.49-10.35,18.09-23,39.23a.47.47,0,0,0,0,.51.48.48,0,0,0,.44.22H612.3a1.29,1.29,0,0,1,1.46,1.46v3.93a1.29,1.29,0,0,1-1.46,1.46H568.7A1.29,1.29,0,0,1,567.24,111.4Z" transform="translate(-8.35 -4.98)"/><path class="cls-1" d="M631.84,10.79h5.25a1.29,1.29,0,0,1,1.46,1.45V111.4a1.29,1.29,0,0,1-1.46,1.46h-4.81a1.29,1.29,0,0,1-1.46-1.46V19.83a.48.48,0,0,0-.22-.44.47.47,0,0,0-.51,0l-12.54,6.27-.73.29a.91.91,0,0,1-.73-.36,1.49,1.49,0,0,1-.29-.95V21.29a2.11,2.11,0,0,1,1-1.75L630,11.37A4.48,4.48,0,0,1,631.84,10.79Z" transform="translate(-8.35 -4.98)"/><path class="cls-2" d="M330.12,112.6c-29.21.09-53.32-24.13-53.31-53.3a53.31,53.31,0,1,1,106.62,0C383.46,88.45,359.39,112.68,330.12,112.6Zm0-1.35a51.95,51.95,0,1,0-52-51.91A52.11,52.11,0,0,0,330.16,111.25Z" transform="translate(-8.35 -4.98)"/><path class="cls-3" d="M328,10.79c26.86.14,48.42,21.15,48.49,48.29.07,27.35-20.91,48.08-48.39,48.9-13.19-.5-24.93-4.74-34.29-14.22s-14.32-20.68-14.4-33.95A48.42,48.42,0,0,1,328,10.79Zm0,95.66a46.86,46.86,0,0,0,47.18-46.82,47.18,47.18,0,0,0-94.36-.57C280.69,84.82,300.77,106.23,328,106.45Z" transform="translate(-8.35 -4.98)"/><path class="cls-4" d="M326.08,103.18c-24.63-.12-43.83-19.34-43.89-43.8a43.86,43.86,0,1,1,43.89,43.8Zm-.08-1.35a42.54,42.54,0,1,0-42.48-42.61A42.61,42.61,0,0,0,326,101.83Z" transform="translate(-8.35 -4.98)"/><path class="cls-5" d="M323.89,98.56A39.27,39.27,0,0,1,324,20c22.47.05,39.37,18.84,39.21,39.51A39.42,39.42,0,0,1,323.89,98.56Zm0-1.34a37.93,37.93,0,1,0-37.8-38.12A38,38,0,0,0,323.89,97.22Z" transform="translate(-8.35 -4.98)"/><path class="cls-6" d="M321.88,94a34.66,34.66,0,1,1,34.49-33.69A34.71,34.71,0,0,1,321.88,94Zm-.11-1.35a33.31,33.31,0,1,0-33.1-34.68A33.34,33.34,0,0,0,321.77,92.6Z" transform="translate(-8.35 -4.98)"/><path class="cls-7" d="M349.72,60.09a30,30,0,0,1-31,29.15c-16.27-.84-29.39-13.85-28.75-31a29.91,29.91,0,0,1,59.79,1.87Zm-1.32-.79a28.38,28.38,0,0,0-28.64-28.48c-15.22.05-28.49,11.72-28.52,28.48s13.17,28.35,28.42,28.47A28.4,28.4,0,0,0,348.4,59.3Z" transform="translate(-8.35 -4.98)"/><path class="cls-8" d="M292.5,59.29a25,25,0,0,1,25.17-25.2,25.21,25.21,0,1,1,0,50.41C304.27,84.38,292.5,74,292.5,59.29Zm1.33,0a23.93,23.93,0,1,0,23.82-23.9A23.73,23.73,0,0,0,293.83,59.32Z" transform="translate(-8.35 -4.98)"/><path class="cls-9" d="M336.19,59.3a20.57,20.57,0,1,1-20.61-20.57C327.64,38.7,336,48.05,336.19,59.3Zm-1.34,0c-.11-10.34-7.75-19.24-19.21-19.27a19.25,19.25,0,1,0,19.21,19.27Z" transform="translate(-8.35 -4.98)"/><path class="cls-10" d="M329.54,59.28c-.23,8.84-6.52,15.86-15.93,16a16,16,0,1,1,0-31.9C323,43.42,329.32,50.64,329.54,59.28Zm-1.33,0a14.64,14.64,0,0,0-14.58-14.68c-8-.14-14.7,7.07-14.69,14.62S305.45,74,313.57,73.91C322.18,73.79,328,67.4,328.21,59.33Z" transform="translate(-8.35 -4.98)"/><path class="cls-11" d="M300.22,59.22c-.17-5.66,5.71-11.41,11.43-11.31,5.29.09,11.31,5.36,11.26,11.43,0,5.77-5.74,11.4-11.52,11.35C305.4,70.64,300,64.53,300.22,59.22Zm1.53.07c-.18,5.5,4.91,9.94,9.73,10s10.11-5,10.06-10a10.36,10.36,0,0,0-10-9.86A9.83,9.83,0,0,0,301.75,59.29Z" transform="translate(-8.35 -4.98)"/><path class="cls-12" d="M303,59.29a6.54,6.54,0,1,1,6.48,6.54A6.57,6.57,0,0,1,303,59.29Zm1.33,0a5.21,5.21,0,0,0,10.41,0,5.21,5.21,0,1,0-10.41,0Z" transform="translate(-8.35 -4.98)"/><path class="cls-13" d="M309.31,59.32a1.87,1.87,0,0,1-1.9,1.88,1.91,1.91,0,1,1,.06-3.82A1.87,1.87,0,0,1,309.31,59.32Zm-1.84.77c.24-.37.49-.59.47-.79s-.3-.39-.46-.58c-.2.2-.49.38-.55.62S307.2,59.73,307.47,60.09Z" transform="translate(-8.35 -4.98)"/></svg>