<svg height='300px' width='300px'  fill="#000000" xmlns="http://www.w3.org/2000/svg" xmlns:xlink="http://www.w3.org/1999/xlink" version="1.1" x="0px" y="0px" viewBox="0 0 100 100" enable-background="new 0 0 100 100" xml:space="preserve"><g><path d="M6.854,95.381h86.291v-10.83H6.854V95.381z M8.685,86.381h82.631v7.17H8.685V86.381z"></path><path d="M10.28,79.887c0,1.563,1.272,2.834,2.836,2.834h9.337c1.563,0,2.835-1.271,2.835-2.834c0-1.228-0.79-2.267-1.885-2.659   V38.035c1.095-0.393,1.885-1.431,1.885-2.659c0-1.563-1.271-2.834-2.835-2.834h-9.337c-1.563,0-2.836,1.271-2.836,2.834   c0,1.229,0.791,2.267,1.886,2.659v39.192C11.071,77.62,10.28,78.659,10.28,79.887z M22.453,80.891h-9.337   c-0.555,0-1.005-0.451-1.005-1.004c0-0.554,0.45-1.005,1.005-1.005h9.337c0.554,0,1.005,0.451,1.005,1.005   C23.458,80.439,23.007,80.891,22.453,80.891z M13.996,38.211h7.577v38.841h-7.577V38.211z M13.116,34.372h9.337   c0.554,0,1.005,0.45,1.005,1.004c0,0.554-0.451,1.004-1.005,1.004h-9.337c-0.555,0-1.005-0.45-1.005-1.004   C12.111,34.822,12.562,34.372,13.116,34.372z"></path><path d="M31.759,79.887c0,1.563,1.271,2.834,2.834,2.834h9.338c1.563,0,2.834-1.271,2.834-2.834c0-1.229-0.79-2.267-1.885-2.66   V38.035c1.095-0.392,1.885-1.431,1.885-2.659c0-1.563-1.271-2.834-2.834-2.834h-9.338c-1.563,0-2.834,1.271-2.834,2.834   c0,1.229,0.789,2.267,1.885,2.659v39.191C32.548,77.62,31.759,78.658,31.759,79.887z M43.931,80.891h-9.338   c-0.554,0-1.004-0.451-1.004-1.004c0-0.554,0.45-1.005,1.004-1.005h9.338c0.553,0,1.004,0.451,1.004,1.005   C44.935,80.439,44.483,80.891,43.931,80.891z M35.474,38.211h7.576v38.841h-7.576V38.211z M34.593,34.372h9.338   c0.553,0,1.004,0.45,1.004,1.004c0,0.554-0.451,1.004-1.004,1.004h-9.338c-0.554,0-1.004-0.45-1.004-1.004   C33.589,34.822,34.039,34.372,34.593,34.372z"></path><path d="M53.235,79.887c0,1.563,1.271,2.834,2.834,2.834h9.338c1.563,0,2.834-1.271,2.834-2.834c0-1.228-0.789-2.267-1.884-2.659   V38.035c1.095-0.393,1.884-1.431,1.884-2.659c0-1.563-1.271-2.834-2.834-2.834h-9.338c-1.563,0-2.834,1.271-2.834,2.834   c0,1.229,0.79,2.267,1.885,2.659v39.192C54.025,77.62,53.235,78.658,53.235,79.887z M65.407,80.891h-9.338   c-0.553,0-1.004-0.451-1.004-1.004c0-0.554,0.451-1.005,1.004-1.005h9.338c0.554,0,1.004,0.451,1.004,1.005   C66.411,80.439,65.961,80.891,65.407,80.891z M56.95,38.211h7.577v38.841H56.95V38.211z M56.069,34.372h9.338   c0.554,0,1.004,0.45,1.004,1.004c0,0.554-0.45,1.004-1.004,1.004h-9.338c-0.553,0-1.004-0.45-1.004-1.004   C55.065,34.822,55.517,34.372,56.069,34.372z"></path><path d="M74.712,79.887c0,1.563,1.271,2.834,2.835,2.834h9.337c1.563,0,2.835-1.271,2.835-2.834c0-1.228-0.79-2.267-1.885-2.659   V38.035c1.095-0.393,1.885-1.431,1.885-2.659c0-1.563-1.271-2.834-2.835-2.834h-9.337c-1.563,0-2.835,1.271-2.835,2.834   c0,1.229,0.79,2.267,1.886,2.659v39.191C75.502,77.62,74.712,78.658,74.712,79.887z M86.884,80.891h-9.337   c-0.555,0-1.005-0.451-1.005-1.004c0-0.554,0.45-1.005,1.005-1.005h9.337c0.555,0,1.005,0.451,1.005,1.005   C87.889,80.439,87.438,80.891,86.884,80.891z M78.428,38.211h7.576v38.841h-7.576V38.211z M77.547,34.372h9.337   c0.555,0,1.005,0.45,1.005,1.004c0,0.554-0.45,1.004-1.005,1.004h-9.337c-0.555,0-1.005-0.45-1.005-1.004   C76.542,34.822,76.992,34.372,77.547,34.372z"></path><path d="M92.501,21.982c-0.291-0.091-29.32-9.133-42.016-17.061L50,4.618l-0.485,0.303C36.819,12.849,7.79,21.891,7.499,21.982   l-0.645,0.2v8.53h86.291v-8.53L92.501,21.982z M91.315,28.881H8.685v-5.352C13.104,22.135,37.828,14.175,50,6.772   c12.172,7.402,36.896,15.362,41.315,16.756V28.881z"></path><path d="M48.561,12.356l-2.13-1.106l-0.464,2.355l-2.399-0.072l0.605,2.322l-2.193,0.976l1.553,1.831l-1.553,1.831l2.193,0.976   l-0.605,2.322l2.399-0.072l0.464,2.355l2.13-1.106L50,26.889l1.439-1.921l2.129,1.106l0.465-2.355l2.398,0.072l-0.604-2.322   l2.193-0.976l-1.553-1.831l1.553-1.831l-2.193-0.976l0.604-2.322l-2.398,0.072l-0.465-2.355l-2.129,1.106L50,10.436L48.561,12.356z    M52.246,14l0.291,1.481l1.509-0.045l-0.381,1.461l1.38,0.614l-0.977,1.152l0.977,1.151l-1.38,0.614l0.381,1.461l-1.509-0.045   l-0.291,1.48l-1.341-0.696L50,23.836l-0.905-1.208l-1.34,0.696l-0.292-1.48l-1.509,0.045l0.381-1.461l-1.38-0.614l0.977-1.151   l-0.977-1.152l1.38-0.614l-0.381-1.461l1.509,0.045L47.755,14l1.34,0.696L50,13.487l0.905,1.208L52.246,14z"></path></g></svg>