<svg height='300px' width='300px'  fill="#000000" xmlns="http://www.w3.org/2000/svg" xmlns:xlink="http://www.w3.org/1999/xlink" version="1.1" x="0px" y="0px" viewBox="0 0 100 100" enable-background="new 0 0 100 100" xml:space="preserve"><path d="M81.002,18.435C72.635,10.067,61.51,5.459,49.677,5.459c-11.833,0-22.958,4.607-31.325,12.975  C9.984,26.802,5.376,37.927,5.376,49.76c0,11.833,4.608,22.957,12.976,31.325c8.367,8.368,19.492,12.976,31.325,12.976  c11.833,0,22.958-4.607,31.325-12.976c8.368-8.368,12.976-19.492,12.976-31.325C93.978,37.927,89.37,26.802,81.002,18.435z   M49.677,92.271c-23.44,0-42.511-19.07-42.511-42.511c0-23.442,19.07-42.511,42.511-42.511S92.188,26.318,92.188,49.76  C92.188,73.201,73.117,92.271,49.677,92.271z"></path><path d="M50.526,23.333c-0.779,0.779-2.046,0.779-2.824,0c-0.311-0.311-0.814-0.311-1.125,0c-0.311,0.311-0.311,0.814,0,1.125  c0.7,0.699,1.618,1.049,2.537,1.049s1.837-0.351,2.537-1.049c0.311-0.312,0.311-0.815,0-1.125  C51.34,23.022,50.835,23.022,50.526,23.333z"></path><path d="M47.417,20.518c0.311-0.31,0.311-0.813,0-1.124c-0.419-0.42-0.974-0.655-1.562-0.663c-0.01,0-0.019,0-0.028,0  c-0.585,0-1.133,0.226-1.545,0.639c-0.311,0.31-0.311,0.814,0,1.124c0.311,0.311,0.814,0.311,1.126,0  c0.112-0.112,0.262-0.172,0.427-0.171c0.17,0.002,0.333,0.071,0.458,0.196c0.155,0.155,0.358,0.232,0.562,0.232  C47.057,20.75,47.261,20.674,47.417,20.518z"></path><path d="M50.811,19.346c-0.311,0.31-0.311,0.814,0,1.124c0.311,0.311,0.814,0.311,1.124,0c0.238-0.237,0.637-0.227,0.887,0.024  c0.155,0.156,0.358,0.233,0.562,0.233s0.408-0.078,0.562-0.233c0.312-0.31,0.312-0.814,0-1.125  C53.076,18.499,51.669,18.488,50.811,19.346z"></path><path d="M36.456,29.229c0.229,0.239,0.542,0.37,0.864,0.37c0.093,0,0.188-0.011,0.281-0.033c0.415-0.1,0.744-0.414,0.863-0.823  l1.455-4.943c1.594,3.489,5.115,5.921,9.194,5.921c4.08,0,7.601-2.432,9.196-5.92l1.454,4.943c0.121,0.41,0.449,0.723,0.863,0.823  c0.093,0.022,0.188,0.033,0.281,0.033c0.322,0,0.635-0.131,0.863-0.37l4.917-5.162c0.294-0.309,0.401-0.75,0.281-1.159  c-0.121-0.409-0.45-0.723-0.864-0.822l-6.92-1.675c0.021-0.263,0.035-0.528,0.035-0.796c0-5.572-4.534-10.106-10.106-10.106  s-10.105,4.534-10.105,10.106c0,0.269,0.014,0.533,0.034,0.796l-6.919,1.675c-0.413,0.1-0.743,0.414-0.863,0.822  s-0.013,0.851,0.281,1.159L36.456,29.229z M63.534,23.918l-2.065,2.169l-0.846-2.875L63.534,23.918z M49.113,27.335  c-4.257,0-7.719-3.463-7.719-7.721c0-0.195,0.009-0.388,0.023-0.58c3.89-0.117,7.095-3.002,7.707-6.751  c0.61,3.742,3.805,6.624,7.685,6.751c0.015,0.192,0.024,0.385,0.024,0.58C56.833,23.872,53.371,27.335,49.113,27.335z M56.217,16.59  c-2.289-0.349-4.13-2.072-4.659-4.296C53.654,12.995,55.354,14.572,56.217,16.59z M46.693,12.286  c-0.529,2.235-2.382,3.964-4.683,4.307C42.875,14.566,44.584,12.984,46.693,12.286z M37.604,23.213l-0.846,2.875l-2.066-2.169  L37.604,23.213z"></path><path d="M33.925,69.479c0.168,0.168,0.396,0.263,0.633,0.263s0.464-0.095,0.633-0.263l2.323-2.324c0.35-0.35,0.35-0.916,0-1.266  l-2.533-2.533c-0.167-0.167-0.396-0.262-0.633-0.262c-0.237,0-0.465,0.095-0.632,0.262l-2.324,2.324c-0.35,0.349-0.35,0.917,0,1.265  L33.925,69.479z M34.349,65.254l1.269,1.268l-1.059,1.06l-1.268-1.267L34.349,65.254z"></path><path d="M38.447,68.088l-2.324,2.324c-0.168,0.167-0.263,0.395-0.263,0.632c0,0.237,0.095,0.464,0.263,0.633l2.534,2.533  c0.174,0.175,0.403,0.262,0.632,0.262c0.229,0,0.458-0.087,0.633-0.262l2.324-2.324c0.349-0.349,0.349-0.916,0-1.265l-2.533-2.533  C39.363,67.738,38.797,67.738,38.447,68.088z M39.29,72.313l-1.268-1.269l1.059-1.06l1.268,1.269L39.29,72.313z"></path><path d="M45.425,71.874c0.304,0,0.61-0.116,0.843-0.35c0.466-0.465,0.466-1.221,0-1.688L35.766,59.335  c-0.465-0.466-1.222-0.466-1.687,0c-0.467,0.466-0.467,1.222,0,1.688l10.502,10.501C44.813,71.757,45.119,71.874,45.425,71.874z"></path><path d="M69.666,29.451c-0.465-0.466-1.222-0.466-1.687,0c-0.465,0.466-0.465,1.22,0,1.687l0.466,0.467l-4.948,4.948  c-0.039,0.04-0.074,0.082-0.108,0.126c-0.259-0.032-0.521-0.05-0.788-0.05c-0.41,0-0.813,0.04-1.207,0.115  c-0.774-2.49-1.842-4.593-3.181-6.262c-0.522-0.651-1.227-1.01-1.987-1.01c-0.729,0-1.381,0.262-1.883,0.755  c-0.825,0.762-3.461,1.352-5.205,1.357c-1.917-0.081-4.454-0.621-5.253-1.357c-0.483-0.473-1.184-0.755-1.882-0.755  c-0.752,0-1.47,0.355-1.926,0.952c-4.834,6.019-4.831,15.807-4.83,19.988v0.673c0,2.287,1.85,4.186,5.243,5.429  c-1.257,2.403-0.877,5.445,1.139,7.461c1.242,1.243,2.874,1.864,4.506,1.864c1.632,0,3.264-0.621,4.506-1.864l5.751-5.751  c0.357,0.186,0.738,0.332,1.138,0.432c0.015,0.095,0.041,0.189,0.081,0.282c1.986,4.574,2.015,8.927,0.083,11.946  c-2.125,3.318-6.676,5.148-13.164,5.293c-0.088,0.001-0.174,0.014-0.257,0.034c-0.023-0.002-0.047-0.004-0.07-0.004h-10.68  c-3.208,0-5.816,2.61-5.816,5.816c0,1.062,0.298,1.895,0.887,2.475c1.017,1.004,2.555,0.985,4.183,0.963  c0.244-0.002,0.493-0.007,0.747-0.007h32.132c0.255,0,0.504,0.005,0.747,0.007c0.231,0.003,0.459,0.006,0.686,0.006  c1.368,0,2.625-0.107,3.498-0.969c0.588-0.581,0.886-1.413,0.886-2.475c0-3.222-3.182-5.816-5.817-5.816h-1.282  c2.168-2.653,3.419-6.023,3.565-9.722c0.167-4.215-1.126-8.643-3.547-12.148c-0.105-0.153-0.241-0.271-0.392-0.358  c0.01-0.128,0.017-0.258,0.017-0.389c0-0.867-0.214-1.682-0.588-2.402l3.681-3.681c1.204-1.204,1.867-2.804,1.867-4.506  c0-0.267-0.019-0.531-0.05-0.792c0.043-0.032,0.087-0.064,0.126-0.103l4.949-4.948l0.666,0.666c0.233,0.232,0.538,0.349,0.843,0.349  c0.306,0,0.61-0.116,0.843-0.349c0.465-0.466,0.465-1.221,0-1.688L69.666,29.451z M37.632,51.084v-0.674  c-0.001-3.932-0.004-13.143,4.312-18.505l0.025-0.032c0.004-0.005,0.014-0.015,0.033-0.015c0.073,0,0.179,0.04,0.212,0.072  l0.026,0.026c1.908,1.796,6.625,2.005,6.825,2.013l0.048,0.001c1.83,0,5.314-0.547,6.874-2.014l0.026-0.026  c0.034-0.034,0.073-0.072,0.212-0.073c0.001,0,0.047,0.019,0.125,0.117c1.184,1.475,2.129,3.375,2.819,5.657  c-0.384,0.246-0.745,0.534-1.075,0.864L42.063,54.527C39.32,53.67,37.632,52.37,37.632,51.084z M61.628,53.59  c0,1.563-1.271,2.834-2.836,2.834c-1.563,0-2.835-1.271-2.835-2.834c0-1.563,1.271-2.836,2.835-2.836S61.627,52.027,61.628,53.59z   M61.015,76.256c-0.016,0.013-0.029,0.028-0.045,0.042c-0.432,0.179-0.737,0.604-0.737,1.103c0,0.659,0.535,1.193,1.193,1.193h4.227  c1.355,0,3.431,1.537,3.431,3.43c0,0.383-0.065,0.667-0.177,0.778c-0.307,0.302-1.46,0.288-2.476,0.275  c-0.253-0.004-0.512-0.007-0.778-0.007H33.521c-0.265,0-0.524,0.003-0.777,0.007c-1.018,0.013-2.169,0.027-2.477-0.275  c-0.113-0.112-0.177-0.395-0.177-0.778c0-1.891,1.54-3.43,3.431-3.43h10.68c0.097,0,0.191-0.014,0.282-0.036  c0.024,0.002,0.047,0.003,0.071,0.003c0.009,0,0.018,0,0.027,0c7.423-0.166,12.51-2.316,15.12-6.391  c2.27-3.544,2.396-8.44,0.373-13.52c1.205-0.306,2.245-1.032,2.953-2.014C66.57,62.586,66.809,71.226,61.015,76.256z M65.42,45.82  l-3.554,3.554c-0.863-0.631-1.925-1.004-3.075-1.004c-2.878,0-5.221,2.341-5.222,5.221c0,1.148,0.375,2.211,1.005,3.074  l-5.623,5.623c-1.554,1.554-4.083,1.554-5.637,0c-1.555-1.553-1.555-4.083,0-5.637l16.467-16.469  c0.754-0.752,1.754-1.167,2.819-1.167c1.065,0,2.066,0.415,2.819,1.167c0.753,0.754,1.168,1.755,1.168,2.819  C66.588,44.066,66.173,45.066,65.42,45.82z M68.207,39.575l-2.178-2.179l3.917-3.917l2.178,2.179L68.207,39.575z"></path></svg>