<svg height='300px' width='300px'  fill="#000000" xmlns="http://www.w3.org/2000/svg" xmlns:xlink="http://www.w3.org/1999/xlink" version="1.1" x="0px" y="0px" viewBox="0 0 400 400" enable-background="new 0 0 400 400" xml:space="preserve"><path fill="none" d="M148.7,263.8l2.8-37.5c-5.3,6.2-13,20-13.6,24C138.5,252.3,142.9,257.6,148.7,263.8z"></path><path fill="none" d="M230.4,90.8c0-7.4-6-13.5-13.5-13.5s-13.5,6-13.5,13.5c0,7.4,6,13.5,13.5,13.5S230.4,98.2,230.4,90.8z"></path><path fill="none" d="M157.6,160.8c4.5,2.5,16.9,8.1,28.3,12.9c1,0.3,2.4,1.3,2.1,4.4c-0.3,3.2-2.3,9.2-4,13.9  c2.2,2.3,10.6,10,20.9,0.2c-2.8-7.5-4.8-14.4-4.8-15.3c0.1-1.5,0.1-1.5,9.1-7.3c5.8-3.7,13.3-8.6,19-12.6c-3.1-1.2-4.9-5.1-2.7-8.4  c9.9-15.3,20.1-32.8,22.1-48c0.5-3.6,0.2-11.5-0.7-15c-5.4-20.1-23.3-32.1-39-34.7c-7.3-1.2-14-4-17,2.8  c-3.3,7.4-7.8,14.1-13.7,19.9c5.4,2.8,9.2,8,10.2,14.2h10.6c1.5-9.3,9.5-16.5,19.2-16.5s17.8,7.2,19.2,16.5h5.1c1.7,0,3,1.3,3,3  s-1.3,3-3,3h-5.1c-1.5,9.3-9.5,16.5-19.2,16.5s-17.8-7.2-19.2-16.5h-10.6c-1.5,9.3-9.5,16.5-19.2,16.5s-17.8-7.2-19.2-16.5h-6.1  c-2.4,3.3-3.9,8.3-3.8,11.5C139.5,127.2,161.5,137.1,157.6,160.8z M178,121.3l0.8-0.1c2.8-0.2,5.5-0.4,8.1,2  c0.2,0.2,0.5,0.5,0.7,0.7c0.1,0.1,0.2,0.3,0.4,0.6c0.7,1.1,1.6,2.2,3.1,2.2c0,0,0,0,0,0c1,0,1.5-0.6,2.5-2c0.3-0.4,0.5-0.8,0.9-1.2  c0.1-0.1,0.2-0.2,0.3-0.4c2-2.1,4-2.1,6.4-2.1c0.6,0,1.3,0,2.1,0c1.1,0,2,0.8,2.1,1.9c0,1.1-6.9,2.1-7.7,3c-0.2,0.3-0.4,0.6-0.6,0.9  c-1,1.5-2.5,3.8-5.8,3.8c0,0,0,0,0,0c-3.6,0-5.6-2.9-6.3-3.9c-0.1-0.1-0.1-0.2-0.2-0.2c-1.3-1.5-8.3-2-8.4-3.1  C176.1,122.3,176.9,121.3,178,121.3z M175,138.2c1.2,0,2.6,0.6,4.6,1.4c2.9,1.2,6.8,2.9,11.1,2.9c4.2,0,8.2-1.7,11.1-2.9  c1.9-0.8,3.4-1.4,4.6-1.4c1.7,0,2.9,1.2,2.9,3.1c0,4.6-8.2,16.3-18.5,16.3s-18.5-11.7-18.5-16.3C172.1,139.4,173.3,138.2,175,138.2z  "></path><path fill="none" d="M206,301.1c-0.4,0-12.2,0.8-5.9-1.6c1.1-0.3,2.2-0.6,3.2-0.7v-5.5v-3.8c-1.4,0.3-2.8,0.6-4.1,1  c-3.1,0.8-6.2,1.9-8.6,3.9c-1.8,1.6-3.5,3.7-5.6,4.4c-0.5,0-1-0.1-1.5-0.1c-3.1-0.2-6.1-0.2-8.5,0.2c-0.3,0.1-0.6,0.1-0.9,0.2l0,0  c0,0,0,0,0,0c-0.4,0.1-0.7,0.2-1,0.3c-0.1,0-0.2,0.1-0.3,0.1c-0.3,0.1-0.6,0.2-0.9,0.4l0,0c0,0,0,0,0,0c0,0-0.1,0-0.1,0  c-4.8,2.4-9.6,3.3-13,15.3c-3.4,12-2.4,14.3-2.4,14.3c2.8,2,15.5,7.4,27.5,11.1c0.2,0.1,0.4,0.1,0.6,0.2c0.4,0.1,0.9,0.3,1.3,0.4  c4.1,1.2,8.1,2.2,11.4,2.8c17.8,3,36.4-0.1,44.4-4.8c1.9-1.1,6.7-4.5,8-7c1.2-2.5,1.4-5.7-0.7-6.6c-2.1-0.9-5.9,0.6-11.9,2.2  c-5.3,1.4-12.4,2.1-20.1,3.2c16.2-2.5,35.7-8.1,34.6-16.6c-0.7-5.9-10.3-2.2-18.9-0.3c-6,1.4-12.5,2-20.1,2.6  c7.6-1.6,17.6-3.7,25.6-6.3c2.7-0.8,10.1-2.6,10.1-9.9c0-4.8-7.4-3-9.9-2.7C229.3,298.9,206.1,301.1,206,301.1z"></path><path fill="none" d="M223,256c-0.8,0-1.5,0.6-1.6,1.4c-0.1,1-0.1,2-0.2,3c-0.1,0.8,0.6,1.5,1.4,1.6c0,0,0.1,0,0.1,0  c0.8,0,1.4-0.6,1.5-1.4c0.1-1,0.1-2,0.2-3C224.4,256.7,223.8,256,223,256z"></path><path fill="none" d="M207.1,348.7v2.6c0,9.2,7.5,16.7,16.7,16.7c9.2,0,16.7-7.5,16.7-16.7v-8.4C228.2,349.6,208.6,348.7,207.1,348.7  z"></path><path fill="none" d="M218.4,239.5c0.6-3.4,1.5-6.5,2.6-9.6c-0.1,0-0.2,0-0.4,0c-0.2,0-0.5,0-0.7,0.1c-0.2,0-0.4,0-0.6,0  c-5.6,0.5-10.1,2.2-11.4,3.7c-0.4,0.5-0.8,1.2-0.3,1.8C207.7,235.6,209.9,238.6,218.4,239.5z"></path><path fill="none" d="M203.8,178.2c1.3,4.4,7,22.2,11.2,29.8c5.9-11.7,15.3-31.7,15.8-49.2c-5.5,3.8-13.5,9.7-18.7,13.1  C209.6,173.4,205.2,177.2,203.8,178.2z"></path><path fill="none" d="M156.9,163.8c-0.1,0.3-0.1,0.6-0.2,1c0,0.1-0.1,0.2-0.1,0.3c-0.4,10,2.5,27.3,17.5,42.7  c1.2-2.6,4.3-11.1,6.2-16.2c3.1-8.2,4.8-13,5-14.8C171.5,170.9,161.3,166.1,156.9,163.8z"></path><path fill="none" d="M190.7,153.5c6.9,0,12.7-7.3,14.2-10.9c-0.5,0.2-1.1,0.4-1.6,0.6c-3,1.3-7.6,3.2-12.6,3.2  c-5,0-9.6-1.9-12.6-3.2c-0.5-0.2-1.1-0.4-1.6-0.6C178,146.2,183.8,153.5,190.7,153.5z"></path><path fill="none" d="M168,104.3c7.4,0,13.5-6,13.5-13.5c0-6-4-11.1-9.5-12.9c-4.8,3.8-10.5,7.1-17.1,9.8c-0.2,1-0.4,2-0.4,3  C154.5,98.2,160.5,104.3,168,104.3z"></path><path fill="none" d="M228.2,231.6c0.3-0.8-0.2-1.6-1-1.9c-0.8-0.3-1.6,0.2-1.9,1c-1,3.1-1.8,6.2-2.3,9.7l3.1-0.2  C226.6,236.9,227.2,234.5,228.2,231.6z"></path><path fill="none" d="M267.7,193.3c-1.8,0.9-4.2,2-6.6,3.2c-0.7,0.4-1,1.3-0.7,2c0.3,0.5,0.8,0.8,1.3,0.8c0.2,0,0.5-0.1,0.7-0.2  c2.4-1.2,4.7-2.3,6.5-3.2c0.7-0.4,1.1-1.3,0.7-2C269.3,193.2,268.4,192.9,267.7,193.3z"></path><path fill="none" d="M259.9,203.4c-0.5-1.4-1.1-2.9-2-4.8c-0.5-1.1-1.1-2.4-1.7-3.6c0,0,0,0,0,0c5.1-2.7,9.9-5.1,13.7-7  c0.6-0.3,2.5-1.2,5.1-2.4c-0.3-6-0.4-12.4-0.3-18.3L241.4,184c0.3,0.2,0.6,0.4,0.8,0.6c0.1,0,0.1,0.1,0.2,0.1  c0.3,0.2,0.6,0.4,0.8,0.7c0.1,0.1,0.2,0.1,0.2,0.2c0.3,0.3,0.6,0.6,1,0.9c0.1,0.1,0.1,0.1,0.2,0.2c0.3,0.3,0.6,0.6,0.8,0.9  c0.1,0.1,0.2,0.2,0.2,0.3c0.3,0.4,0.6,0.7,0.9,1.1c0,0.1,0.1,0.1,0.1,0.2c0.3,0.3,0.5,0.7,0.8,1c0.1,0.1,0.1,0.2,0.2,0.3  c0.3,0.4,0.6,0.8,0.9,1.2c0,0,0.1,0.1,0.1,0.1c0.3,0.4,0.5,0.8,0.8,1.2c0.1,0.1,0.1,0.2,0.2,0.3c0.3,0.4,0.5,0.9,0.8,1.3  c0,0,0,0.1,0,0.1c0.1,0.1,0.1,0.2,0.2,0.3c0.3,0.7,0.7,1.4,1,2.1c0.6,1.2,1.2,2.4,1.7,3.5c0.9,2,1.6,3.6,2.1,5c0,0,0,0-0.1,0  c0.8,2.9,1.4,5.7,1.3,8.1l3-1.5c0,0,0,0,0.1,0c0.4-0.1,0.8-0.3,1.2-0.6l16.4-8.3c-0.6-2-1-4.5-1.4-7.4  C269,199.2,263.2,201.9,259.9,203.4z"></path><path fill="none" d="M323.3,127.8c-4.2-2.4-7.6-1.9-12.3,2.6c-1.4,1.3-3.4,1.8-5.1,1.1c-3.9-1.6-8.9,1-11.8,5.8  c-0.9,1.4-2.8,2-4.2,1.1c-3.3-2.2-10.5,1.4-11.7,7.7c-1,5.1-2.6,53.8,3,60.4c2.9,3.4,5.4,4.5,8.4,2.6c3.9-2.5,3.1-7.1,3.6-11.7  c1.1-8.9,1.7-24.6,1.5-33.5c1.8,8.1,2,22.9,3.5,31.1c0.5,2.9,1.3,6,3.6,8c1.7,1.5,4.2,1.9,6.2,0.8c2.7-1.6,5.1-5.5,4.9-11.9  c-0.2-5.3-0.1-10.3,0-15.3c0.9-0.4,1.8-0.8,2.7-1.2c0.2,3,0.4,5.9,1.2,8.9c0.8,3.1,4.1,5.8,7.3,4.6c0.7-0.3,1.4-0.8,1.9-1.4  c2-2.4,2.1-5.4,2-8.2C328,163.6,328.5,130.8,323.3,127.8z M315.5,172.1c-0.8,0.3-1.6,0.7-2.3,1c0.2-5.1,0.4-10.2,0.4-15.7  c1.6,5.8,1.9,10.4,2.1,14.6C315.6,172.1,315.5,172.1,315.5,172.1z"></path><path fill="none" d="M340.7,134.1l-11.3,5.7c0.6,5.6,0.9,12.8,1.1,21.8c5.4-2.4,10.1-4.9,15.1-8.3c5-3.4,6.8-5.1,9-1.3  c0.8,4.9-2.9,7.6-5.3,9.2c-6.4,4-12.3,7.1-18.7,10.1c0,0.6,0,1.2,0,1.8c0,1.2,0,2.4,0,3.5l25.1-12.6c8.2-4.1,11.6-14.2,7.4-22.5  C359,133.3,349,129.9,340.7,134.1z"></path><path fill="none" d="M338,164.5c0.2,0,0.5-0.1,0.7-0.2c0.9-0.5,1.8-0.9,2.7-1.4c0.7-0.4,1-1.3,0.6-2c-0.4-0.7-1.3-1-2-0.6  c-0.9,0.5-1.7,0.9-2.6,1.4c-0.7,0.4-1,1.3-0.6,2C337,164.2,337.5,164.5,338,164.5z"></path><path fill="none" d="M233.6,230.9c-0.2-0.1-0.5-0.1-0.7-0.2c-1.2,3.4-2.1,6.1-2.8,8.6c0.1,0,0.2,0,0.3,0c0.2,0,0.4-0.1,0.7-0.1  c0.3,0,0.5-0.1,0.8-0.1c0.2,0,0.4-0.1,0.6-0.1c0.2-0.1,0.5-0.1,0.7-0.2c0.2,0,0.4-0.1,0.6-0.1c0.2-0.1,0.5-0.1,0.7-0.2  c0.2-0.1,0.4-0.1,0.5-0.2c0.2-0.1,0.4-0.1,0.6-0.2c0.2-0.1,0.3-0.1,0.5-0.2c0.2-0.1,0.4-0.1,0.5-0.2c0.1-0.1,0.3-0.1,0.4-0.2  c0.2-0.1,0.3-0.1,0.5-0.2c0.1-0.1,0.3-0.1,0.4-0.2c0.1-0.1,0.3-0.1,0.4-0.2c0.1-0.1,0.2-0.1,0.3-0.2c0.1-0.1,0.2-0.1,0.3-0.2  c0.1-0.1,0.2-0.1,0.3-0.2c0.1-0.1,0.2-0.1,0.3-0.2c0.1-0.1,0.1-0.1,0.2-0.2c0.1-0.1,0.1-0.1,0.2-0.2c0.1-0.1,0.1-0.1,0.2-0.2  c0.1-0.1,0.1-0.1,0.1-0.2c0-0.1,0.1-0.1,0.1-0.2c0,0,0,0,0-0.1c0.2-0.3,0.1-0.7-0.1-1c0,0,0-0.1-0.1-0.1c0-0.1-0.1-0.1-0.2-0.2  c-0.1-0.1-0.1-0.1-0.2-0.2c-0.1-0.1-0.1-0.1-0.2-0.2c-0.1-0.1-0.2-0.1-0.3-0.2c-0.1-0.1-0.2-0.1-0.3-0.2c-0.1-0.1-0.2-0.1-0.3-0.2  c-0.1-0.1-0.2-0.1-0.3-0.2c-0.1-0.1-0.3-0.1-0.4-0.2c-0.1-0.1-0.2-0.1-0.3-0.2c-0.2-0.1-0.3-0.1-0.5-0.2c-0.1-0.1-0.3-0.1-0.4-0.2  c-0.2-0.1-0.4-0.1-0.5-0.2c-0.1-0.1-0.3-0.1-0.4-0.2c-0.2-0.1-0.4-0.1-0.6-0.2c-0.2,0-0.3-0.1-0.5-0.1c-0.2-0.1-0.4-0.1-0.6-0.2  C234,231,233.8,230.9,233.6,230.9z"></path><path fill="none" d="M239.4,240.7c-0.3,0.2-0.6,0.3-1,0.4c-0.1,0-0.2,0.1-0.3,0.1c-0.4,0.2-0.8,0.3-1.2,0.5c-0.1,0-0.1,0-0.2,0.1  c-0.4,0.1-0.8,0.2-1.1,0.3c-0.1,0-0.2,0.1-0.3,0.1c-0.5,0.1-0.9,0.2-1.4,0.3c-0.1,0-0.1,0-0.2,0c-0.2,0-0.4,0.1-0.6,0.1  c-0.2,0-0.3,0-0.5,0c-7,1.6-14.9,0.6-14.8,0.5c-0.3,0-0.6-0.1-0.9-0.1c0,0,0,0,0,0c-0.5-0.1-1.1-0.2-1.6-0.3c-0.2,0-0.3-0.1-0.5-0.1  c0,0,0,0-0.1,0c-0.2-0.1-0.4-0.1-0.6-0.1c-2.7-0.5-5.1-1.3-7.1-2.3v46.7c0,0,0,0,0,0v1.4c0,0,0,0,0,0v3.7v6.2  c5.4-0.6,9.1-0.7,13.3-1.3c1.1-1.3,1.6-3.1,1.3-4.4c-0.4-1.2-1.3-5.4-5.4-5.4c-1.1,0-2.8,0.2-4.2,0.4v-1.5c1.7-0.2,3.2-0.3,4.4-0.1  c1.8,0.2,5.1,1.4,6.2,5.2c0.4,1.4,0.6,3.6-0.2,5.5c5.9-0.3,11.3-1,18-2.2v-54.5c-0.3,0.2-0.6,0.3-0.9,0.5  C239.6,240.6,239.5,240.7,239.4,240.7z M229.7,265.9c0,2.3-0.2,4.6-1.1,6.7c-0.9,2.1-2.9,3.9-5.2,3.8c-1.3,0-2.6-0.7-3.6-1.6  c-3.6-3.3-3.7-8.9-3.5-13.8c0.2-4.7,0.5-8.8,0.8-12.5c1.7,0.3,3.4,0.4,5.1,0.4c2.4,0,4.7-0.2,6.9-0.5c0,0.2,0,0.4,0,0.5  C229.4,256.2,229.8,260.2,229.7,265.9z"></path><path fill="none" d="M247.8,197.7c-0.1-0.2-0.2-0.3-0.3-0.5c-0.2-0.3-0.4-0.7-0.6-1c-0.1-0.2-0.2-0.4-0.4-0.6  c-0.2-0.3-0.4-0.6-0.5-0.8c-0.1-0.2-0.3-0.4-0.4-0.6c-0.2-0.2-0.3-0.5-0.5-0.7c-0.1-0.2-0.3-0.4-0.4-0.5c-0.2-0.2-0.3-0.4-0.5-0.7  c-0.1-0.2-0.3-0.3-0.4-0.5c-0.2-0.2-0.3-0.4-0.5-0.6c-0.1-0.2-0.3-0.3-0.4-0.4c-0.2-0.2-0.3-0.4-0.5-0.5c-0.1-0.1-0.3-0.3-0.4-0.4  c-0.1-0.2-0.3-0.3-0.4-0.5c-0.1-0.1-0.2-0.2-0.4-0.4c-0.1-0.1-0.3-0.3-0.4-0.4c-0.1-0.1-0.2-0.2-0.3-0.3c-0.1-0.1-0.3-0.2-0.4-0.3  c-0.1-0.1-0.2-0.2-0.3-0.3c-0.1-0.1-0.3-0.2-0.4-0.3c-0.1-0.1-0.2-0.1-0.3-0.2c-0.1-0.1-0.2-0.1-0.3-0.2c-0.1-0.1-0.2-0.1-0.3-0.2  c-0.1-0.1-0.2-0.1-0.3-0.2c-0.1,0-0.2-0.1-0.2-0.1c-0.1,0-0.2-0.1-0.3-0.1c-0.1,0-0.1,0-0.2-0.1c-0.1,0-0.2,0-0.2,0  c-0.1,0-0.1,0-0.2,0c0,0,0,0-0.1,0c-0.4,0-0.7,0.3-0.8,0.6c0,0,0,0.1-0.1,0.1c0,0.1-0.1,0.1-0.1,0.2c0,0.1-0.1,0.2-0.1,0.3  c0,0.1-0.1,0.2-0.1,0.3c0,0.1,0,0.2-0.1,0.4c0,0.1,0,0.2,0,0.3c0,0.1,0,0.3,0,0.4c0,0.1,0,0.2,0,0.4c0,0.1,0,0.3,0,0.5  c0,0.1,0,0.3,0,0.4c0,0.2,0,0.3,0,0.5c0,0.1,0,0.3,0,0.4c0,0.2,0,0.4,0.1,0.6c0,0.2,0,0.3,0.1,0.5c0,0.2,0.1,0.4,0.1,0.6  c0,0.2,0.1,0.3,0.1,0.5c0,0.2,0.1,0.4,0.1,0.6c0,0.2,0.1,0.3,0.1,0.5c0.1,0.2,0.1,0.5,0.2,0.7c0,0.2,0.1,0.4,0.1,0.5  c0.1,0.2,0.1,0.5,0.2,0.7c0.1,0.2,0.1,0.4,0.2,0.6c0.1,0.2,0.2,0.5,0.2,0.8c0.1,0.2,0.1,0.4,0.2,0.6c0.1,0.3,0.2,0.5,0.3,0.8  c0.1,0.2,0.1,0.4,0.2,0.6c0.1,0.3,0.2,0.6,0.3,0.9c0.1,0.2,0.1,0.4,0.2,0.6c0.1,0.3,0.3,0.6,0.4,1c0.1,0.2,0.1,0.3,0.2,0.5  c0.2,0.5,0.5,1,0.7,1.5c0.2,0.3,0.3,0.6,0.5,1c2.7-2,5.5-3.8,8.4-5.5C248.4,198.7,248.1,198.2,247.8,197.7z"></path><path fill="none" d="M245.7,212.7c1.8,1.9,3.5,3.1,4.6,3.4c0.6,0.1,1.4,0.2,1.8-0.6c0,0,1.2-2.3-0.1-7.5  C249.9,209.3,247.8,210.9,245.7,212.7z"></path><path fill="none" d="M240.2,209.4c-2.5,2-4.7,4-6.4,5.9c-0.6,0.6-0.5,1.6,0.1,2.1c0.3,0.3,0.7,0.4,1,0.4c0.4,0,0.8-0.2,1.1-0.5  c1.7-1.8,3.7-3.7,6.1-5.6c0.6-0.5,0.7-1.5,0.2-2.1C241.8,209,240.8,208.9,240.2,209.4z"></path><path d="M313.1,173.2c0.8-0.3,1.6-0.7,2.3-1c0,0,0.1,0,0.1,0c-0.2-4.2-0.5-8.8-2.1-14.6C313.5,162.9,313.3,168.1,313.1,173.2z"></path><path d="M176.1,123.4c-0.1-1.1,0.8-2.1,1.9-2.1l0.8-0.1c2.8-0.2,5.5-0.4,8.1,2c0.2,0.2,0.5,0.5,0.7,0.7c0.1,0.1,0.2,0.3,0.4,0.6  c0.7,1.1,1.6,2.2,3.1,2.2c0,0,0,0,0,0c1,0,1.5-0.6,2.5-2c0.3-0.4,0.5-0.8,0.9-1.2c0.1-0.1,0.2-0.2,0.3-0.4c2-2.1,4-2.1,6.4-2.1  c0.6,0,1.3,0,2.1,0c1.1,0,2,0.8,2.1,1.9c0,1.1-6.9,2.1-7.7,3c-0.2,0.3-0.4,0.6-0.6,0.9c-1,1.5-2.5,3.8-5.8,3.8c0,0,0,0,0,0  c-3.6,0-5.6-2.9-6.3-3.9c-0.1-0.1-0.1-0.2-0.2-0.2C183.2,125,176.2,124.5,176.1,123.4z M172.1,141.2c0-1.8,1.2-3.1,2.9-3.1  c1.2,0,2.6,0.6,4.6,1.4c2.9,1.2,6.8,2.9,11.1,2.9c4.2,0,8.2-1.7,11.1-2.9c1.9-0.8,3.4-1.4,4.6-1.4c1.7,0,2.9,1.2,2.9,3.1  c0,4.6-8.2,16.3-18.5,16.3S172.1,145.8,172.1,141.2z M176.5,142.6c1.5,3.6,7.3,10.9,14.2,10.9c6.9,0,12.7-7.3,14.2-10.9  c-0.5,0.2-1.1,0.4-1.6,0.6c-3,1.3-7.6,3.2-12.6,3.2c-5,0-9.6-1.9-12.6-3.2C177.5,143,177,142.8,176.5,142.6z M229.2,248.9  c0.3,7.3,0.6,11.3,0.6,17c0,2.3-0.2,4.6-1.1,6.7c-0.9,2.1-2.9,3.9-5.2,3.8c-1.3,0-2.6-0.7-3.6-1.6c-3.6-3.3-3.7-8.9-3.5-13.8  c0.2-4.7,0.5-8.8,0.8-12.5c1.7,0.3,3.4,0.4,5.1,0.4c2.4,0,4.7-0.2,6.9-0.5C229.2,248.5,229.2,248.7,229.2,248.9z M224.4,257.5  c0-0.8-0.6-1.5-1.4-1.6c-0.8,0-1.5,0.6-1.6,1.4c-0.1,1-0.1,2-0.2,3c-0.1,0.8,0.6,1.5,1.4,1.6c0,0,0.1,0,0.1,0c0.8,0,1.4-0.6,1.5-1.4  C224.3,259.5,224.3,258.5,224.4,257.5z M357.5,167.4l-26.8,13.5c-0.1,2.6-0.3,6.3-2.5,8.8c-0.8,1-1.8,1.7-2.9,2.1  c-0.8,0.3-1.6,0.4-2.5,0.4c-2.5,0-5-2-6.6-4.1l-0.8,0.4c0,1,0,2,0.1,3.1c0.2,6.5-1.9,12.7-6,15.1c-1.1,0.7-2.4,1-3.8,1  c-1.9,0-3.9-0.7-5.4-2.1c-2.1-1.8-3.2-5.1-3.9-7.5l-0.8,0.4c-0.1,0.6-0.1,1.3-0.1,1.9c-0.2,3.7-0.5,8.9-4.5,11.5  c-1.4,0.9-2.8,1.3-4.2,1.3c-3.3,0-6.2-2.6-7.4-5.4c-0.1-0.3-0.4-0.6-0.6-0.9l-23.3,11.7c-0.2,0.1-3.8,2.2-5.6,1.6  c-2.1-0.7-4.6-2.5-7-5.2c-0.8,0.8-1.7,1.6-2.4,2.4c-2.4,2.5-4.4,5.9-5.9,9.4c4.4,1.1,8.1,2.9,9.4,5.5c0,0,0,0,0,0l0,0c0,0,0,0,0,0  c0,0,0,0,0,0c0.4,0.7,0.6,1.5,0.6,2.2c0,0.1,0,30.1,0,59.7c5.7,0.3,6.2,4.5,6.2,5.8c0,3.8-1.6,6.4-3.6,8.2c5.3,0.1,6.6,3.4,6.8,5.4  c0.4,3.5-1.5,6.5-4.8,9c0.3,0.1,0.5,0.2,0.7,0.3c1.3,0.6,2.2,1.6,2.7,2.9c0.7,2,0.4,4.6-0.8,7c-1.3,2.7-5.1,6.3-7.3,7.7  c0,7,0,10.6,0,10.6c0,11.4-9.2,20.6-20.6,20.6c-11.4,0-20.6-9.2-20.6-20.6l-0.1-3c-2.2-0.2-14.4-2.1-17.4-3.2  c-8.8,11-33.2,4.4-39.3-4.1c-0.4,0-5.2-6.6-10.4-14.1l-13.7,46.5c0,0,33.8,12,82.8,12c46.3,0,77.4-12,77.4-12  c-4.8-15.7-22.9-74.2-23.5-97c-0.6-25.3,5.2-54.9,5.3-55.2c0.3-1.4,1.4-2.5,3.2-3.2c1.3-0.5,0.6-1.2,0,2.9c0,0.3-4.1,30.6-3.5,55.3  c0.6,24.7,22,98.1,22.2,98.9c0.2,0.8,0.1,1.6-0.4,2.2c-0.5,0.6-1.2,1-2,1c0,0-32.4,10.2-80.1,10.2c-49.1,0-82.8-10.2-82.8-10.2  c-0.8,0-1.5-0.4-2-1c-0.5-0.6-0.6-1.4-0.4-2.2l13.8-53.5c-3.5-5-6.8-9.7-8.9-12.7c-10.7-15-17.9-27.9-29.2-52.6  c-1-2.3-2.2-4.8-2.4-7.7c-0.5-7.2,2.9-15.8,11.8-30c1.4-2.2,2.9-4.6,4.4-7.1c4.3-6.9,9-14.3,12.7-20.1c-9.7,0.4-19-2.4-24.7-7.9  c-16.1-15.6-7-35.9-3.1-37.2c6.2-2.1,12.7,11,24,4.2c18.8-11.4-9.5-32.2-7.4-71.2C112.3,27.9,149.3,0,190,13.9  c2.7,0.9,5.4,0.3,8-0.7c25.4-8.7,61.2-0.1,76.8,35.1c17.2,38.9-3.5,80.7-17.4,105.2c3-0.1,8.6-1,11.9-1c2.8,0,3.2,1.1,2.6,2.4  c-0.8,1.7-30.8,3.1-37,3.3c0,0-0.1,0-0.1,0c0,0,0,0-0.1,0c-1.5,16-10,37.6-17.4,51.2c-0.4,0.7-1.1,1.2-2,1.3c-0.1,0-0.1,0-0.2,0  c-0.8,0-1.5-0.4-2-1c-2.4-3.1-4.9-8.4-7.1-13.8c-4.2,3.4-8.2,4.7-11.8,4.7c-5.1,0-9.3-2.5-11.8-5.1c-0.1,0.3-0.3,0.7-0.4,0.9  c-5.5,14.2-6.3,14.2-8,14.2c-0.6,0-1.1-0.2-1.6-0.5c-7.9-6.1-16.3-20.5-19.6-36.6c-5.8,9.8-15.5,15.4-25.7,17.3  c-4,6.2-9.8,15.2-14.9,23.5c-1.6,2.5-3,4.9-4.4,7.1c-8.1,12.9-13.5,21.5-13.1,27c0.1,2,1.1,4,2,6c11.1,24.2,19.7,36.4,30.7,51.7  c5,6.9,10.4,14.6,16.7,24.3c0.2-0.7,0.5-1.5,0.9-2.3c0.5-1,1.1-2.6,1.9-4.3c4.6-10.7,12.5-29.4,22.9-31.4  c-28.8-28.4-37.5-38.4-37.1-42.5c0.9-8.5,15.6-24.1,17.4-26.1c0.4-0.5,1-0.8,1.7-0.8c0.1,0,0.1,0,0.2,0c0,0,0,0,0.1,0  c0.1,0,0.1,0,0.2,0c0.1,0,0.2,0,0.3,0c0.1,0,0.2,0,0.2,0.1c0.1,0,0.1,0,0.2,0.1c0.1,0,0.2,0.1,0.2,0.1c0.1,0,0.1,0.1,0.2,0.1  c0.1,0.1,0.1,0.1,0.2,0.2c0,0,0.1,0.1,0.1,0.1c0,0,0,0,0,0c0.1,0.1,0.1,0.1,0.2,0.2c0,0.1,0.1,0.1,0.1,0.2c0,0.1,0.1,0.1,0.1,0.2  c0,0.1,0.1,0.1,0.1,0.2c0,0.1,0.1,0.2,0.1,0.2c0,0.1,0,0.2,0.1,0.2c0,0.1,0,0.2,0,0.2c0,0.1,0,0.2,0,0.3c0,0,0,0,0,0.1l-1,43.3  c8.3,8.6,17.8,17.9,23,23c2,2,2.8,2.8,3.7,3.6c1.3,0,3,0,3.8-0.1c2-1.7,7.4-5.6,10.7-6.1c2.9-0.4,5.7-1,8.4-1.6v-51  c0-0.2-0.3-4.3,1.1-5.8c3-3,10-5.2,18.3-5.3c0.8-1.8,1.7-3.7,2.8-5.7c2.5-4.7,6.8-9.1,11.8-13.1c-0.3-0.5-0.6-1-0.8-1.6  c-3.8-7.5-6.2-16.9-3.2-21.1c0,0,0,0,0,0c0,0,0,0,0,0l0,0l0,0c0.5-0.7,1-1.2,1.7-1.5c0.1,0,18.6-9.4,40-20.1  c0.2-9,0.1-16.3,0.2-17.6c0.8-7.1,7.4-10.8,12.1-10.8c1.4,0,2.7,0.4,3.8,1.1c0.1,0.1,0.5,0,0.7-0.3c2.7-5.6,7.2-7.5,11.5-7.5  c1.2,0,2.3,0.2,3.4,0.6c0.8,0.3,1.8,0.1,2.4-0.5c3.4-3.3,6.9-4.9,10-4.9c1.9,0,5.3,0,7.4,3c1.3,2,1.8,4.2,2.7,9.8  c6.2-3.1,10.1-5.1,10.1-5.1c10.2-5.1,22.6-1,27.7,9.1C371.8,149.9,367.7,162.3,357.5,167.4z M151.5,226.4c-5.3,6.2-13,20-13.6,24  c0.6,2,5,7.2,10.9,13.5L151.5,226.4z M185.3,176.8c-13.9-5.9-24-10.7-28.4-13c-0.1,0.3-0.1,0.6-0.2,1c0,0.1-0.1,0.2-0.1,0.3  c-0.4,10,2.5,27.3,17.5,42.7c1.2-2.6,4.3-11.1,6.2-16.2C183.4,183.4,185.1,178.6,185.3,176.8z M230.8,158.8  c-5.5,3.8-13.5,9.7-18.7,13.1c-2.5,1.6-6.9,5.4-8.3,6.3c1.3,4.4,7,22.2,11.2,29.8C220.9,196.3,230.3,176.3,230.8,158.8z M154.5,90.8  c0,7.4,6,13.5,13.5,13.5c7.4,0,13.5-6,13.5-13.5c0-6-4-11.1-9.5-12.9c-4.8,3.8-10.5,7.1-17.1,9.8C154.6,88.8,154.5,89.8,154.5,90.8z   M138.8,105.3c0.6,21.9,22.7,31.8,18.7,55.5c4.5,2.5,16.9,8.1,28.3,12.9c1,0.3,2.4,1.3,2.1,4.4c-0.3,3.2-2.3,9.2-4,13.9  c2.2,2.3,10.6,10,20.9,0.2c-2.8-7.5-4.8-14.4-4.8-15.3c0.1-1.5,0.1-1.5,9.1-7.3c5.8-3.7,13.3-8.6,19-12.6c-3.1-1.2-4.9-5.1-2.7-8.4  c9.9-15.3,20.1-32.8,22.1-48c0.5-3.6,0.2-11.5-0.7-15c-5.4-20.1-23.3-32.1-39-34.7c-7.3-1.2-14-4-17,2.8  c-3.3,7.4-7.8,14.1-13.7,19.9c5.4,2.8,9.2,8,10.2,14.2h10.6c1.5-9.3,9.5-16.5,19.2-16.5s17.8,7.2,19.2,16.5h5.1c1.7,0,3,1.3,3,3  s-1.3,3-3,3h-5.1c-1.5,9.3-9.5,16.5-19.2,16.5s-17.8-7.2-19.2-16.5h-10.6c-1.5,9.3-9.5,16.5-19.2,16.5s-17.8-7.2-19.2-16.5h-6.1  C140.3,97.1,138.7,102.1,138.8,105.3z M217,104.3c7.4,0,13.5-6,13.5-13.5c0-7.4-6-13.5-13.5-13.5s-13.5,6-13.5,13.5  C203.5,98.2,209.5,104.3,217,104.3z M223,240.3l3.1-0.2c0.6-3.3,1.2-5.6,2.1-8.6c0.3-0.8-0.2-1.6-1-1.9c-0.8-0.3-1.6,0.2-1.9,1  C224.3,233.7,223.5,236.9,223,240.3z M207.7,235.5c0,0,2.3,3,10.7,3.9c0.6-3.4,1.5-6.5,2.6-9.6c-0.1,0-0.2,0-0.4,0  c-0.2,0-0.5,0-0.7,0.1c-0.2,0-0.4,0-0.6,0c-5.6,0.5-10.1,2.2-11.4,3.7C207.6,234.2,207.2,234.9,207.7,235.5z M240.5,342.9  c-12.4,6.8-31.9,5.9-33.5,5.8v2.6c0,9.2,7.5,16.7,16.7,16.7c9.2,0,16.7-7.5,16.7-16.7V342.9z M238.4,297.8  c-9.1,1.2-32.3,3.4-32.4,3.4c-0.4,0-12.2,0.8-5.9-1.6c1.1-0.3,2.2-0.6,3.2-0.7v-5.5v-3.8c-1.4,0.3-2.8,0.6-4.1,1  c-3.1,0.8-6.2,1.9-8.6,3.9c-1.8,1.6-3.5,3.7-5.6,4.4c-0.5,0-1-0.1-1.5-0.1c-3.1-0.2-6.1-0.2-8.5,0.2c-0.3,0.1-0.6,0.1-0.9,0.2l0,0  c0,0,0,0,0,0c-0.4,0.1-0.7,0.2-1,0.3c-0.1,0-0.2,0.1-0.3,0.1c-0.3,0.1-0.6,0.2-0.9,0.4l0,0c0,0,0,0,0,0c0,0-0.1,0-0.1,0  c-4.8,2.4-9.6,3.3-13,15.3c-3.4,12-2.4,14.3-2.4,14.3c2.8,2,15.5,7.4,27.5,11.1c0.2,0.1,0.4,0.1,0.6,0.2c0.4,0.1,0.9,0.3,1.3,0.4  c4.1,1.2,8.1,2.2,11.4,2.8c17.8,3,36.4-0.1,44.4-4.8c1.9-1.1,6.7-4.5,8-7c1.2-2.5,1.4-5.7-0.7-6.6c-2.1-0.9-5.9,0.6-11.9,2.2  c-5.3,1.4-12.4,2.1-20.1,3.2c16.2-2.5,35.7-8.1,34.6-16.6c-0.7-5.9-10.3-2.2-18.9-0.3c-6,1.4-12.5,2-20.1,2.6  c7.6-1.6,17.6-3.7,25.6-6.3c2.7-0.8,10.1-2.6,10.1-9.9C248.2,295.7,240.8,297.4,238.4,297.8z M240.5,240.1c-0.3,0.2-0.6,0.3-0.9,0.5  c-0.1,0-0.1,0.1-0.2,0.1c-0.3,0.2-0.6,0.3-1,0.4c-0.1,0-0.2,0.1-0.3,0.1c-0.4,0.2-0.8,0.3-1.2,0.5c-0.1,0-0.1,0-0.2,0.1  c-0.4,0.1-0.8,0.2-1.1,0.3c-0.1,0-0.2,0.1-0.3,0.1c-0.5,0.1-0.9,0.2-1.4,0.3c-0.1,0-0.1,0-0.2,0c-0.2,0-0.4,0.1-0.6,0.1  c-0.2,0-0.3,0-0.5,0c-7,1.6-14.9,0.6-14.8,0.5c-0.3,0-0.6-0.1-0.9-0.1c0,0,0,0,0,0c-0.5-0.1-1.1-0.2-1.6-0.3c-0.2,0-0.3-0.1-0.5-0.1  c0,0,0,0-0.1,0c-0.2-0.1-0.4-0.1-0.6-0.1c-2.7-0.5-5.1-1.3-7.1-2.3v46.7c0,0,0,0,0,0v1.4c0,0,0,0,0,0v3.7v6.2  c5.4-0.6,9.1-0.7,13.3-1.3c1.1-1.3,1.6-3.1,1.3-4.4c-0.4-1.2-1.3-5.4-5.4-5.4c-1.1,0-2.8,0.2-4.2,0.4v-1.5c1.7-0.2,3.2-0.3,4.4-0.1  c1.8,0.2,5.1,1.4,6.2,5.2c0.4,1.4,0.6,3.6-0.2,5.5c5.9-0.3,11.3-1,18-2.2V240.1z M234.1,231c-0.2,0-0.3-0.1-0.5-0.1  c-0.2-0.1-0.5-0.1-0.7-0.2c-1.2,3.4-2.1,6.1-2.8,8.6c0.1,0,0.2,0,0.3,0c0.2,0,0.4-0.1,0.7-0.1c0.3,0,0.5-0.1,0.8-0.1  c0.2,0,0.4-0.1,0.6-0.1c0.2-0.1,0.5-0.1,0.7-0.2c0.2,0,0.4-0.1,0.6-0.1c0.2-0.1,0.5-0.1,0.7-0.2c0.2-0.1,0.4-0.1,0.5-0.2  c0.2-0.1,0.4-0.1,0.6-0.2c0.2-0.1,0.3-0.1,0.5-0.2c0.2-0.1,0.4-0.1,0.5-0.2c0.1-0.1,0.3-0.1,0.4-0.2c0.2-0.1,0.3-0.1,0.5-0.2  c0.1-0.1,0.3-0.1,0.4-0.2c0.1-0.1,0.3-0.1,0.4-0.2c0.1-0.1,0.2-0.1,0.3-0.2c0.1-0.1,0.2-0.1,0.3-0.2c0.1-0.1,0.2-0.1,0.3-0.2  c0.1-0.1,0.2-0.1,0.3-0.2c0.1-0.1,0.1-0.1,0.2-0.2c0.1-0.1,0.1-0.1,0.2-0.2c0.1-0.1,0.1-0.1,0.2-0.2c0.1-0.1,0.1-0.1,0.1-0.2  c0-0.1,0.1-0.1,0.1-0.2c0,0,0,0,0-0.1c0.2-0.3,0.1-0.7-0.1-1c0,0,0-0.1-0.1-0.1c0-0.1-0.1-0.1-0.2-0.2c-0.1-0.1-0.1-0.1-0.2-0.2  c-0.1-0.1-0.1-0.1-0.2-0.2c-0.1-0.1-0.2-0.1-0.3-0.2c-0.1-0.1-0.2-0.1-0.3-0.2c-0.1-0.1-0.2-0.1-0.3-0.2c-0.1-0.1-0.2-0.1-0.3-0.2  c-0.1-0.1-0.3-0.1-0.4-0.2c-0.1-0.1-0.2-0.1-0.3-0.2c-0.2-0.1-0.3-0.1-0.5-0.2c-0.1-0.1-0.3-0.1-0.4-0.2c-0.2-0.1-0.4-0.1-0.5-0.2  c-0.1-0.1-0.3-0.1-0.4-0.2c-0.2-0.1-0.4-0.1-0.6-0.2c-0.2,0-0.3-0.1-0.5-0.1C234.6,231.1,234.4,231.1,234.1,231z M242.3,209.6  c-0.5-0.6-1.5-0.7-2.1-0.2c-2.5,2-4.7,4-6.4,5.9c-0.6,0.6-0.5,1.6,0.1,2.1c0.3,0.3,0.7,0.4,1,0.4c0.4,0,0.8-0.2,1.1-0.5  c1.7-1.8,3.7-3.7,6.1-5.6C242.7,211.2,242.8,210.3,242.3,209.6z M248.6,199.3c-0.3-0.5-0.5-1.1-0.8-1.6c-0.1-0.2-0.2-0.3-0.3-0.5  c-0.2-0.3-0.4-0.7-0.6-1c-0.1-0.2-0.2-0.4-0.4-0.6c-0.2-0.3-0.4-0.6-0.5-0.8c-0.1-0.2-0.3-0.4-0.4-0.6c-0.2-0.2-0.3-0.5-0.5-0.7  c-0.1-0.2-0.3-0.4-0.4-0.5c-0.2-0.2-0.3-0.4-0.5-0.7c-0.1-0.2-0.3-0.3-0.4-0.5c-0.2-0.2-0.3-0.4-0.5-0.6c-0.1-0.2-0.3-0.3-0.4-0.4  c-0.2-0.2-0.3-0.4-0.5-0.5c-0.1-0.1-0.3-0.3-0.4-0.4c-0.1-0.2-0.3-0.3-0.4-0.5c-0.1-0.1-0.2-0.2-0.4-0.4c-0.1-0.1-0.3-0.3-0.4-0.4  c-0.1-0.1-0.2-0.2-0.3-0.3c-0.1-0.1-0.3-0.2-0.4-0.3c-0.1-0.1-0.2-0.2-0.3-0.3c-0.1-0.1-0.3-0.2-0.4-0.3c-0.1-0.1-0.2-0.1-0.3-0.2  c-0.1-0.1-0.2-0.1-0.3-0.2c-0.1-0.1-0.2-0.1-0.3-0.2c-0.1-0.1-0.2-0.1-0.3-0.2c-0.1,0-0.2-0.1-0.2-0.1c-0.1,0-0.2-0.1-0.3-0.1  c-0.1,0-0.1,0-0.2-0.1c-0.1,0-0.2,0-0.2,0c-0.1,0-0.1,0-0.2,0c0,0,0,0-0.1,0c-0.4,0-0.7,0.3-0.8,0.6c0,0,0,0.1-0.1,0.1  c0,0.1-0.1,0.1-0.1,0.2c0,0.1-0.1,0.2-0.1,0.3c0,0.1-0.1,0.2-0.1,0.3c0,0.1,0,0.2-0.1,0.4c0,0.1,0,0.2,0,0.3c0,0.1,0,0.3,0,0.4  c0,0.1,0,0.2,0,0.4c0,0.1,0,0.3,0,0.5c0,0.1,0,0.3,0,0.4c0,0.2,0,0.3,0,0.5c0,0.1,0,0.3,0,0.4c0,0.2,0,0.4,0.1,0.6  c0,0.2,0,0.3,0.1,0.5c0,0.2,0.1,0.4,0.1,0.6c0,0.2,0.1,0.3,0.1,0.5c0,0.2,0.1,0.4,0.1,0.6c0,0.2,0.1,0.3,0.1,0.5  c0.1,0.2,0.1,0.5,0.2,0.7c0,0.2,0.1,0.4,0.1,0.5c0.1,0.2,0.1,0.5,0.2,0.7c0.1,0.2,0.1,0.4,0.2,0.6c0.1,0.2,0.2,0.5,0.2,0.8  c0.1,0.2,0.1,0.4,0.2,0.6c0.1,0.3,0.2,0.5,0.3,0.8c0.1,0.2,0.1,0.4,0.2,0.6c0.1,0.3,0.2,0.6,0.3,0.9c0.1,0.2,0.1,0.4,0.2,0.6  c0.1,0.3,0.3,0.6,0.4,1c0.1,0.2,0.1,0.3,0.2,0.5c0.2,0.5,0.5,1,0.7,1.5c0.2,0.3,0.3,0.6,0.5,1C243,202.9,245.8,201,248.6,199.3z   M252,207.9c-2.1,1.4-4.2,3-6.2,4.8c1.8,1.9,3.5,3.1,4.6,3.4c0.6,0.1,1.4,0.2,1.8-0.6C252.1,215.4,253.2,213.1,252,207.9z   M277.3,203.5c-0.6-2-1-4.5-1.4-7.4c-6.9,3.1-12.8,5.8-16,7.3c-0.5-1.4-1.1-2.9-2-4.8c-0.5-1.1-1.1-2.4-1.7-3.6c0,0,0,0,0,0  c5.1-2.7,9.9-5.1,13.7-7c0.6-0.3,2.5-1.2,5.1-2.4c-0.3-6-0.4-12.4-0.3-18.3L241.4,184c0.3,0.2,0.6,0.4,0.8,0.6  c0.1,0,0.1,0.1,0.2,0.1c0.3,0.2,0.6,0.4,0.8,0.7c0.1,0.1,0.2,0.1,0.2,0.2c0.3,0.3,0.6,0.6,1,0.9c0.1,0.1,0.1,0.1,0.2,0.2  c0.3,0.3,0.6,0.6,0.8,0.9c0.1,0.1,0.2,0.2,0.2,0.3c0.3,0.4,0.6,0.7,0.9,1.1c0,0.1,0.1,0.1,0.1,0.2c0.3,0.3,0.5,0.7,0.8,1  c0.1,0.1,0.1,0.2,0.2,0.3c0.3,0.4,0.6,0.8,0.9,1.2c0,0,0.1,0.1,0.1,0.1c0.3,0.4,0.5,0.8,0.8,1.2c0.1,0.1,0.1,0.2,0.2,0.3  c0.3,0.4,0.5,0.9,0.8,1.3c0,0,0,0.1,0,0.1c0.1,0.1,0.1,0.2,0.2,0.3c0.3,0.7,0.7,1.4,1,2.1c0.6,1.2,1.2,2.4,1.7,3.5  c0.9,2,1.6,3.6,2.1,5c0,0,0,0-0.1,0c0.8,2.9,1.4,5.7,1.3,8.1l3-1.5c0,0,0,0,0.1,0c0.4-0.1,0.8-0.3,1.2-0.6L277.3,203.5z M269.7,194  c-0.4-0.7-1.3-1.1-2-0.7c-1.8,0.9-4.2,2-6.6,3.2c-0.7,0.4-1,1.3-0.7,2c0.3,0.5,0.8,0.8,1.3,0.8c0.2,0,0.5-0.1,0.7-0.2  c2.4-1.2,4.7-2.3,6.5-3.2C269.7,195.6,270,194.7,269.7,194z M328.2,179.2c-0.2-15.6,0.3-48.4-4.9-51.4c-4.2-2.4-7.6-1.9-12.3,2.6  c-1.4,1.3-3.4,1.8-5.1,1.1c-3.9-1.6-8.9,1-11.8,5.8c-0.9,1.4-2.8,2-4.2,1.1c-3.3-2.2-10.5,1.4-11.7,7.7c-1,5.1-2.6,53.8,3,60.4  c2.9,3.4,5.4,4.5,8.4,2.6c3.9-2.5,3.1-7.1,3.6-11.7c1.1-8.9,1.7-24.6,1.5-33.5c1.8,8.1,2,22.9,3.5,31.1c0.5,2.9,1.3,6,3.6,8  c1.7,1.5,4.2,1.9,6.2,0.8c2.7-1.6,5.1-5.5,4.9-11.9c-0.2-5.3-0.1-10.3,0-15.3c0.9-0.4,1.8-0.8,2.7-1.2c0.2,3,0.4,5.9,1.2,8.9  c0.8,3.1,4.1,5.8,7.3,4.6c0.7-0.3,1.4-0.8,1.9-1.4C328.2,185.1,328.2,182.1,328.2,179.2z M363.2,141.5c-4.1-8.2-14.2-11.6-22.5-7.4  l-11.3,5.7c0.6,5.6,0.9,12.8,1.1,21.8c5.4-2.4,10.1-4.9,15.1-8.3c5-3.4,6.8-5.1,9-1.3c0.8,4.9-2.9,7.6-5.3,9.2  c-6.4,4-12.3,7.1-18.7,10.1c0,0.6,0,1.2,0,1.8c0,1.2,0,2.4,0,3.5l25.1-12.6C364,159.8,367.3,149.7,363.2,141.5z M336.7,163.7  c0.3,0.5,0.8,0.8,1.3,0.8c0.2,0,0.5-0.1,0.7-0.2c0.9-0.5,1.8-0.9,2.7-1.4c0.7-0.4,1-1.3,0.6-2c-0.4-0.7-1.3-1-2-0.6  c-0.9,0.5-1.7,0.9-2.6,1.4C336.6,162,336.3,163,336.7,163.7z"></path></svg>