<svg height='300px' width='300px'  fill="#000000" xmlns="http://www.w3.org/2000/svg" xmlns:xlink="http://www.w3.org/1999/xlink" version="1.1" x="0px" y="0px" viewBox="0 0 100 100" style="enable-background:new 0 0 100 100;" xml:space="preserve"><path d="M10.887,90h78c0.553,0,1-0.448,1-1s-0.447-1-1-1h-4.25V40.958c0-0.552-0.447-1-1-1H70.974V34.5  c0-0.357-0.191-0.688-0.501-0.867L51.012,22.422v-3.797h8.375c0.553,0,1-0.448,1-1V11c0-0.552-0.447-1-1-1h-9.375  c-0.553,0-1,0.448-1,1v11.419L29.305,33.631c-0.312,0.178-0.506,0.51-0.506,0.869v5.457H16.137c-0.553,0-1,0.448-1,1V88h-4.25  c-0.553,0-1,0.448-1,1S10.334,90,10.887,90z M60.136,88h-9.124V66.834h9.124V88z M49.012,88h-9.375V66.834h9.375V88z M58.387,16.625  h-7.375V12h7.375V16.625z M17.137,41.958h12.662c0.553,0,1-0.448,1-1v-5.875l19.21-10.929l18.965,10.926v5.879c0,0.552,0.447,1,1,1  h12.663V88H62.136V65.834c0-0.552-0.447-1-1-1H38.637c-0.553,0-1,0.448-1,1V88h-20.5V41.958z"></path><path d="M32.22,64.847h-8.873c-0.553,0-1,0.448-1,1v9.244c0,0.552,0.447,1,1,1h8.873c0.553,0,1-0.448,1-1v-9.244  C33.22,65.295,32.772,64.847,32.22,64.847z M31.22,74.091h-6.873v-7.244h6.873V74.091z"></path><path d="M67.681,76.091h8.872c0.553,0,1-0.448,1-1v-9.244c0-0.552-0.447-1-1-1h-8.872c-0.553,0-1,0.448-1,1v9.244  C66.681,75.643,67.128,76.091,67.681,76.091z M68.681,66.847h6.872v7.244h-6.872V66.847z"></path><path d="M49.887,54.097c5.337,0,9.679-4.342,9.679-9.679c0-5.337-4.342-9.68-9.679-9.68s-9.68,4.342-9.68,9.68  C40.207,49.754,44.55,54.097,49.887,54.097z M49.887,36.738c4.234,0,7.679,3.445,7.679,7.68s-3.444,7.679-7.679,7.679  s-7.68-3.445-7.68-7.679S45.652,36.738,49.887,36.738z"></path><path d="M50,45.873h4.699c0.553,0,1-0.448,1-1s-0.447-1-1-1H51v-3.998c0-0.552-0.447-1-1-1s-1,0.448-1,1v4.998  C49,45.425,49.447,45.873,50,45.873z"></path></svg>