<svg height='300px' width='300px'  fill="#000000" xmlns="http://www.w3.org/2000/svg" xmlns:xlink="http://www.w3.org/1999/xlink" version="1.1" x="0px" y="0px" viewBox="0 0 512 512" style="enable-background:new 0 0 512 512;" xml:space="preserve"><title>Bot service</title><g><path d="M429.6,257.7c24.9-47.6,23.5-104.7-3.7-151c-26.8-46-74.3-74.7-127.1-76.6c-1.4-0.1-2.9-0.1-4.3-0.1h-0.1   c-89.6-1-164.1,68.8-169.1,158.2c-0.2,2.8-0.2,26.7-0.3,32.8l-30.6,80.1c-2.6,6.8,0.8,14.4,7.6,17c1.5,0.6,3.1,0.9,4.7,0.9h41.6   v42.1h-26.1v-11.1c0-3.3-2.7-6-6-6H85.7c-11.6,0-21,9.4-21,21v4.2c0,11.6,9.4,21,21,21h30.6c3.3,0,6-2.7,6-6v-11.1H149   c3.6,20.5,21.7,35.3,42.5,34.7c1.9-0.1,18.6-0.2,47-0.3h0.1c7.6,0,14.3,5,16.5,12.3v56c0,3.3,2.7,6,6,6h144.1c3.3,0,6-2.7,6-6   c0-0.1,0-0.2,0-0.3c-0.1-1-5.6-99.2,0-159.2C412.7,300.2,428.2,261.3,429.6,257.7z M110.2,378.3H85.7c-5,0-9-4-9-9v-4.2   c0-5,4-9,9-9h24.6V378.3z M300.4,42.2c47.9,2.4,90.8,28.6,115.2,70.5c0.2,0.3,0.4,0.7,0.6,1h-66.8c-27,0-49-21.9-49-49V42.2z    M186,84.2c9.6-9,20.3-16.8,31.8-23.1v25.3c0,22.2-18,40.2-40.2,40.2h-23.5C162.3,110.7,173.1,96.4,186,84.2z M137.1,222.2   c0-11.8,0.1-31.2,0.2-33.2c0.2-3.7,0.5-7.4,1-11.1h27.2c12.6,0,22.7,10.2,22.7,22.7s-10.2,22.7-22.7,22.7h-28.6   C137,223,137.1,222.6,137.1,222.2z M160.4,361.2v-48.1c0-3.3-2.7-6-6-6c0,0,0,0,0,0v0h-47.6c-0.7,0-1.2-0.5-1.2-1.2   c0-0.1,0-0.3,0.1-0.4l26.8-70.1h33c19.2,0,34.7-15.6,34.7-34.8c0-19.2-15.6-34.7-34.7-34.7h-25.2c1.9-9.3,4.7-18.5,8.3-27.3h29.1   c28.8,0,52.2-23.4,52.2-52.2c0,0,0,0,0,0V55.1c18.5-8.1,38.3-12.6,58.5-13.1v22.7c0,33.7,27.3,61,61,61c0,0,0,0,0,0h72.9   c8.7,18.9,13.1,39.5,13,60.4l-71.2,17.7c-33.6-33.4-87.9-33.2-121.3,0.4c-33.4,33.6-33.2,87.9,0.4,121.3   c5.6,5.5,11.9,10.3,18.8,14.1c-17.2,14-38.7,21.7-60.9,21.6H160.4z M303.7,258.6L303.7,258.6c-3.3,0-6,2.7-6,6   c0,6.2-0.6,12.4-1.8,18.4c-10.2-4.3-15-16-10.7-26.2c4.3-10.2,16-15,26.2-10.7c10.2,4.3,15,16,10.7,26.2c-2.5,6-7.8,10.4-14.2,11.8   c1.2-6.4,1.8-13,1.8-19.5C309.7,261.3,307,258.6,303.7,258.6z M304.8,296.6c17.6-0.7,31.4-15.5,30.7-33.2   c-0.7-17.6-15.5-31.4-33.2-30.7c-17.6,0.7-31.4,15.5-30.7,33.2c0.5,13,8.9,24.5,21.2,28.9c-4.4,13.5-11.8,25.8-21.6,36.2   c-36.6-17.9-51.7-62.1-33.8-98.7c17.9-36.6,62.1-51.7,98.7-33.8c36.6,17.9,51.7,62.1,33.8,98.7c-12.4,25.3-38.1,41.3-66.3,41.3l0,0   c-6.9,0-13.8-1-20.4-2.9C293.1,324.2,300.4,310.9,304.8,296.6z M238.7,395.7h-0.2c-29.4,0.1-45.3,0.2-47.4,0.3   c-14.1,0.4-26.5-9.1-29.9-22.7h39.8c26.9,0,52.9-10,72.8-28.1c6.5,2.4,13.3,4,20.2,4.8C288.9,376.4,265.7,395.5,238.7,395.7z    M300.7,470h-33.6v-50.8c0-0.5-0.1-1-0.2-1.5c-1.3-5-3.8-9.6-7.4-13.3c18.2-5.8,33.1-18.9,41.2-36.1V402   c-11.5,3.3-18.1,15.3-14.8,26.8c2.1,7.2,7.7,12.8,14.8,14.8V470z M297,422.9C297,422.9,297,422.9,297,422.9c0-5.3,4.3-9.7,9.7-9.7   v0c5.3,0,9.7,4.3,9.7,9.7c0,5.3-4.3,9.7-9.7,9.7C301.3,432.5,297,428.2,297,422.9z M357.6,470h-45v-26.3   c11.5-3.3,18.1-15.3,14.8-26.8c-2.1-7.2-7.7-12.8-14.8-14.8v-52.1c16.5-1.7,32.1-8.2,45-18.7v41.6c-11.5,3.3-18.1,15.3-14.8,26.8   c2.1,7.2,7.7,12.8,14.8,14.8V470z M363.6,403.3c-5.3,0-9.7-4.3-9.7-9.7c0-5.3,4.3-9.7,9.7-9.7c5.3,0,9.7,4.3,9.7,9.7c0,0,0,0,0,0   C373.3,399,369,403.3,363.6,403.3L363.6,403.3z M399.2,315.3c-4.8,52-1.5,131.7-0.3,154.7h-29.2v-55.6   c11.5-3.3,18.1-15.3,14.8-26.8c-2.1-7.2-7.7-12.8-14.8-14.8v-53.4c25.2-30.2,26.5-73.7,3.2-105.4l61.9-15.4   c-1.7,18.8-7.1,37.1-15.9,53.8c-0.1,0.2-0.2,0.3-0.2,0.5C417.9,254.7,400.9,296.7,399.2,315.3z"></path><path d="M325.1,320.9c1.6-0.6,3.2-1.3,4.7-2c5.1-2.5,9.9-5.7,14.1-9.5c2.5-2.2,2.7-6,0.5-8.5s-6-2.7-8.5-0.5c0,0,0,0-0.1,0.1h0   c-3.4,3-7.2,5.6-11.3,7.6c-1.2,0.6-2.5,1.1-3.8,1.6c-3.1,1.2-4.6,4.6-3.5,7.7C318.5,320.5,322,322.1,325.1,320.9z"></path><path d="M347.1,243.7c2.6,5.4,4.2,11.1,4.6,17.1c0.2,3.1,2.8,5.5,6,5.5c0.2,0,0.3,0,0.5,0c3.3-0.3,5.8-3.2,5.5-6.5   c-0.6-7.4-2.6-14.6-5.8-21.3c-1.4-3-5-4.3-8-2.9c-3,1.4-4.3,5-2.9,8C347,243.6,347,243.7,347.1,243.7z"></path><path d="M257.2,251.7L257.2,251.7c1.6-5.7,4.2-11.1,7.8-15.9c2-2.7,1.4-6.4-1.2-8.4c-2.7-2-6.4-1.4-8.4,1.2   c-4.4,6-7.7,12.7-9.7,19.8c-0.9,3.2,1,6.5,4.2,7.4C253,256.8,256.3,254.9,257.2,251.7z"></path><path d="M324.7,208.2L324.7,208.2c-6.7-2.5-13.9-3.8-21.1-3.8h-0.7c-3.3,0-6,2.8-5.9,6.1s2.8,6,6.1,5.9h0.6c5.8,0,11.5,1,16.9,3   c3.1,1.2,6.6-0.4,7.7-3.5S327.8,209.4,324.7,208.2z"></path><path d="M265.2,293.7c-2-2.6-5.8-3.2-8.4-1.2c-2.6,2-3.2,5.8-1.2,8.4c4.5,5.9,10,11,16.3,14.9c2.8,1.8,6.5,0.9,8.3-1.9   c1.8-2.8,0.9-6.5-1.9-8.3c0,0-0.1,0-0.1,0C273.2,302.5,268.8,298.4,265.2,293.7z"></path></g></svg>