<svg height='300px' width='300px'  fill="#000000" xmlns="http://www.w3.org/2000/svg" xmlns:xlink="http://www.w3.org/1999/xlink" version="1.1" x="0px" y="0px" viewBox="0 0 100 100" enable-background="new 0 0 100 100" xml:space="preserve"><path d="M85.382,42.082l-1.375-2.949c0.842-1.998,2.188-6.499-0.069-11.338c-2.257-4.841-6.57-6.703-8.641-7.341l-1.375-2.949  c-0.168-0.361-0.473-0.64-0.846-0.776c-0.374-0.135-0.787-0.118-1.147,0.05l-10.378,4.84c-0.751,0.35-1.076,1.243-0.726,1.993  l0.767,1.645L36.454,36.979c-0.751,0.35-1.076,1.243-0.726,1.993l0.513,1.1L14.377,50.266c-0.361,0.168-0.64,0.473-0.776,0.846  c-0.136,0.374-0.118,0.787,0.05,1.147l6.367,13.652c0.254,0.546,0.795,0.867,1.36,0.867c0.212,0,0.428-0.045,0.633-0.141  l21.862-10.194l0.513,1.1c0.168,0.361,0.473,0.64,0.846,0.776c0.166,0.06,0.34,0.09,0.513,0.09c0.217,0,0.434-0.047,0.634-0.141  l3.247-1.514L35.195,81.752c-0.415,0.717-0.168,1.635,0.549,2.049c0.236,0.137,0.494,0.202,0.749,0.202c0.519,0,1.023-0.27,1.3-0.75  l14.012-24.27v23.52c0,0.829,0.671,1.5,1.5,1.5s1.5-0.671,1.5-1.5v-23.52l14.012,24.27c0.278,0.481,0.782,0.75,1.3,0.75  c0.254,0,0.512-0.065,0.749-0.202c0.717-0.414,0.963-1.332,0.549-2.049l-15.992-27.7l16.098-7.507l0.767,1.645  c0.168,0.361,0.473,0.64,0.846,0.776c0.166,0.06,0.34,0.09,0.513,0.09c0.217,0,0.434-0.047,0.634-0.141l10.378-4.84  C85.408,43.725,85.732,42.833,85.382,42.082z M22.104,63.284l-5.099-10.934l20.503-9.561l5.099,10.934L22.104,63.284z   M46.472,54.915l-7.392-15.851l23.778-11.089l7.392,15.852L46.472,54.915z M74.371,45.562l-0.767-1.644v0l-1.458-3.128  l-7.968-17.087l7.659-3.572L82.03,41.99L74.371,45.562z M76.528,23.094c1.853,0.898,4.206,2.56,5.598,5.545  c1.384,2.968,1.146,5.839,0.645,7.841L76.528,23.094z"></path></svg>