<?xml version="1.0" encoding="utf-8"?>
<!-- Generator: Adobe Illustrator 23.1.1, SVG Export Plug-In . SVG Version: 6.00 Build 0)  -->
<svg version="1.1" id="Capa_1" xmlns="http://www.w3.org/2000/svg" xmlns:xlink="http://www.w3.org/1999/xlink" x="0px" y="0px"
	 viewBox="0 0 1600 900" style="enable-background:new 0 0 1600 900;" xml:space="preserve">
<style type="text/css">
	.st0{fill:#181929;}
	.st1{fill-rule:evenodd;clip-rule:evenodd;fill:#121E33;}
	.st2{fill-rule:evenodd;clip-rule:evenodd;fill:#1A3351;}
	.st3{fill-rule:evenodd;clip-rule:evenodd;fill:#192C47;}
	.st4{fill-rule:evenodd;clip-rule:evenodd;fill:#1C3D5E;}
</style>
<g id="Fondo">
	<rect x="-9.6" y="-11.2" class="st0" width="1621.5" height="924.5"/>
	<g>
		<g>
			<path class="st1" d="M1128.6,896.2c0,0-118.4-177.9-165.2-197.9c0,0-58.5,4.4-66.4,0s-42.6-25.9-46.2-34.3
				c-3.6-8.4-6-26.3-13.2-34.7s-71.9-39.5-94.6-43.1c-22.8-3.6-77.8-14.4-88.6-21.6c-10.8-7.2-7.2-24-13.2-32.3
				c-6-8.4-41.9-22.8-56.3-32.3c-14.4-9.6-59.3-7.2-72.7-13.2c-13.5-6-42.2-24-42.2-24l-10.8-9.6c0,0,6-20.4,0-26.3
				c-6-6-31.2-10.8-31.2-10.8s19.2,19.2,19.2,31.1c0,12,12,21.6,12,21.6s59.9,27.5,68.3,34.7c8.4,7.2,83.8,69.5,89.8,80.2
				c6,10.8,19.2,40.7,26.3,49.1c7.2,8.4,75.4,26.3,92.2,33.5s38.3,28.7,48.5,46.7s29.3,67.7,35.3,74.3s92.7-1.9,92.7-1.9
				L1128.6,896.2z"/>
			<path class="st1" d="M1400.2,644.2c0,0-76.1-49.7-97.3-68c-21.3-18.2-91.1-26.3-104.8-31.4c-13.7-5.1-46.5-50.6-46.5-50.6
				s-18.9-33.7-23.4-57.9c-4.5-24.2-65.2-51.5-65.2-51.5l-57.5-24.3c0,0,89.2,100.3,99.1,124.6c10,24.3-2.2,46.6,23.6,59.8
				c25.8,13.2,88.7,34.4,95.3,58.7c6.5,24.3,108.8,109.4,141.2,124.6c32.4,15.2,128.5,51.6,128.5,51.6S1430.7,677.6,1400.2,644.2z"
				/>
			<path class="st1" d="M1046.1,167.4c0,0,71.2,63.8,113.6,88.6c42.3,24.8,65.5,14.2,65.5,14.2s37.4,10.9,60.3,28.5
				s19.3,49.5,33.5,67.2s72.7,5.3,72.7,5.3l87.6,96.8l57.9,60.9c0,0-62.5-81.5-73-99.2s-83.2-120.5-97.3-138.2
				c-14.2-17.7-33.7-14.2-47.8-39c-14.2-24.8-30.1-53.2-53.2-74.4c-23-21.3-70.8-53.2-96.6-67.3c-25.7-14.2-66.5-28.4-66.5-28.4
				l-70.9-15.9L915.2,87.9L736.6,7.5c0,0,107.8,108.3,178.6,134.9C942,152.5,1046.1,167.4,1046.1,167.4z"/>
			<path class="st1" d="M1346,45.6c0,0,34.1,48.6,58.6,62.8c24.4,14.1,55.3,20.1,66.9,34.3c11.6,14.1,56.3,46.4,56.3,46.4l64.2,26.5
				c0,0-87.4-73.9-97-91.1s-35.3-31.3-35.3-31.3L1346,45.6z"/>
			<path class="st1" d="M44.3,108.1c0,0-18.2,82,0.7,98.5S54.3,354,71.1,371.2s32.3,81.8,53.5,105.2c21.2,23.4,31.8,60.5,55.7,88.2
				s64.6,39,85.1,51.5s84,42.7,84,42.7s-77.6-36.3-90.2-72.6c-12.6-36.3-5.5-81.5-5.5-81.5s16.3-3.6,0-33.6
				c-16.3-30.1-2.7-49.2-23.1-74.4c-20.4-25.2-30.2-70.6-16.2-91.8c14-21.2,0-45.3-7.2-82.3s104,8.8,104,8.8s95.4,9.1,106.9,24.2
				s95.5,40,95.5,40s67.1,3.7,76.3,0c9.1-3.7,37.9,20.5,61.3,41.7c23.4,21.2,28,8.3,60.5,30.9c32.5,22.7,38.8,56.9,57.4,73.5
				c0,0-20.9-36.5-27.5-73.5c0,0,33.4,3.7,57.6,9.7c24.2,6.1,35.8,4.7,52.5,17.5s35.1,20.8,35.1,20.8s-28.3-25.5-35.1-39.7
				c-6.8-14.1-12.2-28.2-20.9-33.6s-107.6-30.3-132.9-42.1c-25.3-11.7-46.8-50.4-46.8-50.4s-58-81.5-94.5-82.7
				c-36.6-1.2-96.2-41.9-124-35.3C359.4,150,213,60.8,141.6,47.1C102.3,39.5,53.8-0.6,11.1,7.5C-6.2,10.8,44.3,108.1,44.3,108.1z"/>
		</g>
		<g>
			<circle class="st2" cx="466.3" cy="446.5" r="6.5"/>
			<circle class="st2" cx="242.2" cy="535.3" r="6.5"/>
			<circle class="st2" cx="78.1" cy="834.7" r="6.5"/>
			<circle class="st2" cx="82" cy="423.5" r="10.4"/>
			<circle class="st2" cx="1135.2" cy="194.3" r="5.5"/>
			<circle class="st2" cx="377.5" cy="110" r="5.5"/>
			<circle class="st2" cx="237.6" cy="365.4" r="5.5"/>
			
				<ellipse transform="matrix(0.1602 -0.9871 0.9871 0.1602 237.9509 662.4777)" class="st2" cx="508.3" cy="191.4" rx="8.9" ry="8.9"/>
			<circle class="st2" cx="1256.1" cy="550.5" r="6.8"/>
			<circle class="st2" cx="319.5" cy="446.4" r="6.8"/>
			<circle class="st2" cx="146.5" cy="762" r="6.8"/>
			<circle class="st2" cx="481.2" cy="547" r="10.9"/>
			<circle class="st2" cx="1583.6" cy="227.6" r="6.5"/>
			<circle class="st2" cx="1359.4" cy="316.4" r="6.5"/>
			<circle class="st2" cx="1354.8" cy="146.5" r="5.5"/>
			<circle class="st2" cx="1488.7" cy="457.3" r="6.8"/>
			<circle class="st2" cx="1515.7" cy="662.7" r="10.9"/>
			<circle class="st2" cx="619.6" cy="194.3" r="5.5"/>
			<circle class="st2" cx="740.5" cy="550.5" r="6.8"/>
			<circle class="st2" cx="1068" cy="227.6" r="6.5"/>
			<circle class="st2" cx="843.8" cy="316.4" r="6.5"/>
			<circle class="st2" cx="839.2" cy="146.5" r="5.5"/>
			<circle class="st2" cx="942" cy="477.7" r="5.5"/>
			<circle class="st2" cx="973.1" cy="457.3" r="6.8"/>
			<circle class="st2" cx="936.5" cy="656.2" r="5.5"/>
			<circle class="st2" cx="844.7" cy="848" r="6.8"/>
			<circle class="st2" cx="629.5" cy="731.4" r="10.9"/>
		</g>
		<g>
			<circle class="st3" cx="1150.6" cy="53.2" r="5.4"/>
			<circle class="st3" cx="1551.3" cy="392.4" r="5.4"/>
			<circle class="st3" cx="383" cy="885.2" r="5.4"/>
			<circle class="st3" cx="1360.3" cy="477.7" r="8.6"/>
			<circle class="st3" cx="640.4" cy="58.6" r="8.6"/>
			<circle class="st3" cx="97.8" cy="736" r="4.6"/>
			<circle class="st3" cx="372" cy="612" r="4.6"/>
			<circle class="st3" cx="1128.5" cy="572.2" r="4.6"/>
			<circle class="st3" cx="1299.2" cy="487.2" r="4.6"/>
			<circle class="st3" cx="624.9" cy="487.2" r="4.6"/>
			<circle class="st3" cx="1249.3" cy="779.8" r="7.3"/>
			<circle class="st3" cx="466.3" cy="818.1" r="5.7"/>
			<circle class="st3" cx="1176.5" cy="293.7" r="5.7"/>
			<circle class="st3" cx="1129.7" cy="354.2" r="5.7"/>
			<circle class="st3" cx="1319.7" cy="32.2" r="5.7"/>
			<circle class="st3" cx="1553.7" cy="81.7" r="9.1"/>
			<circle class="st3" cx="92.4" cy="549.1" r="5.4"/>
			<circle class="st3" cx="395.1" cy="376.1" r="5.4"/>
			<circle class="st3" cx="350.3" cy="740.6" r="4.6"/>
			<circle class="st3" cx="114.7" cy="264.8" r="5.7"/>
			<circle class="st3" cx="92.4" cy="93.4" r="9.1"/>
		</g>
		<g>
			<circle class="st4" cx="1131.6" cy="54.9" r="5.4"/>
			<circle class="st4" cx="1551.3" cy="286.1" r="5.4"/>
			<circle class="st4" cx="1504.7" cy="745.9" r="5.4"/>
			<circle class="st4" cx="1460.4" cy="876.6" r="8.6"/>
			<circle class="st4" cx="757.4" cy="745.9" r="5.4"/>
			<circle class="st4" cx="762.8" cy="787.1" r="8.6"/>
			<circle class="st4" cx="248.7" cy="322.7" r="4.6"/>
			<circle class="st4" cx="1128.5" cy="466" r="4.6"/>
			<circle class="st4" cx="1317.6" cy="408.9" r="4.6"/>
			<circle class="st4" cx="1249.3" cy="673.5" r="7.3"/>
			<circle class="st4" cx="403.1" cy="60.3" r="5.7"/>
			<circle class="st4" cx="1209.2" cy="204.1" r="5.7"/>
			<circle class="st4" cx="1103.5" cy="806.8" r="5.7"/>
			<circle class="st4" cx="1398.4" cy="325.3" r="9.1"/>
			<circle class="st4" cx="859.2" cy="194.3" r="5.4"/>
			<circle class="st4" cx="629.5" cy="370.7" r="4.6"/>
			<circle class="st4" cx="686" cy="408.9" r="4.6"/>
			<circle class="st4" cx="696.2" cy="141" r="5.7"/>
			<circle class="st4" cx="868.3" cy="570.1" r="9.1"/>
			<circle class="st4" cx="38.9" cy="313.1" r="5.4"/>
			<circle class="st4" cx="395.1" cy="269.8" r="5.4"/>
			<circle class="st4" cx="275.8" cy="787.1" r="4.6"/>
			<circle class="st4" cx="114.7" cy="158.5" r="5.7"/>
			<circle class="st4" cx="174.7" cy="84.3" r="9.1"/>
		</g>
		<path class="st1" d="M407.2,738.1c0,0,42.8,28,54.8,38.3s51.3,14.8,59,17.7s26.2,28.5,26.2,28.5s10.6,19,13.2,32.6
			c2.6,13.6,36.7,29,36.7,29l32.4,13.7c0,0-50.2-56.4-55.8-70.1c-5.6-13.7,1.3-26.2-13.3-33.6c-14.6-7.4-49.9-19.4-53.6-33.1
			c-3.7-13.7-61.3-61.6-79.5-70.1c-18.2-8.6-72.3-29.1-72.3-29.1S390.1,719.3,407.2,738.1z"/>
	</g>
</g>
<g id="Introduccion">
</g>
</svg>
