<?xml version="1.0" encoding="utf-8"?>
<!-- Generator: Adobe Illustrator 23.1.1, SVG Export Plug-In . SVG Version: 6.00 Build 0)  -->
<svg version="1.1" id="Capa_1" xmlns="http://www.w3.org/2000/svg" xmlns:xlink="http://www.w3.org/1999/xlink" x="0px" y="0px"
	 viewBox="0 0 350 500" style="enable-background:new 0 0 350 500;" xml:space="preserve">
<style type="text/css">
	.st0{fill:#1C3D5E;}
</style>
<path class="st0" d="M214.6,376.1c-12.4-1.5-25.8-2.4-39.7-2.4c-14,0-27.4,0.9-39.9,2.4c-76,6.5-132.6,31-132.6,60.2
	c0,34.2,77.2,61.9,172.5,61.9c95.3,0,172.5-27.7,172.5-61.9C347.5,407.1,290.8,382.5,214.6,376.1z M286.9,414.4
	c-21.5-14.4-63.5-24.2-111.9-24.2c-48.5,0-90.6,9.9-112,24.3c2.9-11.5,19-21.7,42.8-28.4c20.6-4.2,44.1-6.7,69.2-6.7
	c24.9,0,48.3,2.4,68.8,6.6C267.7,392.7,283.9,402.9,286.9,414.4z M291.4,436.3c0,23.3-52.1,42.3-116.4,42.3
	c-64.3,0-116.4-18.9-116.4-42.3c0-1.2,0.1-2.4,0.4-3.5c16.6,17.5,62.3,30,116,30c53.8,0,99.5-12.6,116.1-30.1
	C291.3,433.9,291.4,435.1,291.4,436.3z M63.6,424C78.2,406.6,122.5,394,175,394c52.4,0,96.7,12.6,111.3,29.8
	c-7.5,19.9-54.5,35.2-111.4,35.2C118.2,459.1,71.3,443.8,63.6,424z M52.3,418.3c0,1.7,0.3,3.4,0.8,5.1c-3.3,4.1-5.1,8.5-5.1,13
	c0,25.5,56.9,46.1,127,46.1c70.2,0,127-20.7,127-46.1c0-4.5-1.8-8.9-5.2-13.1c0.5-1.6,0.8-3.3,0.8-5c0-7-4.5-13.7-12.5-19.6
	c21.4,9.5,34.3,21.8,34.3,35.2c0,30.1-64.7,54.5-144.4,54.5S30.6,464,30.6,433.9c0-13.4,12.8-25.6,34-35.1
	C56.7,404.7,52.3,411.3,52.3,418.3z M175,497.5c-94.2,0-170.5-27.4-170.5-61.2c0-25.2,42.4-46.8,103-56.2c-53.2,9.5-90,30-90,53.7
	c0,32.8,70.6,59.4,157.6,59.4c87,0,157.6-26.6,157.6-59.4c0-23.7-36.8-44.2-90-53.7c60.6,9.4,103,31,103,56.2
	C345.5,470.1,269.2,497.5,175,497.5z"/>
</svg>
