<?xml version="1.0" encoding="utf-8"?>
<!-- Generator: Adobe Illustrator 23.1.1, SVG Export Plug-In . SVG Version: 6.00 Build 0)  -->
<svg version="1.1" id="Capa_1" xmlns="http://www.w3.org/2000/svg" xmlns:xlink="http://www.w3.org/1999/xlink" x="0px" y="0px"
	 viewBox="0 0 40 60" style="enable-background:new 0 0 40 60;" xml:space="preserve">
<style type="text/css">
	.st0{fill:#FFFFFF;}
</style>
<path class="st0" d="M36.8,30.6v-4.3C36.8,17,29.3,9.4,20,9.4S3.1,17,3.1,26.3v4.3H1.2v19.2c0,4.9,3.9,8.8,8.8,8.8h20
	c4.9,0,8.8-3.9,8.8-8.8V30.6H36.8z M22.8,50.8h-5.7l1.7-7.9c-1.3-0.5-2.2-1.7-2.2-3.1c0-1.8,1.5-3.3,3.3-3.3c1.8,0,3.3,1.5,3.3,3.3
	c0,1.4-0.9,2.6-2.2,3.1L22.8,50.8z M8.1,30.6v-4.3c0-6.5,5.3-11.9,11.9-11.9c6.5,0,11.9,5.3,11.9,11.9v4.3H8.1z"/>
</svg>
