<?xml version="1.0" encoding="utf-8"?>
<!-- Generator: Adobe Illustrator 23.1.1, SVG Export Plug-In . SVG Version: 6.00 Build 0)  -->
<svg version="1.1" id="Capa_1" xmlns="http://www.w3.org/2000/svg" xmlns:xlink="http://www.w3.org/1999/xlink" x="0px" y="0px"
	 viewBox="0 0 340 300" style="enable-background:new 0 0 340 300;" xml:space="preserve">
<style type="text/css">
	.st0{clip-path:url(#SVGID_2_);}
	.st1{fill:#15FFC7;}
	.st2{fill:url(#SVGID_3_);}
	.st3{fill:#FFFFFF;}
	.st4{fill:url(#SVGID_4_);}
	.st5{fill:#10DDC0;}
	.st6{fill:#0BCEB7;}
	.st7{fill:#0FD8BB;}
	.st8{fill:#1AE5C3;}
	.st9{opacity:0.28;fill:#FFFFFF;}
	.st10{fill:#0EC6C1;}
	.st11{fill:#10BCC4;}
	.st12{fill:#17C1B9;}
	.st13{fill:#11B7B7;}
	.st14{fill:#11AAA6;}
	.st15{opacity:0.67;fill:#11AAA6;}
	.st16{opacity:0.66;fill:#0EC6C1;}
</style>
<g>
	<defs>
		<rect id="SVGID_1_" x="10" width="330" height="300"/>
	</defs>
	<clipPath id="SVGID_2_">
		<use xlink:href="#SVGID_1_"  style="overflow:visible;"/>
	</clipPath>
	<g class="st0">
		<g>
			<path class="st1" d="M76.2,261.4l-16.3,77.2c3.5,2.1,7.1,4.1,10.8,5.9c13.1,6.4,26.9,11.1,41.1,14.6c9.5-20.7,20.5-46,21.9-52.8
				c0,0,19.8,48.5,25.8,60.7c4.1,0.4,8.3,0.7,12.4,1c20.9,1.4,42,0.9,62.9,0.5c23.5-0.5,47-1.4,70.5-2.7c16.7-0.9,33.4-2,50.1-3.2
				c-14.2-36.1-50.2-126.9-53-130.4c-3.5-4.3-9.1-16.4-26.8-17.5c0,0-0.6-7.8-1.7-11.6c-1.1-3.9-1.5-10.9,1.9-14.9
				c3.4-4,5-1,9.4-4.1s1.5-4.2,5.9-5.8c4.5-1.6,3.4,2.8,8.2,0.8c4.7-2.1,7.4-8.9,3.6-18.4s-7-7.5-13.3-16.7
				c-6.3-9.2-6-24.4-5.2-26.9c0,0,16.6-11,15.4-20.9c-1.2-9.9-14.9-18.2-22.8-28.8c0,0-4.3-11.3-8.8-15.3c-4.5-4-4.3-11.3-6.9-12.5
				s-14.8-3.1-18.9-8l-5.2-10.6l-7.7-3.2c0,0-20.1-15.2-38.3,3.8c0,0-16.7,5.4-25.9,0.8c0,0-28.5,20-35.6,22.8c-7.2,2.8-4,8.7-4,8.7
				s-20.8,14.9-20.4,32.5c0.4,17.7-3,38.3-5.3,50.3c-2.3,12-4.2,35.2-29,45.1c-24.8,9.9-19.6,52-16.7,59.5
				C57.1,248.5,65.7,260.5,76.2,261.4z"/>
		</g>
		<g>
			<g>
				<path class="st1" d="M76.2,261.4l-16.3,77.2c3.5,2.1,7.1,4.1,10.8,5.9c13.1,6.4,26.9,11.1,41.1,14.6c9.5-20.7,20.5-46,21.9-52.8
					c0,0,19.8,48.5,25.8,60.7c4.1,0.4,8.3,0.7,12.4,1c20.9,1.4,42,0.9,62.9,0.5c23.5-0.5,47-1.4,70.5-2.7c16.7-0.9,33.4-2,50.1-3.2
					c-14.2-36.1-50.2-126.9-53-130.4c-3.5-4.3-9.1-16.4-26.8-17.5c0,0-0.6-7.8-1.7-11.6c-1.1-3.9-1.5-10.9,1.9-14.9
					c3.4-4,5-1,9.4-4.1s1.5-4.2,5.9-5.8c4.5-1.6,3.4,2.8,8.2,0.8c4.7-2.1,7.4-8.9,3.6-18.4s-7-7.5-13.3-16.7
					c-6.3-9.2-6-24.4-5.2-26.9c0,0,16.6-11,15.4-20.9c-1.2-9.9-14.9-18.2-22.8-28.8c0,0-4.3-11.3-8.8-15.3c-4.5-4-4.3-11.3-6.9-12.5
					s-14.8-3.1-18.9-8l-5.2-10.6l-7.7-3.2c0,0-20.1-15.2-38.3,3.8c0,0-16.7,5.4-25.9,0.8c0,0-28.5,20-35.6,22.8
					c-7.2,2.8-4,8.7-4,8.7s-20.8,14.9-20.4,32.5c0.4,17.7-3,38.3-5.3,50.3c-2.3,12-4.2,35.2-29,45.1c-24.8,9.9-19.6,52-16.7,59.5
					C57.1,248.5,65.7,260.5,76.2,261.4z"/>
			</g>
		</g>
		<g>
			
				<linearGradient id="SVGID_3_" gradientUnits="userSpaceOnUse" x1="-1.493462e-02" y1="160.5949" x2="696.9686" y2="857.5785" gradientTransform="matrix(-0.9634 0.268 0.268 0.9634 274.6235 -88.618)">
				<stop  offset="0" style="stop-color:#10D5EA"/>
				<stop  offset="2.440166e-02" style="stop-color:#11DAE6"/>
				<stop  offset="0.1349" style="stop-color:#13EBD8"/>
				<stop  offset="0.2718" style="stop-color:#14F6CE"/>
				<stop  offset="0.4647" style="stop-color:#15FDC9"/>
				<stop  offset="1" style="stop-color:#15FFC7"/>
			</linearGradient>
			<path class="st2" d="M76.2,261.4l-16.3,77.2c3.5,2.1,7.1,4.1,10.8,5.9c13.1,6.4,26.9,11.1,41.1,14.6c9.5-20.7,20.5-46,21.9-52.8
				c0,0,19.8,48.5,25.8,60.7c4.1,0.4,8.3,0.7,12.4,1c20.9,1.4,42,0.9,62.9,0.5c23.5-0.5,47-1.4,70.5-2.7c16.7-0.9,33.4-2,50.1-3.2
				c-14.2-36.1-50.2-126.9-53-130.4c-3.5-4.3-9.1-16.4-26.8-17.5c0,0-0.6-7.8-1.7-11.6c-1.1-3.9-1.5-10.9,1.9-14.9
				c3.4-4,5-1,9.4-4.1s1.5-4.2,5.9-5.8c4.5-1.6,3.4,2.8,8.2,0.8c4.7-2.1,7.4-8.9,3.6-18.4s-7-7.5-13.3-16.7
				c-6.3-9.2-6-24.4-5.2-26.9c0,0,16.6-11,15.4-20.9c-1.2-9.9-14.9-18.2-22.8-28.8c0,0-4.3-11.3-8.8-15.3c-4.5-4-4.3-11.3-6.9-12.5
				s-14.8-3.1-18.9-8l-5.2-10.6l-7.7-3.2c0,0-20.1-15.2-38.3,3.8c0,0-16.7,5.4-25.9,0.8c0,0-28.5,20-35.6,22.8c-7.2,2.8-4,8.7-4,8.7
				s-20.8,14.9-20.4,32.5c0.4,17.7-3,38.3-5.3,50.3c-2.3,12-4.2,35.2-29,45.1c-24.8,9.9-19.6,52-16.7,59.5
				C57.1,248.5,65.7,260.5,76.2,261.4z"/>
		</g>
		<path class="st3" d="M204.6,123.9c0,0-2.4-6.7-5.4-7.6c-3-0.9-10.2-1.2-10.2-1.2l-4.9,2.4c0,0-0.3,3.4,0.9,4.3
			c1.3,0.9,2.9,4.2,4.8,4.5C191.7,126.5,200.6,126.8,204.6,123.9z"/>
		<path class="st3" d="M248.1,121.9c0,0-0.5,10.7-7.9,9.5c-7.4-1.2-8.6-5.4-8.6-5.4S239,117.1,248.1,121.9z"/>
		
			<linearGradient id="SVGID_4_" gradientUnits="userSpaceOnUse" x1="184.9126" y1="337.8826" x2="277.0866" y2="497.5326" gradientTransform="matrix(-0.9634 0.268 0.268 0.9634 274.6235 -88.618)">
			<stop  offset="0" style="stop-color:#10DDC0"/>
			<stop  offset="0.3732" style="stop-color:#11E7C2"/>
			<stop  offset="0.9598" style="stop-color:#15FFC7"/>
		</linearGradient>
		<path class="st4" d="M160.3,367c3.9,0.4,7.7,0.7,11.6,0.9c11.7,0.8,23.4,0.9,35.1,0.9c4-13.5,14.4-30.3,14.4-30.3l-24.4-4.3
			c-35.5-4.3-41.7-56-41.7-56l-13.9-0.7l-6.9,27.6l6.7,20.3L160.3,367z"/>
		<path class="st5" d="M154.8,312.8c0,0,0-5.5,17.6,19.8c17.6,25.3,50,5.8,71.1-0.1c21.1-5.9,30.8,2,43.8,10.5
			c6.9,4.5,8.9,14.7,9.3,23.2c2.6-0.1,5.2-0.3,7.8-0.4c2.8-7.2,6.3-17.7,10-25.3c3-6.2,7.9-9.8,7.9-9.8s-10.4,0.2-12.9,0.6
			c-2.6,0.3-21.4,0.9-44.4-7.3c-3.4-1.2-10.5-1.4-16.2-1.7s-27,9-27,9s-21.4,11.3-41.7-3.1c-20.3-14.4-23.2-43.9-24.5-49.9
			c-1.3-6.1-10.8-7.6-10.8-7.6l-10.1,34.6l15.9,40.9L154.8,312.8z"/>
		<path class="st6" d="M162.6,304.5c-1.7-2.5-16-24.8-22.7-19.9l4.7-13.9c0,0,10.2-2.3,10.8,7.6C156,288.2,162.6,304.5,162.6,304.5z
			"/>
		<path class="st6" d="M156.6,294.9c0,0-10.2-13-20.9,5.6l5.8-22.8L156.6,294.9z"/>
		<path class="st7" d="M153.3,274.2c1.3,2.4,2.1,4.1,2.1,4.1C155.2,276.6,154.4,275.3,153.3,274.2z"/>
		<path class="st7" d="M112,359.2c0.8-1.6,1.3-2.6,1.3-2.6s18.3-40.4,22.4-56.2c4.2-15.8,8.9-29.7,8.9-29.7s5.5,0.5,8.7,3.5
			c-3.1-5.5-9-14.5-14.6-14c-8.1,0.7-7.9,24.3-8.9,30.5c-1.3,7.5-11.1,30.7-16,41.9c-1,2.4-6.2,12.2-12.1,23.8
			C105.1,357.4,108.5,358.3,112,359.2z"/>
		<path class="st8" d="M68,343.1c2.6-13.5,5.9-30,7.8-38.7c3.6-16.1,14.8-69.8,21.5-84.1c10.1-21.7,32.7-25.7,32.7-25.7
			s-12.5-1.6-23.7,5.6c-11.1,7.1-21.1,22-22.4,28.4c-1.2,6.4-9.5,34.9-9.5,34.9l-13.3,68.2l-1.7,6.7C62.3,340.1,65.1,341.7,68,343.1
			z"/>
		<path class="st6" d="M233.8,180.9c0,0-31.6,27.7-43.2,32.4c0,0-4,2.4-8,3c-3,0.5-6.9,25-23.8,5.1l-7.8-9.2c0,0-16.3,39.3-43,52
			c-26.7,12.7-36.4,13.2-36.4,13.2s42.4-16.3,50.1-32.1c0,0,29.1-23.2,29.6-43c0,0,12.4,20,25,8.2c12.6-11.8,6.4-31.3,6.4-31.3
			l19,11.3C201.7,190.5,211.8,196.8,233.8,180.9z"/>
		<path class="st6" d="M305.4,365.7c0.7,0,1.4-0.1,2-0.1l34-38.2l-7.9-21c3.1,18.3-20.7,32.1-20.7,32.1c-2.1,5.1-7.3,23.1-7.3,23.1
			l-1.6,4.2C304.4,365.8,304.9,365.7,305.4,365.7z"/>
		<path class="st5" d="M172.3,321.6c0,0,41.5,6.6,77.4-12.8c0,0,19.1-8.3,37.1,1.4c14.5,7.9,39.3,16.1,42-13.9c0,0,7,18.6,0.2,26.5
			c-6.9,8-8.7,19.6-31.5,13.8c-22.8-5.8-38.2-10.5-38.2-10.5s-18.4-2.2-37.7,5.3C191.2,343.2,172.3,321.6,172.3,321.6z"/>
		<path class="st5" d="M212.6,321c0,0-42.3,6.9-57.3-42.7c0,0,3,34,24.5,49.9c21.5,16,37.4-2.8,37.4-2.8L212.6,321z"/>
		<path class="st9" d="M285.9,227.9c-5.6-7.5-12.3-10.4-8.9-12.1c3.4-1.7,14.8,2.9,17.1,7.5c2.3,4.5,7.8,10.1,4.4,11.8
			C295.2,236.7,289,231.9,285.9,227.9z"/>
		<path class="st9" d="M102.3,224.2c1.2,4.4,6.6,4.2,8.7-0.5c1.5-3.3,8.1-9.1,12.7-15.8c2.6-3.7-3.3-4.5-8.2-3.1
			S101.1,219.8,102.3,224.2z"/>
		<path class="st6" d="M318.3,365c-3.1-6.8-5.1-11.4-5.1-11.4l-7.8,12.2C309.7,365.5,314,365.2,318.3,365z"/>
		<path class="st9" d="M265.7,156.9c0,0-4.8,22.5-36.2,40.3l-2.8,6.3c0,0,31.8-5.3,41.5-41.3L265.7,156.9z"/>
		<path class="st10" d="M226.7,203.5c0,0,54.5-19.7,39-46.6c0,0-9.2-18.6-10.1-25.4c0,0-5.5,16.6-7.6,23.3
			c-2.2,6.7-14.2,26.1-14.2,26.1L226.7,203.5z"/>
		<path class="st11" d="M255.9,97.2c0,0-0.7-10.8-7.2-20.3l-53-5.7c0,0-7.2,8.1-8.4,17.5L255.9,97.2z"/>
		<path class="st10" d="M243,75.4c0,0,9.1,21.7,5.1,46.5c-0.4,2.5,0.8,29,0.8,29l5.8-22.8l0.1-37.8l-6-13.5L243,75.4z"/>
		<path class="st12" d="M248.7,76.9c0,0-5.8-6.4-8.1-5.6c-2.3,0.9-3.9,4.1-3.9,4.1L248.7,76.9z"/>
		<path class="st12" d="M203.9,71.7l-3.8-5.5c0,0-3.9,3.1-4.4,5L203.9,71.7z"/>
		<path class="st13" d="M254.7,128.2l6,16.1c0,0-8.9,10.5-12.6,13.3L254.7,128.2z"/>
		<path class="st10" d="M182.6,179.2c0,0-1.3-18.3-2.1-27.8c-1.1-13.3,3.3-33.8,3.3-33.8l8.1-28.4l-4.7-0.6c0,0-11.2,33-11.5,38.8
			c0,0-3.1-16.5-0.9-30.4c0,0-4.5,6.9-4.7,13c-0.2,6.1-0.5,21.3-0.3,23.5c0.2,2.2,2.3,17.9,4.1,21.5S182.6,179.2,182.6,179.2z"/>
		<path class="st14" d="M192,89.2l6.6-18.5l-2.9,0.4c0,0-7,6.1-8.4,17.5L192,89.2z"/>
		<path class="st15" d="M130,194.6l-7.8-26.3c0,0-2.7,8.6-14.3,16.6c-12.9,8.9-19.4,14.5-38.1,15.1c0,0-12.4,7.2-12.1,33.4
			c0,0-0.5,18,17.1,27c0,0,2.2-32.6,27.9-56.9c2.3-2.2,13.9-6.8,16.9-7.5L130,194.6z"/>
		<path class="st16" d="M173.1,199.3c0,0-1.3-15.5-6.4-20.2s-9.9-8.6-16.6-13.5s-10.3-7-13.3-15.2c-3-8.2-4.4-18.4-4.4-18.4
			s-5.5,7.6-3.3,15.3s2.4,25,7.4,32c5,6.9,8.6,12,8.6,12s2.6-1.5,12.1,8C157.2,199.1,169.7,203.2,173.1,199.3z"/>
		<path class="st15" d="M173.1,199.3c-1-3.5-1.1-9.5-13.8-14.3c-12.7-4.8-25.2-11.9-27.5-22.6c0,0-3.5-17.9,0.6-30.4
			c0,0,3.9,27.7,17.7,33.7c0,0,13.5,7.6,16.6,13.5C169.9,185,173.1,199.3,173.1,199.3z"/>
		<path class="st14" d="M255.9,97.2l-7.5-1.3l-4.8-19.3l5.2,0.3C248.7,76.9,256,86.2,255.9,97.2z"/>
		<path class="st12" d="M237.5,76.5c0,0,6.6-25,1.8-43.4c0,0,4.4,20.2-6.8,42.5L237.5,76.5z"/>
		<path class="st12" d="M204.8,71.7c0,0,0.4-6.4-8.7-22.8c0,0,6.2,12,5.6,20.7L204.8,71.7z"/>
		<path class="st6" d="M132,205c-0.3-1.1-10.7-6.9-29.4-1.5c0,0,14.8-9.9,27.4-8.9L132,205z"/>
		<path class="st6" d="M173.1,199.3c0,0-4.8,4.4-15.9-0.1c0,0,12.2,11.3,15.4,7.8C175.8,203.4,173.1,199.3,173.1,199.3z"/>
		<polygon class="st3" points="231,236.3 239.7,244.3 235.4,244.5 239.7,251 231,242.7 235.2,242.5 		"/>
		<g>
			<path class="st3" d="M256,274.1l-15.3,0.6c-0.7-1.1-1.4-2.3-2.1-3.5l16.7-0.6L256,274.1z"/>
			<path class="st3" d="M254.9,269.1l-17.2,0.6c-0.7-1.2-1.4-2.3-2.1-3.5l18.6-0.7L254.9,269.1z"/>
			<path class="st3" d="M257.1,279.1l-13.5,0.5c-0.7-1.1-1.4-2.3-2.1-3.5l14.8-0.5L257.1,279.1z"/>
			<path class="st3" d="M231.7,260.1c-1.6-2.6-2.6-4.3-2.6-4.3l22.7-0.5l0.9,4L231.7,260.1z"/>
			<path class="st3" d="M253.7,264.1l-19.1,0.7c-0.7-1.2-1.4-2.3-2.1-3.4l20.4-0.8L253.7,264.1z"/>
			<path class="st3" d="M257.5,280.5l1.1,4.9c-1.6,0.3-11.1,0.3-11.1,0.3c-0.3-0.5-1.4-2.3-2.9-4.7L257.5,280.5z"/>
		</g>
		<path class="st12" d="M133.9,306.3c2.2-6,4.2-12,6-18c1.9-6,3.6-12.1,5.2-18.2l-2.2,1.4c2.8,0.5,5.9,1.5,8.1,3.1
			c1.1,0.8,1.9,1.7,2.3,2.9c0.4,1.4,0.8,3,1.2,4.6c1.6,6.3,3.4,12.6,5.5,18.8c2.1,6.2,4.6,12.3,8.1,17.9c1.8,2.8,3.8,5.5,6.2,7.9
			c2.4,2.4,5.2,4.4,8.3,6c3,1.6,6.4,2.6,9.8,3.1c1.7,0.2,3.3,0.6,5,0.7c1.7,0.1,3.4,0.2,5,0.3l5.1-0.2l5-0.6l4.9-1.1
			c1.6-0.5,3.2-0.9,4.8-1.4c6.3-2.1,12.2-4.8,18.2-7.1c5.9-2.3,12.1-4,18.6-3.1l0.1-0.4l-2.4-0.6l-1.2-0.3l-1.2-0.1
			c-0.8-0.1-1.7-0.2-2.5-0.2l-2.5,0.1c-0.8,0-1.7,0.1-2.5,0.3c-0.8,0.1-1.7,0.2-2.5,0.4c-1.6,0.4-3.3,0.7-4.8,1.2
			c-6.3,1.8-12.4,4.1-18.5,5.8l-4.6,1.2l-4.6,0.9l-4.6,0.6l-4.7,0.2c-1.6,0-3.1-0.1-4.7-0.1c-1.6-0.1-3.1-0.4-4.6-0.5
			c-3.1-0.4-6-1.1-8.8-2.4c-5.5-2.5-10.4-6.6-14.3-11.6c-3.9-5-6.7-10.9-8.8-17c-2.1-6.1-3.2-12.5-4-18.9c-0.2-1.6-0.4-3.2-0.8-4.9
			c-0.5-2-1.7-3.7-3.2-4.9c-1.5-1.2-3.1-2.1-4.7-2.7c-1.7-0.6-3.3-1.1-5.1-1.4l-1.8-0.3l-0.4,1.7c-1.5,6.1-3,12.3-4.4,18.5
			c-1.3,6.2-3.7,14.6-3.7,14.6L133.9,306.3z"/>
		<path class="st12" d="M78.3,261.6c0.5-5.3,1.5-10.8,2.7-16.1c1.2-5.3,2.7-10.6,4.7-15.7c1.9-5.1,4.3-10.1,7.3-14.6
			c3-4.5,6.8-8.5,11.5-11.4l0.1,0l0,0c1.7-1.4,3.6-2.7,5.6-3.8c2-1.1,4.1-2.1,6.2-2.9c2.2-0.8,4.4-1.4,6.6-1.8
			c2.3-0.5,4.6-0.6,6.9-0.7c-2.3,0-4.6,0-6.9,0.4c-2.3,0.3-4.6,0.8-6.8,1.5c-2.2,0.7-4.4,1.6-6.5,2.6c-2.1,1.1-4.1,2.2-6,3.7
			l0.1-0.1c-5,2.7-9.2,6.7-12.5,11.3c-3.4,4.5-6,9.5-8.3,14.7c-2.2,5.2-4,10.5-5.5,15.9c-1.5,5.4-2.7,10.9-3.5,16.5L78.3,261.6z"/>
		<path class="st12" d="M88.8,221c-0.2-0.1-0.7-0.4-1-0.6c-0.4-0.3-0.7-0.6-1.1-0.9c-0.7-0.7-1.3-1.5-1.9-2.3
			c-1.1-1.7-1.9-3.6-2.5-5.7c-0.4-1-0.5-2.1-0.8-3.1c-0.2-1.1-0.4-2.1-0.5-3.2c-0.1-1.1-0.2-2.1-0.3-3.2l-0.1-3.2l-0.3,3.2
			c-0.1,1.1-0.1,2.2-0.1,3.3c0,1.1,0.1,2.2,0.1,3.3c0.2,1.1,0.2,2.2,0.4,3.3c0.4,2.2,1,4.3,2,6.4c0.5,1,1.1,2,1.9,3
			c0.4,0.5,0.8,0.9,1.2,1.3c0.5,0.4,0.9,0.8,1.6,1.2L88.8,221z"/>
		<path class="st12" d="M68.6,200.6c0.8-0.2,1.7-0.2,2.6-0.2l2.6-0.2c1.7-0.2,3.4-0.4,5.2-0.7c3.4-0.6,6.8-1.5,10.2-2.6
			c6.7-2.2,13-5.4,18.6-9.8c2.8-2.2,5.4-4.6,7.7-7.3c2.2-2.7,4.3-5.6,6-8.7c3.4-6.2,5.3-13.1,6-20c-1.9,6.7-4.4,13.1-8,18.8
			c-3.6,5.7-8.1,10.8-13.5,14.9c-5.3,4.2-11.3,7.4-17.6,10c-3.2,1.3-6.4,2.4-9.7,3.3c-1.6,0.5-3.3,0.9-5,1.3
			C72,199.8,70.2,200,68.6,200.6z"/>
		<path class="st12" d="M122.2,168.5c2.9,9.6,5.8,19.3,8.1,29c0.6,2.4,1.1,4.9,1.5,7.4c0.4,2.4,0.8,5,0.5,7.3
			c-0.5,2.4-1.2,4.8-2.1,7.1c-0.4,1.2-0.9,2.3-1.4,3.4c-0.6,1.1-1,2.3-1.6,3.3c-4.7,8.8-11.4,16.4-19.5,22.1
			c-4,2.9-8.3,5.4-12.9,7.4c-2.3,1-4.6,1.9-7,2.7c-2.3,0.8-4.8,1.6-6.9,1.7l0.3,2.4c8.1-1.8,15.8-4.3,23.4-7.3
			c7.6-3,15-6.7,21.9-11.3c3.4-2.3,6.7-4.8,9.8-7.6c3.1-2.8,5.9-5.9,8.3-9.3c2.4-3.4,4.4-7.1,5.8-11.1c1.3-4,2.1-8.2,2.2-12.4l0-0.1
			l0-0.1c-0.4-1.9-1-3.5-1.7-5.1c-0.7-1.6-1.5-3.1-2.4-4.5c-1.8-2.9-3.8-5.6-6.1-8.1c-2-2.3-3.6-5.1-4.9-8c-1.3-2.9-2.3-6-3.2-9.1
			c-1.6-6.3-2.6-12.7-2.9-19.2c-0.2-6.5,0.2-13,1.8-19.3l-2.4-0.2c0.7,5.4,1.8,10.6,3.4,15.8c1.6,5.1,3.7,10.2,7.3,14.5
			c3.7,4.1,8.3,7,12.7,10c2.2,1.5,4.4,2.9,6.5,4.5c2.1,1.6,4.1,3.3,5.7,5.3c1.6,2,2.8,4.2,3.5,6.7c0.7,2.6,1.5,5.1,2.1,7.6
			c0.7,2.6,1.3,5.1,1.5,7.7c0.1,1.3,0.1,2.6-0.3,3.7c-0.2,0.6-0.5,1-0.9,1.4c-0.5,0.3-1,0.5-1.6,0.5c-1.2,0-2.4-0.6-3.5-1.2
			c-1.1-0.7-2.2-1.4-3.2-2.3c-2.1-1.6-4-3.5-6-5.2c-1-0.9-2.1-1.7-3.1-2.5c-1-0.8-2-1.7-3-2.6c-1-0.9-2.1-1.7-3.2-2.4
			c-1.2-0.6-2.4-1.1-3.7-1.4c1.3,0.3,2.5,0.8,3.7,1.5c1.1,0.7,2.1,1.5,3.1,2.4c1,0.9,2,1.8,3,2.7c1,0.9,2,1.7,3,2.6
			c2,1.8,3.9,3.6,5.9,5.3c1,0.9,2.1,1.7,3.2,2.4c1.2,0.7,2.4,1.4,3.9,1.4c0.7,0.1,1.5-0.2,2.2-0.6c0.6-0.5,1.1-1.1,1.3-1.8
			c0.5-1.4,0.5-2.8,0.4-4.1c-0.2-2.7-0.8-5.3-1.4-7.9c-0.6-2.6-1.3-5.2-2-7.7c-0.2-0.6-0.4-1.3-0.6-1.9c-0.2-0.7-0.5-1.3-0.8-1.9
			c-0.6-1.3-1.4-2.4-2.2-3.5c-1.7-2.2-3.8-4-5.9-5.6c-2.1-1.7-4.3-3.2-6.5-4.7c-4.4-3-8.8-5.9-12.1-9.8c-3.2-3.9-5.2-8.9-6.7-13.9
			c-1.5-5-2.5-10.2-3.1-15.4l-0.8-6.6l-1.6,6.4c-1.7,6.6-2.2,13.3-2,20c0.2,6.7,1.2,13.3,2.9,19.8c0.9,3.2,1.9,6.5,3.3,9.5
			c1.4,3.1,2.9,6.1,5.3,8.8c2.2,2.4,4.1,5,5.8,7.7c0.8,1.4,1.6,2.8,2.2,4.2c0.6,1.4,1.2,3,1.4,4.3l0-0.2c-0.2,3.9-0.8,7.8-2,11.5
			c-1.2,3.7-3.1,7.2-5.4,10.4c-2.2,3.3-4.9,6.2-7.8,8.9c-2.9,2.7-6.1,5.2-9.4,7.4c-6.7,4.4-13.9,8.1-21.3,11.1
			c-7.5,3-15.2,5.5-23,7.3l0.3,2.4c2.9-0.3,5.2-1.1,7.6-2c2.4-0.9,4.7-1.8,7.1-2.9c4.7-2.1,9.1-4.8,13.2-7.8c8.2-6,15.1-14,19.7-23
			c0.6-1.1,1.1-2.3,1.6-3.4c0.5-1.2,1-2.3,1.4-3.6c0.9-2.4,1.6-4.8,2-7.4c0.3-2.7-0.3-5.2-0.7-7.7c-0.5-2.5-1.1-4.9-1.7-7.4
			C128.6,187.6,125.5,178,122.2,168.5z"/>
		<path class="st12" d="M172.8,199.9c-2.9,0.4-5.8,0.5-8.6,0.1c-1.4-0.2-2.8-0.5-4.1-0.9c-1.4-0.4-2.7-1-4.1-1.6
			c1,1.1,2.3,2,3.7,2.6c1.4,0.7,2.9,1.1,4.4,1.3c1.5,0.2,3,0.2,4.5-0.1C170,201.1,171.5,200.6,172.8,199.9z"/>
		<path class="st12" d="M182.4,178.6c5.8,4.1,11.7,8,17.6,12.1l0.1,0l0.1,0c1.9,0.7,3.9,1.2,5.9,1.5c2,0.3,4.1,0.5,6.2,0.3
			c2.1-0.3,4.1-0.9,6-1.6c1.9-0.7,3.8-1.5,5.6-2.4l1.4-0.7c0.2-0.1,0.5-0.3,0.7-0.4l0.6-0.4c0.9-0.6,1.7-1.2,2.5-1.8
			c1.6-1.3,3.1-2.7,4.5-4.1c2.8-2.9,5.4-6,7.9-9.2c1.2-1.6,2.4-3.2,3.6-4.9c0.6-0.8,1.1-1.7,1.7-2.6c0.3-0.4,0.5-0.9,0.8-1.3
			c0.3-0.4,0.6-1.1,0.7-1.6c1.1-4,2-7.8,2.9-11.8c1.9-7.8,3.5-15.6,5.2-23.4l0-0.1l0-0.1c0.1-5.6,0.1-11.1,0.1-16.7l0-8.3l0-4.2
			l-0.1-2.2l-0.2-2.1c-0.9-5.6-3.2-11-6.6-15.5c-1.7-2.2-3.7-4.4-6.3-5.7l-0.5-0.2c-0.2-0.1-0.4-0.1-0.6-0.2c-0.4-0.1-0.9,0-1.3,0.1
			c-0.8,0.2-1.4,0.7-2,1.1c-1.1,1-2,2.1-2.7,3.4l0.5-0.3c-5.3-0.6-10.6-1.2-15.9-1.8l-15.9-1.9l0.4,0.2l-4.7-6.3l-0.3-0.4l-0.4,0.3
			c-2.4,1.9-4.4,4.2-6.1,6.7c-1.7,2.5-3.1,5.1-4.4,7.8c-2.6,5.4-4.7,10.9-6.5,16.6c-1.9,5.6-3.5,11.4-4.9,17.1
			c-1.4,5.8-2.7,11.5-3.8,17.4l2.6,0c-0.8-6.6-0.8-13.4-0.6-20.1c0.3-6.7,0.8-13.5,1.6-20.1l-3-0.5l-0.2,0.7l-0.3,0.8l-0.6,1.7
			l-1.2,3.3c-0.8,2.2-1.6,4.6-2.2,6.9c-0.6,2.4-1,4.7-1.3,7.1c-0.3,2.4-0.6,4.8-0.7,7.2l0,0.1l0,0.1c0.2,5.3,0.4,10.6,0.8,16
			c0.2,2.7,0.5,5.3,0.8,8c0.2,1.3,0.4,2.7,0.7,4c0.3,1.4,0.7,2.6,1,3.9c1.4,5.2,3.1,10.2,5,15.2c1.9,5,4,9.9,5.4,14.8
			c0.3,1.2,0.6,2.5,0.8,3.7c0.2,1.3,0.2,2.5,0.2,3.8c0,2.6-0.2,5.2-0.6,7.7c-0.4,2.6-1,5.1-1.9,7.5c-0.9,2.4-2,4.8-3.5,6.8
			c-1.5,2-3.6,3.6-6,4.1c-2.5,0.6-5.1,0.2-7.5-0.8c-2.4-1-4.6-2.4-6.6-4.1c-2-1.7-3.9-3.6-5.5-5.6l-0.2,0.2c1.6,2.2,3.4,4.1,5.4,5.9
			c2,1.8,4.2,3.4,6.7,4.5c2.5,1.1,5.3,1.7,8.1,1.2c2.8-0.4,5.2-2.3,7-4.4c1.8-2.1,3-4.6,4-7.1c1-2.5,1.7-5.2,2.2-7.8
			c0.5-2.7,0.8-5.4,0.9-8.1c0-1.4,0-2.7-0.2-4.1c-0.2-1.4-0.4-2.7-0.8-4c-1.3-5.3-3.4-10.2-5.2-15.2c-1.8-5-3.4-10-4.7-15.1
			c-0.3-1.3-0.7-2.6-0.9-3.8c-0.3-1.2-0.4-2.5-0.6-3.8c-0.3-2.6-0.6-5.2-0.8-7.8c-0.4-5.3-0.6-10.5-0.8-15.8l0,0.1
			c0.1-2.3,0.4-4.6,0.7-6.9c0.3-2.3,0.7-4.6,1.3-6.8c0.5-2.3,1.3-4.3,2.1-6.6l1.2-3.4l0.6-1.7l0.3-0.9c0.1-0.3,0.2-0.5,0.3-1l-3-0.5
			c-0.8,6.8-1.2,13.6-1.4,20.4c-0.2,6.8-0.1,13.7,0.8,20.5l1.1,8.9l1.5-8.8c1-5.8,2.1-11.6,3.4-17.3c1.3-5.7,2.8-11.4,4.5-17.1
			c1.7-5.6,3.6-11.2,6.1-16.5c1.2-2.7,2.6-5.3,4.1-7.7c1.6-2.4,3.4-4.7,5.6-6.5l-0.8-0.1l4.8,6.2l0.1,0.2l0.2,0l15.9,1.8
			c5.3,0.6,10.6,1.3,15.9,1.9l0.3,0L237,76c0.7-1.1,1.5-2.2,2.5-3.1c0.5-0.4,1-0.8,1.6-0.9c0.6-0.1,1-0.1,1.6,0.3
			c2.3,1.2,4.2,3.3,5.8,5.5c3.1,4.5,5.2,9.7,5.9,15l0.2,2l0,2l-0.1,4.2l-0.2,8.3c-0.2,5.6-0.3,11.1-0.4,16.7l0-0.3l-5.3,23.4
			c-0.9,3.9-1.8,7.9-2.7,11.6c-0.1,0.4-0.3,0.7-0.5,1.2c-0.2,0.4-0.5,0.8-0.7,1.2c-0.5,0.8-1,1.7-1.6,2.5c-1.1,1.6-2.2,3.3-3.4,4.8
			c-2.4,3.2-4.9,6.2-7.6,9.1c-2.7,2.8-5.6,5.6-9,7.3c-3.5,1.8-7.2,3.5-10.9,4.1c-3.8,0.4-7.8-0.4-11.5-1.4l0.1,0.1
			c-6-3.8-12.1-7.6-18.1-11.3L182.4,178.6z"/>
		
			<rect x="199.6" y="66.8" transform="matrix(0.1157 -0.9933 0.9933 0.1157 106.0398 261.9318)" class="st12" width="1.1" height="9.3"/>
		
			<rect x="242.3" y="70.2" transform="matrix(0.1227 -0.9924 0.9924 0.1227 137.1264 308.0961)" class="st12" width="1.1" height="12.6"/>
		
			<rect x="220.3" y="57.7" transform="matrix(0.1234 -0.9924 0.9924 0.1234 102.075 300.3234)" class="st12" width="1.5" height="69.5"/>
		<path class="st12" d="M275.5,212.4c-4.2,0.4-8.5,0.6-12.8,0.7c-4.3,0.1-8.6,0-12.9-0.4c-4.3-0.4-8.5-0.9-12.6-2.1
			c-2-0.6-4-1.3-5.8-2.3c-1.8-1-3.5-2.2-4.6-3.9l0.1,0.7l8.2-28.1l-9.7,27.6l-0.1,0.3l0.2,0.3c1.2,2,3.1,3.5,5,4.7
			c1.9,1.2,4,2.1,6.1,2.8c4.2,1.4,8.6,2.2,12.9,2.9c4.4,0.6,8.8,0.9,13.1,1.1c4.4,0.2,8.8,0.2,13.2,0L275.5,212.4z"/>
		<path class="st12" d="M104.1,203.3c0.6-3.2,0.9-6.4,1.5-9.6c0.3-1.6,0.6-3.1,1-4.6c0.5-1.5,1-3,1.8-4.4c-1.3,1-1.8,1.6-2.4,3.1
			c-0.7,1.5-1.6,4.9-1.9,6.5c-0.3,1.6-2,8.3-2,9.9C102.2,205.9,103.8,201.7,104.1,203.3z"/>
		<path class="st12" d="M196.8,126.9c-9,2-14.1-8.2-14.1-8.3l-0.3-0.7l0.7-0.3c7.9-3.6,12.1-2.7,15.2-2.1c0.3,0.1,0.6,0.1,0.9,0.2
			c3.5,0.7,6.4,7.5,6.8,8.3l0.3,0.8L196.8,126.9z M184.4,118.6c1.2,2.1,5.5,8.3,12.1,6.8l7.7-1.7c-1.1-2.2-3.3-6.2-5.3-6.6
			c-0.3-0.1-0.6-0.1-0.9-0.2c-2.3-0.5-5-1.1-9.4,0.2C187.2,117.5,185.9,117.9,184.4,118.6z"/>
		<path class="st12" d="M241.7,132.5c-4.2,0.6-10.9-5.5-11.2-5.8l-0.5-0.5l0.5-0.5c0.2-0.3,5.7-6.3,11.7-5.8
			c5.1,0.4,6.1,4.7,5.9,6.9l0,0.2c-0.1,0.2-1.7,4.4-5.5,5.4C242.2,132.4,241.9,132.5,241.7,132.5z M241.9,121.3
			c-4.3-0.3-8.5,3.4-9.9,4.8c2.2,1.9,6.8,5.3,9.5,4.9c3.1-0.5,4.7-3.9,5-4.5C246.5,125.8,246.4,121.7,241.9,121.3z"/>
		<path class="st12" d="M225.4,204.7c-0.7,2.3-1.4,4.6-1.9,7c-0.3,1.2-0.5,2.4-0.7,3.5c-0.2,1.2-0.4,2.4-0.4,3.6
			c0.1-1.2,0.4-2.4,0.7-3.5c0.3-1.2,0.7-2.3,1.1-3.4c0.8-2.3,1.7-4.5,2.6-6.7L225.4,204.7z"/>
		<path class="st12" d="M313.9,336.1c-1.6,0.1-4,0.2-5.6,0.3c-1.6,0-3.3,0-4.9,0c-3.3-0.1-6.6-0.4-9.8-1.2c3,1.5,6.2,2.5,9.5,3.3
			c1.6,0.4,3.3,0.8,4.9,1.1c1.7,0.3,3.3,0.6,5,0.9L313.9,336.1z"/>
		<g>
			<path class="st12" d="M201,116.8c0,0-4.2-4.4-12.2-3.9c0,0-6.6,2-7.8,1.8c-1.2-0.2,0.4,6.4,1.8,8c1.1,1.3,4.3,6.2,14,4.2
				c0,0-9.1-0.2-13.4-8.6C183.3,118.2,194.4,113.8,201,116.8z"/>
			<path class="st12" d="M230.9,126.2c0,0,3.5-7.6,15.3-6.9c0,0,3.4,0.4,4.6,1.2c0,0-1.9,4.9-3.3,7c0,0-0.3-4.3-1.8-5.2
				C244.1,121.4,241.9,118,230.9,126.2z"/>
			<path class="st12" d="M221.3,155c-1.1,0.3-1-1.8-2.8-0.4c-0.8,0.7-3.1,1.8-5.3,1.5c-2.2-0.3-3.8-2.7-3.8-2.7s-0.1-0.2-0.3-0.8
				c-0.2-0.8-0.7-0.8-2.9-0.4c-2.2,0.4-2.8,0.2-2.6-1.2s0.2-2.1,1.5-1.4c1.3,0.8,3.4,0.7,4.7,0.8s3.6,3.1,6.1,2.6
				c2.5-0.5,4.1-2.8,5.2-1.6C222.3,152.7,223.8,154.3,221.3,155z"/>
			<path class="st12" d="M222.6,169.2l-4.4-1.1c0,0-2.3-0.4-4.4,0c-2.2,0.4-3.7,0-5.3-0.4c-2.2-0.6-5.7-2.7-10.4-2.2
				c-2.4,0.2,6.5-3.3,7.6-3.3c2,0.1,3.5,1.1,5.7,1.4c2.3,0.4,4.9-0.2,6.7,0.8S222.6,169.2,222.6,169.2z"/>
			<path class="st12" d="M216.9,174.4c0,0-7.9,1.6-15.2-2.4c0,0,2.9,3,7.5,4C213.8,177,216.9,174.4,216.9,174.4z"/>
		</g>
		<path class="st12" d="M236.1,210.6c7.1-4.4,13.9-9.5,19.9-15.4c3-3,5.8-6.1,8.3-9.7c1.2-1.8,2.3-3.6,3.2-5.6c0.9-2,1.7-4,2.1-6.2
			c0.5-2.1,0.6-4.4,0.4-6.6l-0.3-3.2l-0.6-3.2l-0.8-3.1c-0.3-1-0.7-2.1-1-3.1c-0.8-2-1.7-4-2.7-5.9c-2-3.8-4.3-7.3-6-11
			c-1.8-3.7-2.9-7.7-3.4-11.8l-0.3,0c0,1.1-0.1,2.1-0.1,3.2c0.1,1.1,0.1,2.1,0.3,3.2c0.2,1,0.3,2.1,0.7,3.1l0.4,1.6l0.5,1.5
			c1.4,4.1,3.6,7.7,5.3,11.5c1.8,3.7,3.3,7.5,4.2,11.4l0.7,3l0.5,3c0.3,2,0.3,3.9-0.1,5.9c-0.4,2-1,3.9-1.8,5.7
			c-0.8,1.8-1.8,3.7-2.9,5.4c-2.2,3.5-4.9,6.7-7.7,9.7c-5.7,6-12.2,11.4-19,16.2L236.1,210.6z"/>
		<polygon class="st12" points="177.6,90.8 178.8,79.7 174.6,90.3 		"/>
		<path class="st12" d="M50.5,234.5c0.4,2.6,0.9,5.2,2,7.9c2.1,5,5.2,9.5,9,13.3c1.9,1.9,4,3.7,6.5,5c1.8,1,3.7,1.8,5.8,2.3
			l-15.5,74.5c1.1,0.7,2.1,1.3,3.2,1.9l16.7-77.7l0.5-2.3l-2.3-0.2c-4.4-0.4-8.6-3.1-11.9-6.5c-3.3-3.4-6.1-7.6-8-12
			c-0.8-2-1.2-4.5-1.6-7c-0.4-2.5-0.6-4.9-0.7-7.4c-0.3-5-0.2-10,0.5-14.9c0.6-4.9,1.8-9.7,3.8-14.1c2-4.4,4.8-8.3,8.6-11
			c0.9-0.7,1.9-1.3,3-1.8c1-0.5,2.1-0.9,3.4-1.5c2.5-1.1,4.9-2.3,7.1-3.8c4.5-2.9,8.5-6.8,11.6-11.2c3.1-4.4,5.3-9.4,6.9-14.5
			c1.6-5.1,2.5-10.3,3.4-15.2c2-10,3.6-20.2,4.7-30.5c0.5-5.1,0.9-10.3,1-15.5c0-1.3,0.1-2.6,0-3.9c0-1.3,0-2.7,0-3.7
			c0-1.3,0.3-2.6,0.6-3.9c0.2-2.9,1.2-5.9,2.5-8.8c0.5-1.7,1.3-3.3,2.8-5.1c0.2-0.3,0.4-0.5,0.6-0.8c5.7-8.4,13.3-13.7,13.3-13.7
			c-0.1-0.3-0.1-1.8-0.1-2.1c0-0.6,0.2-1.1,0.6-1.5c0.4-0.5,1-0.9,1.7-1.3c0.6-0.3,2.1-0.9,3.1-1.4c4.1-2.2,7.9-4.6,11.7-7
			c7.1-4.6,14.1-9.3,21-14.2c1.9,0.7,3.9,1.1,5.8,1.3c2.4,0.3,4.8,0.2,7.1,0c2.3-0.2,4.6-0.5,6.8-1c2.3-0.5,4.4-1,6.7-1.7l0.6-0.2
			l0.5-0.5c2.3-2.4,4.8-4.4,7.6-6c2.8-1.5,5.9-2.5,9-2.7c3.2-0.3,6.4,0.1,9.5,1c7.2,1.4,12,4,15.1,6.8l1.5,1.5
			c4,4.4,4.3,8.8,4.4,8.9l0.2,0.2c1.9,2.3,4.2,3.4,6.3,4.4c2.2,1,4.4,1.7,6.6,2.3c2.2,0.6,4.4,1.2,6.3,1.7c0.2,0.1,0.4,0.1,0.5,0.2
			c0.1,0.1,0.2,0.3,0.4,0.7c0.3,0.8,0.7,1.8,1,2.9c0.7,2.1,1.6,4.5,3.2,6.7c0.4,0.5,0.9,1,1.3,1.5l0.4,0.4l0.2,0.2l0.5,0.5
			c0.6,0.7,1.2,1.5,1.8,2.3c2.3,3.4,4.1,7.4,5.7,11.3l0.1,0.3l0.2,0.2c3.4,4.5,7.4,8.3,11.2,12c3.8,3.7,7.6,7.4,9.9,11.6
			c0.5,1,1,2.1,1.2,3.2c0.2,1.1,0.3,2,0.1,3c-0.4,2.1-1.6,4.2-3.1,6.2c-3,3.9-7,7.4-11.2,10.3l-0.7,0.5l-0.2,0.7
			c-0.3,1.1-0.3,1.7-0.4,2.5c-0.1,0.7-0.1,1.4-0.1,2.1c0,1.4,0,2.7,0.1,4.1c0.2,2.7,0.5,5.4,1.1,8.1c0.6,2.7,1.4,5.3,2.5,7.9
			c0.6,1.3,1.3,2.5,2,3.8c0.8,1.2,1.6,2.3,2.5,3.3c1.7,2.2,3.9,4.1,5.8,5.8c1.9,1.6,3.1,3.3,4.2,5.5c1.1,2.2,1.9,4.5,2.3,6.8
			c0.4,2.3,0.4,4.6-0.2,6.7c-0.6,2-2,3.6-3.7,4.3c-0.5,0.2-0.9,0.3-1.1,0.3c-0.2,0-0.1,0-0.5-0.2c-0.4-0.2-1.2-1-2.4-1.3
			c-1.2-0.3-2.2-0.1-3.1,0.1c-0.9,0.3-1.5,0.5-2.3,0.9c-0.4,0.2-0.7,0.4-1.1,0.7c-0.5,0.4-1.1,1.3-1.4,1.8c-0.3,0.7-0.4,0.9-0.6,1.2
			c-0.2,0.3-0.5,0.6-0.9,1c-0.8,0.7-1.8,1.3-2.6,1.6c-0.9,0.3-1.8,0.3-3.6,0.6c-0.9,0.2-1.8,0.6-2.5,1.2c-0.7,0.5-1.3,1.1-1.8,1.7
			c-1.1,1.2-1.8,2.7-2.3,4.1c-1,2.9-1.1,5.8-0.8,8.7c0.1,1.4,0.4,2.8,0.8,4.2c0.3,1.1,0.5,2.4,0.7,3.6c0.4,2.5,0.7,5.1,0.9,7.6
			l0.2,1.8l1.8,0.1c3.7,0.2,7.4,1,10.7,2.5c3.3,1.5,6.3,3.7,8.8,6.5c1.3,1.4,2.4,2.9,3.5,4.5l1.7,2.5l0.5,0.6c0.1,0.1,0,0.1,0.1,0.1
			l0.1,0.2c0.2,0.4,0.4,0.8,0.6,1.2c1.7,3.5,3.2,7.2,4.8,10.8c4.7,11.1,9.3,22.3,13.9,33.5c1.4,3.4,6,8.8,7.4,12.2
			c2.6,6.5,2,11.1,4.7,17.6c7.2,17.9,14.3,35.7,21.5,53.6c1.1-0.1,2.1-0.1,3.2-0.2c-9.7-24.8-19.4-49.5-29.2-74.2
			c-5.9-14.7-11.7-29.4-17.8-44.1c-1.5-3.7-3-7.3-4.8-11c-0.2-0.5-0.4-0.9-0.7-1.4c-0.1-0.1-0.1-0.2-0.2-0.4
			c-0.1-0.2-0.3-0.4-0.3-0.5l-0.4-0.5l-1.7-2.4c-1.2-1.7-2.4-3.3-3.8-4.9c-2.8-3.1-6.2-5.8-10.1-7.6c-3.3-1.5-6.9-2.4-10.4-2.8
			c-0.2-2.1-0.4-4.1-0.8-6.2c-0.2-1.3-0.4-2.7-0.8-4.1c-0.3-1.1-0.5-2.3-0.6-3.5c-0.2-2.4-0.1-4.8,0.6-6.8c0.4-1,0.8-1.9,1.5-2.7
			c0.7-0.8,1.4-1.3,2.1-1.4c0.7-0.2,2.5-0.2,4.1-0.8c1.6-0.6,2.2-1.3,3.4-2.3c0.6-0.5,0.9-1.4,1.5-2.9c0,0,0.7-3.1,3-3.7
			c2.3-0.6,4.4,2.8,6,2.7c1.1,0,2-0.3,2.7-0.6c0.9-0.3,1.7-0.9,2.3-1.6c1.1-1,1.9-2.2,2.5-3.6c0.4-0.9,0.7-1.7,1-2.6
			c1-3,1-4.7,0.6-7.6c-0.5-2.8-1.5-5.5-2.7-8c-0.6-1.3-1.4-2.5-2.2-3.7c-0.9-1.2-2-2.3-3-3.2c-2.1-1.8-3.8-3.3-5.3-5.2
			c-0.8-0.9-1.5-2-2.2-3c-0.6-1-1.2-2-1.7-3.1c-1-2.2-1.7-4.6-2.2-7c-0.5-2.4-0.8-4.9-1-7.4c-0.1-1.2-0.1-2.5-0.1-3.7
			c0-0.9,0.1-1.8,0.2-2.6c0,0,0,0,0,0c2-1.5,3.9-3,5.8-4.6c2.1-1.9,4-3.9,5.8-6.2c1.7-2.3,3.3-4.9,3.9-8.1c0.2-0.8,0.2-1.6,0.2-2.5
			c0-0.9-0.1-1.7-0.3-2.4c-0.3-1.6-0.9-3-1.6-4.3c-1.4-2.7-3.2-4.9-5-7c-1.9-2.1-3.8-4-5.7-5.9c-3.8-3.7-7.5-7.3-10.5-11.3
			c-1.7-4.1-3.5-8.1-6-11.9c-0.6-1-1.4-2-2.2-2.9l-0.7-0.7l-0.6-0.6c-0.3-0.3-0.6-0.6-0.8-1c-1.1-1.4-1.8-3.2-2.4-5.3
			c-0.4-1-0.7-2.1-1.2-3.4c-0.3-0.6-0.6-1.3-1.4-2.1c-0.4-0.4-0.9-0.8-1.4-1c-0.4-0.2-0.7-0.3-1-0.4c-2.3-0.7-4.4-1.2-6.5-1.8
			c-2.1-0.6-4.1-1.3-5.9-2.1c-1.6-0.7-3.2-1.7-4.2-2.7c-0.1-0.1-0.2-0.2-0.2-0.2c-7.9-12.6-13.1-14.8-13.1-14.8
			c-1.6-1.1-3-1.9-4.7-2.7c-1.7-0.8-4.7-1.7-6.6-2.2c-3.6-1.1-7-1.2-10.8-0.9c-3.9,0.3-7.7,1.5-11,3.3c-3.1,1.7-5.9,3.9-8.4,6.4
			c-1.8,0.5-3.7,1-5.6,1.4c-2.1,0.4-4.2,0.7-6.2,0.9c-2.1,0.2-4.1,0.2-6.1,0c-2-0.2-3.9-0.7-5.4-1.4l-1.4-0.7l-1.3,0.9
			c-7.3,5.1-14.6,10.1-22,14.9c-3.7,2.4-7.5,4.8-11.2,6.7c-0.5,0.3-0.9,0.4-1.3,0.6c-0.2,0.1-0.4,0.2-0.7,0.3
			c-0.3,0.1-0.6,0.3-0.9,0.4c-1.2,0.6-2.5,1.4-3.5,2.7c-1,1.3-1.7,3-1.7,4.6c0,0.8,0,1.6,0.2,2.3c0,0,0,0.1,0,0.1
			c-3.7,3-7,6.1-10.1,9.7c-3.4,4.1-6.4,8.7-8.3,13.9c-0.9,2.6-1.5,5.4-1.6,8.2c0,1.5,0,2.7,0,4c0,1.3,0,2.5,0,3.8
			c-0.1,5-0.5,10.1-1,15.1c-1,10.1-2.6,20.1-4.5,30.1c-0.9,5.1-1.7,10-3.2,14.7c-1.4,4.7-3.4,9.2-6.1,13.1c-2.7,4-6.2,7.3-10.2,10
			c-2,1.3-4.2,2.4-6.4,3.4c-1,0.5-2.4,1-3.6,1.6c-1.2,0.6-2.4,1.4-3.6,2.2c-4.5,3.3-7.9,8-10,12.9c-2.2,5-3.4,10.2-4,15.4
			c-0.6,5.2-0.7,10.5-0.4,15.7C49.9,229.3,50.1,231.9,50.5,234.5z"/>
		<path class="st12" d="M161,366.7c-2.4-4.9-4.6-10-6.9-15l-6.5-15.2c-4.3-10.2-8.6-20.4-12.8-30.6l-1.5-3.6l-0.8,3.9
			c-0.5,2.4-1.4,5-2.3,7.4c-0.9,2.5-1.9,5-2.9,7.4c-2,4.9-4.1,9.8-6.2,14.7c-3.4,7.8-6.8,15.5-10.4,23.2c0.7,0.2,1.4,0.4,2.1,0.5
			c3.5-7.6,7-15.2,10.3-22.8c2.1-4.9,4.3-9.8,6.3-14.8c1-2.5,2-5,2.9-7.5c0.5-1.4,1-2.8,1.5-4.3c3.7,9.2,7.5,18.3,11.3,27.4
			l6.5,15.3c2,4.7,4,9.4,6.3,14c1.1,0.1,2.2,0.2,3.3,0.3C161.1,367,161.1,366.9,161,366.7z"/>
		<path class="st12" d="M78.5,891.4c0-0.1,0-0.2,0-0.3l0-0.1c0,0.1,0,0.1,0,0.2C78.5,891.3,78.5,891.4,78.5,891.4z"/>
		<path class="st12" d="M80.7,260l-11,1.4c0,0,7.1,2,11.5,1C85.5,261.4,80.7,260,80.7,260z"/>
		<path class="st12" d="M295.7,253.7c1.4,2.1,2.8,4.2,4.2,6.3c0.7,1,1.5,2,2.3,3.1c0.8,1,1.6,2,2.5,2.9c3.4,3.8,7.1,7.2,10.5,10.7
			c1.7,1.8,3.3,3.6,4.8,5.5c1.4,1.9,2.8,3.9,3.9,6c2.4,4.2,4.2,8.7,5.5,13.4c1.3,4.5,1.6,9.2,0.4,13.7c-2.3,9-9.4,16.6-17.4,21.7
			l-0.7,0.4l-0.1,0.7c-0.4,2.6-0.9,5.2-1.5,7.8c-0.6,2.6-1.3,5.2-2.1,7.8c-1.2,4-4.4,10.8-5.1,12.2c0.5,0,1.1-0.1,1.6-0.1
			c1.9-3.8,3.7-7.6,5.3-11.5c1-2.5,1.9-5.1,2.8-7.7c0.8-2.6,1.4-4.5,2-7.2l-0.6,0.3c2.4-1.3,4.5-2.7,6.5-4.3c2.1-1.6,4-3.4,5.7-5.3
			c3.5-3.9,6.4-8.5,7.8-13.7c1.4-5.2,1.2-10.9-0.3-16c-1.5-4.9-3.5-9.7-6.1-14.2c-2.6-4.5-6-8.5-9.6-12.1c-3.7-3.6-7.5-6.7-11-10.2
			c-0.9-0.9-1.7-1.7-2.6-2.6c-0.8-0.9-1.6-1.8-2.4-2.8c-1.6-1.9-3.2-3.9-4.7-5.8c-1.5-2-3-4-4.4-6c-1.4-2.1-2.6-4.2-3.4-6.6
			c0.4,2.5,1.4,4.9,2.6,7.1C293,249.4,294.3,251.6,295.7,253.7z"/>
	</g>
</g>
</svg>
