<?xml version="1.0" encoding="utf-8"?>
<!-- Generator: Adobe Illustrator 23.1.1, SVG Export Plug-In . SVG Version: 6.00 Build 0)  -->
<svg version="1.1" id="Capa_1" xmlns="http://www.w3.org/2000/svg" xmlns:xlink="http://www.w3.org/1999/xlink" x="0px" y="0px"
	 viewBox="0 0 340 300" style="enable-background:new 0 0 340 300;" xml:space="preserve">
<style type="text/css">
	.st0{clip-path:url(#SVGID_2_);}
	.st1{fill:#D7E2EA;}
	.st2{fill:#AC92C4;}
	.st3{fill:#BDCBD5;}
	.st4{fill:#616261;}
	.st5{fill:#7E7F80;}
	.st6{fill:#6CB554;}
	.st7{fill:url(#SVGID_3_);}
	.st8{fill:#AD1547;}
	.st9{opacity:0.51;fill:#FFFFFF;}
	.st10{fill:#606060;}
	.st11{fill:#FFFFFF;}
	.st12{fill:none;}
</style>
<g>
	<defs>
		<rect id="SVGID_1_" x="-4.8" y="-38.1" width="357.4" height="338.1"/>
	</defs>
	<clipPath id="SVGID_2_">
		<use xlink:href="#SVGID_1_"  style="overflow:visible;"/>
	</clipPath>
	<g class="st0">
		<g>
			<path class="st1" d="M11.9,303.9c5.6-10.4,14.1-25.2,22.8-36.9c15.1-20.3,39.3-15.1,54.3-9.8c12.5,4.3,33,20.4,40.8,48.4
				c66.6,0.3,133.1,0.8,199.7,1.7c-0.2-0.3-0.3-0.4-0.3-0.4c5.9-43.9-24.9-67.4-24.9-67.4l-68.7-37.3c-1.6-10,2.2-15.3,5.3-18
				l12.7-4.9l8.7-53.3c8.5-26.2,9.3-78.3,9.3-78.3c3.6-35.4-50.1-48.4-83.1-37.6c-16.2,5.3-23.7,21.1-26.8,32.9
				c5,50.9-9.3,113.4-10.6,123.2c-1.3,9.8-4.6,12.4-19,15.7c-14.4,3.3-34,13.1-34,13.1L76,215.9c0,0-28.8,18.3-51.1,41.2
				c-13.8,14.2-18,33.7-19.3,46.5C7.7,303.7,9.8,303.8,11.9,303.9z"/>
			<path class="st2" d="M241,184.2c2.6-1.2,3.8-2.3,3.8-2.3S243.1,182.5,241,184.2z"/>
		</g>
		<path class="st3" d="M155.1,305.7c0.7,0,1.4,0,2.1,0c-4.6-11.9-13.2-31.3-27.9-56.4c0,0,8.3-41.1,153.7-22.4l-47.3-24.7l-3.3-16.4
			c0,0-39.6,3.3-57.6-18.3l-7.2,24.9c0,0-59.6,11.5-60.9,40.6C106.7,232.9,126.8,251.9,155.1,305.7z"/>
		<path class="st1" d="M128,305.6c0.5,0,1,0,1.5,0c-2.5-6.3-5.9-13-10-21.5c-10.1-20.6-38.3-29.5-38.3-29.5s-15.5-6.1-38.8,6.4
			c-20.2,10.9-29.9,34.5-33.1,42.8C48.9,305,88.5,305.4,128,305.6z"/>
		<path class="st3" d="M9.5,303.8c1.6-3.6,4.9-10.5,8.9-18.5c5.9-11.8,35.4-30.1,44.5-33.4c9.2-3.3,26.2,5.2,36.7,9.8
			c8.4,3.7,22.1,20.3,29.3,43.8c10.7,0,21.4,0.1,32.1,0.2c-0.1-0.3-0.2-0.5-0.3-0.8c-11.8-31.7-52-73.3-52-73.3s3.9-3.3,11.8-11.8
			c7.9-8.5,47.1-27.5,47.1-27.5l7.2-24.9L164.3,157l15.4,15.4l16.4,7.9l5.4-107.8c0.5-21.8,6.8-43.2,18.1-61.8l1.7-2.9L183,11.7
			l-21.3,30.4l0.8,27.5c0,0-3.1,49.3-3.4,58.6c-0.3,9.3-9.8,43.2-9.8,43.2l-10.5,9.2c0,0-24.2,4.6-27.5,6.5
			c-3.3,2-23.6,19.6-23.6,19.6l-44.5,35.4c0,0-28.8,28.2-29.5,30.8c-0.5,2.1-3.9,23.3-5.1,30.9C9,303.8,9.2,303.8,9.5,303.8z"/>
		<path class="st4" d="M187.3,83c-2.5-0.3-5.2,1-5.9,3.5c-1.9,7.3,0.8,9.2,2.1,10.3c3.1,2.5,58.3,7.4,72.2,8.3c2.1,0.1,4-1,4.8-2.9
			c0.9-2.1,1.7-5.3,0.7-9.1c-0.4-1.5-1.8-2.7-3.3-2.8L187.3,83z"/>
		<path class="st5" d="M321.5,53.6"/>
		<path class="st6" d="M187.4,85.4c-1,0.2-2.7,1.9-2.6,4.9c0,3,0.5,4.5,1.4,5.2c0,0,10.9,3.1,52.5,6.5c0,0,13.1,1.4,14.6-0.2
			c1.5-1.5,2.6-8.9,1.7-9.4c-0.8-0.5-49.3-5.2-49.3-5.2L187.4,85.4z"/>
		<linearGradient id="SVGID_3_" gradientUnits="userSpaceOnUse" x1="182.4903" y1="93.9956" x2="257.4551" y2="93.9956">
			<stop  offset="0" style="stop-color:#E5255A"/>
			<stop  offset="0.4045" style="stop-color:#E32459"/>
			<stop  offset="0.6157" style="stop-color:#DB2257"/>
			<stop  offset="0.7823" style="stop-color:#CD1E52"/>
			<stop  offset="0.9246" style="stop-color:#BB194C"/>
			<stop  offset="1" style="stop-color:#AD1547"/>
		</linearGradient>
		<path class="st7" d="M185.3,84.9c-1.1,0.2-2.8,2-2.8,5.2c0,3.2,0.6,4.8,1.5,5.5c0,0,11.6,3.3,55.8,6.9c0,0,13.9,1.5,15.5-0.2
			c1.6-1.6,2.8-9.5,1.9-10s-52.4-5.5-52.4-5.5L185.3,84.9z"/>
		<path class="st8" d="M204.3,99l0.9-12l-19.9-2c0,0-2.1,0.1-2.6,3.2c-0.3,2-0.7,6.3,1.3,7.5l5.5,1.1L204.3,99z"/>
		<path class="st9" d="M221.1,90.6c0,0,32.4,3.2,33.1,3.3c1.7,0.3,1.8,2.2-1.2,1.9c-4.8-0.4-60.9-6.5-60.9-6.5s-0.9-0.2-0.8-0.8
			C191.4,87.1,221.1,90.6,221.1,90.6z"/>
		<g>
			<path class="st3" d="M63.3,251.7c0.2-0.1,0.5-0.2,0.8-0.4C63.9,251.4,63.6,251.6,63.3,251.7z"/>
			<path class="st3" d="M64.1,251.3c0.2-0.1,0.5-0.2,0.7-0.4C64.6,251.1,64.4,251.2,64.1,251.3z"/>
			<path class="st3" d="M63.2,251.7c0,0,0.1,0,0.1-0.1C63.3,251.7,63.3,251.7,63.2,251.7z"/>
			<path class="st3" d="M62.9,251.9c0,0,0.1-0.1,0.4-0.2C63.1,251.8,63,251.9,62.9,251.9z"/>
			<path class="st3" d="M64.9,250.9c0.2-0.1,0.3-0.2,0.5-0.3C65.2,250.8,65,250.9,64.9,250.9z"/>
			<path class="st3" d="M40.7,304.6c-0.3-21.1,4.1-43.8,22.2-52.7c0,0-42.2,6.5-53.8,51.8C19.6,304.1,30.1,304.4,40.7,304.6z"/>
			<path class="st3" d="M79.3,243.8C79.5,243.8,79.5,243.8,79.3,243.8L79.3,243.8z"/>
			<path class="st3" d="M76.8,245.1c0.2-0.1,0.3-0.2,0.5-0.2C77.1,244.9,77,245,76.8,245.1z"/>
			<path class="st3" d="M74.4,246.3c0.5-0.2,0.9-0.4,1.3-0.6C75.3,245.8,74.8,246,74.4,246.3z"/>
			<path class="st3" d="M77.3,244.9c0.2-0.1,0.3-0.2,0.5-0.2C77.6,244.7,77.4,244.8,77.3,244.9z"/>
			<path class="st3" d="M65.4,250.7c0.5-0.2,1-0.5,1.4-0.7C66.3,250.2,65.8,250.5,65.4,250.7z"/>
			<path class="st3" d="M79,244c0.1-0.1,0.3-0.1,0.3-0.2C79.2,243.9,79.1,243.9,79,244z"/>
			<path class="st3" d="M77.7,244.6c0.3-0.1,0.5-0.3,0.7-0.4C78.2,244.4,78,244.5,77.7,244.6z"/>
			<path class="st3" d="M78.5,244.3c0.2-0.1,0.4-0.2,0.5-0.3C78.9,244.1,78.7,244.2,78.5,244.3z"/>
			<path class="st3" d="M75.7,245.6c0.4-0.2,0.8-0.4,1.1-0.6C76.5,245.2,76.1,245.4,75.7,245.6z"/>
			<path class="st3" d="M67.6,249.6c0.3-0.1,0.5-0.3,0.8-0.4C68.1,249.4,67.8,249.5,67.6,249.6z"/>
			<path class="st3" d="M68.4,249.2c0.5-0.3,1-0.5,1.6-0.8C69.4,248.7,68.9,249,68.4,249.2z"/>
			<path class="st3" d="M66.8,250c0.2-0.1,0.5-0.2,0.8-0.4C67.3,249.7,67.1,249.9,66.8,250z"/>
			<path class="st3" d="M73,246.9c0.5-0.2,0.9-0.5,1.4-0.7C74,246.5,73.5,246.7,73,246.9z"/>
			<path class="st3" d="M71.6,247.6c0.5-0.2,0.9-0.5,1.4-0.7C72.6,247.2,72.1,247.4,71.6,247.6z"/>
			<path class="st3" d="M69.9,248.4c0.5-0.3,1.1-0.5,1.6-0.8C71,247.9,70.5,248.2,69.9,248.4z"/>
			<path class="st3" d="M71.5,247.7C71.6,247.7,71.6,247.6,71.5,247.7C71.6,247.6,71.6,247.7,71.5,247.7z"/>
		</g>
		<path class="st10" d="M116.9,305.5c3.7,0,7.4,0,11.2,0.1c0.4,0,0.8,0,1.2,0c-1.3-4.5-2.9-9.3-5-14.5c-9.2-22.7-43-36.4-43-36.4
			C104.2,267.5,113.4,288.3,116.9,305.5z"/>
		<path class="st11" d="M17.3,304c1.5-12.9,2.5-23.9,1.1-18.7c-0.7,2.3-3.3,10.2-6.1,18.6C13.9,303.9,15.6,304,17.3,304z"/>
		<path class="st11" d="M51.9,304.8c0.9-12.2,3.4-19.2,7.6-30c4.5-11.4,17-20.9,17-20.9s-20.3-1.3-25.5,2.6
			c-3.9,2.9-17.3,16.6-19.5,47.9C38.4,304.5,45.1,304.7,51.9,304.8z"/>
		<path class="st10" d="M28.1,304.3c0.8-13.7,3.6-28.2,10.8-39.6c12.5-19.9-15.4,15.4-15.4,15.4l-7.2,16.4l-0.6,7.5
			C19.9,304.1,24,304.2,28.1,304.3z"/>
		<path class="st10" d="M57.6,304.9c1.2,0,2.5,0,3.7,0.1c10.7-31.2,30.2-42.3,33.6-44.5l-5.9-3.3l-7.9-2.5c0,0,0.1,0,0.1-0.1
			c0,0,0,0-0.1,0.1c-0.2,0.2-0.4,0.3-0.5,0.5c0.2-0.2,0.4-0.4,0.5-0.5C64.8,269.9,59.4,290.6,57.6,304.9z"/>
		<path class="st3" d="M110.2,305.5c-2.5-14.8-7.5-32-17.9-39.8c0,0-14.8,19-24.9,39.4C81.7,305.2,96,305.4,110.2,305.5z"/>
		<path class="st11" d="M106.9,305.4c-0.4-2.5-0.7-4.5-0.9-5.9c-0.7-5.2-4.1-6-4.6,5.8C103.2,305.4,105,305.4,106.9,305.4z"/>
		<path class="st3" d="M31.4,304.4c-0.6-2.8-1.1-5.7-1.6-8.7l0.3,8.7C30.5,304.4,30.9,304.4,31.4,304.4z"/>
		<path class="st11" d="M242.2,12.3c-4.7,1.7-0.5,21.1,13.7,33.4c8.3,7.1,18.2,12.8,18.2,7.4s-4.4-18.7-4.4-18.7
			S252.1,8.9,242.2,12.3z"/>
		<path class="st10" d="M9.7,303.8c4.3-7.8,17.4-30.9,25-36.8c9.2-7.2,19.6-23.6,60.2-6.5c20.6,8.7,30.2,27.5,34.6,45.1
			c4.6,0,9.1,0,13.7,0.1c-4.6-14-14.9-30.8-14.9-30.8C102.1,229,57,239.5,57,239.5c-40.5,7.4-47.4,52.7-48.5,64.3
			C8.9,303.8,9.3,303.8,9.7,303.8z"/>
		<path class="st11" d="M109.7,223.5c-1.9,6,46.2-20,46.2-20s-6.5-11.8-19.6-5.2C134,199.3,112.6,214,109.7,223.5z"/>
		<path class="st10" d="M235,187.8L235,187.8c0,0-35.4,24.9-53.7,23.6c-18.3-1.3-16.7-8.5-27-17.3c-3.8-3.2-21.6-2.9-21.6-2.9
			c-11.1,5.2,4.1-10.5,11.3-13.7c7.2-3.3,12.4-20.9,12.4-20.9l2.9-37.5l2.1-78.7l13.6-20.9l21.6-10.5l-0.4,0.6
			c-11.1,16.5-17.3,35.8-18,55.6l-4.1,100.9l-9.8-8.8l0,0C164.3,157,178.7,185.8,235,187.8z"/>
		<path class="st10" d="M74.4,246.3c4.9-2.4,29.7-32.3,34.3-36.9c4.6-4.6,27.5-19.6,40.6-17.7s5.2-12.4,5.2-12.4l-22.3,2.6
			c0,0-30.8,7.9-50.4,28.8s-38.6,31.4-38.6,31.4L74.4,246.3z"/>
		<path class="st3" d="M62,235.7c9.3-11.3,25.7-29,25.7-29s-27.2,27.5-30.6,29S62,235.7,62,235.7z"/>
		<path class="st3" d="M66.5,230.8c0,0,16.6-12.6,25-20.1c13.7-12.3,24.1-18.2,34.4-23.1s21.6-2,26-5.4s4.9-8.3,6.9-24.5
			c1.6-13.4,2.5-51.6,2.5-51.6s4.4-42.2,5.9-53.5c1.5-11.3,5.9-25.5,10.8-30c4.9-4.4,10.8-8.8,10.8-8.8s-14.7,2.9-22.6,23.6
			l-2.5,14.2l-1.5,44.2c0,0-2.9,33.4-3.4,39.3c-0.5,5.9-6.9,37.3-10.3,41.2c-3.4,3.9-12.8,4.4-12.8,4.4s-19.3,2.9-24.4,6.4
			c-5.1,3.4-43.4,35.4-43.4,35.4l-7.9,9.3L66.5,230.8z"/>
		<path class="st10" d="M124.9,256.3c7.2,8.3,26.8,37.4,34.7,49.4c0.5,0,1,0,1.6,0c-4.8-13.6-17.4-50-17.8-59.7
			c-0.8-20.1,41.2-23,39.3-22.9c-19,1.3-50,2.9-67.1,8.2C93.5,238.2,115.7,245.9,124.9,256.3z"/>
		<path class="st10" d="M161,305.7c-2.1-4.6-3.8-8.8-4.9-12.2l-6.2-6.2l8.6,18.4C159.4,305.7,160.2,305.7,161,305.7z"/>
		<path class="st3" d="M230.5,213.6l24.1,24.5c0,0-6.4-9.6-1-13s18.7-0.2,18.7-0.2l-21.6-4.9L230.5,213.6z"/>
		<path class="st3" d="M182.7,223.1c0,0,43.1-5,64.5,5.2c12.3,5.9-4.4-10.3-4.4-10.3l-24.1-4.4L182.7,223.1z"/>
		<path class="st10" d="M289.1,306.8c0.8,0,1.6,0,2.4,0c-9.8-30.4-26.1-65.2-52.3-82.9C239.3,223.9,267.5,247.3,289.1,306.8z"/>
		<path class="st10" d="M244.2,228c-2.2-2.1-15.1-6.9-34.1-6.1c-52.7,2.3-21.5,3.9,5.2-7.9c8.3-3.7,12.6-11.9,13.6-16.2
			c0,0,1,7.5,2,8.8c1,1.3,27.2,12.8,27.2,12.8l18.7,7.5c0,0-34.5-10-21.4,11.1L244.2,228z"/>
		<path class="st10" d="M139.1,227.1c0,0,58.9-4.9,71-10.8l2.3,5.6c0,0-43.1,2.2-55.5,7.4c-12.4,5.2-27,7.3-27,7.3L139.1,227.1z"/>
		<path class="st10" d="M186.3,223.9c0,0,45.4-3.4,60.6,7.4c0,0,0.5-6.6-2.5-9.1c-2.9-2.5-18.7-5.2-18.7-5.2L186.3,223.9z"/>
		<path class="st11" d="M209.8,225.4c3.9,0,27.5,1.5,33.9,7.4s15.7,19.4,15.2,20.4c-0.5,1-10.2-9.6-17.2-14.7
			c-11-8.1-30.8-8.1-34.9-11C205,226,209.8,225.4,209.8,225.4z"/>
		<path class="st11" d="M329.6,307.3l-9.5-17.4c0,0,2.5,7.2,5.6,17.4C327,307.3,328.3,307.3,329.6,307.3z"/>
		<path class="st10" d="M328,307.3l0.6-13.5c-5.2-4.6-22.9-36-22.9-36l21.2,49.5C327.3,307.3,327.7,307.3,328,307.3z"/>
		<path class="st10" d="M13.6,303.9c17.5-51.3,53.8-49.3,56.4-49.1c19.2,3.4,48.2,17.7,57.5,50.7c0.2,0,0.4,0,0.5,0c1.7,0,3.3,0,5,0
			c-2.1-7.5-5-14.7-8.8-21.2c-11.4-19.1-29.8-31.3-53.3-35.4l-0.2,0c-0.6-0.1-14.2-1.3-29.6,7.9c-17.4,10.5-27.7,28.7-33.7,46.8
			C9.5,303.8,11.5,303.9,13.6,303.9z"/>
		<path class="st10" d="M100.4,248.3c8.6,4.9,16,11.9,21.7,20.1c5.8,8.1,10.7,17,14.7,26.2c1.6,3.6,3,7.3,4.2,11.1
			c1.4,0,2.7,0,4.1,0c-1.3-4.3-2.9-8.6-4.7-12.7c-4.2-9.4-9.2-18.4-15.3-26.8c-6.1-8.4-14-15.7-23.2-20.6
			c-9.2-4.9-19.6-7.3-29.9-7.7c-5.1-0.1-9.9-0.5-14.9,0.3c-6.4,0.3-10.5,2.8-15.2,4.6c7.9-0.8,14.4-1.3,29.6-1.6
			C81.6,241.9,91.8,243.3,100.4,248.3z"/>
		
			<rect x="136.2" y="91.5" transform="matrix(4.003303e-02 -0.9992 0.9992 4.003303e-02 59.8941 251.3087)" class="st10" width="49.1" height="5.9"/>
		<polygon class="st10" points="267.3,113.2 259.6,120.4 267.7,78.2 273.7,81.1 		"/>
		<path class="st10" d="M167.7,106.5l-0.1,7.4l-1.4,43.2l-0.4-1.2c4.2,5,8.6,9.9,13.9,13.6c2.5,2.1,5.4,3.6,8.1,5.3
			c1.4,0.8,2.9,1.4,4.3,2.1c1.4,0.8,3,1.3,4.5,1.9c6,2.3,12.4,3.8,18.8,4.5l4.8,0.4c1.6,0,3.2,0.1,4.8,0.1c3.2,0,6.5-0.3,9.5-0.8
			l1.1,5.8c-3.7,0.5-7,0.6-10.5,0.6c-1.7,0-3.4-0.1-5.2-0.2l-5.1-0.5c-6.8-0.9-13.5-2.7-19.9-5.3c-1.6-0.6-3.2-1.3-4.7-2.1
			c-1.5-0.8-3.1-1.5-4.6-2.4c-2.9-1.9-5.9-3.6-8.5-5.9c-1.3-1.1-2.8-2.1-4-3.3l-3.7-3.6c-1.3-1.2-2.3-2.5-3.4-3.9l-3.2-4l-0.4-0.5
			l0-0.7L167.7,106.5"/>
		<path class="st12" d="M200.3,141.3l19-0.7c0,0,3.3,1.3,8.5,0.7l13.7,3.9C241.6,145.2,213.4,143.9,200.3,141.3z"/>
		<path class="st12" d="M217.1,149l8.9,0.5c1.6,0.1,3.1,0.7,4.3,1.6l2,1.6c0,0-14.2,1.1-23.6-1.8l1.8-0.8
			C212.7,149.3,214.9,148.9,217.1,149z"/>
		<path class="st12" d="M174.8,85c0,0,47.8,32.7,89.7,9.5L174.8,85z"/>
		<path class="st12" d="M201.7,140.7c0,0-1.3-0.7-1.3,0.6c-0.1,2,1.1,0,3.4,0.5C206.1,142.3,201.7,140.7,201.7,140.7z"/>
		<path class="st12" d="M241,144.6c0,0,1.4-0.2,1.1,1c-0.6,1.9-1.1-0.4-3.4-0.6C236.3,144.8,241,144.6,241,144.6z"/>
		<path class="st10" d="M277.4,82C277.4,82,277.5,82.2,277.4,82L277.4,82z"/>
		<path class="st10" d="M271.8,81.7L271.8,81.7c0.5-0.1,1.2-0.5,1.9-0.6c0.5-2.6,0.9-4.9,1-6.3l2.7-27.5h-7l-2.8,30.9
			c0,0.3,0,0.6,0.1,1C268.2,81,270,82.2,271.8,81.7z"/>
		<path class="st10" d="M165.9,48.9c0,0,0-11.5,6.1-20.4l-2.5-2.2l-5.3,7l-1,9.5L165.9,48.9z"/>
		<path class="st10" d="M159.9,38.2c-0.1,0.3-0.1,0.6-0.2,0.9l-1,20.4c0,0,0,0.1,0,0.1c0.2,0.3,0.1,12.4,0.1,12.4l0,0.2
			c0.3,0.2,0.6,0.4,0.9,0.6l0,0c0.5,0.4,1.2,0.6,1.9,0.7c1.9,0.1,2.8,1.9,2.8-0.1l2.2-35.1H159.9z"/>
		<path class="st10" d="M263.8,19.5C252.1,9,230.1-1.5,198.7,4.8c-30.7,6.1-36.6,25.1-38.5,31.6c-0.2,1.1-0.4,2.1-0.6,2.8
			c0.7,1.8,7-1,7-1s7.2-16.4,19.6-21.9c12.4-5.6,28.8-6.5,36.7-5.2s25.9,4.6,36.7,16c10.8,11.5,10.9,20.3,10.9,20.3h7
			C277.4,47.3,276.6,31,263.8,19.5z"/>
		<polygon class="st10" points="254.3,153.4 246.1,144.9 247.4,145.5 196,138.5 196.5,138.4 181.6,144.5 181.1,144.7 180.8,144.2 
			167.1,118.4 181.9,143.6 181.1,143.3 195.7,136.6 195.9,136.5 196.2,136.5 247.9,141.3 248.6,141.4 249.1,141.9 257.7,150.1 		"/>
		<g>
			<path class="st10" d="M232.7,202.3c0,1,0.6,2,1.6,2.5l68.5,36.9c4.2,4,8.2,8.7,11.7,13.6c3.6,5,6.6,10.3,9,15.8
				c2.4,5.6,4.1,11.4,4.7,17.4c0.7,6,0.2,12-1.3,17.8c-0.1,0.3-0.1,0.7,0,1c1.8,0,3.6,0.1,5.4,0.1c-0.1-0.2-0.2-0.5-0.4-0.7
				c1.5-6.1,2-12.4,1.3-18.6c-0.7-6.5-2.5-12.9-5-18.9c-2.5-6-5.7-11.6-9.5-16.9c-3.7-5.3-7.8-10.2-12.6-14.8
				c-0.1-0.1-0.3-0.2-0.5-0.3l-0.1,0l-67.1-36.7l-0.4-12c0.9-0.2,1.8-0.4,2.6-0.7c1.7-0.6,3.4-1.2,5-2.1c1.6-0.8,3.2-1.7,4.6-2.7
				c1.5-1,2.9-2,4.4-3.3c0.5-0.4,0.8-1,1-1.7l0-0.1l9.7-54.5l1.9-10.2c-0.7,0.5-1.5,1-2.1,1.7c-0.6,0.8-1.2,1.4-1.8,2
				c-0.6,0.5-1.2,0.8-1.7,1l-0.1,0c-1.2,0.3-1.7,1.3-2,2.6l-9.8,55.2c-0.9,0.7-1.8,1.4-2.8,2.1c-1.3,0.9-2.6,1.6-4,2.3
				c-1.4,0.7-2.8,1.3-4.2,1.7c-1.4,0.5-2.8,0.8-4.3,1l-0.1,0c-1.5,0.2-2.6,1.6-2.5,3.1L232.7,202.3L232.7,202.3z"/>
			<path class="st10" d="M8.7,303.8c0.8-5.3,2-10.5,3.7-15.5c2-6.3,4.7-12.4,8-18.1c3.4-5.7,7.4-10.9,12.1-15.6
				c1.1-1.2,2.4-2.2,3.6-3.4c1.2-1.1,2.5-2.1,3.8-3.1l4.1-3l4.1-3.1c5.5-4.1,10.9-8.3,16.3-12.6c5.4-4.2,10.8-8.5,16.1-12.9
				c5.2-4.4,10.3-8.7,15.2-13.9c3.5-2.8,7.5-5.5,11.5-7.9c4.1-2.4,8.3-4.6,12.6-6.4c4.3-1.9,8.8-3.3,13.3-4.5
				c4.5-1.2,9.1-1.7,13.7-1.9l0.2,0c1-0.1,1.9-0.6,2.5-1.5c0.9-1.4,1.4-2.5,2-3.8c0.6-1.2,1.1-2.5,1.6-3.7c1-2.5,1.9-5,2.7-7.5
				c1.6-5,2.8-10.1,3.8-15.3c1-5.1,1.2-9.9,1.8-15.1l0.7-7.4l0.6-8.6c0,0-0.1-3.1-0.1-3.1c0.1-1.8-0.8-0.3-2.7-0.4l-0.2,0
				c-0.8,0-1.9-0.2-2.8-0.4l-0.7,6.7l-0.3,4.5l-0.7,7.5c-0.6,5-1.3,10-2.2,14.9c-1,4.9-2.1,9.8-3.6,14.6c-0.7,2.4-1.6,4.7-2.5,7
				c-0.5,1.1-0.9,2.3-1.4,3.4c-0.3,0.5-0.5,1.1-0.8,1.7c-4.5,0.3-8.9,0.9-13.2,2c-4.9,1.3-9.7,2.8-14.3,4.9c-4.6,2-9,4.3-13.3,6.9
				c-4.3,2.6-8.3,5.3-12.4,8.6c-0.1,0.1-0.2,0.1-0.2,0.2l-0.1,0.1c-4.4,4.7-9.6,9.2-14.8,13.5c-5.2,4.4-10.5,8.6-15.9,12.9
				c-5.4,4.2-10.8,8.4-16.2,12.5l-4.1,3.1l-4.2,3.1c-1.4,1.1-2.8,2.2-4.1,3.4c-1.3,1.2-2.7,2.4-3.9,3.7c-5,5-9.4,10.7-13,16.8
				c-3.5,6.1-6.4,12.6-8.5,19.4c-1.8,5.6-3.1,11.4-3.9,17.2C4.7,303.6,6.7,303.7,8.7,303.8z"/>
		</g>
	</g>
</g>
</svg>
