<?xml version="1.0" encoding="utf-8"?>
<!-- Generator: Adobe Illustrator 23.1.1, SVG Export Plug-In . SVG Version: 6.00 Build 0)  -->
<svg version="1.1" id="Capa_1" xmlns="http://www.w3.org/2000/svg" xmlns:xlink="http://www.w3.org/1999/xlink" x="0px" y="0px"
	 viewBox="0 0 94 80" style="enable-background:new 0 0 94 80;" xml:space="preserve">
<style type="text/css">
	.st0{fill:#FFFFFF;}
	.st1{clip-path:url(#SVGID_2_);}
	.st2{fill:#D8E3EB;}
	.st3{fill:#BECCD6;}
	.st4{fill:#606060;}
	.st5{fill:#AD93C5;}
	.st6{fill:#E6255A;}
	.st7{fill:#AE1547;}
	.st8{fill:#F08FB2;}
	.st9{fill:none;}
	.st10{fill:#6E6F70;}
	.st11{fill:#616261;}
	.st12{fill:#7E7F80;}
	.st13{fill:#6CB654;}
	.st14{fill:url(#SVGID_3_);}
	.st15{opacity:0.51;fill:#FFFFFF;}
	.st16{fill:#404041;}
	.st17{opacity:0.89;fill:#59595B;}
	.st18{opacity:0.63;fill:#9277B3;}
	.st19{fill:none;stroke:#606060;stroke-miterlimit:10;}
	.st20{fill:#1DCE58;}
</style>
<g>
	<g>
		<g>
			<g>
				<path class="st0" d="M47.4,79.5c-19.8,0-36-16.1-36-36s16.1-36,36-36c19.8,0,36,16.1,36,36S67.2,79.5,47.4,79.5z M47.4,8.6
					c-19.3,0-35,15.7-35,35c0,19.3,15.7,35,35,35c19.3,0,35-15.7,35-35C82.3,24.3,66.6,8.6,47.4,8.6z"/>
			</g>
		</g>
		<g>
			<g>
				<defs>
					<path id="SVGID_1_" d="M82.3,43.6c0,19.3-15.6,34.9-34.9,34.9S12.6,62.8,12.6,43.6S28.2,0.9,47.5,0.9S82.3,24.3,82.3,43.6z"/>
				</defs>
				<clipPath id="SVGID_2_">
					<use xlink:href="#SVGID_1_"  style="overflow:visible;"/>
				</clipPath>
				<g class="st1">
					<path class="st2" d="M6.7,242.6l2.4-8.2c0,0,4.6-11.4,8.7-15.2c0,0,9.3-40.9,9.9-44.1s1.8-7,1.2-11.6
						c-0.6-4.6-1.7-8.5-1.2-10.5c0.5-2,1.7-6.4,2.7-8.2c1.1-1.8,2.6-4,2.6-4s3.8-8.1,2.1-17.9l32.2-4.9c0,0,8.2-3.2,9.3-0.8
						l0.3,12.2l-0.5,13.8c0,0,1.1,2,0.9,2.7c-0.2,0.8-0.5,8.1-0.5,8.1s-0.6,6.2,0,10c0.6,3.8,2.4,16,1.8,24.3
						c-0.6,8.4-1.8,15.1-3.2,17.6c0,0-3.5,4-4.5,8.2c-1.1,4.1-3.4,8.3-3.4,8.3l-5.3,5.3l-1.4,5.8c0,0-1.4,3.2-11.7,2.1l-2.3,2.9
						c0,0-7.3-1.5-8.4-2.4l-2,6.2l-3.5,6.9c0,0-9.6,1.6-16.1-1.4l-2.7,2.7C14.3,250.7,8.1,246.6,6.7,242.6z"/>
					<path class="st3" d="M57,142.6l-3.8,3c-1.2,1-1.2,1.2-2.9,3.5l-1.8,4.1l10.7,7.6l-11.6-6.4c0,0-3.7,31.6-15.8,70
						c0,0,2.4,4,12.8,2.4l-7.3,12.2l-4.1,10.4c0,0-10.4,1.2-15.5,0l-4.1,1.9l-6.8-8.6l5.9-16.1l5.2-7.3L29,169l-0.3-9.1
						c0,0-4.3-7.6,4.3-19L57,142.6z"/>
					<path class="st2" d="M22.8,243.5c-0.2-0.5,1.3-1.9,1.3-1.9l8.4-19.6l8.1-33.5c0,0,6.2-28.6,5.8-33.3c0,0-3.5-3-4.6-3.2
						c-0.2,0-0.9,4.2-1.3,8.7c-0.4,5.3,0.9,12.5-1.1,18.8c-2.1,6.3-4.6,5.7-6.3,12.1c-3.1,12-4.7,23-5.8,27.3
						c-1.4,5.2-3.2,13.8-3.6,15.5c-0.1,0.2-0.1,0.5-0.1,0.8L22.8,243.5z"/>
					<path class="st3" d="M65.6,172.7l2.7,0l-5,40.3l7.8,1.3l-2.5,9l-6.2,4.6l-1.4,5.8c0,0-1.8,3.8-8.2,2.6l-3.5-0.5l-2.3,2.9
						l-8.5-2.1l10.8-16l3.8-7.6l3.8-10.2C56.9,202.7,64.9,175,65.6,172.7z"/>
					<path class="st2" d="M58,144.8c0,0-18.3-1.9-22.1-3l24.9,1.4L58,144.8z"/>
					<path class="st4" d="M76.5,143.3l0.6-15.9L77,116.5c0,0-3.5-1.4-9.6,1.5l-8.8,1.2l-23.4,3.7v10.4c0,0-0.2,5.9-2.1,7.5
						C33,140.8,41,143.2,76.5,143.3z"/>
					<g>
						<path class="st2" d="M56.3,46.2c-0.7,0.6-1.6,1.9-1.2,4.2L71,59c0,0,7.1,5.5,5.8,15.7c0,0,4.9,7.3,3.7,18.1c0,0-3.3,2.3-4,5
							l0.4,19.3c-0.4-0.6-2.2-1-4.6-0.6c-6.2,1.1-13.7,2.7-13.7,2.7l-19.5,2.9c0,0-3,0.4-3.7,1.3c-0.3-1.1-0.9-2.9-2.1-4.4
							c-1.8-2.3-12.3-12.8-11.7-15.4C22.2,101,27,90.3,27,90.3s4.6-2.3,4.1-11.6c-0.5-9.3-6.7-14.4-10.2-15.7
							c-3.5-1.2-9.1-2.4-12.6,2.3C4.8,70.1,1.5,77,1.5,77s-0.6-8.5,4.6-13.8c5.2-5.3,11.9-9.6,11.9-9.6l5.2-4.9c0,0,4.6-2.3,7.9-3
							c3.3-0.8,4.1-1.4,4.4-3.7c0.3-2.3,3.6-16.8,2.5-28.6c0.7-2.7,2.5-6.4,6.2-7.7c7.7-2.5,20.2,0.5,19.3,8.7
							c0,0-0.2,12.1-2.2,18.2l-2,12.4L56.3,46.2"/>
						<path class="st5" d="M35.6,124.3c0,0-0.1-0.3-0.2-0.9C35.2,123.6,35.2,123.9,35.6,124.3z"/>
						<path class="st5" d="M76.9,117.4l0,1.4C76.9,118.8,77.3,118.1,76.9,117.4z"/>
						<path class="st5" d="M56.3,46.2c0.6-0.3,0.9-0.5,0.9-0.5S56.7,45.8,56.3,46.2z"/>
					</g>
					<path class="st3" d="M37.8,77.4c0,0-1.7-6.2-7.5-16.1c0,0,1.9-9.5,35.7-5.2l-11-5.7l-0.8-3.8c0,0-9.2,0.8-13.4-4.3l-1.7,5.8
						c0,0-13.8,2.7-14.1,9.4C25.1,57.5,30.5,62.6,37.8,77.4z"/>
					<path class="st4" d="M6.7,242.6c0,0,2.1,5.1,7.6,8.1l2.7-2.7c0,0,11.4,3.5,16.1,1.4c0,0-6.7,34.6-6,50.3
						c0.7,15.7,17.1,30.8,17.1,30.8s0.8,5-0.7,6.7c-1.5,1.7-13.2,3.2-18.4,0.9c-5.1-2.3-11.3-6.8-14.1-10.4s-6.3-4.4-6.3-4.4
						l-0.2-10.5l1.5-5.4c0,0-1.1-23.8-1.3-24.5C4.7,282.2,4,260.8,4,257c0-3.9,1.5-11.9,1.5-11.9L6.7,242.6z"/>
					<path class="st4" d="M33.6,306l-1.5-10.5c0,0,2.7-7.8,2.9-15.1c0.2-7.3-0.9-25.1-1.1-28.4s0.8-7.3,1.4-8.1s1.8-4.1,2-5
						c0.2-0.9,1.4-2.7,1.4-2.7s6.2,3.3,8.4,2.4c2.1-0.9,2.3-2.9,2.3-2.9s3.7,0.8,4.9,0.8s4.6,0.5,5.5-0.6c0.9-1.1,2-4.1,2-4.1
						s1.2,0.2,1.5,1.8l-2.4,9.9c0,0-3.8,14-4.6,22.5c-0.8,8.5,0.8,13.7,4,16.7s7.5,7.3,7.5,7.3s8.8,7.6,17.2,8.5c0,0,2.4-0.6,2.7,3
						s-2.1,8.2-2.1,8.2s-11.6,2.4-17.3,0.8s-18.4-4.4-18.4-4.4L33.6,306z"/>
					<path class="st6" d="M6.3,155.5c0,0-9.5,10-17.9,4.3c0,0-0.1-4.8-2.3-10.7c-2.2-5.9-3.7-11.7-2.7-16.8c0,0,7.6-4.8,20.9-3
						c0,0,6.4,1.4,7.9,6.8C12.1,136.2,7.1,145.8,6.3,155.5z"/>
					<path class="st2" d="M-9.3,165.3l-0.4-4.2c0,0,3.2,0.9,4.4,0.6c1.2-0.3,7.9-2.4,11.5-6.2c0,0,5.9,2.8,7.3,4.6l4,7.6
						c0,0,1.3,2.2,1.2,3.7c0,0-0.1,1.4-1,1.8c-0.9,0.5-2.4,1.2-2.4,1.2l0.6,0.8c0,0,0.4,0.7,0.3,1.2c-0.1,0.5-1,3.3-1,3.3l-1,2.7
						L9.7,184l-14.7-3.2l-2.1-2.3c0,0-1.1-4-1.2-4.9C-8.5,172.6-9.3,165.3-9.3,165.3z"/>
					<path class="st2" d="M-15,131.4c0,0,3-15.7,4.3-18.5c0,0,6.8-6.1,6.8-13.9L-4,96.6l-0.7-4c0,0-0.1-4.6,1.5-6.8
						c1.5-2.2,4.1-5.7,4.1-5.7s0.9-4.7,1.3-5.5s2.5-7.6,7.9-10.6c5.4-2.9,9-1.5,9-1.5s6.6,2.1,8.9,6.8s3.7,7.2,3.3,11.6
						c-0.5,4.4-1.7,6.6-1.7,6.6l-1.8,1.8l-7.1,16.4l-3.3,7.6l-3.1,4.9l-2.2,2c0,0,1.3,2.6,1,5.5c-0.2,2.9-0.5,5.4-0.6,5.6
						c-0.1,0.2-1.1,3.3-1.1,3.3s-5.1-5.6-8.7-5.5S-7.6,128.2-15,131.4z"/>
					<path class="st3" d="M40.9,42.3l-1.7,5.8c0,0-9.1,4.4-11,6.4c-1.8,2-2.7,2.7-2.7,2.7s9.4,9.7,12.1,17
						c2.6,7.1,7.1,16.6,10.6,17.9c3,1.2,23,0.6,23,0.6s-12.3,5.6-17.8,5.5c0,0-7.3,0.3-10.8-2c0,0,7.6,19.2,7.9,20.8l-0.2,2.9
						l-15.2,2.9l-0.8-3.2l-13.2-15l6.6-15.3c0,0,4.3-2.9,3.4-10.6s-5.3-13.5-7.8-14.6c-2.4-1.1-6.4-3-8.5-2.3c-2.1,0.8-9,5-10.3,7.8
						s-2.3,4.9-2.3,4.9s1.1-7.2,1.3-7.8c0.2-0.6,6.8-7.1,6.8-7.1l10.3-8.2c0,0,4.7-4.1,5.5-4.6c0.8-0.5,6.4-1.5,6.4-1.5l2.4-2.1
						c0,0,2.2-7.9,2.3-10C37.3,31,38,19.5,38,19.5l-0.2-6.4l4.9-7.1l8.9-0.9l-0.4,0.7c-2.6,4.3-4.1,9.3-4.2,14.4l-1.3,25L42,43.4
						l-3.6-3.6L40.9,42.3z"/>
					<path class="st2" d="M58.2,236.4c0,0-4.8,18.7-5.5,20.5c-0.7,1.8-2.7,28.7-2.7,29.9l4.3-5.7c0,0,1.8,11.6,3.2,15.1
						c1.4,3.4,21.8,7.7,27.2,2.4c0,0-13.2-1.4-24.6-15.8c0,0-7.4-5-1.4-32.9c0,0,5.1-14.3,4-16.2c0,0,1.4-1.3-1.1-1.9
						C61.6,231.8,61.1,235.3,58.2,236.4z"/>
					<path class="st7" d="M-4.4,161.3c0.6-0.1-0.7-8.3-1.9-11.9c-1.3-3.5-2.6-16-1-20.2c0,0-8.2,2.3-9.4,3.1c0,0-0.7,6.7,0,8.8
						c0.7,2.1,2.3,7,2.7,8s1.6,4.8,1.8,6.6c0.2,1.8,0.5,4.1,0.5,4.1S-9.8,162.6-4.4,161.3z"/>
					<path class="st3" d="M20.2,334.9l-8.1-8.8l-2.3-13.4c0,0,3.7-2.7,4-7.2c0.3-4.6-1.8-32.2-4.4-35.7c-1.7-2.3,3-13.8,4.9-19.1
						c0,0-6.5-4-7.6-8.1l-2.5,11.1l-0.6,27.7l2,17c0,0,0.3,11.6-0.2,12.3c-0.5,0.8-1.4,3.3-1.4,3.3l0.7,9.2l9.2,8.3L20.2,334.9z"/>
					<path class="st7" d="M6.3,155.5c0,0-2.1,1.7-3.6,2.7c0,0,0.8-7.3,0.9-10.2c0.1-2.9,0.9-15.2,2.7-18c0,0,4.7,1.9,5.7,6.2
						C12.1,136.2,6.9,145.6,6.3,155.5z"/>
					<path class="st8" d="M2.8,129c0,0-1.7,25.3-1.4,29.9l1.4-0.8c0,0,0.9-16.1,1.5-18.7s2.1-9.5,2.1-9.5L2.8,129z"/>
					<path class="st9" d="M23.9,188.5c0,0,12.1-0.5,13.9-10.7c1.8-10.3-0.5-16.2-0.5-16.2s-0.5-14.4-0.5-15.1s4.7-16.7,2.1-24.4
						l-4,0.8c0,0,0.7,7.9,0,10.4c-0.7,2.5-0.8,4.6-2.1,7.5c-1.3,3-5.2,4.5-5.3,12.2c-0.1,7.7,1.2,10.5,1.2,10.5l-1.2,11.6
						L23.9,188.5z"/>
					<path class="st3" d="M73.9,93.5c0,0,5.2,0.6,6.5-0.7l-3.7,3.7L73.9,93.5z"/>
					<path class="st9" d="M68.4,173.5c0,0-2.3,29-2.3,33.1s-1.4,7.8-1.4,7.8l6.1,1.4l-2.3,7.6l-6.2,4.6l-0.8,4c0,0-0.9,6.9-12.3,4
						l-2.3,2.9c0,0-10.6-1.9-9.3-3.2l10.2-12.9l7.5-15.1l5.2-21.2c0,0,1.4-5.7,1.6-7.8C62.3,178.5,63.6,174.8,68.4,173.5z"/>
					<path class="st9" d="M61,233.6c0,0-7.4-4-7.1-6.1c0.2-2.1,5.5-11.9,5.5-11.9l3.7-4.3l2.1-36.1c0,0-1.1,0.8-1.8,1.7
						c-0.8,0.9-0.9,1.6-0.9,1.6s-3.9,20.3-6.6,26.7c-2.7,6.4-4.3,11.2-7.8,17.3c-3.4,6.2-7.6,11-7.6,11l-1.8,3.1l8.5,2.1l2.3-2.9
						C49.3,235.8,58.1,237.9,61,233.6z"/>
					<path class="st9" d="M75.9,146c-0.8-0.3-11.2-1.9-11.1-2.3c0.1-0.3,9.8-0.3,10.6-0.1s1.7,0.5,1.8,2
						C77.3,147,76.6,146.2,75.9,146z"/>
					<path class="st9" d="M63.8,174c0,0-3.8,0.6-4.6,1.9s0.4,2.8,1.3,1.9s5-4.1,5.9-4.4C66.8,173.3,65.3,173.6,63.8,174z"/>
					<path class="st9" d="M78.3,177.2c0,0-1.7,2.1-1.8,9.3s-2.1,21.9-3.3,23.9c0,0,4.3-6.1,5.3-15.2C79.5,186,78.3,177.2,78.3,177.2
						z"/>
					<path class="st0" d="M6.9,244.5c0,0,2.7,4.7,6.3,7.5l0.3-0.7C13.5,251.2,10.2,249.2,6.9,244.5z"/>
					<path class="st0" d="M51.8,237.4c0,0,8.4,2.6,10.8-3.7c0,0,0.5-1.2-1.1-1.9C61.6,231.8,62.3,238.6,51.8,237.4z"/>
					<path class="st2" d="M25.1,249.9c0,0-5.2,27.1-5.2,33.8s0,17.1,0,17.1l-3.7,2.3c0,0-0.2,13.9,1.4,18c1.6,4.1,8.6,14,9.5,14
						s4.8-0.5,5.7-0.5c0.9,0,3.7-3.7,11.9-4c0,0-17.5-18.7-17.7-28.6c-0.2-9.8,4.8-43.8,4.8-43.8l1.5-9
						C33.2,249.3,27.8,252,25.1,249.9z"/>
					<path class="st0" d="M33.4,335.2c0,0,4.4-3.6,10-4.3l0.6,0.8C44,331.7,41.8,331.1,33.4,335.2z"/>
					<path class="st0" d="M87.9,302.4l-0.5-0.6c0,0-4.9,4-7.2,6.3C80.2,308.2,87.1,302.6,87.9,302.4z"/>
					<path class="st3" d="M73.4,311.3c0,0-26.2-12.2-27.7-14.6c0,0,4.5-2.7,4.2-9.9c-0.3-8-2.7-27.5-2.7-27.5l-4.3-4.3l4-16.4
						l-8.5-2.1l-5.3,12.7l1.6,10.6c0,0,0.9,21-0.9,28.3l-1.8,7.3l1.5,10.5l16,0.2C49.6,306.2,64.9,310.7,73.4,311.3z"/>
					<polygon class="st0" points="33.6,296.7 43.2,302.9 43.9,302.8 					"/>
					<path class="st4" d="M33.9,91.7c0,0,12.1,4.6,16.7,4.4S68,94.3,68,94.3S54,100,46.4,98C40.3,96.3,34.7,92.6,33.9,91.7z"/>
					<path class="st3" d="M-2.5,163.1c0,0-0.1,0-0.1,0.1c-0.4,0.3-0.6,0.8-0.4,1.3l3.9,12.2c0.1,0.3,0.4,0.6,0.7,0.7l3.7,1.5
						c0.2,0.1,0.5,0.1,0.7,0l3.6-0.9c0.5-0.1,1,0.1,1.3,0.6l0.7,1.2c0.1,0.1,0.1,0.2,0.2,0.3l1.1,1c0.7,0.6,0.4,1.7-0.4,2l-2.5,0.8
						c-0.2,0.1-0.4,0.1-0.6,0l-14-3c-0.2-0.1-0.5-0.2-0.6-0.4l-1.7-1.8c-0.1-0.2-0.2-0.3-0.3-0.5l-1.6-7.1c0-0.1,0-0.1,0-0.2
						l-0.7-8.3c-0.1-0.7,0.6-1.3,1.3-1.3c1.1,0.1,2.7,0.2,4.8-0.4C-2.2,160.7-1.4,162.4-2.5,163.1z"/>
					<path class="st4" d="M11.4,183.4l-3.3-4c0,0-1-0.2-3.1,0.2c-2.1,0.4-10,1.2-10,1.2L9.7,184L11.4,183.4"/>
					<path class="st10" d="M13.4,178.1l-0.3-2.5c0,0-1.9-2.7-1.3-4.2c0,0-1.1,0.8-1.3,2.1l1,1.9l1.3,1.9L13.4,178.1z"/>
					<path class="st0" d="M12.9,179c-0.7-0.4-2.5-3.9-3.2-4.8c-0.7-0.9-0.1-3.4,0.8-4.5c0,0,1.3-1.3,1.1-1c-0.2,0.3-1.7,3.3-1.6,4.7
						c0.1,1.4,2.1,3.2,2.4,4.1S13.4,179.3,12.9,179z"/>
					<path class="st3" d="M7.3,163.2c0,0.6,0.9,2.7,1.4,2.9s3,0,3.7,0.9s0.5-2-0.2-2.7C11.5,163.5,7.3,163.2,7.3,163.2z"/>
					<path class="st4" d="M11.3,170.3c0,0,1.7-2.7,2.4-2.3c0.7,0.5,2.5,3.5,2.6,4.3s0.7,1.4,1.4,0.9l-2.4,1.2c0,0-2.6-3.3-3.5-3.1
						l-1.1,1L11.3,170.3z"/>
					<path class="st0" d="M4,157.3c0,0,7.8,3.5,8.3,3.8c0.5,0.3,5.1,9.2,5.3,8.9c0.4-0.5-5-10.1-5-10.1l-7.2-3.7L4,157.3z"/>
					<path class="st4" d="M-6.3,161.8c0,0.4,1.7,14.2,1.7,14.2l3.2,4.3l-3.1-0.6l-2-2.2l-2-12.6l-0.4-4L-6.3,161.8z"/>
					<path class="st11" d="M43.8,22.6c-0.6-0.1-1.2,0.2-1.4,0.8c-0.4,1.7,0.2,2.1,0.5,2.4c0.7,0.6,13.5,1.7,16.8,1.9
						c0.5,0,0.9-0.2,1.1-0.7c0.2-0.5,0.4-1.2,0.2-2.1c-0.1-0.4-0.4-0.6-0.8-0.7L43.8,22.6z"/>
					<path class="st12" d="M75,15.8"/>
					<path class="st13" d="M43.8,23.2c-0.2,0-0.6,0.4-0.6,1.1s0.1,1,0.3,1.2c0,0,2.5,0.7,12.2,1.5c0,0,3,0.3,3.4,0s0.6-2.1,0.4-2.2
						s-11.5-1.2-11.5-1.2L43.8,23.2z"/>
					<linearGradient id="SVGID_3_" gradientUnits="userSpaceOnUse" x1="42.6712" y1="25.2149" x2="60.0879" y2="25.2149">
						<stop  offset="0" style="stop-color:#E6255A"/>
						<stop  offset="0.4045" style="stop-color:#E42459"/>
						<stop  offset="0.6157" style="stop-color:#DC2257"/>
						<stop  offset="0.7823" style="stop-color:#CE1E52"/>
						<stop  offset="0.9246" style="stop-color:#BC194C"/>
						<stop  offset="1" style="stop-color:#AE1547"/>
					</linearGradient>
					<path class="st14" d="M43.3,23.1c-0.2,0-0.7,0.5-0.6,1.2c0,0.7,0.1,1.1,0.3,1.3c0,0,2.7,0.8,13,1.6c0,0,3.2,0.3,3.6,0
						c0.4-0.4,0.6-2.2,0.4-2.3c-0.2-0.1-12.2-1.3-12.2-1.3L43.3,23.1z"/>
					<path class="st7" d="M47.7,26.4l0.2-2.8l-4.6-0.5c0,0-0.5,0-0.6,0.7c-0.1,0.5-0.2,1.5,0.3,1.7l1.3,0.3L47.7,26.4z"/>
					<path class="st15" d="M51.6,24.4c0,0,7.5,0.7,7.7,0.8c0.4,0.1,0.4,0.5-0.3,0.4c-1.1-0.1-14.1-1.5-14.1-1.5s-0.2-0.1-0.2-0.2
						C44.8,23.6,51.6,24.4,51.6,24.4z"/>
					<g>
						<path class="st3" d="M15,61.9c0,0,0.1-0.1,0.2-0.1C15.1,61.8,15.1,61.8,15,61.9z"/>
						<path class="st3" d="M15.2,61.8c0.1,0,0.1-0.1,0.2-0.1C15.3,61.7,15.2,61.7,15.2,61.8z"/>
						<path class="st3" d="M15,61.9C15,61.9,15,61.9,15,61.9C15,61.9,15,61.9,15,61.9z"/>
						<path class="st3" d="M14.9,61.9C14.9,61.9,14.9,61.9,14.9,61.9C14.9,61.9,14.9,61.9,14.9,61.9z"/>
						<path class="st3" d="M15.3,61.7c0,0,0.1,0,0.1-0.1C15.4,61.6,15.4,61.7,15.3,61.7z"/>
						<path class="st3" d="M2.2,74.9C2.2,74.9,2.2,74.9,2.2,74.9C2.2,74.9,2.2,74.9,2.2,74.9l-1.7,6.9c0,0-4.4,5.6-4.3,11.4
							c0,5.8,0.4,11.8,0.4,11.8l-6.5,6.5l-5.3,19.5l10.2-2.3L7.2,130l2.4-11.3L4.3,112c0,0-2.1-4.8-0.8-9.3c0,0,0.2-0.7,0.6-1.9
							c-0.2,0.4-0.4,0.8-0.6,1.2c-1.7,3-5.2-4.6-5.2-4.6l-1.6-7.3c0,0,4.2-8.6,5.1-8.2s3.1,1.8,4.6,3.7c1.5,1.8,0.5,6,0.5,6
							s-0.2,1-0.6,2.5C7.2,91,8,88.2,8,87.8c0-0.9,3-3.7,3-3.7s-4.9-17.9,3.8-22.2C14.9,61.9,4.5,63.5,2.2,74.9z M1.1,79.9
							C1.1,79.9,1.1,79.9,1.1,79.9L1.1,79.9z M1.1,79.9C1.1,79.9,1.1,79.9,1.1,79.9C1.1,79.9,1.1,79.9,1.1,79.9z M1.2,79.6
							C1.2,79.5,1.2,79.5,1.2,79.6C1.2,79.5,1.2,79.5,1.2,79.6z M1.2,79.3c0-0.1,0-0.2,0.1-0.3C1.3,79.2,1.3,79.2,1.2,79.3z
							 M1.4,78.7c0.1-0.5,0.2-1,0.3-1.5C1.6,77.8,1.5,78.3,1.4,78.7z M1.8,76.9c0-0.1,0-0.2,0.1-0.3C1.8,76.7,1.8,76.8,1.8,76.9z
							 M2.1,75C2.1,75,2.1,75,2.1,75C2.1,75,2.1,75,2.1,75z M2,75.7c0,0,0,0.1,0,0.1C2,75.8,2,75.7,2,75.7z M2,75.9
							c0,0.1,0,0.1,0,0.2C1.9,76,2,75.9,2,75.9z"/>
						<path class="st3" d="M18.7,60C18.7,60,18.7,60,18.7,60L18.7,60z"/>
						<path class="st3" d="M18.1,60.3c0,0,0.1,0,0.1-0.1C18.2,60.3,18.2,60.3,18.1,60.3z"/>
						<path class="st3" d="M17.6,60.6c0.1-0.1,0.2-0.1,0.3-0.1C17.8,60.5,17.7,60.5,17.6,60.6z"/>
						<path class="st3" d="M18.2,60.3c0,0,0.1,0,0.1-0.1C18.3,60.2,18.3,60.2,18.2,60.3z"/>
						<path class="st3" d="M15.5,61.6c0.1-0.1,0.2-0.1,0.3-0.2C15.7,61.5,15.6,61.6,15.5,61.6z"/>
						<path class="st3" d="M18.6,60.1C18.7,60.1,18.7,60,18.6,60.1C18.7,60,18.7,60.1,18.6,60.1z"/>
						<path class="st3" d="M18.3,60.2c0.1,0,0.1-0.1,0.2-0.1C18.5,60.2,18.4,60.2,18.3,60.2z"/>
						<path class="st3" d="M18.5,60.1c0,0,0.1,0,0.1-0.1C18.6,60.1,18.6,60.1,18.5,60.1z"/>
						<path class="st3" d="M17.9,60.4c0.1,0,0.2-0.1,0.3-0.1C18,60.4,17.9,60.4,17.9,60.4z"/>
						<path class="st3" d="M16,61.4c0.1,0,0.1-0.1,0.2-0.1C16.1,61.3,16,61.3,16,61.4z"/>
						<path class="st3" d="M16.2,61.3c0.1-0.1,0.2-0.1,0.4-0.2C16.4,61.2,16.3,61.2,16.2,61.3z"/>
						<path class="st3" d="M15.8,61.5c0.1,0,0.1-0.1,0.2-0.1C15.9,61.4,15.9,61.4,15.8,61.5z"/>
						<path class="st3" d="M17.2,60.7c0.1-0.1,0.2-0.1,0.3-0.2C17.5,60.6,17.4,60.7,17.2,60.7z"/>
						<path class="st3" d="M16.9,60.9c0.1-0.1,0.2-0.1,0.3-0.2C17.1,60.8,17,60.9,16.9,60.9z"/>
						<path class="st3" d="M16.5,61.1c0.1-0.1,0.3-0.1,0.4-0.2C16.8,61,16.6,61,16.5,61.1z"/>
						<path class="st3" d="M16.9,60.9C16.9,60.9,16.9,60.9,16.9,60.9C16.9,60.9,16.9,60.9,16.9,60.9z"/>
					</g>
					<path class="st4" d="M-2.6,128.8c0,0,1.2-11.3-1.5-15.2c0,0-3.1,6.2-3.7,16.3"/>
					<path class="st4" d="M6.5,129.3c0,0,1.8-5.3,2.4-9.9c0,0-3.6-4.3-4.8-7.9c0,0,4.3,4,7.6,2.5c5.1-2.3,11.2-22,11.8-24.4
						c0,0,4-4,4.3-8.5c0,0,1.7-12.7-8.7-18.5c0,0,7.9,3.2,10,8.5s2.2,9,2.1,10.9c-0.1,1.8-1.1,5.1-1.7,5.7s-1.8,1.8-1.8,1.8
						l-4.5,10.2l-1.7,4.7l-2.8,6.8c0,0-2.7,4.7-2.8,4.8s-2.5,2.7-3,3s-1,0.9-1,0.9s1.3,3.4,1.3,3.7c0,0.3,0.1,3.9,0.1,3.9
						s-0.3,2.5-0.5,3.2s-0.6,2.1-0.9,2.7c-0.2,0.6-0.5,1.3-0.5,1.3L9,131.8L6.5,129.3"/>
					<path class="st2" d="M11.8,120.4C19.2,113.1,26.2,90,26.2,90l-1.1,0.2c-0.3,2.4-4.9,14.1-7.9,20c-4.1,8.1-6.4,9.2-6.4,9.2
						c2.2,5.4-0.3,11-0.8,12l1.3,1.5c0,0,1.7-5.6,1.4-8.1C12.3,122.2,12.2,121.1,11.8,120.4"/>
					<path class="st2" d="M28.4,87.8c0,0,2.1-6.5,0.9-12.8C29.3,75,31.9,81.5,28.4,87.8C24.9,94,28.4,87.8,28.4,87.8L28.4,87.8z"/>
					<path class="st0" d="M-11.3,130l2.3-16.1c0,0,4.9-4.1,5.5-9l0-3.8c0,0-3.3,10.5-7.1,11.7l-4.2,18.4L-11.3,130"/>
					<path class="st0" d="M-3.6,103.4c0,0,1.8-5.2,1.8-6s-0.9-3.3-0.8-5.7s5.9-10.5,5.9-10.5l-2.1-2.1c0,0-5.5,7.9-5.8,12.3
						c-0.3,4.4,0.9,6.3,0.9,6.3V103.4"/>
					<path class="st0" d="M3.4,81.2c0,0,1.9-14.1,1.1-11.5c-0.4,1.3-3.3,9.8-3.3,9.8L3.4,81.2z"/>
					<path class="st2" d="M29.3,75c0,0,0.4,5.7-3.7,9.5c0,0-2.6,3,0.4,2.5c3-0.5,2.4,0.8,2.4,0.8S31.5,79,29.3,75"/>
					<path class="st0" d="M4.1,100.8c0,0,4.1-12.1,9-16.7c0,0-0.9-5.8-0.8-9.1s0.7-5,1.8-7.8c1.1-2.6,4-4.9,4-4.9s-4.7-0.3-5.9,0.6
						c-1.2,0.9-6.6,6.5-3.8,20.6"/>
					<path class="st4" d="M3.4,81.2l4.2,3c0,0-2.7-12.2,1.8-19.3c2.9-4.6-3.6,3.6-3.6,3.6l-1.7,3.8L3.4,81.2z"/>
					<path class="st0" d="M9.3,113.1c-0.8-0.4,4.7-4.7,11.2-23.8c0,0,0,0,0,0c0.2-0.7,1-0.9,1.6-0.6L22,88.6
						c0.4,0.2,0.6,0.9,0.4,1.1l-0.2,0.8c0,0-3.3,12.5-10.2,21.6C12,112.1,10.7,113.8,9.3,113.1z"/>
					<path class="st2" d="M-0.6,118.6c-1.2-2.8-2.1-5.8-1.8-6.5c0.3-0.8,2.3-7.6,3.5-8.5c1.2-0.9,0.9,6.2,1.4,8.4s1.4,5.6,1.4,8.4
						c0,2.7-1,8.7-1,8.7l-3.6-0.9C-0.8,128.1,0.9,122.3-0.6,118.6z"/>
					<path class="st4" d="M22.3,63.9c-0.9,0.6-6.8,4-8.8,14.1c0,0-0.8-9.5,5.6-15.5c0.3-0.3-1.4,1.3,0,0l1.8,0.6"/>
					<path class="st3" d="M3.5,101.9c0,0,6.5-14.3,11.2-16.6c0,0,4.9,1.4,7.1,0.2s4.9-3.5,4.6-6.7s-1.1-11-4.7-13.7l0,0
						c0,0-6,7.8-7.5,13.7c0,0-1.1,2.3-1.8-1.8l0.5,7C12.9,83.9,5.5,92.5,3.5,101.9z"/>
					<path class="st0" d="M21.3,83.4c0.6-1,2.5-3.5,2.5-8.3c0-3.5,0.9-3.4,1.1-2.1s0.9,5.5,0.7,7s-2.1,4.4-3.5,4.7
						C20.8,84.9,20.3,85.1,21.3,83.4z"/>
					<path class="st3" d="M14.5,84.5c0,0-5.9-2.3-7.3-12.4l0.4,12.1c0,0,4.6,1.4,5.5,1.3C13.9,85.3,14.5,84.5,14.5,84.5z"/>
					<path class="st4" d="M-1.6,100.1c0,0-1.4,3-1.4,4c-0.1,1-0.2,6.5,0.5,5.8s2-4.8,2.5-6.2c0.5-1.4-0.1-2.1-0.9-3.1
						C-1.4,99.9-1.6,100.1-1.6,100.1z"/>
					<path class="st0" d="M0.8,106.5c-0.3,0.3-0.5,3.7-0.1,4.9s0.8,5.9,1.3,6.9c0.5,1.1,1.1,0.2,0.8-0.8c-0.2-1.1-1.4-5.8-1.4-8
						S1.7,105.6,0.8,106.5z"/>
					<path class="st4" d="M3.4,81.2c0,0,3.3,1.7,4.2,3c1.5,2.2-0.9,7.3-2.2,11.5c-1.3,4.2-1.3,1.6-1,0c0.2-1.1,2.5-8.8,0.9-10.8
						S2.5,81.4,3.4,81.2z"/>
					<path class="st3" d="M4.9,97.2C5,96.9,6.5,92,6.7,90.7c0.2-1.4,0.8-2.7,0.2-4.6c-0.6-1.8,0.1-1.5,0.3-1.4
						c0.2,0.1,0.6,2.7,0.5,3.9s-1.9,7.6-1.9,7.6l-0.8,1.7V97.2z"/>
					<path class="st3" d="M7.7,88.5c0,0,0.5-2.6,0.9-3.1c0.7-0.9,1.7-0.6,1.9-0.5c0.2,0.1,1.7,0.3,1.7,0.3s0.2-0.7-0.6-1.1
						c-0.9-0.4-2.3-1.3-2.8-1c-0.5,0.3-1.6,1.4-1.6,1.4L7.7,88.5z"/>
					<path class="st0" d="M56.6,6.2c-1.1,0.4-0.1,4.9,3.2,7.8c1.9,1.7,4.2,3,4.2,1.7s-1-4.3-1-4.3S58.8,5.4,56.6,6.2z"/>
					<path class="st4" d="M40.4,95.3c0,0,9.5,20.6,9.5,21.3c0,0.6-0.7,1.1-0.7,1.1l8.9-1.3l0,0l-2.9-0.1l-3.7-17.8L40.4,95.3z"/>
					<path class="st16" d="M38,141.8c1.2-5.5,2.8-14.5,1-19.7l-4,0.8c0,0,0.7,7.9,0,10.4c-0.7,2.5-0.8,4.6-2.1,7.5
						c-0.1,0.2-0.2,0.5-0.4,0.7L38,141.8z"/>
					<path class="st17" d="M56.3,142.7c0.2-0.2,0.3-0.3,0.3-0.3l0.9-23l-22.4,3.5c1.8,15.4-2.1,17.9-2.1,17.9s-0.2,0.2-0.5,0.6
						L56.3,142.7z"/>
					<path class="st4" d="M23.5,89.6c0,0-0.2-1.8-2.7-2.2C18.5,87,26,87,26,87s-0.8,1.7-1.1,2C24.7,89.3,23.5,89.6,23.5,89.6z"/>
					<path class="st0" d="M62.2,115.3c0,0,6.4-1.8,9.4-2.3c3-0.5,4.9,0.2,4.9,0.2l-0.2-0.8c0,0-4-1.4-7.3,0.5
						C65.7,114.7,62.2,115.3,62.2,115.3z"/>
					<polygon class="st17" points="58,119.7 57,142.6 59.3,119.4 					"/>
					<path class="st4" d="M38.3,167.3c-0.6-4.3-1.1-8.3-1.1-8.3l-0.2-12.4l1.1-4.7l-5.5-0.4c0,0-5.1,6.2-5,13.4c0,0,1.3,7.2,1.3,7.6
						c0,0.5-0.2,8.1-0.3,8.4c-0.1,0.3-2.4,11.4-2.4,11.4l-2.1,6.2c0,0,0.3,0,0.7-0.1l-6.9,30.8c-6.7,7-10.8,25.3-10.8,25.3l4.9,4.9
						c1.8-15.2,12.1-29.9,12.1-29.9s2.4-23.6,6.5-32.8c2.4-1.1,4.8-2.7,5.8-5.2C38.6,175.8,38.9,171.6,38.3,167.3z"/>
					<path class="st4" d="M62.3,227.8l-9.1-2.3c0,0,4.9-8.3,5.9-13.8l6-36.6c0,0-1.6,0.5-2.8,3.3c0,0-4.2,21.8-5.4,24.3l-5,12.2
						l-7.2,12.5l-6.2,9.1l8.5,2.1l2.3-2.9l6.5,0.6l5.1-1.5L62.3,227.8z"/>
					<line class="st18" x1="51.5" y1="98.4" x2="55.2" y2="116.2"/>
					<polygon class="st9" points="59.8,119.1 57.7,141.8 61,119 					"/>
					<path class="st4" d="M32.8,105c-0.4-1.5-1.6-8.2-2.5-12.8c4.1-4.9,3.9-12.7,3.7-15.7c-0.3-3.3-4-9.3-4-9.3
						C24,56.6,13.5,59,13.5,59C2.7,61,2.2,74.6,2.2,74.6s4-7.5,6.1-9.2c2.1-1.7,4.6-5.5,14-1.5s9,17.1,8.8,19.2
						C31,85.1,27,90.3,27,90.3l-5.9,14.4l8.7,10.3c5,3.7,5.2,7.8,5.2,7.8l4-0.8C39.1,122.1,33.5,107.3,32.8,105z"/>
					<path class="st0" d="M25.8,55.3c-0.4,1.4,10.7-4.6,10.7-4.6s-1.5-2.7-4.6-1.2C31.4,49.7,26.4,53.1,25.8,55.3z"/>
					<path class="st4" d="M54.9,47L54.9,47c0,0-8.2,5.8-12.5,5.5c-4.3-0.3-3.9-2-6.3-4c-0.9-0.8-5-0.7-5-0.7c-2.6,1.2,1-2.4,2.6-3.2
						s2.9-4.9,2.9-4.9l0.7-8.7l0.5-18.3L41,7.8l5-2.4l-0.1,0.1c-2.6,3.8-4,8.3-4.2,12.9l-1,23.4l-2.3-2.1l0,0
						C38.5,39.9,41.8,46.5,54.9,47z"/>
					<path class="st0" d="M14.3,175.6c-0.3-0.1-0.7,0-1,0.2l0,0.3c0.3-0.1,0.5-0.2,0.8-0.2C14.5,175.9,14.3,175.6,14.3,175.6z"/>
					<polygon class="st3" points="58,116.3 66,114.2 63.9,95.6 53.4,98.3 49.7,98.4 53.7,116.8 					"/>
					<path class="st0" d="M17.7,249.3c0,0,9.2,4.4,14.1,1C31.8,250.3,27.5,252.3,17.7,249.3z"/>
					<path class="st0" d="M25.5,251.2c0,0-6.2,30.2-4.9,47.3l1.6-0.2c0,0,0.8-16.9,1.5-24.4c0.6-6.5,4.2-22.7,4.2-22.7H25.5z"/>
					<path class="st0" d="M18.4,302.8l-1.2,1c0,0,0,12.4,0.6,14.2s5.6,10.7,5.9,11.2s-3-9.1-3.7-11.7
						C19.2,314.9,18.4,302.8,18.4,302.8z"/>
					<path class="st0" d="M42.6,256.5c0,0,2.2,26.2,2.1,30.9s-1,8.2-1,8.2s4-5.4,4-8.7s-2.2-26.5-2.5-27
						C44.8,259.4,42.6,256.5,42.6,256.5z"/>
					<polygon class="st4" points="62.1,179.5 62.6,172.4 65.6,172.7 64.3,179.6 					"/>
					<g>
						<polygon class="st4" points="62.6,171.9 68.3,172.3 67.9,172.6 69,161.9 69,161.8 69.1,161.8 76.4,159.3 69.2,162.1 69.3,162 
							68.6,172.7 68.6,173 68.3,173 62.6,172.9 						"/>
					</g>
					<path class="st0" d="M41.2,226.7l3.6,0.3c0,0,7.7-12.7,10.9-21.9c3.8-10.8,8.1-26.7,7.1-42.3l-2.7-1.5c0,0-0.8,17.9-6.3,36.2
						C49.7,211.3,41.2,226.7,41.2,226.7z"/>
					<path class="st4" d="M39.1,226.3c0,0,11.3-55.8,11.6-67.4c0,0-13.2,64.5-15.7,66.3L39.1,226.3z"/>
					<path class="st4" d="M56.5,161.2c0,0-0.5,14.4-1.4,20.2c0,0,2.7-15.9,2.7-19.6L56.5,161.2z"/>
					<path class="st0" d="M43.3,109.8c0,0-2.9-3.2-4.6-10.8c-0.2-0.8-0.5-3.2,0.8-1.3c1.2,1.8,7.9,17.3,7.9,17.3L43.3,109.8z"/>
					<path class="st4" d="M34.2,93.3l3.1,3.1c0,0,1.7,6.8,2.5,10c0,0-1.7-2.6-2.9-5.2C35.8,98.5,34.2,93.3,34.2,93.3z"/>
					<path class="st4" d="M64.2,211.6c0.3-2.6,4.2-36.8,4.2-36.8s-0.1,23.3-2.5,37L64.2,211.6z"/>
					<path class="st0" d="M71.9,213.6l-2-0.1c0,0,2.3-4.9,4.6-9.9c1.6-3.5,2.9-17.7,2.6-22.6c-0.4-4.9-0.7-17.2-0.6-18.8l1,9.5
						c0,0,1.2,11.3,1.3,12.6c0.1,1.3-0.4,9.2-0.9,12.4c-0.5,3.2-1.4,7-2.2,8.6S71.9,213.6,71.9,213.6z"/>
					<path class="st0" d="M47.6,154.4c-1,9.3-7.3,43.6-15.8,70l1.9,0.3c0,0,10.5-35,15.3-69.5L47.6,154.4z"/>
					<path class="st4" d="M45.3,226c-0.5,0-11.1-0.5-13.8-2.6l-8.6,20c0,0,9.8,2.8,12.4,0.5c2.6-2.3,2.3-6.1,2.3-6.1L45.3,226z"/>
					<polygon class="st4" points="72.5,213.4 63.2,212.9 57.9,228 65.8,229.1 68.1,224 					"/>
					<path class="st3" d="M47.1,152.2c0,0,11,6.1,14,7.2c2.3,0.8,3,0.9,4.4,1c0.5,0,3.2-0.2,3.7-0.3c1.4-0.4,5-1.3,5.6-1.8l1.1-10.3
						c0.1-0.7,0.4-1.3,0.8-1.8l0.6-0.7l-0.4,6.6l-0.4,6.9l-7.8,2.8c-1,0.3-1.9,1.4-2,2.4l-0.1,1.5c-0.3,3.8-0.9,5.8-1.9,5.7l-1.8,0
						l-0.1-8.6l-16.5-9.3L47.1,152.2z"/>
					<polyline class="st19" points="27.7,151.8 40.2,150 47.6,154.4 					"/>
					<path class="st4" d="M59.3,160.8l-0.1,0.1l-0.1-0.1l-11.6-6.3l0.3-0.2c-0.5,6-1.5,11.9-2.6,17.8c-1.1,5.9-2.4,11.7-3.8,17.6
						c-1.4,5.8-2.8,11.6-4.3,17.4c-1.5,5.8-3.1,11.6-4.7,17.3l-0.2-0.7c0.9,0.6,1.8,1,2.8,1.4c1,0.3,2,0.6,3.1,0.8
						c1.1,0.2,2.1,0.2,3.2,0.3c1.1,0,3-0.1,4-0.3l-0.6,1.5c-1.2,0.1-2.3,0.2-3.4,0.1c-1.1,0-2.3-0.1-3.4-0.3
						c-1.1-0.2-2.2-0.5-3.3-0.9c-1.1-0.4-2.1-0.9-3.1-1.6l-0.4-0.3l0.1-0.4c1.7-5.7,3.3-11.5,4.9-17.2c1.6-5.8,3.1-11.6,4.5-17.4
						c1.4-5.8,2.8-11.6,4-17.5c1.2-5.9,2.2-11.8,2.8-17.7l0-0.3l0.3,0.2l11.5,6.5l-0.2,0.1"/>
					<path class="st4" d="M54,157.8l8.9,4.8l0.1,0.1l0,0.1c0.1,1.3,0.1,2.6,0,3.9c0,1.3-0.1,2.6-0.1,3.9c-0.1,1.3-0.2,2.6-0.3,3.9
						c-0.1,1.3-0.2,2.6-0.4,3.9c0.1-1.3,0.2-2.6,0.3-3.9c0.1-1.3,0.1-2.6,0.2-3.9c0-1.3,0.1-2.6,0-3.9c0-1.3,0-2.6-0.1-3.9l0.1,0.1
						l-3.7-2.1L54,157.8z"/>
					<path class="st4" d="M22.6,223.2c-0.3,0.3-5.6,19.1-5.7,20.8c0,0-0.5-3.5,0.5-8.4C17.7,233.5,22.6,223.2,22.6,223.2z"/>
					<path class="st3" d="M23.4,103.8l1.2-2.7c0,0,3,7.6,3.5,8.5L23.4,103.8z"/>
					<path class="st4" d="M17.6,60.6c1.1-0.6,6.9-7.5,8-8.6c1.1-1.1,6.4-4.6,9.4-4.1c3,0.5,1.2-2.9,1.2-2.9L31,45.6
						c0,0-7.1,1.8-11.7,6.7s-9,7.3-9,7.3L17.6,60.6z"/>
					<path class="st3" d="M14.7,58.1c2.2-2.6,6-6.7,6-6.7s-6.3,6.4-7.1,6.7C12.7,58.5,14.7,58.1,14.7,58.1z"/>
					<path class="st3" d="M15.7,57c0,0,3.9-2.9,5.8-4.7c3.2-2.9,5.6-4.2,8-5.4c2.4-1.1,5-0.5,6-1.3s1.1-1.9,1.6-5.7
						c0.4-3.1,0.6-12,0.6-12s1-9.8,1.4-12.4c0.3-2.6,1.4-5.9,2.5-7c1.1-1,2.5-2.1,2.5-2.1s-3.4,0.7-5.2,5.5l-0.6,3.3L38,25.6
						c0,0-0.7,7.8-0.8,9.1c-0.1,1.4-1.6,8.7-2.4,9.6c-0.8,0.9-3,1-3,1s-4.5,0.7-5.7,1.5s-10.1,8.2-10.1,8.2l-1.8,2.2L15.7,57z"/>
					<path class="st4" d="M34.4,88.7c1.7-2.9,0.8-9.6,2.6-7.2s4.6,8.2,6.5,9.9C45.5,93.2,34.4,88.7,34.4,88.7z"/>
					<path class="st0" d="M50,89.8c0,0-3.9-0.6-8.8-12.1c0,0-2.6-4.8-0.8-3.8c1.1,0.6,5.8,7.8,10.2,10.9C54.8,87.9,61,90,61,90
						s2.4,0.6,1.1,1.6C62.2,91.6,52.7,90.3,50,89.8z"/>
					<path class="st4" d="M42.7,55.2c0.5,0-9.3,0.6-9.1,5.3c0.1,2.8,4.6,15.1,4.6,15.1s-6.7-10.2-8.9-12.7s-7.3-4.2-2.2-5.8
						C31.1,55.9,38.3,55.5,42.7,55.2z"/>
					<path class="st4" d="M35.1,70.1l4,8.6l3.2,6.7c0,0,3,6.3,6.4,7c3.3,0.7,18.1,0.5,18.1,0.5s-15.5-1.1-17.3-1.7
						c-2.8-1-4.9-4.1-5.7-5.4c-0.8-1.3-5.9-10-7.2-14.1L35.1,70.1z"/>
					<path class="st3" d="M53.8,53l5.6,5.7c0,0-1.5-2.2-0.2-3c1.3-0.8,4.3-0.1,4.3-0.1l-5-1.1L53.8,53z"/>
					<path class="st3" d="M42.7,55.2c0,0,10-1.2,15,1.2c2.9,1.4-1-2.4-1-2.4l-5.6-1L42.7,55.2z"/>
					<path class="st4" d="M55.9,55.4c0,0,10.6,8.8,15.2,32.4C71,87.9,68.1,63.6,55.9,55.4z"/>
					<path class="st4" d="M57,56.4c-0.5-0.5-3.5-1.6-7.9-1.4c-12.3,0.5-5,0.9,1.2-1.8c1.9-0.9,2.9-2.8,3.2-3.8c0,0,0.2,1.7,0.5,2.1
						c0.2,0.3,6.3,3,6.3,3l4.4,1.7c0,0-8-2.3-5,2.6L57,56.4z"/>
					<path class="st4" d="M32.6,56.1c0,0,13.7-1.1,16.5-2.5l0.5,1.3c0,0-10,0.5-12.9,1.7c-2.9,1.2-6.3,1.7-6.3,1.7L32.6,56.1z"/>
					<path class="st4" d="M62.8,172.2c0,0,2.9,0.4,3.5-1.7c0.5-1.4,0.6-4.2,0.7-5.7c0-0.5,0.2-1.1,0.4-1.7c0.2-0.4,0.5-0.7,0.9-0.8
						l0.8-0.4l-0.9,10.7L62.8,172.2z"/>
					<path class="st2" d="M18.7,218.1c0,0,2.6-11.9,4-15.8c0.9-2.8,6.2-30.5,6.4-33.3c0.1-2-6.4,27.7-6.4,27.7L18.7,218.1z"/>
					<path class="st3" d="M22.6,202.3c0,0-2.6,13.1-2.7,14.8c-0.2,1.7-0.6,2.9-0.6,2.9s-8.4,9.3-11.6,22.2l-1,0.5
						c0,0,3.3-11,5.7-14.9s5.3-8.5,5.3-8.5l3.8-16.9L22.6,202.3z"/>
					<path class="st0" d="M66.3,157.8c0,0,2.5,0.6,5-0.1c0,0,1.4-7.9,1.4-8.4c0-0.5,0.9-3.5-0.9-4.1c0,0-2,0.5-4.7,0.3
						c0,0,0.8,0.8,0.8,2.6C67.9,150,66.3,157.8,66.3,157.8z"/>
					<path class="st4" d="M67.6,145.9c0,0-28-2-32.8-3.8c-0.5-0.2,28.7,2.7,32.9,2.7l9.2-0.3C76.8,144.5,72.5,146,67.6,145.9z"/>
					<path class="st4" d="M55.7,156c0,0,7.7,6.3,17.7,2.1C73.4,158,64,160.4,55.7,156z"/>
					<path class="st4" d="M43.5,55.4c0,0,10.6-0.8,14.1,1.7c0,0,0.1-1.5-0.6-2.1s-4.3-1.2-4.3-1.2L43.5,55.4z"/>
					<path class="st0" d="M49,55.7c0.9,0,6.4,0.3,7.9,1.7c1.5,1.4,3.7,4.5,3.5,4.7c-0.1,0.2-2.4-2.2-4-3.4c-2.6-1.9-7.2-1.9-8.1-2.6
						C47.9,55.9,49,55.7,49,55.7z"/>
					<path class="st2" d="M61.5,115.3c0,0,0.7-16.2,1-17c0.3-0.8,2.6,15.9,2.6,15.9L61.5,115.3z"/>
					<path class="st0" d="M73.5,110.7c0,0-0.5-12.6-0.4-14.6c0.1-1.4,0.1-2.5,0.1-2.5l2.3,3.5l-0.1,14.1
						C75.5,111.2,74.4,110.7,73.5,110.7z"/>
					<path class="st0" d="M74.7,70.7c0,0,4.5,13.2,4.2,17.4c-0.3,4.3-0.7,4.3-0.7,4.3l2.3-0.1c0,0-0.1-8.5-0.5-9.4
						c-0.4-0.8-2.5-7.1-2.5-7.1L74.7,70.7z"/>
					<path class="st4" d="M76.5,75.3l-5.2-12c0,0,4.1,7.3,5.3,8.4L76.5,75.3z"/>
					<path class="st4" d="M61.4,96.3c0,0,3.4,15.8,3.7,17.9l1-1l-2.2-17.5L61.4,96.3z"/>
					<path class="st0" d="M57.4,292c0.2,0.7,0.6,3.3,1.4,4c0.8,0.7,6.7,3.4,11.4,3.7c0,0-7.1-2.4-9.9-5C57.4,292,57.4,292,57.4,292z
						"/>
					<path class="st4" d="M3.1,105c0,0,5.2-10.6,14.7-18.6c0.1-0.1-0.6-0.3-0.7-0.3l-2.8-1c-0.3-0.1-0.6,0-0.8,0.2
						c-1.1,1.1-4.8,5.3-9.4,15.5C4.1,100.8,3.2,102.9,3.1,105z"/>
					<path class="st4" d="M3.1,105c0,0-0.1,4.3,1.2,7c0,0,2.6,3.4,4.7,2.9c0,0-5.6-2.5-5.6-11.3L3.1,105z"/>
					<path class="st4" d="M7.6,97.9c-1.3,1.7-3.8,9.5-2.1,13.8c0,0-3-2.9-2.1-9C3.8,100.3,7.6,97.9,7.6,97.9z"/>
					<path class="st4" d="M4.2,109.4c0,0-0.6-3.1-0.3-5.6s1-6,1.4-8.3c0.3-1.8,1.1-4.2,1.1-4.2l-1-1.6c0,0-1.7,13-3.9,12.4
						c0,0,1.7,1.2,1.6,4.5C3.2,106.7,3.6,108.7,4.2,109.4z"/>
					<path class="st4" d="M4.9,106.5c0,0,2.3-9.1,9.1-16.5c0,0-1.3-1-2-0.3c-0.8,0.7-5.6,8.1-5.6,8.1S4.7,104.9,4.9,106.5z"/>
					<path class="st4" d="M3.5,79.9c0,0-1.8,3.7-2.2,4.3c0,0,1-1.4,2.4-0.8c1.5,0.7,1.7,2.7,1.8,3.8c0.1,1.1-0.7,7.3-0.5,6.8
						c0.1-0.3,2.6-10,2.6-10s-1.4-2.5-1.7-2.7C5.7,81.2,3.5,79.9,3.5,79.9z"/>
					<path class="st4" d="M7.6,84.2c0,0-0.3,4.2-0.5,4.9c-0.2,0.6-0.6-1.8-0.6-1.8l-0.1-2.6L7.6,84.2z"/>
					<path class="st4" d="M26,87c0,0,2.7,0,3.6-1.8c0.9-1.8,0.1,3.2,0.1,3.2l-1.9,1L26,87z"/>
					<path class="st2" d="M33,183.9c0,0,5.3-6.1,4-11.9s-1.9-10.2-1.9-14.9c0,0-1,5.7,0.6,15.4C36.6,178,33.8,182.5,33,183.9z"/>
					<path class="st3" d="M35.6,179.3c0.4-1.8,1.2-4.1,0.6-7.5c-0.8-4.8-1.1-14.6-1.1-14.6s0.6,7.8,1.9,14.9c0.6,3.3-0.4,7.5-4,11.9
						C33,183.9,35.4,180.3,35.6,179.3z"/>
					<path class="st9" d="M31,164.6c-0.2-0.6-1.6-5.1-2.2-8.2c-0.6-3.1,0,2.9,0.5,5.1C29.7,163.8,31,164.6,31,164.6z"/>
					<path class="st9" d="M30.8,160.1c0,0,2.3,6.7,2.7,9.6c0,0-1,1.6-1.1,2.2c0,0-0.5-4.9-1.3-5.9c0,0,2.3,2.2,0.3-2.9L30.8,160.1z"
						/>
					<path class="st4" d="M21.7,104.9l-1.1-0.4l6.4-15.8l0.3-0.1c0,0,2.8-1.2,3.2-7.4c0.8-12.7-8.4-17.7-14-18.7
						C15.8,62.5,5,61.9,2,79.7l-1.3-0.2C1.6,73.9,4,66.6,9.8,63.1c3.6-2.1,6.7-1.9,6.9-1.8l0,0c5.5,0.9,9.8,3.8,12.4,8.2
						c2,3.4,3.1,7.8,2.8,11.9c-0.4,6.1-2.9,8-3.8,8.4L21.7,104.9z"/>
					<path class="st4" d="M-14.8,131.2c2.2-0.9,4.5-1.6,6.8-2.1c2.3-0.5,4.7-0.9,7.2-0.9c1.2,0,2.4,0,3.7,0.2c1.2,0.1,2.5,0.5,3.6,1
						c2.3,1,4.3,3,5.1,5.3c0,0,0,0.1-0.1,0.1c0,0-0.1,0-0.1,0l-0.3,0.1c-0.7-1.1-1.5-1.7-2.4-2.3c-0.9-0.6-1.9-1.1-3-1.4
						c-2.1-0.7-4.3-1.3-6.6-1.4c-1.2-0.1-2.3,0-3.5,0c-1.2,0.1-2.3,0.2-3.5,0.3c-2.3,0.3-4.2,0.9-6.7,1.8l-0.2-0.1
						c0,0-0.1-0.3-0.1-0.4C-14.9,131.2-14.9,131.2-14.8,131.2z"/>
					<path class="st4" d="M-9.1,160.4c0.1,0,0.3,0.1,0.4,0.1c0.1,0,0.3,0.1,0.5,0.1c0.3,0.1,0.7,0.1,1,0.1c0.7,0.1,1.4,0,2.1,0
						c1.4-0.1,2.8-0.5,4.1-1c1.4-0.5,2.6-1.1,3.9-1.9c0.6-0.4,1.2-0.8,1.8-1.2l1.8-1.3l-1.6,1.5c-0.6,0.5-1.1,0.9-1.7,1.4
						c-1.2,0.8-2.4,1.7-3.8,2.3c-1.3,0.7-2.8,1.2-4.3,1.5c-0.8,0.1-1.5,0.2-2.3,0.2c-0.4,0-0.8,0-1.2,0c-0.2,0-0.4,0-0.6-0.1
						c-0.2,0-0.4-0.1-0.7-0.2L-9.1,160.4z"/>
					<path class="st4" d="M34.5,119.8c3.6-0.5,7.1-1.1,10.7-1.8c3.5-0.6,7.1-1.3,10.6-2c1.8-0.4,3.5-0.8,5.2-1.3
						c1.7-0.5,3.5-0.9,5.1-1.5c0.4-0.2,0.8-0.3,1.2-0.5c0.4-0.2,0.9-0.4,1.3-0.5c0.4-0.1,0.9-0.3,1.3-0.4l0.7-0.2l0.7-0.1
						c0.9-0.2,1.9-0.2,2.8-0.1c0.5,0.1,0.9,0.1,1.4,0.3c0.4,0.2,0.9,0.4,1.2,0.7l-0.1,0.1c-0.7-0.5-1.7-0.5-2.5-0.5
						c-0.9,0-1.7,0.2-2.6,0.4l-0.6,0.2l-0.6,0.2c-0.4,0.1-0.8,0.3-1.2,0.5c-0.4,0.2-0.8,0.4-1.2,0.5c-0.4,0.2-0.8,0.4-1.3,0.5
						c-0.2,0.1-0.4,0.2-0.7,0.3l-0.7,0.2c-0.4,0.1-0.9,0.3-1.3,0.4c-0.9,0.2-1.8,0.5-2.7,0.6c-1.8,0.4-3.6,0.7-5.3,1
						c-3.6,0.6-7.1,1.2-10.7,1.6c-3.6,0.5-7.2,0.9-10.7,1.2L34.5,119.8z"/>
					<path class="st4" d="M7.1,242.3c0.3,0.9,0.8,1.7,1.3,2.5c0.5,0.8,1.2,1.5,1.9,2.1c0.7,0.7,1.4,1.2,2.2,1.7
						c0.4,0.3,0.8,0.5,1.2,0.8l1.2,0.7l-0.7,0.1l2.9-2.6c0.2-0.2,0.4-0.2,0.6-0.1l0.1,0c1.2,0.4,2.6,0.7,3.9,0.9
						c1.3,0.2,2.6,0.5,3.9,0.6c0.3,0.1,0.6,0.1,1,0.1c0.3,0,0.7,0.1,1,0.1l1,0.1c0.3,0,0.7,0,1,0c1.3,0,2.6-0.1,3.9-0.4l0,0
						c0,0,0.1,0,0.1,0.1c0,0,0,0.1,0,0.1c-1.1,0.8-2.5,1.3-3.9,1.5c-1.4,0.3-2.8,0.2-4.2,0.2c-1.4-0.1-2.8-0.4-4.1-0.7
						c-1.3-0.4-2.6-0.8-4-1.3l0.7-0.1l-3.1,2.4l0,0c-0.2,0.1-0.4,0.1-0.6,0l-1.2-0.8c-0.4-0.3-0.8-0.6-1.2-0.9
						c-0.4-0.3-0.8-0.6-1.1-1l-0.5-0.5l-0.5-0.5c-0.7-0.7-2-2.2-2.5-3.1c-0.5-0.8-0.7-0.7-0.9-1.7c0,0,0.5-0.4,0.6-0.4
						C7,242.2,7,242.2,7.1,242.3L7.1,242.3z"/>
					<path class="st4" d="M38.3,236c0.7,0.3,1.5,0.6,2.2,0.8c0.7,0.3,1.5,0.5,2.2,0.7c0.7,0.2,1.5,0.3,2.3,0.4
						c0.8,0.1,1.5,0.1,2.2,0l-0.4,0.2L49,235c0.2-0.2,0.5-0.3,0.7-0.3l0.1,0c0.8,0.2,1.7,0.4,2.5,0.5c0.8,0.1,1.7,0.2,2.5,0.2
						c0.8,0,1.6,0,2.4-0.1c0.8-0.1,1.5-0.3,2.1-0.7l0.1-0.1c0,0,0.1,0,0.1-0.1c0.1,0,0.1-0.1,0.2-0.1c0.1-0.1,0.2-0.2,0.3-0.3
						c0.2-0.2,0.4-0.4,0.6-0.7c0.4-0.5,0.4-1.1,0.7-1.7l0.2,0.1c0,0,0.1-0.1,0.1,0c0,0,0.1,0,0.1,0.1l0,0.5c0,0.2,0,0.3,0,0.5
						c-0.1,0.3-0.1,0.7-0.2,1c-0.1,0.3-0.3,0.7-0.5,1c-0.1,0.2-0.2,0.3-0.3,0.5c-0.1,0.1-0.1,0.1-0.2,0.2c-0.1,0.1-0.1,0.1-0.3,0.2
						l0.1-0.1l-0.6,0.5c-0.2,0.2-0.4,0.3-0.6,0.4c-0.2,0.1-0.5,0.2-0.7,0.3c-0.2,0.1-0.5,0.2-0.7,0.2c-1,0.3-1.9,0.3-2.9,0.3
						c-0.9-0.1-1.9-0.2-2.7-0.5c-0.9-0.2-1.7-0.5-2.6-0.8l0.8-0.2l-2.4,3l0,0c-0.1,0.1-0.2,0.2-0.4,0.2c-0.9,0-1.7-0.1-2.5-0.2
						c-0.8-0.2-1.6-0.4-2.3-0.7c-0.7-0.3-1.5-0.6-2.2-0.9c-0.7-0.3-1.4-0.7-2.1-1.1c0,0-0.1-0.1,0-0.1C38.2,236,38.3,236,38.3,236z"
						/>
					<path class="st4" d="M10,59.8c1.1-0.4,2.1-1,3.5-1.1c1.2-0.2,2.3-0.1,3.5-0.1c2.4,0.1,4.8,0.6,6.9,1.8c2.1,1.1,4,2.8,5.4,4.8
						c1.4,1.9,2.6,4,3.6,6.2c0.9,2.2,1.7,4.5,1.9,7l0,0.5l0,0.5l0,0.9c-0.1,0.6-0.1,1.2-0.2,1.8c-0.1,1.2-0.3,2.4-0.6,3.5
						c-0.6,2.3-1.5,4.6-3,6.5c-1.5,1.9-3.6,3.2-5.9,4c2.2-1,4.1-2.3,5.5-4.2c0.7-0.9,1.3-1.9,1.7-3c0.4-1.1,0.8-2.2,1-3.3
						c0.2-1.1,0.4-2.3,0.5-3.5c0.1-0.6,0.1-1.2,0.1-1.8l0-0.9l0-0.4l0-0.4c-0.1-1.1-0.3-2.3-0.6-3.4c-0.3-1.1-0.7-2.2-1.2-3.3
						c-0.9-2.1-2.1-4.2-3.4-6.1c-1.3-1.9-3-3.5-5-4.7c-2-1.1-4.4-1.5-6.7-1.7C13.4,59.5,11.8,59.6,10,59.8z"/>
					<path class="st4" d="M33.8,91.4c2.7,2,5.6,3.6,8.6,4.8c0.8,0.3,1.5,0.6,2.3,0.8c0.8,0.2,1.6,0.4,2.4,0.5l0.6,0.1
						c0.2,0,0.4,0,0.6,0.1c0.4,0,0.8,0.1,1.2,0.1l1.2,0c0.4,0,0.8-0.1,1.2-0.1c1.6-0.2,3.2-0.5,4.8-0.8c1.6-0.4,3.2-0.8,4.8-1.2
						c3.2-0.8,6.4-1.8,9.6-2.7l0.1,0.1c-1.5,0.8-3,1.5-4.5,2.2c-1.5,0.6-3.1,1.2-4.7,1.7c-0.8,0.3-1.6,0.5-2.4,0.7
						c-0.8,0.2-1.6,0.4-2.5,0.5c-1.7,0.3-3.3,0.5-5,0.6c-0.4,0-0.8,0.1-1.3,0l-1.3,0c-0.4,0-0.8-0.1-1.3-0.2c-0.2,0-0.4-0.1-0.6-0.1
						L47,98.4c-0.8-0.2-1.6-0.4-2.4-0.7c-0.8-0.3-1.6-0.6-2.3-0.9c-3.1-1.4-5.9-3.2-8.5-5.3L33.8,91.4z"/>
					<polygon class="st4" points="76.3,96.8 73.9,93.5 77.3,95.8 					"/>
					
						<rect x="31.9" y="24.6" transform="matrix(4.003303e-02 -0.9992 0.9992 4.003303e-02 10.8034 61.9013)" class="st4" width="11.4" height="1.4"/>
					<polygon class="st4" points="62.4,29.7 60.6,31.4 62.5,21.6 63.9,22.2 					"/>
					<path class="st4" d="M39.2,28.1l0,1.7l-0.3,10l-0.1-0.3c1,1.2,2,2.3,3.2,3.2c0.6,0.5,1.2,0.8,1.9,1.2c0.3,0.2,0.7,0.3,1,0.5
						c0.3,0.2,0.7,0.3,1,0.4c1.4,0.5,2.9,0.9,4.4,1l1.1,0.1c0.4,0,0.7,0,1.1,0c0.7,0,1.5-0.1,2.2-0.2l0.2,1.3
						c-0.9,0.1-1.6,0.2-2.4,0.1c-0.4,0-0.8,0-1.2,0l-1.2-0.1C48.6,47,47,46.6,45.5,46c-0.4-0.1-0.7-0.3-1.1-0.5
						c-0.4-0.2-0.7-0.4-1.1-0.6c-0.7-0.4-1.4-0.8-2-1.4c-0.3-0.3-0.6-0.5-0.9-0.8l-0.9-0.8c-0.3-0.3-0.5-0.6-0.8-0.9l-0.8-0.9L38,40
						l0-0.2L39.2,28.1"/>
					<path class="st9" d="M46.8,36.2l4.4-0.2c0,0,0.8,0.3,2,0.2l3.2,0.9C56.4,37.1,49.9,36.8,46.8,36.2z"/>
					<path class="st9" d="M50.7,38l2.1,0.1c0.4,0,0.7,0.2,1,0.4l0.5,0.4c0,0-3.3,0.3-5.5-0.4l0.4-0.2C49.7,38.1,50.2,38,50.7,38z"/>
					<path class="st4" d="M14.6,250.6c-1.3,3.1-2.5,6.3-3.6,9.5c-0.5,1.6-1,3.2-1.3,4.9c-0.2,0.8-0.3,1.7-0.4,2.5
						c-0.1,0.8-0.1,1.7,0.1,2.4l0-0.1c1.7,2.6,2.4,5.6,2.7,8.5c0.3,2.9,0.6,5.9,0.9,8.8c0.3,2.9,0.6,5.9,0.8,8.9
						c0.1,1.5,0.2,3,0.4,4.4c0.1,1.5,0.2,3,0.3,4.4l-0.7-0.3c0.9-0.9,1.9-1.8,2.9-2.6c1-0.8,2.1-1.5,3.2-2.1
						c0.6-0.3,1.2-0.5,1.9-0.7c0.3-0.1,0.7-0.1,1,0c0.3,0,0.6,0.1,1,0.2c1.3,0.3,2.5,0.7,3.5,1.5l-0.1,0.1c-1.1-0.7-2.3-1-3.5-1.2
						c-0.3,0-0.6-0.1-0.9-0.1c-0.3,0-0.6,0-0.9,0.1c-0.6,0.1-1.1,0.4-1.7,0.7c-1.1,0.6-2.1,1.4-3,2.2c-0.9,0.8-1.9,1.7-2.7,2.6
						l-0.6,0.7l-0.1-0.9c-0.3-2.9-0.5-5.9-0.8-8.9l-0.7-8.9c-0.2-3-0.5-5.9-0.8-8.8c-0.1-1.5-0.4-2.9-0.7-4.3
						c-0.4-1.4-0.9-2.8-1.7-4l0-0.1l0,0c-0.2-0.9-0.2-1.8-0.1-2.6c0.1-0.9,0.2-1.7,0.4-2.5c0.4-1.7,0.9-3.3,1.4-4.9
						C11.9,256.8,13.1,253.7,14.6,250.6L14.6,250.6z"/>
					<path class="st4" d="M47.3,238.5l-4.1,16l-0.1-0.2l4,4.2l0.1,0.1l0,0.1l1.2,9.9l1.2,9.9l0.6,5c0.1,0.8,0.2,1.7,0.3,2.5
						c0,0.2,0,0.4,0.1,0.6l0,0.3c0,0,0,0-0.1-0.1c0,0-0.1-0.1-0.2-0.1c-0.1,0-0.1,0-0.1,0c-0.1,0,0,0,0,0c0.1-0.1,0.2-0.3,0.3-0.4
						c0.1-0.2,0.2-0.3,0.3-0.5c0.9-1.4,1.8-2.8,2.7-4.2c0.5-0.7,1-1.4,1.6-2c0.3-0.3,0.6-0.6,0.9-0.9c0.3-0.3,0.7-0.5,1.1-0.6l0,0.1
						c-0.4,0.1-0.7,0.3-1,0.6c-0.3,0.3-0.6,0.6-0.8,0.9c-0.5,0.7-1,1.4-1.4,2.1c-0.9,1.4-1.6,2.9-2.5,4.3c-0.1,0.2-0.2,0.4-0.3,0.5
						c-0.1,0.2-0.2,0.4-0.4,0.6c-0.1,0.1-0.1,0.1-0.3,0.2c-0.1,0-0.1,0-0.2,0c-0.1,0-0.2-0.1-0.3-0.1c-0.1-0.1-0.1-0.2-0.1-0.2
						l-0.1-0.3c-0.1-0.2-0.1-0.4-0.1-0.6c-0.1-0.8-0.2-1.7-0.4-2.5c-0.2-1.7-0.4-3.3-0.6-5c-0.4-3.3-0.7-6.6-1.1-10l-1-10l0.1,0.2
						l-3.9-4.3l-0.1-0.1l0-0.1L47.3,238.5L47.3,238.5z"/>
					<path class="st4" d="M44.2,330.6c-1,0.2-2,0.4-3,0.6c-1,0.2-2,0.5-2.9,0.9c-1,0.3-1.9,0.7-2.8,1.2c-0.9,0.5-1.7,1.1-2.3,1.8
						l-0.1,0.1l-0.1,0l-9.4,0.4l-0.1,0l-0.1-0.1l-6.9-5.3c-1.1-0.9-2.3-1.8-3.4-2.7c-1.1-0.9-2.3-1.8-3.4-2.7l-0.1,0l0-0.1
						c-0.8-1.4-1.7-2.7-2.5-4.1c-0.8-1.4-1.6-2.8-2.4-4.2l0.1,0c0.9,1.3,1.9,2.6,2.8,3.9c0.9,1.3,1.8,2.6,2.7,4l-0.1-0.1
						c1.2,0.9,2.3,1.7,3.5,2.6c1.2,0.9,2.3,1.8,3.4,2.7l6.8,5.5l-0.2-0.1l9.4-0.2l-0.2,0.1c0.7-0.8,1.6-1.4,2.5-1.9
						c0.9-0.5,1.9-0.8,2.9-1.1c1-0.3,2-0.6,3-0.8C42.2,330.8,43.2,330.6,44.2,330.6L44.2,330.6z"/>
					<path class="st4" d="M32.1,295.2l12,7l-0.1,0c1.5,0.1,3,0.4,4.5,0.6c1.5,0.2,3,0.5,4.4,0.9c1.5,0.3,2.9,0.7,4.4,1.2
						c1.4,0.5,2.9,1,4.2,1.6l-0.1,0c1.5,0.2,3,0.4,4.5,0.6c1.5,0.2,3,0.3,4.6,0.4c1.5,0.1,3,0.2,4.6,0.2c0.8,0,1.5,0,2.3-0.1
						c0.7-0.1,1.5-0.2,2.1-0.5l-0.1,0c1.3-1,2.7-1.9,4-2.9c1.3-1,2.7-1.9,4.1-2.8l0.1,0.1c-1.3,1.1-2.5,2.1-3.8,3.1
						c-1.3,1-2.6,2.1-3.9,3.1l0,0l0,0c-0.8,0.4-1.6,0.5-2.3,0.6c-0.8,0.1-1.6,0.2-2.3,0.2c-1.6,0-3.1,0-4.6-0.1
						c-3.1-0.3-6.1-0.7-9.2-1.2l-0.1,0l0,0c-1.3-0.6-2.7-1.2-4.1-1.7c-1.4-0.5-2.8-0.9-4.3-1.2c-2.9-0.7-5.8-1.3-8.8-1.6l-0.1,0l0,0
						L32.1,295.2L32.1,295.2z"/>
					<path class="st9" d="M40.9,23.1c0,0,11.1,7.6,20.8,2.2L40.9,23.1z"/>
					<path class="st4" d="M35.3,122.8l8-1.5c2.7-0.5,5.3-1,8-1.4l7.6-1.1c2.7-0.5,6.6-1.2,8.3-1.8l-0.1,0c0.8-0.3,1.6-0.5,2.4-0.6
						c0.8-0.2,1.6-0.3,2.4-0.4c0.8-0.1,1.7-0.1,2.5,0c0.4,0.1,0.8,0.2,1.2,0.3c0.2,0.1,0.4,0.1,0.6,0.2c0.1,0,0.2,0.1,0.3,0.1
						c0,0,0.1,0,0.1,0.1c0,0,0,0,0.1,0c0,0,0,0,0,0c0,0,0,0,0,0c0,0,0,0,0,0.1l-0.1-0.1c0,0.1,0,0.1,0,0.1c0,0,0,0,0,0l0,0
						c0,0,0,0-0.1,0c0,0-0.1,0-0.1,0l-0.3,0c-0.2,0-0.4,0-0.6,0c-0.4,0-0.8,0-1.2,0c-0.7,0-1.5,0.2-2.3,0.4
						c-0.8,0.2-1.5,0.4-2.3,0.6c-0.8,0.2-1.5,0.5-2.3,0.7l-0.1,0l-0.1,0c-2.7,0.4-5.4,0.8-8,1.1l-8,1.1c-2.7,0.4-5.4,0.8-8,1.1
						l-8,1.1L35.3,122.8z"/>
					<path class="st9" d="M47.1,36.1c0,0-0.3-0.2-0.3,0.1c0,0.5,0.3,0,0.8,0.1C48.1,36.4,47.1,36.1,47.1,36.1z"/>
					<path class="st9" d="M56.3,37c0,0,0.3-0.1,0.2,0.2c-0.1,0.4-0.3-0.1-0.8-0.1C55.2,37,56.3,37,56.3,37z"/>
					<path class="st4" d="M15.9,175.2c-0.8-0.8-1.7-1.7-2.6-2.5c-0.2-0.2-0.4-0.4-0.7-0.6c-0.2-0.2-0.5-0.4-0.7-0.5
						c-0.2-0.1-0.4,0.1-0.6,0.3c-0.2,0.2-0.4,0.4-0.5,0.7c-0.1,0.3-0.2,0.5-0.3,0.8c0,0.1,0,0.2,0,0.4c0,0.1,0.1,0.3,0.2,0.4
						c0.3,0.5,0.6,1,0.9,1.5c0.3,0.5,0.7,1,1,1.5c0.1,0.3,0.3,0.5,0.4,0.8c0.1,0.3,0.3,0.6,0.2,0.9c0-0.2-0.1-0.3-0.1-0.4
						c-0.1-0.1-0.1-0.3-0.2-0.4c-0.1-0.3-0.3-0.5-0.5-0.8c-0.3-0.5-0.7-0.9-1.1-1.4c-0.4-0.5-0.7-1-1-1.5c-0.1-0.1-0.1-0.3-0.2-0.4
						c-0.1-0.2-0.1-0.3-0.1-0.5c0-0.3,0.2-0.6,0.3-0.9c0.1-0.3,0.3-0.5,0.6-0.8c0.1-0.1,0.2-0.2,0.4-0.3c0.1,0,0.2-0.1,0.3-0.1
						c0.1,0,0.2,0,0.3,0.1c0.6,0.3,1,0.8,1.4,1.2C14.4,173.3,15.2,174.2,15.9,175.2z"/>
					<path class="st4" d="M12.2,169.1c-0.3,0.8-0.7,1.5-1,2.3c-0.2,0.4-0.3,0.8-0.4,1.2c-0.1,0.4-0.2,0.8-0.2,1.2
						c-0.1-0.4-0.1-0.9,0-1.3c0.1-0.4,0.2-0.8,0.4-1.2C11.2,170.5,11.6,169.7,12.2,169.1z"/>
					<path class="st4" d="M12,175.7c0.3-0.1,0.6-0.2,0.9-0.2c0.3,0,0.6-0.1,0.9-0.1c-0.6,0.1-1.1,0.3-1.6,0.6l0,0
						c-0.1,0-0.2,0-0.2-0.1C11.9,175.9,11.9,175.8,12,175.7C12,175.8,12,175.8,12,175.7z"/>
					<path class="st9" d="M76.4,143.7c-4.3-0.4-8.7-0.6-13-0.8c-4.3-0.2-8.7-0.3-13-0.3c4.3-0.3,8.7-0.5,13-0.6
						c4.4-0.1,8.7-0.2,13.1-0.1L76.4,143.7z"/>
					<path class="st4" d="M64.7,22.4C64.7,22.4,64.7,22.5,64.7,22.4L64.7,22.4z"/>
					<path class="st4" d="M63.4,22.4L63.4,22.4c0.1,0,0.3-0.1,0.4-0.1c0.1-0.6,0.2-1.1,0.2-1.5l0.6-6.4h-1.6l-0.6,7.2
						c0,0.1,0,0.1,0,0.2C62.6,22.2,63,22.5,63.4,22.4z"/>
					<g>
						<path class="st4" d="M76.3,144.7c-7.2-0.2-14.3-0.6-21.4-1.1c-7.1-0.5-14.2-1.2-21.3-2.1c7.1,0.4,14.2,0.6,21.4,0.6
							c7.1,0,14.3-0.1,21.3-0.4L76.3,144.7z"/>
					</g>
					<path class="st4" d="M38.8,14.7c0,0,0-2.7,1.4-4.7l-0.6-0.5l-1.2,1.6l-0.2,2.2L38.8,14.7z"/>
					<path class="st4" d="M37.4,12.2c0,0.1,0,0.1,0,0.2l-0.2,4.7c0,0,0,0,0,0c0,0.1,0,2.9,0,2.9l0,0c0.1,0,0.1,0.1,0.2,0.1l0,0
						c0.1,0.1,0.3,0.1,0.4,0.2c0.4,0,0.6,0.4,0.7,0l0.5-8.2H37.4z"/>
					<path class="st4" d="M61.6,7.9C58.8,5.5,53.7,3,46.4,4.5c-7.1,1.4-8.5,5.8-8.9,7.3c-0.1,0.3-0.1,0.5-0.1,0.6
						c0.2,0.4,1.6-0.2,1.6-0.2s1.7-3.8,4.6-5.1c2.9-1.3,6.7-1.5,8.5-1.2c1.8,0.3,6,1.1,8.5,3.7c2.5,2.7,2.5,4.7,2.5,4.7h1.6
						C64.7,14.4,64.5,10.6,61.6,7.9z"/>
					<polygon class="st4" points="59,39.3 57.2,37.3 57.7,37.6 45.8,35.7 46,35.7 42.5,37.1 42.3,37.1 42.2,36.9 39.1,30.9 
						42.6,36.7 42.3,36.6 45.7,34.9 45.8,34.9 45.9,34.9 57.9,35.8 58.2,35.8 58.4,36.1 60.5,37.9 					"/>
					<g>
						<path class="st4" d="M54.3,50.4c0,0.2,0.1,0.5,0.4,0.6l15.9,8.6c1,0.9,1.9,2,2.7,3.2c0.8,1.2,1.5,2.4,2.1,3.7
							c0.6,1.3,0.9,2.7,1.1,4c0.2,1.4,0,2.8-0.3,4.1c0,0.1,0,0.3,0,0.4c0.7,1.3,1.3,2.8,1.9,4.2c0.5,1.4,1,2.9,1.4,4.4
							c0.4,1.5,0.6,3,0.7,4.5c0.1,1.5,0,3-0.2,4.4l-3.5,3.4l0,0c-0.1,0.1-0.1,0.2-0.1,0.3c0,3.9-0.1,7.9-0.1,11.8l0.2,11.8l0.1,5.9
							c0,1,0,2,0,3l-0.1,3L76,143.6c0,0.1,0,0.1,0.1,0.2l0,0c0.3,0.5,0.6,1.1,0.7,1.7c0.1,0.3,0.1,0.6,0.1,0.9c0,0.3,0,0.6,0,1
							l-0.2,4c-0.1,2.6-0.3,5.3-0.3,7.9c0,1.3,0,2.7,0.1,4c0.2,1.3,0.4,2.6,0.5,3.9c0.4,2.6,0.7,5.2,0.9,7.9
							c0.5,5.2,0.7,10.5,0.5,15.8c-0.3,4.8-1,9.7-2.7,14.3c0.1,0.2,0.3,0.4,0.4,0.6c1.8-4.7,2.6-9.8,2.8-14.8
							c0.3-5.3,0.1-10.6-0.4-15.9c-0.2-2.6-0.6-5.3-0.9-7.9c-0.2-1.3-0.4-2.6-0.5-3.9c-0.1-1.3-0.1-2.6-0.1-3.9
							c0-2.6,0.2-5.3,0.3-7.9l0.2-4c0-0.3,0-0.7,0-1c0-0.4,0-0.7-0.1-1.1c-0.2-0.6-0.4-1.2-0.8-1.8l0.5-11.7l0.1-3c0-1,0-2,0-3
							l-0.1-5.9l-0.1-11.8c0-3.9,0.1-7.7,0.2-11.6l3.5-3.3l0,0c0.1-0.1,0.1-0.2,0.1-0.3c0.3-1.6,0.4-3.2,0.3-4.8
							c-0.1-1.6-0.3-3.2-0.7-4.7c-0.4-1.5-0.8-3.1-1.4-4.6c-0.5-1.4-1.1-2.8-1.8-4.2c0.4-1.4,0.5-2.9,0.3-4.3
							c-0.2-1.5-0.6-3-1.2-4.4c-0.6-1.4-1.3-2.7-2.2-3.9c-0.9-1.2-1.8-2.4-2.9-3.4c0,0-0.1-0.1-0.1-0.1l0,0l-15.6-8.5l-0.1-2.8
							c0.2,0,0.4-0.1,0.6-0.2c0.4-0.1,0.8-0.3,1.2-0.5c0.4-0.2,0.7-0.4,1.1-0.6c0.4-0.2,0.7-0.5,1-0.8c0.1-0.1,0.2-0.2,0.2-0.4l0,0
							L61.9,32l0.4-2.4c-0.2,0.1-0.3,0.2-0.5,0.4c-0.1,0.2-0.3,0.3-0.4,0.5c-0.1,0.1-0.3,0.2-0.4,0.2l0,0c-0.3,0.1-0.4,0.3-0.5,0.6
							l-2.3,12.8c-0.2,0.2-0.4,0.3-0.6,0.5c-0.3,0.2-0.6,0.4-0.9,0.5c-0.3,0.2-0.6,0.3-1,0.4c-0.3,0.1-0.7,0.2-1,0.2l0,0
							c-0.3,0.1-0.6,0.4-0.6,0.7L54.3,50.4L54.3,50.4z"/>
						<path class="st4" d="M87.8,300.7c-0.1-0.3-0.2-0.5-0.4-0.8c-0.1-0.3-0.9-1.2-1.1-1.4c-0.3-0.5-0.1-0.2-0.6-0.5
							c-0.1-0.1-0.2-0.1-0.3-0.1l0,0c-0.8,0-1.6-0.1-2.5-0.2c-0.8-0.2-1.7-0.4-2.5-0.6c-1.6-0.5-3.2-1.2-4.7-2
							c-1.5-0.8-3-1.8-4.4-2.8c-1.4-1-2.7-2.1-4-3.3c-1.3-1.1-2.6-2.3-3.8-3.6c-1.2-1.2-2.4-2.5-3.5-3.9l-0.8-1
							c-0.2-0.4-0.5-0.7-0.7-1c-0.5-0.7-0.9-1.4-1.1-2.2c-0.5-1.6-0.7-3.3-0.8-5.1c-0.2-3.5,0.1-7,0.5-10.4
							c0.4-3.5,1.1-6.9,1.9-10.3c0.8-3.4,1.7-6.8,2.6-10.2l1.4-5.1l0.3-1.3c0.1-0.4,0.2-0.9,0.2-1.4c0-0.5-0.1-1-0.5-1.4
							c-0.2-0.2-0.4-0.3-0.7-0.4c-0.1,0-0.2-0.1-0.3-0.1l0.8-2.7c-0.2,0-0.4-0.1-0.6-0.1l-0.8,3c0,0,0,0,0,0.1
							c0,0.2,0.1,0.3,0.3,0.3l0,0c0.3,0,0.7,0.2,0.9,0.4c0.2,0.2,0.3,0.6,0.3,1c0,0.4-0.1,0.8-0.2,1.2l-0.3,1.3l-1.4,5.1
							c-0.9,3.4-1.8,6.8-2.6,10.2c-0.8,3.4-1.6,6.9-2,10.4c-0.4,3.5-0.7,7-0.5,10.5c0.1,1.8,0.3,3.5,0.8,5.3
							c0.3,0.9,0.7,1.7,1.2,2.4c0.2,0.4,0.5,0.7,0.8,1.1l0.8,1c1.1,1.4,2.3,2.7,3.5,3.9c1.2,1.3,2.5,2.5,3.8,3.7
							c1.3,1.2,2.7,2.3,4.1,3.4c1.4,1.1,2.9,2.1,4.5,2.9c1.6,0.9,3.2,1.6,4.9,2.1c0.8,0.3,1.7,0.5,2.6,0.7c0.8,0.2,1.6,0.3,2.5,0.3
							c0.3,0.2,0.6,0.6,0.8,0.9c0.1,0.2,0.3,0.4,0.4,0.6c0.1,0.2,0.2,0.4,0.3,0.6c0.3,0.9,0.4,1.8,0.3,2.8c-0.1,1-0.4,1.9-0.7,2.8
							c-0.2,0.4-0.4,0.9-0.6,1.3l-0.7,1.1c-0.6,0.2-1.2,0.4-1.8,0.5l-1.1,0.2l-1.1,0.2c-0.7,0.1-1.4,0.2-2.2,0.2
							c-0.7,0-1.4,0.1-2.2,0.1c-2.9,0.1-5.8-0.2-8.7-0.6c-2.9-0.4-5.7-1-8.6-1.7c-1.4-0.4-2.8-0.8-4.2-1.2l-4.2-1.3l0,0
							c0,0,0,0-0.1,0c-1.5-0.3-3-0.4-4.4-0.5c-1.5-0.1-2.9-0.2-4.4-0.2c-1.5,0-2.9,0-4.4,0c-1.2,0-2.5,0.1-3.7,0.2l-1.2-9.8
							c0.9-3.6,1.8-7.2,2.5-11c0.1-0.5,0.2-1,0.2-1.5c0-0.5,0.1-1,0.1-1.4l0.1-1.4l0.1-1.4c0.1-1.9,0.1-3.8,0.2-5.7
							c0-3.8,0-7.6-0.3-11.4c-0.1-0.9-0.1-1.9-0.2-2.8c-0.1-0.9-0.2-1.9-0.3-2.8c0-0.5-0.1-1-0.2-1.4c-0.1-0.5-0.1-0.9-0.2-1.4
							l-0.3-1.4l-0.4-1.4c-0.1-0.3-0.3-0.5-0.6-0.6c-0.5-0.1-0.9,0.2-1,0.7l0,0.1c-1.4,7.6-2.7,15.3-3.9,23
							c-0.6,3.8-1.2,7.7-1.6,11.6c-0.1,1-0.2,1.9-0.3,2.9c-0.1,1-0.1,1.9-0.2,2.9c-0.1,1.9-0.2,3.9-0.2,5.9c0,2,0.1,4,0.4,5.9
							c0.3,2,0.8,3.9,1.4,5.8c0.2,0.5,0.3,0.9,0.5,1.4l0.6,1.4c0.4,0.9,0.9,1.8,1.4,2.7c0.3,0.4,0.5,0.9,0.8,1.3l0.8,1.3
							c0.5,0.8,1.1,1.6,1.7,2.4c2.2,3.2,4.5,6.3,7,9.4c0.6,0.8,1.2,1.5,1.9,2.3l0.9,1.1c0.2,0.2,0.3,0.5,0.3,0.9
							c0,0.3,0,0.7-0.1,1.1c-0.1,0.4-0.3,0.9-0.4,1.3c-0.3,0.8-0.6,1.5-0.9,2.3c-0.7,0.2-1.4,0.4-2.1,0.6c-0.9,0.2-1.7,0.4-2.6,0.5
							c-1.7,0.3-3.5,0.4-5.2,0.4c-1.7,0-3.5-0.2-5.2-0.6c-1.7-0.4-3.3-1-4.8-1.8c-0.8-0.4-1.5-0.8-2.2-1.4c-0.7-0.5-1.5-1-2.2-1.6
							c-1.4-1.1-2.8-2.2-4-3.4c-0.6-0.6-1.2-1.3-1.9-2c-0.7-0.7-1.4-1.3-2.1-1.9c-1.3-1-2.7-2-4.1-2.9l-0.6-9.7
							c0.1-0.1,0.1-0.2,0.2-0.3c0.1-0.2,0.2-0.4,0.2-0.6c0.2-0.4,0.3-0.7,0.4-1.1c0.1-0.4,0.2-0.7,0.3-1.1c0.1-0.4,0.2-0.7,0.2-1.1
							c0.2-1.5,0.4-3,0.4-4.5c0.1-3-0.1-5.9-0.4-8.9c-0.6-5.8-1.1-11.6-1.5-17.4c-0.3-5.8-0.5-11.6-0.3-17.4
							c0.2-5.7,0.7-11.4,1.8-17l0.9-1c0.1-0.1,0.2-0.3,0.2-0.4l0,0c0.4-2,1-4.1,1.7-6.2c0.7-2,1.4-4,2.3-6c0.9-2,1.9-3.8,3-5.6
							c1.1-1.8,2.4-3.5,3.8-5.1l0,0c0.1-0.1,0.2-0.2,0.2-0.4l6.8-31.7l3.4-15.8c0.1-0.3,0.1-0.6,0.2-1c0.1-0.3,0.1-0.7,0.1-1
							c0.1-0.7,0.1-1.4,0.2-2.1c0.1-1.4,0.1-2.8,0-4.1c-0.1-2.7-0.5-5.4-1.2-8.1c-0.1-1.2,0-2.5,0.2-3.7c0.2-1.2,0.5-2.5,1-3.7
							c0.4-1.2,1-2.3,1.6-3.4c0.6-1.1,1.5-2.1,2.3-3l0,0c0,0,0-0.1,0.1-0.1c0.9-1.7,1.4-3.5,1.8-5.3c0.4-1.8,0.7-3.6,0.8-5.5
							c0-0.5,0-0.9,0-1.4c0-0.5,0-0.9,0-1.4l0-1.4l-0.1-1.4c-0.1-0.9-0.2-1.8-0.4-2.7c-0.2-0.9-0.4-1.8-0.6-2.7
							c0-0.1-0.1-0.2-0.1-0.2l0,0l-13.4-15.2c-0.1-0.1-0.1-0.1-0.2-0.1c-0.3-0.1-0.5,0.1-0.6,0.3c-0.5,1.4-1,2.8-1.6,4.2
							c-0.6,1.4-1.2,2.7-1.9,4.1c-0.7,1.3-1.4,2.6-2.3,3.8c-0.9,1.2-1.8,2.4-3,3.2c-0.2,0.1-0.2,0.3-0.1,0.5l0,0
							c0.5,1,0.8,2.3,0.9,3.4c0.2,1.2,0.2,2.4,0.1,3.6c-0.1,0.6-0.1,1.2-0.2,1.8c0,0.3-0.1,0.6-0.1,0.9l-0.2,0.9
							c-0.1,0.6-0.3,1.2-0.5,1.8c-0.2,0.6-0.4,1.1-0.6,1.7l0,0c0,0.1,0,0.1,0,0.2l0.4,1.4c-0.7,1.5-1.3,3-1.9,4.6
							c-0.6,1.6-1.1,3.2-1.6,4.8c-0.5,1.6-0.9,3.3-1.3,4.9c-0.3,1.7-0.6,3.3-0.7,5c0,0.1,0,0.2,0.1,0.2c1.4,0.7,2.9,1.5,4.3,2.3
							c0.7,0.4,1.4,0.9,2,1.3c0.3,0.2,0.6,0.5,0.9,0.8c0.2,0.3,0.4,0.7,0.6,1l4.4,8.7c0.2,0.5,0.2,1.1,0.2,1.7
							c0,0.3-0.1,0.6-0.2,0.8c-0.1,0.3-0.3,0.5-0.5,0.7c-0.9,0.5-1.8,1-2.6,1.4c0,0,0,0.1,0,0.1l0,0l0,0l0,0l0.1,0.1
							c0.1,0.1,0.1,0.1,0.2,0.2c0.1,0.1,0.2,0.3,0.3,0.4c0.2,0.3,0.3,0.6,0.3,1c0,0.3-0.1,0.7-0.2,1l-0.3,1
							c-0.4,1.3-0.9,2.6-1.3,3.9l-4.6,1.4c-2.4-0.6-4.8-1.2-7.2-1.7c-1.2-0.3-2.4-0.5-3.7-0.8c-1.2-0.2-2.4-0.5-3.6-0.6l-1.9-1.9
							l0,0c0,0-0.1-0.1-0.1-0.1c0-0.1-0.1-0.1-0.1-0.2c-0.1-0.2-0.2-0.3-0.2-0.5c-0.1-0.3-0.2-0.7-0.3-1c-0.2-0.7-0.3-1.4-0.5-2.2
							c-0.3-1.5-0.4-2.9-0.6-4.4c-0.1-1.5-0.3-3-0.3-4.5c-0.1-1.5-0.1-3-0.2-4.5c0-0.1,0-0.8-0.1-0.8l-2.1-0.9
							c-0.1-2.3-0.4-4.6-1-6.8c-0.3-1.2-0.6-2.3-1.1-3.4c-0.4-1.1-0.9-2.2-1.3-3.3c-0.8-2.2-1.4-4.4-1.7-6.7
							c-0.3-2.2-0.2-4.4,0.1-6.7l1.6-0.8c0.1-0.1,0.2-0.2,0.3-0.4l0,0c0.5-3.1,1.1-6.3,1.7-9.4c0.3-1.6,0.7-3.1,1.1-4.6
							c0.4-1.5,0.8-2.9,1.4-4.4c0.7-0.4,1.2-0.9,1.7-1.4c0.6-0.6,1-1.2,1.5-1.8c0.9-1.3,1.6-2.7,2.1-4.1c0.6-1.4,0.9-2.9,1.2-4.4
							c0.1-0.8,0.2-1.5,0.3-2.3l0.2-2.3c0-0.1,0-0.2-0.1-0.3l0,0c-0.1-0.1-0.1-0.3-0.2-0.4c-0.1-0.2-0.1-0.3-0.2-0.5
							c-0.1-0.3-0.2-0.7-0.3-1.1c-0.1-0.4-0.1-0.7-0.1-1.1c0-0.4,0-0.7,0-1.1c0.1-1.5,0.4-3,1-4.4c0.2-0.7,0.6-1.4,0.9-2.1
							c0.3-0.7,0.8-1.3,1.1-2c0.4-0.6,0.9-1.3,1.3-1.9L1.9,80l0,0C2,79.9,2,79.7,2,79.5c-0.1-1.5,0-3.1,0.1-4.6
							c0.2-1.5,0.5-3.1,1-4.5c0.5-1.5,1.1-2.9,1.9-4.2c0.8-1.3,1.7-2.5,2.8-3.6c0.3-0.3,0.6-0.5,0.8-0.8c0.3-0.3,0.6-0.5,0.9-0.7
							l1-0.7l1-0.7c1.3-1,2.5-1.9,3.8-2.9c1.3-1,2.5-2,3.7-3c1.2-1,2.4-2,3.5-3.2c0.8-0.7,1.7-1.3,2.7-1.8c0.9-0.6,1.9-1.1,2.9-1.5
							c1-0.4,2-0.8,3.1-1c1-0.3,2.1-0.4,3.2-0.4l0,0c0.2,0,0.4-0.1,0.6-0.3c0.2-0.3,0.3-0.6,0.5-0.9c0.1-0.3,0.3-0.6,0.4-0.9
							c0.2-0.6,0.4-1.2,0.6-1.7c0.4-1.2,0.7-2.4,0.9-3.5c0.2-1.2,0.3-2.3,0.4-3.5l0.2-1.7l0.1-2c0,0,0-0.7,0-0.7
							c0-0.4-0.2-0.1-0.6-0.1l0,0c-0.2,0-0.4,0-0.7-0.1l-0.2,1.6l-0.1,1l-0.2,1.8c-0.1,1.2-0.3,2.3-0.5,3.5
							c-0.2,1.1-0.5,2.3-0.8,3.4c-0.2,0.6-0.4,1.1-0.6,1.6c-0.1,0.3-0.2,0.5-0.3,0.8C34,43.9,34,44,33.9,44.1
							c-1,0.1-2.1,0.2-3.1,0.5c-1.1,0.3-2.3,0.7-3.3,1.1c-1.1,0.5-2.1,1-3.1,1.6c-1,0.6-1.9,1.2-2.9,2c0,0,0,0-0.1,0.1l0,0
							c-1,1.1-2.2,2.1-3.4,3.1c-1.2,1-2.4,2-3.7,3c-1.2,1-2.5,2-3.8,2.9l-0.9,0.7l-1,0.7c-0.3,0.3-0.6,0.5-1,0.8
							c-0.3,0.3-0.6,0.6-0.9,0.9c-1.2,1.2-2.2,2.5-3,3.9c-0.8,1.4-1.5,2.9-2,4.5c-0.5,1.6-0.8,3.2-1,4.8c-0.2,1.5-0.2,3-0.1,4.6
							L-0.7,81c-0.5,0.6-0.9,1.3-1.4,2c-0.4,0.7-0.8,1.4-1.2,2.1c-0.3,0.7-0.7,1.4-1,2.2c-0.6,1.5-1,3.1-1,4.8c0,0.4,0,0.8,0,1.2
							c0,0.4,0.1,0.8,0.2,1.2c0.1,0.4,0.2,0.8,0.3,1.2c0.1,0.2,0.1,0.4,0.2,0.6c0.1,0.1,0.1,0.3,0.2,0.4l-0.2,2
							c-0.1,0.7-0.2,1.5-0.3,2.2c-0.3,1.4-0.6,2.9-1.1,4.2c-0.5,1.4-1.1,2.7-1.9,3.9c-0.4,0.6-0.8,1.2-1.3,1.7
							c-0.2,0.3-0.5,0.5-0.8,0.7c-0.3,0.2-0.6,0.5-0.8,0.6l0,0c-0.1,0.1-0.2,0.2-0.2,0.3c-0.6,1.5-1,3.1-1.4,4.6
							c-0.4,1.6-0.8,3.1-1.1,4.7c-0.6,3.1-1.2,6.1-1.6,9.2l-1.6,0.8l0,0c-0.1,0.1-0.2,0.2-0.3,0.4c-0.2,2.4-0.3,4.8,0,7.2
							c0.3,2.4,0.9,4.7,1.8,6.9c0.4,1.1,0.9,2.2,1.3,3.3c0.4,1.1,0.8,2.2,1,3.3c0.6,2.3,0.9,4.6,1,6.9l0,0c0,0.1,0.1,0.2,0.2,0.3
							l2,1.4c0.1,1.4,0.1,2.9,0.2,4.3c0.1,1.5,0.2,3,0.4,4.5c0.2,1.5,0.4,3,0.6,4.5c0.1,0.7,0.3,1.5,0.5,2.2
							c0.1,0.4,0.2,0.7,0.4,1.1c0.1,0.2,0.2,0.4,0.2,0.5c0.1,0.1,0.1,0.2,0.2,0.3c0.1,0.1,0.1,0.2,0.2,0.3l0,0l2,2
							c0,0,0.1,0.1,0.2,0.1c1.2,0.1,2.4,0.4,3.7,0.6c1.2,0.2,2.4,0.5,3.7,0.7c2.4,0.5,4.9,1.1,7.3,1.6l0,0c0,0,0.1,0,0.1,0l4.7-1.6
							l0,0c0,0,0.1,0,0.1-0.1c0.4-1.3,0.9-2.7,1.3-4l0.3-1c0.1-0.3,0.2-0.7,0.2-1.1c0-0.4-0.1-0.7-0.3-1.1c-0.1-0.2-0.2-0.3-0.3-0.4
							c-0.1-0.1-0.1-0.1-0.2-0.2l-0.1-0.1l0,0c0.9-0.4,1.7-0.8,2.5-1.3c0,0,0,0,0,0c0.2-0.2,0.5-0.4,0.6-0.7
							c0.1-0.3,0.2-0.6,0.3-0.9c0-0.3,0-0.6,0-0.9c0-0.3-0.1-0.6-0.2-0.9l0,0l0,0l-4.3-8.7c-0.2-0.4-0.3-0.7-0.6-1.1
							c-0.3-0.3-0.6-0.6-0.9-0.8c-0.7-0.5-1.3-1-2-1.4c-1.3-0.8-2.7-1.6-4.1-2.3c0.1-1.6,0.4-3.2,0.7-4.8c0.4-1.6,0.8-3.3,1.3-4.9
							c0.5-1.6,1.1-3.2,1.7-4.7c0.6-1.6,1.3-3.1,2-4.6c0-0.1,0-0.2,0-0.2l-0.4-1.4c0.2-0.5,0.4-1.1,0.6-1.6l0.3-0.9
							c0.1-0.3,0.2-0.6,0.2-0.9l0.2-0.9c0.1-0.3,0.1-0.6,0.2-0.9c0.1-0.6,0.2-1.2,0.2-1.9c0.1-1.3,0-2.5-0.1-3.8
							c-0.2-1.1-0.4-2.3-0.8-3.4c1.2-0.9,2.1-2,2.9-3.2c0.9-1.2,1.7-2.6,2.4-3.9c0.7-1.4,1.4-2.7,2-4.1c0.5-1.1,0.9-2.3,1.4-3.5
							L34,120.1c0.2,0.8,0.4,1.7,0.5,2.5c0.1,0.9,0.3,1.8,0.3,2.7l0.1,1.3l0,1.3c0,0.4,0,0.9,0,1.3c0,0.4,0,0.9-0.1,1.3
							c-0.1,1.8-0.4,3.5-0.8,5.3c-0.2,0.9-0.5,1.7-0.7,2.6c-0.3,0.8-0.6,1.6-1,2.4c-0.9,1-1.7,2-2.4,3.1c-0.7,1.1-1.3,2.4-1.8,3.6
							c-0.5,1.3-0.8,2.6-1,3.9c-0.2,1.3-0.3,2.7-0.2,4.1c0,0,0,0,0,0.1l0,0c0.6,2.6,1,5.2,1.1,7.9c0.1,1.3,0.1,2.7,0,4
							c-0.1,1.3-0.2,2.6-0.5,3.9l-3.5,15.8l-6.9,31.4c-1.4,1.6-2.7,3.3-3.8,5.1c-1.1,1.9-2.2,3.8-3.1,5.8c-0.9,2-1.7,4.1-2.4,6.1
							c-0.7,2-1.2,4-1.7,6.1l-0.9,1l0,0C5.1,243,5,243.2,5,243.3c-1.2,5.8-1.7,11.7-1.9,17.5c-0.2,5.9-0.1,11.7,0.3,17.6
							c0.3,5.8,0.8,11.7,1.4,17.5c0.3,2.9,0.5,5.7,0.3,8.6c0,1.4-0.2,2.8-0.4,4.2c-0.1,0.3-0.1,0.7-0.2,1c-0.1,0.3-0.2,0.7-0.2,1
							c-0.1,0.3-0.2,0.6-0.3,1c-0.1,0.2-0.1,0.3-0.2,0.4c-0.1,0.1-0.2,0.3-0.2,0.3l-0.1,0.1c-0.1,0.2-0.1,0.3-0.1,0.5L4,323.6
							c0,0.3,0.2,0.6,0.4,0.8l0,0c1.5,1,3,1.9,4.4,3c0.7,0.5,1.3,1.1,2,1.7c0.6,0.6,1.2,1.3,1.9,1.9c1.3,1.3,2.8,2.5,4.3,3.6
							c0.7,0.5,1.5,1.1,2.2,1.6c0.7,0.5,1.6,1,2.4,1.5c1.7,0.9,3.5,1.5,5.3,2c1.8,0.4,3.7,0.6,5.6,0.6c1.9,0,3.7-0.1,5.6-0.4
							c0.9-0.2,1.8-0.3,2.7-0.6c0.9-0.2,1.8-0.5,2.7-0.8c0.2-0.1,0.4-0.3,0.5-0.5l0,0c0.4-0.9,0.8-1.8,1.1-2.8
							c0.2-0.5,0.3-0.9,0.5-1.5c0.1-0.5,0.3-1.1,0.2-1.8c-0.1-0.6-0.3-1.3-0.7-1.8l-1-1.1c-0.6-0.7-1.2-1.5-1.8-2.2
							c-2.4-3-4.7-6.1-6.9-9.3c-0.5-0.8-1.1-1.6-1.6-2.4l-0.8-1.2c-0.3-0.4-0.5-0.8-0.7-1.2c-0.5-0.8-0.9-1.7-1.3-2.5l-0.6-1.3
							c-0.2-0.4-0.3-0.9-0.5-1.3c-0.6-1.8-1.1-3.6-1.4-5.5c-0.3-1.9-0.4-3.8-0.4-5.7c0-1.9,0-3.8,0.2-5.7c0.1-1,0.1-1.9,0.2-2.9
							c0.1-1,0.2-1.9,0.3-2.9c0.4-3.8,1-7.7,1.6-11.5c1-6.3,2-12.5,3.1-18.8c0.1,0.5,0.1,0.9,0.2,1.4c0.1,0.9,0.2,1.9,0.3,2.8
							c0.1,0.9,0.2,1.9,0.2,2.8c0.2,3.7,0.3,7.5,0.3,11.3c0,1.9,0,3.8-0.1,5.6c-0.1,1.9-0.2,3.8-0.5,5.5c-0.7,3.7-1.5,7.4-2.5,11
							l0,0c0,0.1,0,0.2,0,0.3l1.4,10.6c0.1,0.4,0.4,0.7,0.8,0.6c1.4-0.1,2.9-0.2,4.3-0.2c1.4,0,2.9-0.1,4.3,0c1.4,0,2.9,0.1,4.3,0.2
							c1.4,0.1,2.9,0.2,4.2,0.5l4.2,1.3c1.4,0.4,2.8,0.8,4.3,1.2c2.9,0.7,5.8,1.3,8.7,1.6c2.9,0.4,5.9,0.6,8.9,0.5
							c0.7,0,1.5-0.1,2.2-0.1c0.7-0.1,1.5-0.1,2.2-0.3l1.1-0.2l1.1-0.2c0.7-0.2,1.4-0.3,2.2-0.7l0,0c0.1,0,0.2-0.1,0.3-0.2l0.8-1.4
							c0.2-0.5,0.5-1,0.7-1.5c0.4-1,0.7-2.1,0.8-3.2C88.3,302.9,88.2,301.7,87.8,300.7z"/>
					</g>
					<path class="st4" d="M75.7,205.1"/>
					<polygon class="st4" points="62.7,228.8 65.8,229.1 76.1,205.6 75.7,205.1 65.4,228.3 62.3,228.1 62.1,228.7 					"/>
					<path class="st4" d="M62.5,178.1c-0.1,0-0.1,0-0.2,0c0,0.1-0.1,0.1-0.1,0.2c0,0,0,0,0,0l0,0c-0.5,3.2-1.2,6.4-1.9,9.6
						c-0.7,3.2-1.6,6.4-2.4,9.5c-0.9,3.1-1.8,6.3-2.8,9.4c-1.1,3.1-2.4,6.1-3.9,8.9c-3,5.8-6.7,11.2-10.6,16.4c-1,1.3-2,2.6-2.9,4.1
						c-0.1,0.2-0.2,0.4-0.3,0.6c0,0.1-0.1,0.2-0.1,0.4c0,0.1,0,0.2-0.1,0.2l0,0.1c0,0.4-0.1,0.8-0.2,1.1c-0.2,0.8-0.4,1.5-0.7,2.2
						c-0.3,0.7-0.6,1.4-1,2.1c-0.1,0.2-0.2,0.3-0.3,0.5c-0.1,0.2-0.2,0.3-0.3,0.5c-0.3,0.4-0.5,0.8-0.6,1.2
						c-0.7,1.6-1.2,3.2-1.5,4.9c0,0,0,0,0,0c-0.1,0.5,0.2,1,0.7,1.1c0.5,0.1,1-0.2,1.1-0.7l0,0c0.3-1.5,0.7-3.1,1.3-4.5
						c0.2-0.3,0.3-0.7,0.5-1c0.1-0.1,0.2-0.3,0.3-0.5c0.1-0.2,0.2-0.4,0.3-0.6c0.4-0.8,0.8-1.5,1.1-2.3c0.3-0.8,0.5-1.6,0.7-2.5
						c0.1-0.4,0.2-0.9,0.2-1.3l0-0.2c0,0,0,0,0-0.1c0,0,0-0.1,0.1-0.2c0-0.1,0.1-0.3,0.2-0.5c0.8-1.3,1.8-2.7,2.7-4
						c3.8-5.3,7.4-10.9,10.3-16.8c1.5-3,2.7-6,3.8-9.1c1-3.2,1.8-6.3,2.7-9.5c0.8-3.2,1.6-6.4,2.3-9.6c0.7-3.2,1.3-6.4,1.7-9.7
						C62.4,178.2,62.4,178.2,62.5,178.1z"/>
				</g>
			</g>
		</g>
	</g>
	<g>
		<g>
			<g>
				<path class="st20" d="M79,11.1c-0.6-0.5-1.4-0.5-2,0c-0.5,0.6-0.5,1.4,0,2c1.3,1.3,2.5,2.7,3.7,4.1l-0.1,0.3L79.9,20l2.5,0.2
					l0.4,0c4.1,6.2,6.5,13.4,7,21l-0.6,0.5l-1.9,1.6l1.9,1.6l0.6,0.5c-0.3,7.3-2.3,14.3-6,20.4l-1,0.1L80.4,66l0.7,2.4l0.3,1
					c-1.3,1.8-2.8,3.5-4.4,5.1c-0.6,0.5-0.6,1.4,0,2c0.3,0.3,0.6,0.4,1,0.4c0.4,0,0.7-0.1,1-0.4c8.9-8.7,13.8-20.3,13.8-32.7
					C92.7,31.4,87.8,19.8,79,11.1z"/>
			</g>
			<g>
				<path class="st20" d="M16.9,11.2c-0.5-0.6-1.4-0.6-2,0C6.1,19.8,1.2,31.4,1.2,43.8c0,12.4,4.9,24,13.8,32.7
					c0.3,0.3,0.6,0.4,1,0.4c0.4,0,0.7-0.1,1-0.4c0.5-0.6,0.5-1.4,0-2c-1.6-1.6-3.1-3.3-4.5-5.1l0.3-1l0.7-2.4l-2.5-0.2L10,65.8
					c-3.7-6.2-5.7-13.2-6-20.5l0.5-0.4l1.9-1.6l-1.9-1.6l-0.5-0.4c0.4-7.6,2.9-14.8,7-21.1l0.3,0l2.5-0.2l-0.7-2.4l-0.1-0.3
					c1.2-1.5,2.4-2.9,3.7-4.2C17.5,12.6,17.5,11.7,16.9,11.2z"/>
			</g>
		</g>
	</g>
</g>
</svg>
