<?xml version="1.0" encoding="utf-8"?>
<!-- Generator: Adobe Illustrator 23.1.1, SVG Export Plug-In . SVG Version: 6.00 Build 0)  -->
<svg version="1.1" id="Capa_1" xmlns="http://www.w3.org/2000/svg" xmlns:xlink="http://www.w3.org/1999/xlink" x="0px" y="0px"
	 viewBox="0 0 94 80" style="enable-background:new 0 0 94 80;" xml:space="preserve">
<style type="text/css">
	.st0{fill:#1DCE58;}
	.st1{fill:#FFFFFF;}
	.st2{clip-path:url(#SVGID_2_);}
	.st3{fill:#E5E6E7;}
	.st4{fill:#A1D8F1;}
	.st5{fill:#7E5FA4;}
	.st6{fill:#FCE6D6;}
	.st7{fill:#674393;}
	.st8{fill:#F6D6C0;}
	.st9{fill:#70C7E1;}
	.st10{fill:#5BC0D5;}
	.st11{opacity:0.49;fill:none;}
	.st12{opacity:0.49;fill:#FFFFFF;}
	.st13{fill:#B79ECB;}
	.st14{fill:#704896;}
	.st15{fill:#616261;}
	.st16{fill:#6B6C6B;}
	.st17{fill:#7E7F80;}
	.st18{fill:#583D90;}
	.st19{fill:#674896;}
	.st20{fill:#684997;}
	.st21{fill:#EFD1BD;}
	.st22{opacity:0.51;fill:#A98ABF;}
	.st23{fill:#614192;}
	.st24{fill:#1D1D1B;}
	.st25{fill:#DAAE90;}
	.st26{fill:#616160;}
	.st27{opacity:0.78;}
	.st28{fill:#A8D9E0;}
</style>
<g>
	<g>
		<g>
			<g>
				<g>
					<path class="st0" d="M79,11.1c-0.6-0.5-1.4-0.5-2,0c-0.5,0.6-0.5,1.4,0,2c1.3,1.3,2.5,2.7,3.7,4.1l-0.1,0.3L79.9,20l2.5,0.2
						l0.4,0c4.1,6.2,6.5,13.4,7,21l-0.6,0.5l-1.9,1.6l1.9,1.6l0.6,0.5c-0.3,7.3-2.3,14.3-6,20.4l-1,0.1L80.5,66l0.7,2.4l0.3,1
						c-1.3,1.8-2.8,3.5-4.4,5.1c-0.6,0.5-0.6,1.4,0,2c0.3,0.3,0.6,0.4,1,0.4c0.4,0,0.7-0.1,1-0.4c8.9-8.7,13.8-20.3,13.8-32.7
						C92.8,31.4,87.9,19.8,79,11.1z"/>
				</g>
				<g>
					<path class="st0" d="M17,11.2c-0.5-0.6-1.4-0.6-2,0C6.1,19.8,1.2,31.4,1.2,43.8c0,12.4,4.9,24,13.8,32.7c0.3,0.3,0.6,0.4,1,0.4
						c0.4,0,0.7-0.1,1-0.4c0.5-0.6,0.5-1.4,0-2c-1.6-1.6-3.1-3.3-4.5-5.1l0.3-1l0.7-2.4l-2.5-0.2l-0.9-0.1c-3.7-6.2-5.7-13.2-6-20.5
						l0.5-0.4l1.9-1.6l-1.9-1.6l-0.5-0.4c0.4-7.6,2.9-14.8,7-21.1l0.3,0L14,20l-0.7-2.4l-0.1-0.3c1.2-1.5,2.4-2.9,3.7-4.2
						C17.5,12.6,17.5,11.7,17,11.2z"/>
				</g>
			</g>
		</g>
	</g>
	<g>
		<g>
			<path class="st1" d="M47.4,79.5c-19.8,0-36-16.1-36-36s16.1-36,36-36c19.8,0,36,16.1,36,36S67.2,79.5,47.4,79.5z M47.4,8.6
				c-19.3,0-35,15.7-35,35c0,19.3,15.7,35,35,35s35-15.7,35-35C82.4,24.3,66.7,8.6,47.4,8.6z"/>
		</g>
	</g>
	<g>
		<defs>
			<path id="SVGID_1_" d="M82.4,43.3c0,19.3-15.7,35-35,35s-35-15.7-35-35S26.7,0.7,46,0.7S82.4,24,82.4,43.3z"/>
		</defs>
		<clipPath id="SVGID_2_">
			<use xlink:href="#SVGID_1_"  style="overflow:visible;"/>
		</clipPath>
		<g class="st2">
			<g>
				<ellipse class="st3" cx="67.5" cy="276.6" rx="33.3" ry="5.1"/>
				<path class="st4" d="M18.6,103.4c0,0-3.9-6.1-8.3-7.6l1.1-1.7l6.3-9.4l0.5-13.7c0,0-1.9-7.7-1.5-9.2s0.5-3.9,1.9-5
					c1.4-1.1,4.7-3.9,5.1-4.2s3.8-1.4,4.3-1.7c0.5-0.3,3.8-1.9,4.1-2.3s2.8-3,2.8-3v-3.1l-0.3-8.1c0,0-1.2-2.6-1.1-3.5v-12
					c0,0-0.1-3.5,0.8-6.2s2.6-5.2,9.4-6.5s10.2,4.8,10.4,5.1c0.2,0.3,1.4,4.3,1.4,4.3l-0.1,5.1v9.3c0,0-1.7,5.8-1.7,6.3
					c0,0.4-1,1.7-0.2,2.6c0.8,0.9,4.7,4.8,4.7,4.8l5,0.3c0,0,10.7,0.3,14.7,4.7c4,4.3,6,7.5,6,7.5s4,5.8,5.6,7s4.8,4.2,4.8,4.2
					l3.2,4.3c0,0,2.1,2.8,2.6,3.5c0.5,0.6,3.9,2.3,3.9,2.3s1.2,1.1,1.2,1.7s0.1,2.2,0.3,2.7c0.2,0.5,0.9,2.4,1,2.7
					c0.1,0.3,0.3,3.2,0.3,3.2S100,88.3,95.8,92c0,0-3.6-4.3-3.7-7.8c0,0-11-6.2-15.1-11.5c0,0-1.8-2.2-2.6-2.6
					c-0.8-0.4-1.1,4.5-1.1,4.5L70,87.6l-2.9,8.2c0,0-1.7,4.3-1.7,4.7s-0.8,3.5-0.5,5.1c0.2,1.6,0,3.9,0,3.9s-24.5,8.7-33.9,2.9
					l-1.9-9.5l-1.6-11.1C27.4,91.7,20,102.4,18.6,103.4z"/>
				<polyline class="st5" points="35.5,50.6 35,43.2 34.5,34.4 33.6,32.7 33.4,26.2 33.4,14.4 33.9,13.3 35.7,12.5 38.4,12.7 
					40.9,13 47.7,13.1 52.3,12.4 54.7,13.2 55.8,15.4 55.4,29.9 53.3,37.3 53.3,39.5 58.1,43.5 49.8,49.3 35.5,50.6 				"/>
				<path class="st5" d="M95.3,93c0,0,3-2.7,5.2-3.7c2.2-1,6.2-1.6,6.2-1.6l1.1,1.2l-0.1,4.5l1.3,8l1.2,5.7c0,0,0.3,1.6,0.3,2.1
					c0,0.4-1.1,2.3-1.1,2.3l-0.3-4.1c0,0-1.6-1.2-2.4-1c-0.8,0.2-6.3,0.9-6.3,0.9S98,96.2,95.3,93z"/>
				<path class="st5" d="M4.6,119.6l1.5,0.2l0.7-1.3l3.1-4.2l2.3-2.3l4.6-5.1l1.9-2.4c0,0-0.8-2.8-2-4s-5.3-4.6-6.5-4.7
					c-1.2-0.1-2,0.4-2,0.4l-1.6,4L1,108.6l-2.1,3.9l0.2,0.9c0,0,1.1,0.2,2.5,0.8c1.4,0.6,4.1,3.8,4.1,3.8L4.6,119.6z"/>
				<path class="st6" d="M37.8,37.3c-0.3-0.3-1.6-1.6-1.6-1.6l-0.9-2.9L35,29.6L35,27.8l6.4-0.1c0,0,1.4,0.3,2.1,0.6
					c0.7,0.3,2.5,0.1,2.5,0.1l1.8-0.6l3.9-0.1l2.5,0.1L53.9,31c0,0-0.5,5.1-1.9,7.1l-3.9,2.5l-5.1,0.1l-3.4-2.1L37.8,37.3z"/>
				<path class="st7" d="M45.1,20.9c0,0-0.1-2.4,3.6-2.7c2.2-0.2,1-4,1-4S48.4,8,45.3,6.1c0,0,7.2,0.7,8.8,5.1
					c1.2,3.1,1.3,6.4,1.3,6.4l0,3.1c0,0-3.1-1.7-5.7-1.2l-3.1,1.2l-0.7,0.9L45.1,20.9z"/>
				<path class="st7" d="M44.7,23.4c0,0,0.1,4.5,0.2,4.8c0.2,0.3,1,0.3,1,0.3l1.8-0.6l6.5-0.1L53.9,31c0,0-0.5,5.7-1.9,7.1l1.4-0.8
					c0,0,1.6-3.7,1.5-4s0.3-4.1,0.3-4.1L55,25.1c0,0-2.3,1.4-4.7,1.4c-2.1,0-3.2,0.6-3.6-0.4c-0.3-0.9-0.9-2.9-0.9-2.9L44.7,23.4z"
					/>
				<path class="st7" d="M54.1,26.1l0.1,1.7c0,0-0.4,3.7-0.6,4.5c-0.2,0.8-0.6,4.3-1.7,5.8c0,0,1.9-0.8,2.4-3.8
					c0.5-2.9,0.5-4.2,0.8-5c0.3-0.8,0.4-4.1,0.4-4.1L54.1,26.1z"/>
				<path class="st8" d="M37.6,27.9c0,0,3.4,0.3,4.3,0.6c0.9,0.2,2.2,1.1,3.4,1c1.2-0.2,2.5-0.8,2.8-0.5s0,1.8,0.2,2.7
					c0.1,0.6,0.8,1,0.6,2c-0.3,1.4-0.7,6.6-2.3,7c0,0,4.5-1.6,5.4-2.6c0,0,1.5-2.3,2.3-10.3l-6.5,0.1c0,0-2.8,1.1-4.3,0.5
					C42,27.7,37.6,27.9,37.6,27.9z"/>
				<path class="st7" d="M56.2,41.5c0,0-3.2-3-2.9-4.2c0,0-4.3,3.6-8,3.6c-2.9,0-6.1-1.8-9.1-5.2c0,0,5.2,11.6,8.9,13.7l4.7-0.2
					l7.9-5.7L56.2,41.5z"/>
				<path class="st9" d="M40.5,74.8c0,0,17-0.9,20.3-5.4c4-5.5,4.9-12.4,6.3-12.6c1-0.1,2.2,4.1,3.9,6.4c1.4,1.9,5.3,5.7,8.1,8.1
					s10.8,9.7,13.2,10s6.5,8.5,6.5,8.5L95.8,92c0,0-3.7-3.1-3.7-7.8c0,0-12.1-7.5-19.3-15.7c0,0-3.2-6.3-5.8-2.4s-5,8.9-10.2,8.9
					S40.5,74.8,40.5,74.8z"/>
				<path class="st9" d="M67.8,57.6c4.9,5.4,13.1,4.7,17.6,3.9c2.4-0.4-5.1-12.9-14.5-16.1c0,0,8.9,2.6,12.8,10.6c0,0,4.3,5.8,5.6,7
					s6.5,6.8,6.5,6.8L100,75l3.9,2.3l1.5,4.4l1.3,6c0,0-8.4,2.1-10.8,4.3c0,0-1.1-6.8-1.5-7.5c-0.4-0.6-7.6-4.3-9.1-5.8
					c-1.5-1.5-9.5-9.7-10.2-10.2C70.8,65.3,67.8,57.6,67.8,57.6z"/>
				<path class="st10" d="M71.2,66.4c0,0,8,6,10.9,7.8c2.9,1.8,10.5,7.1,12.5,7.6s4.4,8,4.4,8L95.8,92c0,0-3.9-4.9-3.7-7.8
					C92.2,84.2,79.4,77.6,71.2,66.4z"/>
				<path class="st9" d="M18.6,103.4c0,0-0.6-2.4-2.9-3.9c0,0,6.4-8.6,7.1-12.5c1.2-6-2.1-15.5-0.1-23.1c0,0-1.6,10.4,0.9,14.2
					c0,0,1.3,1.8,1.5,2.8s2.3,10.9,2.3,10.9S20.9,101.9,18.6,103.4z"/>
				<path class="st10" d="M18.6,103.4c0,0,0.2-0.2-1-1.7c0,0,0.6-1.5,4.8-6.9c3.4-4.4,4.2-8.2,4.2-8.2l0.8,5.2
					C27.4,91.7,20.5,102.3,18.6,103.4z"/>
				<path class="st9" d="M70,87.6c-0.3-1.4,4.4-17.4,4.4-17.4s-4.1-5.9-5.5-5.4c-1.5,0.5-4.9,5-4.9,5s-2.3,3.9-4.2,4.5
					c-1.9,0.6-4.4,0.8-4.4,0.8s-1.3,3.1-2.9,7.3l7.2,8.6c0,0,3.1-0.5,5.5-1.2C67.5,89.1,70,87.6,70,87.6"/>
				<path class="st10" d="M65.8,89.6c0.9-3.7-1.8-19.8-1.8-19.8l3-3.6c1.9-4.8,7.4,4,7.4,4s-3,12.7-4.7,17.6L68,88.7L65.8,89.6z"/>
				<path class="st9" d="M34.1,75.1c0,0-4.7,0.7-6.7,1.2s-4.2,1.9-4.6-0.1c0,0,1.2,2.4,1.5,2.8s1-0.3,1-0.3S31.6,75,34.1,75.1z"/>
				
					<ellipse transform="matrix(0.5803 -0.8144 0.8144 0.5803 -15.5757 82.0487)" class="st11" cx="71.8" cy="56.1" rx="1.3" ry="3"/>
				<path class="st12" d="M21.7,54c0.7,0.6,0.1,3.6-0.9,4.8s-3.1,2.3-3.8,1.7c-0.7-0.6,0.2-2.6,1.2-3.8C19.3,55.4,21,53.4,21.7,54z"
					/>
				<path class="st7" d="M98.9,89.8l4.8,16.8l-3.4,0.7c0,0-2.4-8.7-3-10.3c-0.6-1.6-2.1-4-2.1-4S97.4,90.3,98.9,89.8z"/>
				<polygon class="st13" points="98.9,89.8 103.7,106.6 104.9,106.6 101,89 				"/>
				<path class="st14" d="M109,107.1c0,0-1.1-4.2-1.2-4.6c-0.1-0.3-2.2-11-1.8-14.8l1.8,0.2l0.1,4.8l0.4,5.3l0.9,4.4l1,4.8
					L109,107.1z"/>
				<path class="st10" d="M83.7,76.1c0,0,9.3,6.5,13.8,3.2c0,0,0.8-0.5,1.4-0.6c0.7-0.1,1.3,0.2,0.3,1.4c-1.7,2.2-3.2,2.4-2.4,5.4
					c0.9,3,0.6,5.4-1.1,3.5c-1.7-1.9-3.5-7.8-3.5-7.8L83.7,76.1z"/>
				<path class="st7" d="M15.7,99.5l-11.8,16l1.7,2.8l0.6,1.6l3-4.4l3.1-3.4l3.6-3.9l2.9-3.6C18.8,104.5,17.8,101.4,15.7,99.5z"/>
				<polygon class="st13" points="-0.9,112.3 10.6,95.9 12.1,96.9 0.6,113.3 				"/>
				<path class="st14" d="M-0.5,112.9c-0.1-0.3,2.4-3.8,2.4-3.8s4.6-7.1,4.8-7.3c0.2-0.2,3.7-5.5,3.7-5.5l-2.1-0.1
					c0,0-3.5,7.1-3.7,7.3S0.1,110,0.1,110l-1.2,2.1L-0.5,112.9z"/>
				<path class="st4" d="M95.8,69.8l-3.2-4.1c0,0-2.1-1-3.2-2.7c-1.1-1.7-3.4-4.3-3.4-4.3L85.3,59c0.2,0.3-0.2,0.8,0.3,1.5
					c1.7,2.4-0.6,3.4-2.2,3.7c-0.6,0.1-1.9-0.1-3.3-0.5c2,1.2,5,3.1,6.6,4.5c2.5,2.1,8.4,8,8.4,8s1.5,1,2.4,0.5
					c1-0.5,1.6-2.3,2.3-1.6C100.7,75.8,95.8,69.8,95.8,69.8z"/>
				<path class="st9" d="M84.3,63.8c-0.6,0-2.3,0.5-0.8,2.1c0.9,0.9-3.2,0.9-3.2,0.9s-3.4-2.3-2.4-2.8c1-0.5,4.7-1,4.7-1L84.3,63.8z
					"/>
				<path class="st4" d="M85.5,61.5c0,0,0.5-0.3,0.7,0.5c0.1,0.4,0.7,0.3,0.4-0.3c-0.3-0.6-1.2-1.6-1.2-1.6L85,60.9L85.5,61.5z"/>
				<g>
					<path class="st15" d="M33.3,14.2l2.5-1.6c0,0,12.4,1.2,17.2-0.2l2.7,2.1l-0.5-5.8c0,0-1.7-0.1-2.9-1.8c-1.2-1.8-2.7-1-3-1.2
						s-1.9-2.2-2.7-2.1c-0.8,0.1-2.6,0.5-2.9,0.5c-0.3,0-1.3,0.2-2.1,0.5c-0.9,0.3-2.5,0.9-3.1,0.8c-0.6,0-2.7,0.5-2.9,0.9
						c-0.2,0.4-2.6,3.7-2.6,3.7L33.3,14.2z"/>
					<path class="st16" d="M42.5,3.6c-0.3,0-1.1,0.8-1.4,1.3s0.1,0.5,1.5,0.3C44,5.1,46.1,4.1,45.5,5c-0.6,0.9-1.9,1.5-1.9,1.5
						s0.6,0.3,2.5,0.2c2.7-0.1,2.7-0.4,2,0.9C47.4,8.9,49.3,8,50,9.9s-0.4,3.3-0.4,3.3l2.8-0.7l2.4,1l1,0.6l-0.4-5.3
						c0,0-1,0.2-1.1,0c-0.2-0.2-1-2.2-1.3-2.3c-0.3-0.1-1.3,0-2.2-0.3c-1-0.3-2.4-1.9-2.9-2.2c-0.6-0.3-0.8-0.2-1.5-0.2
						c-0.7,0.1-2.9,0.4-2.9,0.4L42.5,3.6z"/>
					<path class="st16" d="M38.9,8.1c1.1-0.6,1.2-0.7,2.6-0.9C43,7,43,7,43,7s-2.1,0.6-2.9,1c-1.6,0.9-1.9,1.4-2,1.1
						C38.1,8.8,38.9,8.1,38.9,8.1z"/>
					<path class="st16" d="M44.5,7.2c0.1-0.1-4.2,2.3-4,5.1l1.4,0.5C41.9,12.8,40.9,10.2,44.5,7.2z"/>
					<path class="st15" d="M51.7,12.5c0-0.1,0.2-2.8-1.1-3.7S49,7.6,48.8,7.1c0,0,0.4,1,1.7,1.3s2.6,1.6,2.6,3.7L51.7,12.5z"/>
					<path class="st15" d="M43.2,6.5c0,0,3.7-0.3,4.1-0.4c0,0-2.8,0.8-3.5,0.8C43,7,43.2,6.5,43.2,6.5z"/>
					<path class="st16" d="M42.7,13c0-0.3-0.9-3.3,0.5-4.8c0,0-1.3,2.7,0.5,5l-0.4,0C43.4,13.2,42.7,13.7,42.7,13z"/>
					<path class="st16" d="M44.4,13.1c0,0-0.8-4.1,1.7-6.4c0,0-2.1,2.3-0.5,6.6L44.4,13.1z"/>
					<path class="st16" d="M47.7,13.1c0.2-0.3,0.9-1.3,0.2-2.6c-0.7-1.3-1.6-1.9-0.8-2.9c0,0,1-0.6,0.9-1.2c0,0,0.3,0.6-0.3,1.1
						C47,8.3,47.7,9,47.9,9.2c0.3,0.2,1.9,1.3,1.1,3.7L47.7,13.1z"/>
					<path class="st16" d="M47,7.3c0.1-0.1-0.7,0.7-0.3,1.6C46.7,8.9,46,8.2,47,7.3z"/>
					<path class="st16" d="M45.9,12.9c0,0-0.8-1.3-0.7-2.9c0,0,0,1.6,1.2,3L45.9,12.9z"/>
					<path class="st17" d="M50.2,11.5c0,0.1-0.1-2.1-1.5-2.9C48.7,8.6,50.6,9.3,50.2,11.5z"/>
					<path class="st17" d="M48.1,9.6c0,0-1.4-0.9-0.6-1.9c0,0-0.3,0.6,0.2,1.2C48.1,9.6,48.1,9.4,48.1,9.6z"/>
					<path class="st17" d="M44,11.7c0,0-0.6-2.6,1.1-4.3C45.2,7.4,44,8.6,44,11.7z"/>
					<path class="st17" d="M46.7,4.8c0.2,0.1,0.6,0.5,0.7,0.8c0.1,0.3,1.2,0.8,1.2,0.8s-0.9-0.4-1-0.8C47.4,5.1,46.7,4.8,46.7,4.8z"
						/>
					<path class="st17" d="M47,12.9c0.2-0.3,1.1-1.5,0.3-3.2c0,0,1.1,1.3,0.5,3.1L47,12.9z"/>
					<path class="st17" d="M54.1,12.5c0-0.2-0.1-2.1-0.1-2.1s-0.6-0.3-1-0.9c-0.4-0.6-0.3-1.1-1-1.9c-0.5-0.5-0.8-0.8-1.5-0.8
						c-0.7,0-1.2-0.8-1.2-0.8l2.7,0.5l0.9,1L53.8,9c0,0,0.6,0.4,0.8,0.5c0.2,0.1,0.6,0.6,0.6,0.7c0,0.2,0,2.5,0,2.5L54.1,12.5z"/>
				</g>
				<path class="st15" d="M33.9,13.3c0,0.1-0.5,3.5-0.5,3.5l-0.1-2.6l0.1-1.7L33.9,13.3z"/>
				<path class="st6" d="M98.2,118.3c-0.2,0.1-1.7,0-1.7-0.7c0-0.7,0.8-3.9,0.8-3.9s1.1-1.8,1.2-2c0.1-0.2,1-2.1,1-2.3
					s1.2-2.5,1.2-2.5l1.2-1l1.5-0.3l1.4-0.1l1.4-0.1l1.5,0.1l1.1,0.3l1.1,0.5l1.1,1.4l1.1,1.6l1.6,1.2l2.1,1.9l-0.1,1.5
					c0,0,0.7,1.2,1,1.6s1.3,1.1,1.3,1.9s0.3,2.7,0.2,2.9c-0.1,0.2-1.1-0.2-1.5-0.3c-0.4-0.1-0.6-0.2-0.8,0.4s-0.5,1.7-0.8,2.3
					c-0.3,0.5-1.2,1.7-1.2,1.6c0-0.2-0.4-1.2-0.4-1.8c0.1-0.5,0.1-1.6,0.2-1.8c0.1-0.3-0.1-2.1-0.1-2.4c0-0.3-0.6-1.4-0.8-1.5
					c-0.2-0.1-1.5-0.4-1.5-0.4l-3-0.7l-2.9-0.6l-1.4-0.6c0,0-2.1-0.6-2.3-0.6s-1,0.9-1,0.9s-1.3,2.1-1.4,2.3
					C99.3,117.2,98.2,118.3,98.2,118.3z"/>
				<path class="st6" d="M4.8,116.8c0.1,0.2,0.8,1.5,0.8,1.5s-1.8,2.6-2.4,2.9c-0.6,0.4-1.2,1.7-1.2,1.7L0,128.3l-1.6-0.4l-0.6-3.3
					l-2.2,1.4l-1.4,2.4l-0.4,1.9l-0.2,1.3l0.1,1.9c0,0-1,0.8-1.5,0.3l-1.5-3.8l-0.7,0.9c0,0-0.2,3-0.6,3.3c-0.4,0.3-1.7,0.6-1.9-0.3
					c-0.2-0.9-0.1-1.5-0.1-1.5l-0.7-0.4c0,0-0.3,1.8-1.1,1.9s-1.4-0.6-1.3-1.4c0.1-0.7,2.4-8.7,2.4-8.7l1.5-2.3l3.4-3l4.2-3.9
					l2.9-1.6l0.9-0.2C-0.5,112.9,3.1,114.1,4.8,116.8z"/>
				<path class="st5" d="M26.1,84.8l6.5-2.3l4.5-0.8c0,0,4.1-0.1,4.8,0c0.6,0.1,10.6,0.7,10.6,0.7l7.2,8.6c0,0,7.9-1.5,10-3.2
					c0,0-2,5.9-3,8.8c-1,2.8-1.6,5-1.6,5l-0.3,7.8l-12,3.2c0,0-14,3.8-21.8-0.3c0,0-2.3-13.3-2.3-13.6s-1.5-8.7-1.5-8.7L26.1,84.8z"
					/>
				<path class="st4" d="M28.3,159.9c0,0-7.2,7.5-16.6,3.3c0,0-4.2-0.6-3.9-3.7c0.3-3.1,1.5-6,1.5-6l3.8-10.1c0,0,4.6-8.2,7.8-12.4
					c3.2-4.2,8.4-9.3,9.3-13.3c0.9-4,0.7-5.4,0.7-5.4s4.7,2.7,12.4,1.8c7.7-0.9,20.3-3.8,21-4.3c0.7-0.5,0.8,0.7,0.8,0.7
					s1,5.6,1.5,6.8s2.1,4.4,2.1,4.4l3.6,8.2l3.9,11.7c0,0,2.8,9.2,2.8,9.4s1.7,11.7,1.7,11.7s1,7.7,1,8.1c0,0.4,0.3,5.6,0.3,5.6
					s-2.8-2.4-6.9-1c-4.1,1.4-5.6,2-5.6,2l-3.1,2.8l-0.8,1.4l-4.9-11.8l-3.8-8.4l-1.5-3.6l-1.8-6.4l-1.1-4l-1.7-3.3
					c0,0-2.3-2.2-2.9-2.2c-0.6-0.1-2.4-0.4-2.8-0.2c-0.4,0.3-1.6,1.2-1.6,1.2l-2.4,4.2c0,0-2.5,3.4-2.5,3.6s-3,3.2-3,3.2l-2.5,2.6
					l-2.7,2.3L28.3,159.9z"/>
				<path class="st9" d="M18.8,164.2c1,0,11.8-9.9,15.2-17s4.4-9.4,6.1-13.4c1.6-3.8,9.8,1.6,10.4,3c2.1,5,10.7,7.6,7.6-8.6
					C56,117.3,55.8,112,55.8,112l8.6-2.1l4.4,11.8l4.5,11l3.6,10.7l2.9,12.7l1.9,14.7l0.3,5.6c0,0-4.7-2.8-11,0.1
					c0,0-3.7,2.2-5.4,5.1L58,164.2l-3.4-8.8l-2.1-8.1c0,0-1.6-6.5-7.3-5.7c0,0-2.5,1.5-5.6,8c0,0-7,7.9-9.2,9.1s-5.5,3.7-5.5,3.7
					s-2.9,1.6-4.5,1.7S18.8,164.2,18.8,164.2z"/>
				<path class="st4" d="M51.9,145.5c0,0,1.3,4,1.8,5.9c1.6,6.8,6.5,15.3,8.7,18.9c1.9,3.1,2.4,3.6,5,4c2.6,0.4,6-2.9,5.1-11.5
					c-0.9-8.6-7.4-23.8-11.5-31.1c-5.1-9-3.5-10.1-4.6-13.6c-1.1-3.4-2.4,0.2-2.4,0.2l-3.1,10.5L51.9,145.5z"/>
				<path class="st4" d="M51.9,145.5c0,0-1.2-8.6-5.6-11.4s0.5-2.2,2.5-2.1c1.9,0.1,4.5,2.8,4.5,2.8l1.5,5.7L51.9,145.5z"/>
				<path class="st9" d="M57.2,114.9c-0.8,0.4-11.3,3-18.6,2.5c0,0,7.4,1.6,20-1.3c0,0,0.6-1.9,0.3-1.9S57.2,114.9,57.2,114.9z"/>
				<path class="st12" d="M41,116.6c1.8,0.1,12-1.1,13.5-1.5c1.2-0.3,1-1.1-0.6-0.7c-1.3,0.3-13.4,1.8-14.2,2
					C38.8,116.7,41,116.6,41,116.6z"/>
				<path class="st7" d="M55.8,112L59.7,91c0,0,8.1-1.3,10-3.2l-4,11.4c0,0-0.8,3.4-0.8,5.4s-0.5,5.4-0.5,5.4S57.9,112,55.8,112z"/>
				<path class="st18" d="M65.8,89.6c0,0-2.4,8.9-1.6,14.8c0,0,1.3-5,1.6-5.8s3.1-7.8,3.1-7.8l0.8-2.9C69.7,87.8,67.3,89,65.8,89.6z
					"/>
				<path class="st19" d="M52.5,82.4c0,0-0.7,4.9-1.2,13.4s0.5,16.8,0.5,16.8l3.9-0.6L59.7,91L52.5,82.4z"/>
				<path class="st20" d="M7.7,160.3c0,0,1.5,2.2,4.1,2.9c2.6,0.8,6.9,1.9,10.1,0.5c3.1-1.4,4.1-1.9,6.5-3.8l2.9-1.9l1.3,3.7
					l0.4,1.5c0,0,1-0.6,1.6-1.5l2.3-0.5l2.5,0.1l2.4,1.8l0.3,2.7l0.3,6.2l0.5,5.2l0.4,9.4l-0.6,6.3l-1.5,3.2c0,0-1.3,1.8-3.9,2.3
					c-2.6,0.4-4,0.1-4.9-1.8s-1.3-4.9-1.3-4.9l-0.6-6.7c0,0,1.3-6-3-8c-3.3-1.5-10.8-1.8-10.8-1.8l-6.5-3.5l-0.8-1.2l0.1-1.6l-1.3-1
					l-0.6-1.9l0.8-1.5l-1.2-0.8l-0.4-2.3L7.7,160.3z"/>
				
					<ellipse transform="matrix(0.4441 -0.896 0.896 0.4441 -119.6458 95.7501)" class="st12" cx="17.3" cy="144.3" rx="11.5" ry="2.1"/>
				<path class="st10" d="M82,176.4c0,0-2.7-1.7-3.8-1.7s-0.2-8.1-0.3-13.1c-0.2-5-3.4-26.5-5.5-31.7c0,0,7.1,19.4,7.2,22.8
					c0.2,3.4,1.1,10.1,1.1,10.1L82,176.4z"/>
				<path class="st4" d="M35.5,138.7c1-1,9.5-3.2,13.2,1.3c0,0-4.1-2.1-7.4-1.1c-2.3,0.7-3.9,1.3-5.4,3.5c-1.5,2.2-1.7-1.2-1.7-1.2
					L35.5,138.7z"/>
				<path class="st4" d="M49.7,138c0,0-4.1-6.4-10.2-3.7c0,0-1.5-1.4-0.4-1.9c1.1-0.5,4.2-1,4.6-0.9s5.5,1.9,5.5,1.9l1.2,3.3
					L49.7,138z"/>
				<path class="st4" d="M37.9,138c0,0,8.1-7.6,12.3,1.5l-0.4-3.2c0,0-5-2.9-5.3-3s-4.9-0.4-5.8,0.6C38,134.8,37.9,138,37.9,138z"/>
				<path class="st10" d="M51.9,145.5c-0.1-0.7-1-4.5-2.2-6s-3.7-2.1-3.7-2.1s3.3,1.4,3.8,3.5c0,0-3.4-1.4-5.7-1s-6.8,3.7-6.8,3.7
					s5.6-2.6,7.9-2.3c0,0-4.2,1.6-5.5,4.3c-1.3,2.7-2.2,6.7-2.4,6.7s3-3.7,3-3.7l3.5-5.8c0,0,1.9-2.3,6-0.3L51.9,145.5z"/>
				<path class="st12" d="M40.2,135.7c1.4-0.8,4.5-2,7.1-0.6c0,0-0.2-0.6-1.3-1c-1.6-0.5-3.2-0.2-4,0.3
					C41.1,134.9,40.2,135.7,40.2,135.7z"/>
				<polygon class="st19" points="27.9,84.3 32.1,112.5 30.9,112.3 26.1,84.8 				"/>
				<polygon class="st13" points="29,83.7 33.7,82.4 35.1,113.8 33.2,113.3 				"/>
				<path class="st12" d="M24.8,57.7c-0.4,0.8-3.2,11.1-1.2,17.9c0,0,0.2,0.9,1.9,0.5C27.1,75.8,31,75,31,75s1.5-0.7-1.8-0.6
					c-4,0.1-4.1-2.3-4.2-3.5c-0.1-1.2-0.6-8.3,0.6-13.2C25.6,57.6,25.2,56.9,24.8,57.7z"/>
				<path class="st12" d="M62,62c0.8-1.7,1.5-3,2-3s0.4,0.6,0.3,1.1c-0.4,1.6-2.1,5-2.7,6.2c-0.6,1.1-1.6,2.5-2.1,3
					c-0.6,0.6-1.2,0.9-1.2,0.9c-5.1,2.5-17.4,4.3-17.7,3.7c-0.4-0.7,0.4-0.9,0.4-0.9s9.3-1,13.1-2.5c0,0,3.2-0.8,4.4-2.4
					C60,66.1,62,62,62,62z"/>
				<polygon class="st13" points="36.4,50 35.3,34.8 36.2,35.8 38.1,50 				"/>
				<polygon class="st13" points="35.7,12.6 35.6,27.5 34.2,27.5 34.3,13.6 35.7,12.6 				"/>
				<path class="st20" d="M91.3,256.6l4.2-0.5c0,0,2.8-1.8,3.2-3.7s1.5-2.4,0.8-5.8S97.6,234,97.6,234s-0.8-4.5-1.3-5
					s-1.8-3.1-1.9-4.1s0-2.4-0.2-3.1s-1.3-3.4-1.3-3.4l-1.1-8.3l-0.3-9.9l-0.6-5.5l-1.9-4.5l-2.4-4.2l-3.2-5.2l-1.2-4.3
					c0,0-3.7-2.2-6.9-1s-5.6,2-5.6,2s-3.4,2.8-3.8,4.2l2.1,3.7l1.8,3.2c0,0,1.1,1.8,1.6,2.3s1.6,2.3,1.6,2.3s0.2,1.9,0.3,4.1
					s1.1,4.7,1.1,4.7l6.3,12.5l2.1,4.4l1.6,13l1.6,10.7l1,7.6C86.9,250.1,88.1,255.3,91.3,256.6z"/>
				<path class="st21" d="M96.4,117.6c0,0,0.9,0.6,1.4-0.3c0.5-0.9,1.5-3.8,1.5-3.8l1.9-2.3c0,0,0.5,0.1,1.2-1.8
					c0,0-0.1,1.7,0.4,2.4l1.1-2.2c0,0-0.8,2,0,2.1c0.5,0,1.6-1.2,1.6-1.2s0.5,0.5,1.3-0.3c0,0,0.9,0.7,1.3,0.2l1.2,2.7l1.8,0.1
					l0.2-1.8l1.3,0.6c0,0,0.2,2.3,0.5,2.7s1.1,1.4,1.1,1.4l1.4-0.1l1.1,1.3l1.1,2.9l-1.6-0.6l-0.8,2.9l-1.2,1.6c0,0-0.8-2.2-0.2-3.6
					l-0.1-2.4l-0.8-1.5l-5.4-1.1l-3.5-1.3l-2.3-0.6l-1.5,1.6l-2.1,2.8L96.4,117.6z"/>
				<path class="st21" d="M-12.5,133.9c0-0.2,0.1-1.7,0.1-1.7s1.1-1.6,1.2-1.8c0.1-0.2,0.8-3.1,0.8-3.1s0.9-2.1,0.9-2.3
					s0.9-1.1,0.9-1.1s2-1.6,2.3-1.8s1.9-1.4,1.9-1.4l1.1,0.2l0.7,2.7c0,0-0.2,1.5-0.8,1.9s-1.4,0.9-1.4,0.9s-0.5,0.8-0.8,1.3
					c-0.3,0.5-0.6,0.7-0.7,1.2s-0.2,1.2-0.2,1.2s0,0.5,0,1c0,0.6,0.1,0.6,0.1,1.5s0.4,0.7,0,1c-0.4,0.3-0.8,0.5-0.9,0.5
					c-0.1,0-0.8-0.6-0.8-0.6l-1.1-2.8l-0.3-0.6l-0.7,0.9l-0.2,1.4c0,0-0.2,1.5-0.2,1.6c-0.1,0.1-0.3,0.4-0.6,0.6
					c-0.2,0.1-1.3,0-1.3,0L-12.5,133.9z"/>
				<path class="st21" d="M-15,133.7c0-0.1,1.1-3.4,1.1-3.4l0.2,1.4c0,0,0.4,0.5,0.4,0.7s0,0.8-0.5,1.1S-15,133.7-15,133.7z"/>
				<path class="st21" d="M2.6,121.4c0,0,0-0.5,0.4-1.7c0.2-0.5,0.6-1.4,0.7-1.7s-3.2-4.5-4-5.2l4.9,3.7l1.1,1.7L5,119.3
					C5,119.3,2.8,121.3,2.6,121.4z"/>
				<path class="st7" d="M78.2,174.8c0,0,1.9,2.8,1.8,4.4c0,0,1.8,0.8,1.8,4.1c0,0,2.1,1.3,1.5,4.2c0,0,4.1,2.8,5.8,15.1
					s2.4,17,2.7,17.8s1.4,9,1.4,9s7,15.1,4.9,25.4c0,0,1.6-2.1,1.6-5.1c0-3.1-1.9-15.6-1.9-15.6l-2.1-6.8c0,0-1.5-2.8-1.3-5.4
					c0,0-1.1-5.5-1-6.2S92.6,203,92.6,203s-1.9-9.9-3.7-12.8c-1.8-2.9-4.7-8.1-4.7-8.1l-2.2-5.6C82,176.4,79.4,174.8,78.2,174.8z"/>
				<g>
					<path class="st22" d="M96.8,253.1c-0.9,0.5-1.8,0.9-2.8,1l-1.7,0.3c-0.4,0.1-0.8,0-1.2-0.1l-2.8-3.8l0,0
						c-0.4-1.2-1.2-10.1-1.2-10.1l-1.2-10.5c0,0-0.7-5.5-1.1-7.7c-0.4-2.2-4.9-18.9-4.9-18.9l-4-12l-2.2,0.5
						c0.2,0.6,0.7,5.5,1.3,8.9c0.2,1.4,4.8,9.3,4.8,9.3l2.9,7.8c0,0,1.3,7,1.3,7.3c0,0.3,0.5,3.6,0.7,5l-0.4,0.1
						c0,0,1,10.5,1.1,10.8s1.3,8.6,1.7,9.2c0.4,0.6,3.3,4.5,3.3,4.5c0.3,0.3,1,0.9,1.7,0.8l2.8-0.4c0.5-0.1,1-0.3,1.3-0.7l1.2-1.5
						L96.8,253.1z"/>
					<path class="st22" d="M73.7,191.8L73.7,191.8C73.7,191.7,73.7,191.7,73.7,191.8z"/>
				</g>
				<path class="st7" d="M72.9,192.8c0,0,1.5,0.2,2.9-0.4c1.4-0.5,6.8-2.7,6.9-2.8s2.1-2.3,2.1-2.3l-0.8-0.5l-3,2.3l-5,2.1l-3.6,0.7
					L72.9,192.8z"/>
				<path class="st22" d="M76,190.9c-0.1-0.1-1.5-4.2-2-4.3c-0.2,0-2.5-3.6-2.8-4.7s-1.3-1.5-2-3.9c0,0-1.7,0.9-2.1,1.4
					s-1.2,1.3,0.9,4.3l2.5,4.4l2.8,3.8L76,190.9z"/>
				<path class="st7" d="M70.6,188c-0.2-0.1-1,0.6-1,0.6l1.4-0.1l4.5-1.5l4.4-1.9l3.4-2.2l-2.3,0.6l-7.8,3.4L70.6,188z"/>
				<path class="st7" d="M67.6,184.8l5.2-2.6l8.4-2.6l-0.4-0.6c0,0-2.8,0.4-3,0.4s-4.6,1.5-4.6,1.5s-3.1,1.7-3.2,1.7
					s-2.5,1.7-2.5,1.7L67.6,184.8z"/>
				<path class="st7" d="M19.6,164.3c0,0,3.1-0.2,3.5,1.9c0,0,2.4,0.3,2.4,2.4c0,0,1.4,0.2,1.4,1.5c0,0,0,1.7,3.1,2.4
					c0,0,9-3.5,11.9-9.4l-2.4-1.8l-3-0.4l-1.8,0.9l-1.6,1.5l-1.7-5.2l-2.9,1.9C28.3,159.9,24.3,163.6,19.6,164.3z"/>
				<path class="st7" d="M34.1,170.5c0.2-0.1,1.3-0.8,2.8,0.1c1.8,1.1-1,1.9-0.3,2.2c1.4,0.5,1.1,1.1,1.4,1.6
					c0.6,1.1,1.5,10,1.5,10.3s0.3,8.7,0,9.7c-0.2,1-0.4,3.8-0.4,3.8l3.4-3c0,0,1.2-6,1.3-6.3c0.1-0.3-0.8-11.8-0.8-11.8
					s-0.8-8.2-0.8-8.5s-0.1-3.5-0.1-3.8s0.4-1.7-0.3-1.7C41,163.1,34.1,170.5,34.1,170.5z"/>
				<path class="st22" d="M15.3,164.4c0,0-0.5,1.8,0.2,2.8c0,0,0.2,2.9,1,3.6c0.8,0.6,0.5,3.1,1.5,3.2c1,0.1,1.2,0.3,1.2,0.3l-8-2.1
					c0,0-1.2-1.1-1-3.1c0.1-0.9-1-0.4-0.7-3.7c0.1-1-1.4,0.1-1.1-4.3C8.3,161,9,163.1,15.3,164.4z"/>
				<path class="st22" d="M38,198.2c0.7-0.5,1.1-4.7,0.8-12c-0.2-3.9-0.4-5.3-1.1-8c-0.4-1.5-13.8-2.3-13.8-2.3l-3.7-0.1
					c0,0,2.1-0.2,3.7,0.1c1.2,0.2,4.2,0.7,5.3,1.6c2.2,1.9,1.8,6.7,2,9.1c0.5,5.7,0,0,0,0s-0.6,7.3,0.5,9.1c1.1,1.7,3.8,4,5.7,2.6"
					/>
				<path class="st20" d="M39.3,195.5c-0.5,0.2-2.7,2.6-5.7,1c-2.7-1.5,0,0,0,0s-1.8-1.9-2.1-5s-0.1-7.3-1.2-9.6l0,0
					c0,0,0.9,7.5,0.6,11.7l0,0c0,0,1.6,5.1,3.7,5.3c2.1,0.2,4.5-0.5,4.5-0.9C39.2,197.5,39.3,195.5,39.3,195.5z"/>
				<path class="st23" d="M33.2,166.2c0,0,2.2,1,3.3-0.1c1.1-1.1,2.8-2.3,3.4-2.4c0.6-0.1,1.9,0.1,1.9,0.1l-1-2.1c0,0-1-1-1.7-1
					s-3.3,0.1-3.5,0.1c-0.2-0.1-0.8,0.4-1.1,0.8c-0.3,0.4-1.2,1.4-1.2,1.4l-0.3,1.1L33.2,166.2z"/>
				<path class="st7" d="M29.9,172.5c0,0,8,1.2,9,2.4c1,1.1,2.1,2.7,2.1,2.9c0,0.2,0.2-2.6-0.5-3.3s-4-1.7-4-1.7l-4.4-1.9
					L29.9,172.5z"/>
				<path class="st20" d="M29.1,177.6c0.8,0,4.9,0.2,5.1,0.4s-2.5,0.8-3.4,0.7C30,178.7,29.1,177.6,29.1,177.6z"/>
				<path class="st7" d="M36.4,197.9c-0.2-0.3,2.4-0.1,3.3-2.1c0.6-1.5,1.4-1.9,1.4-1.7c0.1,0.3-1.1,3.3-1.1,3.3
					S37.2,199.3,36.4,197.9z"/>
				<path class="st20" d="M33.6,196.5c0,0-1.3-1.2-1.6-3.4c-0.3-2.1-0.5-11.3-0.5-11.3s-0.1-2-0.4-2.6c-0.3-0.6-0.3-0.8-0.5-0.9
					s-0.7,0.3-0.7,0.3s0.7,5.2,0.7,5.4s0.5,5.9,0.5,6.3c0,0.4,0.2,2.6,0.2,2.6l1.4,3.2L33.6,196.5z"/>
				<polygon class="st20" points="9.4,169.3 14,170.9 18,172 18.3,171.3 13.3,169.9 9.6,168.8 				"/>
				<path class="st20" d="M8.5,165.3c0,0,2.8,1.9,7.6,3s1.1-0.8,1.1-0.8l-3-0.7l-5.3-2.2L8.5,165.3z"/>
				<path class="st20" d="M7.4,160.9c0,0,0.7,1.3,1.7,1.9s4.5,2.1,6.9,2l-0.3-0.5l-3.2-0.7c0,0-2.3-0.9-2.4-0.9s-1.1-0.6-1.3-0.8
					S8,160.6,8,160.6L7.4,160.9z"/>
				<path class="st20" d="M65.9,181.3c0,0,1.9-2.4,4-3.3l0.1-0.7C70,177.3,67.1,178.9,65.9,181.3z"/>
				<path class="st7" d="M46.5,22.7c0,0,0.2-0.5,0.6-0.8s2.5-1.5,4.2,0.3l0.7,0.6l-5.3,0.1l-0.3-0.2l-0.6,0.2L45.7,24
					c0,0,6.8-0.3,7.3,0c0.5,0.3,0.1,2.1,0.1,2.1l2.3-0.8l0.1-6.1l-3.4-0.4c0,0-4.3,0-4.9,0.6c-0.6,0.7-1.5,1.2-1.5,1.2l-0.6,0.2
					c0,0-0.1,1.1-0.4,2.5l0.8,0.9l0.4-0.4L46.5,22.7z"/>
				<path class="st7" d="M48.5,26.9c0.2,0,3.7-2.4,3.7-2.9c0.1-0.5-6.4,0-6.4,0l6.3-0.9c0,0,1.8,0.5,1.8,0.6s-0.2,2.8-0.2,2.8
					L48.5,26.9z"/>
				<path class="st3" d="M46.5,22.7c0,0,0-0.4,0.6-0.7c0.6-0.4,1.5-0.7,1.5-0.7l1.3,0.1l1.4,0.7l0.3,0.5l-2.5,0.6l-1-0.2
					C48.1,23,46.6,22.7,46.5,22.7z"/>
				<path class="st3" d="M42.3,22.7c0,0,0-0.4-0.6-0.7c-0.6-0.4-1.5-0.7-1.5-0.7l-1.3,0.1l-1.4,0.7l-0.3,0.5l2.5,0.6l1-0.2
					C40.7,23,42.2,22.7,42.3,22.7z"/>
				<path class="st5" d="M48.4,20.5c0.8-0.6,3.6,0,4.1,0.4c0.3,0.2,0.5,0.4-0.1,0.8c-0.5,0.3-1.2-0.5-2.6-0.8
					C49.5,20.9,48.2,20.7,48.4,20.5z"/>
				<path class="st7" d="M44.7,23.4c0,0-0.1-1.5,0.1-2.2c0.1-0.6,0.5-1.8,1.8-2.5c1.3-0.6,0.1,1.4,0.1,1.4L45,23L44.7,23.4z"/>
				<path class="st7" d="M42.3,22.7c0,0,0.6-1.1,0.3-1.8c-0.2-0.7-0.5-1.1-1.5-1.2s-4.1-0.2-4.8,0.4c-1.3,1.1,0,2.5,0.3,2.6
					s0.8-0.5,0.8-0.5s1.2-1.1,2.6-0.9C41.5,21.5,41.9,21.9,42.3,22.7"/>
				<path class="st7" d="M35.8,21.6c0,0.1,1,2.5,1.5,2.8c0.4,0.3,2.4,0.2,3.8-0.7c0.4-0.2,0.8-0.6,1.1-0.9c0,0,0,0,0,0
					s-2.7,0.5-3.5,0.3c-0.8-0.2-1.4-0.4-1.6-0.4c-0.2,0-0.2-1-0.2-1L35.8,21.6z"/>
				<path class="st7" d="M42.6,21.5c0,0.1-0.2,1.1-0.3,1.2c-0.1,0.1-0.2,0.2-0.4,0.3c-0.1,0.1-0.3,0.4-0.5,0.4s0.3-0.4,0.4-0.5
					c0,0,0.5-0.2,0.5-0.6C42.3,21.9,42.6,21.5,42.6,21.5z"/>
				<path class="st13" d="M34.2,27.5c0,0,0,4.2,0.9,7.1l0,0l1.1,1.1c0,0-0.9-2.5-1.1-4s-0.2-4.8-0.2-4.8L34.2,27.5z"/>
				<path class="st24" d="M34.7,34.3c0.1,0.1,0.1-0.2,0.2-0.1c0.1,0.1,0.4,0.5,0.5,0.6c1.2,1.1,2.4,2,3.7,3c0.7,0.6,1.5,1.1,2.2,1.6
					c0.4,0.2,0.8,0.5,1.2,0.6c0.2,0.1,0.4,0.2,0.5,0.2c0,0,0.1,0,0.2,0l0.2,0l0.3,0c0.9,0.1,1.8,0.1,2.7,0.1c0.4,0,0.9-0.1,1.3-0.2
					c0.1,0,0.2-0.1,0.3-0.1l0.3-0.1c0.2-0.1,0.4-0.2,0.6-0.3c0.8-0.4,1.6-0.8,2.4-1.3c0.8-0.5,1.5-1,2.2-1.7
					c-0.5,0.8-1.2,1.5-1.9,2.1c-0.7,0.6-1.5,1.1-2.3,1.6c-0.2,0.1-0.4,0.2-0.6,0.3c-0.1,0.1-0.2,0.1-0.3,0.2c-0.1,0-0.2,0.1-0.4,0.1
					c-0.5,0.2-1,0.2-1.5,0.3c-1,0.1-1.9,0-2.9,0l-0.4,0l-0.2,0c-0.1,0-0.1,0-0.2,0c-0.3,0-0.5-0.2-0.8-0.3c-0.5-0.2-0.9-0.5-1.3-0.7
					c-0.8-0.6-1.5-1.2-2.2-1.8C37.2,37.1,35.9,35.8,34.7,34.3z"/>
				<path class="st24" d="M35.4,45l0,5.3L34.8,45c0,0,0,0,0,0L35.4,45z"/>
				<path class="st24" d="M74.1,70.5c-0.4-0.4-0.7-0.7-1.1-1.1c-0.3-0.4-0.7-0.7-1-1.1c-0.6-0.8-1.3-1.5-1.8-2.3l0,0
					c-0.4-0.5-1.1-0.9-1.6-0.9c-0.3,0-0.5,0.1-0.7,0.3l-0.2,0.2l-0.2,0.2l-0.3,0.4c-0.9,1.2-1.7,2.4-2.6,3.6
					c-0.9,1.2-1.7,2.4-2.7,3.5c-0.3,0.3-0.5,0.5-0.8,0.8c-0.2,0.1-0.3,0.2-0.5,0.3l-0.3,0.2c-0.1,0-0.2,0.1-0.3,0.1
					c-0.8,0.2-1.5,0.3-2.2,0.3c-1.5,0.1-3,0.1-4.4,0.1c-1.5,0-3,0-4.4,0c-1.5,0-3-0.1-4.4-0.1c-1.5-0.1-3-0.1-4.4-0.2
					c1.5,0.1,2.9,0.1,4.4,0.1c1.5,0,2.9,0,4.4,0c1.5,0,2.9,0,4.4-0.1c1.5,0,2.9-0.1,4.4-0.2c0.7-0.1,1.5-0.2,2.1-0.4l0.2-0.1
					l0.2-0.1c0.1-0.1,0.3-0.2,0.4-0.3c0.3-0.2,0.5-0.5,0.8-0.8c1-1.1,1.8-2.3,2.6-3.5c0.8-1.2,1.6-2.5,2.5-3.7l0.3-0.4l0.2-0.2
					l0.2-0.2c0.3-0.3,0.8-0.5,1.3-0.5c0.5,0,0.9,0.2,1.2,0.4c0.4,0.2,0.7,0.5,1,0.8l0,0l0,0c0.6,0.8,1.2,1.5,1.9,2.2
					c0.3,0.4,0.7,0.7,1,1.1c0.3,0.3,0.7,0.7,1,1L74.1,70.5z"/>
				<path class="st24" d="M27,91.5c-0.5-2.9-1.1-5.8-1.7-8.6c-0.2-0.7-0.3-1.4-0.6-2.1c-0.1-0.3-0.2-0.7-0.4-1l-0.1-0.2
					c0-0.1-0.1-0.1-0.2-0.2l-0.3-0.4L23.1,78l-0.2-0.2c-0.1-0.2-0.1-0.2-0.2-0.3c-0.1-0.2-0.1-0.4-0.1-0.6c-0.2-0.7-0.3-1.5-0.4-2.2
					c-0.3-3-0.3-5.9,0.1-8.9c0.4-2.9,1.1-5.8,2.2-8.5c-1.1,2.7-1.7,5.6-2,8.6c-0.3,2.9-0.2,5.9,0.2,8.8c0.1,0.7,0.2,1.4,0.4,2.1
					c0,0.2,0.1,0.3,0.1,0.5c0,0.1,0.1,0.2,0.1,0.2l0.2,0.2l0.7,0.9l0.3,0.4c0.1,0.1,0.1,0.1,0.2,0.2l0.2,0.3
					c0.2,0.4,0.3,0.7,0.4,1.1c0.2,0.7,0.4,1.4,0.6,2.1c0.8,2.9,1.4,5.7,2,8.6L27,91.5z"/>
				<path class="st24" d="M24.1,79c0.8-0.5,1.6-1,2.4-1.4c0.8-0.4,1.7-0.8,2.5-1.1c0.9-0.3,1.7-0.6,2.6-0.8c0.9-0.2,1.8-0.3,2.7-0.4
					c-0.9,0.2-1.8,0.4-2.6,0.7c-0.9,0.3-1.7,0.6-2.5,1c-0.8,0.4-1.6,0.8-2.3,1.3c-0.8,0.5-1.5,1-2.2,1.6L24.1,79z"/>
				<path class="st24" d="M96.3,92.4l-0.7-0.7c0.1-0.2,3.6-3.9,11-4.5l0.4,1.1C100.1,88.6,96.3,92.4,96.3,92.4z"/>
				<path class="st24" d="M5.9,119.9c0,0-1.4-4.1-5.4-6.1l-2-1l0.4-0.9l2,1c3.6,1.8,5.2,5.1,5.7,6.3c0.1,0.2,0,0.5-0.3,0.6
					L5.9,119.9z"/>
				<path class="st24" d="M18,103.8c0,0-1.3-4.2-8.3-7.6l0.4-0.9c7.5,3.6,8.8,8.1,8.9,8.3L18,103.8z"/>
				<path class="st24" d="M51.8,38.2c0.5-0.7,0.8-1.6,1.1-2.5c0.2-0.9,0.4-1.8,0.6-2.6c0.3-1.8,0.5-3.6,0.6-5.4l0.2,0.2l-4.9,0
					c-0.4,0-0.8,0-1.2,0c-0.4,0-0.8,0.1-1.2,0.2c-0.2,0-0.4,0.1-0.6,0.2c-0.2,0.1-0.4,0.1-0.6,0.2c-0.4,0.1-0.8,0.2-1.3,0.2
					c-0.4,0-0.9-0.1-1.3-0.2c-0.2-0.1-0.4-0.1-0.6-0.2c-0.2-0.1-0.4-0.1-0.6-0.2c-0.4-0.1-0.8-0.1-1.1-0.1l-1.2,0
					c-0.8,0-1.6,0-2.4,0c-0.8,0-1.6,0-2.4,0l0.3-0.3c0,0.7,0,1.4,0,2.1c0,0.7,0.1,1.4,0.2,2.1c0.1,0.7,0.2,1.4,0.4,2.1
					c0.2,0.7,0.4,1.4,0.7,2l-0.1,0c-0.4-0.6-0.7-1.3-0.9-2c-0.2-0.7-0.4-1.4-0.5-2.1c-0.1-0.7-0.2-1.4-0.3-2.1
					c-0.1-0.7-0.1-1.4-0.1-2.2l0-0.3l0.3,0c0.8,0,1.6,0,2.4,0c0.8,0,1.6,0,2.4,0l1.2,0c0.4,0,0.9,0.1,1.3,0.2
					c0.2,0.1,0.4,0.1,0.6,0.2c0.2,0.1,0.4,0.1,0.6,0.2c0.4,0.1,0.7,0.2,1.1,0.2c0.4,0,0.7,0,1.1-0.1c0.2-0.1,0.4-0.1,0.6-0.2
					c0.2-0.1,0.4-0.1,0.6-0.2c0.4-0.1,0.8-0.2,1.2-0.2c0.4,0,0.8,0,1.2,0l4.9,0l0.2,0l0,0.2c-0.1,1.8-0.4,3.6-0.7,5.4
					c-0.2,0.9-0.4,1.8-0.7,2.6C52.7,36.7,52.4,37.5,51.8,38.2L51.8,38.2z"/>
				<path class="st24" d="M65,110.2c-2.8,0.8-5.7,1.6-8.6,2.2c-2.9,0.6-5.8,1.2-8.7,1.5c-1.5,0.2-2.9,0.3-4.4,0.4
					c-1.5,0.1-2.9,0.1-4.4,0c-1.5-0.1-2.9-0.2-4.4-0.6c-1.4-0.4-2.8-0.9-3.9-1.9c1.1,0.9,2.5,1.5,4,1.8c1.4,0.3,2.9,0.5,4.4,0.5
					c1.5,0,2.9,0,4.4-0.2c1.5-0.1,2.9-0.3,4.4-0.5c2.9-0.5,5.8-1.1,8.6-1.8c2.8-0.7,5.7-1.5,8.4-2.4L65,110.2z"/>
				<path class="st25" d="M41,33.4c-0.1,0,1.8-1.4,2.2-1.6s0.7-0.3,1-0.1c0.3,0.2,1,0.2,1.5-0.1c0.4-0.2,2,1,2.6,1.3
					c0.4,0.2,0.4,0.3,0.2,0.3s-1.7-0.6-2.1-0.6s-0.9,0-1.5,0c-0.6,0-1-0.1-1.3,0S41.2,33.4,41,33.4z"/>
				<path class="st25" d="M43,33.7c0.2,0.1,2.9,0.2,3.6,0c0,0,0.5-0.2,0.4,0s-0.5,0.7-2.2,0.7c-1.6,0-2.3-0.6-2.2-0.7
					S43,33.7,43,33.7z"/>
				<g>
					<path class="st24" d="M5.7,117.4c0,0.1,0,0.1,0,0.1l0,0.1c0,0.1,0,0.1,0,0.2c0,0.1,0,0.2-0.1,0.3c-0.1,0.2-0.1,0.4-0.2,0.6
						c-0.2,0.4-0.4,0.8-0.6,1.2c-0.2,0.4-0.5,0.7-0.9,1c-0.3,0.3-0.7,0.6-1.1,0.8l0.1-0.1l-0.7,1.7l-0.2,0.4l-0.2,0.4l-0.3,0.8
						l-0.3,0.8c0,0.1-0.1,0.3-0.1,0.4l0,0.1l0,0.1c0,0.1,0,0.2-0.1,0.3c-0.2,0.6-0.4,1.1-0.7,1.7l-0.1,0.2l-0.2,0
						c-0.5,0.1-1,0.1-1.5-0.1c-0.1,0-0.3-0.1-0.4-0.2c-0.2-0.2-0.2-0.4-0.3-0.5c-0.1-0.3-0.1-0.5-0.2-0.7c-0.1-0.9-0.2-1.8-0.2-2.8
						l0.8,0.3c-0.2,0.2-0.3,0.4-0.5,0.6c-0.2,0.2-0.4,0.3-0.6,0.5c-0.2,0.2-0.4,0.3-0.6,0.5c-0.2,0.1-0.5,0.3-0.8,0.3l0.3-0.3
						c-0.1,0.2-0.2,0.4-0.3,0.6c-0.1,0.2-0.2,0.4-0.3,0.6c-0.1,0.2-0.3,0.4-0.4,0.6c-0.2,0.2-0.3,0.4-0.6,0.5l0.2-0.3
						c-0.1,0.5-0.2,1-0.2,1.4c0,0.2-0.1,0.5-0.1,0.7c0,0.1-0.1,0.2-0.1,0.4c0,0.1,0,0.1-0.1,0.2l0,0.1c0,0,0,0.1-0.1,0.1l0-0.2
						c0.1,0.4,0.1,0.8,0.1,1.2c0,0.2,0,0.4,0,0.6c0,0.2,0,0.4,0,0.7l0,0.1l0,0c-0.1,0.1-0.2,0.2-0.4,0.3c-0.1,0.1-0.3,0.1-0.4,0.2
						c-0.2,0-0.3,0-0.5,0c-0.2,0-0.3-0.1-0.5-0.2l0,0l0,0l-0.8-1.9c-0.3-0.6-0.5-1.3-0.8-1.9l0.3,0c-0.1,0.2-0.2,0.3-0.3,0.5
						c-0.1,0.1-0.1,0.1-0.2,0.2c-0.1,0.1-0.1,0.1-0.3,0.2l0.1-0.1c0,0.5,0,1-0.1,1.5c0,0.5-0.1,1-0.2,1.5c0,0.1,0,0.1-0.1,0.2l0,0.1
						c0,0,0,0.1-0.1,0.1c-0.1,0.1-0.2,0.2-0.3,0.3c-0.2,0.2-0.5,0.3-0.8,0.3c-0.1,0-0.3,0.1-0.5,0c-0.1,0-0.2,0-0.3-0.1
						c-0.1-0.1-0.2-0.1-0.2-0.1c-0.2-0.2-0.4-0.5-0.5-0.7l0,0l0,0l-0.1-1.5l0.3,0.3l-0.6,0.1l0.3-0.2c-0.1,0.3-0.2,0.6-0.4,0.9
						c-0.2,0.3-0.4,0.6-0.7,0.8c-0.2,0.1-0.5,0.2-0.7,0.1c-0.2,0-0.3-0.1-0.5-0.2c-0.3-0.1-0.7-0.4-0.9-0.8
						c-0.1-0.2-0.1-0.5-0.1-0.7l0.1-0.5l0.2-0.9l0.5-1.8l0.9-3.6l0.5-1.8c0-0.1,0-0.1,0.1-0.3c0-0.1,0.1-0.2,0.1-0.3
						c0.1-0.2,0.2-0.3,0.3-0.5c0.2-0.3,0.4-0.5,0.6-0.8c0.4-0.5,0.8-0.9,1.3-1.4c0.4-0.4,0.9-0.9,1.3-1.3c0.9-0.9,1.8-1.7,2.7-2.6
						c0.5-0.4,0.9-0.8,1.4-1.3c0.5-0.4,1-0.8,1.5-1.2c0.5-0.4,1.1-0.7,1.6-1c0.6-0.3,1.1-0.6,1.8-0.7l-0.1,0.1l0.9-0.4l0.6,0.4
						l0.5,0.4l1.1,0.4l1.4,1.1L5.7,117.4z M5.6,117.4l-2.9-2.6l-1.4-1.3l-1.2-0.8l0,0l-1.1,0.6l0,0l-0.1,0c-0.5,0.2-1.1,0.5-1.6,0.7
						c-0.5,0.3-1,0.6-1.5,1c-0.9,0.7-1.8,1.6-2.7,2.5c-0.9,0.9-1.8,1.7-2.6,2.6c-0.8,0.9-1.7,1.8-2.5,2.7c-0.2,0.2-0.4,0.5-0.5,0.7
						c-0.1,0.1-0.1,0.2-0.2,0.4c0,0.1-0.1,0.1-0.1,0.2c0,0,0,0.1-0.1,0.2l-0.5,1.8l-1,3.6l-0.5,1.8l-0.3,0.9l-0.1,0.4
						c0,0.1,0,0.2,0,0.2c0,0.1,0.2,0.3,0.4,0.4c0.1,0.1,0.2,0.1,0.4,0.1c0.1,0,0.1,0,0.2,0c0.2-0.1,0.3-0.3,0.5-0.5
						c0.1-0.2,0.3-0.5,0.4-0.8l0.1-0.2l0.2,0l0.6,0l0.3,0l0,0.3l0,1.5l0-0.1c0.1,0.2,0.2,0.4,0.3,0.5c0.1,0.1,0.1,0.1,0.2,0.1
						c0.1,0,0.2,0,0.3,0c0.2,0,0.4-0.1,0.6-0.2c0.1-0.1,0.2-0.1,0.2-0.2l0,0l0-0.1c0,0,0-0.1,0.1-0.2c0.1-0.4,0.2-0.9,0.3-1.4
						c0.1-0.5,0.1-1,0.1-1.5l0-0.1l0.1,0c0,0,0.1-0.1,0.2-0.1c0.1-0.1,0.1-0.1,0.2-0.2c0.1-0.1,0.2-0.3,0.3-0.4l0.2-0.3l0.1,0.3
						c0.3,0.6,0.5,1.3,0.8,1.9l0.8,1.9l-0.1-0.1c0.1,0.1,0.2,0.1,0.3,0.1c0.1,0,0.2,0,0.3,0c0.1,0,0.2-0.1,0.3-0.2
						c0.1-0.1,0.2-0.2,0.3-0.2l0,0.1c0-0.2,0-0.4,0-0.6c0-0.2,0-0.4-0.1-0.6c-0.1-0.4-0.1-0.8-0.2-1.2l0-0.2c0,0,0,0,0,0l0-0.1
						c0,0,0-0.1,0-0.2c0-0.1,0-0.2,0.1-0.3c0-0.2,0.1-0.5,0.1-0.7c0.1-0.5,0.1-1,0.2-1.4l0-0.2l0.2-0.1c0.1-0.1,0.2-0.2,0.4-0.4
						c0.1-0.2,0.2-0.3,0.3-0.5c0.1-0.2,0.2-0.4,0.3-0.6c0.1-0.2,0.2-0.4,0.2-0.6l0.1-0.2l0.2,0c0.1,0,0.3-0.1,0.5-0.2
						c0.2-0.1,0.4-0.3,0.5-0.4c0.2-0.2,0.3-0.3,0.5-0.5c0.2-0.2,0.3-0.3,0.5-0.5l0.5-1l0.4,1.2c0,0.4,0,1,0,1.4
						c0,0.4,0.1,0.9,0.1,1.3c0,0.2,0.1,0.4,0.1,0.6c0,0.1,0,0.1,0,0.1l0,0c0,0,0,0,0,0c0,0,0,0,0,0c0,0,0.1,0.1,0.2,0.1
						c0.3,0.1,0.8,0.1,1.2,0.1l-0.3,0.2c0.2-0.5,0.5-1.1,0.7-1.6c0-0.1,0-0.1,0.1-0.2l0-0.1c0-0.1,0-0.1,0-0.1
						c0-0.2,0.1-0.3,0.2-0.4c0.1-0.3,0.2-0.6,0.3-0.8l0.3-0.8l0.2-0.4l0.2-0.4l0.8-1.6l0-0.1l0.1,0c0.4-0.2,0.7-0.4,1-0.7
						c0.3-0.3,0.6-0.6,0.9-0.9c0.3-0.3,0.5-0.7,0.7-1.1c0.1-0.2,0.2-0.4,0.3-0.6c0-0.1,0.1-0.2,0.1-0.3c0-0.1,0-0.1,0-0.2L5.6,117.4
						C5.6,117.5,5.6,117.4,5.6,117.4z"/>
					<path class="st24" d="M-12.1,132.5l-0.8-0.6c0.3-0.4,1.2-1.6,1.4-2.3c0.2-0.8,0.6-2.6,0.6-2.6l0-0.1c0.4-1,1.1-2.6,1.1-2.9
						c0.1-0.4,0.6-0.7,3-2.3c0.9-0.6,1.9-1.2,2.1-1.5c0.2-0.2,0.7-0.2,1-0.2c0.8,0,1.3,0.9,1.5,1.1l0.1,0.1l0.4,2.7l-1,0.1l-0.4-2.5
						c-0.3-0.4-0.8-0.8-0.9-0.8c-0.3,0.3-1,0.8-2.3,1.6c-0.9,0.6-2.3,1.5-2.6,1.8c-0.2,0.6-1,2.5-1.2,2.9c-0.1,0.3-0.4,1.8-0.6,2.6
						C-10.8,130.9-12,132.4-12.1,132.5z M-8.8,124.5L-8.8,124.5L-8.8,124.5z"/>
					<path class="st24" d="M-13.5,132.6c0-0.1-0.5-0.5-0.6-0.9c-0.1-0.1-0.2-0.5,0.7-4.7l0,0l0.9-3.1c0-0.1,0.6-2.4,1.6-3.6l0.7,0.6
						c-0.9,1-1.4,3.2-1.4,3.2l-0.9,3.1c-0.4,1.7-0.7,3.7-0.7,4.1c0.1,0.2,0.4,0.5,0.5,0.6L-13.5,132.6z M-13.2,131.4L-13.2,131.4
						L-13.2,131.4z"/>
					<path class="st24" d="M-9.1,130l-0.3-0.1l0.6-1.9c0.8-0.9,1.3-2,1.3-2.1c0-0.1-0.1-0.3-0.5-0.5l-1.4-0.6l0.1-0.3l1.4,0.6
						c0.4,0.2,1,0.6,1,0.9c0,0.3-0.9,1.3-1.7,2.2L-9.1,130z"/>
					<path class="st24" d="M-6.2,126.3c-0.4,0-0.7,0-0.9-0.1l-0.1-0.5c0.5,0.2,2,0.1,2.6,0l0.3,0.5C-4.4,126.2-5.4,126.3-6.2,126.3z
						"/>
				</g>
				<g>
					<path class="st24" d="M104.2,114.6c-0.2,0-0.4-0.1-0.7-0.1c-0.2,0-0.4-0.1-0.7-0.1c-0.4-0.1-0.9-0.2-1.3-0.4l0.2,0
						c-0.4,0.5-0.8,1-1.2,1.4c-0.1,0.1-0.2,0.2-0.2,0.4c-0.1,0.1-0.1,0.3-0.2,0.4c-0.1,0.3-0.3,0.6-0.4,0.9
						c-0.2,0.3-0.3,0.6-0.5,0.8c-0.2,0.3-0.4,0.6-0.8,0.7c-0.1,0-0.1,0-0.2,0.1c-0.1,0-0.1,0-0.1,0c-0.1,0-0.2,0-0.3,0
						c-0.2,0-0.4,0-0.5-0.1c-0.4-0.1-0.7-0.2-1-0.4l-0.2-0.1l0-0.3c0.2-1.2,0.4-2.5,0.6-3.7l0-0.2c0-0.1,0-0.1,0-0.3
						c0.1-0.3,0.1-0.4,0.2-0.6c0.2-0.3,0.3-0.6,0.5-0.8c0.2-0.3,0.3-0.5,0.5-0.8c0.1-0.1,0.1-0.3,0.2-0.4c0.1-0.1,0.1-0.3,0.2-0.4
						c0.2-0.3,0.3-0.6,0.5-0.8c0.1-0.1,0.1-0.3,0.2-0.4c0-0.1,0-0.1,0.1-0.2l0-0.1c0-0.1,0-0.1,0-0.1c0.3-0.6,0.6-1.2,0.9-1.7
						c0.2-0.3,0.4-0.5,0.6-0.8c0.1-0.1,0.2-0.2,0.3-0.4c0.1-0.1,0.2-0.2,0.4-0.3c0.3-0.2,0.6-0.3,0.9-0.4l0.5-0.1l0.5-0.1
						c1.3-0.2,2.5-0.2,3.8-0.1c0.6,0.1,1.2,0.1,1.9,0.4c0.6,0.3,1.1,0.7,1.5,1.2c0.4,0.5,0.8,1,1.2,1.5c0.2,0.2,0.4,0.5,0.6,0.6
						l0.7,0.6c1,0.7,1.9,1.5,2.9,2.3l0,0l0,0.1c0.1,0.2,0.2,0.3,0.2,0.5c0,0.1,0.1,0.2,0.1,0.3c0,0.1,0,0.2,0,0.3c0,0.3,0,0.6,0,1
						l-0.1-0.2l1.7,2.3l0,0c0.1,0.2,0.3,0.3,0.4,0.5c0.1,0.2,0.2,0.4,0.3,0.6c0.1,0.2,0.1,0.4,0.1,0.6l0.1,0.5
						c0.1,0.7,0.2,1.4,0.3,2.2l0,0.4l-0.4,0.1c-0.3,0.1-0.5,0.1-0.8,0.2c-0.1,0-0.3,0-0.4-0.1c-0.1,0-0.2-0.1-0.2-0.1l-0.2-0.1
						c-0.4-0.2-0.7-0.4-1.1-0.6l0.8-0.4l-0.3,2.1l0,0.1l-0.1,0.1c-0.5,0.8-1.1,1.6-1.6,2.3l-0.3,0.4l-0.4-0.3
						c-0.2-0.1-0.3-0.2-0.5-0.4c-0.1-0.1-0.3-0.3-0.4-0.5c-0.1-0.1-0.1-0.3-0.1-0.5c0-0.1,0-0.1,0-0.2l0,0l0-0.1l0.1-0.5
						c0-0.3,0.1-0.7,0.2-1.1c0.1-0.4,0.2-0.7,0.4-1.1l-0.1,0.3l-0.4-2.7l0.1,0.2l-0.9-1.2l0.3,0.1c-0.4,0-0.7-0.1-1.1-0.1
						c-0.3-0.1-0.7-0.1-1-0.2c-0.7-0.2-1.4-0.4-2-0.7l0.1,0c-0.8-0.1-1.5-0.3-2.3-0.6C105.6,115.3,104.8,115,104.2,114.6z
						 M104.2,114.5c0.7,0.3,1.4,0.5,2.2,0.7c0.4,0.1,0.8,0.2,1.1,0.2c0.4,0.1,0.8,0.1,1.1,0.2l0,0l0,0c0.6,0.2,1.3,0.4,1.9,0.5
						c0.3,0.1,0.7,0.1,1,0.1c0.3,0,0.7,0.1,1,0.1l0.4,0l-0.2,0.1l0.9,1.1l0.1,0.1l0,0.1l0.5,2.7l0,0.2l-0.1,0.2
						c-0.1,0.2-0.2,0.5-0.3,0.8c-0.1,0.3-0.1,0.6-0.1,1l-0.1,0.5l0,0.1l0,0.1c0,0,0,0,0,0c0-0.1,0-0.1,0,0c0.1,0.1,0.4,0.4,0.6,0.5
						l-0.7,0.1c0.5-0.8,1-1.6,1.6-2.3l-0.1,0.2l0.3-2.1l0.1-0.8l0.7,0.5c0.3,0.2,0.7,0.4,1,0.6l0.1,0.1c0,0,0,0,0.1,0
						c0,0,0.1,0,0.2,0c0.1,0,0.3,0,0.4-0.1l-0.3,0.5c-0.1-0.7-0.1-1.4-0.2-2.2l-0.1-0.5c0-0.2,0-0.4-0.1-0.5c0-0.2-0.3-0.5-0.5-0.7
						l0,0l0,0l-1.6-2.4l-0.1-0.1l0-0.1c0-0.3,0-0.6,0.1-0.9c0-0.2,0-0.2,0-0.3c0-0.1-0.1-0.3-0.2-0.4l0.1,0.1
						c-0.9-0.8-1.8-1.7-2.8-2.5l-0.7-0.6c-0.3-0.2-0.5-0.5-0.6-0.7c-0.4-0.5-0.7-1-1.1-1.5c-0.4-0.5-0.8-0.9-1.3-1.2
						c-0.5-0.2-1.2-0.3-1.8-0.4c-1.2-0.1-2.5,0-3.7,0.2l-0.4,0.1l-0.4,0.1c-0.3,0.1-0.6,0.2-0.7,0.4c-0.1,0.1-0.2,0.2-0.3,0.3
						c-0.1,0.1-0.2,0.2-0.3,0.3c-0.2,0.2-0.4,0.5-0.5,0.7c-0.3,0.5-0.6,1.1-0.8,1.6c0,0,0,0.1,0,0.1l0,0.1c0,0.1-0.1,0.2-0.1,0.3
						c-0.1,0.2-0.1,0.3-0.2,0.5c-0.2,0.3-0.3,0.5-0.4,0.8c-0.1,0.1-0.1,0.3-0.2,0.4c-0.1,0.2-0.1,0.3-0.2,0.4
						c-0.2,0.3-0.3,0.6-0.5,0.8c-0.2,0.3-0.3,0.5-0.5,0.8c-0.1,0.1-0.1,0.3-0.1,0.3c0,0,0,0.1,0,0.2l0,0.2c-0.2,1.2-0.4,2.5-0.6,3.7
						l-0.2-0.4c0.2,0.1,0.5,0.3,0.7,0.3c0.1,0,0.3,0.1,0.4,0.1c0.1,0,0.1,0,0.2,0c0,0,0.1,0,0.1,0c0,0,0,0,0.1,0
						c0.2-0.1,0.4-0.3,0.6-0.5c0.2-0.2,0.3-0.5,0.5-0.7c0.2-0.3,0.3-0.5,0.5-0.8c0.1-0.1,0.1-0.3,0.3-0.4c0.1-0.1,0.2-0.3,0.3-0.4
						c0.4-0.5,0.9-0.9,1.3-1.4l0.1-0.1l0.1,0.1c0.4,0.2,0.8,0.3,1.2,0.5l0.6,0.2C103.8,114.4,104,114.4,104.2,114.5z"/>
					<path class="st24" d="M101.5,113.8c0-0.2,0-0.4,0-0.6c0-0.2,0-0.4-0.1-0.7c-0.1-0.4-0.2-0.9-0.3-1.3c0.2,0.4,0.4,0.8,0.5,1.2
						c0.1,0.2,0.1,0.4,0.1,0.7c0,0.2,0.1,0.4,0,0.7L101.5,113.8z"/>
					<path class="st24" d="M101.8,113.9c0.1-0.4,0.1-0.8,0.2-1.1c0-0.4,0.1-0.8,0-1.1c-0.1-0.8,0.1-1.6,0.3-2.3
						c-0.1,0.4-0.1,0.8-0.1,1.1c0,0.4,0,0.8,0,1.1c0.1,0.4,0.1,0.8,0.1,1.2c0,0.4-0.1,0.8-0.1,1.2L101.8,113.9z"/>
					<path class="st24" d="M104.2,114.6c-0.3-0.4-0.6-0.7-0.7-1.2c-0.1-0.4-0.2-0.9-0.2-1.3c0-0.4,0-0.9,0.1-1.3
						c0-0.2,0.1-0.4,0.2-0.6c0.1-0.2,0.2-0.4,0.3-0.6c-0.1,0.2-0.2,0.4-0.2,0.6c-0.1,0.2-0.1,0.4-0.2,0.6c-0.1,0.4-0.1,0.9-0.1,1.3
						c0,0.4,0.1,0.9,0.3,1.2c0.2,0.4,0.8,1.1,1,1.4L104.2,114.6z"/>
					<path class="st24" d="M105.1,110.9c0.1-0.3,0.3-0.5,0.5-0.7c0.2-0.2,0.4-0.5,0.6-0.7c0.2-0.2,0.4-0.4,0.6-0.7
						c0.2-0.2,0.4-0.4,0.6-0.6l0.1-0.1l0.1,0l0.9,0l0.5,0c0.1,0,0.2,0,0.2,0l0,0c0,0,0.1,0,0.1,0c0,0,0.1,0,0.1,0l0,0
						c0.1,0,0.1,0,0.1,0c0.3,0.1,0.6,0.3,0.9,0.5c0.1,0.1,0.3,0.2,0.4,0.3c0.1,0.1,0.3,0.2,0.4,0.4c0,0,0.1,0.1,0.1,0.2
						c0,0.1,0,0.1,0,0.2c0,0.1,0,0.2,0,0.3c0,0.2,0,0.3,0,0.5c0,0.3,0,0.6,0,0.9c0,0.6-0.1,1.2-0.1,1.9l0,0.2l-0.2,0.1
						c-0.2,0.1-0.4,0.1-0.6,0.1c-0.2,0-0.4,0-0.6,0c-0.1,0-0.2-0.1-0.4-0.1c-0.1-0.1-0.2-0.2-0.2-0.3c-0.1-0.2-0.2-0.4-0.3-0.5
						c-0.2-0.4-0.3-0.7-0.4-1.1c-0.1-0.4-0.3-0.7-0.4-1.1c0.4,0.7,0.7,1.3,1.1,2c0.1,0.2,0.2,0.3,0.3,0.5c0.1,0.1,0.1,0.1,0.1,0.1
						c0,0,0.1,0,0.2,0c0.3,0,0.7-0.1,1-0.2l-0.2,0.2c0-0.6,0-1.2,0.1-1.8c0-0.3,0-0.6,0-0.9c0-0.2,0-0.3,0-0.4c0-0.1,0-0.1,0-0.2
						c0,0,0-0.1,0-0.1c0,0,0,0,0,0c0-0.1-0.1-0.2-0.3-0.2c-0.1-0.1-0.2-0.2-0.4-0.3c-0.2-0.2-0.5-0.3-0.8-0.4c0,0-0.1,0-0.1,0l0,0
						c0,0,0,0,0,0c0,0,0,0,0,0l0,0c-0.1,0-0.2,0-0.3,0l-0.5,0l-0.9-0.1l0.2-0.1l-1.3,1.2l-0.7,0.6
						C105.5,110.5,105.3,110.7,105.1,110.9z"/>
					<path class="st24" d="M109,112.5l-1,1.2l0,0l0,0c-0.2,0.1-0.5,0.2-0.7,0.2c-0.2,0-0.5,0-0.7-0.1c-0.2-0.1-0.5-0.2-0.6-0.4
						c-0.2-0.2-0.3-0.4-0.4-0.6c0.1,0.2,0.3,0.4,0.4,0.6c0.2,0.2,0.4,0.3,0.6,0.3c0.2,0.1,0.5,0.1,0.7,0c0.2,0,0.5-0.1,0.7-0.2l0,0
						l0.9-1.3L109,112.5z"/>
					<path class="st24" d="M108.4,111.8C108.4,111.8,108.4,111.8,108.4,111.8L108.4,111.8L108.4,111.8c-0.1,0-0.2,0-0.3,0.1
						c-0.1,0-0.2,0-0.4,0c-0.2,0-0.4-0.2-0.6-0.4c-0.1-0.2-0.2-0.4-0.3-0.6c-0.1-0.2-0.1-0.4-0.2-0.6c0.1,0.2,0.2,0.4,0.3,0.6
						c0.1,0.2,0.2,0.4,0.4,0.5c0.1,0.1,0.3,0.2,0.5,0.2c0.1,0,0.2,0,0.3,0c0,0,0.1,0,0.1,0l0.1,0l0,0c0,0,0.1,0,0.1,0L108.4,111.8z"
						/>
					<path class="st24" d="M116,114c0,0.4-0.1,0.7-0.1,1c-0.1,0.3-0.1,0.7-0.3,1.1c0,0,0,0.1-0.1,0.1c0,0,0,0,0,0.1
						c0,0-0.1,0.1-0.1,0.1c-0.1,0.1-0.2,0.1-0.3,0.2c-0.2,0.1-0.4,0-0.6,0c-0.2,0-0.4-0.1-0.5-0.2c-0.1,0-0.2-0.1-0.3-0.2
						c-0.1-0.1-0.1-0.1-0.2-0.2c-0.4-0.6-0.7-1.2-0.9-1.9c-0.1-0.3-0.2-0.7-0.2-1c0-0.3,0-0.7,0.2-1c-0.1,0.3-0.1,0.7-0.1,1
						c0,0.3,0.1,0.7,0.2,1c0.2,0.6,0.6,1.2,1,1.8c0.1,0.1,0.1,0.1,0.2,0.2c0,0,0.1,0.1,0.2,0.1c0.1,0.1,0.3,0.1,0.4,0.1
						c0.2,0,0.3,0,0.4,0c0.1,0,0.1-0.1,0.1-0.1c0,0,0,0,0,0l0,0c0,0,0-0.1,0-0.1c0.1-0.3,0.1-0.6,0.2-1c0-0.3,0.1-0.7,0.1-1L116,114
						z"/>
					<path class="st24" d="M108.7,113.2c0,0.4,0,0.8,0.2,1.1c0.1,0.2,0.2,0.3,0.4,0.4c0.1,0.1,0.3,0.2,0.5,0.2l0,0
						c0.2,0,0.5,0,0.8-0.1c0.1,0,0.2-0.1,0.3-0.2c0.1-0.1,0.2-0.1,0.3-0.2c0.2-0.2,0.5-0.3,0.7-0.4c0.3-0.1,0.5-0.2,0.8-0.2l0,0
						l-0.7,0.4c-0.2,0.1-0.5,0.3-0.7,0.4c-0.1,0.1-0.2,0.2-0.4,0.2c-0.1,0.1-0.3,0.1-0.4,0.1c-0.3,0.1-0.6,0.1-0.9,0.1l0,0l0,0
						c-0.2-0.1-0.4-0.2-0.5-0.3c-0.2-0.1-0.3-0.3-0.4-0.5C108.6,114,108.6,113.6,108.7,113.2L108.7,113.2z"/>
					<path class="st24" d="M113.3,110.5c-0.3-0.1-0.6-0.2-0.9-0.3c-0.3-0.1-0.6-0.2-0.9-0.2c0.3,0,0.7,0,1,0.1c0.3,0,0.6,0.1,1,0.2
						L113.3,110.5z"/>
					<path class="st24" d="M115.9,120.1c-0.2-0.4-0.4-0.7-0.7-1.1c-0.1-0.2-0.2-0.4-0.3-0.6c-0.1-0.2-0.2-0.4-0.2-0.6l0.1,0.1
						l-1.5-1.4l0,0c-0.2-0.1-0.5-0.2-0.7-0.3c-0.2-0.1-0.5-0.2-0.6-0.4c0.4,0.3,0.9,0.4,1.4,0.5l0,0l0,0l1.6,1.3l0,0l0,0.1
						c0.1,0.4,0.4,0.7,0.6,1.1c0.2,0.3,0.5,0.7,0.7,1L115.9,120.1z"/>
					<path class="st24" d="M112.6,116.4c0.1,0,0.3,0,0.4,0c0.1,0,0.1,0,0.2,0c0.1,0,0.1,0,0.2-0.1c0,0.1,0,0.2-0.1,0.2
						c0,0.1-0.1,0.1-0.1,0.2c0,0.1-0.1,0.1-0.2,0.2c-0.1,0.1-0.1,0.1-0.2,0.2L112.6,116.4z"/>
				</g>
				<path class="st24" d="M25.9,84.4l3.2-1.1l1.6-0.6c0.5-0.2,1.1-0.4,1.6-0.5c2.2-0.6,4.5-0.9,6.8-0.9c1.1,0,2.3,0,3.4,0.1l3.4,0.3
					l6.7,0.6l0.1,0l0.1,0.1l7.2,8.6l-0.1,0c1.7-0.3,3.5-0.7,5.1-1.2c0.8-0.2,1.7-0.5,2.5-0.8c0.8-0.3,1.6-0.7,2.3-1.3
					c-0.7,0.6-1.5,1-2.3,1.3c-0.8,0.4-1.6,0.6-2.5,0.9c-1.7,0.5-3.4,0.9-5.1,1.3l-0.1,0l0,0l-7.3-8.5l0.2,0.1l-6.7-0.5L42.4,82
					c-1.1,0-2.2-0.1-3.3,0c-2.2,0.1-4.4,0.4-6.6,1c-0.5,0.2-1,0.4-1.6,0.6l-1.6,0.6l-3.2,1.2L25.9,84.4z"/>
				<polygon class="st24" points="35.4,49.9 49.7,49 49.7,49.1 58,43.3 49.8,49.3 49.8,49.3 49.8,49.3 35.5,50.6 				"/>
				<g>
					<path class="st24" d="M21.7,163.9c0,0,1.3-0.3,3-1.2c0.3-0.2,0.9-0.5,1.2-0.8c0.6-0.4,1.2-0.8,1.8-1.2c1.2-0.8,2.4-1.5,3.6-2.3
						l-0.4-0.5c-1.1,0.8-2.3,1.7-3.4,2.5c-0.6,0.4-1.1,0.9-1.7,1.3c-0.3,0.2-0.6,0.5-1,0.7"/>
					<path class="st24" d="M33.2,163.2c0,1,0,1.9,0,2.9c0,0.5,0,1-0.1,1.4c0,0.5-0.1,1-0.1,1.4c0-0.5,0-0.9,0-1.4
						c0-0.5-0.1-0.9-0.1-1.4c-0.1-0.9-0.2-1.9-0.3-2.8L33.2,163.2z"/>
				</g>
				<path class="st24" d="M6.2,119.6c0.3-0.7,0.8-1.4,1.2-2.1c0.4-0.7,0.9-1.4,1.4-2.1c0.5-0.7,1-1.4,1.5-2c0.6-0.6,1.2-1.2,1.8-1.7
					c1.2-1.1,2.3-2.4,3.3-3.6c1-1.2,2-2.5,2.9-3.8l-0.2-0.5l-0.1-0.2l0.2-0.2c0.9-0.9,1.7-1.9,2.4-2.9c0.8-1,1.5-2,2.2-3
					c0.7-1,1.4-2.1,2.1-3.1c0.7-1.1,1.4-2.1,2-3.2l0.6-1l0.2,1.2c0.6,3.9,1.2,7.8,1.8,11.6c0.3,1.9,0.6,3.9,1,5.8
					c0,0.2,0.1,0.5,0.2,0.7l0.1,0.4c0,0.1,0.1,0.3,0.1,0.4c0.1,0.5,0.2,1,0.3,1.5c0.1,0.5,0.2,1,0.2,1.4l-1,0.4
					c-0.1-0.6-0.2-1.1-0.3-1.7c-0.1-0.5-0.2-1-0.3-1.4c0-0.1,0-0.2-0.1-0.3l-0.1-0.4c-0.1-0.3-0.1-0.5-0.2-0.8c-0.4-2-0.7-3.9-1-5.8
					c-0.5-3.5-1-7-1.5-10.5c-0.5,0.7-0.9,1.5-1.4,2.2C25,95.9,24.3,97,23.6,98c-0.7,1-1.5,2.1-2.3,3.1c-0.8,0.9-1.5,1.9-2.4,2.7
					l0.2,0.4l0.1,0.2l-0.1,0.1c-1,1.3-2,2.6-3.1,3.9c-1.1,1.3-2.2,2.5-3.4,3.6c-0.6,0.6-1.2,1.1-1.8,1.7c-0.6,0.6-1.1,1.2-1.5,1.9
					c-0.5,0.7-0.9,1.4-1.4,2c-0.4,0.7-0.9,1.4-1.2,2.1L6.5,120c0,0-0.8,0.2-1.6-0.5l0.6-1.1l0.6,0.6L6.2,119.6z"/>
				<path class="st24" d="M100.6,107.7l0.1-0.3l0-0.1c-0.7-2.5-1.4-4.9-2.1-7.3c-0.4-1.2-0.8-2.4-1.2-3.6c-0.1-0.1-0.1-0.3-0.2-0.5
					L97,95.4l-0.4-0.9L95.8,93l0.5-0.6l0-0.4l-0.1-0.2c-0.4-0.5-0.9-1.1-1.3-1.7c-0.4-0.6-0.8-1.2-1.1-1.9c-0.3-0.6-0.6-1.3-0.8-2
					c-0.2-0.7-0.3-1.4-0.3-2l0-0.2L92.5,84c-1.7-0.8-3.3-1.8-4.9-2.9c-1.6-1-3.1-2.2-4.5-3.4c-0.7-0.6-1.4-1.3-2.1-2
					c-0.7-0.7-1.4-1.3-2.1-2l-4.2-4l-0.6-0.6L74,70c-0.8,3.3-1.6,6.6-2.4,9.9c-0.9,3.3-1.8,6.6-2.8,9.8c-0.5,1.6-1.1,3.2-1.7,4.8
					c-0.3,0.8-0.7,1.5-1,2.4c-0.3,0.8-0.6,1.6-0.8,2.5c-0.5,1.7-0.8,3.4-1,5.1c-0.2,1.7-0.2,3.5,0.1,5.3l0,0l0,0
					c0,0.1,0.1,0.3,0.1,0.4l1.3,2.1c0-0.1-0.3-2.2-0.4-2.3c-0.3-1.6-0.3-3.8-0.1-5.5c0.2-1.7,0.5-3.3,1-4.9c0.2-0.8,0.5-1.6,0.8-2.4
					c0.3-0.8,0.6-1.6,1-2.4c0.6-1.6,1.2-3.2,1.7-4.9c1-3.3,2-6.6,2.8-9.9c0.8-3,1.5-6.1,2.2-9.2l3.6,3.3c0.7,0.7,1.4,1.3,2.1,2
					c0.7,0.7,1.4,1.4,2.1,2c1.5,1.3,3,2.4,4.7,3.4c1.6,1,3.2,1.9,4.9,2.8c0,0.7,0.2,1.4,0.4,2c0.2,0.7,0.5,1.4,0.9,2.1
					c0.3,0.7,0.7,1.3,1.1,1.9c0.4,0.6,0.8,1.1,1.2,1.6l-0.4,0.7L95.1,93l0.1,0.1l0.9,1.7l0.4,0.8l0.2,0.4c0.1,0.1,0.1,0.3,0.2,0.4
					c0.5,1.2,0.9,2.4,1.3,3.6c0.8,2.4,1.5,4.8,2.2,7.2"/>
				<polygon class="st24" points="35.4,45 36,50.3 35.5,50.6 35,45.7 				"/>
				<path class="st24" d="M30.5,113.5c0,0,0.5,3-1.7,7.1l-0.3,0.9c0,0,3.1-4.1,3-8.3L30.5,113.5z"/>
				<path class="st24" d="M93.5,221.4C93.5,221.4,93.5,221.4,93.5,221.4C93.5,221.4,93.5,221.4,93.5,221.4z"/>
				<g>
					<path class="st24" d="M55.1,14.1l-2.2-1.1l0.4,0c-1.1,0.3-2.1,0.4-3.1,0.4c-1,0.1-2.1,0.1-3.1,0.1c-2.1,0-4.1-0.1-6.2-0.2l0,0
						l0,0c-0.8-0.2-1.7-0.3-2.5-0.4c-0.4-0.1-0.9-0.1-1.3-0.2c-0.2,0-0.4-0.1-0.6-0.1c-0.2,0-0.5,0-0.6,0l0,0l-2.6,1.5l2.5-1.6l0,0
						l0,0c0.2,0,0.2,0,0.4,0c0.1,0,0.2,0,0.3,0c0.2,0,0.4,0,0.6,0c0.4,0,0.9,0.1,1.3,0.1c0.9,0.1,1.7,0.2,2.6,0.3l0,0
						c2,0,4.1,0,6.1-0.1c1-0.1,2-0.1,3-0.2c1-0.1,2-0.3,2.9-0.5l0.2-0.1l0.2,0.1l2.3,0.9L55.1,14.1z"/>
					<path class="st24" d="M33.5,19.3l0.2-9l3.3-4.6c0.2,0,0.3,0,0.5,0c0.3,0,0.5,0,0.8,0c0.3,0,0.5,0,0.8,0c0.1,0,0.2,0,0.3,0.1
						c0.1,0,0.1,0,0.1,0c0,0,0,0,0.1,0l0.6,0c0.1,0,0.2,0,0.3-0.1c0.2-0.1,0.4-0.3,0.6-0.4c0.2-0.1,0.4-0.2,0.7-0.3
						c0.4-0.2,0.7-0.3,1.1-0.4c0.1,0,0.2,0.1,0.2,0.1C43.3,4.9,43.5,5,43.7,5c0.4,0,0.5-0.3,0.7-0.3c0.2,0,0.4-0.1,0.6-0.2
						c0.5-0.1,1.1-0.2,1.6-0.2c0.3,0,0.5,0.1,0.7,0.1c0.1,0,0.1,0.1,0.2,0.1c0,0,0.1,0.1,0.1,0.1l0.2,0.2c0.4,0.5,0.9,1.1,1.6,1.5
						c0.4,0.2,0.8,0.3,1.2,0.3c0.3,0,0.6,0,0.9,0c0.3,0.1,0.6,0.3,0.9,0.5c0.3,0.2,0.5,0.8,0.6,1.1c0,0,0,0,0,0.1l0,0.1
						c0,0.1,0,0.1,0.1,0.2c0,0.1,0.1,0.3,0.2,0.4c0.1,0.3,0.3,0.6,0.7,0.8c0.2,0.1,0.4,0.2,0.6,0.2c0.1,0,0.2,0,0.4,0l0.2,5l0.8,0
						l-0.2-6c0-0.1,0-0.3-0.1-0.5c-0.2-0.3-0.3-0.3-0.6-0.2l-0.1,0c-0.2,0.1-0.4,0.2-0.5,0.2c-0.1,0-0.1,0-0.1,0
						c0,0-0.1-0.1-0.2-0.2C54,8.2,54,8.1,53.9,8l-0.1-0.3c-0.2-0.6-0.3-1-0.7-1.4c-0.4-0.3-0.8-0.6-1.4-0.8c-0.1,0-0.2-0.1-0.3,0
						l0,0c-0.5,0.1-1,0.1-1.4-0.2c-0.4-0.2-0.8-0.6-1.2-1.1L48.6,4c-0.1-0.1-0.1-0.1-0.2-0.2c-0.2-0.2-0.4-0.3-0.6-0.4
						c-0.4-0.2-0.8-0.2-1.2-0.3c-0.8,0-1.4,0.1-2.1,0.3l-0.1,0.1c-0.1,0-0.1,0.1-0.2,0.1c-0.1,0-0.1,0-0.2,0c-0.1,0-0.2,0-0.3-0.1
						c-0.1,0-0.2-0.1-0.2-0.1l0,0c-0.2-0.1-0.4-0.2-0.6-0.1c-0.6,0.1-1.2,0.3-1.7,0.5c-0.3,0.1-0.5,0.3-0.8,0.4
						c-0.1,0.1-0.3,0.2-0.4,0.3c0,0-0.1,0-0.1,0c-0.2,0-0.3-0.1-0.5-0.1c-0.3,0-0.6-0.1-0.9-0.1c-0.3,0-0.6,0-0.9,0
						c-0.3,0-0.6,0-0.9,0.1c-0.2,0-0.4,0.1-0.5,0.3l0,0l-3.2,5l0,0c-0.1,0.1-0.1,0.3-0.1,0.5l0.5,12.2L33.5,19.3z"/>
				</g>
				<g>
					<path class="st24" d="M35.2,39.6L35,34.3l0-0.1l0-0.1c-0.2-0.4-0.4-0.7-0.6-1.1c-0.1-0.2-0.2-0.4-0.3-0.6
						c-0.1-0.2-0.1-0.3-0.1-0.6c-0.1-0.8-0.1-1.7-0.2-2.6c-0.1-1.7-0.1-3.4-0.2-5.2c0-1.7,0-3.5,0-5.2c0-0.9,0-1.7,0.1-2.6
						c0-0.4,0-0.9,0.1-1.3l0.2-1.3c0-0.2,0,0.2,0,0c0.1-0.5-0.2,0.5,0,0L33.5,14c-0.2,0.5,0.2-0.7,0-0.2c0,0.2-0.1,0.4-0.1,0.6
						l-0.1,0.7c-0.1,0.4-0.1,0.9-0.1,1.3c0,0.9-0.1,1.7-0.1,2.6c0,1.7,0,3.5,0,5.2c0,1.7,0.1,3.5,0.1,5.2c0,0.9,0.1,1.7,0.2,2.6
						c0,0.2,0.1,0.5,0.1,0.7c0.1,0.2,0.2,0.4,0.3,0.6c0.2,0.4,0.4,0.7,0.6,1.1l0.2,5.3l0.2,5.3c-0.2,0.6-0.6,1.2-1.1,1.7
						c-0.5,0.5-1,1-1.6,1.4c-1.2,0.8-2.5,1.5-3.9,2.1c-0.3,0.1-0.7,0.3-1,0.4l-1.1,0.4c-0.4,0.1-0.7,0.2-1.1,0.4l-0.5,0.2l-0.5,0.3
						c-1.4,0.7-2.6,1.6-3.8,2.6c-1.2,1-2.2,2.1-3.1,3.3c-0.5,0.8-0.7,1.6-0.8,2.4c-0.1,0.8-0.1,1.6-0.1,2.3c0,1.5,0.2,3,0.4,4.5
						c0.2,1.5,0.5,2.9,0.8,4.4c0.1,1.1,0.1,2.2,0.1,3.2c0,1.1-0.1,2.2-0.1,3.3c-0.1,2.2-0.3,4.3-0.4,6.5L9.6,95.2
						c-0.1,0-0.3,0-0.4,0c-0.1,0-0.2,0-0.4,0c-0.1,0-0.2,0-0.4,0l-0.3,0L8,95.6c-0.2,0.7-0.5,1.5-0.8,2.2c-0.3,0.7-0.7,1.4-1,2.1
						c-0.8,1.4-1.7,2.7-2.6,4.1c-1.7,2.7-3.5,5.4-5.3,8.1l-0.1,0.2l0,0.2l0.1,0.5l0.9,0.2l-0.2-0.7c1.8-2.6,3.6-5.3,5.3-7.9
						c0.9-1.4,1.8-2.7,2.6-4.1c0.4-0.7,0.8-1.5,1.1-2.2c0.3-0.7,0.5-1.3,0.7-2c0.1,0,0.2,0,0.3,0c0.2,0,0.4,0,0.6,0l0.3,0l0.2-0.3
						l7.7-11.2l0.1-0.1l0-0.2c0.2-2.2,0.4-4.4,0.5-6.7c0.1-1.1,0.1-2.2,0.1-3.3c0-1.1,0-2.2-0.1-3.4l0,0l0,0
						c-0.3-1.4-0.6-2.9-0.9-4.4c-0.2-1.5-0.4-2.9-0.5-4.4c0-0.7,0-1.5,0-2.2c0.1-0.7,0.2-1.4,0.5-1.9c0.9-1.2,1.9-2.3,2.9-3.2
						c1.1-1,2.3-1.8,3.6-2.5l0.5-0.2l0.5-0.2c0.3-0.1,0.7-0.3,1-0.4l1-0.4c0.4-0.1,0.7-0.3,1.1-0.4c1.4-0.6,2.7-1.3,4-2.3
						c0.6-0.5,1.2-1,1.7-1.5c0.5-0.6,1-1.3,1.2-2l0,0l0,0L35.2,39.6z"/>
					<path class="st24" d="M110.9,107.7c-0.1-0.3-0.1-0.6-0.2-0.8l-0.3-0.7c-0.3-0.9-0.5-2-0.7-3c-0.2-1-0.4-2-0.5-3.1
						c-0.3-2.1-0.7-4.1-0.8-6.2c-0.1-1-0.2-2.1-0.2-3.1c0-0.5,0-1,0-1.5c0-0.3,0-0.5,0-0.8c0-0.2,0-0.5,0.1-0.7l0.1-0.7l-0.7,0
						l-0.4,0c0-0.5,0-1-0.1-1.5c-0.1-0.7-0.2-1.4-0.3-2.1c-0.2-0.7-0.3-1.4-0.6-2.1c-0.2-0.6-0.4-1.3-0.7-1.9l-0.1-1.5l0-0.2
						l-0.2-0.2c-0.5-0.4-0.9-0.8-1.4-1.1c-0.3-0.2-0.5-0.3-0.8-0.4c-0.1,0-0.1-0.1-0.2-0.1l-0.2-0.1c-0.1,0-0.2-0.1-0.3-0.1
						c-0.4-0.2-0.9-0.5-1.3-0.9c-0.4-0.3-0.8-0.7-1.1-1c-0.3-0.5-0.6-0.9-0.9-1.3c-0.3-0.5-0.7-0.9-1-1.3c-0.7-0.9-1.4-1.7-2.1-2.6
						c-1.4-1.7-2.9-3.4-4.6-4.9l-1.2-1.1c-0.4-0.4-0.8-0.7-1.1-1.1c-0.7-0.8-1.4-1.6-2.1-2.5c-0.7-0.8-1.3-1.7-2-2.6
						c-0.6-0.9-1.3-1.8-1.8-2.7L82.6,53c-0.1-0.2-0.3-0.5-0.5-0.7c-0.3-0.5-0.7-0.9-1-1.4c-0.7-0.9-1.5-1.7-2.4-2.4
						c-0.4-0.4-0.9-0.7-1.3-1c-0.5-0.3-0.9-0.6-1.4-0.9c-1-0.6-2-1.1-3-1.5c-2.1-0.8-4.3-1.4-6.5-1.7c-1.1-0.1-2.2-0.2-3.4-0.3
						c-1.1,0-2.2,0-3.3,0.1c-0.3-0.1-0.6-0.2-0.9-0.4c-0.2-0.1-0.3-0.2-0.5-0.3c-0.2-0.1-0.3-0.2-0.5-0.4c-0.7-0.5-1.3-1.1-1.9-1.7
						c-0.6-0.6-1.2-1.2-1.8-1.8L54,38.6c0,0,0,0,0,0c0,0,0-0.1-0.1-0.1c0-0.1-0.1-0.3,0-0.5c0-0.2,0-0.4,0.1-0.6
						c0-0.2,0.1-0.4,0.1-0.5c0.1-0.2,0.2-0.5,0.2-0.7l0.2-0.6l0.3-1.3c0.2-0.8,0.3-1.5,0.5-2.4c0.1-0.4,0.2-0.8,0.3-1.2
						c0.1-0.5,0.2-1.2,0.2-1.6c0-0.9,0-1.7,0.1-2.6c0-1.7,0-3.5,0-5.2c0-1.7,0-4.3-0.1-6c-0.1-1.2-0.1-2.1-0.1-2.1l-1,0
						c0,0,0.2,2,0.2,3c0.1,1.7,0.1,3.4,0.1,5.2c0,1.7-0.1,3.4-0.1,5.2c0,0.9,0,1.7-0.1,2.6c0,0.4,0,0.9-0.1,1.2
						c-0.1,0.4-0.2,0.8-0.3,1.2c-0.2,0.8-0.4,1.7-0.7,2.5l-0.4,1.2l-0.2,0.6c-0.1,0.2-0.1,0.4-0.2,0.5c-0.1,0.3-0.2,0.5-0.2,0.7
						c0,0.2-0.1,0.5-0.1,0.7c0,0.3,0,0.5,0.1,0.8c0,0.1,0.1,0.3,0.2,0.5c0,0.1,0.1,0.2,0.2,0.2l0.1,0.1c0.6,0.6,1.2,1.3,1.8,1.9
						c0.6,0.6,1.3,1.2,2,1.8c0.2,0.1,0.4,0.3,0.5,0.4c0.2,0.1,0.4,0.3,0.6,0.4c0.4,0.2,0.9,0.4,1.4,0.5l0.1,0l0.1,0
						c1-0.1,2.1-0.1,3.2-0.1c1.1,0,2.2,0.1,3.2,0.3c2.1,0.3,4.2,0.8,6.2,1.6c1,0.4,1.9,0.9,2.9,1.4c0.5,0.3,0.9,0.6,1.3,0.9
						c0.4,0.3,0.9,0.6,1.2,1c0.8,0.7,1.5,1.5,2.2,2.3c0.3,0.4,0.7,0.8,1,1.3c0.1,0.2,0.3,0.4,0.4,0.7l0.4,0.7
						c1.2,1.9,2.5,3.7,3.9,5.4c0.7,0.9,1.4,1.7,2.2,2.5c0.4,0.4,0.8,0.8,1.2,1.2l1.2,1.1c1.6,1.5,3,3.1,4.4,4.8
						c0.7,0.8,1.4,1.7,2,2.5c0.3,0.4,0.7,0.9,1,1.3c0.3,0.4,0.6,0.9,0.9,1.3l0.1,0.1l0.1,0.1c0.4,0.4,0.8,0.8,1.3,1.2
						c0.5,0.4,0.9,0.7,1.5,1c0.1,0.1,0.3,0.1,0.4,0.2l0.2,0.1c0.1,0,0.1,0,0.2,0.1c0.2,0.1,0.4,0.2,0.7,0.4c0.4,0.2,0.7,0.5,1,0.8
						l0.1,1.4l0,0.1l0,0.1c0.3,0.6,0.5,1.2,0.7,1.9c0.2,0.6,0.4,1.3,0.5,1.9c0.2,0.7,0.3,1.3,0.3,2c0.1,0.7,0.1,1.3,0.1,2l0,0.6
						l0.6,0l0.4,0c0,0,0,0.1,0,0.1c0,0.3,0,0.5,0,0.8c0,0.5,0,1.1,0,1.6c0,1.1,0.1,2.1,0.2,3.1c0.2,2.1,0.6,4.2,0.9,6.2
						c0.2,1,0.3,2.1,0.5,3.1c0.2,1,0.4,1.9,0.7,2.9c0.4,0.4,1,1.2,1.6,1.8C111,107.9,111,107.8,110.9,107.7z"/>
				</g>
				<path class="st24" d="M8.1,160.1c0.3,0.7,0.7,1.3,1.3,1.8c0.1,0.1,0.3,0.2,0.4,0.3c0.2,0.1,0.3,0.2,0.5,0.3
					c0.3,0.2,0.7,0.3,1.1,0.5c1.4,0.6,3,1,4.5,1.2c1.5,0.2,3.1,0.2,4.7-0.1c1.5-0.3,4-1.4,4.4-1.6c-1.4,0.8-2.8,1.4-4.4,1.8
					c-1.5,0.3-3.2,0.4-4.7,0.3c-1.6-0.1-3.2-0.5-4.7-1c-0.4-0.1-0.7-0.3-1.1-0.5c-0.2-0.1-0.4-0.2-0.5-0.3c-0.2-0.1-0.4-0.2-0.5-0.4
					c-0.7-0.5-1.2-1.2-1.5-2L8.1,160.1z"/>
				<path class="st24" d="M65.8,181.4c0.4-1.6,1.6-3,3-3.9c0.7-0.4,1.4-0.8,2.1-1.2c0.7-0.3,1.5-0.7,2.3-0.9
					c0.8-0.3,1.6-0.5,2.4-0.6c0.4-0.1,0.8-0.1,1.2-0.2c0.4-0.1,0.9-0.1,1.3,0c0.9,0.1,1.7,0.4,2.5,0.9c0.4,0.2,0.7,0.5,1,0.8
					c0.3,0.3,0.6,0.6,0.7,1.1l-0.1,0c-0.2-0.3-0.5-0.6-0.8-0.8c-0.3-0.2-0.6-0.5-1-0.6c-0.7-0.3-1.5-0.5-2.3-0.6
					c-0.8,0-1.6,0.1-2.3,0.3c-0.8,0.2-1.5,0.4-2.3,0.7c-1.5,0.5-2.9,1.1-4.3,1.9C67.8,178.9,66.7,180,65.8,181.4L65.8,181.4z"/>
				<path class="st24" d="M30.9,158.5c-0.2,0.5-0.5,1-0.7,1.5c-0.3,0.5-0.5,0.9-0.8,1.4c-0.6,0.9-1.3,1.8-2,2.6
					c-0.8,0.8-1.7,1.5-2.6,2.1c-1,0.6-2,1-3.1,1.3c-0.5,0.1-1.1,0.2-1.6,0.3l-0.4,0.1l-0.2,0l-0.2,0c-0.3,0-0.6,0.1-0.9,0.1
					c-1.1,0-2.2-0.2-3.3-0.5c-2.1-0.5-4.1-1.4-6.1-2.4l0.2-0.4c1.9,0.9,3.9,1.8,6,2.2c1,0.2,2.1,0.4,3.2,0.4c0.5,0,1.1-0.1,1.6-0.2
					c0.5-0.1,1.1-0.2,1.6-0.4c1-0.3,2-0.7,3-1.2c0.9-0.5,1.8-1.2,2.6-1.9C28.5,162,29.7,160.3,30.9,158.5L30.9,158.5z"/>
				<path class="st24" d="M31.3,158.5c-0.3,1.1-0.8,2.2-1.2,3.3c-0.4,1.1-0.9,2.2-1.3,3.2l-0.3,0.8c-0.1,0.1-0.1,0.3-0.2,0.4
					c-0.1,0.1-0.2,0.3-0.3,0.4c-0.2,0.3-0.4,0.5-0.6,0.7c-0.2,0.2-0.4,0.4-0.7,0.6c-0.9,0.8-1.9,1.4-3,2c-1.1,0.5-2.1,1-3.3,1.3
					c-0.2,0-0.3,0.1-0.5,0.1l-0.5,0.1c-0.3,0-0.6,0-0.9,0c-0.6,0-1.2-0.2-1.8-0.3c-1.2-0.3-2.3-0.6-3.4-0.9
					c-0.6-0.2-1.1-0.4-1.6-0.6c-0.5-0.2-1.1-0.4-1.6-0.6l0.1-0.3c2,0.8,4.4,1.6,6.7,2c0.3,0,0.6,0.1,0.9,0.1c0.3,0,0.6,0.1,0.9,0.1
					c0.3,0,0.6,0,0.9,0l0.4-0.1c0.1,0,0.3-0.1,0.4-0.1c1.1-0.3,2.2-0.8,3.2-1.3c1-0.5,2-1.2,2.9-1.9c0.2-0.2,0.4-0.4,0.6-0.6
					c0.2-0.2,0.4-0.4,0.6-0.6c0.4-0.4,0.6-1,0.8-1.5C29.4,162.7,30.3,160.6,31.3,158.5L31.3,158.5z"/>
				<path class="st24" d="M20.2,174.5c-1.5,0-8.5-2.1-9.9-2.5l0.2-0.6c3.4,1,9.1,2.6,9.8,2.5c1.2-0.2,3.9-2.1,5.4-3.1
					c1-0.7,1.8-1.8,2.2-2.9l3.1-9.5l0.6,0.2l-3.1,9.5c-0.4,1.3-1.3,2.5-2.5,3.3c-2.2,1.5-4.4,3-5.7,3.2
					C20.4,174.5,20.3,174.5,20.2,174.5z"/>
				<path class="st24" d="M67.2,184.5c0.9-1.2,1.9-1.8,3.2-2.6c0.6-0.4,1.3-0.7,1.9-1.1c0.7-0.3,1.3-0.6,2-0.8
					c0.7-0.2,1.4-0.4,2.1-0.6c0.7-0.2,1.4-0.3,2.1-0.4c1.4-0.2,2.9-0.3,4.3-0.1l0,0.1c-1.4,0.2-2.8,0.4-4.2,0.8
					c-1.4,0.3-2.7,0.7-4.1,1.2c-1.3,0.5-2.6,1-3.9,1.7c-1.2,0.7-2.4,1.2-3.5,2.1L67.2,184.5z"/>
				<path class="st24" d="M69.5,188.4c1.1-0.7,2.3-1.3,3.5-1.9c0.6-0.3,1.2-0.6,1.8-0.8l1.8-0.8c1.2-0.5,2.4-1,3.6-1.4
					c1.2-0.4,2.5-0.9,3.8-1.2c-1.1,0.7-2.3,1.3-3.5,1.9c-1.2,0.6-2.4,1.1-3.6,1.6l-1.8,0.7c-0.6,0.2-1.2,0.5-1.8,0.7
					C72.1,187.6,70.8,188.1,69.5,188.4z"/>
				<path class="st24" d="M70.7,190.4c0.5,0.4,1,0.7,1.5,1c0.3,0.1,0.5,0.2,0.8,0.3l0.2,0l0.2,0c0.1,0,0.2,0,0.4-0.1
					c0.5-0.2,1.1-0.4,1.7-0.6c0.6-0.2,1.1-0.4,1.6-0.6c0.5-0.2,1.1-0.4,1.6-0.7c0.5-0.2,1.1-0.5,1.6-0.7c0.5-0.2,1.1-0.5,1.6-0.8
					c0.3-0.1,0.5-0.3,0.7-0.4c0.2-0.2,0.4-0.3,0.6-0.5l0,0c0.4-0.4,0.7-0.9,1.1-1.3l0.5-0.7c0.2-0.2,0.4-0.5,0.5-0.7
					c-0.1,0.3-0.2,0.6-0.3,0.8c-0.1,0.3-0.3,0.5-0.4,0.8c-0.3,0.5-0.6,1-0.9,1.5l0,0c-0.2,0.3-0.4,0.6-0.7,0.8
					c-0.2,0.2-0.5,0.4-0.8,0.6c-0.5,0.3-1.1,0.6-1.6,0.9c-1.1,0.5-2.2,1-3.3,1.4c-1.1,0.4-2.3,0.8-3.5,1c-0.1,0-0.3,0.1-0.5,0
					c-0.1,0-0.2,0-0.3,0l-0.2-0.1c-0.3-0.1-0.6-0.3-0.8-0.5C71.5,191.3,71.1,190.8,70.7,190.4z"/>
				<path class="st24" d="M51.9,146.3c-0.2-1-0.4-1.9-0.6-2.9c-0.3-1-0.6-1.9-0.9-2.8c-0.3-0.9-0.7-1.8-1.2-2.7
					c-0.5-0.8-1.2-1.6-2-2.2c0.9,0.5,1.5,1.3,2.1,2.1c0.6,0.8,1,1.7,1.4,2.7c0.4,0.9,0.7,1.9,1.1,2.8c0.3,1,0.6,1.9,0.8,2.9
					L51.9,146.3z"/>
				<path class="st24" d="M46.2,141.6c-0.3-0.1-0.7-0.1-1.1-0.1c-0.4,0-0.8,0-1.1,0.1c-0.8,0.1-1.5,0.2-2.3,0.4
					c-0.7,0.2-1.5,0.4-2.2,0.7c-0.4,0.1-0.7,0.3-1.1,0.4l-1.1,0.5l1-0.6c0.4-0.2,0.7-0.4,1.1-0.5c0.7-0.3,1.4-0.6,2.2-0.9
					c0.7-0.2,1.5-0.4,2.3-0.6c0.4-0.1,0.8-0.1,1.2-0.1c0.4,0,0.8,0,1.2,0L46.2,141.6z"/>
				<path class="st24" d="M46.3,140.9c0,0,1.4,0.1,2.8,1.2l-2.9-0.8L46.3,140.9z"/>
				<polygon class="st24" points="52.6,146.2 53.2,148.5 51.9,145.9 				"/>
				<path class="st24" d="M-5.9,128.3c-0.3,0-0.6-0.1-0.9-0.1c-0.3,0-0.6-0.1-0.9-0.2c0.3,0.1,0.6,0,0.9,0c0.3,0,0.6,0,0.9-0.1
					L-5.9,128.3z"/>
				<path class="st24" d="M-8.6,128.3c-0.3-0.1-0.5-0.3-0.8-0.5c-0.3-0.2-0.5-0.3-0.7-0.6c0.2,0.2,0.5,0.3,0.8,0.4
					c0.3,0.1,0.6,0.2,0.8,0.3L-8.6,128.3z"/>
				<path class="st24" d="M-9.8,130.8c-0.3-0.1-0.6-0.1-0.9-0.2c-0.3-0.1-0.6-0.2-0.8-0.3c0.3,0.1,0.6,0.1,0.9,0.2
					c0.3,0,0.6,0.1,0.9,0.1L-9.8,130.8z"/>
				<path class="st24" d="M-6.2,131.3c-0.3,0-0.6-0.1-0.9-0.1c-0.3,0-0.6-0.1-0.9-0.2c0.3,0.1,0.6,0,0.9,0c0.3,0,0.6,0,0.9-0.1
					L-6.2,131.3z"/>
				<g>
					<path class="st24" d="M17.9,174.5l1.5,0.1l1.4-0.2c-0.1-0.1-0.3-0.1-0.4-0.2l-0.2-0.1L20,174l-0.4-0.1c-1-0.3-2-0.6-3-0.9
						c-2-0.6-3.9-1.2-5.9-1.7c-0.1-0.1-0.1-0.1-0.2-0.2c-0.1-0.1-0.2-0.3-0.3-0.4c-0.1-0.2-0.1-0.3-0.2-0.5c0-0.1-0.1-0.3-0.1-0.4
						l0.2-0.8l0.1-0.3l-0.3-0.2l-1-0.7c-0.2-0.2-0.3-0.5-0.4-0.8c0-0.2-0.1-0.3-0.1-0.5c0-0.1,0-0.3,0-0.4l0.6-1.1l0.2-0.4l-0.3-0.2
						l-0.9-0.6c-0.2-0.4-0.3-0.8-0.4-1.2c0-0.2-0.1-0.5-0.1-0.7c0-0.2,0-0.4,0-0.6l0.7-0.8l0.1-0.1l0-0.1c0.6-3.9,1.6-7.7,3-11.4
						c1.4-3.7,3.2-7.2,5.2-10.6c2-3.4,4.3-6.6,6.8-9.7c0.6-0.8,1.3-1.5,1.9-2.3c0.6-0.8,1.3-1.5,1.9-2.3c0.6-0.8,1.1-1.6,1.6-2.5
						c0.5-0.9,1-1.8,1.3-2.7c0.3-0.4,0.5-0.9,0.6-1.4c0.2-0.5,0.3-1,0.4-1.5c0.2-1,0.2-2,0.2-3l0.4,0l0-0.3l-0.5,0l-0.1,0l0,0.1
						c0,1,0,2-0.2,3c-0.1,0.5-0.2,1-0.3,1.5c-0.1,0.5-0.3,0.9-0.6,1.4c-0.3,0.9-0.8,1.8-1.3,2.6c-0.5,0.8-1.1,1.6-1.7,2.4
						c-0.6,0.8-1.2,1.5-1.9,2.3c-0.6,0.7-1.3,1.5-1.9,2.3c-2.5,3-4.9,6.2-7,9.6c-2.1,3.4-3.9,6.9-5.4,10.6C9,152.3,8,156.1,7.3,160
						l-0.7,0.8l-0.1,0.1l0,0.1c0,0.3,0,0.5,0,0.8c0,0.3,0,0.5,0.1,0.8c0.1,0.5,0.2,1.1,0.5,1.6l0,0.1l0.1,0.1l0.7,0.5l-0.5,0.9
						l-0.1,0.1l0,0.1c0,0.2,0,0.4,0.1,0.6c0,0.2,0.1,0.4,0.1,0.6c0.1,0.4,0.3,0.8,0.6,1.2l0,0l0,0l0.8,0.5l-0.2,0.6l0,0.1l0,0.1
						c0.1,0.2,0.1,0.4,0.2,0.6c0.1,0.2,0.2,0.4,0.3,0.6c0.1,0.2,0.2,0.4,0.3,0.6c0.1,0.2,0.3,0.4,0.6,0.5l0.1,0l0.1,0
						c2,0.5,4,1.2,5.9,1.8C16.8,174.1,17.4,174.3,17.9,174.5z"/>
					<path class="st24" d="M100.4,247.1c-0.1-1.8-0.4-3.6-0.6-5.3c-0.3-1.8-0.6-3.5-0.9-5.2c-0.4-1.7-0.7-3.5-1.2-5.2
						c-0.2-0.9-0.5-1.7-0.8-2.6l-0.2-0.3l-0.1-0.3c-0.1-0.2-0.2-0.4-0.3-0.6c-0.2-0.4-0.3-0.8-0.5-1.2c-0.3-0.8-0.5-1.6-0.7-2.5
						c0-0.1,0-0.4,0-0.6l0-0.7c0-0.5,0-0.9-0.1-1.4c0-0.1,0-0.2-0.1-0.2c0-0.1-0.1-0.3-0.1-0.3l0,0l0-0.1c0,0,0-0.1-0.1-0.1
						c-0.1-0.2-0.1-0.4-0.2-0.6c-0.1-0.4-0.2-0.8-0.3-1.2c-0.2-0.8-0.3-1.7-0.5-2.6c-0.3-1.7-0.4-3.5-0.6-5.2
						c-0.1-1.7-0.2-3.5-0.2-5.3c-0.1-3.5-0.4-7.1-1.3-10.6c-0.5-1.7-1.2-3.5-2-5c-0.4-0.8-0.9-1.6-1.4-2.3c-0.5-0.7-1-1.4-1.4-2.2
						c-0.9-1.5-1.7-3-2.4-4.6c-0.3-0.8-0.6-1.6-0.9-2.4c-0.1-0.4-0.3-0.8-0.4-1.2c-0.1-0.4-0.2-0.8-0.3-1.2
						c-0.4-5.7-0.9-11.4-1.7-17.1c-0.4-2.8-0.9-5.7-1.5-8.5c-0.3-1.4-0.7-2.8-1.1-4.2c-0.4-1.4-0.9-2.7-1.3-4.1
						c-1.8-5.4-3.8-10.8-5.9-16.1c-0.5-1.3-1.1-2.7-1.7-4c-0.2-0.3-0.3-0.6-0.5-1c-0.2-0.3-0.4-0.6-0.5-0.9
						c-0.3-0.6-0.6-1.2-0.9-1.9c-0.5-1.3-0.9-2.7-1.3-4c-0.4-1.4-0.7-2.8-0.9-4.1l-0.1-0.4l-0.4,0l-0.5,0l0.2,0.7l0,0
						c0.2,1.3,0.5,2.6,0.8,3.9c0.4,1.4,0.8,2.8,1.3,4.1c0.3,0.7,0.5,1.4,0.9,2c0.2,0.3,0.4,0.6,0.6,1c0.2,0.2,0.3,0.6,0.5,0.9
						c0.6,1.3,1.1,2.6,1.6,3.9c2.1,5.3,4,10.7,5.7,16.1c0.4,1.4,0.9,2.7,1.3,4.1c0.4,1.3,0.7,2.7,1,4.1c0.6,2.8,1,5.6,1.4,8.4
						c0.4,2.8,0.7,5.7,0.9,8.5c0.3,2.8,0.5,5.7,0.6,8.5l0,0l0,0c0.1,0.5,0.2,0.9,0.3,1.4c0.1,0.4,0.2,0.9,0.4,1.3
						c0.3,0.9,0.6,1.7,0.9,2.5c0.7,1.7,1.5,3.3,2.5,4.8c0.5,0.8,1,1.5,1.5,2.2c0.5,0.7,0.9,1.4,1.4,2.2c0.8,1.5,1.4,3.1,1.9,4.8
						c0.9,3.3,1.1,6.8,1.3,10.3c0.1,1.8,0.1,3.5,0.2,5.3c0.1,1.8,0.3,3.6,0.6,5.3c0.1,0.9,0.3,1.8,0.5,2.6c0.1,0.4,0.2,0.9,0.3,1.3
						c0.1,0.2,0.1,0.4,0.2,0.7c0,0.1,0,0.1,0.1,0.2l0,0.1l0.1,0.1l0,0.1c0,0,0,0,0,0c0,0,0,0,0,0c0,0,0,0,0,0.1
						c0.1,0.3,0.1,0.8,0.1,1.2l0,0.7c0,0.2,0,0.4,0.1,0.8c0.2,0.9,0.4,1.8,0.7,2.6c0.2,0.4,0.3,0.9,0.5,1.3c0.1,0.2,0.2,0.4,0.3,0.6
						l0.1,0.3l0.1,0.3c0.3,0.7,0.6,1.6,0.8,2.4c0.5,1.7,0.8,3.4,1.2,5.1c0.4,1.7,0.7,3.4,0.9,5.2c0.3,1.7,0.5,3.5,0.6,5.2
						c0,0.4,0.1,0.9,0.1,1.3c0,0.4,0,0.8-0.1,1.2c-0.1,0.8-0.3,1.6-0.6,2.4c-0.3,0.8-0.8,1.5-1.3,2.1c-0.3,0.3-0.6,0.6-0.9,0.9
						c-0.2,0.1-0.3,0.3-0.5,0.4c-0.1,0.1-0.3,0.2-0.4,0.3l-3.6,0.5c-0.6-0.1-1.1-0.4-1.6-0.8c-0.5-0.4-1-1-1.3-1.5
						c-0.4-0.6-0.7-1.2-1-1.8c-0.1-0.3-0.3-0.6-0.4-1c-0.1-0.3-0.2-0.7-0.3-1c-0.1-0.7-0.2-1.4-0.3-2.1l-0.2-2.2l-0.5-4.4l-0.1-1.1
						l-0.1-1.1l-0.3-2.2l-0.6-4.4c-0.4-2.9-0.8-5.8-1.2-8.7c-0.2-1.5-0.4-2.9-0.7-4.4c-0.1-0.4-0.1-0.7-0.2-1.1
						c-0.1-0.4-0.3-0.7-0.4-1.1c-0.3-0.7-0.6-1.4-0.9-2c-1.3-2.6-2.7-5.2-4.1-7.8l-2.1-3.9c-0.7-1.3-1.2-2.6-1.5-4
						c-0.3-1.4-0.4-2.8-0.3-4.3c0-0.4,0-0.7,0-1.1c0-0.2-0.1-0.4-0.1-0.6c-0.1-0.2-0.1-0.4-0.2-0.5c-0.1-0.4-0.3-0.7-0.6-1
						c-0.2-0.3-0.4-0.6-0.8-0.9c-0.3-0.3-0.5-0.7-0.8-1c-0.2-0.2-0.3-0.3-0.5-0.5c-0.1-0.1-0.3-0.3-0.5-0.4l-1.1-2.5l0,0l0,0
						l-2.6-4.2l-5.2-11.8l-2.6-5.9c-0.8-2-1.7-3.9-2.5-5.9c-0.8-2-1.3-4.1-1.9-6.1c-0.3-1-0.5-2.1-0.8-3.1l-0.2-0.8
						c-0.1-0.3-0.1-0.5-0.2-0.8c-0.2-0.5-0.3-1-0.6-1.5c-0.4-1-1-2-1.6-2.8c-0.7-0.9-1.5-1.6-2.6-2c-0.5-0.2-1.1-0.4-1.6-0.4l-0.4,0
						c-0.1,0-0.3,0-0.4,0c-0.3,0-0.6,0.1-0.8,0.3c-0.5,0.3-1,0.6-1.4,1c-0.4,0.4-0.7,0.8-1,1.3l-0.1,0.1l-0.1,0.1l-0.1,0.2l-0.3,0.5
						l-0.6,1l-1.2,2c-0.8,1.3-1.7,2.5-2.7,3.7c-1,1.2-2.1,2.3-3.2,3.3c-1.1,1.1-2.3,2.1-3.5,3l-0.3,0.3l0.3,0.3
						c0.1,0.1,0.2,0.3,0.3,0.5c0.1,0.2,0.2,0.4,0.3,0.6c0.2,0.4,0.3,0.8,0.4,1.2c0.3,0.8,0.5,1.7,0.7,2.6l0,0.1l0.1,0.1
						c0.1,0.1,0.2,0.1,0.4,0.1c0.1,0,0.2,0,0.3,0c0.2-0.1,0.3-0.1,0.4-0.2c0.2-0.2,0.4-0.3,0.5-0.5c0.2-0.2,0.3-0.3,0.4-0.5
						c0.1-0.1,0.2-0.3,0.3-0.4l1.8-0.5l1.7,0l0,0l0,0c0.5,0,1,0.2,1.4,0.5c0.4,0.4,0.8,0.8,1.1,1.3c0.3,0.5,0.5,1.1,0.6,1.6
						c0,0.1,0,0.3,0,0.4c0,0.1,0,0.1,0,0.2l0,0.2c0,0.3,0,0.6,0,1c0,1.3,0.1,2.5,0.1,3.8c0,0.6,0.1,1.3,0.1,1.9l0.1,1l0.1,0.9
						c0.3,2.5,0.5,5,0.7,7.5c0.1,2.5,0.1,5,0,7.5c0,0.6-0.1,1.2-0.2,1.8c-0.1,0.6-0.2,1.2-0.3,1.8c-0.3,1.1-0.8,2.2-1.5,3.1
						c-0.7,0.9-1.7,1.5-2.8,1.9c-0.6,0.2-1.1,0-1.7,0c-0.3,0-0.6,0-0.9,0c-0.3,0-0.5-0.1-0.8-0.1c-1-0.3-1.8-1.2-2.2-2.3
						c-0.5-1.1-0.7-2.3-0.9-3.5c0-0.3-0.6-10.5-0.6-10.8c-0.4,0-0.5-0.6-0.9-0.6c0,0.3,0.3,11.2,0.3,11.5c0.1,1.3,0.4,2.6,1,3.8
						c0.3,0.6,0.6,1.2,1.1,1.7c0.5,0.5,1.1,0.9,1.8,1.2c0.4,0.1,0.7,0.2,1.1,0.2c0.4,0,0.7,0,1,0c0.7-0.1,1.3,0.1,2-0.1
						c1.3-0.4,2.5-1.2,3.3-2.3c0.9-1,1.4-2.3,1.8-3.6c0.2-0.6,0.3-1.3,0.3-1.9c0.1-0.6,0.1-1.3,0.2-1.9c0.2-2.5,0.1-5.1,0-7.6
						c-0.1-2.5-0.4-5-0.7-7.5l-0.1-0.9l-0.1-0.5c0-0.1,0-0.2-0.1-0.3c0,0,0,0,0,0l0,0l0,0l0-0.1c-0.1-0.6-0.1-1.2-0.1-1.9
						c-0.1-1.2-0.1-2.5-0.2-3.7c0-0.3,0-0.6,0-0.9l0-0.2c0-0.1,0-0.2,0-0.3c0-0.2,0-0.4-0.1-0.5c-0.1-0.7-0.4-1.3-0.7-1.9
						c-0.3-0.6-0.8-1.1-1.3-1.6c-0.3-0.2-0.6-0.4-0.9-0.5c-0.3-0.1-0.7-0.2-1.1-0.2l0,0l-1.7,0l-0.1,0l-0.1,0l-2,0.6l-0.1,0
						l-0.1,0.1c-0.2,0.3-0.5,0.7-0.8,1c-0.1,0.1-0.3,0.3-0.4,0.4c0,0,0,0-0.1,0c-0.2-0.8-0.4-1.5-0.6-2.3c-0.1-0.4-0.3-0.9-0.5-1.3
						c-0.1-0.2-0.2-0.4-0.3-0.6c-0.1-0.1-0.1-0.2-0.2-0.3c1.1-0.9,2.2-1.9,3.2-2.9c1.1-1.1,2.2-2.2,3.2-3.4c1-1.2,1.9-2.5,2.7-3.8
						l1.2-2l0.6-1l0.3-0.5l0.1-0.3l0.1-0.1l0-0.1l0,0l0,0l0,0c0.5-0.9,1.2-1.7,2.1-2.1c0.2-0.1,0.5-0.2,0.7-0.2c0.1,0,0.2,0,0.4,0
						l0.4,0c0.5,0,1,0.2,1.5,0.4c0.9,0.4,1.8,1.1,2.4,1.9c0.7,0.8,1.2,1.7,1.6,2.7c0.2,0.5,0.4,1,0.5,1.5c0.1,0.3,0.1,0.5,0.2,0.8
						l0.2,0.8c0.3,1,0.5,2.1,0.8,3.1c0.6,2.1,1.2,4.1,1.9,6.2c0.8,2,1.7,4,2.5,5.9l2.6,5.9l5.1,11.8l0,0l0,0l2.5,4.2l1.1,2.6l0,0.1
						l0.1,0c0.1,0.1,0.3,0.2,0.5,0.4c0.2,0.1,0.3,0.3,0.4,0.4c0.3,0.3,0.6,0.6,0.8,1l0,0l0,0c0.2,0.2,0.5,0.5,0.7,0.8
						c0.2,0.3,0.4,0.6,0.5,0.9c0.1,0.2,0.1,0.3,0.2,0.5c0.1,0.2,0.1,0.3,0.1,0.5c0,0.3,0,0.7,0,1.1c0,1.5,0,3,0.3,4.5
						c0.3,1.5,0.9,2.9,1.6,4.2l2,3.9c1.4,2.6,2.7,5.2,4,7.8c0.3,0.7,0.6,1.3,0.9,2c0.1,0.3,0.3,0.7,0.4,1c0.1,0.3,0.2,0.7,0.2,1
						c0.3,1.4,0.5,2.9,0.7,4.3c0.4,2.9,0.8,5.8,1.1,8.7l0.5,4.4l0.3,2.2l0.1,1.1l0.1,1.1l0.4,4.4l0.2,2.2c0.1,0.7,0.2,1.5,0.3,2.2
						c0.1,0.4,0.2,0.8,0.3,1.2c0.1,0.4,0.3,0.7,0.4,1.1c0.3,0.7,0.7,1.4,1.1,2c0.4,0.6,0.9,1.3,1.6,1.8c0.6,0.5,1.4,1,2.2,1.1l0.1,0
						l0.1,0l3.8-0.5l0.1,0l0.1-0.1c0.2-0.1,0.4-0.3,0.6-0.4c0.2-0.1,0.4-0.3,0.6-0.4c0.4-0.3,0.7-0.6,1-1c0.6-0.7,1.1-1.5,1.5-2.4
						c0.4-0.9,0.6-1.8,0.7-2.7c0-0.5,0.1-0.9,0.1-1.4C100.4,248,100.4,247.6,100.4,247.1z"/>
				</g>
				<path class="st26" d="M31,191.8c-0.5-2-0.9-4-1.2-6c-0.3-2-0.5-4-0.7-6l0-0.1c0,0.2,0,0.1,0,0.1c0,0,0-0.1-0.1-0.1
					c0-0.1-0.1-0.2-0.2-0.3c-0.2-0.2-0.4-0.4-0.7-0.6c-0.6-0.4-1.4-0.6-2.2-0.8c-0.8-0.2-1.7-0.3-2.6-0.4c-0.9-0.1-1.9-0.2-2.9-0.4
					c-1.9-0.4-3.9-0.9-5.6-2c-0.9-0.5-1.7-1.1-2.4-1.8c-0.7-0.7-1.3-1.4-2-2c0.9,0.3,1.8,0.8,2.6,1.2c0.8,0.4,1.7,0.7,2.5,1
					c1.7,0.5,3.5,0.8,5.3,0.9c0.9,0.1,1.8,0.1,2.8,0.2c1,0.1,2,0.2,3,0.4c1,0.3,2,0.6,3,1.3c0.5,0.3,1,0.7,1.4,1.3
					c0.2,0.3,0.4,0.6,0.5,0.9c0.1,0.2,0.1,0.4,0.2,0.6c0,0.2,0.1,0.3,0.1,0.8l0-0.1c0,2-0.1,4-0.2,6C31.6,187.8,31.4,189.8,31,191.8
					z"/>
				<path class="st26" d="M35.9,168.7c0.4,0.1,0.8,0.3,1.2,0.6c0.4,0.3,0.7,0.6,1,1c0.1,0.2,0.3,0.5,0.3,0.8c0.1,0.3,0,0.7-0.1,0.9
					c-0.3,0.6-0.9,0.8-1.6,0.6l-0.1-0.2c-0.1-0.7-0.1-1-0.2-1.2c0-0.1,0-0.1,0-0.2c0.1-0.1,0.1-0.2,0.1-0.3c0-0.3-0.1-0.6-0.2-0.9
					c-0.1-0.4-0.3-0.7-0.5-1L35.9,168.7z"/>
				<path class="st24" d="M17.9,174.5c0,0,2,0.4,3-0.1c0.9-0.5,0.4-0.4,0.4-0.4s-2.6,0.2-2.7,0.2C18.4,174.2,17.9,174.5,17.9,174.5z
					"/>
				<path class="st24" d="M34.7,33.8c0,0,0.8,0.9,1.1,1.2c0.2,0.2,0.5,0.6,0.5,0.6l0,0L36,35.8l-1.3-1.2L34.7,33.8z"/>
				<path class="st24" d="M46.5,22.8L46.5,22.8C46.5,22.7,46.5,22.7,46.5,22.8C46.5,22.7,46.5,22.7,46.5,22.8
					C46.4,22.7,46.5,22.7,46.5,22.8c-0.1-0.1-0.1-0.2,0-0.2c0-0.1,0.1-0.1,0.1-0.2c0.1-0.1,0.2-0.2,0.3-0.3c0.2-0.2,0.4-0.4,0.6-0.6
					c0.1-0.1,0.2-0.2,0.4-0.2c0.1-0.1,0.3-0.1,0.4-0.2c0.1,0,0.3-0.1,0.4-0.1l0.1,0l0,0l0,0l0,0l0,0l0,0l0.1,0l0.1,0l0.1,0
					c0.1,0,0.3,0,0.4,0.1c0.1,0,0.1,0,0.2,0.1l0.2,0.1c0.1,0,0.1,0.1,0.2,0.1l0.2,0.1c0.1,0.1,0.2,0.1,0.4,0.2
					c0.1,0.1,0.2,0.1,0.3,0.2c0.1,0,0.1,0.1,0.2,0.1c0.1,0,0.1,0.1,0.2,0.1c0.1,0.1,0.2,0.1,0.3,0.2c0.1,0.1,0.2,0.2,0.3,0.2
					l0.2,0.2l-0.3,0.2c-0.1,0.1-0.2,0.1-0.3,0.1c-0.1,0-0.2,0.1-0.3,0.1c-0.1,0-0.2,0.1-0.3,0.1c-0.1,0-0.2,0.1-0.3,0.1
					c-0.1,0-0.2,0-0.3,0.1c-0.1,0-0.2,0-0.3,0c-0.1,0-0.2,0-0.3,0l-0.3,0c-0.1,0-0.2,0-0.3,0l-0.2,0l-0.2,0c-0.1,0-0.2,0-0.3-0.1
					c-0.1,0-0.2-0.1-0.3-0.1c-0.1,0-0.2-0.1-0.3-0.1c-0.1,0-0.2-0.1-0.3-0.1c-0.1,0-0.2-0.1-0.3-0.1C46.7,22.8,46.6,22.8,46.5,22.8
					L46.5,22.8z M46.5,22.7c0.1,0,0.2,0,0.3,0.1c0.1,0,0.2,0,0.3,0c0.1,0,0.2,0,0.3,0c0.1,0,0.1,0,0.2,0l0.2,0c0.1,0,0.2,0,0.3,0
					c0.1,0,0.2,0,0.3,0c0.1,0,0.2,0,0.3,0l0.3,0c0.1,0,0.2,0,0.3,0c0.1,0,0.2,0,0.3,0c0.1,0,0.2,0,0.3,0l0.2,0l0.2,0l0.2,0l0.2,0
					c0.1,0,0.2,0,0.3-0.1c0.1,0,0.2,0,0.3-0.1c0.1,0,0.2,0,0.3-0.1l-0.1,0.3c-0.1-0.1-0.2-0.2-0.3-0.3c0,0-0.1-0.1-0.1-0.1
					c0,0-0.1-0.1-0.1-0.1c-0.2-0.2-0.4-0.3-0.6-0.5c-0.1-0.1-0.2-0.1-0.3-0.2c-0.1,0-0.1,0-0.2-0.1c-0.1,0-0.1,0-0.2,0l-0.2,0
					c-0.1,0-0.1,0-0.2,0c-0.1,0-0.3,0-0.4,0l-0.1,0l-0.1,0l-0.1,0l0,0l0,0l0,0l0,0c0,0,0,0,0,0l0,0l0,0c-0.1,0-0.2,0-0.3,0.1
					c-0.1,0-0.2,0.1-0.3,0.1c-0.1,0-0.2,0.1-0.3,0.1c-0.2,0.1-0.5,0.2-0.7,0.3c-0.1,0.1-0.2,0.2-0.3,0.2c0,0-0.1,0.1-0.1,0.2
					C46.5,22.6,46.5,22.6,46.5,22.7C46.5,22.7,46.5,22.7,46.5,22.7C46.5,22.7,46.5,22.7,46.5,22.7C46.5,22.7,46.5,22.7,46.5,22.7
					L46.5,22.7L46.5,22.7z"/>
				<path class="st24" d="M42.2,22.7L42.2,22.7C42.3,22.7,42.3,22.7,42.2,22.7C42.3,22.7,42.3,22.7,42.2,22.7
					C42.3,22.7,42.3,22.7,42.2,22.7c0-0.1,0-0.1,0-0.1c0-0.1-0.1-0.1-0.1-0.2c-0.1-0.1-0.2-0.2-0.3-0.2c-0.2-0.1-0.5-0.2-0.7-0.3
					c-0.1,0-0.2-0.1-0.3-0.1c-0.1,0-0.2-0.1-0.3-0.1c-0.1,0-0.2-0.1-0.3-0.1l0,0l0,0c0,0,0,0,0,0l0,0l0,0l0,0l0,0l-0.1,0l-0.1,0
					l-0.1,0c-0.1,0-0.2,0-0.4,0c-0.1,0-0.1,0-0.2,0l-0.2,0c-0.1,0-0.1,0-0.2,0c-0.1,0-0.1,0-0.2,0.1c-0.1,0-0.2,0.1-0.3,0.2
					c-0.2,0.1-0.4,0.3-0.6,0.5c0,0-0.1,0.1-0.1,0.1c0,0-0.1,0.1-0.1,0.1c-0.1,0.1-0.2,0.2-0.3,0.3l-0.1-0.3c0.1,0,0.2,0,0.3,0.1
					c0.1,0,0.2,0,0.3,0.1c0.1,0,0.2,0,0.3,0.1l0.2,0l0.2,0l0.2,0l0.2,0c0.1,0,0.2,0,0.3,0c0.1,0,0.2,0,0.3,0c0.1,0,0.2,0,0.3,0
					l0.3,0c0.1,0,0.2,0,0.3,0c0.1,0,0.2,0,0.3,0c0.1,0,0.2,0,0.3,0l0.2,0c0.1,0,0.1,0,0.2,0c0.1,0,0.2,0,0.3,0c0.1,0,0.2,0,0.3,0
					C42,22.7,42.1,22.7,42.2,22.7L42.2,22.7z M42.2,22.8c-0.1,0-0.2,0.1-0.3,0.1c-0.1,0-0.2,0.1-0.3,0.1c-0.1,0-0.2,0.1-0.3,0.1
					c-0.1,0-0.2,0.1-0.3,0.1c-0.1,0-0.2,0.1-0.3,0.1c-0.1,0-0.2,0-0.3,0.1l-0.2,0l-0.2,0c-0.1,0-0.2,0-0.3,0l-0.3,0
					c-0.1,0-0.2,0-0.3,0c-0.1,0-0.2,0-0.3,0c-0.1,0-0.2,0-0.3-0.1c-0.1,0-0.2,0-0.3-0.1c-0.1,0-0.2-0.1-0.3-0.1
					c-0.1,0-0.2-0.1-0.3-0.1c-0.1,0-0.2-0.1-0.3-0.1l-0.3-0.2l0.2-0.2c0.1-0.1,0.2-0.2,0.3-0.2c0.1-0.1,0.2-0.2,0.3-0.2
					c0.1,0,0.1-0.1,0.2-0.1c0.1,0,0.1-0.1,0.2-0.1c0.1-0.1,0.2-0.1,0.3-0.2c0.1-0.1,0.2-0.1,0.4-0.2l0.2-0.1c0.1,0,0.1,0,0.2-0.1
					l0.2-0.1c0.1,0,0.1,0,0.2-0.1c0.1,0,0.3-0.1,0.4-0.1l0.1,0l0.1,0l0.1,0l0,0l0,0l0,0l0,0l0,0l0.1,0c0.1,0,0.3,0,0.4,0.1
					c0.1,0,0.3,0.1,0.4,0.2c0.1,0.1,0.2,0.1,0.4,0.2c0.2,0.2,0.4,0.4,0.6,0.6c0.1,0.1,0.2,0.2,0.3,0.3c0,0.1,0.1,0.1,0.1,0.2
					c0,0,0,0.1,0,0.1C42.3,22.7,42.3,22.7,42.2,22.8C42.3,22.7,42.3,22.7,42.2,22.8C42.3,22.7,42.3,22.7,42.2,22.8L42.2,22.8
					L42.2,22.8z"/>
				<g class="st27">
					
						<image style="overflow:visible;" width="701" height="751" xlink:href="1E0AAB7E7CBCD26.png"  transform="matrix(0.24 0 0 0.24 -47.1676 53.3124)">
					</image>
					<g>
						<path class="st28" d="M60.7,156.5c-0.5-1.2-2-5.4-2-6.9l-3.5-2.2l-2.6-5.1l1.5-3.6c0,0,2.5-2.7,3.3-3.3s-0.1-3.3,1.9-5.2
							c0,0-1-2.9-1.2-4.2c0,0-3.3,0.2-4.4-2c-1-2.2-4.2-11-4.2-11s-3.2,1.5-4.8,0.9l-2-0.8l-5.3,4.1c0,0-2.1-0.2-2.5-0.3
							c-0.4-0.1-2.4,0.5-2.8-3.3c0,0-7,1.7-8.8,0.9c0,0-6.5,4.9-8.2,4.6c0,0-2,9.6-2.6,10.6c-0.6,1,0.4,4.1,0.5,5c0,0,1.3,0,2.2,1
							c0,0,1.9-1.9,3.3-1.8c0,0-0.8-0.4-2.8,0.3c0,0-1.8,0-1.9-2.1c-0.1-2.2,0.1-4,0.1-4.7c0-0.7,2.3-7.1,4.6-8.2s3.4-2.1,3.4-2.1
							l8.3-1.8c0,0,4.3,3.3,4.8,3.9l3.2-0.5l4.4-3.6c0,0,5-0.8,6.4,0.6c1.4,1.4,3.8,7.7,3.8,7.7s2,3.1,3.6,3.9
							c1.6,0.8,1.7,5.7-1.3,8.2c0,0-2.1,1.2-3.1,0.6c0,0-1,4.2-2,5.5c0,0,1.6,4.1,1.1,5.4c0,0,4.8,1,6,4c1.1,3,2.5,4.1,1.4,6.1
							s-3.2,4.7-3.2,4.7s1,1.4,1.5,3.1c0,0,2.4,0.9,3,3.1l1,5.4l0.6,0.7c0,0-0.5-6.3-0.7-7.5c-0.3-1.9-2.8-2.7-2.8-2.7
							s-1.1-1.4-0.7-2.1C57.6,161,60.7,156.5,60.7,156.5z"/>
					</g>
				</g>
				<g class="st27">
					
						<image style="overflow:visible;" width="734" height="689" xlink:href="1E0AAB7E7CBCD2A.png"  transform="matrix(0.24 0 0 0.24 -17.6476 102.0324)">
					</image>
					<g>
						<path class="st28" d="M49.3,177.2c0.8,0.8,3.5,3.6,4,4.8l3.6,0.6l3.8,3.1l0,3.4c0,0-1.1,3-1.4,3.8c-0.4,0.8,1.2,2.6,0.3,4.8
							c0,0,1.8,2,2.5,2.9c0,0,2.6-1.3,4.2,0.1c1.6,1.4,7.2,7.3,7.2,7.3s2-2.4,3.5-2.4l1.9-0.1l2.8-5.1c0,0,1.8-0.6,2.1-0.6
							c0.3,0,1.7-1.2,3.3,1.6c0,0,5-3.8,6.7-3.8c0,0,3.5-6.1,5-6.6c0,0-1.7-8.4-1.6-9.4c0.1-1-1.7-3.1-2.1-3.8c0,0-1,0.4-2.1,0
							c0,0-0.9,2.2-2,2.6c0,0,0.8,0,2.1-1.2c0,0,1.5-0.7,2.3,1c0.8,1.7,1.3,3.2,1.5,3.7c0.2,0.6,0.6,6.4-0.8,8.2
							c-1.4,1.8-2,2.9-2,2.9l-6,4.3c0,0-4.5-1.1-5.2-1.4l-2.4,1.5l-2.3,4.4c0,0-3.7,2.4-5.3,1.8c-1.6-0.6-5.7-4.8-5.7-4.8
							s-2.7-1.7-4.2-1.8c-1.5-0.1-3.4-3.9-1.8-6.9c0,0,1.3-1.7,2.3-1.5c0,0-0.7-3.7-0.3-5.1c0,0-2.7-2.7-2.8-3.9
							c0,0-4.2,0.9-6.2-1.1c-1.9-2-3.4-2.4-3.3-4.4c0.2-2,1-4.9,1-4.9s-1.3-0.8-2.3-2c0,0-2.2,0.2-3.5-1.4l-2.7-5.4l-1.4-0.6
							c0,0,3.3,6.6,3.9,7.5c0.9,1.4,3.2,1.2,3.2,1.2s1.3,0.7,1.3,1.4S49.3,177.2,49.3,177.2z"/>
					</g>
				</g>
				<g class="st27">
					
						<image style="overflow:visible;" width="615" height="680" xlink:href="1E0AAB7E7CBCD2D.png"  transform="matrix(0.24 0 0 0.24 -82.6876 73.4724)">
					</image>
					<g>
						<path class="st28" d="M0.7,164.6c-0.2-0.1-0.5-0.3-0.7-0.5c0-0.3,0.1-0.6,0.3-0.9c0.9-1.6,5-7.1,5-7.1s-2.4-1.8-2.7-3.2
							l-0.5-1.8l-5-2.4c0,0-0.8-1.6-0.9-1.9c-0.1-0.3-0.5-2.6,0.7-3.7l-1.4-1.9c0.3,2.2,0,5.5-0.2,7.3l1.1,1.4l4.2,2
							c0,0,2.8,3.4,2.6,4.9c-0.2,1.5-3.1,5.5-3.1,5.5s-0.3,0.7-0.5,1.6c-1.6-1.3-3.4-3-4.4-4.1l-1.8-0.1l-4.2,2c0,0-4.4-0.1-5.4-1.3
							c-1-1.2-2.2-5.9-2.2-5.9s-1.3-2.5-2.6-3.2c-1.2-0.8-0.7-4.3,2.2-5.6c0,0,1.9-0.6,2.7,0c0,0,1.4-2.8,2.5-3.7
							c0,0-0.8-3.1-0.2-3.9c0,0-5.2-2.5-5.8-4.8l0.5,2.6l2.8,2.2l0.6,3l-1.8,2.3c0,0-2.5,1.6-3.2,1.9c-0.7,0.3-0.4,2.3-2.3,3.5
							c0,0,0.4,2.2,0.5,3.2c0,0,2.9,0.3,3.5,2c0.6,1.7,2.1,8.4,2.1,8.4s3-0.7,4.2,0l1.6,0.8l5.1-2.2c0,0,1.8,0.4,2.1,0.5
							c0.3,0.1,2.3,1.3,2.4,2.9l1.2,0.1c-0.1,0.6-0.2,1.3-0.1,1.8c0.2,1.5-2.8,3.3-5.7,2c0,0-1.7-1.1-1.8-2.1c0,0-3.1,0.8-4.4,0.5
							c0,0-1.9,2.6-2.9,2.7c0,0,1.5,5.6,0.1,7.5l1.6-2.1l-0.1-3.6l1.9-2.4l2.9-0.2c0,0,2.8,0.9,3.6,1.2c0.7,0.3,2-1.2,4.2-0.5
							c0,0,1.4-1.8,2.1-2.4c0,0-0.9-1.3-1-2.6L0.7,164.6z"/>
					</g>
				</g>
				<g class="st27">
					
						<image style="overflow:visible;" width="698" height="743" xlink:href="1E0AAB7E7CBCD2E.png"  transform="matrix(0.24 0 0 0.24 20.9924 52.1124)">
					</image>
					<g>
						<path class="st28" d="M119.3,123.5l-1.8,1.6l-2.1,5.8c0,0-3.9,3.7-6,3.9l-2.2-1.1c0,0-1.1-2.1-1.2-2.5
							c-0.1-0.4-0.7-3.4,0.9-4.9l-1.8-2.5c0.3,2.9,0.1,7-0.2,9.4c-1.7-0.9-3.2-1.8-3.2-1.8s-3.5-1-5.4-0.6c-1.9,0.4-4.6-3.3-3.2-7.3
							c0,0,1.3-2.3,2.5-2.5c0,0-1.3-3.9-1.1-5.7c0,0-3.6-2.2-3.9-3.5c0,0-7.2,2.5-9.8,0.8l2.9,1.9l4.7-0.5l3.3,2.3l0.5,3.8
							c0,0-0.9,3.8-1.2,4.8c-0.4,1,1.8,2.5,1,5.4c0,0,2.4,1.6,3.4,2.5c0,0,3-2.4,5.1-1.3c1.1,0.5,3.5,2,5.6,3.3l0.3,0.4l1.3,0.6
							c1.5,0.9,2.5,1.6,2.5,1.6s0.1-0.1,0.2-0.3l1.5,0.7c0,0,3.6,4.5,3.4,6.5c-0.3,2-4.1,7.3-4.1,7.3s-1.3,3.4-1,5.3
							c0.3,1.9-3.7,4.3-7.5,2.6c0,0-2.2-1.5-2.3-2.7c0,0-4,1-5.8,0.7c0,0-2.4,3.4-3.8,3.6c0,0,1.9,7.4,0.1,9.9l2.1-2.7l-0.1-4.7
							l2.5-3.1l3.8-0.2c0,0,3.7,1.2,4.7,1.6c1,0.4,2.6-1.6,5.5-0.6c0,0,1.8-2.3,2.8-3.2c0,0-2.2-3.1-0.9-5.2c1.2-2,6.6-9.3,6.6-9.3
							s-3.2-2.4-3.6-4.2l-0.6-2.3l-2.4-1.2c0.8-0.9,1.8-2,2.8-2.3l2.3-0.8l2.7-6.7c0,0,2-1.3,2.4-1.4c0.4-0.2,3.4-0.9,5,0.5l2.4-2
							C125.9,123.6,121.6,123.6,119.3,123.5z"/>
					</g>
				</g>
			</g>
		</g>
	</g>
</g>
</svg>
