<?xml version="1.0" encoding="utf-8"?>
<!-- Generator: Adobe Illustrator 23.1.1, SVG Export Plug-In . SVG Version: 6.00 Build 0)  -->
<svg version="1.1" id="Capa_1" xmlns="http://www.w3.org/2000/svg" xmlns:xlink="http://www.w3.org/1999/xlink" x="0px" y="0px"
	 viewBox="0 0 94 80" style="enable-background:new 0 0 94 80;" xml:space="preserve">
<style type="text/css">
	.st0{fill:#1DCE58;}
	.st1{fill:#FFFFFF;}
	.st2{clip-path:url(#SVGID_2_);}
	.st3{fill:#6DBFA8;}
	.st4{fill:url(#SVGID_3_);}
	.st5{fill:url(#SVGID_4_);}
	.st6{fill:#58BBB0;}
	.st7{fill:#47B7AB;}
	.st8{fill:#51B9AC;}
	.st9{fill:#6EC1B2;}
	.st10{fill:#46B6A1;}
	.st11{fill:#43B6A3;}
	.st12{opacity:0.28;fill:#FFFFFF;}
	.st13{fill:#60BDAF;}
	.st14{fill:#62BDB1;}
	.st15{fill:#36B6B2;}
	.st16{fill:#65BEAF;}
	.st17{fill:#6ABFB1;}
	.st18{fill:#5FBDAF;}
	.st19{opacity:0.38;fill:#FFFFFF;}
	.st20{fill:#3CB7B8;}
	.st21{fill:#27B5BF;}
	.st22{fill:#1DB3B4;}
	.st23{fill:#09AAA6;}
	.st24{opacity:0.67;fill:#09AAA6;}
	.st25{opacity:0.66;fill:#3CB7B8;}
	.st26{fill:#00A48D;}
</style>
<g>
	<g>
		<g>
			<g>
				<g>
					<path class="st0" d="M79,11.1c-0.6-0.5-1.4-0.5-2,0c-0.5,0.6-0.5,1.4,0,2c1.3,1.3,2.5,2.7,3.7,4.1l-0.1,0.3L79.9,20l2.5,0.2
						l0.4,0c4.1,6.2,6.5,13.4,7,21l-0.6,0.5l-1.9,1.6l1.9,1.6l0.6,0.5c-0.3,7.3-2.3,14.3-6,20.4l-1,0.1L80.5,66l0.7,2.4l0.3,1
						c-1.3,1.8-2.8,3.5-4.4,5.1c-0.6,0.5-0.6,1.4,0,2c0.3,0.3,0.6,0.4,1,0.4c0.4,0,0.7-0.1,1-0.4c8.9-8.7,13.8-20.3,13.8-32.7
						C92.8,31.4,87.9,19.8,79,11.1z"/>
				</g>
				<g>
					<path class="st0" d="M17,11.2c-0.5-0.6-1.4-0.6-2,0C6.1,19.8,1.2,31.4,1.2,43.8c0,12.4,4.9,24,13.8,32.7c0.3,0.3,0.6,0.4,1,0.4
						c0.4,0,0.7-0.1,1-0.4c0.5-0.6,0.5-1.4,0-2c-1.6-1.6-3.1-3.3-4.5-5.1l0.3-1l0.7-2.4l-2.5-0.2l-0.9-0.1c-3.7-6.2-5.7-13.2-6-20.5
						l0.5-0.4l1.9-1.6l-1.9-1.6l-0.5-0.4c0.4-7.6,2.9-14.8,7-21.1l0.3,0L14,20l-0.7-2.4l-0.1-0.3c1.2-1.5,2.4-2.9,3.7-4.2
						C17.5,12.6,17.5,11.7,17,11.2z"/>
				</g>
			</g>
		</g>
	</g>
	<g>
		<g>
			<path class="st1" d="M47.4,79.5c-19.8,0-36-16.1-36-36s16.1-36,36-36s36,16.1,36,36S67.2,79.5,47.4,79.5z M47.4,8.6
				c-19.3,0-35,15.7-35,35c0,19.3,15.7,35,35,35c19.3,0,35-15.7,35-35C82.4,24.3,66.7,8.6,47.4,8.6z"/>
		</g>
	</g>
	<g>
		<defs>
			<path id="SVGID_1_" d="M82.4,43.6c0,19.2-15.7,34.8-35,34.8s-35-15.6-35-34.8c0-8.4,0.9-17.6,2.3-25.3C18-0.1,38.6,4.2,49.5,4.2
				c3.6,0,19.3,2.3,22.6,3.4C86.3,12,82.4,28,82.4,43.6z"/>
		</defs>
		<clipPath id="SVGID_2_">
			<use xlink:href="#SVGID_1_"  style="overflow:visible;"/>
		</clipPath>
		<g class="st2">
			<g>
				<path class="st3" d="M1.7,102.2c0,0-2.5-0.7-3.1-0.7s-0.4-0.4-0.6-0.5s0.2-4.3,0.1-4.8c0-0.5,0.4-0.6,0.7-1
					c0.3-0.3,0.3-1.5,0.3-1.5s2.4-0.6,2.8-1.6c0,0,10.5-1.1,14.7-4s6.7-4.9,8.6-5.5c0,0,2.9-28.3,3.3-29.3c0.4-1,0.8-3.4,4-4.5
					c0,0-0.3-1.4-0.3-2.2s-0.3-2.1-1.1-2.6s-1,0.1-1.9-0.3S28.8,43,27.9,43c-0.9-0.1-0.5,0.7-1.4,0.5c-1-0.1-1.8-1.2-1.6-3.2
					s0.9-1.7,1.6-3.7c0.7-2-0.1-4.7-0.4-5.1c0,0-3.6-1.2-3.9-3c-0.3-1.9,1.8-4,2.7-6.4c0,0,0.2-2.3,0.8-3.2c0.6-1,0.2-2.3,0.6-2.6
					c0.4-0.3,2.5-1.3,3-2.4l0.4-2.2l1.2-1c0,0,2.9-3.8,7.2-1.2c0,0,3.3,0.1,4.7-1.2c0,0,6.2,2.2,7.6,2.3c1.4,0.1,1.2,1.4,1.2,1.4
					s4.5,1.6,5.4,4.9c0.8,3.2,2.5,6.8,3.5,8.8s2.5,6.2,7.6,6.7s6.2,8.4,6.1,9.9c-0.1,1.5-1.1,4.1-3,4.8L80,64l4.6-2.1
					c0,0,5.6-4.3,7.2-9.3l-3.1-2.9c0,0-0.5-2.7-1.1-3.8c-0.6-1.2,0.7-2.1,0.7-2.1l0.1-1c0,0,2-3.2,2.7-3.6c0.7-0.4,1.2,0.1,1.7,0.6
					c0,0,0.3,0.1,0.8,0.1c0.6-0.1,1.2,0.8,1.2,0.8s0.2,0.8,1,0.8c0.8,0.1,1,0.4,1.4,1c0.4,0.5,0.3,0.7,1,0.8
					c0.6,0.1,0.8,0.8,0.8,1.3c-0.1,0.5,0.1,6.3,0.1,6.3s-0.1,1.4-1,2.3c0,0-3.3,11.1-8.8,17.9c0,0-3.2,3.6-6.8,5
					c0,0-1.7,0.8-2.2,1.4c-0.6,0.6-2.1-0.3-2.1-0.3s-3-4.7-4.5-6s-9.6-10.9-10.5-12.8c0,0-1.2,10.1-1.7,12.4C61,73,63,75.5,65,77
					c2.1,1.5,4.2,2.5,4.2,2.5s8.7,2.1,11.8,7.1c3.2,5,4.2,13.1,2.1,18c0,0-1.5,2.8-5.1,4.6l2.5,4.9c0,0,1.5,0.3,2.3,1.8
					c0.8,1.5,2.3,3.3,3.5,3.7s5,0.6,6.5,2.1c1.4,1.4,3.2,4.6,3.6,6.1c0.4,1.5,0.8,7.2,0.8,7.2s3.3,2.5,4.1,5.8
					c0.8,3.3,2.3,7.3,3.6,9.1s3.2,3.4,4.8,3.8c1.7,0.4,2.1,1.5,2.1,1.5s1.7,0.3,2.9,1c1.2,0.7,2.5,2,2.9,3.2c0.4,1.2-0.3,3.8,1.4,7
					c1.7,3.2,3.4,6.1,3.6,6.7s0.3,3.6-0.7,6.7c-1,3-2.5,4.9-2.5,4.9l-2.8,0.8c0,0-3.6-1.8-4.3-3.7c-0.6-1.9-0.8-3.9-0.8-3.9
					s-0.6-0.7-0.8-1.4c-0.1-0.7-1.2-2.7-1.3-2.9s-5-9.9-5-9.9s-0.8-0.3-0.8-0.8s-0.5-1.3-0.6-1.5c-0.1-0.2-5.7-7.4-7.6-9
					c-1.9-1.6-10.5-7.8-12.8-12c0,0-4.3-2.9-5.6-4.4l-11.9-9c0,0-5,1.9-6.9,2.2s-7.8-1.4-9.2-1.4c-1.4,0-4.1,0.3-5,0.5
					c-0.8,0.2-3.1-1.1-3.9-1.8s-2.2-5.2-3.1-7.6c-0.9-2.4,1.1-5.6,1.1-5.6s4.4-7.9,9.2-13.7c0,0-2.6-4.5-3.5-6.9
					c-0.9-2.5-3.9-9-4.7-10.3c-0.8-1.3-4.1-4.2-4.1-4.2s-3.5,10.4-3.9,11c-0.3,0.5-0.5,1.9-0.6,2.4c-0.1,0.5-1.5,0.8-2,1
					s-17.3,5.4-17.3,5.4s-0.3,0.5-0.5,0.9c-0.2,0.3-1.2,1.6-1.2,1.6s-4-0.3-4.6-0.1s-0.8,0.5-1.2,0.8s-1.2,0-1.2,0L1.7,102.2z"/>
			</g>
			<g>
				<g>
					<path class="st3" d="M1.7,102.2c0,0-2.5-0.7-3.1-0.7s-0.4-0.4-0.6-0.5s0.2-4.3,0.1-4.8c0-0.5,0.4-0.6,0.7-1
						c0.3-0.3,0.3-1.5,0.3-1.5s2.4-0.6,2.8-1.6c0,0,10.5-1.1,14.7-4s6.7-4.9,8.6-5.5c0,0,2.9-28.3,3.3-29.3c0.4-1,0.8-3.4,4-4.5
						c0,0-0.3-1.4-0.3-2.2s-0.3-2.1-1.1-2.6s-1,0.1-1.9-0.3S28.8,43,27.9,43c-0.9-0.1-0.5,0.7-1.4,0.5c-1-0.1-1.8-1.2-1.6-3.2
						s0.9-1.7,1.6-3.7c0.7-2-0.1-4.7-0.4-5.1c0,0-3.6-1.2-3.9-3c-0.3-1.9,1.8-4,2.7-6.4c0,0,0.2-2.3,0.8-3.2c0.6-1,0.2-2.3,0.6-2.6
						c0.4-0.3,2.5-1.3,3-2.4l0.4-2.2l1.2-1c0,0,2.9-3.8,7.2-1.2c0,0,3.3,0.1,4.7-1.2c0,0,6.2,2.2,7.6,2.3c1.4,0.1,1.2,1.4,1.2,1.4
						s4.5,1.6,5.4,4.9c0.8,3.2,2.5,6.8,3.5,8.8s2.5,6.2,7.6,6.7s6.2,8.4,6.1,9.9c-0.1,1.5-1.1,4.1-3,4.8L80,64l4.6-2.1
						c0,0,5.6-4.3,7.2-9.3l-3.1-2.9c0,0-0.5-2.7-1.1-3.8c-0.6-1.2,0.7-2.1,0.7-2.1l0.1-1c0,0,2-3.2,2.7-3.6c0.7-0.4,1.2,0.1,1.7,0.6
						c0,0,0.3,0.1,0.8,0.1c0.6-0.1,1.2,0.8,1.2,0.8s0.2,0.8,1,0.8c0.8,0.1,1,0.4,1.4,1c0.4,0.5,0.3,0.7,1,0.8
						c0.6,0.1,0.8,0.8,0.8,1.3c-0.1,0.5,0.1,6.3,0.1,6.3s-0.1,1.4-1,2.3c0,0-3.3,11.1-8.8,17.9c0,0-3.2,3.6-6.8,5
						c0,0-1.7,0.8-2.2,1.4c-0.6,0.6-2.1-0.3-2.1-0.3s-3-4.7-4.5-6s-9.6-10.9-10.5-12.8c0,0-1.2,10.1-1.7,12.4C61,73,63,75.5,65,77
						c2.1,1.5,4.2,2.5,4.2,2.5s8.7,2.1,11.8,7.1c3.2,5,4.2,13.1,2.1,18c0,0-1.5,2.8-5.1,4.6l2.5,4.9c0,0,1.5,0.3,2.3,1.8
						c0.8,1.5,2.3,3.3,3.5,3.7s5,0.6,6.5,2.1c1.4,1.4,3.2,4.6,3.6,6.1c0.4,1.5,0.8,7.2,0.8,7.2s3.3,2.5,4.1,5.8
						c0.8,3.3,2.3,7.3,3.6,9.1s3.2,3.4,4.8,3.8c1.7,0.4,2.1,1.5,2.1,1.5s1.7,0.3,2.9,1c1.2,0.7,2.5,2,2.9,3.2c0.4,1.2-0.3,3.8,1.4,7
						c1.7,3.2,3.4,6.1,3.6,6.7s0.3,3.6-0.7,6.7c-1,3-2.5,4.9-2.5,4.9l-2.8,0.8c0,0-3.6-1.8-4.3-3.7c-0.6-1.9-0.8-3.9-0.8-3.9
						s-0.6-0.7-0.8-1.4c-0.1-0.7-1.2-2.7-1.3-2.9s-5-9.9-5-9.9s-0.8-0.3-0.8-0.8s-0.5-1.3-0.6-1.5c-0.1-0.2-5.7-7.4-7.6-9
						c-1.9-1.6-10.5-7.8-12.8-12c0,0-4.3-2.9-5.6-4.4l-11.9-9c0,0-5,1.9-6.9,2.2s-7.8-1.4-9.2-1.4c-1.4,0-4.1,0.3-5,0.5
						c-0.8,0.2-3.1-1.1-3.9-1.8s-2.2-5.2-3.1-7.6c-0.9-2.4,1.1-5.6,1.1-5.6s4.4-7.9,9.2-13.7c0,0-2.6-4.5-3.5-6.9
						c-0.9-2.5-3.9-9-4.7-10.3c-0.8-1.3-4.1-4.2-4.1-4.2s-3.5,10.4-3.9,11c-0.3,0.5-0.5,1.9-0.6,2.4c-0.1,0.5-1.5,0.8-2,1
						s-17.3,5.4-17.3,5.4s-0.3,0.5-0.5,0.9c-0.2,0.3-1.2,1.6-1.2,1.6s-4-0.3-4.6-0.1s-0.8,0.5-1.2,0.8s-1.2,0-1.2,0L1.7,102.2z"/>
				</g>
			</g>
			<g>
				<linearGradient id="SVGID_3_" gradientUnits="userSpaceOnUse" x1="8.716" y1="32.7539" x2="140.0841" y2="164.122">
					<stop  offset="0" style="stop-color:#4EBED8"/>
					<stop  offset="4.987431e-02" style="stop-color:#55BECD"/>
					<stop  offset="0.1573" style="stop-color:#60BFBC"/>
					<stop  offset="0.2911" style="stop-color:#67BFB1"/>
					<stop  offset="0.4788" style="stop-color:#6CBFAA"/>
					<stop  offset="1" style="stop-color:#6DBFA8"/>
				</linearGradient>
				<path class="st4" d="M1.7,102.2c0,0-2.5-0.7-3.1-0.7s-0.4-0.4-0.6-0.5s0.2-4.3,0.1-4.8c0-0.5,0.4-0.6,0.7-1
					c0.3-0.3,0.3-1.5,0.3-1.5s2.4-0.6,2.8-1.6c0,0,10.5-1.1,14.7-4s6.7-4.9,8.6-5.5c0,0,2.9-28.3,3.3-29.3c0.4-1,0.8-3.4,4-4.5
					c0,0-0.3-1.4-0.3-2.2s-0.3-2.1-1.1-2.6s-1,0.1-1.9-0.3S28.8,43,27.9,43c-0.9-0.1-0.5,0.7-1.4,0.5c-1-0.1-1.8-1.2-1.6-3.2
					s0.9-1.7,1.6-3.7c0.7-2-0.1-4.7-0.4-5.1c0,0-3.6-1.2-3.9-3c-0.3-1.9,1.8-4,2.7-6.4c0,0,0.2-2.3,0.8-3.2c0.6-1,0.2-2.3,0.6-2.6
					c0.4-0.3,2.5-1.3,3-2.4l0.4-2.2l1.2-1c0,0,2.9-3.8,7.2-1.2c0,0,3.3,0.1,4.7-1.2c0,0,6.2,2.2,7.6,2.3c1.4,0.1,1.2,1.4,1.2,1.4
					s4.5,1.6,5.4,4.9c0.8,3.2,2.5,6.8,3.5,8.8s2.5,6.2,7.6,6.7s6.2,8.4,6.1,9.9c-0.1,1.5-1.1,4.1-3,4.8L80,64l4.6-2.1
					c0,0,5.6-4.3,7.2-9.3l-3.1-2.9c0,0-0.5-2.7-1.1-3.8c-0.6-1.2,0.7-2.1,0.7-2.1l0.1-1c0,0,2-3.2,2.7-3.6c0.7-0.4,1.2,0.1,1.7,0.6
					c0,0,0.3,0.1,0.8,0.1c0.6-0.1,1.2,0.8,1.2,0.8s0.2,0.8,1,0.8c0.8,0.1,1,0.4,1.4,1c0.4,0.5,0.3,0.7,1,0.8
					c0.6,0.1,0.8,0.8,0.8,1.3c-0.1,0.5,0.1,6.3,0.1,6.3s-0.1,1.4-1,2.3c0,0-3.3,11.1-8.8,17.9c0,0-3.2,3.6-6.8,5
					c0,0-1.7,0.8-2.2,1.4c-0.6,0.6-2.1-0.3-2.1-0.3s-3-4.7-4.5-6s-9.6-10.9-10.5-12.8c0,0-1.2,10.1-1.7,12.4C61,73,63,75.5,65,77
					c2.1,1.5,4.2,2.5,4.2,2.5s8.7,2.1,11.8,7.1c3.2,5,4.2,13.1,2.1,18c0,0-1.5,2.8-5.1,4.6l2.5,4.9c0,0,1.5,0.3,2.3,1.8
					c0.8,1.5,2.3,3.3,3.5,3.7s5,0.6,6.5,2.1c1.4,1.4,3.2,4.6,3.6,6.1c0.4,1.5,0.8,7.2,0.8,7.2s3.3,2.5,4.1,5.8
					c0.8,3.3,2.3,7.3,3.6,9.1s3.2,3.4,4.8,3.8c1.7,0.4,2.1,1.5,2.1,1.5s1.7,0.3,2.9,1c1.2,0.7,2.5,2,2.9,3.2c0.4,1.2-0.3,3.8,1.4,7
					c1.7,3.2,3.4,6.1,3.6,6.7s0.3,3.6-0.7,6.7c-1,3-2.5,4.9-2.5,4.9l-2.8,0.8c0,0-3.6-1.8-4.3-3.7c-0.6-1.9-0.8-3.9-0.8-3.9
					s-0.6-0.7-0.8-1.4c-0.1-0.7-1.2-2.7-1.3-2.9s-5-9.9-5-9.9s-0.8-0.3-0.8-0.8s-0.5-1.3-0.6-1.5c-0.1-0.2-5.7-7.4-7.6-9
					c-1.9-1.6-10.5-7.8-12.8-12c0,0-4.3-2.9-5.6-4.4l-11.9-9c0,0-5,1.9-6.9,2.2s-7.8-1.4-9.2-1.4c-1.4,0-4.1,0.3-5,0.5
					c-0.8,0.2-3.1-1.1-3.9-1.8s-2.2-5.2-3.1-7.6c-0.9-2.4,1.1-5.6,1.1-5.6s4.4-7.9,9.2-13.7c0,0-2.6-4.5-3.5-6.9
					c-0.9-2.5-3.9-9-4.7-10.3c-0.8-1.3-4.1-4.2-4.1-4.2s-3.5,10.4-3.9,11c-0.3,0.5-0.5,1.9-0.6,2.4c-0.1,0.5-1.5,0.8-2,1
					s-17.3,5.4-17.3,5.4s-0.3,0.5-0.5,0.9c-0.2,0.3-1.2,1.6-1.2,1.6s-4-0.3-4.6-0.1s-0.8,0.5-1.2,0.8s-1.2,0-1.2,0L1.7,102.2z"/>
			</g>
			<path class="st1" d="M41,28.8c0,0,0.1-1.3,0.6-1.6s1.8-0.7,1.8-0.7l1,0.2c0,0,0.2,0.6,0,0.8c-0.2,0.2-0.3,0.9-0.6,1.1
				C43.4,28.6,41.8,29.1,41,28.8z"/>
			<path class="st1" d="M32.9,30.6c0,0,0.6,1.9,1.9,1.3s1.3-1.4,1.3-1.4S34.4,29.3,32.9,30.6z"/>
			<linearGradient id="SVGID_4_" gradientUnits="userSpaceOnUse" x1="52.3546" y1="57.3821" x2="69.7166" y2="87.4539">
				<stop  offset="0" style="stop-color:#58BBB0"/>
				<stop  offset="0.5365" style="stop-color:#62BDAC"/>
				<stop  offset="0.9598" style="stop-color:#6DBFA8"/>
			</linearGradient>
			<path class="st5" d="M48.8,68.5c0,0,4.6,4.2,5,6.6c0.4,2.4,1.5,6.2,4,7.3c2.1,0.9,3.6,4.5,3.6,4.5l1.6,2.7c0,0,2.4-0.7,4.4-0.7
				c0,0-4.2-4-5.5-7c-1.3-2.9,7.5-2.2,7.5-2.2s-8.9-3.8-8.1-8.6l1.5-9l0.2-4l-2.7-4.7l-2.5,0.8c0,0,1.5,9.7-4.7,12.3L48.8,68.5z"/>
			<path class="st6" d="M37.3,79.8c0,0-2.2-4.9-0.3-7.1s3.3-4.1,7.4-4.1s11,1.9,12.9-3.6s2.2-4.5,2.2-4.5l2.5,5.9l0.8-8.2l-3.6-5.8
				c0,0-1.7,0.8-1.6,1.9c0.1,1.2,1,6.7-1.9,10.3c-3,3.6-7.4,2.7-7.4,2.7S44,66.6,43,67c-1,0.3-2.3,0.7-2.9,1.1
				c-3.8,2.7-7.2,3.5-7.7,3.6c-0.5,0.1-2.4,0.5-2.4,0.5s1.1,0.4,1.9,1.4c1.5,1.6,3.1,4.3,3.9,5.1L37.3,79.8z"/>
			<path class="st7" d="M57.7,59.4c0.2-0.5,1.7-5.3,3.1-4.8l-1.6-2.3c0,0-2,0.1-1.6,1.9C58.1,56.1,57.7,59.4,57.7,59.4z"/>
			<path class="st7" d="M58.3,57.3c0,0,1.2-2.9,4.1,0l-2.2-3.8L58.3,57.3z"/>
			<path class="st8" d="M57.7,54.3c0,0,0.6-3.8,2.1-4.1c1.5-0.3,2.7,4,3.2,5.1c0.6,1.3,3.6,5,5,6.8c0.7,0.9,8.2,8.6,9.3,10.8
				c1.1,2.2,1.4,3.7,2.9,3.2c1.5-0.5,9.2-5.6,13.6-14.5c0,0,2.6-5.4,2.6-7.3c0,0-1.7-0.4-2.3-1s-1.8,0-1.8,0l-3.6-3.3
				c0,0-0.8-3.3-1.2-4.1c-0.4-0.8,0-1.6,0.4-1.8c0.4-0.1,0.4-0.8,0.6-1.4c0.1-0.5,2.5-3.3,2.5-3.3s0.3-0.3,1.1,0.1
				c0.8,0.4,1.4,0,1.9,0.4s0.7,1.5,1.2,1.5s1.1,0,1.5,0.5c0.4,0.5,0.7,1.2,1.4,1.4s0.7,0.8,0.7,1.6c0,0.8,0.1,5.1,0.1,5.1
				s-0.1,2.2-1,2.9l-1,3.2c0,0-4.3,11.5-8.7,15.9c0,0-3.7,2.6-5.6,3.7s-2.9,1.9-2.9,1.9L78,77.2c0,0-1.8-3.4-3-4.7
				c-1.2-1.2-5.6-6.2-5.6-6.2S64,60,62.4,57.3c-1.6-2.7-3.1-4.9-3.1-4.9S57.5,53,57.7,54.3z"/>
			<path class="st8" d="M92.3,53.2c0,0-0.4,1.1-1.2,2.7c-1.2,2.3-3.7,5.2-7.2,7.5c-4.8,3.1-4.8,7.1-4.8,7.1s-1.4,4.4,4.4,3.8
				l-3.7,3.3L75,72.5c0,0-0.8-2.2,1.1-3.6s2.3-3.3,2.6-3.7c0.3-0.4,1.7-1.6,1.7-1.6s3.9-1,5.6-2.9l2.5-2.4l2-2.8l1.4-3.4L92.3,53.2z
				"/>
			<path class="st9" d="M92.5,52c0,0,0.6-1.2,0.6-1.9s-0.6-1.6-0.9-1.7c-0.3-0.1-1.2-1.1-1.2-1.1L90,46.6c0,0-1.7-0.2-1.9,0
				s1.8,1.6,2.1,2.3C90.4,49.5,92.5,52,92.5,52z"/>
			<path class="st10" d="M91.9,52.7c0,0,1-1.1,0.9-1.7c-0.1-0.4-0.9-0.6-1.4-0.9c-0.5-0.3-0.6-0.2-1-1c-0.4-0.8-1.3-2.5-2.4-2.5
				c0,0,0.5,2.1,0.9,2.9C89.3,50.3,91.1,51.8,91.9,52.7z"/>
			<path class="st11" d="M88,46.6c-0.3-0.4-0.9-1.7-0.4-1.6s2.9,0.7,3.2,0.8c0.3,0.1,0.6,0.2,1,0c0.4-0.1,1,0.2,0.7,0.6
				c-0.2,0.4-0.8,0.8-1.4,0.5C89.3,46.3,88,46.6,88,46.6z"/>
			<path class="st9" d="M94.5,50.2c0,0,1.1,1.9,1.9,2.1s1.7-0.3,1.7-1s-0.1-3.4-0.1-4c0.1-0.5-0.1-0.8-0.5-0.8l-0.8,0.7
				c0,0-0.1,3.3-1.1,3.2c0,0-0.5-0.1-0.7-0.6C95,49.8,95.1,50.2,94.5,50.2z"/>
			<path class="st9" d="M96.6,47.3c0,0-0.1-1-1-1.3c-0.8-0.3-0.6-0.2-0.9-0.4c-0.3-0.3-2.2-0.4-2.4-1.1c0,0-1.7-0.2-1.7-0.9
				c0,0-2.4-0.3-2.1-1c0.3-0.7,2.5-3.3,2.5-3.3s0.3-0.6,1.1,0.1c0.8,0.7,1.9,0.4,1.9,0.4s0.2,1,0.7,1.5c0.5,0.6,0.8,0.1,1.4,0.5
				s0.5,0.3,0.8,1c0.3,0.6,0.5,0.6,0.5,0.6s1.2,0.2,1.2,0.7S98,46,97.6,46.5C96.8,47.1,96.6,47.3,96.6,47.3z"/>
			<path class="st12" d="M46.1,118.7c-0.6-1.8-1.7-6.5,6.6-17.7s14.6-12.1,14.6-12.1S42.4,96,39.9,116.9c0,0-0.6,1.8,0,2.7
				C40.4,120.4,46.1,118.7,46.1,118.7z"/>
			<path class="st13" d="M78.7,65.3c0,0-3.7-7.5-5.2-10.2s-6.2-11.9-8.2-14.2c-2.9-3.4-7.2-3-7.2-3l0,0c0,0,2.2-0.9,4.6-0.2
				c2.4,0.7,5,2.9,5.5,4c0.6,1.1,3.5,5.9,3.5,5.9l5.9,11.7l2.6,4.5L78.7,65.3z"/>
			<path class="st7" d="M38.5,40.6c0,0,7.2,3.4,9.5,3.7c0,0,0.8,0.2,1.6,0.1c0.6-0.1,2.5,4.2,4.6-0.3l1-2.1c0,0,5,6.3,10.5,7.3
				c5.5,1,7.3,0.5,7.3,0.5s-8.5-0.8-10.7-3.3c0,0-6.5-2.7-7.6-6.3c0,0-1.2,4.3-4.1,2.7c-2.9-1.5-2.8-5.4-2.8-5.4l-2.9,3
				C44.9,40.7,43.3,42.3,38.5,40.6z"/>
			<path class="st14" d="M37.3,79.8c0,0,2.8,1.7,3.9,2.5s4.4,8,4.4,8l5,6.8L49.3,98c0,0-2.4-3.7-3.3-4.4c-0.9-0.7,2,4.9,2,4.9
				l-0.7,1.3l-2-4.4l-3.9-9.1C41.4,86.3,38.7,81.2,37.3,79.8z"/>
			<path class="st15" d="M51.7,90c-0.6,0.4-1.4-2.2-1.5-2.6C50,87,52.3,89.5,51.7,90z"/>
			<path class="st7" d="M26.4,72.6l9.5,6.1L34.6,77c0,0-1.9-3-2.5-3.8c0,0-5-1.3-5.4-4.8L26.4,72.6z"/>
			<path class="st6" d="M56.8,63c0,0-7.2,3.3-14.7,1.6c0,0-3.9-0.5-6.7,2.1c-2.2,2.2-6.3,4.9-8.4-0.4c0,0-0.3,3.7,1.3,4.8
				s2.6,3.1,6.4,0.9s6.4-3.8,6.4-3.8s3.2-1.3,7.1-0.9C54.5,67.9,56.8,63,56.8,63z"/>
			<path class="st6" d="M49.5,64.9c0,0,8.1-0.9,8.3-10.6c0,0,1.2,6.3-1.9,10.3c-3.1,4-7,1.4-7,1.4L49.5,64.9z"/>
			<path class="st13" d="M51.9,117.1c0,0,0.6-3.8,5-6.9s10.7-4.3,17.1-7.1c6.1-2.7,11-3.6,9.1-12.3c0,0,5.5,12.6-5.2,18.4
				c0,0-8,3.6-11.6,4.1l-3.6,0.8C62.6,114.1,55.2,111.1,51.9,117.1z"/>
			<path class="st16" d="M69.1,88.7c0,0-17.4,4.8-24.2,19.8c0,0-2.8,5.3-3.1,7.5c-0.4,2.2-0.4,4,0.9,3.1c1.3-0.9,1.8-3.1,2.8-2.2
				s2.4,8.4,5,8.6c2.6,0.2,6.1,1.1,7.2,1.6c1.1,0.5,12.3-4.8,20.4,0.9c0,0-8.3-3.7-16.5,0.4c0,0-6.1,1.6-9.5-0.4
				c0,0-6.1-0.5-6.6,0.2c0,0-3.7-0.9-4.8-1.6c-1.1-0.7-2.9-7.3-2.9-7.3s-1.1-2.6,0.2-4.4c1.3-1.8,5.3-8.8,6.4-10.2s2.4-3.5,3.1-4.8
				C48,98.5,58.3,89.4,69.1,88.7z"/>
			<path class="st9" d="M45.5,124.2c-1.7-1.4-2.9-3.1-3.3-2.9s0.2,3.8,0.9,4.2C43.8,125.8,46.4,124.9,45.5,124.2z"/>
			<path class="st17" d="M69.5,125.9c0,0,5-0.3,7.7,0.3c2.8,0.5,4.4,2.2,4.1-0.5c-0.3-2.7-3-4.9-1.1-4.9s4.7,4,6.9,5.2
				c3,1.6,4.4,2.2,5.2,3.8c0.8,1.6,2.2-4.1,3.9-1.9l1.1,7.4l-2.8,1.1c0,0-3.3-3-4.7-3.6S77.9,128,77.9,128S72,125.1,69.5,125.9z"/>
			<path class="st16" d="M70.2,117.8L72,118c0,0,1.3,0.9,2,1c0.7,0.1,1.6-0.4,1.9,1.1c0,0,0.3,1.3-1.3,0.3s-3.6-1.7-3.6-1.7
				S69.3,117.9,70.2,117.8z"/>
			<path class="st16" d="M51.9,117.1c0,0,3-2.6,7-2.6c4.6,0,12.1,4.2,12.1,4.2l-0.9-1c0,0-6.3-2.4-7.5-3.7
				C62.6,114.1,55.6,111.1,51.9,117.1z"/>
			<path class="st16" d="M72.8,119c0,0,1.9-1.8,3-2.3c1.1-0.5,5.4-1.9,6.5-1c0,0-1.4-1.6-1.9-1.6s-5.4,1-5.4,1l-3,3L72.8,119z"/>
			<path class="st18" d="M70.4,112.3l2.6,4.2c0,0-1.1,2-3.9,0.9s-6.5-3.3-6.5-3.3L70.4,112.3z"/>
			<path class="st16" d="M119,178.5c-0.6-0.7-0.4-3.3-1.1-4.2c-0.7-0.9-7.4-8.1-8-10c-0.6-1.8,0.5-3.3-1.5-4.2
				c-2-0.9-3.5-1.3-6.1-5.9c-2.6-4.6-11.2-12.5-13.3-14.9c-0.7-0.8-1.3-1.6-1.8-2.3c-0.2-0.3-0.7-0.3-0.8,0.1
				c-0.4,1.1-0.8,2.4-1.1,1.8c-0.5-0.9-1.3-2.3-1.6-3.7c-0.1-0.4,0-1.6,0-1.8c0.1-0.4-0.1-0.9-0.4-1.2l-3.1-3.2
				c-9.5-3.8-14.7-1.8-14.7-1.8l11,8.6l5.7,4.6l3.5,4.2c0,0,7.2,6.6,9.9,8c2.8,1.5,7.5,8.4,7.5,8.4l0.7,2.2l2.2,2.6l4,8.4l1.3,3.7
				c0,0,1.3,2.7,1.7,4.2c0.4,1.5,2.2,2.7,2.2,2.7l2.6-0.7c0,0,0.2,0,0.9-0.9C119.6,182.1,119.6,179.2,119,178.5z"/>
			<path class="st18" d="M67.7,114.6c0.6-0.1,8.6-3.7,10.6-4.8l-0.5-0.7L67.2,113L67.7,114.6z"/>
			<path class="st12" d="M31.4,51.7c0.6-1.6,1.7-2.5,1-2.7c-0.7-0.1-2.5,1.3-2.7,2.2c-0.2,0.9-0.9,2.2-0.2,2.4
				C30.2,53.8,31.1,52.6,31.4,51.7z"/>
			<path class="st12" d="M64.6,41.8c0,0.9-1,1.1-1.6,0.4c-0.4-0.5-1.9-1.2-3.1-2.2c-0.7-0.5,0.4-1,1.3-1
				C62.2,38.9,64.6,40.9,64.6,41.8z"/>
			<path class="st19" d="M93.7,138.6c1.5,2.3,2.4,4.2,2,4.6c-0.4,0.3-1.7-1.2-3.5-3.3c-1.8-2.1-3.1-3-2.5-4.5
				C90.2,134.2,92,136,93.7,138.6z"/>
			<path class="st12" d="M71,99.4c-2.1,0.8-3.7,1.2-3.9,0.9s1.2-1.2,3.1-2.2c1.9-1.1,2.8-2,3.9-1.2C75,97.4,73.4,98.5,71,99.4z"/>
			<path class="st7" d="M32.8,75.9c0,0-1.3,9.1-2.3,12.8c0,0-0.7,2.3-5,3.3l-13.8,4.4c0,0,0.2,1.1,0,1.5l18.7-5.8
				c0,0,0.3-1.1,0.6-2.1c0.3-1,1.1-2.2,1.1-2.2l3.2-9.7L32.8,75.9z"/>
			<path class="st12" d="M31.5,37.8c0,0,2,3.8,8.6,5.5l0.8,1c0,0-6.1,0.6-9.6-5.4L31.5,37.8z"/>
			<path class="st20" d="M41,44.3c0,0-10.9-0.8-9.5-6.5c0,0,0.7-3.8,0.6-5.1c0,0,1.8,2.7,2.6,3.8c0.7,1.1,3.9,4,3.9,4L41,44.3z"/>
			<path class="st21" d="M30.3,26.5c0,0-0.4-2,0.3-4l9.4-3.7c0,0,1.7,1.1,2.4,2.7L30.3,26.5z"/>
			<path class="st20" d="M31.5,21.9c0,0-0.6,4.4,1.4,8.7c0.2,0.4,1.3,5.3,1.3,5.3l-2.2-3.8l-1.9-6.9l0.4-2.7L31.5,21.9z"/>
			<path class="st15" d="M30.5,22.5c0,0,0.7-1.5,1.2-1.4c0.5,0,0.9,0.5,0.9,0.5L30.5,22.5z"/>
			<path class="st15" d="M38.4,19.2l0.4-1.2c0,0,0.9,0.4,1.1,0.7L38.4,19.2z"/>
			<path class="st22" d="M32.1,32.1l-0.3,3.2c0,0,2.2,1.5,3,1.8L32.1,32.1z"/>
			<path class="st20" d="M47.7,37.7c0,0-0.7-3.4-1-5.1c-0.5-2.5-2.3-6-2.3-6l-2.9-4.7l0.8-0.3c0,0,3.7,5.4,4.1,6.4
				c0,0-0.3-3.2-1.4-5.6c0,0,1.2,1,1.5,2.1c0.3,1.1,1.2,3.8,1.2,4.3s0.5,3.4,0.3,4.1C48,33.6,47.7,37.7,47.7,37.7z"/>
			<path class="st23" d="M41.5,21.8l-2.1-3l0.6-0.1c0,0,1.6,0.8,2.4,2.7L41.5,21.8z"/>
			<path class="st24" d="M58.1,37.8l0.1-5.2c0,0,0.9,1.4,3.4,2.3c2.8,1,4.3,1.6,7.7,0.8c0,0,2.6,0.7,3.9,5.4c0,0,1,3.2-1.7,5.8
				c0,0-2.1-5.8-8-8.9c-0.5-0.3-2.9-0.5-3.5-0.5L58.1,37.8z"/>
			<path class="st25" d="M50.5,40.8c0,0-0.6-2.9,0.1-4c0.7-1.1,1.4-2.1,2.3-3.3c1-1.2,1.5-1.8,1.7-3.4c0.1-1.6-0.1-3.6-0.1-3.6
				s1.4,1.1,1.4,2.6c0,1.5,0.8,4.7,0.3,6.2c-0.6,1.5-1,2.6-1,2.6s-0.6-0.1-1.8,2.1C53.4,40,51.3,41.4,50.5,40.8z"/>
			<path class="st24" d="M50.5,40.8c0-0.7-0.3-1.8,1.8-3.3c2.1-1.5,4-3.4,3.9-5.5c0,0-0.3-3.4-1.7-5.5c0,0,0.7,5.2-1.5,7
				c0,0-2.1,2.1-2.3,3.3C50.4,38.1,50.5,40.8,50.5,40.8z"/>
			<path class="st23" d="M30.3,26.5l1.3-0.6l-0.1-3.7l-0.9,0.3C30.5,22.5,29.7,24.5,30.3,26.5z"/>
			<path class="st15" d="M32.6,21.8c0,0-2.5-4.2-2.5-7.8c0,0,0.2,3.9,3.4,7.4L32.6,21.8z"/>
			<path class="st15" d="M38.3,19.3c0,0-0.4-1.1,0.4-4.6c0,0-0.5,2.5,0,4L38.3,19.3z"/>
			<path class="st11" d="M88.8,46.8c-0.1-0.1-0.3-0.2,0-0.3c0.3-0.1,0.5-0.3,0.2-0.4c-0.3-0.1-0.7,0-0.8,0c-0.1,0.1-0.4,0.2-0.2,0.5
				S88.8,46.8,88.8,46.8z"/>
			<path class="st7" d="M7.2,98.2c0,0,1.3,0.1,1.5-1.1c0,0-0.6,0.7-1-0.2c-0.4-0.9-1-1.5-1-0.9c0,0.6,0,0.6-0.4,0s-0.8-1.6-0.8-1.6
				s0.1,1.1-0.3,1.8c-0.3,0.5-1,0.7-0.7,0.8c0.3,0.1,1.3,1.2,1.3,1.2L7.2,98.2z"/>
			<path class="st26" d="M6.5,98.2c0,0-1-1.1-1.1-1.1s0.5-0.8,0.5-0.8s0.4,0.3,0.9,0.8s0.6,1,0.6,1L6.5,98.2z"/>
			<path class="st7" d="M2.7,100.9c0,0,1.3,0.1,1.3-0.2c0-0.3-1.2-1.5-1.2-1.5s-0.7-0.6-0.6-1.4c0-0.4,0.4-3.1,0.5-3.6
				s0.1,1.1,0,1.7s-0.3,2-0.1,2.2c0.2,0.2,0.3,0.7,0.8,1c0.5,0.4,1.4,1.2,1.4,1.2l0.1,0.3c0,0-0.8,0.9-2,0.5L2.7,100.9z"/>
			<path class="st7" d="M1.1,94.8c0,0-0.4,2.8-0.4,3.8c0,0.2-0.1,0.8,0.1,1.2c0.2,0.3,1.3,1.3,1.3,1.3s0.3,0.1-0.5,0.8l0.1,0.3
				l1.3-1.1l-1.7-1.7c0,0-0.1-1.5-0.1-1.6S1.1,94.8,1.1,94.8z"/>
			<path class="st7" d="M0.3,101.8c0,0-0.5-0.4-0.9-0.8c-0.4-0.4-0.6-0.7-0.6-1c0-0.3,0.4-4.9,0.4-5.1s0.1,0.7,0.1,0.7
				s0.2,4.1,0.2,4.2c0,0.1-0.2,0.4,0.2,0.7c0.4,0.3,0.7,0.5,0.8,0.6s1.1,1.1,1.1,1.1L0.3,101.8z"/>
			<path class="st7" d="M4.8,100.2c0,0,0.4-0.3,1.1-0.5c0.5-0.1,3.1,0.1,3.3,0c0.2,0,2-1.9,2-1.9s0.5-0.5,0.7-0.9l0,0.9l-1.7,2.5
				c0,0-3.9-0.3-4.3-0.2s-0.9,0.4-0.9,0.4L4.8,100.2z"/>
			<path class="st7" d="M58.3,39.8c0-0.2,1.6-1.8,5.3-1.8c0,0-3.2-1.1-5.4-0.2L58.3,39.8z"/>
			<path class="st7" d="M50.5,40.8c0,0,1.1,0.5,2.9-0.8c0,0-1.7,2.7-2.4,2.2C50.2,41.7,50.5,40.8,50.5,40.8z"/>
			<polygon class="st1" points="41.8,50.5 40.7,52.4 41.5,52.2 41,53.6 42.2,51.6 41.4,51.8 			"/>
			<g>
				<path class="st1" d="M39.2,58.6l2.8-0.7c0.1-0.2,0.1-0.5,0.2-0.7l-3.1,0.7L39.2,58.6z"/>
				<path class="st1" d="M39.2,57.6l3.2-0.8c0.1-0.2,0.1-0.5,0.2-0.7L39.1,57L39.2,57.6z"/>
				<path class="st1" d="M39.3,59.6l2.5-0.6c0.1-0.2,0.1-0.5,0.2-0.7l-2.7,0.6L39.3,59.6z"/>
				<path class="st1" d="M42.9,54.8c0.2-0.5,0.3-0.9,0.3-0.9L39,55l0,0.8L42.9,54.8z"/>
				<path class="st1" d="M39.1,56.7l3.5-0.8c0.1-0.3,0.1-0.5,0.2-0.7L39.1,56L39.1,56.7z"/>
				<path class="st1" d="M39.3,59.8l0,0.9c0.3,0,2-0.5,2-0.5c0-0.1,0.1-0.5,0.3-1L39.3,59.8z"/>
			</g>
			<path class="st15" d="M63.1,58.3c-0.7-1-1.4-2-2-3c-0.6-1-1.3-2-1.9-3l0.5,0.2c-0.5,0.2-1,0.6-1.3,1c-0.2,0.2-0.3,0.4-0.3,0.6
				c0,0.3,0,0.6,0,0.9c0,1.2,0,2.5,0,3.7c-0.1,1.2-0.2,2.5-0.6,3.7c-0.2,0.6-0.4,1.2-0.7,1.7c-0.3,0.6-0.7,1.1-1.2,1.5
				c-0.5,0.4-1,0.8-1.6,1.1c-0.3,0.1-0.6,0.3-0.9,0.4c-0.3,0.1-0.6,0.2-0.9,0.3l-0.9,0.2l-0.9,0.1l-0.9,0.1c-0.3,0-0.6,0-0.9,0
				c-1.3-0.1-2.5-0.2-3.7-0.4c-1.2-0.1-2.4-0.1-3.5,0.4l0-0.1l0.4-0.2l0.2-0.1l0.2-0.1c0.1-0.1,0.3-0.1,0.4-0.2l0.5-0.1
				c0.2,0,0.3-0.1,0.5-0.1c0.2,0,0.3,0,0.5-0.1c0.3,0,0.6,0,0.9,0c1.2,0,2.5,0.1,3.7,0.1l0.9,0l0.9-0.1l0.9-0.1l0.9-0.2
				c0.3-0.1,0.6-0.2,0.8-0.3c0.3-0.1,0.5-0.2,0.8-0.3c0.5-0.2,1-0.5,1.5-0.9c0.9-0.7,1.6-1.7,2-2.8c0.5-1.1,0.7-2.3,0.7-3.5
				c0.1-1.2-0.1-2.4-0.2-3.6c0-0.3-0.1-0.6-0.1-0.9c0-0.4,0.1-0.8,0.3-1.1c0.2-0.3,0.5-0.5,0.7-0.7c0.3-0.2,0.5-0.4,0.9-0.5l0.3-0.1
				l0.2,0.3c0.6,1,1.2,2.1,1.7,3.1c0.6,1.1,1.4,2.5,1.4,2.5L63.1,58.3z"/>
			<path class="st15" d="M70.9,47.4c-0.4-0.9-0.8-1.9-1.3-2.8c-0.5-0.9-1-1.8-1.6-2.6c-0.6-0.8-1.3-1.6-2.1-2.3
				c-0.8-0.7-1.7-1.2-2.7-1.5l0,0l0,0c-0.4-0.2-0.8-0.3-1.2-0.4c-0.4-0.1-0.8-0.2-1.3-0.2c-0.4,0-0.9,0-1.3,0
				c-0.4,0-0.9,0.1-1.3,0.2c0.4-0.1,0.8-0.2,1.3-0.3c0.4-0.1,0.9-0.1,1.3-0.1c0.4,0,0.9,0.1,1.3,0.1c0.4,0.1,0.9,0.2,1.3,0.4l0,0
				c1,0.2,2,0.8,2.8,1.4c0.8,0.7,1.6,1.4,2.2,2.2c0.7,0.8,1.3,1.7,1.8,2.6c0.5,0.9,1,1.8,1.5,2.8L70.9,47.4z"/>
			<path class="st15" d="M66.9,40.5c0,0,0.1-0.1,0.2-0.2c0.1-0.1,0.1-0.1,0.1-0.2c0.1-0.2,0.2-0.3,0.2-0.5c0.1-0.4,0.2-0.8,0.2-1.2
				c0-0.2,0-0.4,0-0.6c0-0.2,0-0.4-0.1-0.6c0-0.2-0.1-0.4-0.1-0.6l-0.1-0.6l0.2,0.6c0.1,0.2,0.1,0.4,0.2,0.6
				c0.1,0.2,0.1,0.4,0.1,0.6c0,0.2,0.1,0.4,0.1,0.6c0,0.4,0,0.8,0,1.3c0,0.2-0.1,0.4-0.2,0.6c0,0.1-0.1,0.2-0.2,0.3
				c-0.1,0.1-0.1,0.2-0.2,0.3L66.9,40.5z"/>
			<path class="st15" d="M69.6,35.8c-0.2,0-0.3,0.1-0.5,0.1L68.6,36c-0.3,0.1-0.7,0.1-1,0.1c-0.7,0.1-1.3,0.1-2,0
				c-1.3-0.1-2.6-0.3-3.9-0.8c-0.6-0.3-1.2-0.6-1.8-0.9c-0.5-0.4-1.1-0.8-1.5-1.3c-0.9-1-1.6-2.1-2.1-3.3c0.7,1.1,1.5,2.1,2.4,3
				c0.9,0.9,2,1.6,3.2,2c1.2,0.5,2.4,0.8,3.7,0.9c0.6,0.1,1.3,0.1,1.9,0.1c0.3,0,0.6,0,1,0C68.9,35.8,69.3,35.8,69.6,35.8z"/>
			<path class="st15" d="M58.2,32.7c0,1.9-0.1,3.8,0,5.7c0,0.5,0,0.9,0.1,1.4c0.1,0.5,0.1,0.9,0.3,1.3c0.2,0.4,0.5,0.8,0.7,1.2
				c0.1,0.2,0.3,0.4,0.4,0.6c0.2,0.2,0.3,0.4,0.5,0.5c1.3,1.4,2.9,2.4,4.7,3c0.9,0.3,1.8,0.6,2.7,0.7c0.5,0.1,0.9,0.1,1.4,0.1
				c0.5,0,0.9,0,1.4,0l0.1,0.5c-1.6,0.1-3.1,0-4.6-0.1c-1.5-0.2-3.1-0.5-4.5-0.9c-0.7-0.2-1.5-0.5-2.2-0.9c-0.7-0.3-1.4-0.8-2-1.3
				c-0.6-0.5-1.2-1.1-1.6-1.7c-0.4-0.7-0.8-1.4-1-2.1l0,0l0,0c0-0.4,0-0.7,0-1c0-0.3,0.1-0.6,0.2-0.9c0.2-0.6,0.4-1.2,0.7-1.8
				c0.3-0.5,0.4-1.1,0.5-1.7c0.1-0.6,0.1-1.2,0.1-1.8c0-1.2-0.2-2.4-0.5-3.6c-0.3-1.2-0.7-2.3-1.3-3.4l0.4-0.2c0.1,1,0.2,2,0.2,3
				c0,1-0.2,2-0.6,3c-0.5,0.9-1.2,1.7-1.8,2.5c-0.3,0.4-0.7,0.8-1,1.1c-0.3,0.4-0.6,0.8-0.8,1.2c-0.2,0.4-0.3,0.9-0.3,1.4
				c0,0.5,0,1,0,1.5c0,0.5,0,1,0.1,1.5c0,0.2,0.1,0.5,0.2,0.7c0.1,0.1,0.1,0.2,0.2,0.2c0.1,0,0.2,0,0.3,0c0.2-0.1,0.4-0.2,0.6-0.4
				c0.2-0.2,0.3-0.4,0.5-0.6c0.3-0.4,0.6-0.8,0.8-1.2c0.1-0.2,0.3-0.4,0.4-0.6c0.1-0.2,0.3-0.4,0.4-0.6c0.1-0.2,0.3-0.4,0.5-0.6
				c0.2-0.2,0.4-0.3,0.6-0.4c-0.2,0.1-0.4,0.3-0.6,0.5c-0.2,0.2-0.3,0.4-0.4,0.6c-0.1,0.2-0.3,0.4-0.4,0.6c-0.1,0.2-0.3,0.4-0.4,0.6
				c-0.3,0.4-0.5,0.9-0.8,1.3c-0.1,0.2-0.3,0.4-0.5,0.6c-0.2,0.2-0.4,0.4-0.6,0.5c-0.1,0-0.3,0-0.4,0c-0.1-0.1-0.3-0.1-0.3-0.3
				c-0.2-0.2-0.2-0.5-0.3-0.7c-0.1-0.5-0.1-1-0.2-1.5c0-0.5,0-1,0-1.5c0-0.1,0-0.3,0-0.4c0-0.1,0-0.3,0-0.4c0-0.3,0.1-0.5,0.2-0.7
				c0.2-0.5,0.5-0.9,0.8-1.3c0.3-0.4,0.6-0.8,0.9-1.2c0.6-0.8,1.3-1.5,1.7-2.4c0.4-0.9,0.5-1.9,0.5-2.8c0-1-0.1-2-0.2-2.9L54,24.9
				l0.6,1.1c0.6,1.1,1.1,2.3,1.4,3.5c0.3,1.2,0.5,2.5,0.5,3.7c0,0.6,0,1.3-0.1,1.9c-0.1,0.6-0.2,1.3-0.5,1.9
				c-0.3,0.5-0.5,1.1-0.7,1.7c-0.1,0.3-0.1,0.6-0.2,0.9c0,0.3-0.1,0.6,0,0.9l0,0c0.2,0.7,0.5,1.4,1,2c0.4,0.6,0.9,1.1,1.5,1.6
				c0.6,0.5,1.2,0.9,1.9,1.2c0.7,0.3,1.4,0.6,2.1,0.9c1.4,0.5,2.9,0.8,4.4,0.9c1.5,0.2,3,0.2,4.6,0.2l0.1,0.5c-0.5,0.1-1,0.1-1.5,0
				c-0.5,0-1-0.1-1.4-0.2c-1-0.1-1.9-0.4-2.8-0.7C63,46.1,61.3,45,60,43.6c-0.2-0.2-0.3-0.4-0.5-0.5c-0.1-0.2-0.3-0.4-0.4-0.6
				c-0.3-0.4-0.5-0.8-0.7-1.2c-0.2-0.5-0.2-1-0.3-1.4c0-0.5-0.1-0.9-0.1-1.4C58,36.5,58.1,34.6,58.2,32.7z"/>
			<path class="st15" d="M50.6,40.9c0.6-0.1,1.1-0.2,1.6-0.4c0.2-0.1,0.5-0.2,0.7-0.4c0.2-0.1,0.4-0.3,0.7-0.5
				c-0.1,0.2-0.3,0.5-0.5,0.7c-0.2,0.2-0.5,0.3-0.7,0.5C52,40.9,51.7,41,51.4,41C51.2,41,50.9,41,50.6,40.9z"/>
			<path class="st15" d="M47.8,37.6c-0.9,1-1.7,2.1-2.6,3.1l0,0l0,0c-0.3,0.2-0.6,0.4-1,0.6c-0.3,0.2-0.7,0.3-1.1,0.4
				c-0.4,0.1-0.8,0-1.2,0c-0.4,0-0.8-0.1-1.1-0.2l-0.3-0.1c0,0-0.1,0-0.1,0l-0.1,0c-0.2-0.1-0.4-0.1-0.5-0.2c-0.4-0.2-0.7-0.3-1-0.5
				c-0.7-0.4-1.3-0.8-1.9-1.3c-0.3-0.2-0.6-0.5-0.9-0.7c-0.1-0.1-0.3-0.2-0.4-0.4c-0.1-0.1-0.1-0.1-0.2-0.2
				c-0.1-0.1-0.2-0.2-0.2-0.3c-0.4-0.7-0.8-1.3-1.1-2c-0.7-1.3-1.4-2.7-2.1-4l0,0l0,0c-0.3-1-0.6-2-0.9-3l-0.4-1.5l-0.2-0.8
				l-0.1-0.4L30,25.7c-0.1-1.1,0-2.2,0.4-3.1c0.2-0.5,0.4-1,0.9-1.4l0.1-0.1c0,0,0.1,0,0.1-0.1c0.1,0,0.2-0.1,0.2-0.1
				c0.2,0,0.3,0,0.4,0.1c0.3,0.1,0.5,0.3,0.7,0.5l-0.1,0c0.9-0.4,1.9-0.7,2.8-1.1l2.8-1.2l-0.1,0.1l0.5-1.4l0-0.1l0.1,0
				c0.5,0.2,1,0.5,1.4,0.9c0.4,0.4,0.8,0.8,1.2,1.2c0.7,0.8,1.4,1.7,2,2.7c0.6,0.9,1.2,1.9,1.8,2.9c0.5,1,1.1,2,1.6,3l-0.5,0.1
				c-0.2-1.2-0.5-2.5-0.9-3.7c-0.4-1.2-0.8-2.4-1.3-3.6l0.5-0.2l0.1,0.1l0.1,0.1l0.2,0.3l0.4,0.5c0.3,0.4,0.5,0.7,0.7,1.1
				c0.2,0.4,0.4,0.8,0.6,1.2c0.2,0.4,0.3,0.8,0.5,1.3l0,0l0,0c0.2,1,0.5,2,0.7,2.9c0.1,0.5,0.2,1,0.3,1.5c0,0.3,0.1,0.5,0.1,0.8
				c0,0.3,0,0.5,0,0.8c0,1-0.1,2-0.1,3c-0.1,1-0.2,2-0.2,3c0,0.2,0,0.5,0,0.7c0,0.2,0.1,0.5,0.2,0.7c0.1,0.5,0.3,0.9,0.5,1.4
				c0.2,0.4,0.4,0.9,0.7,1.3c0.3,0.4,0.6,0.8,1,1.1c0.4,0.3,0.8,0.5,1.3,0.4c0.5,0,0.9-0.2,1.3-0.5c0.4-0.3,0.7-0.7,1-1.1
				c0.3-0.4,0.5-0.8,0.7-1.3l0.1,0c-0.2,0.5-0.4,0.9-0.7,1.3c-0.3,0.4-0.6,0.8-1,1.2c-0.4,0.3-0.9,0.6-1.4,0.6
				c-0.5,0.1-1.1-0.1-1.5-0.4c-0.4-0.3-0.8-0.7-1.1-1.1c-0.3-0.4-0.6-0.9-0.8-1.3c-0.2-0.5-0.4-0.9-0.6-1.4
				c-0.1-0.2-0.1-0.5-0.2-0.8c0-0.3-0.1-0.5-0.1-0.8c0-1,0.1-2,0.2-3c0.1-1,0.1-2,0.1-3c0-0.2,0-0.5,0-0.7c0-0.2,0-0.5-0.1-0.7
				c-0.1-0.5-0.2-1-0.3-1.5c-0.2-1-0.4-1.9-0.7-2.9l0,0c-0.1-0.4-0.3-0.8-0.5-1.2c-0.2-0.4-0.4-0.8-0.6-1.2
				c-0.2-0.4-0.5-0.7-0.7-1.1L44.6,22l-0.2-0.3l-0.1-0.1c0-0.1-0.1-0.1-0.1-0.2l0.5-0.2c0.5,1.2,0.9,2.4,1.3,3.6
				c0.4,1.2,0.7,2.5,0.9,3.8l0.2,1.7l-0.7-1.5c-0.5-1-1-2-1.5-3c-0.5-1-1.1-1.9-1.7-2.9c-0.6-0.9-1.2-1.8-1.9-2.7
				c-0.4-0.4-0.7-0.8-1.1-1.2c-0.4-0.4-0.9-0.7-1.4-0.9l0.1-0.1l-0.6,1.4l0,0l0,0l-2.8,1.1c-0.9,0.4-1.9,0.8-2.8,1.2l-0.1,0l0,0
				c-0.2-0.2-0.4-0.3-0.6-0.4c-0.1-0.1-0.2-0.1-0.3-0.1c-0.1,0-0.2,0-0.3,0.1c-0.4,0.3-0.6,0.8-0.8,1.3c-0.3,1-0.5,2-0.3,3l0.1,0.4
				l0.1,0.4l0.2,0.8l0.5,1.5c0.3,1,0.6,2,0.9,3l0,0l2.2,4c0.4,0.7,0.7,1.3,1.1,2c0,0.1,0.1,0.1,0.1,0.2c0.1,0.1,0.1,0.1,0.2,0.2
				c0.1,0.1,0.3,0.2,0.4,0.4c0.3,0.2,0.6,0.5,0.9,0.7c0.6,0.5,1.2,0.9,1.8,1.3c0.6,0.4,1.3,0.7,2,0.9c0.7,0.1,1.5,0.3,2.2,0.2
				c0.7-0.1,1.4-0.5,2-0.8l0,0C45.9,39.5,46.8,38.5,47.8,37.6L47.8,37.6z"/>
			<polygon class="st15" points="38.3,19.4 38.3,19.2 39.9,18.6 40,18.8 			"/>
			<polygon class="st15" points="30.5,22.6 30.5,22.4 32.7,21.5 32.7,21.7 			"/>
			<polygon class="st15" points="30.4,26.5 30.3,26.3 42.4,21.2 42.5,21.5 			"/>
			<path class="st15" d="M47.5,99.3c1.5-1.5,3.2-2.8,4.9-4c1.7-1.2,3.5-2.4,5.3-3.4c0.9-0.5,1.9-1,2.9-1.4c1-0.4,2-0.8,3-1
				c2-0.6,4.2-0.8,6.3-0.6c-2.1-0.2-4.2,0.1-6.2,0.8c-1,0.3-2,0.7-2.9,1.1c-0.9,0.4-1.9,0.9-2.8,1.4c-1.8,1-3.5,2.2-5.2,3.5
				c-1.6,1.3-3.2,2.7-4.7,4.1L47.5,99.3z"/>
			<path class="st15" d="M78.2,109.5c-2.5,1-5.1,1.9-7.7,2.8c-1.3,0.4-2.6,0.8-3.9,1.2c-1.3,0.3-2.7,0.7-4.1,0.8l0,0l0,0
				c-0.9-0.3-1.9-0.6-2.9-0.7c-1-0.1-2-0.1-3,0.1c-1,0.2-1.9,0.6-2.7,1.2c-0.8,0.6-1.4,1.4-1.8,2.3c0.2-0.5,0.4-0.9,0.7-1.3
				c0.1-0.2,0.3-0.4,0.5-0.6c0.2-0.2,0.4-0.4,0.6-0.5c0.8-0.7,1.7-1.1,2.7-1.3c1-0.2,2-0.3,3-0.2c1,0.1,2,0.3,3,0.6l-0.1,0
				c1.3-0.1,2.7-0.5,4-0.9c1.3-0.4,2.6-0.8,3.9-1.3c2.6-0.9,5.1-1.9,7.6-3L78.2,109.5z"/>
			<path class="st15" d="M62.5,114.1c1.1,0.6,2.1,1.2,3.2,1.7c1.1,0.5,2.2,1,3.3,1.4c0.6,0.2,1.1,0.3,1.7,0.3c0.6,0,1.1-0.1,1.6-0.3
				c0.2-0.1,0.4-0.3,0.6-0.5l0.2-0.2c0.1-0.1,0.1-0.1,0.2-0.2c0.1-0.1,0.2-0.2,0.3-0.3c0.4-0.4,0.8-0.9,1.2-1.3l0.1-0.1l0.1,0
				c0.4-0.1,0.9-0.1,1.3-0.2c0.4,0,0.9-0.1,1.3-0.1c0.9-0.1,1.8-0.1,2.7-0.2l-0.3,0.4c0,0-1.1,0.1-2.3,0.3c-0.4,0.1-0.9,0.2-1.3,0.3
				c-0.4,0.1-0.9,0.2-1.3,0.2l0.2-0.1c-0.4,0.5-0.8,0.9-1.3,1.3c-0.1,0.1-0.2,0.2-0.4,0.3c-0.1,0.1-0.1,0.1-0.2,0.1l-0.2,0.1
				c-0.2,0.2-0.5,0.4-0.8,0.6c-0.6,0.3-1.3,0.4-2,0.3c-0.3,0-0.6-0.1-1-0.1c-0.2,0-0.3-0.1-0.5-0.1c-0.2,0-0.3-0.1-0.4-0.1
				c-1.2-0.4-2.3-1-3.3-1.6c-1.1-0.6-2.1-1.1-3.1-1.8L62.5,114.1z"/>
			<path class="st15" d="M32.5,48.4c0.8-0.1,1.6-0.3,2.4-0.5c0.8-0.2,1.6-0.4,2.3-0.7c0.8-0.3,1.5-0.6,2.2-1
				c0.3-0.2,0.7-0.4,0.9-0.7c0.3-0.3,0.5-0.6,0.6-0.9l0,0.1l-2.9-4.7l3.2,4.5l0,0.1l0,0.1c-0.1,0.4-0.4,0.8-0.7,1.1
				c-0.3,0.3-0.6,0.6-1,0.8c-0.7,0.5-1.4,0.8-2.2,1.2c-0.8,0.3-1.5,0.6-2.3,0.9c-0.8,0.3-1.6,0.5-2.4,0.7L32.5,48.4z"/>
			<path class="st15" d="M80.3,64.3c-0.5,0.4-1,0.9-1.3,1.4c-0.2,0.3-0.3,0.6-0.4,0.8c0,0.1-0.1,0.3-0.1,0.5l-0.1,0.5
				c-0.2,1.3-0.4,2.7-0.6,4.1c0-1.4,0.1-2.7,0.2-4.1l0-0.5c0-0.2,0-0.3,0.1-0.5c0.1-0.4,0.2-0.7,0.4-1c0.3-0.7,0.8-1.2,1.3-1.7
				L80.3,64.3z"/>
			<path class="st15" d="M25.3,82.3c0.4,0,0.7,0.1,1,0.2c0.3,0.1,0.6,0.2,0.9,0.4c0.3,0.2,0.5,0.4,0.8,0.6c0.2,0.2,0.4,0.5,0.6,0.8
				c-0.2-0.3-0.4-0.5-0.6-0.7c-0.2-0.2-0.5-0.4-0.8-0.5c-0.3-0.1-0.6-0.2-0.9-0.3c-0.3-0.1-0.6-0.1-0.9-0.1L25.3,82.3z"/>
			<path class="st15" d="M11.6,97.8c0.1-0.2,0.1-0.5,0.2-0.8c0-0.3,0-0.5,0-0.8c0-0.3-0.1-0.5-0.2-0.8c-0.1-0.3-0.3-0.5-0.4-0.7
				c0.2,0.2,0.4,0.4,0.5,0.7c0.1,0.2,0.2,0.5,0.3,0.8C12,96.5,12,96.8,12,97c0,0.3,0,0.6-0.1,0.8L11.6,97.8z"/>
			<path class="st15" d="M4.9,100.5c-0.2-0.1-0.4-0.3-0.5-0.4c-0.1-0.1-0.2-0.2-0.2-0.3c-0.1-0.1-0.1-0.2-0.1-0.4
				c0.1-0.3,0.3-0.4,0.5-0.5c0.2-0.1,0.4-0.2,0.6-0.3c0.4-0.2,0.9-0.3,1.3-0.4c0.4,0,0.9-0.1,1.3-0.2l-0.1,0.2
				c-0.2-0.3-0.3-0.5-0.5-0.8c-0.1-0.1-0.1-0.3-0.2-0.4c0-0.1-0.1-0.3-0.1-0.5c0,0.2,0.1,0.3,0.1,0.4c0.1,0.1,0.1,0.3,0.2,0.4
				C7.6,97.5,7.8,97.8,8,98l0.1,0.1l-0.1,0.1c-0.4,0.1-0.9,0.3-1.3,0.3c-0.4,0.1-0.9,0.2-1.3,0.4c-0.2,0.1-0.4,0.2-0.6,0.3
				c-0.2,0.1-0.4,0.2-0.4,0.4c0,0.2,0.1,0.4,0.2,0.6C4.6,100.2,4.8,100.4,4.9,100.5z"/>
			<path class="st15" d="M7.9,97.9c0.1,0,0.3-0.1,0.4-0.1c0.1-0.1,0.2-0.1,0.3-0.2c0,0.1-0.1,0.3-0.2,0.4c-0.1,0.1-0.2,0.2-0.4,0.2
				L7.9,97.9z"/>
			<path class="st15" d="M4.9,100.6c-0.5-0.4-0.9-0.8-1.4-1.3c-0.2-0.2-0.5-0.4-0.7-0.7c-0.2-0.3-0.3-0.6-0.3-0.9
				c0-0.3,0.1-0.6,0.1-0.9l0.1-0.9c0.1-0.6,0.1-1.2,0.1-1.9c0,0.6,0,1.3-0.1,1.9l-0.1,0.9c0,0.3-0.1,0.6-0.1,0.9
				c0,0.3,0.1,0.6,0.3,0.8c0.2,0.2,0.5,0.4,0.7,0.6c0.5,0.4,1,0.9,1.5,1.3L4.9,100.6z"/>
			<path class="st15" d="M2.9,101.2l-1.7-1.7l0,0l0,0c-0.1-0.5-0.1-0.9-0.1-1.4l0-1.3l0-2.7l0.1,2.7l0,1.3c0,0.4,0,0.9,0.2,1.3l0,0
				l1.9,1.7L2.9,101.2z"/>
			<path class="st15" d="M-0.8,93.7l0.5,6.5l0,0c0.1,0.2,0.2,0.4,0.4,0.5c0.1,0.1,0.2,0.1,0.3,0.2c0.1,0.1,0.2,0.2,0.3,0.3
				c0.4,0.3,0.7,0.7,1,1.1l0,0l-1.1-1c-0.1-0.1-0.2-0.2-0.3-0.2c-0.1-0.1-0.2-0.1-0.3-0.2c-0.2-0.1-0.4-0.3-0.5-0.7l0,0l0,0
				L-0.8,93.7L-0.8,93.7z"/>
			<path class="st15" d="M6.5,98.4c-0.2-0.2-0.4-0.4-0.6-0.7c-0.1-0.1-0.2-0.2-0.3-0.3c-0.1-0.1-0.2-0.2-0.4-0.2l-0.1,0l0.1-0.1
				l0.6-0.9l0,0l-0.2-1l0.3,1.1l0,0l0,0l-0.6,0.9l0-0.1c0.2,0,0.3,0.2,0.4,0.2c0.1,0.1,0.2,0.2,0.3,0.3c0.2,0.2,0.4,0.4,0.6,0.6
				L6.5,98.4z"/>
			<path class="st15" d="M5.9,96.2c0.3,0.2,0.6,0.5,0.9,0.8c0.1,0.1,0.3,0.3,0.4,0.5c0.1,0.1,0.3,0.4,0.3,0.6l-0.2,0
				c-0.1-0.2-0.2-0.3-0.3-0.5c-0.1-0.1-0.2-0.3-0.3-0.5C6.4,96.9,6.1,96.6,5.9,96.2L5.9,96.2z"/>
			<polygon class="st15" points="5.3,97.3 4.4,97.1 5.3,97 			"/>
			<path class="st15" d="M63.3,38.1c-0.3-0.6-0.5-1.1-0.8-1.7c-0.1-0.3-0.3-0.5-0.4-0.8c-0.2-0.3-0.3-0.5-0.6-0.7
				c0.3,0.1,0.4,0.2,0.6,0.4c0.2,0.2,0.5,0.8,0.7,1.1c0.1,0.3,0.8,1.4,0.9,1.7C63.7,38.5,63.2,37.8,63.3,38.1z"/>
			<path class="st15" d="M91.7,47.2c-0.6,0-1.1-0.1-1.2-0.1l0,0l0,0c-0.2-0.1-0.9-0.5-1.2-0.5l0,0c0.4-0.3,1.2,0.1,1.4,0.3
				c0.5,0.1,1.6,0.1,2-0.1c0.5-0.3,0.5-0.7,0.3-1.1c-0.1-0.2-0.4-0.3-0.8-0.4c-0.2-0.1-0.5-0.1-0.6-0.3c-0.2-0.2-2.2-0.8-3.3-1.1
				l0.1-0.3c0.3,0.1,3.1,0.9,3.4,1.2c0.1,0.1,0.3,0.2,0.5,0.2c0.4,0.1,0.8,0.2,1,0.6c0.3,0.6,0.1,1.1-0.5,1.4
				C92.5,47.1,92.1,47.2,91.7,47.2z"/>
			<path class="st15" d="M90.6,46.8c0.8,0.7,1.6,1.5,2.4,2.3c0.2,0.2,0.4,0.4,0.5,0.6c0.2,0.2,0.3,0.5,0.4,0.7
				c0.1,0.3,0.1,0.6,0,0.8c-0.1,0.3-0.3,0.5-0.5,0.7c0.2-0.2,0.4-0.4,0.4-0.7c0.1-0.3,0-0.5,0-0.8c-0.1-0.3-0.2-0.5-0.4-0.7
				c-0.2-0.2-0.4-0.4-0.6-0.6c-0.8-0.8-1.6-1.5-2.4-2.2L90.6,46.8z"/>
			<path class="st15" d="M90.4,44.4c0-0.2,0-0.4,0-0.5c0-0.1,0-0.2,0-0.3c0-0.1,0-0.2,0.1-0.3c0.2-0.3,0.4-0.6,0.6-0.9l1.1-1.8
				l-1,1.9c-0.2,0.3-0.3,0.6-0.5,0.9c-0.1,0.1-0.1,0.3-0.1,0.5c0,0.2,0,0.4,0,0.5H90.4z"/>
			<path class="st15" d="M92.2,45c0-0.2,0-0.4,0.1-0.6c0.1-0.2,0.2-0.3,0.4-0.4c0.2-0.2,0.5-0.5,0.7-0.7c0.5-0.5,0.9-1,1.4-1.5
				c-0.4,0.5-0.8,1-1.3,1.5c-0.2,0.3-0.4,0.5-0.7,0.8c-0.1,0.1-0.2,0.2-0.3,0.4c-0.1,0.1-0.1,0.4-0.1,0.5L92.2,45z"/>
			<path class="st15" d="M92.8,46.8l0.9,3.1l0,0c0.1,0.1,0.3,0.3,0.5,0.3c0.1,0,0.2,0,0.3,0c0.1,0,0.2-0.1,0.2-0.1
				c0.1-0.1,0.1-0.4,0.1-0.6c0-0.2,0-0.4-0.1-0.6l-0.3-2.6l0,0l0,0c0-0.2,0.1-0.3,0.1-0.4c0.1-0.1,0.1-0.3,0.3-0.4
				c0.3-0.1,0.5-0.3,0.7-0.5c0.4-0.4,0.8-0.8,1.2-1.3c-0.4,0.4-0.8,0.9-1.2,1.3c-0.2,0.2-0.4,0.4-0.7,0.6c-0.1,0.1-0.2,0.2-0.2,0.3
				c0,0.1-0.1,0.3-0.1,0.4l0,0l0.4,2.5c0.1,0.4,0.2,0.9-0.1,1.3c-0.1,0.1-0.2,0.2-0.3,0.2c-0.1,0-0.2,0.1-0.4,0
				c-0.2,0-0.5-0.2-0.6-0.4l0,0l0,0l-1-3.1L92.8,46.8z"/>
			<path class="st15" d="M97.7,46.4c-0.1,0.2-0.3,0.3-0.5,0.5c-0.1,0.1-0.2,0.2-0.2,0.2c-0.1,0.1-0.2,0.2-0.3,0.2l0.1-0.1
				c0,0.4,0,0.8,0,1.2c0,0.4,0,0.8-0.1,1.2c-0.1,0.2-0.2,0.4-0.3,0.6c-0.2,0.1-0.4,0.2-0.6,0.3c-0.1,0-0.2,0-0.3-0.1
				c-0.1-0.1-0.2-0.1-0.2-0.2c-0.1-0.2-0.2-0.4-0.2-0.5c0.1,0.2,0.2,0.3,0.3,0.5c0.1,0.1,0.1,0.1,0.2,0.2c0.1,0,0.1,0,0.2,0
				c0.4-0.1,0.6-0.4,0.7-0.7c0.1-0.4,0.1-0.8,0.1-1.1l0.1-1.2l0-0.1l0.1,0c0.1,0,0.2-0.1,0.3-0.2l0.3-0.2L97.7,46.4z"/>
			<path class="st15" d="M94.5,51.6c0.3,0.4,0.6,0.7,0.9,1.1c0.2,0.2,0.4,0.3,0.5,0.4c0.2,0.1,0.4,0.2,0.6,0.3c-0.2,0-0.5,0-0.7-0.1
				c-0.2-0.1-0.5-0.2-0.6-0.4c-0.2-0.2-0.3-0.4-0.5-0.6C94.7,52.1,94.6,51.8,94.5,51.6z"/>
			<path class="st15" d="M40.7,29l0-0.2c0-0.2,0.2-1.5,0.8-1.8c0.1,0,0.1-0.1,0.2-0.1c0.5-0.3,1.2-0.6,2.9-0.4l0.1,0l0,0.1
				c0,0-0.4,2.1-2.1,2.2L40.7,29z M43.5,26.7c-0.9,0-1.3,0.2-1.7,0.4c-0.1,0-0.1,0.1-0.2,0.1c-0.4,0.2-0.6,1-0.6,1.5l1.5-0.1
				c1.3-0.1,1.7-1.4,1.9-1.9C44.1,26.7,43.8,26.7,43.5,26.7z"/>
			<path class="st15" d="M34.5,32.2c-0.7,0-1.2-0.7-1.3-0.7l0,0c-0.1-0.4-0.2-1.2,0.7-1.5c1.1-0.4,2.4,0.4,2.4,0.5l0.1,0.1l-0.1,0.1
				c0,0.1-1,1.5-1.8,1.6C34.6,32.2,34.5,32.2,34.5,32.2z M33.5,31.3c0.1,0.1,0.6,0.6,1.1,0.6c0.5-0.1,1.2-0.9,1.5-1.4
				c-0.3-0.2-1.3-0.6-2.1-0.4C33.2,30.5,33.4,31.2,33.5,31.3z"/>
			<path class="st15" d="M41.3,44.5c0.2,0.4,0.5,0.8,0.7,1.2c0.1,0.2,0.2,0.4,0.3,0.6c0.1,0.2,0.2,0.4,0.3,0.6
				c-0.1-0.2-0.2-0.4-0.3-0.6c-0.1-0.2-0.2-0.4-0.4-0.6c-0.3-0.4-0.5-0.7-0.8-1.1L41.3,44.5z"/>
			<path class="st15" d="M31.8,72.8c0.3-0.1,0.7-0.2,1-0.2c0.3-0.1,0.6-0.2,0.9-0.3c0.6-0.2,1.2-0.4,1.7-0.7c-0.5,0.4-1,0.8-1.6,1.1
				c-0.3,0.2-0.6,0.3-0.8,0.5c-0.3,0.1-0.6,0.3-0.9,0.4L31.8,72.8z"/>
			<path class="st15" d="M94.9,136.6c-0.5,0-1.2-0.5-3-1.8c-1.1-0.8-2.2-1.5-2.8-1.8c-1.4-0.6-12-4.9-12.1-4.9
				c-1.3-0.4-3.4-1.1-3.6-1.2c0,0-4.8-0.9-7.8,0.4l-0.3-0.7c3.3-1.5,8.3-0.5,8.3-0.5c0.4,0.1,3.4,1.1,3.7,1.2
				c0.5,0.2,10.7,4.3,12.1,5c0.7,0.3,1.9,1.1,3,1.9c0.9,0.7,2.2,1.6,2.6,1.6c0.4,0,1.5-0.7,2-1.2l0.5,0.6
				C97.2,135.5,95.7,136.6,94.9,136.6z"/>
			<g>
				<path class="st15" d="M41.2,27.3c0,0,0.5-1,2-1.3c0,0,1.3,0,1.5-0.1c0.2-0.1,0.2,1.2,0.1,1.5c-0.1,0.3-0.5,1.3-2.3,1.5
					c0,0,1.7-0.5,2-2.2C44.5,26.7,42.3,26.4,41.2,27.3z"/>
				<path class="st15" d="M36.3,30.5c0,0-1-1.2-3.1-0.5c0,0-0.6,0.2-0.8,0.5c0,0,0.6,0.8,1,1.1c0,0-0.2-0.8,0.1-1
					S33.9,29.6,36.3,30.5z"/>
				<path class="st15" d="M39.5,35.2c0.2,0,0.1-0.4,0.5-0.2c0.2,0.1,0.7,0.2,1,0c0.4-0.2,0.6-0.7,0.6-0.7s0-0.1,0-0.2
					c0-0.2,0.1-0.2,0.5-0.2c0.4,0,0.5-0.1,0.4-0.3s-0.1-0.4-0.3-0.2c-0.2,0.2-0.6,0.3-0.8,0.4s-0.5,0.7-1,0.8c-0.5,0-0.9-0.3-1,0
					C39.2,34.9,39,35.2,39.5,35.2z"/>
				<path class="st15" d="M40,37.9l0.7-0.4c0,0,0.4-0.2,0.8-0.2c0.4,0,0.7-0.2,0.9-0.3c0.4-0.2,0.9-0.8,1.8-0.9
					c0.4-0.1-1.4-0.3-1.5-0.2c-0.4,0.1-0.6,0.4-1,0.5c-0.4,0.2-0.9,0.2-1.2,0.5C40.3,37.1,40,37.9,40,37.9z"/>
				<path class="st15" d="M41.3,38.5c0,0,1.5-0.1,2.6-1.2c0,0-0.4,0.7-1.2,1.1C42,38.8,41.3,38.5,41.3,38.5z"/>
			</g>
			<path class="st15" d="M39.6,46.1c-1.5-0.4-3-1-4.4-1.8c-0.7-0.4-1.4-0.8-2-1.3c-0.3-0.3-0.6-0.5-0.9-0.8c-0.3-0.3-0.5-0.6-0.7-1
				c-0.2-0.4-0.3-0.8-0.4-1.2l-0.1-0.6l-0.1-0.6l0-0.6c0-0.2,0-0.4,0-0.6c0-0.4,0.1-0.8,0.2-1.2c0.2-0.8,0.4-1.5,0.5-2.3
				c0.1-0.8,0.1-1.5,0-2.3l0.1,0c0.1,0.2,0.1,0.4,0.2,0.6c0,0.2,0.1,0.4,0.1,0.6c0,0.2,0,0.4,0,0.6l0,0.3l0,0.3
				c-0.1,0.8-0.3,1.6-0.4,2.3c-0.1,0.8-0.2,1.5-0.2,2.3l0,0.6l0.1,0.6c0.1,0.4,0.1,0.7,0.3,1.1c0.2,0.3,0.4,0.7,0.6,1
				c0.2,0.3,0.5,0.6,0.8,0.8c0.6,0.5,1.2,1,1.9,1.4C36.7,44.9,38.1,45.5,39.6,46.1L39.6,46.1z"/>
			<polygon class="st15" points="44.2,21.4 43.4,19.4 44.7,21.2 			"/>
			<path class="st15" d="M123.3,173.4c0-0.1,0-0.2-0.1-0.3l-0.1-0.2l-0.1-0.2c-0.1-0.2-0.2-0.4-0.3-0.5c-0.7-1.3-1.4-2.5-2.1-3.8
				c-0.3-0.6-0.7-1.3-1-1.9l-0.2-0.5c-0.1-0.2-0.2-0.3-0.2-0.5c-0.1-0.3-0.3-0.6-0.4-1c-0.2-0.6-0.4-1.3-0.4-2
				c-0.1-0.7-0.1-1.4-0.1-2.1c0-0.4,0-0.8-0.1-1.2c-0.1-0.4-0.3-0.8-0.5-1.1c-0.4-0.7-1-1.2-1.5-1.7c-0.3-0.2-0.6-0.5-0.9-0.7
				c-0.3-0.2-0.7-0.4-1.1-0.5c-0.6-0.2-1.3-0.4-1.9-0.6c0-0.1-0.1-0.1-0.1-0.2c-0.1-0.1-0.2-0.3-0.3-0.4c-0.2-0.2-0.5-0.4-0.8-0.6
				c-0.3-0.2-0.6-0.3-0.9-0.4l-0.4-0.1c-0.1,0-0.2-0.1-0.3-0.1c-0.9-0.4-1.7-1-2.5-1.8c-0.4-0.4-0.7-0.7-1.1-1.1
				c-0.2-0.2-0.3-0.4-0.5-0.6l-0.2-0.3l-0.2-0.3c-0.5-0.9-1-1.8-1.4-2.8c-0.4-1-0.8-2-1.1-3c-0.2-0.5-0.3-1-0.4-1.5
				c-0.1-0.3-0.1-0.5-0.2-0.8c-0.1-0.3-0.2-0.6-0.3-0.8c-0.4-1.1-1-2.1-1.7-2.9c-0.3-0.4-0.7-0.9-1.1-1.3c-0.3-0.3-0.7-0.7-1.1-1
				c-0.1-1.2-0.2-2.3-0.3-3.5c-0.1-0.6-0.1-1.2-0.2-1.8c0-0.3-0.1-0.6-0.1-0.9L97,128c0-0.2-0.1-0.3-0.1-0.5
				c-0.2-0.6-0.5-1.2-0.7-1.8c-0.3-0.6-0.6-1.1-0.9-1.6c-0.3-0.5-0.7-1.1-1.1-1.6c-0.2-0.3-0.4-0.5-0.6-0.7
				c-0.1-0.1-0.2-0.2-0.3-0.4c-0.1-0.1-0.2-0.2-0.4-0.4c-0.6-0.4-1.2-0.7-1.8-0.9c-0.6-0.2-1.2-0.3-1.8-0.5
				c-0.6-0.1-1.2-0.2-1.8-0.3c-0.3-0.1-0.6-0.1-0.9-0.2c-0.2-0.1-0.5-0.2-0.7-0.4c-0.5-0.3-0.9-0.7-1.3-1.2
				c-0.4-0.4-0.7-0.9-1.1-1.4c-0.1-0.1-0.2-0.2-0.2-0.4l-0.1-0.2l-0.1-0.2c-0.2-0.3-0.4-0.6-0.6-0.8c-0.3-0.2-0.5-0.4-0.8-0.6
				c-0.2-0.1-0.3-0.2-0.5-0.2c-0.1,0-0.2-0.1-0.3-0.1l-2.3-4.4c0.4-0.2,0.8-0.4,1.2-0.7c0.5-0.3,1-0.7,1.4-1.1
				c0.4-0.4,0.9-0.8,1.2-1.3c0.4-0.5,0.7-0.9,1.1-1.5l0,0l0,0c0.6-1.3,0.9-2.7,1-4.1c0.1-1.4,0.2-2.8,0-4.2c-0.2-2.8-0.9-5.5-2.1-8
				c-0.3-0.6-0.6-1.2-1-1.8c-0.4-0.6-0.8-1.2-1.3-1.7c-1-1-2.1-1.9-3.3-2.6c-1.2-0.7-2.4-1.3-3.7-1.9c-1.3-0.5-2.6-1-3.9-1.3
				c-0.9-0.4-1.8-0.9-2.7-1.5c-0.9-0.5-1.7-1.1-2.5-1.8c-0.7-0.7-1.4-1.5-1.9-2.4c-0.5-0.9-0.7-1.9-0.5-2.8c0.2-1,0.3-2.1,0.5-3.1
				l0.4-3.1c0.2-1.8,0.4-3.7,0.7-5.5c0.2,0.2,0.3,0.5,0.5,0.7c0.3,0.4,0.6,0.8,0.9,1.2c0.6,0.8,1.3,1.6,1.9,2.4
				c1.3,1.6,2.6,3.1,3.9,4.6c0.7,0.8,1.3,1.5,2,2.3c0.3,0.4,0.7,0.7,1,1.1c0.4,0.3,0.7,0.7,1,1.1c1.2,1.6,2.4,3.2,3.5,4.9l0,0l0,0
				c0.4,0.2,0.8,0.4,1.2,0.5c0.2,0,0.4,0.1,0.7,0c0.1,0,0.2-0.1,0.3-0.2c0.1-0.1,0.1-0.2,0.2-0.2c0.3-0.3,0.6-0.5,1-0.7
				c0.3-0.2,0.7-0.4,1-0.6c1.1-0.4,2.2-1.1,3.1-1.8c1-0.7,1.9-1.5,2.8-2.3c0.2-0.2,0.4-0.4,0.6-0.6l0.3-0.3c0.1-0.1,0.2-0.2,0.3-0.4
				c0.4-0.5,0.7-1,1.1-1.4c0.7-1,1.3-2,1.9-3c1.2-2.1,2.2-4.2,3.1-6.4c0.9-2.2,1.8-4.4,2.5-6.7c0.3-0.3,0.5-0.7,0.7-1.1
				c0.1-0.2,0.1-0.4,0.2-0.6c0.1-0.2,0.1-0.4,0.1-0.6l0,0l0,0l-0.1-3.1c0-1,0-2.1,0-3.1l0-0.1l0-0.1c0-0.1,0-0.1,0-0.2
				c0-0.1,0-0.3-0.1-0.4c-0.1-0.3-0.3-0.5-0.6-0.7c-0.1,0-0.1-0.1-0.2-0.1c-0.1,0-0.1,0-0.2,0c-0.1,0-0.2-0.1-0.3-0.1
				c-0.1-0.1-0.3-0.4-0.4-0.6c-0.2-0.2-0.3-0.4-0.5-0.6c-0.2-0.2-0.5-0.3-0.8-0.4c-0.1,0-0.1,0-0.2,0c-0.1,0-0.1,0-0.2,0
				c-0.1,0-0.2-0.1-0.3-0.1c-0.2-0.1-0.3-0.3-0.4-0.5l0,0l0,0c-0.1-0.2-0.3-0.3-0.4-0.4c-0.2-0.1-0.3-0.3-0.6-0.3
				c-0.1,0-0.2-0.1-0.4-0.1l-0.2,0c0,0-0.1,0-0.1,0c-0.1,0-0.2,0-0.3,0c-0.1,0-0.1,0-0.2,0c-0.2-0.2-0.3-0.4-0.6-0.6
				c-0.1-0.1-0.3-0.2-0.4-0.2c-0.2,0-0.3-0.1-0.5,0c-0.2,0-0.3,0.1-0.4,0.2c-0.1,0.1-0.2,0.2-0.3,0.3c-0.2,0.2-0.4,0.4-0.5,0.6
				c-0.7,0.9-1.3,1.8-1.8,2.7l0,0l0,0.1l-0.1,0.9c-0.2,0.2-0.4,0.4-0.5,0.6c-0.2,0.2-0.3,0.5-0.3,0.8c0,0.3,0,0.6,0.2,0.9
				c0.1,0.2,0.2,0.5,0.3,0.7c0.2,0.5,0.3,1,0.4,1.5c0.1,0.5,0.2,1,0.3,1.6l0,0.1l0.1,0.1l3,2.8c-0.1,0.4-0.3,0.8-0.5,1.2
				c-0.2,0.4-0.4,0.9-0.7,1.3c-0.5,0.8-1.1,1.6-1.7,2.4c-0.6,0.8-1.3,1.5-2,2.2c-0.7,0.7-1.4,1.3-2.2,1.9l-4.3,1.9l-8.4-16.1
				c0.4-0.2,0.7-0.4,0.9-0.7c0.4-0.4,0.7-0.8,0.9-1.2c0.5-0.9,0.8-1.9,1-2.9c0.1-0.6,0-1,0-1.5c-0.1-0.5-0.1-1-0.2-1.5
				c-0.2-1-0.5-1.9-0.9-2.8c-0.4-0.9-0.9-1.8-1.5-2.6c-0.6-0.8-1.5-1.5-2.5-1.8c-0.2-0.1-0.5-0.2-0.8-0.2C68.5,32,68.2,32,68,32
				c-0.5-0.1-0.9-0.2-1.3-0.3c-0.9-0.3-1.7-0.7-2.4-1.3c-0.7-0.6-1.3-1.3-1.8-2.1c-0.5-0.8-0.9-1.6-1.3-2.5
				c-0.9-1.7-1.7-3.5-2.3-5.2c-0.3-0.9-0.7-1.8-0.9-2.7c-0.1-0.2-0.1-0.5-0.2-0.7c-0.1-0.2-0.1-0.4-0.2-0.7c-0.2-0.5-0.4-1-0.7-1.4
				c-0.6-0.9-1.4-1.5-2.2-2.1c-0.7-0.5-1.5-0.9-2.3-1.3c0,0,0,0,0,0c0-0.1,0-0.3-0.1-0.4c-0.1-0.3-0.3-0.6-0.5-0.7
				c-0.3-0.2-0.5-0.3-0.8-0.3c-0.1,0-0.1,0-0.2,0c-0.1,0-0.1,0-0.1,0c-0.1,0-0.2,0-0.3,0c-0.8-0.2-1.6-0.4-2.4-0.7
				c-1.6-0.5-3.2-1-4.8-1.6l-0.3-0.1L42.6,8c-0.2,0.2-0.6,0.4-0.9,0.5c-0.3,0.1-0.7,0.2-1.1,0.3c-0.4,0.1-0.8,0.1-1.2,0.2
				c-0.4,0-0.7,0-1.1,0c-0.6-0.3-1.2-0.6-1.9-0.7c-0.7-0.2-1.5-0.2-2.2,0c-0.7,0.1-1.3,0.3-1.9,0.7c-0.3,0.2-0.8,0.5-1.1,0.7
				c-0.3,0.2-0.5,0.4-0.7,0.7c0,0-0.8,0.7-1.6,3.3c0,0,0,0,0,0c-0.1,0.2-0.4,0.5-0.6,0.7c-0.3,0.2-0.6,0.5-1,0.7
				c-0.3,0.2-0.7,0.4-1.1,0.7c0,0-0.1,0.1-0.2,0.1c-0.1,0.1-0.2,0.2-0.2,0.3c-0.1,0.2-0.1,0.3-0.1,0.4c0,0.3,0,0.5-0.1,0.7
				c0,0.4-0.1,0.8-0.2,1.1c0,0.1-0.1,0.1-0.1,0.2l-0.1,0.1l-0.1,0.2c-0.1,0.2-0.2,0.4-0.3,0.6c-0.3,0.8-0.4,1.6-0.5,2.5
				c-0.3,0.9-0.8,1.7-1.3,2.6c-0.3,0.4-0.5,0.9-0.7,1.4c-0.2,0.5-0.4,1-0.6,1.5c-0.1,0.3-0.1,0.6-0.1,0.9c0,0.1,0,0.3,0.1,0.5
				c0,0.2,0.1,0.3,0.2,0.4c0.3,0.5,0.7,0.9,1.1,1.3c0.4,0.3,0.9,0.6,1.4,0.8c0.4,0.2,0.8,0.4,1.3,0.5c0,0,0,0,0,0
				c0.1,0.1,0.1,0.3,0.2,0.5c0.1,0.2,0.1,0.4,0.2,0.7c0.1,0.5,0.2,0.9,0.2,1.4c0,0.5,0,0.9,0,1.4c0,0.2-0.1,0.4-0.1,0.7
				c-0.1,0.2-0.2,0.4-0.2,0.6c-0.2,0.4-0.4,0.8-0.7,1.2c-0.1,0.2-0.3,0.5-0.4,0.7c-0.1,0.3-0.2,0.5-0.2,0.8c-0.1,0.5-0.1,1-0.1,1.6
				c0.1,0.5,0.2,0.9,0.5,1.3c0.1,0.1,0.2,0.3,0.3,0.4c0.2,0.2,0.4,0.4,0.6,0.5c0.2,0.1,0.3,0.1,0.5,0.2c0.1,0,0.3,0,0.5,0
				c0.3,0,0.5-0.8,1-0.8c0.4,0,0.7,0.5,0.7,0.5c0.2,0.2,0.3,0.4,0.4,0.4c0.3,0.1,0.4,0.2,0.7,0.2c0.3,0,0.6-0.1,0.8-0.1
				c0.1,0,0.3,0,0.4,0.2c0.2,0.1,0.3,0.2,0.4,0.4c0.2,0.3,0.4,0.8,0.5,1.2c0,0.2,0.1,0.4,0.1,0.7c0,0.3,0,0.5,0.1,0.8
				c0,0.4,0.1,0.8,0.2,1.2c-0.6,0.3-1.2,0.6-1.8,1c-0.6,0.5-1.1,1.2-1.5,1.9c-0.2,0.4-0.3,0.7-0.4,1.1L28.3,53l0,0.1
				c0,0,0,0.1,0,0.1c0,0,0,0.1,0,0.1c0,0.1,0,0.2-0.1,0.3c-0.1,0.8-0.2,1.5-0.3,2.2c-0.4,3-0.7,5.9-1,8.9
				c-0.6,5.9-1.2,11.7-1.8,17.6c-1,0.4-1.9,0.9-2.7,1.5c-0.9,0.6-1.8,1.2-2.6,1.8L17,87.6c-0.4,0.3-0.9,0.6-1.3,0.9
				c-0.5,0.3-0.9,0.5-1.4,0.7c-2,0.8-4,1.4-6.1,1.8C6.1,91.4,4,91.8,1.8,92l-0.1,0l0,0.1c-0.1,0.2-0.3,0.4-0.5,0.5
				c-0.2,0.1-0.4,0.3-0.6,0.4c-0.5,0.2-1,0.4-1.5,0.6l-0.1,0l0,0.1c0,0.2,0,0.5-0.1,0.7c0,0.2-0.1,0.4-0.2,0.6
				c0,0.1-0.1,0.1-0.2,0.2c-0.1,0.1-0.2,0.1-0.3,0.2c-0.1,0.1-0.2,0.2-0.2,0.4C-2,96-2,96.2-2,96.3c0,1-0.1,1.9-0.1,2.9
				c0,0.5,0,1,0,1.5c0,0.1,0,0.1,0,0.2c0,0,0,0.1,0,0.1c0,0,0,0,0,0.1l0,0c0,0.1,0,0.2,0.1,0.4c0.1,0.1,0.3,0.2,0.4,0.2
				c0.1,0,0.2,0,0.4,0c0.5,0.1,1,0.2,1.4,0.3l1.5,0.4l1.3-1.1c0.3,0.1,0.6,0.1,0.9,0.1c0.2,0,0.3-0.1,0.5-0.2
				c0.1-0.1,0.3-0.2,0.4-0.3c0.2-0.2,0.5-0.4,0.8-0.5c0.3-0.1,0.6-0.1,0.9-0.1c0.6,0,1.2,0,1.8,0.1c0.6,0,1.2,0.1,1.8,0.1l0.1,0
				l0-0.1c0.3-0.4,0.6-0.8,0.9-1.2c0.1-0.2,0.3-0.4,0.4-0.6c0.1-0.2,0.2-0.4,0.3-0.6l16.5-5c0.3-0.1,0.7-0.2,1-0.3
				c0.4-0.1,0.7-0.2,1.1-0.3c0.2-0.1,0.4-0.2,0.5-0.3c0.1-0.1,0.2-0.1,0.2-0.3c0-0.1,0.1-0.1,0.1-0.2l0-0.1l0.2-1.1
				c0.1-0.3,0.2-0.7,0.3-1c0,0,0-0.1,0.1-0.1l0.1-0.1c0-0.1,0.1-0.2,0.1-0.3c0.1-0.2,0.1-0.3,0.2-0.5c0.3-0.7,0.5-1.4,0.7-2
				c0.9-2.6,1.8-5.1,2.7-7.7c0.7,0.6,1.3,1.2,1.9,1.8c0.4,0.4,0.7,0.7,1.1,1.1c0.2,0.2,0.3,0.4,0.5,0.6c0.1,0.1,0.1,0.2,0.2,0.3
				l0.2,0.3c0.5,0.9,0.9,1.8,1.4,2.8c0.4,0.9,0.9,1.9,1.3,2.8c0.4,0.9,0.8,1.9,1.2,2.9c0.2,0.5,0.4,1,0.6,1.4c0.2,0.5,0.4,1,0.6,1.5
				c0.8,1.8,1.8,3.6,2.8,5.3c-2.9,3.6-5.5,7.5-7.9,11.4c-0.3,0.5-0.6,1-0.9,1.5l-0.4,0.8c-0.2,0.3-0.3,0.5-0.4,0.8
				c-0.3,0.6-0.5,1.1-0.6,1.7c-0.2,0.6-0.3,1.2-0.2,1.9c0,0.3,0,0.6,0.1,1c0,0.2,0.1,0.3,0.1,0.5l0.1,0.4l0.6,1.7
				c0.4,1.1,0.8,2.2,1.2,3.3c0.2,0.6,0.4,1.1,0.7,1.7c0.1,0.1,0.2,0.3,0.3,0.4c0.1,0.1,0.1,0.1,0.2,0.2c0.1,0.1,0.1,0.1,0.2,0.2
				c0.3,0.2,0.5,0.4,0.8,0.5c0.5,0.3,1,0.6,1.6,0.9c0.3,0.1,0.6,0.2,0.9,0.3c0.2,0,0.3,0.1,0.6,0.1c0.1,0,0.1,0,0.2,0l0.1,0
				c0.1,0,0.1,0,0.2,0c1.1-0.2,2.3-0.3,3.5-0.4c0.3,0,0.6,0,0.9,0c0.1,0,0.3,0,0.4,0c0.1,0,0.3,0,0.4,0c0.6,0.1,1.1,0.2,1.7,0.3
				c1.1,0.2,2.3,0.5,3.5,0.7c0.6,0.1,1.2,0.2,1.8,0.3c0.3,0,0.6,0.1,0.9,0.1c0.2,0,0.3,0,0.5,0c0.2,0,0.4,0,0.5-0.1
				c1.2-0.3,2.3-0.6,3.5-1c1-0.3,2.1-0.7,3.1-1.1l11.6,8.8c0.4,0.5,0.9,0.9,1.3,1.2c0.5,0.4,0.9,0.8,1.4,1.1c0.9,0.7,1.9,1.4,2.8,2
				c0.7,1.2,1.6,2.2,2.5,3.2c0.9,1,1.9,1.9,2.9,2.8c2,1.8,4.1,3.5,6.3,5.1l0.8,0.6l0.4,0.3c0.1,0.1,0.2,0.2,0.3,0.3
				c0.5,0.4,0.9,0.9,1.4,1.4c0.9,1,1.7,2,2.6,3c0.8,1,1.7,2.1,2.5,3.1c0.2,0.3,0.4,0.5,0.6,0.8l0.1,0.1l0,0c0,0.1,0.1,0.2,0.1,0.2
				c0.1,0.2,0.1,0.3,0.2,0.4c0.1,0.1,0.1,0.3,0.2,0.4c0,0.1,0,0.1,0,0.2l0,0.1c0,0.1,0,0.2,0.1,0.3c0.2,0.3,0.4,0.5,0.5,0.6
				c0.1,0.1,0.2,0.1,0.3,0.2l3.5,6.9l0.9,1.8l0.5,0.9l0.1,0.2l0.1,0.2l0.2,0.4c0.3,0.6,0.6,1.2,0.8,1.8c0,0.1,0,0.1,0.1,0.2l0.1,0.2
				c0.1,0.2,0.1,0.4,0.2,0.6c0.2,0.3,0.3,0.5,0.5,0.8c0.1,0.8,0.2,1.5,0.4,2.3c0.1,0.4,0.2,0.8,0.3,1.2l0.1,0.3
				c0,0.1,0.1,0.2,0.1,0.3c0.1,0.2,0.2,0.4,0.4,0.6c0.5,0.8,1.2,1.3,1.9,1.8c0.7,0.5,1.4,0.9,2.2,1.3l0.2,0.1l0.2-0.1l2.8-0.8
				l0.2-0.1l0.1-0.1c0.2-0.3,0.4-0.6,0.6-0.9c0.2-0.3,0.4-0.6,0.6-1c0.4-0.7,0.7-1.3,0.9-2c0.5-1.4,0.9-2.8,1.1-4.3
				c0.1-0.7,0.2-1.5,0.2-2.2C123.4,174.2,123.4,173.8,123.3,173.4z M102.7,161.6C102.7,161.6,102.7,161.6,102.7,161.6L102.7,161.6
				C102.7,161.6,102.7,161.6,102.7,161.6C102.7,161.6,102.7,161.6,102.7,161.6z M122.1,176.6c-0.2,1.4-0.5,2.7-1,4
				c-0.3,0.6-0.6,1.3-0.9,1.9c-0.3,0.6-0.6,1.1-1,1.6l-2.3,0.6c-0.6-0.3-1.2-0.7-1.8-1.1c-0.6-0.5-1.2-1-1.6-1.5
				c-0.1-0.1-0.2-0.3-0.3-0.4c0-0.1-0.1-0.1-0.1-0.2l-0.1-0.3c-0.1-0.4-0.2-0.8-0.3-1.1c-0.2-0.8-0.3-1.6-0.3-2.3l0-0.2l-0.1-0.2
				c-0.2-0.2-0.4-0.5-0.5-0.7c-0.1-0.1-0.1-0.2-0.1-0.3l-0.1-0.3c0-0.1-0.1-0.2-0.1-0.3c-0.2-0.7-0.5-1.3-0.8-1.9l-0.2-0.5l-0.1-0.2
				c0,0-0.1-0.1-0.1-0.1l0-0.1l-0.5-0.9l-0.9-1.8l-3.6-7.1l-0.1-0.2l-0.2-0.1c-0.1,0-0.2-0.1-0.3-0.2c-0.1,0-0.1-0.1-0.1-0.1
				c0,0,0-0.1,0-0.1c0-0.1,0-0.2-0.1-0.3c-0.1-0.2-0.1-0.4-0.2-0.5c-0.1-0.2-0.1-0.3-0.2-0.5l-0.1-0.2l0-0.1c0,0,0-0.1-0.1-0.1
				l0-0.1l-0.1-0.1c-0.2-0.3-0.4-0.5-0.6-0.8c-0.8-1.1-1.7-2.1-2.5-3.2c-0.9-1-1.7-2.1-2.6-3.1c-0.5-0.5-0.9-1-1.4-1.5
				c-0.1-0.1-0.3-0.2-0.4-0.4l-0.4-0.3l-0.8-0.6c-2.1-1.6-4.2-3.3-6.2-5.1c-1-0.9-2-1.8-2.9-2.8c-0.9-1-1.8-2-2.4-3l-0.1-0.1
				l-0.1-0.1c-1-0.7-1.9-1.3-2.9-2c-0.5-0.4-0.9-0.7-1.4-1.1c-0.4-0.4-0.9-0.8-1.2-1.2l0-0.1l0,0l-11.9-9l0-0.2l-0.3,0.1
				c-1.1,0.4-2.5,0.8-3.6,1.2c-1.1,0.4-2.2,0.7-3.3,1c-0.5,0.1-1,0.1-1.6,0c-0.6-0.1-1.1-0.2-1.7-0.3c-1.1-0.2-2.3-0.5-3.5-0.7
				c-0.6-0.1-1.2-0.2-1.8-0.3c-0.2,0-0.3,0-0.5-0.1c-0.2,0-0.3,0-0.5,0c-0.3,0-0.6,0-0.9,0c-1.2,0.1-2.4,0.2-3.6,0.4
				c-0.1,0-0.2,0-0.2,0l-0.1,0c0,0,0,0,0,0c0,0,0,0,0,0c-0.1,0-0.2,0-0.3,0c-0.2-0.1-0.5-0.1-0.8-0.3c-0.5-0.2-1-0.5-1.5-0.8
				c-0.2-0.2-0.5-0.3-0.7-0.5c0,0-0.1-0.1-0.1-0.1c0,0-0.1-0.1-0.1-0.1c-0.1-0.1-0.1-0.2-0.2-0.3c-0.3-0.5-0.5-1-0.7-1.6
				c-0.4-1.1-0.8-2.2-1.2-3.3l-0.6-1.7l-0.2-0.4c0-0.1-0.1-0.2-0.1-0.4c-0.1-0.3-0.1-0.5-0.1-0.8c0-1.1,0.3-2.2,0.8-3.2
				c0.1-0.3,0.2-0.5,0.4-0.8l0.4-0.8c0.3-0.5,0.6-1,0.9-1.5c2.4-4,5-8,7.9-11.6l0.2-0.2l-0.1-0.2c-1-1.8-2-3.6-2.9-5.5
				c-0.2-0.5-0.4-0.9-0.6-1.4c-0.2-0.5-0.4-1-0.6-1.5c-0.4-1-0.8-1.9-1.2-2.9c-0.4-0.9-0.9-1.9-1.3-2.8c-0.4-0.9-0.9-1.9-1.4-2.8
				l-0.2-0.4c-0.1-0.1-0.2-0.2-0.2-0.3c-0.2-0.2-0.3-0.4-0.5-0.6c-0.4-0.4-0.7-0.8-1.1-1.1c-0.7-0.7-1.5-1.4-2.3-2.1l-0.3-0.3
				l-0.1,0.4c-0.9,2.7-1.8,5.4-2.8,8.2c-0.2,0.7-0.5,1.4-0.7,2l-0.2,0.5c0,0.1-0.1,0.2-0.1,0.2l0,0l0,0.1c0,0,0,0.1-0.1,0.1
				c-0.2,0.4-0.2,0.7-0.3,1.1l-0.2,1.1l0,0.1c0,0,0,0,0,0.1c0,0-0.1,0.1-0.1,0.1c-0.1,0.1-0.3,0.2-0.4,0.2c-0.3,0.1-0.7,0.2-1,0.3
				c-0.4,0.1-0.7,0.2-1,0.3l-16.5,5.2l-0.1,0l0,0c-0.1,0.2-0.2,0.4-0.3,0.7c-0.1,0.2-0.3,0.4-0.4,0.6c-0.3,0.4-0.6,0.8-0.8,1.2
				c-0.6,0-1.2-0.1-1.8-0.1c-0.6,0-1.2,0-1.9,0c-0.2,0-0.3,0-0.5,0c-0.2,0-0.3,0-0.5,0.1c-0.3,0.1-0.6,0.3-0.8,0.5
				c-0.2,0.2-0.5,0.4-0.8,0.4c-0.3,0-0.6,0-0.9-0.1l0,0l0,0l-1.3,1.1c0,0,0,0-0.1,0l-0.1,0l-0.2,0L1,102l-0.7-0.2
				c-0.5-0.1-1-0.2-1.4-0.3c-0.1,0-0.3,0-0.4,0c-0.1,0-0.2,0-0.3-0.1c0-0.1,0-0.2-0.1-0.3c-0.1-0.1,0-0.2,0-0.3c0-0.5,0-1,0.1-1.5
				c0-1,0.1-1.9,0.2-2.9c0-0.3,0-0.4,0.2-0.6c0.2-0.2,0.4-0.2,0.6-0.5c0.1-0.2,0.2-0.5,0.2-0.7c0-0.2,0-0.4,0.1-0.6
				c0.5-0.1,0.9-0.3,1.4-0.5C1,93.2,1.2,93,1.4,92.9c0.2-0.1,0.4-0.3,0.5-0.6c2.1-0.2,4.2-0.6,6.3-1c2.1-0.4,4.2-1,6.2-1.8
				c0.5-0.2,1-0.4,1.5-0.7c0.5-0.3,0.9-0.6,1.4-0.9l2.6-1.8c0.9-0.6,1.8-1.2,2.6-1.8c0.9-0.6,1.8-1.1,2.8-1.5l0.2-0.1l0-0.2
				c0.5-4.6,1-9.2,1.5-13.8c0.1-1.3-0.2-2.1,0-3.4c0.1-0.7,0.6-1.9,0.7-2.6c0.3-2.3,0.5-4.5,0.8-6.8c0.1-0.7,0.2-1.5,0.3-2.2
				c0-0.1,0-0.2,0.1-0.3l0,0c0,0,0,0,0,0l0.1-0.1l0.2-0.5c0.1-0.3,0.3-0.7,0.4-1c0.3-0.6,0.7-1.2,1.3-1.6c0.5-0.4,1.2-0.8,1.8-1
				l0.3-0.1L33,48.7c-0.1-0.5-0.2-1-0.2-1.4c0-0.2,0-0.5,0-0.7c0-0.3,0-0.5-0.1-0.8c-0.1-0.5-0.3-1-0.6-1.5
				c-0.2-0.2-0.4-0.5-0.6-0.6c-0.1-0.1-0.3-0.2-0.4-0.2c-0.2-0.1-0.3-0.1-0.5-0.1c-0.4,0-0.5,0.1-0.7,0.1c-0.2,0-0.4-0.1-0.6-0.2
				c-0.1,0-0.2-0.1-0.2-0.1c0,0-0.1-0.1-0.2-0.2c-0.1-0.1-0.2-0.2-0.4-0.3c-0.1,0-0.2-0.1-0.2-0.1c-0.2,0-0.3,0-0.5,0
				c-0.2,0-0.4,0-0.6,0.1c-0.2,0.1-0.3,0.3-0.4,0.4c-0.1,0.1-0.1,0.1-0.1,0.1c0,0-0.1,0-0.2,0c-0.4,0-0.7-0.3-0.9-0.6
				c-0.2-0.3-0.3-0.8-0.4-1.2c0-0.4,0-0.9,0.1-1.4c0.1-0.5,0.2-0.8,0.5-1.2c0.3-0.4,0.6-0.9,0.8-1.3c0.1-0.2,0.2-0.5,0.3-0.7
				c0.1-0.3,0.1-0.5,0.2-0.8c0.1-0.5,0.1-1,0.1-1.6c0-0.5-0.1-1-0.2-1.5c-0.1-0.3-0.1-0.5-0.2-0.7c0-0.1-0.1-0.2-0.1-0.4
				c-0.1-0.1-0.1-0.2-0.2-0.4l-0.1-0.1l-0.2-0.1c-0.9-0.3-1.8-0.8-2.6-1.3c-0.4-0.3-0.7-0.6-0.9-1c-0.1-0.2-0.1-0.3-0.1-0.6
				c0-0.2,0-0.4,0.1-0.6c0.2-0.9,0.7-1.7,1.2-2.6c0.5-0.9,1-1.8,1.4-2.7l0-0.1l0-0.1c0.1-0.8,0.2-1.6,0.5-2.3
				c0.1-0.2,0.1-0.4,0.2-0.5l0.1-0.1l0-0.1l0.1-0.1c0.1-0.1,0.1-0.2,0.2-0.3c0.2-0.5,0.2-0.9,0.2-1.4c0-0.2,0-0.4,0-0.6
				c0-0.1,0-0.1,0-0.1c0,0,0,0,0.1-0.1c0.3-0.2,0.7-0.4,1.1-0.6c0.4-0.2,0.7-0.5,1.1-0.8c0.3-0.3,0.7-0.6,0.9-1.1l0,0
				c0,0-0.2-0.8,0.3-1.8l0.2-0.4c0.4-0.7,1.2-1.4,2.4-2c0.5-0.3,1.1-0.6,1.7-0.7c0.6-0.1,1.2-0.1,1.8,0c0.6,0.1,1.2,0.4,1.7,0.7
				L38,10l0.1,0c0.5,0,0.9,0,1.3,0c0.4,0,0.9-0.1,1.3-0.2c0.4-0.1,0.9-0.2,1.3-0.4c0.3-0.1,0.7-0.3,1-0.5c1.5,0.5,3,1,4.5,1.5
				c0.8,0.2,1.6,0.5,2.5,0.7c0.2,0,0.5,0.1,0.6,0.1c0.2,0,0.3,0.1,0.4,0.1c0.1,0.1,0.1,0.1,0.2,0.3c0,0.1,0.1,0.3,0.1,0.4
				c0,0,1.7,0.6,3.1,1.8c0,0,0.1,0.1,0.2,0.1c0.4,0.3,0.6,0.5,0.8,0.8c0.4,0.5,0.7,0.9,0.9,1.5c0.1,0.2,0.2,0.4,0.3,0.7
				c0.1,0.2,0.1,0.4,0.2,0.7c0.1,0.2,0.1,0.5,0.2,0.7c0.3,0.9,0.6,1.9,1,2.8c0.7,1.8,1.5,3.6,2.4,5.3c0.4,0.9,0.8,1.8,1.4,2.6
				c0.5,0.8,1.2,1.6,2,2.3c0.8,0.7,1.7,1.1,2.7,1.5c0.5,0.2,1,0.3,1.5,0.3c0.3,0,0.5,0.1,0.7,0.1c0.2,0,0.4,0.1,0.6,0.2
				c0.8,0.3,1.5,0.9,2.1,1.6c0.6,0.7,1,1.5,1.4,2.4c0.4,0.9,0.6,1.8,0.8,2.7c0.1,0.5,0.2,0.9,0.2,1.4c0.1,0.5,0.1,0.9,0.1,1.3
				c-0.1,0.9-0.4,1.8-0.8,2.6c-0.4,0.8-1.1,1.5-1.8,1.8L70.7,47l0.2,0.4l8.8,16.7l0.1,0.3l0.4-0.1l4.5-2.1l0,0l0,0
				c0.8-0.6,1.5-1.3,2.3-2c0.7-0.7,1.4-1.4,2-2.2c0.6-0.8,1.2-1.6,1.7-2.5c0.3-0.4,0.5-0.9,0.7-1.3c0.2-0.5,0.4-0.9,0.5-1.4l0-0.2
				L92,52.4l-3.1-2.8c-0.1-0.5-0.2-1-0.3-1.5c-0.1-0.5-0.3-1-0.5-1.6c-0.1-0.3-0.2-0.5-0.3-0.8c-0.1-0.2-0.2-0.4-0.1-0.7
				c0-0.4,0.4-0.9,0.8-1.2l0.1-0.1l0-0.1l0.1-1c0.6-0.9,1.1-1.8,1.8-2.6c0.2-0.2,0.3-0.4,0.5-0.6c0.2-0.2,0.3-0.3,0.5-0.4
				c0.2,0,0.4,0,0.6,0.2c0.2,0.1,0.4,0.3,0.5,0.5l0,0l0,0c0.1,0.1,0.2,0.1,0.3,0.1c0.1,0,0.2,0,0.3,0c0.1,0,0.1,0,0.2,0l0.1,0
				c0.1,0,0.1,0,0.2,0c0.3,0.1,0.6,0.4,0.8,0.6c0.1,0.3,0.3,0.5,0.5,0.7c0.1,0.1,0.3,0.2,0.4,0.2c0.1,0,0.2,0,0.2,0
				c0.1,0,0.1,0,0.2,0c0.2,0,0.4,0.1,0.6,0.3c0.2,0.1,0.3,0.3,0.5,0.5c0.1,0.1,0.1,0.2,0.2,0.3c0.1,0.1,0.1,0.2,0.3,0.3
				c0.1,0.1,0.3,0.2,0.4,0.2c0.1,0,0.1,0,0.2,0.1c0,0,0.1,0,0.1,0c0.2,0.1,0.3,0.3,0.4,0.5c0,0.1,0.1,0.2,0.1,0.3c0,0.1,0,0.1,0,0.2
				l0,0.1l0,0.1c0,1.1,0,2.1,0,3.1l0.1,3.1c0,0.2-0.1,0.4-0.1,0.6c-0.1,0.2-0.1,0.4-0.2,0.6c-0.1,0.4-0.4,0.7-0.6,1l0,0l0,0
				c-0.7,2.3-1.5,4.5-2.4,6.7c-0.9,2.2-1.9,4.3-3.1,6.4c-0.6,1-1.2,2-1.9,3c-0.3,0.5-0.7,1-1.1,1.4L89,70.9l-0.3,0.3
				c-0.2,0.2-0.4,0.4-0.6,0.6c-0.9,0.8-1.8,1.6-2.7,2.3c-1,0.7-2,1.3-3.1,1.7l0,0l0,0c-0.4,0.2-0.7,0.4-1.1,0.6
				c-0.4,0.2-0.7,0.4-1,0.7c-0.1,0.1-0.2,0.2-0.2,0.2c-0.1,0-0.1,0.1-0.2,0.1c-0.2,0-0.3,0-0.5,0c-0.4-0.1-0.7-0.2-1-0.4
				c-1.1-1.7-2.2-3.3-3.5-4.9c-0.3-0.4-0.6-0.8-1-1.1c-0.3-0.3-0.7-0.7-1-1.1c-0.7-0.7-1.3-1.5-2-2.3c-1.3-1.5-2.6-3.1-3.9-4.6
				c-0.6-0.8-1.3-1.6-1.9-2.4c-0.3-0.4-0.6-0.8-0.9-1.2c-0.3-0.4-0.6-0.8-0.8-1.2L63,57.5l-0.1,0.7c-0.2,2.1-0.5,4.1-0.8,6.2
				l-0.4,3.1c-0.1,1-0.3,2.1-0.5,3.1c-0.1,0.5-0.1,1.1,0,1.7c0.1,0.5,0.3,1.1,0.6,1.5c0.5,1,1.2,1.8,2,2.5c0.8,0.7,1.7,1.3,2.6,1.9
				c0.9,0.6,1.8,1.1,2.8,1.5l0,0l0,0c1.3,0.3,2.6,0.8,3.8,1.3c1.2,0.5,2.5,1.1,3.6,1.8c1.1,0.7,2.2,1.5,3.1,2.5
				c0.5,0.5,0.8,1,1.2,1.6c0.3,0.6,0.7,1.2,0.9,1.8c1.1,2.4,1.7,5.1,2,7.8c0.1,1.3,0.1,2.7-0.1,4c-0.2,1.3-0.4,2.6-1,3.8
				c-0.3,0.4-0.6,0.9-1,1.3c-0.4,0.4-0.8,0.8-1.2,1.2c-0.4,0.4-0.9,0.7-1.3,1c-0.5,0.3-1,0.6-1.4,0.8l-0.4,0.2l0.2,0.4l2.5,4.9
				l0.1,0.2l0.2,0c0.1,0,0.2,0.1,0.4,0.1c0.1,0,0.2,0.1,0.4,0.2c0.2,0.1,0.5,0.3,0.6,0.5c0.2,0.2,0.4,0.4,0.5,0.6l0.1,0.2l0.1,0.2
				c0.1,0.1,0.2,0.3,0.2,0.4c0.3,0.5,0.7,1.1,1.1,1.5c0.4,0.5,0.9,0.9,1.4,1.3c0.3,0.2,0.6,0.4,0.9,0.5c0.3,0.1,0.6,0.2,0.9,0.2
				c0.6,0.1,1.2,0.2,1.8,0.3c0.6,0.1,1.2,0.3,1.7,0.5c0.6,0.2,1.1,0.4,1.5,0.7c0.1,0.1,0.2,0.2,0.3,0.3c0.1,0.1,0.2,0.2,0.3,0.3
				c0.2,0.2,0.4,0.5,0.6,0.7c0.4,0.5,0.7,1,1,1.5c0.3,0.5,0.6,1,0.9,1.6c0.3,0.5,0.5,1.1,0.7,1.6c0,0.1,0.1,0.3,0.1,0.4l0.1,0.4
				c0,0.3,0.1,0.6,0.1,0.9c0.1,0.6,0.1,1.2,0.2,1.8c0.1,1.2,0.2,2.4,0.3,3.7l0,0.2l0.2,0.1c0.8,0.6,1.5,1.4,2.2,2.2
				c0.6,0.8,1.2,1.7,1.5,2.7c0.1,0.2,0.2,0.5,0.2,0.7c0.1,0.3,0.1,0.5,0.2,0.8c0.1,0.5,0.3,1.1,0.5,1.6c0.3,1,0.7,2.1,1.1,3.1
				c0.4,1,0.9,2,1.5,3l0.2,0.4l0.3,0.4c0.2,0.2,0.3,0.4,0.5,0.6c0.4,0.4,0.7,0.8,1.1,1.2c0.8,0.8,1.7,1.5,2.8,2
				c0.1,0.1,0.3,0.1,0.4,0.2l0.4,0.1c0.2,0.1,0.4,0.2,0.6,0.3c0.2,0.1,0.4,0.2,0.5,0.4c0.1,0.1,0.1,0.2,0.2,0.2c0,0,0.1,0.1,0.1,0.1
				l0,0.1c0,0,0,0,0,0l0.4,0.3c0.7,0.1,1.3,0.3,2,0.5c0.3,0.1,0.6,0.3,0.9,0.4c0.3,0.2,0.6,0.4,0.8,0.6c0.5,0.4,1,0.9,1.3,1.5
				c0.2,0.3,0.3,0.6,0.4,0.8c0.1,0.3,0.1,0.6,0.1,1c0,0.7,0,1.5,0.1,2.2c0.1,0.7,0.2,1.5,0.5,2.2c0.1,0.4,0.3,0.7,0.4,1.1
				c0.1,0.2,0.2,0.3,0.2,0.5l0.3,0.5c0.3,0.6,0.7,1.3,1,1.9c0.7,1.3,1.4,2.5,2.1,3.8c0.1,0.2,0.2,0.3,0.2,0.4l0,0.1l0,0.1
				c0,0.1,0,0.1,0,0.2c0,0.3,0,0.7,0,1C122.2,175.3,122.2,176,122.1,176.6z"/>
			<path class="st15" d="M70.4,47.2l2.1-0.3c0,0-1.2,0.7-2,0.8C69.6,47.7,70.4,47.2,70.4,47.2z"/>
			<path class="st15" d="M35.5,78.2c-0.7-0.7-1.4-1.5-2-2.3c-0.3-0.4-0.6-0.8-0.9-1.3c-0.3-0.4-0.5-0.7-0.7-1.2l0.1,0
				c-0.5-0.1-0.9-0.3-1.4-0.4c-0.5-0.2-0.9-0.4-1.3-0.7c-0.8-0.5-1.6-1.2-2.1-2.1c-0.5-0.9-0.8-1.9-0.7-2.9c0-1,0.1-1.9,0.4-2.9
				c0.2-0.9,0.7-1.9,1.1-2.7c0.5-0.8,1-1.6,1.5-2.4c0.1-0.2,0.2-0.4,0.3-0.6c0.1-0.2,0.2-0.4,0.3-0.6c0.2-0.4,0.4-0.9,0.6-1.3
				c0.2-0.4,0.4-0.9,0.5-1.3c0.1-0.4,0.3-0.9,0.3-1.4c0,0.5,0,1-0.1,1.4c-0.1,0.5-0.2,0.9-0.4,1.4c-0.1,0.5-0.3,0.9-0.5,1.3
				c-0.1,0.2-0.2,0.4-0.3,0.7c-0.1,0.2-0.2,0.4-0.3,0.7c-0.4,0.9-0.9,1.7-1.4,2.5c-0.2,0.4-0.4,0.8-0.6,1.2
				c-0.2,0.4-0.3,0.9-0.4,1.3c-0.2,0.9-0.3,1.8-0.3,2.7c0,0.9,0.2,1.7,0.6,2.5c0.9,1.5,2.6,2.5,4.3,3l0.1,0l0.1,0.1
				c0.2,0.5,0.4,0.9,0.7,1.3c0.2,0.4,0.5,0.9,0.8,1.3c0.5,0.7,1.6,2,1.6,2C35.4,77.8,35.4,78,35.5,78.2z"/>
		</g>
	</g>
</g>
</svg>
