<?xml version="1.0" encoding="utf-8"?>
<!-- Generator: Adobe Illustrator 23.1.1, SVG Export Plug-In . SVG Version: 6.00 Build 0)  -->
<svg version="1.1" id="Capa_1" xmlns="http://www.w3.org/2000/svg" xmlns:xlink="http://www.w3.org/1999/xlink" x="0px" y="0px"
	 viewBox="0 0 94 80" style="enable-background:new 0 0 94 80;" xml:space="preserve">
<style type="text/css">
	.st0{fill:#1DCE58;}
	.st1{fill:#FFFFFF;}
	.st2{clip-path:url(#SVGID_2_);}
	.st3{fill:#E5E6E7;}
	.st4{fill:#4BB48E;}
	.st5{fill:#FCE6D6;}
	.st6{fill:#DAAE90;}
	.st7{fill:#079B6D;}
	.st8{fill:#008B61;}
	.st9{fill:#616160;}
	.st10{fill:#31AE80;}
	.st11{fill:#97CFBD;}
	.st12{fill:#15AA77;}
	.st13{fill:#0C9A68;}
	.st14{fill:#F6D6C0;}
	.st15{fill:#08A975;}
	.st16{opacity:0.47;fill:#31AE80;}
	.st17{fill:#8DCAB5;}
	.st18{fill:#58B78F;}
	.st19{fill:#7BC3A8;}
	.st20{fill:#01865D;}
	.st21{opacity:0.42;fill:#15AA77;}
	.st22{fill:#3DAF7C;}
	.st23{fill:#878788;}
	.st24{fill:#777777;}
	.st25{opacity:0.36;fill:#09A873;}
	.st26{opacity:0.43;fill:#A7D4C0;}
	.st27{opacity:0.22;fill:#A7D4C0;}
	.st28{opacity:0.79;fill:#7DC3A1;}
	.st29{opacity:0.54;fill:#58B78F;}
	.st30{opacity:0.15;fill:#58B78F;}
	.st31{opacity:0.32;fill:#2A9161;}
	.st32{opacity:0.16;fill:#11673E;}
	.st33{fill:#4FB487;}
	.st34{opacity:0.35;fill:#58B78F;}
	.st35{opacity:0.1;fill:#58B78F;}
	.st36{opacity:0.18;fill:#58B78F;}
	.st37{opacity:0.25;fill:#58B78F;}
	.st38{opacity:0.19;fill:#58B78F;}
	.st39{opacity:0.21;fill:#58B78F;}
	.st40{opacity:0.22;fill:#58B78F;}
	.st41{opacity:0.78;}
	.st42{fill:#E4E795;}
	.st43{fill:#B289BD;}
	.st44{fill:url(#SVGID_3_);}
	.st45{opacity:0.72;fill:#FFFFFF;}
	.st46{fill:#79398C;}
	.st47{opacity:0.43;fill:#8E529B;}
	.st48{fill:url(#SVGID_4_);}
	.st49{fill:url(#SVGID_5_);}
	.st50{fill:url(#SVGID_6_);}
	.st51{opacity:0.78;fill:#E4E795;}
	.st52{fill:url(#SVGID_7_);}
	.st53{fill:url(#SVGID_8_);}
	.st54{fill:url(#SVGID_9_);}
	.st55{fill:url(#SVGID_10_);}
	.st56{fill:url(#SVGID_11_);}
	.st57{fill:url(#SVGID_12_);}
	.st58{fill:url(#SVGID_13_);}
	.st59{fill:url(#SVGID_14_);}
</style>
<g>
	<g>
		<g>
			<g>
				<g>
					<path class="st0" d="M79,11.1c-0.6-0.5-1.4-0.5-2,0c-0.5,0.6-0.5,1.4,0,2c1.3,1.3,2.5,2.7,3.7,4.1l-0.1,0.3L79.9,20l2.5,0.2
						l0.4,0c4.1,6.2,6.5,13.4,7,21l-0.6,0.5l-1.9,1.6l1.9,1.6l0.6,0.5c-0.3,7.3-2.3,14.3-6,20.4l-1,0.1L80.5,66l0.7,2.4l0.3,1
						c-1.3,1.8-2.8,3.5-4.4,5.1c-0.6,0.5-0.6,1.4,0,2c0.3,0.3,0.6,0.4,1,0.4c0.4,0,0.7-0.1,1-0.4c8.9-8.7,13.8-20.3,13.8-32.7
						C92.8,31.4,87.9,19.8,79,11.1z"/>
				</g>
				<g>
					<path class="st0" d="M17,11.2c-0.5-0.6-1.4-0.6-2,0C6.1,19.8,1.2,31.4,1.2,43.8c0,12.4,4.9,24,13.8,32.7c0.3,0.3,0.6,0.4,1,0.4
						c0.4,0,0.7-0.1,1-0.4c0.5-0.6,0.5-1.4,0-2c-1.6-1.6-3.1-3.3-4.5-5.1l0.3-1l0.7-2.4l-2.5-0.2l-0.9-0.1c-3.7-6.2-5.7-13.2-6-20.5
						l0.5-0.4l1.9-1.6l-1.9-1.6l-0.5-0.4c0.4-7.6,2.9-14.8,7-21.1l0.3,0L14,20l-0.7-2.4l-0.1-0.3c1.2-1.5,2.4-2.9,3.7-4.2
						C17.5,12.6,17.5,11.7,17,11.2z"/>
				</g>
			</g>
		</g>
	</g>
	<g>
		<g>
			<path class="st1" d="M47.4,79.5c-19.8,0-36-16.1-36-36s16.1-36,36-36c19.8,0,36,16.1,36,36S67.2,79.5,47.4,79.5z M47.4,8.6
				c-19.3,0-35,15.7-35,35c0,19.3,15.7,35,35,35c19.3,0,35-15.7,35-35C82.4,24.3,66.7,8.6,47.4,8.6z"/>
		</g>
	</g>
	<g>
		<defs>
			<path id="SVGID_1_" d="M82.4,43.3c0,19.3-15.7,35-35,35s-35-15.7-35-35S26,1.2,45.3,1.2S82.4,24,82.4,43.3z"/>
		</defs>
		<clipPath id="SVGID_2_">
			<use xlink:href="#SVGID_1_"  style="overflow:visible;"/>
		</clipPath>
		<g class="st2">
			<ellipse class="st3" cx="46.6" cy="283.6" rx="30" ry="4.5"/>
			<path class="st4" d="M14.6,96.4c0,0-5.1,9-6.6,9.7c-1.5,0.6-5.5,1.9-8.8-0.1c-3.3-2-8-4.6-10.4-7s-6-5.8-6.3-6.2
				c-0.3-0.3-5.3-6.9-5.6-7.4s-4.8-8.2-4.8-8.2l-3.2-6.2l-0.7-1.9l6.9-7.8c0,0,4.9,11.1,11.5,18C-6.9,86.2,2.7,91,2.7,91l2.8-3.8
				l2.4-5.3l3,1.4L14.6,96.4z"/>
			<path class="st4" d="M99.1,104.4c0,0,5.4,5,8.5,5.5c3.1,0.6,8.4,1,11.9-1.3l4.4-4.1l4.8-6.7l4.5-7.1l5-10.6
				c0,0,3.1-10.1,3.1-10.6s0.7-6.7,0.7-6.7s0.1-11.1-1-12.2s-3.8-4.7-5.1-5.2c-1.3-0.6-3,0.6-2.8,1c0.1,0.4,1,13.5,1,13.5l-1.8,9.2
				l-3.3,7.1l-4.3,7.2c0,0-4.7,5.5-5.2,6.2c-0.6,0.7-4.3,3.8-4.7,4.3s-2,1.3-2.4,1.3l-2.3-0.1l-5.1-2l-4.4,5.7L99.1,104.4z"/>
			<path class="st5" d="M36.5,45.6c0,0,0.3-3.7-0.5-4.7S33.5,35,32.9,30c0,0,0.3,0.3,1,0.3c0.7,0,7.6-1,9.6-1s6.1,0.5,6.1,0.5
				s3.9,0.3,5.5,0.9c0,0,0,5.4-2.5,10l-0.2,4.8L36.5,45.6z"/>
			<path class="st6" d="M40.1,35.9c0,0,0.8-0.3,1.8-0.4c0.8-0.1,0.7,0,2.9,0c2.2,0,2.2,0.1,3,0.5c0,0-1.6-1.5-2.3-1.7
				c-0.9-0.3-1.1,0.6-2.1,0.2l-0.1,0c-0.1-0.1-0.6-0.4-1.8,0.5C40.7,35.5,40.7,35.6,40.1,35.9z"/>
			<path class="st6" d="M41.4,36.6c0,0,1.4,0.5,2.8,0.4c1.3-0.1,2.2-0.2,2.4-0.4s-0.3,1.5-2.6,1.5C42.7,38.2,41.6,37.4,41.4,36.6z"
				/>
			<path class="st6" d="M41.7,31.4c0,0,0.3,0.5,1,0.5c0,0,0.6,0.1,1.1,0.6c0.4,0.3,0.9-0.1,1.1-0.4c0.3-0.2,0.9,0,1.3-0.4
				c0.4-0.4,0-0.6,0-0.6s-1.2,0.4-2.2,0.4c-1-0.1-0.8-0.1-1.4-0.3C42,30.9,41.7,31.4,41.7,31.4z"/>
			<path class="st7" d="M32.9,30c0,0-0.4-5,0.4-7.8c0.9-2.8,2.3-5.5,2.6-5.9s2.3-2.2,2.3-2.2l0.8,2.8l1.6,4.5l3.8,4.8l4,3.5
				c0,0-3-4.5-3.6-5.4s-2.7-4.5-3.4-6.8s-0.8-2.9-0.8-2.9s3,6.7,5.8,9l-1.2-3l-2.3-5.8l1.8,2.3l2.7,3.1l2.3,1.4c0,0,1.6,2.5,1.8,2.9
				c0.2,0.4,0.9,3.6,0.9,3.6s0.4-5.3,0.4-6c0-0.7,0.9,2.7,0.9,2.7l0.6,4.7l1-5.4c0,0,0.2,5.3-0.1,6.5c0,0-2.1-1-6-1l-3.8-0.3h-3.1
				l-7.1,0.7l-2.1,0.4L32.9,30z"/>
			<path class="st8" d="M50.9,29.9L50.1,26c0,0-2.6-4.8-3-5.3s1.7,9,1.7,9s-4.4-3.6-6.1-7.5s-2.1-7.6-2.1-7.6l4.1,0.3l6.2,3.9
				l3.7,3.9c0,0,0.7,5.5,0.7,5.8s0.9,2.6,0.9,2.6L50.9,29.9z"/>
			<path class="st9" d="M35.8,41.5c0,0-8.3-7.7-8.6-10.1C26.9,29,27.8,19.5,32.8,10c0,0,4-0.8,5-0.6c1.1,0.1,2.8-3.9,5-4
				c2.1-0.1,5.4,0.3,5.4,0.3s5.5,1.5,8.8,6.6s4.9,7.8,5.2,8.6s1.3,2.2,3.4,3.1c2.1,0.9,4.8-0.1,4.8-0.1s-3.9,3.3-4.7,3.5
				c-0.9,0.2,0.3,1.3,0.3,1.3s0.9,1.3,2.8,1.1c1.9-0.3,3.3-0.4,3.3-0.4l-3,2.1c0,0,2.3-0.2,1.8,0.2s-3.2,2.7-3.2,2.7
				s2.6,0.1,2.5,0.4s-5,3.2-5,3.2l-12.6,2.8c0,0,2.5-4.8,2.7-10.9v-5.1l-0.9,4.4c0,0-0.5-3.8-0.9-5.2c-0.4-1.4-0.7-1-0.7-1l-0.5,5.3
				c0,0-1.1-5.5-2.6-6.5s-5.8-4.6-6.8-6.9c0,0,1,4.8,4.3,9.4c0,0-4.6-3.7-6.5-9.6c0,0,1,6.8,7.8,15.1c0,0-8.7-6.1-10.1-15.5
				c0,0-3.9,1.9-5.2,9.1c-1.3,7.2,1.8,15.5,2.2,16.9C35.8,41.5,35.8,41.5,35.8,41.5z"/>
			<path class="st4" d="M46.9,139.4h-3.3l-3.6-8l-4.1-10.9l-4.5-6.3c0,0-3.7-4.4-5.4-4.9c0,0,2.2-4.1,3.2-5.6c1-1.5,2-3.7,2.4-5.4
				c0.4-1.7,0.3-5,0.3-5v-5l-7.4-8.1c0,0-4,8.4-6.6,11.3c0,0-3.7,5.6-10.7,10.6l-4.4,0.4l-3.5-5.3c0,0,6.3,0.1,7.1-0.3
				s3.6-2.3,3.6-3.5c0-1.2-0.2-6.5-2.9-10L9.3,79c0,0,3.3-7.8,4-10.1c0.7-2.3,1.5-6.7,1.6-7.2c0.1-0.5,1.6-3.5,2.9-3.9
				c1.3-0.4,4.1-1,4.1-1l4.5-1c0,0,7.3-1.2,9.2-6.9l0.9-3.3l16-0.1c0,0,0.1,4.2,1.2,5.7c1.2,1.5,6.7,5.1,11.4,6.2s8.1,1.6,8.8,2.5
				c0.6,0.9,4,2.7,4,2.7l7.5,10.6l6,6.5l3.1,3.8c0,0,15.5,12.4,15.3,15.2c-0.2,2.8-5.1,7.7,2.7,11.9l-12.3-6.1
				c0,0-22.1-17.6-29.6-26.1c0,0-6.1,10.2-6.2,11.3c-0.1,1.1-0.7,6.5-1.5,7.7c-0.7,1.2-0.4,2.7-0.4,2.7l1.3,5.8c0,0,1.4,3.3,1,4.8
				c0,0-7.9,1.4-12.7,14.2C47.1,137.8,46.9,139.4,46.9,139.4z"/>
			<path class="st10" d="M-7.1,91.2c-0.3,0.3,7.2,5.8,9.8,7.3c4.3,2.5,5.3,0.3,10.6-8.4c1.6-2.6,9.2-16.2,11.2-18.5
				c0,0-0.6,5.7,0,8.5c0,0-6,13.4-11.4,18.8L8,106.1l-5.5,1.3l-8.3-4l-7.1-5.5L-7.1,91.2z"/>
			<path class="st7" d="M-26.9,56.4c0,0,4.7,16.4,21.4,29.8c0.9,0.7-4.3,9.9-7.4,10.9c0,0-1.5-1.3-2.7-2.3c0,0-8.9-10.9-13.5-19.7
				S-37,52.4-37,52.4s-1.1-10.6-1.1-13.6c0-2.4-0.2-3-0.2-3l5.2-4.8c0,0,1.6-0.3,2.2-0.2c0.6,0.2,0.9-0.9,1.1-1.1
				c0.2-0.2,1.3-0.3,1.3-0.3s0.9,0.1,1,0.7c0.1,0.6,0.2,1.8,0.1,2s0.3,1.2,0.3,1.2l1.5,0.8l-0.5,1.6c0,0,1.8,0.9,1.8,1.3
				c0,0.4-0.4,1.9-0.5,2.1c0,0.2-0.9,2.5-0.9,2.5s-1.3-0.3-1.4-0.5s-0.1,2-0.1,2s-0.5,3.4-0.6,3.7s-0.7,1.8-0.8,2.2
				c-0.1,0.3,0,1.7,0,1.7S-28.1,54.7-26.9,56.4z"/>
			<path class="st11" d="M29.7,203.5c0,0,4.7,0.9,7.2,0.7c2.6-0.1,9.1-1.4,9.7-2.8c0.5-1.4-1.2-5.3-1.2-5.3s-1.1-6.7-0.9-8.3
				c0.2-1.6,0.9-5.7,0.9-5.7l0.3-6.9c0,0,0.1-21.9-0.4-23.9c-0.5-2-1.7-11.9-1.7-11.9l-3-7.1l-2.1-5.8c0,0-5.7-13.7-12.5-17.1l-3,7
				l-2.6,10.8L20.1,144l1.9,7.5l6,18.1l2.9,6.2c0,0,0.5,3.5,0.5,3.8c0,0.3,0.2,9.5,0.2,9.8s-0.7,4.3-0.9,4.9c-0.1,0.6-0.9,4-0.9,4.6
				C29.9,199.4,29.7,203.5,29.7,203.5z"/>
			<path class="st1" d="M36.3,25.6c0,0,2.2-1.1,3.2-1.1c1,0.1,1.6,0.5,1.6,0.5s0.6,1,0.4,1S38.6,26.3,36.3,25.6z"/>
			<path class="st1" d="M51.7,25.6c0,0-2.2-1.1-3.2-1.1c-1,0.1-1.6,0.5-1.6,0.5s-0.6,1-0.4,1S49.4,26.3,51.7,25.6z"/>
			<path class="st11" d="M64.9,188.2c0,0-5,3.7-10.1,1.6s-6.7-4.4-7.4-6.1c-0.7-1.7-0.1-7.5-0.9-9.9c-0.7-2.4-1-26.6-1-26.6l0.7-6.4
				c0,0,4.6-13.8,5.6-15.8c1-1.9,5.2-11.9,12.7-14.2l3.3,6.5c0,0,4.7,13.9,4.7,19.4s-1,11.9-1,11.9l-2.4,12.8l-2.8,11.9l-1.6,5.4
				C64.8,178.5,66.5,182.5,64.9,188.2z"/>
			<path class="st7" d="M142,62.9c0,0-0.5,11.1-4.2,19c-1.2,2.5-3,8.2-7.4,13.9c0,0-8.2-4-7-10.6c0,0,12.4-12.4,10.4-36.6
				c-0.2-1.8-1.8-12.3-7-12.7l-0.2-1.6c0,0-4.8-0.3-5.9-2.4c0,0,0.3,1.1-0.1,1.3c-0.5,0.2-3-0.5-3-0.5s-0.9-0.1-1-0.7
				s-0.1-1.4-0.1-1.4s-1.3-0.1-1.3-0.6c-0.1-0.5-0.1-1-0.1-1s-2.4,0.3-2.4-1c-0.1-1.3,1.5-2.4,1.5-2.4l1.3-0.7l0.3-1.3
				c0,0,3-1.8,3.6-2.3s1.2-0.2,1.2-0.2l3.1,2c0,0,7.6,5.2,7.9,5.7c0.4,0.5,2.5,3.1,2.5,3.1l5,8.6l3.2,12.1
				C142.4,52.6,142.3,62.4,142,62.9z"/>
			<path class="st7" d="M47.9,271.7c0,0-6.2,0.6-6.2-3.4s2.3-12,1.8-14.7s-1.8-5.2-1.8-5.2l-0.6-6.3c0,0-0.7-2.9-1-3.3
				s-4.7-14.7-4.7-15c0-0.3-4.3-14.7-4.5-15s-1.3-5.4-1.3-5.4s6.9,0.9,9.1,0.5c2.2-0.3,7.8-2.6,7.8-2.6l1.1,3.4L48,211l0.6,18.7
				l0.3,12.5c0,0,0.6,1.8,1.3,3.4c0.6,1.6,1,2.4,0.4,3.4c-0.5,1-0.6,2.6-0.4,2.9c0.2,0.3,1.4,4.5,1.4,4.5s-0.4,3.9-0.4,4.8
				c0,0.9,0.1,2.6,0.6,3.5s-0.7,5.8-1,6.2C50.5,271.2,47.9,271.7,47.9,271.7z"/>
			<path class="st7" d="M48.3,228.5c0,0,2.2,0.4,3.5-0.9c1.3-1.3,2.8-6.8,2.8-7.1s0.5-7.7,0.5-7.7s-0.2-3.4,0.2-3.9
				c0.4-0.5,1.6-1.4,1.6-1.7c0-0.3,0-3.2,0-3.2s2.6-4,2.7-4.4c0.1-0.3,5.3-9.8,5.3-10.6c0-0.9,0.4-1.9,0.4-1.9s-1.3,3.1-6.6,3.5
				c-5.3,0.4-10.8-4.7-11.2-7c0,0-0.7,1.9-0.5,5.8c0.2,3.9,0.9,6.2-0.4,9.9l1.1,9.4L48.3,228.5z"/>
			<path class="st8" d="M-7.1,91.2c0,0-24-20.2-24.8-42.5c0,0,2.6-3.8,2.8-8.1c0,0-1,0.7-2.2-1.1c-1.2-1.8-3.1-3.4-3.1-3.4l-3.8-0.3
				l0.4,11.3c0,0,1.6,10.4,6.1,22s19,28.8,19,28.8S-9.8,95.2-7.1,91.2z"/>
			<path class="st12" d="M-38.3,35.8c0,0,1.4,0.4,2.3,0.2c0,0-0.1,1.6,1.5,1.4c1.6-0.2-0.4,1.2,2.9,2.3c0.4,0.1,0.7,0.6,1,0.7
				c1.3,0.8,0.9,0.7,2.7-0.9c1.1-1,3.7-2.4,3.7-2.4l-1.8-1.3c0,0,0.7-1.2,0-1.6s-1.6-1.4-1.6-1.4s-0.1-1.4-0.6-1.8
				c-0.6-0.4-1.1-0.5-1.8-0.3c-0.8,0.2-1.7-0.1-2.3,0.1C-33.1,31.1-38.3,35.8-38.3,35.8z"/>
			<path class="st12" d="M116.6,32.1l4-2.2c0,0,1.7-1.6,1.5-2.1s-1.5-0.5-0.9-1.5c0.5-1-0.1-3.2-0.7-3.6c-0.6-0.4-0.6-2-0.6-2
				l-4.1,3l-0.3,1.3l-1.8,1.4l0,1.6l1.8,0.5l-0.2,1.7l1.3,0.6L116.6,32.1z"/>
			<path class="st12" d="M-28.3,46.8c0,0-1.5,1.8-3.7,1.8c0,0,3.1,0.4,3.6-0.5L-28.3,46.8z"/>
			<path class="st12" d="M-6.1,88.9c0,0-18.9-18.1-19.6-30.3c0,0,4.1,15.2,20.1,27.6C-5.5,86.2-5.4,86.2-6.1,88.9z"/>
			<path class="st13" d="M24.5,71.6c0,0-9.2,22.8-11.8,28c0,0,8.9-12,11.8-19.5C24.5,80.1,23.8,74.8,24.5,71.6z"/>
			<path class="st10" d="M39.5,45.4l12.9,0.1c0,0-0.3,6.1,3.6,8.4C56.1,53.9,46.8,56.9,39.5,45.4z"/>
			<path class="st14" d="M39.5,45.4l-2.8-3.8c0,0,3.6,2.2,9.5,1.7c0,0,4.8-0.6,6.5-2.6l-0.2,4.8L39.5,45.4z"/>
			<path class="st14" d="M36.7,41.7c0,0,7.3,1.4,9.1,0.9c1.8-0.5,3-0.4,3.9-3.1s1.7-6.1,1.9-9.5l3.5,0.8c0,0-0.7,7.7-3,10.1
				c-2.3,2.4-2.8,3.1-3.4,3.1s-6,0.1-6.5,0.1S36.7,41.7,36.7,41.7z"/>
			<path class="st8" d="M35.2,30.1c0,0-1-8,1.7-14.5c0,0-5,4-3.8,14.9L35.2,30.1z"/>
			<path class="st8" d="M124.6,90.7c0,0,8.8-15.8,10.7-28.4c2.2-14.4-4.1-26-5.1-27.6l-9.6-4.8c0,0,0.8-0.6,0.5-1.7
				c-0.3-1,0-1.2-0.3-2.2c-0.2-0.6-0.6-0.8-0.4-2.2c0.1-0.5-0.7-1.4-0.6-1.8c0-1.2,0.1-1.3,0.1-1.3l11.8,8.2c0,0,10.8,9.4,10.8,26.9
				c0,23-12.1,40-12.1,40S126.6,93.7,124.6,90.7z"/>
			<path class="st15" d="M24.5,72.5c0,0,2.7,9.1,17.8,6.6c0,0,3.5-0.9,6.7,0.3c0,0-9.6,1.1-12.8,3.1c0,0,2.8,12.7,1.7,18.1
				l-6.4,13.6c0,0-0.3-1.6-5.4-4.9c0,0,5-7.5,5.6-11.1c0.7-4,0.3-10,0.3-10l-7.4-8.1V72.5z"/>
			<path class="st16" d="M49,132.9c-1.1,0-4.5-7.7-5.1-10.8c-0.6-3.2-3.6-12.8-3.4-17.9c0.2-5.1-1.1-21.8-2-22.6
				c-0.9-0.9-9.9-4.4-7.8-14.6c1.5-7.1,8.2-17.3,7.2-21.3l-1.5-0.1c0,0-1.1,8-6.8,9.4c-5.7,1.5-10.6,1.2-11.9,2.7
				c-2.3,2.5-2.8,5.2-3,5.8c-0.2,0.6-8.7,22.9-8.7,22.9L2.7,91c0,0,1.6,7.7,1.8,8.1c0.1,0.6,1.1,0.3,1.1,0.7
				c0.1,2.4,7.5-0.9,7.5-0.9l11.4-18.8l7.4,8.1c0,0,0.7,6.6-0.3,10c-1.1,3.4-5.6,11.1-5.6,11.1s5.2,2.6,8.4,8.9
				c3.2,6.4,7.4,16.6,7.4,16.6l1.8,4.6h3.3L49,132.9z"/>
			<path class="st10" d="M35,80.1c0,0,4.5-1.5,9-2.9c4.6-1.4,8.8-0.8,11.9,0.3c3.1,1.1,14.2,1.5,14.7-4.6c0,0,1.8,4.8-4.7,13.3
				c-1,1.3-9-8.9-20.2-6.5C39.6,81.2,35,80.1,35,80.1z"/>
			<path class="st16" d="M36.3,85.7c0,0,13-6.7,29.4,1.1c0,0-7.8-6-11.3-6.7c-1.4-0.3-7.8-1.3-15.9,1.6C34.4,83,36.3,85.7,36.3,85.7
				z"/>
			<path class="st10" d="M64.5,110.7c0,0-0.2-2.2-1-4.8c-0.7-2.6-2.2-5.2-0.3-10.6c1.8-5.3,2.1-8.9,2.1-8.9l-3-1.9
				c0,0-1.8,5.1-1.6,7.7c0.2,2.6-1.1,6-0.2,8.1c0.9,2.1,2.8,10,2.3,11.3L64.5,110.7z"/>
			<path class="st17" d="M45.8,142.8c0,0,4.8-12.8,12.5-17.6c0,0-0.3-5.5-0.6-8.4c-0.3-2.6-2,1.3-2,1.3s-4.3,7.7-5.7,11.9
				C48.6,134.3,45.8,142.8,45.8,142.8z"/>
			<path class="st18" d="M66.3,75.5c-1.8-1.4,0.2-6.6-0.6-10.6c0,0-0.5-1.5,0.2-1.5c1,0,2.7,5.9,3.1,8.1c0.2,1.2,0.6,2.9-0.1,3.7
				C68.4,75.7,67.2,76.2,66.3,75.5z"/>
			<path class="st18" d="M52.9,74.3c-0.9-0.2-6.3-0.4-9.9-0.3c-2.5,0.1-1.6,0.8-0.4,0.6c1.2-0.2,6-0.1,8.3,0S56,74.9,52.9,74.3z"/>
			<path class="st17" d="M62.8,111.4c0,0,6.6,26.6-3.2,55.1c0,0-1.7,3.8-0.4,6.8s3.3,3.8,4.8,5.7l5.1-17.7c0,0,4-18.4,3.4-24.7
				s-4.5-17.7-4.7-19.4l-3.3-6.5L62.8,111.4z"/>
			<path class="st19" d="M47.5,183.6c0,0,0-5.7,3.4-6.5c0,0,0.3,4.8,0.9,7.4c0.6,2.6,7.1,4,9.6,2c2.6-2,2.7-7.5,2.7-7.5
				s1.8,3.6,1.7,5.8c-0.1,2.5-0.9,4.3-0.9,4.3s-5.5,0.9-8,1.7C54.3,191.6,47.8,185,47.5,183.6z"/>
			<path class="st20" d="M48.3,228.5c0,0,5.4-0.3,6.3-8c0.7-6.2-0.9-9.9,0.7-11.6c2.7-2.7,0.5-2.4,1.6-4.9
				c1.1-2.5,6.9-11.3,8.2-15.6c0,0-12.5,5.7-17.6-4.8c0,0-0.9,2.6-0.5,5.8c0.5,3.3,0.3,8.5-0.5,11.3
				C46.5,200.7,49.7,220.3,48.3,228.5z"/>
			<path class="st17" d="M40.9,178.1c0,0-6.1,0.4-10.8-17.7C25.9,144,20,136,20.3,130.6c0.3-5.4-2.8,15,5.4,32.6s5.2,12.6,5.2,12.6
				s1.6,8.7,0.7,13.6s-1.9,14-1.9,14s6.7,1.4,11.6,0.3c5.7-1.3,0.9-9.6,0.9-9.6L40.9,178.1z"/>
			<path class="st19" d="M31.4,114.2l7.3,27.2c0,0,3.7,33.2,2.3,40.3c0,0-2,4.8-1.7,7.7c0.3,2.8,2,14.5,2,14.5l5.4-2.3
				c0,0-1.9-9.6-1.9-11.6s1.1-9.6,1.1-9.6v-14.7c0,0-1.5-21.9-2.2-26.1l-5.1-13C38.5,126.4,35.4,117.9,31.4,114.2z"/>
			<path class="st11" d="M35.8,178.1c0,0-2,3.4-0.3,6.2c1.7,2.8,4.1,8.6,4.1,5.8c0-2.8,0.7-6.5,1.3-8.5c0.6-2,0.2-4.9,0.2-4.9
				C38.3,176.5,37,176.8,35.8,178.1z"/>
			<path class="st8" d="M41.2,203.8l5.4,43.4c0,0,0.6,4.3,1.1,6c0.6,1.7,3.4,8.1,4,11.6c0,0-1.6-12.8-1.2-15.6
				c0.4-2.9-0.4-3.4-0.4-3.4l-1-9l-0.6-6.9c0,0-0.9-23-2-28.3L41.2,203.8z"/>
			<path class="st12" d="M43.3,258.3c0.2-1.3,0-4.3,3-4.3c3,0,3.2,8.3,3.2,8.3s1.9,5.5-0.4,7c-2.3,1.5-7,0.2-7.3-1.1
				C41.4,267,43.3,258.3,43.3,258.3z"/>
			<path class="st21" d="M33.7,83.3c0,0,11-4.3,15.2-3.9c4.2,0.5,7.1,0.5,10.7,3.2c3.7,2.7,6.1,4.2,6.1,4.2l-1.5,3c0,0-1,6.4-2.2,9
				c0,0,0.4,5.1,1.5,7.2c1.2,2.1,0.9,4,1,4.8c0,0-9.4,1.2-15.5,22.2l-2.1,6.5h-3.3l-3.6-8l-3-8.7c0,0-4.9-10.6-11-13.4
				c0,0,4.5-7.6,5.1-9c0.6-1.4,1-4.1,1-4.1l-0.1-7.9l-4.9-5.4C27.1,82.8,29.2,84.1,33.7,83.3z"/>
			<path class="st12" d="M42.6,246.3c0,0,1.7,1,4.8-0.5c0,0,0.4-0.2,0.1-0.3c0,0-2.5,1.4-4.8,0.7C42.6,246.2,42.5,246.2,42.6,246.3z
				"/>
			<path class="st12" d="M31.5,206.9c0,0,9.5,0.8,14-1.4C45.4,205.5,36.7,206.9,31.5,206.9z"/>
			<path class="st22" d="M43.5,268.8c0,0,1,1,2.6,1c0,0,2.5,0.1,3.3-1.2c0,0-1.5,1-3.1,1C44.8,269.5,44.2,269.1,43.5,268.8z"/>
			<path class="st12" d="M33.3,207.8c-0.1,0.3,7.1,26.7,7.1,26.7l-5.2-26.8L33.3,207.8z"/>
			<polygon class="st12" points="35,207 34.6,204.2 32.3,204 33.1,207 			"/>
			<path class="st23" d="M54.2,13.2c0.5,0.5,2.9,4.6,4.4,7.4s8.3,7.5,13.5,1.6c0,0-5.6,6.7-11.2-3.9S54.2,13.2,54.2,13.2z"/>
			<path class="st23" d="M55.7,25.2c0,0,0.4,4,2.6,5.5c0,0-1.3-2.8-1.4-4.2c0,0,1.6,3.8,6,4.8c0,0-3-1.8-3.9-3.5
				c0,0,4.4,3.5,9.8,2.8c0,0-6.8-1.5-8.7-4.2c0,0,4.6,0.4,7.6-0.8c0,0-7,1.1-9.3-2c-2.3-3-3-4.1-3-4.1L55.7,25.2z"/>
			<path class="st24" d="M41,14.4c0,0,3.2-1,5,0.4c0.4,0.4,4.3,2.4,6.9,8.1c0,0-2.6-7.6-7.7-10.6c0,0,5.4,0,10.6,11
				c0,0,2.1,2.8,4.3,3.8c0,0-2.9-2.6-4.6-6.8s-5.5-9.4-8.7-10.5c0,0,4.7,0.9,11.9,8.7c0,0,6.7,9.5,11.8,5.4c0,0-5.5,3.1-11.2-7.7
				c0,0-11.4-20.1-20.8-6.9L41,14.4z"/>
			<path class="st24" d="M41,14.4c0,0-2.5-2.8-5.8,0.2c0,0-3.6,2.8-3.6,11.6c0,0,0.1,3.2,0.7,7.8c0,0-2.6-5.3-1.5-14.9
				c0,0-1.2,4-1.7,7.8c0,0-1.6-7.2,1.9-14.2l1.7-2.6c0,0,3.2-1.5,5.5-1L41,14.4z"/>
			<path class="st9" d="M39.4,11.3c0,0-1.9-0.4-3.8,1.1s-3.3,5.4-3.7,11.2c0,0,1.3-12.2,8.1-11.1L39.4,11.3z"/>
			<path class="st9" d="M39.6,11.5c0,0,1.5-3.4,7.4-3.7c0,0-4.6-1.1-7.9,3L39.6,11.5z"/>
			<path class="st9" d="M39.8,12.3c0,0,5.7-4,12.8,1.7c0,0-5.7-5.6-13.3-2.8L39.8,12.3z"/>
			<path class="st9" d="M38.9,10.4c0,0-3.6-1.4-7.9,2.1c0,0,3.4-3.8,6.8-3.2L38.9,10.4z"/>
			<path class="st9" d="M39.3,11.1l-0.7-1.2c0,0-1.2-0.5-3.5,1.6C35.2,11.6,37.8,9.9,39.3,11.1z"/>
			<path class="st9" d="M31.2,18c-0.1,0.4,1.3-4.6,3.1-6.1C34.3,11.8,32.1,15.6,31.2,18z"/>
			<path class="st24" d="M32.4,35.4c0.2,0.2-2.4-5-2.7-8.6c0,0,0.2,4.2,0.5,5S32,35,32.4,35.4z"/>
			<path class="st9" d="M30.7,29.1c0-0.3,0.7-8.6,2.3-11.7c0,0-2,4.1-2.6,9.4L30.7,29.1z"/>
			<path class="st24" d="M39.5,13.1c-0.6,0.1,0.5,4.1,2.2,7.4s7.3,9.8,7.3,9.8s-5.2-6.6-6.8-10.5s-2-5.5-1.6-6
				C41.2,13.3,39.5,13.1,39.5,13.1z"/>
			<path class="st24" d="M39.3,11.1c0,0-3.5,0.5-4.5,3.4c0,0,2.1-2.7,4.9-2.6L39.3,11.1z"/>
			<path class="st9" d="M56.3,21.4c-0.3-0.2-3.9-8.1-10-9.9c0,0,4.3,0.5,7,4.3C56.1,19.6,56.3,21.4,56.3,21.4z"/>
			<path class="st9" d="M46.4,8.6c0,0,6.3-0.5,12.2,7.4C58.6,16,53.1,9.4,46.4,8.6z"/>
			<path class="st24" d="M41,14.4c0,0,3.5,6.8,6.2,9.8c0,0-4.9-7.4-5.3-10.3S41,14.4,41,14.4z"/>
			<path class="st24" d="M48.7,20.8c0.2,0.2-4.6-8.7-5.9-6.8C42.9,14,47.8,19.8,48.7,20.8z"/>
			<path class="st24" d="M52.4,28.2c0,0-0.7-9.6-5.8-13.4l2.8,2c0,0,3.1,3.3,3.2,6.6C52.5,25.6,52.6,26.9,52.4,28.2z"/>
			<path class="st24" d="M35.6,15.9c0.2-0.2-2.3,3.1-2.4,7.9C33.2,23.8,32.4,18.2,35.6,15.9z"/>
			<path class="st23" d="M30.6,24.9c0,0,0-7.8,3.5-11.1C34.1,13.9,30.7,20.8,30.6,24.9z"/>
			<path class="st23" d="M39.5,11.5c0,0,1.6-1,4.4-0.8c2.8,0.2,6.3,2.3,6.3,2.3S43.5,9.8,40,12.6L39.5,11.5z"/>
			<path class="st23" d="M39.5,11.5c0,0,1.1-1.5,3.5-2.5c2.4-1,6.4,0.2,9.8,1.9c0,0-8.9-3.9-12.2,0.4L39.5,11.5z"/>
			<path class="st23" d="M51.9,18.6c0,0,3,6.2,2.5,10.5c0,0,0.9-4.8,0.2-6.4c-0.6-1.6-3.3-6.4-4.6-7.6L51.9,18.6z"/>
			<path class="st24" d="M59.3,22.6c-1.6-1.3-7.2-10.8-9-11.5s3.9,2.1,3.9,2.1L59.3,22.6z"/>
			<path class="st23" d="M41.2,12.1c0,0,4.3-0.6,6.5,2.5c0,0-3.1-2.4-7.4-1.2l-0.4-1.3H41.2z"/>
			<path class="st23" d="M38.9,10.4c0,0,2.7-4.9,8.2-4.4c0,0-4.6-1.7-7.3,0.8c-2.7,2.4-1.2,3.2-1.2,3.2L38.9,10.4z"/>
			<path class="st23" d="M40.7,14.4c0,0,0,1.9,0.6,3.3c0,0-1.4-4-1.4-5.3C40,11.1,40.7,14.4,40.7,14.4z"/>
			<path class="st23" d="M39.7,12c0,0-1.8,0.1-2.7,0.7c0,0,0.5-0.8,2.5-1.1L39.7,12z"/>
			<path class="st9" d="M42.2,14.9c0,0-0.8-1.8-0.9-1.9c-0.1-0.1,1.1,0.4,1.6,1c0.5,0.6,1.1,1.8,0.9,1.8
				C43.5,15.7,42.2,14.9,42.2,14.9z"/>
			<path class="st23" d="M41.5,12.9c0,0,2.2,0.8,3.4,2.3c0,0,1.1,1.4,1.6,1.7c0,0-2.4-3.8-3-4.1C42.9,12.5,41.5,12.9,41.5,12.9z"/>
			<path class="st23" d="M40.1,12.9c0,0-0.5,1.7-0.2,3c0,0-0.6-2.2-0.6-2.7c0,0-0.9-0.3-1.9,0c-1,0.3,2.2-0.9,2.9-0.9
				C41,12.4,40.1,12.9,40.1,12.9z"/>
			<path class="st24" d="M40.7,14.1c0,0-0.4-1.4-0.4-1.7c0-0.3,1,0.6,1,0.6l0.5,1.3L40.7,14.1z"/>
			<path class="st24" d="M44,14.4c0,0-2.1-1.6-2.6-1.8l1.9,2.1L44,14.4z"/>
			<path class="st9" d="M48.6,30.2c0,0,1.2,1,1.6,1.3c0,0-0.7-1.1-1-1.3c-0.3-0.3-0.5-0.5-0.5-0.5L48.6,30.2"/>
			<path class="st8" d="M120.8,29.8c0,0-3.5,1.6-3.1,2.6l-1.2-0.3l-0.2-1.7l-0.6-0.1l-0.5-0.5l-0.1-0.8l-1.5-1.1l-0.2-2l2-1l0.3-1.3
				l4.8-2.5l1.5,3l0.9,4.6L120.8,29.8z"/>
			<path class="st4" d="M2.7,91l0.8-0.6c0,0,2.4,6.4,2.4,7.7c0,0-2.4-5.1-2.7-5.5s0,3.1,0,3.1L1.6,94L2.7,91z"/>
			<path class="st4" d="M4.4,99.1c0,0,0.8,1.2,0.2,2.2c-0.4,0.6-0.9-0.5-2.4-1.9C0.7,98.1-7.3,92-7.3,92l1.2-1.8l3.8,0.2L4.4,99.1z"
				/>
			<path class="st16" d="M2.8,97.5c0.8,1.2-0.5-5-0.6-5.4s-0.5,0.5-0.5,1.2C1.7,94,2.2,96.6,2.8,97.5z"/>
			<path class="st25" d="M76.7,79c0.9,0.9,18.1,18.6,23.8,21.1c5.7,2.6,6.5,1,7.9-0.2c1.3-1.2,0.8-3,1.3-1.2
				c0.6,1.8-0.3,4.8,0.6,4.2c0.9-0.6,0.6-5.3,1.3-5.1c0.6,0.2,0.4,5.7,1.3,4c0.9-1.7-0.4-6.7-0.4-6.7s9-6.8,10-8.4l2.2,3.9
				c0,0-5.8,14.8-6.5,15.4c-0.6,0.6-8.3,4.3-8.3,4.3s-7.2-2.3-13.2-8.3L76.7,79z"/>
			<path class="st10" d="M124.6,90.7c0,0-8.8,16.6-16.3,18.9c0,0,2.1,1.5,5.4,0.7c3.3-0.7,6.5-2.2,6.5-2.2l4.5-4.4l5.6-8
				C130.4,95.8,125.6,92.9,124.6,90.7z"/>
			<path class="st10" d="M70.4,78.4c0,0,0.7-3.3,0.3-6.7c0,0,30.6,34.2,34.7,36.7c0,0-21.4-16-26.2-21.3L70.4,78.4z"/>
			<path class="st18" d="M82.3,72.9c0.6,1,12,12.6,14.6,15.3c2.5,2.7,5.7,5.3,5.3,3.7c-0.4-1.6-8.7-10.4-12-13.6
				c-2.7-2.6-8.3-8.9-9-8C80.5,71.2,81.8,72,82.3,72.9z"/>
			<path class="st7" d="M113.6,27.9c0,0,5.7-4.2,6.2-2.8l-5.1,3.2L113.6,27.9z"/>
			<path class="st18" d="M76.5,61.5c0.5,0.9,3.7,8.6,4.8,10c1.1,1.3,16.4,17.3,16.4,17.3l4.4,3.7c0,0,2,1.1,2.2-0.1L96.5,85
				l-8.1-8.3l-4.3-5.1l-2.3-4.3L76.5,61.5z"/>
			<path class="st8" d="M-30.7,40.4c-0.5-0.7,1.3-1.8,1.3-1.8l3-2.3c0,0-4.7,2.4-5.3,3.4c-0.6,0.9-0.5,1.4-0.2,1.4
				S-30.7,40.4-30.7,40.4z"/>
			<path class="st8" d="M-29.2,40.6c0,0-0.8-1.3-1.4-1c-0.7,0.2-0.8,1.2-0.8,1.2l0.6,1.3L-29.2,40.6z"/>
			<path class="st8" d="M-31,39.2c-0.1-0.1-0.3,0-0.3,0s-0.2,0-0.3-0.5c-0.1-0.4-1-1.4-1.7-1.2c0,0-0.1,0,0.3-0.3s4.3-3.3,4.3-3.3
				l-5.5,3.8l-0.1,1.2l1.4,1.6l1.5-0.2L-31,39.2z"/>
			<path class="st8" d="M-32,38.7c0.2-0.1,5.6-3.2,5.6-3.2l0,0.8l-5.6,3.4L-32,38.7z"/>
			<polygon class="st7" points="-31.6,38.4 -26.3,34.4 -26.7,35.7 			"/>
			<path class="st8" d="M-33.9,37.5c0,0-0.1-1-0.6-1.4c-0.2-0.2-0.8-0.2-0.4-0.6l3.5-3.4c0,0-4.4,3.6-4.6,3.8s-0.6,1.6-0.6,1.6
				l1.5,1.2L-33.9,37.5z"/>
			<path class="st8" d="M-34.2,36.7c0.1,0.2,0.4,0.4,0.5,0.4c0.1,0,2.6-1.7,2.6-1.7l-3,2.3L-34.2,36.7z"/>
			<path class="st8" d="M-38,35.6c0.5-0.1,1,0.1,1.2,0.2c0.2,0.1,0.7,0.1,1-0.2c0.3-0.3-0.1,0.7-0.1,0.7l-0.6,0.7l-1.6-0.2l-0.3-1.1
				L-38,35.6z"/>
			<polygon class="st26" points="33.8,57.5 31.4,58 30.4,60 31.5,62.1 33.9,61.9 34.8,59.7 			"/>
			<polygon class="st27" points="30.3,60.4 28,61 27.2,63.4 28.3,65.4 30.5,64.9 31.3,62.4 			"/>
			<polygon class="st28" points="47.2,53.8 44.9,53.8 43.7,55.2 44.8,56.9 47.1,57 48.2,55.4 			"/>
			<polygon class="st29" points="38.4,45.9 36.5,45.9 35.7,47.3 36.5,48.5 38.4,48.6 39.3,47.3 			"/>
			<polygon class="st27" points="24.5,63.8 26.8,63.2 27.6,60.7 26.4,58.8 24.2,59.4 23.2,62.1 			"/>
			<path class="st30" d="M37.8,82.5c0,0-0.3,1.8-0.4,2.1c0,0,0.8,1.4,0.9,2l2.1-0.4c0,0,0.9-2.6,0.9-2.7s-1.2-1.9-1.2-1.9L37.8,82.5
				z"/>
			<path class="st31" d="M42,71.6c0-0.2,3-0.5,3-0.5l1.2-2.1l-1.7-2.4l-2.8,0.2l-1.2,2.7L42,71.6z"/>
			<polygon class="st31" points="45.3,66.2 47.1,68.5 50,68.6 51.5,66.4 49.9,63.9 46.6,63.7 			"/>
			<polygon class="st32" points="51.9,66.9 55.2,67.3 56.6,69.6 55.1,72 52,71.5 50.5,68.9 			"/>
			<polygon class="st28" points="52,61.1 50.9,59.3 52,57.8 54.2,57.9 55.4,59.8 54.3,61.4 			"/>
			<polygon class="st33" points="48.3,59 47.3,57.2 48.5,55.7 50.6,55.9 51.7,57.6 50.6,59.1 			"/>
			<polygon class="st28" points="52.1,57.4 51,55.6 52,54.5 54.2,54.8 55.3,56.2 54.3,57.6 			"/>
			<path class="st34" d="M54.3,51.9l-2.3-0.2l-1-1.3l1.1-1.1l1,0.2C53.1,49.5,53.7,51.3,54.3,51.9z"/>
			<polygon class="st35" points="34.3,98.8 36.8,98.2 38.1,101.4 37.1,104.3 34.3,104.6 33,101.3 			"/>
			<polygon class="st35" points="32.3,106.6 30,106.3 29.1,103.6 30.3,101.6 32.2,101.7 33.4,104.6 			"/>
			<polygon class="st36" points="46.6,105.6 48,102.2 50.9,102.3 52.1,105.3 51,108.6 48,108.6 			"/>
			<path class="st35" d="M55.2,105.6c0.1-0.1-2.7-0.2-2.7-0.2l-1.4-3.6l1.1-2.8l3,0.2l1.3,3.2L55.2,105.6z"/>
			<path class="st37" d="M52.1,98.3c0,0,2.8,0.2,2.8,0.2c0,0,1.5-3.2,1.5-3.2l-1.2-3.5l-3-0.3l-1.4,3.3L52.1,98.3z"/>
			<polygon class="st38" points="56.9,95.1 55.5,91.5 57.1,88.5 60.3,89.1 61.4,92.6 59.7,95.6 			"/>
			<path class="st39" d="M60.2,95.9c-0.1-0.1,1.7-3,1.7-3l1.8,0.2l-0.9,4.2l-0.7,1.3L62,99.3l-0.6-0.2L60.2,95.9z"/>
			<polygon class="st40" points="55.4,98.7 56.8,102.2 59.7,102.5 61.1,99.4 59.7,96.1 56.8,95.7 			"/>
			<polygon class="st39" points="60.2,102.8 61.4,99.8 62,99.9 63.6,105.9 61.7,105.8 			"/>
			<path class="st9" d="M36.1,41.8c-0.6-1.1-1.1-2.3-1.5-3.4c-0.4-1.2-0.7-2.4-1-3.6c-0.5-2.5-0.9-5-1-7.5c-0.2-2.5,0.2-5.1,1.1-7.5
				c0.5-1.2,1.1-2.3,1.8-3.4c0.8-1,1.6-2,2.7-2.7c0.2-0.1,0.4-0.1,0.5,0.1c0,0.1,0.1,0.1,0.1,0.2l0,0c0,0.8,0.2,1.6,0.4,2.4l0.2,0.6
				l0.2,0.6c0.1,0.4,0.3,0.8,0.4,1.1c0.6,1.5,1.4,2.9,2.3,4.3l0.7,1c0.2,0.3,0.5,0.6,0.8,1c0.5,0.7,1.1,1.2,1.6,1.9
				c0.3,0.3,0.6,0.6,0.9,0.9l0.9,0.9c0.6,0.5,1.3,1.1,1.9,1.6l-0.3,0.3c-1-1.2-1.9-2.4-2.8-3.7c-0.9-1.3-1.7-2.5-2.4-3.9
				c-0.7-1.3-1.5-2.7-2-4.1c-0.6-1.4-1-2.9-1.2-4.5c0-0.1,0.1-0.2,0.1-0.2c0.1,0,0.1,0,0.2,0.1l0,0c0.3,0.9,0.7,1.9,1.2,2.8
				c0.5,0.9,1,1.8,1.5,2.6c0.6,0.8,1.2,1.6,1.8,2.4c0.7,0.8,1.4,1.4,2.1,2.1l-0.4,0.4c-1-1.5-2-3.1-2.8-4.7
				c-0.4-0.8-0.8-1.6-1.1-2.5c-0.3-0.9-0.6-1.7-0.7-2.7c0-0.2,0.1-0.4,0.3-0.4c0.1,0,0.3,0.1,0.4,0.2l0,0c0.5,0.7,1,1.4,1.5,2
				c0.5,0.7,1.1,1.3,1.6,1.9c0.6,0.6,1.2,1.2,1.8,1.7c0.6,0.5,1.3,1,2,1.4l0,0c0,0,0.1,0.1,0.1,0.1c0.4,0.5,0.8,1.1,1.1,1.6
				c0.3,0.6,0.6,1.1,0.9,1.7c0.3,0.6,0.4,1.2,0.6,1.9c0.1,0.7,0.2,1.3,0.1,2l-0.9-0.1c0.1-0.6,0.2-1.3,0.3-2c0.1-0.7,0.1-1.3,0.1-2
				c0-1.3-0.1-2.7-0.5-3.9l0,0c-0.1-0.2,0.1-0.5,0.3-0.5c0.2-0.1,0.4,0,0.5,0.2c0.5,0.7,0.8,1.5,1.1,2.3c0.3,0.8,0.5,1.6,0.7,2.4
				c0.2,0.8,0.3,1.6,0.3,2.4c0.1,0.8,0.1,1.6,0.1,2.4l-0.7-0.1c0.3-1.1,0.5-2.2,0.7-3.3c0.2-1.1,0.3-2.2,0.2-3.3l0,0
				c0-0.2,0.1-0.3,0.3-0.4c0.2,0,0.3,0.1,0.3,0.3c0.3,1.5,0.3,3,0.3,4.6c0,1.5-0.1,3-0.4,4.5c-0.2,1.5-0.6,3-1,4.4
				c-0.4,1.5-1,2.9-1.6,4.2l-0.1,0c0.6-1.4,1.1-2.8,1.4-4.3c0.4-1.5,0.6-2.9,0.8-4.4c0.2-1.5,0.3-3,0.3-4.5c0-1.5-0.1-3-0.4-4.4
				l0.6-0.1c0.1,1.2,0,2.3-0.1,3.4c-0.2,1.1-0.4,2.2-0.7,3.4c-0.1,0.2-0.3,0.3-0.5,0.3c-0.2,0-0.3-0.2-0.3-0.4l0,0
				c0-0.8,0-1.6-0.1-2.3c-0.1-0.8-0.2-1.5-0.4-2.3c-0.2-0.8-0.4-1.5-0.7-2.2c-0.3-0.7-0.6-1.5-1-2.1l0.8-0.4
				c0.4,1.4,0.6,2.8,0.6,4.2c0,0.7,0,1.4-0.1,2.1c-0.1,0.7-0.2,1.4-0.3,2.1c0,0.2-0.3,0.4-0.5,0.3c-0.2,0-0.4-0.2-0.4-0.5l0,0
				c0-0.6,0-1.2-0.1-1.8c-0.1-0.6-0.3-1.2-0.5-1.7c-0.2-0.6-0.5-1.1-0.8-1.6c-0.3-0.5-0.6-1-1-1.5l0.1,0.1c-1.5-0.9-2.8-2.1-3.9-3.3
				c-0.6-0.6-1.1-1.3-1.6-2c-0.5-0.7-1-1.4-1.5-2.1l0.7-0.3c0.1,0.8,0.4,1.7,0.7,2.5c0.3,0.8,0.7,1.6,1.1,2.5
				c0.4,0.8,0.8,1.6,1.3,2.4c0.4,0.8,0.9,1.6,1.4,2.3l0,0c0.1,0.1,0,0.3-0.1,0.4c-0.1,0.1-0.3,0.1-0.4,0c-0.8-0.7-1.5-1.4-2.2-2.2
				c-0.7-0.8-1.3-1.6-1.8-2.5c-0.6-0.9-1.1-1.8-1.5-2.7c-0.4-0.9-0.8-1.9-1.2-2.8l0.3-0.1c0.1,1.5,0.6,3,1.1,4.4
				c0.5,1.4,1.2,2.8,2,4.1c0.8,1.3,1.6,2.6,2.5,3.8c0.9,1.2,1.8,2.5,2.8,3.6l0,0c0.1,0.1,0.1,0.2,0,0.3c-0.1,0.1-0.2,0.1-0.3,0
				c-0.7-0.5-1.3-1-2-1.6L46,28c-0.3-0.3-0.6-0.6-0.9-0.9c-0.6-0.6-1.2-1.2-1.7-1.8c-0.3-0.3-0.6-0.6-0.8-1l-0.8-1
				c-1-1.4-1.8-2.9-2.5-4.4c-0.2-0.4-0.3-0.8-0.5-1.2l-0.2-0.6l-0.2-0.6c-0.2-0.8-0.4-1.6-0.4-2.5l0.6,0.3c-1,0.6-1.8,1.6-2.5,2.5
				c-0.7,1-1.3,2.1-1.7,3.2c-0.9,2.3-1.2,4.8-1.1,7.2c0.1,2.5,0.3,5,0.8,7.4C34.4,37,35.1,39.5,36.1,41.8L36.1,41.8z"/>
			<path class="st9" d="M42,43.1c1,0.1,2.1,0.1,3.1,0c1-0.1,2-0.2,3-0.4c1-0.2,1.9-0.6,2.7-1.1c0.9-0.4,1.6-1.1,2.2-1.9l0.1,0
				c-0.2,1.1-0.9,2-1.8,2.6c-0.5,0.3-1,0.5-1.5,0.7c-0.5,0.1-1,0.2-1.6,0.3c-1,0.2-2.1,0.2-3.1,0.2C44.1,43.5,43,43.4,42,43.1
				L42,43.1z"/>
			<path class="st9" d="M39.9,42.9c-1.1-0.1-2.5-0.7-3.4-1.4c-0.4-0.3-0.7-0.4-1-0.8c-0.3-0.4-0.3-1-0.4-1.5l0,0
				c0.4,0.4,0.6,0.8,1,1.2c0.3,0.4,0.7,0.8,1.1,1.1c0.4,0.3,0.8,0.6,1.3,0.8C38.9,42.5,39.4,42.7,39.9,42.9L39.9,42.9z"/>
			
				<rect x="36.4" y="45.1" transform="matrix(1 -8.788723e-03 8.788723e-03 1 -0.3981 0.3928)" class="st9" width="16.2" height="0.9"/>
			<path class="st9" d="M48.2,230c-0.2-3.7-0.2-9.1-0.4-12.9c-0.1-1.9-0.3-3.7-0.4-5.6c-0.1-1.9-0.3-3.7-0.5-5.6
				c-0.2-1.8-0.4-3.7-0.8-5.4c-0.1-0.5-0.2-0.8-0.3-1.2c0-0.1-0.1-0.2-0.1-0.3l-0.1-0.3l-0.2-0.7c-0.3-0.9-0.6-1.9-0.8-2.8
				c-0.4-1.9-0.7-3.9-0.7-5.8c0-1,0-2,0.1-3c0.1-0.5,0.1-1,0.2-1.5c0-0.3,0.1-0.5,0.2-0.8l0.1-0.6c0-0.2,0-0.4,0.1-0.6l0.1-0.7
				l0.1-1.4c0-0.9,0.1-1.8,0.1-2.8c0.1-1.9,0.1-3.7,0.1-5.6c0-1.9,0-3.7,0-5.6c0-1.9,0-3.7,0-5.6c0-1.9-0.1-3.7-0.2-5.6
				c0-0.5-0.1-0.9-0.1-1.4c0-0.4-0.1-0.9-0.1-1.4l-0.3-2.8l-1-11.2l0.1,0.5c-0.7-1.3-1.3-2.7-2-4c-0.3-0.7-0.6-1.4-0.9-2.1
				c-0.2-0.4-0.3-0.7-0.5-1.1c-0.1-0.4-0.3-0.7-0.4-1.1c-0.5-1.4-0.9-2.8-1.4-4.2c-0.5-1.4-1.1-2.7-1.6-4.1
				c-1.2-2.7-2.6-5.3-4.3-7.7c-0.9-1.2-1.8-2.3-2.9-3.3c-1-1-2.2-2-3.5-2.8l0.1-0.1c2.6,1.4,4.9,3.5,6.7,5.9
				c1.9,2.3,3.4,4.9,4.7,7.6c1.3,2.7,2.4,5.5,3.4,8.3c0.1,0.3,0.3,0.7,0.4,1c0.1,0.3,0.3,0.7,0.5,1c0.3,0.7,0.6,1.3,1,2
				c0.7,1.3,1.4,2.7,2.1,4l0,0l0,0l1.2,11.2c0.2,1.9,0.4,3.7,0.6,5.6c0.1,1.9,0.2,3.7,0.2,5.6c0.1,3.8,0.1,7.5,0,11.3
				c0,1.9-0.1,3.8-0.2,5.6c-0.1,1.9-0.2,3.7-0.4,5.6l-0.1,0.7c0,0.2-0.1,0.4-0.2,0.7c-0.1,0.5-0.2,0.9-0.2,1.4
				c-0.1,0.9-0.1,1.9-0.1,2.8c0,1.9,0.2,3.7,0.6,5.6c0.2,0.9,0.4,1.8,0.7,2.7c0.3,0.9,0.6,1.8,0.8,2.7c0.4,1.9,0.5,3.7,0.7,5.6
				c0.3,3.7,0.4,7.5,0.6,11.2c0.1,3.7,0.5,7.9,0.5,11.7L48.2,230z"/>
			<path class="st9" d="M29.8,203.5c1.6,0,3.1,0,4.6,0c0.7,0,1.5,0,2.2,0c0.7,0,1.5,0,2.2-0.1c0.7,0,1.4-0.1,2.1-0.2
				c0.7-0.1,1.4-0.3,2.1-0.4c0.7-0.2,1.4-0.4,2-0.7c0.7-0.3,1.3-0.6,2-1l0.1,0.1c-0.5,0.6-1.1,1.1-1.8,1.5c-0.6,0.4-1.3,0.8-2.1,1.1
				c-1.4,0.6-3,0.9-4.5,1c-1.5,0.1-3.1,0-4.6-0.1c-1.5-0.2-3-0.5-4.5-0.9L29.8,203.5z"/>
			<path class="st9" d="M24.9,71.6c-0.2,0.7-0.1,1.6-0.2,2.2c-0.2,0.7,0,1.3-0.1,2c-0.1,0.7-0.2,1.4-0.2,2.1c0,0.7,0,1.4,0.1,2.1
				c-0.1-0.7-0.2-1.4-0.3-2.1c0-0.7-0.1-1.4,0-2.1c0-0.7-0.1-1.1,0-1.8c0.1-0.7,0.2-2.1,0.4-2.8L24.9,71.6z"/>
			<path class="st9" d="M65.2,86.2c0.4-0.4,0.9-1,1.3-1.5c0.4-0.5,0.9-1.2,1.2-1.7c0.8-1.1,1.2-2.5,1.7-3.7c0.5-1.2,0.9-2.5,1.1-3.9
				l0.1-1c0-0.3,0-0.7,0-1l0-0.5l-0.1-0.5l-0.1-1l0.2,1l0.1,0.5l0.1,0.5c0,0.3,0.1,0.7,0.1,1l0,1c-0.1,1.4-0.2,2.8-0.7,4.1
				c-0.4,1.3-1,2.6-1.6,3.9c-0.3,0.6-0.7,1.2-1.1,1.8c-0.4,0.6-0.8,1.1-1.3,1.7L65.2,86.2z"/>
			<path class="st9" d="M30,83.7c0.4,0,0.8-0.1,1.2-0.1c0.4-0.1,0.8-0.1,1.1-0.2c0.8-0.2,1.5-0.4,2.2-0.6c0.7-0.2,1.5-0.5,2.2-0.8
				c0.7-0.3,1.5-0.6,2.2-0.9c1.5-0.6,3-1,4.6-1.4c1.6-0.3,3.2-0.6,4.8-0.6l1.2,0c0.4,0,0.8,0,1.2,0.1c0.8,0.1,1.6,0.2,2.4,0.4
				c0.8,0.2,1.6,0.4,2.3,0.6c0.8,0.3,1.5,0.6,2.2,1c0.7,0.4,1.4,0.8,2.1,1.3l1.9,1.4c1.3,0.9,2.6,1.8,3.9,2.5l0,0.1
				c-1.4-0.6-2.8-1.5-4.1-2.3c-0.7-0.4-1.3-0.8-2-1.3c-0.6-0.4-1.3-0.8-2-1.2c-2.8-1.3-6-1.8-9.1-1.8c-3.1,0-6.2,0.8-9.2,1.8
				c-1.5,0.5-2.9,1.1-4.5,1.5c-0.8,0.2-1.5,0.3-2.3,0.4c-0.4,0.1-0.8,0.1-1.2,0.1C30.8,83.8,30.4,83.8,30,83.7L30,83.7z"/>
			<path class="st9" d="M43.5,73.2c0.9-0.2,1.8-0.3,2.7-0.4c0.4,0,0.9,0,1.3,0c0.4,0,0.9,0,1.3,0.1c0.4,0,0.9,0.1,1.3,0.1
				c0.4,0.1,0.9,0.1,1.3,0.2c0.9,0.2,1.7,0.4,2.6,0.7l0,0.1l-5.2-0.3L43.5,73.2L43.5,73.2z"/>
			<path class="st9" d="M46.7,198.6c0.3-1.2,0.4-2.4,0.5-3.6c0-0.6,0-1.2-0.1-1.8c-0.1-0.6-0.2-1.2-0.3-1.8
				c-0.2-1.2-0.3-2.5-0.3-3.8c0-1.3,0.1-2.6,0.5-3.9L47,184c-0.2-1.8-0.4-3.6-0.6-5.3l-0.3-2.7l-0.3-2.7c-0.4-3.6-0.7-7.2-0.9-10.8
				c-0.2-3.6-0.3-7.2-0.3-10.9c0-1.8,0.1-3.6,0.3-5.5c0-0.9,0.2-1.8,0.3-2.8c0-0.5,0.1-0.9,0.2-1.4l0.2-1.4l0-0.1l0-0.1
				c0.9-2.9,1.9-5.8,2.9-8.6c1.1-2.8,2.1-5.7,3.4-8.5c0.6-1.4,1.4-2.8,2.2-4.1c0.8-1.3,1.7-2.6,2.8-3.7c1-1.2,2.2-2.2,3.5-3.1
				c1.3-0.9,2.7-1.5,4.1-2l0.1,0.2c-1.4,0.6-2.7,1.3-3.9,2.2c-1.2,0.9-2.3,2-3.2,3.2c-0.9,1.2-1.8,2.4-2.5,3.8
				c-0.7,1.3-1.4,2.7-2,4.1c-1.1,2.8-2.1,5.6-3.1,8.5c-1,2.9-1.9,5.7-2.8,8.6l0,0c-0.7,3.5-0.8,7.1-0.9,10.7
				c-0.1,3.6,0,7.2,0.2,10.8c0.2,3.6,0.4,7.2,0.7,10.7l0.2,2.7l0.2,2.7l0.4,5.4l0,0l0,0c-0.4,1.2-0.5,2.4-0.6,3.6
				c-0.1,1.2,0,2.5,0.1,3.7c0,0.6,0.1,1.2,0.1,1.9c0,0.6,0,1.3,0,1.9c-0.1,1.2-0.3,2.5-0.7,3.7L46.7,198.6z"/>
			
				<rect x="44.5" y="137.3" transform="matrix(7.128043e-02 -0.9975 0.9975 7.128043e-02 -96.7928 174.5585)" class="st9" width="1.7" height="4"/>
			<path class="st9" d="M55.1,30.9c-3-1-9.3-1.2-11.4-1.3l-0.1,0c-1.9-0.1-10.4,0.9-10.5,0.9l0-0.4c0.4,0,8.6-1,10.6-0.9l0.1,0
				c2.1,0.1,8.5,0.3,11.5,1.3L55.1,30.9z"/>
			<path class="st9" d="M48,183.9c0.1,0.4,0.4,0.8,0.6,1.1c0.3,0.3,0.5,0.7,0.8,1c0.6,0.6,1.2,1.1,1.9,1.6c0.7,0.5,1.4,0.9,2.1,1.2
				c0.7,0.3,1.5,0.6,2.2,0.8c0.8,0.2,1.5,0.3,2.3,0.3c0.8,0,1.6-0.1,2.4-0.3c0.8-0.2,1.6-0.4,2.4-0.7c0.8-0.3,1.6-0.7,2.4-1.1
				l0.1,0.1c-0.7,0.6-1.4,1.1-2.2,1.6c-0.4,0.2-0.8,0.4-1.2,0.6c-0.4,0.2-0.8,0.4-1.2,0.5c-1.7,0.6-3.6,0.7-5.3,0.3
				c-1.8-0.4-3.4-1.3-4.7-2.5c-0.7-0.6-1.3-1.3-1.8-2c-0.3-0.4-0.5-0.8-0.7-1.2c-0.2-0.4-0.3-0.8-0.3-1.3L48,183.9z"/>
			<path class="st9" d="M-33.9,37.5l3.1-2.4c1-0.8,2.1-1.6,3.1-2.4l-0.1,0.1c0,0.1,0,0,0,0c0,0,0,0,0,0c0,0,0-0.1,0-0.1
				c0-0.1,0-0.1-0.1-0.2c0-0.1-0.1-0.3-0.2-0.4c-0.1-0.1-0.2-0.3-0.2-0.4c-0.1-0.1-0.2-0.2-0.3-0.3c-0.2-0.1-0.5-0.2-0.8-0.2
				c-0.3,0-0.6,0-0.9,0.1l0.2-0.1c-0.4,0.4-0.9,0.8-1.3,1.2c-0.5,0.4-0.9,0.8-1.4,1.2c-0.9,0.8-1.9,1.5-2.9,2.2l-0.1-0.1
				c0.8-0.9,1.6-1.8,2.4-2.7c0.4-0.4,0.9-0.9,1.3-1.3c0.4-0.4,0.9-0.8,1.3-1.2l0.1-0.1l0.1,0c0.4-0.1,0.8-0.1,1.2-0.1
				c0.4,0,0.8,0.2,1.2,0.4c0.2,0.1,0.3,0.3,0.4,0.5c0.1,0.2,0.2,0.3,0.3,0.5c0.1,0.2,0.1,0.3,0.2,0.5c0,0.1,0,0.2,0.1,0.3
				c0,0.1,0,0.1,0,0.2c0,0,0,0.1,0,0.1c0,0,0,0.1-0.1,0.2l0,0l-0.1,0c-1.1,0.7-2.1,1.5-3.2,2.2L-33.9,37.5L-33.9,37.5z"/>
			<polygon class="st9" points="-25.6,36.3 -31.7,39.4 -26,35.6 			"/>
			<path class="st9" d="M35.9,225.9c-0.4-1.5-0.7-3.1-1.1-4.6l-1.1-4.6l-2.1-9.2l-0.1-0.3l0.3,0c2.3,0.1,4.7,0.2,7,0
				c1.2-0.1,2.3-0.2,3.5-0.4c1.1-0.2,2.3-0.5,3.2-1.1l0.4-0.3l0,0.5l1.5,19.9c0.1,1.7,0.2,3.3,0.3,5c0.1,1.7,0.2,3.3,0.3,5
				c0.2,3.3,0.4,6.6,0.5,10l0,0.1l-0.1,0.1c-0.5,0.4-1.1,0.7-1.7,0.9c-0.6,0.2-1.2,0.3-1.9,0.4c-0.6,0-1.3,0-1.9-0.1
				c-0.6-0.1-1.2-0.4-1.8-0.7l0-0.1c0.6,0.2,1.1,0.4,1.8,0.5c0.6,0.1,1.2,0.1,1.8,0c0.6-0.1,1.2-0.2,1.7-0.5
				c0.6-0.2,1.1-0.5,1.5-0.9l-0.1,0.2c-0.3-3.3-0.6-6.6-0.8-9.9c-0.1-1.7-0.3-3.3-0.4-5c-0.1-1.7-0.2-3.3-0.3-5L45.3,206l0.5,0.2
				c-1.1,0.7-2.2,0.9-3.4,1.2c-1.2,0.2-2.3,0.3-3.5,0.4c-1.2,0.1-2.4,0.1-3.5,0.1c-1.2,0-2.3-0.1-3.5-0.2l0.2-0.2l2,9.2l1,4.6
				C35.3,222.8,35.7,224.3,35.9,225.9L35.9,225.9z"/>
			<path class="st9" d="M46.6,270.4c-2.7,0-4.8-2.2-4.8-2.2l0.3-0.3c0,0,3.1,3.1,6.3,1.7c3.2-1.5,3.2-3.8,2.8-6.7l0.4-0.1
				c0.4,3,0.4,5.5-3,7.1C47.9,270.3,47.2,270.4,46.6,270.4z"/>
			<path class="st9" d="M48.1,209.1c0.9,0.3,1.9,0.6,2.9,0.8c0.5,0.1,1,0.2,1.5,0.1c0.1,0,0.2,0,0.3-0.1c0.1-0.1,0.2-0.2,0.2-0.3
				c0.1-0.2,0.3-0.4,0.4-0.6c1-1.7,1.9-3.5,2.8-5.3c1.8-3.6,3.4-7.3,5.1-11l0.4,0.4c-1.1,0.4-2.2,0.7-3.3,0.8
				c-1.1,0.1-2.3,0.1-3.4-0.1c-0.6-0.1-1.1-0.3-1.7-0.4c-0.5-0.2-1.1-0.4-1.6-0.7c-0.2-0.1-0.5-0.2-0.8-0.4l-0.7-0.5
				c-0.2-0.2-0.5-0.4-0.7-0.5l-0.7-0.6l0.7-0.3c-0.1,1.5-0.2,3.1-0.3,4.6l-0.4,4.6c-0.1,1.5-0.3,3.1-0.4,4.7
				C48.4,205.9,48.2,207.5,48.1,209.1z M48,209.2c0-1.5,0.1-3.1,0.1-4.6c0.1-1.6,0.1-3.1,0.2-4.7l0.2-4.7c0.1-1.6,0.2-3.2,0.3-4.7
				l0.1-0.9l0.7,0.6l0.6,0.5c0.2,0.2,0.4,0.4,0.6,0.5c0.4,0.3,0.9,0.6,1.3,0.9c0.5,0.3,1,0.5,1.5,0.7c0.5,0.2,1,0.3,1.5,0.4
				c1,0.2,2.1,0.3,3.2,0.2c1.1-0.1,2.2-0.3,3.1-0.7l0.7-0.3l-0.3,0.7c-1.7,3.7-3.4,7.3-5.3,10.9c-0.9,1.8-1.9,3.6-3,5.3
				c-0.1,0.2-0.3,0.4-0.4,0.6c-0.1,0.1-0.2,0.2-0.3,0.3c-0.1,0-0.1,0.1-0.2,0.1c-0.1,0-0.1,0-0.2,0c-0.5,0.1-1,0-1.5-0.1
				c-0.5-0.1-1-0.3-1.5-0.4c-0.2-0.1-0.5-0.2-0.7-0.2l-0.4-0.1l-0.2-0.1l-0.1,0C48.1,209.2,48,209.2,48,209.2z"/>
			<g>
				<path class="st9" d="M116.3,29.9l4.6-2.2l-4.2,3c-0.2,0.1-0.5,0.1-0.6-0.1C116,30.4,116,30.1,116.3,29.9
					C116.2,30,116.3,29.9,116.3,29.9z"/>
				<path class="st9" d="M114.8,27.8l5.2-2.8l-4.7,3.6c-0.2,0.1-0.5,0.1-0.6-0.1C114.5,28.2,114.6,28,114.8,27.8
					C114.8,27.8,114.8,27.8,114.8,27.8z"/>
				<path class="st9" d="M119.6,22.6c-0.4,0.3-0.9,0.6-1.3,0.9c-0.4,0.3-0.9,0.6-1.3,0.8c-0.4,0.3-0.9,0.6-1.4,0.8
					c-0.5,0.2-1,0.4-1.6,0.4c0,0,0,0,0,0c0,0,0,0,0,0c0.4-0.5,0.8-0.8,1.2-1.1c0.4-0.3,1-0.4,1.4-0.7c0.5-0.2,1-0.4,1.5-0.6
					C118.6,22.9,119.1,22.7,119.6,22.6C119.6,22.5,119.6,22.6,119.6,22.6C119.6,22.6,119.6,22.6,119.6,22.6z"/>
				<path class="st9" d="M114.4,29.2c-0.6,0-1.6-0.1-2.1-0.8c-0.7-1,0.6-2.6,0.9-2.9c0.2-0.2,0.4-0.2,0.6,0c0.2,0.2,0.2,0.4,0,0.6
					c-0.6,0.6-1,1.6-0.9,1.8c0.2,0.4,1.2,0.4,1.8,0.4c0.2,0,0.4,0.1,0.5,0.4c0,0.2-0.1,0.4-0.4,0.5C115,29.2,114.7,29.2,114.4,29.2z
					"/>
				<path class="st9" d="M46.8,272.6c-0.9,0-2.1-0.2-3.2-0.9c-1.1-0.8-1.8-2-2.1-3.6c0,0,0-0.1,0-0.1c0-0.1,0.4-5.2,1.1-9.5
					c0.6-4,0.1-7.5,0-8c-0.2-0.5-1.5-3.4-1.7-6c-0.2-2.7-0.7-4.7-0.8-5l0,0c-1-3.1-10.1-30.4-10.6-35.9c-0.5-5.6,1.6-13.3,1.8-14.1
					c0-0.9,0-10.9-0.8-13.2c-0.1-0.4-0.5-1.3-1.1-2.6c-2.8-6.8-9.4-22.8-9.6-31.3c-0.2-9.8-0.5-24.7,9.4-39.6c0,0,1.9-2.9,2.4-5.9
					v-8.5l-6.9-7.5l-0.8,1.5c-0.5,0.8-11.3,19.5-14.6,22.7c-3.4,3.4-7.5,2.1-7.7,2.1c-8.3-3.1-20.3-11-30.3-30.8
					c-6-11.8-8.5-22.5-8.5-22.6l-0.4-3.2c0-0.2-0.8-5.8-0.9-7.8c0-0.6-0.1-1.4-0.1-2.2c-0.1-1.7-0.1-3.9-0.2-4.4
					c-0.1-0.2-0.2-1,5.5-5.6c0,0,0.1,0,0.1-0.1c0.1,0,1.4-0.7,2.7-0.3c0.4-0.7,1.1-1.4,2.3-1.1c1.7,0.5,1.5,1.7,1.5,2.2l-0.2,1.3
					c0.3,0.3,1,0.8,1.5,1.3c0.1,0.1,0.1,0.2,0.1,0.4l-0.2,1.2c1,0.5,1.9,1.3,1.8,1.9c-0.1,0.6-1.1,3.7-1.2,4c0,0.1-0.1,0.2-0.2,0.2
					c-0.3,0.2-0.9,0.3-1.5,0.1c-0.1,1.6-0.4,5.3-1.4,6.9c0,0.3,0,1.2,0.1,2.2c8.6,29.3,28.2,38.1,30.6,39.1l1.2-1.3
					c3-3,7.9-17.5,10.3-24.4c0.7-2.2,1.3-3.7,1.5-4.4c1.2-2.9,4.4-3.6,4.6-3.7c0,0,0,0,0.1,0c3.1-0.2,12.7-0.9,14.8-6.9
					c1.9-5.5,1-7.3,0.9-7.5c-1-1-8.4-8.2-8.9-10.1c0,0,0-0.1,0-0.1c0-0.6,0.3-14.8,5.8-22.2c0-0.1,0.1-0.1,0.2-0.1
					c0.1,0,2.5-1,5.1-0.6c0.4-0.9,1.9-3.3,5-4.1c3.5-0.8,10.8,1.3,15.2,8.6c0.3,0.5,0.6,0.9,0.8,1.4c4.2,7,7,11.1,11.5,8.4
					c0.2-0.1,0.4-0.1,0.5,0.1c0.1,0.1,0.2,0.4,0.1,0.5c0,0.1-1.1,1.6-2.7,2.8c-1,0.8-1.9,1.1-2.5,1.3c0.2,0.4,0.6,0.9,1.3,1.2
					c0.8,0.4,1.8,0.3,2.9-0.2l2.4-0.9c0.2-0.1,0.4,0,0.5,0.1c0.1,0.1,0.1,0.3,0,0.5c-0.1,0.1-1.1,1.5-2.7,2.5c0.4,0,0.8-0.1,1.3-0.3
					c0.2-0.1,0.4,0,0.5,0.1c0.1,0.2,0.1,0.4,0,0.5c-0.1,0.1-1.7,1.7-3.3,2.7c0.7,0,1.4,0,2.1-0.3c0.2-0.1,0.4,0,0.5,0.2
					c0.1,0.2,0.1,0.4-0.1,0.5c-0.2,0.2-4.9,4.3-18.3,6.6c-0.1,1.5-0.5,7.8,0.9,9.9c1.5,2.3,10.2,5.7,14.3,6.6l0,0c0,0,1,0.1,2.3,0.5
					c1.7,0.4,3.1,0.9,3.9,1.4c3.9,2.5,7.5,7.3,9.6,11.1c1.9,3.3,17.2,19.3,20.3,21.1c0.4,0.2,0.8,0.5,1.1,0.7
					c2.2,1.3,3.7,2.2,4.6,2.1c0.7-0.1,1.2,0.2,1.6,0.5c0.2-0.3,0.6-0.6,1-0.5c1.1-0.4,8-6.2,10.4-10c0.3-0.5,0.7-1.1,1.1-1.7
					c3.1-4.7,8.9-13.4,9.2-26.1c0.2-12.6-2.6-17-4-19.1c-0.2-0.3-0.3-0.5-0.4-0.7l-1.6-0.6c-0.7,0-1.2-0.7-1.3-1.1l-0.2-0.5
					c-0.9-0.1-3.5-0.5-5-1.7c0,0.2-0.1,0.3-0.3,0.5c-0.2,0.2-0.5,0.3-0.8,0.2c-0.6-0.1-2.2-0.6-3.2-0.8c-0.5-0.2-0.9-0.7-0.8-1.2
					l0.1-1l-0.5-0.1c-0.5-0.1-0.9-0.5-0.9-1l0-1.1l-0.9-0.2c-0.3-0.1-0.6-0.3-0.7-0.6c-0.2-0.3-0.2-0.6-0.1-0.9l0.3-1
					c0-0.1,0.1-0.2,0.2-0.3l1.5-0.9l0.5-1.3c0-0.1,0.1-0.2,0.2-0.2c0,0,3.3-1.5,4.3-2.5c0.1-0.1,0.4-0.2,0.5-0.1
					c0.4,0.3,9.6,6.5,11.3,8.4c0.4,0.4,8,7.8,10.1,18.4c1.8,9.4,3.6,34-19.8,60c-0.1,0.1-6,5.7-14.5,2.9c-8.3-2.8-36.4-30-37.6-31.1
					c-0.2-0.2-0.2-0.4,0-0.6c0.2-0.2,0.4-0.2,0.6,0c0.3,0.3,29.2,28.2,37.3,30.9c7.9,2.6,13.5-2.6,13.6-2.7
					c7.7-8.5,25-31.5,19.5-59.3c-2.1-10.6-9.8-17.9-9.8-18c0,0,0,0,0,0c-1.4-1.7-9.3-7-10.9-8.1c-1.1,1-3.5,2.1-4.1,2.4l-0.5,1.3
					c0,0.1-0.1,0.2-0.2,0.2l-1.5,0.9l-0.2,0.9c0,0.1,0,0.2,0,0.3c0,0.1,0.1,0.1,0.2,0.2l1.2,0.3c0.2,0,0.3,0.2,0.3,0.4l0.1,1.4
					c0,0.1,0.1,0.2,0.2,0.2l0.9,0.2c0.2,0,0.4,0.2,0.3,0.5l-0.2,1.4c0,0.1,0.1,0.3,0.2,0.3c1.5,0.4,2.7,0.7,3.1,0.8c0,0,0,0,0,0
					c0.1-0.1,0.5-0.8,0.4-1.1c0-0.2,0.1-0.3,0.1-0.3c0.2-0.1,0.2,0.1,0.3,0.2c0.8,1.4,4.2,2.1,5.4,2.2c0.2,0,0.3,0.1,0.4,0.3
					l0.3,0.8c0,0,0.2,0.6,0.6,0.6c0.1,0,0.1,0,0.2,0l1.8,0.7c0.1,0,0.2,0.1,0.2,0.2c0.1,0.2,0.3,0.5,0.5,0.8
					c1.4,2.2,4.4,6.7,4.1,19.6c-0.3,13-6.1,21.8-9.3,26.6c-0.4,0.7-0.8,1.2-1.1,1.7c-2.2,3.6-10.1,10.7-11.2,10.4
					c-0.1,0-0.4,0.3-0.5,0.6c-0.1,0.2-0.2,0.3-0.4,0.3c-0.2,0-0.3-0.1-0.4-0.3c0-0.1-0.3-0.7-1.1-0.6c-1.1,0.1-2.5-0.7-5.1-2.2
					c-0.4-0.2-0.7-0.4-1.1-0.7c-3.1-1.8-18.7-18-20.6-21.4c-2.1-3.6-5.6-8.4-9.4-10.8c-0.8-0.5-2-1-3.7-1.3
					c-1.2-0.3-2.3-0.4-2.3-0.4c-3.6-0.8-13-4.2-14.9-7c-1.8-2.6-1.1-10.4-1.1-10.8c0-0.2,0.2-0.4,0.4-0.4c9.3-1.5,14.4-4,16.7-5.4
					c-1.1,0-2.1-0.1-2.1-0.2c-0.2,0-0.3-0.2-0.3-0.4c0-0.2,0.1-0.4,0.3-0.4c0.9-0.2,2.2-1.2,3.2-2.1c-0.9,0-1.6-0.2-1.7-0.2
					c-0.2-0.1-0.3-0.2-0.3-0.4c0-0.2,0.1-0.3,0.3-0.4c1-0.3,1.9-1,2.6-1.6l-0.9,0.3c-1.3,0.5-2.5,0.6-3.6,0.1
					c-1.4-0.6-1.9-2-1.9-2.1c0-0.1,0-0.2,0-0.3c0.1-0.1,0.2-0.2,0.3-0.2c0,0,1.2-0.3,2.7-1.3c0.5-0.4,1-0.8,1.4-1.2
					c-4.5,1.3-7.5-3.7-11-9.4c-0.3-0.5-0.6-0.9-0.8-1.4c-4.2-6.9-11-9-14.3-8.2c-3.3,0.8-4.5,3.8-4.5,3.9c-0.1,0.2-0.3,0.3-0.5,0.3
					c-2.2-0.4-4.4,0.3-4.9,0.5c-5,7-5.5,20.6-5.5,21.6c0.4,1.3,5.5,6.6,8.7,9.7c0,0,0,0,0,0.1c0.1,0.2,1.3,2.1-0.8,8.3
					c-2.2,6.6-12.2,7.3-15.5,7.5c-0.3,0.1-2.9,0.8-3.9,3.1c-0.2,0.6-0.8,2.2-1.5,4.3c-2.6,7.5-7.3,21.6-10.5,24.7l-1.4,1.5
					c-0.1,0.1-0.3,0.2-0.5,0.1c-0.2-0.1-5.6-2-12.2-8c-6.1-5.4-14.4-15.4-19.2-31.9c0,0,0-0.1,0-0.1c-0.1-1.4-0.1-2.5-0.1-2.5
					c0-0.1,0-0.2,0.1-0.2c1.1-1.4,1.4-5.8,1.4-7.3c0-0.2,0.1-0.3,0.3-0.4c0.2-0.1,0.4,0,0.5,0.2c0.3,0.4,0.7,0.3,1,0.2
					c0.4-1.3,1-3.2,1.1-3.7c-0.1-0.2-0.9-0.8-1.7-1.2c-0.2-0.1-0.3-0.3-0.2-0.4l0.2-1.3c-0.6-0.6-1.4-1.2-1.4-1.2
					c-0.1-0.1-0.2-0.3-0.2-0.4l0.3-1.5c0.1-0.6,0.2-1-0.8-1.3c-1-0.3-1.4,0.9-1.4,1c0,0.1-0.1,0.2-0.2,0.3c-0.1,0-0.2,0-0.4,0
					c-0.9-0.5-2.1,0-2.3,0.1c-2.3,1.9-4.9,4.2-5.1,4.8c0.1,0.6,0.2,2.2,0.3,4.5c0,0.8,0.1,1.6,0.1,2.2c0.1,2,0.9,7.7,0.9,7.8
					l0.4,3.1c0,0.1,2.5,10.6,8.5,22.3c9.9,19.5,21.7,27.3,29.8,30.3c0.1,0,3.8,1.1,6.8-1.9C11.8,101.3,22.9,82.1,23,82l1.1-2
					c0.1-0.1,0.2-0.2,0.3-0.2c0.1,0,0.3,0,0.4,0.1l7.4,8.1c0.1,0.1,0.1,0.2,0.1,0.3v8.7c0,0,0,0,0,0.1c-0.5,3.1-2.4,6.1-2.5,6.2
					c-9.8,14.7-9.5,29.4-9.3,39.1c0.2,8.3,6.7,24.2,9.5,31c0.5,1.3,0.9,2.3,1.1,2.7c0.9,2.5,0.9,13.1,0.9,13.5c0,0,0,0.1,0,0.1
					c0,0.1-2.3,8.3-1.8,13.9c0.5,5.4,9.6,32.6,10.6,35.7l0,0c0.1,0.4,0.7,2.4,0.9,5.2c0.2,2.7,1.6,5.8,1.7,5.8c0,0,0,0.1,0,0.1
					c0,0.2,0.6,3.9,0,8.3c-0.6,4.1-1,8.8-1.1,9.4c0.2,1.4,0.8,2.4,1.7,3c1.7,1.1,4.1,0.6,4.1,0.6c4.1-1,3.6-5.3,2.8-8.5l0-0.2
					c-0.3-1.3-0.1-2.8,0-4.2c0.1-0.6,0.1-1.1,0.2-1.6c0.1-1.1-0.5-3-0.9-4.5c-0.3-1-0.5-1.8-0.6-2.3c-0.1-0.7,0.3-1.3,0.5-1.8
					c0.3-0.5,0.4-0.8,0.3-1c-0.6-0.8-1.8-4.2-1.8-5.3c0-1-0.5-13.7-0.5-13.8c0-0.1,0-0.2,0.1-0.3c0.1-0.1,0.2-0.1,0.3-0.1
					c3.2,0.1,4.4-3.3,5.1-5.1c0.2-0.4,0.3-0.8,0.4-1c0.2-0.5,0.3-4.8,0.4-7.6c0.1-3.2,0.1-5.2,0.2-5.6c0.2-0.7,0.8-1,1.2-1.2
					c0.5-0.3,0.6-0.4,0.5-0.5c-0.3-1,0.1-3.3,0.2-3.5c0-0.1,0-0.1,0.1-0.1c0-0.1,4.7-6.8,7.3-13.1c2.6-6.1,0.3-11.4,0.3-11.5
					c0-0.1,0-0.2,0-0.3c0.1-0.2,6.3-21.3,7.9-35.8c1.6-14.4-7.8-31.5-7.9-31.7c-0.1-0.1-0.1-0.2,0-0.3c0.2-0.6,0.1-1.3-0.1-1.9
					c-1.5-4.2-3.1-9.5-2.1-11c0.8-1.2,1.4-4.8,1.7-7c0.2-1.2,0.3-1.7,0.4-2c0.3-0.7,1.1-2.4,1.1-2.4c0.1-0.2,0.4-0.3,0.6-0.2
					c0.2,0.1,0.5,0.8,0.4,1c0,0-1.1,1.3-1.3,2c-0.1,0.2-0.2,1-0.3,1.8c-0.4,2.4-0.9,6-1.9,7.4c-0.6,0.9,0.3,4.9,2.2,10.2
					c0.3,0.7,0.3,1.5,0.2,2.3c0.9,1.7,9.4,18.1,7.9,32c-1.5,13.9-7.3,33.9-7.8,35.8c0.4,0.9,2.1,6-0.4,12c-2.5,6-6.8,12.5-7.3,13.2
					c-0.1,0.7-0.4,2.3-0.2,3c0.3,0.8-0.4,1.2-0.9,1.5c-0.4,0.2-0.7,0.4-0.8,0.8c-0.1,0.4-0.2,3.1-0.2,5.4c-0.1,5.1-0.2,7.6-0.5,8.1
					c-0.1,0.1-0.2,0.5-0.3,0.8c-0.7,1.8-2,5.4-5.4,5.7c0.1,2.3,0.5,12.4,0.5,13.4c0,0.9,1.1,4.2,1.6,4.9c0.4,0.6,0.1,1.3-0.2,1.9
					c-0.2,0.4-0.5,0.9-0.4,1.3c0,0.4,0.3,1.3,0.5,2.2c0.5,1.6,1,3.6,1,4.8c0,0.5-0.1,1.1-0.2,1.7c-0.2,1.3-0.3,2.7-0.1,3.9l0,0.2
					c0.5,2,1.9,8.2-3.4,9.5C48.3,272.5,47.7,272.6,46.8,272.6z M-24.8,37.5L-24.8,37.5L-24.8,37.5z M-38.1,36.2L-38.1,36.2
					L-38.1,36.2z"/>
			</g>
			<path class="st9" d="M40.6,26.2c-1,0-1.7,0-4-0.5l-0.7-0.2l0.3-0.2c0.1,0,2.4-1,3.6-1c0,0,1.1-0.1,1.7,0.8l0,0l0.3,1l-0.3,0
				C41.5,26.2,41.2,26.2,40.6,26.2z M36.5,25.5c2.2,0.5,4.3,0.5,4.9,0.5l-0.2-0.6c-0.5-0.7-1.3-0.6-1.4-0.6
				C39,24.7,37.2,25.2,36.5,25.5z"/>
			<path class="st9" d="M38.9,24.4c0.1,0-2.8,0.5-3.7-0.2c0,0-0.1,1,0.6,1.2C35.9,25.5,38.4,24.6,38.9,24.4z"/>
			<path class="st9" d="M46.4,26.2l-0.3,0l0.3-1l0,0c0.6-0.9,1.7-0.8,1.7-0.8c1.2,0,3.5,1,3.6,1l0.3,0.2l-0.7,0.2
				c-2.3,0.5-3,0.5-4,0.5C46.8,26.2,46.5,26.2,46.4,26.2z M48.2,24.7c0,0-0.9-0.1-1.4,0.6L46.6,26c0.6,0,2.8,0.1,4.9-0.5
				C50.8,25.2,49,24.7,48.2,24.7z"/>
			<path class="st9" d="M51.7,24.6c-1.2,0.1-2.8-0.2-2.7-0.1c0.5,0.2,2.6,0.9,3,1L51.7,24.6z"/>
			<path class="st9" d="M130.4,96.2c-0.1,0-0.1,0-0.2-0.1c-8.2-4.7-7.6-10.1-7.6-10.4c0-0.2,0.2-0.4,0.5-0.4c0.2,0,0.4,0.2,0.4,0.5
				l0,0c0,0.1-0.5,5.2,7.2,9.5c0.2,0.1,0.3,0.4,0.2,0.6C130.6,96.1,130.5,96.2,130.4,96.2z"/>
			<path class="st9" d="M-12.9,97.9c-0.2,0-0.3-0.1-0.4-0.2c-0.1-0.2,0-0.5,0.2-0.6l0,0c0,0,4.8-2.5,7.5-10.7
				c0.1-0.2,0.3-0.3,0.5-0.3c0.2,0.1,0.3,0.3,0.3,0.5c-2.8,8.6-7.7,11.1-7.9,11.2C-12.8,97.9-12.9,97.9-12.9,97.9z"/>
			<path class="st9" d="M24.5,71.3L24.1,80l1.4,1c0,0-1.2-5.4-0.5-10L24.5,71.3z"/>
			<polygon class="st9" points="47.1,24.5 49.8,26.9 47.6,24.2 			"/>
			<path class="st9" d="M51.9,28.6l-0.5,4.9c0,0,1.2-3.6,1.4-4.7C52.9,27.6,51.9,28.6,51.9,28.6z"/>
			<polygon class="st9" points="53.9,29.7 53.8,32.7 54.6,29.9 			"/>
			<path class="st9" d="M69.9,25.1c0,0,1.2-1.2,2.4-3.2l-2.2,1.4c0,0-0.3,0.6-0.3,0.7S69.9,25.1,69.9,25.1z"/>
			<path class="st9" d="M70.1,28.9l3.7-1.6c0,0-0.5,1.6-1.8,2.6l-2.4,1L70.1,28.9z"/>
			<path class="st9" d="M71.7,30.9l2-0.9c0,0-1.7,1.9-2.4,2.4c-0.7,0.5-0.4-0.6-0.4-0.6L71.7,30.9z"/>
			<path class="st9" d="M71,34l2.1-0.7c0,0-1.4,1.3-2.2,1.8c-0.8,0.5-0.6-0.2-0.5-0.3C70.4,34.7,71,34,71,34z"/>
			<polygon class="st9" points="53,39.7 53.8,38.5 53.7,39.8 52.8,40.9 			"/>
			<g class="st41">
				
					<image style="overflow:visible;" width="716" height="847" xlink:href="C43CE63289952E20.png"  transform="matrix(0.24 0 0 0.24 -41.4076 62.1924)">
				</image>
				<g>
					<path class="st42" d="M40.6,136c-0.4,1.3-2.1,6.1-3.3,7.2L39,148l-1.3,6.3l-4.2,1.5c0,0-4.5-0.1-5.7-0.2
						c-1.2-0.2-2.4,2.7-5.9,2.5c0,0-1.2,3.2-2,4.5c0,0,3.4,2.8,2.8,5.4c-0.7,2.7-4.3,12.5-4.3,12.5s4.3,1.6,5.4,3.5l1.4,2.4l8.3,1.4
						c0,0,1.9,2,2.2,2.4c0.3,0.4,2.7,1.7,0.2,5c0,0,8.2,4.9,9.4,7.1c0,0,10.1,1.8,11.6,3.5c0,0,9.4-5.8,10.7-6.1
						c1.4-0.3,2.7-3.6,3.3-4.4c0,0-1.2-1.1-1.4-2.7c0,0-3.4-0.2-4.7-1.5c0,0,0.5,1,2.9,2.3c0,0,1.9,1.6,0.3,3.4
						c-1.6,1.8-3.1,3.1-3.7,3.6c-0.6,0.5-7.7,3.6-10.8,2.5s-4.9-1.3-4.9-1.3l-9.5-5.9c0,0-1.7-6.3-1.7-7.3l-3.5-2.5l-7.1-1
						c0,0-5.5-3.8-5.9-6.1c-0.3-2.3,2.1-9.4,2.1-9.4s0.3-4.2-0.6-6.3c-1-2,2.7-6,7.5-5.4c0,0,2.9,0.9,3.5,2.2c0,0,4.2-2.5,6.2-2.6
						c0,0,1.6-4.6,3-5.2c0,0-4-5.1-2.8-8.5c1.2-3.4,0.7-5.5,3.3-6.1s6.8-0.9,6.8-0.9s0.1-2,0.9-3.8c0,0-1.7-2.8-0.5-5.1l4.1-5.6
						l-0.9-0.4c0,0-4.5,5.2-5.2,6.3c-1.1,1.8,0.7,4.6,0.7,4.6s0,2-1,2.3C47.1,135.2,40.6,136,40.6,136z"/>
				</g>
			</g>
			<g>
				<circle class="st43" cx="18.8" cy="108.7" r="3"/>
				<linearGradient id="SVGID_3_" gradientUnits="userSpaceOnUse" x1="15.6348" y1="108.6482" x2="21.8335" y2="108.6482">
					<stop  offset="0.2111" style="stop-color:#844693"/>
					<stop  offset="1" style="stop-color:#B289BD"/>
				</linearGradient>
				<path class="st44" d="M18.6,105.7c-0.4,0.2-1.2,2.2,0.6,3.2c1.6,0.9,2.6-0.5,2.6-0.5s0.1,3.5-3.8,3.1S15.6,106,18.6,105.7"/>
				<ellipse transform="matrix(0.866 -0.5 0.5 0.866 -50.8887 24.5922)" class="st45" cx="20.4" cy="107.3" rx="0.7" ry="0.8"/>
				<ellipse transform="matrix(0.866 -0.5 0.5 0.866 -50.6469 23.8388)" class="st45" cx="19.2" cy="106.4" rx="0.3" ry="0.4"/>
				<path class="st46" d="M20.6,106.2c0.6,0.5,1.1,1.2,1.3,2c0.2,0.8,0,1.7-0.4,2.4c-0.5,0.7-1.2,1.2-2.1,1.4
					c-0.8,0.2-1.8,0-2.5-0.5c-0.7-0.5-1.3-1.3-1.4-2.2c-0.1-0.4-0.1-0.9,0-1.3c0.1-0.4,0.3-0.9,0.6-1.2c0.3-0.4,0.6-0.6,1-0.8
					c0.4-0.2,0.8-0.3,1.2-0.3C19.2,105.4,20,105.7,20.6,106.2z M20.6,106.3c-0.3-0.2-0.7-0.4-1.1-0.4c-0.4-0.1-0.8,0-1.1,0.1
					c-0.7,0.2-1.3,0.7-1.6,1.2c-0.4,0.6-0.5,1.2-0.5,1.9c0,0.3,0.1,0.7,0.3,1c0.2,0.3,0.4,0.6,0.7,0.8c0.6,0.4,1.3,0.6,2,0.5
					c0.7-0.1,1.4-0.5,1.8-1.1c0.4-0.6,0.7-1.3,0.6-2.1c0-0.4-0.2-0.8-0.4-1.1C21.2,106.8,20.9,106.5,20.6,106.3z"/>
				<path class="st47" d="M16.8,111.3c0,0,1.7-2.6,4.8-1.1c0,0-0.8,1.3-2,1.6C18.5,112.1,17.9,111.9,16.8,111.3z"/>
			</g>
			<g>
				<circle class="st43" cx="54.9" cy="119.2" r="3.7"/>
				<linearGradient id="SVGID_4_" gradientUnits="userSpaceOnUse" x1="50.9682" y1="119.1893" x2="58.5417" y2="119.1893">
					<stop  offset="0.2111" style="stop-color:#844693"/>
					<stop  offset="1" style="stop-color:#B289BD"/>
				</linearGradient>
				<path class="st48" d="M54.6,115.6c-0.5,0.2-1.4,2.7,0.8,4c2,1.1,3.1-0.6,3.1-0.6s0.2,4.3-4.7,3.8
					C49.1,122.4,50.9,116,54.6,115.6"/>
				<ellipse transform="matrix(0.866 -0.5 0.5 0.866 -51.1282 44.1633)" class="st45" cx="56.8" cy="117.5" rx="0.8" ry="1"/>
				<ellipse transform="matrix(0.866 -0.5 0.5 0.866 -50.8327 43.2428)" class="st45" cx="55.3" cy="116.5" rx="0.4" ry="0.5"/>
				<path class="st46" d="M57.1,116.2c0.8,0.6,1.3,1.4,1.5,2.4c0.2,1,0,2-0.5,2.9c-0.6,0.9-1.5,1.5-2.5,1.7c-1,0.2-2.1,0-3-0.6
					c-0.9-0.6-1.5-1.6-1.7-2.6c-0.1-0.5-0.1-1.1,0-1.6c0.1-0.5,0.4-1,0.7-1.5c0.3-0.4,0.8-0.8,1.2-1c0.5-0.2,1-0.4,1.5-0.4
					C55.3,115.3,56.3,115.6,57.1,116.2z M57,116.3c-0.4-0.3-0.8-0.4-1.3-0.5c-0.5-0.1-0.9,0-1.4,0.1c-0.9,0.3-1.6,0.8-2,1.5
					c-0.5,0.7-0.7,1.5-0.6,2.3c0,0.4,0.2,0.8,0.4,1.2c0.2,0.4,0.5,0.7,0.8,1c0.7,0.5,1.6,0.8,2.4,0.7c0.9-0.1,1.7-0.6,2.2-1.3
					c0.5-0.7,0.8-1.6,0.8-2.6c0-0.5-0.2-0.9-0.4-1.3C57.7,116.9,57.4,116.6,57,116.3z"/>
				<path class="st47" d="M52.4,122.5c0,0,2.1-3.2,5.8-1.3c0,0-1,1.6-2.4,1.9C54.4,123.4,53.7,123.2,52.4,122.5z"/>
			</g>
			<g>
				<circle class="st43" cx="36" cy="117.2" r="4.3"/>
				<linearGradient id="SVGID_5_" gradientUnits="userSpaceOnUse" x1="31.4059" y1="117.1383" x2="40.3622" y2="117.1383">
					<stop  offset="0.2111" style="stop-color:#844693"/>
					<stop  offset="1" style="stop-color:#B289BD"/>
				</linearGradient>
				<path class="st49" d="M35.7,112.8c-0.6,0.3-1.7,3.2,0.9,4.7c2.4,1.3,3.7-0.7,3.7-0.7s0.2,5-5.5,4.5S31.3,113.3,35.7,112.8"/>
				<ellipse transform="matrix(0.866 -0.5 0.5 0.866 -52.4244 34.6023)" class="st45" cx="38.4" cy="115.1" rx="0.9" ry="1.2"/>
				<ellipse transform="matrix(0.866 -0.5 0.5 0.866 -52.0749 33.5137)" class="st45" cx="36.5" cy="113.9" rx="0.5" ry="0.6"/>
				<path class="st46" d="M38.6,113.6c0.9,0.7,1.6,1.7,1.8,2.9c0.3,1.1,0,2.4-0.6,3.4c-0.7,1-1.8,1.7-3,2c-1.2,0.2-2.5,0-3.6-0.8
					c-1-0.7-1.8-1.9-2.1-3.1c-0.1-0.6-0.1-1.3,0-1.9c0.1-0.6,0.4-1.2,0.8-1.8c0.4-0.5,0.9-0.9,1.5-1.2c0.6-0.3,1.2-0.4,1.8-0.5
					C36.5,112.5,37.7,112.9,38.6,113.6z M38.5,113.7c-0.5-0.3-1-0.5-1.5-0.6c-0.5-0.1-1.1,0-1.6,0.1c-1,0.3-1.8,1-2.4,1.8
					c-0.5,0.8-0.8,1.8-0.7,2.8c0.1,0.5,0.2,1,0.5,1.4c0.2,0.4,0.6,0.8,1,1.1c0.8,0.6,1.8,0.9,2.9,0.8c1-0.1,2-0.7,2.6-1.5
					c0.6-0.8,1-1.9,0.9-3c-0.1-0.5-0.2-1.1-0.5-1.6C39.4,114.4,39,114,38.5,113.7z"/>
				<path class="st47" d="M33.1,121c0,0,2.5-3.8,6.9-1.5c0,0-1.2,1.9-2.8,2.3C35.5,122.1,34.6,121.9,33.1,121z"/>
			</g>
			<g>
				<circle class="st43" cx="71.8" cy="110.6" r="2.5"/>
				<linearGradient id="SVGID_6_" gradientUnits="userSpaceOnUse" x1="69.1624" y1="110.6134" x2="74.3115" y2="110.6134">
					<stop  offset="0.2111" style="stop-color:#844693"/>
					<stop  offset="1" style="stop-color:#B289BD"/>
				</linearGradient>
				<path class="st50" d="M71.6,108.1c-0.4,0.1-1,1.8,0.5,2.7c1.4,0.8,2.1-0.4,2.1-0.4s0.1,2.9-3.2,2.6
					C67.9,112.8,69.1,108.4,71.6,108.1"/>
				<ellipse transform="matrix(0.866 -0.5 0.5 0.866 -44.927 51.2436)" class="st45" cx="73.2" cy="109.5" rx="0.5" ry="0.7"/>
				<ellipse transform="matrix(0.866 -0.5 0.5 0.866 -44.7261 50.6178)" class="st45" cx="72.1" cy="108.8" rx="0.3" ry="0.3"/>
				<path class="st46" d="M73.3,108.6c0.5,0.4,0.9,1,1.1,1.6c0.1,0.7,0,1.4-0.4,2c-0.4,0.6-1,1-1.7,1.1c-0.7,0.1-1.5,0-2.1-0.4
					c-0.6-0.4-1-1.1-1.2-1.8c-0.1-0.4-0.1-0.7,0-1.1c0.1-0.4,0.3-0.7,0.5-1c0.2-0.3,0.5-0.5,0.8-0.7c0.3-0.2,0.7-0.3,1-0.3
					C72.1,107.9,72.8,108.2,73.3,108.6z M73.3,108.6c-0.3-0.2-0.6-0.3-0.9-0.3c-0.3,0-0.6,0-0.9,0.1c-0.6,0.2-1.1,0.6-1.4,1
					c-0.3,0.5-0.4,1-0.4,1.6c0,0.3,0.1,0.6,0.3,0.8c0.1,0.2,0.3,0.5,0.6,0.6c0.5,0.4,1.1,0.5,1.7,0.4c0.6-0.1,1.1-0.4,1.5-0.9
					c0.4-0.5,0.6-1.1,0.5-1.7c0-0.3-0.1-0.6-0.3-0.9C73.8,109.1,73.5,108.8,73.3,108.6z"/>
				<path class="st47" d="M70.1,112.8c0,0,1.4-2.2,4-0.9c0,0-0.7,1.1-1.6,1.3S71,113.3,70.1,112.8z"/>
			</g>
			<g class="st41">
				<path class="st51" d="M141.8,39.6l-1.8,0.1l-0.1,0.7c0.6-0.2,1.2-0.3,1.3-0.3c0.2-0.1,2.1,0.9,2.1,0.9l0,0
					c0.1,0.1,0.1,0.2,0.2,0.3c-0.5-1-0.9-1.7-0.9-1.7L141.8,39.6z"/>
				<path class="st51" d="M148.3,50.1c0,0-0.4-1.8,0.5-3.2c0,0-3.3-3.4-5-5.7c-0.7,0.4,0.8,1.5,3,5.3c0,0,0.6,2.5-1.9,3.1
					c-2.5,0.6-4.6,0.8-5.5,0.8c-0.8,0.1-8.9-1.7-11-4.6c-2.1-2.9-0.4-2.5-0.4-2.5l-1.2-1.9c-0.1,0-0.2,0-0.2,0
					c0.4-0.5,3.7-0.1,4.4-0.2c0-0.2-0.1-0.4-0.1-0.6l-5.9,0.4c0,0,0.1,0.1,0.2,0.2c-0.2,0-0.4,0-0.5-0.1c0.3,1.1,0,0.2-0.1,0.8
					c0,0,4.5,6.2,4.8,8.7c0,0,11.8,0.8,13.2,1.4c0.6,0.3,1.6,0,2.6-0.4c-1.3,2.9-1.2,7-2.9,8.9l0.2,2.6l3.5,5.8c0,0,0.6,6.3-0.9,8
					c-1.5,1.7-8.2,4.1-8.2,4.1s-3.3,2.3-4.2,4.2c-0.9,1.9-6,1.7-8.5-2.2c0,0-1.1-2.7-0.5-3.9c0,0-4.3-1.5-5.7-2.9c0,0-4.3,1.6-5.6,1
					c0,0-1.3,6-4.5,7.2c-3.2,1.2-4.4,2.8-6.5,1.3c-1.2-0.9-4.3-1.7-5.3-2.6c-0.3,0.5,2.4,3,2.4,3l2.4,2.4c1.3-0.5,6.5-2.2,8.1-2
					l2.5-4.2l5.4-2.9l3.6,2.2c0,0,2.7,3.4,3.3,4.3c0.6,1,3.4,0.1,5.4,2.8c0,0,3.1-1,4.5-1.2c0,0-0.1-4.2,2.3-5.3s11.7-4.4,11.7-4.4
					s-1.5-4.1-0.7-6l0.9-2.5l-4-6.9c0,0,0.3-2.6,0.4-3.1C144.8,58.8,146.3,52.6,148.3,50.1z"/>
			</g>
			<g>
				<circle class="st43" cx="127" cy="40.7" r="1.6"/>
				<linearGradient id="SVGID_7_" gradientUnits="userSpaceOnUse" x1="125.35" y1="40.7378" x2="128.6145" y2="40.7378">
					<stop  offset="0.2111" style="stop-color:#844693"/>
					<stop  offset="1" style="stop-color:#B289BD"/>
				</linearGradient>
				<path class="st52" d="M126.9,39.2c-0.2,0.1-0.6,1.2,0.3,1.7c0.9,0.5,1.3-0.2,1.3-0.2s0.1,1.8-2,1.7
					C124.5,42.1,125.3,39.3,126.9,39.2"/>
				<ellipse transform="matrix(0.866 -0.5 0.5 0.866 -2.8691 69.3013)" class="st45" cx="127.9" cy="40" rx="0.3" ry="0.4"/>
				<ellipse transform="matrix(0.866 -0.5 0.5 0.866 -2.7418 68.9045)" class="st45" cx="127.2" cy="39.6" rx="0.2" ry="0.2"/>
				<path class="st46" d="M128,39.5c0.3,0.3,0.6,0.6,0.7,1c0.1,0.4,0,0.9-0.2,1.2c-0.2,0.4-0.7,0.6-1.1,0.7c-0.4,0.1-0.9,0-1.3-0.3
					c-0.4-0.3-0.7-0.7-0.7-1.1c0-0.2,0-0.5,0-0.7c0.1-0.2,0.2-0.5,0.3-0.6c0.1-0.2,0.3-0.3,0.5-0.4c0.2-0.1,0.4-0.2,0.7-0.2
					C127.2,39,127.6,39.2,128,39.5z M128,39.5c-0.2-0.1-0.4-0.2-0.6-0.2c-0.2,0-0.4,0-0.6,0c-0.4,0.1-0.7,0.4-0.9,0.6
					c-0.2,0.3-0.3,0.7-0.2,1c0,0.2,0.1,0.4,0.2,0.5c0.1,0.2,0.2,0.3,0.4,0.4c0.3,0.2,0.7,0.3,1,0.3c0.4,0,0.7-0.2,1-0.6
					c0.2-0.3,0.4-0.7,0.3-1.1c0-0.2-0.1-0.4-0.2-0.6C128.3,39.8,128.1,39.6,128,39.5z"/>
				<path class="st47" d="M126,42.2c0,0,0.9-1.4,2.5-0.6c0,0-0.4,0.7-1,0.8C126.8,42.5,126.5,42.5,126,42.2z"/>
			</g>
			<g>
				<circle class="st43" cx="131.3" cy="50.1" r="1.9"/>
				<linearGradient id="SVGID_8_" gradientUnits="userSpaceOnUse" x1="129.3297" y1="50.0402" x2="133.2171" y2="50.0402">
					<stop  offset="0.2111" style="stop-color:#844693"/>
					<stop  offset="1" style="stop-color:#B289BD"/>
				</linearGradient>
				<path class="st53" d="M131.2,48.2c-0.3,0.1-0.7,1.4,0.4,2c1,0.6,1.6-0.3,1.6-0.3s0.1,2.2-2.4,2S129.3,48.4,131.2,48.2"/>
				<ellipse transform="matrix(0.866 -0.5 0.5 0.866 -6.8524 72.7604)" class="st45" cx="132.3" cy="49.2" rx="0.4" ry="0.5"/>
				<ellipse transform="matrix(0.866 -0.5 0.5 0.866 -6.7007 72.2879)" class="st45" cx="131.5" cy="48.6" rx="0.2" ry="0.3"/>
				<path class="st46" d="M132.5,48.5c0.4,0.3,0.7,0.7,0.8,1.2c0.1,0.5,0,1.1-0.3,1.5c-0.3,0.4-0.8,0.8-1.3,0.8
					c-0.5,0.1-1.1,0-1.6-0.3c-0.5-0.3-0.8-0.8-0.9-1.4c-0.1-0.3,0-0.6,0-0.8c0.1-0.3,0.2-0.5,0.4-0.8c0.2-0.2,0.4-0.4,0.6-0.5
					c0.2-0.1,0.5-0.2,0.8-0.2C131.6,48,132.1,48.2,132.5,48.5z M132.4,48.6c-0.2-0.1-0.4-0.2-0.7-0.3c-0.2,0-0.5,0-0.7,0
					c-0.4,0.1-0.8,0.4-1,0.8c-0.2,0.4-0.3,0.8-0.3,1.2c0,0.2,0.1,0.4,0.2,0.6c0.1,0.2,0.2,0.4,0.4,0.5c0.3,0.3,0.8,0.4,1.2,0.3
					c0.4-0.1,0.9-0.3,1.1-0.7c0.3-0.4,0.4-0.8,0.4-1.3c0-0.2-0.1-0.5-0.2-0.7C132.8,48.9,132.6,48.7,132.4,48.6z"/>
				<path class="st47" d="M130.1,51.7c0,0,1.1-1.6,3-0.7c0,0-0.5,0.8-1.2,1C131.1,52.2,130.7,52.1,130.1,51.7z"/>
			</g>
			<g>
				<circle class="st43" cx="146.3" cy="44.7" r="1.8"/>
				<linearGradient id="SVGID_9_" gradientUnits="userSpaceOnUse" x1="144.3432" y1="44.698" x2="148.063" y2="44.698">
					<stop  offset="0.2111" style="stop-color:#844693"/>
					<stop  offset="1" style="stop-color:#B289BD"/>
				</linearGradient>
				<path class="st54" d="M146.1,42.9c-0.3,0.1-0.7,1.3,0.4,1.9c1,0.5,1.5-0.3,1.5-0.3s0.1,2.1-2.3,1.9
					C143.4,46.3,144.3,43.1,146.1,42.9"/>
				<ellipse transform="matrix(0.866 -0.5 0.5 0.866 -2.2061 79.4914)" class="st45" cx="147.2" cy="43.9" rx="0.4" ry="0.5"/>
				<ellipse transform="matrix(0.866 -0.5 0.5 0.866 -2.061 79.0393)" class="st45" cx="146.5" cy="43.4" rx="0.2" ry="0.2"/>
				<path class="st46" d="M147.3,43.2c0.4,0.3,0.7,0.7,0.8,1.2c0.1,0.5,0,1-0.3,1.4c-0.3,0.4-0.7,0.7-1.3,0.8
					c-0.5,0.1-1.1,0-1.5-0.3c-0.4-0.3-0.8-0.8-0.9-1.3c0-0.3,0-0.5,0-0.8c0.1-0.3,0.2-0.5,0.3-0.7c0.2-0.2,0.4-0.4,0.6-0.5
					c0.2-0.1,0.5-0.2,0.7-0.2C146.5,42.8,147,42.9,147.3,43.2z M147.3,43.3c-0.2-0.1-0.4-0.2-0.6-0.3c-0.2,0-0.5,0-0.7,0
					c-0.4,0.1-0.8,0.4-1,0.7c-0.2,0.3-0.3,0.7-0.3,1.1c0,0.2,0.1,0.4,0.2,0.6c0.1,0.2,0.2,0.3,0.4,0.5c0.3,0.3,0.8,0.4,1.2,0.3
					c0.4-0.1,0.8-0.3,1.1-0.6c0.3-0.3,0.4-0.8,0.4-1.3c0-0.2-0.1-0.5-0.2-0.7C147.7,43.6,147.5,43.4,147.3,43.3z"/>
				<path class="st47" d="M145.1,46.3c0,0,1-1.6,2.9-0.6c0,0-0.5,0.8-1.2,0.9C146,46.8,145.7,46.7,145.1,46.3z"/>
			</g>
			<g>
				<circle class="st43" cx="141.7" cy="40.2" r="1.2"/>
				<linearGradient id="SVGID_10_" gradientUnits="userSpaceOnUse" x1="140.3987" y1="40.1596" x2="142.9156" y2="40.1596">
					<stop  offset="0.2111" style="stop-color:#844693"/>
					<stop  offset="1" style="stop-color:#B289BD"/>
				</linearGradient>
				<path class="st55" d="M141.6,39c-0.2,0.1-0.5,0.9,0.3,1.3c0.7,0.4,1-0.2,1-0.2s0.1,1.4-1.5,1.3C139.8,41.2,140.4,39.1,141.6,39"
					/>
				<ellipse transform="matrix(0.866 -0.5 0.5 0.866 -0.7256 76.4806)" class="st45" cx="142.4" cy="39.6" rx="0.3" ry="0.3"/>
				<ellipse transform="matrix(0.866 -0.5 0.5 0.866 -0.6274 76.1747)" class="st45" cx="141.8" cy="39.3" rx="0.1" ry="0.2"/>
				<path class="st46" d="M142.4,39.2c0.3,0.2,0.4,0.5,0.5,0.8c0.1,0.3,0,0.7-0.2,1c-0.2,0.3-0.5,0.5-0.8,0.5c-0.3,0.1-0.7,0-1-0.2
					c-0.3-0.2-0.5-0.5-0.6-0.9c0-0.2,0-0.4,0-0.5c0-0.2,0.1-0.3,0.2-0.5c0.1-0.1,0.3-0.3,0.4-0.3c0.2-0.1,0.3-0.1,0.5-0.1
					C141.8,38.9,142.2,39,142.4,39.2z M142.4,39.2c-0.1-0.1-0.3-0.1-0.4-0.2c-0.2,0-0.3,0-0.4,0c-0.3,0.1-0.5,0.3-0.7,0.5
					c-0.2,0.2-0.2,0.5-0.2,0.8c0,0.1,0.1,0.3,0.1,0.4c0.1,0.1,0.2,0.2,0.3,0.3c0.2,0.2,0.5,0.3,0.8,0.2c0.3,0,0.6-0.2,0.7-0.4
					c0.2-0.2,0.3-0.5,0.3-0.8c0-0.2-0.1-0.3-0.1-0.4C142.6,39.4,142.5,39.3,142.4,39.2z"/>
				<path class="st47" d="M140.9,41.3c0,0,0.7-1.1,1.9-0.4c0,0-0.3,0.5-0.8,0.6S141.3,41.5,140.9,41.3z"/>
			</g>
			<path class="st51" d="M4.8,86.8c-0.9,0.9-4,1.7-5.1,2.6c-2,1.5-3.2-0.1-6.3-1.3c-3.1-1.1-4.4-6.9-4.4-6.9c-1.3,0.6-5.5-1-5.5-1
				c-1.3,1.3-5.5,2.8-5.5,2.8c0.6,1.2-0.4,3.8-0.4,3.8c-2.4,3.8-7.3,4-8.2,2.2c-0.9-1.9-4.1-4.1-4.1-4.1s-6.5-2.4-7.9-4
				c-1.4-1.6-0.9-7.8-0.9-7.8l3.4-5.6l0.2-2.6c-1.6-1.9-1.5-5.9-2.8-8.7c1,0.4,1.9,0.6,2.5,0.4c1.3-0.6,12.8-1.3,12.8-1.3
				c0.3-2.4,4.6-8.4,4.6-8.4c-0.1-0.6-0.4,0.3-0.1-0.7c-0.2,0-0.3,0-0.5,0.1C-23.1,46.1-23,46-23,46l-4.1-0.3c0,0.1,0,0.3-0.1,0.4
				c1.1-0.1,2.3-0.1,2.6,0.2c-0.1,0-0.1,0-0.2,0l-1.1,1.9c0,0,1.7-0.4-0.3,2.5c-2,2.8-9.9,4.6-10.7,4.5c-0.8-0.1-2.9-0.2-5.3-0.8
				c-2.4-0.6-1.8-3-1.8-3c2.2-3.7,3.6-4.8,2.9-5.2c-1.6,2.3-4.8,5.6-4.8,5.6c0.9,1.4,0.5,3.1,0.5,3.1c2,2.4,3.4,8.4,3.5,8.8
				c0.1,0.4,0.4,3,0.4,3l-3.9,6.7l0.9,2.4c0.7,1.9-0.7,5.9-0.7,5.9s9.1,3.2,11.4,4.3c2.3,1.1,2.2,5.2,2.2,5.2
				c1.4,0.2,4.3,1.2,4.3,1.2c1.9-2.6,4.6-1.8,5.2-2.7c0.6-1,3.2-4.2,3.2-4.2l3.5-2.1l5.2,2.8l2.4,4c1.5-0.2,6.6,1.4,7.8,1.9l2.4-2.4
				C2.5,89.7,5.1,87.2,4.8,86.8z"/>
			<path class="st51" d="M-38.6,44.7l-0.7,0l-0.9-0.1c0,0-0.4,0.7-0.9,1.7c0.1-0.1,0.1-0.2,0.2-0.3l0,0c0,0,1.9-0.9,2-0.8
				c0,0-0.2,0,0,0L-38.6,44.7z"/>
			<g>
				<circle class="st43" cx="-41" cy="46.3" r="0.8"/>
				<linearGradient id="SVGID_11_" gradientUnits="userSpaceOnUse" x1="-41.8734" y1="46.2895" x2="-40.2664" y2="46.2895">
					<stop  offset="0.2111" style="stop-color:#844693"/>
					<stop  offset="1" style="stop-color:#B289BD"/>
				</linearGradient>
				<path class="st56" d="M-41.1,45.5c-0.1,0-0.3,0.6,0.2,0.8c0.4,0.2,0.7-0.1,0.7-0.1s0,0.9-1,0.8C-42.3,47-41.9,45.6-41.1,45.5"/>
				<ellipse transform="matrix(0.866 -0.5 0.5 0.866 -28.4072 -14.1599)" class="st45" cx="-40.6" cy="45.9" rx="0.2" ry="0.2"/>
				<ellipse transform="matrix(0.866 -0.5 0.5 0.866 -28.3445 -14.3552)" class="st45" cx="-41" cy="45.7" rx="0.1" ry="0.1"/>
				<path class="st46" d="M-40.6,45.7c0.2,0.1,0.3,0.3,0.3,0.5c0,0.2,0,0.4-0.1,0.6c-0.1,0.2-0.3,0.3-0.5,0.4c-0.2,0-0.5,0-0.6-0.1
					c-0.2-0.1-0.3-0.3-0.4-0.6c0-0.1,0-0.2,0-0.3c0-0.1,0.1-0.2,0.1-0.3c0.1-0.1,0.2-0.2,0.3-0.2c0.1-0.1,0.2-0.1,0.3-0.1
					C-41,45.5-40.7,45.5-40.6,45.7z M-40.6,45.7c-0.1-0.1-0.2-0.1-0.3-0.1c-0.1,0-0.2,0-0.3,0c-0.2,0.1-0.3,0.2-0.4,0.3
					c-0.1,0.1-0.1,0.3-0.1,0.5c0,0.1,0,0.2,0.1,0.3c0,0.1,0.1,0.1,0.2,0.2c0.1,0.1,0.3,0.2,0.5,0.1c0.2,0,0.4-0.1,0.5-0.3
					c0.1-0.1,0.2-0.3,0.2-0.5c0-0.1,0-0.2-0.1-0.3C-40.4,45.8-40.5,45.7-40.6,45.7z"/>
				<path class="st47" d="M-41.6,47c0,0,0.4-0.7,1.2-0.3c0,0-0.2,0.3-0.5,0.4C-41.1,47.2-41.3,47.1-41.6,47z"/>
			</g>
			<g>
				<circle class="st43" cx="-22.9" cy="46" r="1.3"/>
				<linearGradient id="SVGID_12_" gradientUnits="userSpaceOnUse" x1="-24.2133" y1="46.0084" x2="-21.5904" y2="46.0084">
					<stop  offset="0.2111" style="stop-color:#844693"/>
					<stop  offset="1" style="stop-color:#B289BD"/>
				</linearGradient>
				<path class="st57" d="M-22.9,44.8c-0.2,0.1-0.5,0.9,0.3,1.4c0.7,0.4,1.1-0.2,1.1-0.2s0.1,1.5-1.6,1.3
					C-24.9,47.1-24.2,44.9-22.9,44.8"/>
				<ellipse transform="matrix(0.866 -0.5 0.5 0.866 -25.6809 -5.0039)" class="st45" cx="-22.2" cy="45.4" rx="0.3" ry="0.4"/>
				<ellipse transform="matrix(0.866 -0.5 0.5 0.866 -25.5785 -5.3226)" class="st45" cx="-22.7" cy="45.1" rx="0.1" ry="0.2"/>
				<path class="st46" d="M-22.1,45c0.3,0.2,0.5,0.5,0.5,0.8c0.1,0.3,0,0.7-0.2,1c-0.2,0.3-0.5,0.5-0.9,0.6c-0.4,0.1-0.7,0-1-0.2
					c-0.3-0.2-0.5-0.5-0.6-0.9c0-0.2,0-0.4,0-0.6c0-0.2,0.1-0.4,0.2-0.5c0.1-0.2,0.3-0.3,0.4-0.4c0.2-0.1,0.3-0.1,0.5-0.1
					C-22.7,44.7-22.4,44.8-22.1,45z M-22.1,45c-0.1-0.1-0.3-0.2-0.4-0.2c-0.2,0-0.3,0-0.5,0c-0.3,0.1-0.5,0.3-0.7,0.5
					c-0.2,0.2-0.2,0.5-0.2,0.8c0,0.1,0.1,0.3,0.1,0.4c0.1,0.1,0.2,0.2,0.3,0.3c0.2,0.2,0.5,0.3,0.8,0.2c0.3,0,0.6-0.2,0.8-0.4
					c0.2-0.2,0.3-0.6,0.3-0.9c0-0.2-0.1-0.3-0.1-0.5C-21.9,45.2-22,45.1-22.1,45z"/>
				<path class="st47" d="M-23.7,47.1c0,0,0.7-1.1,2-0.4c0,0-0.4,0.6-0.8,0.7C-23,47.5-23.3,47.4-23.7,47.1z"/>
			</g>
			<g>
				<circle class="st43" cx="-44.3" cy="54.2" r="1.7"/>
				<linearGradient id="SVGID_13_" gradientUnits="userSpaceOnUse" x1="-46.0991" y1="54.2016" x2="-42.5726" y2="54.2016">
					<stop  offset="0.2111" style="stop-color:#844693"/>
					<stop  offset="1" style="stop-color:#B289BD"/>
				</linearGradient>
				<path class="st58" d="M-44.4,52.5c-0.2,0.1-0.7,1.3,0.4,1.8c0.9,0.5,1.5-0.3,1.5-0.3s0.1,2-2.2,1.8S-46.1,52.7-44.4,52.5"/>
				<ellipse transform="matrix(0.866 -0.5 0.5 0.866 -32.5142 -14.5257)" class="st45" cx="-43.4" cy="53.4" rx="0.4" ry="0.5"/>
				<ellipse transform="matrix(0.866 -0.5 0.5 0.866 -32.3766 -14.9543)" class="st45" cx="-44.1" cy="52.9" rx="0.2" ry="0.2"/>
				<path class="st46" d="M-43.3,52.8c0.4,0.3,0.6,0.7,0.7,1.1c0.1,0.4,0,1-0.3,1.3c-0.3,0.4-0.7,0.7-1.2,0.8c-0.5,0.1-1,0-1.4-0.3
					c-0.4-0.3-0.7-0.7-0.8-1.2c0-0.3,0-0.5,0-0.8c0.1-0.3,0.2-0.5,0.3-0.7c0.2-0.2,0.4-0.4,0.6-0.5c0.2-0.1,0.5-0.2,0.7-0.2
					C-44.1,52.4-43.6,52.5-43.3,52.8z M-43.3,52.9c-0.2-0.1-0.4-0.2-0.6-0.2c-0.2,0-0.4,0-0.6,0c-0.4,0.1-0.7,0.4-0.9,0.7
					c-0.2,0.3-0.3,0.7-0.3,1.1c0,0.2,0.1,0.4,0.2,0.5c0.1,0.2,0.2,0.3,0.4,0.4c0.3,0.2,0.7,0.4,1.1,0.3c0.4-0.1,0.8-0.3,1-0.6
					c0.3-0.3,0.4-0.8,0.4-1.2c0-0.2-0.1-0.4-0.2-0.6C-43,53.1-43.1,53-43.3,52.9z"/>
				<path class="st47" d="M-45.4,55.7c0,0,1-1.5,2.7-0.6c0,0-0.5,0.8-1.1,0.9C-44.5,56.2-44.8,56.1-45.4,55.7z"/>
			</g>
			<g>
				<circle class="st43" cx="-27.5" cy="54.6" r="2"/>
				<linearGradient id="SVGID_14_" gradientUnits="userSpaceOnUse" x1="-29.629" y1="54.5518" x2="-25.544" y2="54.5518">
					<stop  offset="0.2111" style="stop-color:#844693"/>
					<stop  offset="1" style="stop-color:#B289BD"/>
				</linearGradient>
				<path class="st59" d="M-27.7,52.6c-0.3,0.1-0.8,1.5,0.4,2.1c1.1,0.6,1.7-0.3,1.7-0.3s0.1,2.3-2.5,2.1
					C-30.7,56.3-29.7,52.8-27.7,52.6"/>
				<ellipse transform="matrix(0.866 -0.5 0.5 0.866 -30.3619 -6.0438)" class="st45" cx="-26.5" cy="53.6" rx="0.4" ry="0.5"/>
				<ellipse transform="matrix(0.866 -0.5 0.5 0.866 -30.2025 -6.5402)" class="st45" cx="-27.3" cy="53.1" rx="0.2" ry="0.3"/>
				<path class="st46" d="M-26.3,52.9c0.4,0.3,0.7,0.8,0.8,1.3c0.1,0.5,0,1.1-0.3,1.6c-0.3,0.5-0.8,0.8-1.4,0.9
					c-0.6,0.1-1.2,0-1.6-0.3c-0.5-0.3-0.8-0.8-0.9-1.4c-0.1-0.3,0-0.6,0-0.9c0.1-0.3,0.2-0.6,0.4-0.8c0.2-0.2,0.4-0.4,0.7-0.6
					c0.3-0.1,0.5-0.2,0.8-0.2C-27.3,52.4-26.8,52.6-26.3,52.9z M-26.4,53c-0.2-0.1-0.5-0.2-0.7-0.3c-0.2,0-0.5,0-0.7,0.1
					c-0.5,0.1-0.8,0.4-1.1,0.8c-0.2,0.4-0.4,0.8-0.3,1.3c0,0.2,0.1,0.4,0.2,0.6c0.1,0.2,0.3,0.4,0.4,0.5c0.4,0.3,0.8,0.4,1.3,0.4
					c0.5-0.1,0.9-0.3,1.2-0.7c0.3-0.4,0.5-0.9,0.4-1.4c0-0.3-0.1-0.5-0.2-0.7C-26,53.3-26.2,53.1-26.4,53z"/>
				<path class="st47" d="M-28.8,56.3c0,0,1.1-1.7,3.1-0.7c0,0-0.5,0.9-1.3,1C-27.8,56.8-28.2,56.7-28.8,56.3z"/>
			</g>
		</g>
	</g>
</g>
</svg>
