<?xml version="1.0" encoding="utf-8"?>
<!-- Generator: Adobe Illustrator 23.1.1, SVG Export Plug-In . SVG Version: 6.00 Build 0)  -->
<svg version="1.1" id="Capa_1" xmlns="http://www.w3.org/2000/svg" xmlns:xlink="http://www.w3.org/1999/xlink" x="0px" y="0px"
	 viewBox="0 0 300 80" style="enable-background:new 0 0 300 80;" xml:space="preserve">
<style type="text/css">
	.st0{fill:#0CE8BD;}
</style>
<g>
	<path class="st0" d="M282.4,22.9l-12.8,25.6V22.9h-8.5v25.6l-4.3-8.5l-4.3,8.5h-6.4l7.5-14.9l-5.3-10.7l-14.9,29.9l-4.3-8.5h6.4
		V22.9h-27.7v25.6h-14.9l2.1-4.3h10.7v-8.5h-6.4l2.1-4.3h4.3v-8.5h-10.7l-12.8,25.6V22.9h-8.5V40L154.4,1.6v46.9h-14.9l2.1-4.3h10.7
		v-8.5h-6.4l2.1-4.3h4.3v-8.5h-10.7l-12.8,25.6V22.9h-25.6h-2.1H79.7h-2.1H55.1H52H27.3v34.1h8.5V44.3h8.5l4.3-8.5H35.9v-4.3h14.9
		l1.2-2.4v28h27.7V31.5h6.4v25.6h8.5V31.5h6.4v25.6h23.5h4.3h25.6h4.3h4.3V40l19.2,38.4V57.1h25.6h4.3h4.3V40l19.2,38.4V57.1h25.6
		h4.3h0h4.3h6.4l6.4-12.8l6.4,12.8h10.7L282.4,22.9z M71.2,48.5H60.5V31.5h10.7V48.5z M120.3,48.5h-10.7V31.5h10.7V48.5z M227,35.7
		h-10.7v-4.3H227V35.7z"/>
	<rect x="0.5" y="22.9" class="st0" width="25.3" height="3.6"/>
	<rect x="3.9" y="29" class="st0" width="21.9" height="3.6"/>
	<rect x="7.3" y="35.1" class="st0" width="18.6" height="3.6"/>
	<rect x="12.3" y="41.2" class="st0" width="13.5" height="3.6"/>
	<rect x="16.6" y="47.4" class="st0" width="9.3" height="3.6"/>
	<rect x="20.4" y="53.5" class="st0" width="5.5" height="3.6"/>
	<polygon class="st0" points="269.6,11.9 261.1,20.6 269.6,20.6 	"/>
</g>
</svg>
