<?xml version="1.0" encoding="utf-8"?>
<!-- Generator: Adobe Illustrator 23.1.1, SVG Export Plug-In . SVG Version: 6.00 Build 0)  -->
<svg version="1.1" id="Capa_1" xmlns="http://www.w3.org/2000/svg" xmlns:xlink="http://www.w3.org/1999/xlink" x="0px" y="0px"
	 viewBox="0 0 200 60" style="enable-background:new 0 0 200 60;" xml:space="preserve">
<style type="text/css">
	.st0{fill:#FFFFFF;}
	.st1{fill-rule:evenodd;clip-rule:evenodd;fill:#FFFFFF;}
</style>
<g>
	<polygon class="st0" points="23.1,23.5 23.1,21 11.5,21 11.5,39.1 14.3,39.1 14.3,31.4 21.8,31.4 21.8,29 14.3,29 14.3,23.5 
		23.1,23.5 	"/>
	<polygon class="st0" points="38,39.1 38,36.6 29.2,36.6 29.2,31.2 36.7,31.2 36.7,28.7 29.2,28.7 29.2,23.5 38,23.5 38,21 26.4,21 
		26.4,39.1 38,39.1 	"/>
	<path class="st0" d="M54.1,33.7h-2.8c-0.4,1.8-1.7,3.1-3.7,3.1c-1,0-2-0.4-2.7-1.1c-0.9-1-1.1-2-1.1-5.6s0.2-4.7,1.1-5.7
		c0.7-0.7,1.7-1.1,2.7-1.1c2,0,3.2,1.3,3.7,3.1h2.8c-0.6-3.6-3.1-5.6-6.5-5.6c-1.8,0-3.5,0.7-4.8,1.9c-1.8,1.8-1.8,3.8-1.8,7.3
		s0,5.5,1.8,7.3c1.3,1.3,3,2,4.8,1.9C50.9,39.2,53.5,37.3,54.1,33.7L54.1,33.7z"/>
	<polygon class="st0" points="69.1,21 66.1,21 62.3,28.9 58.5,21 55.5,21 61,31.6 61,39.1 63.7,39.1 63.7,31.6 69.1,21 	"/>
	<polygon class="st0" points="82.8,23.5 82.8,21 70,21 70,23.5 75,23.5 75,39.1 77.8,39.1 77.8,23.5 82.8,23.5 	"/>
	<polygon class="st0" points="124.4,34.7 123.9,34.7 122.8,36.9 121.8,34.7 121.3,34.7 122.6,37.3 122.6,39.2 123.1,39.2 
		123.1,37.3 124.4,34.7 	"/>
	<polygon class="st0" points="129.4,39.2 129.4,38.7 127.1,38.7 127.1,34.7 126.6,34.7 126.6,39.2 129.4,39.2 	"/>
	<path class="st1" d="M133.3,39.2l-1.6-4.4h-0.4l-1.6,4.4h0.5l0.4-1h1.9l0.4,1H133.3z M132.3,37.8h-1.7l0.8-2.3L132.3,37.8
		L132.3,37.8z"/>
	<polygon class="st0" points="138.1,35.2 138.1,34.7 135.1,34.7 135.1,35.2 136.4,35.2 136.4,39.2 136.8,39.2 136.8,35.2 
		138.1,35.2 	"/>
	<polygon class="st0" points="141.7,39.2 141.7,38.7 139.4,38.7 139.4,37.1 141.4,37.1 141.4,36.7 139.4,36.7 139.4,35.2 
		141.7,35.2 141.7,34.7 138.9,34.7 138.9,39.2 141.7,39.2 	"/>
	<path class="st0" d="M145.6,37.9h-0.5c-0.1,0.5-0.5,0.9-1.1,0.9c-0.3,0-0.6-0.1-0.8-0.3c-0.3-0.3-0.3-0.6-0.3-1.5s0-1.2,0.3-1.5
		c0.2-0.2,0.5-0.3,0.8-0.3c0.5,0,1,0.4,1.1,0.9h0.5c-0.1-0.8-0.8-1.3-1.5-1.3c-0.4,0-0.8,0.2-1.1,0.5c-0.4,0.4-0.4,0.9-0.4,1.8
		c0,0.9,0,1.4,0.4,1.8c0.3,0.3,0.7,0.5,1.1,0.5C144.8,39.2,145.5,38.7,145.6,37.9L145.6,37.9z"/>
	<polygon class="st0" points="149.9,39.2 149.9,34.7 149.4,34.7 149.4,38.3 147.1,34.7 146.6,34.7 146.6,39.2 147.1,39.2 
		147.1,35.6 149.5,39.2 149.9,39.2 	"/>
	<path class="st1" d="M154.1,36.9c0-0.9,0-1.4-0.4-1.8c-0.3-0.3-0.7-0.5-1.1-0.5c-0.4,0-0.8,0.2-1.1,0.5c-0.4,0.4-0.4,0.9-0.4,1.8
		c0,0.9,0,1.4,0.4,1.8c0.3,0.3,0.7,0.5,1.1,0.5c0.4,0,0.8-0.2,1.1-0.5C154.1,38.3,154.1,37.9,154.1,36.9z M153.7,36.9
		c0,0.9,0,1.2-0.3,1.5c-0.2,0.2-0.5,0.3-0.8,0.3c-0.3,0-0.6-0.1-0.8-0.3c-0.3-0.3-0.3-0.6-0.3-1.5c0-0.9,0-1.2,0.3-1.5
		c0.2-0.2,0.5-0.3,0.8-0.3c0.3,0,0.6,0.1,0.8,0.3C153.6,35.7,153.7,36,153.7,36.9z"/>
	<polygon class="st0" points="158,39.2 158,38.7 155.7,38.7 155.7,34.7 155.2,34.7 155.2,39.2 158,39.2 	"/>
	<path class="st1" d="M161.7,36.9c0-0.9,0-1.4-0.4-1.8c-0.3-0.3-0.7-0.5-1.1-0.5c-0.4,0-0.8,0.2-1.1,0.5c-0.4,0.4-0.4,0.9-0.4,1.8
		c0,0.9,0,1.4,0.4,1.8c0.3,0.3,0.7,0.5,1.1,0.5c0.4,0,0.8-0.2,1.1-0.5C161.7,38.3,161.7,37.9,161.7,36.9z M161.3,36.9
		c0,0.9,0,1.2-0.3,1.5c-0.2,0.2-0.5,0.3-0.8,0.3c-0.3,0-0.6-0.1-0.8-0.3c-0.3-0.3-0.3-0.6-0.3-1.5c0-0.9,0-1.2,0.3-1.5
		c0.2-0.2,0.5-0.3,0.8-0.3c0.3,0,0.6,0.1,0.8,0.3C161.2,35.7,161.3,36,161.3,36.9L161.3,36.9z"/>
	<path class="st0" d="M165.8,37.5v-0.7h-1.6v0.4h1.1v0.3c0,0.3-0.1,0.6-0.2,0.8c-0.2,0.2-0.5,0.4-0.8,0.4c-0.3,0-0.6-0.1-0.8-0.3
		c-0.3-0.3-0.3-0.6-0.3-1.5s0-1.2,0.3-1.5c0.2-0.2,0.5-0.3,0.8-0.3c0.5,0,1,0.4,1.1,0.9h0.5c-0.1-0.8-0.8-1.4-1.5-1.3
		c-0.4,0-0.8,0.2-1.1,0.5c-0.4,0.4-0.4,0.9-0.4,1.8c0,0.9,0,1.4,0.4,1.8c0.6,0.6,1.7,0.6,2.3,0c0,0,0,0,0,0
		C165.7,38.4,165.9,38,165.8,37.5L165.8,37.5z"/>
	<path class="st1" d="M167.8,33.4h-0.5l-0.5,0.9h0.4L167.8,33.4z M167.4,39.2v-4.4h-0.5v4.4H167.4z"/>
	<path class="st1" d="M171.7,39.2l-1.6-4.4h-0.4l-1.6,4.4h0.5l0.4-1h1.9l0.4,1H171.7z M170.7,37.8h-1.6l0.8-2.3L170.7,37.8z"/>
	<path class="st1" d="M124.9,29.3c0-0.7-0.5-1.3-1.2-1.3c-0.1,0-0.1,0-0.2,0h-1.6v4.4h0.5v-1.8h1.2c0.7,0.1,1.3-0.5,1.4-1.2
		C124.9,29.5,124.9,29.4,124.9,29.3L124.9,29.3z M124.4,29.3c0,0.5-0.3,0.9-0.8,0.9c-0.1,0-0.1,0-0.2,0h-1.1v-1.8h1.1
		c0.5-0.1,0.9,0.3,0.9,0.7C124.4,29.2,124.4,29.3,124.4,29.3z"/>
	<path class="st1" d="M128.9,32.5l-1.6-4.4h-0.4l-1.6,4.4h0.5l0.4-1h1.9l0.4,1H128.9z M127.9,31.1h-1.7l0.8-2.3L127.9,31.1
		L127.9,31.1z"/>
	<path class="st1" d="M132.7,32.5l-1.1-2c0.6-0.1,1-0.6,1-1.2c0-0.7-0.5-1.2-1.2-1.2c0,0-0.1,0-0.1,0h-1.7v4.4h0.5v-2h1.1l1,2H132.7
		z M132.1,29.3c0,0.4-0.3,0.8-0.8,0.8c0,0-0.1,0-0.1,0h-1.2v-1.6h1.2c0.4-0.1,0.8,0.2,0.9,0.7C132.1,29.2,132.1,29.2,132.1,29.3z"/>
	<path class="st1" d="M136.8,32.5l-1.6-4.4h-0.4l-1.6,4.4h0.5l0.4-1h1.9l0.4,1H136.8z M135.8,31.1h-1.7l0.8-2.3L135.8,31.1z"/>
	<polygon class="st0" points="141.8,32.5 141.8,32.1 139.5,32.1 139.5,28.1 139,28.1 139,32.5 141.8,32.5 	"/>
	<path class="st1" d="M145.7,32.5l-1.6-4.4h-0.4l-1.6,4.4h0.5l0.4-1h1.9l0.4,1H145.7z M144.7,31.1H143l0.8-2.3L144.7,31.1
		L144.7,31.1z"/>
	<path class="st0" d="M150.9,31.2h-0.5c-0.1,0.6-0.7,1-1.3,0.9c-0.2,0-0.4-0.1-0.6-0.3c-0.3-0.3-0.3-0.6-0.3-1.5s0-1.2,0.3-1.5
		c0.4-0.4,1.1-0.4,1.5,0c0.2,0.2,0.3,0.4,0.3,0.6h0.5c-0.1-0.8-0.8-1.3-1.5-1.3c-0.4,0-0.8,0.2-1.1,0.5c-0.4,0.4-0.4,0.9-0.4,1.8
		s0,1.4,0.4,1.8c0.3,0.3,0.7,0.5,1.1,0.5C150.1,32.5,150.8,32,150.9,31.2z"/>
	<polygon class="st0" points="152.4,32.5 152.4,28.1 151.9,28.1 151.9,32.5 152.4,32.5 	"/>
	<polygon class="st0" points="156.4,32.5 156.4,32.1 154.1,32.1 154.1,30.5 156.1,30.5 156.1,30 154.1,30 154.1,28.5 156.4,28.5 
		156.4,28.1 153.7,28.1 153.7,32.5 156.4,32.5 	"/>
	<polygon class="st0" points="160.7,32.5 160.7,28.1 160.2,28.1 160.2,31.6 157.8,28.1 157.4,28.1 157.4,32.5 157.9,32.5 
		157.9,28.9 160.2,32.5 160.7,32.5 	"/>
	<path class="st0" d="M164.9,31.2h-0.5c-0.1,0.6-0.7,1-1.2,0.9c-0.2,0-0.4-0.1-0.6-0.3c-0.3-0.3-0.3-0.6-0.3-1.5s0-1.2,0.3-1.5
		c0.2-0.2,0.5-0.3,0.8-0.3c0.5,0,1,0.4,1.1,0.9h0.5c-0.1-0.8-0.8-1.3-1.5-1.3c-0.4,0-0.8,0.2-1.1,0.5c-0.4,0.4-0.4,0.9-0.4,1.8
		c0,0.9,0,1.4,0.4,1.8c0.3,0.3,0.7,0.5,1.1,0.5C164.1,32.5,164.8,32,164.9,31.2L164.9,31.2z"/>
	<polygon class="st0" points="166.4,32.5 166.4,28.1 165.9,28.1 165.9,32.5 166.4,32.5 	"/>
	<path class="st1" d="M170.8,32.5l-1.6-4.4h-0.4l-1.6,4.4h0.5l0.4-1h1.9l0.4,1H170.8z M169.8,31.1h-1.7l0.8-2.3L169.8,31.1
		L169.8,31.1z"/>
	<polygon class="st0" points="124.6,21.8 124.6,21.4 121.9,21.4 121.9,25.8 122.3,25.8 122.3,23.8 124.3,23.8 124.3,23.4 
		122.3,23.4 122.3,21.8 124.6,21.8 	"/>
	<path class="st0" d="M128.5,24.3v-3H128v2.9c0.1,0.6-0.4,1.1-0.9,1.2c-0.6,0.1-1.1-0.4-1.2-0.9c0-0.1,0-0.2,0-0.2v-2.9h-0.5v3
		c0.1,0.9,0.8,1.5,1.6,1.4C127.9,25.7,128.5,25.1,128.5,24.3L128.5,24.3z"/>
	<polygon class="st0" points="133,25.8 133,21.4 132.5,21.4 132.5,24.9 130.2,21.4 129.7,21.4 129.7,25.8 130.2,25.8 130.2,22.2 
		132.6,25.8 133,25.8 	"/>
	<path class="st1" d="M137.4,23.6c0.1-0.6-0.1-1.3-0.4-1.8c-0.3-0.3-0.7-0.4-1.1-0.4h-1.5v4.4h1.5c0.4,0,0.8-0.1,1.1-0.4
		C137.3,24.9,137.5,24.2,137.4,23.6z M136.9,23.6c0.1,0.5,0,1.1-0.3,1.5c-0.2,0.2-0.5,0.3-0.9,0.3h-1v-3.6h1c0.3,0,0.6,0.1,0.9,0.3
		C136.9,22.6,137,23.1,136.9,23.6L136.9,23.6z"/>
	<path class="st1" d="M141.6,25.8l-1.6-4.4h-0.4l-1.6,4.4h0.5l0.4-1h1.9l0.4,1H141.6z M140.6,24.4h-1.7l0.8-2.3L140.6,24.4z"/>
	<path class="st0" d="M145.2,24.5h-0.5c-0.1,0.5-0.5,0.9-1.1,0.9c-0.3,0-0.6-0.1-0.8-0.3c-0.3-0.3-0.3-0.6-0.3-1.5
		c0-0.9,0-1.2,0.3-1.5c0.2-0.2,0.5-0.3,0.8-0.3c0.5,0,1,0.4,1.1,0.9h0.5c-0.1-0.8-0.8-1.3-1.5-1.3c-0.4,0-0.8,0.2-1.1,0.5
		c-0.4,0.4-0.4,0.9-0.4,1.8s0,1.4,0.4,1.8c0.3,0.3,0.7,0.5,1.1,0.5C144.4,25.9,145.1,25.3,145.2,24.5z"/>
	<polygon class="st0" points="146.7,25.8 146.7,21.4 146.2,21.4 146.2,25.8 146.7,25.8 	"/>
	<path class="st1" d="M150.2,20h-0.5l-0.5,1h0.4L150.2,20z M150.9,23.6c0-0.9,0-1.4-0.4-1.8c-0.6-0.6-1.6-0.6-2.3,0
		c-0.4,0.4-0.4,0.9-0.4,1.8c0,0.9,0,1.4,0.4,1.8c0.6,0.6,1.6,0.6,2.3,0C150.9,24.9,150.9,24.5,150.9,23.6z M150.4,23.6
		c0,0.9,0,1.2-0.3,1.5c-0.4,0.4-1.1,0.4-1.5,0c0,0,0,0,0,0c-0.3-0.3-0.3-0.6-0.3-1.5c0-0.9,0-1.2,0.3-1.5c0.4-0.4,1.1-0.4,1.5,0
		C150.4,22.3,150.4,22.6,150.4,23.6z"/>
	<polygon class="st0" points="155.3,25.8 155.3,21.4 154.8,21.4 154.8,24.9 152.5,21.4 152,21.4 152,25.8 152.5,25.8 152.5,22.2 
		154.9,25.8 155.3,25.8 	"/>
	<polygon class="st0" points="160.9,25.8 160.9,25.4 158.6,25.4 158.6,23.8 160.5,23.8 160.5,23.4 158.6,23.4 158.6,21.8 
		160.9,21.8 160.9,21.4 158.1,21.4 158.1,25.8 160.9,25.8 	"/>
	<path class="st0" d="M164.5,24.6c0-0.3-0.1-0.7-0.4-0.9c-0.2-0.2-0.5-0.3-0.8-0.3l-0.5-0.1c-0.2,0-0.4-0.1-0.6-0.2
		c-0.1-0.1-0.2-0.3-0.2-0.5c0-0.5,0.4-0.8,0.8-0.8c0,0,0.1,0,0.1,0c0.4,0,0.8,0.1,1,0.4l0.3-0.3c-0.4-0.3-0.8-0.5-1.3-0.5
		c-0.7-0.1-1.3,0.4-1.4,1.1c0,0.1,0,0.1,0,0.2c0,0.3,0.1,0.6,0.3,0.8c0.2,0.2,0.5,0.3,0.8,0.3l0.5,0.1c0.2,0,0.4,0.1,0.6,0.2
		c0.1,0.1,0.2,0.3,0.2,0.5c0,0.5-0.4,0.8-1,0.8c-0.5,0-0.9-0.2-1.2-0.5l-0.3,0.3c0.4,0.4,1,0.6,1.5,0.6
		C163.9,25.8,164.5,25.3,164.5,24.6L164.5,24.6z"/>
	<path class="st1" d="M168.5,22.7c0-0.7-0.5-1.3-1.2-1.3c-0.1,0-0.1,0-0.2,0h-1.6v4.4h0.5V24h1.2c0.7,0.1,1.3-0.5,1.4-1.2
		C168.5,22.8,168.5,22.7,168.5,22.7z M168.1,22.7c0,0.5-0.3,0.9-0.8,0.9c-0.1,0-0.1,0-0.2,0H166v-1.8h1.1c0.5-0.1,0.9,0.3,0.9,0.7
		C168.1,22.6,168.1,22.6,168.1,22.7z"/>
	<path class="st1" d="M172.5,25.8l-1.6-4.4h-0.4l-1.6,4.4h0.5l0.4-1h1.9l0.4,1H172.5z M171.5,24.4h-1.7l0.8-2.3L171.5,24.4z"/>
	<path class="st1" d="M175.9,20.5l-0.2-0.2c-0.2,0.2-0.3,0.2-0.4,0.2c-0.1,0-0.2-0.1-0.3-0.1c-0.1-0.1-0.3-0.1-0.4-0.1
		c-0.2,0-0.3,0-0.6,0.3l0.2,0.2c0.2-0.2,0.3-0.2,0.4-0.2c0.1,0,0.2,0.1,0.3,0.1c0.1,0.1,0.3,0.1,0.4,0.1
		C175.4,20.9,175.6,20.9,175.9,20.5z M176.5,25.8v-4.4H176v3.6l-2.4-3.6h-0.4v4.4h0.5v-3.6l2.4,3.6L176.5,25.8z"/>
	<path class="st1" d="M180.7,23.6c0-0.9,0-1.4-0.4-1.8c-0.6-0.6-1.6-0.6-2.3,0c-0.4,0.4-0.4,0.9-0.4,1.8c0,0.9,0,1.4,0.4,1.8
		c0.6,0.6,1.6,0.6,2.3,0C180.7,24.9,180.7,24.5,180.7,23.6z M180.2,23.6c0,0.9,0,1.2-0.3,1.5c-0.2,0.2-0.5,0.3-0.8,0.3
		c-0.3,0-0.6-0.1-0.8-0.3c-0.3-0.3-0.3-0.6-0.3-1.5c0-0.9,0-1.2,0.3-1.5c0.2-0.2,0.5-0.3,0.8-0.3c0.3,0,0.6,0.1,0.8,0.3
		C180.2,22.3,180.2,22.6,180.2,23.6z"/>
	<polygon class="st0" points="184.6,25.8 184.6,25.4 182.3,25.4 182.3,21.4 181.8,21.4 181.8,25.8 184.6,25.8 	"/>
	<path class="st1" d="M188.5,25.8l-1.6-4.4h-0.4l-1.6,4.4h0.5l0.4-1h1.9l0.4,1H188.5z M187.5,24.4h-1.7l0.8-2.3L187.5,24.4z"/>
	<path class="st0" d="M92.4,52c2.9,0,5.2-2.3,5.2-5.2c0-1.3-0.5-2.5-1.3-3.5c-1.5-1.7-3-2.2-3-5c0-2,0.7-2.8,2-3.9
		c1.4-0.9,2.3-2.5,2.4-4.3V30l0,0V30c0-1.5-0.6-2.9-1.7-3.8c-1.4-1.4-2.6-2-2.6-4.6c0-2.2,0.8-3,2.3-4.1c2.3-1.8,2.7-5,1-7.3
		c-1.8-2.3-5-2.7-7.3-1c-2.3,1.8-2.7,5-1,7.3c0.3,0.3,0.6,0.6,0.9,0.9c1.4,1.2,2.3,2.2,2.3,4.3c0,2.2-0.9,3.1-2.3,4.3
		c-1.2,1-1.9,2.5-1.9,4l0,0l0,0V30c0,1.7,0.9,3.3,2.3,4.3c1.3,0.9,2,2.4,2,4c0,2.4-1.1,3.2-2.6,4.6c-2.1,2-2.2,5.3-0.2,7.4
		C89.6,51.4,91,52,92.4,52z"/>
	<path class="st0" d="M102.2,43.6c2.9,0,5.2-2.3,5.2-5.2c0-1.3-0.5-2.5-1.3-3.5c-1.5-1.7-3-2.2-3-5c0-2.2,0.8-3,2.3-4.1
		c2.3-1.8,2.7-5,1-7.3c-1.8-2.3-5-2.7-7.3-1s-2.7,5-1,7.3c0.3,0.3,0.6,0.6,0.9,0.9c1.4,1.2,2.3,2.2,2.3,4.3c0,2.4-1.1,3.2-2.6,4.6
		c-2.1,2-2.2,5.3-0.2,7.4C99.4,42.9,100.8,43.5,102.2,43.6L102.2,43.6z"/>
	<path class="st0" d="M111.6,35.2c2.9,0,5.2-2.3,5.2-5.2c0-2.9-2.3-5.2-5.2-5.2c-2.9,0-5.2,2.3-5.2,5.2
		C106.4,32.8,108.7,35.2,111.6,35.2L111.6,35.2z"/>
</g>
</svg>
