<?xml version="1.0" encoding="utf-8"?>
<!-- Generator: Adobe Illustrator 23.1.1, SVG Export Plug-In . SVG Version: 6.00 Build 0)  -->
<svg version="1.1" id="Capa_1" xmlns="http://www.w3.org/2000/svg" xmlns:xlink="http://www.w3.org/1999/xlink" x="0px" y="0px"
	 viewBox="0 0 160 60" style="enable-background:new 0 0 160 60;" xml:space="preserve">
<style type="text/css">
	.st0{fill:#FFFFFF;}
</style>
<g>
	<g>
		<g>
			<polygon class="st0" points="34.7,19.4 39.9,21.5 34.7,35.3 			"/>
			<path class="st0" d="M21.7,22.3c0,13.1,0,13.1,0,13.1l10.6,4.3V22.3L27,33.8L21.7,22.3L21.7,22.3z"/>
			<path class="st0" d="M13.5,31.8C18.7,18,18.7,18,18.7,18v15.9L13.5,31.8L13.5,31.8z"/>
			<polygon class="st0" points="21.1,14.2 31.4,18.3 27.2,27.2 			"/>
		</g>
	</g>
	<path class="st0" d="M44,16.6v21.8h5.2V16.6H44z M70.6,33.7c-0.6,0.3-1.3,0.4-2.1,0.6c-0.9,0.1-1.8,0.3-2.7,0.3
		c-2.5,0-4.4-0.7-5.8-2c-1.3-1.3-2-2.9-2-5.1c0-2.3,0.8-4.1,2.2-5.3c1.4-1.2,3.3-1.8,5.5-1.8c1.1,0,2,0.1,2.8,0.3s1.5,0.4,2.1,0.6
		l1.1-4c-0.5-0.3-1.3-0.5-2.4-0.7c-1.1-0.3-2.3-0.4-3.8-0.4c-2.5,0-4.7,0.4-6.7,1.4c-2,1-3.5,2.2-4.6,4c-1.1,1.8-1.7,3.8-1.7,6.2
		c0,2.1,0.4,3.9,1.4,5.6c1,1.7,2.3,2.9,4.2,3.9c1.9,1,4.2,1.4,6.9,1.4c1.5,0,2.8-0.1,3.9-0.4c1.1-0.3,1.9-0.4,2.4-0.7L70.6,33.7z
		 M95.4,38.4h5.1l-1.2-21.8h-7.1l-2.5,7c-0.4,1.2-0.8,2.5-1.2,3.9c-0.4,1.4-0.7,2.8-1.1,4h-0.1c-0.3-1.3-0.5-2.7-0.9-4
		c-0.4-1.3-0.7-2.7-1.1-3.9l-2.2-7.1H76l-1.3,21.8h4.9l0.4-8.5c0.1-1.5,0.1-3,0.2-4.7c0-1.7,0.1-3.3,0.2-4.9h0.1
		c0.4,1.5,0.6,3.1,1.1,4.6c0.4,1.5,0.7,3.1,1.2,4.5l2.6,8.7h4.1l2.9-8.7c0.4-1.4,1-2.9,1.4-4.5c0.4-1.5,0.9-3.1,1.3-4.5h0.1
		c0,1.8,0,3.5,0.1,5.1c0,1.6,0.1,3.1,0.1,4.5L95.4,38.4z M117.3,32.6l2,5.8h5.7l-7.6-21.8h-6.9l-7.3,21.8h5.4l1.7-5.8H117.3z
		 M111,28.8l1.5-4.6c0.2-0.6,0.4-1.3,0.5-2c0.2-0.7,0.4-1.3,0.5-2h0.1c0.2,0.6,0.4,1.2,0.6,2c0.2,0.7,0.4,1.3,0.6,2l1.6,4.6
		C116.5,28.8,111,28.8,111,28.8z M127.9,38.3c0.6,0.1,1.3,0.2,2.3,0.3c1,0.1,2.1,0.1,3.5,0.1c2.2,0,4.2-0.2,5.6-0.4
		c1.4-0.4,2.6-0.8,3.5-1.4c0.7-0.5,1.3-1.2,1.8-2c0.4-0.8,0.7-1.7,0.7-2.8c0-1.4-0.4-2.7-1.3-3.6c-0.8-0.9-1.9-1.5-3.2-1.9v-0.1
		c1.2-0.4,2.2-1.1,2.8-1.9s0.9-1.7,0.9-2.7c0-1.1-0.3-2-0.8-2.8c-0.5-0.7-1.2-1.2-2-1.7c-0.8-0.4-1.7-0.7-2.8-0.9
		c-1.1-0.2-2.4-0.3-4-0.3c-1.4,0-2.8,0.1-4,0.2c-1.2,0.1-2.2,0.2-2.9,0.4L127.9,38.3L127.9,38.3z M133,20.3c0.3-0.1,0.5-0.1,0.9-0.1
		c0.4,0,0.9,0,1.5,0c1.2,0,2.1,0.2,2.8,0.6c0.6,0.4,1,1,1,1.9c0,0.8-0.4,1.4-1.1,1.9c-0.7,0.4-1.9,0.7-3.3,0.7H133V20.3z M133,28.8
		h2c1.4,0,2.5,0.2,3.5,0.6c0.9,0.4,1.3,1.2,1.4,2.3c0,1.2-0.4,2-1.3,2.4s-2,0.7-3.2,0.7c-0.4,0-0.9,0-1.2,0s-0.7-0.1-1-0.1L133,28.8
		L133,28.8z"/>
	<g>
		<path class="st0" d="M14.2,41.8v4h-0.5v-4H14.2z"/>
		<path class="st0" d="M15.2,45.8v-4h0.5l1.2,2c0.3,0.4,0.5,0.9,0.7,1.3l0,0c-0.1-0.5-0.1-1-0.1-1.6v-1.7H18v4h-0.5l-1.2-2
			c-0.3-0.4-0.5-0.9-0.7-1.3l0,0c0,0.5,0,1,0,1.6v1.7H15.2z"/>
		<path class="st0" d="M19.1,45.2c0.3,0.2,0.5,0.3,0.9,0.3c0.5,0,0.8-0.3,0.8-0.7c0-0.4-0.2-0.6-0.7-0.8c-0.6-0.3-1.1-0.5-1.1-1.2
			c0-0.6,0.5-1.1,1.2-1.1c0.4,0,0.7,0.1,0.9,0.2l-0.2,0.4c-0.1-0.1-0.4-0.2-0.7-0.2c-0.5,0-0.7,0.4-0.7,0.6c0,0.4,0.3,0.5,0.8,0.8
			c0.7,0.3,1,0.6,1,1.2c0,0.6-0.4,1.2-1.4,1.2c-0.4,0-0.8-0.1-1-0.3L19.1,45.2z"/>
		<path class="st0" d="M23,42.3h-1.2v-0.4h2.9v0.4h-1.2v3.6h-0.5L23,42.3L23,42.3z"/>
		<path class="st0" d="M25.7,41.8v4h-0.5v-4H25.7z"/>
		<path class="st0" d="M27.5,42.3h-1.2v-0.4h2.9v0.4H28v3.6h-0.5L27.5,42.3L27.5,42.3z"/>
		<path class="st0" d="M30.4,41.8v2.3c0,0.9,0.4,1.2,0.9,1.2c0.6,0,1-0.4,1-1.2v-2.3h0.5v2.3c0,1.2-0.6,1.7-1.5,1.7
			c-0.8,0-1.4-0.4-1.4-1.7v-2.3H30.4z"/>
		<path class="st0" d="M34.5,42.3h-1.2v-0.4h2.9v0.4H35v3.6h-0.5L34.5,42.3L34.5,42.3z"/>
		<path class="st0" d="M38.2,41.9c0.4-0.1,0.7-0.1,1.1-0.1c0.7,0,1.2,0.2,1.6,0.5c0.4,0.4,0.5,0.8,0.5,1.4s-0.2,1.2-0.5,1.5
			c-0.4,0.4-1,0.5-1.8,0.5c-0.4,0-0.7,0-0.9-0.1V41.9z M38.7,45.4c0.1,0,0.4,0,0.5,0c1.1,0,1.7-0.6,1.7-1.7c0-1-0.5-1.5-1.6-1.5
			c-0.3,0-0.4,0-0.6,0.1V45.4z"/>
		<path class="st0" d="M44.3,43.9h-1.6v1.4h1.8v0.4h-2.2v-4h2.1v0.4h-1.7v1.2h1.5L44.3,43.9L44.3,43.9z"/>
		<path class="st0" d="M49.4,45.6c-0.2,0.1-0.5,0.2-1.1,0.2c-1.2,0-2-0.7-2-2c0-1.2,0.8-2,2-2c0.5,0,0.8,0.1,1,0.2l-0.1,0.4
			c-0.2-0.1-0.4-0.2-0.8-0.2c-0.9,0-1.5,0.6-1.5,1.6s0.5,1.6,1.5,1.6c0.4,0,0.6-0.1,0.8-0.2L49.4,45.6z"/>
		<path class="st0" d="M50.7,41.8v4h-0.5v-4H50.7z"/>
		<path class="st0" d="M53.7,43.9h-1.5v1.4h1.7v0.4h-2.2v-4h2.1v0.4h-1.6v1.2h1.5V43.9z M52.6,40.9l0.5,0.7h-0.4l-0.7-0.7H52.6z"/>
		<path class="st0" d="M54.7,45.8v-4h0.5l1.2,2c0.3,0.4,0.5,0.9,0.7,1.3l0,0c-0.1-0.5-0.1-1-0.1-1.6v-1.7h0.4v4H57l-1.2-2
			c-0.3-0.4-0.5-0.9-0.7-1.3l0,0c0,0.5,0,1,0,1.6v1.7H54.7z"/>
		<path class="st0" d="M61.4,45.6c-0.2,0.1-0.5,0.2-1.1,0.2c-1.2,0-2-0.7-2-2c0-1.2,0.8-2,2-2c0.5,0,0.8,0.1,1,0.2l-0.1,0.4
			c-0.2-0.1-0.4-0.2-0.8-0.2c-0.9,0-1.5,0.6-1.5,1.6s0.5,1.6,1.5,1.6c0.4,0,0.6-0.1,0.8-0.2L61.4,45.6z"/>
		<path class="st0" d="M62.8,41.8v4h-0.5v-4H62.8z"/>
		<path class="st0" d="M64.5,44.6L64,45.8h-0.5l1.3-4h0.6l1.3,4h-0.5l-0.4-1.2H64.5z M65.7,44.1L65.3,43c-0.1-0.3-0.2-0.5-0.2-0.7
			l0,0c-0.1,0.3-0.1,0.4-0.2,0.7l-0.4,1.2H65.7z"/>
		<path class="st0" d="M68.9,41.9c0.4-0.1,0.7-0.1,1.1-0.1c0.7,0,1.2,0.2,1.6,0.5s0.5,0.8,0.5,1.4s-0.2,1.2-0.5,1.5
			c-0.4,0.4-1,0.5-1.8,0.5c-0.4,0-0.7,0-0.9-0.1V41.9z M69.3,45.4c0.1,0,0.4,0,0.5,0c1.1,0,1.7-0.6,1.7-1.7c0-1-0.5-1.5-1.6-1.5
			c-0.3,0-0.4,0-0.6,0.1V45.4z"/>
		<path class="st0" d="M74.9,43.9h-1.5v1.4h1.7v0.4h-2.2v-4H75v0.4h-1.6v1.2h1.5C74.9,43.5,74.9,43.9,74.9,43.9z"/>
		<path class="st0" d="M80.6,44c0-0.5-0.1-1.2-0.1-1.7l0,0c-0.2,0.4-0.3,1-0.5,1.5l-0.7,2h-0.4l-0.6-1.9c-0.2-0.5-0.4-1.1-0.4-1.5
			l0,0c0,0.5,0,1.2-0.1,1.8l-0.1,1.7h-0.5l0.3-4H78l0.7,2c0.2,0.5,0.3,0.9,0.4,1.3l0,0c0.1-0.4,0.3-0.8,0.4-1.3l0.7-2H81l0.3,4h-0.5
			L80.6,44z"/>
		<path class="st0" d="M82.7,44.6l-0.4,1.2h-0.5l1.3-4h0.6l1.3,4h-0.5l-0.4-1.2H82.7z M84.1,44.1L83.7,43c-0.1-0.3-0.2-0.5-0.2-0.7
			l0,0c-0.1,0.3-0.1,0.4-0.2,0.7L83,44.1H84.1z"/>
		<path class="st0" d="M86.1,42.3h-1.2v-0.4h2.9v0.4h-1.2v3.6H86L86.1,42.3L86.1,42.3z"/>
		<path class="st0" d="M90.5,43.9H89v1.4h1.7v0.4h-2.2v-4h2.1v0.4H89v1.2h1.5V43.9z"/>
		<path class="st0" d="M91.4,41.9c0.3-0.1,0.6-0.1,1-0.1c0.5,0,0.9,0.1,1.2,0.4c0.2,0.2,0.4,0.4,0.4,0.7c0,0.5-0.4,0.9-0.7,1l0,0
			c0.3,0.1,0.4,0.4,0.6,0.8c0.1,0.5,0.3,1,0.3,1.1h-0.5c-0.1-0.1-0.2-0.4-0.3-1S93,44,92.5,43.9h-0.4v1.7h-0.5L91.4,41.9L91.4,41.9z
			 M92,43.7h0.5c0.5,0,0.9-0.3,0.9-0.7c0-0.5-0.4-0.7-0.9-0.7c-0.3,0-0.4,0-0.5,0.1V43.7z"/>
		<path class="st0" d="M95.3,41.8v4h-0.5v-4H95.3z"/>
		<path class="st0" d="M96.9,44.6l-0.4,1.2H96l1.3-4h0.6l1.3,4h-0.5l-0.4-1.2H96.9z M98.2,44.1L97.8,43c-0.1-0.3-0.2-0.5-0.2-0.7
			l0,0c-0.1,0.3-0.1,0.4-0.2,0.7l-0.4,1.2H98.2z"/>
		<path class="st0" d="M100,41.8h0.5v3.6h1.7v0.4H100V41.8z"/>
		<path class="st0" d="M102.8,45.2c0.3,0.2,0.5,0.3,0.9,0.3c0.5,0,0.8-0.3,0.8-0.7c0-0.4-0.2-0.6-0.7-0.8c-0.6-0.3-1.1-0.5-1.1-1.2
			c0-0.6,0.5-1.1,1.2-1.1c0.4,0,0.7,0.1,0.9,0.2l-0.2,0.4c-0.1-0.1-0.4-0.2-0.7-0.2c-0.5,0-0.7,0.4-0.7,0.6c0,0.4,0.3,0.5,0.8,0.8
			c0.7,0.3,1,0.6,1,1.2c0,0.6-0.4,1.2-1.4,1.2c-0.4,0-0.8-0.1-1-0.3L102.8,45.2z"/>
		<path class="st0" d="M107.3,41.9c0.4-0.1,0.7-0.1,1.1-0.1c0.7,0,1.2,0.2,1.6,0.5c0.4,0.4,0.5,0.8,0.5,1.4s-0.2,1.2-0.5,1.5
			c-0.4,0.4-1,0.5-1.8,0.5c-0.4,0-0.7,0-0.9-0.1V41.9z M107.8,45.4c0.1,0,0.4,0,0.5,0c1.1,0,1.7-0.6,1.7-1.7c0-1-0.5-1.5-1.6-1.5
			c-0.3,0-0.4,0-0.6,0.1V45.4z"/>
		<path class="st0" d="M113.4,43.9h-1.5v1.4h1.7v0.4h-2.2v-4h2.1v0.4h-1.6v1.2h1.5L113.4,43.9L113.4,43.9z"/>
		<path class="st0" d="M115.7,41.9c0.3-0.1,0.5-0.1,1-0.1c0.5,0,0.8,0.1,1.1,0.3c0.2,0.2,0.4,0.4,0.4,0.7s-0.3,0.7-0.7,0.9l0,0
			c0.4,0.1,0.8,0.4,0.8,1c0,0.4-0.2,0.6-0.4,0.8c-0.3,0.3-0.7,0.4-1.3,0.4c-0.4,0-0.6,0-0.8-0.1V41.9z M116.2,43.5h0.4
			c0.5,0,0.9-0.3,0.9-0.6c0-0.4-0.4-0.6-0.9-0.6c-0.3,0-0.4,0-0.4,0V43.5z M116.2,45.4c0.1,0,0.3,0,0.4,0c0.5,0,1-0.2,1-0.8
			c0-0.5-0.4-0.8-1.1-0.8h-0.4L116.2,45.4L116.2,45.4z"/>
		<path class="st0" d="M119.7,44.6l-0.4,1.2h-0.5l1.3-4h0.6l1.3,4h-0.5l-0.4-1.2H119.7z M120.9,44.1l-0.4-1.2
			c-0.1-0.3-0.2-0.5-0.2-0.7l0,0c-0.1,0.3-0.1,0.4-0.2,0.7l-0.4,1.2H120.9z"/>
		<path class="st0" d="M122.7,41.9c0.3-0.1,0.6-0.1,1-0.1c0.5,0,0.9,0.1,1.2,0.4c0.2,0.2,0.4,0.4,0.4,0.7c0,0.5-0.4,0.9-0.7,1l0,0
			c0.3,0.1,0.5,0.4,0.6,0.8c0.1,0.5,0.3,1,0.3,1.1h-0.5c-0.1-0.1-0.2-0.4-0.3-1c-0.1-0.5-0.4-0.7-0.8-0.8h-0.4v1.7h-0.5L122.7,41.9
			L122.7,41.9z M123.2,43.7h0.5c0.5,0,0.9-0.3,0.9-0.7c0-0.5-0.4-0.7-0.9-0.7c-0.3,0-0.4,0-0.5,0.1V43.7z"/>
		<path class="st0" d="M128.8,45.6c-0.2,0.1-0.5,0.2-1.1,0.2c-1.2,0-2-0.7-2-2c0-1.2,0.8-2,2-2c0.5,0,0.8,0.1,1,0.2l-0.1,0.4
			c-0.2-0.1-0.4-0.2-0.8-0.2c-0.9,0-1.5,0.6-1.5,1.6s0.5,1.6,1.5,1.6c0.4,0,0.6-0.1,0.8-0.2L128.8,45.6z"/>
		<path class="st0" d="M131.7,43.9h-1.5v1.4h1.7v0.4h-2.2v-4h2.1v0.4h-1.6v1.2h1.5L131.7,43.9L131.7,43.9z"/>
		<path class="st0" d="M132.7,41.8h0.5v3.6h1.7v0.4h-2.2V41.8z"/>
		<path class="st0" d="M138.7,43.8c0,1.3-0.8,2.1-1.9,2.1s-1.8-0.8-1.8-2s0.8-2,1.9-2C138,41.7,138.7,42.6,138.7,43.8z M135.6,43.9
			c0,0.9,0.4,1.6,1.2,1.6c0.8,0,1.2-0.7,1.2-1.7c0-0.8-0.4-1.6-1.2-1.6C136,42.2,135.6,43,135.6,43.9z"/>
		<path class="st0" d="M139.5,45.8v-4h0.5l1.2,2c0.3,0.4,0.5,0.9,0.7,1.3l0,0c-0.1-0.5-0.1-1-0.1-1.6v-1.7h0.4v4h-0.5l-1.2-2
			c-0.3-0.4-0.5-0.9-0.7-1.3l0,0c0,0.5,0,1,0,1.6v1.7H139.5z"/>
		<path class="st0" d="M144.1,44.6l-0.4,1.2h-0.5l1.3-4h0.6l1.3,4h-0.5l-0.4-1.2H144.1z M145.4,44.1l-0.4-1.2
			c-0.1-0.3-0.2-0.5-0.2-0.7l0,0c-0.1,0.3-0.1,0.4-0.2,0.7l-0.4,1.2H145.4z"/>
	</g>
</g>
</svg>
