<?xml version="1.0" encoding="utf-8"?>
<!-- Generator: Adobe Illustrator 23.1.1, SVG Export Plug-In . SVG Version: 6.00 Build 0)  -->
<svg version="1.1" id="Capa_1" xmlns="http://www.w3.org/2000/svg" xmlns:xlink="http://www.w3.org/1999/xlink" x="0px" y="0px"
	 viewBox="0 0 300 100" style="enable-background:new 0 0 300 100;" xml:space="preserve">
<style type="text/css">
	.st0{fill:url(#SVGID_1_);}
	.st1{fill:#1E8857;}
	.st2{fill:#24FF87;}
	.st3{clip-path:url(#SVGID_3_);fill:url(#SVGID_4_);}
	.st4{fill:#C7F9D9;}
	.st5{fill:#2EA366;}
	.st6{fill:#21844E;}
	.st7{clip-path:url(#SVGID_6_);fill:url(#SVGID_7_);}
	.st8{clip-path:url(#SVGID_9_);fill:url(#SVGID_10_);}
	.st9{clip-path:url(#SVGID_12_);fill:url(#SVGID_13_);}
	.st10{clip-path:url(#SVGID_15_);fill:url(#SVGID_16_);}
	.st11{clip-path:url(#SVGID_18_);fill:url(#SVGID_19_);}
	.st12{clip-path:url(#SVGID_21_);fill:url(#SVGID_22_);}
	.st13{clip-path:url(#SVGID_24_);fill:url(#SVGID_25_);}
	.st14{clip-path:url(#SVGID_27_);fill:url(#SVGID_28_);}
	.st15{clip-path:url(#SVGID_30_);fill:url(#SVGID_31_);}
	.st16{clip-path:url(#SVGID_33_);fill:url(#SVGID_34_);}
	.st17{clip-path:url(#SVGID_36_);fill:url(#SVGID_37_);}
	.st18{clip-path:url(#SVGID_39_);fill:url(#SVGID_40_);}
	.st19{clip-path:url(#SVGID_42_);fill:url(#SVGID_43_);}
	.st20{clip-path:url(#SVGID_45_);fill:url(#SVGID_46_);}
	.st21{clip-path:url(#SVGID_48_);fill:url(#SVGID_49_);}
	.st22{clip-path:url(#SVGID_51_);fill:url(#SVGID_52_);}
</style>
<g>
	<g>
		<g>
			
				<radialGradient id="SVGID_1_" cx="148.347" cy="50.8341" r="188.9487" gradientTransform="matrix(0.9059 0 0 0.4581 14.5428 27.0308)" gradientUnits="userSpaceOnUse">
				<stop  offset="0" style="stop-color:#24FF87"/>
				<stop  offset="0.1486" style="stop-color:#24F984"/>
				<stop  offset="0.3567" style="stop-color:#23E67D"/>
				<stop  offset="0.5997" style="stop-color:#21C871"/>
				<stop  offset="0.8672" style="stop-color:#1F9F60"/>
				<stop  offset="1" style="stop-color:#1E8857"/>
			</radialGradient>
			<path class="st0" d="M272.7,66.4l-9.8-10c8.8-4.7,14.8-14,14.8-24.7c0-15.5-12.6-28.1-28.2-28.1c-5.9,0-11.5,1.9-16,5
				c-3.2-2.9-7.4-4.6-12-4.6c-3.6,0-7,1.1-9.9,3.1c-3-2-6.4-3.1-9.8-3.1c-8.1,0-14.9,5.4-17,12.8l-6.9-7c-3.3-3.7-8.1-5.8-13.1-5.8
				c-3.1,0-6,0.8-8.7,2.3c0,0-0.1,0-0.1,0.1c-2.6-1.5-5.7-2.4-8.9-2.4c-3.6,0-7,1.1-9.9,3.1c-3-2-6.4-3.1-9.8-3.1
				c-4.6,0-8.8,1.8-12,4.6c-4.6-3.2-10.1-5-16.1-5c-6,0-11.6,1.9-16.2,5.1C79.9,6,75.7,4.3,71.1,4.3c-3.7,0-7.1,1.1-9.9,3
				c-3.1-2-6.8-3.2-10.8-3.2l-12.7,0C28,4.1,20.1,12,20.1,21.8l0,19.9c0,4.5,1.8,8.7,4.7,11.9c-2.9,4.4-4.6,9.7-4.6,15.4
				c0,15,12.5,27.7,27.3,27.7h7.4c3.3,0,6.5-0.9,9.1-2.5c2.6,1.5,5.6,2.2,8.6,2.2c3.5,0,6.8-1,9.7-2.9c2.9,1.9,6.3,3,10.1,3
				c3.1,0,6-0.8,8.5-2.3c2.8,1.7,6,2.7,9.5,2.7c6.2,0,11.6-3.2,14.8-8c1.2-0.2,2.4-0.6,3.6-1c3.1,4.9,8.5,8.7,14.9,8.7l11.1,0
				c6.1,0,11.5-2,15.4-5.4c4.6,3.6,10.3,5.7,16.5,5.7c5.6,0,10.8-1.7,15.1-4.7c3.2,2.8,7.4,4.3,11.8,4.3l9.6,0
				c3.2,0,6.2-0.8,8.7-2.2c2.5,1.4,5.3,2.1,8.3,2.1c3.7,0,7.2-1.1,10.1-3c2.8,1.9,6.2,2.9,9.7,2.9c4.7,0,9.2-1.8,12.5-5.2
				C279.4,84.4,279.4,73.3,272.7,66.4z M119.3,63.5c0.2,0,0.4,0,0.6,0.1h-1.4C118.8,63.5,119.1,63.5,119.3,63.5z M99.2,33.8
				c-0.9,0-1.8-0.9-1.8-2c0-1.2,0.9-1.9,1.8-1.9c1.1,0,2,0.8,2,1.9C101.2,32.8,100.3,33.8,99.2,33.8z M249.5,33.8
				c-0.9,0-1.8-0.9-1.8-2c0-1.2,0.9-1.9,1.8-1.9c1.1,0,2,0.8,2,1.9C251.5,32.8,250.6,33.8,249.5,33.8z M118.6,63.6
				C118.6,63.6,118.6,63.6,118.6,63.6l0.5,1.3c-0.2,0-0.4,0-0.5,0V63.6z"/>
			<g>
				<path class="st1" d="M50.8,34.9c2.8-0.1,5.3-1.3,7.1-3.2c1.7,1.8,2.6,2.7,2.6,7.4c0,5.3-5.9,11.1-11.3,11.1l-13.4,0
					c-4.3,0-8-3.8-8-8.2l0-19.9c0-4.5,3.6-8,8-8l12.7,0c5.5,0,10.2,4.5,10.2,10.3c0,4.8-3.5,8.9-8,10C50.4,34.4,50.4,34.9,50.8,34.9
					z"/>
				<path class="st1" d="M61.2,42V22.2c0-4.4,3.6-8,8-8c4.6,0,8.2,3.6,8.2,8l0,19.8c0,4.4-3.6,8.1-8.2,8.1
					C64.8,50.2,61.2,46.5,61.2,42z"/>
				<path class="st1" d="M115.8,32.1c0,10.2-8.3,18.4-18.5,18.4c-10.1,0-18.4-8.2-18.4-18.4c0-10.2,8.4-18.5,18.4-18.5
					C107.5,13.7,115.8,22,115.8,32.1z M95.5,32.1c0,1.1,0.9,2,1.8,2c1.1,0,2-0.9,2-2c0-1.2-0.9-1.9-2-1.9
					C96.4,30.2,95.5,31,95.5,32.1z"/>
				<path class="st1" d="M139.5,47.8c-3-2.9-5.9-5.6-8.7-8.6c-0.2-0.3-0.6,0.2-0.5,0.5l2.9,4.5c-0.8,3.5-4.1,6.1-7.9,6.1
					c-4.5,0-8.1-3.6-8.1-8.1l0-20c0-4.4,3.7-8.1,8.1-8.1c2.4,0,4.7,1.3,6.2,2.8l8.3,8.1c0.2,0.3,0.6,0,0.5-0.3l-3-4.4
					c0.8-3.5,4.1-6.3,7.8-6.3c4.5,0,8.2,3.7,8.2,8.1v20C153.3,50,144.1,52.5,139.5,47.8z"/>
				<path class="st1" d="M167.5,39.5l3.1,4.8c-0.9,3.4-3.7,5.9-7.8,5.9c-4.1,0-8-3.6-8-8l0-20.1c0-3,1.6-5.7,4.1-7
					c3.3-2,7.6-1.2,10.1,1.7l19.3,19.5c3.1,3.1,3.1,8.1,0,11.2c-3.1,3.1-8.3,3.1-11.4,0L168,39C167.7,38.7,167.3,39,167.5,39.5z"/>
				<path class="st1" d="M214,47.8c-3-2.9-5.9-5.6-8.7-8.6c-0.2-0.3-0.6,0.2-0.5,0.5l2.9,4.5c-0.8,3.5-4.1,6.1-7.9,6.1
					c-4.5,0-8.1-3.6-8.1-8.1v-20c0-4.4,3.7-8.1,8.1-8.1c2.4,0,4.7,1.3,6.2,2.8l8.3,8.1c0.2,0.3,0.6,0,0.5-0.3l-3-4.4
					c0.8-3.5,4.1-6.3,7.8-6.3c4.5,0,8.2,3.7,8.2,8.1v20C227.8,50,218.6,52.5,214,47.8z"/>
				<path class="st1" d="M266.1,32.1c0,10.2-8.3,18.4-18.5,18.4c-10.1,0-18.4-8.2-18.4-18.4c0-10.2,8.4-18.5,18.4-18.5
					C257.8,13.7,266.1,22,266.1,32.1z M245.8,32.1c0,1.1,0.9,2,1.8,2c1.1,0,2-0.9,2-2c0-1.2-0.9-1.9-2-1.9
					C246.7,30.2,245.8,31,245.8,32.1z"/>
			</g>
			<g>
				<path class="st1" d="M53,51.3c4.7,0,8.6,4.1,8.6,8.6c0,4.8-3.9,8.6-8.6,8.6c-2.5,0-4.5-1.2-6-1.2c-1.1,0-2,0.9-2,2
					c0,1,0.9,1.8,2,1.8c1.5,0,3.5-1.2,6-1.2c4.7,0,8.6,4.1,8.6,8.8c0,4.6-3.9,8.6-8.6,8.6c-2.4,0-4.9,0-7.4,0
					c-9.7,0-17.7-8.5-17.7-18.1c0-10.1,8.1-17.9,18-18C48.2,51.3,50.6,51.3,53,51.3z"/>
				<path class="st1" d="M85.3,76.2l-8.8,8.6c-3.1,3.1-8.3,3.1-11.4,0c-3.1-3.1-3.1-8.1,0-11.2L84.4,54c2.5-2.9,6.8-3.7,10.1-1.7
					c2.5,1.3,4.1,3.9,4.1,7v20.1c0,4.4-4,8-8,8c-4.2,0-7-2.5-7.8-5.9l3.1-4.8C85.9,76.2,85.5,75.9,85.3,76.2z"/>
				<path class="st1" d="M100,79.4V59.5c0-4.5,3.7-8.2,8.4-8.2l10,0c8.1,0,14.4,6.4,14.4,14.5c0,8.1-6.7,14.7-14.8,14.4l-0.9-5
					c-0.2-0.4-0.5-0.3-0.5,0.1v4.1c0,4.5-3.7,8.3-8.2,8.3C103.8,87.7,100,84.1,100,79.4z M116.7,64v3.5c0.3,0.2,0.5,0.3,0.8,0.3
					c1.1,0,2-0.9,2-2c0-1.1-0.9-1.9-2-1.9C117.2,63.9,116.9,63.9,116.7,64z"/>
				<path class="st1" d="M162.4,65.4c-1.7-1-3.7-1.5-5.7-1.6c-0.4,0-0.6,0.6-0.2,0.7c13.6,3.1,12.4,23-3.7,23c-4.1,0-6.9,0-11.1,0
					c-4.3,0-8.1-4.5-8.1-8.1c0-2.7,1-4.8,3.2-6.4c2,1.3,4.6,2,7,2c0.4,0,0.5-0.5,0.1-0.7c-1.4-0.1-2.9-0.7-4.2-1.3
					c-10-5.2-7.7-21.8,7-21.6c4.1,0,6.9,0,11,0c4.5,0,8.2,3.6,8.2,8C166.1,61.9,164.8,64.2,162.4,65.4z"/>
				<path class="st1" d="M167.6,70.4V59.5c0-4.5,3.7-8.2,8.2-8.2c4.5,0,8,3.7,8,8.2c0,0.5,0,9.4,0,10c0,0.6,0.5,1.3,1.1,1.3
					c0.6,0,1.1-0.7,1.1-1.3v-10c0-4.5,3.7-8.2,8.2-8.2c4.3,0,8,3.7,8,8.2v10.9c0,9.4-7.9,17.3-17.3,17.3
					C175.4,87.7,167.6,79.8,167.6,70.4z"/>
				<path class="st1" d="M203.6,79.1V59.3c0-4.4,3.6-8.1,8.1-8.1c4.5,0,8.1,3.7,8.1,8.1l-0.1,11.8h1.8c10.6,0,10.6,16.2,0,16.2h-9.6
					C207.1,87.4,203.5,83.8,203.6,79.1z"/>
				<path class="st1" d="M243.2,76.6l3.1,4.8c-0.9,3.4-3.7,5.9-7.8,5.9c-4.1,0-8-3.6-8-8V59.3c0-3,1.6-5.7,4.1-7
					c3.3-2,7.6-1.2,10.1,1.7l19.3,19.5c3.1,3.1,3.1,8.1,0,11.2c-3.1,3.1-8.3,3.1-11.4,0l-8.8-8.6C243.4,75.9,243,76.2,243.2,76.6z"
					/>
			</g>
			<g>
				<g>
					<path class="st2" d="M250.1,49c-9.6,0.7-17.9-6.5-18.6-16c-0.7-9.6,6.5-17.9,16-18.5c9.6-0.7,17.9,6.5,18.6,16
						C266.8,40,259.6,48.3,250.1,49"/>
				</g>
				<g>
					<defs>
						<path id="SVGID_2_" d="M244.1,48.7c22.8,2,22.1-18.2,22.1-18.2s-5.4,8-14.8,2.7c-10.5-5.9-6.3-17.7-3.8-18.7
							C229.8,16.4,221.3,46.7,244.1,48.7"/>
					</defs>
					<clipPath id="SVGID_3_">
						<use xlink:href="#SVGID_2_"  style="overflow:visible;"/>
					</clipPath>
					
						<linearGradient id="SVGID_4_" gradientUnits="userSpaceOnUse" x1="-157.9349" y1="488.3094" x2="-153.9645" y2="488.3094" gradientTransform="matrix(7.7 -4.4456 -4.4456 -7.7 3617.8606 3097.9795)">
						<stop  offset="0" style="stop-color:#24FF87"/>
						<stop  offset="0.1486" style="stop-color:#24F984"/>
						<stop  offset="0.3567" style="stop-color:#23E67D"/>
						<stop  offset="0.5997" style="stop-color:#21C871"/>
						<stop  offset="0.8672" style="stop-color:#1F9F60"/>
						<stop  offset="1" style="stop-color:#1E8857"/>
					</linearGradient>
					<polygon class="st3" points="205.6,23.5 255.5,-5.3 282.5,41.6 232.7,70.4 					"/>
				</g>
				<g>
					<path class="st4" d="M261.4,21.7c1.3,2.3,0.9,5-0.9,6c-1.8,1.1-4.4,0-5.7-2.2c-1.3-2.3-0.9-5,0.9-6
						C257.5,18.4,260.1,19.4,261.4,21.7"/>
					<path class="st4" d="M252.3,17.8c0.7,1.1,0.5,2.5-0.4,3c-0.9,0.5-2.2,0-2.8-1.1c-0.7-1.1-0.5-2.5,0.4-3
						C250.4,16.2,251.6,16.7,252.3,17.8"/>
					<path class="st5" d="M259.1,17.5c3.7,2.8,6.3,6.8,7.3,11.4c1,4.6,0.2,9.7-2.6,13.7c-2.7,4-7.2,6.9-12.1,7.8
						c-4.9,0.9-10.2-0.2-14.3-3.1c-4.2-2.8-7.2-7.4-8.2-12.5c-0.5-2.5-0.4-5.2,0.2-7.7c0.6-2.5,1.8-4.9,3.3-7
						c1.6-2.1,3.6-3.8,5.9-4.9c2.3-1.2,4.8-1.8,7.2-1.9C250.8,13,255.5,14.7,259.1,17.5 M258.9,17.9c-1.9-1.3-4-2.1-6.2-2.4
						c-2.2-0.3-4.4-0.1-6.4,0.5c-4.1,1.2-7.3,3.9-9.5,7.1c-2.2,3.2-3.1,7.2-2.7,11.1c0.2,1.9,0.8,3.9,1.8,5.6c1,1.7,2.3,3.3,3.9,4.5
						c3.2,2.5,7.4,3.6,11.5,3.1c4.1-0.5,8-2.7,10.6-6.1c2.6-3.3,4-7.7,3.6-12.1c-0.2-2.2-0.9-4.4-2-6.3
						C262.3,20.8,260.7,19.2,258.9,17.9"/>
					<g>
						<path class="st6" d="M237.1,47.2c0,0,9.9-15.2,27.6-6.1c0,0-4.8,7.8-11.4,9.1C246.7,51.5,243.2,50.5,237.1,47.2"/>
					</g>
				</g>
			</g>
			<g>
				<g>
					<path class="st2" d="M99.7,49c-9.6,0.7-17.9-6.5-18.6-16c-0.7-9.6,6.5-17.9,16-18.5c9.6-0.7,17.9,6.5,18.6,16
						C116.4,40,109.2,48.3,99.7,49"/>
				</g>
				<g>
					<defs>
						<path id="SVGID_5_" d="M93.7,48.7c22.8,2,22.1-18.2,22.1-18.2s-5.4,8-14.8,2.7c-10.5-5.9-6.3-17.7-3.8-18.7
							C79.4,16.4,70.9,46.7,93.7,48.7"/>
					</defs>
					<clipPath id="SVGID_6_">
						<use xlink:href="#SVGID_5_"  style="overflow:visible;"/>
					</clipPath>
					
						<linearGradient id="SVGID_7_" gradientUnits="userSpaceOnUse" x1="-172.5829" y1="496.7664" x2="-168.6126" y2="496.7664" gradientTransform="matrix(7.7 -4.4456 -4.4456 -7.7 3617.8606 3097.9795)">
						<stop  offset="0" style="stop-color:#24FF87"/>
						<stop  offset="0.1486" style="stop-color:#24F984"/>
						<stop  offset="0.3567" style="stop-color:#23E67D"/>
						<stop  offset="0.5997" style="stop-color:#21C871"/>
						<stop  offset="0.8672" style="stop-color:#1F9F60"/>
						<stop  offset="1" style="stop-color:#1E8857"/>
					</linearGradient>
					<polygon class="st7" points="55.2,23.5 105.1,-5.3 132.1,41.6 82.3,70.4 					"/>
				</g>
				<g>
					<path class="st4" d="M111,21.7c1.3,2.3,0.9,5-0.9,6c-1.8,1.1-4.4,0-5.7-2.2c-1.3-2.3-0.9-5,0.9-6
						C107.1,18.4,109.7,19.4,111,21.7"/>
					<path class="st4" d="M101.9,17.8c0.7,1.1,0.5,2.5-0.4,3c-0.9,0.5-2.2,0-2.8-1.1c-0.7-1.1-0.5-2.5,0.4-3
						C100,16.2,101.3,16.7,101.9,17.8"/>
					<path class="st5" d="M108.8,17.5c3.7,2.8,6.3,6.8,7.3,11.4c1,4.6,0.2,9.7-2.6,13.7c-2.7,4-7.2,6.9-12.1,7.8
						c-4.9,0.9-10.2-0.2-14.3-3.1c-4.2-2.8-7.2-7.4-8.2-12.5c-0.5-2.5-0.4-5.2,0.2-7.7c0.6-2.5,1.8-4.9,3.3-7
						c1.6-2.1,3.6-3.8,5.9-4.9c2.3-1.2,4.8-1.8,7.2-1.9C100.4,13,105.1,14.7,108.8,17.5 M108.5,17.9c-1.9-1.3-4-2.1-6.2-2.4
						c-2.2-0.3-4.4-0.1-6.4,0.5c-4.1,1.2-7.3,3.9-9.5,7.1c-2.2,3.2-3.1,7.2-2.7,11.1c0.2,1.9,0.8,3.9,1.8,5.6c1,1.7,2.3,3.3,3.9,4.5
						c3.2,2.5,7.4,3.6,11.5,3.1c4.1-0.5,8-2.7,10.6-6.1c2.6-3.3,4-7.7,3.6-12.1c-0.2-2.2-0.9-4.4-2-6.3
						C111.9,20.8,110.3,19.2,108.5,17.9"/>
					<g>
						<path class="st6" d="M86.7,47.2c0,0,9.9-15.2,27.6-6.1c0,0-4.8,7.8-11.4,9.1C96.3,51.5,92.8,50.5,86.7,47.2"/>
					</g>
				</g>
			</g>
		</g>
		<path class="st1" d="M111.7,52.8v3.5c0.3,0.2,0.5,0.3,0.8,0.3c1.1,0,2-0.9,2-2c0-1.1-0.9-1.9-2-1.9
			C112.2,52.7,111.9,52.7,111.7,52.8z"/>
		<g>
			<g>
				<path class="st2" d="M274.6,57c-3.8,0.3-7.2-2.6-7.4-6.4c-0.3-3.8,2.6-7.2,6.4-7.4c3.8-0.3,7.2,2.6,7.4,6.4
					C281.3,53.4,278.4,56.7,274.6,57"/>
			</g>
			<g>
				<defs>
					<path id="SVGID_8_" d="M272.2,56.8c9.1,0.8,8.9-7.3,8.9-7.3s-2.2,3.2-5.9,1.1c-4.2-2.4-2.5-7.1-1.5-7.5
						C266.5,43.9,263,56.1,272.2,56.8"/>
				</defs>
				<clipPath id="SVGID_9_">
					<use xlink:href="#SVGID_8_"  style="overflow:visible;"/>
				</clipPath>
				
					<linearGradient id="SVGID_10_" gradientUnits="userSpaceOnUse" x1="-155.1775" y1="484.9891" x2="-153.5846" y2="484.9891" gradientTransform="matrix(7.7 -4.4456 -4.4456 -7.7 3617.8606 3097.9795)">
					<stop  offset="0" style="stop-color:#24FF87"/>
					<stop  offset="0.1486" style="stop-color:#24F984"/>
					<stop  offset="0.3567" style="stop-color:#23E67D"/>
					<stop  offset="0.5997" style="stop-color:#21C871"/>
					<stop  offset="0.8672" style="stop-color:#1F9F60"/>
					<stop  offset="1" style="stop-color:#1E8857"/>
				</linearGradient>
				<polygon class="st8" points="256.8,46.7 276.8,35.2 287.6,54 267.6,65.6 				"/>
			</g>
			<g>
				<path class="st4" d="M279.1,46c0.5,0.9,0.4,2-0.4,2.4c-0.7,0.4-1.7,0-2.3-0.9c-0.5-0.9-0.4-2,0.4-2.4
					C277.6,44.7,278.6,45.1,279.1,46"/>
				<path class="st4" d="M275.5,44.5c0.3,0.5,0.2,1-0.2,1.2c-0.4,0.2-0.9,0-1.1-0.5c-0.3-0.5-0.2-1,0.2-1.2
					C274.7,43.8,275.2,44,275.5,44.5"/>
				<path class="st5" d="M278.2,44.3c1.5,1.1,2.5,2.7,2.9,4.6c0.4,1.8,0.1,3.9-1,5.5c-1.1,1.6-2.9,2.8-4.8,3.1
					c-2,0.4-4.1-0.1-5.7-1.2c-1.7-1.1-2.9-3-3.3-5c-0.2-1-0.2-2.1,0.1-3.1c0.2-1,0.7-2,1.3-2.8c0.6-0.8,1.5-1.5,2.4-2
					c0.9-0.5,1.9-0.7,2.9-0.8C274.9,42.6,276.8,43.2,278.2,44.3 M278.1,44.5c-0.7-0.5-1.6-0.8-2.5-1c-0.9-0.1-1.8-0.1-2.6,0.2
					c-1.6,0.5-2.9,1.6-3.8,2.8c-0.9,1.3-1.3,2.9-1.1,4.4c0.1,0.8,0.3,1.5,0.7,2.2c0.4,0.7,0.9,1.3,1.6,1.8c1.3,1,3,1.5,4.6,1.2
					c1.6-0.2,3.2-1.1,4.2-2.4c1-1.3,1.6-3.1,1.4-4.9c-0.1-0.9-0.4-1.8-0.8-2.5C279.5,45.7,278.9,45,278.1,44.5"/>
				<g>
					<path class="st6" d="M269.4,56.3c0,0,4-6.1,11.1-2.5c0,0-1.9,3.1-4.6,3.6C273.2,58,271.9,57.6,269.4,56.3"/>
				</g>
			</g>
		</g>
		<g>
			<g>
				<path class="st2" d="M287.3,94.2c-2.3,0.2-4.3-1.6-4.5-3.9c-0.2-2.3,1.6-4.3,3.9-4.5c2.3-0.2,4.3,1.6,4.5,3.9
					C291.4,92,289.7,94,287.3,94.2"/>
			</g>
			<g>
				<defs>
					<path id="SVGID_11_" d="M285.9,94.1c5.5,0.5,5.3-4.4,5.3-4.4s-1.3,1.9-3.6,0.6c-2.5-1.4-1.5-4.3-0.9-4.5
						C282.4,86.3,280.4,93.6,285.9,94.1"/>
				</defs>
				<clipPath id="SVGID_12_">
					<use xlink:href="#SVGID_11_"  style="overflow:visible;"/>
				</clipPath>
				
					<linearGradient id="SVGID_13_" gradientUnits="userSpaceOnUse" x1="-155.8105" y1="480.3416" x2="-154.8497" y2="480.3416" gradientTransform="matrix(7.7 -4.4456 -4.4456 -7.7 3617.8606 3097.9795)">
					<stop  offset="0" style="stop-color:#24FF87"/>
					<stop  offset="0.1486" style="stop-color:#24F984"/>
					<stop  offset="0.3567" style="stop-color:#23E67D"/>
					<stop  offset="0.5997" style="stop-color:#21C871"/>
					<stop  offset="0.8672" style="stop-color:#1F9F60"/>
					<stop  offset="1" style="stop-color:#1E8857"/>
				</linearGradient>
				<polygon class="st9" points="276.6,88 288.6,81 295.2,92.4 283.1,99.3 				"/>
			</g>
			<g>
				<path class="st4" d="M290.1,87.5c0.3,0.6,0.2,1.2-0.2,1.5c-0.4,0.3-1.1,0-1.4-0.5c-0.3-0.6-0.2-1.2,0.2-1.5
					C289.1,86.8,289.8,87,290.1,87.5"/>
				<path class="st4" d="M287.9,86.6c0.2,0.3,0.1,0.6-0.1,0.7c-0.2,0.1-0.5,0-0.7-0.3c-0.2-0.3-0.1-0.6,0.1-0.7
					C287.4,86.2,287.7,86.3,287.9,86.6"/>
				<path class="st5" d="M289.5,86.5c0.9,0.7,1.5,1.7,1.8,2.8c0.3,1.1,0,2.3-0.6,3.3c-0.7,1-1.7,1.7-2.9,1.9c-1.2,0.2-2.5,0-3.5-0.7
					c-1-0.7-1.8-1.8-2-3c-0.1-0.6-0.1-1.3,0-1.9c0.1-0.6,0.4-1.2,0.8-1.7c0.4-0.5,0.9-0.9,1.4-1.2c0.6-0.3,1.2-0.4,1.7-0.5
					C287.5,85.5,288.7,85.9,289.5,86.5 M289.5,86.6c-0.4-0.3-1-0.5-1.5-0.6c-0.5-0.1-1.1,0-1.6,0.1c-1,0.3-1.8,0.9-2.3,1.7
					c-0.5,0.8-0.8,1.7-0.6,2.7c0.1,0.5,0.2,0.9,0.4,1.4c0.2,0.4,0.6,0.8,0.9,1.1c0.8,0.6,1.8,0.9,2.8,0.7c1-0.1,1.9-0.7,2.6-1.5
					c0.6-0.8,1-1.9,0.9-2.9c-0.1-0.5-0.2-1.1-0.5-1.5C290.3,87.3,289.9,86.9,289.5,86.6"/>
				<g>
					<path class="st6" d="M284.2,93.7c0,0,2.4-3.7,6.7-1.5c0,0-1.2,1.9-2.8,2.2C286.5,94.8,285.7,94.5,284.2,93.7"/>
				</g>
			</g>
		</g>
		<g>
			<g>
				<path class="st2" d="M20.7,30.4c-2.3,0.2-4.3-1.6-4.5-3.9c-0.2-2.3,1.6-4.3,3.9-4.5c2.3-0.2,4.3,1.6,4.5,3.9
					C24.7,28.2,23,30.2,20.7,30.4"/>
			</g>
			<g>
				<defs>
					<path id="SVGID_14_" d="M19.2,30.3c5.5,0.5,5.3-4.4,5.3-4.4s-1.3,1.9-3.6,0.6c-2.5-1.4-1.5-4.3-0.9-4.5
						C15.8,22.5,13.7,29.8,19.2,30.3"/>
				</defs>
				<clipPath id="SVGID_15_">
					<use xlink:href="#SVGID_14_"  style="overflow:visible;"/>
				</clipPath>
				
					<linearGradient id="SVGID_16_" gradientUnits="userSpaceOnUse" x1="-178.1994" y1="501.5494" x2="-177.2386" y2="501.5494" gradientTransform="matrix(7.7 -4.4456 -4.4456 -7.7 3617.8606 3097.9795)">
					<stop  offset="0" style="stop-color:#24FF87"/>
					<stop  offset="0.1486" style="stop-color:#24F984"/>
					<stop  offset="0.3567" style="stop-color:#23E67D"/>
					<stop  offset="0.5997" style="stop-color:#21C871"/>
					<stop  offset="0.8672" style="stop-color:#1F9F60"/>
					<stop  offset="1" style="stop-color:#1E8857"/>
				</linearGradient>
				<polygon class="st10" points="9.9,24.2 22,17.3 28.5,28.6 16.5,35.6 				"/>
			</g>
			<g>
				<path class="st4" d="M23.4,23.8c0.3,0.6,0.2,1.2-0.2,1.5c-0.4,0.3-1.1,0-1.4-0.5c-0.3-0.6-0.2-1.2,0.2-1.5
					C22.5,23,23.1,23.2,23.4,23.8"/>
				<path class="st4" d="M21.2,22.9c0.2,0.3,0.1,0.6-0.1,0.7c-0.2,0.1-0.5,0-0.7-0.3c-0.2-0.3-0.1-0.6,0.1-0.7
					C20.7,22.5,21,22.6,21.2,22.9"/>
				<path class="st5" d="M22.9,22.8c0.9,0.7,1.5,1.7,1.8,2.8c0.3,1.1,0,2.3-0.6,3.3c-0.7,1-1.7,1.7-2.9,1.9c-1.2,0.2-2.5,0-3.5-0.7
					c-1-0.7-1.8-1.8-2-3c-0.1-0.6-0.1-1.3,0-1.9c0.1-0.6,0.4-1.2,0.8-1.7c0.4-0.5,0.9-0.9,1.4-1.2c0.6-0.3,1.2-0.4,1.7-0.5
					C20.8,21.7,22,22.1,22.9,22.8 M22.8,22.9c-0.4-0.3-1-0.5-1.5-0.6c-0.5-0.1-1.1,0-1.6,0.1c-1,0.3-1.8,0.9-2.3,1.7
					c-0.5,0.8-0.8,1.7-0.6,2.7c0.1,0.5,0.2,0.9,0.4,1.4c0.2,0.4,0.6,0.8,0.9,1.1C19,29.8,20,30.1,21,30c1-0.1,1.9-0.7,2.6-1.5
					c0.6-0.8,1-1.9,0.9-2.9c-0.1-0.5-0.2-1.1-0.5-1.5C23.6,23.6,23.2,23.2,22.8,22.9"/>
				<g>
					<path class="st6" d="M17.5,30c0,0,2.4-3.7,6.7-1.5c0,0-1.2,1.9-2.8,2.2C19.8,31,19,30.8,17.5,30"/>
				</g>
			</g>
		</g>
		<g>
			<g>
				<path class="st2" d="M61.7,29.6c-2.3,0.2-4.3-1.6-4.5-3.9c-0.2-2.3,1.6-4.3,3.9-4.5c2.3-0.2,4.3,1.6,4.5,3.9
					C65.8,27.4,64,29.5,61.7,29.6"/>
			</g>
			<g>
				<defs>
					<path id="SVGID_17_" d="M60.3,29.5c5.5,0.5,5.3-4.4,5.3-4.4s-1.3,1.9-3.6,0.6c-2.5-1.4-1.5-4.3-0.9-4.5
						C56.8,21.7,54.8,29.1,60.3,29.5"/>
				</defs>
				<clipPath id="SVGID_18_">
					<use xlink:href="#SVGID_17_"  style="overflow:visible;"/>
				</clipPath>
				
					<linearGradient id="SVGID_19_" gradientUnits="userSpaceOnUse" x1="-174.1558" y1="499.316" x2="-173.1949" y2="499.316" gradientTransform="matrix(7.7 -4.4456 -4.4456 -7.7 3617.8606 3097.9795)">
					<stop  offset="0" style="stop-color:#24FF87"/>
					<stop  offset="0.1486" style="stop-color:#24F984"/>
					<stop  offset="0.3567" style="stop-color:#23E67D"/>
					<stop  offset="0.5997" style="stop-color:#21C871"/>
					<stop  offset="0.8672" style="stop-color:#1F9F60"/>
					<stop  offset="1" style="stop-color:#1E8857"/>
				</linearGradient>
				<polygon class="st11" points="51,23.4 63,16.5 69.6,27.8 57.5,34.8 				"/>
			</g>
			<g>
				<path class="st4" d="M64.5,23c0.3,0.6,0.2,1.2-0.2,1.5c-0.4,0.3-1.1,0-1.4-0.5c-0.3-0.6-0.2-1.2,0.2-1.5
					C63.5,22.2,64.1,22.4,64.5,23"/>
				<path class="st4" d="M62.3,22.1c0.2,0.3,0.1,0.6-0.1,0.7c-0.2,0.1-0.5,0-0.7-0.3c-0.2-0.3-0.1-0.6,0.1-0.7
					C61.8,21.7,62.1,21.8,62.3,22.1"/>
				<path class="st5" d="M63.9,22c0.9,0.7,1.5,1.7,1.8,2.8c0.3,1.1,0,2.3-0.6,3.3c-0.7,1-1.7,1.7-2.9,1.9c-1.2,0.2-2.5,0-3.5-0.7
					c-1-0.7-1.8-1.8-2-3c-0.1-0.6-0.1-1.3,0-1.9c0.1-0.6,0.4-1.2,0.8-1.7c0.4-0.5,0.9-0.9,1.4-1.2c0.6-0.3,1.2-0.4,1.7-0.5
					C61.9,20.9,63,21.3,63.9,22 M63.9,22.1c-0.4-0.3-1-0.5-1.5-0.6c-0.5-0.1-1.1,0-1.6,0.1c-1,0.3-1.8,0.9-2.3,1.7
					c-0.5,0.8-0.8,1.7-0.6,2.7c0.1,0.5,0.2,0.9,0.4,1.4c0.2,0.4,0.6,0.8,0.9,1.1C60,29,61,29.3,62,29.2c1-0.1,1.9-0.7,2.6-1.5
					c0.6-0.8,1-1.9,0.9-2.9c-0.1-0.5-0.2-1.1-0.5-1.5C64.7,22.8,64.3,22.4,63.9,22.1"/>
				<g>
					<path class="st6" d="M58.6,29.2c0,0,2.4-3.7,6.7-1.5c0,0-1.2,1.9-2.8,2.2C60.9,30.2,60.1,30,58.6,29.2"/>
				</g>
			</g>
		</g>
		<g>
			<g>
				<path class="st2" d="M20.7,76.8c-2.3,0.2-4.3-1.6-4.5-3.9c-0.2-2.3,1.6-4.3,3.9-4.5c2.3-0.2,4.3,1.6,4.5,3.9
					C24.7,74.6,23,76.6,20.7,76.8"/>
			</g>
			<g>
				<defs>
					<path id="SVGID_20_" d="M19.2,76.7c5.5,0.5,5.3-4.4,5.3-4.4S23.2,74.2,21,73c-2.5-1.4-1.5-4.3-0.9-4.5
						C15.8,68.9,13.7,76.2,19.2,76.7"/>
				</defs>
				<clipPath id="SVGID_21_">
					<use xlink:href="#SVGID_20_"  style="overflow:visible;"/>
				</clipPath>
				
					<linearGradient id="SVGID_22_" gradientUnits="userSpaceOnUse" x1="-180.8089" y1="497.0298" x2="-179.848" y2="497.0298" gradientTransform="matrix(7.7 -4.4456 -4.4456 -7.7 3617.8606 3097.9795)">
					<stop  offset="0" style="stop-color:#24FF87"/>
					<stop  offset="0.1486" style="stop-color:#24F984"/>
					<stop  offset="0.3567" style="stop-color:#23E67D"/>
					<stop  offset="0.5997" style="stop-color:#21C871"/>
					<stop  offset="0.8672" style="stop-color:#1F9F60"/>
					<stop  offset="1" style="stop-color:#1E8857"/>
				</linearGradient>
				<polygon class="st12" points="9.9,70.6 22,63.7 28.5,75 16.5,82 				"/>
			</g>
			<g>
				<path class="st4" d="M23.4,70.2c0.3,0.6,0.2,1.2-0.2,1.5c-0.4,0.3-1.1,0-1.4-0.5c-0.3-0.6-0.2-1.2,0.2-1.5
					C22.5,69.4,23.1,69.6,23.4,70.2"/>
				<path class="st4" d="M21.2,69.3c0.2,0.3,0.1,0.6-0.1,0.7c-0.2,0.1-0.5,0-0.7-0.3c-0.2-0.3-0.1-0.6,0.1-0.7
					C20.7,68.9,21,69,21.2,69.3"/>
				<path class="st5" d="M22.9,69.2c0.9,0.7,1.5,1.7,1.8,2.8c0.3,1.1,0,2.3-0.6,3.3c-0.7,1-1.7,1.7-2.9,1.9c-1.2,0.2-2.5,0-3.5-0.7
					c-1-0.7-1.8-1.8-2-3c-0.1-0.6-0.1-1.3,0-1.9c0.1-0.6,0.4-1.2,0.8-1.7c0.4-0.5,0.9-0.9,1.4-1.2c0.6-0.3,1.2-0.4,1.7-0.5
					C20.8,68.1,22,68.5,22.9,69.2 M22.8,69.3c-0.4-0.3-1-0.5-1.5-0.6c-0.5-0.1-1.1,0-1.6,0.1c-1,0.3-1.8,0.9-2.3,1.7
					c-0.5,0.8-0.8,1.7-0.6,2.7c0.1,0.5,0.2,0.9,0.4,1.4c0.2,0.4,0.6,0.8,0.9,1.1c0.8,0.6,1.8,0.9,2.8,0.7c1-0.1,1.9-0.7,2.6-1.5
					c0.6-0.8,1-1.9,0.9-2.9c-0.1-0.5-0.2-1.1-0.5-1.5C23.6,70,23.2,69.6,22.8,69.3"/>
				<g>
					<path class="st6" d="M17.5,76.4c0,0,2.4-3.7,6.7-1.5c0,0-1.2,1.9-2.8,2.2C19.8,77.4,19,77.2,17.5,76.4"/>
				</g>
			</g>
		</g>
		<g>
			<g>
				<path class="st2" d="M279.8,10c-1.4,0.1-2.6-0.9-2.7-2.3C277,6.3,278,5.1,279.4,5c1.4-0.1,2.6,0.9,2.7,2.3
					C282.2,8.7,281.2,9.9,279.8,10"/>
			</g>
			<g>
				<defs>
					<path id="SVGID_23_" d="M278.9,10c3.3,0.3,3.2-2.6,3.2-2.6s-0.8,1.2-2.1,0.4c-1.5-0.9-0.9-2.6-0.5-2.7
						C276.8,5.3,275.6,9.7,278.9,10"/>
				</defs>
				<clipPath id="SVGID_24_">
					<use xlink:href="#SVGID_23_"  style="overflow:visible;"/>
				</clipPath>
				
					<linearGradient id="SVGID_25_" gradientUnits="userSpaceOnUse" x1="-151.6848" y1="488.7743" x2="-151.1087" y2="488.7743" gradientTransform="matrix(7.7 -4.4456 -4.4456 -7.7 3617.8606 3097.9795)">
					<stop  offset="0" style="stop-color:#24FF87"/>
					<stop  offset="0.1486" style="stop-color:#24F984"/>
					<stop  offset="0.3567" style="stop-color:#23E67D"/>
					<stop  offset="0.5997" style="stop-color:#21C871"/>
					<stop  offset="0.8672" style="stop-color:#1F9F60"/>
					<stop  offset="1" style="stop-color:#1E8857"/>
				</linearGradient>
				<polygon class="st13" points="273.3,6.3 280.5,2.2 284.5,9 277.2,13.1 				"/>
			</g>
			<g>
				<path class="st4" d="M281.4,6.1c0.2,0.3,0.1,0.7-0.1,0.9c-0.3,0.2-0.6,0-0.8-0.3c-0.2-0.3-0.1-0.7,0.1-0.9
					C280.8,5.6,281.2,5.7,281.4,6.1"/>
				<path class="st4" d="M280.1,5.5c0.1,0.2,0.1,0.4-0.1,0.4c-0.1,0.1-0.3,0-0.4-0.2c-0.1-0.2-0.1-0.4,0.1-0.4
					C279.8,5.3,280,5.3,280.1,5.5"/>
				<path class="st5" d="M281.1,5.5c0.5,0.4,0.9,1,1.1,1.7c0.2,0.7,0,1.4-0.4,2c-0.4,0.6-1,1-1.8,1.1c-0.7,0.1-1.5,0-2.1-0.4
					c-0.6-0.4-1-1.1-1.2-1.8c-0.1-0.4-0.1-0.8,0-1.1c0.1-0.4,0.3-0.7,0.5-1c0.2-0.3,0.5-0.5,0.9-0.7c0.3-0.2,0.7-0.3,1-0.3
					C279.9,4.8,280.6,5.1,281.1,5.5 M281,5.5c-0.3-0.2-0.6-0.3-0.9-0.4c-0.3,0-0.6,0-0.9,0.1c-0.6,0.2-1.1,0.6-1.4,1
					c-0.3,0.5-0.5,1-0.4,1.6c0,0.3,0.1,0.6,0.3,0.8c0.1,0.3,0.3,0.5,0.6,0.7c0.5,0.4,1.1,0.5,1.7,0.4c0.6-0.1,1.2-0.4,1.5-0.9
					c0.4-0.5,0.6-1.1,0.5-1.8c0-0.3-0.1-0.6-0.3-0.9C281.5,5.9,281.3,5.7,281,5.5"/>
				<g>
					<path class="st6" d="M277.9,9.8c0,0,1.4-2.2,4-0.9c0,0-0.7,1.1-1.7,1.3C279.3,10.4,278.8,10.2,277.9,9.8"/>
				</g>
			</g>
		</g>
		<g>
			<g>
				<path class="st2" d="M11,16.1c-1.4,0.1-2.6-0.9-2.7-2.3c-0.1-1.4,0.9-2.6,2.3-2.7c1.4-0.1,2.6,0.9,2.7,2.3
					C13.4,14.8,12.4,16,11,16.1"/>
			</g>
			<g>
				<defs>
					<path id="SVGID_26_" d="M10.1,16.1c3.3,0.3,3.2-2.6,3.2-2.6s-0.8,1.2-2.1,0.4c-1.5-0.9-0.9-2.6-0.5-2.7
						C8.1,11.4,6.8,15.8,10.1,16.1"/>
				</defs>
				<clipPath id="SVGID_27_">
					<use xlink:href="#SVGID_26_"  style="overflow:visible;"/>
				</clipPath>
				
					<linearGradient id="SVGID_28_" gradientUnits="userSpaceOnUse" x1="-178.2064" y1="503.2951" x2="-177.6302" y2="503.2951" gradientTransform="matrix(7.7 -4.4456 -4.4456 -7.7 3617.8606 3097.9795)">
					<stop  offset="0" style="stop-color:#24FF87"/>
					<stop  offset="0.1486" style="stop-color:#24F984"/>
					<stop  offset="0.3567" style="stop-color:#23E67D"/>
					<stop  offset="0.5997" style="stop-color:#21C871"/>
					<stop  offset="0.8672" style="stop-color:#1F9F60"/>
					<stop  offset="1" style="stop-color:#1E8857"/>
				</linearGradient>
				<polygon class="st14" points="4.5,12.4 11.8,8.2 15.7,15.1 8.5,19.2 				"/>
			</g>
			<g>
				<path class="st4" d="M12.6,12.2c0.2,0.3,0.1,0.7-0.1,0.9c-0.3,0.2-0.6,0-0.8-0.3c-0.2-0.3-0.1-0.7,0.1-0.9
					C12.1,11.7,12.4,11.8,12.6,12.2"/>
				<path class="st4" d="M11.3,11.6c0.1,0.2,0.1,0.4-0.1,0.4c-0.1,0.1-0.3,0-0.4-0.2c-0.1-0.2-0.1-0.4,0.1-0.4
					C11,11.4,11.2,11.4,11.3,11.6"/>
				<path class="st5" d="M12.3,11.6c0.5,0.4,0.9,1,1.1,1.7c0.2,0.7,0,1.4-0.4,2c-0.4,0.6-1,1-1.8,1.1c-0.7,0.1-1.5,0-2.1-0.4
					c-0.6-0.4-1-1.1-1.2-1.8c-0.1-0.4-0.1-0.8,0-1.1c0.1-0.4,0.3-0.7,0.5-1c0.2-0.3,0.5-0.5,0.9-0.7c0.3-0.2,0.7-0.3,1-0.3
					C11.1,10.9,11.8,11.1,12.3,11.6 M12.3,11.6c-0.3-0.2-0.6-0.3-0.9-0.4c-0.3,0-0.6,0-0.9,0.1c-0.6,0.2-1.1,0.6-1.4,1
					c-0.3,0.5-0.5,1-0.4,1.6c0,0.3,0.1,0.6,0.3,0.8c0.1,0.3,0.3,0.5,0.6,0.7c0.5,0.4,1.1,0.5,1.7,0.4c0.6-0.1,1.2-0.4,1.5-0.9
					c0.4-0.5,0.6-1.1,0.5-1.8c0-0.3-0.1-0.6-0.3-0.9C12.8,12,12.5,11.8,12.3,11.6"/>
				<g>
					<path class="st6" d="M9.1,15.9c0,0,1.4-2.2,4-0.9c0,0-0.7,1.1-1.7,1.3C10.5,16.5,10,16.3,9.1,15.9"/>
				</g>
			</g>
		</g>
		<g>
			<g>
				<path class="st2" d="M78.9,62.7c-1.5,0.1-2.8-1-2.9-2.5c-0.1-1.5,1-2.8,2.5-2.9c1.5-0.1,2.8,1,2.9,2.5
					C81.6,61.3,80.4,62.6,78.9,62.7"/>
			</g>
			<g>
				<defs>
					<path id="SVGID_29_" d="M78,62.6c3.6,0.3,3.5-2.9,3.5-2.9s-0.9,1.3-2.3,0.4c-1.7-0.9-1-2.8-0.6-3C75.7,57.5,74.4,62.3,78,62.6"
						/>
				</defs>
				<clipPath id="SVGID_30_">
					<use xlink:href="#SVGID_29_"  style="overflow:visible;"/>
				</clipPath>
				
					<linearGradient id="SVGID_31_" gradientUnits="userSpaceOnUse" x1="-174.2271" y1="494.9675" x2="-173.5996" y2="494.9675" gradientTransform="matrix(7.7 -4.4456 -4.4456 -7.7 3617.8606 3097.9795)">
					<stop  offset="0" style="stop-color:#24FF87"/>
					<stop  offset="0.1486" style="stop-color:#24F984"/>
					<stop  offset="0.3567" style="stop-color:#23E67D"/>
					<stop  offset="0.5997" style="stop-color:#21C871"/>
					<stop  offset="0.8672" style="stop-color:#1F9F60"/>
					<stop  offset="1" style="stop-color:#1E8857"/>
				</linearGradient>
				<polygon class="st15" points="71.9,58.6 79.8,54.1 84,61.5 76.2,66.1 				"/>
			</g>
			<g>
				<path class="st4" d="M80.7,58.4c0.2,0.4,0.1,0.8-0.1,1c-0.3,0.2-0.7,0-0.9-0.4c-0.2-0.4-0.1-0.8,0.1-1
					C80.1,57.8,80.5,58,80.7,58.4"/>
				<path class="st4" d="M79.3,57.7c0.1,0.2,0.1,0.4-0.1,0.5c-0.1,0.1-0.3,0-0.4-0.2c-0.1-0.2-0.1-0.4,0.1-0.5
					C79,57.5,79.2,57.6,79.3,57.7"/>
				<path class="st5" d="M80.3,57.7c0.6,0.4,1,1.1,1.2,1.8c0.2,0.7,0,1.5-0.4,2.2c-0.4,0.6-1.1,1.1-1.9,1.2c-0.8,0.1-1.6,0-2.3-0.5
					c-0.7-0.4-1.1-1.2-1.3-2c-0.1-0.4-0.1-0.8,0-1.2c0.1-0.4,0.3-0.8,0.5-1.1c0.2-0.3,0.6-0.6,0.9-0.8c0.4-0.2,0.8-0.3,1.1-0.3
					C79,57,79.8,57.3,80.3,57.7 M80.3,57.8c-0.3-0.2-0.6-0.3-1-0.4c-0.3,0-0.7,0-1,0.1c-0.6,0.2-1.2,0.6-1.5,1.1
					c-0.3,0.5-0.5,1.1-0.4,1.7c0,0.3,0.1,0.6,0.3,0.9c0.2,0.3,0.4,0.5,0.6,0.7c0.5,0.4,1.2,0.6,1.8,0.5c0.6-0.1,1.3-0.4,1.7-1
					c0.4-0.5,0.6-1.2,0.6-1.9c0-0.3-0.1-0.7-0.3-1C80.8,58.2,80.6,58,80.3,57.8"/>
				<g>
					<path class="st6" d="M76.9,62.4c0,0,1.6-2.4,4.4-1c0,0-0.8,1.2-1.8,1.4C78.4,63.1,77.8,62.9,76.9,62.4"/>
				</g>
			</g>
		</g>
		<g>
			<g>
				<path class="st2" d="M10.9,83.9c-0.8,0.1-1.5-0.5-1.6-1.4c-0.1-0.8,0.5-1.5,1.4-1.6c0.8-0.1,1.5,0.5,1.6,1.4
					C12.3,83.2,11.7,83.9,10.9,83.9"/>
			</g>
			<g>
				<defs>
					<path id="SVGID_32_" d="M10.4,83.9c1.9,0.2,1.9-1.5,1.9-1.5S11.8,83,11,82.6c-0.9-0.5-0.5-1.5-0.3-1.6
						C9.2,81.2,8.4,83.7,10.4,83.9"/>
				</defs>
				<clipPath id="SVGID_33_">
					<use xlink:href="#SVGID_32_"  style="overflow:visible;"/>
				</clipPath>
				
					<linearGradient id="SVGID_34_" gradientUnits="userSpaceOnUse" x1="-181.948" y1="496.5821" x2="-181.6133" y2="496.5821" gradientTransform="matrix(7.7 -4.4456 -4.4456 -7.7 3617.8606 3097.9795)">
					<stop  offset="0" style="stop-color:#24FF87"/>
					<stop  offset="0.1486" style="stop-color:#24F984"/>
					<stop  offset="0.3567" style="stop-color:#23E67D"/>
					<stop  offset="0.5997" style="stop-color:#21C871"/>
					<stop  offset="0.8672" style="stop-color:#1F9F60"/>
					<stop  offset="1" style="stop-color:#1E8857"/>
				</linearGradient>
				<polygon class="st16" points="7.1,81.8 11.3,79.3 13.6,83.3 9.4,85.7 				"/>
			</g>
			<g>
				<path class="st4" d="M11.8,81.6c0.1,0.2,0.1,0.4-0.1,0.5c-0.2,0.1-0.4,0-0.5-0.2c-0.1-0.2-0.1-0.4,0.1-0.5
					C11.5,81.3,11.7,81.4,11.8,81.6"/>
				<path class="st4" d="M11.1,81.3c0.1,0.1,0,0.2,0,0.3c-0.1,0-0.2,0-0.2-0.1c-0.1-0.1,0-0.2,0-0.3C10.9,81.1,11,81.2,11.1,81.3"/>
				<path class="st5" d="M11.6,81.3c0.3,0.2,0.5,0.6,0.6,1c0.1,0.4,0,0.8-0.2,1.2c-0.2,0.3-0.6,0.6-1,0.7c-0.4,0.1-0.9,0-1.2-0.3
					c-0.4-0.2-0.6-0.6-0.7-1.1c0-0.2,0-0.4,0-0.7c0.1-0.2,0.1-0.4,0.3-0.6c0.1-0.2,0.3-0.3,0.5-0.4c0.2-0.1,0.4-0.2,0.6-0.2
					C10.9,80.9,11.3,81,11.6,81.3 M11.6,81.3c-0.2-0.1-0.3-0.2-0.5-0.2c-0.2,0-0.4,0-0.5,0c-0.3,0.1-0.6,0.3-0.8,0.6
					c-0.2,0.3-0.3,0.6-0.2,0.9c0,0.2,0.1,0.3,0.2,0.5c0.1,0.1,0.2,0.3,0.3,0.4c0.3,0.2,0.6,0.3,1,0.3c0.3,0,0.7-0.2,0.9-0.5
					c0.2-0.3,0.3-0.6,0.3-1c0-0.2-0.1-0.4-0.2-0.5C11.9,81.5,11.8,81.4,11.6,81.3"/>
				<g>
					<path class="st6" d="M9.8,83.8c0,0,0.8-1.3,2.3-0.5c0,0-0.4,0.7-1,0.8C10.6,84.1,10.3,84,9.8,83.8"/>
				</g>
			</g>
		</g>
		<g>
			<g>
				<path class="st2" d="M292,80.2c-0.8,0.1-1.5-0.5-1.6-1.4c-0.1-0.8,0.5-1.5,1.4-1.6c0.8-0.1,1.5,0.5,1.6,1.4
					C293.4,79.5,292.8,80.2,292,80.2"/>
			</g>
			<g>
				<defs>
					<path id="SVGID_35_" d="M291.5,80.2c1.9,0.2,1.9-1.5,1.9-1.5s-0.5,0.7-1.2,0.2c-0.9-0.5-0.5-1.5-0.3-1.6
						C290.3,77.5,289.6,80,291.5,80.2"/>
				</defs>
				<clipPath id="SVGID_36_">
					<use xlink:href="#SVGID_35_"  style="overflow:visible;"/>
				</clipPath>
				
					<linearGradient id="SVGID_37_" gradientUnits="userSpaceOnUse" x1="-154.3584" y1="481.1301" x2="-154.0237" y2="481.1301" gradientTransform="matrix(7.7 -4.4456 -4.4456 -7.7 3617.8606 3097.9795)">
					<stop  offset="0" style="stop-color:#24FF87"/>
					<stop  offset="0.1486" style="stop-color:#24F984"/>
					<stop  offset="0.3567" style="stop-color:#23E67D"/>
					<stop  offset="0.5997" style="stop-color:#21C871"/>
					<stop  offset="0.8672" style="stop-color:#1F9F60"/>
					<stop  offset="1" style="stop-color:#1E8857"/>
				</linearGradient>
				<polygon class="st17" points="288.2,78.1 292.5,75.7 294.7,79.6 290.5,82 				"/>
			</g>
			<g>
				<path class="st4" d="M293,77.9c0.1,0.2,0.1,0.4-0.1,0.5c-0.2,0.1-0.4,0-0.5-0.2c-0.1-0.2-0.1-0.4,0.1-0.5
					C292.6,77.7,292.8,77.7,293,77.9"/>
				<path class="st4" d="M292.2,77.6c0.1,0.1,0,0.2,0,0.3c-0.1,0-0.2,0-0.2-0.1c-0.1-0.1,0-0.2,0-0.3
					C292,77.5,292.1,77.5,292.2,77.6"/>
				<path class="st5" d="M292.8,77.6c0.3,0.2,0.5,0.6,0.6,1c0.1,0.4,0,0.8-0.2,1.2c-0.2,0.3-0.6,0.6-1,0.7c-0.4,0.1-0.9,0-1.2-0.3
					c-0.4-0.2-0.6-0.6-0.7-1.1c0-0.2,0-0.4,0-0.7c0.1-0.2,0.1-0.4,0.3-0.6c0.1-0.2,0.3-0.3,0.5-0.4c0.2-0.1,0.4-0.2,0.6-0.2
					C292.1,77.2,292.5,77.3,292.8,77.6 M292.7,77.6c-0.2-0.1-0.3-0.2-0.5-0.2c-0.2,0-0.4,0-0.5,0c-0.3,0.1-0.6,0.3-0.8,0.6
					c-0.2,0.3-0.3,0.6-0.2,0.9c0,0.2,0.1,0.3,0.2,0.5c0.1,0.1,0.2,0.3,0.3,0.4c0.3,0.2,0.6,0.3,1,0.3c0.3,0,0.7-0.2,0.9-0.5
					c0.2-0.3,0.3-0.6,0.3-1c0-0.2-0.1-0.4-0.2-0.5C293,77.9,292.9,77.7,292.7,77.6"/>
				<g>
					<path class="st6" d="M290.9,80.1c0,0,0.8-1.3,2.3-0.5c0,0-0.4,0.7-1,0.8C291.7,80.4,291.4,80.4,290.9,80.1"/>
				</g>
			</g>
		</g>
		<g>
			<g>
				<path class="st2" d="M222.4,7.4c-0.8,0.1-1.5-0.5-1.6-1.4c-0.1-0.8,0.5-1.5,1.4-1.6c0.8-0.1,1.5,0.5,1.6,1.4
					C223.8,6.7,223.2,7.4,222.4,7.4"/>
			</g>
			<g>
				<defs>
					<path id="SVGID_38_" d="M221.9,7.4c1.9,0.2,1.9-1.5,1.9-1.5s-0.5,0.7-1.2,0.2c-0.9-0.5-0.5-1.5-0.3-1.6
						C220.7,4.7,220,7.2,221.9,7.4"/>
				</defs>
				<clipPath id="SVGID_39_">
					<use xlink:href="#SVGID_38_"  style="overflow:visible;"/>
				</clipPath>
				
					<linearGradient id="SVGID_40_" gradientUnits="userSpaceOnUse" x1="-157.0428" y1="492.1369" x2="-156.7081" y2="492.1369" gradientTransform="matrix(7.7 -4.4456 -4.4456 -7.7 3617.8606 3097.9795)">
					<stop  offset="0" style="stop-color:#24FF87"/>
					<stop  offset="0.1486" style="stop-color:#24F984"/>
					<stop  offset="0.3567" style="stop-color:#23E67D"/>
					<stop  offset="0.5997" style="stop-color:#21C871"/>
					<stop  offset="0.8672" style="stop-color:#1F9F60"/>
					<stop  offset="1" style="stop-color:#1E8857"/>
				</linearGradient>
				<polygon class="st18" points="218.6,5.3 222.9,2.8 225.1,6.8 220.9,9.2 				"/>
			</g>
			<g>
				<path class="st4" d="M223.4,5.1c0.1,0.2,0.1,0.4-0.1,0.5c-0.2,0.1-0.4,0-0.5-0.2c-0.1-0.2-0.1-0.4,0.1-0.5
					C223,4.8,223.2,4.9,223.4,5.1"/>
				<path class="st4" d="M222.6,4.8c0.1,0.1,0,0.2,0,0.3c-0.1,0-0.2,0-0.2-0.1c-0.1-0.1,0-0.2,0-0.3C222.4,4.7,222.5,4.7,222.6,4.8"
					/>
				<path class="st5" d="M223.2,4.8c0.3,0.2,0.5,0.6,0.6,1c0.1,0.4,0,0.8-0.2,1.2c-0.2,0.3-0.6,0.6-1,0.7c-0.4,0.1-0.9,0-1.2-0.3
					c-0.4-0.2-0.6-0.6-0.7-1.1c0-0.2,0-0.4,0-0.7c0.1-0.2,0.1-0.4,0.3-0.6c0.1-0.2,0.3-0.3,0.5-0.4c0.2-0.1,0.4-0.2,0.6-0.2
					C222.5,4.4,222.9,4.5,223.2,4.8 M223.1,4.8c-0.2-0.1-0.3-0.2-0.5-0.2c-0.2,0-0.4,0-0.5,0c-0.3,0.1-0.6,0.3-0.8,0.6
					c-0.2,0.3-0.3,0.6-0.2,0.9c0,0.2,0.1,0.3,0.2,0.5c0.1,0.1,0.2,0.3,0.3,0.4c0.3,0.2,0.6,0.3,1,0.3c0.3,0,0.7-0.2,0.9-0.5
					c0.2-0.3,0.3-0.6,0.3-1c0-0.2-0.1-0.4-0.2-0.5C223.4,5,223.3,4.9,223.1,4.8"/>
				<g>
					<path class="st6" d="M221.3,7.3c0,0,0.8-1.3,2.3-0.5c0,0-0.4,0.7-1,0.8C222.1,7.6,221.8,7.5,221.3,7.3"/>
				</g>
			</g>
		</g>
		<g>
			<g>
				<path class="st2" d="M288.2,34.5c-0.8,0.1-1.5-0.5-1.6-1.4c-0.1-0.8,0.5-1.5,1.4-1.6c0.8-0.1,1.5,0.5,1.6,1.4
					C289.6,33.7,289,34.4,288.2,34.5"/>
			</g>
			<g>
				<defs>
					<path id="SVGID_41_" d="M287.7,34.4c1.9,0.2,1.9-1.5,1.9-1.5s-0.5,0.7-1.2,0.2c-0.9-0.5-0.5-1.5-0.3-1.6
						C286.4,31.7,285.7,34.3,287.7,34.4"/>
				</defs>
				<clipPath id="SVGID_42_">
					<use xlink:href="#SVGID_41_"  style="overflow:visible;"/>
				</clipPath>
				
					<linearGradient id="SVGID_43_" gradientUnits="userSpaceOnUse" x1="-152.158" y1="485.8052" x2="-151.8233" y2="485.8052" gradientTransform="matrix(7.7 -4.4456 -4.4456 -7.7 3617.8606 3097.9795)">
					<stop  offset="0" style="stop-color:#24FF87"/>
					<stop  offset="0.1486" style="stop-color:#24F984"/>
					<stop  offset="0.3567" style="stop-color:#23E67D"/>
					<stop  offset="0.5997" style="stop-color:#21C871"/>
					<stop  offset="0.8672" style="stop-color:#1F9F60"/>
					<stop  offset="1" style="stop-color:#1E8857"/>
				</linearGradient>
				<polygon class="st19" points="284.4,32.3 288.6,29.9 290.9,33.8 286.7,36.3 				"/>
			</g>
			<g>
				<path class="st4" d="M289.1,32.2c0.1,0.2,0.1,0.4-0.1,0.5c-0.2,0.1-0.4,0-0.5-0.2c-0.1-0.2-0.1-0.4,0.1-0.5
					C288.8,31.9,289,32,289.1,32.2"/>
				<path class="st4" d="M288.3,31.8c0.1,0.1,0,0.2,0,0.3c-0.1,0-0.2,0-0.2-0.1c-0.1-0.1,0-0.2,0-0.3
					C288.2,31.7,288.3,31.7,288.3,31.8"/>
				<path class="st5" d="M288.9,31.8c0.3,0.2,0.5,0.6,0.6,1c0.1,0.4,0,0.8-0.2,1.2c-0.2,0.3-0.6,0.6-1,0.7c-0.4,0.1-0.9,0-1.2-0.3
					c-0.4-0.2-0.6-0.6-0.7-1.1c0-0.2,0-0.4,0-0.7c0.1-0.2,0.1-0.4,0.3-0.6c0.1-0.2,0.3-0.3,0.5-0.4c0.2-0.1,0.4-0.2,0.6-0.2
					C288.2,31.4,288.6,31.6,288.9,31.8 M288.9,31.8c-0.2-0.1-0.3-0.2-0.5-0.2c-0.2,0-0.4,0-0.5,0c-0.3,0.1-0.6,0.3-0.8,0.6
					c-0.2,0.3-0.3,0.6-0.2,0.9c0,0.2,0.1,0.3,0.2,0.5c0.1,0.1,0.2,0.3,0.3,0.4c0.3,0.2,0.6,0.3,1,0.3c0.3,0,0.7-0.2,0.9-0.5
					c0.2-0.3,0.3-0.6,0.3-1c0-0.2-0.1-0.4-0.2-0.5C289.2,32.1,289.1,31.9,288.9,31.8"/>
				<g>
					<path class="st6" d="M287.1,34.3c0,0,0.8-1.3,2.3-0.5c0,0-0.4,0.7-1,0.8C287.9,34.7,287.6,34.6,287.1,34.3"/>
				</g>
			</g>
		</g>
		<g>
			<g>
				<path class="st2" d="M182.4,33.4c-2.9,0.2-5.5-2-5.7-4.9c-0.2-2.9,2-5.5,4.9-5.7c2.9-0.2,5.5,2,5.7,4.9
					C187.6,30.6,185.4,33.1,182.4,33.4"/>
			</g>
			<g>
				<defs>
					<path id="SVGID_44_" d="M180.6,33.2c7,0.6,6.8-5.6,6.8-5.6s-1.7,2.4-4.6,0.8c-3.2-1.8-1.9-5.4-1.2-5.8
						C176.2,23.3,173.5,32.6,180.6,33.2"/>
				</defs>
				<clipPath id="SVGID_45_">
					<use xlink:href="#SVGID_44_"  style="overflow:visible;"/>
				</clipPath>
				
					<linearGradient id="SVGID_46_" gradientUnits="userSpaceOnUse" x1="-162.7008" y1="492.2947" x2="-161.4778" y2="492.2947" gradientTransform="matrix(7.7 -4.4456 -4.4456 -7.7 3617.8606 3097.9795)">
					<stop  offset="0" style="stop-color:#24FF87"/>
					<stop  offset="0.1486" style="stop-color:#24F984"/>
					<stop  offset="0.3567" style="stop-color:#23E67D"/>
					<stop  offset="0.5997" style="stop-color:#21C871"/>
					<stop  offset="0.8672" style="stop-color:#1F9F60"/>
					<stop  offset="1" style="stop-color:#1E8857"/>
				</linearGradient>
				<polygon class="st20" points="168.7,25.5 184.1,16.6 192.4,31.1 177,39.9 				"/>
			</g>
			<g>
				<path class="st4" d="M185.9,24.9c0.4,0.7,0.3,1.5-0.3,1.9c-0.6,0.3-1.3,0-1.8-0.7c-0.4-0.7-0.3-1.5,0.3-1.9
					C184.7,23.9,185.5,24.2,185.9,24.9"/>
				<path class="st4" d="M183.1,23.7c0.2,0.4,0.1,0.8-0.1,0.9c-0.3,0.2-0.7,0-0.9-0.3c-0.2-0.4-0.1-0.8,0.1-0.9
					C182.5,23.2,182.9,23.4,183.1,23.7"/>
				<path class="st5" d="M185.2,23.6c1.1,0.9,1.9,2.1,2.3,3.5c0.3,1.4,0.1,3-0.8,4.2c-0.8,1.2-2.2,2.1-3.7,2.4
					c-1.5,0.3-3.1-0.1-4.4-0.9c-1.3-0.9-2.2-2.3-2.5-3.9c-0.1-0.8-0.1-1.6,0.1-2.4c0.2-0.8,0.5-1.5,1-2.2c0.5-0.6,1.1-1.2,1.8-1.5
					c0.7-0.4,1.5-0.6,2.2-0.6C182.6,22.3,184.1,22.8,185.2,23.6 M185.1,23.8c-0.6-0.4-1.2-0.6-1.9-0.7c-0.7-0.1-1.3,0-2,0.1
					c-1.3,0.4-2.3,1.2-2.9,2.2c-0.7,1-1,2.2-0.8,3.4c0.1,0.6,0.3,1.2,0.6,1.7c0.3,0.5,0.7,1,1.2,1.4c1,0.8,2.3,1.1,3.5,1
					c1.3-0.2,2.5-0.8,3.3-1.9c0.8-1,1.2-2.4,1.1-3.7c-0.1-0.7-0.3-1.3-0.6-1.9C186.2,24.7,185.7,24.2,185.1,23.8"/>
				<g>
					<path class="st6" d="M178.4,32.8c0,0,3.1-4.7,8.5-1.9c0,0-1.5,2.4-3.5,2.8C181.4,34.1,180.3,33.8,178.4,32.8"/>
				</g>
			</g>
		</g>
		<g>
			<g>
				<path class="st2" d="M135.2,67.5c-3.4,0.2-6.4-2.3-6.7-5.8c-0.2-3.4,2.3-6.4,5.8-6.7c3.4-0.2,6.4,2.3,6.7,5.8
					C141.2,64.3,138.6,67.3,135.2,67.5"/>
			</g>
			<g>
				<defs>
					<path id="SVGID_47_" d="M133,67.4c8.2,0.7,7.9-6.5,7.9-6.5s-1.9,2.9-5.3,1c-3.8-2.1-2.3-6.4-1.3-6.7
						C127.9,55.8,124.8,66.7,133,67.4"/>
				</defs>
				<clipPath id="SVGID_48_">
					<use xlink:href="#SVGID_47_"  style="overflow:visible;"/>
				</clipPath>
				
					<linearGradient id="SVGID_49_" gradientUnits="userSpaceOnUse" x1="-169.2944" y1="491.7258" x2="-167.8668" y2="491.7258" gradientTransform="matrix(7.7 -4.4456 -4.4456 -7.7 3617.8606 3097.9795)">
					<stop  offset="0" style="stop-color:#24FF87"/>
					<stop  offset="0.1486" style="stop-color:#24F984"/>
					<stop  offset="0.3567" style="stop-color:#23E67D"/>
					<stop  offset="0.5997" style="stop-color:#21C871"/>
					<stop  offset="0.8672" style="stop-color:#1F9F60"/>
					<stop  offset="1" style="stop-color:#1E8857"/>
				</linearGradient>
				<polygon class="st21" points="119.2,58.3 137.1,48 146.8,64.8 128.9,75.2 				"/>
			</g>
			<g>
				<path class="st4" d="M139.2,57.7c0.5,0.8,0.3,1.8-0.3,2.2c-0.7,0.4-1.6,0-2-0.8c-0.5-0.8-0.3-1.8,0.3-2.2
					C137.8,56.5,138.8,56.8,139.2,57.7"/>
				<path class="st4" d="M136,56.3c0.2,0.4,0.2,0.9-0.2,1.1c-0.3,0.2-0.8,0-1-0.4c-0.2-0.4-0.2-0.9,0.2-1.1
					C135.3,55.7,135.7,55.9,136,56.3"/>
				<path class="st5" d="M138.4,56.2c1.3,1,2.3,2.5,2.6,4.1c0.4,1.6,0.1,3.5-0.9,4.9c-1,1.4-2.6,2.5-4.3,2.8
					c-1.8,0.3-3.7-0.1-5.2-1.1c-1.5-1-2.6-2.7-3-4.5c-0.2-0.9-0.2-1.9,0.1-2.8c0.2-0.9,0.6-1.8,1.2-2.5c0.6-0.7,1.3-1.3,2.1-1.8
					c0.8-0.4,1.7-0.6,2.6-0.7C135.4,54.6,137.1,55.2,138.4,56.2 M138.3,56.3c-0.7-0.5-1.4-0.8-2.2-0.9c-0.8-0.1-1.6,0-2.3,0.2
					c-1.5,0.4-2.6,1.4-3.4,2.6c-0.8,1.2-1.1,2.6-1,4c0.1,0.7,0.3,1.4,0.6,2c0.4,0.6,0.8,1.2,1.4,1.6c1.1,0.9,2.7,1.3,4.1,1.1
					c1.5-0.2,2.9-1,3.8-2.2c0.9-1.2,1.4-2.8,1.3-4.4c-0.1-0.8-0.3-1.6-0.7-2.3C139.5,57.4,139,56.8,138.3,56.3"/>
				<g>
					<path class="st6" d="M130.5,66.8c0,0,3.6-5.5,9.9-2.2c0,0-1.7,2.8-4.1,3.3C133.9,68.4,132.7,68,130.5,66.8"/>
				</g>
			</g>
		</g>
		<g>
			<g>
				<path class="st2" d="M229.3,91.6c-3.4,0.2-6.4-2.3-6.7-5.8c-0.2-3.4,2.3-6.4,5.8-6.7c3.4-0.2,6.4,2.3,6.7,5.8
					C235.4,88.4,232.8,91.4,229.3,91.6"/>
			</g>
			<g>
				<defs>
					<path id="SVGID_50_" d="M227.2,91.5c8.2,0.7,7.9-6.5,7.9-6.5s-1.9,2.9-5.3,1c-3.8-2.1-2.3-6.4-1.3-6.7
						C222,79.9,219,90.8,227.2,91.5"/>
				</defs>
				<clipPath id="SVGID_51_">
					<use xlink:href="#SVGID_50_"  style="overflow:visible;"/>
				</clipPath>
				
					<linearGradient id="SVGID_52_" gradientUnits="userSpaceOnUse" x1="-161.4779" y1="484.0792" x2="-160.0503" y2="484.0792" gradientTransform="matrix(7.7 -4.4456 -4.4456 -7.7 3617.8606 3097.9795)">
					<stop  offset="0" style="stop-color:#24FF87"/>
					<stop  offset="0.1486" style="stop-color:#24F984"/>
					<stop  offset="0.3567" style="stop-color:#23E67D"/>
					<stop  offset="0.5997" style="stop-color:#21C871"/>
					<stop  offset="0.8672" style="stop-color:#1F9F60"/>
					<stop  offset="1" style="stop-color:#1E8857"/>
				</linearGradient>
				<polygon class="st22" points="213.3,82.5 231.3,72.1 241,89 223.1,99.3 				"/>
			</g>
			<g>
				<path class="st4" d="M233.4,81.8c0.5,0.8,0.3,1.8-0.3,2.2c-0.7,0.4-1.6,0-2-0.8c-0.5-0.8-0.3-1.8,0.3-2.2
					C232,80.6,232.9,81,233.4,81.8"/>
				<path class="st4" d="M230.1,80.4c0.2,0.4,0.2,0.9-0.2,1.1c-0.3,0.2-0.8,0-1-0.4c-0.2-0.4-0.2-0.9,0.2-1.1
					C229.4,79.8,229.9,80,230.1,80.4"/>
				<path class="st5" d="M232.6,80.3c1.3,1,2.3,2.5,2.6,4.1c0.4,1.6,0.1,3.5-0.9,4.9c-1,1.4-2.6,2.5-4.3,2.8
					c-1.8,0.3-3.7-0.1-5.2-1.1c-1.5-1-2.6-2.7-3-4.5c-0.2-0.9-0.2-1.9,0.1-2.8c0.2-0.9,0.6-1.8,1.2-2.5c0.6-0.7,1.3-1.3,2.1-1.8
					c0.8-0.4,1.7-0.6,2.6-0.7C229.6,78.7,231.3,79.3,232.6,80.3 M232.5,80.4c-0.7-0.5-1.4-0.8-2.2-0.9c-0.8-0.1-1.6,0-2.3,0.2
					c-1.5,0.4-2.6,1.4-3.4,2.6c-0.8,1.2-1.1,2.6-1,4c0.1,0.7,0.3,1.4,0.6,2c0.4,0.6,0.8,1.2,1.4,1.6c1.1,0.9,2.7,1.3,4.1,1.1
					c1.5-0.2,2.9-1,3.8-2.2c0.9-1.2,1.4-2.8,1.3-4.4c-0.1-0.8-0.3-1.6-0.7-2.3C233.7,81.5,233.2,80.9,232.5,80.4"/>
				<g>
					<path class="st6" d="M224.7,91c0,0,3.6-5.5,9.9-2.2c0,0-1.7,2.8-4.1,3.3C228.1,92.5,226.9,92.2,224.7,91"/>
				</g>
			</g>
		</g>
	</g>
</g>
</svg>
