<?xml version="1.0" encoding="utf-8"?>
<!-- Generator: Adobe Illustrator 23.1.1, SVG Export Plug-In . SVG Version: 6.00 Build 0)  -->
<svg version="1.1" id="Capa_1" xmlns="http://www.w3.org/2000/svg" xmlns:xlink="http://www.w3.org/1999/xlink" x="0px" y="0px"
	 viewBox="0 0 300 100" style="enable-background:new 0 0 300 100;" xml:space="preserve">
<style type="text/css">
	.st0{fill:#E8FC97;}
	.st1{fill:#22C590;}
	.st2{fill:#D887F9;}
	.st3{clip-path:url(#SVGID_2_);fill:url(#SVGID_3_);}
	.st4{opacity:0.72;}
	.st5{clip-path:url(#SVGID_5_);fill:#FFFFFF;}
	.st6{clip-path:url(#SVGID_7_);fill:#FFFFFF;}
	.st7{fill:#9312B2;}
	.st8{opacity:0.43;}
	.st9{clip-path:url(#SVGID_9_);fill:#9C4FAF;}
	.st10{clip-path:url(#SVGID_11_);fill:url(#SVGID_12_);}
	.st11{clip-path:url(#SVGID_14_);fill:#FFFFFF;}
	.st12{clip-path:url(#SVGID_16_);fill:#FFFFFF;}
	.st13{clip-path:url(#SVGID_18_);fill:#9C4FAF;}
	.st14{clip-path:url(#SVGID_20_);fill:url(#SVGID_21_);}
	.st15{clip-path:url(#SVGID_23_);fill:#FFFFFF;}
	.st16{fill:#FFFFFF;}
	.st17{fill:none;}
	.st18{fill:#9C4FAF;}
	.st19{clip-path:url(#SVGID_25_);fill:url(#SVGID_26_);}
	.st20{clip-path:url(#SVGID_28_);fill:#FFFFFF;}
	.st21{clip-path:url(#SVGID_30_);fill:#FFFFFF;}
	.st22{clip-path:url(#SVGID_32_);fill:#9C4FAF;}
	.st23{clip-path:url(#SVGID_34_);fill:url(#SVGID_35_);}
	.st24{clip-path:url(#SVGID_37_);fill:#FFFFFF;}
	.st25{clip-path:url(#SVGID_39_);fill:#FFFFFF;}
	.st26{clip-path:url(#SVGID_41_);fill:#9C4FAF;}
	.st27{clip-path:url(#SVGID_43_);fill:url(#SVGID_44_);}
	.st28{clip-path:url(#SVGID_46_);fill:#FFFFFF;}
	.st29{clip-path:url(#SVGID_48_);fill:#FFFFFF;}
	.st30{clip-path:url(#SVGID_50_);fill:#9C4FAF;}
	.st31{clip-path:url(#SVGID_52_);fill:url(#SVGID_53_);}
	.st32{clip-path:url(#SVGID_55_);fill:#FFFFFF;}
	.st33{clip-path:url(#SVGID_57_);fill:#FFFFFF;}
	.st34{clip-path:url(#SVGID_59_);fill:#9C4FAF;}
	.st35{clip-path:url(#SVGID_61_);fill:url(#SVGID_62_);}
	.st36{clip-path:url(#SVGID_64_);fill:#FFFFFF;}
	.st37{clip-path:url(#SVGID_66_);fill:#FFFFFF;}
	.st38{clip-path:url(#SVGID_68_);fill:#9C4FAF;}
	.st39{clip-path:url(#SVGID_70_);fill:url(#SVGID_71_);}
	.st40{clip-path:url(#SVGID_73_);fill:#FFFFFF;}
	.st41{clip-path:url(#SVGID_75_);fill:#FFFFFF;}
	.st42{clip-path:url(#SVGID_77_);fill:#9C4FAF;}
</style>
<path class="st0" d="M39.5,59c-1.9,1.2-4.2,2.2-4.2,2.2c0.9,1.4-0.2,4.8-0.2,4.8c-2.6,5.1-8.9,5.9-10.2,3.6
	c-1.3-2.3-5.6-4.8-5.6-4.8S11,62.5,9,60.6c-2-1.9-1.9-9.7-1.9-9.7l3.7-7.4l0-3.3c-2.2-2.2-2.5-7.3-4.4-10.7c1.3,0.4,2.5,0.6,3.3,0.2
	c1.6-0.9,16.1-3,16.1-3c0.1-3.1,5-11.2,5-11.2c-0.2-0.7-0.4,0.5-0.2-0.9c-0.2,0.1-0.4,0.1-0.7,0.1c0.1-0.1,0.2-0.2,0.2-0.2l-5.2,0.1
	c0,0.2,0,0.3,0,0.5c1.4-0.2,2.9-0.4,3.3,0c-0.1,0-0.2,0-0.3,0.1l-1.2,2.5c0,0,2.1-0.7-0.2,3.2c-2.3,3.8-12,6.8-13,6.8
	c-1,0-3.7,0-6.8-0.5c-3.1-0.5-2.6-3.7-2.6-3.7c2.4-4.9,4-6.5,3.2-6.8c-1.8,3.1-5.5,7.6-5.5,7.6c1.2,1.7,1,3.9,1,3.9
	c2.7,2.8,5.2,10.2,5.4,10.8c0.2,0.5,0.8,3.7,0.8,3.7l-4.2,8.9l1.3,3C6.9,56.7,5.6,62,5.6,62s11.8,3.1,14.8,4.3
	c3,1.1,3.4,6.3,3.4,6.3c1.8,0.1,5.6,1,5.6,1c2.1-3.5,5.7-2.7,6.3-4c0.7-1.3,3.6-5.7,3.6-5.7l1.2-0.9C40.1,61.7,39.7,60.4,39.5,59z"
	/>
<path class="st0" d="M289.5,1.5l-2.2,0.2l-0.1,0.8c0.7-0.2,1.5-0.4,1.6-0.4c0.2-0.1,2.5,1.1,2.5,1.1l0,0c0.1,0.1,0.2,0.3,0.3,0.4
	c-0.6-1.2-1.1-2.1-1.1-2.1L289.5,1.5z"/>
<path class="st0" d="M297.3,14.3c0,0-0.5-2.1,0.6-3.9c0,0-4-4.1-6.1-7c-0.8,0.4,0.9,1.8,3.7,6.5c0,0,0.4,1.8-0.7,3
	c0,0.2,0,0.5,0,0.8c-0.3,1.6-1,2.9-1.9,4.3c-0.9,3.2-1.1,7-2.8,9l0.3,3.2l4.3,7c0,0,0.7,7.7-1.1,9.7c-1.8,2-9.9,5-9.9,5
	s-4,2.8-5.1,5.2c-1.1,2.3-7.3,2.1-10.3-2.7c0,0-1.4-3.3-0.6-4.7c0,0-5.3-1.9-6.9-3.6c0,0-5.3,2-6.8,1.2c0,0-1.6,7.3-5.5,8.7
	c-3.9,1.4-5.4,3.4-7.9,1.6c-1.4-1-5.2-2-6.4-3.2c-0.3,0.6,3,3.6,3,3.6l3,3c1.5-0.6,7.9-2.7,9.8-2.4l3-5.1l6.6-3.5l4.4,2.6
	c0,0,3.3,4.1,4,5.3c0.7,1.2,4.1,0.2,6.5,3.4c0,0,3.7-1.2,5.5-1.5c0,0-0.1-5.1,2.8-6.5c2.9-1.4,14.2-5.4,14.2-5.4s-1.8-5-0.9-7.4
	l1.1-3l-4.9-8.4c0,0,0.4-3.2,0.5-3.7C293.1,24.8,294.9,17.2,297.3,14.3z"/>
<g>
	<g>
		<g>
			<path class="st1" d="M164.1,9.5c1.2-0.1,2.5,0.3,4.1,1.2l-0.1,0.2l0,0.1c0.4,0,0.6,0.1,0.6,0.3c-0.1,0.1-0.1,0.2-0.1,0.3
				c0.1,0,0.3,0.1,0.5,0.3l-0.3,0.4l0.3,0.1c-0.1,1.8-1.7,4.6-4.8,8.5c-0.2,0-0.6,0.2-1,0.5l-0.3,0c-0.2,0-0.3-0.1-0.3-0.3l-0.1,0
				l-0.6,0.5c0-0.2-0.4-0.4-1.2-0.5l-0.2-0.2l-0.3,0.1l-1.2,0.1c0-0.1-0.4-0.3-1.1-0.4l-1-1.5c0.2,0,0.3-0.4,0.4-1.1
				c0.2,0,0.6-0.4,1.1-1.3l-0.1,0c-1.7,0.9-3.2,1.8-4.5,2.8c-0.5,0-2.7,2-6.6,6c-3.1,4.7-4.8,8.4-5.1,11.3l0,0.3
				c0.2,0,0.3,0.1,0.3,0.2c-0.2,0-0.3,0.1-0.3,0.2c0.3,0,0.6,0.5,1,1.6c0,0.1,0.1,0.1,0.3,0.1c0.4,0,2.2-0.7,5.2-2.2
				c2.3-0.7,4.7-1.6,7-2.7l0.1,0l-0.4,0.4l0.1,0l0.4-0.2l0.2,0c0,0.2-0.2,0.7-0.7,1.2l0.6-0.3l0,0.1l-0.4,0.6l0.2,0l0.6-0.4l0.2,0
				c-0.8,2.4-4.3,5-10.4,7.9c-1.2,0.5-2.7,0.8-4.6,1c-3.1,0.2-5.3-1.2-6.7-4.1c-0.2-0.6-0.4-1.3-0.5-2.3l-0.1-0.8
				c-0.4-5.4,3.7-12,12.3-19.9c4.5-3.4,8.9-5.8,13.1-7.2C161.7,9.8,163.1,9.5,164.1,9.5z"/>
			<path class="st0" d="M139.6,38.6c-1.8-1-8.1-4.8-9.3-6.9l-7.4,1l-8.6-3.7l-0.9-6.4c0,0,1.4-6.5,2-8.2c0.6-1.7-3.1-4.2-1.8-9.1
				c0,0-4.2-2.7-5.8-4.2L96.9,9.6c-3.6-1.8-14.1-7.8-14.1-7.8s-3.5,5.7-6.6,6.7l-3.9,1.4l-4.8,3.3c0,0-3.4,2.2-4.1,2.4
				c-0.6,0.3-3.2,3.4-7.3-1.2c0,0-9.4,10.3-12.9,11.3c0,0-5.6,13.9-8.5,15.6c0,0,5.6,15.1,5.6,17.2c0,2,4.3,4.9,5.3,6.1
				c0,0,2-1.5,4.3-1.2c0,0,5.2-8.7,6.6-10.6c0,0-5.4,6.1-7.2,8c0,0-2.8,2.2-5-0.6c-2.1-2.8-3.5-5.3-4.1-6.3c-0.6-1-2.9-12-0.4-16.2
				c2.5-4.2,3.3-6.7,3.3-6.7L54.6,19c0,0,9.6-0.6,11-0.4l4.5-4.3l3.9-1.6c0,0,7.1-6.8,10.5-6.6C88,6.3,97.4,12,97.4,12
				s5.6-6.5,8.8-7.3c3.2-0.8,7.9,5.6,5.5,12.3c0,0-2.2,3.9-4.2,4.3c0,0,2.3,6.7,1.9,9.6c0,0,6.1,3.6,6.6,5.8c0,0,8.4-4.2,12.9-1.5
				c4.5,2.7,7.6,2.6,7.8,6.5c0.2,3.9-0.7,9.9-0.7,9.9s2.8,0.8,5.1,2.5c0,0,4.5-1.6,7.4,0.7l6.8,7.5l0.8-1.1c0,0-6.1-8-7.5-9.4
				c-2.2-2.1-6.8-0.4-6.8-0.4s-2.9-0.6-3-2C138.7,48.1,139.6,38.6,139.6,38.6"/>
			<path class="st1" d="M82.7,9.5c4.8,0.2,7.6,0.2,8.6,0.2l0.9,0.1v0.2h-0.7v0.1h0.8v0.2c-2.6,1.2-7.8,2.9-15.6,5
				c-1.5,0.1-2.3,0.5-2.3,1.1c0,0.1-0.5,1.2-1.5,3.1h0.1l0.8-0.1h0.8l4.1,1.1v0.1l-0.1,0.2H79v0.2c-3.7,1.7-5.7,2.5-6.1,2.5
				c-1.7,0-2.6,0.3-2.6,1l-4.8,10h0.1c2.6-1.2,7.7-2.9,15.4-5V30c-0.5,0-0.7,0.2-0.7,0.3l0.7-0.1h0.1v0.1c-0.9,1-3.1,2.3-6.5,4.1
				c-3.7,2.4-7.3,4.4-10.5,5.8c-4.7,2.2-8,3.9-9.8,5.2c0,0.1-0.4,0.3-1.1,0.7h-0.1c-0.4-0.1-0.6-0.3-0.6-0.7l-1.2,0.2
				c-0.4-0.4-0.7-1.1-1-2.3c-0.2,0-0.3-0.1-0.3-0.3c0.6-1.6,6-10.3,16-26c0-0.1,0.3-0.7,0.9-1.7c-0.4,0-0.5,0-0.5-0.1
				c-0.2,0.1-0.3,0.1-0.4,0.1c-0.5,0-1.4,0-2.6,0.1c-0.9-0.3-1.4-0.5-1.4-0.7v-0.3h0.3c0-0.1-0.3-0.2-0.8-0.5c0-0.1,0-0.1,0.1-0.1
				l-0.1-0.6c0-0.3,0.2-0.6,0.7-1c0.8-0.5,1.8-0.8,3-1c0.6,0,6.2-0.6,16.8-1.7H82.7z"/>
			<path class="st1" d="M96.6,8.2h0.2c0.5,0.1,0.9,0.4,1.3,0.8h0.3c0-0.1,0.1-0.2,0.2-0.2h0.2c0,0.1,0.2,0.2,0.7,0.5
				c0.3-0.3,0.6-0.5,1-0.5l0.2,0.1c0.1,0,0.3-0.1,0.4-0.1c0.3,0.2,0.5,0.3,0.6,0.3c0-0.1,0.2-0.2,0.7-0.2c0.4,0.2,0.7,0.6,1,1.2v0.3
				c0,1.8-2.1,7.3-6.3,16.4c-2.5,3.8-3.8,5.9-3.8,6.5c-0.7,1.3-1,2.1-1,2.2h0.1c2.4-1.2,5.3-2.3,8.7-3.2l-0.4,0.3h0.1
				c0.2-0.1,0.4-0.2,0.5-0.2v0.1c0,0.1-1,0.9-3,2.2h0.1l7.2-2.5c-0.4,0.2-0.6,0.3-0.6,0.4h0.1c0.2-0.1,0.4-0.2,0.6-0.2v0.1
				c-0.7,0.3-1,0.6-1,0.9c-8.1,5-13.3,7.9-15.8,8.8c-1.1,0.3-1.8,0.7-2.3,1.4c-0.1,0.2-0.3,0.4-0.4,0.4c-0.4,0-0.6-0.3-0.6-1v-0.6
				l-0.8,0.2c-0.7-0.3-1-0.6-1-0.9v-0.6c0-0.1,0.5-0.6,1.6-1.3c0-0.4,0.4-0.8,1.1-1.4c0.7-1.6,1.4-3.8,2-6.8c0-1.2,2-7.8,6-19.9
				c0.1,0,0.5-1.2,1.2-3.3C96.1,8.5,96.3,8.4,96.6,8.2z"/>
			<path class="st1" d="M134.7,9.5c4.8,0.2,7.6,0.2,8.6,0.2l0.9,0.1v0.2h-0.7v0.1h0.8v0.2c-2.6,1.2-7.8,2.9-15.6,5
				c-1.5,0.1-2.3,0.5-2.3,1.1c0,0.1-0.5,1.2-1.5,3.1h0.1l0.8-0.1h0.8l4.1,1.1v0.1l-0.1,0.2h0.3v0.2c-3.7,1.7-5.7,2.5-6.1,2.5
				c-1.7,0-2.6,0.3-2.6,1l-4.8,10h0.1c2.6-1.2,7.7-2.9,15.4-5V30c-0.5,0-0.7,0.2-0.7,0.3l0.7-0.1h0.1v0.1c-0.9,1-3.1,2.3-6.5,4.1
				c-3.7,2.4-7.3,4.4-10.5,5.8c-4.7,2.2-8,3.9-9.8,5.2c0,0.1-0.4,0.3-1.1,0.7h-0.1c-0.4-0.1-0.6-0.3-0.6-0.7l-1.2,0.2
				c-0.4-0.4-0.7-1.1-1-2.3c-0.2,0-0.3-0.1-0.3-0.3c0.6-1.6,6-10.3,16-26c0-0.1,0.3-0.7,0.9-1.7c-0.4,0-0.5,0-0.5-0.1
				c-0.2,0.1-0.3,0.1-0.4,0.1c-0.5,0-1.4,0-2.6,0.1c-0.9-0.3-1.4-0.5-1.4-0.7v-0.3h0.3c0-0.1-0.3-0.2-0.8-0.5c0-0.1,0-0.1,0.1-0.1
				l-0.1-0.6c0-0.3,0.2-0.6,0.7-1c0.8-0.5,1.8-0.8,3-1c0.6,0,6.2-0.6,16.8-1.7H134.7z"/>
			<path class="st1" d="M203.5,8.9c1-0.2,1.6-0.4,1.6-0.5l-0.1,0c0,0-0.1,0-0.2,0c-0.3,0-0.6,0.1-1.2,0.2c-2.1,0-3.5,0.2-4.2,0.4
				c-2.5,0.2-4.3,0.3-5.5,0.4l-0.7-0.5h0c-0.1,0-0.3,0.1-0.3,0.4c-0.1,0-0.1-0.1-0.1-0.2c0,0-0.1,0-0.1,0c-0.2,0-0.3,0.1-0.4,0.4
				c-4.5,0.6-8.1,1.1-10.6,1.5c-4.6,0.6-7.2,1.2-7.9,1.6l0,0.1l0.4,0.1l0,0.1H174c-0.1,0-0.2,0-0.4,0.1v0c0,0.1,0.1,0.1,0.3,0.2
				l0,0.1c-0.7,0.1-2,0.3-3.9,0.5l0.1,0.1l3.9-0.2l0.1,0l0,0.1c-2.3,0.7-3.6,1.1-3.8,1.1h0l0,0.1l0.3,0.1h0.1c0.2,0,1-0.1,2.2-0.3
				l0.1,0l0,0.1c-1.2,0.3-1.7,0.5-1.7,0.6l0,0.1l2.3-0.3c0.7,0,1.2-0.2,1.5-0.5l0.7,0.1c1.8-0.3,3.1-0.5,3.9-0.5c0.2,0,0.4,0,0.5,0
				c0.6,0.1,1.3,0.3,2.2,0.4l1.4,0.1l0.1,0c-0.7,0.5-1.1,0.8-1.1,0.8l0,0.1l0.3-0.1h0.1c0,0.1-0.1,0.1-0.2,0.1h-0.1l0,0.1
				c2-0.2,3.5-0.4,4.5-0.6c1.9-0.6,3.2-0.9,3.7-0.9c0.1,0,0.1,0,0.2,0c0,0,5.8,0.3,5.8-0.3c0-0.2,0-0.3-0.1-0.3
				c0.2-0.1,0.6-0.1,1.2-0.2c2.9-0.6,4.7-1.2,5.4-2l-0.1,0h-0.4l-0.1,0l0-0.1l0.5-0.1l0-0.1l-0.1-0.1c0.3-0.1,0.6-0.4,1-0.9l0-0.1
				l-0.2,0c0-0.1,0.1-0.1,0.3-0.1h0.1l0-0.1l-0.1,0l0.2-0.2c-0.1,0-0.1,0-0.2,0c-0.1,0-0.3,0-0.4,0.1l-0.2,0l0-0.1
				c0.5,0,0.7-0.1,0.8-0.2c-0.2,0-0.3,0-0.4,0c-0.2,0-0.3,0-0.3,0l0-0.1l-2.2,0.2l-0.1,0l0-0.1L203.5,8.9z"/>
			<path class="st1" d="M215.8,10c0,0.1,0.3,0.2,0.8,0.4l0.3,0.4c0.6-0.1,0.9-0.1,1-0.1c0.9,0,4.2,0.2,9.8,0.6v0.2h-0.9v0.1h1v0.2
				c-0.2,0-0.4,0.1-0.4,0.2c1.1,0.1,2.4,0.2,3.7,0.2h1.4c0.2,0,1.3-0.3,3.2-0.8c0,0.2-0.2,0.3-0.5,0.3v0.1h0.1
				c0.3-0.1,0.5-0.2,0.8-0.2l-0.9,0.8h0.3c0.8-0.4,1.4-0.5,1.7-0.5l-0.3,0.3h0.4c0,0.3-2.9,2.2-8.8,5.9l-11.6,6.3
				c7.1,10.7,10.7,16.2,10.7,16.4l3.3,5.7c-0.5-0.3-0.7-0.6-0.8-0.9H230v0.1c0.3,0.5,0.5,0.8,0.5,0.9c-0.7-0.4-2.2-1.9-4.5-4.5
				c-1.2-1.2-2.1-2.2-2.7-2.8h-0.1v0.1c0.2,0.3,0.4,0.5,0.4,0.7h-0.1c-0.7-0.4-2.7-2.3-6-5.6c-2.1-2-4-4.1-5.5-6.2h-0.1
				c0,0.4-1.4,4.9-4.1,13.3c-0.1,0.5-0.1,0.8-0.1,0.8h-0.3v-0.2h-0.1v0.2c-0.4,0-0.6-0.2-0.6-0.5h-0.1V42h-0.1
				c-0.2,0-0.3-0.2-0.4-0.6c0-0.6,0.2-3,0.6-7v-0.3h-0.1c0,0.1-0.6,1.7-1.8,4.8h-0.3l0.3-1v-0.1h-0.1c0,0.1-0.1,0.4-0.3,0.9h-0.3
				v-0.5c0-0.1,0-0.2-0.1-0.3c0.9-6.4,2.2-13.7,3.9-22c0-0.2,0-0.3-0.1-0.3c-0.5,0-0.9-0.2-1.2-0.5c0.1-0.1,0.1-0.2,0.1-0.3
				c-1.4,0-2.5-0.6-3.2-1.9v-0.3c0-0.4,0.3-0.7,0.8-1l0.3,0.1c0-0.2,0.6-0.3,1.7-0.3c1.1,0.1,1.7,0.1,1.8,0.2
				c0.1-0.1,0.3-0.1,0.5-0.1v0.1c0.9-0.3,2.7-0.5,5.6-0.7c0.2-0.4,0.3-0.6,0.5-0.6h0.1l0.4,0.2C215.2,10.1,215.4,10,215.8,10z
				 M217.9,15.7H216c-0.2,0-0.8,1.5-1.7,4.5c2-0.8,5.1-2.3,9.5-4.7C222.3,15.6,220.3,15.7,217.9,15.7z"/>
			<path class="st1" d="M249.4,12.9h0.5c1.1,0,2.4,0.2,4,0.5v-0.1c-0.1-0.1-0.1-0.2-0.1-0.2h0.1c0.1,0,0.2,0.1,0.2,0.2h0.1v-0.1
				c-0.1-0.1-0.1-0.2-0.1-0.3h0.1c0.1,0,0.4,0.2,0.9,0.7c0.4-0.1,0.6-0.1,0.6-0.1c1.2,0.3,2.2,1.2,3.1,2.7c1.6,2.9,2.3,5.6,2.3,8
				c0,1.1-0.4,3.5-1.2,7.2h-0.2v-0.6h-0.1l-0.1,0.7h-0.2l-0.2-1.4H259c-0.6,1.4-2.4,3.4-5.7,5.9c-2.3,1.9-4.9,3.3-7.7,4.4
				c-2,0.6-3.4,0.9-4.3,0.9c-0.9,0-2.8-0.3-5.7-0.9c-1.9,0-3.7-0.9-5.3-2.7c-0.6-1.4-0.9-2.8-0.9-4.4c0-4.1,1.7-8,5-11.6
				c1.1-1.6,3-3.4,5.8-5.2c2.7-1.4,4.1-2.1,4.3-2.1c0-0.4,1.2-0.9,3.5-1.5C248.4,12.9,248.8,12.9,249.4,12.9z M237.7,26.2
				c0.3,0.6,0.5,1.1,0.5,1.5c-1,2.4-1.5,3.8-1.5,4.4c0,1.1,0.5,2.2,1.5,3.5c1.3,0.5,2.2,0.8,2.7,0.8c3.4-0.4,5.5-0.9,6.3-1.4
				c3.2-1.8,4.8-3,4.8-3.5c2.4-3.5,3.7-7,3.7-10.6c0-0.8-0.2-1.3-0.6-1.4c-2.4-1.6-3.9-2.4-4.5-2.4l-1.2,0.7c-2.3,0.8-4.6,2-6.8,3.4
				c-1.3,0.9-1.9,1.7-1.9,2.1C240,23.2,239,24.2,237.7,26.2z"/>
			<path class="st1" d="M106.9,55.3h0.6c1.3,0,2.8,0.2,4.5,0.6v-0.1c-0.1-0.1-0.1-0.2-0.1-0.3h0.1c0.1,0,0.2,0.1,0.2,0.3h0.1v-0.1
				c-0.1-0.1-0.1-0.2-0.1-0.3h0.1c0.1,0,0.4,0.2,1,0.7c0.4-0.1,0.6-0.1,0.7-0.1c1.3,0.3,2.5,1.3,3.6,3.1c1.8,3.3,2.7,6.4,2.7,9.2
				c0,1.3-0.5,4-1.4,8.2h-0.2v-0.7h-0.1l-0.1,0.8h-0.2L118,75h-0.1c-0.6,1.6-2.8,3.8-6.5,6.8c-2.6,2.1-5.6,3.8-8.8,5
				c-2.3,0.7-3.9,1.1-4.9,1.1c-1,0-3.1-0.4-6.5-1.1c-2.2,0-4.2-1-6-3.1c-0.7-1.5-1-3.2-1-5c0-4.7,1.9-9.1,5.7-13.2
				c1.3-1.8,3.5-3.8,6.6-5.9c3.1-1.6,4.7-2.4,4.9-2.4c0-0.5,1.3-1.1,4-1.7C105.8,55.4,106.3,55.3,106.9,55.3z M93.5,70.5
				c0.4,0.6,0.6,1.2,0.6,1.7c-1.2,2.7-1.7,4.4-1.7,5c0,1.2,0.6,2.6,1.7,4c1.5,0.6,2.5,0.9,3.1,0.9c3.9-0.4,6.3-1,7.2-1.6
				c3.6-2.1,5.4-3.4,5.4-4c2.8-3.9,4.2-8,4.2-12.1c0-0.9-0.2-1.4-0.7-1.6c-2.7-1.8-4.4-2.7-5.2-2.7l-1.4,0.8c-2.7,1-5.3,2.2-7.7,3.9
				c-1.5,1.1-2.2,1.9-2.2,2.4C96.2,67.1,95.1,68.3,93.5,70.5z"/>
			<path class="st1" d="M143.6,90.4c0.1-1.1,0.4-2.7,0.9-4.8l-4.9,8.2c0.6-1.5,0.9-2.8,0.9-3.8c0-1-0.3-1.7-0.9-2
				c0.9,0.6,1.3,0.9,1.3,1c0,0,0,0,0,0v0.2h-0.3c-1.1,1.3-1.7,1.9-2,1.9c-0.1,0-0.2-0.1-0.2-0.2c0-0.5,0.4-1.6,1.3-3.4
				c0.3-2.6,2.1-8,5.4-16.2v-0.1H145c-0.9,1.8-2.8,3.9-5.8,6.4c-0.9,0.3-1.3,0.5-1.3,0.5v0.9h-0.2v-1h-0.1c-0.1,0.3-0.1,0.6-0.1,0.7
				h-0.3c-0.3-0.6-0.9-3.7-2-9.3h-0.1c-0.5,2-1.7,5.2-3.5,9.5c-0.4,0.7-0.6,1.6-0.6,2.8c-0.3,0.3-0.6,1.3-1.1,3l-1,1
				c0,0.1-0.2,0.2-0.5,0.4c-1.5,2.5-2.5,3.9-3,4.2l3-5.4l-3.2,5.5c1.2-3,1.8-4.6,1.8-4.8h-0.3c0,0.4-0.7,1.8-2.2,4.5l-0.6-0.2
				l-0.4-0.4c0.4-2.5,0.7-4.1,0.7-4.9c0-0.4,0.4-2.5,1.3-6.2c0-3.8,2.4-12.1,7.2-24.9c0.4-0.7,1-1,1.7-1c0,0.1,0.3,0.3,0.8,0.5
				c0.6-1.8,1-2.7,1.4-2.7h0.4v0.2c0.2,0,0.3-0.1,0.3-0.4h0.9c0,0.2,0.3,0.4,0.9,0.5c0-0.1,0-0.1,0.1-0.1c0.9,0.3,1.3,1.1,1.3,2.4v6
				c0,1.5,0,2.8,0.1,3.8c-0.1,0.6-0.1,1.8-0.1,3.5v3.6c0.2-0.1,1.6-2,4.2-5.8c1.8-2.3,4.5-5.3,7.9-9.1h0.1l-0.6,1v0.1h0.1
				c0.9-1.3,1.6-3,2.1-4.9c0.1-0.3,0.3-0.4,0.4-0.4c0.1,0.1,0.3,0.1,0.7,0.1c0-0.2,0.2-0.4,0.4-0.4c0.8,0.2,1.2,0.4,1.2,0.6h0.4
				c1.1,0.2,1.7,0.4,1.7,0.7c0.1,0,0.3,0.1,0.4,0.3c0,0.1,0,0.1-0.1,0.1l0.1,0.5c0,0.7-1.4,4.5-4.2,11.6c-1.9,4.4-3.2,8.3-4.1,11.7
				c-0.1,0.5-0.2,1-0.3,1.5c-0.2,0.8-0.3,1.5-0.4,2.2c-0.1,0.6-0.2,1.1-0.2,1.6c0,0,0,0,0,0c0.1,0,0.1,0.1,0.1,0.2
				c0,0.2,0,0.4-0.1,0.7c-0.2,1-0.6,2.8-1.2,5.5h-0.3V87h-0.1v0.3h-0.3c-0.7,2.1-1.4,3.2-2.1,3.4l-0.6,0.3l1.7-3.5l-2.3,5.5l2-5.6
				h-0.1v0.3h-0.1c-0.1,0-0.3,0.2-0.5,0.5c-0.3,0.5-0.8,1.3-1.3,2.5l0.4-1.9l0.2-0.7l0.2-1l0.1-0.3l0,0.2l-0.1,0.7l-0.1,0.7
				l-0.3,2.1l-0.3,2.4l-0.6-0.1l-0.7-0.1l0.5-1.1l-0.6,0.9l0.5-0.3h-0.1c-0.1,0-0.2-0.1-0.2-0.2c-0.1-0.1-0.1-0.3-0.1-0.6v-0.3
				C143.6,90.9,143.6,90.7,143.6,90.4z M139.8,68.8v0.4c0.1,0.5,0.1,0.9,0.1,1h0.1v-0.5c-0.1-0.5-0.1-0.8-0.1-1H139.8z"/>
			<path class="st1" d="M194.1,47.7l0.4,0c-0.7,1.3-1.1,2-1.1,2.2c0,0,0,0.1,0.1,0.1c0.1,0,0.5-0.3,1-0.8c-0.3,0.5-0.5,0.9-0.5,1
				c0,0,0,0,0,0c0.2,0,1.5-1.4,3.8-4.3c-1,2.3-2,4.4-3.1,6.4l3.3-4.8l-2.8,5.6c0,0.7-0.5,3.2-1.6,7.5c-0.9,3.4-3.1,12-6.4,25.8
				c-1.5,2.6-3.4,5.3-5.6,8l3.5-9.9l-2.5,4c0.6-2.5,0.9-4,0.8-4.8c0-0.3-0.1-0.5-0.3-0.5c-0.2,0-0.6,0.5-1.2,1.3
				c1.7-3,2.5-4.5,2.5-4.6c-0.6,1.1-0.9,1.7-1,1.7c0,0,0,0,0-0.1c0-0.4,0.6-2.3,1.8-5.6c-0.6,0.5-0.9,0.8-0.9,1.2l-0.4,0l0-0.3
				l-0.2,0l-0.2,0.6l-0.4,0l0-0.7l-0.4,0c0,0.1-0.1,0.2-0.2,0.4c-0.2-0.1-0.4-0.1-0.6-0.1l-7.7,2.3c-4.3,4.9-8,8.5-11,10.7l2.5-3.2
				l-5.4,3.6c0,0,0,0,0,0c0-0.2,0.8-1.4,2.5-3.6l-6,3.9l2.8-4c1.1-2.2,6.5-8,16.1-17.5c0-0.1,3.7-4.7,11-13.8
				C189.4,52.8,191.8,50.3,194.1,47.7z M180.6,73.2l0.2,0c2.4-0.7,3.6-1.5,3.5-2.3c0.1,0,0.6-1.3,1.5-3.9
				C185.2,67.6,183.4,69.7,180.6,73.2z"/>
			<path class="st1" d="M211.5,54h0.2c0,1-0.1,1.6-0.2,1.6c0.1,0.1,0.2,0.4,0.2,0.8c-0.1,0.8-0.1,1.2-0.1,1.3l3.4,24.4
				c0.2,0,0.6-1.5,1.2-4.4l4.7-12.7h0.1v0.1c0,0.1-0.1,0.5-0.2,1.1v0.2h0.1c0-0.1,0.1-0.6,0.3-1.3h0.2v0.3c0,0.1,0,0.1-0.1,0.1
				c0.1,0.1,0.1,0.3,0.1,0.6h0.1l0.6-1.9h0.2v0.2h0.1c0.1-0.4,1.7-3.5,4.7-9.3h0.1v0.1c0,0.1-0.1,0.4-0.3,0.9v0.1h0.1
				c0-0.1,0.1-0.4,0.3-0.8h0.2v0.5l-3.2,12.5c-1.4,8.3-2.7,14.5-3.6,18.5l-2.5,7.4c0.3,1.3,0.5,2.2,0.5,2.5h-0.2
				c0-0.1,0-0.2-0.1-0.6h-0.1v0.1l0.1,0.5V97c-0.1,0-0.5-0.4-1.1-1.3c0,0.2-0.2,0.3-0.6,0.3l0.1,0.2v0.2h-0.2v-0.2h-0.1v0.1l0.7,2.1
				h-0.2l-0.2-0.5h-0.1V98c0.1,0.1,0.1,0.2,0.1,0.4h-0.2c-1.5-2-3.3-6.1-5.4-12.3c-0.6-2.2-1.8-6.9-3.5-14.1c-0.2,0-0.6,1.1-1.1,3.2
				c0,1.1-1.3,5-4,11.7c-0.3,0.3-0.6,0.5-1,0.5c0-0.1-0.2-0.3-0.5-0.5v-1.1h-0.1c-0.3,1-0.7,1.5-1.4,1.5c0,0.1,0,0.1-0.1,0.1
				c-0.5-0.2-0.8-0.8-0.8-1.8c-0.1,0-0.1-0.1-0.2-0.3c0-2.1,2.6-9.6,7.8-22.4c0-0.8,0.2-1.2,0.7-1.2c0.4-0.4,1-1.5,1.9-3.2
				c-0.2-0.6-0.2-1.6-0.2-2.9V55c0.5-0.4,0.8-0.6,0.9-0.6c0.4,0,0.8,0.1,1.1,0.4h0.2l0.2-0.6h0.2c0,0.1-0.1,0.4-0.3,0.8V55h0.1
				C211.3,54.5,211.5,54.1,211.5,54z M222.3,63.9h0.2v0.2h-0.2V63.9z"/>
			<path class="st1" d="M193.1,14.4c-0.6,0-1,0-1,0.2c-0.1,0-0.3-0.2-0.7-0.6c-0.2,0-0.4,0-0.6,0l-0.3-0.2c-0.5-0.1-1,0.1-1.5,0.4
				c-0.5-0.5-0.8-0.7-0.8-0.8l-0.3-0.1c-0.2,0-0.3,0-0.3,0.2l-0.5-0.1c-0.5-0.7-1-1.2-1.6-1.4l-0.3-0.1c-0.4,0.2-0.8,0.3-1.1,0.3
				c-1.6,2.9-2.4,4.3-2.5,4.4c-5.3,9.7-11.2,21.1-11.2,21.1c-0.1,0.2-0.1,0.4-0.2,0.5c0,0.1-0.1,0.1-0.1,0.2c0,0,0,0,0,0
				c-0.2,0.7-0.4,1.1-0.3,1.3l0.2,0.7c-0.1,0-0.1,0-0.1,0.1c0.2,0.4-0.1,1,0.1,1c0,0,0,0,0,0.1c0.2-0.4,0.4-0.1,0.5-0.5
				c0.3-0.7,0.6-0.3,0.3,0.4c-0.3,0.6-0.1,0.3-0.5,0.8c0.1,0,0.8-0.2,1-0.2c0.5-0.6-0.3,0.6,0.3,0c0.6-0.5,0.7-0.1,0.2,0.4
				c-0.4,0.4,1.1,0.1,0.7,0.5c0.2,0,0.6,0.1,0.9-0.1c0.2,0,0.4-0.4,0.6-0.3l0.2-0.1c1.4-1.5,1.2-0.9,0.7,0.6
				c-1.3,2.6-2.9,5.8-4.7,9.6l-5.5,9.5l-0.1,0.4l0.2,0c0.3-0.3,0.5-0.6,0.5-0.6l0.1,0l0,0.1c-0.3,0.4-0.5,0.6-0.5,0.7l0,0.1l0.1,0
				c4-4.1,6.1-6.4,6.3-6.7l0.1,0l0,0.2l0.2,0l0.9-1.4l0.1,0c-0.1,0.3-0.1,0.5,0,0.5c-0.1,0-0.1,0-0.1,0.1l-0.1,0.2l0.2,0
				c0.4-0.5,0.6-0.9,0.6-1l0.1,0l0,0.2c-0.3,0.5-0.4,0.8-0.4,0.8l0,0.1l0.1,0l3.8-5.2c0.8-0.5,1.6-1.1,2.3-1.7c4-5.9,6.5-9.6,7.6-11
				c1.3-1.8,2-2.9,2.1-3.3l2.3-2.1l-2.4,1.7c0.8-0.7,1.7-1.6,2.6-2.5c-1.6,0.9-2.5,1.4-2.6,1.4c0,0,0,0,0,0c0,0,0.1-0.2,0.4-0.4
				c-0.3,0.2-0.5,0.2-0.6,0.2c0,0,0,0,0,0c0-0.1,0.3-0.4,0.9-0.9l-0.2-0.1c-1.4,0.7-2.8,0.5-4.2,1c0-0.1-1.7-0.1-1.7-0.2
				C185.6,26.1,193.6,14.8,193.1,14.4z"/>
			<path class="st0" d="M181.7,36.6c-2.3-0.7-8.6-9.2-8.6-9.2c-2.6-0.1-10.9-5.5-10.9-5.5c-2,3.9-4.3,2.2-4.8,2.1
				c-0.5-0.1-3.3-0.9-3.3-0.9l-5.1-7.1c-0.5,0.2-1.9,1.3-1.9,1.3l5.4,7l3.9,2.1c0.9-0.4,7.6-1.7,7.6-1.7l9.8,6.2c0,0,1,1.5,3.5,4
				c2.5,2.5,2.9,10.5,2.6,11.3c-0.2,0.8-0.7,2.8-1.7,5.1c-1,2.3-3,1.6-3.1,1.4l-0.9,1.3c0.4,0.3,0.8,0.6,0.8,0.6
				c1.6-0.6,3.2,0,3.2,0c0.5-1,3-3.7,2.6-5.1C180.6,48,181.7,36.6,181.7,36.6z"/>
			<path class="st0" d="M170.7,51.5c0.1-0.2,0.3-0.5,0.4-0.8c-1.7-0.6-3.2-0.8-3.2-0.8C168.6,50.1,169.6,50.8,170.7,51.5z"/>
			<path class="st0" d="M233.7,47.8l0.3,4.1l5.3,9c0,0,0.7,9.8-1.6,12.4c-2.3,2.5-12.8,6.2-12.8,6.2s-5.2,3.5-6.6,6.5
				c-1.5,3-9.4,2.5-13-3.7c0,0-1.7-4.2-0.6-6c0,0-6.7-2.5-8.7-4.7c0,0-6.7,2.4-8.7,1.4c0,0-2.2,9.2-7.2,10.9c-5,1.7-6.9,4.2-10,1.8
				c-1.8-1.4-3.9-3.4-5.3-4.9c-0.4,0.7-0.9,1.4-1.3,2.2c2.1,1.9,7.2,7,7.2,7c2-0.7,8.9-3.2,11.3-2.8l4-6.4l8.4-4.3l5.6,3.4
				c0,0,4.1,5.3,5,6.8c0.9,1.5,5.3,0.3,8.2,4.5c0,0,4.8-1.5,7-1.8c0,0,0-6.5,3.7-8.2c3.7-1.7,18.3-6.5,18.3-6.5s-2.2-6.4-0.9-9.4
				l1.4-3.8l-6-10.8c0,0,0.5-4,0.7-4.7c0.2-0.7,5-3.9,6.4-5.2c0,0-1.8-2.7-2-5.7C239.3,39.6,236.4,44.7,233.7,47.8"/>
			<path class="st0" d="M153.9,66.7c-1.1,2,0.3,2,2.1,8.7c0,0-0.3,4-4.7,3.8c-4.5-0.2-8.1-1-9.5-1.2c-1.4-0.2-14-6.5-15.9-11.8
				c-2-5.3,0.7-3.9,0.7-3.9l-1-3.4c-0.1,0-0.2-0.1-0.4-0.2c1-0.6,3.6,0.8,4.7,1c0-0.3,0-0.6,0-0.9l-7.3-1.4c0,0,0.1,0.1,0.2,0.3
				c-0.3-0.1-0.6-0.2-0.9-0.4c-0.1,1.8-0.1,0.2-0.5,1.1c0,0,4.4,11.2,3.5,15c0,0,19.2,6.5,21.2,8c2,1.5,8.4,0,10.3,0
				c0,0,0.3-2.8,2.5-4.5c0,0-3.8-6.5-5.4-10.7"/>
			<path class="st0" d="M217.4,24.9c-0.4,0.3-0.8,0.5-0.8,0.5l-13.2,3.4c0,0-7-3.9-7.9-4.7l-5.1,1l-7.4,7.8l1,0.1l7.6-5.8
				c0,0,3.4,0,4,0.1c0.6,0.1,3.8-1,4.6,4.1c0,0,11.2-3.1,14.2-2.3c0,0,1.7-1.2,3.8-2.6L217.4,24.9z"/>
			<path class="st0" d="M176.2,54.7c-0.4,0-0.1,0.8-0.1,2.9c0,0-0.4,1.2-1.7,0.7c-1.3-0.4-2.3-1-2.7-1.2c-0.4-0.2-3.6-3.1-3.7-4.8
				c-0.1-1.7,0.5-1.1,0.5-1.1l0-1.1c0,0-0.1-0.1-0.1-0.1c0.3-0.1,1,0.5,1.3,0.7c0-0.1,0.1-0.2,0.1-0.3l-2-1c0,0,0,0,0,0.1
				c-0.1-0.1-0.1-0.1-0.2-0.2c-0.2,0.5,0,0.1-0.3,0.3c0,0,0.3,3.7-0.2,4.7c0,0,5.1,3.5,5.6,4.1c0.4,0.6,2.5,0.7,3,0.9
				c0,0,0.3-0.8,1.1-1.1C176.8,58.3,176.3,56.1,176.2,54.7"/>
			<path class="st0" d="M62.7,67c0-0.5,0.1-1,0.3-1.4c-1.6-2.7-2.9-5-2.9-5c-1.1-0.3-2.9-1.6-4.7-3.1c-0.1,0.3-0.3,0.6-0.5,0.8
				c-0.1,0.2-0.2,0.4-0.3,0.6l5.7,5.4c0,0,0.6,1.6,2.4,4.3C62.7,68,62.7,67.5,62.7,67z"/>
			<path class="st0" d="M78,69.9c-0.4,0.7-1,1.1-1.7,1.3c0,2.8-0.5,5.6-0.7,6c-0.4,0.7-1.2,2.6-2.6,4.7c-1.4,2.1-3.3,1-3.3,0.8
				l-1.2,1.1c0.3,0.4,0.1,0.6,0.1,0.6c1.6-0.3,3.7,0.8,3.7,0.8c0.7-0.9,3.6-3.1,3.5-4.5c-0.1-1.4,3.2-12.4,3.2-12.4
				C79.1,68,79,68,79,67.9C78.7,68.6,78.4,69.2,78,69.9z"/>
			<path class="st1" d="M58.5,51.3v0.4l0.3-0.2h0.1c0.1,0.6,0.1,1,0.1,1l-0.8,5.7l0.4,1.1c0,1.2-1,5.2-3,12v0.1h0.1
				c0.5-0.9,1.6-2.2,3.4-3.6c0.7-0.7,1-1.1,1-1.1c-0.1-0.2-0.2-0.3-0.2-0.4c0.2,0,0.4-0.4,0.6-1.2c0.1-0.2,0.6-0.4,1.4-0.5
				c0,0,0.1-0.1,0.2-0.1c0.1,0.1,0.1,0.2,0.1,0.3c0.1,0,0.3-0.2,0.8-0.5H63L63,64.5l0.3-0.2h0.1v0.3c0,0.1,0,0.1-0.1,0.1
				c0.1,0.1,0.1,0.2,0.1,0.2l-0.1,0.4c0.2,0,0.3,0.5,0.5,1.4h-0.1l0.1,0.2v0.1c1,6.2,1.4,9.5,1.4,9.9c0.5-0.4,3.4-4.1,8.7-10.9l8-10
				c0.7-0.9,1.1-1.5,1.2-1.9h0.2v0.1c-0.1,0.2-0.2,0.3-0.2,0.4v0.1h0.1c0-0.2,0.6-0.8,1.7-2c0-0.1,0.3-0.4,0.8-1.1h0.2v0.1L85,53
				v0.1h0.1c0.6-0.8,0.9-1.3,1.1-1.3h0.1c0,0.6-0.9,2.3-2.6,5.1v0.1h0.1c0.5-0.8,0.8-1.2,0.9-1.2v0.1c0,0.1-0.2,0.5-0.7,1.3v0.1h0.1
				c0.5-0.8,0.8-1.2,0.8-1.2h0.2c-0.1,0.5-0.2,0.7-0.3,0.7c0,0.1,0,0.1,0.1,0.1c-0.2,0.7-1.7,3.8-4.6,9.4c0,0.1-2.7,4.3-8,12.7
				c-2.9,4.4-5.3,8.3-7.2,11.7c-0.2,0.4-0.6,0.6-1,0.7c0,0.2-0.4,0.3-1.3,0.5c-0.1-0.1-0.2-0.1-0.3-0.1c-0.6,0.3-0.9,0.6-0.9,1h-0.1
				c-0.1,0-0.1-0.3-0.1-0.7c-0.1,0-0.2,0.1-0.2,0.2v0.5H61c0-0.3-0.4-0.7-1.2-1.3l-0.1-0.4v-0.5c0-0.1,0.1-0.3,0.2-0.8
				c-0.7-2.4-1.2-4.6-1.6-6.4l-0.8-5.6h-0.1c-1.5,2.7-3.6,5.5-6.2,8.3c-1.2,1.1-1.7,2.2-1.7,3.3c-0.3,1.1-0.5,1.9-0.5,2.4h-0.2
				c-0.1-0.3-0.1-0.6-0.1-0.8h-0.1c0,0.1,0,0.4-0.1,0.8h-0.2c0-0.1-0.1-0.4-0.3-0.9h-0.2l-0.3,1h-0.2v-0.6h-0.1l-0.1,0.5h-0.2
				c-0.2-0.5-0.3-0.9-0.3-1v-1.8c-0.2,0-0.3-0.1-0.4-0.3c-0.1,0-0.2-0.1-0.3-0.2c0.1-0.1,0.1-0.2,0.1-0.2c-0.1,0-0.2-0.1-0.2-0.2
				l0.9-1.7c0-1,0.3-3,1-5.9v-0.2h-0.1c-0.5,1.2-0.9,2.1-1.3,2.5v-0.1c0-0.1,0.2-0.6,0.5-1.6v-0.1h-0.1c-0.4,0.9-0.6,1.4-0.6,1.5
				h-0.2c0-0.2,0-0.3,0.1-0.5l-0.1-0.7c1.5-6.8,3.2-12.6,5.2-17.4c2.9-6.7,4.8-10.7,5.6-12.1H57v0.5h0.1l0.1-0.4h0.2
				c0,0.1,0.1,0.4,0.3,0.9h0.1C58.1,51.8,58.3,51.3,58.5,51.3z"/>
			<path class="st0" d="M116.3,57.4l-9.4,4.6c0,0-3.6-0.7-4.3-0.9c-0.6-0.2-4.3,0.3-4.1-5.3c0,0-12.7,1.1-15.7-0.4
				c0,0-12.4,5.9-15.4,5.2c0,0-5.7,13.6-6.9,15c-1.3,1.4-0.2,6-0.2,7.4c0,0,8.8,0.8,8.5,1.3c0,0,0.6-0.7,1.4-1.4c0,0-1.3-0.7-5-0.2
				c0,0-3.3-0.3-3-3.5c0.3-3.2,1-5.8,1.2-6.8c0.2-1,5.6-9.8,9.9-11.1c4.3-1.3,6.4-2.4,6.4-2.4l14.9-1c0,0,6.8,5.6,7.6,6.6l5.7,0
				l10.2-4.6C118,59.8,116.8,57.7,116.3,57.4z"/>
			<path class="st0" d="M243,39.2c-0.8-1.6-1.3-3.1-1.3-4c0,0-11-8.1-11.8-11.1c0,0-7.5,0.7-12.4,0.9c-0.1,0.2-1.1,0.5-1.2,0.7
				c0,0.3,0.1,0.5,0.1,0.8c0.4-0.1,1.2,0.3,1.4,0.2c1-0.3,10.9-0.2,14.1,3c3.2,3.2,5.1,4.5,5.1,4.5l4.5,7.2
				C241.7,40.2,242.3,39.5,243,39.2z"/>
		</g>
		<g>
			<path class="st2" d="M43.6,63.2c-2.1,0.2-4-1.4-4.1-3.6c-0.2-2.1,1.4-4,3.6-4.1c2.1-0.2,4,1.4,4.1,3.6
				C47.4,61.2,45.8,63.1,43.6,63.2"/>
			<g>
				<defs>
					<path id="SVGID_1_" d="M42.3,63.2c5.1,0.4,4.9-4,4.9-4s-1.2,1.8-3.3,0.6c-2.3-1.3-1.4-3.9-0.8-4.2C39.1,56,37.2,62.7,42.3,63.2
						"/>
				</defs>
				<clipPath id="SVGID_2_">
					<use xlink:href="#SVGID_1_"  style="overflow:visible;"/>
				</clipPath>
				
					<linearGradient id="SVGID_3_" gradientUnits="userSpaceOnUse" x1="-161.0574" y1="459.6093" x2="-160.3994" y2="459.6093" gradientTransform="matrix(12.1088 0 0 -12.1088 1989.4503 5624.8843)">
					<stop  offset="0" style="stop-color:#A535BC"/>
					<stop  offset="0.2111" style="stop-color:#A535BC"/>
					<stop  offset="1" style="stop-color:#D887F9"/>
				</linearGradient>
				<rect x="37.2" y="55.5" class="st3" width="10.1" height="8"/>
			</g>
			<g class="st4">
				<g>
					<defs>
						<rect id="SVGID_4_" x="44.5" y="56.6" width="1.8" height="2"/>
					</defs>
					<clipPath id="SVGID_5_">
						<use xlink:href="#SVGID_4_"  style="overflow:visible;"/>
					</clipPath>
					<path class="st5" d="M46.2,57.2c0.3,0.5,0.2,1.1-0.2,1.3c-0.4,0.2-1,0-1.3-0.5c-0.3-0.5-0.2-1.1,0.2-1.3
						C45.3,56.4,45.9,56.6,46.2,57.2"/>
				</g>
			</g>
			<g class="st4">
				<g>
					<defs>
						<rect id="SVGID_6_" x="43.3" y="56" width="0.9" height="1"/>
					</defs>
					<clipPath id="SVGID_7_">
						<use xlink:href="#SVGID_6_"  style="overflow:visible;"/>
					</clipPath>
					<path class="st6" d="M44.1,56.3c0.1,0.3,0.1,0.6-0.1,0.7c-0.2,0.1-0.5,0-0.6-0.2c-0.1-0.3-0.1-0.6,0.1-0.7
						C43.7,55.9,44,56,44.1,56.3"/>
				</g>
			</g>
			<path class="st7" d="M45.7,56.2c0.8,0.6,1.4,1.5,1.6,2.5c0.2,1,0,2.2-0.6,3c-0.6,0.9-1.6,1.5-2.7,1.7c-1.1,0.2-2.3,0-3.2-0.7
				c-0.9-0.6-1.6-1.7-1.8-2.8c-0.1-0.6-0.1-1.2,0-1.7c0.1-0.6,0.4-1.1,0.7-1.6c0.4-0.5,0.8-0.8,1.3-1.1c0.5-0.3,1.1-0.4,1.6-0.4
				C43.8,55.2,44.8,55.6,45.7,56.2 M45.6,56.3c-0.4-0.3-0.9-0.5-1.4-0.5c-0.5-0.1-1,0-1.4,0.1c-0.9,0.3-1.6,0.9-2.1,1.6
				c-0.5,0.7-0.7,1.6-0.6,2.5c0.1,0.4,0.2,0.9,0.4,1.2c0.2,0.4,0.5,0.7,0.9,1c0.7,0.6,1.6,0.8,2.6,0.7c0.9-0.1,1.8-0.6,2.3-1.4
				c0.6-0.7,0.9-1.7,0.8-2.7c-0.1-0.5-0.2-1-0.5-1.4C46.3,57,46,56.6,45.6,56.3"/>
			<g class="st8">
				<g>
					<defs>
						<rect id="SVGID_8_" x="40.8" y="60.8" width="6.1" height="2.8"/>
					</defs>
					<clipPath id="SVGID_9_">
						<use xlink:href="#SVGID_8_"  style="overflow:visible;"/>
					</clipPath>
					<path class="st9" d="M40.8,62.8c0,0,2.2-3.4,6.1-1.4c0,0-1.1,1.7-2.5,2C42.9,63.8,42.1,63.6,40.8,62.8"/>
				</g>
			</g>
		</g>
		<g>
			<path class="st2" d="M147.8,20.1c-2.8,0.2-5.2-1.9-5.4-4.7c-0.2-2.8,1.9-5.2,4.7-5.4c2.8-0.2,5.2,1.9,5.4,4.7
				C152.7,17.4,150.6,19.9,147.8,20.1"/>
			<g>
				<defs>
					<path id="SVGID_10_" d="M146.1,20c6.7,0.6,6.5-5.3,6.5-5.3s-1.6,2.3-4.3,0.8c-3.1-1.7-1.8-5.2-1.1-5.5
						C141.9,10.5,139.4,19.4,146.1,20"/>
				</defs>
				<clipPath id="SVGID_11_">
					<use xlink:href="#SVGID_10_"  style="overflow:visible;"/>
				</clipPath>
				
					<linearGradient id="SVGID_12_" gradientUnits="userSpaceOnUse" x1="-152.569" y1="463.2702" x2="-151.7016" y2="463.2702" gradientTransform="matrix(12.1088 0 0 -12.1088 1989.4503 5624.8843)">
					<stop  offset="0" style="stop-color:#A535BC"/>
					<stop  offset="0.2111" style="stop-color:#A535BC"/>
					<stop  offset="1" style="stop-color:#D887F9"/>
				</linearGradient>
				<rect x="139.4" y="9.9" class="st10" width="13.4" height="10.6"/>
			</g>
			<g class="st4">
				<g>
					<defs>
						<rect id="SVGID_13_" x="149" y="11.3" width="2.4" height="2.7"/>
					</defs>
					<clipPath id="SVGID_14_">
						<use xlink:href="#SVGID_13_"  style="overflow:visible;"/>
					</clipPath>
					<path class="st11" d="M151.1,12.1c0.4,0.7,0.3,1.5-0.3,1.8c-0.5,0.3-1.3,0-1.7-0.7c-0.4-0.7-0.3-1.5,0.3-1.8
						C150,11.1,150.8,11.4,151.1,12.1"/>
				</g>
			</g>
			<g class="st4">
				<g>
					<defs>
						<rect id="SVGID_15_" x="147.4" y="10.5" width="1.2" height="1.3"/>
					</defs>
					<clipPath id="SVGID_16_">
						<use xlink:href="#SVGID_15_"  style="overflow:visible;"/>
					</clipPath>
					<path class="st12" d="M148.5,10.9c0.2,0.3,0.1,0.7-0.1,0.9c-0.3,0.2-0.6,0-0.8-0.3c-0.2-0.3-0.1-0.7,0.1-0.9
						C147.9,10.4,148.3,10.6,148.5,10.9"/>
				</g>
			</g>
			<path class="st7" d="M150.5,10.8c1.1,0.8,1.9,2,2.1,3.3c0.3,1.3,0.1,2.8-0.8,4c-0.8,1.2-2.1,2-3.5,2.3c-1.4,0.3-3-0.1-4.2-0.9
				c-1.2-0.8-2.1-2.2-2.4-3.7c-0.1-0.7-0.1-1.5,0-2.3c0.2-0.7,0.5-1.4,1-2.1c0.5-0.6,1.1-1.1,1.7-1.4c0.7-0.3,1.4-0.5,2.1-0.6
				C148,9.5,149.4,10,150.5,10.8 M150.4,10.9c-0.5-0.4-1.2-0.6-1.8-0.7c-0.6-0.1-1.3,0-1.9,0.1c-1.2,0.4-2.2,1.1-2.8,2.1
				c-0.6,1-0.9,2.1-0.8,3.2c0.1,0.6,0.2,1.1,0.5,1.6c0.3,0.5,0.7,1,1.1,1.3c0.9,0.7,2.2,1.1,3.4,0.9c1.2-0.2,2.3-0.8,3.1-1.8
				c0.8-1,1.2-2.3,1-3.5c-0.1-0.6-0.3-1.3-0.6-1.8C151.4,11.8,150.9,11.3,150.4,10.9"/>
			<g class="st8">
				<g>
					<defs>
						<rect id="SVGID_17_" x="144" y="16.9" width="8.1" height="3.7"/>
					</defs>
					<clipPath id="SVGID_18_">
						<use xlink:href="#SVGID_17_"  style="overflow:visible;"/>
					</clipPath>
					<path class="st13" d="M144,19.5c0,0,2.9-4.5,8.1-1.8c0,0-1.4,2.3-3.3,2.7C146.8,20.8,145.8,20.5,144,19.5"/>
				</g>
			</g>
		</g>
		<g>
			<path class="st2" d="M239.5,60.1c-3.2,0.2-6-2.2-6.2-5.4c-0.2-3.2,2.2-6,5.4-6.2c3.2-0.2,6,2.2,6.2,5.4
				C245.1,57.1,242.7,59.9,239.5,60.1"/>
			<g>
				<defs>
					<path id="SVGID_19_" d="M237.5,60c7.6,0.7,7.4-6.1,7.4-6.1s-1.8,2.7-4.9,0.9c-3.5-2-2.1-5.9-1.3-6.2
						C232.7,49.2,229.9,59.4,237.5,60"/>
				</defs>
				<clipPath id="SVGID_20_">
					<use xlink:href="#SVGID_19_"  style="overflow:visible;"/>
				</clipPath>
				
					<linearGradient id="SVGID_21_" gradientUnits="userSpaceOnUse" x1="-145.0654" y1="460.0168" x2="-144.0767" y2="460.0168" gradientTransform="matrix(12.1088 0 0 -12.1088 1989.4503 5624.8843)">
					<stop  offset="0" style="stop-color:#A535BC"/>
					<stop  offset="0.2111" style="stop-color:#A535BC"/>
					<stop  offset="1" style="stop-color:#D887F9"/>
				</linearGradient>
				<rect x="229.9" y="48.6" class="st14" width="15.2" height="12.1"/>
			</g>
			<g class="st4">
				<g>
					<defs>
						<rect id="SVGID_22_" x="240.8" y="50.1" width="2.7" height="3"/>
					</defs>
					<clipPath id="SVGID_23_">
						<use xlink:href="#SVGID_22_"  style="overflow:visible;"/>
					</clipPath>
					<path class="st15" d="M243.3,51c0.4,0.8,0.3,1.7-0.3,2c-0.6,0.3-1.5,0-1.9-0.8c-0.4-0.8-0.3-1.7,0.3-2
						C242,49.9,242.8,50.2,243.3,51"/>
				</g>
			</g>
			<g class="st4">
				<g>
					<path class="st16" d="M240.2,49.7c0.2,0.4,0.2,0.8-0.1,1c-0.3,0.2-0.7,0-0.9-0.4c-0.2-0.4-0.2-0.8,0.1-1
						C239.6,49.2,240,49.3,240.2,49.7"/>
					<rect x="239" y="49.3" class="st17" width="1.4" height="1.5"/>
				</g>
			</g>
			<path class="st7" d="M242.5,49.6c1.2,0.9,2.1,2.3,2.4,3.8c0.3,1.5,0.1,3.2-0.9,4.6c-0.9,1.3-2.4,2.3-4,2.6
				c-1.6,0.3-3.4-0.1-4.8-1c-1.4-0.9-2.4-2.5-2.7-4.2c-0.2-0.9-0.1-1.7,0.1-2.6c0.2-0.8,0.6-1.7,1.1-2.3c0.5-0.7,1.2-1.3,2-1.6
				c0.8-0.4,1.6-0.6,2.4-0.6C239.7,48.1,241.3,48.7,242.5,49.6 M242.4,49.7c-0.6-0.4-1.3-0.7-2.1-0.8c-0.7-0.1-1.5,0-2.1,0.2
				c-1.4,0.4-2.5,1.3-3.2,2.4c-0.7,1.1-1,2.4-0.9,3.7c0.1,0.6,0.3,1.3,0.6,1.9c0.3,0.6,0.8,1.1,1.3,1.5c1.1,0.8,2.5,1.2,3.8,1
				c1.4-0.2,2.7-0.9,3.5-2c0.9-1.1,1.3-2.6,1.2-4c-0.1-0.7-0.3-1.5-0.7-2.1C243.6,50.7,243,50.2,242.4,49.7"/>
			<g class="st8">
				<g>
					<path class="st18" d="M235.2,59.5c0,0,3.3-5.1,9.2-2c0,0-1.6,2.6-3.8,3C238.4,61,237.2,60.6,235.2,59.5"/>
					<rect x="235.2" y="56.5" class="st17" width="9.2" height="4.2"/>
				</g>
			</g>
		</g>
		<g>
			<path class="st2" d="M123.5,61.4c-1.2,0.1-2.3-0.8-2.4-2.1c-0.1-1.2,0.8-2.3,2.1-2.4c1.2-0.1,2.3,0.8,2.4,2.1
				C125.7,60.3,124.8,61.3,123.5,61.4"/>
			<g>
				<defs>
					<path id="SVGID_24_" d="M122.7,61.4c2.9,0.3,2.9-2.4,2.9-2.4s-0.7,1-1.9,0.3c-1.4-0.8-0.8-2.3-0.5-2.4
						C120.9,57.2,119.8,61.1,122.7,61.4"/>
				</defs>
				<clipPath id="SVGID_25_">
					<use xlink:href="#SVGID_24_"  style="overflow:visible;"/>
				</clipPath>
				
					<linearGradient id="SVGID_26_" gradientUnits="userSpaceOnUse" x1="-154.3082" y1="459.6318" x2="-153.9254" y2="459.6318" gradientTransform="matrix(12.1088 0 0 -12.1088 1989.4503 5624.8843)">
					<stop  offset="0" style="stop-color:#A535BC"/>
					<stop  offset="0.2111" style="stop-color:#A535BC"/>
					<stop  offset="1" style="stop-color:#D887F9"/>
				</linearGradient>
				<rect x="119.8" y="57" class="st19" width="5.9" height="4.7"/>
			</g>
			<g class="st4">
				<g>
					<defs>
						<rect id="SVGID_27_" x="124" y="57.5" width="1.1" height="1.2"/>
					</defs>
					<clipPath id="SVGID_28_">
						<use xlink:href="#SVGID_27_"  style="overflow:visible;"/>
					</clipPath>
					<path class="st20" d="M125,57.9c0.2,0.3,0.1,0.6-0.1,0.8c-0.2,0.1-0.6,0-0.7-0.3c-0.2-0.3-0.1-0.6,0.1-0.8
						C124.5,57.5,124.8,57.6,125,57.9"/>
				</g>
			</g>
			<g class="st4">
				<g>
					<defs>
						<rect id="SVGID_29_" x="123.3" y="57.2" width="0.5" height="0.6"/>
					</defs>
					<clipPath id="SVGID_30_">
						<use xlink:href="#SVGID_29_"  style="overflow:visible;"/>
					</clipPath>
					<path class="st21" d="M123.8,57.4c0.1,0.1,0.1,0.3-0.1,0.4c-0.1,0.1-0.3,0-0.4-0.1c-0.1-0.1-0.1-0.3,0.1-0.4
						S123.7,57.2,123.8,57.4"/>
				</g>
			</g>
			<path class="st7" d="M124.7,57.3c0.5,0.4,0.8,0.9,0.9,1.5c0.1,0.6,0,1.3-0.3,1.8c-0.4,0.5-0.9,0.9-1.6,1c-0.6,0.1-1.3,0-1.9-0.4
				c-0.5-0.4-0.9-1-1.1-1.6c-0.1-0.3-0.1-0.7,0-1c0.1-0.3,0.2-0.6,0.4-0.9c0.2-0.3,0.5-0.5,0.8-0.6c0.3-0.1,0.6-0.2,0.9-0.2
				C123.6,56.8,124.2,57,124.7,57.3 M124.7,57.4c-0.2-0.2-0.5-0.3-0.8-0.3c-0.3,0-0.6,0-0.8,0.1c-0.5,0.2-0.9,0.5-1.2,0.9
				c-0.3,0.4-0.4,0.9-0.3,1.4c0,0.3,0.1,0.5,0.2,0.7c0.1,0.2,0.3,0.4,0.5,0.6c0.4,0.3,1,0.5,1.5,0.4c0.5-0.1,1-0.4,1.4-0.8
				c0.3-0.4,0.5-1,0.5-1.6c0-0.3-0.1-0.6-0.3-0.8C125.1,57.8,124.9,57.6,124.7,57.4"/>
			<g class="st8">
				<g>
					<defs>
						<rect id="SVGID_31_" x="121.8" y="60" width="3.6" height="1.6"/>
					</defs>
					<clipPath id="SVGID_32_">
						<use xlink:href="#SVGID_31_"  style="overflow:visible;"/>
					</clipPath>
					<path class="st22" d="M121.8,61.2c0,0,1.3-2,3.6-0.8c0,0-0.6,1-1.5,1.2C123.1,61.7,122.6,61.6,121.8,61.2"/>
				</g>
			</g>
		</g>
		<g>
			<path class="st2" d="M200.9,31.3c-1.2,0.1-2.3-0.8-2.4-2.1c-0.1-1.2,0.8-2.3,2.1-2.4c1.2-0.1,2.3,0.8,2.4,2.1
				C203.1,30.1,202.1,31.2,200.9,31.3"/>
			<g>
				<defs>
					<path id="SVGID_33_" d="M200.1,31.2c2.9,0.3,2.9-2.4,2.9-2.4s-0.7,1-1.9,0.3c-1.4-0.8-0.8-2.3-0.5-2.4
						C198.3,27,197.2,31,200.1,31.2"/>
				</defs>
				<clipPath id="SVGID_34_">
					<use xlink:href="#SVGID_33_"  style="overflow:visible;"/>
				</clipPath>
				
					<linearGradient id="SVGID_35_" gradientUnits="userSpaceOnUse" x1="-147.9193" y1="462.1229" x2="-147.5365" y2="462.1229" gradientTransform="matrix(12.1088 0 0 -12.1088 1989.4503 5624.8843)">
					<stop  offset="0" style="stop-color:#A535BC"/>
					<stop  offset="0.2111" style="stop-color:#A535BC"/>
					<stop  offset="1" style="stop-color:#D887F9"/>
				</linearGradient>
				<rect x="197.2" y="26.8" class="st23" width="5.9" height="4.7"/>
			</g>
			<g class="st4">
				<g>
					<defs>
						<rect id="SVGID_36_" x="201.4" y="27.4" width="1.1" height="1.2"/>
					</defs>
					<clipPath id="SVGID_37_">
						<use xlink:href="#SVGID_36_"  style="overflow:visible;"/>
					</clipPath>
					<path class="st24" d="M202.3,27.7c0.2,0.3,0.1,0.6-0.1,0.8c-0.2,0.1-0.6,0-0.7-0.3c-0.2-0.3-0.1-0.6,0.1-0.8
						C201.8,27.3,202.2,27.4,202.3,27.7"/>
				</g>
			</g>
			<g class="st4">
				<g>
					<defs>
						<rect id="SVGID_38_" x="200.7" y="27.1" width="0.5" height="0.6"/>
					</defs>
					<clipPath id="SVGID_39_">
						<use xlink:href="#SVGID_38_"  style="overflow:visible;"/>
					</clipPath>
					<path class="st25" d="M201.2,27.2c0.1,0.1,0.1,0.3-0.1,0.4c-0.1,0.1-0.3,0-0.4-0.1c-0.1-0.1-0.1-0.3,0.1-0.4
						C200.9,27,201.1,27.1,201.2,27.2"/>
				</g>
			</g>
			<path class="st7" d="M202.1,27.2c0.5,0.4,0.8,0.9,0.9,1.5c0.1,0.6,0,1.3-0.3,1.8c-0.4,0.5-0.9,0.9-1.6,1c-0.6,0.1-1.3,0-1.9-0.4
				c-0.5-0.4-0.9-1-1.1-1.6c-0.1-0.3-0.1-0.7,0-1c0.1-0.3,0.2-0.6,0.4-0.9c0.2-0.3,0.5-0.5,0.8-0.6c0.3-0.1,0.6-0.2,0.9-0.2
				C201,26.6,201.6,26.8,202.1,27.2 M202,27.2c-0.2-0.2-0.5-0.3-0.8-0.3c-0.3,0-0.6,0-0.8,0.1c-0.5,0.2-0.9,0.5-1.2,0.9
				c-0.3,0.4-0.4,0.9-0.3,1.4c0,0.3,0.1,0.5,0.2,0.7c0.1,0.2,0.3,0.4,0.5,0.6c0.4,0.3,1,0.5,1.5,0.4c0.5-0.1,1-0.4,1.4-0.8
				c0.3-0.4,0.5-1,0.5-1.6c0-0.3-0.1-0.6-0.3-0.8C202.5,27.6,202.3,27.4,202,27.2"/>
			<g class="st8">
				<g>
					<defs>
						<rect id="SVGID_40_" x="199.2" y="29.9" width="3.6" height="1.6"/>
					</defs>
					<clipPath id="SVGID_41_">
						<use xlink:href="#SVGID_40_"  style="overflow:visible;"/>
					</clipPath>
					<path class="st26" d="M199.2,31c0,0,1.3-2,3.6-0.8c0,0-0.6,1-1.5,1.2C200.4,31.6,200,31.5,199.2,31"/>
				</g>
			</g>
		</g>
		<g>
			<path class="st2" d="M223.1,84c-1.2,0.1-2.3-0.8-2.4-2.1c-0.1-1.2,0.8-2.3,2.1-2.4c1.2-0.1,2.3,0.8,2.4,2.1
				C225.3,82.9,224.4,83.9,223.1,84"/>
			<g>
				<defs>
					<path id="SVGID_42_" d="M222.4,84c2.9,0.3,2.9-2.4,2.9-2.4s-0.7,1-1.9,0.3c-1.4-0.8-0.8-2.3-0.5-2.4
						C220.5,79.8,219.4,83.7,222.4,84"/>
				</defs>
				<clipPath id="SVGID_43_">
					<use xlink:href="#SVGID_42_"  style="overflow:visible;"/>
				</clipPath>
				
					<linearGradient id="SVGID_44_" gradientUnits="userSpaceOnUse" x1="-146.0812" y1="457.766" x2="-145.6984" y2="457.766" gradientTransform="matrix(12.1088 0 0 -12.1088 1989.4503 5624.8843)">
					<stop  offset="0" style="stop-color:#A535BC"/>
					<stop  offset="0.2111" style="stop-color:#A535BC"/>
					<stop  offset="1" style="stop-color:#D887F9"/>
				</linearGradient>
				<rect x="219.4" y="79.5" class="st27" width="5.9" height="4.7"/>
			</g>
			<g class="st4">
				<g>
					<defs>
						<rect id="SVGID_45_" x="223.7" y="80.1" width="1.1" height="1.2"/>
					</defs>
					<clipPath id="SVGID_46_">
						<use xlink:href="#SVGID_45_"  style="overflow:visible;"/>
					</clipPath>
					<path class="st28" d="M224.6,80.5c0.2,0.3,0.1,0.6-0.1,0.8c-0.2,0.1-0.6,0-0.7-0.3s-0.1-0.6,0.1-0.8
						C224.1,80.1,224.4,80.2,224.6,80.5"/>
				</g>
			</g>
			<g class="st4">
				<g>
					<defs>
						<rect id="SVGID_47_" x="223" y="79.8" width="0.5" height="0.6"/>
					</defs>
					<clipPath id="SVGID_48_">
						<use xlink:href="#SVGID_47_"  style="overflow:visible;"/>
					</clipPath>
					<path class="st29" d="M223.4,80c0.1,0.1,0.1,0.3-0.1,0.4c-0.1,0.1-0.3,0-0.4-0.1c-0.1-0.1-0.1-0.3,0.1-0.4S223.3,79.8,223.4,80
						"/>
				</g>
			</g>
			<path class="st7" d="M224.3,79.9c0.5,0.4,0.8,0.9,0.9,1.5c0.1,0.6,0,1.3-0.3,1.8c-0.4,0.5-0.9,0.9-1.6,1c-0.6,0.1-1.3,0-1.9-0.4
				c-0.5-0.4-0.9-1-1.1-1.6c-0.1-0.3-0.1-0.7,0-1c0.1-0.3,0.2-0.6,0.4-0.9c0.2-0.3,0.5-0.5,0.8-0.6c0.3-0.1,0.6-0.2,0.9-0.2
				C223.2,79.4,223.8,79.6,224.3,79.9 M224.3,80c-0.2-0.2-0.5-0.3-0.8-0.3c-0.3,0-0.6,0-0.8,0.1c-0.5,0.2-0.9,0.5-1.2,0.9
				c-0.3,0.4-0.4,0.9-0.3,1.4c0,0.3,0.1,0.5,0.2,0.7c0.1,0.2,0.3,0.4,0.5,0.6c0.4,0.3,1,0.5,1.5,0.4c0.5-0.1,1-0.4,1.4-0.8
				c0.3-0.4,0.5-1,0.5-1.6c0-0.3-0.1-0.6-0.3-0.8C224.7,80.4,224.5,80.2,224.3,80"/>
			<g class="st8">
				<g>
					<defs>
						<rect id="SVGID_49_" x="221.5" y="82.6" width="3.6" height="1.6"/>
					</defs>
					<clipPath id="SVGID_50_">
						<use xlink:href="#SVGID_49_"  style="overflow:visible;"/>
					</clipPath>
					<path class="st30" d="M221.5,83.8c0,0,1.3-2,3.6-0.8c0,0-0.6,1-1.5,1.2C222.7,84.3,222.3,84.2,221.5,83.8"/>
				</g>
			</g>
		</g>
		<g>
			<path class="st2" d="M78.5,10.7c-1.5,0.1-2.7-1-2.8-2.4c-0.1-1.5,1-2.7,2.4-2.8c1.5-0.1,2.7,1,2.8,2.4C81,9.4,80,10.6,78.5,10.7"
				/>
			<g>
				<defs>
					<path id="SVGID_51_" d="M77.6,10.7c3.5,0.3,3.4-2.8,3.4-2.8s-0.8,1.2-2.3,0.4c-1.6-0.9-1-2.7-0.6-2.9
						C75.4,5.7,74.1,10.4,77.6,10.7"/>
				</defs>
				<clipPath id="SVGID_52_">
					<use xlink:href="#SVGID_51_"  style="overflow:visible;"/>
				</clipPath>
				
					<linearGradient id="SVGID_53_" gradientUnits="userSpaceOnUse" x1="-158.0646" y1="463.8504" x2="-157.6135" y2="463.8504" gradientTransform="matrix(12.1088 0 0 -12.1088 1989.4503 5624.8843)">
					<stop  offset="0" style="stop-color:#A535BC"/>
					<stop  offset="0.2111" style="stop-color:#A535BC"/>
					<stop  offset="1" style="stop-color:#D887F9"/>
				</linearGradient>
				<rect x="74.1" y="5.5" class="st31" width="6.9" height="5.5"/>
			</g>
			<g class="st4">
				<g>
					<defs>
						<rect id="SVGID_54_" x="79.1" y="6.2" width="1.2" height="1.4"/>
					</defs>
					<clipPath id="SVGID_55_">
						<use xlink:href="#SVGID_54_"  style="overflow:visible;"/>
					</clipPath>
					<path class="st32" d="M80.2,6.6c0.2,0.3,0.1,0.8-0.1,0.9c-0.3,0.2-0.7,0-0.9-0.3s-0.1-0.8,0.1-0.9C79.6,6.1,80,6.2,80.2,6.6"/>
				</g>
			</g>
			<g class="st4">
				<g>
					<defs>
						<rect id="SVGID_56_" x="78.3" y="5.8" width="0.6" height="0.7"/>
					</defs>
					<clipPath id="SVGID_57_">
						<use xlink:href="#SVGID_56_"  style="overflow:visible;"/>
					</clipPath>
					<path class="st33" d="M78.8,6c0.1,0.2,0.1,0.4-0.1,0.5c-0.1,0.1-0.3,0-0.4-0.2c-0.1-0.2-0.1-0.4,0.1-0.5
						C78.5,5.7,78.7,5.8,78.8,6"/>
				</g>
			</g>
			<path class="st7" d="M79.9,5.9c0.6,0.4,1,1,1.1,1.7c0.2,0.7,0,1.5-0.4,2.1c-0.4,0.6-1.1,1.1-1.8,1.2c-0.7,0.1-1.5,0-2.2-0.5
				c-0.6-0.4-1.1-1.1-1.3-1.9c-0.1-0.4-0.1-0.8,0-1.2c0.1-0.4,0.3-0.8,0.5-1.1c0.2-0.3,0.6-0.6,0.9-0.7c0.3-0.2,0.7-0.3,1.1-0.3
				C78.6,5.2,79.3,5.5,79.9,5.9 M79.8,6c-0.3-0.2-0.6-0.3-0.9-0.4c-0.3,0-0.7,0-1,0.1c-0.6,0.2-1.1,0.6-1.4,1.1
				c-0.3,0.5-0.5,1.1-0.4,1.7c0,0.3,0.1,0.6,0.3,0.8c0.1,0.3,0.4,0.5,0.6,0.7c0.5,0.4,1.1,0.6,1.8,0.5c0.6-0.1,1.2-0.4,1.6-0.9
				c0.4-0.5,0.6-1.2,0.5-1.8c0-0.3-0.1-0.7-0.3-1C80.4,6.4,80.1,6.2,79.8,6"/>
			<g class="st8">
				<g>
					<defs>
						<rect id="SVGID_58_" x="76.5" y="9.1" width="4.2" height="1.9"/>
					</defs>
					<clipPath id="SVGID_59_">
						<use xlink:href="#SVGID_58_"  style="overflow:visible;"/>
					</clipPath>
					<path class="st34" d="M76.5,10.4c0,0,1.5-2.3,4.2-0.9c0,0-0.7,1.2-1.7,1.4C78,11.1,77.5,10.9,76.5,10.4"/>
				</g>
			</g>
		</g>
	</g>
</g>
<g>
	<path class="st2" d="M10.9,42.7c-1.8,0.1-3.5-1.3-3.6-3.1c-0.1-1.8,1.3-3.5,3.1-3.6c1.8-0.1,3.5,1.3,3.6,3.1
		C14.2,41,12.8,42.6,10.9,42.7"/>
	<g>
		<defs>
			<path id="SVGID_60_" d="M9.8,42.6c4.4,0.4,4.3-3.5,4.3-3.5s-1,1.5-2.9,0.5c-2-1.1-1.2-3.4-0.7-3.6C7,36.4,5.4,42.3,9.8,42.6"/>
		</defs>
		<clipPath id="SVGID_61_">
			<use xlink:href="#SVGID_60_"  style="overflow:visible;"/>
		</clipPath>
		
			<linearGradient id="SVGID_62_" gradientUnits="userSpaceOnUse" x1="-163.7109" y1="461.2652" x2="-163.1378" y2="461.2652" gradientTransform="matrix(12.1088 0 0 -12.1088 1989.4503 5624.8843)">
			<stop  offset="0" style="stop-color:#A535BC"/>
			<stop  offset="0.2111" style="stop-color:#A535BC"/>
			<stop  offset="1" style="stop-color:#D887F9"/>
		</linearGradient>
		<rect x="5.4" y="36" class="st35" width="8.8" height="7"/>
	</g>
	<g class="st4">
		<g>
			<defs>
				<rect id="SVGID_63_" x="11.7" y="36.9" width="1.6" height="1.8"/>
			</defs>
			<clipPath id="SVGID_64_">
				<use xlink:href="#SVGID_63_"  style="overflow:visible;"/>
			</clipPath>
			<path class="st36" d="M13.1,37.4c0.3,0.4,0.2,1-0.2,1.2c-0.4,0.2-0.8,0-1.1-0.4c-0.3-0.4-0.2-1,0.2-1.2
				C12.4,36.8,12.9,37,13.1,37.4"/>
		</g>
	</g>
	<g class="st4">
		<g>
			<defs>
				<rect id="SVGID_65_" x="10.7" y="36.4" width="0.8" height="0.9"/>
			</defs>
			<clipPath id="SVGID_66_">
				<use xlink:href="#SVGID_65_"  style="overflow:visible;"/>
			</clipPath>
			<path class="st37" d="M11.4,36.7c0.1,0.2,0.1,0.5-0.1,0.6c-0.2,0.1-0.4,0-0.6-0.2c-0.1-0.2-0.1-0.5,0.1-0.6
				C11,36.4,11.2,36.4,11.4,36.7"/>
		</g>
	</g>
	<path class="st7" d="M12.7,36.6c0.7,0.5,1.2,1.3,1.4,2.2c0.2,0.9,0,1.9-0.5,2.7c-0.5,0.8-1.4,1.3-2.3,1.5c-0.9,0.2-2,0-2.8-0.6
		C7.7,41.8,7.1,41,6.9,40c-0.1-0.5-0.1-1,0-1.5c0.1-0.5,0.3-1,0.6-1.4c0.3-0.4,0.7-0.7,1.1-0.9c0.4-0.2,0.9-0.3,1.4-0.4
		C11.1,35.7,12,36.1,12.7,36.6 M12.6,36.7c-0.4-0.2-0.8-0.4-1.2-0.5c-0.4-0.1-0.8,0-1.2,0.1c-0.8,0.2-1.4,0.8-1.8,1.4
		c-0.4,0.6-0.6,1.4-0.5,2.1c0,0.4,0.2,0.7,0.3,1.1c0.2,0.3,0.4,0.6,0.8,0.9c0.6,0.5,1.4,0.7,2.2,0.6c0.8-0.1,1.5-0.5,2-1.2
		c0.5-0.6,0.8-1.5,0.7-2.3c0-0.4-0.2-0.8-0.4-1.2C13.3,37.3,13,36.9,12.6,36.7"/>
	<g class="st8">
		<g>
			<defs>
				<rect id="SVGID_67_" x="8.4" y="40.6" width="5.3" height="2.4"/>
			</defs>
			<clipPath id="SVGID_68_">
				<use xlink:href="#SVGID_67_"  style="overflow:visible;"/>
			</clipPath>
			<path class="st38" d="M8.4,42.4c0,0,1.9-2.9,5.3-1.2c0,0-0.9,1.5-2.2,1.8C10.3,43.2,9.6,43,8.4,42.4"/>
		</g>
	</g>
</g>
<g>
	<path class="st2" d="M284.6,56.5c-1.8,0.1-3.5-1.3-3.6-3.1c-0.1-1.8,1.3-3.5,3.1-3.6c1.8-0.1,3.5,1.3,3.6,3.1
		C287.9,54.7,286.5,56.3,284.6,56.5"/>
	<g>
		<defs>
			<path id="SVGID_69_" d="M283.5,56.4c4.4,0.4,4.3-3.5,4.3-3.5s-1,1.5-2.9,0.5c-2-1.1-1.2-3.4-0.7-3.6
				C280.7,50.1,279.1,56,283.5,56.4"/>
		</defs>
		<clipPath id="SVGID_70_">
			<use xlink:href="#SVGID_69_"  style="overflow:visible;"/>
		</clipPath>
		
			<linearGradient id="SVGID_71_" gradientUnits="userSpaceOnUse" x1="-141.1075" y1="460.1302" x2="-140.5344" y2="460.1302" gradientTransform="matrix(12.1088 0 0 -12.1088 1989.4503 5624.8843)">
			<stop  offset="0" style="stop-color:#A535BC"/>
			<stop  offset="0.2111" style="stop-color:#A535BC"/>
			<stop  offset="1" style="stop-color:#D887F9"/>
		</linearGradient>
		<rect x="279.1" y="49.8" class="st39" width="8.8" height="7"/>
	</g>
	<g class="st4">
		<g>
			<defs>
				<rect id="SVGID_72_" x="285.4" y="50.6" width="1.6" height="1.8"/>
			</defs>
			<clipPath id="SVGID_73_">
				<use xlink:href="#SVGID_72_"  style="overflow:visible;"/>
			</clipPath>
			<path class="st40" d="M286.8,51.2c0.3,0.4,0.2,1-0.2,1.2c-0.4,0.2-0.8,0-1.1-0.4c-0.3-0.4-0.2-1,0.2-1.2
				C286.1,50.5,286.6,50.7,286.8,51.2"/>
		</g>
	</g>
	<g class="st4">
		<g>
			<defs>
				<rect id="SVGID_74_" x="284.4" y="50.2" width="0.8" height="0.9"/>
			</defs>
			<clipPath id="SVGID_75_">
				<use xlink:href="#SVGID_74_"  style="overflow:visible;"/>
			</clipPath>
			<path class="st41" d="M285.1,50.4c0.1,0.2,0.1,0.5-0.1,0.6c-0.2,0.1-0.4,0-0.6-0.2c-0.1-0.2-0.1-0.5,0.1-0.6
				C284.7,50.1,284.9,50.2,285.1,50.4"/>
		</g>
	</g>
	<path class="st7" d="M286.4,50.3c0.7,0.5,1.2,1.3,1.4,2.2c0.2,0.9,0,1.9-0.5,2.7c-0.5,0.8-1.4,1.3-2.3,1.5c-0.9,0.2-2,0-2.8-0.6
		c-0.8-0.5-1.4-1.4-1.6-2.4c-0.1-0.5-0.1-1,0-1.5c0.1-0.5,0.3-1,0.6-1.4c0.3-0.4,0.7-0.7,1.1-0.9c0.4-0.2,0.9-0.3,1.4-0.4
		C284.8,49.5,285.7,49.8,286.4,50.3 M286.3,50.4c-0.4-0.2-0.8-0.4-1.2-0.5c-0.4-0.1-0.8,0-1.2,0.1c-0.8,0.2-1.4,0.8-1.8,1.4
		c-0.4,0.6-0.6,1.4-0.5,2.1c0,0.4,0.2,0.7,0.3,1.1c0.2,0.3,0.4,0.6,0.8,0.9c0.6,0.5,1.4,0.7,2.2,0.6c0.8-0.1,1.5-0.5,2-1.2
		c0.5-0.6,0.8-1.5,0.7-2.3c0-0.4-0.2-0.8-0.4-1.2C287,51,286.7,50.7,286.3,50.4"/>
	<g class="st8">
		<g>
			<defs>
				<rect id="SVGID_76_" x="282.1" y="54.4" width="5.3" height="2.4"/>
			</defs>
			<clipPath id="SVGID_77_">
				<use xlink:href="#SVGID_76_"  style="overflow:visible;"/>
			</clipPath>
			<path class="st42" d="M282.1,56.1c0,0,1.9-2.9,5.3-1.2c0,0-0.9,1.5-2.2,1.8C284,56.9,283.3,56.7,282.1,56.1"/>
		</g>
	</g>
</g>
</svg>
