<?xml version="1.0" encoding="utf-8"?>
<!-- Generator: Adobe Illustrator 23.1.1, SVG Export Plug-In . SVG Version: 6.00 Build 0)  -->
<svg version="1.1" id="Capa_1" xmlns="http://www.w3.org/2000/svg" xmlns:xlink="http://www.w3.org/1999/xlink" x="0px" y="0px"
	 viewBox="0 0 300 50" style="enable-background:new 0 0 300 50;" xml:space="preserve">
<style type="text/css">
	.st0{fill:#A1B1AE;}
	.st1{fill:#B6BEBC;}
	.st2{fill:url(#SVGID_1_);}
</style>
<path class="st0" d="M17,44c-0.2,0.4-0.5,0.7-0.9,0.8C15.7,45,15.3,45,14.9,45H4.7c-0.4-0.2-0.6-0.7-0.6-1.4c0-0.3,0.1-0.6,0.2-0.9
	l9.9-19.4h13.4L17,44z"/>
<path class="st1" d="M62.8,15.9H15.2l4.6-9.1c0.2-0.2,0.5-0.4,0.8-0.6C21,6.1,21.4,6.1,22,6.1h39.3c0.4,0,0.7,0.2,1,0.5
	c0.3,0.4,0.5,0.8,0.5,1.2V15.9z"/>
<path class="st0" d="M35.9,44c-0.2,0.4-0.5,0.7-0.9,0.8C34.6,45,34.2,45,33.9,45H23.7c-0.4-0.2-0.6-0.7-0.6-1.4
	c0-0.3,0.1-0.6,0.2-0.9l9.8-19.4h13.4L35.9,44z"/>
<path class="st0" d="M62.8,43.6c0,0.3-0.1,0.6-0.4,1c-0.3,0.3-0.6,0.5-1,0.5h-8.7c-0.4,0-0.7-0.2-1-0.5c-0.3-0.3-0.4-0.6-0.4-1V23.4
	h11.5V43.6z"/>
<path class="st0" d="M79.9,44c-0.2,0.4-0.5,0.7-0.9,0.8C78.6,45,78.2,45,77.8,45H67.6c-0.4-0.2-0.6-0.7-0.6-1.4
	c0-0.3,0.1-0.6,0.2-0.9l9.9-19.4h13.4L79.9,44z"/>
<path class="st1" d="M82.8,6.9c0.2-0.2,0.5-0.4,0.8-0.6c0.3-0.1,0.7-0.2,1.3-0.2h22.6c0.4,0,0.7,0.2,1,0.5c0.3,0.4,0.5,0.8,0.5,1.2
	v8.1H78.1L82.8,6.9z"/>
<path class="st0" d="M108.9,43.6c0,0.3-0.1,0.6-0.4,1c-0.3,0.3-0.6,0.5-1,0.5H89.8c-0.3,0-0.6-0.2-0.9-0.6c-0.3-0.4-0.4-0.7-0.4-1
	v-6.9c0-0.1,0-0.2,0.1-0.3c0.1-0.2,0.2-0.3,0.3-0.5c0.1-0.2,0.2-0.3,0.3-0.4c0.1-0.1,0.2-0.2,0.3-0.2h6.8c0.2,0,0.4-0.1,0.7-0.3
	c0.2-0.2,0.3-0.5,0.3-0.7V23.4h11.5V43.6z"/>
<path class="st1" d="M114.2,15.9V7.5c0-0.3,0.1-0.6,0.4-1c0.3-0.3,0.6-0.5,1-0.5h36.9c0.4,0,0.7,0.2,1,0.5c0.3,0.3,0.4,0.6,0.4,1v7
	c0,0.3-0.1,0.6-0.4,0.9c-0.3,0.3-0.6,0.5-0.9,0.5H114.2z"/>
<path class="st0" d="M130.5,33.1c-0.3,0-0.6-0.2-0.9-0.6c-0.3-0.4-0.4-0.7-0.4-1v-6.8c0-0.1,0.1-0.4,0.4-0.7
	c0.2-0.4,0.5-0.6,0.7-0.6h22.2c0.3,0.1,0.6,0.3,0.9,0.6c0.3,0.3,0.4,0.7,0.4,1.1v18.5c0,0.3-0.1,0.6-0.4,1c-0.3,0.3-0.6,0.5-1,0.5
	h-29.3c-0.7,0-1.6-0.3-2.6-0.8c-1-0.5-2-1.2-2.9-2.1s-1.8-2-2.4-3.2c-0.7-1.2-1-2.6-1-4V23.4h11.5v9.1c0,0.2,0.1,0.4,0.3,0.7
	c0.2,0.3,0.4,0.6,0.7,0.9c0.3,0.3,0.6,0.5,0.9,0.7c0.3,0.2,0.6,0.3,0.8,0.4h13.2c0.2,0,0.4-0.1,0.6-0.3c0.2-0.2,0.4-0.4,0.4-0.6
	c0-0.2-0.2-0.4-0.3-0.7c-0.2-0.3-0.4-0.4-0.6-0.4H130.5z"/>
<path class="st1" d="M171.2,6.1c0.4,0,0.8,0.1,1.2,0.2c0.4,0.2,0.7,0.4,1,0.8l7.7,8.9h-22V7.6c0-0.3,0.1-0.6,0.2-0.9
	c0.1-0.3,0.3-0.5,0.5-0.6H171.2z"/>
<path class="st0" d="M182.8,23.4l5.4,6.3v-6.3h11.5v20.1c0,0.4-0.1,0.7-0.2,0.9c-0.2,0.3-0.3,0.5-0.6,0.6h-11.4
	c-0.4,0-0.8-0.1-1.2-0.2c-0.4-0.1-0.7-0.4-1-0.8l-14.8-17.2v16.5c0,0.5-0.2,0.9-0.5,1.2c-0.3,0.4-0.6,0.5-1,0.5h-8.6
	c-0.4,0-0.7-0.2-1-0.5c-0.3-0.4-0.5-0.8-0.5-1.2V23.4H182.8z"/>
<path class="st1" d="M188.2,7.5c0-0.3,0.1-0.6,0.4-1c0.3-0.3,0.6-0.5,1-0.5h8.7c0.4,0,0.7,0.2,1,0.5c0.3,0.3,0.4,0.6,0.4,1v8.4
	h-11.5V7.5z"/>
<path class="st1" d="M244.6,15.9h-39.7V7.5c0-0.3,0.1-0.6,0.4-1c0.3-0.3,0.6-0.5,1-0.5h36.9c0.4,0,0.7,0.2,1,0.5
	c0.3,0.3,0.4,0.6,0.4,1V15.9z"/>
<path class="st0" d="M216.4,32.5c0,0.2,0.1,0.4,0.3,0.7c0.2,0.3,0.4,0.6,0.7,0.9c0.3,0.3,0.5,0.5,0.8,0.7c0.3,0.2,0.5,0.3,0.7,0.3
	h11.7c0.2,0,0.5-0.1,0.7-0.3c0.3-0.2,0.6-0.4,0.8-0.7c0.2-0.3,0.5-0.5,0.6-0.8c0.2-0.3,0.3-0.5,0.3-0.7v-9.3h11.5V35
	c0,1.4-0.3,2.7-1,3.9c-0.7,1.2-1.5,2.3-2.4,3.2c-0.9,0.9-1.9,1.6-2.9,2.1c-1,0.5-1.9,0.8-2.6,0.8h-21.9c-0.7,0-1.6-0.3-2.6-0.8
	c-1-0.5-2-1.2-2.9-2.1c-0.9-0.9-1.7-2-2.4-3.2c-0.7-1.2-1-2.5-1-3.9V23.4h11.5V32.5z"/>
<path class="st1" d="M261.9,6.1c0.4,0,0.8,0.1,1.2,0.2c0.4,0.2,0.7,0.4,1,0.8l7.7,8.9h-22V7.6c0-0.3,0.1-0.6,0.2-0.9
	c0.1-0.3,0.3-0.5,0.5-0.6H261.9z"/>
<path class="st0" d="M273.6,23.4l5.4,6.3v-6.3h11.5v20.1c0,0.4-0.1,0.7-0.2,0.9c-0.2,0.3-0.3,0.5-0.6,0.6h-11.4
	c-0.4,0-0.8-0.1-1.2-0.2c-0.4-0.1-0.7-0.4-1-0.8l-14.8-17.2v16.5c0,0.5-0.2,0.9-0.5,1.2c-0.3,0.4-0.6,0.5-1,0.5h-8.6
	c-0.4,0-0.7-0.2-1-0.5c-0.3-0.4-0.5-0.8-0.5-1.2V23.4H273.6z"/>
<path class="st1" d="M279,7.5c0-0.3,0.1-0.6,0.4-1c0.3-0.3,0.6-0.5,1-0.5h8.7c0.4,0,0.7,0.2,1,0.5c0.3,0.3,0.4,0.6,0.4,1v8.4H279
	V7.5z"/>
<linearGradient id="SVGID_1_" gradientUnits="userSpaceOnUse" x1="3.5" y1="19.654" x2="296.5" y2="19.654">
	<stop  offset="0" style="stop-color:#E91F59"/>
	<stop  offset="0.3986" style="stop-color:#E71E58"/>
	<stop  offset="0.6067" style="stop-color:#DF1C56"/>
	<stop  offset="0.7708" style="stop-color:#D11951"/>
	<stop  offset="0.911" style="stop-color:#BF144B"/>
	<stop  offset="1" style="stop-color:#AE1045"/>
</linearGradient>
<path class="st2" d="M294,22.2H6c-1.4,0-2.5-1.1-2.5-2.5v0c0-1.4,1.1-2.5,2.5-2.5h288c1.4,0,2.5,1.1,2.5,2.5v0
	C296.5,21,295.4,22.2,294,22.2z"/>
</svg>
