<?xml version="1.0" encoding="utf-8"?>
<!-- Generator: Adobe Illustrator 23.1.1, SVG Export Plug-In . SVG Version: 6.00 Build 0)  -->
<svg version="1.1" id="Capa_1" xmlns="http://www.w3.org/2000/svg" xmlns:xlink="http://www.w3.org/1999/xlink" x="0px" y="0px"
	 viewBox="0 0 900 420" style="enable-background:new 0 0 900 420;" xml:space="preserve">
<style type="text/css">
	.st0{fill:#395D7A;}
</style>
<g>
	<path class="st0" d="M322,263.6c-0.8-2.2-0.6-2.3-2.2-2.9c-1.6-0.5-5.2-1.8-5.9-2.5c-0.7-0.7-3-4.7-5.4-4.4
		c-2.4,0.3-3.9-0.2-6.4-0.3c-2.5-0.1-4.1,0.7-5.4-1s0.3-1.7-2-2.7c-2.4-1-2-1.4-4.1-2c-2-0.7-1.7-1.7-3-0.3c-1.4,1.4-2.7,2.7-2.4,1
		c0.3-1.7,2.7-2.7,0.7-2.7c-2,0-4.1-1.4-4.4-2.4c-0.3-1-0.2-0.4-0.5-2.7c-0.3-2.3-2.9-1.7-2.5-3.8c0.3-2.1,2.1-4.3,0.3-4.7
		c-1.8-0.5-1.7-0.7-3.7-2.3c-2-1.5-2.6-3.1-4.6-3c-2,0.1-1.7-0.2-4.3,0c-2.5,0.2-2.5,1.1-4-0.3c-1.5-1.5-1.7-1.4-3-3.4
		c-1.4-2-3.2-4-4.7-4.4c-1.5-0.4-1.4,0.7-1.7-1c-0.3-1.7-1-2.4-2.7-3c-1.7-0.7-1.4-1.4-1-1.7c0.3-0.3,1.2-2.4-0.4-1.4
		c-1.6,1-1.6,1.2-4,1.4c-2.4,0.1-0.7,1.8-3.6,0.8c-2.9-1-2.5-0.8-5.2-0.8c-2.7,0,0,1-2.7-1c-2.7-2-2-2-3.4-2c-1.3,0,0.7-1.7-0.7-1.4
		c-1.4,0.3-1,0.3-1,1s0,0-1.7,1.4c-1.7,1.4-3-0.7-2,2c1,2.7,3,4.2,0.7,4.1c-2.3-0.2-3,1.1-2.4-1.7c0.7-2.7,0.7-2,0.7-3.4
		c0-1.4-1.2-1.3,0.6-2.5c1.8-1.2,3.8-2.6,1.4-1.9c-2.4,0.7-3,2.8-4.1,2.6c-1-0.2-2-1.2-3.7,0.5c-1.7,1.7-0.7-0.7-2,0.7
		c-1.4,1.4-3.3,2-2.9,3.4c0.5,1.4,1.5,1.4-0.5,2.7c-2,1.4,0,2-1.7,2.2c-1.7,0.2-0.4-0.8-3.4-2.2c-3-1.4-3.4-2-4.4-1.4
		c-1,0.7-3.4,3.4-5.4,2.4c-2-1-2.1-0.5-3.7-3c-1.6-2.5-3-3-2-6.4c1-3.4,0.3-1.4,1-4.1c0.7-2.7,2-4.1,1-5.4c-1-1.4,0-1.4-1.7-2
		c-1.7-0.7-2-1.7-4.7-1c-2.7,0.7-5.1,0.7-5.7,0.7s-2.7,1.4-1.7-0.7c1-2,1.7-1.4,1.7-3s0.3-2,0.3-3c0-1,1.4-1,1.7-2.4
		c0.3-1.4,0.3-3.7,1-4.4c0.7-0.7,3-3.4,2.4-3.7c-0.7-0.3-2.4-1.4-3.7-0.7c-1.4,0.7-2.2,1-4.6,1.5c-2.4,0.5-2.2,2.5-2.5,3.9
		c-0.3,1.4-1,2.7-2,3.4c-1,0.7-2-0.3-3,0c-1,0.3-1.7,0.7-3,1c-1.4,0.3-2.3,1.7-3.2,0.5c-0.9-1.2-1.6-0.8-2.6-1.9c-1-1-1-1.7-1.7-3
		c-0.7-1.4-2.6-6.3-2.4-7.8c0.2-1.4,1.6-4.7,1.4-6.1c-0.3-1.4,1.7-3,2-4.1c0.3-1,0.3,0.7,0-2.4c-0.3-3,0.7-4.1,2.4-5.1
		c1.7-1,3.9-0.9,6.3-2.8c2.4-1.9,5.3-2.5,6.6-2.2c1.3,0.3,1.3-0.4,2.9,1.3c1.7,1.7,2,0,3.4,0c1.4,0,1.9,0.5,1.6-0.6
		c-0.3-1.1-3.5-1-1.9-1.5c1.6-0.6,2.7-1.3,4.7-0.9c2,0.3,2.4-2,4.9-0.3c2.5,1.7,1.8,1.7,2.9,2c1,0.3,2.3-1.9,3.5-0.8
		c1.2,1.1,2.9,2.5,2.5,4.5c-0.3,2-1.4,1.4-0.7,3.4c0.7,2,1,4.1,1.7,4.7c0.7,0.7,0.3,1.7,1,2c0.7,0.3,2.3,1.5,3.1-0.4
		c0.7-1.8,1-0.9,0.6-3.7c-0.3-2.8-0.7-3-1-6.1c-0.3-3-0.7-3.4-0.3-5.7c0.3-2.4,1-3.4,3-5.1c2-1.7,3.7-4.4,6.1-5.1
		c2.4-0.7,2-1.7,4.1-2.4c2-0.7,4.1-1.4,4.7-3c0.7-1.7,1-1,0.3-3c-0.7-2-0.3-0.7,0-3.4c0.3-2.7,0.3-2.4,1-3.7c0.7-1.4,2-2,1.4-0.7
		c-0.7,1.4,2,1,0,3c-2,2-1,2.4-0.7,2c0.3-0.3-0.3-0.7,1-1.7c1.4-1,2-1.4,1.7-2.7c-0.3-1.4-1.4-2,0-1.4c1.3,0.7,1.3,1,2.7-0.7
		c1.4-1.7,1.4-2.4,1.7-3c0.3-0.7-0.7-0.7,2-1.4c2.7-0.7,2.7-1,5.4-1.7c1.6-0.4,2.5-0.2,3.1-0.1c-0.1-0.1-0.2-0.3-0.4-0.5
		c-1-1.7-1.7-1.4-0.3-3c1.4-1.7,1.7-3.2,4.1-3.4c2.3-0.2,1.7-1.7,3-1.7c1.4,0,3,0,3.7-0.7c0.7-0.7,1.2-1.3,3-1.7
		c1.9-0.4,2-1.7,3.7-1c1.7,0.7,1.4,1.4,1,1.4c-0.3,0-1.5,0.1-3.4,1c-1.8,0.9-2.7,1.4-2.4,2c0.3,0.7-1,1.4,0.7,1.4
		c1.7,0,2.7-1,4.1-1.7c1.4-0.7,1.4-1,3.7-1.7c2.4-0.7,3.4-1,4.1-1.7c0.7-0.7,2-1,0-1c-2,0-3.4,0-4.4-0.7c-1-0.7-2,1-2-1.7
		c0-2.7,0.7-2.7,0.3-3.4c0,0,0,0,0,0c-0.2-0.1-0.4-0.2-0.7-0.3c-2-1-4.4-0.3-2.4-1c2-0.7,1.3-0.1,3.4-1.1c2-0.9,3.4-0.9,2.4-1.6
		c-1-0.7-1-1-3-0.7c-2,0.3-2.2,0.3-4.1,1c-1.9,0.6-1.3,1.4-3.6,2.1c-2.4,0.7-4.7,1.7-5.4,2.4c-0.7,0.7-1.4,3.2-1,1.4
		c0.4-1.9,1.4-4.1,3.4-4.1c2,0,1.7-2.4,4.4-2.7c2.7-0.3,2.7-1.7,4.4-2.4c1.7-0.7,3.5-2.3,5-1.6c1.5,0.8,4.5,0.6,5.8,0.9
		c1.4,0.3,3.7,1.4,6.1-0.3c2.4-1.7,1-3.4,5.2-3.7c4.3-0.3,5.6,0.3,6.3-1.7c0.7-2,2-1.4,1-3c-1-1.7-1.7-1-2.7-1c-1,0,3.1-2.4-0.3-1.7
		c-3.4,0.7-3.7,1.7-5.4,1.7c-1.7,0-3-0.3,0.7-1.4c3.7-1,8.1-0.3,5.4-1.7c-2.7-1.4-4.1-0.3-4.7-1.7c-0.7-1.4,0.3,0-1-1.4
		c-1.4-1.4-3-1.7-2-3c1-1.4,1.7-1.7,1.4-2.7c-0.3-1,0.3,0.3-0.7-2.4c-1-2.7-0.3-4.1-1.4-4.7c-1-0.7-0.7-1.7-1.7,0.3c-1,2-2,2-3,3
		c-1,1-1.3,1-2.7,1.4c-1.4,0.3-2.7,1-3,0.3c-0.3-0.7-0.7,0.7-1.4-1.4c-0.7-2,0.3-1.7,0.3-3.7s1.6-0.7,1-2c-0.5-1.3-1,0-1.7-0.3
		c-0.7-0.3-1.7,0.3-2-0.7c-0.3-1,0.3-1.7-1-2.4c-1.4-0.7-1.1-1.2-1.7-1c-0.6,0.2-0.3,0.7-1.7,0.7c-1.4,0-1.7,0.7-3,0
		c-1.4-0.7-2-1.7-3-1c-1,0.7-2.4,1.7-2.4,2.7c0,1,0.7,2.4-0.3,2.4c-1,0-1.4,2.7-1.4,2.7s-2,1.7-2.7,2c-0.7,0.3-2.4,0.3-1.4,1.4
		c1,1,1.7,0.3,1.7,2.4c0,2,0,4.7-3.7,6.4c-3.7,1.7-7.1,1.7-7.1,2.7c0,1,0.3,1.4,0,3.4c-0.3,2,1,2.5-0.3,3.4
		c-1.4,0.9,0.4,2.3-1.7,2.4c-2.1,0-3,1.7-3.4,0.7c-0.4-1-1.7-1.7-2-3.4c-0.3-1.7-0.7-0.7,0-2.7c0.7-2,3-3.4,2-4.4c-1-1-1-0.7-2.4-1
		c-1.4-0.3-2.6,0.2-3.7-0.7c-1.1-0.8,0,0.5-2-1c-2-1.5-1.8-1.9-3-2.5c-1.3-0.6-1.5-0.3-2.4-0.8c-0.9-0.6-2.6-0.1-3.8-0.5
		c-1.2-0.5-0.9-0.5-0.9-2.5c0-2,2-0.7,0-2c-2-1.4-3.3-0.1-1.4-2.4c1.9-2.3,3.4-4.1,5.7-5.4c2.4-1.4,1-1,4.7-2.4
		c3.7-1.4,6.4-3.7,5.4-3.4c-1,0.3-5.7-0.3-1.7-0.7c4.1-0.3,2.7,1,4.1,0.3c1.4-0.7,1.4-0.3,3.4-1c2-0.7,2.7-0.7,4.1-1.7
		c1.4-1,3.4-1,1.4-1.4c-2-0.3-3-0.3-4.1-1c-1-0.7-2.4-1.4-0.3-0.7c2,0.7,3.7,2,5.4,1c1.7-1,2.4-0.7,2.7-1.7c0.3-1-0.3-1.7,1.4-1
		c1.7,0.7,2.7,1.7,3,0.7c0.3-1-1.4-2.7,0-2c1.4,0.7,0.7,2,1.7,1.7c1-0.3,2.4-1,4.1-1.7c1.7-0.7,2.7-0.7,2-1.4c-0.7-0.7-2-1-0.7-1.7
		c1.4-0.7,3.7-2,3.4-2.4c-0.3-0.3,0-1-1.7-1.4c-1.7-0.3-2.4-2.4-4.1-1c-1.7,1.4-1.7,1.7-1.7,2.4c0,0.7-1,0.3-1.7,1s-1,1.7-2.4,1.7
		c-1.4,0-0.3,1.7-1.7,1.7c-1.4,0-3,1.7-2.4-0.3c0.7-2,1.7-0.3,1.7-2c0-1.7-1-4.1-2.2-2.5c-1.2,1.5-2.9,4.6-2.5,2.5
		c0.3-2,1-1.4,0.7-2.4c-0.3-1-2,0-2-1c0-1,0,1,1-1.7c1-2.7,2.4-2.4,1-3c-1.4-0.7,0-2.7-2-1.4c-2,1.4-2.6,0.5-4.7,2.4
		c-2.2,1.8-3.7,1.7-1,3c2.7,1.4,3,1,2.4,1.4c-0.7,0.3-0.3-0.4-1.4,1c-1,1.4-1.2,1.4-2,1.7c-0.8,0.3-4.1,3.4-5.1,2.7
		c-1-0.7,1.4-0.7-0.3-2c-1.7-1.4-0.3-1.4-2.4-0.7c-2,0.7,0.8,2-2.7,1.4c-3.5-0.7-0.4,0.7-4.7,0c-4.4-0.7-4.1-0.7-5.4-1
		c-1.4-0.3,0.4-0.5-1.7-1c-2.1-0.5-7.4,0-6.8,0.7c0.7,0.7,3-0.7,3,0c0,0.7-1-0.3-2,1c-1,1.4-2,3.7-2.4,3c-0.3-0.7,3-2-0.3-2.4
		c-3.4-0.3-3.4-0.7-6.1-0.3c-2.7,0.3-7.4,0.3-5.7-0.3c1.7-0.7,3.7-0.3,3.4-1.4c-0.3-1,0-1.4-2-1.4c-2,0-3.9,0.2-5.2-0.3
		c-1.3-0.6-0.8-0.3-2.9-1c-2-0.7-1-1.4-3-0.7c-2,0.7-3.7,2.4-3.7,1c0-1.4,1.7-2.7,0.3-1.7c-1.4,1-2,3-3,1.7c-1-1.4,0.3-5.7-1.7-3.9
		c-2,1.9-4.7,1.9-5.4,2.2c-0.7,0.3-0.7,0-1.7,0c-1,0-2,0-5.1,1c-3,1-2,0.2-5.4,1c-3.4,0.8-3,2-5.1,0.7c-2-1.4-3.4-1.7-4.4-1.7
		c-1,0-2,0.1-3.1-1.1c-1.1-1.2-0.9,0.1-5-0.3c-4.1-0.3-3.7-1.4-7.1-1c-3.4,0.3-1.5,1.7-3.4,0.3c-1.9-1.4-1.4-1.4-3.7-1.7
		c-2.4-0.3-0.6-1.8-3.4-0.7c-2.7,1.1-4.3,2.3-6.4,1.4c-2.1-0.9-2.6-0.5-4.2,0.4c-1.6,0.9-1.9,0.3-4.6,1.3c-2.7,1-2.7,1.7-5.4,2.4
		c-2.7,0.7-5.4,1-6.8,1c-1.4,0-3.4,0.7-2,1.7c1.4,1,0.3,1.7,1.4,2.4c1,0.7,2.4,0,1.7,1.4c-0.7,1.4-0.5,1.7-2.7,1.7c-2.2,0-0.3-1-2-1
		c-1.7,0-1,0-3,0.3c-2,0.3-1.6,0.2-3.7,0.8c-2.1,0.6-2.4-0.4-3.4,0.9c-1,1.4-0.3,1-0.7,1.7c-0.3,0.7-1.3,2,1.4,1.7
		c2.7-0.3,3-1,5.1,0c2,1,5.1,1.4,1,2c-4.1,0.7-6.4,0.7-7.2,1c-0.9,0.3-0.5-0.7-2.9,1c-2.4,1.7-5.7,1-5.7,2.4s-4.1,1-2.4,2.4
		c1.7,1.4,3.7,2.4,1.4,2c-2.4-0.3-5.9-2-3,0.7c2.8,2.6,4.6,0.5,3.7,1.7c-0.9,1.2-4.4,3.4-1.7,2.7c2.7-0.7,2,0.7,4.1,0
		c2-0.7,1.5-2.5,2.7-0.7c1.2,1.9,2.4,0.7-0.3,2.4c-2.7,1.7-1.3,2.6-5.1,3c-3.8,0.5-3.7,1-6.4,2c-2.7,1-6.7,0.5-6.9,1.4
		c-0.2,0.8-2.9,3.1-3.9,2.4c-1.1-0.7-6.3,2.1-5.7,2c0.9-0.1,3.7-1.4,4.7-1.7c1-0.3,2,0.7,3.7-0.3c1.7-1,3.7-1.4,3.7-1.4
		s1.4-0.3,2-0.3c0.7,0,2.7,0,3.7-0.7c1-0.7,1.4-1.7,2.7-1.7c1.4,0,3.4-1,4.7-1.4c1.4-0.3,1.3-1,3-1.4c1.7-0.3,2.4-1.7,3.9-1.7
		c1.5,0,4.2-1,5.6-1.7c1.4-0.7,2.4-0.3,1.7-1c-0.7-0.7-1-0.3,0-1c1-0.7,3.4-0.6,5.4-2.4c2-1.7,3-1.2,4.1-1.7c1-0.5,3.4-1,3.7-1.4
		s2.4-0.3,2.4-0.3s-1.3,0.4-1,1c0.3,0.6,0.2,0.2-1.9,0.5c-2.1,0.4-6.9,1.7-6.4,2.6c0.1,0.3,0.2,0.4,0.2,0.5
		c-1.2,0.4-3.1,1.1-1.4,1.4c2.3,0.5,4.1-1.7,5.4-1.7c1.4,0,4.4-0.7,5.1-1.4c0.7-0.7,0.3-1.7,2-2c1.7-0.3,4.1-1.7,3.7-0.3
		c-0.3,1.4-1.4,0.3-0.3,1.4c1,1,0.3,1.7,3,1.7c2.7,0,3.1-0.3,4.4,0.3c1.3,0.7,2,1,2.7,1.4c0.7,0.3,1-0.3,2.4,2.4
		c0.8,1.6,1.7,1.2,2,0.9c-0.1,0.1-0.2,0.2-0.3,0.4c-1.4,1.7-3.7,3-1.7,5.7c2,2.7,1.4,2.7,2.4,4.4c1,1.7,0.8,1.5,0.7,3.7
		c-0.1,2.3,1.3,2.7,1,4.7c-0.3,2-0.3,0.3-1.4,2.4c-1,2-2-0.3-1,2c1,2.4,2.2,1.5,2.7,3.7c0.5,2.2-0.4,0.3-0.5,3
		c-0.1,2.8,0.8,2.7-1.2,5.7c-2,3-5.2,7.9-6.6,8.6c-1.4,0.7-0.4,2.1-1.5,4.2c-1.1,2.1-3.3,2.2-2.8,4c0.5,1.8,0.3,1.3,0,3.1
		c-0.4,1.8-0.9,3.1,0.2,4.1c1,1,1.4,0,0.7,1.4c-0.7,1.4-1-0.3-0.7,1.4c0.3,1.7-0.3-0.7,0.3,2c0.7,2.7,1.4,0.3,1,3
		c-0.3,2.7-1,2,0,2.7c1,0.7,1.4,0.3,3.7,2c2.4,1.7,2.9-0.1,2.7,2.4c-0.2,2.5,0.6,2.6,0.3,5.4c-0.3,2.8,0,2,0.3,3.4
		c0.3,1.4,1.2,1,1.7,3c0.5,2,2,2,1,3.4c-1,1.4-0.3,1-1.4,1.4c-1,0.3-2.7-1.4-1.4,0.3c1.4,1.7,1,1,3.4,2.7c2.4,1.7,2,1,2.4,2.4
		c0.3,1.4-0.1,1.8,0,3.4c0.1,1.5,0.7,0.9,1.7,2c1,1.1,2.4,2,2.4,3c0,1,1.4,2.4,1.4,0.7c0-1.7,0.7-0.3,0-2c-0.7-1.7-0.3-0.7-1-2
		c-0.7-1.4-0.8,1.9-1-0.3c-0.2-2.2-0.3-3.7-0.7-5.1c-0.3-1.4-0.1-1.4-0.7-2.4c-0.6-0.9-0.7-0.5-1-2.6c-0.3-2.1-0.7-2.4-1.4-3.8
		c-0.7-1.4-1.7-1.6-1.7-3.7c0-2.1-2-4.1,0.3-4.1c2.4,0,4.1-0.3,4.1,1.7c0,2,0.1,0.7,0.3,4.4c0.2,3.6,0,3.1,2.2,6
		c2.2,2.8,2.8,0.6,3.2,4.2c0.4,3.5,0.3,1.3,2.4,4.1c2,2.7,5.1,3.6,4.4,6.4c-0.7,2.8-0.1,2.7,0.1,4.4c0.2,1.7-2.1-0.7-0.4,3
		c1.7,3.7,2.7,5,6.2,6.9c3.6,1.9,3.6,2.6,7.6,4.3c4.1,1.7,5.7,3.4,8.8,2.7c3-0.7,4.7-2.7,7.4,0.3c2.7,3,4.4,5.4,8.8,6.1
		c4.4,0.6,5.5,0.7,6.8,2.7c1.3,2,4.4,3.7,4.1,5.4c-0.3,1.7-1,3.4,0,3.7c1,0.3,2.9-0.4,3.7,1.4c0.8,1.7-0.7,2.4,2,3
		c2.7,0.7,3.4,3,5.2,3.4c1.9,0.3,4.2,1.4,3.7-1.5c-0.5-2.9-1.9-2.5,1.2-2.5c3,0,3.6-1.5,4.1,1.4c0.5,2.8,0.6,2.5,1.5,5.6
		c0.9,3.1,0.6,3.2,0.2,6.2c-0.3,3,0.8,4.6-1.4,5.4c-2.1,0.8-1.7,2-2.7,3.4c-1,1.4-1.5,0.2-2.9,2.7c-1.4,2.5-2.5,4.4-2.5,6.4
		c0,2,0.9,0.8,1.7,3.7c0.8,2.9-1.9,1.7-2,4.7c-0.1,3.1-3.4,4.4,0.4,6.1c3.8,1.7,4.6,4.7,5.3,6c0.7,1.4,4.2,7.7,5.4,10.1
		c1.2,2.5,1.7,0.3,2.5,3.4c0.8,3.1-0.5,4.1,0.5,4.7c1,0.7,3.1,3.7,6.4,5.4c3.3,1.7,10.2,5.1,11,8.3c0.8,3.2,0.8,12.7,1.2,15.7
		c0.3,3,1.6,4.5,0.7,7.8c-0.9,3.3-0.1,3.8-0.7,7.1c-0.6,3.3-0.5,6.1,0.7,7.4s1.7,6.4,1,12.5c-0.7,6.1-0.7,7.9,0.3,11
		c1,3.2,0.3,1.5,0.7,5.2c0.3,3.7-0.3,7.5,1,7.6c1.4,0.1,0.3-7,1.7-4.3c1.4,2.7,1,1.3,2,6.1c1,4.7,3,6.1,0.7,6.4
		c-2.4,0.3-4.1-0.9-3,1.4c1.1,2.3,5,0.4,3,3.7c-2,3.3-2.7,1-1,3.7c1.7,2.7,1.4,4.1,3.4,6.4c2,2.4,2.4-0.7,3.4,1.7
		c1,2.4,1.1,3.3,1.7,4.4c0.6,1.1,6.1,2.7,8.1,3.7c2,1,5.2,2.8,7.8,3.4c2.5,0.6,4.1-1.7,5.4-1.7c1.4,0,3.7-0.8,1.7-0.7
		c-2,0.1-3-0.3-5.7-2c-2.7-1.7-4.5-2-5.4-4.1c-0.9-2.1-6.1-6.4-3.7-6.8c2.4-0.3,3.4,1,3-1.4c-0.3-2.4,0-3,1-4.1c1-1,1.6-0.6,1.4-2
		c-0.2-1.5-0.3-1.9-2.7-2c-2.4-0.1-3-0.3-3-2.4c0-2-1.7-2.4,0.7-3c2.4-0.7,2.7,1.4,2.7-2s-1.7-2.4,0-3.7c1.7-1.4,1.7-1.4,2.2-2.2
		c0.5-0.8-4.2-1.2-4.2-2.5c0-1.4-2.3-2.2-0.3-2.4c1.9-0.2,2.5,1.4,4.4,0.7c1.9-0.7,3.3,0.7,2.4-2c-0.9-2.7-2.4-3.6-1.4-4.7
		c1.1-1.2,4.1,1.7,7.8-0.7c3.7-2.4,4.5-2.8,4.6-4.9c0.1-2.2,1.7-1-0.6-2.5c-2.2-1.5-0.3-2.8-2.4-3.9c-2.1-1.1-2-1.2-2.7-3.5
		c-0.7-2.4-0.3-2.4-0.3-2.4s0.8,3.7,2.6,4.2c1.8,0.5,2.7,1.5,5.9,1.5c3.2,0,5.7-3.8,6.1-5.7c0.3-2,1-2.7,2-4.1c1-1.4,0.5,0.2,2-3.4
		c1.5-3.5,2-3.4,3-5.7c1-2.4,1.4-0.3,1-3.4c-0.3-3,0-5.4,0-6.4c0-1-1-0.7,2-2.7c3-2,5.4-3.7,7.4-4.4c2-0.7,6-0.4,8.3-3
		c2.3-2.7,0.3-2.7,2.5-7.1c2.2-4.4,3.2-7.8,2.7-11.8c-0.5-4-1.3-4.6-0.7-7.8c0.6-3.2,0.4-2.2,1.4-1.7c1,0.6,0,1.7,1.4-1.7
		c1.4-3.4,3.8-4.3,5.4-8.1c1.6-3.8,3.2-3.8,2.7-6.8C322.2,265.4,322.9,265.7,322,263.6z M88.9,64.9L88.9,64.9
		C89.1,65.1,88.9,64.9,88.9,64.9z"/>
	<path class="st0" d="M243.9,118.2c-0.1,0-0.3,0-0.5,0C243.6,118.4,243.8,118.3,243.9,118.2z"/>
	<path class="st0" d="M244,118c0-0.3,0,0-0.1,0.2C243.9,118.1,244,118.1,244,118z"/>
	<path class="st0" d="M261.9,100C262.8,100.4,261.7,99.5,261.9,100L261.9,100z"/>
	<path class="st0" d="M515.6,33.5c2,0.7,2,1.4,5.1,1.7c3,0.3,2.7,0.7,4.4,0.3c1.7-0.3,2.3,0.8,2,0c-0.3-0.8-3-1.2-3.7-1.7
		c-0.7-0.5-1.7-1-2-2c-0.3-1-0.3-1.7,0.7-2.7c1-1,1.4-1.7,1.7-2c0.3-0.3,1.2-1.5,1.2-1.5c1.5-0.2,0.8-1.2,3.2-1.5
		c2.4-0.3,3.6-1.4,5-1.4c1.4,0,2.3,0,3.7-0.5c1.4-0.5,2.2-1.1,1.7-1.5c-0.5-0.5-2,0.2-2.8,0c-0.8-0.2-1.2,0.3-2.9,0.7
		c-1.7,0.3-2.7,0.7-5.1,0.7s-2.8,0-4.6,0.7c-1.8,0.7-1.8,0.3-3.8,2.4c-2,2-1.7,3.4-2.4,3.7c-0.7,0.3-0.9,1.8-1.7,3
		C514.4,33.1,513.5,32.8,515.6,33.5z"/>
	<path class="st0" d="M510.8,39.6c1.6,0.6,2.4,1.7,3,0.7c0.7-1-1.4-1.7-1.4-1.7C511.5,38.6,509.2,39,510.8,39.6z"/>
	<path class="st0" d="M571.3,13.9c2.4,0.3,1.7,0,5.1,1c3.4,1,5.6,1.4,7.4,1.4c1.8,0,4.4,2,2.7,0c-1.7-2-1.7-2.7-3.4-2.7
		c-1.7,0-2.4-0.3-4.4-0.3c-1.4,0-1-1.4-3-1.7c-2-0.3-4.7,0-5.4,0.3C569.6,12.2,568.9,13.6,571.3,13.9z"/>
	<path class="st0" d="M589.9,18c1.4-0.3,3-0.9,5.2-0.8c2.2,0.1,2.9,1.1,2.2,0.1c-0.7-1-2.7-1.4-2.7-1.4c-3-1-4.1-1.7-5.1-1
		C588.5,15.6,588.5,18.3,589.9,18z"/>
	<path class="st0" d="M453.8,14.9c1.4,0.3,4.4,0.3,6.4-0.3c2-0.7,6.1-1,1.4-1.4c-4.7-0.3-8.4,0-8.4,0c-2.4-0.3-7.1-3-5.1-0.3
		C450,15.6,452.4,14.6,453.8,14.9z"/>
	<path class="st0" d="M440.2,18.6c3.4,2,2.7,1.4,5.1,2.7c2.4,1.4,1.7-1,3-2c1.4-1,2-2.7,2-2.7s2.4,1.4,5.4,3c3,1.7,1-0.3,3-2.2
		c2-1.9-4.1-0.2-6.1-0.8c0,0-6.1-1.7-8.4-3c-2.4-1.4-2.7,0.7-4.7,0.7c-2,0-3.7-0.3-5.1,0.9C433.2,16.4,436.9,16.6,440.2,18.6z"/>
	<path class="st0" d="M403.4,75.4c0.3,0.3,1-1,1.4,0.3c0.3,1.4,2,0.3,1.4,1c-0.7,0.7-2.4,1.4-1,1.7c0.9,0.2,1.9,0.3,2.6,0.3
		c-0.2,0.1-0.2,0.3,0.6,0.7c1.9,1,2.5-0.3,1.9,1.4c-0.7,1.7,2,2.4-0.3,2.4c-2.4,0-3.4-0.3-3.4,0.3c0,0.7,0.9,1.1,0.3,1.7
		c-0.6,0.6,1,0.3-0.7,1.4c-1.7,1-2.4,2.4-1,2c1.4-0.3,1.1,0.1,2.8,0.1c1.6-0.1,2.3-1.1,2-0.1c-0.3,1-1.9,0.6-3,1.4
		c-1.1,0.8-1.7,0.7-2,1.4c-0.3,0.7-3.1,2-1.2,1.7c1.9-0.3,1.8-0.2,3.5-1c1.7-0.8,1.6-0.8,3.4-0.7c1.8,0.2,1-0.7,3-0.7
		c2,0,2.4,0.3,3.7,0c1.4-0.3,2.6,0,2-0.8c-0.6-0.8-1.4-1.5-1-1.9c0.3-0.3,0,0,1-1c1-1,2-1.4,1-2c-1-0.7-1.7-1-2.7-0.7
		c-1,0.3,0,0-0.3-0.7c-0.3-0.7,0-0.7-1-2c-1-1.4-1-1.7-1.7-2c-0.7-0.3-1-0.7-1.4-1.4c-0.3-0.7,0-1.4-1.4-2c-1.4-0.7-1.5-0.1-2.4-0.3
		c-0.9-0.2-0.4-0.3-0.4-0.3l1.1-1c0,0,0.3-0.3,0.7-0.7c0.3-0.3,1-1,1-1.4c0-0.3,1-1,0.7-1.4c-0.3-0.3,1-0.3-1.4-0.3
		c-2.4,0-3.4,0.7-3.4,0c0-0.7,0.7-1,1-1.4c0.3-0.3,1.4-0.7,0.7-1c-0.7-0.3-1-0.3-2-0.3c-1,0-2.7,0.6-3,1c-0.4,0.4,0.7,0-0.3,1.4
		c-1,1.4-2.4,0.6-1.7,2.3C403.1,74.4,403.1,75,403.4,75.4z"/>
	<path class="st0" d="M396.3,80.5c-1,0-1.7-1-2,0c-0.3,1-0.7,0.3-0.3,1.7c0.3,1.4-0.3,0.7,0.3,1.4c0.7,0.7,0.7,0.7,0.3,1.4
		c-0.3,0.7,0.3,0.7-0.7,1.7c-1,1-3.1,1.6-1.3,2c1.8,0.4,3-0.7,4.3-1c1.4-0.3,1.4-0.3,3-1c1.7-0.7,2.4-0.7,2.4-1.9
		c0-1.2-0.3-2.9-0.3-3.2v-0.3c0.3-0.3,1.7,0.7,1.7-0.7c0-1.4,0-1.3-0.7-2c-0.7-0.7-1-0.3-2-0.7c-1-0.3-0.7,0-1.7,0
		c-1,0-2.3-0.7-2.2,0c0.2,0.7,0.2,0.3-0.2,1.4C396.7,80.1,397.3,80.5,396.3,80.5z"/>
	<path class="st0" d="M457.8,70c-0.7,0.3-1.7,0.3-1.4,1.4c0.3,1,0,1.4,0.3,1.4c0.3,0,0.7,0,1-0.7c0.3-0.7,0-1,0-1l0.3-0.3
		C459.1,69.6,458.5,69.6,457.8,70z"/>
	<path class="st0" d="M375.7,54.4c2,0.7,1.7,0.3,2.4,0.3c0.8,0.1,0.5-0.3,3.3-1.4c2.8-1,2-0.7,3-0.5c1,0.2,1.7-0.8,2.7-1.5
		c1-0.7,0.7-1,1.4-2c0.7-1-0.3-0.7-1.7-1.7c-1.4-1-1-0.7-2.4-1.4c-1.4-0.7-1.7,1-2,1h-3c-1.7,0-1.7,0.3-2.7,0.3c-1,0-1.7,0-1.7,1
		c0,1-0.7,0-2-0.3c-1.4-0.3-0.3-0.7-1.4-1.7c-1-1-1.7,0.3-3,0.7c-1.4,0.3-1.7,1.4-0.7,2c1,0.7,1.4-0.3,3-0.3s0.3,1-1,1
		c-1.4,0-2.2,0.7-2,1.4c0.2,0.7,1-0.3,1.7-0.3c0.7,0,1.4,0.7,1.4,0.7s-0.6,0.7-1.4,1.4c-0.8,0.7,0.7,0.3,2.4,0.3
		S373.7,53.8,375.7,54.4z"/>
	<path class="st0" d="M373,37.2c-0.7-0.3-0.7-0.5-3.7-0.6c-3-0.1-3,0.3-4.4-0.4c-1.4-0.7-3.4-1.4-1.4-1.4c2,0,2.9,0.5,3.7-0.3
		c0.8-0.9,1.2-1.5,2-0.3c0.8,1.2,0.2,0.8,1.9,1.4c1.6,0.6,4.2,1.4,3.9,0c-0.3-1.4,0-1.7-0.7-2.4c-0.7-0.7-1.4-1-2.7-1.4
		c-1.4-0.3-3-1.4-3-1.4s2-1.4,2.4-0.3c0.3,1,3,2.7,3.7,1.4c0.7-1.4,1.7-2.7,0.3-2.4c-1.4,0.3-4.1-0.3-3-0.7c1-0.3,2.4,0.7,3.4,0.3
		c1-0.3,1.5,1.7,2.4,0c0.8-1.7,0.3-2.7,1-2.4c0.7,0.3,4.4,0.7,3-0.3c-1.4-1-2.6-2.4-1.7-2c1,0.3,1.3,0.7,1-0.7
		c-0.3-1.4-0.3-0.3-2-1.4c-1.7-1-1.9-1.6,0-1.4c1.9,0.3,5.4,1.4,4.7,0c-0.7-1.4-2.7-0.7-2.7-1.4s-0.7-0.7,0.3-0.7
		c1,0,2.7-0.3,0.3-0.7c-2.4-0.3-2.7-0.7-1.7-1.4c1-0.7,2.2-0.7,3.8-1.5c1.6-0.8,0.3-0.2,2.6-1.2c2.4-1,3.3-2,4.5-2
		c1.2,0,3.1-0.3,4.4-1.1c1.2-0.8,1.6-0.4-0.1-0.6c-1.7-0.2-2.9-1.7-5.2-1c-2.2,0.7-1.2,2-3.3,1.7c-2.1-0.3-0.3-1.4-3-0.7
		c-2.7,0.7-1,0-3.4,0.9c-2.4,0.8-5.7,2.5-3.4,1.2c2.4-1.4,5.1-2,3.7-2.4c-1.4-0.3-1.4-0.4-3.4,0c-2,0.4-6.6,2-4.6,0.8
		c2.1-1.2,3.6-1.5,0.8-1.2c-2.8,0.3-12.8,1.8-10.1,0.7c2.7-1.1,18.3-0.7,18.2-1.2c-0.1-0.5-2-3.2-5.2-2.2c-3.2,1-6.7,0-8,0
		c-1.2,0-1.4-0.5-3.5-0.2c-2.2,0.2-3.7-0.8-5.6,0.2c-1.9,1-4.5-0.3-4,0.3c0.5,0.7,1.4,0.3,0.2,0.7c-1.3,0.3-0.6,0-3.3,0
		c-2.7,0-3.4-0.3-5.6-0.3c-2.2,0-5.9-1-4.5,0.3c1.4,1.4,3.6,3,1.4,2.4c-2.2-0.6-1.4-0.7-4.1-1c-2.7-0.3-4.9-1.4-4.5-0.3
		c0.4,1,2,2.5-0.6,1.7c-2.5-0.8-1.4-2-3.7-1c-2.4,1-1.7-0.3-3.7-0.3c-2,0-3.1,0.6-5.7,0.7c-2.7,0-3.5-0.4-5.1,0.3
		c-1.6,0.7-1.4,1-2.4,1c-1,0-1.4-0.7-3.6,0.3c-2.2,1-7.2,1-6.2,1.4c1,0.3,4.4-0.3,2.7,1c-1.7,1.4-4,2-5.1,2c-1.1,0-2.1,0.2-4,0.3
		c-1.9,0.2-1.9,0.2-3.4,0.3c-1.5,0.2-4.3-0.7-3.3,0.7c1,1.4,1,1.4,2.7,1.7c1.7,0.3,4.1-1.2,4.9-0.6c0.8,0.6,3.5,0.3,1.8,0.9
		c-1.7,0.7-3.7,0.9-5.5,0.7c-1.8-0.2-5-0.1-3.3,0.3c1.7,0.4,5.1,0,3.6,1c-1.5,1-2.3,2.4,1.3,1.7c3.6-0.7,3.8-0.7,5.6-0.7
		c1.8,0,1.6-0.9,4.7-0.3c3.1,0.6,4.1,1.7,4.7,2.4c0.7,0.7,0.7,2,1.4,3.7c0.7,1.7,2,1.4,1,2.4c-1,1-3.4,1.4-2.7,2.4
		c0.7,1,0.3,1.4,1.4,1c1-0.3,2-1,2.4-0.7c0.3,0.3,1,0,1.4,0.7c0.3,0.7,1.4,0,1.4,1c0,1,2.5,0.7,0.7,1c-1.8,0.3-2,0.2-2.7-0.1
		c-0.7-0.3-0.3,0.1-1.9-0.3c-1.5-0.3-2.9,0-2.5,0c0.3,0,2,1.5,3,1.6c1,0.1,2.4-0.6,2.7,0.1c0.3,0.7,0,1.4,0,1.7s0.7-0.3-0.3,0.7
		c-1,1-2,1.7-2,1.7s-4.2-1-2.9-0.2c1.2,0.8-0.1,0.5-0.8,1.2c-0.7,0.7-2,1.7-2,1.7s-0.2,0.5,0.1,0.8c-0.1,0.1-0.3,0.2-0.4,0.5
		c-0.7,1.4-1,1-0.7,1.7c0.3,0.7-0.3,0.3,0.7,1.4c1,1,1.4,0.7,1,2c-0.3,1.4-1.7,2.4,0,2c1.7-0.3,3-1.4,2.4-0.7
		c-0.7,0.7-2.4,0.7-2.4,1.4c0,0.7-1-0.3,0,1c1,1.4,1.7,0.3,1.4,1.7c-0.3,1.4-0.7,1,0.3,1.7c1,0.7-0.3,1.7,0.7,1.7c1,0,1-0.3,0.7,0.3
		c-0.3,0.7-1,0.3,0.3,1.4c1.4,1,2.7,0.7,2.7,0.7s-1.7,0.7,0.7,0c2.4-0.7,3.4-2,2.4-0.7c-1,1.4-1,1.4,0,2c1,0.7,0.3,1,1.7,1
		c1.4,0-0.5,0.5,1.7,0.3c2.2-0.2,1.3-1,1.7-1.4c0.3-0.3,0.7,0.3,1.7-1.4c1-1.7,1.4-1,1.7-2.7c0.3-1.7-1.4-2.7,0.3-2.7
		c1.7,0,1.7-0.3,2.7-1c1-0.7,3-1.3,1.7-2.4c-1.3-1.1-1.8-1.7-0.6-1.4l1.2,0.3c0.7,0,1.7-2.7,2.4-2.7c0.7,0,2.7-0.7,4.4-0.7
		c1.7,0,2.3,0.7,4.1-0.3c1.8-1,2.7-1.7,3.7-2c1-0.3,1.9-2,3.7-2.5c1.8-0.5,4.9-2.3,6.8-1.9c1.9,0.5,6.3-0.2,7.1-1
		c0.8-0.8,2.4-2.4,4.1-2.5C370.3,37.9,373.8,37.5,373,37.2z"/>
	<path class="st0" d="M244.3,56.5c0-0.7,0-0.3-1.4-0.3c-1.4,0-2-0.8-2.5,0.3c-0.5,1.2-0.9,1.9,0,1.7c0.9-0.2,2.5-1,2.5-1
		S244.3,57.1,244.3,56.5z"/>
	<path class="st0" d="M246.7,59.2c1.4-0.2,1,0.3,1.7-0.3c0.7-0.7,2-1.4,0.7-1.4c-1.4,0-2,0.7-2,0.7
		C246.7,58.5,245.3,59.3,246.7,59.2z"/>
	<path class="st0" d="M246.3,54.1c1.4,0.3,0.7,0.3,1.7-0.3c1-0.7,1.4-0.3,0-1c-0.5-0.2-0.8-0.3-1-0.2c0.2-0.3,0.5-0.6,0.6-0.8
		c0.3-0.3-1-0.7-1.7-1c-0.7-0.3-1.3-0.4-2-2c-0.7-1.6-1.4,1-1.7-0.3c-0.3-1.4-1.4,0.6-2.7,2c-1.3,1.4-1.4,1.6-2.5,2.4
		c-1.2,0.8-1.9,1-0.5,1.4c1.4,0.3,1.3-0.2,1.7,0c0.4,0.2-0.7,1,0.7,1.4c1.4,0.3,0.3-0.4,2-1c1.8-0.6,1-0.5,2.4-1.4
		c1.3-0.8,1-0.3,2,0.3C246.3,54.1,245,53.8,246.3,54.1z"/>
	<path class="st0" d="M252.8,54.8c0.7,0.7,2,0.8,1.7,0.3l-0.3-0.5C252.8,54.4,252.1,54.1,252.8,54.8z"/>
	<path class="st0" d="M292,46.7c0.7-1,2.4-0.7,0.3-1.4c-2-0.7-2,0-3-1c-1-1,0.1-0.5-1.4-1.7c-1.4-1.2-1.7,0-2.7-0.3
		c-1-0.3-2.4-1-2.7-1.4c-0.3-0.3,0.3-1,0.3-1s-0.3-0.2,0.7-0.3c0.9-0.1,2.4,0,2.4,0s-2-0.3-2-1c0-0.7,1.4-0.9,2-1c0.6-0.2,0-0.7-1-1
		c-1-0.3,0-0.7-0.8-1c-0.8-0.3-1.2,0-2.2,0c-1,0,0.1,0.1-1-1c-1.1-1.1-1-1.6-2.4-1.4c-1.4,0.3-1.7,1.4-2,0.3c-0.3-1,0.3-0.2-1-1.8
		c-1.4-1.6-1.4-0.9-2-0.9c-0.7,0-0.2-0.5-1.7-0.3c-1.5,0.2-1.5-0.5-2.4,0.7c-0.8,1.2-1.4,1.4-2.4,1c-1-0.3,0,0.3-1.4-0.3
		c-1.4-0.7-1.4-1.4-0.7-1.7c0.7-0.3,1.4-0.7,0.7-1.4c-0.7-0.7-0.5-0.7-1.6-0.7c-1.1,0-2.8,0-3.8,0.3c-1,0.3-2.4-0.3-3.4,1
		c-1,1.4-2.7,2.1-2,2.7c0.6,0.6,0.9,2.4-0.3,1.7c-1.2-0.7-1.7-1.2-1-2.4c0.6-1.2,0.7-2,2-2.4c1.4-0.3,3.3-1.3,3.4-1.5
		c0.1-0.3-2.3,0.1-3.4,0.2c-1.1,0.1-1.7,0.3-3,0.7c-1.4,0.3,0.3-0.3-2.7,1.4c-3,1.7-3,2-3.4,2.4c-0.3,0.3-1.9,0.3-1,1
		c0.9,0.8,4.2,1,3.4,1.4c-0.8,0.3-0.3,0.7-1.7,0.3c-1.4-0.3-2-0.7-2,0c0,0.7,0,1,1.4,1.3c1.4,0.3,2.7-0.7,3.7,0
		c1,0.7,2.7-0.3,4.1,0.3c1.4,0.7,1.4,1.4,3,1c1.7-0.3,2.4-0.7,3.4-0.3c1,0.3,3.7,0.7,3.4-0.3c-0.3-1,0.7-1.4,1.4-0.3
		c0.7,1,2.4,1.7,2.4,2.4c0,0.7-3.7,1.7-1.7,1.4c2-0.3,3.7,0.3,4.1,0.7c0.3,0.3,3.1,0.7,2,2c-1.1,1.3-3.1,1.1-1.7,2
		c1.4,0.9,0.6,0.1,2.7,0.7c2.1,0.6,5.3-0.3,2.7,0.7c-2.6,0.9-2.2,3.1-3.4,1.4c-1.2-1.8-0.3-2.7-2.4-2c-2,0.7-2.4,0-3.7,1.7
		c-1.4,1.7,0.7,1.4-1.7,2c-2.4,0.7-1,1.3-3.7,0.7c-2.7-0.7-1.3-1.3-3.4,0c-2,1.4-1.7,2-1.7,2c0.3,0,0.3,0.7,1.7,0.3
		c1.4-0.3,3.1-0.9,3.7-0.7c0.6,0.2,1.7-0.7,2-0.3c0.3,0.3,1.4,0,2,1c0.7,1,2.7,0.3,2,1.4c-0.7,1-1,0.7-0.7,1.4
		c0.3,0.7,0.3,0,1.4,0.7c1,0.7,2-0.3,2.7,0.7c0.7,1,1.4,1,3,1.7c1.7,0.7,2.7,1.4,3,0.7c0.3-0.7,1.4,0,0-1.4c-1.4-1.4-1.7-1.3-2.4-2
		c-0.7-0.7-1.7-0.3-1-1c0.7-0.7,1-1,2-0.3c1,0.7,1.7,1,2.7,1.7c1,0.7,1.7,0,1.7,0s0.3,0,1-0.7c0.7-0.7,2,1,1.4-1.4
		c-0.7-2.4,0.7-2-0.7-2.7c-1.4-0.7-2.4-0.7-2.7-1.7c-0.3-1,0.7-2.4,0.7-2.4s2.1-1.2,2.9-0.9c0.8,0.3,0.5,0.6,1.2,1.9
		c0.7,1.4,1,3,2,2c1-1,1.4-1.4,2.4-1.4c1,0,2.7-1.4,2.7-1.7C290.6,46.7,291.3,47.7,292,46.7z"/>
	<path class="st0" d="M240.3,30.5c1.7,0,1.9,0.6,3.4,0c1.5-0.6,0,0,3-1.4c3-1.4,3.8-0.5,3-1.4c-0.8-0.9-1.2,0.3-3-0.3
		c-1.8-0.6,0.1-1.9-2.4-1c-2.5,0.9-3,1-3.4,1.4c-0.3,0.3-1,0.3-2,1c-1,0.7-1.4,0.3-1.4,1s1.4,2,1.4,2
		C240.1,31.4,238.6,30.5,240.3,30.5z"/>
	<path class="st0" d="M228.1,28.8c0.3,1,1.2,2-0.1,1.9c-1.3-0.2-0.8,0.4-2-0.2c-1.2-0.6-3-0.7-1.7,0.3c1.4,1,1.8,0.5,2,1.4
		c0.3,0.9-2.4,2.4,0.7,1.7c3.1-0.7,4.4-0.7,5.1-1c0.7-0.3,1.7-0.3,2-1.4c0.3-1-0.7-1.7-0.7-1.7c1-0.7,2.7-1.4,2.7-1.4s1.4-1.3,0-1
		c-1.4,0.3-1.7,0.7-2.7,0.3c-1-0.3-1.5-0.6-3-0.2c-1.5,0.5,0,0.5-0.7,1.2C229.1,29.4,227.8,27.7,228.1,28.8z"/>
	<path class="st0" d="M224.4,38.2c-1,0.7,0,0-1.4,1c-1.4,1-1.3,1.5,0.3,1.4c1.6-0.2,3,1,4.1,0.3c1-0.7,0.3-0.8,1.7-1.6
		s0.3-2.1-0.7-1.5c-1,0.7-1.4,0-1.4,0v-0.3C226.1,37.5,225.4,37.5,224.4,38.2z"/>
	<path class="st0" d="M180.8,34.5c1.3-0.3,1.2,0.3,2.4-0.3c1.2-0.6,0.7,0.7,3.4-0.7c2.7-1.4,2.3-0.9,4.2-1.8c1.9-0.9,0-0.9,3.2-1.7
		c3.2-0.9,3.2-1.1,5.3-1.2c1.1,0,2.1,0.2,2.8,0.3c-0.7,0.2-1.2,0.3-2.2,0.5c-1.5,0.3,0.2-0.6-3.2,0.2c-3.3,0.8-1.5,1.2-3,1.7
		c-1.5,0.5-2.2-0.1-2.6,0.8c-0.4,0.9,0.9,0.2,1.3,0.9c0.1,0.2,0.4,0.2,0.6,0.2c-0.2,0.1-0.5,0.3-0.9,0.5c-2.4,1.4-4.4,0.8-2.4,1.4
		c2,0.5,4.4,0.3,5.7,0.3c1.4,0,2.9-0.7,3.1,0.3c0.3,1-0.5,0.6-2.8,0.7c-2.3,0.1-2-0.1-3.8,0.2c-1.9,0.3-3.3-0.2-3.1,0.8
		c0.2,1,1.3,2.1,2.5,1.7c1.2-0.4,3-1,2.4,0c-0.7,1-2.4,1.7,0.1,1.7c2.6,0,4.6-0.4,6.2-0.3c1.6,0.1,1.7-1.8,3.4-1.2
		c1.7,0.6,4.1-1.7,4.7-0.8c0.6,0.9,0.7,1.7,2.7,1.7c2,0,3,0,4.4-0.3c1.4-0.3,1.7-1,0.3-1c-1.4,0-0.3-1-0.3-1c1.4,0.3,1-0.3,2.4,0
		c1.4,0.3,2.7,1,2.7,0c0-1,0.7-0.7-1-1.4c-1.7-0.7-1.7,0.3-2.4-0.7c-0.7-1,0.3-1.7,0.7-2.4c0.3-0.7,0.3-1,0.7-1.7
		c0.3-0.7,0.7-1.4,0-2c-0.7-0.7,1-1.4-1.4-0.7c-2.4,0.7-1.4,0-2.4,1c-1,1-1.4,2.2-1.7,2.7c-0.3,0.5-2,1-1.7,0c0.3-1,1.4-1.3,0.7-2
		c-0.7-0.7-1-1-1.7-1c-0.7,0-0.7,1-1,1c-0.3,0-2.3,1.2-2.4,0.7c-0.1-0.5,0,0.5-0.1-0.5c-0.1-1,0-1.2-0.6-1.2c-0.5,0-2.4,1-3,1
		c-0.1,0-0.2,0-0.3,0c0.1-0.1,0.2-0.3,0.3-0.7c0.3-1.4,2.2-1.8,0.3-1.4c-0.3,0.1-0.5,0.1-0.7,0.2c0-0.1-0.1-0.3-0.3-0.5
		c-1-1.4-1-1.7-2.7-1.7H197c-2-0.7-2-1.4-3.9-1c-1.9,0.3-2.1-0.3-3.8,0.4c-1.7,0.6-1.4,0-2.6,1.2c-1.2,1.2-1.4,0.7-2.8,1.8
		c-1.4,1-1.7,1.7-3.1,2c-1.4,0.3-1.3,0.8-0.7,1.6C180.8,33.5,179.5,34.8,180.8,34.5z"/>
	<path class="st0" d="M197,22.7c1.7-0.1,2-0.7,3-0.3c1,0.3,1.4,0.7,2,0.3c0.7-0.3,0.8,0,2.4-0.7c1.6-0.7,4.1-2.4,3-1
		c-1,1.4-0.7,0.7,1,0.7c1.7,0,1.4,0,2-0.7c0.7-0.7-0.1-0.6,1.5-1.1c1.5-0.6,3.1-0.9,0.9-0.9c-2.3,0-3,0.6-3.7,0.5
		c-0.7-0.1-1.2-1.2-2.7-0.1c-1.5,1-1.6-0.2-3,0.7c-1.4,0.9-0.6,1-2.7,1.4C198.6,21.7,195.2,22.8,197,22.7z"/>
	<path class="st0" d="M211.9,21.3c-3.4,0.3-1.4,1.7-3.4,1.7c-2,0-4.7-0.3-3.4,0.7c1.4,1-0.4,1,2.4,1c0.8,0,1.2,0,1.6,0.1
		c0,0.1,0,0.2,0.1,0.3c0.7,1.4,1,1,2,1c1,0,1.7,0,3.7-0.3c2-0.3,0-0.7,3.4-0.7c3.4,0,4.1,0.7,5.7-0.3c1.7-1,4.1-1,2-1.4
		c-2-0.3-3.4,0.3-3-0.7c0.3-1,2.7-2,0.7-1.7c-2,0.3-4.1-1-3.7,0.7c0.3,1.7-2.1,3.6-3.4,2c-1.3-1.6-0.3-2.4-2-2.4
		C212.8,21.3,215.3,21,211.9,21.3z M212.9,24.4c-0.2,0-0.5,0.1-0.7,0.1C213.4,24.2,214.4,24.1,212.9,24.4z"/>
	<path class="st0" d="M219.3,19.3c0.7,0.3,1.7,0.1,1.7,0.1c1.4-0.1,2.4-0.5,3.7-1.1c1.4-0.7,0.7-1.7-0.7-1c-1.4,0.7-2.7,0.7-3.7,0.9
		C219.3,18.3,218.6,19,219.3,19.3z"/>
	<path class="st0" d="M226.1,17.1c1.9-0.6,4-0.9,2-0.8c-2,0.2-8.1-0.4-5.6,0C225.1,16.6,226.1,17.1,226.1,17.1z"/>
	<path class="st0" d="M232.8,23.4c1.7,0.7,1.7-1.4,2.4,0.2c0.7,1.5,0.3,1.9,2,1.2c1.7-0.7,1,0,2.7-1c1.7-1,5.3-1.9,2.7-2.4
		c-2.6-0.5-1.7-0.7-3.7-0.3c-2,0.3-0.3-0.1-1.7,0.7c-1.4,0.8-1,0.3-2.4,0.3c-1.4,0-2.4-0.7-2.4-0.7v0.3c-1.6-1-3-1.4-1.7,0
		C232.2,23,231.1,22.7,232.8,23.4z"/>
	<path class="st0" d="M232.5,20v-0.7c0,0-1-1.3-1-0.7C231.5,19.3,232.5,20.7,232.5,20z"/>
	<path class="st0" d="M217.3,18.6c1.4-0.3,2,0,1.4-0.3c-0.7-0.3-2-0.3-2-0.3C217,18.6,215.9,19,217.3,18.6z"/>
	<path class="st0" d="M219,28.1l0.7,1.7c0,0,1,0,2-0.7c1-0.7-1-1.4-1-1.4S218.3,26.4,219,28.1z"/>
	<path class="st0" d="M242.6,23.4c-0.3,0.9-3,0.9-0.7,1.6c2.4,0.7,4.1,1.4,4.4,0c0.3-1.4-1-1.4-1-1.4S243,22.5,242.6,23.4z"/>
	<path class="st0" d="M246.3,21.3c1,0.3,2.7,1,3.7,0.3c1-0.7,0.9-1.6-0.3-1.4c-1.3,0.2-3,0-3,0C245.3,20.7,245.3,21,246.3,21.3z"/>
	<path class="st0" d="M236.2,17.3h4.4c1.4,0.7-1,0.7,1.4,0.7c2.4,0,2.9,0.7,2.7-0.7c-0.2-1.4,1.3-1.2-0.7-1.4
		c-2-0.1-2.8-0.8-3.5-0.8c-0.7-0.1-2.5,0.2-2.9,0.2c-0.3,0-2.4,1-0.7,1.4C238.6,16.9,234.1,17.3,236.2,17.3z"/>
	<path class="st0" d="M267.3,29.4c0.7,1-0.4,1.1,1.8,0.5c2.2-0.6,1.8-0.3,3.6-0.2c1.8,0.1,2,0.7,1.4-0.3c-0.7-1-2.4-1.4-2.4-1.4h-1
		c-1,0-3-0.3-3-0.3s-1.7-0.3-1,0.7C267.3,29.4,266.6,28.4,267.3,29.4z"/>
	<path class="st0" d="M250.7,22.3c0.3,0.7-1.7,1.7-1.7,2.4s-1,0.3,1.7,0.7c2.7,0.3,2.7,0,4.1,0.3c1.4,0.3,4,0.3,5.7,0.3
		c1.8,0,2-0.7,3.4-0.3c1.4,0.3,0.7,0.3,2.4,0.3c1.7,0,3,0.3,3.4,0c0.3-0.3,0.3,0.3,1.4-0.7c1-1,3.1-1,1-1.7
		c-2.1-0.7-2.3-0.7-3.7-0.7c-1.4,0-2.1,0.2-4.1,0.3c-1.9,0.1-4.1,0.3-4.1,0.3c-1.1-0.1-0.7-0.3-2.7-0.3c-2,0-2.7,0.3-2.4-0.3
		c0.3-0.7,2,0.3,1-0.8c-1-1.2,1-1.2-1-1.2c-2,0-2,0-3.1,0.2C251,21.4,250.4,21.7,250.7,22.3z"/>
	<path class="st0" d="M254.8,14.9c2,0.3,5.7,0,5.7,0s-0.7,0.7-2,0.7c-1.4,0-3.7-0.7-2.4,0.7c1.4,1.4,3.7,1.4,3.7,1.4l0.7-0.3
		c0.3,0,1.7-0.3,2.7-0.5c1-0.2,1.4-0.5,3-0.8c0.6-0.1,1.2,0.1,1.7,0.3c-1.5,0.1-3.3,0.2-2,0.7c1.7,0.7,1.7,1,2.4,1.4
		c0.7,0.3,2.2,1,1.4,1h-2c-1,0,0.4-0.3-1-0.7c-1.4-0.3-2.7-1-3.4-0.3c-0.7,0.7,1,1,0,1.4c-1,0.3-1.2-0.1-2.7,0.3
		c-1.5,0.4-3.7,1-3,1.4c0.7,0.3,3.7,0.3,3.7,0.3h3.7c1,0,1.7,0.3,2.7,0c1-0.3,1.4-0.3,3-0.3c1.7,0,1.7-1.2,2-0.2
		c0.3,1,0.3,0.8,1.4,0.8c1,0,2.7,0,3.7-0.7c1-0.7,2-1,0.7-1c-1.4,0-1.4-0.7-0.7-0.7c0.7,0,2.4-0.7,2.7-1c0.3-0.3-1.6-1.5,0-1
		s0.3,1,2.4,0.7c2.1-0.3,1.1,0.1,2.7-0.7c1.6-0.8,2.4-1.4,1.7-1.7c-0.7-0.3-3.4-1-1.4-1c2,0,3.2,1,4.4,0c1.2-1,1.8-1.7,3.4-1.2
		c1.5,0.5,1.7,0.8,3,0.2c1.4-0.7,0.9-0.6,2.4-1s0.3-0.3,3-0.7c2.7-0.3,3.8-0.8,5.7-1c1.9-0.2,4.2-1.4,2-1c-2.1,0.3-4.4-0.7-1.1-0.5
		c3.3,0.2,3.5,0.1,5.5,0c2-0.1,3.7-0.1,2-0.8c-1.7-0.7,0.3-0.7-2.4-0.7c-2.7,0-4.7,0.3-5.7,0c-1-0.3,0.6-0.3-3.6-0.3
		c-4.2,0-3.9,0-6.6,0.3c-2.7,0.3-2,0.5-4.1,0c-2-0.5-0.3-1-4.4-0.3c-4.1,0.7-3.4-0.2-6.1,1c-2.7,1.2-2,0.1-4.1,0
		c-2-0.1-1-0.3-4.1,0.7c-3,1-4.2,0.2-5.4,0.4c-1.2,0.2-3-0.7-2.4,1c0.7,1.7,0.3,1,3.4,1.4c3,0.3,2.7,0.3,5.1,0.3
		c2.4,0,5.1-0.2,7.1-0.5c2-0.3,4.3-1,3.4-0.5c-0.9,0.5-1.8,0.9-3,1c-1.3,0.1-5.7,0-5.1,0.7c0.7,0.7,1.7,0.3,0.7,0.7
		c-0.2,0.1-0.3,0.2-0.3,0.2c-0.2-0.1-0.6-0.2-1.4-0.4c-2.9-0.7-6-1.9-5.7-0.7c0.3,1.2-1.5,2.2,0.7,2.2c2.2,0,5.6,0.7,3.7,0.7
		c-1.9,0-2.8,0.6-3.7,0.3c-1-0.3-2-0.3-3.2-0.1c0.1-0.1,0.1-0.3,0.1-0.5c0.3-2,0-2-1-2.4c-1-0.3-1.9,0.7-2.7-0.7
		c-0.8-1.4-0.3-1.7-2-1.7c-1.7,0-1,0.3-3,0.7c-2,0.3-2.4-0.3-4.1,1C254.8,13.9,252.8,14.6,254.8,14.9z"/>
	<path class="st0" d="M238.4,74.5c-1.3,1.1-2.5,2.5-0.5,1.5c2-1,2.7-0.3,3-1c0.3-0.7-2-0.3-2-0.3S239.7,73.4,238.4,74.5z"/>
	<path class="st0" d="M263.9,44.3c1.7-0.3,1.9-1,1.9-1c1.9-1,1.9-0.3,1.9-1.4c0-1-0.8-0.8-2-0.3c-1.2,0.5-2,0.7-2.7,1.4
		C262.2,43.6,262.2,44.6,263.9,44.3z"/>
	<path class="st0" d="M285.1,88.6C285.2,88.6,285.2,88.6,285.1,88.6L285.1,88.6z"/>
	<path class="st0" d="M284.9,100.7c0.3-0.2,0.3-0.3,0.3-0.4C285.1,100.5,284.9,100.6,284.9,100.7
		C284.8,100.7,284.8,100.7,284.9,100.7z"/>
	<path class="st0" d="M288.9,98.7c2-1.7,3.4-1,2-2c-1.4-1,1.4-1.1-1-1.9c-2.4-0.8-3,0.9-4.1,0.2c-1-0.7,0.7-1.7-1-1.7
		c-1.7,0-1-0.7-1-0.7c1.4-1.4,0.3,0.3,1.7-1.4c1.4-1.7,3-1.7,2-2c-1-0.3-2.7-0.3-2.7-0.3c-0.2,0.2-0.4,0.4-0.7,0.7
		c-1.7,1.7-1,0.7-2.4,2.7c-1.4,2,0,1-2,3c-2,2,0,1-1.4,2c-1.4,1-2.3,0.8-2.2,1.4c0.1,0.5-2.5,1.4,0,1.4h4.9c1.4,0,2.4-1.7,2.7-0.7
		c0.3,0.8,1.3,0.8,1.3,1c0.6-0.7,1.1-1.1,1.7-0.3c1.1,1.6-1.4,1.7,0.3,2.4c1.7,0.7,1.7,2,2.7,0c1-2,2.4-3,0.7-3.4
		C288.9,98.7,286.9,100.4,288.9,98.7z"/>
	<path class="st0" d="M284.9,88.9L284.9,88.9c0.1-0.1,0.2-0.2,0.2-0.2C285,88.8,284.9,88.9,284.9,88.9z"/>
	<path class="st0" d="M282.8,102.1c0.8-0.1,1.5-0.7,2-1.3C283.8,101.4,280.8,102.4,282.8,102.1z"/>
	<path class="st0" d="M269.7,105.1c2,0,3.4,0.7,2.7-0.3c-0.7-1-0.3-2-0.3-2c-1-1.3-0.6-1.2-1.4-0.3c-0.8,0.9-1.4,0.3-1,1.4
		C270,104.8,267.6,105.1,269.7,105.1z"/>
	<path class="st0" d="M264.3,103.4c0.3,1,0.3,2.4,1.7,1.4c1.3-1,0.3-1.4,0.3-1.4S263.9,102.4,264.3,103.4z"/>
	<path class="st0" d="M268,95.3c0.5,0.1,4.5,1.7,3,0.3c-1.4-1.3-2-1.7-2-1.8c-0.1-0.1-3.4-1.9-3-0.9C266.3,94,268,95.3,268,95.3z"/>
	<path class="st0" d="M310.5,38.2c1,0,1.4,0.3,2.7,0.3c1.3,0.1,2-0.4,1-0.7c-1-0.2-3.7-1.4-3.7-1.4l0.1,0.8
		C310.2,36.9,309.5,38.2,310.5,38.2z"/>
	<path class="st0" d="M247,17.6c1.4,0.7,0.2-0.3,2,0.7c1.8,1,2.5,1.4,2.9,0.8c0.4-0.5-0.5,0.5-0.5-0.5c0-1,0.6-0.6,0.6-1.2
		s-2-0.9-2-0.9C248.7,16.3,245.7,16.9,247,17.6z"/>
	<path class="st0" d="M216.6,184.5c1.8-0.7,1.7,0,2.4-0.7c0.7-0.7,2.4-0.7,0.5-1.4c-1.9-0.7-2.2,0.3-3.5-1c-1.4-1.4-1-1-2.4-1.7
		c-1.4-0.7-2.7-1.7-2.7-1.7s-0.9-1.3-2.4-1.4c-1.4-0.1-1.7-0.3-2.4-1c-0.7-0.7-0.7-0.3-2-0.7c-1.4-0.3-0.3,0-1.7-0.3
		c-1.4-0.3-0.2-0.3-2-0.2c-1.8,0.2-2,0.6-3.5,0.5c-1.5-0.1-1-0.3-2.4,1c-1.4,1.4-4.2,2.7-1.7,2.4c2.5-0.4,2.4-0.7,3-1
		c0.7-0.3,1.8-1.7,2.7-1.7c0.9,0,2-0.9,1.7,0c-0.3,0.9-2,0.7-0.3,1.4c1.7,0.7,2.8,0.1,4.1,0.7c1.2,0.6,0.8,1,2.4,1.2
		c1.7,0.2,1.3-0.8,2,0.8c0.7,1.7,1,1.3,2.4,2c1.4,0.7,2.7,0,1.4,1c-1.4,1-3.4,1.4-2,1.4h4.1C215.3,184.2,214.8,185.2,216.6,184.5z"
		/>
	<path class="st0" d="M228.8,189C228.1,189.2,229,189.9,228.8,189L228.8,189z"/>
	<path class="st0" d="M230.1,189c2.8,0.3,5,1.5,4.4-0.1c-0.6-1.6-1.4-1.2-2-2c-0.7-0.9-0.4-1.1-2-1.7c-1.6-0.6-1.7-1.7-3.7-1
		c-2,0.7-1.1,0.2-3,0c-2-0.2-1.8,0.9-1.4,1c0.5,0.2,0,0.7,0,0.7c1,0.6,1.7,1.3,1.4,2c-0.3,0.7,1.7,0.7-0.3,0.7c-2,0-2,0.3-3.4,0
		c-1.4-0.3-2.7,0.7-0.7,0.7c2,0,2,0.5,3.4,0.3c1.4-0.2,1.7-0.7,2.4,0.3c0.7,1,0,3.4,1.4,1.4c1.4-2,1.9-3.7,2.4-2.4c0,0,0,0.1,0,0.1
		C229,188.9,229.4,188.9,230.1,189z"/>
	<path class="st0" d="M211.9,189.1c-1.2-0.4-0.1-0.6-1.7-0.4c-1.7,0.2-2.7-0.2-1.7,0.8c1,1,1.7,1.4,2.7,1c1-0.3,2,1,2,0
		c0-1-1-1.4-1-1.4C212.1,189.2,212,189.2,211.9,189.1z"/>
	<path class="st0" d="M240,188.6l-1.2,0.1c-0.4,0.3-2.6,1.6-0.9,1.6h3c0,0,2.8-0.2,1.4-0.8C240.9,188.7,240,188.6,240,188.6z"/>
	<path class="st0" d="M196.4,179.1c0.3,0.3,0.3,1.7,1,0.7l0.7-1C197.4,178.1,196,178.8,196.4,179.1z"/>
	<path class="st0" d="M210.2,169.6c0.3,0.7,0.3,1.4,1,1c0.7-0.3,0.5-1.9,0.5-1.9S209.9,168.9,210.2,169.6z"/>
	<path class="st0" d="M211.6,171.7c0,0.7,0.8,2.7,1,1.4c0.2-1.4-0.3-2-0.3-2L211.6,171.7z"/>
	<path class="st0" d="M222.7,181.1c0.2-1.6-0.3-1.4-0.3-1.4c-0.7,0.7-0.7,1-0.7,1S222.5,182.7,222.7,181.1z"/>
	<path class="st0" d="M219.5,174.7l-1.2-1.4c0,0.7-0.7,0.3,0,1C219,175,220.7,176.1,219.5,174.7z"/>
	<path class="st0" d="M214.8,165.9c0.2-1.3-0.4-2.2-0.4-2.2c-0.4-0.4-2.8-2.1-1.4-0.8c1.4,1.4,0.7,1.8,0.7,2.3
		C213.6,165.6,214.6,167.2,214.8,165.9z"/>
	<path class="st0" d="M215.9,169.3c0.3-1-0.3-1.7-0.3-1.7S215.6,170.3,215.9,169.3z"/>
	<path class="st0" d="M217.6,170c0.1,1.2-0.8,1.4,0,1C218.4,170.6,217.6,170,217.6,170z"/>
	<path class="st0" d="M209.8,164.4c1.2-0.3,2.1-0.5,2.1-0.5l-0.3-0.3C210.9,163.6,208.6,164.7,209.8,164.4z"/>
	<path class="st0" d="M251.4,213.2c-0.3,0.7,0.5,1.7,1,0.7c0.5-1.1,0.3-2,0.3-2C252.1,212.2,251.8,212.6,251.4,213.2z"/>
	<path class="st0" d="M252.8,204.1c0,0-0.6,2.1,0,1C253.4,204.1,252.8,204.1,252.8,204.1z"/>
	<path class="st0" d="M253.4,200.7c0-0.7-0.7-0.7-0.7-0.7l0.3,0.3C253.1,200.7,253.4,201.4,253.4,200.7z"/>
	<path class="st0" d="M173,247c-1.7-0.7-3,0.3-3,0.3l1.4,0.3c-1.7,0.7-4.7,1.4-1.7,0.7C172.7,247.7,174.7,247.7,173,247z"/>
	<path class="st0" d="M71.7,34.7c0.9,0.4,0.2,0.1,2.3,0c2.1-0.1,2.6-0.1,3-0.5c0.4-0.4-1.7-1-1.7-1l-0.2,0.2c-1,0.1-1.3,0.1-1.7,0.3
		C73.1,33.8,70.8,34.3,71.7,34.7z"/>
	<path class="st0" d="M47.7,50c1.4-0.4,1.9-0.5,3.4-1.4c1.5-0.9,2.8-2.1,2.7-1.4c-0.1,0.8-2.1,0.7-0.9,1.2c1.2,0.5,3.2-0.7,3.2,0.1
		c0,0.9-1,1.7-0.3,2c0.7,0.3,1.3,0,1.5,0.5c0.2,0.5,0.7,1.8,2,1.2c1.3-0.6,0.5-1.2,2.2-1.7c1.7-0.5,2.5-1.5,3.4-1.7
		c0.8-0.2,1.2,0.9,2.9,0c1.7-0.9,3.1,0.5,3.7-0.9c0.6-1.5,0.9-1.9-0.2-2.5c-1-0.6-3.3-1.4-4.2-1c-0.9,0.3-1.9,2.7-1.9,1.7
		c0-1,0-1.4,0.8-2.2c0.8-0.8,1.2-0.9,0-1.7c-1.2-0.8-1.5-0.8-1.5-0.8c-0.7-1.2,0-1.4-1-1.4c-1,0-2.1,0.7-2.1,0.7s-0.6,0.3-2.6,1.7
		c-2,1.4-1.8,1.1-3,2c-1.3,0.9-1.6,1.4-2.7,2.1c-1.1,0.7-2.6,1.4-3.2,1.9C49.4,49,46.3,50.4,47.7,50z"/>
	<path class="st0" d="M64.3,55.1c-1.2-1.4-1.9-1.4-1.9-1.4c-1.2-0.3-1.3-0.6-2.4,0c-1.1,0.6-1.4,1-1.4,1s0.3,0.3,2.4,0.3
		C62.9,55.1,65.4,56.5,64.3,55.1z"/>
	<path class="st0" d="M57.5,63.6c-0.6,0-2.7-0.3-1.4,0.3c1.4,0.7,1.2,1,2,0.7c0.8-0.3,1.4-0.7,1.7-1C60.2,63.2,57.5,63.6,57.5,63.6z
		"/>
	<path class="st0" d="M83.2,68.6c-1.8,0-4.1,1.4-4.1,1.4c-0.3,0-0.4,0.6-1.6,0.6c-1.3,0.1-2.5-0.3-2.6,0.3c-0.1,0.7-2.4,1-0.4,1.4
		c2,0.3,3.6,0.3,4.3-0.3c0.7-0.6,1.1-1,2.8-1.7C83.2,69.7,85,68.6,83.2,68.6z"/>
	<path class="st0" d="M39.8,80.5c-1.4-0.2-2.9,0.6-3.6,1.1c-0.6,0.5-1.7,1.2-1.7,1.2s0,0.3-1,0c-1-0.3-0.7,0-1.7,0.3
		c-1,0.3-3.3,0.5-2.4,0.9c0.8,0.4,1.2,0.3,2.5,0c1.3-0.3,2.5,0.1,3.4-0.6c0.9-0.7,1.3-1.3,2.6-1.7C39.2,81.4,41.2,80.7,39.8,80.5z"
		/>
	<path class="st0" d="M15,86.2c-0.8,0.1-2.7,0.7-1.4,0.7s1.1,0.1,1.7,0C15.8,86.8,15,86.2,15,86.2z"/>
	<path class="st0" d="M7.1,87.2L7.1,87.2c0,0-0.1,0-0.2,0c-1.2,0-3-0.3-1.7,0.3c1.4,0.7,2,1,2.5,0.7C8.2,87.9,7.1,87.2,7.1,87.2z"/>
	<path class="st0" d="M116,81.1c-1.2-0.3-1-0.7-1.7,0c-0.7,0.7-0.7,1.4-0.7,1.7c0,0.3,0,0-0.3,0.7c-0.3,0.7,1,1,0.7,1.7
		c-0.3,0.7,0,2.7,0.3,1c0.3-1.7,0.7-2.4,0.7-2.7v-0.3c0.7-0.9,2.4-1.4,1.7-1.7C116,81.1,117.1,81.5,116,81.1z"/>
	<path class="st0" d="M438.6,118c0.3,0.7,0.4,0.8,0.7-0.3c0.3-1.1,1-1.4,0.7-2c-0.3-0.7,0-1.7-0.7-1.4c-0.7,0.3-1.4,0.9-1.4,0.9
		c-0.3,0.5-1.1,1-0.6,1.5C437.7,117.1,438.2,117.3,438.6,118z"/>
	<path class="st0" d="M436.5,121c0.7,0.6,1,0.3,1,1.7c0,1.4-0.3,1.4-0.3,2c0,0.7-0.4,1.1,0.7,1c1,0,0.7-0.9,1.5-0.6
		c0.8,0.2,1.5,0.3,1.4-1.1c-0.2-1.4,0.5-1.4,0-2.5c-0.5-1.2,0-2.4-0.8-2.2c-0.9,0.2-1.7,0.8-1.7,0.8
		C437.1,120.3,435.9,120.4,436.5,121z"/>
	<path class="st0" d="M423.4,124.4c0.7-0.3,0,0.3,1,0.7c1,0.3,0.7-1,0.3-1.4c0,0-1.3-0.3-2.1,0C421.7,124,422.7,124.7,423.4,124.4z"
		/>
	<path class="st0" d="M426.9,122.5c0,0-1.2,0.2-1,0.4c0.2,0.2,0.7,0.3,0.7,0.3C426.7,123.4,426.9,122.5,426.9,122.5z"/>
	<path class="st0" d="M477.5,137.3c0.3,0.2,1.1,0,1.7,0.6c0.6,0.6,0.5,0.3,1.5,0.3c1,0,1.1,0.3,1.8,0c0.7-0.3,1.7-0.3,0.3-0.7
		c-1.4-0.3-0.9-0.7-2-0.7h-1.4c-1.4,0-0.4,0.3-1.4,0c-1-0.3-1.9-1.4-1.7-0.3C476.6,137.5,477.2,137.1,477.5,137.3z"/>
	<path class="st0" d="M500.5,139.2c0.6-0.3,1.2-0.8,1.8-1.4c0.6-0.6,2.4-1.5,1.3-1.2c-1.1,0.3-1.2,0.6-1.9,0.6s-1.7-0.3-1.7-0.3
		c-0.3,0.7-1,0-1,1C499,138.9,499.9,139.6,500.5,139.2z"/>
	<path class="st0" d="M487.2,134.8c0.4-0.3,0-0.8,0-0.8c-0.5,0.5-1,0.1-0.6,0.8C486.9,135.5,486.8,135.1,487.2,134.8z"/>
	<path class="st0" d="M675.7,194c1,1,2.2,5.7,2.8,7.1c0.6,1.4,0.9,1.7,1.6,3.4c0.7,1.7,0.7,3,1,5.1c0.3,2,0,2.7,0,4.4
		c0,1.7,0.2,0.8-0.2,3c-0.4,2.1-1.3,5.2,0.1,4.3c1.3-0.9,1-1.4,1.9-0.2c0.8,1.2,1.4,1.7,2,2.7c0.7,1,2,2.4,2,4.1c0,1.7,1,4.1,1,4.7
		c0,0.7,1.4,3.6,2,4.1c0.7,0.5,2.8,2.7,3.7,3c0.9,0.4,3,1.7,3.4,1.4c0.3-0.3,1.1-0.3,0.6-1.7c-0.6-1.4-2.3-3-2.3-4.4
		c0-1.4-0.7-1-0.3-2.7c0.3-1.7,1-1.4-0.2-2.7c-1.1-1.3-3.5-2.7-4.2-4.1c-0.7-1.4-1.7-0.5-2.3-1.2c-0.7-0.6-0.4,0.2-1.4-2.2
		c-1-2.4-0.3-1.4-1-3c-0.7-1.7-0.7-1.7-1.7-2c-1-0.3,0,0-0.7-1.7c-0.7-1.7,0.2-4.1,0.4-5.4c0.2-1.4,0.9-0.5,0.6-2.9
		c-0.3-2.5-1-3.1,0.3-3.1c1.3,0,1.7-0.1,2,2.4c0.4,2.5,3-0.4,3.4,0.3c0.3,0.7,0.7,0.7,1.7,2.1c1,1.4,0.5,1.5,1.3,2.4
		c0.9,0.8,1.4,0.7,2,1.7c0.7,1,1.7,0,2.4,1.4c0.7,1.4,1.1,1.9,0.7,3c-0.4,1.1,1.1,1.5,1.7,0.3c0.6-1.2,3-0.6,3-2.3
		c0-1.7,0-2.7,1.7-2.5c1.7,0.2,2,0.3,3-1.2c1.1-1.5,1.4-0.3,1.4-3.4c0-3,0.5-1.6,0-4.7c-0.5-3.2-0.3-2.4-2-4.7
		c-1.7-2.4-2.4-3.4-3.7-4.6c-1.4-1.3-3-2.1-3.4-2.8c-0.3-0.7-1.1-0.6-1.7-2c-0.6-1.4-1-3.4-1-4.1c0-0.7,1-2,1.4-2.7
		c0.3-0.7,1-2.4,2.7-2.7c1.7-0.3,2-1.7,3.7-0.3c1.7,1.4,1.7,2.7,2.4,3.4c0.7,0.7,2,1.4,1.7,0.3c-0.3-1-0.7-1.7-0.7-2.4
		c0-0.7,6.5-1.9,7.8-2.7c1.3-0.8,3.2-1.9,5.7-2.4c2.5-0.4,4.1-2.7,5.1-4.4c1-1.7,2-1.7,2.7-4.1c0.7-2.4,0-2.7,1-5.1
		c1-2.4,1.4-3.4,1.4-3.4s1-3.6,1-4.7c0-1.2-1.7-0.7-2.4-1c-0.7-0.3-2.4,1.4-1.4-0.3c1-1.7,2.8-1.5,2-2c-0.8-0.5-2-0.7-1.7-1.7
		c0.3-1,1.6-0.4-0.3-1.7c-1.9-1.3-1-0.3-1.9-1.3c-0.9-1-3-4.2-3.8-4.9c-0.8-0.7-2.1-0.9-3.1-1.9c-1-1,0-3.4,0.3-3.7
		c0.3-0.3,2.4-1.7,3.4-2.7c1-1,3.1-1.2,1-1.7c-2.1-0.5-3.3-0.3-4.1-0.7c-0.8-0.4-1.3,0-2.7,1c-1.4,1-3.1,0.1-2.7-1
		c0.4-1.1,0.9-0.9-0.7-1.4c-1.5-0.4-2.4,0.1-3-0.4c-0.7-0.6-2.9-1.7-1.7-2.6c1.2-0.9,1.7-0.1,2.5-0.3c0.7-0.2,2.7-2,2.7-2.9
		c0-0.9,0.6-2.8,1.3-2.5c0.7,0.3,3,1.7,2.9,2.4c-0.2,0.7-0.8,1-0.5,1.7c0.3,0.7,1,0.7,0.7,1.7c-0.3,1,0,1.4,1.4,0
		c1.4-1.4,2.9-2,4-2.2c1.1-0.2,2.8-0.4,3.4,0.7c0.7,1.1,1,2.5,1,3.1c0,0.7-0.3,2,1.7,2c2,0,4.6,0.5,3.9,1.8
		c-0.6,1.3-0.6,1.2,0.4,2.2c1,1,2.4,1.4,2,2.4c-0.3,1,0.3,3.4,1.4,3.7c1,0.3,2.4-1,3-1c0.7,0,2,2,2.4-0.3c0.3-2.4,0.8-2.6-0.7-4.7
		c-1.5-2.2-3.4-3.8-4.4-4.7c-1-1-4.5-1-4.7-3.4c-0.2-2.3-1-2.7,0-2.7c1,0,2-0.6,2.2-1.8c0.2-1.2-0.1-3.7,0.2-4.6
		c0.3-0.9,0.3-2.4,1.7-2.7c1.4-0.3,0.3,0.3,2,0.7c1.7,0.3,4.1,0.7,4.7-1.4c0.7-2,0.9-3.4,1.5-5.1c0.6-1.7,1.6-1.4,0.9-3.7
		c-0.7-2.4,0-4.4,0-5.7c0-1.4-1.3-4-2.4-5.4c-1.1-1.4-3.4-6.4-4.1-7.1c-0.7-0.7-0.2-2.1-2-2.7c-1.8-0.6-2.4-1.4-4.4-2
		c-2-0.7-4.1-2-3.7-0.3c0.3,1.7,1,2.4-0.3,1.7c-1.4-0.7-1.7-1.7-2.7-1.4c-1,0.3-1.4-1.7-3-1.7s-3.7,2-3.4-0.3c0.3-2.4,0-1.4,1-2.8
		c1-1.4,0.4-2.9,1-4c0.7-1,1.3-0.3,1.3-2.4c0-2,0-4.6,1.7-4.5c1.7,0.1,4.4,1.8,7.1,0.8c2.7-1,5.2-1.7,6.5-1.4c1.3,0.4,3.3,0,5.3,1
		c2,1,5.8,2.2,5,0.3c-0.8-1.9-2.2-1.9-1.7-4.1c0.5-2.3,1.1-2.9,3.2-2.9c2,0,3-1,4.4,0.7c1.4,1.7,3,4.4,3.5,2s-0.8-2.4,0.5-3.7
		c1.4-1.4,1-0.7,2.7,0.7c1.7,1.4,3.5,0.8,2,3c-1.5,2.3-1.4,5.4-1.8,6.4c-0.4,1-2.9,1.4-1.5,3.3c1.5,1.9,1.5,3.5,3.6,5.4
		c2.1,1.9,6.2,5.4,6.8,5.9c0.5,0.4,4.4,2.6,5.4,4.1c1,1.5,2.7,3.9,3,3.2c0.4-0.7,1.4-2,0.3-3.7c-1-1.7-2.4-3.5-1-3.4
		c1.4,0.1,1.7,0.4,1-0.3c-0.7-0.7-2.1-1.6-1.5-2.7c0.7-1.1,2.3-0.3,1.9-1c-0.3-0.7-0.2,0.5-1.6-1.4c-1.4-1.9-3.9-3-1.9-2.7
		c2,0.3,3.6,0.8,2.4-0.2c-1.2-1-2.4-0.8-3.4-1.8c-1-1-1.1-1.4-1.4-2c-0.3-0.7-1.3-0.6-2-1c-0.7-0.4-2-1.4-2.5-1.7
		c-0.5-0.3,0.8,0-0.5-1.7c-1.4-1.7-2.4-3-0.3-2.7c2,0.3,1.4-1.7,3-0.7c1.7,1,1.4-0.5,2.7-0.3c1.3,0.1,4.4,0.7,5.7,0.7
		c1.4,0,0.3,0.3,1.4-1c1-1.4,0.9-4.1,2.6-4.5c1.6-0.3,1.9-1.5,3.9-1.2c2.1,0.3,4,1.6,4,0.9c0-0.7-1.4-2-3-2.7c-1.7-0.7-2.4-1-4.4-2
		c-2-1-4-0.2-4-0.2s-1.8-2-0.7-1.8c1.2,0.2,3.5,1.2,3.4-0.3c-0.1-1.5-4.2-3.7-5.4-4.4c-1.2-0.7-5.2-4.3-7.1-5
		c-1.9-0.7-6.1-2.1-7.1-2.4c-1-0.3-5.4-1.4-7.1-1.4c-1.7,0-5.6,0.7-6.6,0.2c-1-0.5-6.6-2.2-4.9-0.8c1.7,1.4,5.4,1.4,4.1,2.4
		c-1.4,1-1.6,0.5-3.3,0.2c-1.7-0.2-3.5,0.2-3.1-0.9c0.4-1.1-1-2.7-1.7-1.4c-0.7,1.4-1.2,1.4-3,1.2c-1.7-0.2-3.1-0.5-4.5-0.5
		c-1.4,0-3.4-0.7-3.4,0.3c0,1,0.7,2.4-0.3,1.4c-1-1-1-0.7-3-1.4c-2-0.7-4.1-2.5-5.4-2.8c-1.3-0.3-3.3-1-4.7-1.2
		c-1.4-0.2-6.6,0.7-9.5,0.5c-2.9-0.2-4.6,0-6.7-1.2c-2.1-1.2-4.7-2-7.1-2c-2.4,0-5.3-0.6-7.4-0.8c-2.2-0.2-6.8-0.9-7.1-0.3
		c-0.3,0.7-0.9,0.6,0.7,2c1.6,1.4,2,2.4,1.2,1.9c-0.9-0.5-0.9-1.5-2.9-1.2c-2,0.3-1,0.7-3,0.3c-2-0.3-1.2-0.5-3.7-0.3
		c-2.5,0.1-4.1,0-4.8-0.3c-0.7-0.3-0.7,0.3-0.3,1.5c0.3,1.2,2.1,1.7,0.3,1.2c-1.8-0.5-2.4-0.7-4.1-1.4c-1.7-0.7-2.2-1.3-3-2.4
		c-0.8-1.1-0.7-1-2.7-1.7c-2-0.7-2.4-0.7-3.4-1c-1-0.3-3.4-0.1-4.7-0.7c-1.3-0.6-5.1-2-4.4-0.7c0.7,1.4,2,2.6,0.9,2.5
		c-1.1,0-0.9-0.5-2.6-0.5c-1.7,0-2.8-0.6-4.1-0.3c-1.2,0.3-1.7-0.3-3.7-0.7c-2-0.3-1.5,0-3.4-0.3c-1.9-0.3-3.7,0.7-5.1,0.3
		c-1.4-0.3-1.5-0.6-2.2-0.9c-0.7-0.3-2.2,1.2-2.8,0.6c-0.6-0.7-0.2-2.7-2.5-1c-2.3,1.7-2.3,1.7-4,1.4c-1.7-0.3-0.3-0.7,1.4-1.7
		c1.7-1,3.6-0.1,3.7-2c0.1-1.9,1.1-1.9-1.3-2.9c-2.4-1-2.8-1.2-5.1-1.2h-5.3c-1.8,0-2.1,1.4-3.5,0.3c-1.3-1-1.7-0.3-2.7-1
		c-1-0.7-0.3-1.4-2.4-1.4c-2,0-3-1.4-4.7,0c-1.7,1.4-0.5,1-2.3,2c-1.8,1-1.8,1-3.4,1.4c-1.7,0.3-1.2-0.5-4.1,0
		c-2.8,0.5-4.4-0.7-6.4,0.3c-2,1-4.4,0.7-4.7,2.4c-0.3,1.7,2.8,2.5,0.4,2.7c-2.4,0.2-2.4,0-4.1,0.2c-1.7,0.1-0.7-0.2-3,0.5
		c-2.4,0.7-3.8,0.4-2.4,1c1.4,0.6,3.5,2.5,4.9,2.7c1.4,0.2,3.2-0.3,3.9,1c0.7,1.4,4.1,3,2.4,2.7c-1.7-0.3-1.2-1.7-3.4-2.4
		c-2.2-0.7-2.4-0.7-4.7-1.2c-2.4-0.5-2-1.1-4.4-0.8c-2.4,0.3-7.1,0-4.4,0.7c2.7,0.7,4.6,1.4,3,1.7c-1.6,0.3-1.3,0.7-2.7,0.2
		c-1.4-0.5-0.7,0.5-2-1.5c-1.4-2-1.7-3.4-1.4-2c0.3,1.4-0.2,1.7-1.4,2c-1.1,0.3-1,0.7,0,1.4c1,0.7,2.7,0.3,2.7,1.7
		c0,1.4-0.7,1.7,0.3,2.4c1,0.7,1.3,1.7,2.4,1.7c1.1,0,0.7-0.5,2.9-0.3c2.2,0.3,3.5,0.6,4.2,1c0.7,0.3,0.5,1.2,1.4,1.7
		c0.9,0.5,3.7,1,2.4,1.4c-1.4,0.3-1,1.7-2.4,0c-1.4-1.7-1.7-3.4-3.4-3.4c-1.7,0-4.1-0.7-3.4,0.3c0.7,1.1,1.4,2,1.2,3
		c-0.2,1.1,0.2,1.7-1.2,2.7c-1.4,1,0.3,0.7-2.7,0.7c-3,0-3.4,0.3-3.7-0.3c0,0,0-0.1-0.1-0.1c0.2,0,0.6,0,1.4-0.2
		c2-0.7,2.4-1,2.7-2.4s1.4-2.3-0.3-2.9c-1.7-0.6-2-1.1-3.1-2.8c-1-1.7-1.4-2.4-2.4-3c-1-0.7-1.9,0.3-2-1.4s0.2-3.4-0.9-3.4
		c-1.1,0-3.1,0.3-4.3,0c-1.2-0.3-2.6-0.8-2.2,0c0.4,0.8,1,3-0.3,3.4c-1.3,0.3-3,0.6-1.3,1.4c1.7,0.7,0.7,0.7,2.4,2
		c1.7,1.4,1.4,1.4,2.7,1.7c1.3,0.3,3.4,0.3,3,1.7c-0.3,1.4,1.7,3-1,1.7c-2.7-1.4-3.7-2-5.7-2.4c-2-0.3-1.6-0.3-4.1-1
		c-2.5-0.7-0.8-0.7-3.9-0.7c-3.2,0-7.9-3-7.2-1.7c0.7,1.4,2.1,0.5,3,2c1,1.5,2,0.3,2,1.4c0,1,1.4,2.6-1.4,1.5
		c-2.7-1.1-2.4-0.8-4.4-0.5c-2,0.3-3,0-4.7,0.7c-1.7,0.7-2.7,0.5-2.7-0.7c0-1.2,0.3-1-2.4,0c-2.7,1-2.4,0.2-5.1,1.8
		c-2.7,1.6-1,2.9-3.7,2.9s-5,0.7-4.2-0.8c0.8-1.5,2-0.6,2.2-1.5c0.2-0.9,0.9-1.4-1.7-1.7c-2.6-0.3-3.5-2.2-4.1-1
		c-0.6,1.1,2,2.5,1.5,3.5c-0.5,0.9,0.8,1.9,0.8,2.6c0,0.7,0,2-1.7,1c-1.7-1-2.4-0.3-3.4,0c-1,0.3-1.7-0.7-2.5,0.5
		c-0.8,1.2,2.8,2.3,1.2,2.9c-1.7,0.6,0.7,0.8-2.6,0.2c-3.4-0.6-4.1-2.5-4.5-1.2c-0.3,1.4,0.7,2.7,1.4,2.4c0.7-0.3,2.7,0.7,1.7,1
		c-1,0.3-2,1-3.7,0c-1.7-1-0.7,0.7-2.4-1c-1.7-1.7-1.7-1-2-2.4c-0.3-1.4,1-1.7-1-2.4c-2-0.7-1.7,0-3-1c-1.4-1-2.2-0.2-2-1.7
		c0,0,4.4,0.7,5.7,1.4c1.4,0.7,9.8,2.4,11.1,0.7c1.4-1.7,1.7-2.4-0.3-3.4c-2-1-6.2-2-7.6-2.7c-1.4-0.7-7.6-0.7-9-1.5
		c-1.4-0.8-0.7-1.9-1.9-1.7c-1.2,0.2-0.5,1.2-1.9,0.8c-1.3-0.3-4.7,1-3.4-0.3c1.4-1.4,2-1.7,1.4-2c-0.7-0.3-1-1-3-0.7
		c-2,0.3-0.7-0.3-2-0.3c-1.4,0-1.3,1-2.7,0.3c-1.4-0.7,2.7-1.4-1.7-0.7c-4.4,0.7-3,0.3-5.4,1.4c-2.4,1-3.4,1-5.1,1.7
		c-1.7,0.7-2,0.3-3.7,1.7c-1.7,1.4-0.3,0.7-3,2.4c-2.7,1.7-1.4,0.7-3,2.7c-1.7,2-1.7,2.7-2.7,3.7c-1,1-1,1.4-2,2.4
		c-1,1,0.7,1.4-1,1.7c-1.7,0.3-0.7,1.4-3,1.7c-2.4,0.3-0.7,1.7-3,2c-2.4,0.3-2.7,0-4.1,1.7c-1.3,1.7-3.3,2.5-2.4,3
		c0.9,0.6,0,2,0.7,3c0.7,1,0.7-0.7,1,0.7c0.3,1.4-0.3,1-0.3,2c0,1-2.5,1.8,0,2c2.5,0.2,1,2.4,3.4,1.4c2.4-1,3.4-1.4,4.4-2
		c1-0.7,1.7-1.7,2.7-1.4c1,0.3,1-0.3,1.7,1.4c0.7,1.7,0.3,0.3,1.4,2.4c1,2,2.7,4.1,2,4.7c-0.7,0.7,0.7,0.3-1,1
		c-1.7,0.7-3.7,0.7-2.7,1c1,0.3,0.7,2,2,1.7c1.4-0.3,2.4-0.7,2-1.4c-0.3-0.7,0-2.4,0.3-1.7c0.3,0.7-1,1.7,0.7,1.7
		c1.7,0,2.3,0.2,2.7-0.7c0.4-0.9-1-0.7,0.7-1c1.7-0.3,1.3,0,2.7-0.3c1.4-0.3,1.4,0.3,1.4-1.7c0-2-0.3-1.7,0-3.4
		c0.3-1.7-0.3-1.7,1-2.4c1.4-0.7,1-0.3,2-1.4c1-1,2.7,0,1.4-1.4c-1.4-1.4-1.4-2-2.4-2.4c-1-0.3-1.4,0.7-1.7-0.7
		c-0.3-1.4-0.7-1.7-0.3-3c0.3-1.4,1.7-3,3-3.7c1.4-0.7,3-0.5,3.4-1.4c0.3-0.9,1-1,1-1.7c0-0.7-0.3-1.4,0-2c0.3-0.7,0.3-1.4,1.7-1.7
		c1.4-0.3,0.7-0.7,2.4-0.3c1.7,0.3,2,0,2.7,0.7c0.7,0.7,1.3-0.2,0.7,1.4c-0.6,1.5,0,1.4-1.4,2c-1.4,0.7-1.4,0.7-2.7,1.7
		c-1.4,1-1.7,0.3-2.4,1.7c-0.7,1.4,0,1.4,0,2.4c0,1,1.6,0.7,0.7,2.7c-0.9,2-0.3,2.4,0.7,2.4c1,0,0.8,0.1,3,0.3
		c2.2,0.3,2,1.4,3.7,0.7c1.7-0.7,3.7-0.7,5.2-1c1.5-0.3,1.2-1.4,2.9-0.3c1.7,1,2.4,1,2.7,1c0.3,0,0.9,0.2,0.9,0.6
		c0.1,0.4-0.9,0.1-2.3,0.4c-1.4,0.3-1.2,1-2.4,1c-1.2,0-0.8-0.1-2.4-0.2c-1.6-0.1-1.5-0.9-2.6-0.5c-1.2,0.5-1,0-2.4,0.7
		c-1.4,0.7-2.4,0-1.7,1.4c0.7,1.4,0.3,2,1.3,2c1,0,1.4,0.3,1.4,1c0,0.7,0.7,1.6,0,2c-0.7,0.4-0.3,1-1.4,0.7c-1-0.3-0.7-0.7-1.3-1
		c-0.7-0.3-1-1.4-1.4-1.4c-0.3,0-2,0.3-2,0.7c0,0.3,0.1,0.1-0.3,1.7c-0.5,1.6-1.4,0-0.5,1.6c1,1.6,0.8,2.1,0.5,2.8
		c-0.3,0.7,1.7,1.4,0.3,1.4c-1.4,0-0.7-0.7-1.7,0c-1,0.7-0.7,1-1.3,1.4c-0.7,0.3-0.7,2-1.9,0.8c-1.2-1.2,0.2-1.2-1.2-1.5
		c-1.4-0.3-1.4-0.3-2.4,0c-1,0.3-0.3,0-2,0.7c-1.7,0.7-4.1,1-4.4,1.4c-0.3,0.3-0.3,1-1,0.3c-0.7-0.7-1-0.7-2-1c-1-0.3-1.4-0.3-2,0
		c-0.7,0.3-1.3,1.4-2.4,0.7c-1-0.7-1.3,0.7-2.4-1.4c-1-2-1.7-1.7-1.4-2.4c0.3-0.7,0.7,1.4,1.4,1c0.7-0.3,1.7,0,1-0.7
		c-0.7-0.7-0.7-1-1-1.4c-0.3-0.3-0.3-0.7,0-1c0.3-0.3,2-1.4,1.4-1.4c-0.7,0-1,0-1.4-0.7c-0.3-0.7,0.6,0.1,0.3-1.4
		c-0.3-1.4,1.8-1.8,0-1.7c-1.8,0.1-1.6-0.3-2.2,0.7c-0.5,1-1.6,1.4-1.9,1.4c-0.3,0-2,1-1.7,1.7c0.3,0.7,0.7,2.4,0.7,2.4
		s0.3,0,0.7,0.7c0.3,0.7-0.7,0.3,0.3,2c1,1.7,0.3,2,1,2.4c0.7,0.3,1,0.7,0,0.3s-0.4,0.6-1.7,0.7c-1.3,0.1-1,0-2,0.3
		c-1,0.3-1.4-0.3-2.4,0c-1,0.3-1-0.3-2,0.7c-1,1-1.9,1-2.5,2.4c-0.6,1.4-0.2,1.4-0.9,2c-0.7,0.7-0.9,1-1.6,1.2
		c-0.7,0.2-1.3,0.5-2.5,0.8c-1.3,0.3-0.2,1-1.3,2c-1.1,1-1.6,0.6-2.6,1.8c-1.1,1.2,0.1,1.5-1.4,1.3c-1.6-0.2-0.7,0-2.4-0.7
		c-1.7-0.7-1.7-0.7-1.3,0.3c0.3,1,1.4,2.7,0,2.4c-1.4-0.3-0.3,0.3-2.7,0c-2.4-0.3-3,0-3.4,0c-0.3,0-2.3,1.2,0,2.4
		c2.3,1.2,2.4-0.3,3.7,0.7c1.4,1,1.8,1,2,2c0.2,1,2.1,1.7,2.1,2.4c0,0.7-0.7,3-0.7,4.4c0,1.4,0.7,1.7-0.3,2.7c-1,1-0.3,1.7-2,1.4
		c-1.7-0.3-4.2,0.3-5.4-0.3c-1.2-0.6-3.7-0.3-4.1-0.3c-0.3,0-1,0-2.4-0.3c-1.4-0.3,0-1-2,0c-2,1-2.5,0.8-3.2,1.1
		c-0.7,0.3,0.2,1.9,0.5,2.3c0.3,0.3,1,4.1,0.7,4.7s-0.4,1.4-0.8,2.8c-0.4,1.4-0.2,1.3-0.9,1.9c-0.8,0.7-1.7,1.7-0.7,2
		c1,0.3,2,0.3,1.7,1.4c-0.3,1,0.3,1.4,0,2.4c-0.3,1-1.4,2-0.3,1.7c1-0.3,1.3,0.5,2.4,0c1-0.5,0.7-1.4,2-0.7c1.4,0.7,2.1,0.9,2,1.7
		c-0.1,0.6,0.5,1.6,1.1,2c0.2,0.1,0.4,0.2,0.6,0.1c0.7-0.3-0.2-0.4,1.2-1.1c1.4-0.8,2.1-1.2,3.1-1.2c1,0,2,0.3,2.7,0
		c0.7-0.3,2-0.3,2-0.3s0.8-1.4,1.7-1.7c0.9-0.3,1.6-0.1,2.2-1.2c0.6-1.1-0.9-0.2,0.1-1.2c1-1,1.7-1.7,1.7-1.7s-1.6-2-1.1-2.7
		c0.4-0.7,0.5-1.4,1.7-2.2c1.1-0.8,0.5-1.8,1.8-2.2c1.4-0.3,3.6-0.7,4.3-1.5c0.7-0.8,1.1,0.5,1.1-0.8c0-1.4-0.7-3-0.7-3.4
		c0-0.3,1-2,2.4-1.7c1.4,0.3,2.5,0.7,3.4,1c0.8,0.3,2.4,0.9,3.4-0.7c0.9-1.6,2.4-1,3-1.7c0.7-0.7,0.2-0.3,1.5-0.7
		c1.2-0.3,2.7-0.3,3.3,0.7c0.6,1,1.4,2,1.4,2.4c0,0.3,1,1,1.3,1.7c0.3,0.7,0.7,1,1.7,1.7c1,0.7,1.7,2,3,2.4c1.4,0.3,1.7,0.7,2.7,1.4
		c1,0.7,2.4,1.4,3,2c0.7,0.7,2.4,0.5,2,2c-0.4,1.6,0.7,1,0.3,2.4c-0.3,1.4-0.1,1.5-1.4,1.7c-1.3,0.1-0.7,1-2.7,0.7
		c-2-0.3-1.4-1-2.7-0.7c-1.4,0.3-3,0.7-2.2,1.4c0.8,0.7,1.9,2,3.2,2c1.3,0,1,0.7,2.4,1c1.4,0.3,0.7,1.4,1.4,0.3c0.7-1,0.3-0.7,0.3-2
		c0-1.4-1-2.4,0.3-2c1.3,0.3,1.7,0.3,2-0.3c0.3-0.7-0.3-2,1-2.4c1.4-0.3,1.7,1,1.4-0.3c-0.3-1.4,0.8-1.7-0.6-2
		c-1.4-0.3-1.8,0-1.4-0.7c0.3-0.7-0.6-2,1-1.7c1.6,0.3,2,0.6,2.4,1c0.3,0.4,1.4,1.8,1.4,0.7c0-1,0.3-0.7-0.3-1.4
		c-0.7-0.7,0.3-0.2-1.2-1.1c-1.5-0.9-1.1-0.4-2.5-1.2c-1.4-0.8-2.4,0-2-1c0.3-1,0.4-2-0.3-1.7c-0.7,0.3-2.3,0.2-3-0.3
		c-0.7-0.6-1-1-1.7-1.7c-0.7-0.7-0.7-0.7-1-1.7c-0.3-1,0.1-0.7-1-1.4c-1.1-0.6-1.2-0.1-2-1.4c-0.9-1.3-0.3-1.4-0.3-2
		c0-0.7-2.3-0.9-0.7-1.7c1.6-0.8,1-1.4,2-1.4c1,0,1.1,0.4,1.4,1.4c0.3,0.9,1,1.7,1,1.7s0-1.4,1-0.7c1,0.7,1.6,0.2,2,1.7
		c0.5,1.5,0.7,1.9,1,2c0.3,0.2,1.7,0.7,2.7,1c1,0.3,1.7,0.3,1.7,1s-1.4,0,1,1c2.4,1,4,1.7,4.4,2.7c0.4,1,0.7,1.7,0.3,3
		c-0.3,1.4-1,1,0.7,2.7c1.7,1.7,2.2,1,2.6,3c0.4,2,2,1,1.8,2.6c-0.3,1.6,1.4,1.8,1.4,2.4c0,0.7-0.3,1,0.3,1.4c0.7,0.3,0.3-1.7,1-0.3
		c0.7,1.4,0.2,2.4,1,1.7c0.9-0.7-0.3-1.7,0.3-1c0.7,0.7,1.4,2.7,1,1c-0.3-1.7-1.7-2.7-0.7-2.7c1,0,2,0.3,1.7-0.3
		c-0.3-0.7-2.4-2.4-1-2c1.4,0.3,1.3,1.4,1.7,1c0.3-0.3-0.3-1.4-0.3-2c0-0.7,0,0,1,0.3c1,0.3,1.3-0.7,0-1c-1.4-0.3-2.7-0.3-2.7-1
		c0-0.7,0.7,0.7-0.3-1c-1-1.7-3.1-2.3-1.7-2.7c1.4-0.4-0.2-1.5,1.4-0.4c1.6,1.1,1.9,0.7,1.9,0.7s0.3,0,0-1c-0.3-1-1.4-1,1-1.4
		c2.4-0.3,1-0.3,2.7,0c1.7,0.3,1.7-0.3,2.4,0.7c0.7,1-0.3,0.8-0.3,1.7c0,0.9-0.7,1.7,0.3,2c1,0.3,2.4,0.3,1.7,1.4c-0.7,1-3,1-1,2
		c2,1,3.7,3.4,3.4,3.7c-0.3,0.3-0.3,1,2.7,1.8c3,0.9,3.9,2.5,4.2,1.2c0.4-1.3-2.4-3.6,1.2-2.4c3.6,1.2,3.7,2.4,4.7,2.4
		c1,0,3,0,3.7-0.7c0.7-0.7,1.7-0.7,2.9-1c1.2-0.3,1.9-1.7,2.2-0.7c0.3,1,0.3,3,0.3,4.4c0,1.4-0.3,3.4-0.7,4.7
		c-0.3,1.4-0.3,2.6-1,3.7c-0.7,1.1,0.3,1.4-1,3c-1.4,1.7-1,3-3.4,2c-2.4-1-2.5-2.4-3.8-2c-1.3,0.3-3.3-0.4-3.7,0.3
		c-0.4,0.8,0.4,1.7-1.7,1.7c-2,0-1.4,0.7-3.4-0.3c-1.9-1-1.4-1-4.1-1.1c-2.7-0.1-2.5,1.1-3.7-0.2c-1.2-1.4,0.4-0.8-1.7-1.4
		c-2-0.5-2.7,0.3-3.4-0.7c-0.7-1,0.4-0.4-1.3-1.5c-1.8-1.1-2.7-0.2-3.7-0.2c-1,0-2.8,0-3.1,1.2c-0.3,1.2,0,2.5,0,3.5
		c0,1,0,1.9-1,2.4c-1,0.4-0.3,1.7-2,0.4c-1.7-1.2-1.7-2.1-4.1-2.4c-2.4-0.3-3.3,0.3-4.1-0.8c-0.8-1.2,0.8-1-1-2.2
		c-1.8-1.2-1.4-1.7-3.2-1.9c-1.8-0.3-0.7-0.1-2.9-0.4c-2.3-0.2-1.6,0.6-3.3-0.8c-1.7-1.4,0.3-1-2-1.7c-2.4-0.7-4.1,0.7-2.5-1
		c1.5-1.7,1.9-0.7,2.2-2.7c0.3-2,0.1-1.6,0-2.4c-0.1-0.7-2.2-0.8-1.3-1.7c0.8-0.9,3-0.5,1.3-1.7c-1.6-1.2,1.4-0.7-2.4-1
		c-3.7-0.3-3.4,1-5.4,0.7c-2-0.3-0.7-0.7-2.7-0.3c-2,0.3-4.7,0.3-6.1,0.3c-1.4,0-0.5-0.9-3,0.3c-2.5,1.3-3.7,1.7-4.7,1.4
		c-1-0.4-2-0.4-3.4,0.7c-1.4,1-0.7,0.3-3,1.7c-2.4,1.4-1.1,3.4-3.1,2c-2-1.4-2-1-3-1c-1,0-1.2,1.8-2.9,0.2c-1.7-1.6-1.4-1-2.1-1.5
		c-0.7-0.5-0.7-1.3-1.1-0.3c-0.4,0.9-0.9,2-1.2,2.7c-0.3,0.7-0.2,2.5-1.5,2.7c-1.3,0.2-2.4,0.7-3.7,2c-1.4,1.4-2,2.7-2.4,3.4
		c-0.3,0.7-1.2,2.2-1.4,2.7c-0.1,0.5,0.6,1.8,0,3.4c-0.6,1.6-0.2,1.5-1.3,2.6c-1.1,1.1-0.4,1.4-2.4,2.5c-2,1.1-2.4,0.9-3.7,1.6
		c-1.4,0.7-3.4,3.7-4.1,4.6c-0.7,0.8-2.4,3.5-2.4,4.6c0,1-1,1-1.7,2.4c-0.7,1.4-3.5,3.1-3.4,4.6c0.1,1.5-0.4,4.5,0,5.4
		c0.4,0.8,1.4,2.2,1.1,3.9c-0.3,1.7,0.3,4.1,0.3,4.9c0,0.8,0.2,3.2-0.3,4.9c-0.5,1.6-2,2.4-2.4,4.4c-0.3,2,1,3,0.7,4.7
		c-0.3,1.7-2,2,0,3.7c2,1.7,0.7,1,3.7,3.7c3,2.7,3.3,3.6,4.5,4.8c1.2,1.2,1.9,6.3,2.3,6.3s6.2,3.8,7.2,4.8c1,1,5.3,4.9,7,4.7
		c1.7-0.3,6.3-3,8.4-2.7c2.1,0.3,4.1,1.7,5.1,1.7c1,0,1.4,0,4.4-1.7c3-1.7,5.7-2.7,7.1-3c1.4-0.3,7.5-1.7,7.8,0
		c0.3,1.7,0.3,3.4,2.2,4.7c1.9,1.3,3.4,0.8,4.8,0.7c1.4-0.1,2.8-1.2,3.7,0c0.9,1.2,2.1,2.4,2.7,3c0.6,0.6,0.4,4.3,0,5
		c-0.4,0.7-1.1,1.4-1.1,2.9c0,1.5,0.1,1.6-0.6,3.1c-0.7,1.5-1.4,1.8-0.7,2.5c0.7,0.7,2,4.4,3.4,5.7c1.4,1.4,2.4,1.1,3,2.7
		c0.6,1.6-0.7,1.5,1,3.4c1.7,2,1.1,3.7,1.7,4.9c0.6,1.2,1.9,3.6,2.4,4.5c0.5,1,0.1,1.8,0,4.4c-0.1,2.6,1.1-0.9,1.7,4.1
		c0.5,5,0.4,3,0,3.7c-0.4,0.7-1.6,2.2-2,2.6c-0.4,0.4-2.1,3.8-2.1,4.5c0,0.7,0,1.4-0.7,3c-0.7,1.7-1,1-1,3s-0.3,5.1,0.2,6.1
		c0.5,1,1.4,3.5,3,6.4c1.6,2.8,2.3,2.9,3,5.4c0.6,2.5,0.9,4.5,0.8,5.7c-0.1,1.1,1.5,1.8,1.2,3.7c-0.3,1.9-0.3,3.2,0,4.4
		c0.3,1.2,1.2,4.1,1.7,4.6c0.5,0.5,0.7,0.7,1.7,2c1,1.4,1.1,1.8,1.6,3.6c0.5,1.8,1.1,2.5,1.8,4.2c0.7,1.7,2.4,2,1,3.7
		c-1.4,1.7-1.3,0.3-0.7,2.7c0.7,2.4,1.7,3,3,3.7c1.4,0.7,1.3,0,3.4-0.3c2-0.3,4.1-1.7,5.4-1.4c1.4,0.3,3.9,0.5,5.1,0.7
		c1.2,0.2,3.3-1.2,4.1-1.4c0.7-0.2,7.2-3.9,7.9-5.5c0.7-1.6,2.6-3.7,4.1-4.7c1.5-1,0.5-2.7,2.5-4c1.9-1.3,1.8-1.1,3.2-3.6
		c1.3-2.5,1.9-4.5,1.2-5.2c-0.7-0.7-1.7-1-0.3-2c1.4-1,4.4-3,5.4-3.2c1-0.2,1.7,0.5,1.7-1.9c0-2.4,1.3-4.4,0.7-5.7
		c-0.7-1.4-0.7-1.7-1-3c-0.3-1.4-3-2.6-0.7-4.1c2.3-1.5,4.4-2.4,5.4-3.7c1-1.4,2.5-4.1,4.8-4.7c2.3-0.7,4.1-2.4,5-4.1
		c1-1.7,2-2.4,1.6-4.4c-0.3-2-0.3-5.1-0.3-7.4v-3c0-1.4-1.7-3-2-4.4c-0.3-1.4-1,2.7-0.7-3.4c0.1-2.6,0.4-3.6,0.5-3.9
		c0.2,0.1,0.1-0.4,0,0c0,0-0.1,0-0.2-0.1c-0.7-0.7-1.2-0.2-1.1-3c0.1-2.8,0.1-2.4,1.1-4.8s1.7-3.4,3.4-5.4c1.7-2,2.3-2.3,4.4-5.4
		c2.1-3.1,3.5-4.5,5-6c1.5-1.5,3.6-2,4.8-3.5c1.2-1.5,4-4,5.1-6.1c1.1-2.1,2.5-3,3.3-5.7c0.7-2.7,2.5-3.7,2.8-5.4
		c0.3-1.7,1.7-4,1.7-5.4c0-1.4,0-3.6,0.3-4.7c0.4-1.1,0.7-2.4,0-2.6c-0.7-0.2,0.2,1.2-2.7,1.6c-2.9,0.3-3.7,0.3-5.1,0.8
		c-1.4,0.5-1.6,1-4.1,1.6c-2.5,0.5-3.6,2.1-5.4,1c-1.8-1.1-2.1-1.5-3.1-2.4c-0.9-0.9-2.2,0.5-1.4-1.7c0.9-2.1,2.7-1.7,1-2.7
		s-1.6-1.6-3.4-3c-1.7-1.4-1.3-2-3-3c-1.7-1-1,0-2.7-1.4c-1.7-1.4-1.8-0.4-2.4-2.9c-0.6-2.5-1.5-5.2-2-5.9c-0.5-0.7-3.7-3-4.1-5.2
		c-0.3-2.2-0.3-5.9-1.4-6.9c-1-1-2.2-0.9-3-3c-0.9-2.1-0.3-2-1-3.4c-0.7-1.4-0.4-1.5-2-3.8c-1.6-2.3-2.7-2.1-2.7-4.3
		c0-2.2,0.7-2-1-3.7c-1.7-1.7-1.7-1.7-2.7-3.7c-1-2-2-2.4-1-2c1,0.3,1.6,1.2,2.4,2.7c0.8,1.5,2.7,4.7,3,3.7c0.3-1,0.3-3,0.7-4.1
		c0.3-1,0.7,0,0.7,1.4c0,1.4-0.9,1.2,0.6,2.1c1.4,0.9,2.9,1.9,3.5,3.3c0.6,1.4,2,2.7,2.5,4.4c0.5,1.7-0.2,2,1.9,3.4
		c2,1.4,2.8,1,3.4,3.4c0.6,2.4,0.3,4.4,1,5.7c0.7,1.4,3.6,3,4.7,5.1c1.1,2.1,0.7,2.4,2.7,5.1c2,2.7,0.9,1.3,2.4,3.4
		c1.5,2.1,1.2,5.2,1.6,7c0.4,1.8,1.4,5.1,2.4,5.5c1,0.3,2.7-1.4,4.7-1.7c2-0.3,4.1,0.2,5.6-0.9c1.5-1.1,2.2-1.2,3.2-2.1
		c1-0.9,2-1,3.7-1.7c1.7-0.7,3.6-1.6,4.1-2c0.6-0.4-0.3-1.2,0.6-2.1c0.9-0.9,4.1-2.4,5.4-2.5c1.2-0.1,1.8-0.1,2.8-1.9
		c1-1.8,2.4-0.8,2.7-1.4c0.3-0.6,0.6-1.7,1-2c0.4-0.3,2.6-0.6,2.4-1c-0.2-0.5-1-3-0.3-3.7c0.7-0.7,1.7,0,2-1c0.3-1,0.8-1.9,1.4-2.4
		c0.5-0.5,1.7-2.6,1.4-3.4c-0.3-0.8-2.4-2.4-3-3c-0.7-0.7-1.9,0.1-3.1-1c-1.2-1-2.7-1.4-3.2-2.4c-0.5-1-0.5-0.7-0.7-2.4
		c-0.2-1.7,0.2-3.4-0.5-2.7c-0.7,0.7-0.3,1-1.4,2c-1,1-2,2.7-2.7,3.4c-0.7,0.7-1,1.7-2,1.4c-1-0.3-1-1-2.7-0.3
		c-1.7,0.7-1.7,0.3-2.7-0.3c-1-0.7-0.3,0.4-0.7-1.8c-0.3-2.2,1-3.6-0.3-3.2c-1.4,0.3-1.2,1-1.7,1.7c-0.5,0.7-1,1.4-1.7-1
		c-0.7-2.4,0.3-2-1-3.4c-1.4-1.4,0-0.7-2-2.4c-2-1.7-2-2.4-2.4-3c-0.3-0.7-2.7-2.4-1.7-3.4c1-1,2.2-1.4,3.7-1.4
		c1.5,0.1,3.5,1,4.4,2.7c0.9,1.7-0.3,3.7,2,4.4c2.4,0.7,3.4,2.2,5.1,2.4c1.7,0.1,2.3,2.4,4,1.4c1.7-1,4.7-1.7,5.2-0.7
		c0.5,1-0.6,3.3,2.5,3.7c3.2,0.4,7.4,1,9.1,1.4c1.7,0.3,8,0.1,8.4-0.3c0.4-0.4,3.4-1.7,4.7-0.7c1.4,1,0.6,1.8,4.1,4
		c3.5,2.2,4.3,4.2,5,4.7c0.7,0.5,2.3-2.3,2.8-1.2c0.4,1.1-2.8,1.6-2.7,2.4c0.1,0.8,1.5,3.8,2.7,4.1c1.3,0.3,1.6,1.3,3.2,0.3
		c1.5-1,2.2-1,2.2-2.4c0-1.4,1-4.3,1.4,0c0.3,4.3,1,4.6,0.7,6.4c-0.3,1.8,0.7,3.1,1.2,4.6c0.5,1.5,1.2,4.2,1.8,5.9
		c0.7,1.7,2.7,4.4,3.4,6.4c0.7,2-0.4,1.4,1.1,3.7c1.6,2.4,2,2.6,2.9,4.9c0.9,2.3,1.3,2.2,1.7,4.2c0.3,2,0.7,3.7,1.7,4.4
		c1,0.7,3.3,2,3.3,0.7c0-1.4-1.3-2.7,0.4-3c1.7-0.3,3.9,0.9,2.7-0.3c-1.1-1.3-1.8-1.4-0.8-2.4c1-1,1-0.2,1.5-1
		c0.5-0.8,0.7-1.2,0.3-2.6c-0.3-1.4-0.6-0.9,0-2.4c0.6-1.5,0.7-0.3,0.7-2.4c0-2-0.7-3.3-0.7-4.1c0-0.8-0.5-3.1-0.2-4.1
		c0.2-1,0.6,0,1.6-1c1-1-0.3-1.7,1-1.7c1.4,0,2,1,2.4-0.7c0.3-1.7,0.2-1.5,0.7-2c0.5-0.5,1.7-2,3-3c1.4-1,1.7-2,2.4-2.7
		c0.7-0.7,1.7-2.5,2.9-3c1.2-0.4,1.9-1.1,1.9-2.1c0-1-0.3-2.2,0.3-2.4c0.6-0.1,1.4-1.7,2.4-1c1,0.7-2.4,1.4,1.4,0.7
		c3.7-0.7,3.4,0,3.7-0.7c0.3-0.7,1.7,1.4,1.7-0.7c0-2-2-3.4-0.7-2.7c1.4,0.7,0.9,0.9,2,1c1.1,0.1,1.4-0.3,1.7,1
		c0.3,1.4,1.7,3.4,1.7,3.4s2,3.4,3,3.7s2.2-0.1,2,1.4c-0.2,1.5,0.3,1,1,2.4c0.7,1.4,1,1,1.4,2.4c0.3,1.3,0,0.7,0,3.4
		c0,2.7,1.7,4.1,2.7,3c1-1,1.4-1.4,2-1.7c0.7-0.3,0.7,0,1.7-1C675.4,193,674.7,193,675.7,194z M518.6,118.6c-0.3,0.3-1,1.6-2.7,1.4
		c-1.7-0.2-5.5,0.3-5.5,0.3s-2-0.7-3.6-1.4c-1.7-0.7-2.4-1.1-4.1-2c-1.6-0.9-1.4,0-3.2,0c-1.8,0-2.6,0.3-3.7,1.2
		c-1.1,0.8-0.5,0.7-2.2,1.4c-1.6,0.6-2.8,0.1-4.3,0c-1.5-0.1-0.8,0.5-0.1,1.2c0.7,0.7-0.4,0.3-1.4,1c-0.9,0.7-2.4-0.3-3.7,0
		c-1.3,0.3-1.7,0-0.7-0.5c1-0.5,0.9-0.9,2.7-0.9c1.8,0,1.4-0.3,2-1c0.6-0.7-0.8-0.7-1.6-1.2c-0.8-0.4-1.7-0.8-1.8-2.2
		c-0.1-1.3-0.3-1,0.3-2.5c0.7-1.5,0.7-0.5,1.2-1.2c0.6-0.7,0.2-1.1,0-2.4c-0.2-1.3,0.1-1,1-1.5c0.9-0.5,0.8-0.5,0.8-1.6
		c0-1.1,0.7-0.6,1.4-2c0.6-1.4,0.7-1,2-1.7c1.4-0.7,0.3-0.3,1.7,0.3c1.4,0.7,0,0.3,1.1,1c1.1,0.7,1.3,0,2.4,0.7
		c1.1,0.7-0.4,1.1-1.3,1.3c-0.9,0.2,0.2,0.7,2.2,1.7c2,1,0,1,1.4,0.9c1.4-0.1,0.5,0.3,1.5-0.6c1-0.9,1.2-0.6,2-0.6
		c0.9,0.1,0.9-0.1,1.4-1.1c0.6-1-1.3,0-2.3,0c-1,0-0.3-0.7-1-2.7c-0.7-2,0.7-0.7,1.7-1c1-0.3,1-0.4,1.6,0c0.6,0.3,1.5-1,2.2-0.9
		c0.7,0,1.3-0.4,2.3-0.7c1-0.3,1.7-0.3,1.4,0.3c-0.3,0.7-0.5,0.3-1,1c-0.5,0.7-0.7,0-2,0c0,0,0.2,0.3,1,1c0.9,0.7,0.3,0.7-0.2,0.7
		c-0.6,0-0.1,2.4-1.4,2.4c-1.4,0-0.3,0-0.5,0.8c-0.2,0.8,1.2,0.9,2.2,1.2c1,0.3,3.2,1.7,4,2c0.8,0.4,1.9,1.5,3,2.2
		c1.1,0.7,2.5,1.2,3.4,1.8c0.8,0.7,0.7,1,1.2,2C519.8,118,519,118.3,518.6,118.6z"/>
	<path class="st0" d="M633.8,216.9c-1-1-1.7-2.4-2-0.7c-0.3,1.7-1.4,1.7-1,3.7c0.3,2,0.3,4.7,1,5.7c0.7,1,2,1.4,3,0.7
		c1-0.7,2,1,2-1.4c0-2.4-1.4-5.1-1.4-5.1C634.5,218,634.8,218,633.8,216.9z"/>
	<path class="st0" d="M561.5,206.5c-1.7-0.3-3.7-0.3-2.4,0.3c1.4,0.7,0.7,1.4,2,0.7C562.5,206.8,561.5,206.5,561.5,206.5z"/>
	<path class="st0" d="M550.7,289.9c0-2.1,0.7-4.1-0.3-5.1c-1-1-1.4-2.4-1.4-2.4s-0.7,0.7-1.7,2.4c-1,1.7-1.7,1.4-2.4,3
		c-0.7,1.7,2.4,0.7-1.7,3c-4.1,2.4-1,1-4.1,2.4c-3,1.4-4.1,0.5-4.4,3c-0.3,2.5-1.7,5.7-1,7.1c0.7,1.4,2.4,2.1,0,3.7
		c-2.4,1.6-1.5,2.3-2.4,4.4c-0.9,2.1,0.3,1.7,0,4.7c-0.3,3-1.2,3.7,0.6,4.9c1.8,1.2,0.1,3.9,4.2,1.9c4.1-2,2.7,2,4.7-3.7
		c2-5.7,2.1-4.4,3.4-8.8c1.3-4.4,1.2-3.3,2.6-7.4c1.4-4.1,0.4-2.7,1.4-5.4c1-2.7,0.7-6.4,1.4-5.1c0.7,1.4,1.7,2.7,1.4,0L550.7,289.9
		z"/>
	<path class="st0" d="M711.3,185.5l-0.5-0.6c-0.3-0.7-2.7-1.4-4.1-0.3c-1.3,1-2.4,0.3-2,1.7c0.3,1.4,1,4.4,2.7,3.4
		c1.7-1,4.1-2.3,3.4-2.7C710.1,186.5,711.3,185.5,711.3,185.5z"/>
	<path class="st0" d="M734.1,168.6c-0.3,1.4-0.7,0.3-1,3c-0.3,2.7-0.3,3.4,0.7,4.2c1,0.8,1,4.9,1.7,2.2c0.7-2.7,1-6.1,1-6.1
		c0-1.4,0.7-1,0-2.4C735.8,168.3,734.5,167.3,734.1,168.6z"/>
	<path class="st0" d="M736.8,195.7c-1-0.3-1.3-2.4-0.3,1c1,3.2,2.5,2.8,3,3.3c-0.1,0.1-0.1,0.4,0.1,1.4c0.3,2.7,1.4,3.7,2,2
		c0.7-1.7,0.7-2,0-3.7c-0.7-1.7-1.4-1-0.3-2.7c1-1.7,2.4-2.4,1.4-4.1l-1-1.7c-0.2-2.6-0.3-1.7-1.7-2.4c-1.4-0.7-2.4-1.4-2.7,0.3
		s0,1.4,0,3.4C737.2,194.6,737.8,196,736.8,195.7z"/>
	<path class="st0" d="M740.5,206.8c1.4-0.7,2.3-0.7,1-1.7c-1.3-1-2.4-0.3-2.4-0.3C740.2,205.8,739.2,207.5,740.5,206.8z"/>
	<path class="st0" d="M732.4,219.3c1.3-1.4,2.4-1.4,2.7-2.7c0.3-1.4,0.3-1.1,1-1.6c0.7-0.5,1-2,1-2c0.3-0.5,0.7-1.5,0.3-1.5
		c-0.3,0,0-0.3-0.7,0.7c-0.7,1,0.2-0.2-1,1.7c-1.2,1.9-0.7,1.5-1.5,2.3c-0.8,0.8,0.4-0.2-1.5,1.4
		C730.9,219.3,731.1,220.7,732.4,219.3z"/>
	<path class="st0" d="M756.8,219.3c-1-1.7,0-2.4-1.4-3.1c-1.4-0.6-1.4-3.4-1.7-2c-0.3,1.4,1,1.7-0.7,3c-1.7,1.4-0.7,2.1-2,2.1
		c-1.4,0-1-1.1-2-0.7c-1,0.3-1.7,0.7-1.7,0.7c-1,1-0.5-0.5-1.7,1.4c-1.2,1.9-1.4,2-1,2.7c0.3,0.7,0.1,2.3,1,0.8s1-3.1,1.4-2.4
		c0.3,0.7,0.3-0.1,1.4-0.2c1-0.1,3.4-0.4,2.7,0.9c-0.7,1.3-2,1.3,0.1,3.4c2.1,2.1,3,4.5,3.3,2c0.2-2.5-1-2.7-0.3-3.4
		c0.7-0.7,0.7-2.7,1.4-1c0.7,1.7-0.3,3.7,0.7,1.7c1-2,1-2,1-2.7C757.1,221.7,757.8,221,756.8,219.3z"/>
	<path class="st0" d="M747.1,202c-1.5,0-1.2-1.7-2.9-0.6c-1.7,1-2,1.4-1,1.7c1,0.3,2.7,0.8,2.7,0.8c0.3,0.2-0.3,1.2,1,1.6
		c1.4,0.3,2.6,1.2,2,0c-0.6-1.2-2.4-1.4-1.7-1.7c0.7-0.3,1.9,1.2,2-0.3C749.5,201.9,748.7,202,747.1,202z"/>
	<path class="st0" d="M743.9,212.2c1.7,0,2.4-1.7,2-0.3c-0.3,1.4,1.6,2,0.7,3.1c-0.9,1.1,0,4.7,0.3,2.3c0.3-2.4,0.7-1.7,1.7-3
		c0.9-1.4,3.7-3.6,1.4-3.1c-2.4,0.4-3,2.1-3,0.4c0-1.7,0-2.4-1-2l-1,0.3c-1.7-0.7-0.6-0.6-1,0.3
		C743.5,211.1,742.2,212.2,743.9,212.2z"/>
	<path class="st0" d="M751,208.8c0.7,1.4,0.3,2.7,1.4,2s1.3,0.3,0.7-1.7c-0.7-2,0.3-2-1.3-2.4c-1.7-0.4-2,0.7-2,0.7
		C750,208.2,750.3,207.5,751,208.8z"/>
	<path class="st0" d="M748,208.4c0.7,0.5,2.3,2.2,1.3,0.8c-1-1.4-1.7-2-1.7-2c-0.7,0-1.7,0.1-0.7,0.7
		C748,208.4,747.4,207.9,748,208.4z"/>
	<path class="st0" d="M761.5,246.7c1.1,0.6,0.8,1,0.4-0.7c-0.4-1.7-1.7-3,0-2.4c1.7,0.7,2.6,0.7,2,0c-0.6-0.7-2.7,0-1.4-1
		c1.4-1,3-1,2-1.7c-1-0.7-0.2-0.5-1.4,0.2c-1.2,0.7-2,0.8-2,0.8c0.3-0.3,1.1,0.1,1-1.4c-0.1-1.5,2.5-1.9,1-2.5
		c-1.5-0.7-1.5,0.1-1.7,0.5c-0.2,0.4-0.7,1-1,2c-0.3,1-0.7,0.3,0,2.4C761.2,245,760.4,246.1,761.5,246.7z"/>
	<path class="st0" d="M769.3,255.1c-2-0.7-2.7-0.7-2.7-0.7c-1.1,0.1-1,0-2.7-0.3c-1.7-0.3-4.4-0.7-2.4,0.3c2,1,0.7,1,3,1
		c2.4,0,2.4,0.7,3.7,0.7C769.6,256.1,771.3,255.8,769.3,255.1z"/>
	<path class="st0" d="M759.8,256.8c-0.7-1.7-0.9-1.7-1-2c-0.2-0.3-1.7,0-1.7,0s-0.7,0.3-0.3,0.8
		C757.1,256.1,760.5,258.5,759.8,256.8z"/>
	<path class="st0" d="M752,250.4c0.9,0.8,2.4,0.3,2.7,0.3c0.3,0,2.4,0.7,1.7,0.3c-0.7-0.3-2.4-0.7-2.4-0.7
		C753.1,250.2,751.1,249.6,752,250.4z"/>
	<path class="st0" d="M741.9,243.6c2,0,5.2-0.7,6.4,0c1.2,0.7,1.7,1.4,3.2,0.2c1.5-1.2,2.4-1.2,2.7-2.2c0.2-1,1.9-2.7-0.1-1.7
		c-2,1-0.7,0.8-4.1,1.7c-3.4,0.9-3.7,1-5.1,0.3c-1.4-0.7-1.8-3-2.7-1.4c-1,1.7-2.3,1.7-2.3,2.7c0,1-0.7,2.8-1,4.7
		c-0.3,1.9,1.4,1.4-0.3,3.9c-1.7,2.5-2.4,3.2-1.4,3.5c1,0.3,2.4-2,2,0.8c-0.3,2.9-2,3.5-1,4.9c1,1.4,2.5,4.1,2.7,1
		c0.2-3,0.3-4.1,0.3-5.4c0-1.3-0.5-4.7,0.7-3.4s1,2.7,1.7,3.4c0.7,0.7-1.4,2.7,0.3,2.7c1.7,0,2-1.3,2.7-0.7c0.7,0.7,1.7,1.3,0.7-1.7
		c-1-3-2.1-4.7-2.1-4.7s-0.2-2.4,0.5-2.4c0.7,0,2.4-2,2.4-2c0.8-0.1,3.1-1.4,1-1c-2.1,0.3-2.7,0.7-2.7,0.7s-1.9,1.3-3.2,1
		c-1.3-0.3-2.3-0.1-2.5-1.7C740.3,245.5,739.9,243.6,741.9,243.6z"/>
	<path class="st0" d="M746.3,278.4c1.8-1.2,1.7-1.4,2.7-1.7c1-0.3,2.4,1.1,3-0.8c0.7-1.9,3-3.3,3.7-3.3c0.7,0,3.7-0.3,3-1.2
		c-0.7-0.8,0.7-0.7-2-0.5c-2.7,0.2-3.7,0.7-3.7,0.7c-1.4,1.3-0.2,1.6-2.2,2.3c-1.9,0.8-2.9,0.7-2.6,1.7c0.3,1,0,1-1,1.7
		C746.3,278.1,744.5,279.6,746.3,278.4z"/>
	<path class="st0" d="M727,257.1c0,0,2-1.4,2.7-2.7c0.7-1.4,0-3.8,0.7-4.5c0.7-0.6,0,0.4,1.4-0.9c1.4-1.4,2,0,2-2.4
		c0-2.4-0.3-3.4,0.3-3.7c0.7-0.3,0.7-0.3,2-0.7c1.4-0.3,1.2-1.1,0-1.7c-1.2-0.6-1.8-0.1-1.7-1.7c0.1-1.6-2.2-4-2-4.7
		c0.2-0.7,2.2-1,2-2c-0.2-1,0.1-0.7,0.7-0.8c0.6-0.2-1-1.6,0.3-1.5c1.2,0.1,3.3-0.6,2.4-1.4c-0.9-0.7-1.7,0.7-3-1
		c-1.4-1.7-1.1-1.1-1.7-2.4c-0.6-1.3-1.9-3-2.7-1.9c-0.8,1.1-0.7,1.6-1,3c-0.3,1.4-0.7,1-1.7,2.4c-1,1.4-0.7,2.4-2,2.7
		c-1.4,0.3-2.7,1-3.4,2.4c-0.7,1.4-0.1,2-2.1,2.4c-2,0.4-2.8,0.1-3.3,1.6c-0.5,1.5-0.3,3-1.7,2.7c-1.3-0.3-1.7-0.3-2.4-0.7
		c-0.7-0.3-1-0.7-1.4,0c-0.3,0.7-1.5,1.6-1,2.7c0.5,1.1,2.4,2.4,1.9,4.2c-0.5,1.9,0.7,1.4,0.8,2.5c0.1,1.1,0.7,2,0.7,3.7
		c0,1.7,1.3,1.2,2.7,1.9c1.5,0.7,1.4,1.5,2.6,1.2c1.1-0.3,2.1-1,2.1-1c1.4,0,1.6-0.3,2.7,0.7c1.1,1,1.9,0.1,1.7,1
		C725.5,257.4,727,257.1,727,257.1z"/>
	<path class="st0" d="M712.2,269c1.6,1,2.4,1.4,4.2,1.5c1.9,0.2,1.9-0.1,4.6,0.4c2.7,0.5,1.4,0.7,3,0.5c1.6-0.2,2.1,1.1,2-0.5
		c-0.1-1.6-0.4-0.9-1.4-1.6c-1-0.6-0.6-1.4-1.8-1c-1.2,0.3-1,1.6-2.1,0.3c-1.1-1.3-0.8-2-2.1-2.3c-1.4-0.3-3-2-3.7-1.4
		c-0.7,0.7-2.7,1.4-2.7,1.4c-2.4-0.3-3.4,0.5-4.4-0.8c-1-1.3-1.7-2.6-3-2.3c-1.3,0.3-2.5-0.3-3.3,1.4c-0.8,1.7-0.3,1.2,1.6,2.4
		c1.8,1.1,3.4,2.4,4.7,2C709.1,268.6,710.5,268,712.2,269z"/>
	<path class="st0" d="M744.6,272c1.9,0.1,1-1.4,3.4-1c2.4,0.3,3.4,1.4,4.2,0.3c0.8-1,1.3-1.7-0.5-1.4c-1.9,0.3-7.1,1-7.1,1
		c-0.7,0.3-1,0-2.7-0.3c-1.7-0.3-2.7-0.7-3,0.3c-0.3,1,0.3,1.4,1.8,1.4C742.2,272.3,742.7,271.9,744.6,272z"/>
	<path class="st0" d="M738.8,275.8c0.4,0.6,0.1,2.3,1.1,1c1-1.4,0-2,0-2c-1.4-1-3.7-1.7-3.4-0.7
		C736.8,275.1,738.3,275.1,738.8,275.8z"/>
	<path class="st0" d="M729.7,272.3c0.7,0,1,0.5,2.9,1c1.8,0.5,1.2-1,2.2-1.3c1-0.3,1.3-0.3,2-0.7c0.7-0.3-0.3,0-1-0.7
		c-0.7-0.7-0.7-0.3-2.5-1c-1.8-0.7,0.1,1,1.1,1.7c0,0-1.4,0.3-2-0.3c-0.7-0.7-1.4,0.3-2-0.7c-0.7-1-1.7,0.7-2,2
		C728.1,273.7,729.1,272.3,729.7,272.3z"/>
	<path class="st0" d="M701.7,261.5c0.2-3-0.3-2,0-3.7c0.3-1.7,0.7-3.7,0.7-3.7s0.7,1.4,1.4,0c0.7-1.4,1.7,0,0.3-1.9
		c-1.4-1.9-1.8-2.8-2.4-2.5c-0.6,0.2-1.7,0.3-1,1c0.7,0.7,2.4,1.7,0.7,1.7c-1.7,0-1.4,1.3-2-0.3c-0.7-1.7,1-2.7-1-3.4
		c-2-0.7-2.7-1.4-2.7-1.4c0.3-1.4,0.3-0.7,0.3-2c0-1.4,0.7-1-1-2c-1.7-1,0-0.3-1.7-1.7c-1.7-1.4-1.4-0.7-2.4-1.7c-1-1-1.3-1-2.4-1.4
		c-1-0.3-0.3,0-1.4-1c-1-1-0.2-3.2-2-3.4c-1.9-0.2-3.7-1.4-3.7-1.7c0-0.3,0.7-0.7-0.7-1.9c-1.4-1.2-1.4-1.5-2.7-1.5
		c-1.4,0-2.4-1.4-3.4-1.4c-1,0-1.7,0-1.7,0.7c0,0.7,1,3.4,2.7,4.4c1.7,1,2,1,3,2.4c1,1.4,1,1.7,2,2.7c1,1,1.8,0.8,2.4,2.7
		c0.5,1.9,1.3,3.4,2.4,4.4c1.1,1,1.8,2.7,2,4.1c0.2,1.4,1.1,4.1,3.2,6.4c2.1,2.3,3.2,3.7,4.2,4.4c1,0.7,1.7,2.7,3.4,2.7
		C700,262.6,701.5,264.6,701.7,261.5z"/>
	<path class="st0" d="M787.8,250.1c-1,1,0.3,1.4-1.4,1.7c-1.7,0.3-1.7,0-3,1.7c-1.4,1.7-2,3-2.7,2c-0.7-1-0.3-1.4-1.3-2.4
		c-1-1-1-2.7-1-2.7c0.3-1,1-1.7,0-2.4c-1-0.7,2.4,0.3-1-0.7c-3.4-1-2-2.4-4.1-1c-2,1.4-4.4,2-3,2.7c1.4,0.7,0.7,1.7,2.7,2.4
		c2,0.7,2.7-0.3,3,0.7c0.3,1-2.3,0.4-2.4,1.4c-0.1,1,0.8,0.1,1,2c0.2,1.9-0.7,2,1.4,1.7c2-0.3,2.4,1,4.1,1c1.7,0,2.1-1.5,4.4,1
		c2.3,2.5,2.6,0.9,4.4,3.4c1.8,2.5,3,6.4,2,5.7c-1-0.7-0.3-1.7-2,0c-1.7,1.7-4.4,2-1.7,2.4c2.7,0.3,3.4-1.7,5.1-0.7
		c1.7,1,2.4,2,4.1,3c1.7,1,1.5,1.2,2.9,0.7c1.4-0.5,1.8,1.4,2.8-1c1-2.4,1.7-3.4,2.4-3.7c0.7-0.3,0-1.7,2.7,0c2.7,1.7,2.7,1.4,3,2.4
		c0.3,1,0,1,1.7,2.7c1.7,1.7,3.7,2.7,4.7,2.7c1,0,1.7,2.4,3.4,1c1.7-1.4,1-0.7,0-1.7c-1-1,0.6,0.7-2.4-2.4c-3-3.1-1.6-0.7-3-3.1
		c-1.4-2.3-2.8-3.7-2.4-4.4c0.3-0.7,0.6,0,1.3-1.2c0.7-1.2,3-0.8,0-1.9c-3-1-4-0.7-4-2s1.7,1-0.3-1.4c-2-2.4,0-1.4-2.7-2.7
		c-2.7-1.4-1.3-0.3-4.1-1.7c-2.7-1.4-2.7-1-4.1-1.7c-1.3-0.7-0.9,0.6-3.7-1.4c-2.8-1.9-2.7-2-4.4-2.4
		C788.5,249.7,788.9,249,787.8,250.1z"/>
	<path class="st0" d="M817.6,263.2c3.1,0.1,2.7,1.7,5.1,0.3c2.4-1.4,2.7-0.3,3.7-2c1-1.7,3-2.5,1-3c-2-0.6-2.8,0-2.8,0
		c-1,0.5,0.2,1-1.7,2c-1.9,1-1.7,1.4-3.7,1.4C817.2,261.9,814.4,263.1,817.6,263.2z"/>
	<path class="st0" d="M817.2,325.7c1.4-3,4.4-5.7,2-5.1c-2.4,0.7-2,1-3-0.3c-1-1.4-1-0.3-1.7-2.4c-0.7-2,0.2-1.1-0.3-3
		c-0.6-1.9,0-2-1.7-2c-1.7,0-1-0.3-1.4-2.7c-0.3-2.4,0.7-2-1.4-3.4c-2-1.4-1.4-1.4-3-2.7c-1.7-1.4-2,1-2-3c0-4.1,0.9-2.1,0-4.7
		c-0.9-2.6-0.3-3.7-0.3-4.7c0-1-1-3-1.4-3c-0.3,0,0.2,1.8-1,0c-1.2-1.8-1,0-1.4-2.7c-0.3-2.7,0.3-2.4-0.3-4.4c-0.7-2,0-3.7-1-3.4
		c-1,0.3-2.4,0.3-2.4,2.2c0,1.9,0,1.9-0.7,3.2c-0.7,1.4-0.7,2.7-1,4.7c-0.3,2-1.3,1.7-1.3,3.4c0,1.7-1,2.2-1.4,3.7
		c-0.4,1.5,0.7,3.6-1.6,3.5c-2.3-0.1-3.4-0.8-3.7-1.5c-0.3-0.7-3.4-2.7-3.4-2.7c-0.7-0.3-0.3,1-2.4-1c-2-2-4.7-1.7-3-3.4
		c1.7-1.7,1-3.7,1.7-4.1c0.7-0.3,1.3-0.7,2.4-2c1-1.4,3-0.7,0.7-1.7c-2.4-1,0.3-0.7-3-0.7c-3.4,0-0.7,0.7-4.4-0.3
		c-3.7-1-1.4-3.4-3.7-1c-2.4,2.4-0.7,2-3,2.4c-2.4,0.3-2-0.3-3.4,1.7c-1.4,2-0.3,0.7-2,3.4c-1.7,2.7,1.2,3.5-0.7,3
		c-1.9-0.5-0.6-0.9-3-0.3c-2.5,0.6,0.3,0.3-1-1c-1.4-1.4-0.2-2.9-2.4-1.7c-2.2,1.2-3.4,1.4-3.4,1.4s-1.4,1.5-3.4,2.7
		c-2,1.2-3.7,0.4-2,1.9c1.7,1.5,1.4,1.5,0,1.5c-1.4,0,0-0.7-1.4,1c-1.3,1.7-0.7-1.7-2-0.7c-1.4,1-1.4-0.4-2,1.7
		c-0.7,2.1,1.4,1.7-0.7,3.4c-2,1.7-0.3,0.2-3.2,2.6c-2.9,2.4-1.5,2.5-3.9,2.6c-2.4,0.1-3.8,0.7-5.3,1.6c-1.5,0.9,0.2,0.9-1.5,0.6
		c-1.7-0.3,0-1.7-2-0.3c-2,1.4-0.9,1.1-3,2.4c-2.2,1.3-1,0-3,1.7c-2,1.7-1.5,0.7-2,1c-0.6,0.3-0.7-1-1,1c-0.3,2,0.7,0.7-0.7,3
		c-1.4,2.4-1.7,1.4-1,4.4c0.7,3,2,4.4,0.7,4.1c-1.4-0.3-3.2-2.9-2.7-1c0.5,1.8,1.7,2,1.3,4.4c-0.3,2.4-1.6,0.1-0.6,3.8
		c1,3.7,1.2,1.2,0.6,5.4c-0.6,4.2,0.6,3.8,0.1,5.1c-0.5,1.3,0.7,0.9-0.8,2.3c-1.5,1.4-0.1,2-1.7,2.7c-1.6,0.7-2,0.3-1,2
		c1,1.7,0.7,2.3,2.4,2.1c1.7-0.1,4.4-1.1,6.1-1.5c1.7-0.3,1.3-1.4,5.1-1.7c3.7-0.3,3.7-1.3,6.1-1c2.3,0.3,4.1,0.3,4.6-0.9
		c0.5-1.2,2.2-3.6,5.6-3.6c3.4,0,4.4-0.3,6.8-1c2.4-0.7,3.7-1.9,6.4-1c2.7,0.8,2.7,0,4.7,1.4c2,1.4,2.7-0.7,2.7,1.4
		c0,2,0.2,2.1,0.7,4.1c0.5,2-2.3,5.3,0,3.4c2.3-1.9,2-1.6,3.7-2.7c1.7-1.1,1.3-1.3,3-2.7c1.7-1.4,3-2.7,2-1c-1,1.7,0,0.3-2.4,3.4
		c-2.4,3-4.4,6.1-2,3.7c2.4-2.4,3.7-3.4,3-1.7c-0.7,1.7-2.4,2-1.5,2.5c0.8,0.5,1.5-2.9,1.9,0.5c0.3,3.4-1,1.7-0.7,4.4
		c0.3,2.7-1.6,2.4,2,3.7c3.6,1.3,1.5,2,3.9,1.5c2.4-0.5,0.5,0.2,3.2-0.8c2.7-1,2.7-3.1,3-1.2c0.3,1.9-1.6,3.3,1.4,2.2
		c3-1.1,2.4-1.2,4.4-2c2-0.7,2.6-0.4,4.7-0.7c2.2-0.4,2,1.6,3-1.7c1.1-3.3,2.3-4,3.4-5.1c1.1-1.1,3-0.8,4-3.1c1-2.3,0.7-2.3,4.1-5.4
		c3.4-3,3-1,5.1-4.7c2-3.7,2.5-3.1,3.4-5.7c0.9-2.6,0.9,1,1.6-3.4C816.9,327.4,815.9,328.8,817.2,325.7z"/>
	<path class="st0" d="M766.2,279.4c-0.7,0.7-1.7,1,0,1.4c1.7,0.3,3,0.7,3,0c0-0.7-1-1-1-1C766.9,279.4,766.9,278.8,766.2,279.4z"/>
	<path class="st0" d="M779.4,262.6c-1,0.3-1.4-0.7-1.7,1.4c-0.3,2-0.7,2.4-0.3,2.4c0.3,0,2-2,2-2
		C779.1,263.2,780.4,262.2,779.4,262.6z"/>
	<path class="st0" d="M834.5,264.9c0.6,1.8-0.1,2.3,0.6,1.8c0.7-0.5,2.1-1.1,1.4-1.6c-0.7-0.5-1.7-1.9-1.7-1.9s-2-4.1-1.7-2
		C833.4,263.2,833.8,263.1,834.5,264.9z"/>
	<path class="st0" d="M783.1,369.6c-1.7,0.7-4.4,1-4.4,1c-1,0-1.8,0.6-2.7-0.7c-0.9-1.3-3.4-0.4-2.7,0.8c0.7,1.2,0,2.6-0.3,3.9
		c-0.3,1.4-1.4,1.3-0.3,2.1c1,0.9,1.3,0.9,3.4,0.2c2-0.7,2.8,0.7,4.3-1.9c1.5-2.5,1.1-1.5,2.2-3.2
		C783.5,370.3,784.8,369,783.1,369.6z"/>
	<path class="st0" d="M846.3,370.3c-1.4,0-2,0.7-2,0.7c0.3-1.4,0.7-1.7,0-1.7c-0.7,0-1-0.3-1.7,0.7c-0.7,1,1.4,0-1.4,1.7
		c-2.7,1.7-1.4,0.3-3.4,2c-2,1.7,0,0.7-2.7,2c-2.7,1.4,0,0.5-3,1.7c-3.1,1.2-0.7,1.4-3.7,2c-3,0.7-1.6-0.5-3.4,1
		c-1.7,1.5-1,0.3-3.7,2c-2.7,1.7-2.1,1.2-3.7,2.4c-1.6,1.2-3,1-0.7,1.4c2.4,0.3,1.4,1,3,1c1.7,0,0.7,2.2,3.4-0.3
		c2.6-2.6,3.8-1.9,4.5-2.4c0.7-0.5,1.6-0.9,3.3-2.6c1.7-1.7,1.2-2.5,4.1-3.1c3-0.6,2.4-0.9,4.3-1.9c1.9-1,2.7-1.7,3.7-2.4
		c1-0.7,2-1,3-2.4C847.3,370.7,847.6,370.3,846.3,370.3z"/>
	<path class="st0" d="M865.2,359.9c-1.7,0.3-2,2.4-3.7,1.3c-1.7-1-2.4,0.7-1.7-1.3c0.7-2,1.7-3.7,0.3-2.7c-0.5,0.4-0.6,0.8-0.6,1.1
		c-0.1-0.2-0.2-0.4-0.4-0.8c-1-2-0.4-0.6-0.4-3c0-2.4-0.3-1.7-1-2.7c-0.7-1-1-3.7-1-1v5.7c0,2,0.7,2.1-1,4.4
		c-1.7,2.3-1.7,2.7-3.4,3.4c-1.7,0.7-4.1,0-2.4,1.4c1.7,1.4,4.4,0.3,2,2.4c-2.4,2-2.4,1.7-3,2.7c-0.7,1-3.4,2.6-0.3,1.4
		c3.1-1.3,3.7-1.7,3.7-1.7c1.3-0.8,1,0,2.7-1.7c1.7-1.7,1-1,2.4-2.4c1.4-1.4,0-0.3,2.4-1.7c2.4-1.4,3.4-2,4.4-3
		C865.2,360.5,866.9,359.5,865.2,359.9z"/>
	<path class="st0" d="M890.2,298.4c0,0-0.1,0-0.3,0c-0.9,0.1-3.5,0.5-1.7,1.3c2.1,1.1,1.7,1.4,2.7,0.7c1-0.7,1.7-0.3,1-1.4
		C891.2,298,890.2,298.4,890.2,298.4z"/>
	<path class="st0" d="M893.9,295.3c0,0-3.4,0-1,0.7c2.4,0.7,3.4,0.3,3.4,0.3L893.9,295.3z"/>
	<path class="st0" d="M851.3,307.8c1.4,2.4,2,2.7,3,3.7c1,1,3.8,3.4,3,1.4c-0.7-2.1-3.4-3.4-3.4-3.4v-0.3c-1-1.4-0.7-1.7-1.7-2
		C851.3,306.8,850,305.5,851.3,307.8z"/>
	<path class="st0" d="M742.9,86.2c0,0.3,2,1.4,3,2.4c1,1,1.1,1.8,2,2.7c1,0.9,1.9,1.5,2.4,2.7c0.4,1.2,0.2,1.8,1.7,3
		c1.5,1.2,1.5,1.3,2.7,3.4c1.2,2.1,0.7,2,1.7,3c1,1,2,2.4,1.7,1c-0.3-1.4-2.7-2.4-0.3-1.7c2.4,0.7,3.7,1.8,3,1
		c-0.6-0.8-0.3-0.3-2-1.7c-1.7-1.4-3-0.7-3.7-2.7c-0.7-2-1.7-4.1-1.7-4.1c1-0.3,1.3-1.7,2.4-0.7c1,1,1,1,1.7,1.4
		c0.7,0.3-2.5-2.2-4.1-3.4c-1.6-1.2-2-2-3.7-3.4c-1.7-1.4-0.6-1-2-2.2c-1.4-1.2-0.6-0.2-1.7-1.5c-1.1-1.4-2-2.4-2.7-2.7
		c-0.7-0.3,1-0.4-1.2-1.6c-2.2-1.1-3.2-1.8-2.2-0.8c1,1,2.4,1,2,2.4C741.6,84.2,742.9,85.9,742.9,86.2z"/>
	<path class="st0" d="M769.3,113.9c0.7,0,0.3,1,1.4,0c1-1,0.7-2.4,0-2.4s-0.8-2.3-1.4-1.7c-0.6,0.6,0.3,1.7-1.7,1
		c-2-0.7-3-1.7-3-1.7c-1.5-1.2-2.7-0.9-3.5-1.5c-0.8-0.6-2.4-2.3-2.2-1.2c0.2,1.1,1,1.7,1.7,3c0.7,1.4,1.4,2,1.4,3s-2,0-2,1
		c0,1-2.1,0.3-0.3,1.7c1.8,1.4,0.3,1.7,2,2c1.7,0.3,4.1,2,2.7,0.3c-1.3-1.7-4.1-2.4-2.4-2.4c1.7,0,0.3-1.1,2-0.3
		c1.8,0.8,2.7,1.2,3.4,1.4c0.7,0.3,2.5,2.1,2,0.3C768.8,114.7,768.6,113.9,769.3,113.9z"/>
	<path class="st0" d="M762.3,132.2C762.5,131.8,762.4,131.9,762.3,132.2L762.3,132.2z"/>
	<path class="st0" d="M750,145c1.7,0.7,1.7,1.4,1.7,2c0,0.7-0.3,3,1,2.7c1.4-0.3,1.6,1.5,2.4-1c0.8-2.5,1-2.7,0.3-4.1
		c-0.7-1.4,0-1-1.7-2s-3.4-1.4-1.3-1.4c2,0,3-1,4.4-1.4c1.4-0.3,0.7-1.4,2.4-1c1.7,0.3,2-0.7,2.4,1c0.3,1.7-1.4,5.1,1.4,2.4
		c2.7-2.7,3.4-1.7,2.7-2.7c-0.7-1,0-2,1.2-1.2c1.2,0.8-0.5,0.2,2.2-0.2c2.7-0.4,3.6-0.2,4.1-1.4c0.5-1.2,2.7-0.6,0.8-2.5
		c-1.9-1.9-0.6-1.4-2-3.1c-1.4-1.7-1.6-1.5-1.2-3.5c0.3-2,1.6-1.5,0.3-3c-1.2-1.5,0.2-1.2-1.7-2.4c-1.9-1.2-2.5-2-2.5-2
		c-0.2-0.2-0.2-0.4-0.3-0.5c-0.2-0.7,0.5-1-0.6-0.5c-1.3,0.7-1.7-1.7-2,0c-0.3,1.7,0.3,2.7,0.3,2.7s1-0.7,1.4,2.4
		c0.3,3,1.3,3.4,0.7,4.7c-0.7,1.4-0.3,2-1.7,2.7c-1.4,0.7-1.4,1.4-2,1c-0.3-0.1-0.2-0.4-0.2-0.6c-0.1,0.2-0.2,0.5-0.5,1
		c-1.2,2.3,0.3,2.4-0.7,3c-1,0.7,0.3-1.5-1.7-0.3c-2,1.2-1.4,2-3.2,1.3c-1.8-0.6-3.7-1.3-3.8,0.2c-0.1,1.5-2.8,1.8-2.1,2.8
		c0.7,1,0.3,0.3-0.7,2C748.7,144,748.3,144.3,750,145z"/>
	<path class="st0" d="M760.1,142.3c0.2-0.2,0.8-0.8,0-1.4c-0.8-0.5-1-0.3-2.4,0c-1.4,0.3-2,0-2,1.4c0,1.4-0.1,1.7,1,1.4
		c1.1-0.3-0.6-0.7,1.4-0.7C760.1,143,760.1,142.3,760.1,142.3z"/>
	<path class="st0" d="M681.8,23.9c-4.5-0.5-10.9-1.3-12.5-1.5c1.3,0.2,5.9,0.7,8.7,1.3c0.2,0,0.3,0.1,0.4,0.1l7.1,0.5
		C684.7,24.2,683.4,24.1,681.8,23.9z"/>
	<path class="st0" d="M686.5,24.4l-0.9-0.1C686.5,24.4,686.9,24.4,686.5,24.4z"/>
	<path class="st0" d="M669.3,22.4c-0.2,0-0.4,0-0.4,0S669.1,22.4,669.3,22.4z"/>
	<path class="st0" d="M667.6,25.4c2.7,0.3,0.3,0.7,4.1,0c3.5-0.6,9.2-1,6.8-1.6L667.9,23c0,0-2-2.4-3-0.7
		C663.9,24,664.9,25,667.6,25.4z"/>
	<path class="st0" d="M843.2,269c0.8,0.6-0.3,0.3,1.4,1c0.9,0.4,1.5,0.5,1.8,0.6c-0.7-0.3-2.5-1.6-2.5-1.6
		C843.2,268.3,842.4,268.3,843.2,269z"/>
	<path class="st0" d="M846.4,270.6c0.1,0,0.2,0.1,0.2,0.1C846.8,270.7,846.7,270.7,846.4,270.6z"/>
	<path class="st0" d="M848.6,271.7c1,0.7,1.4,2.7,1.4,2.7l-0.3-2C848.6,271.3,847.6,271,848.6,271.7z"/>
	<path class="st0" d="M863.2,296c0.5,1,2.2,2.6,1.4,0.3c-0.8-2.3-0.7-4.9-0.7-4.9c-1.7-0.8-2.7-0.5-2.4,0.5
		C861.8,293,862.7,295,863.2,296z"/>
	<path class="st0" d="M851,278.1c0.9,0.2,1.2,1.5,0.9,0.2c-0.2-1.2-0.9-1.7-0.9-1.7C850.3,277.4,850.1,277.9,851,278.1z"/>
</g>
</svg>
