<?xml version="1.0" encoding="utf-8"?>
<!-- Generator: Adobe Illustrator 23.1.1, SVG Export Plug-In . SVG Version: 6.00 Build 0)  -->
<svg version="1.1" id="Capa_1" xmlns="http://www.w3.org/2000/svg" xmlns:xlink="http://www.w3.org/1999/xlink" x="0px" y="0px"
	 viewBox="0 0 350 500" style="enable-background:new 0 0 350 500;" xml:space="preserve">
<style type="text/css">
	.st0{fill:#99E7FF;}
	.st1{fill:#955DD1;}
	.st2{fill:#FFE8D7;}
	.st3{fill:#7F34C1;}
	.st4{fill:#F7D7C1;}
	.st5{fill:#69D0E8;}
	.st6{fill:#56C5D8;}
	.st7{fill:none;}
	.st8{opacity:0.49;fill:#FFFFFF;enable-background:new    ;}
	.st9{fill:#C3A0EF;}
	.st10{fill:#943CD3;}
	.st11{fill:#606161;}
	.st12{fill:#6A6B6B;}
	.st13{fill:#7E7F7F;}
	.st14{fill:#672AB7;}
	.st15{fill:#843ECE;}
	.st16{fill:#8541CE;}
	.st17{fill:#EFD1BD;}
	.st18{opacity:0.51;fill:#BD8BEA;enable-background:new    ;}
	.st19{fill:#7432BA;}
	.st20{fill:#E6E7E8;}
	.st21{fill:#606060;}
	.st22{fill:#DBAF91;}
	.st23{fill:#9AFCF7;}
</style>
<g>
	<path class="st0" d="M132.3,254.4c0,0-3.8-7.3-8.7-9.5l1.4-1.9l8.1-10.1l2.1-15.6c0,0-1.4-9-0.8-10.6c0.7-1.7,1-4.4,2.7-5.5
		s5.7-3.9,6.2-4.3c0.5-0.3,4.5-1.2,5.1-1.5s4.5-1.8,4.9-2.2c0.4-0.3,3.5-3.2,3.5-3.2l0.3-3.6l0.5-9.3c0,0-1.1-3.1-0.9-4.1l1.3-13.7
		c0,0,0.2-4,1.5-6.9c1.3-3,3.5-5.6,11.4-6.4c7.9-0.8,11.1,6.5,11.3,6.9s1.1,5.1,1.1,5.1l-0.7,5.8l-1,10.6c0,0-2.6,6.5-2.6,7
		s-1.3,1.9-0.5,2.9c0.8,1.1,4.8,5.9,4.8,5.9l5.6,0.9c0,0,12.2,1.5,16.3,6.8s6,9.1,6,9.1s3.9,7.1,5.7,8.6c1.7,1.5,5,5.3,5,5.3
		l3.2,5.3c0,0,2,3.4,2.6,4.2s4.2,3,4.2,3s1.2,1.4,1.2,2.1s-0.1,2.5,0.1,3.1c0.2,0.6,0.7,2.8,0.8,3.2s0,3.7,0,3.7s-7.7,0-12.8,3.8
		c0,0-3.6-5.3-3.4-9.3c0,0-11.9-8.2-16-14.7c0,0-1.9-2.7-2.7-3.2c-0.8-0.6-1.7,5.1-1.7,5.1l-5.2,14.3l-4.2,9.1c0,0-2.4,4.7-2.5,5.1
		s-1.2,3.9-1.2,5.7s-0.4,4.4-0.4,4.4s-28.8,7.3-38.9-0.2l-1.2-11l-0.7-12.9C143.5,242,134,253.4,132.3,254.4z"/>
	<polyline class="st1" points="157.1,196 157.3,187.6 157.7,177.5 156.9,175.5 157.2,168 158.6,154.7 159.2,153.4 161.4,152.8 
		164.4,153.2 167.3,153.8 175,154.6 180.3,154.4 182.9,155.5 183.9,158.1 181.9,174.6 178.8,182.8 178.5,185.3 183.6,190.4 
		173.5,196.1 157.1,196 	"/>
	<path class="st1" d="M220.7,250.6c0,0,3.7-2.8,6.3-3.6c2.6-0.9,7.2-1.2,7.2-1.2l1.1,1.5l-0.6,5.2l0.6,9.3l0.8,6.7
		c0,0,0.2,1.9,0.2,2.4s-1.5,2.5-1.5,2.5l0.1-4.7c0,0-1.7-1.5-2.6-1.4s-7.2,0.3-7.2,0.3S223.5,254.6,220.7,250.6z"/>
	<path class="st1" d="M114.7,271.4l1.7,0.4l1-1.4l4-4.5l2.8-2.3l5.8-5.3l2.4-2.6c0,0-0.6-3.2-1.9-4.7s-5.6-5.8-6.9-6.1
		s-2.3,0.2-2.3,0.2l-2.3,4.4l-7.4,9.1l-2.8,4.2l0.2,1c0,0,1.3,0.4,2.8,1.2c1.5,0.8,4.2,4.8,4.2,4.8L114.7,271.4z"/>
	<path class="st2" d="M161.1,181.2c-0.3-0.4-1.6-1.9-1.6-1.9l-0.7-3.4l-0.1-3.7l0.1-2.1l7.2,0.6c0,0,1.6,0.5,2.4,0.9
		c0.8,0.5,2.8,0.3,2.8,0.3l2.1-0.5l4.5,0.3l2.9,0.3l-0.7,3.6c0,0-1.1,5.8-2.9,7.9l-4.7,2.5l-5.9-0.4l-3.7-2.7L161.1,181.2z"/>
	<path class="st3" d="M171.1,163.2c0,0,0.1-2.7,4.3-2.7c2.5,0,1.6-4.5,1.6-4.5s-0.8-7.2-4.1-9.7c0,0,8.1,1.6,9.5,6.8
		c1,3.6,0.8,7.4,0.8,7.4l-0.3,3.5c0,0-3.3-2.3-6.4-2l-3.7,1l-0.8,0.9L171.1,163.2z"/>
	<path class="st3" d="M170.5,166c0,0-0.4,5.1-0.2,5.5s1.1,0.4,1.1,0.4l2.1-0.5l7.4,0.6l-0.7,3.6c0,0-1.2,6.4-2.9,7.9l1.6-0.7
		c0,0,2.2-4.1,2.2-4.4c-0.1-0.3,0.8-4.6,0.8-4.6l0.3-4.8c0,0-2.8,1.4-5.5,1.1c-2.4-0.2-3.7,0.3-4-0.9c-0.3-1.1-0.7-3.5-0.7-3.5
		L170.5,166z"/>
	<path class="st3" d="M180.8,170.1v1.9c0,0-0.8,4.2-1.1,5.1c-0.3,0.9-1.1,4.9-2.5,6.4c0,0,2.3-0.7,3.2-4s1-4.8,1.5-5.6
		c0.5-0.9,0.9-4.7,0.9-4.7L180.8,170.1z"/>
	<path class="st4" d="M161.9,170.4c0,0,3.8,0.7,4.8,1.1c1,0.4,2.4,1.5,3.8,1.5c1.4-0.1,2.9-0.6,3.2-0.2c0.3,0.4-0.1,2,0,3
		c0.1,0.7,0.8,1.3,0.5,2.3c-0.5,1.5-1.5,7.5-3.4,7.8c0,0,5.3-1.3,6.4-2.4c0,0,2-2.4,3.6-11.5l-7.4-0.6c0,0-3.3,1-4.9,0.1
		C166.9,170.7,161.9,170.4,161.9,170.4z"/>
	<path class="st3" d="M181.7,187.9c0,0-3.4-3.8-2.9-5.1c0,0-5.3,3.6-9.5,3.3c-3.3-0.3-6.7-2.7-9.8-6.8c0,0,4.7,13.7,8.6,16.6
		l5.3,0.3l9.6-5.7L181.7,187.9z"/>
	<path class="st5" d="M160.3,224.2c0,0,19.4,0.8,23.7-4c5.2-5.8,6.9-13.6,8.5-13.7c1.1,0,2.1,4.9,3.8,7.7c1.4,2.3,5.4,7.1,8.4,10.1
		s11.3,12.2,14,12.7s6.6,10.4,6.6,10.4l-3.7,2.2c0,0-3.9-4-3.4-9.3c0,0-13-9.8-20.3-19.9c0,0-3-7.5-6.4-3.3s-6.6,9.6-12.5,9
		C173,225.6,160.3,224.2,160.3,224.2z"/>
	<path class="st5" d="M193.2,207.4c5.1,6.7,14.4,6.7,19.6,6.3c2.8-0.2-4.5-15.2-14.8-19.9c0,0,9.8,3.9,13.4,13.4
		c0,0,4.3,7.1,5.7,8.6s6.7,8.4,6.7,8.4l4.1,6.3l4.2,3l1.3,5.2l0.9,6.9c0,0-9.8,1.5-12.8,3.8c0,0-0.5-7.9-0.9-8.7s-8.2-5.7-9.7-7.6
		c-1.6-1.9-9.9-12.1-10.5-12.7C195.7,216.5,193.2,207.4,193.2,207.4z"/>
	<path class="st6" d="M196.1,217.8c0,0,8.4,7.7,11.6,10c3.1,2.3,11.3,9.2,13.4,10c2.2,0.8,4.1,9.6,4.1,9.6l-3.7,2.2
		c0,0-3.9-6-3.4-9.3C218.1,240.3,204.3,231.4,196.1,217.8z"/>
	<path class="st5" d="M132.3,254.4c0,0-0.5-2.8-2.9-4.7c0,0,8.2-9.2,9.4-13.5c2-6.7-0.7-17.8,2.3-26.3c0,0-2.9,11.7-0.4,16.2
		c0,0,1.3,2.2,1.4,3.3c0.1,1.1,1.4,12.6,1.4,12.6S135,253,132.3,254.4z"/>
	<path class="st6" d="M132.3,254.4c0,0,0.2-0.3-0.9-2.1c0,0,0.9-1.7,6.1-7.4c4.3-4.7,5.7-8.9,5.7-8.9l0.3,6
		C143.5,242,134.6,253.4,132.3,254.4z"/>
	<path class="st5" d="M192.5,241.8c-0.2-1.6,6.9-19.4,6.9-19.4s-4-7.1-5.7-6.7c-1.7,0.4-6.1,5.2-6.1,5.2s-3,4.2-5.3,4.7
		s-5.1,0.5-5.1,0.5s-1.8,3.4-4.1,8l7.3,10.6c0,0,3.6-0.3,6.4-0.8S192.5,241.8,192.5,241.8"/>
	<path class="st6" d="M187.5,243.6c1.4-4.1,0-22.7,0-22.7l3.8-3.8c2.7-5.2,8,5.3,8,5.3s-4.8,14.1-7.3,19.6l-1.9,0.8L187.5,243.6z"/>
	<path class="st5" d="M152.9,223.8c0,0-5.4,0.3-7.7,0.7c-2.3,0.3-5,1.8-5.3-0.6c0,0,1.1,2.9,1.4,3.3c0.2,0.4,1.1-0.3,1.1-0.3
		S150.1,223.4,152.9,223.8z"/>
	
		<ellipse transform="matrix(0.6528 -0.7576 0.7576 0.6528 -87.4765 221.5279)" class="st7" cx="197.9" cy="206.2" rx="1.5" ry="3.4"/>
	<path class="st8" d="M141.1,198.5c0.7,0.7-0.3,4.1-1.6,5.4c-1.3,1.3-3.7,2.3-4.5,1.5s0.5-2.9,1.8-4.2S140.3,197.7,141.1,198.5z"/>
	<path class="st3" d="M225.2,247.4l3.7,19.6l-3.9,0.4c0,0-1.8-10.1-2.4-12s-1.9-4.8-1.9-4.8S223.4,247.8,225.2,247.4z"/>
	<polygon class="st9" points="225.2,247.4 228.9,267 230.2,267.1 227.6,246.7 	"/>
	<path class="st10" d="M234.8,268.1c0,0-0.8-4.9-0.9-5.3s-1.3-12.8-0.5-17.1l2.1,0.4l-0.4,5.4l-0.1,6.1l0.5,5.1l0.6,5.5L234.8,268.1
		z"/>
	<path class="st6" d="M209.3,230.2c0,0,9.9,8.4,15.4,5.2c0,0,1-0.5,1.7-0.5c0.9,0,1.4,0.4,0.2,1.7c-2.2,2.3-3.9,2.4-3.3,5.9
		c0.7,3.5,0.2,6.2-1.6,3.8s-3.1-9.2-3.1-9.2L209.3,230.2z"/>
	<path class="st3" d="M129.4,249.6l-15.1,17l1.6,3.4l0.5,1.8l3.9-4.6l3.9-3.6l4.5-4.1l3.6-3.8C132.4,255.7,131.6,252.1,129.4,249.6z
		"/>
	<polygon class="st9" points="109.2,262.5 124,245 125.5,246.3 110.7,263.8 	"/>
	<path class="st10" d="M109.6,263.2c0-0.3,3.1-4.1,3.1-4.1s6-7.6,6.2-7.8s4.8-5.9,4.8-5.9l-2.4-0.3c0,0-4.7,7.7-5,7.9s-5.7,7-5.7,7
		l-1.6,2.2L109.6,263.2z"/>
	<path class="st0" d="M223.8,224.3l-3.3-5c0,0-2.3-1.4-3.4-3.4s-3.4-5.2-3.4-5.2l-0.7,0.2c0.2,0.4-0.3,0.9,0.2,1.8
		c1.7,2.9-1,3.8-2.9,4c-0.7,0.1-2.1-0.4-3.7-0.9c2.2,1.6,5.3,4.1,7.1,5.8c2.6,2.6,8.8,9.9,8.8,9.9s1.6,1.3,2.7,0.8
		c1.2-0.5,2-2.5,2.8-1.5C228.7,231.6,223.8,224.3,223.8,224.3z"/>
	<path class="st5" d="M211.3,216.2c-0.7-0.1-2.6,0.4-1.1,2.3c1,1.2-3.8,0.6-3.8,0.6s-3.6-2.9-2.4-3.5s5.4-0.6,5.4-0.6L211.3,216.2z"
		/>
	<path class="st0" d="M212.8,213.7c0,0,0.7-0.3,0.8,0.6c0.1,0.5,0.8,0.4,0.5-0.3s-1.2-2-1.2-2l-0.5,0.9L212.8,213.7z"/>
	<g>
		<path class="st11" d="M158.4,154.4l3-1.5c0,0,13.9,2.7,19.6,1.6l2.9,2.7l0.1-6.6c0,0-2-0.2-3.1-2.4c-1.2-2.1-3-1.4-3.3-1.7
			s-2-2.7-2.9-2.7s-3.1,0.3-3.4,0.3c-0.3,0-1.5,0.1-2.5,0.4s-2.9,0.7-3.6,0.6c-0.7-0.1-3.2,0.3-3.4,0.7c-0.2,0.5-3.4,4-3.4,4
			L158.4,154.4z"/>
		<path class="st12" d="M170,143.3c-0.3,0-1.4,0.8-1.7,1.4c-0.4,0.5,0.1,0.6,1.7,0.5c1.6-0.1,4.1-0.9,3.3,0s-2.3,1.5-2.3,1.5
			s0.6,0.4,2.8,0.5c3.1,0.1,3.1-0.2,2.2,1.2c-0.9,1.4,1.3,0.6,1.9,2.8c0.6,2.2-0.9,3.7-0.9,3.7l3.2-0.5l2.7,1.4l1,0.7l0.1-6
			c0,0-1.1,0.2-1.3-0.1s-0.9-2.6-1.2-2.8s-1.4-0.1-2.5-0.6c-1.1-0.4-2.5-2.4-3.1-2.8c-0.6-0.4-0.9-0.4-1.7-0.4s-3.4,0.2-3.4,0.2
			L170,143.3z"/>
		<path class="st12" d="M165.5,148c1.3-0.5,1.4-0.7,3.1-0.8s1.7-0.1,1.7-0.1s-2.5,0.5-3.4,0.9c-1.9,0.8-2.3,1.4-2.3,1
			C164.5,148.7,165.5,148,165.5,148z"/>
		<path class="st12" d="M171.9,147.6c0.2-0.1-5,2.2-5.1,5.4l1.6,0.7C168.4,153.7,167.5,150.7,171.9,147.6z"/>
		<path class="st11" d="M179.6,154.4c0-0.2,0.5-3.2-0.9-4.3s-1.7-1.6-1.9-2.1c0,0,0.4,1.2,1.8,1.7c1.4,0.4,2.8,2.1,2.6,4.5
			L179.6,154.4z"/>
		<path class="st11" d="M170.6,146.7c0,0,4.3,0.1,4.7,0c0,0-3.2,0.6-4.1,0.5C170.2,147.2,170.6,146.7,170.6,146.7z"/>
		<path class="st12" d="M169.3,154c0.1-0.3-0.7-3.9,1.1-5.4c0,0-1.7,2.9,0,5.7H170C170,154.3,169.1,154.7,169.3,154z"/>
		<path class="st12" d="M171.2,154.3c0,0-0.5-4.8,2.6-7.1c0,0-2.7,2.4-1.3,7.4L171.2,154.3z"/>
		<path class="st12" d="M175,154.6c0.2-0.4,1.1-1.3,0.5-2.9c-0.6-1.6-1.7-2.4-0.6-3.4c0,0,1.2-0.6,1.1-1.3c0,0,0.3,0.7-0.4,1.3
			c-1,0.8-0.3,1.7,0,2s2,1.7,0.8,4.4L175,154.6z"/>
		<path class="st12" d="M174.8,147.9c0.1-0.1-0.9,0.7-0.5,1.8C174.2,149.8,173.5,148.9,174.8,147.9z"/>
		<path class="st12" d="M172.9,154.3c0,0-0.8-1.6-0.5-3.4c0,0-0.1,1.8,1,3.5L172.9,154.3z"/>
		<path class="st13" d="M178,153.1c0,0.1,0.1-2.4-1.4-3.4C176.6,149.7,178.6,150.6,178,153.1z"/>
		<path class="st13" d="M175.8,150.7c0,0-1.5-1.2-0.5-2.2c0,0-0.4,0.7,0,1.4C175.8,150.7,175.8,150.5,175.8,150.7z"/>
		<path class="st13" d="M170.9,152.7c0,0-0.5-3.1,1.7-4.8C172.6,147.9,171.2,149.1,170.9,152.7z"/>
		<path class="st13" d="M174.7,145.1c0.2,0.2,0.6,0.6,0.7,1s1.3,1,1.3,1s-0.9-0.5-1.1-1.1C175.5,145.5,174.7,145.1,174.7,145.1z"/>
		<path class="st13" d="M174.1,154.4c0.3-0.3,1.4-1.6,0.6-3.6c0,0,1.1,1.5,0.3,3.6H174.1z"/>
		<path class="st13" d="M182.3,154.6c0-0.2,0.1-2.3,0.1-2.3s-0.6-0.4-1-1.2s-0.2-1.3-1-2.3c-0.5-0.6-0.8-1-1.6-1.1s-1.3-1-1.3-1
			l3.1,0.9l0.9,1.3l0.7,1.6c0,0,0.7,0.6,0.9,0.6s0.6,0.7,0.6,0.9s-0.3,2.9-0.3,2.9L182.3,154.6z"/>
	</g>
	<path class="st11" d="M159.2,153.4c-0.1,0.1-0.9,3.9-0.9,3.9l0.1-3l0.3-1.9L159.2,153.4z"/>
	<path class="st2" d="M221.3,279.8c-0.2,0-2-0.2-1.9-1s1.3-4.4,1.3-4.4s1.5-2,1.6-2.1c0.1-0.2,1.3-2.3,1.4-2.5
		c0.1-0.2,1.6-2.7,1.6-2.7l1.5-1l1.8-0.2l1.5,0.1l1.6,0.1l1.7,0.3l1.2,0.5l1.2,0.7l1.2,1.7l1.1,2l1.7,1.5l2.2,2.4l-0.2,1.7
		c0,0,0.7,1.4,1,1.9s1.4,1.4,1.3,2.3c-0.1,0.9,0.1,3.1-0.1,3.3s-1.3-0.4-1.7-0.5c-0.4-0.2-0.7-0.3-1,0.4c-0.2,0.7-0.7,1.9-1.1,2.5
		c-0.4,0.6-1.5,1.8-1.5,1.7c0-0.2-0.4-1.5-0.2-2.1s0.3-1.8,0.4-2.1c0.1-0.3,0.2-2.4,0.2-2.7c0-0.3-0.6-1.7-0.8-1.7
		c-0.2-0.1-1.7-0.6-1.7-0.6l-3.4-1.1l-3.3-1l-1.5-0.9c0,0-2.3-0.9-2.5-0.9s-1.3,0.9-1.3,0.9s-1.7,2.3-1.8,2.4
		S221.3,279.8,221.3,279.8z"/>
	<path class="st2" d="M115.2,268.2c0.1,0.2,0.7,1.8,0.7,1.8s-2.3,2.7-3.1,3.1c-0.7,0.4-1.6,1.8-1.6,1.8l-2.7,5.9l-1.7-0.7l-0.3-3.8
		l-2.7,1.3l-1.8,2.6l-0.7,2.2l-0.3,1.5l-0.1,2.2c0,0-1.2,0.8-1.8,0.2l-1.3-4.5l-0.9,0.9c0,0-0.6,3.4-1,3.7s-2,0.6-2.2-0.5
		c-0.1-1.1,0-1.7,0-1.7l-0.8-0.6c0,0-0.5,2-1.4,2s-1.5-0.9-1.3-1.7c0.2-0.8,3.6-9.6,3.6-9.6l2-2.4l4.1-3.1l5.2-4l3.4-1.5l1.1-0.2
		C109.6,263.2,113.5,265,115.2,268.2z"/>
	<path class="st1" d="M142.8,234l7.6-1.9l5.2-0.5c0,0,4.7,0.3,5.5,0.5c0.7,0.2,12,1.9,12,1.9l7.3,10.6c0,0,9.2-0.9,11.7-2.6
		c0,0-2.9,6.5-4.3,9.7c-1.4,3.1-2.4,5.6-2.4,5.6l-1.2,8.9l-14,2.4c0,0-16.4,2.9-24.8-2.6c0,0-1.2-15.4-1.2-15.7c0-0.4-0.8-10-0.8-10
		L142.8,234z"/>
	<path class="st0" d="M137.4,319.8c0,0-9,7.7-19.2,2c0,0-4.7-1.2-4-4.7c0.6-3.5,2.3-6.6,2.3-6.6l5.4-11.1c0,0,6.1-8.8,10.2-13.3
		s10.5-9.7,12-14.2s1.4-6,1.4-6s5.1,3.6,13.9,3.4c8.8-0.2,23.6-2.2,24.4-2.7c0.9-0.5,0.8,0.9,0.8,0.9s0.6,6.5,1,7.9s1.9,5.2,1.9,5.2
		l3.3,9.7l3.2,13.8c0,0,2.2,10.8,2.2,10.9c0,0.2,0.7,13.5,0.7,13.5s0.3,8.9,0.3,9.3s-0.2,6.4-0.2,6.4s-2.9-3-7.7-1.9
		s-6.6,1.7-6.6,1.7l-3.8,2.9l-1,1.5l-4.4-13.9l-3.4-10l-1.3-4.3l-1.4-7.5l-0.8-4.7l-1.6-3.9c0,0-2.4-2.7-3-2.8
		c-0.7-0.1-2.7-0.7-3.1-0.5s-2,1.2-2,1.2l-3.2,4.5c0,0-3.3,3.6-3.3,3.8c0,0.2-3.8,3.4-3.8,3.4l-3.1,2.7l-3.3,2.3L137.4,319.8z"/>
	<path class="st5" d="M126.1,323.7c1.1,0.1,14.5-10,19.1-17.8c4.6-7.8,6-10.3,8.3-14.6c2.2-4.1,11,2.9,11.5,4.5
		c1.9,6,11.4,9.8,9.6-9c-1.2-12.6-0.9-18.7-0.9-18.7l10-1.5l3.7,14l4,13l2.9,12.6l2,14.7l0.6,17l-0.2,6.4c0,0-5-3.7-12.5-1
		c0,0-4.5,2.1-6.6,5.2l-6.9-20.6l-3-10.3l-1.5-9.5c0,0-1.1-7.6-7.7-7.2c0,0-3,1.4-7.2,8.5c0,0-8.8,8.3-11.4,9.4s-6.7,3.6-6.7,3.6
		s-3.4,1.5-5.4,1.5C126.1,323.7,126.1,323.7,126.1,323.7z"/>
	<path class="st0" d="M165.8,305.8c0,0,1.1,4.7,1.4,6.9c1.1,7.9,5.8,18.1,7.9,22.4c1.8,3.7,2.4,4.3,5.3,5.1
		c2.9,0.7,7.2-2.7,7.1-12.6c-0.1-9.9-5.9-27.9-9.8-36.6c-4.9-10.8-3-11.9-3.8-15.9s-2.8-0.1-2.8-0.1l-4.6,11.6L165.8,305.8z"/>
	<path class="st0" d="M165.8,305.8c0,0-0.5-9.9-5.1-13.6s0.8-2.4,3.1-2.1s4.9,3.6,4.9,3.6l1.1,6.6L165.8,305.8z"/>
	<path class="st5" d="M175,271.6c-0.9,0.4-13.1,2.3-21.5,0.9c0,0,8.2,2.6,22.9,0.6c0,0,0.9-2.1,0.6-2.2
		C176.7,270.8,175,271.6,175,271.6z"/>
	<path class="st8" d="M156.5,271.8c2,0.3,13.8,0,15.5-0.2c1.4-0.2,1.3-1.2-0.7-0.9c-1.5,0.2-15.4,0.6-16.4,0.8
		C154,271.7,156.5,271.8,156.5,271.8z"/>
	<path class="st3" d="M173.7,268.1l6.7-23.4c0,0,9.4-0.6,11.7-2.6l-5.8,12.5c0,0-1.3,3.8-1.5,6s-1.1,6-1.1,6
		S176.1,268.3,173.7,268.1z"/>
	<path class="st14" d="M187.5,243.6c0,0-3.6,9.9-3.4,16.6c0,0,2-5.6,2.5-6.5s4.3-8.5,4.3-8.5l1.2-3.2
		C192.1,242,189.3,243.1,187.5,243.6z"/>
	<path class="st15" d="M173.1,234.1c0,0-1.3,5.5-2.8,15.1s-1.1,19.2-1.1,19.2l4.6-0.3l6.7-23.4L173.1,234.1z"/>
	<path class="st16" d="M113.9,318c0,0,1.5,2.6,4.4,3.8c2.9,1.1,7.7,2.9,11.4,1.7c3.7-1.2,4.9-1.8,7.8-3.7l3.5-1.8l1.1,4.3l0.3,1.8
		c0,0,1.2-0.6,2-1.6l2.6-0.4l2.8,0.4l2.5,2.3l0.1,3.1l-0.3,7.1l0.1,6l-0.5,10.8l-1.4,7.1l-2.1,3.5c0,0-1.7,2-4.7,2.2
		s-4.6-0.3-5.4-2.6c-0.8-2.3-1-5.7-1-5.7v-7.7c0,0,2.1-6.7-2.6-9.4c-3.6-2.1-12.1-3.2-12.1-3.2l-7-4.7l-0.8-1.4l0.3-1.8l-1.4-1.2
		l-0.5-2.3l1-1.6l-1.3-1l-0.3-2.6L113.9,318z"/>
	
		<ellipse transform="matrix(0.5246 -0.8514 0.8514 0.5246 -195.9264 250.8457)" class="st8" cx="126.6" cy="300.9" rx="13.1" ry="2.4"/>
	<path class="st6" d="M196.8,344.3c0,0-2.9-2.2-4.2-2.3c-1.3-0.1,0.7-9.3,1-15s-1-30.5-2.9-36.7c0,0,6,22.8,5.9,26.7
		s0.2,11.6,0.2,11.6V344.3z"/>
	<path class="st0" d="M147.9,296.4c1.2-1,11.1-2.6,14.9,2.9c0,0-4.5-2.8-8.3-2.1c-2.7,0.5-4.6,1.1-6.5,3.4c-2,2.3-1.8-1.5-1.8-1.5
		L147.9,296.4z"/>
	<path class="st0" d="M164,297.1c0,0-3.9-7.7-11.3-5.2c0,0-1.6-1.7-0.3-2.2c1.3-0.4,4.9-0.7,5.4-0.5c0.5,0.1,6.1,2.7,6.1,2.7l1,3.9
		L164,297.1z"/>
	<path class="st0" d="M150.6,295.9c0,0,10-7.8,13.9,3l-0.1-3.7c0,0-5.4-3.9-5.7-4s-5.6-1-6.6,0C151.1,292.3,150.6,295.9,150.6,295.9
		z"/>
	<path class="st6" d="M165.8,305.8c0-0.8-0.6-5.2-1.9-7.1c-1.2-1.9-4-2.8-4-2.8s3.6,1.9,4,4.4c0,0-3.7-1.9-6.4-1.7
		c-2.6,0.2-8.1,3.4-8.1,3.4s6.6-2.4,9.2-1.8c0,0-5,1.4-6.7,4.3s-3.2,7.4-3.5,7.4s3.8-3.8,3.8-3.8l4.6-6.2c0,0,2.4-2.4,6.8,0.3
		L165.8,305.8z"/>
	<path class="st8" d="M153.5,293.5c1.6-0.8,5.4-1.8,8.2,0c0,0-0.1-0.7-1.3-1.3c-1.8-0.8-3.6-0.5-4.6-0.1
		C154.6,292.6,153.5,293.5,153.5,293.5z"/>
	<polygon class="st15" points="144.9,233.6 146.7,266.2 145.4,265.9 142.8,234 	"/>
	<polygon class="st9" points="146.2,233.1 151.7,232.1 150.1,267.9 147.9,267.2 	"/>
	<path class="st8" d="M144.2,203c-0.6,0.8-4.9,12.3-3.2,20.3c0,0,0.1,1,2.2,0.8c1.7-0.2,6.3-0.7,6.3-0.7s1.7-0.6-2-0.9
		c-4.6-0.3-4.4-3.1-4.4-4.4c0-1.4,0.2-9.5,2.1-15C145.1,203,144.8,202.2,144.2,203z"/>
	<path class="st8" d="M186,211.8c1-1.8,2-3.3,2.6-3.2s0.4,0.7,0.2,1.2c-0.6,1.8-2.9,5.4-3.7,6.7c-0.8,1.2-2.1,2.7-2.7,3.2
		c-0.8,0.7-1.5,0.9-1.5,0.9c-6,2.4-20.3,3-20.5,2.4c-0.4-0.8,0.6-1,0.6-1s10.7-0.1,15.2-1.5c0,0,3.7-0.6,5.2-2.2
		C183.3,216.3,186,211.8,186,211.8z"/>
	<polygon class="st9" points="158.2,195.4 158.5,178.1 159.5,179.2 160.1,195.6 	"/>
	<polygon class="st9" points="161.4,152.8 159.7,169.8 158.1,169.6 159.6,153.8 	"/>
	<path class="st16" d="M199,436.5l4.9-0.1c0,0,3.3-1.7,4.1-3.9c0.8-2.2,1.9-2.6,1.5-6.6c-0.4-3.9-0.9-14.4-0.9-14.4
		s-0.4-5.3-0.9-5.9s-1.7-3.7-1.8-4.8c-0.1-1.1,0.3-2.8,0.1-3.5c-0.1-0.8-1.1-4-1.1-4l-0.4-9.5l0.7-11.3l-0.2-6.4l-1.7-5.4l-2.3-5.1
		l-3.2-6.3l-0.9-5.1c0,0-4-2.9-7.7-1.9s-6.6,1.7-6.6,1.7s-4.1,2.9-4.8,4.4l2,4.4l1.7,3.9c0,0,1.1,2.2,1.6,2.8
		c0.5,0.6,1.6,2.8,1.6,2.8s0,2.2-0.1,4.7s0.8,5.5,0.8,5.5l5.9,14.9l1.9,5.2l0.5,15l0.7,12.4l0.3,8.8
		C194.7,428.6,195.4,434.7,199,436.5z"/>
	<path class="st17" d="M219.4,278.8c0,0,0.9,0.8,1.6-0.2c0.7-1,2.1-4.2,2.1-4.2l2.4-2.4c0,0,0.6,0.2,1.5-1.9c0,0-0.3,1.9,0.2,2.8
		l1.4-2.4c0,0-1.1,2.2-0.2,2.4c0.6,0.1,1.9-1.2,1.9-1.2s0.5,0.7,1.5-0.2c0,0,1,0.9,1.5,0.4l1.1,3.2l2,0.3l0.4-2l1.4,0.9
		c0,0,0,2.7,0.3,3.2s1.1,1.7,1.1,1.7l1.5,0.1l1.1,1.5l0.9,3.5l-1.7-0.9l-1.2,3.3l-1.5,1.7c0,0-0.7-2.6,0.1-4.2l0.2-2.7l-0.8-1.7
		l-6-1.8l-3.9-1.8l-2.5-0.9l-1.9,1.7l-2.7,3L219.4,278.8z"/>
	<path class="st17" d="M93.7,285.9c0-0.3,0.2-2,0.2-2s1.5-1.7,1.6-1.9c0.1-0.2,1.2-3.4,1.2-3.4s1.2-2.3,1.3-2.5
		c0.1-0.3,1.2-1.2,1.2-1.2s2.5-1.6,2.8-1.8c0.3-0.2,2.4-1.4,2.4-1.4l1.3,0.4l0.5,3.2c0,0-0.4,1.7-1.1,2c-0.6,0.3-1.7,0.8-1.7,0.8
		s-0.7,0.9-1.1,1.4c-0.4,0.6-0.8,0.8-0.9,1.3s-0.3,1.4-0.3,1.4s-0.1,0.5-0.2,1.2c-0.1,0.6,0,0.7-0.1,1.7s0.4,0.9-0.1,1.2
		c-0.5,0.3-1,0.5-1.1,0.5s-0.8-0.8-0.8-0.8l-1-3.3l-0.2-0.7l-0.9,0.9l-0.3,1.6c0,0-0.3,1.6-0.4,1.8c-0.1,0.1-0.4,0.5-0.7,0.6
		c-0.3,0.1-1.4-0.1-1.4-0.1L93.7,285.9z"/>
	<path class="st17" d="M90.8,285.4c0-0.1,1.7-3.8,1.7-3.8l0.1,1.6c0,0,0.4,0.6,0.3,0.8s-0.1,0.9-0.7,1.2
		C91.6,285.7,90.8,285.4,90.8,285.4z"/>
	<path class="st17" d="M112.1,273.3c0,0,0-0.6,0.6-1.9c0.2-0.6,0.9-1.5,0.9-1.8c0.1-0.3-3.1-5.5-4-6.3l5.2,4.7l1.1,2.1l-0.7,1.2
		C115.2,271.2,112.5,273.2,112.1,273.3z"/>
	<path class="st3" d="M192.6,342c0,0,1.9,3.3,1.6,5.2c0,0,1.9,1.1,1.6,4.8c0,0,2.3,1.7,1.2,5c0,0,4.3,3.6,5.1,17.8
		s0.9,19.6,1.2,20.6s0.7,10.4,0.7,10.4s6.4,18,2.9,29.5c0,0,2-2.2,2.3-5.7s-0.6-17.9-0.6-17.9l-1.7-8c0,0-1.4-3.3-0.9-6.2
		c0,0-0.7-6.4-0.5-7.1c0.3-0.7,0.6-14.5,0.6-14.5s-1.2-11.5-2.9-15s-4.5-9.7-4.5-9.7l-1.9-6.6C196.8,344.3,194.1,342.1,192.6,342z"
		/>
	<g>
		<path class="st18" d="M205.7,433.2c-1,0.5-2.2,0.8-3.3,0.9l-2,0.2c-0.5,0-0.9-0.1-1.3-0.3l-2.8-4.7l0,0
			c-0.3-1.4-0.3-11.7-0.3-11.7l-0.3-12.1c0,0-0.2-6.4-0.5-8.9s-3.6-22-3.6-22l-3.3-14.1l-2.6,0.4c0.1,0.7,0.3,6.4,0.5,10.2
			c0.1,1.7,4.4,11.1,4.4,11.1l2.5,9.2c0,0,0.7,8,0.7,8.4c0,0.3,0.2,4.2,0.2,5.8h-0.5c0,0,0,12.1,0.1,12.4s0.6,9.9,1,10.6
			s3.3,5.5,3.3,5.5c0.3,0.4,1,1.2,1.8,1.1l3.3-0.2c0.6,0,1.1-0.3,1.5-0.7l1.5-1.5L205.7,433.2z"/>
		<path class="st18" d="M185.7,360.9L185.7,360.9C185.7,360.8,185.7,360.8,185.7,360.9z"/>
	</g>
	<path class="st3" d="M184.7,362c0,0,1.6,0.3,3.3-0.1s8-2.3,8.2-2.5c0.1-0.2,2.6-2.4,2.6-2.4l-0.9-0.6l-3.7,2.3l-6,1.9l-4.1,0.4
		L184.7,362z"/>
	<path class="st18" d="M188.5,360.1c-0.1-0.2-1.2-4.9-1.8-5.1c-0.2-0.1-2.4-4.3-2.6-5.7c-0.2-1.4-1.3-1.8-1.9-4.7c0,0-2,0.8-2.5,1.3
		c-0.6,0.6-1.5,1.4,0.6,5l2.4,5.3l2.7,4.6L188.5,360.1z"/>
	<path class="st3" d="M182.6,356.2c-0.2-0.1-1.2,0.5-1.2,0.5l1.6,0.1l5.3-1.3l5.2-1.7l4.1-2.1l-2.7,0.5l-9.3,3L182.6,356.2z"/>
	<path class="st3" d="M179.5,352.3l6.2-2.4l9.8-2.1l-0.4-0.7c0,0-3.2,0.1-3.5,0.1s-5.4,1.2-5.4,1.2s-3.7,1.6-3.9,1.6
		c-0.1,0-3,1.7-3,1.7L179.5,352.3z"/>
	<path class="st3" d="M127,323.8c0,0,3.5,0.1,3.8,2.5c0,0,2.6,0.6,2.4,3c0,0,1.6,0.4,1.4,1.9c0,0-0.2,2,3.2,3c0,0,10.6-3,14.5-9.5
		l-2.5-2.3l-3.4-0.8l-2.1,0.8l-2,1.6l-1.4-6.1l-3.5,1.8C137.4,319.8,132.4,323.6,127,323.8z"/>
	<path class="st3" d="M142.9,332.4c0.2,0,1.5-0.8,3.1,0.4c1.9,1.4-1.4,2.1-0.6,2.5c1.5,0.7,1.1,1.4,1.4,2c0.6,1.4,0.7,11.6,0.6,11.9
		c0,0.4-0.6,10-1,11c-0.3,1.1-0.9,4.3-0.9,4.3l4.1-3.1c0,0,2-6.7,2.1-7c0.2-0.4,0.4-13.5,0.4-13.5s0-9.4,0-9.8s0.2-4,0.3-4.3
		c0-0.4,0.7-1.9-0.2-2C151.5,324.7,142.9,332.4,142.9,332.4z"/>
	<path class="st18" d="M122.2,323.5c0,0-0.7,2-0.1,3.2c0,0-0.1,3.3,0.7,4.2c0.9,0.8,0.2,3.6,1.3,3.8s1.4,0.5,1.4,0.5l-8.9-3.3
		c0,0-1.2-1.4-0.8-3.6c0.2-1-1.1-0.5-0.4-4.3c0.2-1.2-1.6-0.1-0.8-5C114.6,318.9,115.1,321.4,122.2,323.5z"/>
	<path class="st18" d="M144.4,364.4c0.9-0.5,1.8-5.2,2.2-13.6c0.2-4.5,0.1-6-0.5-9.2c-0.3-1.8-15.5-4-15.5-4l-4.2-0.5
		c0,0,2.4,0,4.2,0.5c1.3,0.3,4.7,1.3,5.8,2.4c2.3,2.3,1.3,7.8,1.3,10.5c-0.1,6.5,0,0,0,0s-1.4,8.3-0.3,10.4c1.1,2.1,3.9,4.9,6.2,3.6
		"/>
	<path class="st16" d="M146.2,361.5c-0.6,0.2-3.4,2.7-6.5,0.6c-2.9-2,0,0,0,0s-1.9-2.3-1.9-6s0.7-8.3-0.3-11.1l0,0
		c0,0,0.2,8.7-0.6,13.3l0,0c0,0,1.3,6,3.7,6.4s5.2,0,5.3-0.5C145.9,363.7,146.2,361.5,146.2,361.5z"/>
	<path class="st19" d="M142.3,327.5c0,0,2.4,1.4,3.8,0.3c1.4-1.1,3.4-2.4,4.1-2.4c0.7,0,2.1,0.3,2.1,0.3l-0.9-2.4
		c0,0-1.1-1.2-1.8-1.3c-0.7-0.1-3.8-0.2-3.9-0.3s-1,0.3-1.3,0.7s-1.6,1.5-1.6,1.5l-0.4,1.2L142.3,327.5z"/>
	<path class="st3" d="M137.9,334.3c0,0,9,2.2,10,3.6s2.1,3.3,2.1,3.5s0.5-2.9-0.2-3.8s-4.3-2.4-4.3-2.4l-4.8-2.6L137.9,334.3z"/>
	<path class="st16" d="M136.5,340c0.9,0,5.6,0.7,5.8,1s-3,0.6-4,0.5C137.3,341.3,136.5,340,136.5,340z"/>
	<path class="st3" d="M142.6,364c-0.2-0.4,2.8,0.1,3.9-2.1c0.9-1.7,1.8-2.1,1.8-1.8c0,0.3-1.5,3.6-1.5,3.6S143.4,365.6,142.6,364z"
		/>
	<path class="st16" d="M139.6,362c0,0-1.4-1.6-1.4-4c-0.1-2.4,0.6-12.9,0.6-12.9s0.1-2.3-0.2-3s-0.2-0.9-0.4-1.1
		c-0.2-0.1-0.9,0.2-0.9,0.2s0.2,6,0.2,6.2s0,6.8-0.1,7.2c0,0.4,0,3,0,3l1.3,3.7L139.6,362z"/>
	<polygon class="st16" points="114.9,328.5 120,330.8 124.4,332.5 124.9,331.7 119.3,329.6 115.2,328 	"/>
	<path class="st16" d="M114.3,323.8c0,0,3,2.5,8.4,4.2c5.3,1.7,1.3-0.8,1.3-0.8l-3.4-1.1l-5.8-3L114.3,323.8z"/>
	<path class="st16" d="M113.5,318.7c0,0,0.7,1.6,1.8,2.3c1.1,0.8,5,2.9,7.7,3l-0.3-0.6l-3.6-1.1c0,0-2.5-1.3-2.7-1.3
		c-0.1,0-1.2-0.8-1.4-1c-0.2-0.2-0.9-1.7-0.9-1.7L113.5,318.7z"/>
	<path class="st16" d="M178,348.1c0,0,2.4-2.6,4.9-3.3l0.2-0.8C183.1,344,179.6,345.5,178,348.1z"/>
	<path class="st3" d="M172.6,165.5c0,0,0.3-0.6,0.7-0.9s3-1.5,4.8,0.8l0.7,0.7l-6-0.5l-0.3-0.3l-0.7,0.2l-0.3,1.3
		c0,0,7.7,0.4,8.3,0.8c0.6,0.4-0.1,2.4-0.1,2.4l2.7-0.7l0.8-6.9l-3.8-0.8c0,0-4.9-0.5-5.7,0.2s-1.9,1.2-1.9,1.2l-0.6,0.1
		c0,0-0.2,1.2-0.7,2.8l0.8,1.1l0.5-0.5L172.6,165.5z"/>
	<path class="st3" d="M174.3,170.5c0.2,0,4.4-2.3,4.6-2.9c0.1-0.6-7.3-0.7-7.3-0.7l7.3-0.3c0,0,2,0.7,2,0.9s-0.6,3.1-0.6,3.1
		L174.3,170.5z"/>
	<path class="st20" d="M172.6,165.5c0,0,0-0.4,0.8-0.7s1.8-0.6,1.8-0.6l1.5,0.3l1.5,1l0.3,0.6l-2.9,0.4l-1.1-0.3
		C174.4,166,172.7,165.5,172.6,165.5z"/>
	<path class="st20" d="M167.7,165c0,0,0-0.4-0.6-0.9s-1.7-1-1.7-1h-1.5l-1.6,0.7l-0.4,0.5l2.8,0.9l1.1-0.1
		C165.9,165.2,167.6,165,167.7,165z"/>
	<path class="st1" d="M175,163.2c1-0.6,4.1,0.4,4.6,0.9c0.3,0.3,0.5,0.5-0.2,0.9c-0.6,0.3-1.3-0.7-2.8-1.2
		C176.1,163.7,174.7,163.3,175,163.2z"/>
	<path class="st3" d="M170.5,166c0,0,0.1-1.8,0.3-2.5s0.8-2,2.3-2.6s0,1.6,0,1.6l-2.2,3.1L170.5,166z"/>
	<path class="st3" d="M167.7,165c0,0,0.8-1.2,0.6-2s-0.5-1.3-1.5-1.5s-4.7-0.6-5.5,0c-1.6,1.1-0.3,2.9,0.1,3s1-0.5,1-0.5
		s1.5-1.1,3.1-0.7C167,163.6,167.4,164.1,167.7,165"/>
	<path class="st3" d="M160.5,163c0,0.1,0.9,2.9,1.5,3.4c0.5,0.3,2.7,0.4,4.4-0.4c0.5-0.2,1-0.6,1.3-1l0,0c0,0-3.1,0.3-4,0
		s-1.5-0.6-1.7-0.7c-0.2-0.1-0.2-1.2-0.2-1.2L160.5,163z"/>
	<path class="st3" d="M168.3,163.7c0,0.1-0.3,1.2-0.4,1.4c-0.1,0.1-0.3,0.2-0.4,0.3c-0.1,0.1-0.4,0.4-0.7,0.4s0.4-0.5,0.5-0.5
		s0.6-0.1,0.6-0.7C167.9,164.1,168.3,163.7,168.3,163.7z"/>
	<path class="st9" d="M158.1,169.6c0,0-0.5,4.8,0.3,8.2l0,0l1.1,1.4c0,0-0.8-2.9-0.9-4.7c-0.1-1.8,0.2-5.5,0.2-5.5L158.1,169.6z"/>
	<path class="st21" d="M158,177.4c0.1,0.1,0.1-0.2,0.3-0.1c0.1,0.1,0.4,0.6,0.5,0.7c1.3,1.4,2.5,2.6,3.8,3.8
		c0.8,0.7,1.6,1.4,2.4,2.1c0.4,0.3,0.8,0.6,1.2,0.9c0.2,0.1,0.4,0.2,0.6,0.2c0,0,0.1,0,0.2,0h0.2l0.4,0.1c1,0.2,2.1,0.3,3.1,0.4
		c0.5,0,1,0,1.5-0.1c0.1,0,0.2,0,0.3-0.1l0.4-0.1c0.2-0.1,0.5-0.2,0.7-0.3c1-0.4,2-0.8,2.9-1.3s1.9-1,2.7-1.7
		c-0.7,0.9-1.5,1.6-2.4,2.2c-0.9,0.6-1.9,1.1-2.8,1.6c-0.2,0.1-0.5,0.2-0.7,0.3c-0.1,0.1-0.3,0.1-0.4,0.1c-0.1,0-0.3,0.1-0.4,0.1
		c-0.6,0.1-1.2,0.2-1.7,0.2c-1.1,0-2.2-0.2-3.3-0.3l-0.4-0.1h-0.2c-0.1,0-0.1,0-0.2-0.1c-0.3-0.1-0.6-0.2-0.9-0.4
		c-0.5-0.3-1-0.6-1.4-1c-0.8-0.7-1.6-1.5-2.3-2.3C160.5,180.9,159.1,179.2,158,177.4z"/>
	<path class="st21" d="M157.6,189.7l-0.5,6l-0.2-6c0,0,0,0,0.1,0H157.6z"/>
	<path class="st21" d="M199,222.7c-0.4-0.4-0.8-0.9-1.1-1.3c-0.4-0.4-0.7-0.9-1-1.4c-0.7-0.9-1.3-1.9-1.9-2.8l0,0
		c-0.4-0.6-1.1-1.1-1.7-1.2c-0.3,0-0.6,0.1-0.9,0.3l-0.2,0.2l-0.2,0.2l-0.4,0.5c-1.1,1.2-2.2,2.5-3.3,3.8s-2.2,2.6-3.5,3.7
		c-0.3,0.3-0.7,0.6-1,0.8c-0.2,0.1-0.4,0.2-0.6,0.3l-0.3,0.1c-0.1,0-0.2,0.1-0.3,0.1c-0.9,0.2-1.7,0.1-2.6,0.1
		c-1.7,0-3.4-0.2-5.1-0.3c-1.7-0.1-3.4-0.3-5-0.5c-1.7-0.2-3.4-0.4-5-0.6c-1.7-0.2-3.4-0.4-5-0.7c1.7,0.3,3.3,0.4,5,0.6
		c1.7,0.2,3.4,0.3,5,0.5c1.7,0.1,3.4,0.3,5,0.4c1.7,0.1,3.4,0.2,5,0.2c0.8,0,1.7,0,2.5-0.2l0.3-0.1l0.3-0.1c0.2-0.1,0.3-0.2,0.5-0.3
		c0.3-0.2,0.6-0.5,0.9-0.8c1.2-1.1,2.3-2.4,3.3-3.8c1.1-1.3,2.1-2.6,3.2-3.9l0.4-0.5l0.2-0.2l0.3-0.3c0.4-0.3,0.9-0.5,1.5-0.5
		c0.5,0.1,1,0.3,1.4,0.6s0.7,0.6,1,1l0,0l0,0c0.6,0.9,1.2,1.9,1.9,2.7c0.3,0.4,0.7,0.9,1,1.3c0.3,0.4,0.7,0.8,1.1,1.2L199,222.7z"/>
	<path class="st21" d="M143.1,241.8c-0.3-3.3-0.6-6.7-1.1-10c-0.1-0.8-0.2-1.7-0.4-2.5c-0.1-0.4-0.2-0.8-0.3-1.2l-0.1-0.2
		c0-0.1-0.1-0.2-0.1-0.3l-0.3-0.5l-0.6-1.1l-0.2-0.3c-0.1-0.2-0.1-0.3-0.1-0.4c0-0.2-0.1-0.4-0.1-0.7c-0.1-0.9-0.2-1.7-0.2-2.6
		c-0.1-3.4,0.3-6.8,1-10.1s1.8-6.5,3.4-9.5c-1.5,3-2.5,6.3-3.2,9.6c-0.6,3.3-0.9,6.7-0.7,10c0,0.8,0.1,1.7,0.2,2.5
		c0,0.2,0.1,0.4,0.1,0.6c0,0.1,0.1,0.2,0.1,0.2l0.2,0.3l0.7,1.1l0.3,0.5c0.1,0.1,0.1,0.2,0.2,0.3l0.1,0.3c0.2,0.4,0.3,0.8,0.4,1.3
		c0.2,0.8,0.3,1.7,0.5,2.5c0.6,3.3,1,6.7,1.4,10L143.1,241.8z"/>
	<path class="st21" d="M141.2,227.2c1-0.5,1.9-1,2.9-1.4s2-0.8,3-1c1-0.3,2-0.5,3.1-0.7c1-0.2,2.1-0.2,3.1-0.2
		c-1,0.1-2.1,0.2-3.1,0.5c-1,0.2-2,0.5-3,0.9s-1.9,0.8-2.8,1.3c-0.9,0.5-1.8,1-2.6,1.6L141.2,227.2z"/>
	<path class="st21" d="M221.9,250.1l-0.7-0.8c0.2-0.2,4.5-4,13-3.9l0.4,1.3C226.7,246.2,222,250,221.9,250.1z"/>
	<path class="st21" d="M116.1,271.9c0,0-1.1-4.9-5.5-7.5l-2.2-1.3l0.6-1l2.2,1.3c3.9,2.4,5.4,6.4,5.8,7.7c0.1,0.3-0.1,0.5-0.4,0.6
		L116.1,271.9z"/>
	<path class="st21" d="M131.6,254.8c0,0-1-5-8.7-9.6l0.6-1c8.2,4.9,9.2,10.1,9.2,10.3L131.6,254.8z"/>
	<path class="st21" d="M176.9,183.7c0.7-0.8,1.1-1.7,1.5-2.7s0.7-2,0.9-3c0.5-2,0.9-4,1.2-6.1l0.2,0.2l-5.5-0.5
		c-0.5,0-0.9-0.1-1.4-0.1c-0.4,0-0.9,0-1.3,0.1c-0.2,0-0.4,0.1-0.7,0.1c-0.2,0-0.4,0.1-0.7,0.2c-0.5,0.1-1,0.2-1.5,0.1
		c-0.5-0.1-1-0.2-1.4-0.4c-0.2-0.1-0.5-0.2-0.7-0.3s-0.4-0.2-0.6-0.2c-0.4-0.1-0.8-0.2-1.3-0.3l-1.4-0.1c-0.9-0.1-1.8-0.2-2.8-0.3
		c-0.9-0.1-1.8-0.2-2.8-0.3l0.4-0.3c-0.1,0.8-0.2,1.6-0.2,2.4c0,0.8-0.1,1.6,0,2.4c0,0.8,0.1,1.6,0.2,2.4c0.1,0.8,0.3,1.6,0.6,2.3
		h-0.1c-0.4-0.7-0.6-1.5-0.8-2.3s-0.3-1.6-0.4-2.4c-0.1-0.8-0.1-1.6-0.1-2.5c0-0.8,0-1.6,0.1-2.5v-0.3h0.3c0.9,0.1,1.8,0.1,2.8,0.2
		c0.9,0.1,1.8,0.2,2.8,0.3l1.4,0.1c0.5,0.1,1,0.2,1.4,0.3c0.2,0.1,0.5,0.2,0.7,0.3s0.4,0.2,0.6,0.3c0.4,0.2,0.8,0.3,1.3,0.4
		c0.4,0.1,0.9,0,1.3-0.1c0.2,0,0.4-0.1,0.7-0.2c0.2-0.1,0.5-0.1,0.7-0.1c0.5-0.1,1-0.1,1.4-0.1c0.5,0,0.9,0.1,1.4,0.1l5.5,0.6h0.2
		v0.2c-0.3,2.1-0.8,4.1-1.4,6.1c-0.3,1-0.6,2-1,2.9C178.2,182,177.7,183,176.9,183.7L176.9,183.7z"/>
	<path class="st21" d="M184.4,267c-3.3,0.7-6.6,1.2-10,1.6c-3.3,0.4-6.7,0.7-10.1,0.8c-1.7,0.1-3.4,0.1-5.1,0
		c-1.7-0.1-3.4-0.2-5-0.4c-1.7-0.2-3.3-0.6-4.9-1.2c-1.6-0.6-3.1-1.4-4.3-2.6c1.2,1.2,2.7,1.9,4.3,2.5c1.6,0.5,3.2,0.8,4.9,1
		s3.3,0.3,5,0.3s3.3-0.1,5-0.1c3.3-0.2,6.7-0.6,10-1.1s6.6-1.1,9.9-1.8L184.4,267z"/>
	<path class="st22" d="M165.2,177c-0.1-0.1,2.2-1.4,2.7-1.6s0.9-0.2,1.1-0.1c0.4,0.2,1.1,0.3,1.7,0.1c0.5-0.2,2.2,1.4,2.8,1.8
		c0.4,0.3,0.4,0.4,0.2,0.4s-1.9-0.9-2.3-1c-0.4-0.1-1,0-1.7-0.2s-1.1-0.2-1.5-0.2S165.4,177.1,165.2,177z"/>
	<path class="st22" d="M167.4,177.6c0.3,0.1,3.3,0.5,4.1,0.4c0,0,0.6-0.1,0.5,0.1c-0.1,0.2-0.7,0.7-2.5,0.6c-1.8-0.2-2.6-0.9-2.4-1
		S167.4,177.6,167.4,177.6z"/>
	<g>
		<path class="st21" d="M116.1,269c0,0.1,0,0.1,0,0.1v0.1c0,0.1,0,0.1-0.1,0.2c0,0.1-0.1,0.2-0.1,0.4c-0.1,0.2-0.2,0.5-0.3,0.7
			c-0.2,0.4-0.5,0.9-0.8,1.3s-0.7,0.8-1.1,1.1c-0.4,0.3-0.8,0.6-1.3,0.8l0.1-0.1l-0.9,1.8l-0.2,0.5l-0.2,0.5l-0.4,0.9l-0.4,0.9
			c-0.1,0.2-0.1,0.3-0.2,0.5v0.1v0.1c0,0.1-0.1,0.2-0.1,0.3c-0.3,0.7-0.6,1.3-0.9,1.9l-0.1,0.2h-0.3c-0.6,0-1.1,0-1.7-0.2
			c-0.2-0.1-0.3-0.2-0.5-0.3c-0.2-0.3-0.2-0.4-0.3-0.6c-0.1-0.3-0.1-0.6-0.1-0.9c-0.1-1.1,0-2.1,0.1-3.2l0.8,0.4
			c-0.2,0.2-0.4,0.4-0.7,0.6c-0.2,0.2-0.5,0.4-0.7,0.5c-0.2,0.2-0.5,0.3-0.8,0.5c-0.3,0.1-0.6,0.3-1,0.3l0.4-0.3
			c-0.1,0.2-0.3,0.5-0.4,0.7s-0.3,0.4-0.4,0.7c-0.2,0.2-0.3,0.4-0.5,0.6s-0.4,0.4-0.7,0.5l0.2-0.3c-0.1,0.5-0.3,1.1-0.4,1.6
			c-0.1,0.3-0.2,0.5-0.2,0.8c0,0.1-0.1,0.3-0.1,0.4s-0.1,0.1-0.1,0.2l-0.1,0.1c0,0-0.1,0.1-0.1,0.2l0.1-0.2c0,0.5,0,1,0,1.4
			c0,0.2,0,0.5,0,0.7s0,0.5-0.1,0.7v0.1l0,0c-0.1,0.1-0.3,0.2-0.5,0.3c-0.2,0.1-0.3,0.1-0.5,0.2c-0.2,0-0.4,0-0.6,0
			s-0.4-0.2-0.5-0.3l0,0v-0.1l-0.7-2.3c-0.2-0.8-0.5-1.5-0.7-2.3h0.3c-0.1,0.2-0.2,0.3-0.4,0.5c-0.1,0.1-0.1,0.2-0.2,0.2
			c-0.1,0.1-0.2,0.1-0.3,0.2l0.1-0.2c-0.1,0.6-0.1,1.1-0.2,1.7s-0.2,1.1-0.4,1.7c0,0.1-0.1,0.1-0.1,0.2l-0.1,0.1l-0.1,0.1
			c-0.1,0.1-0.3,0.2-0.4,0.3c-0.3,0.2-0.6,0.3-0.9,0.3c-0.2,0-0.3,0-0.5,0c-0.1,0-0.2-0.1-0.3-0.1c-0.1-0.1-0.2-0.1-0.2-0.2
			c-0.2-0.3-0.4-0.6-0.5-0.9l0,0v-0.1l0.1-1.7l0.4,0.4h-0.7l0.3-0.2c-0.2,0.4-0.3,0.7-0.6,1c-0.2,0.3-0.5,0.6-0.9,0.9
			c-0.2,0.1-0.6,0.1-0.8,0.1c-0.2-0.1-0.4-0.1-0.6-0.2c-0.4-0.2-0.8-0.5-0.9-1c-0.1-0.3-0.1-0.5,0-0.8l0.2-0.5l0.4-1l0.7-2l1.4-4
			l0.7-2c0-0.1,0-0.1,0.1-0.3c0.1-0.1,0.1-0.2,0.2-0.3c0.1-0.2,0.2-0.3,0.3-0.5c0.2-0.3,0.5-0.6,0.7-0.8c0.5-0.5,1.1-1,1.6-1.5
			s1.1-0.9,1.6-1.4c1.1-0.9,2.2-1.8,3.3-2.7c0.6-0.4,1.1-0.9,1.7-1.3s1.2-0.8,1.8-1.2c0.6-0.4,1.3-0.7,2-1s1.4-0.5,2.1-0.7l-0.1,0.1
			l1.1-0.4l0.7,0.5l0.6,0.5l1.2,0.6l1.4,1.4L116.1,269z M116,269.1l-3-3.2l-1.5-1.6l-1.3-1.1l0,0l-1.4,0.6l0,0h-0.1
			c-0.6,0.2-1.3,0.4-1.9,0.7c-0.6,0.3-1.2,0.6-1.8,1c-1.2,0.7-2.2,1.6-3.3,2.5c-1.1,0.9-2.2,1.8-3.2,2.7c-1.1,0.9-2.2,1.8-3.1,2.8
			c-0.2,0.2-0.5,0.5-0.7,0.7c-0.1,0.1-0.2,0.3-0.3,0.4c0,0.1-0.1,0.1-0.1,0.2c0,0,0,0.1-0.1,0.2l-0.8,2l-1.5,4l-0.8,2l-0.4,1
			l-0.2,0.4c0,0.1,0,0.2,0,0.3c0,0.2,0.2,0.4,0.5,0.5c0.1,0.1,0.3,0.1,0.4,0.2c0.1,0,0.1,0,0.2,0c0.2-0.1,0.4-0.3,0.6-0.6
			c0.2-0.3,0.4-0.5,0.5-0.8l0.1-0.2H93h0.7h0.4v0.4l-0.2,1.7v-0.1c0,0.2,0.1,0.5,0.3,0.6c0.1,0.1,0.1,0.1,0.2,0.1s0.2,0,0.3,0
			c0.2,0,0.5-0.1,0.7-0.2c0.1-0.1,0.2-0.1,0.3-0.2l0,0V286c0,0,0.1-0.1,0.1-0.2c0.2-0.5,0.3-1,0.4-1.6s0.2-1.1,0.3-1.7v-0.1h0.1
			c0,0,0.1,0,0.2-0.1s0.1-0.1,0.2-0.2s0.2-0.3,0.3-0.4l0.2-0.3l0.1,0.3c0.2,0.8,0.5,1.5,0.7,2.3l0.7,2.3l-0.1-0.1
			c0.1,0.1,0.2,0.2,0.4,0.2c0.1,0,0.3,0,0.4,0s0.3-0.1,0.4-0.1c0.1-0.1,0.3-0.2,0.4-0.2l-0.1,0.1c0-0.2,0.1-0.4,0.1-0.7
			c0-0.2,0-0.5,0-0.7c0-0.5-0.1-0.9-0.1-1.4l0.1-0.2l0,0v-0.1c0,0,0-0.1,0.1-0.2c0-0.1,0.1-0.3,0.1-0.4c0.1-0.3,0.1-0.5,0.2-0.8
			c0.1-0.5,0.2-1.1,0.3-1.6v-0.2l0.2-0.1c0.1-0.1,0.3-0.2,0.5-0.4c0.1-0.2,0.3-0.4,0.4-0.6s0.3-0.4,0.4-0.6s0.2-0.4,0.3-0.6l0.1-0.2
			h0.3c0.2,0,0.4-0.1,0.6-0.2s0.4-0.3,0.6-0.4c0.2-0.2,0.4-0.3,0.6-0.5s0.4-0.4,0.6-0.5l0.6-1.1l0.3,1.4c0,0.5-0.1,1.1-0.1,1.6
			s0,1,0,1.5c0,0.2,0,0.5,0.1,0.7c0,0.1,0,0.1,0,0.1l0,0l0,0l0,0c0,0,0.1,0.1,0.2,0.1c0.3,0.1,0.9,0.2,1.3,0.2l-0.4,0.2
			c0.3-0.6,0.7-1.2,1-1.8c0-0.1,0.1-0.1,0.1-0.2v-0.1c0-0.1,0-0.1,0.1-0.1c0.1-0.2,0.1-0.3,0.2-0.5c0.2-0.3,0.3-0.6,0.5-0.9l0.5-0.9
			l0.2-0.5l0.3-0.4l1-1.8l0.1-0.1h0.1c0.4-0.2,0.9-0.4,1.3-0.7c0.4-0.3,0.8-0.6,1.1-0.9c0.3-0.3,0.6-0.7,0.9-1.1
			c0.1-0.2,0.2-0.4,0.4-0.6c0.1-0.1,0.1-0.2,0.2-0.3c0-0.1,0-0.1,0.1-0.2L116,269.1C116,269.1,116,269,116,269.1z"/>
		<path class="st21" d="M94.3,284.4l-0.8-0.8c0.4-0.4,1.5-1.7,1.8-2.4c0.4-0.9,1-2.8,1-2.9v-0.1c0.6-1,1.5-2.8,1.6-3.2
			c0.1-0.4,0.7-0.8,3.6-2.3c1.1-0.6,2.3-1.2,2.6-1.4c0.2-0.2,0.9-0.2,1.2-0.1c0.9,0.1,1.4,1.2,1.5,1.5l0.1,0.1l0.2,3.2l-1.1,0
			l-0.2-2.9c-0.3-0.5-0.8-1-1-1c-0.3,0.3-1.3,0.8-2.8,1.6c-1.1,0.6-2.8,1.4-3.1,1.7c-0.3,0.6-1.3,2.7-1.6,3.2c-0.1,0.3-0.7,2-1,2.9
			C95.9,282.6,94.4,284.2,94.3,284.4z M98.9,275.5L98.9,275.5L98.9,275.5z"/>
		<path class="st21" d="M92.7,284.3c0-0.1-0.5-0.7-0.6-1.1c-0.1-0.2-0.2-0.6,1.3-5.3l0,0l1.4-3.4c0-0.1,0.9-2.7,2.2-3.9l0.8,0.8
			c-1.1,1-1.9,3.4-1.9,3.5l-1.4,3.5c-0.6,1.9-1.2,4.1-1.3,4.6c0.1,0.3,0.4,0.7,0.4,0.8L92.7,284.3z M93.1,283L93.1,283L93.1,283z"/>
		<path class="st21" d="M97.9,281.8l-0.3-0.1l0.9-2.1c0.9-0.9,1.6-2.1,1.7-2.3c0-0.1-0.1-0.3-0.5-0.6l-1.5-0.8l0.2-0.3l1.5,0.8
			c0.4,0.3,1,0.7,1,1.1c0,0.3-1.2,1.4-2.1,2.4L97.9,281.8z"/>
		<path class="st21" d="M101.7,277.9c-0.4,0-0.8-0.1-1.1-0.2l-0.1-0.6c0.5,0.2,2.3,0.3,2.9,0.3l0.3,0.6
			C103.7,277.9,102.6,277.9,101.7,277.9z"/>
	</g>
	<g>
		<path class="st21" d="M228.6,276.1c-0.2-0.1-0.5-0.1-0.7-0.2s-0.5-0.1-0.7-0.2c-0.5-0.2-1-0.3-1.4-0.6h0.2c-0.5,0.5-1,1-1.5,1.5
			c-0.1,0.1-0.2,0.3-0.3,0.4s-0.2,0.3-0.3,0.4c-0.2,0.3-0.4,0.6-0.6,0.9c-0.2,0.3-0.4,0.6-0.7,0.9s-0.5,0.6-1,0.8
			c-0.1,0-0.1,0-0.2,0c-0.1,0-0.1,0-0.2,0c-0.1,0-0.2,0-0.3,0c-0.2,0-0.4-0.1-0.6-0.1c-0.4-0.1-0.7-0.3-1.1-0.6l-0.2-0.2l0.1-0.3
			c0.3-1.4,0.7-2.7,1-4.1l0.1-0.2c0-0.1,0-0.1,0.1-0.3c0.1-0.3,0.2-0.4,0.3-0.6c0.2-0.3,0.4-0.6,0.6-0.9c0.2-0.3,0.4-0.6,0.6-0.8
			c0.1-0.1,0.2-0.3,0.3-0.4s0.2-0.3,0.3-0.5c0.2-0.3,0.4-0.6,0.6-0.9c0.1-0.1,0.2-0.3,0.3-0.4c0-0.1,0.1-0.1,0.1-0.2l0.1-0.1
			c0-0.1,0-0.1,0.1-0.1c0.4-0.7,0.8-1.3,1.3-1.8c0.2-0.3,0.5-0.5,0.8-0.8c0.1-0.1,0.3-0.2,0.4-0.4c0.1-0.1,0.3-0.2,0.5-0.3
			c0.4-0.2,0.7-0.3,1.1-0.4l0.5-0.1h0.5c1.4-0.1,2.9,0.1,4.3,0.3c0.7,0.1,1.4,0.3,2.1,0.6c0.6,0.4,1.1,1,1.6,1.5
			c0.4,0.6,0.8,1.2,1.2,1.8c0.2,0.3,0.4,0.6,0.6,0.8l0.8,0.7c1.1,0.9,2.1,2,3.1,3l0,0v0.1c0.1,0.2,0.2,0.4,0.2,0.6
			c0,0.1,0.1,0.2,0.1,0.4c0,0.2,0,0.2,0,0.3c0,0.4-0.1,0.7-0.1,1.1l-0.1-0.3l1.7,2.8l0,0c0.1,0.2,0.3,0.4,0.4,0.6
			c0.1,0.2,0.2,0.4,0.3,0.7c0,0.3,0,0.5,0.1,0.7v0.6c0,0.8,0.1,1.7,0.1,2.5v0.4l-0.4,0.1c-0.3,0.1-0.6,0.1-0.9,0.1
			c-0.2,0-0.3,0-0.5-0.1c-0.1,0-0.2-0.1-0.2-0.1l-0.2-0.1c-0.4-0.3-0.8-0.5-1.2-0.8l0.9-0.3l-0.6,2.3v0.1l-0.1,0.1
			c-0.7,0.8-1.4,1.7-2.1,2.5l-0.4,0.5l-0.4-0.4c-0.2-0.2-0.3-0.3-0.5-0.5c-0.1-0.2-0.3-0.3-0.4-0.6c-0.1-0.1-0.1-0.3-0.1-0.6
			c0-0.1,0-0.2,0-0.2l0,0v-0.1l0.1-0.6c0.1-0.4,0.2-0.8,0.3-1.2c0.1-0.4,0.3-0.8,0.6-1.2l-0.1,0.4l-0.2-3.2l0.1,0.2l-0.9-1.4
			l0.3,0.2c-0.4-0.1-0.8-0.2-1.2-0.3c-0.4-0.1-0.8-0.2-1.2-0.4c-0.8-0.3-1.5-0.6-2.2-1h0.1c-0.9-0.2-1.7-0.6-2.5-0.9
			C230.1,277.1,229.3,276.7,228.6,276.1z M228.6,276c0.8,0.4,1.6,0.8,2.4,1.1c0.4,0.1,0.8,0.3,1.3,0.4c0.4,0.1,0.9,0.2,1.3,0.3l0,0
			l0,0c0.7,0.3,1.4,0.6,2.2,0.8c0.4,0.1,0.7,0.2,1.1,0.3c0.4,0.1,0.8,0.1,1.1,0.2l0.5,0.1l-0.2,0.1l1,1.4l0.1,0.1v0.1l0.3,3.2v0.2
			l-0.1,0.2c-0.2,0.2-0.3,0.6-0.4,0.9c-0.1,0.3-0.2,0.7-0.3,1.1l-0.1,0.6v0.2v0.1l0,0c0-0.1,0-0.1,0,0c0.1,0.2,0.4,0.5,0.6,0.7
			l-0.8,0.1c0.7-0.8,1.4-1.7,2-2.5l-0.1,0.2l0.6-2.3l0.2-0.9l0.7,0.6c0.3,0.3,0.7,0.6,1.1,0.8l0.1,0.1c0,0,0,0,0.1,0
			c0,0,0.1,0,0.2,0c0.1,0,0.3,0,0.5,0l-0.4,0.5c0-0.8,0-1.7,0-2.5v-0.6c0-0.2,0-0.4,0-0.6s-0.2-0.6-0.4-0.9l0,0l0,0l-1.6-2.9
			l-0.1-0.1V277c0.1-0.4,0.1-0.7,0.2-1.1c0-0.2,0-0.2,0-0.4c0-0.1-0.1-0.3-0.2-0.4l0.1,0.1c-0.9-1.1-1.9-2.1-2.9-3.1l-0.7-0.8
			c-0.3-0.3-0.5-0.6-0.6-0.9c-0.4-0.6-0.7-1.2-1.1-1.8c-0.4-0.6-0.8-1.1-1.4-1.5c-0.6-0.3-1.3-0.5-2-0.6c-1.4-0.2-2.8-0.3-4.2-0.2
			l-0.5,0.1l-0.5,0.1c-0.3,0.1-0.7,0.2-0.9,0.3c-0.1,0.1-0.2,0.2-0.4,0.3c-0.1,0.1-0.2,0.2-0.4,0.4c-0.2,0.3-0.5,0.5-0.7,0.8
			c-0.4,0.5-0.8,1.1-1,1.7v0.1v0.1c0,0.1-0.1,0.2-0.1,0.3c-0.1,0.2-0.2,0.4-0.3,0.5c-0.2,0.3-0.4,0.6-0.6,0.9
			c-0.1,0.1-0.2,0.3-0.3,0.4c-0.1,0.2-0.2,0.3-0.3,0.5c-0.2,0.3-0.4,0.6-0.6,0.9c-0.2,0.3-0.4,0.6-0.6,0.8c-0.1,0.1-0.2,0.3-0.2,0.3
			c0-0.1,0,0.2,0,0.2l-0.1,0.3c-0.3,1.4-0.7,2.8-1.1,4.1l-0.2-0.5c0.2,0.2,0.5,0.3,0.8,0.4c0.1,0.1,0.3,0.1,0.4,0.1
			c0.1,0,0.1,0,0.2,0h0.1c0,0,0,0,0.1,0c0.2,0,0.5-0.3,0.7-0.5s0.4-0.5,0.6-0.8c0.2-0.3,0.4-0.6,0.6-0.9c0.1-0.2,0.2-0.3,0.3-0.5
			s0.3-0.3,0.4-0.4c0.5-0.5,1.1-1,1.6-1.4l0.1-0.1l0.1,0.1c0.4,0.3,0.9,0.5,1.3,0.7l0.7,0.3C228.2,275.9,228.4,275.9,228.6,276z"/>
		<path class="st21" d="M225.6,274.9c0.1-0.2,0.1-0.5,0.1-0.7s0-0.5,0-0.7c0-0.5-0.1-1-0.2-1.5c0.2,0.5,0.3,1,0.4,1.5
			c0,0.3,0.1,0.5,0.1,0.8s0,0.5,0,0.8L225.6,274.9z"/>
		<path class="st21" d="M226,275.1c0.1-0.4,0.2-0.8,0.3-1.3c0.1-0.4,0.2-0.9,0.1-1.3c0-0.9,0.3-1.8,0.5-2.6
			c-0.1,0.4-0.2,0.9-0.3,1.3s-0.1,0.9-0.1,1.3c0,0.5,0,0.9,0,1.3c-0.1,0.4-0.1,0.9-0.2,1.3L226,275.1z"/>
		<path class="st21" d="M228.6,276.1c-0.3-0.5-0.6-0.9-0.7-1.4c-0.1-0.5-0.2-1-0.1-1.5c0-0.5,0.1-1,0.3-1.5c0.1-0.2,0.2-0.5,0.3-0.7
			s0.2-0.4,0.4-0.7c-0.1,0.2-0.2,0.4-0.3,0.7c-0.1,0.2-0.2,0.5-0.2,0.7c-0.2,0.5-0.2,1-0.2,1.5s0.1,1,0.2,1.5c0.1,0.5,0.8,1.4,1,1.7
			L228.6,276.1z"/>
		<path class="st21" d="M230,272.1c0.2-0.3,0.4-0.5,0.6-0.8c0.2-0.2,0.5-0.5,0.7-0.7s0.5-0.5,0.7-0.7s0.5-0.5,0.8-0.7l0.1-0.1h0.1
			l1.1,0.1h0.5c0.1,0,0.2,0,0.2,0l0,0h0.1h0.1l0,0c0.1,0,0.1,0,0.2,0.1c0.4,0.2,0.7,0.4,1,0.6c0.1,0.1,0.3,0.2,0.4,0.4
			c0.1,0.1,0.3,0.3,0.4,0.5c0,0.1,0.1,0.1,0.1,0.2s0,0.1,0,0.2s0,0.2,0,0.3c0,0.2,0,0.4,0,0.6c0,0.4-0.1,0.7-0.1,1.1
			c-0.1,0.7-0.2,1.4-0.4,2.1v0.2h-0.2c-0.2,0-0.5,0.1-0.7,0.1s-0.5,0-0.7-0.1c-0.1,0-0.3-0.1-0.4-0.2c-0.1-0.1-0.2-0.2-0.3-0.3
			c-0.1-0.2-0.2-0.4-0.3-0.6c-0.2-0.4-0.3-0.8-0.4-1.3c-0.1-0.4-0.2-0.9-0.3-1.3c0.4,0.8,0.7,1.6,1.1,2.4c0.1,0.2,0.2,0.4,0.3,0.6
			c0.1,0.1,0.1,0.2,0.1,0.2c0.1,0,0.1,0.1,0.2,0.1c0.3,0.1,0.8,0,1.2-0.1l-0.2,0.3c0.1-0.7,0.2-1.4,0.3-2.1c0-0.3,0.1-0.7,0.1-1
			c0-0.2,0-0.3,0-0.5c0-0.1,0-0.2,0-0.2v-0.1l0,0c0-0.1-0.2-0.2-0.3-0.3c-0.1-0.1-0.2-0.2-0.4-0.3c-0.3-0.2-0.5-0.4-0.8-0.6h-0.1
			l0,0l0,0l0,0l0,0c-0.1,0-0.2,0-0.3,0l-0.5-0.1l-1.1-0.2l0.2-0.1l-1.6,1.2l-0.8,0.6C230.5,271.7,230.2,271.9,230,272.1z"/>
		<path class="st21" d="M234.3,274.3l-1.3,1.3l0,0l0,0c-0.3,0.1-0.6,0.1-0.8,0.1c-0.3,0-0.6-0.1-0.8-0.2c-0.3-0.1-0.5-0.3-0.7-0.5
			s-0.3-0.5-0.4-0.7c0.1,0.2,0.2,0.5,0.4,0.7s0.4,0.3,0.7,0.4c0.2,0.1,0.5,0.1,0.8,0.1s0.5-0.1,0.8-0.2l0,0l1.2-1.4L234.3,274.3z"/>
		<path class="st21" d="M233.7,273.4L233.7,273.4L233.7,273.4h-0.1c-0.1,0-0.1,0-0.2,0c-0.1,0-0.3,0-0.4,0c-0.3-0.1-0.5-0.3-0.6-0.5
			s-0.2-0.4-0.3-0.7c-0.1-0.2-0.1-0.5-0.1-0.7c0.1,0.2,0.1,0.5,0.2,0.7c0.1,0.2,0.2,0.4,0.4,0.6c0.1,0.2,0.3,0.3,0.5,0.3
			c0.1,0,0.2,0,0.3,0s0.1,0,0.2,0h0.1h0.1h0.1L233.7,273.4z"/>
		<path class="st21" d="M242.2,276.8c-0.1,0.4-0.2,0.8-0.3,1.2c-0.1,0.4-0.2,0.8-0.4,1.2c0,0-0.1,0.1-0.1,0.2c0,0,0,0.1-0.1,0.1
			l-0.1,0.1c-0.1,0.1-0.3,0.1-0.4,0.2c-0.2,0-0.5,0-0.7,0c-0.2-0.1-0.4-0.1-0.6-0.2c-0.1-0.1-0.2-0.1-0.3-0.2s-0.1-0.2-0.2-0.3
			c-0.4-0.7-0.6-1.5-0.8-2.3c-0.1-0.4-0.1-0.8-0.1-1.2c0-0.4,0.1-0.8,0.3-1.1c-0.2,0.3-0.2,0.7-0.2,1.1s0.1,0.8,0.2,1.1
			c0.2,0.7,0.5,1.5,0.9,2.1c0.1,0.1,0.1,0.2,0.2,0.2c0,0.1,0.1,0.1,0.2,0.1c0.1,0.1,0.3,0.1,0.5,0.1s0.3,0,0.5,0
			c0.1,0,0.1,0,0.2-0.1l0,0l0,0V279c0.1-0.3,0.2-0.7,0.3-1.1s0.1-0.8,0.2-1.1L242.2,276.8z"/>
		<path class="st21" d="M233.8,275.1c-0.1,0.4,0,0.9,0.1,1.2c0.1,0.2,0.2,0.4,0.4,0.5c0.1,0.1,0.3,0.2,0.5,0.3l0,0
			c0.3,0,0.6,0,0.9-0.1c0.1,0,0.3-0.1,0.4-0.1c0.1-0.1,0.2-0.1,0.4-0.2c0.3-0.2,0.6-0.3,0.9-0.3c0.3-0.1,0.6-0.1,0.9-0.2l0,0
			l-0.8,0.4c-0.3,0.1-0.5,0.3-0.8,0.4c-0.1,0.1-0.3,0.2-0.4,0.2c-0.2,0.1-0.3,0.1-0.5,0.1c-0.3,0-0.6,0.1-1,0l0,0l0,0
			c-0.2-0.1-0.4-0.2-0.6-0.4c-0.2-0.2-0.3-0.4-0.4-0.6C233.7,276,233.7,275.5,233.8,275.1L233.8,275.1z"/>
		<path class="st21" d="M239.5,272.4c-0.3-0.2-0.6-0.3-1-0.5c-0.3-0.1-0.7-0.3-1-0.4c0.4,0,0.7,0.1,1.1,0.2c0.4,0.1,0.7,0.2,1.1,0.3
			L239.5,272.4z"/>
		<path class="st21" d="M241.3,283.6c-0.2-0.5-0.4-0.9-0.6-1.4c-0.1-0.2-0.2-0.5-0.3-0.7s-0.2-0.5-0.2-0.7l0.1,0.1l-1.6-1.8l0,0
			c-0.3-0.1-0.5-0.2-0.8-0.4c-0.2-0.1-0.5-0.3-0.7-0.5c0.5,0.3,1,0.5,1.5,0.7l0,0l0,0l1.7,1.6l0,0v0.1c0.1,0.4,0.4,0.9,0.6,1.3
			c0.2,0.4,0.5,0.8,0.7,1.2L241.3,283.6z"/>
		<path class="st21" d="M237.9,279.1c0.1,0,0.3,0,0.4,0c0.1,0,0.1,0,0.2,0c0.1,0,0.1,0,0.2-0.1c0,0.1,0,0.2-0.1,0.2
			c0,0.1-0.1,0.1-0.2,0.2c-0.1,0.1-0.1,0.1-0.2,0.2c-0.1,0.1-0.1,0.1-0.2,0.2L237.9,279.1z"/>
	</g>
	<path class="st21" d="M142.6,233.6l3.8-0.9l1.9-0.5c0.6-0.2,1.2-0.3,1.9-0.4c2.6-0.5,5.2-0.6,7.8-0.4c1.3,0.1,2.6,0.3,3.9,0.5
		l3.8,0.7l7.6,1.4h0.1l0.1,0.1l7.2,10.6l-0.1-0.1c2-0.2,4-0.4,6-0.8c1-0.2,2-0.4,2.9-0.7c1-0.3,1.9-0.6,2.7-1.2
		c-0.8,0.6-1.8,1-2.7,1.3c-1,0.3-1.9,0.6-2.9,0.8c-2,0.4-4,0.7-6,0.9h-0.1v-0.1l-7.5-10.4l0.2,0.1l-7.6-1.3l-3.8-0.6
		c-1.3-0.2-2.5-0.3-3.8-0.4c-2.5-0.2-5.1,0-7.6,0.5c-0.6,0.1-1.2,0.3-1.9,0.5l-1.9,0.5l-3.7,1L142.6,233.6z"/>
	<polygon class="st21" points="157.1,195.3 173.5,195.8 173.4,195.8 183.5,190.1 173.6,196.1 173.5,196.1 173.5,196.1 157.1,196 	
		"/>
	<g>
		<path class="st21" d="M129.5,323.6c0,0,1.5-0.2,3.5-1c0.3-0.2,1-0.5,1.5-0.8c0.7-0.4,1.4-0.8,2.1-1.1c1.4-0.7,2.9-1.5,4.3-2.2
			l-0.4-0.7c-1.4,0.8-2.8,1.7-4.2,2.5c-0.7,0.4-1.4,0.9-2.1,1.3c-0.3,0.2-0.8,0.5-1.2,0.7"/>
		<path class="st21" d="M142.7,324c-0.1,1.1-0.2,2.2-0.3,3.3c-0.1,0.5-0.1,1.1-0.2,1.6c-0.1,0.5-0.2,1.1-0.3,1.6
			c0.1-0.5,0.1-1.1,0.1-1.6s0-1.1,0-1.6c0-1.1,0-2.2-0.1-3.2L142.7,324z"/>
	</g>
	<path class="st21" d="M116.5,271.5c0.5-0.8,1-1.5,1.6-2.2c0.6-0.8,1.2-1.5,1.8-2.2c0.6-0.7,1.3-1.5,2-2.1c0.7-0.7,1.5-1.2,2.2-1.8
		c1.5-1.2,2.9-2.4,4.2-3.8c1.3-1.3,2.5-2.6,3.7-4l-0.2-0.6l-0.1-0.2l0.2-0.2c1.1-0.9,2.1-1.9,3.1-3c1-1,1.9-2.1,2.9-3.2
		c0.9-1.1,1.8-2.2,2.7-3.4c0.9-1.1,1.8-2.3,2.6-3.4l0.8-1.1l0.1,1.4c0.3,4.5,0.5,9,0.8,13.4c0.2,2.2,0.3,4.5,0.5,6.7
		c0,0.3,0.1,0.6,0.1,0.8l0.1,0.4c0,0.2,0.1,0.3,0.1,0.5c0.1,0.6,0.1,1.1,0.2,1.7c0,0.6,0.1,1.1,0.1,1.7l-1.2,0.4
		c0-0.6-0.1-1.3-0.1-1.9s-0.1-1.1-0.1-1.7c0-0.1,0-0.3-0.1-0.4l-0.1-0.4c-0.1-0.3-0.1-0.6-0.1-0.9c-0.2-2.3-0.3-4.5-0.5-6.7
		c-0.2-4-0.4-8.1-0.6-12.1c-0.6,0.8-1.2,1.6-1.9,2.3c-0.9,1.1-1.8,2.2-2.8,3.3s-1.9,2.2-2.9,3.2s-1.9,2-3,2.9l0.1,0.5l0.1,0.2
		l-0.1,0.2c-1.3,1.4-2.6,2.8-3.9,4.1c-1.4,1.3-2.8,2.6-4.3,3.8c-0.8,0.6-1.5,1.1-2.2,1.7s-1.3,1.3-1.9,2s-1.2,1.4-1.8,2.2
		c-0.6,0.7-1.2,1.5-1.6,2.3l-0.1,0.1c0,0-0.9,0.1-1.8-0.7l0.8-1.1l0.6,0.7L116.5,271.5z"/>
	<path class="st21" d="M225.3,267.9l0.1-0.3v-0.1c-0.5-2.9-1.1-5.7-1.7-8.6c-0.3-1.4-0.6-2.9-1-4.3c0-0.2-0.1-0.4-0.2-0.5l-0.2-0.5
		l-0.4-1l-0.7-1.9l0.6-0.6l0.1-0.4l-0.1-0.2c-0.5-0.7-0.9-1.4-1.3-2.1c-0.4-0.7-0.7-1.5-1-2.2c-0.3-0.8-0.5-1.5-0.7-2.3
		c-0.1-0.8-0.2-1.6-0.1-2.4v-0.3l-0.2-0.1c-1.8-1.1-3.6-2.4-5.3-3.8c-1.7-1.4-3.3-2.8-4.8-4.4c-0.7-0.8-1.4-1.6-2.1-2.5
		c-0.7-0.8-1.4-1.7-2.1-2.5l-4.3-5l-0.6-0.7l-0.3,0.9c-1.2,3.7-2.5,7.4-3.8,11.1c-1.3,3.7-2.7,7.3-4.3,10.9
		c-0.8,1.8-1.6,3.6-2.4,5.3c-0.4,0.9-0.9,1.7-1.4,2.6c-0.4,0.9-0.8,1.8-1.2,2.7c-0.7,1.8-1.3,3.8-1.7,5.7c-0.4,2-0.6,4-0.4,6l0,0
		l0,0c0,0.2,0.1,0.3,0.1,0.5l1.3,2.5c0-0.2-0.2-2.5-0.2-2.7c-0.2-1.8,0.1-4.4,0.5-6.2c0.4-1.9,0.9-3.7,1.6-5.5
		c0.3-0.9,0.7-1.8,1.1-2.7c0.4-0.8,0.9-1.7,1.3-2.6c0.9-1.8,1.7-3.6,2.4-5.4c1.5-3.6,2.9-7.3,4.2-11c1.2-3.4,2.4-6.8,3.5-10.2
		l3.7,4.2c0.7,0.8,1.5,1.6,2.2,2.5s1.4,1.7,2.2,2.5c1.5,1.6,3.2,3.1,5,4.4c1.7,1.3,3.4,2.5,5.2,3.6c0,0.8,0,1.6,0.2,2.3
		c0.2,0.8,0.5,1.7,0.8,2.4c0.3,0.8,0.7,1.5,1.1,2.3c0.4,0.7,0.8,1.3,1.2,2l-0.5,0.8l-0.1,0.2l0.1,0.2l0.8,2l0.4,1l0.2,0.5
		c0.1,0.2,0.1,0.3,0.2,0.5c0.4,1.4,0.7,2.8,1.1,4.2c0.6,2.8,1.2,5.6,1.8,8.4"/>
	<polygon class="st21" points="157.6,189.7 157.7,195.8 157.1,196 157.1,190.4 	"/>
	<path class="st21" d="M144.8,267.2c0,0,0.2,3.4-2.7,7.9l-0.4,0.9c0,0,3.9-4.4,4.3-9.2L144.8,267.2z"/>
	<path class="st21" d="M205.2,396.7L205.2,396.7L205.2,396.7z"/>
	<g>
		<path class="st21" d="M183.3,156.6l-2.4-1.4l0.4,0.1c-1.2,0.2-2.4,0.2-3.6,0.1c-1.2,0-2.4-0.1-3.5-0.2c-2.3-0.2-4.7-0.5-7-0.9l0,0
			l0,0c-0.9-0.3-1.9-0.5-2.9-0.8c-0.5-0.1-1-0.2-1.4-0.3c-0.2-0.1-0.5-0.1-0.7-0.1s-0.5-0.1-0.7-0.1l0,0l-3.1,1.4l3-1.6l0,0l0,0
			c0.2,0,0.3,0,0.4,0c0.1,0,0.2,0,0.4,0s0.5,0.1,0.7,0.1c0.5,0.1,1,0.2,1.5,0.3c1,0.2,1.9,0.4,2.9,0.6l0,0c2.3,0.2,4.7,0.4,7,0.5
			c1.2,0,2.3,0.1,3.5,0c1.2,0,2.3-0.1,3.4-0.3h0.2l0.2,0.1l2.5,1.3L183.3,156.6z"/>
		<path class="st21" d="M158.1,160.2l1.2-10.2l4.3-4.8c0.2,0,0.4,0,0.6,0c0.3,0,0.6,0,0.9,0.1c0.3,0,0.6,0.1,0.9,0.1
			c0.1,0,0.3,0.1,0.4,0.1c0.1,0,0.1,0,0.1,0.1c0,0,0,0,0.1,0l0.7,0.1c0.1,0,0.2,0,0.3-0.1c0.2-0.1,0.5-0.3,0.7-0.4
			c0.3-0.1,0.5-0.2,0.8-0.3c0.4-0.2,0.9-0.3,1.3-0.3c0.1,0.1,0.2,0.1,0.3,0.2c0.2,0.1,0.4,0.3,0.7,0.3c0.5,0,0.6-0.3,0.8-0.3
			s0.5-0.1,0.7-0.1c0.6-0.1,1.3-0.2,1.8-0.1c0.3,0,0.6,0.1,0.7,0.2c0.1,0.1,0.2,0.1,0.2,0.2c0,0,0.1,0.1,0.1,0.2l0.2,0.2
			c0.4,0.6,0.9,1.3,1.7,1.9c0.4,0.3,0.8,0.4,1.3,0.5c0.4,0.1,0.7,0.1,1,0.1c0.3,0.2,0.7,0.4,0.9,0.7c0.3,0.3,0.5,1,0.6,1.3
			c0,0,0,0,0,0.1v0.1c0,0.1,0,0.1,0.1,0.2c0,0.1,0.1,0.3,0.2,0.5c0.1,0.3,0.3,0.7,0.7,1c0.2,0.2,0.4,0.3,0.7,0.3c0.1,0,0.3,0,0.4,0
			l-0.3,5.7h0.9l0.4-6.8c0-0.1,0-0.4,0-0.5c-0.2-0.4-0.3-0.4-0.6-0.2h-0.1c-0.2,0.1-0.5,0.2-0.6,0.2s-0.1,0-0.1,0s-0.1-0.1-0.2-0.3
			c0-0.1-0.1-0.2-0.1-0.3l-0.1-0.4c-0.2-0.7-0.3-1.2-0.7-1.6c-0.5-0.4-0.9-0.7-1.5-1c-0.1-0.1-0.2-0.1-0.4-0.1l0,0
			c-0.6,0-1.2,0-1.6-0.3c-0.4-0.3-0.8-0.8-1.2-1.4l-0.2-0.2c-0.1-0.1-0.1-0.1-0.2-0.3c-0.2-0.2-0.4-0.4-0.6-0.5
			c-0.5-0.3-0.9-0.4-1.3-0.4c-0.9-0.1-1.6,0-2.4,0.1h-0.1c-0.1,0-0.2,0.1-0.2,0.1c-0.1,0-0.2,0-0.3,0s-0.2-0.1-0.3-0.1
			s-0.2-0.2-0.3-0.2l0,0c-0.2-0.2-0.4-0.2-0.6-0.2c-0.7,0.1-1.4,0.2-2,0.4c-0.3,0.1-0.6,0.2-0.9,0.4c-0.2,0.1-0.3,0.2-0.5,0.3h-0.1
			c-0.2-0.1-0.4-0.1-0.6-0.2c-0.4-0.1-0.7-0.1-1-0.2c-0.3,0-0.7-0.1-1-0.1s-0.7,0-1,0c-0.2,0-0.4,0.1-0.6,0.3l0,0l-4.1,5.4l0,0
			c-0.1,0.1-0.2,0.3-0.2,0.5l-0.8,14L158.1,160.2z"/>
	</g>
	<g>
		<path class="st21" d="M157.9,183.5l0.3-6.1v-0.1v-0.1c-0.2-0.4-0.4-0.9-0.6-1.3c-0.1-0.2-0.2-0.5-0.2-0.7
			c-0.1-0.2-0.1-0.4-0.1-0.7c0-1,0-2,0.1-2.9c0.1-2,0.2-3.9,0.3-5.9s0.3-3.9,0.6-5.9c0.1-1,0.2-2,0.4-2.9c0.1-0.5,0.1-1,0.2-1.4
			l0.2-0.7c0-0.2,0.1-0.5,0.2-0.7c0.2-0.6,0.4-1.1,0.7-1.7l-0.5-0.1c-0.3,0.5-0.5,1-0.7,1.6c-0.1,0.2-0.2,0.5-0.2,0.7l-0.2,0.7
			c-0.1,0.5-0.2,1-0.2,1.5c-0.1,1-0.3,2-0.4,2.9c-0.2,2-0.4,3.9-0.5,5.9c-0.2,2-0.3,3.9-0.4,5.9c0,1-0.1,2-0.1,3
			c0,0.2,0,0.6,0.1,0.8c0.1,0.3,0.2,0.5,0.3,0.7c0.2,0.4,0.4,0.9,0.6,1.3l-0.3,6l-0.4,6c-0.3,0.7-0.8,1.3-1.4,1.9
			c-0.6,0.5-1.3,1-2,1.4c-1.4,0.8-3,1.5-4.6,2c-0.4,0.1-0.8,0.3-1.2,0.4l-1.2,0.3c-0.4,0.1-0.8,0.2-1.3,0.3l-0.6,0.2l-0.6,0.2
			c-1.6,0.7-3.2,1.5-4.6,2.5c-1.4,1-2.7,2.2-3.9,3.5c-0.7,0.8-0.9,1.7-1.1,2.6c-0.2,0.9-0.3,1.8-0.3,2.6c-0.1,1.7-0.1,3.5,0,5.2
			s0.2,3.4,0.5,5.1c0,1.2-0.1,2.5-0.3,3.7c-0.1,1.3-0.3,2.5-0.5,3.8c-0.4,2.4-0.7,4.9-1.2,7.3l-9.6,11.6c-0.2,0-0.3-0.1-0.5-0.1
			c-0.1,0-0.3,0-0.4,0c-0.2,0-0.3,0-0.5,0h-0.4l-0.1,0.4c-0.3,0.8-0.7,1.6-1.1,2.4c-0.4,0.8-0.9,1.6-1.4,2.3
			c-1.1,1.5-2.2,2.9-3.3,4.4c-2.3,2.9-4.6,5.8-6.9,8.7l-0.1,0.2v0.2l0.1,0.6l1,0.3l-0.1-0.8c2.3-2.8,4.6-5.6,6.9-8.4
			c1.1-1.5,2.3-2.9,3.4-4.4c0.6-0.8,1-1.6,1.5-2.4c0.4-0.7,0.7-1.4,1-2.2c0.1,0,0.2,0,0.3,0c0.2,0,0.5,0.1,0.7,0.1l0.3,0.1l0.2-0.3
			l10-11.9l0.1-0.1v-0.2c0.5-2.5,0.9-5,1.2-7.5c0.2-1.3,0.3-2.5,0.5-3.8c0.1-1.3,0.2-2.6,0.3-3.9l0,0v-0.1c-0.2-1.7-0.4-3.4-0.5-5.1
			c-0.1-1.7-0.2-3.4-0.1-5.1c0-0.8,0.1-1.7,0.3-2.5s0.4-1.6,0.8-2.1c1.1-1.2,2.4-2.4,3.7-3.4s2.8-1.8,4.3-2.5l0.6-0.2l0.6-0.2
			c0.4-0.1,0.8-0.2,1.2-0.3l1.2-0.3c0.4-0.1,0.8-0.3,1.2-0.4c1.6-0.6,3.2-1.3,4.7-2.2c0.7-0.5,1.5-1,2.1-1.6s1.2-1.3,1.6-2.2v-0.1
			v-0.1L157.9,183.5z"/>
		<path class="st21" d="M237,269c0-0.3-0.1-0.6-0.2-1l-0.2-0.9c-0.2-1.1-0.4-2.3-0.5-3.5s-0.2-2.4-0.2-3.5c-0.2-2.4-0.3-4.7-0.3-7.1
			c0-1.2,0-2.4,0.1-3.5c0-0.6,0.1-1.2,0.2-1.7c0-0.3,0.1-0.6,0.1-0.9c0-0.3,0.1-0.6,0.2-0.8l0.2-0.8l-0.8-0.1h-0.5
			c0.1-0.6,0.1-1.2,0.1-1.7c0-0.8-0.1-1.6-0.2-2.4c-0.1-0.8-0.2-1.6-0.4-2.4c-0.2-0.8-0.4-1.5-0.6-2.2v-1.8v-0.3l-0.2-0.2
			c-0.5-0.6-1-1-1.5-1.4c-0.3-0.2-0.6-0.4-0.9-0.6c-0.1,0-0.2-0.1-0.2-0.1L231,232c-0.1-0.1-0.2-0.1-0.3-0.2
			c-0.5-0.3-0.9-0.7-1.4-1.1c-0.4-0.4-0.8-0.8-1.2-1.3c-0.3-0.6-0.6-1.1-0.9-1.6c-0.3-0.5-0.7-1.1-1-1.6c-0.7-1.1-1.4-2.1-2.1-3.2
			c-1.4-2.1-2.9-4.1-4.7-6.1l-1.3-1.4c-0.4-0.5-0.8-0.9-1.2-1.4c-0.8-1-1.5-2-2.1-3c-0.7-1-1.3-2.1-2-3.2c-0.6-1.1-1.3-2.2-1.8-3.3
			l-0.4-0.9c-0.1-0.3-0.3-0.6-0.5-0.9c-0.3-0.6-0.7-1.1-1-1.7c-0.8-1.1-1.6-2.1-2.5-3c-0.4-0.5-0.9-0.9-1.4-1.3
			c-0.5-0.4-1-0.8-1.5-1.2c-1-0.8-2.2-1.4-3.3-2c-2.3-1.2-4.7-2-7.3-2.6c-1.3-0.3-2.5-0.5-3.8-0.6c-1.2-0.1-2.5-0.2-3.7-0.2
			c-0.3-0.1-0.7-0.3-1-0.5c-0.2-0.1-0.4-0.3-0.5-0.4c-0.2-0.2-0.4-0.3-0.5-0.5c-0.7-0.6-1.4-1.3-2-2.1c-0.6-0.7-1.2-1.5-1.9-2.3
			l-0.1-0.2l0,0c0,0,0-0.1,0-0.2c0-0.1,0-0.3,0-0.5s0.1-0.4,0.1-0.6c0.1-0.2,0.1-0.4,0.2-0.6c0.1-0.3,0.2-0.5,0.3-0.7l0.3-0.7
			l0.5-1.4c0.3-0.9,0.6-1.7,0.9-2.6c0.2-0.5,0.3-0.8,0.5-1.4c0.1-0.6,0.3-1.3,0.4-1.8c0.1-1,0.2-2,0.3-3c0.2-2,0.4-3.9,0.6-5.9
			c0.2-2,0.4-4.9,0.5-6.9c0.1-1.3,0.1-2.4,0.1-2.4l-1.1-0.1c0,0,0,2.3-0.1,3.5c-0.1,1.9-0.3,3.9-0.5,5.9s-0.4,3.9-0.6,5.9
			c-0.1,1-0.2,2-0.4,2.9c-0.1,0.5-0.1,1-0.2,1.4c-0.1,0.4-0.3,0.9-0.5,1.4c-0.3,0.9-0.7,1.8-1,2.8l-0.5,1.4l-0.3,0.7
			c-0.1,0.2-0.2,0.4-0.3,0.6c-0.2,0.3-0.3,0.5-0.3,0.8c-0.1,0.3-0.1,0.5-0.2,0.8c0,0.3,0,0.6,0,0.9c0,0.2,0.1,0.4,0.2,0.5
			c0,0.1,0.1,0.2,0.2,0.3l0.1,0.1c0.6,0.8,1.2,1.6,1.9,2.3c0.7,0.8,1.3,1.5,2.1,2.2c0.2,0.2,0.4,0.3,0.6,0.5
			c0.2,0.2,0.4,0.3,0.6,0.5c0.4,0.3,0.9,0.6,1.6,0.8h0.1h0.1c1.2,0,2.4,0.1,3.7,0.2c1.2,0.1,2.4,0.4,3.6,0.6
			c2.4,0.6,4.7,1.4,6.9,2.5c1.1,0.6,2.1,1.2,3.1,1.9c0.5,0.3,1,0.7,1.4,1.1c0.4,0.4,0.9,0.8,1.3,1.3c0.9,0.9,1.6,1.8,2.3,2.8
			c0.3,0.5,0.7,1,1,1.5c0.1,0.3,0.3,0.5,0.4,0.8l0.4,0.8c1.2,2.3,2.4,4.5,3.8,6.6c0.7,1.1,1.4,2.1,2.2,3.1c0.4,0.5,0.8,1,1.2,1.5
			l1.3,1.4c1.6,1.8,3.1,3.8,4.5,5.9c0.7,1,1.4,2.1,2.1,3.1c0.3,0.5,0.7,1.1,1,1.6s0.6,1.1,0.9,1.6l0.1,0.1l0.1,0.1
			c0.4,0.5,0.9,1,1.4,1.5s1,0.9,1.6,1.3c0.2,0.1,0.3,0.2,0.5,0.3l0.2,0.1c0.1,0,0.1,0.1,0.2,0.1c0.2,0.1,0.5,0.3,0.7,0.5
			c0.4,0.3,0.8,0.6,1.1,1v1.6v0.1v0.1c0.2,0.7,0.4,1.5,0.6,2.2c0.2,0.7,0.3,1.5,0.4,2.3c0.1,0.8,0.2,1.5,0.2,2.3s0,1.5-0.1,2.3
			l-0.1,0.7l0.7,0.1h0.4v0.1c0,0.3-0.1,0.6-0.1,0.9c-0.1,0.6-0.1,1.2-0.1,1.8c-0.1,1.2-0.1,2.4-0.1,3.6c0,2.4,0.2,4.8,0.4,7.1
			c0.1,1.2,0.2,2.4,0.3,3.6c0.1,1.1,0.3,2.2,0.5,3.4c0.4,0.5,1.1,1.4,1.6,2.2C237,269.3,237,269.1,237,269z"/>
	</g>
	<path class="st21" d="M114.4,317.9c0.3,0.8,0.7,1.6,1.3,2.2c0.1,0.1,0.3,0.3,0.5,0.4s0.4,0.2,0.5,0.4c0.4,0.2,0.8,0.4,1.2,0.7
		c1.6,0.8,3.3,1.4,5,1.8s3.5,0.5,5.3,0.3c1.8-0.2,4.7-1.1,5.2-1.4c-1.6,0.8-3.4,1.3-5.2,1.5s-3.6,0.2-5.4-0.2
		c-1.8-0.3-3.5-0.9-5.2-1.7c-0.4-0.2-0.8-0.4-1.2-0.6c-0.2-0.1-0.4-0.2-0.6-0.4c-0.2-0.1-0.4-0.3-0.6-0.5c-0.7-0.7-1.2-1.5-1.5-2.4
		L114.4,317.9z"/>
	<path class="st21" d="M177.9,348.2c0.7-1.7,2.1-3.2,3.9-4.1c0.8-0.4,1.7-0.8,2.5-1.1c0.9-0.3,1.8-0.6,2.7-0.8
		c0.9-0.2,1.8-0.4,2.8-0.5c0.5,0,0.9-0.1,1.4-0.1s1,0,1.5,0.1c1,0.2,1.9,0.7,2.7,1.3c0.4,0.3,0.7,0.7,1,1c0.3,0.4,0.6,0.8,0.7,1.3
		H197c-0.2-0.4-0.5-0.7-0.8-1s-0.7-0.6-1.1-0.8c-0.8-0.5-1.6-0.8-2.5-0.9s-1.8,0-2.7,0.1s-1.8,0.3-2.7,0.5c-1.8,0.4-3.5,1-5.1,1.7
		C180.4,345.5,179,346.7,177.9,348.2L177.9,348.2z"/>
	<path class="st21" d="M140.5,318.4c-0.3,0.5-0.6,1.1-1,1.6s-0.7,1-1.1,1.5c-0.8,1-1.6,1.9-2.6,2.7c-1,0.8-2,1.5-3.2,2.1
		c-1.2,0.5-2.4,0.9-3.7,1.1c-0.6,0.1-1.3,0.2-1.9,0.2h-0.5h-0.2H126c-0.3,0-0.7,0-1,0c-1.3-0.1-2.5-0.5-3.7-0.9
		c-2.4-0.8-4.6-2-6.6-3.3l0.3-0.4c2.1,1.2,4.2,2.4,6.5,3.2c1.2,0.4,2.4,0.7,3.6,0.8c0.6,0.1,1.2,0,1.8-0.1c0.6-0.1,1.2-0.1,1.8-0.2
		c1.2-0.2,2.4-0.5,3.5-1s2.2-1.2,3.1-1.9C137.4,322.2,139,320.4,140.5,318.4L140.5,318.4z"/>
	<path class="st21" d="M141,318.5c-0.5,1.2-1.1,2.4-1.7,3.6c-0.6,1.2-1.2,2.4-1.8,3.5l-0.5,0.9c-0.1,0.1-0.2,0.3-0.3,0.5
		s-0.2,0.3-0.3,0.4c-0.2,0.3-0.5,0.5-0.8,0.8c-0.3,0.2-0.5,0.5-0.8,0.6c-1.1,0.8-2.4,1.4-3.6,2c-1.3,0.5-2.6,0.9-3.9,1.2
		c-0.2,0-0.3,0.1-0.5,0.1h-0.6c-0.4,0-0.7-0.1-1.1-0.1c-0.7-0.1-1.3-0.3-2-0.5c-1.3-0.4-2.5-0.9-3.8-1.4c-0.6-0.3-1.2-0.6-1.8-0.8
		c-0.6-0.3-1.2-0.6-1.8-0.9l0.1-0.4c2.2,1.1,4.8,2.3,7.4,3c0.3,0.1,0.6,0.2,1,0.2c0.3,0.1,0.6,0.1,1,0.2c0.3,0.1,0.7,0.1,1,0.1h0.5
		c0.2,0,0.3,0,0.5-0.1c1.3-0.2,2.6-0.7,3.8-1.2s2.4-1.1,3.5-1.8c0.3-0.2,0.5-0.4,0.8-0.6c0.2-0.2,0.5-0.4,0.7-0.7
		c0.5-0.5,0.8-1.1,1.1-1.6C138.4,323.1,139.6,320.7,141,318.5L141,318.5z"/>
	<path class="st21" d="M126.7,335.6c-1.7-0.2-9.5-3.3-11.1-3.9l0.3-0.7c3.8,1.5,10.1,3.9,10.9,3.9c1.4-0.1,4.7-2,6.5-3
		c1.3-0.7,2.3-1.8,2.8-3.1l4.5-10.5l0.7,0.3l-4.5,10.5c-0.6,1.5-1.7,2.7-3.1,3.5c-2.6,1.5-5.3,2.9-6.8,3
		C126.8,335.6,126.8,335.6,126.7,335.6z"/>
	<path class="st21" d="M179.1,351.9c1.1-1.2,2.4-1.9,3.9-2.6c0.7-0.4,1.5-0.7,2.3-1s1.6-0.5,2.4-0.7c0.8-0.2,1.6-0.4,2.4-0.5
		c0.8-0.1,1.6-0.2,2.5-0.2c1.7-0.1,3.3,0,5,0.3v0.1c-1.6,0-3.2,0.2-4.8,0.4c-1.6,0.2-3.2,0.5-4.8,0.9s-3.1,0.9-4.6,1.5
		s-2.9,1.1-4.2,2L179.1,351.9z"/>
	<path class="st21" d="M181.4,356.6c1.4-0.7,2.7-1.3,4.1-1.8c0.7-0.3,1.4-0.5,2.1-0.8l2.1-0.7c1.4-0.5,2.9-0.9,4.3-1.3
		c1.4-0.4,2.9-0.7,4.4-1c-1.4,0.7-2.7,1.3-4.1,1.8c-1.4,0.5-2.8,1-4.2,1.5L188,355c-0.7,0.2-1.4,0.4-2.2,0.6
		C184.3,356,182.9,356.3,181.4,356.6z"/>
	<path class="st21" d="M182.5,358.9c0.5,0.5,1,0.9,1.6,1.3c0.3,0.2,0.6,0.3,0.9,0.4h0.2h0.2c0.1,0,0.2,0,0.4-0.1
		c0.6-0.1,1.3-0.3,1.9-0.5c0.7-0.2,1.3-0.4,1.9-0.6c0.6-0.2,1.3-0.4,1.9-0.6c0.6-0.2,1.3-0.4,1.9-0.6c0.6-0.2,1.3-0.4,1.9-0.7
		c0.3-0.1,0.6-0.3,0.9-0.4c0.3-0.2,0.5-0.3,0.7-0.5l0,0c0.5-0.5,0.9-0.9,1.4-1.4l0.7-0.7c0.2-0.2,0.4-0.5,0.6-0.8
		c-0.1,0.3-0.3,0.6-0.4,0.9c-0.2,0.3-0.4,0.6-0.5,0.9c-0.4,0.6-0.8,1.1-1.2,1.6l0,0c-0.3,0.4-0.6,0.6-0.9,0.8
		c-0.3,0.2-0.6,0.4-0.9,0.5c-0.6,0.3-1.3,0.6-1.9,0.8c-1.3,0.5-2.6,0.9-3.9,1.2c-1.3,0.3-2.7,0.6-4.1,0.8c-0.2,0-0.4,0-0.6,0
		c-0.1,0-0.2,0-0.3-0.1l-0.3-0.1c-0.3-0.2-0.6-0.4-0.9-0.6C183.3,360.1,182.8,359.5,182.5,358.9z"/>
	<path class="st21" d="M165.7,306.8c-0.1-1.1-0.2-2.2-0.4-3.4c-0.2-1.1-0.4-2.2-0.7-3.3c-0.3-1.1-0.6-2.2-1.1-3.2s-1.2-2-2-2.7
		c0.9,0.7,1.6,1.6,2.2,2.6c0.6,1,1,2.1,1.3,3.2c0.4,1.1,0.7,2.2,0.9,3.3c0.3,1.1,0.5,2.3,0.6,3.4L165.7,306.8z"/>
	<path class="st21" d="M159.7,300.8c-0.4-0.1-0.8-0.2-1.2-0.2s-0.9,0-1.3,0c-0.9,0-1.8,0.1-2.6,0.2c-0.9,0.1-1.7,0.3-2.6,0.6
		c-0.4,0.1-0.8,0.3-1.3,0.4l-1.3,0.5l1.2-0.5c0.4-0.2,0.8-0.3,1.3-0.5c0.8-0.3,1.7-0.6,2.6-0.8c0.9-0.2,1.8-0.3,2.7-0.4
		c0.5,0,0.9-0.1,1.4,0c0.5,0,0.9,0,1.4,0.1L159.7,300.8z"/>
	<path class="st21" d="M159.9,300.1c0,0,1.6,0.2,3.1,1.6l-3.2-1.3L159.9,300.1z"/>
	<polygon class="st21" points="166.5,306.7 166.9,309.4 165.7,306.3 	"/>
	<path class="st21" d="M101.8,280.2c-0.3-0.1-0.7-0.1-1-0.2s-0.7-0.2-1-0.3c0.3,0.1,0.7,0.1,1,0.1s0.7,0,1,0V280.2z"/>
	<path class="st21" d="M98.7,279.9c-0.3-0.2-0.6-0.4-0.8-0.6c-0.3-0.2-0.5-0.4-0.8-0.7c0.3,0.2,0.6,0.4,0.9,0.5
		c0.3,0.2,0.6,0.3,0.9,0.4L98.7,279.9z"/>
	<path class="st21" d="M97,282.7c-0.3-0.1-0.7-0.2-1-0.4c-0.3-0.1-0.6-0.3-0.9-0.5c0.3,0.2,0.6,0.2,1,0.3c0.3,0.1,0.7,0.1,1,0.2
		L97,282.7z"/>
	<path class="st21" d="M101.1,283.6c-0.3-0.1-0.7-0.1-1-0.2s-0.7-0.2-1-0.3c0.3,0.1,0.7,0.1,1,0.1s0.7,0,1,0V283.6z"/>
	<g>
		<path class="st21" d="M124,335.3l1.7,0.3l1.6-0.1c-0.2-0.1-0.3-0.2-0.5-0.2l-0.2-0.1l-0.2-0.1l-0.4-0.2c-1.1-0.5-2.2-0.9-3.3-1.4
			c-2.2-0.9-4.3-1.7-6.5-2.6c-0.1-0.1-0.2-0.2-0.2-0.3c-0.1-0.1-0.2-0.3-0.2-0.5c-0.1-0.2-0.1-0.4-0.2-0.6c0-0.1-0.1-0.3-0.1-0.4
			l0.3-0.9l0.1-0.4l-0.3-0.2l-1.1-0.9c-0.2-0.2-0.3-0.6-0.4-0.9c0-0.2-0.1-0.4-0.1-0.6c0-0.1,0-0.3,0-0.5l0.8-1.2l0.3-0.4l-0.4-0.3
			l-1-0.8c-0.2-0.4-0.2-0.9-0.3-1.4c0-0.3,0-0.5,0-0.8c0-0.2,0-0.4,0.1-0.6l0.8-0.8l0.1-0.1v-0.1c1.1-4.4,2.6-8.6,4.6-12.6
			s4.4-7.9,7-11.5c2.7-3.6,5.6-7.1,8.8-10.3c0.8-0.8,1.6-1.6,2.4-2.4c0.8-0.8,1.6-1.6,2.4-2.4c0.8-0.9,1.5-1.7,2.1-2.7
			c0.6-0.9,1.3-1.9,1.7-2.9c0.4-0.4,0.7-1,0.9-1.5s0.4-1.1,0.6-1.7c0.3-1.1,0.5-2.2,0.6-3.3h0.5v-0.3h-0.6h-0.1v0.1
			c-0.1,1.2-0.3,2.3-0.5,3.4c-0.1,0.6-0.3,1.1-0.5,1.7c-0.2,0.5-0.5,1-0.8,1.5c-0.5,1-1.1,2-1.8,2.9s-1.4,1.8-2.2,2.6
			c-0.8,0.8-1.6,1.6-2.4,2.4c-0.8,0.8-1.6,1.6-2.4,2.4c-3.2,3.2-6.3,6.6-9,10.2s-5.2,7.5-7.2,11.6c-2,4-3.6,8.3-4.8,12.6l-0.9,0.8
			l-0.1,0.1v0.2c-0.1,0.3-0.1,0.6-0.1,0.9s0,0.6,0,0.9c0,0.6,0.1,1.2,0.4,1.8v0.1l0.1,0.1l0.7,0.6l-0.7,1l-0.1,0.1v0.1
			c0,0.3,0,0.5,0,0.7s0,0.5,0.1,0.7c0.1,0.5,0.2,1,0.6,1.4l0,0l0,0l0.9,0.7l-0.3,0.7l-0.1,0.1v0.2c0,0.2,0.1,0.5,0.2,0.7
			s0.1,0.4,0.2,0.7c0.1,0.2,0.2,0.4,0.3,0.7c0.1,0.2,0.3,0.5,0.6,0.7h0.1h0.1c2.2,0.8,4.4,1.7,6.6,2.6
			C122.9,334.8,123.5,335,124,335.3z"/>
		<path class="st21" d="M210.3,426.7c0-2.1,0-4.1-0.1-6.1s-0.3-4.1-0.5-6.1s-0.5-4-0.8-6c-0.2-1-0.4-2-0.7-3.1L208,405l-0.1-0.3
			c-0.1-0.2-0.2-0.5-0.2-0.7c-0.2-0.5-0.3-0.9-0.4-1.4c-0.2-0.9-0.4-1.9-0.5-2.9c0-0.1,0-0.4,0-0.6v-0.8c0-0.5,0.1-1,0-1.6
			c0-0.1,0-0.2,0-0.3c0-0.1-0.1-0.3-0.1-0.3l0,0V396c0-0.1,0-0.1,0-0.2c-0.1-0.2-0.1-0.5-0.2-0.7c-0.1-0.5-0.2-1-0.2-1.4
			c-0.1-1-0.2-2-0.3-3c-0.1-2-0.1-4-0.1-6c0.1-2,0.2-4,0.3-6c0.2-4,0.3-8.2-0.4-12.3c-0.4-2-1-4.1-1.8-6c-0.4-1-0.9-1.9-1.4-2.8
			s-1-1.7-1.4-2.6c-0.9-1.8-1.7-3.6-2.3-5.5c-0.3-0.9-0.6-1.9-0.8-2.9c-0.1-0.5-0.2-1-0.3-1.4c-0.1-0.5-0.1-1-0.2-1.4
			c0.2-6.5,0.2-13.1-0.1-19.6c-0.2-3.3-0.4-6.6-0.8-9.8c-0.2-1.6-0.5-3.3-0.8-4.9s-0.7-3.2-1.1-4.8c-1.5-6.4-3.1-12.7-5-19
			c-0.5-1.6-1-3.1-1.5-4.7c-0.1-0.4-0.3-0.8-0.5-1.2c-0.2-0.3-0.4-0.7-0.5-1.1c-0.3-0.7-0.6-1.5-0.8-2.3c-0.4-1.5-0.8-3.1-1.1-4.7
			s-0.5-3.2-0.6-4.8v-0.4h-0.4h-0.6l0.2,0.9l0,0c0.1,1.5,0.3,3,0.5,4.5c0.3,1.6,0.6,3.2,1,4.9c0.2,0.8,0.5,1.6,0.8,2.4
			c0.2,0.4,0.4,0.8,0.5,1.2c0.2,0.3,0.3,0.7,0.4,1.1c0.5,1.5,1,3.1,1.4,4.6c1.8,6.3,3.4,12.6,4.8,19c0.4,1.6,0.7,3.2,1,4.8
			c0.3,1.6,0.5,3.2,0.7,4.8c0.4,3.2,0.6,6.5,0.7,9.7c0.1,3.3,0.2,6.5,0.2,9.8s0,6.5-0.2,9.8l0,0l0,0c0,0.6,0.1,1.1,0.2,1.6
			c0.1,0.5,0.2,1,0.3,1.5c0.2,1,0.5,2,0.8,3c0.6,2,1.4,3.9,2.3,5.7c0.5,0.9,1,1.8,1.5,2.7c0.5,0.8,0.9,1.7,1.3,2.6
			c0.8,1.8,1.3,3.7,1.7,5.6c0.7,3.9,0.6,7.9,0.4,11.9c-0.1,2-0.2,4-0.3,6.1c-0.1,2,0,4.1,0.1,6.1c0.1,1,0.2,2,0.3,3.1
			c0.1,0.5,0.2,1,0.3,1.5c0.1,0.3,0.1,0.5,0.2,0.8c0,0.1,0,0.1,0.1,0.2v0.1l0.1,0.1v0.1l0,0l0,0c0,0,0,0,0,0.1c0,0.4,0,0.9,0,1.4
			v0.8c0,0.3,0,0.5,0,0.9c0.1,1,0.3,2.1,0.5,3.1c0.1,0.5,0.3,1,0.4,1.5c0.1,0.2,0.2,0.5,0.3,0.7l0.1,0.4l0.1,0.3
			c0.3,0.9,0.5,1.9,0.6,2.8c0.3,2,0.6,4,0.8,5.9c0.2,2,0.4,4,0.5,6s0.2,4,0.2,6c0,0.5,0,1-0.1,1.5c0,0.5-0.1,0.9-0.2,1.4
			c-0.2,0.9-0.5,1.8-1,2.6c-0.4,0.8-1,1.6-1.7,2.2c-0.3,0.3-0.7,0.6-1.1,0.9c-0.2,0.1-0.4,0.3-0.6,0.4c-0.2,0.1-0.3,0.2-0.5,0.3
			l-4.1,0.1c-0.6-0.2-1.2-0.6-1.7-1.1s-1-1.2-1.4-1.9c-0.4-0.7-0.7-1.4-1-2.2c-0.1-0.4-0.3-0.8-0.4-1.2c-0.1-0.4-0.2-0.8-0.2-1.1
			c-0.1-0.8-0.1-1.6-0.1-2.5l-0.1-2.5l-0.1-5v-1.3v-1.3l-0.1-2.5l-0.2-5c-0.1-3.4-0.3-6.7-0.5-10.1c-0.1-1.7-0.2-3.4-0.4-5
			c0-0.4-0.1-0.8-0.2-1.3c-0.1-0.5-0.2-0.9-0.3-1.3c-0.3-0.8-0.6-1.6-0.9-2.4c-1.2-3.2-2.5-6.2-3.8-9.3l-2-4.6
			c-0.7-1.5-1.1-3.1-1.3-4.7s-0.1-3.3,0.1-4.9c0-0.4,0.1-0.8,0.1-1.3c0-0.2,0-0.5-0.1-0.7c0-0.2-0.1-0.4-0.2-0.6
			c-0.1-0.4-0.3-0.8-0.5-1.2c-0.2-0.4-0.4-0.7-0.8-1.1c-0.3-0.4-0.5-0.8-0.9-1.2c-0.2-0.2-0.3-0.4-0.5-0.6s-0.3-0.3-0.5-0.5l-1-3
			l0,0l0,0l-2.5-5l-4.7-13.9l-2.3-7c-0.8-2.3-1.6-4.7-2.3-7s-1.1-4.8-1.5-7.2c-0.2-1.2-0.4-2.4-0.6-3.6l-0.1-0.9
			c0-0.3-0.1-0.6-0.2-0.9c-0.1-0.6-0.3-1.2-0.5-1.8c-0.4-1.2-0.9-2.3-1.6-3.4c-0.7-1-1.6-2-2.7-2.6c-0.6-0.3-1.2-0.5-1.8-0.6
			l-0.5-0.1c-0.2,0-0.3,0-0.5,0c-0.3,0-0.7,0.1-1,0.2c-0.6,0.2-1.2,0.6-1.6,1c-0.5,0.4-0.9,0.9-1.3,1.4l-0.1,0.1l-0.1,0.1l-0.2,0.3
			l-0.4,0.5l-0.8,1.1l-1.6,2.1c-1,1.4-2.2,2.7-3.5,3.9c-1.3,1.2-2.6,2.4-4,3.4c-1.4,1.1-2.8,2.1-4.3,3.1l-0.4,0.3l0.3,0.4
			c0.1,0.1,0.2,0.3,0.3,0.6c0.1,0.2,0.2,0.5,0.2,0.7c0.1,0.5,0.3,1,0.4,1.5c0.2,1,0.4,2,0.5,3v0.2l0.1,0.1c0.1,0.1,0.3,0.2,0.4,0.2
			c0.1,0,0.3,0,0.4,0c0.2,0,0.3-0.1,0.5-0.2c0.3-0.2,0.5-0.3,0.7-0.5s0.4-0.4,0.6-0.5c0.1-0.1,0.3-0.3,0.4-0.4l2.2-0.4l1.9,0.2l0,0
			l0,0c0.6,0,1.1,0.3,1.5,0.8c0.5,0.5,0.8,1,1.1,1.6s0.5,1.3,0.5,1.9c0,0.2,0,0.3,0,0.5c0,0.1,0,0.1,0,0.2v0.3
			c0,0.4-0.1,0.7-0.1,1.1c-0.1,1.4-0.2,2.9-0.3,4.3c0,0.7-0.1,1.4-0.1,2.2l0.1,1.1v1.1c0.1,2.9,0.1,5.7,0,8.6s-0.4,5.7-0.8,8.5
			c-0.1,0.7-0.2,1.4-0.4,2.1c-0.1,0.7-0.3,1.3-0.5,2c-0.5,1.3-1.1,2.5-2.1,3.4c-0.9,0.9-2.1,1.6-3.4,1.9c-0.6,0.1-1.3-0.2-1.9-0.2
			c-0.3,0-0.7,0-1-0.1c-0.3,0-0.6-0.1-0.9-0.3c-1.1-0.5-1.9-1.6-2.3-2.8c-0.4-1.3-0.6-2.7-0.6-4c0-0.3,0.5-12.1,0.5-12.4
			c-0.4,0-0.5-0.7-0.9-0.7c0,0.4-0.9,12.8-0.9,13.1c0,1.5,0.2,3,0.7,4.5c0.3,0.7,0.6,1.4,1.1,2.1c0.5,0.6,1.2,1.2,1.9,1.5
			c0.4,0.2,0.8,0.3,1.2,0.3c0.4,0.1,0.8,0.1,1.2,0.1c0.8,0,1.5,0.3,2.3,0.1c1.5-0.3,2.9-1.1,4.1-2.2c1.1-1.1,1.9-2.5,2.4-3.9
			c0.2-0.7,0.4-1.4,0.6-2.2c0.1-0.7,0.3-1.4,0.4-2.2c0.4-2.9,0.7-5.8,0.8-8.7c0.1-2.9,0.1-5.8-0.1-8.7l-0.1-1.1v-0.5
			c0-0.1,0-0.3,0-0.3l0,0l0,0l0,0v-0.1c0-0.7,0-1.4,0-2.1c0-1.4,0.1-2.9,0.2-4.3c0-0.4,0.1-0.7,0.1-1.1v-0.3c0-0.1,0-0.2,0-0.3
			c0-0.2,0-0.4,0-0.6c-0.1-0.8-0.3-1.5-0.6-2.2s-0.8-1.4-1.3-1.9c-0.3-0.3-0.6-0.5-1-0.7s-0.8-0.3-1.3-0.3l0,0l-2-0.1h-0.1H146
			l-2.4,0.5h-0.2l-0.1,0.1c-0.3,0.4-0.6,0.7-1,1c-0.2,0.2-0.3,0.3-0.5,0.4c0,0,0,0-0.1,0c-0.1-0.9-0.3-1.8-0.5-2.7
			c-0.1-0.5-0.2-1-0.4-1.5c-0.1-0.3-0.2-0.5-0.3-0.8c-0.1-0.1-0.1-0.3-0.2-0.4c1.4-0.9,2.7-1.9,3.9-2.9c1.4-1.1,2.7-2.3,4-3.5
			s2.5-2.6,3.5-4l1.6-2.1l0.8-1.1l0.4-0.5l0.2-0.3l0.1-0.1V304l0,0l0,0l0,0c0.7-0.9,1.6-1.8,2.6-2.2c0.3-0.1,0.5-0.2,0.8-0.2
			c0.1,0,0.3,0,0.4,0l0.4,0.1c0.6,0.1,1.1,0.3,1.7,0.6c1,0.5,1.9,1.4,2.5,2.4c0.7,1,1.2,2.1,1.5,3.3c0.2,0.6,0.3,1.2,0.5,1.8
			c0.1,0.3,0.1,0.6,0.2,0.9l0.1,0.9c0.2,1.2,0.4,2.4,0.6,3.6c0.4,2.4,0.9,4.8,1.6,7.2c0.7,2.4,1.5,4.7,2.2,7l2.3,7l4.6,14l0,0l0,0
			l2.4,5.1l1,3.1v0.1l0.1,0.1c0.2,0.1,0.3,0.3,0.5,0.5s0.3,0.4,0.5,0.6c0.3,0.4,0.6,0.8,0.8,1.2l0,0l0,0c0.2,0.2,0.5,0.6,0.7,0.9
			s0.3,0.7,0.5,1.1c0.1,0.2,0.1,0.4,0.1,0.6s0.1,0.4,0.1,0.6c0,0.4,0,0.8-0.1,1.2c-0.2,1.7-0.3,3.4-0.1,5.1s0.7,3.4,1.3,4.9l1.9,4.7
			c1.3,3.1,2.6,6.2,3.7,9.4c0.3,0.8,0.6,1.6,0.8,2.4c0.1,0.4,0.2,0.8,0.3,1.2c0.1,0.4,0.1,0.8,0.1,1.2c0.1,1.7,0.2,3.3,0.3,5
			c0.2,3.4,0.3,6.7,0.4,10.1l0.2,5l0.1,2.5v1.2v1.3v5v2.5c0,0.8,0,1.7,0.1,2.6c0,0.5,0.2,0.9,0.3,1.4c0.1,0.4,0.2,0.8,0.4,1.3
			c0.3,0.8,0.6,1.6,1.1,2.4c0.4,0.8,0.9,1.5,1.6,2.2c0.6,0.7,1.5,1.2,2.4,1.5h0.1h0.1l4.4-0.1h0.1l0.1-0.1c0.3-0.1,0.5-0.3,0.7-0.4
			s0.5-0.3,0.7-0.4c0.4-0.3,0.9-0.7,1.2-1c0.8-0.8,1.4-1.6,2-2.6c0.5-0.9,0.9-2,1.1-3c0.1-0.5,0.2-1.1,0.2-1.6
			C210.3,427.7,210.3,427.2,210.3,426.7z"/>
	</g>
	<path class="st21" d="M137.1,356.4c-0.1-2.3-0.1-4.6-0.1-6.9c0-1.1,0-2.3,0-3.4s0.1-2.3,0.1-3.4v-0.1c0,0,0-0.1,0-0.2
		s0-0.2-0.1-0.3c-0.1-0.2-0.2-0.4-0.3-0.5c-0.2-0.4-0.6-0.7-0.9-1c-0.8-0.6-1.7-1-2.7-1.3l-0.7-0.2l-0.8-0.2c-0.5-0.1-1-0.2-1.5-0.3
		c-1-0.2-2.1-0.4-3.2-0.7c-1.1-0.3-2.1-0.6-3.1-1s-2-0.9-3-1.5c-0.9-0.6-1.8-1.3-2.6-2c-0.8-0.8-1.5-1.6-2.3-2.3
		c1,0.5,1.8,1.2,2.7,1.9c0.9,0.6,1.8,1.2,2.7,1.6c0.9,0.5,1.9,0.8,2.9,1.1c0.5,0.1,1,0.3,1.5,0.4s1,0.3,1.5,0.4
		c1,0.2,2.1,0.4,3.1,0.6c0.5,0.1,1.1,0.2,1.6,0.3l0.8,0.2l0.8,0.3c1.1,0.4,2.1,0.9,3.1,1.6c0.5,0.4,0.9,0.8,1.3,1.4
		c0.2,0.3,0.3,0.6,0.4,0.9c0.1,0.2,0.1,0.3,0.1,0.5s0,0.3,0,0.6v-0.1c-0.1,1.1-0.2,2.3-0.3,3.4s-0.2,2.3-0.3,3.4
		C137.8,351.9,137.5,354.1,137.1,356.4z"/>
	<path class="st21" d="M145,330.6c0.4,0.2,0.7,0.5,1.1,0.9c0.3,0.3,0.6,0.7,0.8,1.2c0.1,0.2,0.2,0.5,0.2,0.8v0.2c0,0.1,0,0.1,0,0.2
		s-0.1,0.3-0.2,0.4c-0.1,0.1-0.2,0.2-0.3,0.3c-0.1,0.1-0.2,0.2-0.3,0.2c-0.2,0.1-0.5,0.2-0.7,0.2l-0.1-0.1c0.2-0.5,0.4-0.8,0.4-1.1
		c0-0.1,0-0.2,0.1-0.2c0-0.1,0.1-0.1,0.1-0.2c0.1-0.2,0.1-0.3,0-0.5c0-0.4-0.2-0.8-0.4-1.1C145.5,331.4,145.2,331.1,145,330.6
		L145,330.6z"/>
	<path class="st21" d="M124,335.3c0,0,2.2,0.7,3.4,0.2c1.1-0.5,0.5-0.4,0.5-0.4s-2.9-0.1-3.1,0C124.7,335,124,335.3,124,335.3z"/>
	<path class="st21" d="M158,176.9c0,0,0.8,1.1,1.1,1.5c0.2,0.3,0.5,0.7,0.5,0.7l0,0l-0.3,0.2l-1.4-1.5L158,176.9z"/>
	<path class="st21" d="M172.6,165.5c-0.1,0-0.1-0.1-0.1-0.1c0-0.1,0-0.1,0-0.1c0-0.1,0.1-0.1,0.1-0.2c0.1-0.1,0.2-0.2,0.3-0.4
		c0.2-0.2,0.4-0.5,0.7-0.7s0.6-0.3,0.9-0.4c0.3-0.1,0.7,0,1,0c0.7,0.2,1.2,0.5,1.7,0.9c0.5,0.3,1,0.7,1.5,1.1l0.4,0.4l-0.6,0.3
		c-0.5,0.2-1,0.3-1.6,0.4c-0.5,0.1-1.1,0.1-1.6,0s-1-0.2-1.5-0.5C173.5,166,173.1,165.7,172.6,165.5z M172.6,165.4
		c0.5,0.2,1,0.2,1.5,0.1c0.5,0,1-0.1,1.5,0h1.4c0.5,0,1,0,1.4-0.1l-0.2,0.6c-0.3-0.5-0.6-1-1.1-1.3s-1.1-0.4-1.6-0.3
		c-0.6,0-1,0.1-1.6,0.2c-0.3,0.1-0.6,0.1-0.8,0.2c-0.1,0.1-0.3,0.1-0.4,0.2c-0.1,0-0.1,0.1-0.1,0.2
		C172.6,165.4,172.6,165.4,172.6,165.4z"/>
	<path class="st21" d="M167.7,165c0,0,0,0,0-0.1s-0.1-0.1-0.1-0.2c-0.1-0.1-0.2-0.2-0.3-0.3c-0.2-0.2-0.5-0.3-0.8-0.4
		c-0.5-0.2-1-0.4-1.5-0.5c-0.5-0.2-1.1-0.2-1.7,0c-0.5,0.2-1,0.7-1.3,1.1l-0.1-0.6c0.4,0.1,0.9,0.2,1.4,0.3l1.4,0.2
		c0.5,0.1,1,0.2,1.5,0.3C166.7,165,167.2,165.1,167.7,165z M167.7,165.1c-0.5,0.1-1,0.2-1.5,0.4s-1.1,0.2-1.6,0.2s-1.1-0.1-1.6-0.3
		s-1-0.3-1.5-0.7l-0.6-0.4l0.5-0.3c0.5-0.3,1.1-0.6,1.7-0.8c0.6-0.2,1.2-0.5,1.8-0.5c0.3,0,0.7,0,1,0.1s0.6,0.3,0.8,0.6
		c0.2,0.2,0.4,0.5,0.6,0.8c0.1,0.1,0.2,0.3,0.2,0.4c0,0.1,0.1,0.1,0.1,0.2v0.1C167.8,165,167.8,165.1,167.7,165.1z"/>
	<g>
		<g>
			<path class="st23" d="M174.7,319.4c-0.4-1.4-1.8-6.4-1.5-8.1l-3.7-2.9l-2.4-6l2.1-3.9c0,0,3.1-2.8,4.1-3.5
				c0.9-0.6,0.2-3.7,2.7-5.8c0,0-0.8-3.4-1-5c0,0-3.8-0.1-4.8-2.8c-0.9-2.6-3.7-13-3.7-13s-3.8,1.4-5.5,0.5l-2.2-1.1l-6.4,4.1
				c0,0-2.4-0.4-2.8-0.6s-2.8,0.3-2.8-4c0,0-8.2,1.2-10.1,0.1c0,0-7.9,4.9-9.8,4.4c0,0-3.3,10.7-4.1,11.8c-0.8,1.1,0,4.7,0,5.7
				c0,0,1.4,0.1,2.4,1.4c0,0,2.4-2,4-1.7c0,0-0.9-0.5-3.2,0c0,0-2.1-0.1-2-2.6s0.5-4.5,0.6-5.3s3.4-7.8,6.1-8.9
				c2.8-1.1,4.1-2.1,4.1-2.1l9.6-1.2c0,0,4.5,4.2,5,4.9l3.7-0.2l5.4-3.6c0,0,5.8-0.4,7.3,1.3c1.5,1.7,3.5,9.1,3.5,9.1s2,3.7,3.7,4.8
				c1.7,1.1,1.4,6.7-2.3,9.2c0,0-2.5,1.1-3.6,0.3c0,0-1.5,4.7-2.8,6.1c0,0,1.4,4.8,0.7,6.2c0,0,5.4,1.7,6.4,5.2c0.9,3.6,2.4,5,1,7.1
				c-1.4,2.2-4.2,5-4.2,5s0.9,1.7,1.3,3.7c0,0,2.6,1.2,3.1,3.9l0.5,6.3l0.6,0.8c0,0,0.1-7.2,0-8.6c-0.1-2.2-2.9-3.4-2.9-3.4
				s-1.1-1.7-0.5-2.5C170.6,324.1,174.7,319.4,174.7,319.4z"/>
		</g>
	</g>
	<g>
		<g>
			<path class="st23" d="M159.5,341.6c0.8,1,3.6,4.4,4,5.9l4,1l4,3.9l-0.3,3.8c0,0-1.5,3.3-2,4.2c-0.5,0.8,1.1,3-0.2,5.5
				c0,0,1.8,2.4,2.5,3.6c0,0,3.1-1.2,4.8,0.5c1.7,1.8,7.5,9,7.5,9s2.5-2.5,4.2-2.3l2.2,0.1l3.7-5.5c0,0,2.1-0.5,2.4-0.5
				c0.4,0,2.1-1.2,3.6,2.2c0,0,6.1-3.8,8.1-3.6c0,0,4.6-6.6,6.3-7c0,0-1.1-9.7-0.8-10.8c0.2-1.1-1.7-3.7-2-4.5c0,0-1.2,0.4-2.4-0.3
				c0,0-1.2,2.4-2.6,2.8c0,0,0.9,0.1,2.6-1.1c0,0,1.7-0.6,2.5,1.4s1.2,3.7,1.3,4.4s0,7.4-1.8,9.2c-1.8,1.8-2.5,3.1-2.5,3.1l-7.3,4.3
				c0,0-5.1-1.7-5.8-2.1l-2.9,1.4l-3,4.8c0,0-4.5,2.3-6.3,1.5s-6-6-6-6s-2.9-2.2-4.6-2.5c-1.8-0.2-3.4-4.8-1.4-8.1
				c0,0,1.6-1.8,2.7-1.5c0,0-0.4-4.2,0.2-5.8c0,0-2.8-3.3-2.7-4.7c0,0-4.9,0.6-6.9-1.9s-3.7-3.1-3.3-5.3c0.4-2.2,1.6-5.4,1.6-5.4
				s-1.3-1-2.4-2.5c0,0-2.5,0-3.8-2l-2.5-6.4l-1.6-0.9c0,0,3.1,7.8,3.7,8.9c0.9,1.7,3.5,1.7,3.5,1.7s1.4,1,1.3,1.8
				S159.5,341.6,159.5,341.6z"/>
		</g>
	</g>
	<g>
		<g>
			<path class="st23" d="M105.5,322.3c-0.2-0.2-0.5-0.4-0.7-0.6c0.1-0.4,0.2-0.7,0.4-1c1.2-1.7,6.5-7.5,6.5-7.5s-2.6-2.3-2.8-3.9
				l-0.3-2.1l-5.4-3.3c0,0-0.8-1.9-0.9-2.3s-0.3-3,1.2-4.2l-1.3-2.3c0.1,2.6-0.5,6.2-0.9,8.3l1.1,1.7l4.6,2.7c0,0,2.8,4.2,2.4,5.9
				c-0.4,1.7-4.1,6-4.1,6s-0.4,0.8-0.7,1.8c-1.7-1.6-3.6-3.8-4.6-5.2l-2.1-0.3l-5,1.8c0,0-5-0.6-6-2s-1.9-7-1.9-7s-1.3-2.9-2.6-3.9
				c-1.3-1-0.3-4.9,3.1-6.2c0,0,2.3-0.4,3.1,0.3c0,0,1.9-3.1,3.2-3.9c0,0-0.6-3.6,0.2-4.5c0,0-5.7-3.4-6-6.1l0.3,3l2.9,2.8l0.3,3.5
				l-2.3,2.5c0,0-3,1.5-3.9,1.9s-0.7,2.6-3,3.7c0,0,0.3,2.5,0.2,3.7c0,0,3.3,0.6,3.7,2.7c0.5,2,1.5,9.8,1.5,9.8s3.4-0.5,4.8,0.4
				l1.8,1.1l6-2c0,0,2,0.7,2.3,0.8c0.3,0.2,2.5,1.7,2.4,3.6l1.4,0.3c-0.2,0.7-0.4,1.5-0.3,2.1c0.1,1.7-3.5,3.5-6.7,1.7
				c0,0-1.8-1.5-1.8-2.5c0,0-3.6,0.6-5,0.1c0,0-2.4,2.8-3.5,2.8c0,0,1.1,6.5-0.7,8.6l2.1-2.2l0.3-4.1l2.4-2.5l3.3,0.1
				c0,0,3.1,1.3,3.9,1.8s2.4-1.2,4.8-0.1c0,0,1.8-1.9,2.7-2.5c0,0-0.9-1.6-0.9-3.1L105.5,322.3z"/>
		</g>
	</g>
	<g>
		<g>
			<path class="st23" d="M244.8,287.9l-2.2,1.7l-3,6.3c0,0-4.9,3.8-7.2,3.8l-2.4-1.5c0,0-1-2.5-1.1-3s-0.4-4,1.5-5.5l-1.8-3.1
				c0.1,3.3-0.7,8-1.2,10.7c-1.9-1.2-3.5-2.4-3.5-2.4s-3.9-1.6-6.1-1.3c-2.2,0.3-4.9-4.3-2.9-8.6c0,0,1.7-2.5,3.1-2.6
				c0,0-1.1-4.6-0.7-6.6c0,0-3.9-2.8-4-4.3c0,0-8.5,2.1-11.3-0.1l3.1,2.5l5.4-0.1l3.5,3l0.2,4.4c0,0-1.4,4.3-1.9,5.3
				c-0.5,1.1,1.8,3,0.6,6.3c0,0,2.6,2.1,3.6,3.2c0,0,3.6-2.4,5.9-1c1.1,0.7,3.7,2.6,6.1,4.3l0.3,0.5l1.4,0.8
				c1.6,1.2,2.7,2.1,2.7,2.1s0.1-0.1,0.3-0.3l1.7,1c0,0,3.7,5.5,3.1,7.8c-0.5,2.3-5.4,7.8-5.4,7.8s-1.9,3.8-1.7,6
				c0.1,2.2-4.6,4.6-8.8,2.2c0,0-2.4-1.9-2.3-3.3c0,0-4.7,0.7-6.6,0.1c0,0-3.1,3.6-4.6,3.7c0,0,1.4,8.6-1,11.2l2.7-2.9l0.4-5.3
				l3.2-3.3l4.4,0.2c0,0,4.1,1.7,5.2,2.3s3.2-1.6,6.3-0.1c0,0,2.3-2.4,3.5-3.3c0,0-2.1-3.8-0.5-6s8.5-9.9,8.5-9.9s-3.4-3-3.6-5.2
				l-0.4-2.7l-2.6-1.6c1-1,2.3-2.1,3.4-2.3l2.7-0.6l3.8-7.4c0,0,2.5-1.2,2.9-1.4c0.5-0.1,3.9-0.7,5.6,1.1l2.9-2
				C252.4,288.7,247.5,288.3,244.8,287.9z"/>
		</g>
	</g>
</g>
</svg>
