<?xml version="1.0" encoding="utf-8"?>
<!-- Generator: Adobe Illustrator 23.1.1, SVG Export Plug-In . SVG Version: 6.00 Build 0)  -->
<svg version="1.1" id="Capa_1" xmlns="http://www.w3.org/2000/svg" xmlns:xlink="http://www.w3.org/1999/xlink" x="0px" y="0px"
	 viewBox="0 0 350 500" style="enable-background:new 0 0 350 500;" xml:space="preserve">
<style type="text/css">
	.st0{fill:#15FFC7;}
	.st1{fill:url(#SVGID_1_);}
	.st2{fill:#FFFFFF;}
	.st3{fill:url(#SVGID_2_);}
	.st4{fill:#10DDC0;}
	.st5{fill:#0BCEB7;}
	.st6{fill:#0FD8BB;}
	.st7{fill:#17FFD2;}
	.st8{fill:#0ECCAC;}
	.st9{fill:#0DC9AD;}
	.st10{opacity:0.28;fill:#FFFFFF;}
	.st11{fill:#1AE5C3;}
	.st12{fill:#1BEAC7;}
	.st13{fill:#17C1B9;}
	.st14{fill:#20EDC6;}
	.st15{fill:#25F2CA;}
	.st16{fill:#13E5C2;}
	.st17{opacity:0.38;fill:#FFFFFF;}
	.st18{fill:#0EC6C1;}
	.st19{fill:#10BCC4;}
	.st20{fill:#11B7B7;}
	.st21{fill:#11AAA6;}
	.st22{opacity:0.67;fill:#11AAA6;}
	.st23{opacity:0.66;fill:#0EC6C1;}
	.st24{fill:#0AA58E;}
</style>
<g>
	<g>
		<path class="st0" d="M78.6,266.5c0,0-3.5-2.1-4.4-2.4s-0.5-0.7-0.6-1.1c-0.1-0.3,2.1-6.4,2.2-7.2s0.9-0.8,1.5-1.1
			c0.6-0.4,1.1-2.2,1.1-2.2s3.9,0.1,4.9-1.2c0,0,16.3,2.7,23.9,0.1c7.6-2.7,12.1-4.6,15.3-4.8c0,0,16.4-41.7,17.4-42.9
			s2.7-4.8,7.9-5.2c0,0,0.2-2.3,0.5-3.4c0.3-1.1,0.5-3.2-0.6-4.4c-1-1.2-1.5-0.3-2.8-1.2s-0.4-1.2-1.8-1.7c-1.3-0.5-1,0.8-2.4,0.2
			c-1.4-0.6-2.2-2.6-1.1-5.4c1.1-2.8,2.1-2.2,4-4.9c1.9-2.7,1.8-7.2,1.5-8c0,0-4.9-3.3-4.5-6.2c0.4-2.9,4.4-5.4,6.7-8.5
			c0,0,1.3-3.3,2.6-4.5s1.3-3.3,2-3.7c0.8-0.3,4.4-0.9,5.6-2.4l1.5-3.2l2.3-0.9c0,0,6-4.5,11.3,1.1c0,0,4.9,1.6,7.7,0.2
			c0,0,8.4,5.9,10.6,6.7c2.1,0.8,1.2,2.6,1.2,2.6s6.2,4.4,6.1,9.6c-0.1,5.2,0.9,11.3,1.6,14.9c0.7,3.6,1.2,10.4,8.6,13.4
			c7.4,2.9,5.8,15.4,5,17.6c-0.8,2.2-3.4,5.8-6.5,6l6.1,29l7.8-1.2c0,0,10.3-4.1,14.7-11.1l-3.5-5.7c0,0,0.4-4.3,0-6.3
			s1.9-2.9,1.9-2.9l0.5-1.5c0,0,4.3-3.9,5.6-4.3c1.2-0.3,1.8,0.7,2.2,1.6c0,0,0.4,0.3,1.2,0.5s1.6,1.7,1.6,1.7s0,1.2,1.1,1.7
			s1.4,1.1,1.8,2.1c0.4,1,0.2,1.2,1.1,1.7c0.9,0.5,0.9,1.6,0.6,2.3c-0.3,0.7-2.6,9.6-2.6,9.6s-0.8,2-2.4,3c0,0-9.7,15.4-20.8,23.4
			c0,0-6.4,4.1-12.4,4.7c0,0-2.8,0.6-3.9,1.3c-1.1,0.7-3-1.3-3-1.3s-2.6-8.3-4.2-11c-1.6-2.7-9.8-20.5-10.5-23.9
			c0,0-6,14.8-7.7,18.1c-1.7,3.3,0.3,7.9,2.7,11.1c2.5,3.2,5.3,5.5,5.3,5.5s12.2,6.9,14.9,15.8s0.8,21.6-4.5,28.1
			c0,0-3.5,3.6-9.6,4.8l1.8,8.6c0,0,2.2,1.1,2.7,3.7c0.5,2.6,2.1,6,3.7,7.1c1.6,1.1,7.3,3,8.9,5.8s2.9,8.3,2.9,10.8
			c0,2.5-1.9,11.2-1.9,11.2s3.9,5.2,3.8,10.6c-0.1,5.3,0.3,12.1,1.7,15.3c1.4,3.2,3.3,6.5,5.7,7.8c2.3,1.3,2.5,3.2,2.5,3.2
			s2.5,1.1,4,2.7s2.9,4.1,3,6.1s-2,5.7-0.9,11.2c1.2,5.5,2.6,10.7,2.7,11.7s-1.1,5.6-3.8,9.8c-2.7,4.2-5.8,6.4-5.8,6.4l-4.5,0
			c0,0-4.8-4.2-4.9-7.4c-0.1-3.2,0.5-6.2,0.5-6.2s-0.6-1.3-0.6-2.4c0.1-1.1-0.6-4.6-0.7-5c-0.1-0.4-3.4-17.1-3.4-17.1
			s-1.1-0.9-0.9-1.5c0.2-0.6-0.2-2.2-0.2-2.5c0-0.3-5.5-13.6-7.7-16.8s-12.5-16.2-14.3-23.6c0,0-5.3-6.2-6.6-9l-14.2-18.6
			c0,0-8.3,0.7-11.3,0.4s-11.2-5.3-13.2-5.9c-2.1-0.6-6.4-1.3-7.7-1.4s-4.2-3-5.1-4.3s-1.1-8.8-1.5-12.8s4-8.1,4-8.1
			s10-10.1,19.7-16.9c0,0-2.1-7.9-2.4-12c-0.3-4.1-2-15.2-2.7-17.6s-4.4-8-4.4-8s-9.7,14.3-10.4,15s-1.5,2.6-1.9,3.4
			c-0.4,0.8-2.6,0.6-3.4,0.6s-28.3,0.8-28.3,0.8s-0.6,0.7-1.1,1.1c-0.5,0.4-2.5,2-2.5,2s-5.9-2.2-6.9-2c-1.1,0.2-1.4,0.5-2.2,0.7
			c-0.8,0.2-1.9-0.5-1.9-0.5L78.6,266.5z"/>
	</g>
	<g>
		<g>
			<path class="st0" d="M78.6,266.5c0,0-3.5-2.1-4.4-2.4s-0.5-0.7-0.6-1.1c-0.1-0.3,2.1-6.4,2.2-7.2s0.9-0.8,1.5-1.1
				c0.6-0.4,1.1-2.2,1.1-2.2s3.9,0.1,4.9-1.2c0,0,16.3,2.7,23.9,0.1c7.6-2.7,12.1-4.6,15.3-4.8c0,0,16.4-41.7,17.4-42.9
				s2.7-4.8,7.9-5.2c0,0,0.2-2.3,0.5-3.4c0.3-1.1,0.5-3.2-0.6-4.4c-1-1.2-1.5-0.3-2.8-1.2s-0.4-1.2-1.8-1.7c-1.3-0.5-1,0.8-2.4,0.2
				c-1.4-0.6-2.2-2.6-1.1-5.4c1.1-2.8,2.1-2.2,4-4.9c1.9-2.7,1.8-7.2,1.5-8c0,0-4.9-3.3-4.5-6.2c0.4-2.9,4.4-5.4,6.7-8.5
				c0,0,1.3-3.3,2.6-4.5s1.3-3.3,2-3.7c0.8-0.3,4.4-0.9,5.6-2.4l1.5-3.2l2.3-0.9c0,0,6-4.5,11.3,1.1c0,0,4.9,1.6,7.7,0.2
				c0,0,8.4,5.9,10.6,6.7c2.1,0.8,1.2,2.6,1.2,2.6s6.2,4.4,6.1,9.6c-0.1,5.2,0.9,11.3,1.6,14.9c0.7,3.6,1.2,10.4,8.6,13.4
				c7.4,2.9,5.8,15.4,5,17.6c-0.8,2.2-3.4,5.8-6.5,6l6.1,29l7.8-1.2c0,0,10.3-4.1,14.7-11.1l-3.5-5.7c0,0,0.4-4.3,0-6.3
				s1.9-2.9,1.9-2.9l0.5-1.5c0,0,4.3-3.9,5.6-4.3c1.2-0.3,1.8,0.7,2.2,1.6c0,0,0.4,0.3,1.2,0.5s1.6,1.7,1.6,1.7s0,1.2,1.1,1.7
				s1.4,1.1,1.8,2.1c0.4,1,0.2,1.2,1.1,1.7c0.9,0.5,0.9,1.6,0.6,2.3c-0.3,0.7-2.6,9.6-2.6,9.6s-0.8,2-2.4,3c0,0-9.7,15.4-20.8,23.4
				c0,0-6.4,4.1-12.4,4.7c0,0-2.8,0.6-3.9,1.3c-1.1,0.7-3-1.3-3-1.3s-2.6-8.3-4.2-11c-1.6-2.7-9.8-20.5-10.5-23.9
				c0,0-6,14.8-7.7,18.1c-1.7,3.3,0.3,7.9,2.7,11.1c2.5,3.2,5.3,5.5,5.3,5.5s12.2,6.9,14.9,15.8s0.8,21.6-4.5,28.1
				c0,0-3.5,3.6-9.6,4.8l1.8,8.6c0,0,2.2,1.1,2.7,3.7c0.5,2.6,2.1,6,3.7,7.1c1.6,1.1,7.3,3,8.9,5.8s2.9,8.3,2.9,10.8
				c0,2.5-1.9,11.2-1.9,11.2s3.9,5.2,3.8,10.6c-0.1,5.3,0.3,12.1,1.7,15.3c1.4,3.2,3.3,6.5,5.7,7.8c2.3,1.3,2.5,3.2,2.5,3.2
				s2.5,1.1,4,2.7s2.9,4.1,3,6.1s-2,5.7-0.9,11.2c1.2,5.5,2.6,10.7,2.7,11.7s-1.1,5.6-3.8,9.8c-2.7,4.2-5.8,6.4-5.8,6.4l-4.5,0
				c0,0-4.8-4.2-4.9-7.4c-0.1-3.2,0.5-6.2,0.5-6.2s-0.6-1.3-0.6-2.4c0.1-1.1-0.6-4.6-0.7-5c-0.1-0.4-3.4-17.1-3.4-17.1
				s-1.1-0.9-0.9-1.5c0.2-0.6-0.2-2.2-0.2-2.5c0-0.3-5.5-13.6-7.7-16.8s-12.5-16.2-14.3-23.6c0,0-5.3-6.2-6.6-9l-14.2-18.6
				c0,0-8.3,0.7-11.3,0.4s-11.2-5.3-13.2-5.9c-2.1-0.6-6.4-1.3-7.7-1.4s-4.2-3-5.1-4.3s-1.1-8.8-1.5-12.8s4-8.1,4-8.1
				s10-10.1,19.7-16.9c0,0-2.1-7.9-2.4-12c-0.3-4.1-2-15.2-2.7-17.6s-4.4-8-4.4-8s-9.7,14.3-10.4,15s-1.5,2.6-1.9,3.4
				c-0.4,0.8-2.6,0.6-3.4,0.6s-28.3,0.8-28.3,0.8s-0.6,0.7-1.1,1.1c-0.5,0.4-2.5,2-2.5,2s-5.9-2.2-6.9-2c-1.1,0.2-1.4,0.5-2.2,0.7
				c-0.8,0.2-1.9-0.5-1.9-0.5L78.6,266.5z"/>
		</g>
	</g>
	<g>
		
			<linearGradient id="SVGID_1_" gradientUnits="userSpaceOnUse" x1="93.0093" y1="234.1598" x2="299.3807" y2="440.5312" gradientTransform="matrix(0.9634 0.268 -0.268 0.9634 91.5127 -86.2996)">
			<stop  offset="0" style="stop-color:#10D5EA"/>
			<stop  offset="2.440166e-02" style="stop-color:#11DAE6"/>
			<stop  offset="0.1349" style="stop-color:#13EBD8"/>
			<stop  offset="0.2718" style="stop-color:#14F6CE"/>
			<stop  offset="0.4647" style="stop-color:#15FDC9"/>
			<stop  offset="1" style="stop-color:#15FFC7"/>
		</linearGradient>
		<path class="st1" d="M78.6,266.5c0,0-3.5-2.1-4.4-2.4s-0.5-0.7-0.6-1.1c-0.1-0.3,2.1-6.4,2.2-7.2s0.9-0.8,1.5-1.1
			c0.6-0.4,1.1-2.2,1.1-2.2s3.9,0.1,4.9-1.2c0,0,16.3,2.7,23.9,0.1c7.6-2.7,12.1-4.6,15.3-4.8c0,0,16.4-41.7,17.4-42.9
			s2.7-4.8,7.9-5.2c0,0,0.2-2.3,0.5-3.4c0.3-1.1,0.5-3.2-0.6-4.4c-1-1.2-1.5-0.3-2.8-1.2s-0.4-1.2-1.8-1.7c-1.3-0.5-1,0.8-2.4,0.2
			c-1.4-0.6-2.2-2.6-1.1-5.4c1.1-2.8,2.1-2.2,4-4.9c1.9-2.7,1.8-7.2,1.5-8c0,0-4.9-3.3-4.5-6.2c0.4-2.9,4.4-5.4,6.7-8.5
			c0,0,1.3-3.3,2.6-4.5s1.3-3.3,2-3.7c0.8-0.3,4.4-0.9,5.6-2.4l1.5-3.2l2.3-0.9c0,0,6-4.5,11.3,1.1c0,0,4.9,1.6,7.7,0.2
			c0,0,8.4,5.9,10.6,6.7c2.1,0.8,1.2,2.6,1.2,2.6s6.2,4.4,6.1,9.6c-0.1,5.2,0.9,11.3,1.6,14.9c0.7,3.6,1.2,10.4,8.6,13.4
			c7.4,2.9,5.8,15.4,5,17.6c-0.8,2.2-3.4,5.8-6.5,6l6.1,29l7.8-1.2c0,0,10.3-4.1,14.7-11.1l-3.5-5.7c0,0,0.4-4.3,0-6.3
			s1.9-2.9,1.9-2.9l0.5-1.5c0,0,4.3-3.9,5.6-4.3c1.2-0.3,1.8,0.7,2.2,1.6c0,0,0.4,0.3,1.2,0.5s1.6,1.7,1.6,1.7s0,1.2,1.1,1.7
			s1.4,1.1,1.8,2.1c0.4,1,0.2,1.2,1.1,1.7c0.9,0.5,0.9,1.6,0.6,2.3c-0.3,0.7-2.6,9.6-2.6,9.6s-0.8,2-2.4,3c0,0-9.7,15.4-20.8,23.4
			c0,0-6.4,4.1-12.4,4.7c0,0-2.8,0.6-3.9,1.3c-1.1,0.7-3-1.3-3-1.3s-2.6-8.3-4.2-11c-1.6-2.7-9.8-20.5-10.5-23.9
			c0,0-6,14.8-7.7,18.1c-1.7,3.3,0.3,7.9,2.7,11.1c2.5,3.2,5.3,5.5,5.3,5.5s12.2,6.9,14.9,15.8s0.8,21.6-4.5,28.1
			c0,0-3.5,3.6-9.6,4.8l1.8,8.6c0,0,2.2,1.1,2.7,3.7c0.5,2.6,2.1,6,3.7,7.1c1.6,1.1,7.3,3,8.9,5.8s2.9,8.3,2.9,10.8
			c0,2.5-1.9,11.2-1.9,11.2s3.9,5.2,3.8,10.6c-0.1,5.3,0.3,12.1,1.7,15.3c1.4,3.2,3.3,6.5,5.7,7.8c2.3,1.3,2.5,3.2,2.5,3.2
			s2.5,1.1,4,2.7s2.9,4.1,3,6.1s-2,5.7-0.9,11.2c1.2,5.5,2.6,10.7,2.7,11.7s-1.1,5.6-3.8,9.8c-2.7,4.2-5.8,6.4-5.8,6.4l-4.5,0
			c0,0-4.8-4.2-4.9-7.4c-0.1-3.2,0.5-6.2,0.5-6.2s-0.6-1.3-0.6-2.4c0.1-1.1-0.6-4.6-0.7-5c-0.1-0.4-3.4-17.1-3.4-17.1
			s-1.1-0.9-0.9-1.5c0.2-0.6-0.2-2.2-0.2-2.5c0-0.3-5.5-13.6-7.7-16.8s-12.5-16.2-14.3-23.6c0,0-5.3-6.2-6.6-9l-14.2-18.6
			c0,0-8.3,0.7-11.3,0.4s-11.2-5.3-13.2-5.9c-2.1-0.6-6.4-1.3-7.7-1.4s-4.2-3-5.1-4.3s-1.1-8.8-1.5-12.8s4-8.1,4-8.1
			s10-10.1,19.7-16.9c0,0-2.1-7.9-2.4-12c-0.3-4.1-2-15.2-2.7-17.6s-4.4-8-4.4-8s-9.7,14.3-10.4,15s-1.5,2.6-1.9,3.4
			c-0.4,0.8-2.6,0.6-3.4,0.6s-28.3,0.8-28.3,0.8s-0.6,0.7-1.1,1.1c-0.5,0.4-2.5,2-2.5,2s-5.9-2.2-6.9-2c-1.1,0.2-1.4,0.5-2.2,0.7
			c-0.8,0.2-1.9-0.5-1.9-0.5L78.6,266.5z"/>
	</g>
	<path class="st2" d="M168.9,171.7c0,0,0.7-2,1.6-2.2c0.9-0.3,3-0.4,3-0.4l1.4,0.7c0,0,0.1,1-0.3,1.3c-0.4,0.3-0.9,1.3-1.4,1.3
		C172.7,172.5,170.1,172.6,168.9,171.7z"/>
	<path class="st2" d="M156,171.1c0,0,0.2,3.2,2.4,2.8c2.2-0.4,2.5-1.6,2.5-1.6S158.7,169.7,156,171.1z"/>
	
		<linearGradient id="SVGID_2_" gradientUnits="userSpaceOnUse" x1="161.5444" y1="272.845" x2="188.8364" y2="320.1161" gradientTransform="matrix(0.9634 0.268 -0.268 0.9634 91.5127 -86.2996)">
		<stop  offset="0" style="stop-color:#10DDC0"/>
		<stop  offset="0.3732" style="stop-color:#11E7C2"/>
		<stop  offset="0.9598" style="stop-color:#15FFC7"/>
	</linearGradient>
	<path class="st3" d="M163.9,235.3c0,0,5.2,8.3,4.7,12.1c-0.4,3.8-0.4,10,3,12.8c2.8,2.2,3.5,8.3,3.5,8.3l1.2,4.7c0,0,3.9-0.1,7,0.7
		c0,0-4.7-7.9-5.4-12.8c-0.7-5,12.3-0.2,12.3-0.2s-11.8-9.6-8.6-16.4l6-13l2-6l-2.1-8.2l-4.1,0.2c0,0-1.8,15.3-12.3,16.6
		L163.9,235.3z"/>
	<path class="st4" d="M141.8,247.5c0,0-1.2-8.4,2.6-10.9c3.8-2.5,6.7-4.8,13-3.1c6.2,1.7,15.8,7.5,21,0c5.2-7.5,5.2-5.9,5.2-5.9
		l1.3,9.9l4.7-12.1l-3-10.2c0,0-2.8,0.4-3.2,2.2c-0.4,1.8-1.2,10.5-7.2,14.8c-6,4.3-12.4,0.9-12.4,0.9s-6.3-2.8-8-2.7
		c-1.7,0.1-3.8,0.1-4.8,0.5c-6.8,2.4-12.4,2.3-13.1,2.2c-0.8-0.1-3.8-0.2-3.8-0.2s1.4,1,2.3,2.9c1.5,3.1,2.9,7.8,3.8,9.4
		L141.8,247.5z"/>
	<path class="st5" d="M181.3,225.2c0.5-0.8,4.7-7.3,6.7-5.9l-1.4-4.1c0,0-3-0.7-3.2,2.2S181.3,225.2,181.3,225.2z"/>
	<path class="st5" d="M183.1,222.3c0,0,3-3.9,6.2,1.6l-1.7-6.7L183.1,222.3z"/>
	<path class="st6" d="M183.5,217.4c0,0,2.6-5.6,5-5.3c2.4,0.2,2.3,7.2,2.6,9c0.4,2.2,3.3,9.1,4.7,12.4c0.7,1.7,8.8,16.4,9.5,20.2
		c0.7,3.8,0.5,6.2,3,6c2.5-0.2,16.3-4.6,26.7-16.3c0,0,6.2-7,7-9.9c0,0-2.3-1.3-3.1-2.4c-0.8-1.1-2.7-0.8-2.7-0.8l-4-6.5
		c0,0,0.1-5.3-0.1-6.8s0.7-2.5,1.4-2.5c0.7,0,1-1.1,1.4-1.8c0.4-0.8,5.1-3.9,5.1-3.9s0.5-0.3,1.6,0.7c1.1,1,2.1,0.6,2.7,1.4
		c0.7,0.9,0.4,2.6,1.2,2.8c0.8,0.2,1.7,0.5,2.1,1.5c0.4,1,0.5,2.2,1.5,2.7s0.7,1.5,0.3,2.8c-0.3,1.2-1.9,7.7-1.9,7.7s-1.1,3.3-2.7,4
		l-2.8,4.4c0,0-11.3,15.7-19.8,20.5c0,0-6.7,2.4-10.1,3.2c-3.4,0.9-5.2,1.7-5.2,1.7l-2.5-1.4c0,0-1.3-5.9-2.6-8.3
		c-1.4-2.4-5.9-11.7-5.9-11.7s-5.4-12-6.6-16.6c-1.2-4.7-2.6-8.8-2.6-8.8S183.7,215.5,183.5,217.4z"/>
	<path class="st6" d="M236.2,230.3c0,0-1,1.6-2.9,3.5c-2.7,2.9-7.7,6.3-14.1,8.3c-8.6,2.7-10.3,8.8-10.3,8.8s-3.9,6.1,5,7.7l-7,3.4
		l-5.1-9.7c0,0-0.3-3.7,3.2-4.9c3.5-1.3,4.9-4,5.5-4.5c0.6-0.5,3.2-1.8,3.2-1.8s6.2,0.2,9.7-2l4.8-2.6l4.2-3.4l3.5-4.5L236.2,230.3z
		"/>
	<path class="st7" d="M236.9,228.6c0,0,1.5-1.6,1.8-2.6c0.3-1-0.2-2.6-0.6-2.9c-0.4-0.3-1.4-2.2-1.4-2.2l-1.3-1.6c0,0-2.4-1-2.9-0.8
		c-0.5,0.2,2.1,3.3,2.2,4.4C234.8,224,236.9,228.6,236.9,228.6z"/>
	<path class="st8" d="M235.8,229.4c0,0,2-1.2,2.1-2.2c0.1-0.7-1.1-1.4-1.7-2c-0.6-0.6-0.9-0.5-1.1-1.9c-0.2-1.4-0.8-4.4-2.6-4.7
		c0,0-0.1,3.4,0.1,4.8C232.8,224.7,234.9,227.7,235.8,229.4z"/>
	<path class="st9" d="M232.5,218.5c-0.2-0.7-0.7-3,0-2.6s4.1,2.2,4.5,2.6c0.4,0.3,0.8,0.5,1.4,0.5c0.7,0,1.4,0.8,0.9,1.2
		c-0.5,0.5-1.6,0.8-2.4,0.2C234.6,218.6,232.5,218.5,232.5,218.5z"/>
	<path class="st7" d="M240.7,226.8c0,0,0.8,3.4,2.1,3.9s2.6,0.2,2.9-0.9s1.2-5.3,1.6-6.1c0.3-0.8,0.1-1.3-0.4-1.4l-1.4,0.7
		c0,0-1.6,5-3.1,4.4c0,0-0.7-0.4-0.8-1.2C241.6,226.3,241.6,226.9,240.7,226.8z"/>
	<path class="st7" d="M245.1,223.2c0,0,0.2-1.6-0.9-2.3s-0.9-0.5-1.2-1.1c-0.3-0.5-3.2-1.5-3.2-2.7c0,0-2.6-1-2.2-2.1
		c0,0-3.5-1.4-2.8-2.3c0.7-0.9,5.1-3.9,5.1-3.9s0.7-0.8,1.6,0.7c0.9,1.5,2.7,1.4,2.7,1.4s-0.1,1.5,0.4,2.6c0.5,1.1,1.2,0.5,2,1.4
		c0.8,1,0.6,0.7,0.8,1.8s0.5,1.1,0.5,1.1s1.7,0.8,1.5,1.6c-0.2,0.8-1.7,2.5-2.6,2.9C245.5,223,245.1,223.2,245.1,223.2z"/>
	<path class="st10" d="M138.8,310.1c-0.2-3,0.2-10.5,17.5-24.1c17.2-13.6,27.1-12.2,27.1-12.2s-40.6,0.4-53.3,31c0,0-1.6,2.5-1.1,4
		C129.4,310.3,138.8,310.1,138.8,310.1z"/>
	<path class="st11" d="M210.5,242.9c0,0-2.5-12.9-3.5-17.7c-1.1-4.8-4.4-20.7-6.4-24.9c-3-6.4-9.7-7.6-9.7-7.6l0,0
		c0,0,3.7-0.5,7,1.7c3.3,2.1,6.2,6.5,6.6,8.4c0.4,1.9,2.8,10.3,2.8,10.3l3.9,20.2l2,8L210.5,242.9z"/>
	<path class="st5" d="M160.3,188.6c0,0,9.4,8.2,12.8,9.6c0,0,1.2,0.7,2.4,0.9c0.9,0.1,2,7.4,7.1,1.5l2.3-2.7c0,0,4.8,11.6,12.7,15.4
		c7.9,3.8,10.8,3.9,10.8,3.9s-12.5-4.8-14.8-9.5c0,0-8.6-6.9-8.8-12.7c0,0-3.7,5.9-7.4,2.4c-3.7-3.5-1.9-9.3-1.9-9.3l-5.6,3.4
		C169.8,191.4,166.8,193.3,160.3,188.6z"/>
	<path class="st12" d="M141.8,247.5c0,0,3.6,3.8,4.9,5.4c1.4,1.6,3.3,14,3.3,14l4.6,12.3l-2.3,0.8c0,0-2.1-6.5-3.1-8
		c-1.1-1.5,1,8.3,1,8.3l-1.6,1.6l-1.2-7.5l-2-15.5C145.3,259.1,143.3,250.2,141.8,247.5z"/>
	<path class="st13" d="M159.3,269c-1,0.3-1.2-3.9-1.2-4.6C158,263.8,160.5,268.6,159.3,269z"/>
	<path class="st5" d="M128.4,232l11.8,13.3l-1.2-3.2c0,0-1.5-5.3-2.2-6.8c0,0-7-4.1-6.1-9.5L128.4,232z"/>
	<path class="st4" d="M178.4,230.2c0,0-12.3,2-22.9-3.8c0,0-5.7-2.5-11,0.4c-4.3,2.3-11.6,4.8-12.4-4.1c0,0-2.1,5.5,0,7.9
		c2,2.4,2.6,5.8,9.3,4.1c6.7-1.7,11.3-3.1,11.3-3.1s5.4-0.7,11.2,1.6C172.9,236.6,178.4,230.2,178.4,230.2z"/>
	<path class="st4" d="M166.5,230.1c0,0,12.5,2,17-12.6c0,0-0.9,10.1-7.2,14.8s-11.1-0.8-11.1-0.8L166.5,230.1z"/>
	<path class="st11" d="M148.2,310.2c0,0,2.5-5.6,10.4-8.3c7.9-2.7,18-2,28.8-3.6c10.3-1.6,18.1-0.8,18.9-14.9c0,0,3,21.4-15.6,25.7
		c0,0-13.6,2.1-19.2,1.4l-5.8-0.3C165.6,310.1,155.7,302.4,148.2,310.2z"/>
	<path class="st14" d="M186.2,274.3c0,0-28.3-0.1-44.9,19.8c0,0-6.4,6.9-7.9,10.1c-1.5,3.2-2.3,5.9,0.1,5.1c2.3-0.8,4.1-3.9,5.1-2.2
		c1,1.8,0.1,13.8,3.9,15.1s8.7,4.2,10.1,5.5c1.4,1.3,20.6-2,30.4,9.9c0,0-10.9-9-25.1-6.4c0,0-9.8,0-14.3-4.6c0,0-8.9-3.4-10.1-2.5
		c0,0-5.2-2.9-6.5-4.5c-1.4-1.6-1.4-12.3-1.4-12.3s-0.6-4.3,2.1-6.6s11.7-11.1,14-12.8s5.1-4.3,6.7-5.9
		C150.2,280.4,169.5,270.9,186.2,274.3z"/>
	<path class="st7" d="M135.5,318.1c-2-2.8-3.1-5.9-3.8-5.8c-0.6,0.1-1.3,5.9-0.4,6.8S136.6,319.6,135.5,318.1z"/>
	<path class="st15" d="M171.1,330.9c0,0,7.6,1.7,11.5,3.7s5.7,5.2,6.5,0.9s-2.5-8.8,0.4-7.9c2.9,0.8,5.4,8.1,8.2,10.8
		c3.9,3.8,5.7,5.2,6.3,8s5.1-5.3,6.6-1.3l-1.5,11.7l-4.6,0.5c0,0-3.7-6-5.6-7.4c-1.8-1.4-16-12.2-16-12.2S175.1,330.7,171.1,330.9z"
		/>
	<path class="st14" d="M175.5,318.8l2.7,1.2c0,0,1.6,1.8,2.6,2.4c1,0.5,2.6,0,2.3,2.5c0,0-0.1,2.1-2.1-0.1c-2-2.2-4.7-4.1-4.7-4.1
		S174.1,318.7,175.5,318.8z"/>
	<path class="st14" d="M148.2,310.2c0,0,5.7-2.7,11.7-1c6.9,1.9,16.5,11.5,16.5,11.5l-0.9-1.9c0,0-8.5-6.3-9.9-8.7
		C165.6,310.1,156.3,302.6,148.2,310.2z"/>
	<path class="st14" d="M178.9,321.9c0,0,3.7-1.9,5.6-2.3c1.9-0.4,8.9-0.7,10.2,1.3c0,0-1.4-3.1-2.2-3.3c-0.8-0.2-8.5-0.8-8.5-0.8
		l-5.8,3.3L178.9,321.9z"/>
	<path class="st16" d="M178.2,310.6l2.1,7.5c0,0-2.6,2.6-6.3-0.3c-3.7-2.8-8.4-7.7-8.4-7.7L178.2,310.6z"/>
	<path class="st14" d="M223.7,431.4c-0.5-1.3,0.8-5.1,0.1-6.8s-7.8-15.5-7.9-18.5c-0.1-3,2.2-4.8-0.5-7c-2.7-2.2-4.7-3.4-6.7-11.4
		c-2-8-11.7-23.7-13.8-28.1c-0.7-1.5-1.3-3-1.7-4.3c-0.2-0.6-1-0.7-1.3-0.2c-1.1,1.4-2.2,3.3-2.4,2.2c-0.3-1.6-0.9-4-0.8-6.3
		c0-0.6,0.7-2.4,0.8-2.7c0.3-0.6,0.3-1.4-0.1-2l-3.4-6.2c-12.8-9.8-21.4-8.9-21.4-8.9l13,17.7l6.7,9.3l3.5,7.8c0,0,8,13,11.6,16.4
		c3.5,3.4,7.8,15.9,7.8,15.9l0.2,3.6l2.2,4.8l2.6,14.4l0.4,6.1c0,0,0.8,4.7,0.7,7.1c-0.1,2.4,2.2,5.1,2.2,5.1l4.2,0
		c0,0,0.3,0.1,1.8-1C223,437.1,224.2,432.7,223.7,431.4z"/>
	<path class="st16" d="M173.1,313.1c0.9,0,14.6-1.9,17.9-2.8l-0.5-1.3l-17.6,1.4L173.1,313.1z"/>
	<path class="st10" d="M144.8,202.5c1.7-2.2,3.6-3.1,2.6-3.6c-1-0.5-4.4,0.9-5.1,2.2s-2.3,3-1.3,3.5
		C142.1,205.1,143.9,203.7,144.8,202.5z"/>
	<path class="st10" d="M199.2,201.4c-0.4,1.3-2,1.2-2.6-0.1c-0.4-1-2.4-2.7-3.8-4.7c-0.8-1.1,1-1.3,2.4-0.9
		C196.7,196.1,199.5,200.1,199.2,201.4z"/>
	<path class="st17" d="M202.2,360.3c1.2,4.2,1.8,7.4,1.1,7.7s-2.1-2.5-3.9-6.5c-1.8-4-3.4-5.9-1.8-7.8
		C198.9,352.1,200.8,355.6,202.2,360.3z"/>
	<path class="st10" d="M184.6,291.4c-3.4,0.4-6,0.3-6.2-0.3c-0.2-0.7,2.3-1.3,5.6-2.1s5.1-1.8,6.4-0.3
		C191.4,290,188.4,291,184.6,291.4z"/>
	<path class="st5" d="M136.7,239.7c0,0-5.8,13.2-8.8,18.5c0,0-2,3.1-8.9,2.9L96.4,262c0,0-0.2,1.7-0.6,2.3l30.7-0.9
		c0,0,0.9-1.5,1.7-2.9c0.8-1.3,2.6-2.9,2.6-2.9l9-13.3L136.7,239.7z"/>
	<path class="st10" d="M150.8,181.5c0,0,1.4,6.7,10.7,11.9l0.8,1.9c0,0-9.4-1.6-12.3-12.2L150.8,181.5z"/>
	<path class="st18" d="M162.3,195.3c0,0-16.1-5.8-11.5-13.8c0,0,2.7-5.5,3-7.5c0,0,1.6,4.9,2.3,6.9c0.6,2,4.2,7.7,4.2,7.7
		L162.3,195.3z"/>
	<path class="st19" d="M153.7,163.8c0,0,0.2-3.2,2.1-6l15.7-1.7c0,0,2.1,2.4,2.5,5.2L153.7,163.8z"/>
	<path class="st18" d="M157.5,157.4c0,0-2.7,6.4-1.5,13.8c0.1,0.8-0.2,8.6-0.2,8.6l-1.7-6.7l0-11.2l1.8-4L157.5,157.4z"/>
	<path class="st13" d="M155.8,157.8c0,0,1.7-1.9,2.4-1.6c0.7,0.3,1.2,1.2,1.2,1.2L155.8,157.8z"/>
	<path class="st13" d="M169.1,156.2l1.1-1.6c0,0,1.2,0.9,1.3,1.5L169.1,156.2z"/>
	<path class="st20" d="M154.1,173l-1.8,4.8c0,0,2.6,3.1,3.7,3.9L154.1,173z"/>
	<path class="st18" d="M175.4,188.1c0,0,0.4-5.4,0.6-8.2c0.3-3.9-1-10-1-10l-2.4-8.4l1.4-0.2c0,0,3.3,9.8,3.4,11.5
		c0,0,0.9-4.9,0.3-9c0,0,1.3,2.1,1.4,3.9c0.1,1.8,0.1,6.3,0.1,7c-0.1,0.7-0.7,5.3-1.2,6.4C177.4,182,175.4,188.1,175.4,188.1z"/>
	<path class="st21" d="M172.6,161.4l-1.9-5.5l0.9,0.1c0,0,2.1,1.8,2.5,5.2L172.6,161.4z"/>
	<path class="st22" d="M191,192.6l2.3-7.8c0,0,0.8,2.5,4.2,4.9c3.8,2.6,5.7,4.3,11.3,4.5c0,0,3.7,2.1,3.6,9.9c0,0,0.2,5.3-5.1,8
		c0,0-0.7-9.7-8.3-16.9c-0.7-0.6-4.1-2-5-2.2L191,192.6z"/>
	<path class="st23" d="M178.2,194c0,0,0.4-4.6,1.9-6c1.5-1.4,2.9-2.5,4.9-4c2-1.5,3-2.1,3.9-4.5c0.9-2.4,1.3-5.5,1.3-5.5
		s1.6,2.2,1,4.5c-0.6,2.3-0.7,7.4-2.2,9.5s-2.6,3.5-2.6,3.5s-0.8-0.4-3.6,2.4C182.9,194,179.2,195.2,178.2,194z"/>
	<path class="st22" d="M178.2,194c0.3-1,0.3-2.8,4.1-4.2s7.5-3.5,8.1-6.7c0,0,1-5.3-0.2-9c0,0-1.2,8.2-5.2,10c0,0-4,2.3-4.9,4
		C179.2,189.8,178.2,194,178.2,194z"/>
	<path class="st21" d="M153.7,163.8l2.2-0.4l1.4-5.7l-1.5,0.1C155.8,157.8,153.7,160.5,153.7,163.8z"/>
	<path class="st13" d="M159.1,157.7c0,0-2-7.4-0.5-12.8c0,0-1.3,6,2,12.6L159.1,157.7z"/>
	<path class="st13" d="M168.8,156.2c0,0-0.1-1.9,2.6-6.7c0,0-1.8,3.6-1.7,6.1L168.8,156.2z"/>
	<path class="st9" d="M233.5,219.2c-0.1-0.1-0.3-0.5,0.1-0.5c0.4,0,0.9-0.3,0.5-0.6s-1-0.4-1.2-0.3c-0.2,0.1-0.7,0.2-0.4,0.7
		S233.5,219.2,233.5,219.2z"/>
	<path class="st5" d="M88.6,262.8c0,0,1.9,0.7,2.7-1c0,0-1.2,0.8-1.4-0.7c-0.3-1.5-0.9-2.6-1.1-1.7c-0.2,0.9-0.3,1-0.6-0.1
		s-0.6-2.8-0.6-2.8s-0.3,1.7-1.2,2.6c-0.7,0.6-1.8,0.6-1.4,0.9c0.4,0.3,1.4,2.3,1.4,2.3L88.6,262.8z"/>
	<path class="st24" d="M87.5,262.5c0,0-1-2.1-1.2-2.2c-0.2-0.1,1.1-1,1.1-1s0.4,0.6,1,1.6c0.5,1,0.4,1.8,0.4,1.8L87.5,262.5z"/>
	<path class="st5" d="M80.7,265c0,0,1.9,0.7,2,0.3c0.1-0.4-1.1-2.7-1.1-2.7s-0.8-1.2-0.3-2.4c0.2-0.5,2-4.6,2.3-5.2
		s-0.2,1.7-0.7,2.5c-0.4,0.8-1.3,2.8-1.1,3.3c0.2,0.4,0.2,1.1,0.8,1.9s1.6,2.4,1.6,2.4l0,0.4c0,0-1.6,1-3.2-0.1L80.7,265z"/>
	<path class="st5" d="M80.9,255.1c0,0-1.8,4.1-2.3,5.5c-0.1,0.4-0.5,1.2-0.4,1.8c0.1,0.6,1.4,2.6,1.4,2.6s0.4,0.3-1.1,1l0,0.6l2.5-1
		l-1.9-3.3c0,0,0.5-2.4,0.6-2.5C79.8,259.5,80.9,255.1,80.9,255.1z"/>
	<path class="st5" d="M76.7,265.3c0,0-0.6-0.8-1-1.5c-0.4-0.7-0.6-1.2-0.5-1.7c0.1-0.5,2.7-7.2,2.8-7.6s-0.1,1.1-0.1,1.1
		s-1.4,6.3-1.5,6.4c0,0.1-0.5,0.5,0,1.2c0.5,0.6,0.9,1.1,1,1.2s1.2,2,1.2,2L76.7,265.3z"/>
	<path class="st5" d="M84.1,264.8c0,0,0.8-0.3,1.9-0.3c0.9,0.1,4.6,1.4,4.9,1.4c0.3,0,3.8-2.1,3.8-2.1s1-0.6,1.4-1l-0.4,1.3
		l-3.6,3.1c0,0-5.7-2.1-6.4-2.1c-0.7,0-1.5,0.3-1.5,0.3L84.1,264.8z"/>
	<path class="st5" d="M190.4,195.7c0.1-0.3,3.2-2.1,8.7-0.4c0,0-4.4-2.9-8.1-2.6L190.4,195.7z"/>
	<path class="st5" d="M178.2,194c0,0,1.4,1.3,4.7,0c0,0-3.6,3.4-4.6,2.3C177.4,195.3,178.2,194,178.2,194z"/>
	<polygon class="st2" points="161.1,205 158.5,207.4 159.8,207.4 158.5,209.3 161.1,206.9 159.8,206.8 	"/>
	<g>
		<path class="st2" d="M153.7,216.2l4.5,0.2c0.2-0.3,0.4-0.7,0.6-1l-4.9-0.2L153.7,216.2z"/>
		<path class="st2" d="M154,214.7l5.1,0.2c0.2-0.3,0.4-0.7,0.6-1l-5.5-0.2L154,214.7z"/>
		<path class="st2" d="M153.3,217.7l4,0.1c0.2-0.3,0.4-0.7,0.6-1l-4.4-0.2L153.3,217.7z"/>
		<path class="st2" d="M160.9,212c0.5-0.8,0.8-1.3,0.8-1.3l-6.7-0.2l-0.3,1.2L160.9,212z"/>
		<path class="st2" d="M154.3,213.2l5.7,0.2c0.2-0.4,0.4-0.7,0.6-1l-6-0.2L154.3,213.2z"/>
		<path class="st2" d="M153.2,218.1l-0.3,1.4c0.5,0.1,3.3,0.1,3.3,0.1c0.1-0.2,0.4-0.7,0.9-1.4L153.2,218.1z"/>
	</g>
	<path class="st13" d="M189.8,225.7c-0.7-1.8-1.2-3.5-1.8-5.3c-0.6-1.8-1.1-3.6-1.5-5.4l0.6,0.4c-0.8,0.2-1.7,0.4-2.4,0.9
		c-0.3,0.2-0.6,0.5-0.7,0.9c-0.1,0.4-0.2,0.9-0.4,1.4c-0.5,1.9-1,3.7-1.6,5.6c-0.6,1.8-1.4,3.6-2.4,5.3c-0.5,0.8-1.1,1.6-1.8,2.3
		c-0.7,0.7-1.5,1.3-2.4,1.8c-0.9,0.5-1.9,0.8-2.9,0.9c-0.5,0.1-1,0.2-1.5,0.2c-0.5,0-1,0.1-1.5,0.1l-1.5-0.1l-1.5-0.2l-1.5-0.3
		c-0.5-0.1-0.9-0.3-1.4-0.4c-1.9-0.6-3.6-1.4-5.4-2.1c-1.8-0.7-3.6-1.2-5.5-0.9l0-0.1l0.7-0.2l0.4-0.1l0.4,0c0.2,0,0.5-0.1,0.7-0.1
		l0.7,0c0.3,0,0.5,0,0.7,0.1c0.2,0,0.5,0.1,0.7,0.1c0.5,0.1,1,0.2,1.4,0.3c1.9,0.5,3.7,1.2,5.5,1.7l1.4,0.3l1.4,0.3l1.4,0.2l1.4,0.1
		c0.5,0,0.9,0,1.4,0c0.5,0,0.9-0.1,1.4-0.2c0.9-0.1,1.8-0.3,2.6-0.7c1.6-0.7,3.1-2,4.2-3.4c1.2-1.5,2-3.2,2.6-5
		c0.6-1.8,0.9-3.7,1.2-5.6c0.1-0.5,0.1-0.9,0.2-1.5c0.1-0.6,0.5-1.1,0.9-1.5c0.4-0.4,0.9-0.6,1.4-0.8c0.5-0.2,1-0.3,1.5-0.4l0.5-0.1
		l0.1,0.5c0.5,1.8,0.9,3.6,1.3,5.5c0.4,1.8,1.1,4.3,1.1,4.3L189.8,225.7z"/>
	<path class="st13" d="M206.3,212.5c-0.2-1.6-0.4-3.2-0.8-4.8c-0.4-1.6-0.8-3.1-1.4-4.7c-0.6-1.5-1.3-3-2.2-4.3
		c-0.9-1.3-2-2.5-3.4-3.4l0,0l0,0c-0.5-0.4-1.1-0.8-1.7-1.1c-0.6-0.3-1.2-0.6-1.8-0.8c-0.6-0.2-1.3-0.4-2-0.5
		c-0.7-0.1-1.4-0.2-2-0.2c0.7,0,1.4,0,2.1,0.1c0.7,0.1,1.4,0.2,2,0.5c0.7,0.2,1.3,0.5,1.9,0.8c0.6,0.3,1.2,0.7,1.8,1.1l0,0
		c1.5,0.8,2.7,2,3.7,3.3c1,1.3,1.8,2.8,2.5,4.4c0.7,1.5,1.2,3.1,1.6,4.7c0.4,1.6,0.8,3.2,1,4.9L206.3,212.5z"/>
	<path class="st13" d="M203.2,200.5c0.1,0,0.2-0.1,0.3-0.2c0.1-0.1,0.2-0.2,0.3-0.3c0.2-0.2,0.4-0.4,0.5-0.7
		c0.3-0.5,0.6-1.1,0.7-1.7c0.1-0.3,0.2-0.6,0.2-0.9c0.1-0.3,0.1-0.6,0.1-0.9c0-0.3,0.1-0.6,0.1-1l0-1l0.1,1c0,0.3,0,0.6,0,1
		c0,0.3,0,0.6,0,1c0,0.3-0.1,0.6-0.1,1c-0.1,0.6-0.3,1.3-0.6,1.9c-0.1,0.3-0.3,0.6-0.6,0.9c-0.1,0.1-0.2,0.3-0.4,0.4
		c-0.1,0.1-0.3,0.2-0.5,0.4L203.2,200.5z"/>
	<path class="st13" d="M209.2,194.4c-0.2-0.1-0.5,0-0.8-0.1l-0.8-0.1c-0.5-0.1-1-0.1-1.5-0.2c-1-0.2-2-0.4-3-0.8
		c-2-0.7-3.9-1.6-5.5-2.9c-0.8-0.7-1.6-1.4-2.3-2.2c-0.7-0.8-1.3-1.7-1.8-2.6c-1-1.8-1.6-3.9-1.8-5.9c0.6,2,1.3,3.9,2.4,5.6
		c1.1,1.7,2.4,3.2,4,4.4c1.6,1.2,3.3,2.2,5.2,3c0.9,0.4,1.9,0.7,2.9,1c0.5,0.1,1,0.3,1.5,0.4C208.2,194.2,208.7,194.3,209.2,194.4z"
		/>
	<path class="st13" d="M193.3,184.9c-0.9,2.8-1.7,5.7-2.4,8.6c-0.2,0.7-0.3,1.4-0.4,2.2c-0.1,0.7-0.2,1.5-0.2,2.2
		c0.1,0.7,0.4,1.4,0.6,2.1c0.1,0.3,0.3,0.7,0.4,1c0.2,0.3,0.3,0.7,0.5,1c1.4,2.6,3.4,4.9,5.8,6.5c1.2,0.9,2.5,1.6,3.8,2.2
		c0.7,0.3,1.4,0.6,2.1,0.8c0.7,0.2,1.4,0.5,2.1,0.5l-0.1,0.7c-2.4-0.5-4.7-1.3-6.9-2.2c-2.3-0.9-4.4-2-6.5-3.3c-1-0.7-2-1.4-2.9-2.3
		c-0.9-0.8-1.7-1.7-2.4-2.8c-0.7-1-1.3-2.1-1.7-3.3c-0.4-1.2-0.6-2.4-0.7-3.7l0,0l0,0c0.1-0.6,0.3-1,0.5-1.5
		c0.2-0.5,0.4-0.9,0.7-1.3c0.5-0.9,1.1-1.7,1.8-2.4c0.6-0.7,1.1-1.5,1.4-2.4c0.4-0.9,0.7-1.8,0.9-2.7c0.5-1.9,0.8-3.8,0.9-5.7
		c0.1-1.9-0.1-3.9-0.5-5.7l0.7-0.1c-0.2,1.6-0.5,3.1-1,4.7c-0.5,1.5-1.1,3-2.2,4.3c-1.1,1.2-2.5,2.1-3.8,3c-0.7,0.4-1.3,0.9-1.9,1.3
		c-0.6,0.5-1.2,1-1.7,1.6c-0.5,0.6-0.8,1.3-1,2c-0.2,0.8-0.4,1.5-0.6,2.3c-0.2,0.8-0.4,1.5-0.5,2.3c0,0.4,0,0.8,0.1,1.1
		c0.1,0.2,0.2,0.3,0.3,0.4c0.1,0.1,0.3,0.2,0.5,0.1c0.3,0,0.7-0.2,1-0.4c0.3-0.2,0.6-0.4,0.9-0.7c0.6-0.5,1.2-1,1.8-1.5
		c0.3-0.3,0.6-0.5,0.9-0.7c0.3-0.2,0.6-0.5,0.9-0.8c0.3-0.3,0.6-0.5,1-0.7c0.3-0.2,0.7-0.3,1.1-0.4c-0.4,0.1-0.8,0.2-1.1,0.4
		c-0.3,0.2-0.6,0.5-0.9,0.7c-0.3,0.3-0.6,0.5-0.9,0.8c-0.3,0.3-0.6,0.5-0.9,0.8c-0.6,0.5-1.1,1.1-1.8,1.6c-0.3,0.3-0.6,0.5-1,0.7
		c-0.3,0.2-0.7,0.4-1.2,0.4c-0.2,0-0.4-0.1-0.6-0.2c-0.2-0.1-0.3-0.3-0.4-0.5c-0.1-0.4-0.1-0.8-0.1-1.2c0.1-0.8,0.2-1.6,0.4-2.4
		c0.2-0.8,0.4-1.5,0.6-2.3c0-0.2,0.1-0.4,0.2-0.6c0.1-0.2,0.1-0.4,0.2-0.6c0.2-0.4,0.4-0.7,0.7-1c0.5-0.6,1.1-1.2,1.7-1.7
		c0.6-0.5,1.3-0.9,1.9-1.4c1.3-0.9,2.6-1.8,3.6-2.9c0.9-1.2,1.5-2.6,2-4.1c0.4-1.5,0.7-3,0.9-4.5l0.2-1.9l0.5,1.9
		c0.5,1.9,0.6,3.9,0.6,5.9c-0.1,2-0.4,3.9-0.8,5.9c-0.3,1-0.6,1.9-1,2.8c-0.4,0.9-0.9,1.8-1.6,2.6c-0.6,0.7-1.2,1.5-1.7,2.3
		c-0.2,0.4-0.5,0.8-0.7,1.2c-0.2,0.4-0.3,0.9-0.4,1.3l0-0.1c0.1,1.2,0.2,2.3,0.6,3.4c0.4,1.1,0.9,2.1,1.6,3.1c0.7,1,1.4,1.8,2.3,2.6
		c0.9,0.8,1.8,1.5,2.8,2.2c2,1.3,4.1,2.4,6.3,3.3c2.2,0.9,4.5,1.6,6.8,2.2l-0.1,0.7c-0.8-0.1-1.5-0.3-2.3-0.6
		c-0.7-0.3-1.4-0.5-2.1-0.8c-1.4-0.6-2.7-1.4-3.9-2.3c-2.4-1.8-4.5-4.1-5.8-6.8c-0.2-0.3-0.3-0.7-0.5-1c-0.1-0.4-0.3-0.7-0.4-1.1
		c-0.3-0.7-0.5-1.4-0.6-2.2c-0.1-0.8,0.1-1.5,0.2-2.3c0.1-0.7,0.3-1.5,0.5-2.2C191.4,190.6,192.3,187.7,193.3,184.9z"/>
	<path class="st13" d="M178.3,194.2c0.9,0.1,1.7,0.1,2.5,0c0.4-0.1,0.8-0.1,1.2-0.3c0.4-0.1,0.8-0.3,1.2-0.5
		c-0.3,0.3-0.7,0.6-1.1,0.8c-0.4,0.2-0.8,0.3-1.3,0.4c-0.4,0.1-0.9,0.1-1.3,0C179.1,194.6,178.7,194.4,178.3,194.2z"/>
	<path class="st13" d="M175.5,187.9c-1.7,1.2-3.5,2.4-5.2,3.6l0,0l0,0c-0.6,0.2-1.2,0.4-1.8,0.5c-0.6,0.1-1.2,0.2-1.8,0.1
		c-0.6-0.1-1.2-0.3-1.8-0.5c-0.6-0.2-1.1-0.5-1.7-0.7l-0.4-0.2c-0.1,0-0.1-0.1-0.2-0.1l-0.2-0.1c-0.3-0.2-0.5-0.4-0.7-0.5
		c-0.5-0.4-0.9-0.8-1.3-1.2c-0.8-0.9-1.6-1.8-2.3-2.7c-0.4-0.5-0.7-1-1.1-1.5c-0.2-0.2-0.3-0.5-0.5-0.8c-0.1-0.1-0.2-0.3-0.2-0.4
		c-0.1-0.1-0.2-0.3-0.2-0.5c-0.3-1.2-0.6-2.3-0.9-3.5c-0.5-2.3-1-4.6-1.5-6.9l0,0l0,0c0-1.6,0-3.3,0-4.9l0-2.5l0-1.2l0-0.6l0.1-0.6
		c0.3-1.7,1-3.2,1.9-4.6c0.5-0.7,1.1-1.3,1.9-1.7l0.1-0.1c0.1,0,0.1,0,0.2-0.1c0.1,0,0.3,0,0.4,0c0.2,0.1,0.4,0.2,0.6,0.3
		c0.3,0.3,0.6,0.6,0.8,1l-0.1-0.1c1.6-0.2,3.1-0.3,4.7-0.5l4.7-0.6l-0.1,0.1l1.4-1.9l0.1-0.1l0.1,0.1c0.7,0.5,1.3,1.3,1.8,2
		c0.5,0.7,0.9,1.5,1.3,2.3c0.8,1.6,1.4,3.2,1.9,4.9c0.6,1.7,1,3.4,1.4,5.1c0.4,1.7,0.8,3.4,1.1,5.2l-0.8,0c0.2-2,0.2-4,0.2-5.9
		c-0.1-2-0.2-4-0.5-6l0.9-0.1l0.1,0.2l0.1,0.2l0.2,0.5l0.4,1c0.2,0.6,0.5,1.4,0.6,2c0.2,0.7,0.3,1.4,0.4,2.1
		c0.1,0.7,0.2,1.4,0.2,2.1l0,0l0,0c-0.1,1.6-0.1,3.1-0.2,4.7c-0.1,0.8-0.1,1.6-0.2,2.4c-0.1,0.4-0.1,0.8-0.2,1.2
		c-0.1,0.4-0.2,0.8-0.3,1.2c-0.4,1.5-0.9,3-1.5,4.5c-0.6,1.5-1.2,2.9-1.6,4.4c-0.1,0.4-0.2,0.7-0.2,1.1c0,0.4-0.1,0.8-0.1,1.1
		c0,0.8,0.1,1.5,0.2,2.3c0.1,0.8,0.3,1.5,0.6,2.2c0.3,0.7,0.6,1.4,1.1,2c0.5,0.6,1.1,1.1,1.8,1.2c0.7,0.2,1.5,0,2.2-0.2
		c0.7-0.3,1.4-0.7,2-1.2c0.6-0.5,1.2-1.1,1.6-1.7l0.1,0.1c-0.5,0.6-1,1.2-1.6,1.8c-0.6,0.5-1.2,1-2,1.3c-0.7,0.3-1.6,0.5-2.4,0.4
		c-0.8-0.1-1.6-0.7-2.1-1.3c-0.5-0.6-0.9-1.4-1.2-2.1c-0.3-0.8-0.5-1.5-0.6-2.3c-0.2-0.8-0.2-1.6-0.3-2.4c0-0.4,0-0.8,0.1-1.2
		c0-0.4,0.1-0.8,0.2-1.2c0.4-1.6,1-3,1.5-4.5c0.5-1.5,1-3,1.4-4.5c0.1-0.4,0.2-0.8,0.3-1.1c0.1-0.4,0.1-0.7,0.2-1.1
		c0.1-0.8,0.2-1.5,0.2-2.3c0.1-1.6,0.2-3.1,0.2-4.7l0,0c0-0.7-0.1-1.4-0.2-2c-0.1-0.7-0.2-1.4-0.4-2c-0.2-0.7-0.4-1.3-0.6-2l-0.3-1
		l-0.2-0.5l-0.1-0.3c0-0.1,0-0.1-0.1-0.3l0.9-0.1c0.2,2,0.4,4,0.4,6c0,2,0,4-0.2,6.1l-0.3,2.6l-0.4-2.6c-0.3-1.7-0.6-3.4-1-5.1
		c-0.4-1.7-0.8-3.4-1.3-5.1c-0.5-1.7-1.1-3.3-1.8-4.9c-0.4-0.8-0.8-1.6-1.2-2.3c-0.5-0.7-1-1.4-1.7-1.9l0.2,0l-1.4,1.8l0,0.1l-0.1,0
		l-4.7,0.5c-1.6,0.2-3.1,0.4-4.7,0.6l-0.1,0l-0.1-0.1c-0.2-0.3-0.5-0.7-0.7-0.9c-0.1-0.1-0.3-0.2-0.5-0.3c-0.2,0-0.3,0-0.5,0.1
		c-0.7,0.4-1.3,1-1.7,1.6c-0.9,1.3-1.5,2.9-1.7,4.5l-0.1,0.6l0,0.6l0,1.2l0.1,2.5c0,1.6,0.1,3.3,0.1,4.9l0-0.1l1.6,6.9
		c0.3,1.1,0.5,2.3,0.8,3.4c0,0.1,0.1,0.2,0.1,0.3c0.1,0.1,0.1,0.2,0.2,0.4c0.2,0.2,0.3,0.5,0.5,0.7c0.3,0.5,0.7,1,1,1.4
		c0.7,0.9,1.5,1.8,2.3,2.7c0.8,0.8,1.7,1.6,2.7,2.2c1,0.5,2.1,1,3.2,1.2c1.1,0.1,2.3-0.1,3.4-0.4l0,0
		C171.9,190.1,173.6,188.9,175.5,187.9L175.5,187.9z"/>
	
		<rect x="168.8" y="156" transform="matrix(0.9933 -0.1157 0.1157 0.9933 -16.924 20.7419)" class="st13" width="2.8" height="0.3"/>
	
		<rect x="155.7" y="157.5" transform="matrix(0.9924 -0.1227 0.1227 0.9924 -18.1489 20.5183)" class="st13" width="3.7" height="0.3"/>
	
		<rect x="153.7" y="162.2" transform="matrix(0.9924 -0.1234 0.1234 0.9924 -18.7799 21.4782)" class="st13" width="20.6" height="0.4"/>
	<path class="st13" d="M149,281.3c3-1.6,6-2.9,9.1-4.1c3.1-1.2,6.3-2.2,9.5-2.9c1.6-0.4,3.2-0.7,4.9-0.9c1.6-0.2,3.3-0.3,5-0.3
		c3.3,0,6.6,0.5,9.7,1.8c-3.1-1.2-6.4-1.6-9.7-1.5c-1.6,0-3.3,0.2-4.9,0.5c-1.6,0.3-3.2,0.6-4.8,1c-3.2,0.8-6.3,1.9-9.3,3.2
		c-3,1.3-6,2.7-8.8,4.3L149,281.3z"/>
	<path class="st13" d="M191.1,309.7c-4.3,0.5-8.5,0.8-12.8,1c-2.1,0.1-4.3,0.1-6.4,0.1c-2.1,0-4.3-0.1-6.4-0.6l-0.1,0l0,0
		c-1.3-0.9-2.7-1.6-4.1-2.2c-1.4-0.6-3-1-4.5-1.1c-1.6-0.1-3.1,0.1-4.6,0.7c-1.5,0.6-2.7,1.6-3.8,2.8c0.5-0.6,1-1.2,1.7-1.7
		c0.3-0.3,0.6-0.5,1-0.7c0.3-0.2,0.7-0.4,1.1-0.6c1.4-0.7,3.1-0.9,4.7-0.9c1.6,0.1,3.2,0.4,4.7,1c1.5,0.6,2.9,1.3,4.3,2.2l-0.1,0
		c2.1,0.4,4.2,0.4,6.3,0.4c2.1,0,4.3-0.1,6.4-0.3c4.3-0.3,8.5-0.8,12.7-1.4L191.1,309.7z"/>
	<path class="st13" d="M165.5,310c1.4,1.3,2.8,2.7,4.2,3.9c1.4,1.2,2.9,2.5,4.5,3.5c0.8,0.5,1.6,0.9,2.5,1.1
		c0.9,0.2,1.8,0.4,2.6,0.2c0.4-0.1,0.8-0.3,1.2-0.5l0.3-0.2c0.1-0.1,0.3-0.1,0.4-0.2c0.2-0.1,0.4-0.2,0.6-0.3c0.8-0.4,1.6-1,2.4-1.4
		l0.2-0.1l0.2,0c0.7,0.1,1.4,0.2,2.1,0.3c0.7,0.1,1.4,0.2,2.1,0.4c1.4,0.3,2.8,0.5,4.1,0.9l-0.6,0.5c0,0-1.7-0.3-3.6-0.5
		c-0.7,0-1.4-0.1-2.1-0.1c-0.7-0.1-1.4-0.1-2.1-0.2l0.4-0.1c-0.8,0.5-1.6,1-2.5,1.5c-0.2,0.1-0.5,0.2-0.7,0.3
		c-0.1,0.1-0.2,0.1-0.3,0.1l-0.3,0.1c-0.4,0.2-1,0.4-1.5,0.5c-1.1,0.2-2.1,0-3.1-0.3c-0.5-0.2-0.9-0.3-1.4-0.6
		c-0.2-0.1-0.4-0.2-0.6-0.4c-0.2-0.1-0.4-0.3-0.6-0.4c-1.6-1.1-3-2.5-4.4-3.8c-1.4-1.4-2.7-2.5-4-4L165.5,310z"/>
	<path class="st13" d="M147.9,197.9c1.2,0.1,2.5,0.2,3.8,0.2c1.3,0,2.5,0,3.8-0.1c1.3-0.1,2.5-0.3,3.7-0.6c0.6-0.2,1.2-0.4,1.7-0.7
		c0.5-0.3,1-0.7,1.4-1.2l0,0.2l-2.4-8.3l2.9,8.2l0,0.1l-0.1,0.1c-0.4,0.6-0.9,1-1.5,1.4c-0.6,0.3-1.2,0.6-1.8,0.8
		c-1.3,0.4-2.5,0.7-3.8,0.8c-1.3,0.2-2.6,0.3-3.9,0.3c-1.3,0-2.6,0.1-3.9,0L147.9,197.9z"/>
	<path class="st13" d="M213.3,242c-0.9,0.4-1.8,0.9-2.6,1.6c-0.4,0.3-0.7,0.7-1,1.1c-0.1,0.2-0.2,0.5-0.3,0.7l-0.3,0.7
		c-0.9,2-1.7,3.9-2.6,5.9c0.6-2.1,1.3-4.1,2-6.2l0.3-0.8c0.1-0.3,0.2-0.5,0.3-0.8c0.2-0.5,0.6-1,1-1.4c0.8-0.8,1.7-1.5,2.7-2.1
		L213.3,242z"/>
	<path class="st13" d="M122.6,246.3c0.5,0.2,1,0.5,1.4,0.8c0.4,0.3,0.8,0.6,1.2,1c0.4,0.4,0.7,0.8,0.9,1.3c0.3,0.4,0.4,0.9,0.5,1.4
		c-0.2-0.5-0.4-0.9-0.7-1.3c-0.3-0.4-0.6-0.8-1-1.1c-0.4-0.3-0.8-0.6-1.2-0.8c-0.4-0.2-0.9-0.4-1.3-0.5L122.6,246.3z"/>
	<path class="st13" d="M95.5,264c0.2-0.3,0.4-0.7,0.6-1.1c0.2-0.4,0.3-0.8,0.3-1.2c0.1-0.4,0.1-0.8,0-1.3c0-0.4-0.2-0.8-0.4-1.2
		c0.2,0.4,0.4,0.8,0.5,1.2c0.1,0.4,0.1,0.9,0.1,1.3c0,0.4-0.1,0.9-0.2,1.3c-0.1,0.4-0.3,0.8-0.5,1.2L95.5,264z"/>
	<path class="st13" d="M84.3,265.3c-0.2-0.3-0.5-0.5-0.6-0.9c-0.1-0.2-0.2-0.3-0.2-0.5c0-0.2,0-0.4,0.1-0.6c0.2-0.4,0.6-0.5,1-0.6
		c0.4-0.1,0.7-0.2,1.1-0.2c0.7-0.1,1.4-0.1,2.2,0c0.7,0.1,1.4,0.2,2.1,0.2l-0.2,0.2c-0.2-0.5-0.3-0.9-0.4-1.4c0-0.2-0.1-0.5-0.1-0.7
		c0-0.2,0-0.5,0.1-0.7c-0.1,0.2,0,0.5,0,0.7c0,0.2,0.1,0.5,0.2,0.7c0.1,0.4,0.3,0.9,0.5,1.3l0.1,0.2l-0.2,0.1c-0.7,0-1.4,0-2.1-0.1
		c-0.7-0.1-1.4-0.1-2.1,0c-0.3,0-0.7,0.1-1,0.2c-0.3,0.1-0.7,0.2-0.8,0.4c-0.1,0.2-0.1,0.6,0.1,0.9C83.9,264.7,84.1,265,84.3,265.3z
		"/>
	<path class="st13" d="M89.8,262.6c0.2,0,0.4,0,0.6,0c0.2,0,0.4-0.1,0.6-0.2c-0.1,0.2-0.3,0.3-0.5,0.4c-0.2,0.1-0.4,0.1-0.6,0.2
		L89.8,262.6z"/>
	<path class="st13" d="M84.1,265.4c-0.5-0.8-1.1-1.7-1.6-2.5c-0.3-0.4-0.5-0.8-0.7-1.3c-0.2-0.5-0.2-1.1,0-1.5
		c0.1-0.5,0.4-0.9,0.5-1.4l0.5-1.4c0.3-0.9,0.7-1.8,1-2.8c-0.3,0.9-0.6,1.9-0.9,2.8l-0.5,1.4c-0.2,0.5-0.4,0.9-0.5,1.4
		c-0.1,0.5-0.1,1,0.1,1.4c0.2,0.4,0.5,0.8,0.8,1.2c0.5,0.8,1.2,1.7,1.7,2.5L84.1,265.4z"/>
	<path class="st13" d="M80.9,265.5l-1.8-3.3l0,0l0,0c0-0.7,0.2-1.4,0.4-2.1l0.6-2l1.2-4l-1,4.1l-0.5,2c-0.2,0.7-0.3,1.4-0.3,2l0-0.1
		l2.1,3.4L80.9,265.5z"/>
	<path class="st13" d="M78.5,252.6l-2,10l0,0c0,0.3,0.2,0.6,0.4,0.9c0.1,0.1,0.3,0.3,0.4,0.5c0.1,0.2,0.2,0.3,0.3,0.5
		c0.4,0.7,0.7,1.4,1,2.1l0,0l-1.3-1.9c-0.1-0.2-0.2-0.3-0.3-0.5c-0.1-0.2-0.2-0.3-0.4-0.4c-0.3-0.3-0.5-0.7-0.5-1.2l0,0l0,0
		L78.5,252.6L78.5,252.6z"/>
	<path class="st13" d="M87.5,262.8c-0.2-0.4-0.4-0.8-0.6-1.2c-0.1-0.2-0.2-0.4-0.4-0.6c-0.1-0.2-0.3-0.4-0.4-0.5l-0.1-0.1l0.1-0.1
		l1.3-1.1l0,0l0.1-1.6l0,1.7l0-0.1l0,0l-1.3,1.2l0-0.2c0.2,0.1,0.4,0.4,0.5,0.5c0.2,0.2,0.3,0.4,0.4,0.6c0.3,0.4,0.5,0.8,0.7,1.2
		L87.5,262.8z"/>
	<path class="st13" d="M87.5,259.2c0.4,0.5,0.7,1,1,1.6c0.2,0.3,0.3,0.6,0.4,0.9c0.1,0.3,0.3,0.7,0.2,1l-0.3,0
		c-0.1-0.3-0.2-0.6-0.3-0.8c-0.1-0.3-0.2-0.6-0.3-0.8C88,260.4,87.7,259.8,87.5,259.2L87.5,259.2z"/>
	<polygon class="st13" points="86.2,260.5 84.9,259.9 86.2,260.2 	"/>
	<path class="st13" d="M198.6,195.2c-0.2-1-0.3-1.9-0.5-2.8c-0.1-0.5-0.2-0.9-0.3-1.4c-0.1-0.4-0.3-0.9-0.5-1.3
		c0.4,0.3,0.5,0.5,0.7,0.9c0.2,0.5,0.5,1.4,0.6,1.9c0.1,0.5,0.6,2.4,0.6,2.9C199.2,196,198.7,194.7,198.6,195.2z"/>
	<path class="st13" d="M237.8,220.9c-0.9-0.2-1.7-0.6-1.7-0.6l0,0l0,0c-0.3-0.3-1.2-1.2-1.7-1.3l0,0c0.7-0.3,1.8,0.7,2,1
		c0.7,0.3,2.4,0.9,3.1,0.8c0.9-0.2,1-0.9,1-1.5c-0.1-0.4-0.5-0.7-1-1c-0.3-0.2-0.7-0.4-0.8-0.7c-0.3-0.4-2.9-2.1-4.5-3.1l0.2-0.4
		c0.4,0.3,4.2,2.7,4.7,3.2c0.1,0.2,0.4,0.4,0.7,0.6c0.5,0.3,1.1,0.7,1.2,1.3c0.1,1-0.4,1.8-1.3,1.9
		C239,221.2,238.4,221.1,237.8,220.9z"/>
	<path class="st13" d="M236.3,220c0.9,1.5,1.8,2.9,2.6,4.4c0.2,0.4,0.4,0.8,0.6,1.2c0.2,0.4,0.2,0.8,0.2,1.3c0,0.4-0.1,0.9-0.3,1.2
		c-0.2,0.4-0.6,0.6-1,0.8c0.4-0.2,0.7-0.4,1-0.8c0.2-0.4,0.3-0.8,0.3-1.2c0-0.4-0.1-0.8-0.3-1.2c-0.2-0.4-0.4-0.8-0.6-1.1
		c-0.9-1.5-1.8-2.9-2.8-4.3L236.3,220z"/>
	<path class="st13" d="M237,216.2c0.1-0.3,0.2-0.5,0.3-0.8c0.1-0.1,0.1-0.3,0.2-0.4c0.1-0.1,0.2-0.3,0.3-0.4
		c0.4-0.4,0.8-0.8,1.2-1.2l2.5-2.3l-2.3,2.4c-0.4,0.4-0.8,0.8-1.1,1.2c-0.2,0.2-0.2,0.4-0.3,0.7c-0.1,0.3-0.2,0.5-0.2,0.8L237,216.2
		z"/>
	<path class="st13" d="M239.4,217.9c0.1-0.3,0.2-0.6,0.4-0.8c0.2-0.2,0.5-0.4,0.7-0.5c0.5-0.2,0.9-0.5,1.4-0.7
		c0.9-0.5,1.8-1.1,2.7-1.6c-0.8,0.6-1.7,1.2-2.6,1.8c-0.4,0.3-0.9,0.6-1.3,0.9c-0.2,0.1-0.4,0.2-0.6,0.4c-0.1,0.2-0.3,0.6-0.3,0.8
		L239.4,217.9z"/>
	<path class="st13" d="M239.6,220.9l0.1,5.1l0,0c0.1,0.3,0.3,0.5,0.6,0.6c0.1,0.1,0.3,0.1,0.4,0.1c0.1,0,0.3,0,0.4-0.1
		c0.2-0.2,0.4-0.5,0.5-0.8c0.1-0.3,0.1-0.6,0.2-1l0.6-4l0,0l0,0c0.1-0.2,0.2-0.4,0.3-0.6c0.1-0.2,0.3-0.4,0.6-0.5
		c0.5-0.1,0.9-0.3,1.3-0.5c0.8-0.4,1.6-0.9,2.4-1.4c-0.8,0.5-1.6,1-2.4,1.4c-0.4,0.2-0.8,0.5-1.3,0.6c-0.2,0.1-0.4,0.2-0.5,0.4
		c-0.1,0.2-0.2,0.4-0.3,0.6l0,0l-0.5,4c-0.1,0.6-0.1,1.4-0.7,2c-0.1,0.1-0.4,0.2-0.5,0.2c-0.2,0-0.4,0-0.6-0.1
		c-0.4-0.1-0.6-0.4-0.8-0.8l0,0l0,0l-0.2-5.1L239.6,220.9z"/>
	<path class="st13" d="M247.2,222.3c-0.3,0.2-0.6,0.4-0.9,0.6c-0.2,0.1-0.3,0.2-0.5,0.3c-0.2,0.1-0.3,0.2-0.6,0.2l0.1-0.1
		c-0.2,0.6-0.3,1.2-0.5,1.8c-0.2,0.6-0.4,1.2-0.7,1.7c-0.2,0.3-0.4,0.5-0.7,0.7c-0.3,0.2-0.7,0.2-1,0.1c-0.2,0-0.4-0.1-0.5-0.2
		c-0.1-0.1-0.2-0.3-0.2-0.4c-0.1-0.3-0.1-0.6-0.1-0.9c0.1,0.3,0.2,0.6,0.3,0.9c0.1,0.1,0.2,0.2,0.3,0.3c0.1,0.1,0.2,0.1,0.4,0.1
		c0.6,0.1,1.1-0.3,1.3-0.7c0.3-0.5,0.5-1.1,0.7-1.7l0.6-1.7l0-0.1l0.1,0c0.1,0,0.3-0.1,0.5-0.1l0.5-0.2L247.2,222.3z"/>
	<path class="st13" d="M240.2,228.8c0.3,0.7,0.6,1.4,1,2c0.2,0.3,0.4,0.6,0.7,0.9c0.2,0.3,0.5,0.5,0.8,0.7c-0.4-0.1-0.7-0.2-1.1-0.5
		c-0.3-0.2-0.6-0.5-0.8-0.9c-0.2-0.3-0.4-0.7-0.5-1.1C240.2,229.6,240.2,229.2,240.2,228.8z"/>
	<path class="st13" d="M168.4,172l0.1-0.2c0.1-0.2,1-2.3,2-2.5c0.1,0,0.2,0,0.3-0.1c0.9-0.2,2.1-0.5,4.5,0.6l0.2,0.1l-0.1,0.2
		c0,0-1.5,3-4.2,2.5L168.4,172z M173.7,169.7c-1.3-0.4-2.1-0.2-2.8,0c-0.1,0-0.2,0-0.3,0.1c-0.6,0.1-1.3,1.3-1.6,2l2.3,0.5
		c2,0.4,3.2-1.4,3.6-2C174.4,169.9,174,169.8,173.7,169.7z"/>
	<path class="st13" d="M157.7,174.2c-1.1-0.3-1.6-1.5-1.6-1.6l0-0.1c-0.1-0.7,0.2-1.9,1.7-2c1.8-0.1,3.4,1.7,3.4,1.7l0.1,0.2
		l-0.2,0.1c-0.1,0.1-2.1,1.9-3.3,1.7C157.8,174.2,157.8,174.2,157.7,174.2z M156.5,172.5c0.1,0.2,0.6,1.2,1.5,1.3
		c0.8,0.1,2.2-0.9,2.8-1.5c-0.4-0.4-1.7-1.5-2.9-1.4C156.5,171,156.5,172.3,156.5,172.5z"/>
	<path class="st13" d="M162.7,195.6c0.2,0.7,0.4,1.4,0.6,2.1c0.1,0.3,0.2,0.7,0.2,1.1c0.1,0.4,0.1,0.7,0.1,1.1c0-0.4-0.1-0.7-0.2-1
		c-0.1-0.3-0.2-0.7-0.3-1c-0.2-0.7-0.5-1.3-0.8-2L162.7,195.6z"/>
	<path class="st13" d="M136.5,234.5c0.5,0,1.2,0.1,1.7,0.1c0.5,0,1,0,1.5,0c1,0,1.9-0.1,2.9-0.3c-0.9,0.4-1.8,0.7-2.8,1
		c-0.5,0.1-1,0.2-1.5,0.3c-0.5,0.1-1,0.2-1.5,0.3L136.5,234.5z"/>
	<path class="st13" d="M204.9,357.8c-0.7-0.2-1.7-1.3-3.8-4c-1.3-1.6-2.6-3.2-3.5-3.9c-1.9-1.6-16.1-12.5-16.2-12.6
		c-1.8-1.2-4.6-3.1-5-3.3c-0.1,0-6.8-3.4-12-2.6l-0.2-1.3c5.6-0.9,12.7,2.7,12.8,2.8c0.5,0.3,4.6,3.1,5.1,3.4
		c0.6,0.5,14.3,11,16.3,12.6c1,0.8,2.3,2.5,3.7,4.1c1.1,1.4,2.7,3.4,3.2,3.5c0.6,0.2,2.5-0.5,3.6-0.9l0.5,1.2
		C208.9,357.1,206.2,358.2,204.9,357.8z"/>
	<g>
		<path class="st13" d="M170,169.6c0,0,1.2-1.3,3.6-1.2c0,0,2,0.6,2.3,0.5c0.4-0.1-0.1,1.9-0.5,2.4c-0.3,0.4-1.3,1.8-4.1,1.2
			c0,0,2.7-0.1,4-2.5C175.2,170,171.9,168.7,170,169.6z"/>
		<path class="st13" d="M161.1,172.4c0,0-1-2.3-4.5-2c0,0-1,0.1-1.4,0.4c0,0,0.6,1.4,1,2.1c0,0,0.1-1.3,0.5-1.5
			C157.2,171,157.8,169.9,161.1,172.4z"/>
		<path class="st13" d="M164,180.9c0.3,0.1,0.3-0.5,0.8-0.1c0.2,0.2,0.9,0.5,1.6,0.4c0.6-0.1,1.1-0.8,1.1-0.8s0-0.1,0.1-0.2
			c0.1-0.2,0.2-0.2,0.9-0.1s0.8,0.1,0.8-0.3c-0.1-0.4,0-0.6-0.4-0.4c-0.4,0.2-1,0.2-1.4,0.2c-0.4,0-1.1,0.9-1.8,0.8
			c-0.7-0.2-1.2-0.8-1.5-0.5C163.6,180.2,163.2,180.7,164,180.9z"/>
		<path class="st13" d="M163.6,185.1l1.3-0.3c0,0,0.7-0.1,1.3,0s1.1,0,1.6-0.1c0.6-0.2,1.7-0.8,3.1-0.7c0.7,0.1-1.9-1-2.3-1
			c-0.6,0-1,0.3-1.7,0.4c-0.7,0.1-1.4-0.1-2,0.2S163.6,185.1,163.6,185.1z"/>
		<path class="st13" d="M165.3,186.7c0,0,2.3,0.5,4.5-0.7c0,0-0.9,0.9-2.2,1.2C166.2,187.4,165.3,186.7,165.3,186.7z"/>
	</g>
	<path class="st13" d="M159.6,197.4c-2.1-1.3-4.1-2.8-5.9-4.6c-0.9-0.9-1.7-1.8-2.4-2.9c-0.4-0.5-0.7-1.1-1-1.6
		c-0.3-0.6-0.5-1.2-0.6-1.8c-0.1-0.6-0.2-1.3-0.1-2l0.1-0.9l0.2-0.9l0.2-0.9c0.1-0.3,0.2-0.6,0.3-0.9c0.2-0.6,0.5-1.2,0.8-1.7
		c0.6-1.1,1.3-2.2,1.8-3.2c0.5-1.1,0.9-2.3,1-3.5l0.1,0c0,0.3,0,0.6,0,0.9c0,0.3,0,0.6-0.1,0.9c-0.1,0.3-0.1,0.6-0.2,0.9l-0.1,0.5
		l-0.2,0.5c-0.4,1.2-1.1,2.3-1.6,3.4c-0.5,1.1-1,2.2-1.3,3.4l-0.2,0.9l-0.1,0.9c-0.1,0.6-0.1,1.2,0,1.7c0.1,0.6,0.3,1.1,0.5,1.7
		c0.2,0.5,0.5,1.1,0.9,1.6c0.7,1,1.4,2,2.3,2.9C155.7,194.3,157.6,195.9,159.6,197.4L159.6,197.4z"/>
	<polygon class="st13" points="176.9,161.9 176.5,158.6 177.8,161.8 	"/>
	<path class="st13" d="M232.3,425.5c0-0.2,0-0.3,0.1-0.5l0-0.3l0-0.3c0-0.3-0.1-0.6-0.2-0.9c-0.5-2.3-1.1-4.4-1.6-6.6
		c-0.3-1.1-0.5-2.2-0.8-3.3l-0.2-0.8c-0.1-0.3-0.1-0.5-0.1-0.8c-0.1-0.5-0.1-1.1-0.2-1.6c0-1.1,0-2.1,0.2-3.2
		c0.2-1.1,0.4-2.1,0.7-3.3c0.1-0.6,0.3-1.2,0.3-1.9c0-0.7-0.1-1.3-0.3-1.9c-0.4-1.2-0.9-2.3-1.6-3.3c-0.3-0.5-0.7-1-1.1-1.4
		c-0.4-0.5-0.9-0.9-1.4-1.2c-0.9-0.6-1.7-1.2-2.7-1.6c0-0.1-0.1-0.2-0.1-0.3c-0.1-0.2-0.2-0.5-0.3-0.7c-0.3-0.4-0.6-0.8-0.9-1.2
		c-0.3-0.4-0.7-0.6-1.1-0.9l-0.5-0.3c-0.2-0.1-0.3-0.2-0.5-0.3c-1.2-0.9-2.2-2.3-3-3.7c-0.4-0.7-0.8-1.4-1.2-2.2
		c-0.2-0.4-0.3-0.8-0.5-1.1l-0.2-0.5l-0.2-0.6c-0.4-1.6-0.7-3.2-0.9-4.9c-0.2-1.7-0.3-3.3-0.3-5c0-0.8,0-1.7,0-2.5
		c0-0.4,0-0.8,0-1.3c0-0.4,0-0.9,0-1.4c-0.1-1.8-0.7-3.5-1.3-5.2c-0.3-0.8-0.7-1.6-1.2-2.4c-0.4-0.7-0.8-1.3-1.2-1.9
		c0.4-1.8,0.7-3.6,1.1-5.4c0.2-1,0.3-1.9,0.5-2.9c0.1-0.5,0.1-1,0.2-1.5l0.1-0.7c0-0.3,0-0.5,0-0.8c0-1.1-0.2-2-0.4-3
		c-0.2-1-0.4-1.9-0.7-2.9c-0.3-0.9-0.6-1.9-0.9-2.8c-0.2-0.5-0.4-0.9-0.6-1.4c-0.1-0.2-0.2-0.5-0.3-0.7c-0.1-0.2-0.3-0.5-0.4-0.7
		c-0.7-0.9-1.5-1.5-2.3-2.1c-0.8-0.6-1.7-1-2.6-1.5c-0.9-0.4-1.8-0.9-2.6-1.3c-0.4-0.2-0.8-0.4-1.2-0.6c-0.3-0.2-0.6-0.5-0.9-0.8
		c-0.6-0.7-1-1.5-1.4-2.3c-0.4-0.8-0.7-1.7-1-2.6c-0.1-0.2-0.1-0.4-0.2-0.7l-0.1-0.3l-0.1-0.4c-0.1-0.5-0.3-1-0.6-1.5
		c-0.3-0.5-0.6-0.9-1-1.3c-0.2-0.2-0.4-0.4-0.6-0.5c-0.1-0.1-0.3-0.2-0.4-0.3l-1.6-7.6c0.7-0.2,1.4-0.3,2-0.6
		c0.9-0.3,1.8-0.7,2.6-1.1c0.8-0.4,1.7-0.9,2.4-1.4c0.8-0.5,1.5-1.1,2.2-1.8l0,0l0,0c1.4-1.7,2.4-3.7,3.3-5.7c0.8-2,1.4-4.2,1.8-6.3
		c0.8-4.3,0.9-8.7,0.2-13c-0.2-1.1-0.4-2.1-0.7-3.2c-0.3-1.1-0.7-2.1-1.2-3.1c-1-2-2.4-3.7-3.9-5.3c-1.5-1.6-3.1-3-4.8-4.4
		c-1.7-1.3-3.5-2.5-5.3-3.6c-1.2-1-2.4-2.2-3.5-3.4c-1.1-1.2-2.1-2.4-3-3.8c-0.8-1.4-1.5-2.8-1.9-4.4c-0.4-1.5-0.3-3.2,0.4-4.5
		c0.7-1.5,1.4-3,2-4.5l1.9-4.5c1.1-2.7,2.2-5.4,3.3-8.1c0.1,0.4,0.3,0.8,0.4,1.3c0.3,0.7,0.6,1.5,0.9,2.2c0.6,1.5,1.2,2.9,1.9,4.4
		c1.3,2.9,2.6,5.8,3.9,8.6c0.7,1.4,1.4,2.9,2.1,4.3c0.4,0.7,0.7,1.4,1.1,2.1c0.4,0.7,0.7,1.4,1,2.1c1.2,2.9,2.2,5.9,3.2,8.9l0,0.1
		l0,0c0.5,0.5,1,0.9,1.6,1.2c0.3,0.2,0.6,0.3,1,0.3c0.2,0,0.4,0,0.6-0.1c0.2-0.1,0.3-0.2,0.4-0.2c0.5-0.3,1.1-0.5,1.7-0.6
		c0.6-0.2,1.2-0.3,1.8-0.4c1.9-0.2,3.7-0.7,5.5-1.3c1.8-0.7,3.5-1.4,5.1-2.3c0.4-0.2,0.8-0.5,1.2-0.7l0.6-0.4
		c0.2-0.1,0.4-0.3,0.6-0.4c0.8-0.6,1.5-1.1,2.2-1.7c1.4-1.2,2.8-2.5,4.2-3.8c2.7-2.7,5.1-5.5,7.5-8.4c2.3-2.9,4.5-5.9,6.5-9.1
		c0.6-0.4,1-0.8,1.4-1.4c0.2-0.3,0.4-0.6,0.6-0.8c0.2-0.3,0.3-0.6,0.5-0.9l0,0l0,0l1.2-4.7c0.4-1.6,0.8-3.2,1.3-4.7l0-0.1l0.1-0.2
		c0-0.1,0.1-0.2,0.1-0.3c0-0.2,0.1-0.5,0-0.7c0-0.5-0.2-1-0.6-1.3c-0.1-0.1-0.2-0.1-0.3-0.2c-0.1,0-0.2-0.1-0.2-0.1
		c-0.2-0.1-0.3-0.2-0.3-0.3c-0.1-0.3-0.2-0.7-0.4-1.1c-0.2-0.4-0.3-0.8-0.6-1.2c-0.3-0.4-0.6-0.7-1-0.9c-0.1-0.1-0.2-0.1-0.3-0.1
		c-0.1,0-0.2-0.1-0.2-0.1c-0.1-0.1-0.3-0.2-0.4-0.3c-0.2-0.2-0.3-0.6-0.3-0.9l0-0.1l0-0.1c-0.1-0.3-0.3-0.6-0.5-0.8
		c-0.2-0.3-0.4-0.5-0.7-0.7c-0.1-0.1-0.3-0.2-0.5-0.2l-0.2,0c-0.1,0-0.1,0-0.2,0c-0.1,0-0.3-0.1-0.4-0.1c-0.1,0-0.2-0.1-0.3-0.1
		c-0.2-0.4-0.4-0.7-0.6-1.1c-0.2-0.2-0.3-0.4-0.6-0.5c-0.2-0.1-0.5-0.2-0.7-0.2c-0.3,0-0.5,0-0.8,0.1c-0.2,0.1-0.4,0.2-0.6,0.3
		c-0.4,0.2-0.7,0.5-1.1,0.7c-1.4,1-2.6,2.1-3.9,3.3l-0.1,0.1l0,0.1l-0.5,1.4c-0.4,0.2-0.7,0.4-1,0.6c-0.4,0.3-0.7,0.7-0.9,1.1
		c-0.2,0.5-0.2,1-0.1,1.4c0.1,0.4,0.1,0.8,0.2,1.2c0.1,0.8,0,1.7,0,2.5c0,0.8-0.1,1.7-0.2,2.5l0,0.1l0.1,0.1l3.3,5.5
		c-0.4,0.6-0.8,1.1-1.2,1.6c-0.5,0.6-1,1.1-1.6,1.7c-1.1,1.1-2.3,2-3.6,2.9c-1.3,0.9-2.6,1.7-3.9,2.4c-1.3,0.7-2.7,1.4-4.1,2
		l-7.3,1.1l-5.8-28c0.6-0.1,1.2-0.4,1.7-0.7c0.7-0.4,1.4-0.9,1.9-1.5c1.1-1.1,2-2.5,2.7-4c0.3-0.8,0.4-1.6,0.6-2.3
		c0.1-0.8,0.2-1.5,0.2-2.3c0.1-1.5,0.1-3.1-0.1-4.7c-0.2-1.5-0.5-3.1-1.2-4.6c-0.6-1.5-1.6-2.8-3-3.8c-0.3-0.2-0.7-0.5-1.1-0.7
		c-0.4-0.2-0.8-0.3-1.1-0.5c-0.7-0.3-1.3-0.6-1.9-1c-1.2-0.8-2.2-1.8-3-3c-0.8-1.2-1.4-2.5-1.8-3.9c-0.4-1.4-0.7-2.8-0.9-4.4
		c-0.6-3-1-5.9-1.3-8.9c-0.1-1.5-0.2-3-0.3-4.5c0-0.4,0-0.7,0-1.1c0-0.4,0-0.7,0-1.2c0-0.8-0.2-1.7-0.5-2.4
		c-0.5-1.6-1.4-2.9-2.4-4.1c-0.9-1.1-1.9-2-3-2.9c0,0,0,0,0,0c0-0.2,0.1-0.4,0.1-0.7c0-0.5-0.2-1-0.5-1.4c-0.3-0.4-0.7-0.6-1-0.8
		c-0.1,0-0.2-0.1-0.3-0.1c-0.1,0-0.1-0.1-0.2-0.1c-0.1-0.1-0.3-0.1-0.4-0.2c-1.1-0.6-2.2-1.3-3.3-2c-2.2-1.4-4.4-2.9-6.5-4.4
		l-0.4-0.3l-0.4,0.2c-0.5,0.2-1,0.4-1.6,0.4c-0.6,0.1-1.2,0.1-1.8,0c-0.6,0-1.2-0.1-1.8-0.3c-0.6-0.1-1.1-0.2-1.7-0.4
		c-0.7-0.7-1.6-1.4-2.5-1.9c-1-0.5-2.1-0.9-3.3-1c-1.1-0.1-2.1-0.1-3.2,0.3c-0.5,0.2-1.4,0.4-1.9,0.7c-0.5,0.2-0.9,0.5-1.4,0.8
		c0,0-1.5,0.6-3.9,4.4c0,0,0,0-0.1,0.1c-0.3,0.3-0.7,0.6-1.2,0.8c-0.5,0.2-1.1,0.4-1.8,0.6c-0.6,0.2-1.2,0.3-1.9,0.5
		c-0.1,0-0.2,0.1-0.3,0.1c-0.2,0.1-0.3,0.2-0.4,0.3c-0.2,0.2-0.3,0.4-0.4,0.6c-0.2,0.4-0.3,0.7-0.4,1c-0.2,0.6-0.4,1.1-0.7,1.6
		c-0.1,0.1-0.2,0.2-0.2,0.3l-0.2,0.2l-0.2,0.2c-0.2,0.3-0.5,0.6-0.7,0.9c-0.7,1.1-1.3,2.3-1.8,3.5c-0.9,1.2-2,2.2-3.1,3.3
		c-0.6,0.6-1.1,1.1-1.7,1.7c-0.5,0.6-1.1,1.3-1.5,2.1c-0.2,0.4-0.4,0.8-0.5,1.3c-0.1,0.2-0.1,0.5-0.1,0.7c0,0.3,0,0.5,0.1,0.7
		c0.2,0.9,0.7,1.7,1.2,2.4c0.5,0.7,1.1,1.3,1.7,1.8c0.5,0.5,1.1,0.9,1.7,1.4c0,0,0,0,0,0c0,0.2,0,0.5,0.1,0.8c0,0.4,0,0.7,0,1.1
		c0,0.7-0.1,1.5-0.3,2.2c-0.2,0.7-0.4,1.4-0.7,2.1c-0.1,0.3-0.3,0.6-0.5,0.9c-0.2,0.3-0.4,0.6-0.6,0.9c-0.5,0.6-1,1-1.6,1.6
		c-0.3,0.3-0.6,0.6-0.9,0.9c-0.3,0.4-0.5,0.7-0.7,1.1c-0.4,0.7-0.6,1.5-0.8,2.4c-0.1,0.8-0.1,1.4,0.2,2.2c0.1,0.3,0.2,0.5,0.3,0.8
		c0.2,0.4,0.4,0.8,0.7,1.1c0.2,0.2,0.4,0.4,0.7,0.5c0.2,0.1,0.5,0.2,0.8,0.2c0.5,0.1,1.1-1,1.8-0.8c0.7,0.2,0.9,1.1,0.9,1.1
		c0.2,0.4,0.3,0.7,0.5,0.9c0.3,0.3,0.5,0.5,1,0.7c0.5,0.2,1,0.2,1.2,0.2c0.2,0,0.4,0.2,0.6,0.4c0.2,0.2,0.3,0.5,0.4,0.8
		c0.2,0.6,0.3,1.3,0.2,2c0,0.3-0.1,0.7-0.2,1c-0.1,0.4-0.2,0.8-0.2,1.2c-0.1,0.6-0.2,1.2-0.2,1.8c-1.1,0.1-2.1,0.4-3.1,0.8
		c-1.1,0.5-2.2,1.3-3,2.2c-0.4,0.5-0.8,1-1.1,1.4l-0.5,0.7l-0.1,0.2c0,0-0.1,0.1-0.1,0.1c0,0.1,0,0.1-0.1,0.1
		c-0.1,0.2-0.1,0.3-0.2,0.4c-0.5,1.1-1,2.2-1.4,3.3c-1.8,4.3-3.5,8.7-5.3,13c-3.4,8.6-6.8,17.3-10.2,25.9c-1.7,0.1-3.2,0.6-4.7,1.1
		c-1.6,0.5-3.2,1.1-4.8,1.7l-4.7,1.7c-0.8,0.3-1.6,0.6-2.4,0.7c-0.8,0.2-1.6,0.3-2.4,0.4c-3.3,0.4-6.7,0.4-10,0.2
		c-3.3-0.2-6.7-0.5-10-1l-0.1,0l-0.1,0.1c-0.2,0.3-0.5,0.5-0.9,0.6c-0.3,0.1-0.7,0.2-1,0.3c-0.8,0.2-1.6,0.2-2.5,0.2l-0.2,0
		l-0.1,0.2c-0.1,0.4-0.2,0.7-0.4,1.1c-0.1,0.3-0.3,0.6-0.5,0.8c-0.1,0.1-0.3,0.2-0.4,0.2c-0.2,0.1-0.4,0.1-0.6,0.2
		c-0.2,0.1-0.4,0.2-0.5,0.4c-0.1,0.2-0.2,0.4-0.2,0.6c-0.4,1.5-0.9,2.9-1.4,4.4c-0.2,0.7-0.5,1.5-0.7,2.2c0,0.1,0,0.2-0.1,0.3
		c0,0,0,0.1,0,0.2c0,0,0,0.1,0,0.1l0,0.1c0,0.1,0,0.3,0,0.6c0.1,0.3,0.3,0.4,0.5,0.5c0.2,0.1,0.4,0.1,0.5,0.2c0.7,0.3,1.4,0.7,2,1
		l2,1.1l2.5-1c0.4,0.3,0.8,0.5,1.3,0.5c0.2,0,0.5,0,0.8-0.1c0.2-0.1,0.5-0.2,0.7-0.3c0.4-0.2,0.9-0.3,1.3-0.4c0.4,0,0.9,0.1,1.4,0.2
		c0.9,0.2,1.8,0.6,2.8,0.9c0.9,0.3,1.8,0.6,2.7,1l0.1,0l0.1-0.1c0.6-0.5,1.3-1,1.9-1.5c0.3-0.2,0.6-0.5,0.9-0.8
		c0.3-0.3,0.5-0.5,0.8-0.8l27-0.7c0.6,0,1.1,0,1.7,0c0.6,0,1.1,0,1.7,0c0.3,0,0.6-0.1,0.9-0.2c0.2-0.1,0.3-0.1,0.5-0.3
		c0.1-0.1,0.1-0.2,0.2-0.2l0.1-0.2l0.8-1.5c0.3-0.5,0.5-1,0.8-1.4c0,0,0.1-0.1,0.1-0.1l0.2-0.2c0.1-0.1,0.2-0.2,0.3-0.4
		c0.2-0.2,0.3-0.5,0.5-0.7c0.7-0.9,1.3-1.8,2-2.8c2.5-3.5,4.9-7,7.3-10.6c0.7,1.2,1.5,2.4,2.1,3.6c0.4,0.7,0.8,1.4,1.1,2.1
		c0.2,0.4,0.3,0.7,0.5,1.1c0.1,0.2,0.1,0.4,0.2,0.5l0.1,0.6c0.4,1.6,0.6,3.2,0.9,4.8c0.3,1.6,0.5,3.2,0.7,4.8
		c0.2,1.6,0.4,3.2,0.6,4.8c0.1,0.8,0.2,1.6,0.2,2.4c0.1,0.8,0.2,1.7,0.3,2.5c0.5,3.1,1.2,6.2,2,9.2c-6,4.2-11.5,9-16.8,14
		c-0.7,0.6-1.3,1.3-2,1.9l-1,1c-0.3,0.3-0.7,0.7-1,1.1c-0.6,0.7-1.2,1.5-1.7,2.4c-0.5,0.8-0.9,1.7-1.1,2.7c-0.1,0.5-0.2,1-0.2,1.5
		c0,0.3,0,0.5,0,0.8l0.1,0.7l0.2,2.8c0.1,1.8,0.2,3.7,0.4,5.6c0.1,0.9,0.2,1.9,0.4,2.8c0.1,0.2,0.1,0.5,0.2,0.8
		c0.1,0.1,0.1,0.3,0.2,0.4c0.1,0.2,0.1,0.2,0.2,0.3c0.3,0.4,0.6,0.8,0.9,1.1c0.6,0.7,1.3,1.4,2.1,2c0.4,0.3,0.8,0.6,1.3,0.9
		c0.2,0.1,0.5,0.2,0.8,0.3c0.1,0,0.2,0,0.3,0l0.2,0c0.1,0,0.2,0,0.3,0c1.8,0.2,3.6,0.5,5.4,0.9c0.4,0.1,0.9,0.2,1.3,0.3
		c0.2,0.1,0.4,0.1,0.6,0.2c0.2,0.1,0.4,0.1,0.6,0.2c0.8,0.4,1.6,0.8,2.4,1.2c1.6,0.9,3.3,1.7,4.9,2.6c0.8,0.4,1.7,0.8,2.6,1.2
		c0.4,0.2,0.9,0.3,1.4,0.5c0.2,0.1,0.5,0.1,0.7,0.2c0.3,0.1,0.6,0.1,0.8,0.1c1.9,0.1,3.8,0,5.6-0.1c1.7-0.1,3.4-0.2,5.1-0.3
		l13.8,18.2c0.4,0.9,0.9,1.7,1.4,2.4c0.5,0.8,1.1,1.6,1.7,2.3c1.1,1.4,2.2,2.8,3.4,4.2c0.6,2.1,1.5,4,2.4,5.8c1,1.9,2.1,3.7,3.2,5.5
		c2.3,3.6,4.8,7,7.3,10.4l0.9,1.3l0.5,0.6c0.1,0.2,0.3,0.4,0.4,0.6c0.5,0.9,1,1.8,1.5,2.7c0.9,1.9,1.8,3.8,2.6,5.7
		c0.8,1.9,1.7,3.9,2.5,5.8c0.2,0.5,0.4,1,0.6,1.4l0.1,0.2l0,0c0,0.2,0,0.3,0.1,0.4c0,0.3,0.1,0.5,0.1,0.8c0,0.2,0.1,0.5,0.1,0.7
		c0,0.1,0,0.2,0,0.2l0,0.2c0,0.2,0,0.4,0,0.5c0.1,0.6,0.4,0.8,0.6,1.1c0.1,0.2,0.3,0.3,0.4,0.4l2.4,11.9l0.6,3.1l0.3,1.5l0.1,0.4
		l0.1,0.4l0.1,0.7c0.2,1,0.4,2,0.4,3c0,0.1,0,0.2,0,0.3l0,0.4c0,0.3,0,0.7,0.1,1c0.1,0.5,0.2,1,0.4,1.4c-0.2,1.2-0.4,2.4-0.4,3.6
		c0,0.7-0.1,1.3,0,2l0,0.5c0,0.2,0,0.4,0.1,0.6c0.1,0.4,0.2,0.7,0.3,1.1c0.5,1.4,1.3,2.5,2.1,3.5c0.8,1,1.7,2,2.7,2.9l0.3,0.2l0.4,0
		l4.5,0l0.3,0l0.2-0.2c0.5-0.4,0.9-0.8,1.4-1.2c0.4-0.4,0.9-0.8,1.3-1.2c0.8-0.8,1.6-1.7,2.3-2.7c1.4-1.9,2.6-3.9,3.5-6.1
		c0.5-1.1,0.9-2.2,1.2-3.3C232.1,426.7,232.2,426.1,232.3,425.5z M206.2,398.9C206.2,398.9,206.2,398.9,206.2,398.9L206.2,398.9
		C206.2,398.9,206.2,398.9,206.2,398.9C206.2,398.9,206.2,398.9,206.2,398.9z M229.1,429.9c-0.9,2-2,3.9-3.3,5.7
		c-0.7,0.9-1.4,1.7-2.1,2.5c-0.7,0.7-1.4,1.4-2.2,2l-3.8,0c-0.8-0.8-1.6-1.6-2.3-2.4c-0.8-1-1.4-2-1.8-3c-0.1-0.3-0.2-0.5-0.2-0.8
		c0-0.1,0-0.2,0-0.4l0-0.5c0-0.6,0-1.2,0-1.8c0.1-1.2,0.2-2.5,0.5-3.7l0.1-0.3l-0.1-0.3c-0.2-0.4-0.3-0.8-0.4-1.2
		c0-0.2-0.1-0.4-0.1-0.6l0-0.4c0-0.1,0-0.3,0-0.4c-0.1-1.1-0.3-2.1-0.5-3.2l-0.2-0.8l-0.1-0.4c0,0-0.1-0.2-0.1-0.2l0-0.1l-0.3-1.5
		l-0.6-3.1l-2.4-12.3l-0.1-0.3l-0.3-0.2c-0.1-0.1-0.3-0.3-0.4-0.4c-0.1-0.1-0.1-0.2-0.2-0.2c0,0,0-0.1,0-0.1c0-0.2,0-0.4,0-0.5
		c0-0.3,0-0.6-0.1-0.9c0-0.3-0.1-0.6-0.1-0.8l0-0.3l0-0.1c0-0.1,0-0.2,0-0.2l0-0.1l-0.1-0.2c-0.2-0.5-0.4-1-0.6-1.5
		c-0.8-2-1.6-3.9-2.5-5.8c-0.9-1.9-1.7-3.9-2.7-5.8c-0.5-1-1-1.9-1.5-2.9c-0.1-0.2-0.3-0.5-0.5-0.7l-0.5-0.7l-0.9-1.3
		c-2.5-3.4-5-6.8-7.2-10.3c-1.1-1.8-2.2-3.5-3.2-5.4c-1-1.8-1.9-3.7-2.3-5.6l-0.1-0.2l-0.1-0.2c-1.2-1.4-2.4-2.8-3.5-4.3
		c-0.6-0.7-1.1-1.5-1.6-2.2c-0.5-0.7-1-1.5-1.3-2.3l0-0.1l-0.1-0.1L165,330.3l0.1-0.2l-0.5,0c-1.8,0.2-4.1,0.2-5.9,0.3
		c-1.8,0.1-3.7,0.2-5.4,0.1c-0.8,0-1.6-0.3-2.4-0.7c-0.8-0.3-1.7-0.7-2.5-1.1c-1.6-0.8-3.3-1.7-4.9-2.5c-0.8-0.4-1.6-0.9-2.5-1.2
		c-0.2-0.1-0.5-0.2-0.7-0.3c-0.3-0.1-0.5-0.1-0.7-0.2c-0.5-0.1-0.9-0.2-1.4-0.3c-1.8-0.4-3.6-0.7-5.6-0.9c-0.1,0-0.2,0-0.4,0l-0.1,0
		c0,0,0,0,0,0c0,0-0.1,0-0.1,0c-0.1,0-0.3-0.1-0.5-0.2c-0.3-0.2-0.7-0.4-1-0.7c-0.7-0.5-1.3-1.2-1.9-1.8c-0.3-0.3-0.6-0.7-0.8-1
		c-0.1-0.1-0.1-0.2-0.2-0.2c0,0-0.1-0.1-0.1-0.2c-0.1-0.2-0.1-0.4-0.2-0.6c-0.2-0.8-0.3-1.8-0.4-2.7c-0.2-1.8-0.3-3.7-0.5-5.5
		l-0.2-2.8l-0.1-0.7c0-0.2,0-0.4,0-0.6c0-0.4,0.1-0.8,0.2-1.2c0.4-1.6,1.4-3.2,2.5-4.5c0.3-0.3,0.6-0.7,0.9-1l1-1
		c0.7-0.6,1.3-1.3,2-1.9c5.3-5.1,10.9-10,16.9-14.2l0.3-0.2l-0.1-0.4c-0.8-3.1-1.6-6.3-2.1-9.5c-0.1-0.8-0.2-1.6-0.3-2.4
		c-0.1-0.8-0.2-1.6-0.3-2.5c-0.2-1.6-0.4-3.2-0.7-4.9c-0.2-1.6-0.5-3.2-0.8-4.8c-0.3-1.6-0.6-3.2-0.9-4.8l-0.2-0.6
		c-0.1-0.2-0.1-0.4-0.2-0.6c-0.2-0.4-0.3-0.8-0.5-1.1c-0.4-0.7-0.8-1.5-1.2-2.2c-0.8-1.4-1.7-2.8-2.5-4.2l-0.4-0.6l-0.4,0.6
		c-2.5,3.7-5,7.5-7.6,11.2c-0.6,0.9-1.3,1.9-1.9,2.8l-0.5,0.7c-0.1,0.1-0.2,0.2-0.2,0.3l0,0.1l-0.1,0.1c-0.1,0.1-0.1,0.1-0.2,0.2
		c-0.4,0.5-0.7,1-0.9,1.5l-0.7,1.5l-0.1,0.2c0,0,0,0-0.1,0.1c-0.1,0.1-0.1,0.1-0.3,0.1c-0.2,0.1-0.5,0.1-0.7,0.2
		c-0.5,0.1-1.1,0.1-1.6,0.1c-0.6,0-1.1,0-1.7,0l-27.1,1l-0.1,0l-0.1,0.1c-0.3,0.3-0.5,0.6-0.8,0.9c-0.3,0.3-0.6,0.5-0.9,0.8
		c-0.6,0.5-1.2,1-1.8,1.4c-0.9-0.3-1.8-0.6-2.6-0.9c-0.9-0.3-1.8-0.6-2.8-0.8c-0.2-0.1-0.5-0.1-0.7-0.2c-0.2,0-0.5-0.1-0.8-0.1
		c-0.5,0.1-1,0.2-1.4,0.4c-0.4,0.2-0.9,0.4-1.3,0.3c-0.5-0.1-0.9-0.3-1.3-0.5l-0.1,0l-0.1,0l-2.4,1.1c0,0-0.1,0-0.1-0.1l-0.1-0.1
		l-0.2-0.1l-0.5-0.3l-1-0.6c-0.7-0.4-1.3-0.8-2.1-1.1c-0.2-0.1-0.4-0.1-0.5-0.2c-0.2-0.1-0.3-0.2-0.3-0.3c0-0.1,0-0.3,0-0.6
		c-0.1-0.1,0-0.3,0.1-0.5c0.2-0.7,0.5-1.5,0.7-2.2c0.5-1.5,1-2.9,1.5-4.4c0.1-0.4,0.2-0.6,0.5-0.8c0.3-0.2,0.7-0.2,1.1-0.5
		c0.3-0.3,0.5-0.7,0.7-1c0.1-0.3,0.3-0.6,0.4-1c0.8,0,1.5-0.1,2.3-0.2c0.4-0.1,0.8-0.2,1.2-0.3c0.4-0.1,0.7-0.3,1-0.6
		c3.3,0.5,6.6,0.9,9.9,1.1c3.4,0.2,6.8,0.3,10.1-0.1c0.8-0.1,1.7-0.2,2.5-0.4c0.8-0.2,1.7-0.5,2.5-0.7l4.8-1.7
		c1.6-0.6,3.2-1.1,4.8-1.6c1.6-0.5,3.2-1,4.8-1.1l0.3,0l0.1-0.3c2.7-6.8,5.4-13.6,8.1-20.3c0.8-1.9,0.6-3.3,1.4-5.2
		c0.4-1,1.8-2.6,2.2-3.6c1.4-3.3,2.7-6.6,4.1-9.9c0.5-1.1,0.9-2.2,1.4-3.2c0.1-0.1,0.1-0.3,0.2-0.4l0-0.1c0,0,0,0,0,0l0.1-0.2
		l0.5-0.7c0.3-0.5,0.7-0.9,1-1.3c0.7-0.8,1.6-1.5,2.6-1.9c1-0.5,2.1-0.7,3.2-0.7l0.5,0l0.1-0.5c0.1-0.8,0.2-1.5,0.3-2.3
		c0.1-0.4,0.1-0.7,0.2-1.1c0.1-0.4,0.2-0.8,0.2-1.3c0.1-0.8,0-1.7-0.3-2.6c-0.1-0.4-0.4-0.9-0.7-1.2c-0.2-0.2-0.3-0.3-0.5-0.5
		c-0.2-0.2-0.5-0.3-0.8-0.3c-0.5-0.1-0.8-0.1-1.1-0.2c-0.3-0.1-0.5-0.3-0.8-0.5c-0.1-0.1-0.2-0.2-0.3-0.3c-0.1-0.1-0.1-0.2-0.2-0.4
		c-0.1-0.2-0.3-0.4-0.4-0.5c-0.1-0.1-0.2-0.2-0.3-0.2c-0.2-0.1-0.4-0.2-0.7-0.3c-0.2-0.1-0.5-0.1-0.9,0c-0.4,0.1-0.6,0.3-0.7,0.4
		c-0.1,0.1-0.1,0.1-0.2,0.1c-0.1,0-0.2,0-0.3-0.1c-0.5-0.2-0.9-0.7-1.1-1.3c-0.2-0.6-0.2-1.3-0.1-2c0.1-0.7,0.4-1.4,0.7-2
		c0.3-0.7,0.7-1.1,1.2-1.6c0.6-0.5,1.2-1.1,1.7-1.7c0.3-0.3,0.5-0.6,0.7-1c0.2-0.4,0.4-0.7,0.6-1.1c0.3-0.8,0.6-1.6,0.8-2.3
		c0.2-0.8,0.3-1.6,0.3-2.4c0-0.4,0-0.8,0-1.2c0-0.2,0-0.4,0-0.6c0-0.2,0-0.4-0.1-0.7l-0.1-0.2l-0.2-0.2c-1.2-0.9-2.4-1.9-3.3-3.1
		c-0.4-0.6-0.8-1.2-0.9-1.8c-0.1-0.3-0.1-0.6,0-0.9c0.1-0.3,0.2-0.6,0.4-0.9c0.7-1.2,1.8-2.3,2.9-3.4c1.1-1.1,2.3-2.2,3.3-3.6
		l0.1-0.1l0-0.1c0.5-1.2,1-2.3,1.7-3.4c0.2-0.3,0.3-0.5,0.5-0.7l0.1-0.1l0.1-0.1l0.1-0.1c0.1-0.1,0.3-0.3,0.4-0.5
		c0.5-0.6,0.7-1.3,0.9-2c0.1-0.3,0.2-0.6,0.3-0.8c0-0.1,0.1-0.2,0.1-0.2c0,0,0.1,0,0.1,0c0.6-0.2,1.2-0.3,1.9-0.5
		c0.6-0.2,1.3-0.4,1.9-0.7c0.6-0.3,1.3-0.6,1.9-1.3l0-0.1c0,0,0.1-1.3,1.3-2.6l0.5-0.4c0.9-0.8,2.3-1.6,4.5-2
		c0.9-0.3,1.9-0.4,2.8-0.3c0.9,0.1,1.8,0.4,2.7,0.8c0.8,0.5,1.6,1.1,2.3,1.8l0.1,0.1l0.2,0.1c0.7,0.2,1.3,0.4,2,0.5
		c0.7,0.1,1.3,0.2,2,0.3c0.7,0.1,1.4,0.1,2.1,0c0.6-0.1,1.1-0.2,1.7-0.4c2.1,1.4,4.1,2.8,6.2,4.2c1.1,0.7,2.2,1.4,3.5,2.1
		c0.3,0.2,0.7,0.3,0.9,0.4c0.2,0.1,0.4,0.2,0.5,0.4c0.1,0.1,0.2,0.3,0.2,0.5c0,0.1,0,0.5,0,0.6c0,0,2.3,1.6,3.9,4
		c0.1,0.1,0.1,0.1,0.2,0.2c0.4,0.5,0.7,1,0.8,1.5c0.4,0.9,0.7,1.7,0.7,2.6c0.1,0.4,0.2,0.8,0.2,1.2c0,0.3,0,0.7,0,1.1
		c0,0.4,0,0.8,0,1.2c0,1.5,0.1,3.1,0.3,4.6c0.3,3,0.8,6.1,1.4,9c0.3,1.5,0.5,3,1,4.5c0.5,1.5,1.1,3,2,4.3c0.9,1.3,2.1,2.5,3.4,3.3
		c0.7,0.4,1.4,0.8,2.1,1.1c0.4,0.2,0.7,0.3,1,0.4c0.3,0.2,0.6,0.3,0.9,0.5c1.1,0.8,2,2,2.5,3.3c0.6,1.3,0.9,2.7,1.1,4.2
		c0.2,1.5,0.2,2.9,0.1,4.4c0,0.7-0.1,1.5-0.2,2.2c-0.1,0.7-0.2,1.5-0.5,2.1c-0.5,1.3-1.4,2.5-2.4,3.6c-1,1-2.2,1.8-3.5,1.9l-0.7,0.1
		l0.1,0.7l6.2,29l0.1,0.5l0.7,0l7.6-1.3l0.1,0l0,0c1.5-0.6,2.9-1.3,4.3-2.1c1.4-0.8,2.7-1.6,4-2.5c1.3-0.9,2.5-1.9,3.6-3
		c0.6-0.6,1.1-1.1,1.6-1.8c0.5-0.6,1-1.3,1.4-1.9l0.1-0.2l-0.1-0.2l-3.4-5.6c0.1-0.8,0.1-1.6,0.1-2.4c0-0.9,0-1.7,0-2.6
		c0-0.4-0.1-0.9-0.2-1.3c-0.1-0.4-0.1-0.7,0.1-1c0.3-0.7,1-1.2,1.6-1.5l0.2-0.1l0-0.1l0.5-1.4c1.2-1.1,2.5-2.2,3.8-3.2
		c0.3-0.2,0.7-0.5,1-0.7c0.4-0.2,0.7-0.4,1-0.3c0.3,0,0.6,0.2,0.8,0.5c0.2,0.3,0.4,0.6,0.6,1l0,0.1l0,0c0.2,0.1,0.3,0.2,0.5,0.3
		c0.2,0.1,0.3,0.1,0.5,0.2c0.1,0,0.2,0,0.2,0.1l0.2,0c0.1,0,0.2,0.1,0.3,0.1c0.4,0.3,0.7,0.8,1,1.3c0,0.5,0.2,0.9,0.5,1.2
		c0.1,0.2,0.3,0.4,0.6,0.5c0.1,0.1,0.2,0.1,0.3,0.2c0.1,0,0.2,0.1,0.3,0.1c0.3,0.2,0.6,0.4,0.8,0.7c0.2,0.3,0.3,0.7,0.5,1
		c0.1,0.2,0.1,0.4,0.2,0.6c0.1,0.2,0.1,0.4,0.3,0.6c0.1,0.2,0.4,0.4,0.5,0.5c0.1,0.1,0.2,0.1,0.3,0.2c0.1,0,0.1,0.1,0.2,0.1
		c0.2,0.2,0.4,0.5,0.4,0.9c0,0.2,0,0.4,0,0.5c0,0.1,0,0.2-0.1,0.3l0,0.1l-0.1,0.2c-0.5,1.6-0.9,3.2-1.3,4.7l-1.2,4.7
		c-0.1,0.3-0.3,0.6-0.4,0.8c-0.2,0.3-0.3,0.5-0.5,0.8c-0.4,0.5-0.8,0.9-1.3,1.3l-0.1,0l0,0.1c-2,3.1-4.2,6.2-6.5,9.1
		c-2.3,2.9-4.8,5.8-7.4,8.4c-1.3,1.3-2.7,2.6-4.1,3.8c-0.7,0.6-1.4,1.2-2.2,1.7l-0.6,0.4l-0.6,0.4c-0.4,0.2-0.8,0.5-1.2,0.7
		c-1.6,0.9-3.3,1.7-5.1,2.3c-1.7,0.6-3.5,1.1-5.4,1.3l0,0l0,0c-0.6,0.1-1.3,0.3-1.9,0.4c-0.6,0.2-1.2,0.4-1.8,0.7
		c-0.1,0.1-0.3,0.2-0.4,0.2c-0.1,0-0.2,0.1-0.3,0.1c-0.2,0-0.5-0.1-0.8-0.2c-0.5-0.3-1-0.7-1.4-1.1c-1-3-2-6-3.2-8.9
		c-0.3-0.7-0.6-1.5-1.1-2.2c-0.4-0.7-0.7-1.4-1.1-2.1c-0.7-1.4-1.4-2.8-2-4.3c-1.3-2.9-2.6-5.7-3.9-8.6c-0.6-1.4-1.2-2.9-1.8-4.4
		c-0.3-0.7-0.6-1.5-0.8-2.2c-0.3-0.7-0.5-1.5-0.7-2.2l-0.3-1.1l-0.4,1.1c-1.2,3-2.5,6.1-3.8,9.1l-1.9,4.5c-0.7,1.5-1.3,3-2,4.4
		c-0.4,0.8-0.6,1.7-0.7,2.5c-0.1,0.9,0,1.7,0.2,2.6c0.4,1.7,1.1,3.2,2,4.6c0.9,1.4,2,2.7,3.1,3.9c1.1,1.2,2.3,2.4,3.6,3.5l0,0l0,0
		c1.8,1.1,3.6,2.3,5.2,3.6c1.7,1.3,3.2,2.7,4.7,4.3c1.4,1.6,2.7,3.2,3.7,5.1c0.5,0.9,0.8,1.9,1.1,2.9c0.3,1,0.5,2,0.7,3.1
		c0.6,4.2,0.5,8.5-0.3,12.6c-0.4,2.1-1,4.1-1.8,6.1c-0.8,1.9-1.8,3.8-3.1,5.4c-0.6,0.6-1.3,1.1-2,1.6c-0.7,0.5-1.5,0.9-2.3,1.3
		c-0.8,0.4-1.6,0.7-2.4,1c-0.8,0.3-1.7,0.5-2.5,0.7l-0.7,0.1l0.1,0.7l1.7,8.6l0.1,0.3l0.3,0.2c0.1,0.1,0.3,0.2,0.5,0.3
		c0.2,0.1,0.3,0.3,0.5,0.4c0.3,0.3,0.6,0.6,0.8,1c0.2,0.4,0.4,0.8,0.5,1.2l0.1,0.3l0.1,0.4c0.1,0.2,0.1,0.5,0.2,0.7
		c0.3,1,0.6,1.9,1.1,2.8c0.4,0.9,0.9,1.8,1.6,2.6c0.3,0.4,0.7,0.8,1.2,1.1c0.5,0.3,0.9,0.5,1.3,0.7c0.9,0.4,1.7,0.8,2.6,1.3
		c0.8,0.4,1.7,0.9,2.4,1.4c0.8,0.5,1.5,1.1,1.9,1.8c0.1,0.2,0.2,0.3,0.3,0.5c0.1,0.2,0.2,0.4,0.3,0.6c0.2,0.4,0.4,0.8,0.5,1.3
		c0.3,0.9,0.6,1.8,0.9,2.7c0.3,0.9,0.5,1.8,0.7,2.8c0.2,0.9,0.3,1.9,0.3,2.7c0,0.2,0,0.4,0,0.7l-0.1,0.7c-0.1,0.5-0.1,0.9-0.2,1.4
		c-0.1,0.9-0.3,1.9-0.5,2.8c-0.3,1.9-0.7,3.8-1.1,5.6l-0.1,0.3l0.2,0.3c0.9,1.3,1.7,2.8,2.4,4.3c0.6,1.5,1.1,3.1,1.2,4.7
		c0,0.4,0,0.8,0,1.2c0,0.4,0,0.9,0,1.3c0,0.9,0,1.7,0,2.6c0,1.7,0.2,3.4,0.3,5.2c0.2,1.7,0.4,3.4,0.9,5.2l0.2,0.6l0.2,0.6
		c0.2,0.4,0.3,0.8,0.5,1.2c0.4,0.8,0.8,1.6,1.2,2.3c0.9,1.5,1.9,3,3.4,4.2c0.2,0.1,0.4,0.3,0.6,0.4l0.5,0.3c0.3,0.2,0.6,0.4,0.9,0.7
		c0.3,0.3,0.5,0.5,0.6,0.8c0.1,0.1,0.2,0.3,0.2,0.5c0,0.1,0.1,0.2,0.1,0.2l0,0.1c0,0,0,0.1,0,0.1l0.5,0.7c0.9,0.5,1.9,1,2.7,1.7
		c0.4,0.3,0.8,0.7,1.1,1c0.3,0.4,0.7,0.8,1,1.2c0.6,0.9,1.1,1.8,1.4,2.8c0.1,0.5,0.2,1,0.2,1.4c0,0.4-0.1,1-0.2,1.5
		c-0.3,1.1-0.6,2.2-0.7,3.4c-0.2,1.2-0.3,2.4-0.2,3.6c0,0.6,0.1,1.2,0.2,1.8c0,0.3,0.1,0.6,0.2,0.9l0.2,0.8c0.2,1.1,0.5,2.2,0.8,3.3
		c0.5,2.2,1.1,4.4,1.6,6.6c0.1,0.3,0.1,0.5,0.1,0.8l0,0.1l0,0.1c0,0.1,0,0.2,0,0.3c-0.1,0.5-0.2,1-0.4,1.5
		C229.9,427.8,229.5,428.9,229.1,429.9z"/>
	<path class="st13" d="M205.6,212l3.3,0.4c0,0-2.1,0.6-3.4,0.3C204.1,212.4,205.6,212,205.6,212z"/>
	<path class="st13" d="M139.8,244.3c-0.8-1.4-1.5-2.9-2.1-4.4c-0.3-0.7-0.6-1.5-0.8-2.3c-0.2-0.8-0.4-1.3-0.6-2.1l0.2,0.1
		c-0.7-0.4-1.3-0.8-1.9-1.3c-0.6-0.5-1.2-1-1.7-1.6c-1-1.1-1.9-2.5-2.3-4.1c-0.4-1.5-0.4-3.2,0.1-4.7c0.5-1.5,1-2.9,1.8-4.2
		c0.8-1.3,1.8-2.5,2.9-3.6c1.1-1.1,2.2-2,3.3-3c0.3-0.3,0.5-0.5,0.8-0.8c0.2-0.3,0.5-0.5,0.7-0.8c0.5-0.6,0.9-1.1,1.4-1.7
		c0.5-0.6,0.9-1.2,1.3-1.8c0.4-0.6,0.8-1.2,1-2c-0.1,0.7-0.4,1.4-0.8,2.1c-0.3,0.7-0.7,1.3-1.1,1.9c-0.4,0.6-0.8,1.2-1.3,1.9
		c-0.2,0.3-0.5,0.6-0.7,0.9c-0.2,0.3-0.5,0.6-0.7,0.9c-1,1.1-2.1,2.1-3.1,3.2c-0.5,0.5-1,1.1-1.4,1.6c-0.4,0.6-0.8,1.2-1.2,1.8
		c-0.7,1.2-1.2,2.6-1.6,4c-0.4,1.3-0.5,2.7-0.1,4c0.7,2.7,2.8,4.9,5.2,6.4l0.2,0.1l0,0.2c0.1,0.8,0.3,1.5,0.5,2.3
		c0.2,0.8,0.4,1.5,0.6,2.3c0.4,1.3,1.6,3.7,1.6,3.7C139.9,243.6,139.8,244,139.8,244.3z"/>
</g>
</svg>
