<?xml version="1.0" encoding="utf-8"?>
<!-- Generator: Adobe Illustrator 23.1.1, SVG Export Plug-In . SVG Version: 6.00 Build 0)  -->
<svg version="1.1" id="Capa_1" xmlns="http://www.w3.org/2000/svg" xmlns:xlink="http://www.w3.org/1999/xlink" x="0px" y="0px"
	 viewBox="0 0 350 500" style="enable-background:new 0 0 350 500;" xml:space="preserve">
<style type="text/css">
	.st0{fill:#09D198;}
	.st1{fill:#FFE8D7;}
	.st2{fill:#DBAF91;}
	.st3{fill:#079B6D;}
	.st4{fill:#068C60;}
	.st5{fill:#606060;}
	.st6{fill:#0CBA84;}
	.st7{fill:#86F7D1;}
	.st8{fill:#FFFFFF;}
	.st9{fill:#0BAD77;}
	.st10{fill:#0D9B68;}
	.st11{fill:#F7D7C1;}
	.st12{fill:#0CAA75;}
	.st13{opacity:0.47;fill:#0CBA84;enable-background:new    ;}
	.st14{fill:#7FEAC3;}
	.st15{fill:#12DB9D;}
	.st16{fill:#70D6AF;}
	.st17{fill:#06875C;}
	.st18{opacity:0.42;fill:#0BAD77;enable-background:new    ;}
	.st19{fill:#19BF7F;}
	.st20{fill:#898989;}
	.st21{fill:#777777;}
	.st22{opacity:0.36;fill:#0BA873;enable-background:new    ;}
	.st23{opacity:0.43;fill:#12DB9D;enable-background:new    ;}
	.st24{opacity:0.22;fill:#12DB9D;enable-background:new    ;}
	.st25{opacity:0.79;fill:#12DB9D;enable-background:new    ;}
	.st26{opacity:0.54;fill:#12DB9D;enable-background:new    ;}
	.st27{opacity:0.15;fill:#12DB9D;enable-background:new    ;}
	.st28{opacity:0.32;fill:#12DB9D;enable-background:new    ;}
	.st29{opacity:0.16;fill:#12DB9D;enable-background:new    ;}
	.st30{opacity:0.79;fill:#2DE0A4;enable-background:new    ;}
	.st31{fill:#09D390;}
	.st32{opacity:0.35;fill:#12DB9D;enable-background:new    ;}
	.st33{opacity:0.1;fill:#12DB9D;enable-background:new    ;}
	.st34{opacity:0.18;fill:#12DB9D;enable-background:new    ;}
	.st35{opacity:0.25;fill:#12DB9D;enable-background:new    ;}
	.st36{opacity:0.19;fill:#12DB9D;enable-background:new    ;}
	.st37{opacity:0.21;fill:#12DB9D;enable-background:new    ;}
	.st38{opacity:0.78;}
	.st39{fill:#E8FC97;}
	.st40{fill:#D887F9;}
	.st41{fill:url(#SVGID_1_);}
	.st42{opacity:0.72;fill:#FFFFFF;enable-background:new    ;}
	.st43{fill:#9312B2;}
	.st44{opacity:0.43;fill:#9C4FAF;enable-background:new    ;}
	.st45{fill:url(#SVGID_2_);}
	.st46{fill:url(#SVGID_3_);}
	.st47{fill:url(#SVGID_4_);}
	.st48{opacity:0.78;fill:#E8FC97;enable-background:new    ;}
	.st49{fill:url(#SVGID_5_);}
	.st50{fill:url(#SVGID_6_);}
	.st51{fill:url(#SVGID_7_);}
	.st52{fill:url(#SVGID_8_);}
	.st53{fill:url(#SVGID_9_);}
	.st54{fill:url(#SVGID_10_);}
	.st55{fill:url(#SVGID_11_);}
	.st56{fill:url(#SVGID_12_);}
	.st57{fill:url(#SVGID_13_);}
</style>
<g>
	<g>
		<path class="st0" d="M135.7,247.5c0,0-5.5,9.7-7.1,10.4c-1.6,0.7-6,2.1-9.5-0.1c-3.6-2.2-8.6-4.9-11.2-7.6
			c-2.6-2.6-6.4-6.3-6.8-6.7s-5.7-7.5-6.1-8c-0.3-0.6-5.2-8.8-5.2-8.8l-3.4-6.7l-0.8-2.1l7.5-8.4c0,0,5.3,11.9,12.4,19.4
			s17.4,12.6,17.4,12.6l3-4.1l2.6-5.7l3.2,1.5L135.7,247.5z"/>
		<path class="st0" d="M226.8,256.1c0,0,5.8,5.4,9.2,6s9,1.1,12.8-1.4l4.7-4.4l5.2-7.2l4.9-7.6L269,230c0,0,3.4-10.9,3.4-11.5
			s0.8-7.2,0.8-7.2s0.2-11.9-1.1-13.2c-1.2-1.2-4.1-5-5.5-5.7c-1.4-0.6-3.2,0.6-3.1,1.1c0.2,0.5,1.1,14.5,1.1,14.5l-2,9.9l-3.5,7.6
			l-4.6,7.8c0,0-5,6-5.7,6.7c-0.6,0.8-4.6,4.1-5,4.6s-2.1,1.4-2.6,1.4l-2.4-0.2l-5.5-2.1l-4.7,6.1L226.8,256.1z"/>
		<path class="st1" d="M159.3,192.7c0,0,0.3-4-0.5-5s-2.7-6.4-3.4-11.8c0,0,0.3,0.3,1,0.3s8.2-1,10.4-1s6.6,0.5,6.6,0.5
			s4.2,0.3,6,0.9c0,0,0,5.9-2.7,10.8l-0.2,5.1L159.3,192.7z"/>
		<path class="st2" d="M163.2,182.2c0,0,0.8-0.3,2-0.5c0.9-0.1,0.8,0,3.1,0s2.4,0.2,3.2,0.5c0,0-1.7-1.6-2.5-1.9
			c-0.9-0.3-1.2,0.7-2.3,0.2h-0.1c-0.1-0.1-0.6-0.4-1.9,0.5C163.8,181.7,163.8,181.9,163.2,182.2z"/>
		<path class="st2" d="M164.6,183c0,0,1.5,0.5,3,0.5c1.4-0.1,2.4-0.2,2.6-0.5s-0.3,1.7-2.8,1.7C166,184.6,164.8,183.8,164.6,183z"/>
		<path class="st2" d="M164.9,177.3c0,0,0.4,0.5,1.1,0.5c0,0,0.6,0.1,1.2,0.6c0.4,0.3,0.9-0.2,1.2-0.4s1,0,1.5-0.5s0-0.6,0-0.6
			s-1.3,0.5-2.4,0.4c-1.1-0.1-0.9-0.1-1.5-0.4C165.2,176.8,164.9,177.3,164.9,177.3z"/>
		<path class="st3" d="M155.4,175.9c0,0-0.4-5.4,0.5-8.4s2.4-6,2.8-6.3s2.5-2.4,2.5-2.4l0.8,3l1.8,4.8l4.1,5.2l4.3,3.7
			c0,0-3.3-4.8-3.9-5.8c-0.6-1-2.9-4.8-3.7-7.3s-0.8-3.1-0.8-3.1s3.2,7.2,6.3,9.7l-1.3-3.2l-2.5-6.3l2,2.5l2.9,3.4l2.4,1.5
			c0,0,1.7,2.7,1.9,3.1s0.9,3.9,0.9,3.9s0.5-5.7,0.5-6.5s1,2.9,1,2.9l0.7,5.1l1.1-5.8c0,0,0.2,5.8-0.2,7c0,0-2.3-1.1-6.5-1.1
			l-4.1-0.3h-3.4l-7.6,0.8l-2.2,0.5L155.4,175.9z"/>
		<path class="st4" d="M174.9,175.7l-0.9-4.1c0,0-2.8-5.2-3.2-5.7c-0.5-0.6,1.8,9.7,1.8,9.7s-4.7-3.9-6.5-8.1
			c-1.8-4.2-2.3-8.2-2.3-8.2l4.4,0.3l6.7,4.2l4,4.2c0,0,0.8,6,0.8,6.3s0.9,2.8,0.9,2.8L174.9,175.7z"/>
		<path class="st5" d="M158.5,188.2c0,0-8.9-8.3-9.3-10.9s0.6-12.8,6-23.1c0,0,4.3-0.8,5.4-0.7c1.1,0.2,3.1-4.2,5.4-4.3
			s5.8,0.3,5.8,0.3s6,1.6,9.5,7.1s5.3,8.4,5.7,9.3c0.4,0.8,1.4,2.4,3.7,3.4s5.2-0.1,5.2-0.1s-4.2,3.5-5.1,3.7s0.3,1.5,0.3,1.5
			s1,1.5,3.1,1.1c2.1-0.3,3.6-0.5,3.6-0.5l-3.3,2.2c0,0,2.4-0.2,2,0.2s-3.4,2.9-3.4,2.9s2.8,0.1,2.7,0.5c-0.2,0.4-5.4,3.4-5.4,3.4
			l-13.6,3.1c0,0,2.7-5.1,2.9-11.8V170l-1,4.7c0,0-0.5-4.1-0.9-5.7c-0.4-1.5-0.8-1.1-0.8-1.1l-0.5,5.7c0,0-1.2-6-2.8-7
			c-1.6-1.1-6.3-5-7.3-7.4c0,0,1.1,5.2,4.6,10.1c0,0-5-4-7-10.3c0,0,1.1,7.3,8.4,16.3c0,0-9.4-6.6-10.9-16.7c0,0-4.2,2.1-5.6,9.8
			c-1.4,7.7,1.9,16.7,2.4,18.2S158.5,188.2,158.5,188.2z"/>
		<path class="st0" d="M170.5,293.8H167l-3.9-8.6l-4.5-11.8l-4.8-6.8c0,0-4-4.7-5.8-5.3c0,0,2.4-4.5,3.4-6.1s2.2-4,2.6-5.8
			c0.5-1.8,0.3-5.4,0.3-5.4v-5.4l-8-8.7c0,0-4.4,9.1-7.1,12.2c0,0-4,6.1-11.6,11.5l-4.7,0.5l-3.8-5.7c0,0,6.8,0.2,7.7-0.3
			c0.9-0.5,3.9-2.5,3.9-3.8s-0.2-7-3.1-10.8l2.3-4.8c0,0,3.6-8.4,4.4-10.9c0.8-2.5,1.6-7.2,1.7-7.8s1.7-3.8,3.1-4.2s4.5-1,4.5-1
			l4.8-1c0,0,7.9-1.3,10-7.5l1-3.5l17.2-0.1c0,0,0.1,4.6,1.3,6.2s7.2,5.5,12.3,6.7s8.8,1.8,9.4,2.7c0.7,0.9,4.3,2.9,4.3,2.9
			l8.1,11.5l6.4,7l3.4,4.1c0,0,16.7,13.4,16.5,16.4s-5.5,8.3,2.9,12.8l-13.3-6.6c0,0-23.9-19-32-28.1c0,0-6.6,11-6.7,12.2
			c-0.1,1.1-0.8,7-1.6,8.3s-0.5,2.9-0.5,2.9l1.4,6.3c0,0,1.5,3.6,1,5.2c0,0-8.5,1.5-13.6,15.4S170.5,293.8,170.5,293.8z"/>
		<path class="st6" d="M112.3,241.9c-0.3,0.4,7.8,6.3,10.6,7.9c4.6,2.7,5.7,0.4,11.5-9.1c1.7-2.8,9.9-17.5,12.1-20
			c0,0-0.7,6.1,0,9.2c0,0-6.5,14.5-12.3,20.3l-5.5,7.7l-6,1.4l-8.9-4.4l-7.6-5.9L112.3,241.9z"/>
		<path class="st3" d="M90.9,204.3c0,0,5,17.7,23.1,32.2c0.9,0.7-4.6,10.7-8,11.8c0,0-1.6-1.4-2.9-2.4c0,0-9.6-11.8-14.5-21.3
			S80,200,80,200s-1.2-11.5-1.2-14.6c0-2.5-0.3-3.2-0.3-3.2l5.6-5.1c0,0,1.7-0.4,2.3-0.2c0.7,0.2,0.9-1,1.2-1.2s1.4-0.3,1.4-0.3
			s1,0.2,1,0.8c0.1,0.6,0.2,2,0.1,2.2s0.3,1.3,0.3,1.3l1.6,0.9l-0.5,1.7c0,0,1.9,1,1.9,1.4s-0.5,2-0.5,2.2s-1,2.7-1,2.7
			s-1.4-0.3-1.5-0.5c0-0.2-0.1,2.2-0.1,2.2s-0.5,3.6-0.6,4s-0.8,2-0.8,2.3c-0.1,0.4,0,1.9,0,1.9S89.6,202.5,90.9,204.3z"/>
		<path class="st7" d="M151.9,363c0,0,5,0.9,7.8,0.8s9.9-1.5,10.4-3s-1.3-5.7-1.3-5.7s-1.1-7.2-0.9-8.9s0.9-6.2,0.9-6.2l0.3-7.5
			c0,0,0.1-23.6-0.5-25.8c-0.6-2.2-1.8-12.8-1.8-12.8l-3.2-7.7l-2.3-6.3c0,0-6.2-14.8-13.5-18.5l-3.2,7.6l-2.8,11.7l-0.3,18.2
			l2.1,8.1l6.4,19.5l3.1,6.7c0,0,0.6,3.8,0.6,4.1s0.2,10.2,0.2,10.6s-0.8,4.6-0.9,5.3s-0.9,4.4-0.9,4.9S151.9,363,151.9,363z"/>
		<path class="st8" d="M159.1,171c0,0,2.4-1.2,3.5-1.1s1.8,0.6,1.8,0.6s0.6,1.1,0.5,1.1S161.6,171.8,159.1,171z"/>
		<path class="st8" d="M175.7,171c0,0-2.4-1.2-3.5-1.1s-1.8,0.6-1.8,0.6s-0.6,1.1-0.5,1.1S173.2,171.8,175.7,171z"/>
		<path class="st7" d="M189.9,346.5c0,0-5.4,4-10.9,1.7s-7.2-4.7-8-6.6c-0.8-1.8-0.2-8.1-0.9-10.7c-0.8-2.6-1.1-28.7-1.1-28.7
			l0.8-6.9c0,0,5-14.9,6-17s5.6-12.9,13.6-15.4l3.6,7c0,0,5,15,5,20.9c0,6-1.1,12.8-1.1,12.8l-2.6,13.8l-3.1,12.8l-1.7,5.8
			C189.8,336.1,191.6,340.3,189.9,346.5z"/>
		<path class="st3" d="M273.1,211.3c0,0-0.5,12-4.5,20.5c-1.3,2.7-3.2,8.8-8,15c0,0-8.8-4.4-7.6-11.5c0,0,13.4-13.4,11.2-39.5
			c-0.2-2-1.9-13.3-7.5-13.7l-0.2-1.7c0,0-5.2-0.4-6.3-2.5c0,0,0.4,1.1-0.1,1.4s-3.2-0.5-3.2-0.5s-0.9-0.1-1-0.7s-0.1-1.6-0.1-1.6
			s-1.4-0.1-1.5-0.6c-0.1-0.6-0.1-1.1-0.1-1.1s-2.5,0.4-2.6-1s1.6-2.6,1.6-2.6l1.4-0.8l0.4-1.4c0,0,3.2-1.9,3.9-2.5
			c0.6-0.6,1.3-0.2,1.3-0.2l3.4,2.2c0,0,8.2,5.6,8.6,6.1s2.7,3.3,2.7,3.3l5.4,9.3l3.4,13.1C273.5,200.2,273.4,210.8,273.1,211.3z"/>
		<path class="st3" d="M171.6,436.6c0,0-6.7,0.7-6.7-3.7s2.5-13,1.9-15.8s-1.9-5.6-1.9-5.6l-0.7-6.8c0,0-0.8-3.1-1-3.6
			s-5-15.8-5-16.2s-4.6-15.8-4.8-16.2s-1.4-5.8-1.4-5.8s7.5,0.9,9.9,0.6s8.4-2.8,8.4-2.8l1.1,3.7l0.3,6.7l0.7,20.2l0.3,13.5
			c0,0,0.7,1.9,1.4,3.7s1,2.6,0.5,3.7s-0.7,2.8-0.5,3.1s1.5,4.8,1.5,4.8s-0.5,4.2-0.5,5.2c0,0.9,0.1,2.8,0.7,3.8s-0.7,6.3-1.1,6.7
			C174.4,436,171.6,436.6,171.6,436.6z"/>
		<path class="st3" d="M172,389.9c0,0,2.4,0.5,3.8-0.9s3-7.3,3-7.7s0.6-8.3,0.6-8.3s-0.2-3.7,0.2-4.2c0.5-0.6,1.7-1.5,1.7-1.8
			s0-3.4,0-3.4s2.8-4.4,2.9-4.7s5.7-10.6,5.7-11.5s0.5-2.1,0.5-2.1s-1.4,3.3-7.1,3.8s-11.6-5.1-12.1-7.5c0,0-0.7,2-0.5,6.3
			c0.2,4.2,0.9,6.7-0.5,10.7l1.1,10.1L172,389.9z"/>
		<path class="st4" d="M112.3,241.9c0,0-25.9-21.8-26.8-45.9c0,0,2.9-4.1,3-8.7c0,0-1.1,0.8-2.4-1.2s-3.4-3.6-3.4-3.6l-4.1-0.3
			l0.4,12.1c0,0,1.7,11.2,6.6,23.8s20.5,31,20.5,31S109.4,246.1,112.3,241.9z"/>
		<path class="st9" d="M78.6,182.1c0,0,1.6,0.4,2.5,0.2c0,0-0.1,1.7,1.6,1.5s-0.4,1.3,3.1,2.4c0.4,0.1,0.7,0.6,1,0.8
			c1.4,0.8,0.9,0.7,2.9-1c1.2-1.1,4-2.5,4-2.5l-1.9-1.4c0,0,0.7-1.3,0-1.8s-1.8-1.5-1.8-1.5s-0.1-1.6-0.7-2s-1.1-0.6-2-0.3
			c-0.8,0.3-1.8-0.1-2.5,0.1C84.2,177,78.6,182.1,78.6,182.1z"/>
		<path class="st9" d="M245.7,178.1l4.3-2.4c0,0,1.8-1.8,1.6-2.3s-1.6-0.5-1-1.6s-0.2-3.4-0.8-3.9c-0.6-0.4-0.7-2.1-0.7-2.1
			l-4.4,3.2l-0.4,1.4l-1.9,1.5v1.7l1.9,0.5l-0.2,1.8l1.5,0.6L245.7,178.1z"/>
		<path class="st9" d="M89.4,194c0,0-1.6,1.9-4,2c0,0,3.3,0.5,3.9-0.5L89.4,194z"/>
		<path class="st9" d="M113.3,239.4c0,0-20.3-19.6-21.1-32.7c0,0,4.4,16.4,21.7,29.8C113.9,236.5,114.1,236.5,113.3,239.4z"/>
		<path class="st10" d="M146.4,220.8c0,0-9.9,24.5-12.8,30.2c0,0,9.6-13,12.7-21C146.3,229.9,145.6,224.2,146.4,220.8z"/>
		<path class="st6" d="M162.6,192.5l14,0.1c0,0-0.3,6.6,3.9,9.1C180.5,201.6,170.4,204.9,162.6,192.5z"/>
		<path class="st11" d="M162.6,192.5l-3.1-4.1c0,0,3.9,2.4,10.2,1.8c0,0,5.2-0.6,7-2.8l-0.2,5.1H162.6z"/>
		<path class="st11" d="M159.5,188.4c0,0,7.9,1.5,9.9,0.9s3.2-0.5,4.2-3.3c1-2.9,1.8-6.5,2.1-10.2l3.8,0.8c0,0-0.8,8.3-3.2,10.9
			c-2.4,2.6-3,3.3-3.7,3.3s-6.4,0.1-7,0.1S159.5,188.4,159.5,188.4z"/>
		<path class="st4" d="M157.9,176c0,0-1.1-8.6,1.8-15.6c0,0-5.4,4.3-4.1,16.1L157.9,176z"/>
		<path class="st4" d="M254.4,241.3c0,0,9.5-17.1,11.6-30.6c2.4-15.5-4.4-28.1-5.5-29.8l-10.4-5.2c0,0,0.9-0.7,0.6-1.8
			c-0.3-1.1,0-1.2-0.4-2.3c-0.2-0.6-0.7-0.9-0.4-2.4c0.1-0.6-0.7-1.6-0.7-2c0-1.3,0.1-1.4,0.1-1.4l12.8,8.8c0,0,11.6,10.1,11.6,29.1
			c0,24.8-13,43.2-13,43.2S256.5,244.6,254.4,241.3z"/>
		<path class="st12" d="M146.3,221.7c0,0,2.9,9.9,19.2,7.1c0,0,3.8-0.9,7.2,0.3c0,0-10.4,1.2-13.8,3.3c0,0,3,13.7,1.8,19.5l-7,14.7
			c0,0-0.3-1.7-5.8-5.3c0,0,5.4-8.1,6.1-11.9c0.8-4.4,0.3-10.8,0.3-10.8l-8-8.7V221.7z"/>
		<path class="st13" d="M172.8,286.8c-1.1,0-4.8-8.3-5.5-11.7c-0.7-3.4-3.9-13.8-3.7-19.3c0.2-5.5-1.2-23.5-2.1-24.4
			c-0.9-0.9-10.7-4.7-8.4-15.8c1.6-7.6,8.8-18.7,7.8-22.9l-1.6-0.1c0,0-1.2,8.6-7.4,10.2c-6.2,1.6-11.4,1.3-12.8,2.9
			c-2.5,2.7-3,5.6-3.2,6.3s-9.4,24.7-9.4,24.7l-3.7,4.9c0,0,1.8,8.3,1.9,8.8c0.2,0.7,1.2,0.3,1.2,0.7c0.1,2.6,8.1-0.9,8.1-0.9
			l12.3-20.3l8,8.7c0,0,0.8,7.1-0.3,10.8s-6.1,11.9-6.1,11.9s5.6,2.8,9.1,9.6c3.4,6.9,8,17.9,8,17.9l1.9,4.9h3.6L172.8,286.8z"/>
		<path class="st6" d="M157.7,229.9c0,0,4.9-1.6,9.7-3.1c5-1.5,9.5-0.9,12.9,0.3s15.3,1.6,15.9-4.9c0,0,1.9,5.2-5.1,14.4
			c-1,1.4-9.7-9.6-21.8-7C162.6,231.1,157.7,229.9,157.7,229.9z"/>
		<path class="st13" d="M159.1,235.9c0,0,14-7.2,31.8,1.1c0,0-8.4-6.5-12.2-7.3c-1.5-0.3-8.4-1.4-17.1,1.7
			C157.1,233,159.1,235.9,159.1,235.9z"/>
		<path class="st6" d="M189.6,262.9c0,0-0.2-2.4-1-5.2c-0.8-2.8-2.3-5.7-0.3-11.5c2-5.7,2.3-9.6,2.3-9.6l-3.3-2.1c0,0-2,5.5-1.7,8.3
			c0.2,2.8-1.1,6.4-0.2,8.7s3,10.8,2.5,12.2L189.6,262.9z"/>
		<path class="st14" d="M169.3,297.5c0,0,5.2-13.8,13.5-19c0,0-0.3-6-0.6-9c-0.3-2.8-2.1,1.4-2.1,1.4s-4.6,8.3-6.1,12.8
			C172.4,288.3,169.3,297.5,169.3,297.5z"/>
		<path class="st15" d="M191.5,224.9c-1.9-1.6,0.2-7.1-0.6-11.4c0,0-0.5-1.6,0.3-1.6c1,0,2.9,6.4,3.4,8.8c0.2,1.3,0.6,3.2-0.1,4
			C193.8,225.2,192.4,225.7,191.5,224.9z"/>
		<path class="st15" d="M177,223.7c-0.9-0.2-6.9-0.5-10.7-0.4c-2.7,0.1-1.8,0.8-0.4,0.6s6.5-0.1,9,0
			C177.4,224,180.3,224.2,177,223.7z"/>
		<path class="st14" d="M187.7,263.7c0,0,7.1,28.7-3.4,59.4c0,0-1.8,4.1-0.5,7.3s3.5,4.1,5.2,6.1l5.5-19.1c0,0,4.3-19.9,3.7-26.6
			s-4.9-19.1-5-20.9l-3.6-7L187.7,263.7z"/>
		<path class="st16" d="M171.1,341.6c0,0,0-6.1,3.7-7c0,0,0.3,5.2,0.9,8c0.6,2.8,7.6,4.3,10.4,2.1c2.8-2.1,2.9-8.1,2.9-8.1
			s1.9,3.9,1.8,6.3c-0.1,2.7-1,4.6-1,4.6s-5.9,0.9-8.7,1.8S171.4,343.1,171.1,341.6z"/>
		<path class="st17" d="M172,389.9c0,0,5.8-0.3,6.8-8.6c0.7-6.7-1-10.7,0.8-12.5c2.9-2.9,0.6-2.6,1.7-5.3c1.1-2.7,7.4-12.2,8.8-16.8
			c0,0-13.5,6.1-19-5.2c0,0-1,2.8-0.5,6.3s0.3,9.2-0.6,12.2C170.1,360,173.5,381.1,172,389.9z"/>
		<path class="st14" d="M164.1,335.6c0,0-6.5,0.4-11.6-19.1c-4.6-17.7-11-26.3-10.7-32.1c0.3-5.8-3.1,16.2,5.8,35.2
			c8.9,19,5.6,13.6,5.6,13.6s1.7,9.4,0.8,14.7c-0.9,5.3-2.1,15.1-2.1,15.1s7.3,1.5,12.5,0.3c6.1-1.4,0.9-10.4,0.9-10.4L164.1,335.6z
			"/>
		<path class="st16" d="M153.8,266.6l7.9,29.4c0,0,4,35.8,2.4,43.4c0,0-2.1,5.2-1.8,8.3c0.3,3.1,2.1,15.6,2.1,15.6l5.8-2.5
			c0,0-2-10.3-2.1-12.5s1.2-10.4,1.2-10.4V322c0,0-1.6-23.6-2.3-28.2l-5.5-14C161.5,279.8,158.1,270.6,153.8,266.6z"/>
		<path class="st7" d="M158.6,335.6c0,0-2.1,3.7-0.3,6.7s4.4,9.3,4.4,6.3c0-3.1,0.8-7,1.4-9.2c0.6-2.1,0.2-5.2,0.2-5.2
			C161.3,333.9,159.8,334.2,158.6,335.6z"/>
		<path class="st4" d="M164.4,363.3l5.8,46.8c0,0,0.6,4.6,1.2,6.4c0.6,1.8,3.7,8.8,4.4,12.5c0,0-1.7-13.8-1.3-16.9
			c0.5-3.1-0.5-3.7-0.5-3.7l-1.1-9.7l-0.6-7.5c0,0-0.9-24.8-2.2-30.5L164.4,363.3z"/>
		<path class="st9" d="M166.6,422.1c0.2-1.4,0-4.6,3.2-4.6s3.4,8.9,3.4,8.9s2.1,6-0.5,7.6c-2.5,1.6-7.6,0.2-7.9-1.1
			C164.6,431.6,166.6,422.1,166.6,422.1z"/>
		<path class="st18" d="M156.3,233.3c0,0,11.9-4.7,16.4-4.2s7.6,0.5,11.6,3.4s6.5,4.5,6.5,4.5l-1.6,3.2c0,0-1.1,7-2.3,9.7
			c0,0,0.4,5.5,1.6,7.7c1.3,2.2,1,4.3,1,5.2c0,0-10.2,1.3-16.7,24l-2.3,7H167l-3.9-8.6l-3.2-9.4c0,0-5.3-11.5-11.9-14.5
			c0,0,4.9-8.2,5.5-9.7s1.1-4.4,1.1-4.4l-0.1-8.6l-5.2-5.8C149.1,232.8,151.4,234.2,156.3,233.3z"/>
		<path class="st9" d="M165.9,409.2c0,0,1.8,1.1,5.2-0.5c0,0,0.5-0.3,0.1-0.3c0,0-2.7,1.5-5.2,0.7
			C165.9,409.1,165.7,409.1,165.9,409.2z"/>
		<path class="st9" d="M153.9,366.7c0,0,10.2,0.8,15.1-1.5C168.9,365.2,159.5,366.7,153.9,366.7z"/>
		<path class="st19" d="M166.8,433.4c0,0,1.1,1,2.8,1.1c0,0,2.7,0.1,3.6-1.3c0,0-1.6,1.1-3.4,1C168.3,434.2,167.7,433.8,166.8,433.4
			z"/>
		<path class="st9" d="M155.8,367.7c-0.1,0.3,7.7,28.8,7.7,28.8l-5.6-28.9L155.8,367.7z"/>
		<polygon class="st9" points="157.7,366.8 157.3,363.7 154.8,363.5 155.6,366.8 		"/>
		<path class="st20" d="M178.4,157.7c0.6,0.6,3.1,4.9,4.7,8c1.6,3.1,8.9,8.1,14.6,1.7c0,0-6.1,7.2-12-4.2
			C179.7,151.7,178.4,157.7,178.4,157.7z"/>
		<path class="st20" d="M180,170.6c0,0,0.4,4.3,2.8,6c0,0-1.5-3.1-1.5-4.5c0,0,1.8,4.1,6.4,5.2c0,0-3.3-1.9-4.2-3.8
			c0,0,4.8,3.8,10.5,3c0,0-7.3-1.6-9.4-4.5c0,0,5,0.5,8.2-0.9c0,0-7.6,1.2-10-2.1s-3.2-4.4-3.2-4.4L180,170.6z"/>
		<path class="st21" d="M164.2,159c0,0,3.5-1.1,5.4,0.5c0.5,0.4,4.7,2.6,7.4,8.7c0,0-2.8-8.2-8.3-11.4c0,0,5.8,0,11.4,11.9
			c0,0,2.3,3,4.6,4.1c0,0-3.1-2.8-5-7.3c-1.8-4.6-6-10.2-9.4-11.3c0,0,5,0.9,12.8,9.4c0,0,7.2,10.2,12.8,5.8c0,0-5.9,3.4-12.1-8.3
			c0,0-12.3-21.6-22.5-7.4L164.2,159z"/>
		<path class="st21" d="M164.2,159c0,0-2.7-3-6.3,0.2c0,0-3.9,3-3.9,12.5c0,0,0.1,3.4,0.8,8.4c0,0-2.8-5.7-1.6-16.1
			c0,0-1.3,4.4-1.8,8.4c0,0-1.7-7.8,2.1-15.4l1.9-2.8c0,0,3.5-1.6,5.9-1.1L164.2,159z"/>
		<path class="st5" d="M162.4,155.6c0,0-2.1-0.5-4.1,1.1c-2.1,1.6-3.6,5.8-4,12c0,0,1.4-13.2,8.8-11.9L162.4,155.6z"/>
		<path class="st5" d="M162.7,155.9c0,0,1.7-3.7,8-4c0,0-4.9-1.2-8.5,3.3L162.7,155.9z"/>
		<path class="st5" d="M162.9,156.8c0,0,6.1-4.4,13.8,1.8c0,0-6.2-6.1-14.3-3L162.9,156.8z"/>
		<path class="st5" d="M161.9,154.7c0,0-3.9-1.5-8.5,2.3c0,0,3.7-4.1,7.3-3.4L161.9,154.7z"/>
		<path class="st5" d="M162.3,155.5l-0.7-1.3c0,0-1.3-0.5-3.8,1.8C157.9,156,160.7,154.2,162.3,155.5z"/>
		<path class="st5" d="M153.6,162.8c-0.2,0.4,1.4-5,3.3-6.6C156.9,156.3,154.5,160.3,153.6,162.8z"/>
		<path class="st21" d="M154.9,181.7c0.3,0.3-2.6-5.4-2.9-9.3c0,0,0.2,4.5,0.6,5.4S154.4,181.2,154.9,181.7z"/>
		<path class="st5" d="M153.1,174.9c0-0.3,0.8-9.3,2.5-12.7c0,0-2.1,4.4-2.8,10.1L153.1,174.9z"/>
		<path class="st21" d="M162.6,157.6c-0.6,0.1,0.6,4.5,2.4,8c1.8,3.6,7.9,10.6,7.9,10.6s-5.6-7.1-7.3-11.4c-1.7-4.2-2.2-6-1.7-6.5
			C164.3,157.9,162.6,157.6,162.6,157.6z"/>
		<path class="st21" d="M162.3,155.5c0,0-3.7,0.5-4.9,3.7c0,0,2.2-2.9,5.3-2.8L162.3,155.5z"/>
		<path class="st5" d="M180.7,166.6c-0.3-0.2-4.2-8.7-10.8-10.6c0,0,4.6,0.5,7.6,4.6C180.5,164.6,180.7,166.6,180.7,166.6z"/>
		<path class="st5" d="M170,152.7c0,0,6.8-0.5,13.2,8C183.1,160.7,177.3,153.6,170,152.7z"/>
		<path class="st21" d="M164.2,159c0,0,3.7,7.3,6.7,10.6c0,0-5.3-8-5.7-11.2C164.6,155.2,164.2,159,164.2,159z"/>
		<path class="st21" d="M172.5,165.9c0.2,0.2-5-9.4-6.3-7.3C166.2,158.5,171.4,164.9,172.5,165.9z"/>
		<path class="st21" d="M176.4,173.9c0,0-0.8-10.4-6.3-14.5l3,2.1c0,0,3.4,3.6,3.4,7.1C176.6,171.1,176.7,172.5,176.4,173.9z"/>
		<path class="st21" d="M158.3,160.6c0.2-0.2-2.4,3.4-2.6,8.6C155.7,169.2,154.9,163.1,158.3,160.6z"/>
		<path class="st20" d="M152.9,170.4c0,0,0-8.4,3.7-11.9C156.7,158.4,153.1,165.9,152.9,170.4z"/>
		<path class="st20" d="M162.6,155.9c0,0,1.7-1.1,4.7-0.8s6.8,2.5,6.8,2.5s-7.3-3.5-11-0.5L162.6,155.9z"/>
		<path class="st20" d="M162.6,155.9c0,0,1.2-1.6,3.8-2.7c2.6-1.1,7,0.2,10.6,2.1c0,0-9.6-4.2-13.2,0.5L162.6,155.9z"/>
		<path class="st20" d="M176,163.6c0,0,3.2,6.7,2.7,11.3c0,0,0.9-5.2,0.3-6.9c-0.6-1.7-3.6-7-5-8.2L176,163.6z"/>
		<path class="st21" d="M183.9,167.9c-1.7-1.5-7.8-11.6-9.7-12.4s4.2,2.2,4.2,2.2L183.9,167.9z"/>
		<path class="st20" d="M164.4,156.5c0,0,4.6-0.6,7,2.7c0,0-3.4-2.6-8-1.3l-0.5-1.4H164.4z"/>
		<path class="st20" d="M161.9,154.7c0,0,2.9-5.3,8.9-4.8c0,0-5-1.8-7.9,0.8s-1.3,3.4-1.3,3.4L161.9,154.7z"/>
		<path class="st20" d="M163.9,159c0,0,0,2,0.6,3.6c0,0-1.6-4.3-1.5-5.7C163.1,155.4,163.9,159,163.9,159z"/>
		<path class="st20" d="M162.8,156.4c0,0-1.9,0.1-2.9,0.8c0,0,0.6-0.9,2.7-1.2L162.8,156.4z"/>
		<path class="st5" d="M165.4,159.6c0,0-0.9-1.9-1-2.1c-0.1-0.2,1.1,0.4,1.7,1s1.2,1.9,1,1.9S165.4,159.6,165.4,159.6z"/>
		<path class="st20" d="M164.7,157.4c0,0,2.3,0.9,3.6,2.4c0,0,1.2,1.5,1.7,1.9c0,0-2.6-4.1-3.2-4.4
			C166.2,157,164.7,157.4,164.7,157.4z"/>
		<path class="st20" d="M163.2,157.4c0,0-0.5,1.8-0.3,3.3c0,0-0.7-2.4-0.6-2.9c0,0-1-0.3-2.1,0s2.4-1,3.2-0.9
			S163.2,157.4,163.2,157.4z"/>
		<path class="st21" d="M163.8,158.7c0,0-0.4-1.5-0.5-1.8s1.1,0.6,1.1,0.6l0.5,1.4L163.8,158.7z"/>
		<path class="st21" d="M167.4,159c0,0-2.3-1.8-2.8-1.9l2.1,2.2L167.4,159z"/>
		<path class="st5" d="M172.4,176c0,0,1.3,1.1,1.7,1.4c0,0-0.8-1.1-1.1-1.4c-0.3-0.3-0.6-0.5-0.6-0.5L172.4,176"/>
		<path class="st4" d="M250.2,175.7c0,0-3.8,1.7-3.3,2.8l-1.3-0.3l-0.2-1.8l-0.6-0.1l-0.5-0.5l-0.2-0.9l-1.6-1.2l-0.2-2.2l2.1-1.1
			l0.4-1.4l5.2-2.7l1.7,3.2l0.9,4.9L250.2,175.7z"/>
		<path class="st0" d="M122.8,241.6l0.9-0.6c0,0,2.6,6.9,2.6,8.3c0,0-2.6-5.5-2.9-5.9s0,3.4,0,3.4l-1.7-1.9L122.8,241.6z"/>
		<path class="st0" d="M124.7,250.4c0,0,0.9,1.2,0.2,2.4c-0.4,0.6-1-0.6-2.6-2s-10.3-8-10.3-8l1.3-2l4.1,0.2L124.7,250.4z"/>
		<path class="st13" d="M122.9,248.7c0.9,1.3-0.5-5.4-0.7-5.8s-0.5,0.5-0.5,1.3S122.3,247.7,122.9,248.7z"/>
		<path class="st22" d="M202.6,228.7c0.9,0.9,19.5,20,25.7,22.8s7,1.1,8.5-0.2s0.8-3.3,1.5-1.3c0.6,2-0.3,5.2,0.6,4.5
			s0.7-5.7,1.4-5.5s0.5,6.2,1.4,4.4s-0.5-7.2-0.5-7.2s9.7-7.4,10.8-9.1l2.4,4.2c0,0-6.3,15.9-7,16.6s-8.9,4.6-8.9,4.6
			s-7.8-2.5-14.2-8.9L202.6,228.7z"/>
		<path class="st6" d="M254.4,241.3c0,0-9.5,17.9-17.5,20.4c0,0,2.3,1.6,5.8,0.8c3.6-0.8,7-2.4,7-2.4l4.8-4.7l6.1-8.6
			C260.6,246.8,255.4,243.7,254.4,241.3z"/>
		<path class="st6" d="M195.9,228.1c0,0,0.8-3.5,0.3-7.2c0,0,33,36.9,37.5,39.6c0,0-23.1-17.3-28.3-22.9L195.9,228.1z"/>
		<path class="st15" d="M208.7,222.1c0.6,1.1,13,13.6,15.7,16.5c2.7,3,6.2,5.7,5.7,4c-0.4-1.7-9.4-11.2-13-14.7
			c-2.9-2.8-8.9-9.6-9.7-8.6C206.8,220.2,208.2,221.2,208.7,222.1z"/>
		<path class="st3" d="M242.5,173.6c0,0,6.1-4.5,6.7-3l-5.5,3.4L242.5,173.6z"/>
		<path class="st15" d="M202.4,209.9c0.6,0.9,4,9.3,5.2,10.8s17.7,18.7,17.7,18.7l4.7,4c0,0,2.2,1.1,2.4-0.1l-8.3-8l-8.7-8.9
			l-4.6-5.5l-2.5-4.6L202.4,209.9z"/>
		<path class="st4" d="M86.8,187.1c-0.5-0.8,1.4-2,1.4-2l3.3-2.5c0,0-5,2.6-5.7,3.7c-0.7,1-0.6,1.5-0.2,1.5
			C86,187.8,86.8,187.1,86.8,187.1z"/>
		<path class="st4" d="M88.4,187.2c0,0-0.8-1.4-1.5-1.1c-0.7,0.3-0.9,1.3-0.9,1.3l0.6,1.4L88.4,187.2z"/>
		<path class="st4" d="M86.5,185.8c-0.1-0.1-0.3,0-0.3,0s-0.2,0-0.3-0.5c-0.1-0.5-1.1-1.5-1.8-1.3c0,0-0.1,0,0.3-0.3
			s4.7-3.5,4.7-3.5l-5.9,4.1l-0.1,1.2l1.5,1.7l1.7-0.2L86.5,185.8z"/>
		<path class="st4" d="M85.4,185.2c0.2-0.1,6.1-3.4,6.1-3.4v0.9l-6,3.7L85.4,185.2z"/>
		<polygon class="st3" points="85.9,185 91.6,180.6 91.1,182 		"/>
		<path class="st4" d="M83.3,183.9c0,0-0.1-1-0.6-1.5c-0.2-0.2-0.9-0.2-0.4-0.7l3.8-3.6c0,0-4.7,3.9-5,4.1c-0.3,0.2-0.6,1.7-0.6,1.7
			l1.7,1.3L83.3,183.9z"/>
		<path class="st4" d="M83,183c0.1,0.3,0.4,0.5,0.5,0.4c0.1,0,2.8-1.8,2.8-1.8l-3.3,2.5V183z"/>
		<path class="st4" d="M78.9,181.9c0.5-0.1,1.1,0.1,1.3,0.2s0.8,0.1,1.1-0.2s-0.1,0.8-0.1,0.8l-0.6,0.8l-1.7-0.3l-0.4-1.1
			L78.9,181.9z"/>
		<polygon class="st23" points="156.4,205.5 153.8,206.1 152.7,208.2 153.9,210.5 156.5,210.3 157.5,207.9 		"/>
		<polygon class="st24" points="152.7,208.7 150.1,209.2 149.2,211.8 150.5,214 152.8,213.4 153.7,210.8 		"/>
		<polygon class="st25" points="170.9,201.5 168.3,201.5 167.1,203 168.2,204.8 170.7,204.9 171.9,203.3 		"/>
		<polygon class="st26" points="161.3,193 159.4,193 158.4,194.5 159.4,195.8 161.3,195.9 162.3,194.5 		"/>
		<polygon class="st24" points="146.4,212.3 148.9,211.7 149.8,209 148.4,206.9 146,207.5 145,210.4 		"/>
		<path class="st27" d="M160.7,232.5c0,0-0.4,1.9-0.4,2.3c0,0,0.8,1.5,1,2.1l2.2-0.4c0,0,1-2.8,1-2.9s-1.3-2-1.3-2L160.7,232.5z"/>
		<path class="st28" d="M165.2,220.7c0-0.2,3.3-0.6,3.3-0.6l1.3-2.3l-1.8-2.6l-3,0.2l-1.3,2.9L165.2,220.7z"/>
		<polygon class="st28" points="168.8,214.9 170.7,217.3 173.9,217.5 175.5,215.1 173.7,212.4 170.2,212.2 		"/>
		<polygon class="st29" points="175.9,215.6 179.5,216.1 181,218.5 179.4,221.2 176,220.6 174.4,217.8 		"/>
		<polygon class="st30" points="176,209.4 174.9,207.5 176.1,205.8 178.4,206 179.7,208 178.5,209.8 		"/>
		<polygon class="st31" points="172.1,207.1 171,205.2 172.2,203.5 174.6,203.8 175.7,205.6 174.6,207.2 		"/>
		<polygon class="st25" points="176.1,205.3 175,203.4 176.1,202.2 178.4,202.6 179.6,204.1 178.5,205.6 		"/>
		<path class="st32" d="M178.6,199.4l-2.5-0.2l-1.1-1.4l1.2-1.2l1.1,0.2C177.2,196.9,177.8,198.8,178.6,199.4z"/>
		<polygon class="st33" points="156.9,250 159.6,249.4 161,252.9 160,256 156.9,256.3 155.5,252.8 		"/>
		<polygon class="st33" points="154.8,258.5 152.3,258.1 151.4,255.3 152.6,253.1 154.7,253.2 156,256.3 		"/>
		<polygon class="st34" points="170.2,257.3 171.7,253.7 174.8,253.8 176.1,257.1 175,260.7 171.7,260.7 		"/>
		<path class="st33" d="M179.5,257.3c0.1-0.1-2.9-0.2-2.9-0.2l-1.5-3.9l1.1-3l3.2,0.3l1.4,3.4L179.5,257.3z"/>
		<path class="st35" d="M176.1,249.5l3.1,0.2l1.6-3.5l-1.3-3.7l-3.2-0.3l-1.5,3.6L176.1,249.5z"/>
		<polygon class="st36" points="181.3,246.1 179.8,242.2 181.5,239 184.9,239.6 186.2,243.4 184.3,246.6 		"/>
		<path class="st37" d="M184.8,246.9c-0.1-0.1,1.8-3.2,1.8-3.2l2,0.3l-1,4.5l-0.7,1.5l-0.1,0.6l-0.7-0.2L184.8,246.9z"/>
		<polygon class="st24" points="179.7,249.9 181.2,253.8 184.3,254.1 185.8,250.7 184.3,247.1 181.2,246.7 		"/>
		<polygon class="st37" points="184.8,254.3 186.2,251.1 186.8,251.2 188.5,257.7 186.5,257.6 		"/>
		<path class="st5" d="M158.9,188.5c-0.7-1.2-1.2-2.4-1.6-3.7c-0.4-1.3-0.8-2.6-1.1-3.9c-0.6-2.6-0.9-5.3-1.1-8
			c-0.2-2.7,0.2-5.5,1.2-8.1c0.5-1.3,1.1-2.5,1.9-3.6c0.8-1.1,1.7-2.1,2.9-3c0.2-0.1,0.4-0.1,0.6,0.1c0,0.1,0.1,0.1,0.1,0.2l0,0
			c0.1,0.8,0.2,1.7,0.4,2.6l0.2,0.6l0.2,0.6c0.1,0.4,0.3,0.8,0.5,1.2c0.7,1.6,1.6,3.2,2.5,4.7l0.8,1.1c0.3,0.4,0.6,0.7,0.8,1
			c0.5,0.7,1.2,1.3,1.8,2c0.3,0.3,0.6,0.6,1,0.9l1,0.9c0.7,0.6,1.4,1.1,2.1,1.7l-0.3,0.3c-1-1.3-2-2.6-3-4c-0.9-1.4-1.8-2.7-2.6-4.2
			c-0.8-1.4-1.6-2.9-2.2-4.5c-0.6-1.5-1.1-3.1-1.2-4.8c0-0.1,0.1-0.2,0.2-0.2c0.1,0,0.2,0,0.2,0.1l0,0c0.3,1,0.8,2,1.3,3
			s1,1.9,1.6,2.8c0.6,0.9,1.3,1.8,2,2.6s1.5,1.6,2.3,2.3l-0.5,0.4c-1.1-1.6-2.1-3.3-3-5.1c-0.4-0.9-0.9-1.8-1.2-2.7
			c-0.4-0.9-0.7-1.9-0.8-2.9c0-0.2,0.1-0.4,0.4-0.5c0.2,0,0.3,0.1,0.4,0.2l0,0c0.5,0.7,1,1.5,1.6,2.2s1.1,1.4,1.7,2
			c0.6,0.7,1.2,1.3,1.9,1.9c0.7,0.6,1.4,1.1,2.1,1.5l0,0l0.1,0.1c0.5,0.6,0.8,1.1,1.2,1.7c0.4,0.6,0.7,1.2,0.9,1.9
			c0.3,0.7,0.5,1.3,0.6,2s0.2,1.4,0.1,2.2l-1-0.1c0.1-0.7,0.2-1.4,0.3-2.1c0.1-0.7,0.1-1.4,0.1-2.1c0-1.4-0.1-2.9-0.6-4.2l0,0
			c-0.1-0.2,0.1-0.5,0.3-0.6s0.4,0,0.5,0.2c0.5,0.8,0.8,1.6,1.1,2.4c0.3,0.8,0.5,1.7,0.7,2.5c0.2,0.9,0.3,1.7,0.4,2.6
			c0.1,0.9,0.1,1.8,0.1,2.6l-0.8-0.1c0.3-1.1,0.6-2.3,0.8-3.5s0.3-2.4,0.2-3.5l0,0c0-0.2,0.1-0.4,0.3-0.4s0.3,0.1,0.4,0.3
			c0.3,1.7,0.3,3.3,0.3,4.9c0,1.6-0.2,3.3-0.4,4.9c-0.2,1.6-0.6,3.2-1.1,4.8s-1.1,3.1-1.7,4.6h-0.1c0.6-1.5,1.2-3,1.5-4.6
			c0.4-1.6,0.7-3.2,0.9-4.8s0.3-3.2,0.3-4.8s-0.1-3.2-0.4-4.8l0.7-0.1c0.1,1.3,0,2.5-0.2,3.7s-0.4,2.4-0.7,3.6
			c-0.1,0.2-0.3,0.4-0.5,0.3c-0.2,0-0.3-0.2-0.3-0.4l0,0c0-0.8,0-1.7-0.1-2.5s-0.2-1.7-0.4-2.5s-0.4-1.6-0.7-2.4
			c-0.3-0.8-0.6-1.6-1.1-2.2l0.8-0.4c0.5,1.5,0.6,3,0.6,4.5c0,0.8,0,1.5-0.1,2.2s-0.2,1.5-0.3,2.2c-0.1,0.3-0.3,0.4-0.6,0.4
			c-0.2,0-0.4-0.3-0.4-0.5l0,0c0-0.6,0-1.3-0.1-1.9c-0.1-0.6-0.3-1.3-0.6-1.9c-0.2-0.6-0.5-1.2-0.9-1.8c-0.3-0.6-0.7-1.1-1.1-1.6
			l0.1,0.1c-1.6-1-3-2.3-4.2-3.6c-0.6-0.7-1.2-1.4-1.8-2.1c-0.6-0.7-1.1-1.5-1.6-2.2l0.8-0.3c0.1,0.9,0.4,1.8,0.7,2.7
			s0.7,1.8,1.2,2.6c0.4,0.9,0.9,1.7,1.4,2.6c0.5,0.8,1,1.7,1.5,2.5l0,0c0.1,0.1,0.1,0.3-0.1,0.4c-0.1,0.1-0.3,0.1-0.4,0
			c-0.8-0.8-1.6-1.5-2.3-2.4c-0.7-0.8-1.4-1.7-2-2.7c-0.6-0.9-1.1-1.9-1.6-2.9s-0.9-2-1.3-3.1l0.3-0.1c0.1,1.6,0.6,3.2,1.2,4.7
			c0.6,1.5,1.3,3,2.1,4.4s1.7,2.8,2.7,4.1c0.9,1.3,1.9,2.6,3,3.9l0,0c0.1,0.1,0.1,0.2,0,0.3s-0.2,0.1-0.3,0
			c-0.7-0.6-1.4-1.1-2.1-1.7l-1-0.9c-0.3-0.3-0.7-0.6-1-0.9c-0.6-0.6-1.3-1.3-1.9-2c-0.3-0.3-0.6-0.7-0.9-1l-0.8-1.1
			c-1.1-1.5-2-3.1-2.7-4.8c-0.2-0.4-0.4-0.8-0.5-1.3l-0.2-0.7l-0.2-0.7c-0.2-0.9-0.4-1.8-0.5-2.7l0.6,0.3c-1,0.7-2,1.7-2.7,2.7
			c-0.8,1.1-1.4,2.2-1.9,3.4c-0.9,2.5-1.3,5.1-1.2,7.8s0.3,5.3,0.8,8C157.1,183.4,157.8,186,158.9,188.5L158.9,188.5z"/>
		<path class="st5" d="M165.3,190c1.1,0.1,2.2,0.1,3.3,0s2.2-0.2,3.2-0.4c1.1-0.2,2-0.7,3-1.1c0.9-0.5,1.7-1.1,2.4-2.1h0.1
			c-0.2,1.1-1,2.2-2,2.8c-0.5,0.3-1,0.6-1.6,0.7c-0.6,0.2-1.1,0.3-1.7,0.4c-1.1,0.2-2.3,0.2-3.4,0.2
			C167.5,190.4,166.3,190.3,165.3,190L165.3,190z"/>
		<path class="st5" d="M163,189.7c-1.1-0.1-2.7-0.8-3.7-1.5c-0.5-0.3-0.8-0.4-1.1-0.9c-0.4-0.5-0.3-1.1-0.5-1.6l0,0
			c0.4,0.4,0.7,0.9,1.1,1.3c0.4,0.4,0.7,0.8,1.2,1.2c0.4,0.4,0.9,0.7,1.4,0.9C161.9,189.3,162.4,189.5,163,189.7L163,189.7z"/>
		
			<rect x="159.2" y="192.1" transform="matrix(1 -8.788384e-03 8.788384e-03 1 -1.6858 1.4831)" class="st5" width="17.4" height="0.9"/>
		<path class="st5" d="M172,391.6c-0.3-4-0.2-9.8-0.5-13.9c-0.1-2-0.3-4-0.5-6s-0.3-4-0.6-6c-0.2-2-0.5-4-0.9-5.9
			c-0.1-0.5-0.2-0.9-0.4-1.3c0-0.1-0.1-0.2-0.1-0.3l-0.1-0.4l-0.3-0.7c-0.3-1-0.6-2-0.8-3c-0.5-2.1-0.7-4.2-0.8-6.3
			c0-1.1,0-2.1,0.1-3.2c0.1-0.5,0.1-1.1,0.2-1.6c0-0.3,0.1-0.6,0.2-0.8l0.1-0.6c0-0.2,0.1-0.5,0.1-0.7l0.1-0.7l0.1-1.5
			c0-1,0.1-2,0.1-3c0.1-2,0.1-4,0.1-6s0-4,0-6s0-4,0-6s-0.1-4-0.2-6c0-0.5-0.1-1-0.1-1.5s-0.1-1-0.1-1.5l-0.3-3l-1.1-12.1l0.2,0.5
			c-0.7-1.5-1.4-2.9-2.1-4.4c-0.3-0.7-0.7-1.5-1-2.2c-0.2-0.4-0.3-0.7-0.5-1.2c-0.2-0.4-0.3-0.8-0.4-1.2c-0.5-1.5-1-3-1.6-4.5
			c-0.5-1.5-1.1-3-1.8-4.4c-1.3-2.9-2.8-5.7-4.6-8.3c-0.9-1.3-2-2.5-3.1-3.6s-2.4-2.1-3.7-3l0.1-0.2c2.8,1.5,5.2,3.8,7.2,6.3
			s3.6,5.3,5,8.2c1.4,2.9,2.6,5.9,3.6,8.9c0.1,0.4,0.3,0.8,0.4,1.1c0.2,0.4,0.3,0.7,0.5,1.1c0.3,0.7,0.7,1.4,1.1,2.2
			c0.7,1.4,1.5,2.9,2.2,4.3l0,0l0,0l1.3,12.1c0.2,2,0.5,4,0.6,6s0.2,4,0.2,6.1c0.1,4,0.1,8.1,0,12.1c0,2-0.1,4-0.2,6.1
			c-0.1,2-0.2,4-0.5,6.1l-0.1,0.8c-0.1,0.2-0.1,0.5-0.2,0.7c-0.1,0.5-0.2,1-0.2,1.5c-0.1,1-0.1,2-0.1,3c0,2,0.2,4,0.6,6
			c0.2,1,0.4,2,0.7,2.9s0.6,1.9,0.8,2.9c0.4,2,0.6,4,0.7,6c0.3,4,0.5,8.1,0.6,12.1s0.6,8.5,0.6,12.6L172,391.6z"/>
		<path class="st5" d="M152.1,363c1.7,0,3.3,0,5,0c0.8,0,1.6,0,2.4,0c0.8,0,1.6,0,2.4-0.1c0.8,0,1.6-0.1,2.3-0.3
			c0.8-0.1,1.5-0.3,2.3-0.5c0.7-0.2,1.5-0.4,2.2-0.8c0.7-0.3,1.4-0.7,2.2-1.1l0.1,0.1c-0.6,0.6-1.2,1.2-1.9,1.6
			c-0.7,0.5-1.4,0.8-2.2,1.2c-1.6,0.6-3.2,0.9-4.9,1.1c-1.7,0.1-3.3,0-5-0.1c-1.7-0.2-3.3-0.5-4.9-1L152.1,363z"/>
		<path class="st5" d="M146.8,220.8c-0.2,0.7-0.1,1.7-0.2,2.4c-0.2,0.7,0,1.5-0.1,2.2c-0.1,0.8-0.2,1.5-0.2,2.3s0,1.5,0.1,2.3
			c-0.2-0.8-0.2-1.5-0.3-2.3s-0.1-1.5,0-2.3c0-0.8-0.1-1.2,0-1.9c0.1-0.8,0.2-2.2,0.4-3L146.8,220.8z"/>
		<path class="st5" d="M190.3,236.5c0.5-0.4,1-1,1.4-1.6c0.5-0.5,0.9-1.2,1.3-1.8c0.8-1.2,1.3-2.7,1.8-4c0.6-1.3,0.9-2.7,1.1-4.2
			l0.1-1.1c0-0.4,0-0.7,0-1.1v-0.6l-0.1-0.5l-0.1-1.1l0.3,1.1l0.1,0.5l0.1,0.6c0,0.4,0.1,0.7,0.1,1.1v1.1c-0.1,1.5-0.3,3-0.7,4.5
			c-0.4,1.4-1,2.9-1.8,4.2c-0.4,0.7-0.8,1.3-1.2,1.9c-0.4,0.6-0.9,1.2-1.4,1.9L190.3,236.5z"/>
		<path class="st5" d="M152.3,233.7c0.4,0,0.8-0.1,1.2-0.1c0.4-0.1,0.8-0.1,1.2-0.2c0.8-0.2,1.6-0.4,2.4-0.6
			c0.8-0.2,1.6-0.5,2.3-0.8c0.8-0.3,1.6-0.7,2.4-1c1.6-0.6,3.3-1.1,4.9-1.5c1.7-0.4,3.4-0.6,5.2-0.6h1.3c0.4,0,0.9,0,1.3,0.1
			c0.9,0.1,1.7,0.2,2.6,0.4c0.9,0.2,1.7,0.4,2.5,0.7s1.6,0.6,2.4,1c0.8,0.4,1.5,0.9,2.2,1.4l2,1.5c1.4,1,2.8,1.9,4.2,2.7v0.1
			c-1.6-0.7-3-1.6-4.4-2.5c-0.7-0.5-1.4-0.9-2.1-1.4c-0.7-0.5-1.4-0.9-2.2-1.2c-3.1-1.4-6.5-2-9.8-1.9c-3.4,0-6.7,0.8-9.9,1.9
			c-1.6,0.5-3.2,1.2-4.8,1.6c-0.8,0.2-1.7,0.4-2.5,0.5c-0.4,0.1-0.8,0.1-1.3,0.1C153.2,233.8,152.8,233.9,152.3,233.7L152.3,233.7z"
			/>
		<path class="st5" d="M166.9,222.4c1-0.3,1.9-0.4,2.9-0.4c0.5,0,0.9,0,1.4,0s0.9,0,1.4,0.1c0.5,0,0.9,0.1,1.4,0.1
			c0.5,0.1,0.9,0.1,1.4,0.2c0.9,0.2,1.9,0.4,2.8,0.8v0.1l-5.7-0.3L166.9,222.4L166.9,222.4z"/>
		<path class="st5" d="M170.3,357.7c0.3-1.3,0.5-2.6,0.5-3.9c0-0.7,0-1.3-0.1-1.9s-0.2-1.3-0.3-2c-0.2-1.3-0.3-2.7-0.3-4.1
			s0.1-2.8,0.5-4.2l-0.1,0.4c-0.2-1.9-0.4-3.8-0.6-5.8l-0.3-2.9l-0.4-2.9c-0.4-3.9-0.8-7.7-1-11.6s-0.3-7.8-0.3-11.7
			c0-2,0.1-3.9,0.3-5.9c0.1-1,0.2-2,0.3-3c0-0.5,0.1-1,0.2-1.5l0.3-1.5v-0.1V295c1-3.1,2.1-6.2,3.2-9.3c1.1-3.1,2.3-6.1,3.7-9.2
			c0.7-1.5,1.5-3,2.4-4.4s1.9-2.8,3-4s2.4-2.4,3.8-3.3c1.4-0.9,2.9-1.6,4.5-2.1l0.1,0.2c-1.5,0.6-2.9,1.4-4.2,2.4s-2.4,2.1-3.5,3.4
			c-1,1.3-1.9,2.6-2.7,4s-1.5,2.9-2.1,4.4c-1.2,3-2.3,6.1-3.4,9.2c-1,3.1-2,6.2-3,9.3l0,0c-0.7,3.8-0.9,7.7-1,11.5
			c-0.1,3.9,0,7.7,0.2,11.6s0.4,7.7,0.8,11.6l0.3,2.9l0.2,2.9l0.4,5.8l0,0l0,0c-0.4,1.2-0.6,2.6-0.7,3.9c-0.1,1.3,0,2.7,0.1,4
			c0,0.7,0.1,1.3,0.2,2c0,0.7,0,1.3,0,2c-0.1,1.3-0.4,2.7-0.8,4L170.3,357.7z"/>
		
			<rect x="168" y="291.6" transform="matrix(7.127732e-02 -0.9975 0.9975 7.127732e-02 -136.1303 441.2766)" class="st5" width="1.8" height="4.3"/>
		<path class="st5" d="M179.4,176.8c-3.2-1-10-1.3-12.3-1.4H167c-2.1-0.1-11.3,1-11.4,1l-0.1-0.5c0.4,0,9.3-1.1,11.4-1h0.1
			c2.3,0.1,9.1,0.3,12.4,1.4L179.4,176.8z"/>
		<path class="st5" d="M171.7,341.9c0.1,0.5,0.4,0.8,0.7,1.2c0.3,0.4,0.6,0.7,0.9,1c0.6,0.7,1.3,1.2,2,1.8c0.7,0.5,1.5,1,2.3,1.3
			c0.8,0.4,1.6,0.7,2.4,0.8c0.8,0.2,1.7,0.3,2.5,0.3c0.9,0,1.7-0.1,2.6-0.3c0.9-0.2,1.7-0.5,2.6-0.8c0.9-0.3,1.7-0.8,2.6-1.2
			l0.1,0.1c-0.7,0.6-1.5,1.2-2.3,1.7c-0.4,0.3-0.8,0.5-1.3,0.7c-0.4,0.2-0.9,0.4-1.3,0.5c-1.8,0.6-3.8,0.7-5.7,0.3
			c-1.9-0.5-3.6-1.4-5.1-2.7c-0.7-0.6-1.4-1.4-1.9-2.2c-0.3-0.4-0.5-0.8-0.7-1.3c-0.2-0.4-0.4-0.9-0.4-1.4L171.7,341.9z"/>
		<path class="st5" d="M83.3,183.9l3.3-2.6c1.1-0.9,2.2-1.7,3.3-2.6l-0.1,0.1c0,0.1,0,0,0,0l0,0v-0.1c0-0.1,0-0.1-0.1-0.2
			c-0.1-0.2-0.1-0.3-0.2-0.5s-0.2-0.3-0.3-0.5c-0.1-0.1-0.2-0.2-0.3-0.3c-0.2-0.2-0.5-0.2-0.8-0.2s-0.7,0.1-0.9,0.1l0.2-0.1
			c-0.5,0.4-0.9,0.9-1.4,1.3c-0.5,0.4-1,0.8-1.5,1.3c-1,0.8-2,1.6-3.1,2.4l-0.1-0.1c0.8-1,1.7-2,2.6-2.9c0.5-0.5,0.9-0.9,1.4-1.4
			c0.5-0.4,1-0.9,1.5-1.3l0.1-0.1H87c0.4-0.1,0.8-0.1,1.3-0.1c0.4,0,0.9,0.2,1.2,0.5c0.2,0.1,0.3,0.3,0.5,0.5
			c0.1,0.2,0.2,0.3,0.3,0.5c0.1,0.2,0.2,0.4,0.2,0.6c0,0.1,0.1,0.2,0.1,0.3s0,0.1,0,0.2v0.1c0,0.1,0,0.1-0.1,0.2v0.1h-0.1
			c-1.2,0.8-2.3,1.6-3.5,2.4L83.3,183.9L83.3,183.9z"/>
		<polygon class="st5" points="92.3,182.6 85.8,186 91.8,181.8 		"/>
		<path class="st5" d="M158.7,387.1c-0.4-1.6-0.8-3.3-1.2-4.9l-1.2-4.9l-2.3-9.9l-0.1-0.3h0.3c2.5,0.2,5,0.2,7.5,0
			c1.3-0.1,2.5-0.2,3.7-0.5c1.2-0.2,2.4-0.6,3.4-1.2l0.4-0.3v0.5l1.6,21.4c0.1,1.8,0.3,3.6,0.4,5.4c0.1,1.8,0.2,3.6,0.3,5.4
			c0.2,3.6,0.4,7.2,0.6,10.7v0.1l-0.1,0.1c-0.6,0.4-1.2,0.7-1.8,1c-0.6,0.2-1.3,0.4-2,0.4c-0.7,0.1-1.4,0-2-0.1
			c-0.7-0.1-1.3-0.4-1.9-0.7v-0.1c0.6,0.3,1.2,0.5,1.9,0.6c0.6,0.1,1.3,0.1,2,0c0.6-0.1,1.3-0.3,1.9-0.5c0.6-0.2,1.2-0.6,1.7-0.9
			l-0.1,0.2c-0.3-3.6-0.6-7.1-0.9-10.7c-0.1-1.8-0.3-3.6-0.4-5.4c-0.1-1.8-0.3-3.6-0.4-5.4l-1.3-21.5l0.5,0.2
			c-1.2,0.7-2.4,1-3.7,1.3c-1.3,0.2-2.5,0.4-3.8,0.4c-1.3,0.1-2.5,0.1-3.8,0.1s-2.5-0.1-3.8-0.2l0.2-0.3l2.1,9.9l1.1,5
			C158,383.8,158.4,385.5,158.7,387.1L158.7,387.1z"/>
		<path class="st5" d="M170.2,435.2c-2.9,0-5.2-2.3-5.2-2.4l0.3-0.3c0,0,3.3,3.4,6.8,1.8c3.4-1.6,3.4-4.1,3-7.2l0.5-0.1
			c0.4,3.2,0.5,6-3.3,7.7C171.6,435.1,170.8,435.2,170.2,435.2z"/>
		<path class="st5" d="M171.8,369.1c1,0.3,2,0.7,3.1,0.9c0.5,0.1,1.1,0.2,1.6,0.1c0.1,0,0.2,0,0.3-0.1s0.2-0.2,0.3-0.3
			c0.2-0.2,0.3-0.4,0.5-0.7c1.1-1.8,2.1-3.8,3-5.8c1.9-3.9,3.7-7.9,5.5-11.9l0.4,0.4c-1.2,0.5-2.4,0.7-3.6,0.9
			c-1.2,0.1-2.5,0.1-3.7-0.1c-0.6-0.1-1.2-0.3-1.8-0.4c-0.6-0.2-1.2-0.4-1.7-0.7c-0.3-0.2-0.6-0.3-0.8-0.5l-0.8-0.5
			c-0.3-0.2-0.5-0.4-0.7-0.6l-0.7-0.6l0.8-0.3c-0.1,1.7-0.2,3.3-0.3,5l-0.4,5c-0.1,1.7-0.3,3.4-0.4,5
			C172.1,365.6,172,367.3,171.8,369.1z M171.7,369.1c0-1.6,0.1-3.3,0.1-5c0.1-1.7,0.1-3.4,0.2-5.1l0.2-5.1c0.1-1.7,0.2-3.4,0.3-5.1
			l0.1-1l0.7,0.6l0.6,0.6c0.2,0.2,0.4,0.4,0.7,0.5c0.5,0.3,0.9,0.7,1.5,0.9c0.5,0.3,1,0.5,1.6,0.7c0.5,0.2,1.1,0.4,1.7,0.4
			c1.1,0.2,2.3,0.3,3.5,0.2c1.2-0.1,2.3-0.4,3.4-0.8l0.8-0.3l-0.3,0.7c-1.8,4-3.7,7.9-5.7,11.8c-1,1.9-2,3.9-3.2,5.7
			c-0.2,0.2-0.3,0.5-0.5,0.7c-0.1,0.1-0.2,0.2-0.3,0.3c-0.1,0-0.1,0.1-0.2,0.1c-0.1,0-0.1,0-0.2,0c-0.6,0.1-1.1,0-1.7-0.2
			c-0.5-0.1-1.1-0.3-1.6-0.4c-0.3-0.1-0.5-0.2-0.8-0.3l-0.4-0.1l-0.2-0.1h-0.1C171.8,369.2,171.8,369.1,171.7,369.1z"/>
		<g>
			<path class="st5" d="M245.4,175.8l5-2.4l-4.5,3.2c-0.2,0.1-0.5,0.1-0.6-0.1C245.1,176.2,245.1,175.9,245.4,175.8
				C245.3,175.8,245.4,175.8,245.4,175.8z"/>
			<path class="st5" d="M243.8,173.4l5.6-3.1l-5.1,3.8c-0.2,0.2-0.5,0.1-0.6-0.1C243.5,173.9,243.5,173.6,243.8,173.4
				C243.7,173.5,243.8,173.5,243.8,173.4z"/>
			<path class="st5" d="M249,167.9c-0.5,0.3-0.9,0.6-1.4,1c-0.5,0.3-1,0.6-1.4,0.9c-0.5,0.3-0.9,0.7-1.5,0.9
				c-0.5,0.2-1.1,0.4-1.7,0.4h-0.1l0,0c0.4-0.5,0.8-0.8,1.3-1.2c0.5-0.3,1-0.5,1.5-0.7s1-0.5,1.6-0.7
				C247.9,168.2,248.4,168,249,167.9C249,167.8,249,167.8,249,167.9C249,167.8,249,167.9,249,167.9z"/>
			<path class="st5" d="M243.4,175c-0.7,0-1.8-0.1-2.2-0.8c-0.7-1,0.7-2.8,1-3.1c0.2-0.2,0.5-0.2,0.6,0c0.2,0.2,0.2,0.5,0,0.6
				c-0.6,0.7-1.1,1.7-0.9,2c0.3,0.4,1.3,0.5,2,0.4c0.3,0,0.5,0.1,0.5,0.4c0,0.3-0.1,0.5-0.4,0.5C243.9,174.9,243.7,175,243.4,175z"
				/>
			<path class="st5" d="M170.4,437.6c-1,0-2.3-0.2-3.4-0.9c-1.2-0.8-2-2.1-2.3-3.9v-0.1c0-0.1,0.5-5.6,1.2-10.2
				c0.6-4.3,0.1-8.1,0-8.6c-0.2-0.5-1.6-3.7-1.8-6.5c-0.2-2.9-0.8-5-0.9-5.4l0,0c-1.1-3.3-10.9-32.7-11.5-38.7s1.7-14.4,1.9-15.2
				c0-0.9,0-11.8-0.9-14.2c-0.1-0.4-0.6-1.4-1.1-2.8c-3-7.4-10.2-24.6-10.3-33.8c-0.2-10.6-0.6-26.6,10.2-42.7c0,0,2-3.1,2.6-6.3
				v-9.2l-7.5-8.1l-0.8,1.6c-0.5,0.9-12.2,21-15.7,24.5c-3.7,3.7-8.1,2.3-8.3,2.3c-8.9-3.3-21.9-11.8-32.7-33.2
				c-6.5-12.7-9.2-24.2-9.2-24.3l-0.5-3.4c0-0.3-0.9-6.3-1-8.4c0-0.7-0.1-1.5-0.1-2.4c-0.1-1.9-0.1-4.2-0.3-4.7
				c-0.1-0.3-0.2-1.1,5.9-6c0,0,0.1,0,0.1-0.1c0.1,0,1.6-0.7,2.9-0.3c0.4-0.7,1.2-1.5,2.4-1.2c1.9,0.5,1.7,1.9,1.6,2.4l-0.2,1.4
				c0.4,0.3,1.1,0.9,1.6,1.4c0.1,0.1,0.1,0.2,0.1,0.4l-0.2,1.3c1,0.6,2.1,1.4,2,2.1c-0.1,0.6-1.2,4-1.3,4.3c0,0.1-0.1,0.2-0.2,0.3
				c-0.4,0.2-1,0.3-1.6,0.1c-0.1,1.8-0.4,5.7-1.6,7.5c0,0.3,0,1.3,0.1,2.4c9.3,31.6,30.4,41.1,33.1,42.2l1.3-1.4
				c3.3-3.3,8.6-18.9,11.1-26.4c0.8-2.3,1.4-4,1.7-4.7c1.3-3.1,4.8-3.9,4.9-3.9c0,0,0,0,0.1,0c3.4-0.2,13.7-0.9,16-7.5
				c2-5.9,1.1-7.9,1-8.1c-1.1-1.1-9.1-8.9-9.6-10.9v-0.1c0-0.6,0.4-16,6.2-24c0.1-0.1,0.1-0.1,0.2-0.2c0.1,0,2.7-1,5.5-0.7
				c0.5-0.9,2-3.6,5.4-4.4c3.8-0.9,11.6,1.4,16.4,9.2c0.3,0.5,0.6,1,0.9,1.5c4.6,7.5,7.6,12,12.4,9.1c0.2-0.1,0.4-0.1,0.6,0.1
				c0.1,0.2,0.2,0.4,0.1,0.6c0,0.1-1.1,1.8-2.9,3c-1.1,0.8-2.1,1.2-2.7,1.4c0.2,0.4,0.7,1,1.4,1.3c0.9,0.4,1.9,0.3,3.1-0.2l2.6-0.9
				c0.2-0.1,0.4,0,0.5,0.2s0.1,0.4,0,0.5s-1.2,1.7-2.9,2.7c0.4,0,0.9-0.1,1.4-0.3c0.2-0.1,0.4,0,0.6,0.2c0.1,0.2,0.1,0.4-0.1,0.6
				c-0.1,0.1-1.8,1.8-3.5,2.9c0.7,0,1.5,0,2.3-0.3c0.2-0.1,0.4,0,0.5,0.2s0.1,0.4-0.1,0.6c-0.2,0.2-5.2,4.6-19.8,7.1
				c-0.1,1.6-0.5,8.4,1,10.7c1.7,2.5,11,6.1,15.5,7.1l0,0c0,0,1.1,0.2,2.5,0.5c1.9,0.4,3.3,1,4.2,1.6c4.2,2.7,8.1,7.9,10.4,11.9
				c2,3.6,18.6,20.8,21.9,22.8c0.4,0.3,0.8,0.5,1.2,0.7c2.4,1.4,4,2.4,4.9,2.3c0.8-0.1,1.3,0.2,1.7,0.6c0.3-0.3,0.6-0.6,1.1-0.6
				c1.1-0.4,8.7-6.7,11.2-10.8c0.3-0.5,0.7-1.2,1.2-1.9c3.4-5.1,9.6-14.5,9.9-28.2c0.3-13.6-2.8-18.3-4.3-20.6
				c-0.2-0.3-0.3-0.5-0.5-0.8l-1.8-0.7c-0.8-0.1-1.3-0.8-1.4-1.2l-0.2-0.5c-0.9-0.1-3.8-0.6-5.4-1.8c-0.1,0.2-0.1,0.4-0.3,0.5
				c-0.2,0.2-0.5,0.3-0.8,0.2c-0.7-0.1-2.4-0.6-3.4-0.9c-0.6-0.2-0.9-0.7-0.9-1.3l0.1-1.1l-0.5-0.1c-0.5-0.1-0.9-0.5-0.9-1.1v-1.1
				l-0.9-0.2c-0.3-0.1-0.6-0.3-0.8-0.6s-0.2-0.7-0.1-1l0.3-1.1c0-0.1,0.1-0.2,0.2-0.3l1.6-1l0.6-1.4c0-0.1,0.1-0.2,0.2-0.3
				c0,0,3.5-1.6,4.6-2.7c0.2-0.2,0.4-0.2,0.6-0.1c0.4,0.3,10.4,7,12.2,9.1c0.4,0.4,8.6,8.4,10.9,19.9c2,10.1,3.9,36.7-21.3,64.7
				c-0.1,0.1-6.5,6.1-15.6,3.1c-8.9-3-39.3-32.3-40.5-33.6c-0.2-0.2-0.2-0.5,0-0.6c0.2-0.2,0.5-0.2,0.6,0
				c0.3,0.3,31.5,30.5,40.2,33.4c8.6,2.9,14.6-2.8,14.7-2.9c8.3-9.2,27-34,21.1-63.9c-2.2-11.4-10.5-19.3-10.6-19.4l0,0
				c-1.6-1.8-10-7.6-11.7-8.7c-1.2,1-3.7,2.3-4.4,2.6l-0.5,1.4c0,0.1-0.1,0.2-0.2,0.2l-1.6,1l-0.3,0.9c0,0.1,0,0.2,0,0.3
				c0.1,0.1,0.1,0.2,0.2,0.2l1.3,0.3c0.2,0.1,0.3,0.2,0.3,0.4l0.1,1.5c0,0.1,0.1,0.2,0.2,0.2l1,0.2c0.2,0,0.4,0.3,0.4,0.5l-0.2,1.5
				c0,0.1,0.1,0.3,0.2,0.3c1.7,0.5,2.9,0.8,3.3,0.9l0,0c0.1-0.1,0.5-0.8,0.5-1.2c0-0.2,0.1-0.3,0.1-0.3c0.2-0.1,0.2,0.1,0.3,0.3
				c0.9,1.5,4.5,2.2,5.8,2.3c0.2,0,0.3,0.1,0.4,0.3l0.3,0.8c0,0,0.2,0.6,0.6,0.6c0.1,0,0.1,0,0.2,0l2,0.8c0.1,0,0.2,0.1,0.2,0.2
				c0.1,0.2,0.3,0.5,0.5,0.8c1.5,2.3,4.7,7.2,4.4,21.1c-0.3,14-6.6,23.5-10,28.7c-0.5,0.7-0.9,1.3-1.2,1.8
				c-2.4,3.9-10.9,11.5-12.1,11.2c-0.1,0-0.4,0.3-0.5,0.7c-0.1,0.2-0.2,0.3-0.4,0.3s-0.3-0.1-0.4-0.3c0-0.1-0.4-0.7-1.2-0.6
				c-1.2,0.2-2.7-0.8-5.5-2.4c-0.4-0.2-0.8-0.5-1.2-0.7c-3.3-2-20.1-19.5-22.2-23.1c-2.2-3.9-6-9-10.1-11.6c-0.8-0.5-2.2-1-3.9-1.4
				c-1.3-0.3-2.4-0.5-2.4-0.5c-3.9-0.9-14.1-4.5-16.1-7.5c-1.9-2.9-1.2-11.3-1.1-11.6c0-0.2,0.2-0.4,0.4-0.4c10-1.7,15.6-4.3,18-5.8
				c-1.2,0-2.2-0.2-2.3-0.2c-0.2,0-0.4-0.2-0.4-0.4s0.1-0.4,0.3-0.5c0.9-0.2,2.3-1.3,3.4-2.2c-1,0-1.7-0.2-1.8-0.3
				c-0.2-0.1-0.3-0.2-0.3-0.4s0.1-0.4,0.3-0.4c1.1-0.4,2.1-1.1,2.8-1.8l-1,0.3c-1.4,0.6-2.7,0.6-3.8,0.1c-1.5-0.7-2.1-2.2-2.1-2.3
				s0-0.3,0-0.4c0.1-0.1,0.2-0.2,0.3-0.2c0,0,1.3-0.3,2.9-1.5c0.6-0.4,1.1-0.9,1.5-1.3c-4.8,1.4-8.1-4-11.9-10.2
				c-0.3-0.5-0.6-1-0.9-1.5c-4.6-7.4-11.9-9.7-15.4-8.8s-4.9,4.1-4.9,4.2c-0.1,0.2-0.3,0.3-0.5,0.3c-2.4-0.4-4.7,0.4-5.3,0.5
				c-5.4,7.5-5.9,22.2-5.9,23.3c0.4,1.4,5.9,7.1,9.3,10.4c0,0,0,0,0,0.1c0.2,0.2,1.5,2.2-0.9,9c-2.4,7.1-13.1,7.9-16.7,8.1
				c-0.3,0.1-3.2,0.9-4.2,3.4c-0.3,0.6-0.9,2.4-1.6,4.6c-2.8,8.1-7.9,23.3-11.3,26.7l-1.5,1.7c-0.1,0.1-0.3,0.2-0.5,0.1
				c-0.2-0.1-6.1-2.2-13.2-8.6c-6.6-5.9-15.5-16.6-20.7-34.4v-0.1c-0.1-1.5-0.1-2.6-0.1-2.7c0-0.1,0-0.2,0.1-0.3
				c1.2-1.5,1.5-6.2,1.5-7.9c0-0.2,0.1-0.4,0.3-0.4c0.2-0.1,0.4,0,0.5,0.2c0.3,0.4,0.8,0.3,1.1,0.2c0.5-1.4,1.1-3.5,1.2-4
				c-0.1-0.3-1-0.9-1.8-1.3c-0.2-0.1-0.3-0.3-0.2-0.5l0.2-1.4c-0.6-0.6-1.5-1.3-1.5-1.3c-0.1-0.1-0.2-0.3-0.2-0.4l0.3-1.7
				c0.1-0.6,0.2-1.1-0.9-1.4c-1-0.3-1.5,0.9-1.5,1.1c0,0.1-0.1,0.2-0.3,0.3c-0.1,0-0.3,0-0.4,0c-0.9-0.5-2.3,0-2.5,0.1
				c-2.5,2-5.3,4.5-5.5,5.1c0.1,0.6,0.2,2.4,0.3,4.8c0,0.9,0.1,1.7,0.1,2.4c0.1,2.1,0.9,8.3,1,8.4l0.4,3.4c0,0.1,2.7,11.5,9.1,24.1
				c10.7,21.1,23.4,29.4,32.2,32.7c0.1,0,4,1.2,7.3-2c3.4-3.4,15.4-24.1,15.6-24.3l1.1-2.2c0.1-0.1,0.2-0.2,0.3-0.2s0.3,0,0.4,0.1
				l8,8.7c0.1,0.1,0.1,0.2,0.1,0.3v9.4v0.1c-0.6,3.4-2.6,6.6-2.7,6.7c-10.6,15.9-10.2,31.7-10,42.2c0.2,9,7.3,26.1,10.3,33.4
				c0.6,1.4,1,2.4,1.2,2.9c0.9,2.7,0.9,14.1,0.9,14.6v0.1c0,0.1-2.5,8.9-1.9,15c0.5,5.9,10.3,35.2,11.4,38.5v0.1
				c0.1,0.4,0.7,2.6,0.9,5.6c0.2,2.9,1.8,6.2,1.8,6.3v0.1c0,0.2,0.7,4.3,0,9c-0.6,4.4-1.1,9.5-1.1,10.1c0.2,1.5,0.9,2.6,1.9,3.2
				c1.9,1.2,4.4,0.6,4.4,0.6c4.4-1.1,3.8-5.7,3-9.1v-0.2c-0.3-1.5-0.1-3,0-4.5c0.1-0.6,0.1-1.2,0.2-1.8c0.1-1.1-0.5-3.2-1-4.9
				c-0.3-1.1-0.6-2-0.6-2.5c-0.1-0.7,0.3-1.4,0.6-1.9s0.4-0.9,0.3-1.1c-0.6-0.9-1.9-4.6-1.9-5.8c0-1.1-0.6-14.8-0.6-14.9
				s0-0.3,0.1-0.3c0.1-0.1,0.2-0.1,0.3-0.1c3.4,0.1,4.8-3.6,5.5-5.5c0.2-0.5,0.3-0.8,0.4-1c0.3-0.6,0.3-5.2,0.4-8.2
				c0.1-3.4,0.1-5.6,0.3-6.1c0.2-0.7,0.8-1.1,1.3-1.3c0.6-0.3,0.6-0.4,0.6-0.6c-0.4-1.1,0.2-3.5,0.2-3.8c0-0.1,0-0.1,0.1-0.2
				s5.1-7.4,7.9-14.1c2.8-6.6,0.4-12.3,0.3-12.4c0-0.1,0-0.2,0-0.3c0.1-0.2,6.8-23,8.5-38.6c1.7-15.5-8.4-34-8.5-34.2
				c-0.1-0.1-0.1-0.2,0-0.3c0.2-0.7,0.1-1.4-0.1-2.1c-1.6-4.5-3.4-10.2-2.3-11.8c0.9-1.3,1.5-5.2,1.9-7.6c0.2-1.3,0.3-1.9,0.4-2.1
				c0.3-0.8,1.2-2.6,1.2-2.6c0.1-0.2,0.4-0.3,0.6-0.2c0.2,0.1,0.6,0.8,0.4,1.1c0,0-1.2,1.4-1.4,2.1c-0.1,0.2-0.2,1.1-0.3,1.9
				c-0.4,2.6-1,6.5-2,7.9c-0.7,0.9,0.3,5.3,2.4,11c0.3,0.8,0.3,1.6,0.2,2.5c1,1.8,10.1,19.5,8.5,34.6c-1.6,15-7.9,36.5-8.5,38.6
				c0.4,1,2.3,6.5-0.4,12.9c-2.7,6.5-7.4,13.4-7.9,14.2c-0.2,0.7-0.5,2.5-0.2,3.2c0.3,0.9-0.5,1.3-1,1.6c-0.4,0.2-0.8,0.5-0.9,0.8
				c-0.1,0.4-0.2,3.3-0.2,5.8c-0.1,5.5-0.2,8.2-0.5,8.7c-0.1,0.1-0.2,0.5-0.4,0.9c-0.7,1.9-2.2,5.9-5.9,6.1
				c0.1,2.5,0.6,13.4,0.6,14.5c0,1,1.2,4.5,1.7,5.2s0.1,1.4-0.2,2c-0.3,0.5-0.5,1-0.5,1.4s0.3,1.4,0.6,2.3c0.5,1.7,1.1,3.9,1,5.2
				c0,0.6-0.1,1.2-0.2,1.8c-0.2,1.4-0.4,2.9-0.1,4.2v0.2c0.5,2.2,2.1,8.8-3.7,10.2C172.1,437.4,171.3,437.6,170.4,437.6z
				 M93.2,183.9L93.2,183.9L93.2,183.9z M78.8,182.5L78.8,182.5L78.8,182.5z"/>
		</g>
		<path class="st5" d="M163.8,171.8c-1,0-1.8,0-4.3-0.5l-0.8-0.3l0.3-0.2c0.1,0,2.6-1.1,3.9-1.1c0,0,1.2-0.1,1.9,0.9v0.1l0.3,1.1
			h-0.3C164.7,171.7,164.4,171.8,163.8,171.8z M159.3,170.9c2.4,0.6,4.7,0.6,5.3,0.5l-0.3-0.7c-0.5-0.7-1.5-0.6-1.5-0.6
			C162,170.1,160.1,170.6,159.3,170.9z"/>
		<path class="st5" d="M161.9,169.8c0.1-0.1-3,0.5-3.9-0.2c0,0-0.1,1,0.7,1.3C158.7,170.9,161.4,170,161.9,169.8z"/>
		<path class="st5" d="M170,171.7h-0.3l0.3-1.1v-0.1c0.7-0.9,1.8-0.9,1.9-0.9c1.3,0,3.8,1,3.9,1.1l0.3,0.2l-0.8,0.3
			c-2.5,0.5-3.3,0.5-4.3,0.5C170.4,171.8,170.1,171.7,170,171.7z M171.9,170.1c0,0-0.9-0.1-1.5,0.6l-0.3,0.7c0.7,0,3,0.1,5.3-0.5
			C174.7,170.6,172.8,170.1,171.9,170.1z"/>
		<path class="st5" d="M175.8,170c-1.3,0.1-3-0.2-2.9-0.1c0.5,0.2,2.8,1,3.2,1.1L175.8,170z"/>
		<path class="st5" d="M260.6,247.3c-0.1,0-0.2,0-0.2-0.1c-8.8-5-8.2-10.9-8.2-11.2s0.3-0.4,0.5-0.4c0.3,0,0.4,0.3,0.4,0.5l0,0
			c0,0.1-0.5,5.6,7.8,10.3c0.2,0.1,0.3,0.4,0.2,0.6C260.9,247.2,260.7,247.3,260.6,247.3z"/>
		<path class="st5" d="M106,249.1c-0.2,0-0.3-0.1-0.4-0.3s0-0.5,0.2-0.6l0,0c0.1,0,5.2-2.7,8.1-11.5c0.1-0.2,0.3-0.4,0.6-0.3
			c0.2,0.1,0.4,0.3,0.3,0.6c-3,9.3-8.3,11.9-8.6,12C106.1,249,106.1,249.1,106,249.1z"/>
		<path class="st5" d="M146.4,220.4l-0.5,9.3l1.5,1.1c0,0-1.3-5.8-0.5-10.8L146.4,220.4z"/>
		<polygon class="st5" points="170.8,169.9 173.7,172.5 171.3,169.5 		"/>
		<path class="st5" d="M175.9,174.3l-0.6,5.3c0,0,1.3-3.9,1.5-5.1C177,173.3,175.9,174.3,175.9,174.3z"/>
		<polygon class="st5" points="178.1,175.5 177.9,178.7 178.9,175.8 		"/>
		<path class="st5" d="M195.4,170.5c0,0,1.3-1.3,2.6-3.5l-2.4,1.5c0,0-0.3,0.7-0.3,0.8S195.4,170.5,195.4,170.5z"/>
		<path class="st5" d="M195.6,174.6l4-1.7c0,0-0.6,1.7-1.9,2.8l-2.6,1.1L195.6,174.6z"/>
		<path class="st5" d="M197.2,176.8l2.1-1c0,0-1.9,2-2.6,2.6s-0.4-0.6-0.4-0.6L197.2,176.8z"/>
		<path class="st5" d="M196.5,180.1l2.2-0.7c0,0-1.5,1.4-2.4,1.9c-0.8,0.5-0.6-0.2-0.5-0.3S196.5,180.1,196.5,180.1z"/>
		<polygon class="st5" points="177.1,186.3 178,185 177.8,186.4 176.8,187.6 		"/>
		<g class="st38">
			<g>
				<path class="st39" d="M138.3,224c0.5,1.4,2,6.3,1.7,8l4.4,2.9l2.8,6l-2.5,3.8c0,0-3.7,2.8-4.8,3.4c-1.1,0.6-0.3,3.7-3.3,5.7
					c0,0,0.9,3.4,1.1,4.9c0,0,4.5,0.2,5.6,2.8c1.1,2.6,4.2,12.8,4.2,12.8s4.5-1.4,6.6-0.5l2.7,1.1l7.6-4c0,0,2.8,0.5,3.3,0.6
					c0.5,0.2,3.3-0.3,3.3,4c0,0,9.7-1.1,12,0c0,0,9.4-4.7,11.7-4.3c0,0,4.1-10.6,5-11.6c0.9-1.1,0-4.6,0-5.7c0,0-1.7-0.2-2.8-1.4
					c0,0-6.8,2.2-8.4,2.6c0,0,5.7-0.7,7.5-0.9c0,0,2.5,0.2,2.3,2.6s-0.6,4.4-0.8,5.2c-0.2,0.8-4.1,7.6-7.3,8.7s-4.8,2-4.8,2
					l-11.4,1.1c0,0-5.3-4.1-5.9-4.9l-4.4,0.2l-6.4,3.5c0,0-6.9,0.3-8.6-1.4c-1.7-1.7-4.1-9-4.1-9s-2.3-3.7-4.4-4.7s-1.6-6.6,2.8-9
					c0,0,3-1.1,4.2-0.3c0,0,1.9-4.6,3.4-6c0,0-1.6-4.7-0.8-6.1c0,0-6.4-1.7-7.5-5.2s-2.8-4.9-1.1-7s5-4.9,5-4.9s-1.1-1.7-1.6-3.7
					c0,0-3.1-1.2-3.6-3.8l0.2-9.7l-1.4-1.8c0,0-0.4,11.7-0.3,13.1c0.2,2.1,3.4,3.4,3.4,3.4s1.2,1.7,0.6,2.4
					C143.1,219.4,138.3,224,138.3,224z"/>
			</g>
		</g>
		<g class="st38">
			<g>
				<path class="st39" d="M163.7,290.2c-0.5,1.5-2.3,6.6-3.6,7.8l1.8,5.2l-1.4,6.8l-4.5,1.6c0,0-4.9-0.1-6.2-0.2
					c-1.3-0.2-2.6,2.9-6.3,2.7c0,0-1.3,3.4-2.2,4.8c0,0,3.7,3,3,5.9s-4.6,13.5-4.6,13.5s4.7,1.7,5.8,3.8l1.6,2.6l9,1.5
					c0,0,2.1,2.2,2.4,2.6s2.9,1.8,0.2,5.4c0,0,8.8,5.2,10.1,7.6c0,0,10.9,2,12.6,3.8c0,0,10.1-6.3,11.6-6.6c1.5-0.3,2.9-3.9,3.6-4.8
					c0,0-1.3-1.2-1.5-2.9c0,0-3.6-0.2-5-1.6c0,0,0.5,1.1,3.2,2.4c0,0,2,1.7,0.3,3.7s-3.3,3.3-4,3.9s-8.3,3.9-11.7,2.7
					c-3.4-1.2-5.3-1.4-5.3-1.4l-10.3-6.3c0,0-1.8-6.8-1.9-7.9l-3.8-2.6l-7.6-1.1c0,0-6-4.1-6.3-6.6c-0.4-2.5,2.3-10.2,2.3-10.2
					s0.4-4.6-0.7-6.8s2.9-6.5,8.1-5.8c0,0,3.2,1,3.7,2.4c0,0,4.5-2.7,6.7-2.8c0,0,1.7-5,3.2-5.6c0,0-4.3-5.5-3-9.1
					c1.3-3.7,0.7-5.9,3.5-6.6s7.3-0.9,7.3-0.9s0.1-2.1,1-4.1c0,0-1.8-3-0.6-5.5l4.4-6l-0.9-0.4c0,0-4.9,5.6-5.7,6.8
					c-1.2,1.9,0.8,5,0.8,5s0,2.2-1,2.5C170.7,289.4,163.7,290.2,163.7,290.2z"/>
			</g>
		</g>
		<g>
			<circle class="st40" cx="140.3" cy="260.7" r="3.2"/>
			
				<linearGradient id="SVGID_1_" gradientUnits="userSpaceOnUse" x1="136.7918" y1="241.2852" x2="143.4788" y2="241.2852" gradientTransform="matrix(1 0 0 -1 0 502)">
				<stop  offset="0.2111" style="stop-color:#A535BC"/>
				<stop  offset="1" style="stop-color:#D887F9"/>
			</linearGradient>
			<path class="st41" d="M140,257.5c-0.5,0.2-1.2,2.4,0.7,3.5c1.8,1,2.8-0.5,2.8-0.5s0.1,3.8-4.1,3.4
				C135.1,263.5,136.7,257.8,140,257.5"/>
			<ellipse transform="matrix(0.866 -0.5 0.5 0.866 -110.5683 105.7299)" class="st42" cx="142" cy="259.2" rx="0.7" ry="0.9"/>
			<ellipse class="st42" cx="140.6" cy="258.3" rx="0.4" ry="0.4"/>
			<path class="st43" d="M142.2,258c0.7,0.5,1.2,1.3,1.4,2.1c0.2,0.9,0,1.8-0.5,2.6c-0.5,0.8-1.3,1.3-2.2,1.5s-1.9,0-2.7-0.6
				c-0.8-0.5-1.3-1.4-1.5-2.3c-0.1-0.5-0.1-1,0-1.4c0.1-0.5,0.3-0.9,0.6-1.3s0.7-0.7,1.1-0.9c0.4-0.2,0.9-0.3,1.3-0.4
				C140.6,257.2,141.5,257.5,142.2,258z M142.1,258.1c-0.3-0.2-0.7-0.4-1.1-0.5c-0.4-0.1-0.8,0-1.2,0.1c-0.8,0.2-1.4,0.7-1.8,1.3
				c-0.4,0.6-0.6,1.3-0.5,2.1c0,0.4,0.2,0.7,0.3,1c0.2,0.3,0.4,0.6,0.7,0.8c0.6,0.5,1.4,0.7,2.1,0.6c0.8-0.1,1.5-0.5,2-1.1
				s0.7-1.4,0.7-2.3c0-0.4-0.2-0.8-0.4-1.2C142.8,258.7,142.5,258.4,142.1,258.1z"/>
			<path class="st44" d="M138.1,263.6c0,0,1.8-2.8,5.1-1.1c0,0-0.9,1.4-2.1,1.7C139.9,264.4,139.2,264.2,138.1,263.6z"/>
		</g>
		<g>
			<circle class="st40" cx="179.1" cy="272.1" r="4"/>
			
				<linearGradient id="SVGID_2_" gradientUnits="userSpaceOnUse" x1="174.9126" y1="229.981" x2="183.0827" y2="229.981" gradientTransform="matrix(1 0 0 -1 0 502)">
				<stop  offset="0.2111" style="stop-color:#A535BC"/>
				<stop  offset="1" style="stop-color:#D887F9"/>
			</linearGradient>
			<path class="st45" d="M178.9,268.1c-0.6,0.2-1.5,2.9,0.9,4.3c2.1,1.2,3.4-0.6,3.4-0.6s0.2,4.6-5,4.1
				C172.9,275.5,174.8,268.6,178.9,268.1"/>
			<ellipse transform="matrix(0.866 -0.5 0.5 0.866 -110.8007 126.8403)" class="st42" cx="181.3" cy="270.2" rx="0.9" ry="1.1"/>
			<ellipse transform="matrix(0.866 -0.5 0.5 0.866 -110.4811 125.8418)" class="st42" cx="179.6" cy="269.1" rx="0.4" ry="0.5"/>
			<path class="st43" d="M181.5,268.8c0.8,0.6,1.4,1.6,1.7,2.6c0.2,1,0,2.2-0.6,3.1s-1.6,1.6-2.7,1.8c-1.1,0.2-2.3,0-3.3-0.7
				c-1-0.6-1.6-1.7-1.9-2.9c-0.1-0.6-0.1-1.2,0-1.8c0.1-0.6,0.4-1.1,0.8-1.6c0.4-0.5,0.8-0.9,1.3-1.1c0.5-0.3,1.1-0.4,1.6-0.4
				C179.6,267.8,180.7,268.2,181.5,268.8z M181.4,268.9c-0.4-0.3-0.9-0.5-1.4-0.6s-1,0-1.5,0.1c-0.9,0.3-1.7,0.9-2.2,1.6
				s-0.7,1.6-0.6,2.5c0.1,0.4,0.2,0.9,0.4,1.3s0.5,0.7,0.9,1c0.7,0.6,1.7,0.8,2.6,0.7c0.9-0.1,1.8-0.6,2.4-1.4
				c0.6-0.8,0.9-1.8,0.8-2.8c-0.1-0.5-0.2-1-0.5-1.4C182.2,269.6,181.8,269.2,181.4,268.9z"/>
			<path class="st44" d="M176.5,275.6c0,0,2.3-3.5,6.3-1.4c0,0-1.1,1.8-2.6,2.1C178.7,276.6,177.9,276.4,176.5,275.6z"/>
		</g>
		<g>
			<circle class="st40" cx="158.8" cy="269.9" r="4.7"/>
			
				<linearGradient id="SVGID_3_" gradientUnits="userSpaceOnUse" x1="153.8091" y1="232.1837" x2="163.471" y2="232.1837" gradientTransform="matrix(1 0 0 -1 0 502)">
				<stop  offset="0.2111" style="stop-color:#A535BC"/>
				<stop  offset="1" style="stop-color:#D887F9"/>
			</linearGradient>
			<path class="st46" d="M158.5,265.2c-0.7,0.3-1.8,3.5,1,5c2.5,1.4,4-0.7,4-0.7s0.2,5.4-5.9,4.9S153.7,265.7,158.5,265.2"/>
			<ellipse transform="matrix(0.866 -0.5 0.5 0.866 -112.2365 116.5238)" class="st42" cx="161.3" cy="267.7" rx="1" ry="1.3"/>
			<ellipse transform="matrix(0.866 -0.5 0.5 0.866 -111.855 115.347)" class="st42" cx="159.3" cy="266.4" rx="0.5" ry="0.6"/>
			<path class="st43" d="M161.6,266c1,0.7,1.7,1.8,2,3.1c0.3,1.2,0,2.6-0.7,3.7s-1.9,1.9-3.2,2.1c-1.3,0.3-2.7,0-3.9-0.8
				c-1.1-0.8-1.9-2-2.2-3.4c-0.1-0.7-0.1-1.4,0-2.1c0.2-0.7,0.5-1.3,0.9-1.9s1-1,1.6-1.3s1.3-0.5,1.9-0.5
				C159.3,264.8,160.6,265.3,161.6,266z M161.5,266.1c-0.5-0.3-1.1-0.6-1.7-0.7c-0.6-0.1-1.2,0-1.7,0.1c-1.1,0.3-2,1-2.6,1.9
				s-0.8,1.9-0.7,3c0.1,0.5,0.2,1,0.5,1.5s0.6,0.9,1,1.2c0.9,0.7,2,1,3.1,0.8c1.1-0.1,2.2-0.7,2.8-1.6c0.7-0.9,1.1-2.1,1-3.3
				c-0.1-0.6-0.2-1.2-0.6-1.7C162.4,266.9,162,266.5,161.5,266.1z"/>
			<path class="st44" d="M155.7,274c0,0,2.7-4.1,7.4-1.6c0,0-1.3,2.1-3.1,2.4C158.2,275.2,157.3,274.9,155.7,274z"/>
		</g>
		<g>
			<circle class="st40" cx="197.4" cy="262.8" r="2.7"/>
			
				<linearGradient id="SVGID_4_" gradientUnits="userSpaceOnUse" x1="194.5353" y1="239.2398" x2="200.0901" y2="239.2398" gradientTransform="matrix(1 0 0 -1 0 502)">
				<stop  offset="0.2111" style="stop-color:#A535BC"/>
				<stop  offset="1" style="stop-color:#D887F9"/>
			</linearGradient>
			<path class="st47" d="M197.2,260.1c-0.4,0.2-1,2,0.6,2.9c1.5,0.8,2.3-0.4,2.3-0.4s0.1,3.1-3.4,2.8
				C193.1,265.1,194.5,260.4,197.2,260.1"/>
			<ellipse transform="matrix(0.866 -0.5 0.5 0.866 -104.1337 134.5027)" class="st42" cx="198.9" cy="261.6" rx="0.6" ry="0.7"/>
			<ellipse transform="matrix(0.866 -0.5 0.5 0.866 -103.9135 133.7886)" class="st42" cx="197.7" cy="260.8" rx="0.3" ry="0.4"/>
			<path class="st43" d="M199,260.6c0.6,0.4,1,1.1,1.1,1.8c0.2,0.7,0,1.5-0.4,2.1s-1.1,1.1-1.9,1.2c-0.8,0.1-1.6,0-2.2-0.5
				c-0.6-0.4-1.1-1.2-1.3-1.9c-0.1-0.4-0.1-0.8,0-1.2c0.1-0.4,0.3-0.8,0.5-1.1c0.2-0.3,0.6-0.6,0.9-0.8c0.4-0.2,0.7-0.3,1.1-0.3
				C197.7,259.9,198.4,260.2,199,260.6z M199,260.7c-0.3-0.2-0.6-0.3-1-0.4c-0.3,0-0.7,0-1,0.1c-0.6,0.2-1.1,0.6-1.5,1.1
				c-0.3,0.5-0.5,1.1-0.4,1.7c0,0.3,0.1,0.6,0.3,0.9s0.4,0.5,0.6,0.7c0.5,0.4,1.1,0.6,1.8,0.5c0.6-0.1,1.2-0.4,1.6-0.9
				c0.4-0.5,0.6-1.2,0.6-1.9c0-0.3-0.1-0.7-0.3-1C199.5,261.1,199.3,260.9,199,260.7z"/>
			<path class="st44" d="M195.6,265.2c0,0,1.5-2.4,4.3-0.9c0,0-0.7,1.2-1.8,1.4C197.1,265.9,196.5,265.7,195.6,265.2z"/>
		</g>
		<g class="st38">
			<path class="st48" d="M272.9,186.2l-1.9,0.1l-0.1,0.7c0.7-0.2,1.3-0.3,1.5-0.4c0.2-0.1,2.3,0.9,2.3,0.9l0,0
				c0.1,0.1,0.2,0.2,0.2,0.3c-0.6-1.1-1-1.9-1-1.9L272.9,186.2z"/>
			<path class="st48" d="M279.9,197.6c0,0-0.4-1.9,0.6-3.5c0,0-3.6-3.6-5.4-6.2c-0.7,0.4,0.8,1.6,3.3,5.7c0,0,0.7,2.7-2,3.4
				s-5,0.8-5.9,0.9c-0.9,0.1-9.6-1.8-11.9-5c-2.2-3.2-0.4-2.7-0.4-2.7l-1.3-2.1c-0.1,0-0.2,0-0.3,0c0.5-0.6,4-0.2,4.7-0.2
				c-0.1-0.2-0.1-0.4-0.2-0.6l-6.3,0.4c0,0,0.1,0.1,0.2,0.2c-0.2,0-0.4,0-0.6-0.1c0.3,1.2,0,0.2-0.1,0.8c0,0,4.9,6.7,5.1,9.4
				c0,0,12.8,0.8,14.2,1.5c0.7,0.3,1.7,0,2.8-0.4c-1.4,3.1-1.3,7.6-3.1,9.6l0.2,2.8l3.8,6.2c0,0,0.6,6.8-1,8.6s-8.8,4.5-8.8,4.5
				s-3.6,2.5-4.5,4.6c-1,2.1-6.5,1.9-9.1-2.4c0,0-1.2-2.9-0.5-4.2c0,0-4.7-1.7-6.1-3.2c0,0-4.7,1.8-6.1,1.1c0,0-1.4,6.5-4.9,7.7
				c-3.5,1.3-4.8,3-7,1.4c-1.3-0.9-4.6-1.8-5.7-2.9c-0.3,0.5,2.6,3.2,2.6,3.2l2.6,2.6c1.4-0.5,7-2.4,8.7-2.1l2.7-4.5l5.8-3.1
				l3.9,2.3c0,0,2.9,3.6,3.6,4.7c0.7,1.1,3.7,0.1,5.8,3c0,0,3.3-1.1,4.8-1.3c0,0-0.1-4.5,2.5-5.7s12.6-4.8,12.6-4.8
				s-1.6-4.5-0.8-6.5l0.9-2.7l-4.3-7.5c0,0,0.3-2.8,0.5-3.3C276.1,206.9,277.7,200.2,279.9,197.6z"/>
		</g>
		<g>
			
				<ellipse transform="matrix(0.1602 -0.9871 0.9871 0.1602 30.8531 411.0634)" class="st40" cx="257" cy="187.4" rx="1.7" ry="1.7"/>
			
				<linearGradient id="SVGID_5_" gradientUnits="userSpaceOnUse" x1="255.1546" y1="314.643" x2="258.6763" y2="314.643" gradientTransform="matrix(1 0 0 -1 0 502)">
				<stop  offset="0.2111" style="stop-color:#A535BC"/>
				<stop  offset="1" style="stop-color:#D887F9"/>
			</linearGradient>
			<path class="st49" d="M256.9,185.7c-0.2,0.1-0.7,1.3,0.4,1.8c0.9,0.5,1.5-0.3,1.5-0.3s0.1,2-2.2,1.8S255.1,185.9,256.9,185.7"/>
			<ellipse transform="matrix(0.866 -0.5 0.5 0.866 -58.7478 153.9415)" class="st42" cx="257.9" cy="186.6" rx="0.4" ry="0.5"/>
			<ellipse transform="matrix(0.866 -0.5 0.5 0.866 -58.6251 153.5503)" class="st42" cx="257.2" cy="186.2" rx="0.2" ry="0.2"/>
			<path class="st43" d="M258,186c0.4,0.3,0.6,0.7,0.7,1.1c0.1,0.4,0,1-0.3,1.3c-0.3,0.4-0.7,0.7-1.2,0.8s-1,0-1.4-0.3
				s-0.7-0.7-0.8-1.2c0-0.2,0-0.5,0-0.8c0.1-0.2,0.2-0.5,0.3-0.7c0.2-0.2,0.4-0.4,0.6-0.5s0.5-0.2,0.7-0.2
				C257.2,185.6,257.6,185.8,258,186z M258,186.1c-0.2-0.1-0.4-0.2-0.6-0.2s-0.4,0-0.6,0c-0.4,0.1-0.7,0.4-0.9,0.7
				c-0.2,0.3-0.3,0.7-0.3,1.1c0,0.2,0.1,0.4,0.2,0.5c0.1,0.2,0.2,0.3,0.4,0.4c0.3,0.2,0.7,0.4,1.1,0.3c0.4-0.1,0.8-0.3,1-0.6
				c0.3-0.3,0.4-0.8,0.4-1.2c0-0.2-0.1-0.4-0.2-0.6C258.3,186.4,258.1,186.2,258,186.1z"/>
			<path class="st44" d="M255.8,188.9c0,0,1-1.5,2.7-0.6c0,0-0.5,0.8-1.1,0.9C256.8,189.4,256.4,189.3,255.8,188.9z"/>
		</g>
		<g>
			<circle class="st40" cx="261.6" cy="197.5" r="2"/>
			
				<linearGradient id="SVGID_6_" gradientUnits="userSpaceOnUse" x1="259.4438" y1="304.587" x2="263.6375" y2="304.587" gradientTransform="matrix(1 0 0 -1 0 502)">
				<stop  offset="0.2111" style="stop-color:#A535BC"/>
				<stop  offset="1" style="stop-color:#D887F9"/>
			</linearGradient>
			<path class="st50" d="M261.5,195.4c-0.3,0.1-0.8,1.5,0.4,2.2c1.1,0.6,1.7-0.3,1.7-0.3s0.1,2.4-2.6,2.1
				C258.4,199.2,259.4,195.7,261.5,195.4"/>
			<ellipse transform="matrix(0.866 -0.5 0.5 0.866 -63.056 157.6735)" class="st42" cx="262.7" cy="196.5" rx="0.4" ry="0.6"/>
			<ellipse transform="matrix(0.866 -0.5 0.5 0.866 -62.9257 157.1746)" class="st42" cx="261.8" cy="196" rx="0.2" ry="0.3"/>
			<path class="st43" d="M262.8,195.8c0.4,0.3,0.7,0.8,0.9,1.3c0.1,0.5,0,1.1-0.3,1.6s-0.8,0.8-1.4,0.9c-0.6,0.1-1.2,0-1.7-0.4
				c-0.5-0.3-0.8-0.9-1-1.5c-0.1-0.3-0.1-0.6,0-0.9c0.1-0.3,0.2-0.6,0.4-0.8c0.2-0.2,0.4-0.4,0.7-0.6c0.3-0.1,0.6-0.2,0.8-0.2
				C261.8,195.3,262.4,195.5,262.8,195.8z M262.8,195.8c-0.2-0.1-0.5-0.2-0.7-0.3c-0.3,0-0.5,0-0.7,0.1c-0.5,0.1-0.9,0.5-1.1,0.8
				c-0.3,0.4-0.4,0.8-0.3,1.3c0,0.2,0.1,0.5,0.2,0.7s0.3,0.4,0.5,0.5c0.4,0.3,0.9,0.4,1.3,0.4c0.5-0.1,0.9-0.3,1.2-0.7
				c0.3-0.4,0.5-0.9,0.4-1.4c0-0.3-0.1-0.5-0.2-0.7C263.2,196.2,263,196,262.8,195.8z"/>
			<path class="st44" d="M260.2,199.3c0,0,1.2-1.8,3.2-0.7c0,0-0.6,0.9-1.3,1.1S261,199.7,260.2,199.3z"/>
		</g>
		<g>
			<circle class="st40" cx="277.7" cy="191.7" r="1.9"/>
			
				<linearGradient id="SVGID_7_" gradientUnits="userSpaceOnUse" x1="275.6441" y1="310.2865" x2="279.657" y2="310.2865" gradientTransform="matrix(1 0 0 -1 0 502)">
				<stop  offset="0.2111" style="stop-color:#A535BC"/>
				<stop  offset="1" style="stop-color:#D887F9"/>
			</linearGradient>
			<path class="st51" d="M277.6,189.8c-0.3,0.1-0.7,1.4,0.4,2.1c1.1,0.6,1.7-0.3,1.7-0.3s0.1,2.3-2.5,2
				C274.6,193.4,275.6,190,277.6,189.8"/>
			<ellipse transform="matrix(0.866 -0.5 0.5 0.866 -58.0357 164.9592)" class="st42" cx="278.8" cy="190.8" rx="0.4" ry="0.5"/>
			<ellipse transform="matrix(0.866 -0.5 0.5 0.866 -57.9173 164.4597)" class="st42" cx="277.9" cy="190.3" rx="0.2" ry="0.3"/>
			<path class="st43" d="M278.9,190.1c0.4,0.3,0.7,0.8,0.8,1.3c0.1,0.5,0,1.1-0.3,1.5c-0.3,0.5-0.8,0.8-1.3,0.9
				c-0.5,0.1-1.1,0-1.6-0.3s-0.8-0.8-0.9-1.4c-0.1-0.3,0-0.6,0-0.9c0.1-0.3,0.2-0.6,0.4-0.8c0.2-0.2,0.4-0.4,0.7-0.5
				c0.3-0.1,0.5-0.2,0.8-0.2C277.9,189.6,278.5,189.8,278.9,190.1z M278.8,190.2c-0.2-0.1-0.4-0.2-0.7-0.3c-0.2,0-0.5,0-0.7,0.1
				c-0.5,0.1-0.8,0.4-1.1,0.8c-0.2,0.4-0.3,0.8-0.3,1.2c0,0.2,0.1,0.4,0.2,0.6c0.1,0.2,0.3,0.4,0.4,0.5c0.4,0.3,0.8,0.4,1.3,0.3
				c0.5-0.1,0.9-0.3,1.2-0.7c0.3-0.4,0.4-0.9,0.4-1.4c0-0.2-0.1-0.5-0.2-0.7C279.2,190.5,279,190.3,278.8,190.2z"/>
			<path class="st44" d="M276.4,193.4c0,0,1.1-1.7,3.1-0.7c0,0-0.5,0.9-1.3,1C277.5,193.9,277.1,193.8,276.4,193.4z"/>
		</g>
		<g>
			<circle class="st40" cx="272.8" cy="186.8" r="1.3"/>
			
				<linearGradient id="SVGID_8_" gradientUnits="userSpaceOnUse" x1="271.3889" y1="315.1976" x2="274.1041" y2="315.1976" gradientTransform="matrix(1 0 0 -1 0 502)">
				<stop  offset="0.2111" style="stop-color:#A535BC"/>
				<stop  offset="1" style="stop-color:#D887F9"/>
			</linearGradient>
			<path class="st52" d="M272.7,185.5c-0.2,0.1-0.5,1,0.3,1.4c0.7,0.4,1.1-0.2,1.1-0.2s0.1,1.5-1.7,1.4S271.4,185.6,272.7,185.5"/>
			<ellipse transform="matrix(0.866 -0.5 0.5 0.866 -56.454 161.699)" class="st42" cx="273.5" cy="186.2" rx="0.3" ry="0.4"/>
			<ellipse transform="matrix(0.866 -0.5 0.5 0.866 -56.348 161.3417)" class="st42" cx="272.9" cy="185.8" rx="0.1" ry="0.2"/>
			<path class="st43" d="M273.6,185.7c0.3,0.2,0.5,0.5,0.6,0.9c0.1,0.3,0,0.7-0.2,1s-0.5,0.5-0.9,0.6s-0.8,0-1.1-0.2
				c-0.3-0.2-0.5-0.6-0.6-0.9c0-0.2,0-0.4,0-0.6c0-0.2,0.1-0.4,0.3-0.5c0.1-0.2,0.3-0.3,0.4-0.4c0.2-0.1,0.4-0.1,0.5-0.1
				C272.9,185.4,273.3,185.5,273.6,185.7z M273.6,185.8c-0.1-0.1-0.3-0.2-0.5-0.2s-0.3,0-0.5,0c-0.3,0.1-0.6,0.3-0.7,0.5
				c-0.2,0.2-0.2,0.5-0.2,0.8c0,0.1,0.1,0.3,0.1,0.4c0.1,0.1,0.2,0.2,0.3,0.3c0.2,0.2,0.6,0.3,0.9,0.2c0.3,0,0.6-0.2,0.8-0.5
				c0.2-0.3,0.3-0.6,0.3-0.9c0-0.2-0.1-0.3-0.2-0.5C273.8,186,273.7,185.9,273.6,185.8z"/>
			<path class="st44" d="M271.9,188c0,0,0.8-1.2,2.1-0.5c0,0-0.4,0.6-0.9,0.7C272.6,188.3,272.4,188.2,271.9,188z"/>
		</g>
		<path class="st48" d="M125.1,237.1c-1,1-4.3,1.9-5.5,2.8c-2.1,1.6-3.4-0.2-6.8-1.4s-4.7-7.5-4.7-7.5c-1.4,0.7-5.9-1-5.9-1
			c-1.4,1.4-5.9,3.1-5.9,3.1c0.7,1.2-0.5,4.1-0.5,4.1c-2.6,4.1-7.9,4.3-8.9,2.3c-0.9-2-4.4-4.4-4.4-4.4s-7-2.6-8.6-4.3s-1-8.4-1-8.4
			l3.7-6l0.2-2.8c-1.7-2-1.6-6.3-3-9.4c1.1,0.4,2.1,0.7,2.7,0.4c1.4-0.6,13.8-1.4,13.8-1.4c0.3-2.6,5-9.1,5-9.1
			c-0.1-0.6-0.4,0.4-0.1-0.8c-0.2,0-0.4,0.1-0.6,0.1c0.1-0.1,0.2-0.2,0.2-0.2l-4.4-0.3c0,0.1,0,0.3-0.1,0.4c1.2-0.1,2.5-0.1,2.8,0.3
			c-0.1,0-0.2,0-0.2,0l-1.2,2c0,0,1.8-0.4-0.4,2.7c-2.2,3.1-10.7,4.9-11.5,4.8c-0.9-0.1-3.1-0.2-5.7-0.9c-2.6-0.6-2-3.3-2-3.3
			c2.4-4,3.8-5.2,3.2-5.6c-1.8,2.5-5.2,6-5.2,6c0.9,1.5,0.5,3.4,0.5,3.4c2.1,2.6,3.7,9,3.8,9.5c0.1,0.5,0.4,3.2,0.4,3.2l-4.2,7.2
			l0.9,2.6c0.8,2-0.7,6.3-0.7,6.3s9.8,3.5,12.2,4.6c2.5,1.2,2.4,5.6,2.4,5.6c1.5,0.2,4.7,1.3,4.7,1.3c2.1-2.8,5-1.9,5.6-2.9
			s3.5-4.5,3.5-4.5l3.8-2.2l5.6,3l2.6,4.4c1.6-0.2,7.1,1.5,8.4,2.1l2.6-2.6C122.6,240.2,125.4,237.6,125.1,237.1z"/>
		<path class="st48" d="M78.3,191.7h-0.7l-0.9-0.1c0,0-0.4,0.8-0.9,1.8c0.1-0.1,0.2-0.2,0.2-0.3l0,0c0,0,2-1,2.2-0.9
			c0.1,0-0.2-0.1,0,0L78.3,191.7z"/>
		<g>
			<circle class="st40" cx="75.7" cy="193.4" r="0.8"/>
			
				<linearGradient id="SVGID_9_" gradientUnits="userSpaceOnUse" x1="74.7565" y1="308.5465" x2="76.49" y2="308.5465" gradientTransform="matrix(1 0 0 -1 0 502)">
				<stop  offset="0.2111" style="stop-color:#A535BC"/>
				<stop  offset="1" style="stop-color:#D887F9"/>
			</linearGradient>
			<path class="st53" d="M75.6,192.6c-0.1,0.1-0.3,0.6,0.2,0.9c0.5,0.3,0.7-0.1,0.7-0.1s0,1-1.1,0.9S74.7,192.7,75.6,192.6"/>
			<ellipse class="st42" cx="76.1" cy="193" rx="0.2" ry="0.2"/>
			<ellipse class="st42" cx="75.7" cy="192.8" rx="0.1" ry="0.1"/>
			<path class="st43" d="M76.2,192.7c0.2,0.1,0.3,0.3,0.4,0.6c0.1,0.2,0,0.5-0.1,0.7s-0.3,0.3-0.6,0.4c-0.2,0-0.5,0-0.7-0.1
				s-0.3-0.4-0.4-0.6c0-0.1,0-0.3,0-0.4c0-0.1,0.1-0.2,0.2-0.3s0.2-0.2,0.3-0.2c0.1-0.1,0.2-0.1,0.3-0.1
				C75.7,192.5,76,192.6,76.2,192.7z M76.1,192.7c-0.1-0.1-0.2-0.1-0.3-0.1c-0.1,0-0.2,0-0.3,0c-0.2,0.1-0.4,0.2-0.5,0.3
				c-0.1,0.2-0.2,0.3-0.1,0.5c0,0.1,0,0.2,0.1,0.3c0,0.1,0.1,0.2,0.2,0.2c0.2,0.1,0.4,0.2,0.6,0.1c0.2,0,0.4-0.1,0.5-0.3
				s0.2-0.4,0.2-0.6c0-0.1,0-0.2-0.1-0.3C76.3,192.9,76.2,192.8,76.1,192.7z"/>
			<path class="st44" d="M75.1,194.2c0,0,0.5-0.7,1.3-0.3c0,0-0.2,0.4-0.6,0.4C75.6,194.4,75.4,194.3,75.1,194.2z"/>
		</g>
		<g>
			<circle class="st40" cx="95.3" cy="193.1" r="1.4"/>
			
				<linearGradient id="SVGID_10_" gradientUnits="userSpaceOnUse" x1="93.8079" y1="308.9413" x2="96.6374" y2="308.9413" gradientTransform="matrix(1 0 0 -1 0 502)">
				<stop  offset="0.2111" style="stop-color:#A535BC"/>
				<stop  offset="1" style="stop-color:#D887F9"/>
			</linearGradient>
			<path class="st54" d="M95.2,191.7c-0.2,0.1-0.5,1,0.3,1.5c0.7,0.4,1.2-0.2,1.2-0.2s0.1,1.6-1.7,1.4
				C93.1,194.3,93.8,191.9,95.2,191.7"/>
			<ellipse transform="matrix(0.866 -0.5 0.5 0.866 -83.3846 73.7981)" class="st42" cx="96" cy="192.5" rx="0.3" ry="0.4"/>
			<ellipse transform="matrix(0.866 -0.5 0.5 0.866 -83.2711 73.4412)" class="st42" cx="95.4" cy="192.1" rx="0.1" ry="0.2"/>
			<path class="st43" d="M96.1,192c0.3,0.2,0.5,0.5,0.6,0.9s0,0.8-0.2,1.1s-0.6,0.5-1,0.6s-0.8,0-1.1-0.2c-0.3-0.2-0.6-0.6-0.6-1
				c0-0.2,0-0.4,0-0.6c0-0.2,0.1-0.4,0.3-0.6c0.1-0.2,0.3-0.3,0.5-0.4c0.2-0.1,0.4-0.1,0.6-0.2C95.4,191.6,95.8,191.8,96.1,192z
				 M96.1,192c-0.1-0.1-0.3-0.2-0.5-0.2s-0.3,0-0.5,0c-0.3,0.1-0.6,0.3-0.8,0.6c-0.2,0.3-0.2,0.6-0.2,0.9c0,0.2,0.1,0.3,0.1,0.4
				c0.1,0.1,0.2,0.3,0.3,0.4c0.3,0.2,0.6,0.3,0.9,0.2c0.3,0,0.6-0.2,0.8-0.5c0.2-0.3,0.3-0.6,0.3-1c0-0.2-0.1-0.3-0.2-0.5
				C96.3,192.3,96.2,192.1,96.1,192z"/>
			<path class="st44" d="M94.3,194.3c0,0,0.8-1.2,2.2-0.5c0,0-0.4,0.6-0.9,0.7C95.1,194.7,94.8,194.6,94.3,194.3z"/>
		</g>
		<g>
			<circle class="st40" cx="72.2" cy="202" r="1.8"/>
			
				<linearGradient id="SVGID_11_" gradientUnits="userSpaceOnUse" x1="70.1979" y1="300.0933" x2="74.0021" y2="300.0933" gradientTransform="matrix(1 0 0 -1 0 502)">
				<stop  offset="0.2111" style="stop-color:#A535BC"/>
				<stop  offset="1" style="stop-color:#D887F9"/>
			</linearGradient>
			<path class="st55" d="M72,200.1c-0.3,0.1-0.7,1.4,0.4,2c1,0.6,1.6-0.3,1.6-0.3s0.1,2.1-2.3,1.9C69.2,203.5,70.1,200.3,72,200.1"
				/>
			<ellipse transform="matrix(0.866 -0.5 0.5 0.866 -90.7295 63.5386)" class="st42" cx="73.2" cy="201.1" rx="0.4" ry="0.5"/>
			<ellipse transform="matrix(0.866 -0.5 0.5 0.866 -90.5882 63.075)" class="st42" cx="72.4" cy="200.6" rx="0.2" ry="0.3"/>
			<path class="st43" d="M73.3,200.4c0.4,0.3,0.7,0.7,0.8,1.2c0.1,0.5,0,1-0.3,1.5c-0.3,0.4-0.8,0.7-1.3,0.8s-1.1,0-1.5-0.3
				s-0.8-0.8-0.9-1.3c-0.1-0.3,0-0.6,0-0.8c0.1-0.3,0.2-0.5,0.4-0.7c0.2-0.2,0.4-0.4,0.6-0.5s0.5-0.2,0.8-0.2
				C72.4,200,72.9,200.1,73.3,200.4z M73.2,200.5c-0.2-0.1-0.4-0.2-0.7-0.3c-0.2,0-0.5,0-0.7,0c-0.4,0.1-0.8,0.4-1,0.8
				c-0.2,0.3-0.3,0.8-0.3,1.2c0,0.2,0.1,0.4,0.2,0.6c0.1,0.2,0.2,0.3,0.4,0.5c0.3,0.3,0.8,0.4,1.2,0.3c0.4-0.1,0.8-0.3,1.1-0.6
				c0.3-0.4,0.4-0.8,0.4-1.3c0-0.2-0.1-0.5-0.2-0.7C73.6,200.8,73.4,200.6,73.2,200.5z"/>
			<path class="st44" d="M70.9,203.6c0,0,1.1-1.6,2.9-0.6c0,0-0.5,0.8-1.2,1C71.9,204.1,71.6,203.9,70.9,203.6z"/>
		</g>
		<g>
			<circle class="st40" cx="90.2" cy="202.3" r="2.1"/>
			
				<linearGradient id="SVGID_12_" gradientUnits="userSpaceOnUse" x1="87.9656" y1="299.6875" x2="92.3724" y2="299.6875" gradientTransform="matrix(1 0 0 -1 0 502)">
				<stop  offset="0.2111" style="stop-color:#A535BC"/>
				<stop  offset="1" style="stop-color:#D887F9"/>
			</linearGradient>
			<path class="st56" d="M90.1,200.2c-0.3,0.1-0.8,1.6,0.5,2.3c1.2,0.6,1.8-0.3,1.8-0.3s0.1,2.5-2.7,2.2
				C86.9,204.2,87.9,200.4,90.1,200.2"/>
			<ellipse transform="matrix(0.866 -0.5 0.5 0.866 -88.405 72.6602)" class="st42" cx="91.4" cy="201.3" rx="0.5" ry="0.6"/>
			<ellipse transform="matrix(0.866 -0.5 0.5 0.866 -88.224 72.1254)" class="st42" cx="90.5" cy="200.7" rx="0.2" ry="0.3"/>
			<path class="st43" d="M91.5,200.6c0.5,0.3,0.8,0.8,0.9,1.4c0.1,0.6,0,1.2-0.3,1.7s-0.9,0.9-1.5,1s-1.2,0-1.8-0.4
				c-0.5-0.3-0.9-0.9-1-1.5c-0.1-0.3-0.1-0.6,0-1c0.1-0.3,0.2-0.6,0.4-0.9c0.2-0.3,0.4-0.5,0.7-0.6c0.3-0.1,0.6-0.2,0.9-0.2
				C90.5,200,91.1,200.2,91.5,200.6z M91.5,200.6c-0.2-0.2-0.5-0.3-0.8-0.3s-0.5,0-0.8,0.1c-0.5,0.1-0.9,0.5-1.2,0.9
				c-0.3,0.4-0.4,0.9-0.3,1.4c0,0.2,0.1,0.5,0.2,0.7s0.3,0.4,0.5,0.6c0.4,0.3,0.9,0.4,1.4,0.4c0.5-0.1,1-0.3,1.3-0.7
				s0.5-0.9,0.4-1.5c0-0.3-0.1-0.5-0.3-0.8C91.9,201,91.7,200.8,91.5,200.6z"/>
			<path class="st44" d="M88.8,204.2c0,0,1.2-1.9,3.4-0.8c0,0-0.6,1-1.4,1.1C90,204.8,89.6,204.6,88.8,204.2z"/>
		</g>
		<g>
			<path class="st48" d="M265,172.8c0,0-3.6-0.2-5-1.6c0,0,0.5,1.1,3.2,2.4c0,0,2,1.7,0.3,3.7s-3.3,3.3-4,3.9
				c-0.6,0.5-8.3,3.9-11.7,2.7s-5.3-1.4-5.3-1.4l-10.3-6.3c0,0-1.8-6.8-1.9-7.9l-3.8-2.6l-10.4-2.5c0,0-1.4-1.4-2.8-2.2
				c-2.1-1.2-6.7-1.9-6.7-1.9s-2.4,0.1-2.7-1s-1.4-8.6-1.4-8.6c-1.6-0.4-7.1-2.1-8.5-3.5l-5.5,2.3l-7.3-1.2l-1.9-4.8
				c0,0-0.1-5.3,0.1-6.7c0.1-1.4-3.2-2.6-3.1-6.7c0,0-3.7-1.3-5.2-2.1c0,0-3.1,4.2-6.2,3.5c-3.1-0.6-14.6-4.3-14.6-4.3
				s-1.7,5.1-3.9,6.5l-2.7,1.8l-1.3,9.7c0,0-2.3,2.3-2.7,2.7c-0.2,0.2-0.7,1.1-1.7,1.5l-0.3,0.1c-0.9,0.3-2.1,0.1-3.8-1
				c0,0-5.3,9.8-7.9,11.3c0,0-1.7,11.9-3.7,13.8c0,0,1.6,2.4,3.4,5.1c-1.9,0.8-3.6,1.4-3.6,1.4s-3.6,2.5-4.5,4.6
				c-1,2.1-6.5,1.9-9.1-2.4c0,0-1.2-2.9-0.5-4.2c0,0-4.7-1.7-6.1-3.2c0,0-4.7,1.8-6.1,1.1c0,0-1.1,4.9-3.6,7l1.3,0.9l1.5-2.5
				l5.8-3.1l3.9,2.3c0,0,2.9,3.6,3.6,4.7c0.7,1.1,3.7,0.1,5.8,3c0,0,3.3-1.1,4.8-1.3c0,0-0.1-4.5,2.5-5.7c2.5-1.2,12.6-4.8,12.6-4.8
				s-1.6-4.5-0.8-6.5l0.9-2.7l-4.3-7.5c0,0,0.1-0.8,0.2-1.6l3.4-5.9c0,0,2.5-0.8,4.8-1.5l1.5,1.1l2.9-0.7c2.3-0.7,6.8,1.5,6.8,1.5
				s4.8-10.2,6.3-12.8c1.5-2.5,6.3-2,6.3-2c0.4-1.6,1.9-4.9,1.9-4.9c-0.3-0.3-0.5-0.5-0.7-0.8c0.1,0,0.2,0,0.2,0s4.9,0.1,7.2-1.1
				c2.3-1.2,7.1,2.7,6.5,8.4c0,0-1,3.5-2.5,4.2c0,0,3,4.7,3.3,7.1c0,0,5.4,1.6,6.2,3.2c0,0,5.7-4.9,9.7-3.7s6.4,0.5,7.2,3.5
				c0.9,3,1.2,7.8,1.2,7.8s2.3,0,4.4,0.9c0,0,2.9,0.6,5.6,1.8l4.5,3.3l9.2,1.4c0,0,2.1,2.2,2.4,2.6c0.3,0.4,2.9,1.8,0.2,5.4
				c0,0,8.8,5.2,10.1,7.6c0,0,10.9,2,12.6,3.8c0,0,10.1-6.3,11.6-6.6s2.9-3.9,3.6-4.8C266.4,175.8,265.1,174.5,265,172.8z
				 M132,165.8c0,0,0.6,6.8-1,8.6c-0.7,0.7-2.2,1.6-3.9,2.4c-1.1-2.8-2-6.3-1.3-8.5c1.2-3.8,1.3-5.8,1.3-5.8l1.4-2.5L132,165.8z
				 M159.7,135c-2.3,0.8-5.3,4.3-5.3,4.3s-3.5,7.3-5.6,8.8c-1.3,0.9-4.6,0.8-6.9,0.5l2.6-4.1l0.9-8.3c0,0,4.2-6.7,6.9-7.2
				c1.8-0.4,6.2,0.7,8.8,1.4C161.6,132.5,161,134.5,159.7,135z"/>
		</g>
	</g>
</g>
<g>
	<circle class="st40" cx="158.5" cy="131.5" r="5"/>
	
		<linearGradient id="SVGID_13_" gradientUnits="userSpaceOnUse" x1="153.1169" y1="370.5347" x2="163.4723" y2="370.5347" gradientTransform="matrix(1 0 0 -1 0 502)">
		<stop  offset="0.2111" style="stop-color:#A535BC"/>
		<stop  offset="1" style="stop-color:#D887F9"/>
	</linearGradient>
	<path class="st57" d="M158.1,126.5c-0.7,0.3-1.9,3.7,1.1,5.4c2.7,1.5,4.3-0.8,4.3-0.8s0.2,5.8-6.4,5.3
		C150.5,135.9,153,127.1,158.1,126.5"/>
	<ellipse transform="matrix(0.866 -0.5 0.5 0.866 -43.0249 97.8706)" class="st42" cx="161.1" cy="129.2" rx="1.1" ry="1.4"/>
	<ellipse transform="matrix(0.866 -0.5 0.5 0.866 -42.5977 96.623)" class="st42" cx="159" cy="127.8" rx="0.5" ry="0.7"/>
	<path class="st43" d="M161.5,127.4c1.1,0.8,1.8,2,2.1,3.3s0.1,2.8-0.7,4s-2.1,2-3.5,2.3s-2.9-0.1-4.1-0.9c-1.2-0.8-2.1-2.1-2.4-3.6
		c-0.1-0.7-0.1-1.5,0-2.2c0.2-0.7,0.5-1.4,1-2c0.5-0.6,1-1.1,1.7-1.4s1.4-0.5,2.1-0.6C159,126.1,160.4,126.6,161.5,127.4z
		 M161.4,127.5c-0.5-0.4-1.1-0.6-1.8-0.7c-0.6-0.1-1.3,0-1.9,0.1c-1.2,0.4-2.1,1.1-2.7,2.1c-0.6,0.9-0.9,2.1-0.8,3.2
		c0.1,0.6,0.2,1.1,0.5,1.6s0.7,0.9,1.1,1.3c0.9,0.7,2.1,1,3.3,0.9s2.3-0.8,3-1.8s1.2-2.2,1-3.5c-0.1-0.6-0.3-1.3-0.6-1.8
		C162.4,128.4,161.9,127.9,161.4,127.5z"/>
	<path class="st44" d="M155.1,136c0,0,2.9-4.4,8-1.8c0,0-1.4,2.2-3.3,2.6C157.9,137.2,156.9,137,155.1,136z"/>
</g>
</svg>
