<?xml version="1.0" encoding="utf-8"?>
<!-- Generator: Adobe Illustrator 23.1.1, SVG Export Plug-In . SVG Version: 6.00 Build 0)  -->
<svg version="1.1" id="Capa_1" xmlns="http://www.w3.org/2000/svg" xmlns:xlink="http://www.w3.org/1999/xlink" x="0px" y="0px"
	 viewBox="0 0 350 500" style="enable-background:new 0 0 350 500;" xml:space="preserve">
<style type="text/css">
	.st0{fill:#F2F2F2;}
	.st1{display:none;fill:url(#SVGID_1_);}
	.st2{display:none;fill:url(#SVGID_2_);}
	.st3{fill:none;}
	.st4{fill:#24FF87;}
	.st5{opacity:0.96;fill:#FFFFFF;}
	.st6{fill:#C1C1C1;}
	.st7{fill:#E2E2E2;}
	.st8{fill:#CECECE;}
	.st9{opacity:0.68;fill:#FFFFFF;}
	.st10{fill:#EAEAEA;}
	.st11{fill:url(#SVGID_3_);}
	.st12{fill:#C7F9D9;}
	.st13{fill:#606060;}
	.st14{fill:none;stroke:#606060;stroke-width:5;stroke-miterlimit:10;}
	.st15{fill:#2EA366;}
	.st16{opacity:0.34;fill:#21844E;}
	.st17{fill:url(#SVGID_4_);}
	.st18{fill:url(#SVGID_5_);}
	.st19{fill:url(#SVGID_6_);}
	.st20{fill:url(#SVGID_7_);}
	.st21{fill:url(#SVGID_8_);}
	.st22{fill:url(#SVGID_9_);}
</style>
<g>
	<g>
		<path class="st0" d="M142.1,231c0,0,14.8-0.2,18.9,0.7c0,0,28.1,25.8,74,13.5c0,0,5.7-44.1-32.8-50S161,231.7,161,231.7"/>
		<path class="st0" d="M219.1,245.2l7.3,0.8c0,0,12.7-3.1,23.7,3.1c11,6.2,17.8,14.7,17.8,33.1c0,0,5.4,5.4,5.1,8.2
			c0,0,24,19.2,7.6,55.1c0,0-3.7,6.5-5.4,7.3c-1.7,0.8-4.5,2.5-5.7,2.5s-2.5-1.7-2.5-1.7s-5.7,3.1-10.2,0.3l-2.8-1.4
			c0,0-0.8-5.1-4.2-9.9c0,0-1.7-6.8,3.7-7.1c0,0,2.5-1.1,3.1-2.3c0.6-1.1,1.7-4,1.7-4s-5.9-2.8-9.6-11s-2-14.4-2-14.4l-8.8-8.8
			l-3.1,7.9c0,0,1.1,23.3-1.4,29.4c-4.8,11.9-23.7,25.4-41.3,24.9c0,0-6.8-0.6-7.9-0.3c-1.1,0.3-6.8,30-21.2,31.4
			s-30.8-6.5-28.6-21.5c2.3-15,11-28.8,18.4-35.3c0,0,0.3-11.6,3.7-18.1l-2.3-11.3l-14.7-19.5l-11,5.4c0,0,5.9,21.2-10.2,27.4
			l0.6,5.7c0,0,4.8,4.2,5.7,7.9c0,0-2.3,10.5-3.7,10.7c-1.4,0.3-4.5,1.4-4.5,1.4s0.8,5.9-5.7,7.3c0,0-4.6,1.4-9,1.4
			c-3,0-4.8-0.1-4.8-0.1l-4.6-0.1l-1,0c-1.6-0.1-9.1-8.1-9.4-8.9c-0.3-0.8-13.3-29.4,8.8-60.5l3.1-1.1c0,0,0.6-6.8,8.2-11
			c0,0,6.8-40.7,51.7-39c0,0,10.2,0.8,18.1,10.7"/>
		<path class="st0" d="M233.1,331.5c0,0,19.6,13.2,6.6,48c0,0-3.7,13.9-35.9,1.7l-4-25.2"/>
		<path class="st0" d="M206.1,382.1c0,0-8.2,7.6-7.6,18.1c0.6,10.5,6.5,23.7,6.5,23.7s7.3,1.7,11.3-1.4c4-3.1,10.5-6.5,17.8-5.1
			c0,0,5.9-20.4,5.7-25.7c-0.3-5.4-4-7.9-4-7.9"/>
		<path class="st0" d="M210.6,424.5c0,0,20.9,0.6,23.7-0.6s1.7-5.1,1.7-5.1l-2-1.4"/>
		<path class="st0" d="M134.9,375.3c0,0-12.4,14.4-13.6,39c0,0,0.3,2.8,1.4,3.7c0,0,0.6,2,4.2,0.8c3.7-1.1,7.9-2.8,12.7,0.6
			c4.8,3.4,6.8,6.2,11.9,0.3s17.8-9.3,11.6-31.1"/>
		<path class="st0" d="M122.7,418c0,0-1.7,5.1,6.2,6.5s15,2,17.2-1.1"/>
		<path class="st0" d="M234.9,303.2c0,0,15.8-32.8,6.2-46.4"/>
		<path class="st0" d="M246.8,304c0,0,8.2,1.7,17.5-7.9"/>
		<path class="st0" d="M278.8,323.3c-15-0.8-20.4,6.2-20.4,6.2s11.9-5.1,20.4,0"/>
		<path class="st0" d="M128.7,288.2c0,0-10.5-11.3-15-12.4"/>
		<path class="st0" d="M138,284c0,0,12.7-6.2,15-27.1"/>
		<path class="st0" d="M153,331.7c0,0,20.4,0.3,27.1,15"/>
		<path class="st0" d="M176.6,239.9c0,0,14.2,12.9,35.2,10"/>
		<linearGradient id="SVGID_1_" gradientUnits="userSpaceOnUse" x1="194.1557" y1="233.6673" x2="200.1021" y2="230.2341">
			<stop  offset="0" style="stop-color:#24FFFF"/>
			<stop  offset="0.1068" style="stop-color:#24F8F9"/>
			<stop  offset="0.2566" style="stop-color:#23E6EA"/>
			<stop  offset="0.4318" style="stop-color:#22C8D0"/>
			<stop  offset="0.6263" style="stop-color:#219EAD"/>
			<stop  offset="0.834" style="stop-color:#1F6A80"/>
			<stop  offset="1" style="stop-color:#1E3A57"/>
		</linearGradient>
		<ellipse class="st1" cx="197.1" cy="232" rx="3.2" ry="4.1"/>
		<linearGradient id="SVGID_2_" gradientUnits="userSpaceOnUse" x1="209.0753" y1="235.4969" x2="214.0157" y2="232.6446">
			<stop  offset="0" style="stop-color:#24FFFF"/>
			<stop  offset="0.1068" style="stop-color:#24F8F9"/>
			<stop  offset="0.2566" style="stop-color:#23E6EA"/>
			<stop  offset="0.4318" style="stop-color:#22C8D0"/>
			<stop  offset="0.6263" style="stop-color:#219EAD"/>
			<stop  offset="0.834" style="stop-color:#1F6A80"/>
			<stop  offset="1" style="stop-color:#1E3A57"/>
		</linearGradient>
		<path class="st2" d="M209.1,233.6c-0.4,1.8,0.5,3.4,1.8,3.7c1.4,0.3,2.7-0.9,3.1-2.7s-0.5-3.4-1.8-3.7
			C210.8,230.6,209.4,231.8,209.1,233.6z"/>
		<path class="st3" d="M155.8,332c0,0,1.4-13.9,4.2-17.8c0,0-1.1-11.6-1.1-12.7c0-1.1-10.7-14.4-12.4-26.9"/>
		<path class="st0" d="M261.2,326.4c0,0-9.3-8.8-9-22.6c0,0-8.2-9-10.5-18.4"/>
		<path class="st0" d="M204.7,354.6l4.5,28.8c0,0-10.7,13.3-2.3,40.7"/>
		<path class="st0" d="M104.9,350.7"/>
		<path class="st0" d="M252.5,345.7"/>
		<path class="st0" d="M267.2,353.8"/>
		<path class="st0" d="M116.5,341.3"/>
		<circle class="st4" cx="146.3" cy="212.9" r="7.4"/>
		<circle class="st0" cx="224.3" cy="280.1" r="1.9"/>
		<circle class="st0" cx="173.9" cy="302.6" r="5.2"/>
	</g>
	<path class="st0" d="M167.1,235.3l16.4,1.1c0,0,12.2,8.8,11.9,9.3s-6.6,4.2-6.6,4.2l-24-4.5L167.1,235.3z"/>
	<path class="st0" d="M125.5,421.2c-0.4-1-1.7-6.8,1.3-8.3c3-1.6,13.1-0.7,13.1-0.7s6.1,3.7,6.4,5.9c0.3,2.3,2.8,5.7-3.4,5.9
		C136.7,424.3,125.5,421.2,125.5,421.2z"/>
	<path class="st0" d="M213.3,422.3c0,0,6.1-10.5,8.1-10.9s7.8,0,9.3,1c1.6,1,4.2,4.5,3.5,6.8s-6.6,3.4-6.6,3.4l-13.4,1.1
		L213.3,422.3z"/>
	<path class="st0" d="M197.8,185.6c-0.8,7.5-2.8,11-2.8,11l7.7,0.6c-0.8-17.3-2.9-26.7-3.5-29.1c1-0.5,1.7-1.5,1.6-2.7
		c-0.1-1.6-1.4-2.8-3-2.7c-1.6,0.1-2.8,1.4-2.7,3c0.1,1.4,1.1,2.5,2.4,2.7C197.8,171.2,198.5,179.5,197.8,185.6z"/>
	<path class="st5" d="M199.1,226.5c0.4-0.4,1.2-2.9,1-3.8c-0.2-0.9-1.4-3.6-1.4-3.6s-1.7-1.2-2.2-1.1c-0.5,0.1-1.9,0-2.6,0.8
		c-0.7,0.8-2.9,3.4-0.5,7.6C193.3,226.3,195.5,230.2,199.1,226.5z"/>
	<path class="st5" d="M225.1,225.1c-0.3-0.9-0.1-2.7-1.5-3.4c-1.4-0.7-2.5-0.2-2.5-0.2s-1.7,0.7-2.1,3.3c-0.4,2.6,1.2,3.9,1.2,3.9
		s0.9,0.8,1.7,0.6c0.8-0.2,1.5,0.1,2.1-1.1C224.6,226.8,225.1,225.1,225.1,225.1z"/>
	<path class="st6" d="M91.4,349.9l-9.4-8.9c0,0,1.4-2,6.8-2c5.4,0,11.2,1.6,14.6-0.4c2.6-1.5,6.9,6.4,9.4,7.5
		C115.4,347.3,101.6,351.4,91.4,349.9"/>
	<path class="st7" d="M82.9,341.3c0,0,21.8,2,21.5-5.4c-0.3-7.3-4-23.2-4-23.2s-0.4-21.1,5.7-25.4c10.2-7.3,1.7-9.3,5.1-11.9
		c3.4-2.5,11.6-44.4,48.6-44.9c0,0-21.5-5.3-38.5,7.2c-17.4,12.8-19.2,30.7-19.2,30.7s-7.6,4.7-9,9.2c-0.2,0.7-2.3,2.9-2.3,2.9
		C84.7,289.8,72.9,314,82.9,341.3z"/>
	<path class="st8" d="M167.1,235.3"/>
	<path class="st7" d="M152.7,257.1c0,0,2.6,9,6.5,14.1c7.1,9.3,34.2-5.4,50.6-0.6c16.4,4.8,31.4,13.3,31.4,13.3s-4.8,17.5-5.9,18.1
		s-13.9-20.6-40.4-15.8c-26.6,4.8-24.3,37.6-24.3,37.6l-2,11.9c0,0-17,9.3-20.4,50.9c0,0-5.4-3.1-6.8-3.7s-9.3,25.4-8.8,34.5
		c0,0-13.9,7.6-10.7-8.5s5.9-24.3,13.3-33.6c0,0-5.9-16.1,17.8-43c0,0-1.4-6.8,4-18.9l-3.1-11.9L140,282.8
		C140,282.8,152.4,271.5,152.7,257.1z"/>
	<path class="st6" d="M151.8,261.3c0,0-2.4,12.5,0.8,18.9c4.2,8.5,6.8,19.2,6.8,19.2l-0.6,2.3l1.1,12.4c0,0-4.5,16.4-4.8,17.5
		c-0.3,1.1-2.3,0.6-2.3,0.6s0.3-12.7,4-18.9l-3.1-11.9L140,282.8C140,282.8,149.9,272.4,151.8,261.3z"/>
	<path class="st7" d="M157.1,349.7c4.5-10.2,16.7-8.7,22.3-0.6c5.5,8.1,1.1-3.4-0.2-5.1s-8.1-9.1-13.4-10c-5.3-0.8-10.4,7-10.4,7
		L157.1,349.7z"/>
	<path class="st7" d="M148.4,375.3c-0.2,1.5,2.5,6.6,11,8.9s11.2,0.2,13.4-1.9c0,0-4.2,8.7-20.6,5.7s-10.2-13.4-9.5-15.7
		S148.4,375.3,148.4,375.3z"/>
	<path class="st6" d="M136,377.8c-0.6-0.8,4.8,14.7,24,15.8c0,0,5.4,10.2-4,20.9c0,0,13-7.1,7.1-26
		C163.1,388.6,146.7,391.7,136,377.8z"/>
	<path class="st6" d="M137.4,425c0,0-6.5-4.5,0.6-5.9c0,0-1.1-3.7-9.9-0.8c0,0-3.6,2.6-5,0.3C121.7,416.3,121.6,427,137.4,425z"/>
	<path class="st9" d="M211.3,293.7c-0.7,3,2.1,11,0.4,25.9c-1.7,14.8-4.2,21.2-7.6,26.7c-3.4,5.5,11,3.4,19.5-6.8
		c8.5-10.2,11.4-31.4,6.4-37.3C224.9,296.3,212.6,288.6,211.3,293.7z"/>
	<path class="st10" d="M117.4,316.4l-1.5-7.8c0,0,11-5.1,12.3-21.2l-5.1-5.1c0,0,23-6.6,28.7-20.9c0,0-5.4,18-16,23l-7,4.2
		c0,0,3,17.2-2.5,21.8C120.8,315.1,117.4,316.4,117.4,316.4z"/>
	<path class="st9" d="M214.9,261.5c9.1,1.5,14.1,8.4,19.8,7.3c5.7-1.1,7.5-5.5,5.1-8.4c-2.4-2.9-11-4.3-19.8-3.9
		c-5.5,0.2-12.3-0.5-13,1.7C206.2,260.6,214.9,261.5,214.9,261.5z"/>
	<path class="st6" d="M122.4,418.2c0,0,4.5-28.3,14.1-39.3c0,0-1.1-20.6,14.4-45.5c0,0-15.8,15.8-16.7,38.4l0.8,3.4
		c0,0-8.5,10.2-11.9,23.2C119.9,411.5,121.6,416,122.4,418.2z"/>
	<path class="st7" d="M208.9,353.8c0,0-20.4,2.5-29.7-12.2c-9.3-14.7-13.6-11.3-13.6-11.3l2.8,5.4c0,0,9.6,11.8,11.7,14.6
		c1.6,2.2,3.6,6.9,3.6,6.9S203.2,358.6,208.9,353.8z"/>
	<path class="st7" d="M233,342.5c-1.7,2.9-2.8,10.8-11.1,15.1c-8.3,4.2-0.2,27.6-0.2,27.6s-16.3,8.5-8,35.2c0,0,0.2,2.1,4,0.8
		c0,0-4.2,5.1-12.7,2.5c0,0-5.7-14-6.4-21.6c-0.6-7.6,1.7-12.7,7.8-20.1l-2.5-1.1l-4-24.4c0,0,21.6-1.3,34.1-24.4c0,0,9,7.7,10,19.6
		C244,351.6,237.4,335.1,233,342.5z"/>
	<path class="st6" d="M221.7,346.3c0,0-9.8,6.4-13.4,9.1c-3.6,2.8,0.6,26.7,0.6,26.7s-5.1,7.2-4.9,25.9c0,0,1.1,13.4,2.5,15.9
		l-1.7-0.2c0,0-8.9-20.1-5.7-29.5s7.2-12.3,7.2-12.3l-2.5-1.1l-4-24.4C199.9,356.5,210.7,356.9,221.7,346.3z"/>
	<path class="st6" d="M203.3,387.8c0,0,26.9,7.2,34.1-2.3l-1.5-1.7c0,0-10.6,6.4-29.5-1.9L203.3,387.8z"/>
	<path class="st6" d="M228.1,417.1c1.8-0.4-3.6,7.2,1.3,7s-14.2,0.8-15.5,0.4C212.6,424.1,223,418.4,228.1,417.1z"/>
	<path class="st7" d="M244.3,272.1c0,0,4.5,12.2,7.3,16.7c2.8,4.5,8.8,9.9,12.2,8.2c0,0-4.5,8.2-1.1,14.4c3.4,6.2,4.8,11.6,6.5,12.4
		c0,0-3.1,2.5-0.8,3.1c0,0-2.5,8.2-5.9,9c-3.4,0.8-5.7,2.8-5.7,4.5s1.1,10.2-2,11l-4.8-8.2c0,0-0.6-6.2,2-7.1
		c2.5-0.8,4.2-2.8,5.4-4.5c1.1-1.7-0.3-2.5-0.3-2.5s-11.6-7.1-10.5-25.2l-8.2-7.9C238.3,296.1,244,280.9,244.3,272.1z"/>
	<path class="st6" d="M244,264.5c0-1.5,2.4,19.9,2.5,24.9c0.2,7.3,4,12.7,5.7,14.4c0,0,1.1,14.4,9,22.6l-2.8,3.1
		c0,0-12.4-8.2-11.9-25.4l-8.2-7.9C238.3,296.1,244,276.7,244,264.5z"/>
	<path class="st6" d="M254.7,351.5L254.7,351.5c0,0,0.8-0.6,3.7,0.8c2.8,1.4,2.5,0.6,5.7-0.3c3.1-0.8,3.3,0.5,3.3,0.5
		s6.6,1.5,10-2.5c0,0-6.2,6.2-8.2,5.4c-2-0.8-2-1.4-4-0.6C263.2,355.8,256.4,355.2,254.7,351.5z"/>
	<path class="st9" d="M252.3,252.8c0,2.3,8.8,14.4,9.9,21.5c1.1,7.1,5.4,2.6,4.5-2.8c-1.5-8.7-5.6-13.3-10.1-17.2
		C252,250.3,252.3,252.8,252.3,252.8z"/>
	<path class="st9" d="M235.7,380.6c-5.9-5.9,4.2-12.2,6.4-24.8c1.1-6.7,1.7,6.4,1.7,7.8c0,0.1,0,0.2,0,0.3
		C243.6,365.9,241.1,386,235.7,380.6z"/>
	<linearGradient id="SVGID_3_" gradientUnits="userSpaceOnUse" x1="139.0225" y1="217.1697" x2="152.1021" y2="209.6182">
		<stop  offset="0" style="stop-color:#24FF87"/>
		<stop  offset="0.1486" style="stop-color:#24F884"/>
		<stop  offset="0.3569" style="stop-color:#23E67D"/>
		<stop  offset="0.6004" style="stop-color:#21C871"/>
		<stop  offset="0.8687" style="stop-color:#1F9F60"/>
		<stop  offset="1" style="stop-color:#1E8857"/>
	</linearGradient>
	<path class="st11" d="M145.8,205.5c-1.1,0.4-2.9,5.5,1.6,8c4,2.3,6.3-1.1,6.3-1.1s0.3,8.6-9.4,7.8
		C134.5,219.3,138.2,206.4,145.8,205.5"/>
	<ellipse transform="matrix(0.866 -0.5 0.5 0.866 -84.5919 103.2)" class="st12" cx="150.3" cy="209.5" rx="1.6" ry="2"/>
	<ellipse transform="matrix(0.866 -0.5 0.5 0.866 -83.9932 101.3353)" class="st12" cx="147.1" cy="207.4" rx="0.8" ry="1"/>
	<path class="st13" d="M233.5,331.9c1.8,1.2,3.3,2.7,4.7,4.4c1.4,1.7,2.5,3.5,3.4,5.5c1,2,1.7,4,2.2,6.1c0.5,2.1,0.9,4.3,1.1,6.4
		c0.2,2.2,0.2,4.4,0.1,6.5c-0.1,2.2-0.4,4.3-0.8,6.5c-0.8,4.3-2,8.5-3.5,12.5l0-0.1c-0.1,0.2-0.1,0.3-0.1,0.4c0,0.1-0.1,0.2-0.1,0.3
		c-0.1,0.2-0.2,0.4-0.3,0.6c-0.2,0.4-0.5,0.8-0.8,1.1c-0.6,0.7-1.2,1.3-1.9,1.9c-1.4,1.1-3.1,1.8-4.7,2.3c-3.3,0.9-6.8,0.9-10.1,0.6
		c-3.3-0.4-6.6-1.1-9.7-1.9c-3.2-0.9-6.3-2-9.3-3.2l-0.4-0.2l-0.1-0.4l-0.9-6.1l-0.8-6.1c-0.5-4.1-1.1-8.1-1.5-12.2
		c0.9,4,1.7,8,2.4,12.1l1.2,6.1l1.1,6.1l-0.5-0.6c3.1,1.1,6.1,2,9.3,2.8c3.1,0.8,6.3,1.4,9.4,1.7c3.2,0.3,6.4,0.2,9.3-0.6
		c0.7-0.2,1.4-0.5,2.1-0.8c0.7-0.3,1.3-0.7,1.9-1.1c0.6-0.4,1.1-0.9,1.6-1.5c0.2-0.3,0.4-0.6,0.6-0.9c0.1-0.2,0.2-0.3,0.2-0.5
		l0.1-0.2c0-0.1,0.1-0.2,0.1-0.2l0-0.1c0.7-2,1.4-4,2-6c0.6-2,1.1-4.1,1.5-6.1c0.8-4.1,1.3-8.3,1.1-12.5c-0.1-2.1-0.3-4.2-0.8-6.2
		c-0.4-2.1-1-4.1-1.8-6c-0.8-1.9-1.8-3.8-3-5.6c-0.6-0.9-1.3-1.7-2-2.5C235.1,333.3,234.4,332.5,233.5,331.9z"/>
	<path class="st13" d="M206.2,382.1c-1.2,1.4-2.3,3-3.2,4.6c-0.9,1.6-1.7,3.3-2.3,5c-0.6,1.7-1,3.5-1.2,5.3l-0.1,1.3l0,1.3
		c0,0.4,0,0.9,0.1,1.4c0,0.5,0.1,0.9,0.1,1.4c0.5,3.6,1.2,7.3,2.1,10.9c0.9,3.6,2.1,7.2,3.5,10.6l-0.2-0.2c1.2,0.2,2.5,0.4,3.8,0.4
		c1.3,0,2.5-0.1,3.7-0.4c1.2-0.3,2.3-0.8,3.2-1.5c1-0.8,2-1.6,3.2-2.3c1.1-0.7,2.3-1.4,3.5-1.9c1.2-0.5,2.5-1,3.8-1.3
		c1.3-0.3,2.7-0.5,4-0.5c1.4-0.1,2.7,0.1,4.1,0.3l-1.3,0.8l2.3-8.5c0.4-1.4,0.8-2.8,1.1-4.3c0.4-1.4,0.7-2.8,1.1-4.3l0.5-2.1
		c0.2-0.7,0.3-1.4,0.5-2.1c0.3-1.4,0.6-2.9,0.5-4.2c0-1.4-0.3-2.8-0.9-4.1c-0.3-0.7-0.6-1.3-1-1.9c-0.4-0.6-0.9-1.2-1.4-1.6l0.1-0.2
		c2.5,1.7,4.2,4.6,4.5,7.7c0.1,0.8,0.1,1.6,0,2.3c0,0.8-0.1,1.5-0.2,2.3c-0.1,0.7-0.2,1.5-0.3,2.2c-0.1,0.7-0.2,1.5-0.4,2.2
		c-0.3,1.5-0.6,2.9-0.9,4.4c-0.3,1.4-0.7,2.9-1,4.3c-0.3,1.4-0.7,2.9-1.1,4.3c-0.4,1.4-0.8,2.9-1.2,4.3l-0.3,0.9l-1-0.2
		c-1.2-0.2-2.4-0.4-3.6-0.4c-1.2,0-2.4,0.1-3.6,0.4c-1.2,0.3-2.4,0.6-3.5,1c-1.2,0.4-2.3,1-3.4,1.6c-1.1,0.6-2.1,1.3-3.2,2
		c-1.2,0.8-2.5,1.2-3.8,1.5c-1.3,0.2-2.6,0.2-3.9,0.2c-1.3-0.1-2.6-0.2-3.9-0.5l-0.2,0l-0.1-0.1c-0.8-1.7-1.5-3.5-2.2-5.2
		c-0.7-1.7-1.4-3.5-2-5.3c-1.3-3.5-2.3-7.2-2.8-11c-0.1-0.5-0.1-1-0.1-1.4c0-0.5-0.1-1-0.1-1.5l0-1.5l0.2-1.5
		c0.3-1.9,0.8-3.8,1.6-5.6c0.8-1.8,1.8-3.4,2.9-5c1.1-1.5,2.4-3,3.9-4.2L206.2,382.1z"/>
	<path class="st13" d="M210.6,424.5c2.5-0.3,5-0.5,7.4-0.7c2.5-0.1,4.9-0.2,7.4-0.3l3.7-0.1c1.2,0,2.4-0.1,3.6-0.2
		c0.3,0,0.6-0.1,0.8-0.1c0.3,0,0.4-0.1,0.7-0.2c0.4-0.2,0.8-0.5,1-0.9c0.3-0.4,0.4-0.9,0.5-1.5c0.1-0.6,0.1-1.2,0-1.7l0.1,0.2
		c-0.6-0.6-1.2-1.1-1.8-1.7c0.7,0.4,1.5,0.7,2.2,1.1l0.1,0l0.1,0.1c0.2,0.6,0.4,1.3,0.4,1.9c0,0.7,0,1.4-0.3,2.1
		c-0.3,0.7-0.8,1.4-1.5,1.7c-0.3,0.2-0.8,0.4-1.1,0.4c-0.3,0.1-0.7,0.1-1,0.2c-1.3,0.2-2.5,0.3-3.8,0.4c-1.2,0.1-2.5,0.1-3.7,0.1
		c-2.5,0-5-0.1-7.4-0.2C215.6,425.2,213.1,424.9,210.6,424.5z"/>
	<path class="st13" d="M134.9,375.3c-1.9,2.9-3.6,6-5.1,9.1c-1.5,3.1-2.8,6.3-3.8,9.6c-0.3,0.8-0.5,1.7-0.8,2.5
		c-0.3,0.8-0.5,1.6-0.7,2.5l-0.7,2.5c-0.2,0.8-0.4,1.7-0.6,2.5c-0.4,1.7-0.7,3.4-1,5.1c-0.3,1.7-0.4,3.4-0.6,5.2l0-0.1
		c0,0.3,0.1,0.6,0.1,1c0.1,0.3,0.1,0.6,0.2,0.9c0.1,0.3,0.2,0.6,0.4,0.9c0.1,0.3,0.3,0.5,0.5,0.7l0.1,0.1l0,0.1
		c0,0.1,0.1,0.2,0.2,0.3c0.1,0.1,0.2,0.2,0.3,0.3c0.3,0.2,0.6,0.2,0.9,0.3c0.6,0.1,1.3,0,2-0.2c1.3-0.4,2.7-0.9,4.1-1.3
		c1.4-0.4,2.9-0.6,4.4-0.5c1.5,0.1,3,0.6,4.3,1.4c0.3,0.2,0.7,0.4,1,0.6l0.9,0.6l1.7,1.2c0.6,0.4,1.1,0.8,1.7,1
		c0.6,0.3,1.1,0.4,1.6,0.5c0.5,0,1-0.2,1.5-0.4l0.4-0.2c0.1-0.1,0.3-0.2,0.4-0.3l0.4-0.3c0.1-0.1,0.2-0.2,0.4-0.3
		c0.2-0.2,0.5-0.5,0.7-0.7l0.7-0.8c0.5-0.6,1-1.1,1.6-1.6c2.2-2,4.5-3.6,6.4-5.5c1-1,1.8-2,2.6-3.1c0.7-1.1,1.3-2.3,1.8-3.6
		c0.5-1.3,0.7-2.6,0.9-4c0.1-0.7,0.1-1.4,0.2-2.1c0-0.3,0-0.7,0-1c0-0.3,0-0.7,0-1l0-1.1l-0.1-1.1c0-0.7-0.1-1.4-0.2-2.1
		c-0.1-0.7-0.2-1.4-0.3-2.1l-0.4-2.1l0.2-0.1c0.2,0.7,0.5,1.4,0.7,2c0.2,0.7,0.4,1.4,0.6,2.1c0.2,0.7,0.4,1.4,0.5,2.1l0.2,1.1
		l0.1,1.1c0.4,2.9,0.3,5.9-0.6,8.8c-0.8,2.9-2.5,5.6-4.6,7.7c-1,1.1-2.1,2.1-3.2,3c-1.1,0.9-2.2,1.8-3.2,2.7c-0.5,0.5-1,0.9-1.4,1.4
		l-0.8,0.8c-0.3,0.3-0.6,0.5-0.8,0.8c-0.3,0.3-0.6,0.5-0.9,0.7c-0.1,0.1-0.3,0.2-0.5,0.3l-0.5,0.3c-0.8,0.4-1.6,0.7-2.6,0.6
		c-0.9-0.1-1.7-0.4-2.4-0.7c-0.7-0.4-1.3-0.8-1.9-1.3c-0.6-0.4-1.1-0.9-1.7-1.3l-0.8-0.6c-0.3-0.2-0.5-0.4-0.8-0.6
		c-1.1-0.7-2.4-1.2-3.7-1.5c-1.3-0.2-2.7-0.1-4.1,0.1c-0.7,0.1-1.4,0.3-2.1,0.5c-0.7,0.2-1.3,0.4-2.1,0.6c-0.7,0.2-1.5,0.3-2.3,0.2
		c-0.8-0.1-1.6-0.5-1.9-1.4l0.1,0.2c-0.3-0.3-0.5-0.6-0.7-0.9c-0.2-0.3-0.3-0.6-0.4-1c-0.1-0.3-0.2-0.7-0.3-1
		c-0.1-0.3-0.1-0.7-0.2-1l0,0l0,0l0.1-2.6c0-0.9,0-1.8,0.1-2.6c0.2-1.8,0.3-3.5,0.6-5.3c0.4-3.5,1.4-6.9,2.5-10.3l0.9-2.5
		c0.3-0.8,0.7-1.6,1-2.4c0.7-1.6,1.5-3.2,2.4-4.7c1.7-3.1,3.7-6,6.2-8.6L134.9,375.3z"/>
	<path class="st13" d="M122.8,418c-0.2,1.1,0,2.3,0.7,3.2c0.6,0.9,1.6,1.5,2.6,1.9c0.5,0.2,1.1,0.3,1.6,0.5c0.6,0.1,1.1,0.2,1.7,0.3
		c1.2,0.2,2.3,0.3,3.5,0.4c1.2,0.1,2.3,0.2,3.5,0.2l3.4,0.1c1.1,0,2.2,0,3.3-0.1c1.1-0.2,2.1-0.4,3.1-1.2l0.2,0.1
		c-0.2,0.6-0.7,1.1-1.2,1.5c-0.5,0.4-1.1,0.7-1.7,1c-1.2,0.5-2.4,0.7-3.7,0.8c-1.2,0.1-2.4,0-3.6-0.1c-1.2-0.2-2.4-0.4-3.5-0.6
		c-1.2-0.2-2.3-0.5-3.5-0.7c-0.6-0.1-1.2-0.3-1.8-0.5c-0.6-0.2-1.2-0.4-1.7-0.7c-1.1-0.6-2.1-1.4-2.7-2.5c-0.6-1.1-0.7-2.4-0.3-3.6
		L122.8,418z"/>
	<path class="st13" d="M234.9,303.2c1.3-3.8,2.6-7.7,3.8-11.5c1.2-3.8,2.3-7.7,3.1-11.6c0.4-1.9,0.8-3.9,1.1-5.9
		c0.3-2,0.5-3.9,0.5-5.9c0-2,0-3.9-0.4-5.9c-0.3-1.9-0.9-3.9-1.9-5.6c1.4,1.5,2.3,3.4,2.9,5.4c0.6,2,0.9,4,1,6.1
		c0.1,2.1,0,4.1-0.2,6.2c-0.1,1-0.3,2-0.4,3.1c-0.2,1-0.4,2-0.6,3c-0.2,1-0.5,2-0.7,3c-0.3,1-0.5,2-0.9,2.9c-0.6,1.9-1.3,3.9-2,5.8
		C238.8,296,237,299.7,234.9,303.2z"/>
	<path class="st13" d="M246.8,304c1.7,0,3.3-0.3,4.8-0.8c1.6-0.4,3-1,4.5-1.8l1.1-0.6c0.4-0.2,0.7-0.4,1-0.6
		c0.7-0.4,1.4-0.9,2.1-1.3c0.4-0.2,0.7-0.5,1-0.7l1-0.7c0.7-0.5,1.3-1,2-1.5c-0.5,0.7-1,1.3-1.6,2c-0.6,0.6-1.2,1.2-1.8,1.7
		c-0.7,0.5-1.3,1.1-2,1.5c-0.4,0.2-0.7,0.5-1.1,0.7l-1.1,0.6c-0.4,0.2-0.8,0.3-1.2,0.5l-0.6,0.2c-0.2,0.1-0.4,0.1-0.6,0.2
		c-0.4,0.1-0.8,0.3-1.2,0.4c-0.4,0.1-0.8,0.2-1.3,0.3C250.2,304.5,248.4,304.5,246.8,304z"/>
	<path class="st13" d="M278.8,323.3c-0.9,0-1.8,0.1-2.7,0.1c-0.9,0.1-1.8,0.1-2.7,0.3l-1.3,0.2c-0.2,0-0.4,0.1-0.7,0.1l-0.7,0.1
		l-1.3,0.3l-1.3,0.4c-1.7,0.5-3.4,1.1-5,2c-0.8,0.4-1.5,0.9-2.2,1.4c-0.4,0.3-0.7,0.5-1,0.8c-0.3,0.3-0.6,0.6-0.9,0.9l-0.8-1
		c1.7-0.7,3.4-1.2,5.1-1.5c1.7-0.4,3.5-0.6,5.3-0.6c1.8,0,3.6,0.1,5.3,0.6c0.9,0.2,1.7,0.5,2.5,0.9c0.8,0.4,1.6,0.8,2.3,1.3
		c-0.8-0.4-1.6-0.7-2.4-1c-0.8-0.2-1.7-0.5-2.5-0.6c-1.7-0.3-3.4-0.3-5.1-0.2c-1.7,0.1-3.4,0.4-5.1,0.8c-1.7,0.4-3.4,0.9-4.9,1.5
		l0,0c-0.3,0.1-0.7,0-0.8-0.3c-0.1-0.2,0-0.5,0.1-0.6c0.3-0.4,0.7-0.7,1-1.1c0.4-0.3,0.7-0.6,1.1-0.9c0.8-0.6,1.6-1.1,2.4-1.5
		c1.7-0.9,3.5-1.5,5.3-1.9l1.4-0.3c0.5-0.1,0.9-0.1,1.4-0.2l0.7-0.1c0.2,0,0.5,0,0.7-0.1l1.4-0.1c0.9,0,1.8,0,2.8,0
		C276.9,323.1,277.8,323.2,278.8,323.3z"/>
	<path class="st13" d="M128.6,288.7c-1.3-1-2.5-2.6-3.7-3.6c-1.2-1.1-2.4-2.2-3.6-3.3c-1.2-1.1-2.4-2.2-3.6-3.2
		c-0.6-0.5-1.2-1-1.9-1.5c-0.6-0.5-1.3-0.9-2.1-1.3c0.8,0.1,1.6,0.4,2.4,0.8c0.7,0.4,1.5,0.8,2.2,1.3c1.4,0.9,2.7,2,3.9,3.1
		c0.6,0.6,1.2,1.1,1.8,1.7c0.6,0.6,1.2,1.2,1.7,1.8C126.7,285.6,127.7,287.3,128.6,288.7z"/>
	<path class="st13" d="M137.8,283.5c1.9-1.9,3.7-3.6,5.1-5.7c1.5-2.1,2.7-4.3,3.9-6.5c0.5-1.1,1.1-2.3,1.6-3.5l0.4-0.9l0.2-0.4
		l0.2-0.4c0.2-0.6,0.5-1.2,0.7-1.8c0.1-0.3,0.3-0.6,0.4-0.9c0.1-0.3,0.2-0.6,0.3-0.9l0.7-1.9c0.5-1.2,0.9-2.5,1.5-3.8l0.2,0
		c-0.2,1.3-0.3,2.7-0.5,4l-0.4,2c-0.1,0.7-0.3,1.3-0.5,2l-0.6,1.9l-0.1,0.5l-0.2,0.5l-0.4,0.9l-0.4,0.9l-0.2,0.5l-0.2,0.5l-0.9,1.8
		c-1.3,2.4-2.8,4.6-4.5,6.7c-1.8,2-3.8,3.8-6.2,5.1L137.8,283.5z"/>
	<path class="st13" d="M153,331.7c2.7-0.2,5.5,0.1,8.2,0.7c1.3,0.3,2.7,0.6,4,1.1c1.3,0.4,2.6,1,3.8,1.6c1.2,0.6,2.4,1.3,3.6,2.1
		c1.1,0.8,2.2,1.7,3.2,2.7c2,2,3.5,4.4,4.4,6.9c-1.4-2.3-3.1-4.4-5.1-6.2c-1-0.9-2-1.7-3.2-2.4c-1.1-0.7-2.3-1.4-3.5-2
		c-2.4-1.2-4.9-2.1-7.5-2.8C158.3,332.7,155.7,332.1,153,331.7z"/>
	<path class="st13" d="M155.8,332c0.1-1.5,0.3-3.1,0.5-4.6c0.2-1.5,0.4-3,0.7-4.6c0.3-1.5,0.6-3,1-4.5l0.3-1.1l0.4-1.1
		c0.1-0.4,0.3-0.7,0.5-1.1c0.2-0.4,0.4-0.7,0.6-1l0,0.1c-0.3-3.5-0.7-7.1-1-10.6l-0.1-1.3c0-0.2,0-0.4,0-0.7c0,0,0-0.1,0-0.1
		c0,0,0-0.1,0-0.1c0-0.1-0.1-0.2-0.1-0.3c-0.4-0.8-0.9-1.5-1.4-2.3c-1-1.5-1.9-3-2.8-4.5c-1.8-3-3.5-6.2-4.9-9.5
		c-0.7-1.6-1.3-3.3-1.8-5c-0.5-1.7-0.9-3.4-1.1-5.2c0.6,3.5,1.7,6.9,3.2,10.1c1.4,3.2,3.2,6.3,5,9.4c0.9,1.5,1.9,3,2.9,4.5
		c0.5,0.7,1,1.5,1.4,2.3c0.1,0.1,0.1,0.2,0.2,0.3c0,0,0,0.1,0.1,0.2c0,0.1,0,0.1,0,0.2c0,0.2,0,0.4,0,0.7l0.1,1.3
		c0.3,3.5,0.6,7.1,1,10.6l0,0.1l0,0.1c-0.2,0.3-0.4,0.6-0.6,1c-0.2,0.3-0.3,0.7-0.5,1l-0.4,1.1l-0.3,1.1c-0.4,1.5-0.8,3-1.1,4.5
		c-0.3,1.5-0.6,3-0.8,4.5C156.2,329,156,330.5,155.8,332z"/>
	<path class="st13" d="M261.2,326.4c-1.5-1.4-2.8-3.1-4-4.8c-1.2-1.7-2.1-3.6-2.9-5.5l-0.3-0.7c-0.1-0.2-0.2-0.5-0.3-0.7
		c-0.2-0.5-0.3-1-0.5-1.5c-0.3-1-0.6-2-0.7-3.1c-0.4-2.1-0.5-4.2-0.6-6.3l0.1,0.1c-1.2-1.3-2.3-2.8-3.3-4.2c-1-1.4-2-2.9-2.9-4.5
		c-0.9-1.5-1.7-3.1-2.4-4.8c-0.7-1.6-1.3-3.3-1.7-5.1c0.5,1.7,1.1,3.4,1.8,5c0.8,1.6,1.6,3.2,2.5,4.7c0.9,1.5,1.9,3,3,4.4
		c1,1.4,2.1,2.8,3.3,4.1l0.1,0.1l0,0.1c0,2.1,0.1,4.1,0.5,6.2c0.2,1,0.5,2,0.7,3c0.1,0.5,0.3,1,0.5,1.5c0.1,0.2,0.2,0.5,0.3,0.7
		l0.3,0.7c0.8,1.9,1.7,3.8,2.8,5.5C258.5,323.2,259.8,324.9,261.2,326.4z"/>
	<path class="st13" d="M204.8,355.6l1.2,6.9l1.2,7l1.1,7l1.1,7l0,0.1l-0.1,0.1c-1,1.4-1.8,3-2.5,4.6c-0.7,1.6-1.2,3.3-1.7,5
		c-0.9,3.4-1.3,6.9-1.3,10.4c-0.1,3.5,0.2,7,0.7,10.5c0.5,3.5,1.3,6.9,2.3,10.2c-1.1-3.3-2-6.7-2.5-10.2c-0.6-3.5-0.9-7-0.9-10.5
		c0-3.5,0.5-7,1.3-10.5c0.4-1.7,1-3.4,1.7-5c0.7-1.6,1.5-3.2,2.6-4.6l0,0.2l-1.1-7l-1.1-7l-1-7L204.8,355.6z"/>
	<path class="st14" d="M104.9,350.7"/>
	<path class="st14" d="M252.5,345.7"/>
	<path class="st14" d="M267.2,353.8"/>
	<path class="st14" d="M116.5,341.3"/>
	<path class="st15" d="M150.7,206.8c1.6,1.2,2.7,2.9,3.1,4.9c0.4,2,0.1,4.1-1.1,5.9c-1.2,1.7-3.1,3-5.2,3.3
		c-2.1,0.4-4.3-0.1-6.1-1.3c-1.8-1.2-3.1-3.2-3.5-5.4c-0.2-1.1-0.2-2.2,0.1-3.3c0.3-1.1,0.8-2.1,1.4-3c0.7-0.9,1.5-1.6,2.5-2.1
		c1-0.5,2-0.8,3.1-0.8C147.2,205,149.2,205.7,150.7,206.8z M150.6,207c-0.8-0.5-1.7-0.9-2.6-1c-0.9-0.1-1.9-0.1-2.7,0.2
		c-1.7,0.5-3.1,1.7-4.1,3c-0.9,1.4-1.3,3.1-1.1,4.7c0.1,0.8,0.4,1.6,0.8,2.4c0.4,0.7,1,1.4,1.7,1.9c1.4,1.1,3.2,1.6,4.9,1.3
		c1.8-0.2,3.4-1.2,4.5-2.6c1.1-1.4,1.7-3.3,1.5-5.2c-0.1-0.9-0.4-1.9-0.9-2.7C152.1,208.3,151.4,207.6,150.6,207z"/>
	<path class="st16" d="M141.3,219.6c0,0,4.2-6.5,11.8-2.6c0,0-2,3.3-4.9,3.9C145.4,221.4,143.9,221,141.3,219.6z"/>
	<g>
		<circle class="st4" cx="96.9" cy="254.7" r="2.6"/>
		<linearGradient id="SVGID_4_" gradientUnits="userSpaceOnUse" x1="94.3675" y1="256.15" x2="98.9407" y2="253.5096">
			<stop  offset="0" style="stop-color:#24FF87"/>
			<stop  offset="0.1486" style="stop-color:#24F884"/>
			<stop  offset="0.3569" style="stop-color:#23E67D"/>
			<stop  offset="0.6004" style="stop-color:#21C871"/>
			<stop  offset="0.8687" style="stop-color:#1F9F60"/>
			<stop  offset="1" style="stop-color:#1E8857"/>
		</linearGradient>
		<path class="st17" d="M96.7,252.1c-0.4,0.2-1,1.9,0.6,2.8c1.4,0.8,2.2-0.4,2.2-0.4s0.1,3-3.3,2.7S94.1,252.4,96.7,252.1"/>
		<ellipse transform="matrix(0.866 -0.5 0.5 0.866 -113.5554 83.1074)" class="st12" cx="98.3" cy="253.5" rx="0.6" ry="0.7"/>
		<ellipse transform="matrix(0.866 -0.5 0.5 0.866 -113.3461 82.4555)" class="st12" cx="97.2" cy="252.7" rx="0.3" ry="0.4"/>
		<path class="st15" d="M98.5,252.5c0.5,0.4,0.9,1,1.1,1.7c0.2,0.7,0,1.4-0.4,2.1c-0.4,0.6-1.1,1-1.8,1.2c-0.7,0.1-1.5,0-2.1-0.5
			c-0.6-0.4-1.1-1.1-1.2-1.9c-0.1-0.4-0.1-0.8,0-1.2c0.1-0.4,0.3-0.7,0.5-1c0.2-0.3,0.5-0.6,0.9-0.7c0.3-0.2,0.7-0.3,1.1-0.3
			C97.2,251.9,97.9,252.1,98.5,252.5z M98.4,252.6c-0.3-0.2-0.6-0.3-0.9-0.4c-0.3,0-0.7,0-1,0.1c-0.6,0.2-1.1,0.6-1.4,1.1
			c-0.3,0.5-0.5,1.1-0.4,1.7c0,0.3,0.1,0.6,0.3,0.8c0.1,0.3,0.3,0.5,0.6,0.7c0.5,0.4,1.1,0.5,1.7,0.5c0.6-0.1,1.2-0.4,1.6-0.9
			c0.4-0.5,0.6-1.2,0.5-1.8c0-0.3-0.1-0.7-0.3-0.9C98.9,253,98.7,252.8,98.4,252.6z"/>
		<path class="st16" d="M95.2,257c0,0,1.5-2.3,4.1-0.9c0,0-0.7,1.2-1.7,1.4S96.1,257.5,95.2,257z"/>
	</g>
	<circle class="st4" cx="173.8" cy="302.4" r="5.1"/>
	<linearGradient id="SVGID_5_" gradientUnits="userSpaceOnUse" x1="168.73" y1="305.2933" x2="177.7903" y2="300.0623">
		<stop  offset="0" style="stop-color:#24FF87"/>
		<stop  offset="0.1486" style="stop-color:#24F884"/>
		<stop  offset="0.3569" style="stop-color:#23E67D"/>
		<stop  offset="0.6004" style="stop-color:#21C871"/>
		<stop  offset="0.8687" style="stop-color:#1F9F60"/>
		<stop  offset="1" style="stop-color:#1E8857"/>
	</linearGradient>
	<path class="st18" d="M173.4,297.2c-0.7,0.3-2,3.8,1.1,5.5c2.8,1.6,4.4-0.8,4.4-0.8s0.2,6-6.5,5.4
		C165.6,306.8,168.1,297.8,173.4,297.2"/>
	<ellipse transform="matrix(0.866 -0.5 0.5 0.866 -126.323 128.4485)" class="st12" cx="176.5" cy="299.9" rx="1.1" ry="1.4"/>
	<ellipse transform="matrix(0.866 -0.5 0.5 0.866 -125.9083 127.1568)" class="st12" cx="174.3" cy="298.5" rx="0.6" ry="0.7"/>
	<path class="st15" d="M176.8,298.1c1.1,0.8,1.9,2,2.2,3.4c0.3,1.4,0.1,2.9-0.8,4.1c-0.8,1.2-2.1,2.1-3.6,2.3
		c-1.4,0.3-3-0.1-4.2-0.9c-1.2-0.8-2.1-2.2-2.4-3.7c-0.1-0.8-0.1-1.5,0-2.3c0.2-0.8,0.5-1.5,1-2.1c0.5-0.6,1.1-1.1,1.7-1.5
		c0.7-0.3,1.4-0.5,2.1-0.6C174.4,296.8,175.8,297.3,176.8,298.1z M176.7,298.3c-0.5-0.4-1.2-0.6-1.8-0.7c-0.6-0.1-1.3,0-1.9,0.1
		c-1.2,0.4-2.2,1.1-2.8,2.1c-0.6,1-0.9,2.1-0.8,3.3c0.1,0.6,0.2,1.1,0.5,1.7c0.3,0.5,0.7,1,1.2,1.3c0.9,0.7,2.2,1.1,3.4,0.9
		c1.2-0.2,2.4-0.8,3.1-1.8c0.8-1,1.2-2.3,1.1-3.6c-0.1-0.7-0.3-1.3-0.6-1.9C177.8,299.1,177.3,298.6,176.7,298.3z"/>
	<path class="st16" d="M170.3,306.9c0,0,2.9-4.5,8.2-1.8c0,0-1.4,2.3-3.4,2.7C173.1,308.2,172.1,307.9,170.3,306.9z"/>
	<g>
		<circle class="st4" cx="245.7" cy="230.1" r="3.4"/>
		<linearGradient id="SVGID_6_" gradientUnits="userSpaceOnUse" x1="242.4473" y1="231.9677" x2="248.3587" y2="228.5547">
			<stop  offset="0" style="stop-color:#24FF87"/>
			<stop  offset="0.1486" style="stop-color:#24F884"/>
			<stop  offset="0.3569" style="stop-color:#23E67D"/>
			<stop  offset="0.6004" style="stop-color:#21C871"/>
			<stop  offset="0.8687" style="stop-color:#1F9F60"/>
			<stop  offset="1" style="stop-color:#1E8857"/>
		</linearGradient>
		<path class="st19" d="M245.5,226.7c-0.5,0.2-1.3,2.5,0.7,3.6c1.8,1,2.9-0.5,2.9-0.5s0.1,3.9-4.3,3.5
			C240.4,233,242.1,227.1,245.5,226.7"/>
		<ellipse transform="matrix(0.866 -0.5 0.5 0.866 -81.0762 154.3775)" class="st12" cx="247.5" cy="228.5" rx="0.7" ry="0.9"/>
		<ellipse transform="matrix(0.866 -0.5 0.5 0.866 -80.8056 153.5347)" class="st12" cx="246.1" cy="227.6" rx="0.4" ry="0.5"/>
		<path class="st15" d="M247.7,227.3c0.7,0.5,1.2,1.3,1.4,2.2c0.2,0.9,0,1.9-0.5,2.7c-0.5,0.8-1.4,1.3-2.3,1.5c-0.9,0.2-2,0-2.8-0.6
			c-0.8-0.5-1.4-1.4-1.6-2.4c-0.1-0.5-0.1-1,0-1.5c0.1-0.5,0.3-1,0.6-1.4c0.3-0.4,0.7-0.7,1.1-0.9c0.4-0.2,0.9-0.3,1.4-0.4
			C246.1,226.4,247,226.8,247.7,227.3z M247.7,227.4c-0.4-0.2-0.8-0.4-1.2-0.5c-0.4-0.1-0.8,0-1.2,0.1c-0.8,0.2-1.4,0.7-1.8,1.4
			c-0.4,0.6-0.6,1.4-0.5,2.1c0,0.4,0.2,0.7,0.3,1.1c0.2,0.3,0.4,0.6,0.8,0.9c0.6,0.5,1.4,0.7,2.2,0.6c0.8-0.1,1.5-0.5,2-1.2
			c0.5-0.6,0.8-1.5,0.7-2.3c0-0.4-0.2-0.8-0.4-1.2C248.3,228,248,227.6,247.7,227.4z"/>
		<path class="st16" d="M243.5,233c0,0,1.9-2.9,5.3-1.2c0,0-0.9,1.5-2.2,1.8C245.3,233.9,244.7,233.7,243.5,233z"/>
	</g>
	<g>
		<circle class="st4" cx="257.8" cy="243.7" r="1.9"/>
		<linearGradient id="SVGID_7_" gradientUnits="userSpaceOnUse" x1="255.9695" y1="244.7906" x2="259.2345" y2="242.9056">
			<stop  offset="0" style="stop-color:#24FF87"/>
			<stop  offset="0.1486" style="stop-color:#24F884"/>
			<stop  offset="0.3569" style="stop-color:#23E67D"/>
			<stop  offset="0.6004" style="stop-color:#21C871"/>
			<stop  offset="0.8687" style="stop-color:#1F9F60"/>
			<stop  offset="1" style="stop-color:#1E8857"/>
		</linearGradient>
		<path class="st20" d="M257.7,241.9c-0.3,0.1-0.7,1.4,0.4,2c1,0.6,1.6-0.3,1.6-0.3s0.1,2.2-2.4,1.9
			C254.8,245.3,255.8,242.1,257.7,241.9"/>
		<ellipse transform="matrix(0.866 -0.5 0.5 0.866 -86.762 161.9271)" class="st12" cx="258.8" cy="242.9" rx="0.4" ry="0.5"/>
		<ellipse transform="matrix(0.866 -0.5 0.5 0.866 -86.6126 161.4617)" class="st12" cx="258" cy="242.4" rx="0.2" ry="0.3"/>
		<path class="st15" d="M258.9,242.2c0.4,0.3,0.7,0.7,0.8,1.2c0.1,0.5,0,1-0.3,1.5c-0.3,0.4-0.8,0.7-1.3,0.8c-0.5,0.1-1.1,0-1.5-0.3
			c-0.4-0.3-0.8-0.8-0.9-1.3c-0.1-0.3,0-0.6,0-0.8c0.1-0.3,0.2-0.5,0.4-0.7c0.2-0.2,0.4-0.4,0.6-0.5c0.2-0.1,0.5-0.2,0.8-0.2
			C258,241.7,258.5,241.9,258.9,242.2z M258.9,242.3c-0.2-0.1-0.4-0.2-0.7-0.3c-0.2,0-0.5,0-0.7,0c-0.4,0.1-0.8,0.4-1,0.8
			c-0.2,0.3-0.3,0.8-0.3,1.2c0,0.2,0.1,0.4,0.2,0.6c0.1,0.2,0.2,0.3,0.4,0.5c0.3,0.3,0.8,0.4,1.2,0.3c0.4-0.1,0.9-0.3,1.1-0.7
			c0.3-0.4,0.4-0.8,0.4-1.3c0-0.2-0.1-0.5-0.2-0.7C259.2,242.6,259.1,242.4,258.9,242.3z"/>
		<path class="st16" d="M256.5,245.4c0,0,1.1-1.6,2.9-0.7c0,0-0.5,0.8-1.2,1S257.2,245.7,256.5,245.4z"/>
	</g>
	<g>
		<circle class="st4" cx="224.1" cy="280" r="1.9"/>
		<linearGradient id="SVGID_8_" gradientUnits="userSpaceOnUse" x1="222.2365" y1="281.0437" x2="225.5014" y2="279.1587">
			<stop  offset="0" style="stop-color:#24FF87"/>
			<stop  offset="0.1486" style="stop-color:#24F884"/>
			<stop  offset="0.3569" style="stop-color:#23E67D"/>
			<stop  offset="0.6004" style="stop-color:#21C871"/>
			<stop  offset="0.8687" style="stop-color:#1F9F60"/>
			<stop  offset="1" style="stop-color:#1E8857"/>
		</linearGradient>
		<path class="st21" d="M223.9,278.1c-0.3,0.1-0.7,1.4,0.4,2c1,0.6,1.6-0.3,1.6-0.3s0.1,2.2-2.4,1.9
			C221.1,281.6,222,278.3,223.9,278.1"/>
		<ellipse transform="matrix(0.866 -0.5 0.5 0.866 -109.408 149.9176)" class="st12" cx="225" cy="279.1" rx="0.4" ry="0.5"/>
		<ellipse transform="matrix(0.866 -0.5 0.5 0.866 -109.2585 149.4521)" class="st12" cx="224.3" cy="278.6" rx="0.2" ry="0.3"/>
		<path class="st15" d="M225.2,278.5c0.4,0.3,0.7,0.7,0.8,1.2c0.1,0.5,0,1-0.3,1.5c-0.3,0.4-0.8,0.7-1.3,0.8c-0.5,0.1-1.1,0-1.5-0.3
			c-0.4-0.3-0.8-0.8-0.9-1.3c-0.1-0.3,0-0.6,0-0.8c0.1-0.3,0.2-0.5,0.4-0.7c0.2-0.2,0.4-0.4,0.6-0.5c0.2-0.1,0.5-0.2,0.8-0.2
			C224.3,278,224.8,278.2,225.2,278.5z M225.1,278.5c-0.2-0.1-0.4-0.2-0.7-0.3c-0.2,0-0.5,0-0.7,0c-0.4,0.1-0.8,0.4-1,0.8
			c-0.2,0.3-0.3,0.8-0.3,1.2c0,0.2,0.1,0.4,0.2,0.6c0.1,0.2,0.2,0.3,0.4,0.5c0.3,0.3,0.8,0.4,1.2,0.3c0.4-0.1,0.9-0.3,1.1-0.7
			c0.3-0.4,0.4-0.8,0.4-1.3c0-0.2-0.1-0.5-0.2-0.7C225.5,278.8,225.3,278.6,225.1,278.5z"/>
		<path class="st16" d="M222.8,281.6c0,0,1.1-1.6,2.9-0.7c0,0-0.5,0.8-1.2,1C223.8,282.1,223.5,282,222.8,281.6z"/>
	</g>
	<g>
		<circle class="st4" cx="291.1" cy="283.7" r="1.9"/>
		<linearGradient id="SVGID_9_" gradientUnits="userSpaceOnUse" x1="289.3286" y1="284.7232" x2="292.5935" y2="282.8382">
			<stop  offset="0" style="stop-color:#24FF87"/>
			<stop  offset="0.1486" style="stop-color:#24F884"/>
			<stop  offset="0.3569" style="stop-color:#23E67D"/>
			<stop  offset="0.6004" style="stop-color:#21C871"/>
			<stop  offset="0.8687" style="stop-color:#1F9F60"/>
			<stop  offset="1" style="stop-color:#1E8857"/>
		</linearGradient>
		<path class="st22" d="M291,281.8c-0.3,0.1-0.7,1.4,0.4,2c1,0.6,1.6-0.3,1.6-0.3s0.1,2.2-2.4,1.9C288.2,285.3,289.1,282,291,281.8"
			/>
		<ellipse transform="matrix(0.866 -0.5 0.5 0.866 -102.2591 183.9566)" class="st12" cx="292.1" cy="282.8" rx="0.4" ry="0.5"/>
		<ellipse transform="matrix(0.866 -0.5 0.5 0.866 -102.1097 183.4911)" class="st12" cx="291.3" cy="282.3" rx="0.2" ry="0.3"/>
		<path class="st15" d="M292.2,282.1c0.4,0.3,0.7,0.7,0.8,1.2c0.1,0.5,0,1-0.3,1.5c-0.3,0.4-0.8,0.7-1.3,0.8c-0.5,0.1-1.1,0-1.5-0.3
			c-0.4-0.3-0.8-0.8-0.9-1.3c-0.1-0.3,0-0.6,0-0.8c0.1-0.3,0.2-0.5,0.4-0.7c0.2-0.2,0.4-0.4,0.6-0.5c0.2-0.1,0.5-0.2,0.8-0.2
			C291.4,281.7,291.9,281.9,292.2,282.1z M292.2,282.2c-0.2-0.1-0.4-0.2-0.7-0.3c-0.2,0-0.5,0-0.7,0c-0.4,0.1-0.8,0.4-1,0.8
			c-0.2,0.3-0.3,0.8-0.3,1.2c0,0.2,0.1,0.4,0.2,0.6c0.1,0.2,0.2,0.3,0.4,0.5c0.3,0.3,0.8,0.4,1.2,0.3c0.4-0.1,0.9-0.3,1.1-0.7
			c0.3-0.4,0.4-0.8,0.4-1.3c0-0.2-0.1-0.5-0.2-0.7C292.6,282.5,292.4,282.3,292.2,282.2z"/>
		<path class="st16" d="M289.9,285.3c0,0,1.1-1.6,2.9-0.7c0,0-0.5,0.8-1.2,1C290.9,285.8,290.6,285.7,289.9,285.3z"/>
	</g>
	<path class="st13" d="M160.2,230.7c-0.7-0.1-1.5-0.4-2.2-0.7c-0.9-0.3-1.8-0.5-2.7-0.7c-0.5-0.1-1.1-0.2-1.6-0.2l-1.4-0.1
		c-3.9-0.1-7.8,0.1-11.6,0.8c-3.8,0.6-7.6,1.7-11.2,3.2c-3.6,1.5-7,3.5-10.1,5.9c-3.1,2.4-5.8,5.2-8.2,8.3c-2.4,3.1-4.4,6.5-6.1,10
		c-0.8,1.8-1.6,3.6-2.2,5.4c-0.6,1.7-1.1,3.5-1.5,5.3c-1,0.6-1.9,1.2-2.7,1.9c-1,0.8-1.8,1.7-2.6,2.7c-0.1,0.2-0.3,0.4-0.4,0.6
		l1.3,1c0.1-0.2,0.3-0.4,0.5-0.5c0,0,0.8-0.9,1.7-1.9c1.1-1.1,2.3-1.9,3.3-2.5l0.3-0.2l0.1-0.4c0.3-1.8,0.9-3.7,1.4-5.5
		c0.6-1.8,1.3-3.6,2.1-5.3c1.6-3.5,3.5-6.8,5.8-9.8c2.3-3,4.9-5.8,7.9-8.2c3-2.4,6.3-4.3,9.8-5.9c3.5-1.5,7.2-2.6,10.9-3.3
		c3.8-0.7,7.6-1,11.4-0.9l1.5,0.1c0.4,0,1,0.1,1.4,0.2c0.9,0.2,1.7,0.3,2.6,0.6c0.8,0.3,1.6,0.7,2.4,1L160.2,230.7z"/>
	<g>
		<path class="st13" d="M98,273c0.1-0.1,0.1-0.1,0.1-0.1C98.1,272.9,98,272.9,98,273z"/>
		<path class="st13" d="M97.1,273.9c0.3-0.3,0.6-0.6,0.8-0.8C97.6,273.4,97.3,273.7,97.1,273.9z"/>
		<path class="st13" d="M97.9,273.1c0,0,0.1-0.1,0.1-0.1C98,273,97.9,273.1,97.9,273.1z"/>
		<path class="st13" d="M97.1,273.9C97.1,273.9,97.1,273.9,97.1,273.9C97.1,273.9,97.1,273.9,97.1,273.9z"/>
		<path class="st13" d="M97,274C97,274,97,274,97,274C97,274,97,274,97,274z"/>
		<path class="st13" d="M97,274C97.1,273.9,97.1,273.9,97,274C97.1,273.9,97.1,273.9,97,274z"/>
		<path class="st13" d="M98.4,272.6C98.4,272.6,98.4,272.6,98.4,272.6C98.4,272.6,98.4,272.6,98.4,272.6z"/>
		<path class="st13" d="M98.4,272.6C98.4,272.6,98.4,272.6,98.4,272.6C98.4,272.6,98.4,272.6,98.4,272.6z"/>
		<path class="st13" d="M98.4,272.6C98.4,272.6,98.4,272.6,98.4,272.6L98.4,272.6z"/>
		<path class="st13" d="M98.1,272.9C98.2,272.8,98.2,272.8,98.1,272.9C98.2,272.8,98.2,272.8,98.1,272.9z"/>
		<path class="st13" d="M287,316.5c-0.6-5-2-10-4.3-14.5c-1.1-2.3-2.5-4.4-4-6.5c-0.8-1-1.6-2-2.4-2.9c-0.8-0.9-1.6-1.7-2.5-2.4
			c0-0.4-0.1-0.8-0.2-1.1c-0.1-0.4-0.3-0.9-0.5-1.3c-0.4-0.8-0.9-1.5-1.4-2.2c-0.5-0.7-1-1.3-1.6-2c-0.5-0.6-1-1.1-1.5-1.6
			c-0.1-5.3-0.6-10.7-2.4-15.7c-0.9-2.6-2.2-5-3.8-7.2c-1.6-2.2-3.5-4.2-5.6-5.9c-2.1-1.7-4.4-3.2-6.8-4.4c-2.4-1.3-5-2.2-7.6-2.8
			c-1.8-0.4-3.7-0.7-5.6-0.8l0,0.9c1.8,0.1,4,0.4,5.8,0.8c2.6,0.6,4.7,1.3,7,2.6c2.3,1.3,4.5,2.8,6.6,4.5c2,1.7,3.8,3.6,5.4,5.8
			c1.5,2.2,2.7,4.5,3.5,7c1.7,5,2.2,10.3,2.2,15.6l0,0.3l0.2,0.2c0.5,0.6,1.1,1.2,1.6,1.8c0.5,0.6,1,1.2,1.5,1.9
			c0.5,0.6,0.9,1.3,1.2,2c0.3,0.7,0.6,1.4,0.5,2l0,0.4l0.3,0.3c0.9,0.7,1.8,1.6,2.6,2.5c0.8,0.9,1.6,1.9,2.3,2.8
			c1.4,2,2.7,4.1,3.8,6.3c2.2,4.4,3.5,9.1,4,14c0.5,4.9,0.2,9.8-0.8,14.6c-1,4.8-2.6,9.4-4.6,13.9c-0.7,1.3-1.5,2.6-2.4,3.8
			c-0.4,0.6-0.9,1.2-1.3,1.8c-0.2,0.3-0.5,0.6-0.7,0.8c-0.1,0.1-0.2,0.2-0.3,0.3c-0.1,0.1-0.1,0.1-0.2,0.1c0,0,0,0-0.2,0.1
			c-1.4,0.7-2.7,1.5-4.1,2.1c-0.3,0.1-0.7,0.3-0.9,0.3c-0.1,0-0.1,0-0.1,0c0,0,0,0-0.1,0c-0.1,0-0.2,0-0.3-0.1
			c-0.5-0.2-1-0.8-1.5-1.2l-0.5-0.6l-0.7,0.4c-0.3,0.2-0.7,0.3-1.1,0.5c-0.4,0.1-0.8,0.3-1.2,0.4c-0.8,0.2-1.6,0.4-2.4,0.4
			c-0.8,0.1-1.6,0-2.4-0.2c-0.8-0.2-1.5-0.5-2.2-0.9l0,0l0,0L255,352c-0.2-0.8-0.4-1.5-0.6-2.3c-0.3-0.9-0.6-1.8-1-2.6
			c-0.4-0.9-0.8-1.7-1.2-2.5c-0.4-0.8-0.9-1.5-1.4-2.2c-0.1-0.6-0.2-1.3-0.2-1.9c0-0.7,0.1-1.4,0.3-2c0.2-0.6,0.5-1.1,1-1.4
			c0.5-0.3,1.1-0.5,1.7-0.5l0.2,0l0.1-0.1c0.7-0.3,1.3-0.7,1.9-1.1c0.3-0.2,0.6-0.4,0.9-0.7c0.2-0.1,0.3-0.3,0.4-0.5
			c0.1-0.1,0.1-0.2,0.2-0.3c0-0.1,0.1-0.1,0.1-0.1l0.1-0.1c0.3-0.7,0.6-1.3,0.8-1.9l0.8-1.9l0.3-0.8l-0.7-0.4
			c-0.2-0.1-0.5-0.3-0.7-0.4c-0.2-0.2-0.5-0.3-0.7-0.5c-0.5-0.3-1-0.7-1.4-1.1c-0.9-0.8-1.8-1.6-2.5-2.5c-1.6-1.8-2.8-3.9-3.8-6
			c-1-2.2-1.7-4.5-2.1-6.9c-0.2-1.2-0.3-2.4-0.3-3.6c0-0.6,0-1.2,0.1-1.8c0.1-0.6,0.1-1.2,0.3-1.7l0.1-0.4l-0.3-0.3l-8.8-8.7
			l-0.7-0.7l-0.4,0.9l-3.1,7.9l0,0.1l0,0.1c0.2,4.3,0.3,8.7,0.3,13.1c0,2.2-0.1,4.4-0.2,6.5c-0.1,2.2-0.3,4.3-0.6,6.5
			c-0.2,1.1-0.4,2.1-0.7,3.1c-0.4,1-0.9,2-1.4,2.9c-1.1,1.9-2.4,3.6-3.8,5.2c-2.9,3.2-6.2,6.1-9.8,8.5c-3.6,2.4-7.5,4.4-11.6,5.8
			c-4.1,1.4-8.4,2.3-12.7,2.4c-0.5,0-1.1,0-1.6,0l-1.6-0.1c-1.1-0.1-2.2-0.1-3.3-0.2c-0.5,0-1.1,0-1.7,0c-0.3,0-0.6,0-0.8,0
			c-0.1,0-0.3,0-0.5,0.1l-0.1,0c0,0-0.1,0-0.2,0.1c-0.1,0.1-0.1,0.1-0.2,0.2c-0.1,0.1-0.1,0.2-0.1,0.2c-0.3,0.5-0.4,1.1-0.6,1.6
			l-0.5,1.6c-1.3,4.2-2.7,8.3-4.5,12.3c-0.9,2-1.9,3.9-3,5.8c-1.1,1.8-2.4,3.6-3.9,5.2c-1.5,1.5-3.2,2.9-5.1,3.7c-1,0.4-2,0.7-3,0.8
			c-1.1,0.1-2.1,0.2-3.2,0.2c-4.3,0-8.6-0.8-12.6-2.4c-2-0.8-3.9-1.9-5.6-3.1c-1.7-1.3-3.2-2.8-4.3-4.6c-1.1-1.8-1.9-3.8-2.2-5.8
			c-0.2-1-0.2-2.1-0.2-3.1c0-1.1,0.2-2.1,0.4-3.2c0.8-4.2,2-8.4,3.7-12.4c1.7-4,3.7-7.8,6.1-11.4c2.4-3.6,5.1-7,8.3-9.8l0.3-0.2
			l0-0.4c0.1-1.5,0.2-3,0.3-4.6c0.2-1.5,0.4-3,0.7-4.5c0.3-1.5,0.6-3,1-4.4c0.4-1.4,0.9-2.9,1.6-4.2l0.2-0.3l-0.1-0.3l-2.2-11.3
			l0-0.2l-0.1-0.2l-14.7-19.5l-0.5-0.7l-0.8,0.4l-11,5.3l-0.8,0.4l0.2,0.8c0.3,1.2,0.5,2.5,0.7,3.8c0.2,1.3,0.3,2.6,0.3,3.9
			c0,2.6-0.2,5.2-0.9,7.6c-0.7,2.5-1.8,4.7-3.5,6.6c-1.7,1.9-3.8,3.2-6.2,4.2l-0.8,0.3l0.1,0.8l0.6,5.7l0,0.4l0.3,0.3
			c0.6,0.5,1.1,1.1,1.7,1.7c0.5,0.6,1.1,1.2,1.5,1.8c0.5,0.6,0.9,1.3,1.3,1.9c0.3,0.6,0.6,1.2,0.8,1.7c-0.3,1.2-0.6,2.4-0.9,3.6
			c-0.3,1.3-0.7,2.6-1.1,3.8c-0.2,0.6-0.4,1.2-0.7,1.7c-0.1,0.1-0.1,0.3-0.2,0.4c0,0-0.1,0.1-0.1,0.1c-0.2,0-0.3,0.1-0.5,0.1
			c-1.4,0.4-2.6,0.8-4,1.3l-0.8,0.3l0.1,0.9c0,0,0,0.1,0,0.2c0,0.1,0,0.2,0,0.3c0,0.2,0,0.4,0,0.5c0,0.4-0.1,0.7-0.2,1.1
			c-0.2,0.7-0.5,1.3-0.9,1.9c-0.2,0.3-0.5,0.5-0.7,0.7c-0.3,0.2-0.6,0.4-0.9,0.6c-0.6,0.3-1.3,0.6-2.1,0.8l0,0l-0.1,0
			c-1.8,0.5-3.8,0.9-5.7,1.2c-1,0.1-1.9,0.2-2.9,0.2c-1,0-2,0-3,0l-6-0.1l-1.5,0c0,0-0.1-0.1-0.2-0.1c-0.2-0.1-0.3-0.2-0.5-0.3
			c-0.7-0.5-1.5-1.2-2.2-1.9c-1.4-1.3-2.8-2.8-4.1-4.2c-0.3-0.4-0.7-0.7-1-1.1c-0.1-0.2-0.3-0.4-0.4-0.5c0,0,0,0,0,0l0-0.1l-0.1-0.4
			c-0.4-0.9-0.7-1.8-1-2.8c-1.2-3.7-2-7.6-2.5-11.5c-0.9-7.8-0.3-15.9,1.9-23.5c1.5-5.5,4.2-11.3,7-16.3c0,0,4.9-8.4,8.7-12.1
			l-0.3-1.4l4.7-4.7c0,0-7.1,3.4-15.4,18.6c-2.8,4.8-5,10-6.6,15.4c-2.2,7.8-3,16.1-2.1,24.2c0.4,4.1,1.3,8.1,2.5,12
			c0.3,1,0.7,1.9,1,2.9l0.1,0.3l0,0.1l0,0c0,0,0,0,0,0c0,0.1,0.1,0.1,0.1,0.2c0.1,0.1,0.1,0.2,0.2,0.3c0.2,0.3,0.3,0.5,0.5,0.7
			c0.3,0.4,0.7,0.8,1,1.2c1.4,1.5,2.8,3,4.3,4.4c0.8,0.7,1.5,1.4,2.4,2c0.2,0.2,0.5,0.3,0.7,0.5c0.1,0.1,0.3,0.2,0.5,0.2
			c0.1,0,0.2,0.1,0.3,0.1c0.1,0,0.1,0,0.2,0c0.1,0,0.2,0,0.2,0l1.5,0l6,0.1c1,0,2,0,3,0c1.1,0,2.1-0.1,3.1-0.2c2.1-0.3,4-0.6,6-1.2
			c0.9-0.2,1.8-0.5,2.7-1c0.9-0.5,1.7-1.1,2.3-1.9c0.6-0.8,1.1-1.7,1.3-2.7c0.1-0.5,0.2-1,0.2-1.5c0-0.2,0-0.4,0-0.6
			c1-0.3,2-0.7,3-1c0.2,0,0.3-0.1,0.4-0.1l0.1,0l0.1,0c0.1,0,0.2-0.1,0.2-0.1c0.3-0.1,0.4-0.3,0.5-0.4c0.2-0.2,0.4-0.4,0.5-0.6
			c0.1-0.2,0.2-0.4,0.3-0.5c0.3-0.7,0.6-1.4,0.8-2c0.5-1.3,0.8-2.6,1.2-4c0.3-1.3,0.7-2.6,1-4l0.1-0.2l-0.1-0.2
			c-0.2-1-0.6-1.8-1.1-2.6c-0.4-0.8-0.9-1.5-1.5-2.2c-0.5-0.7-1.1-1.3-1.7-2c-0.5-0.5-1-1-1.5-1.5l-0.5-4.4c2.3-1,4.5-2.5,6.2-4.4
			c1.9-2.1,3.2-4.8,4-7.5c0.7-2.7,1-5.5,0.9-8.3c0-1.4-0.1-2.8-0.3-4.1c-0.1-1.1-0.3-2.2-0.6-3.2l9.5-4.7l14.1,18.6l2.2,10.8
			c-0.7,1.4-1.2,2.8-1.6,4.2c-0.4,1.5-0.8,3.1-1,4.6c-0.3,1.6-0.5,3.1-0.6,4.7c-0.1,1.4-0.2,2.9-0.3,4.3c-3.2,2.9-5.9,6.4-8.2,10
			c-1.2,1.9-2.3,3.8-3.3,5.7c-1,2-1.9,4-2.8,6c-1.7,4.1-2.9,8.4-3.7,12.7c-0.2,1.1-0.4,2.2-0.4,3.3c0,1.1,0,2.3,0.2,3.4
			c0.4,2.2,1.2,4.4,2.5,6.3c1.3,1.9,2.9,3.5,4.7,4.8c1.8,1.3,3.8,2.4,5.8,3.2c4.1,1.6,8.6,2.4,13,2.4c1.1,0,2.2-0.1,3.3-0.2
			c1.1-0.1,2.2-0.4,3.3-0.9c2.1-0.9,3.9-2.3,5.4-3.9c1.5-1.6,2.8-3.4,3.9-5.3c1.1-1.9,2.1-3.9,3-5.9c1.8-4,3.2-8.2,4.5-12.3l0.5-1.6
			c0.2-0.5,0.3-1,0.6-1.5c0,0,0-0.1,0.1-0.1c0.1,0,0.2,0,0.3,0c0.3,0,0.5,0,0.8,0c0.5,0,1.1,0,1.6,0c1.1,0,2.2,0.1,3.3,0.2l1.6,0.1
			c0.6,0,1.1,0,1.7,0c4.4-0.1,8.8-1,12.9-2.4c4.2-1.4,8.1-3.4,11.8-5.8c3.7-2.4,7.1-5.2,10-8.5c1.5-1.6,2.8-3.4,3.9-5.3
			c0.6-0.9,1-2,1.5-3c0.4-1.1,0.6-2.2,0.8-3.3c0.4-2.2,0.5-4.4,0.7-6.6c0.1-2.2,0.2-4.4,0.2-6.6c0.1-4.3,0-8.7-0.1-13l2.7-6.9
			l7.7,7.8c-0.1,0.5-0.2,1-0.2,1.5c-0.1,0.6-0.1,1.3-0.1,1.9c0,1.3,0.1,2.6,0.3,3.8c0.4,2.5,1.1,5,2.1,7.3c1,2.3,2.4,4.5,4,6.5
			c0.8,1,1.7,1.9,2.7,2.7c0.5,0.4,1,0.8,1.5,1.2c0.3,0.2,0.5,0.4,0.8,0.5c0.1,0,0.1,0.1,0.2,0.1l-0.5,1.2c-0.3,0.6-0.5,1.2-0.8,1.8
			l-0.1,0.1c0,0,0,0.1,0,0.1c0,0,0,0.1-0.1,0.1c-0.1,0.1-0.1,0.2-0.2,0.3c-0.2,0.2-0.4,0.4-0.7,0.5c-0.5,0.3-1,0.6-1.5,0.8
			c-0.8,0.1-1.7,0.3-2.5,0.8c-0.8,0.5-1.4,1.4-1.7,2.3c-0.3,0.9-0.4,1.7-0.4,2.6c0,0.4,0,0.8,0.1,1.3c0,0.4,0.1,0.8,0.2,1.3l0,0.2
			l0.1,0.2c0.5,0.7,1,1.4,1.4,2.2c0.4,0.8,0.8,1.5,1.1,2.4c0.3,0.8,0.6,1.6,0.9,2.5c0.3,0.8,0.5,1.7,0.6,2.5l0.1,0.5l0.4,0.2
			l2.8,1.4l-0.1,0c0.8,0.5,1.8,0.9,2.8,1.1c1,0.2,2,0.3,2.9,0.2c1-0.1,1.9-0.2,2.8-0.5c0.5-0.1,0.9-0.3,1.3-0.5
			c0.2-0.1,0.4-0.2,0.7-0.3c0.1,0.1,0.3,0.3,0.4,0.4c0.3,0.3,0.7,0.6,1.1,0.8c0.2,0.1,0.5,0.2,0.8,0.3c0.2,0,0.3,0,0.5,0
			c0.2,0,0.3,0,0.4-0.1c0.5-0.1,0.9-0.3,1.3-0.4c1.5-0.7,2.8-1.4,4.2-2.1c0.1,0,0.2-0.1,0.3-0.2c0.1-0.1,0.2-0.2,0.3-0.2
			c0.2-0.2,0.4-0.3,0.5-0.5c0.3-0.3,0.6-0.6,0.8-0.9c0.5-0.6,1-1.3,1.4-1.9c0.9-1.3,1.7-2.6,2.5-4l0,0l0,0c2.1-4.6,3.7-9.4,4.7-14.3
			C287.3,326.7,287.6,321.5,287,316.5z M83,340.7L83,340.7C83,340.7,83,340.7,83,340.7C83,340.7,83,340.7,83,340.7z M120.8,338.8
			L120.8,338.8C120.8,338.8,120.8,338.8,120.8,338.8L120.8,338.8L120.8,338.8z"/>
		<path class="st13" d="M98.4,272.6C98.4,272.6,98.4,272.6,98.4,272.6C98.4,272.6,98.4,272.6,98.4,272.6z"/>
		<path class="st13" d="M98.2,272.8c0.1-0.1,0.1-0.1,0.1-0.1C98.3,272.7,98.3,272.7,98.2,272.8z"/>
	</g>
	<path class="st13" d="M150.2,229c0,0,5.2-0.1,10.1,1.5l0.3,1.1l-0.4,0c0,0-4.1-2-10-1.9C146.4,229.7,150.2,229,150.2,229z"/>
	<path class="st13" d="M134.2,284.3c0,0,6.7-2.8,11.7-11.1c5-8.4,0.7,0.6,0.7,0.6s-6.7,9.5-10,10.9s-8.4,2.6-8.4,2.6L134.2,284.3z"
		/>
	<path class="st13" d="M168.4,241.3c0,0,8.8,9.1,31.6,10.9C200,252.2,175.9,247.1,168.4,241.3z"/>
	<g>
		<path class="st6" d="M195.2,232.8c-3.5-0.5-7.3-3-8.2-7.5c-1.1-5.5,1.4-10.7,5.6-12c4.2-1.3,14.4,4.7,27.9,3.6
			c0,0,5.2-0.3,6.9,4.6c2.1,6.1-1.2,11.2-5.9,11.9C215.4,234.5,212,235,195.2,232.8z"/>
		<path class="st7" d="M165.8,235.3c1.8,0.6,4.2,2.9,6.7,3.6c9.8,2.7,22.4,8.5,34.2,9c20.4,0.8,0,0,0,0s-35.9-7.4-34-27.4
			c1.1-11.3,7.2-16.8,13-20.4c4.5-2.8,11.5-2.3,12.1-2.7c0,0-1.5-1.6-2.6-2c-1.3-0.5-0.9-0.6-0.9-0.6s-25.6-3.2-33.5,32.2
			c-0.9,4,0,0,0,0l-0.4,4.1"/>
		<path class="st9" d="M225.9,211.2c-2,3.1-5.9,1.5-10.8-1.7c-4.9-3.3-9.1-7-7.1-10.1c2-3.1,5.1-0.8,10.1,2.4
			C223,205,227.9,208.1,225.9,211.2z"/>
		<path class="st7" d="M198.2,197.7c0,0,0.8-4.1,1.1-9.3c0.3-5.3-0.2-16.9-1.1-20l-1.1,0.4l0.5,10.7l-0.8,9.3c0,0-1.5,4.2-1.6,4.6
			c-0.1,0.5-1.4,1-0.9,1.5S196.8,197.6,198.2,197.7z"/>
		<path class="st7" d="M198.2,168.3c0,0-3.5-2.7-1.1-5.7c0,0-3,0.6-2.4,4.1C194.8,166.7,196.8,169.4,198.2,168.3z"/>
		<ellipse transform="matrix(0.9637 -0.2671 0.2671 0.9637 -36.7263 59.3746)" class="st9" cx="199.9" cy="164.7" rx="1" ry="1.4"/>
		<path class="st13" d="M218.4,224.8c-0.1,0.9,0,1.9,0.4,2.7c0.4,0.8,1.2,1.4,2.1,1.5c0.9,0.1,1.6-0.4,2.2-1c0.5-0.6,0.9-1.4,1-2.3
			c0.1-0.8,0.1-1.7-0.2-2.5c-0.3-0.8-0.9-1.4-1.7-1.7c-0.8-0.2-1.8,0.1-2.4,0.7C219,223,218.6,223.9,218.4,224.8z"/>
		<path class="st13" d="M196.3,192.6c0,0,2.7-6.1,1.3-24.3c0,0-0.1,20.2-3.4,25.4L196.3,192.6z"/>
		<path class="st13" d="M195,194.1c0,0,1.4,2.7,3.1,3.6c0,0-3.6-0.2-4.1-2.5L195,194.1z"/>
		<path class="st13" d="M202.3,193.2c0,0-1-18.1-3-25.1c0,0,0.3,0,0.7-0.6c0,0,3.3,13,4,27.2L202.3,193.2z"/>
		<path class="st13" d="M197.5,168.3c0,0-1.8-0.2-2.3-2.3c0,0-0.5-2.7,2.5-3.3c0,0,1.9-0.4,2.8,1.3c0,0,0.9,1.6-0.1,3l-0.5,0.7
			l0.1,0.6c0,0,1.5-1.1,1.5-2.7c0-1.5-1-3.8-3.7-3.6c-3.7,0.3-3.3,3.9-3.3,3.9s0.1,1.8,1.5,2.5c0,0,0.7,0.3,0.9,0.4l0.1,10.6
			l0.6-4.7L197.5,168.3z"/>
		<path class="st13" d="M197.5,168.3c0,0,0.4,0.1,0.9,0c0,0-0.5,0.5-1.2,0.6L197.5,168.3z"/>
		<path class="st13" d="M195.6,163.1c0,0-1,0.8-1.2,2.4c-0.2,1.5,0.8,3.2,2.5,3.4c0,0-0.7-0.7-1-1.1s-0.7-1.6-0.7-1.6l0.1-1.6
			l0.3-1.2L195.6,163.1z"/>
		<path class="st13" d="M191.7,222.6c0,0-0.1-2.4,1.6-4s3.8-0.5,3.8-0.5s1.5,0.7,2,2.3s0.7,3.2,0.4,4.1c-0.3,0.9-0.9,2.3-1.6,2.8
			c-0.7,0.5-2.1,1-3.4,0.3S191.7,225.4,191.7,222.6z"/>
	</g>
	<path class="st13" d="M159.8,230.6c0,0,0.7-5,1.5-7.5c0.7-2.5,0.5,0.8,0.5,0.8l-1.3,7.3L159.8,230.6z"/>
	<path class="st13" d="M229.2,212.5c-9.3-15.3-25.2-17.8-25.2-17.8l-0.1-1.2l0,0c-0.6-0.1-1.1-0.2-1.7-0.3l0.2,4l0.9,0.2
		c2.6,0.5,5,1.3,7.4,2.2l1.8,0.8l0.9,0.4c0.3,0.1,0.6,0.3,0.8,0.5l1.7,0.9l1.6,1.1c4.2,2.9,7.7,6.7,10.4,11.2
		c5,8.7,6.9,19.3,6.4,29.4l-0.1,1.2c-33.2,7.7-58.8-5.2-63.2-7.6c-3.7-1.9-7.2-4-10.4-6.6l0,0c0.9-5.2,2.4-10.2,4.6-14.9
		c2.3-4.8,5.2-9.2,9.1-12.6c1.9-1.7,4.1-3.1,6.4-4.2c0.6-0.2,1.1-0.6,1.7-0.8l1.8-0.6c1.2-0.3,2.4-0.7,3.7-0.9
		c1.2-0.3,2.5-0.3,3.8-0.4c0.6,0,1.3,0,1.9,0c0.4,0,0.7,0,1.1,0c0.2-0.5,1-2.3,1.4-3.7c-0.5,0-0.9,0-1.4,0l-0.7,1.1
		c0,0-24.1-0.9-32.9,29.3c-0.5,2.5-0.9,5.1-1,7.6l0,0.9c5.1,4.2,10.9,7.5,17,10.2c6.1,2.7,12.5,4.7,19.1,5.9
		c1.6,0.3,3.3,0.5,4.9,0.8c1.7,0.2,3.3,0.4,5,0.5c3.3,0.3,6.7,0.3,10,0.2c6.7-0.3,13.3-1.2,19.8-2.8l0.9-0.2l0.1-1l-1.3,0
		C237.1,224.6,229.2,212.5,229.2,212.5z"/>
	<path class="st13" d="M235.7,244.8c0,0,2.9,0.2,6.9,1.1l-0.6,0.7c0,0-4.2-0.8-6.9-0.2S235.7,244.8,235.7,244.8z"/>
</g>
</svg>
