<?xml version="1.0" encoding="utf-8"?>
<!-- Generator: Adobe Illustrator 23.1.1, SVG Export Plug-In . SVG Version: 6.00 Build 0)  -->
<svg version="1.1" id="Capa_1" xmlns="http://www.w3.org/2000/svg" xmlns:xlink="http://www.w3.org/1999/xlink" x="0px" y="0px"
	 viewBox="0 0 350 500" style="enable-background:new 0 0 350 500;" xml:space="preserve">
<style type="text/css">
	.st0{fill:#D7E2EA;}
	.st1{fill:#BDCBD5;}
	.st2{fill:#606060;}
	.st3{fill:#AC92C4;}
	.st4{fill:#E5255A;}
	.st5{fill:#AD1547;}
	.st6{fill:#EF8EB1;}
	.st7{fill:none;}
	.st8{fill:#FFFFFF;}
	.st9{fill:#6E6F70;}
	.st10{fill:#616261;}
	.st11{fill:#7E7F80;}
	.st12{fill:#6CB554;}
	.st13{fill:url(#SVGID_1_);}
	.st14{opacity:0.51;fill:#FFFFFF;enable-background:new    ;}
	.st15{fill:#404041;}
	.st16{opacity:0.89;fill:#59595B;enable-background:new    ;}
	.st17{fill:none;stroke:#606060;stroke-miterlimit:10;}
</style>
<g>
	<path class="st0" d="M201.4,364.8l-2.2-7.5c0,0-4.2-10.5-8-14c0,0-8.5-37.6-9.1-40.5c-0.6-2.9-1.7-6.4-1.1-10.6
		c0.6-4.2,1.5-7.8,1.1-9.6c-0.4-1.8-1.5-5.9-2.5-7.5c-1-1.7-2.4-3.6-2.4-3.6s-3.5-7.4-2-16.5l-29.6-4.5c0,0-7.5-2.9-8.5-0.7
		l-0.3,11.2l0.4,12.7c0,0-1,1.8-0.8,2.5c0.1,0.7,0.4,7.4,0.4,7.4s0.6,5.7,0,9.2c-0.6,3.5-2.2,14.7-1.7,22.3s1.7,13.8,2.9,16.2
		c0,0,3.2,3.7,4.2,7.5c1,3.8,3.1,7.6,3.1,7.6l4.9,4.9l1.3,5.3c0,0,1.3,2.9,10.8,2l2.1,2.7c0,0,6.7-1.4,7.7-2.2l1.8,5.7l3.2,6.3
		c0,0,8.8,1.4,14.8-1.3l2.5,2.5C194.4,372.2,200.1,368.4,201.4,364.8z"/>
	<path class="st1" d="M155.3,273l3.5,2.8c1.1,0.9,1.1,1.1,2.6,3.2l1.7,3.8l-9.8,7l10.6-5.9c0,0,3.4,29,14.5,64.2
		c0,0-2.2,3.6-11.7,2.2l6.7,11.2l3.7,9.5c0,0,9.5,1.1,14.2,0l3.8,1.8l6.3-7.9l-5.4-14.8l-4.7-6.7L181,297.3l0.3-8.4
		c0,0,3.9-7-3.9-17.5L155.3,273z"/>
	<path class="st0" d="M186.6,365.6c0.1-0.4-1.2-1.8-1.2-1.8l-7.7-18l-7.4-30.7c0,0-5.7-26.3-5.3-30.6c0,0,3.2-2.8,4.2-2.9
		c0.2,0,0.9,3.8,1.2,8c0.4,4.8-0.8,11.5,1,17.3c1.9,5.8,4.3,5.2,5.8,11.1c2.8,11.1,4.3,21.2,5.3,25c1.3,4.7,2.9,12.7,3.3,14.2
		c0,0.2,0.1,0.5,0.1,0.7L186.6,365.6z"/>
	<path class="st1" d="M147.4,300.6h-2.5l4.6,37l-7.2,1.2l2.3,8.3l5.7,4.2l1.3,5.3c0,0,1.7,3.5,7.5,2.4l3.2-0.4l2.1,2.7l7.8-1.9
		l-9.9-14.7l-3.5-7l-3.5-9.4C155.3,328.2,148,302.7,147.4,300.6z"/>
	<path class="st0" d="M154.3,275c0,0,16.8-1.8,20.3-2.7l-22.8,1.3L154.3,275z"/>
	<path class="st2" d="M137.3,273.6l-0.6-14.6l0.1-9.9c0,0,3.2-1.3,8.8,1.4l8.1,1.1l21.5,3.4v9.6c0,0,0.1,5.4,2,6.9
		C177.3,271.4,169.9,273.5,137.3,273.6z"/>
	<g>
		<path class="st0" d="M155.9,184.4c0.7,0.6,1.5,1.7,1.1,3.8l-14.7,8c0,0-6.6,5-5.3,14.4c0,0-4.5,6.7-3.4,16.6c0,0,3.1,2.1,3.6,4.6
			l-0.2,17.7c0.4-0.6,2-0.9,4.3-0.5c5.7,1,12.6,2.5,12.6,2.5l17.9,2.7c0,0,2.7,0.4,3.4,1.2c0.2-1,0.8-2.7,1.9-4.1
			c1.7-2.1,11.3-11.7,10.8-14.1c-0.6-2.4-5-12.1-5-12.1s-4.2-2.1-3.8-10.6s6.1-13.3,9.4-14.4c3.2-1.1,8.4-2.2,11.6,2.1
			s6.3,10.6,6.3,10.6s0.6-7.8-4.2-12.7c-4.7-4.9-10.9-8.8-10.9-8.8l-4.7-4.5c0,0-4.2-2.1-7.3-2.8c-3.1-0.7-3.8-1.3-4-3.4
			c-0.3-2.1-3.3-15.4-2.3-26.3c-0.7-2.5-2.3-5.9-5.7-7c-7.1-2.3-18.5,0.5-17.7,8c0,0,0.2,11.1,2,16.7l1.9,11.4L155.9,184.4"/>
		<path class="st3" d="M174.9,256.1c0,0,0-0.3,0.2-0.8C175.3,255.6,175.3,255.8,174.9,256.1z"/>
		<path class="st3" d="M136.9,249.8v1.3C136.9,251.1,136.6,250.4,136.9,249.8z"/>
		<path class="st3" d="M155.9,184.4c-0.6-0.3-0.8-0.5-0.8-0.5S155.5,184.1,155.9,184.4z"/>
	</g>
	<path class="st1" d="M172.8,213.1c0,0,1.6-5.7,6.9-14.8c0,0-1.8-8.8-32.8-4.8l10.1-5.2l0.7-3.5c0,0,8.4,0.7,12.3-3.9l1.5,5.3
		c0,0,12.7,2.4,13,8.7C184.5,194.8,179.6,199.5,172.8,213.1z"/>
	<path class="st2" d="M201.4,364.8c0,0-1.9,4.7-7,7.4l-2.5-2.5c0,0-10.5,3.2-14.8,1.3c0,0,6.2,31.7,5.6,46.2
		c-0.6,14.5-15.7,28.3-15.7,28.3s-0.7,4.6,0.6,6.2c1.3,1.6,12.1,2.9,16.9,0.8c4.7-2.1,10.4-6.3,13-9.5c2.6-3.2,5.8-4.1,5.8-4.1
		l0.2-9.6l-1.4-4.9c0,0,1-21.9,1.2-22.5c0.1-0.6,0.7-20.2,0.7-23.8s-1.4-10.9-1.4-10.9L201.4,364.8z"/>
	<path class="st2" d="M176.7,423l1.4-9.6c0,0-2.5-7.1-2.7-13.8c-0.1-6.7,0.8-23,1-26.1c0.1-3.1-0.7-6.7-1.3-7.4
		c-0.6-0.7-1.7-3.8-1.8-4.6c-0.1-0.8-1.3-2.5-1.3-2.5s-5.7,3.1-7.7,2.2c-2-0.9-2.1-2.7-2.1-2.7s-3.4,0.7-4.5,0.7
		c-1.1,0-4.2,0.4-5-0.6s-1.8-3.8-1.8-3.8s-1.1,0.1-1.4,1.7l2.2,9.1c0,0,3.5,12.8,4.2,20.7c0.7,7.8-0.7,12.6-3.6,15.4
		c-2.9,2.8-6.8,6.7-6.8,6.7s-8.1,7-15.8,7.8c0,0-2.2-0.6-2.5,2.8c-0.3,3.4,2,7.5,2,7.5s10.6,2.2,15.9,0.7c5.3-1.5,16.9-4,16.9-4
		L176.7,423z"/>
	<path class="st4" d="M201.8,284.8c0,0,8.7,9.2,16.5,3.9c0,0,0.1-4.4,2.1-9.8c2-5.4,3.4-10.8,2.5-15.4c0,0-7-4.4-19.2-2.7
		c0,0-5.9,1.3-7.2,6.3C196.5,267.1,201,275.9,201.8,284.8z"/>
	<path class="st0" d="M216.1,293.8l0.3-3.8c0,0-2.9,0.8-4,0.6c-1.1-0.3-7.2-2.2-10.6-5.7c0,0-5.4,2.5-6.7,4.2l-3.6,7
		c0,0-1.2,2.1-1.1,3.4c0,0,0.1,1.3,0.9,1.7c0.9,0.4,2.2,1.1,2.2,1.1l-0.6,0.7c0,0-0.4,0.7-0.3,1.1c0.1,0.4,0.9,3,0.9,3l0.9,2.5
		l4.3,1.4l13.5-2.9l2-2.1c0,0,1-3.6,1.1-4.5C215.4,300.5,216.1,293.8,216.1,293.8z"/>
	<path class="st0" d="M221.3,262.7c0,0-2.8-14.4-3.9-17c0,0-6.2-5.6-6.2-12.8l0.1-2.1l0.6-3.7c0,0,0.1-4.2-1.4-6.3
		c-1.4-2-3.8-5.2-3.8-5.2s-0.8-4.3-1.2-5s-2.3-7-7.3-9.7s-8.3-1.4-8.3-1.4s-6,1.9-8.2,6.3c-2.1,4.4-3.4,6.6-3,10.6
		c0.4,4,1.6,6.1,1.6,6.1l1.7,1.7l6.5,15l3,7l2.9,4.5l2,1.8c0,0-1.2,2.4-0.9,5c0.2,2.6,0.4,5,0.5,5.1c0.1,0.2,1,3,1,3s4.7-5.2,8-5.1
		C208.3,260.6,214.5,259.8,221.3,262.7z"/>
	<path class="st1" d="M170,180.9l1.5,5.3c0,0,8.4,4,10.1,5.9c1.7,1.8,2.5,2.5,2.5,2.5s-8.6,8.9-11.1,15.6
		c-2.4,6.5-6.6,15.3-9.7,16.5c-2.8,1.1-21.1,0.6-21.1,0.6s11.3,5.2,16.3,5c0,0,6.7,0.3,9.9-1.8c0,0-7,17.6-7.3,19.1l0.1,2.7l14,2.7
		l0.7-2.9l12.1-13.8l-6-14.1c0,0-4-2.6-3.1-9.7c0.8-7.1,4.9-12.4,7.1-13.4s5.9-2.8,7.8-2.1c2,0.7,8.2,4.6,9.5,7.1s2.1,4.5,2.1,4.5
		s-1-6.6-1.2-7.2s-6.3-6.6-6.3-6.6l-9.5-7.5c0,0-4.3-3.8-5-4.2c-0.7-0.4-5.9-1.4-5.9-1.4l-2.2-2c0,0-2-7.2-2.1-9.2
		c-0.1-2-0.7-12.5-0.7-12.5l0.2-5.9l-4.5-6.5l-8.2-0.8l0.4,0.6c2.4,4,3.7,8.5,3.9,13.2l1.2,23l3.5-1.7l3.3-3.3L170,180.9z"/>
	<path class="st0" d="M154.2,359.1c0,0,4.4,17.2,5,18.9c0.6,1.7,2.5,26.4,2.5,27.4l-4-5.2c0,0-1.7,10.7-2.9,13.8
		c-1.3,3.1-20,7.1-25,2.2c0,0,12.1-1.3,22.6-14.5c0,0,6.8-4.6,1.3-30.2c0,0-4.7-13.1-3.7-14.9c0,0-1.3-1.2,1-1.7
		C151,354.9,151.4,358.1,154.2,359.1z"/>
	<path class="st5" d="M211.5,290.1c-0.5-0.1,0.6-7.6,1.8-10.9c1.2-3.2,2.4-14.7,0.9-18.5c0,0,7.5,2.1,8.6,2.8c0,0,0.6,6.2,0,8.1
		c-0.6,1.9-2.1,6.4-2.5,7.3s-1.5,4.4-1.7,6.1s-0.4,3.8-0.4,3.8S216.6,291.4,211.5,290.1z"/>
	<path class="st1" d="M189,449.5l7.4-8.1l2.1-12.3c0,0-3.4-2.4-3.7-6.6c-0.3-4.2,1.6-29.6,4.1-32.8c1.6-2.1-2.7-12.7-4.5-17.5
		c0,0,6-3.7,7-7.4l2.3,10.2l0.6,25.4l-1.8,15.6c0,0-0.3,10.6,0.1,11.3c0.4,0.7,1.3,3.1,1.3,3.1l-0.6,8.4l-8.4,7.6L189,449.5z"/>
	<path class="st5" d="M201.8,284.8c0,0,1.9,1.5,3.3,2.5c0,0-0.7-6.7-0.8-9.3s-0.8-13.9-2.5-16.5c0,0-4.3,1.8-5.2,5.7
		C196.5,267.1,201.2,275.7,201.8,284.8z"/>
	<path class="st6" d="M205,260.5c0,0,1.6,23.3,1.3,27.5l-1.3-0.7c0,0-0.8-14.8-1.4-17.2s-2-8.7-2-8.7L205,260.5z"/>
	<path class="st7" d="M185.6,315.1c0,0-11.1-0.4-12.8-9.8c-1.7-9.4,0.4-14.9,0.4-14.9s0.4-13.2,0.4-13.8s-4.3-15.3-2-22.4l3.6,0.7
		c0,0-0.6,7.3,0,9.6c0.6,2.3,0.8,4.2,2,6.9c1.2,2.7,4.8,4.1,4.9,11.2c0.1,7.1-1.1,9.6-1.1,9.6l1.1,10.6L185.6,315.1z"/>
	<path class="st1" d="M139.7,227.9c0,0-4.8,0.6-6-0.7l3.4,3.4L139.7,227.9z"/>
	<path class="st7" d="M144.7,301.3c0,0,2.1,26.6,2.1,30.4s1.3,7.1,1.3,7.1l-5.6,1.3l2.1,7l5.7,4.2l0.7,3.6c0,0,0.8,6.4,11.3,3.6
		l2.1,2.7c0,0,9.7-1.7,8.5-2.9l-9.4-11.9l-6.9-13.8l-4.8-19.5c0,0-1.3-5.2-1.5-7.1C150.4,305.9,149.1,302.6,144.7,301.3z"/>
	<path class="st7" d="M151.6,356.5c0,0,6.8-3.7,6.6-5.6c-0.2-1.9-5-10.9-5-10.9l-3.4-4l-1.9-33.2c0,0,1,0.8,1.7,1.6
		c0.7,0.9,0.9,1.4,0.9,1.4s3.6,18.6,6.1,24.5s4,10.3,7.1,15.9c3.1,5.7,7,10.1,7,10.1l1.7,2.9l-7.8,1.9l-2.1-2.7
		C162.3,358.5,154.2,360.4,151.6,356.5z"/>
	<path class="st7" d="M137.8,276.1c0.7-0.2,10.3-1.8,10.2-2.1c-0.1-0.3-9-0.3-9.7-0.1c-0.7,0.2-1.6,0.5-1.6,1.8
		C136.6,277,137.2,276.3,137.8,276.1z"/>
	<path class="st7" d="M149,301.8c0,0,3.5,0.6,4.2,1.8c0.7,1.2-0.4,2.6-1.2,1.7c-0.8-0.9-4.6-3.8-5.4-4.1
		C146.2,301.1,147.6,301.5,149,301.8z"/>
	<path class="st7" d="M135.7,304.7c0,0,1.5,2,1.7,8.5c0.1,6.6,2,20.1,3.1,21.9c0,0-3.9-5.6-4.9-14S135.7,304.7,135.7,304.7z"/>
	<path class="st8" d="M201.2,366.5c0,0-2.5,4.3-5.8,6.9l-0.3-0.7C195.1,372.7,198.1,370.8,201.2,366.5z"/>
	<path class="st8" d="M160,360c0,0-7.7,2.4-9.9-3.4c0,0-0.5-1.1,1-1.7C151,354.9,150.3,361.1,160,360z"/>
	<path class="st0" d="M184.5,371.5c0,0,4.8,24.9,4.8,31s0,15.7,0,15.7l3.4,2.1c0,0,0.2,12.8-1.3,16.5s-7.9,12.9-8.7,12.9
		c-0.8,0-4.4-0.4-5.2-0.4c-0.8,0-3.4-3.4-10.9-3.6c0,0,16.1-17.2,16.3-26.2c0.2-9-4.4-40.2-4.4-40.2l-1.4-8.3
		C177.1,371,182,373.4,184.5,371.5z"/>
	<path class="st8" d="M176.9,449.8c0,0-4.1-3.3-9.2-3.9l-0.5,0.7C167.1,446.6,169.1,446,176.9,449.8z"/>
	<path class="st8" d="M126.9,419.7l0.4-0.6c0,0,4.5,3.7,6.6,5.8C133.9,425,127.6,419.9,126.9,419.7z"/>
	<path class="st1" d="M140.1,427.9c0,0,24-11.2,25.4-13.4c0,0-4.1-2.5-3.8-9.1c0.3-7.3,2.4-25.3,2.4-25.3l3.9-3.9l-3.6-15.1l7.8-1.9
		l4.9,11.7l-1.5,9.7c0,0-0.8,19.3,0.8,26l1.7,6.7l-1.4,9.6l-14.7,0.2C162,423.1,147.9,427.3,140.1,427.9z"/>
	<polygon class="st8" points="176.7,414.4 167.8,420.1 167.2,420 	"/>
	<path class="st2" d="M176.4,226.3c0,0-11.2,4.2-15.3,4c-4.2-0.2-15.9-1.7-15.9-1.7s12.9,5.2,19.8,3.4
		C170.5,230.5,175.7,227.1,176.4,226.3z"/>
	<path class="st1" d="M209.8,291.8C209.9,291.8,209.9,291.8,209.8,291.8c0.5,0.3,0.6,0.8,0.5,1.3l-3.6,11.2
		c-0.1,0.3-0.3,0.6-0.6,0.7l-3.4,1.4c-0.2,0.1-0.4,0.1-0.7,0l-3.3-0.8c-0.5-0.1-1,0.1-1.2,0.5l-0.6,1.1c-0.1,0.1-0.1,0.2-0.2,0.3
		l-1,0.9c-0.6,0.6-0.4,1.6,0.4,1.8l2.3,0.8c0.2,0.1,0.4,0.1,0.6,0l12.9-2.8c0.2,0,0.4-0.2,0.6-0.3l1.5-1.7c0.1-0.1,0.2-0.3,0.3-0.5
		l1.4-6.5v-0.1l0.6-7.6c0.1-0.7-0.5-1.2-1.2-1.2c-1,0.1-2.5,0.1-4.4-0.3C209.5,289.6,208.9,291.1,209.8,291.8z"/>
	<path class="st2" d="M197.1,310.4l3.1-3.7c0,0,0.9-0.1,2.9,0.2c2,0.3,9.2,1.1,9.2,1.1l-13.5,2.9L197.1,310.4"/>
	<path class="st9" d="M195.3,305.6l0.3-2.3c0,0,1.7-2.5,1.2-3.9c0,0,1,0.7,1.2,1.9l-0.9,1.7l-1.2,1.7L195.3,305.6z"/>
	<path class="st8" d="M195.7,306.4c0.6-0.4,2.3-3.6,2.9-4.4c0.6-0.8,0.1-3.2-0.7-4.1c0,0-1.2-1.2-1-0.9c0.1,0.3,1.6,3,1.5,4.3
		c-0.1,1.3-1.9,3-2.2,3.8C195.9,305.9,195.3,306.7,195.7,306.4z"/>
	<path class="st1" d="M200.9,291.9c0,0.6-0.8,2.5-1.3,2.7c-0.4,0.1-2.8,0-3.4,0.8c-0.6,0.8-0.4-1.8,0.1-2.5
		C197,292.2,200.9,291.9,200.9,291.9z"/>
	<path class="st2" d="M197.2,298.4c0,0-1.6-2.5-2.2-2.1c-0.6,0.4-2.3,3.2-2.4,4c-0.1,0.7-0.7,1.3-1.3,0.8l2.2,1.1c0,0,2.4-3,3.2-2.8
		l1,0.9L197.2,298.4z"/>
	<path class="st8" d="M203.9,286.5c0,0-7.1,3.2-7.6,3.5c-0.5,0.3-4.7,8.4-4.9,8.2c-0.3-0.4,4.6-9.3,4.6-9.3l6.6-3.4L203.9,286.5z"/>
	<path class="st2" d="M213.3,290.6c0,0.4-1.6,13-1.6,13l-2.9,4l2.8-0.6l1.9-2l1.8-11.5l0.3-3.7L213.3,290.6z"/>
	<path class="st10" d="M167.3,162.9c0.5-0.1,1.1,0.2,1.2,0.7c0.4,1.5-0.2,2-0.5,2.2c-0.7,0.5-12.4,1.6-15.4,1.8
		c-0.4,0-0.9-0.2-1-0.6c-0.2-0.5-0.4-1.1-0.2-1.9c0.1-0.3,0.4-0.6,0.7-0.6L167.3,162.9z"/>
	<path class="st11" d="M138.7,156.6"/>
	<path class="st12" d="M167.3,163.4c0.2,0,0.6,0.4,0.6,1c0,0.6-0.1,1-0.3,1.1c0,0-2.3,0.7-11.2,1.4c0,0-2.8,0.3-3.1,0
		c-0.3-0.3-0.6-1.9-0.4-2c0.2-0.1,10.5-1.1,10.5-1.1L167.3,163.4z"/>
	
		<linearGradient id="SVGID_1_" gradientUnits="userSpaceOnUse" x1="3883.1526" y1="336.764" x2="3899.1418" y2="336.764" gradientTransform="matrix(-1 0 0 -1 4051.5347 502)">
		<stop  offset="0" style="stop-color:#E5255A"/>
		<stop  offset="0.4045" style="stop-color:#E32459"/>
		<stop  offset="0.6157" style="stop-color:#DB2257"/>
		<stop  offset="0.7823" style="stop-color:#CD1E52"/>
		<stop  offset="0.9246" style="stop-color:#BB194C"/>
		<stop  offset="1" style="stop-color:#AD1547"/>
	</linearGradient>
	<path class="st13" d="M167.8,163.3c0.2,0,0.6,0.4,0.6,1.1c0,0.7-0.1,1-0.3,1.2c0,0-2.5,0.7-11.9,1.5c0,0-3,0.3-3.3,0
		c-0.3-0.3-0.6-2-0.4-2.1s11.2-1.2,11.2-1.2L167.8,163.3z"/>
	<path class="st5" d="M163.7,166.3l-0.2-2.6l4.2-0.4c0,0,0.5,0,0.6,0.7c0.1,0.4,0.1,1.4-0.3,1.6l-1.2,0.2L163.7,166.3z"/>
	<path class="st14" d="M160.1,164.5c0,0-6.9,0.7-7.1,0.7c-0.4,0.1-0.4,0.5,0.2,0.4c1-0.1,13-1.4,13-1.4s0.2,0,0.2-0.2
		C166.5,163.7,160.1,164.5,160.1,164.5z"/>
	<g>
		<path class="st1" d="M193.8,198.8c0,0-0.1-0.1-0.2-0.1C193.7,198.8,193.7,198.8,193.8,198.8z"/>
		<path class="st1" d="M193.6,198.8c-0.1,0-0.1-0.1-0.2-0.1C193.5,198.7,193.6,198.7,193.6,198.8z"/>
		<path class="st1" d="M193.8,198.9C193.8,198.9,193.8,198.8,193.8,198.9C193.8,198.8,193.8,198.9,193.8,198.9z"/>
		<path class="st1" d="M193.9,198.9L193.9,198.9C193.8,198.9,193.9,198.9,193.9,198.9z"/>
		<path class="st1" d="M193.5,198.7c0,0-0.1,0-0.1-0.1C193.4,198.6,193.4,198.7,193.5,198.7z"/>
		<path class="st1" d="M193.9,198.9c8,3.9,3.5,20.4,3.5,20.4s2.8,2.5,2.8,3.4c0,0.4,0.8,2.9,1.7,5.8c-0.3-1.3-0.5-2.3-0.5-2.3
			s-0.9-3.9,0.4-5.6c1.4-1.7,3.4-3,4.2-3.4c0.8-0.4,4.7,7.5,4.7,7.5l-1.5,6.7c0,0-3.2,6.9-4.8,4.2c-0.2-0.3-0.4-0.7-0.5-1.1
			c0.3,1,0.6,1.7,0.6,1.7c1.1,4.2-0.8,8.6-0.8,8.6l-4.8,6.2l2.2,10.4l11.2-1.3l9.4,2.1l-4.8-17.9l-5.9-6c0,0,0.3-5.5,0.4-10.8
			s-4-10.4-4-10.4l-1.6-6.4l0,0l0,0C203.4,200.4,193.9,198.9,193.9,198.9z M206.5,215.4L206.5,215.4L206.5,215.4z M206.5,215.4
			L206.5,215.4L206.5,215.4z M206.4,215C206.4,215.1,206.4,215.1,206.4,215C206.4,215.1,206.4,215.1,206.4,215z M206.3,214.6
			c0,0.1,0,0.2,0,0.2C206.4,214.8,206.4,214.7,206.3,214.6z M206,212.9c0.1,0.5,0.2,1,0.3,1.4C206.2,213.9,206.1,213.5,206,212.9z
			 M205.9,212.3c0,0.1,0,0.2,0.1,0.3C205.9,212.5,205.9,212.4,205.9,212.3z M205.6,210.9L205.6,210.9L205.6,210.9z M205.7,211.6
			L205.7,211.6L205.7,211.6z M205.8,211.9c0-0.1,0-0.1,0-0.2C205.8,211.8,205.8,211.8,205.8,211.9z"/>
		<path class="st1" d="M190.4,197.2C190.3,197.2,190.3,197.2,190.4,197.2L190.4,197.2z"/>
		<path class="st1" d="M190.9,197.4L190.9,197.4L190.9,197.4z"/>
		<path class="st1" d="M191.4,197.7c-0.1,0-0.2-0.1-0.3-0.1C191.2,197.6,191.3,197.6,191.4,197.7z"/>
		<path class="st1" d="M190.8,197.4C190.8,197.4,190.7,197.4,190.8,197.4C190.7,197.4,190.8,197.4,190.8,197.4z"/>
		<path class="st1" d="M193.3,198.6c-0.1-0.1-0.2-0.1-0.3-0.2C193.2,198.5,193.3,198.6,193.3,198.6z"/>
		<path class="st1" d="M190.4,197.2L190.4,197.2L190.4,197.2z"/>
		<path class="st1" d="M190.7,197.3c-0.1,0-0.1-0.1-0.2-0.1C190.6,197.3,190.7,197.3,190.7,197.3z"/>
		<path class="st1" d="M190.6,197.3c0,0-0.1,0-0.1-0.1C190.5,197.2,190.5,197.2,190.6,197.3z"/>
		<path class="st1" d="M191.2,197.6c-0.1,0-0.2-0.1-0.2-0.1S191.1,197.5,191.2,197.6z"/>
		<path class="st1" d="M192.9,198.4c-0.1,0-0.1-0.1-0.2-0.1C192.8,198.3,192.8,198.4,192.9,198.4z"/>
		<path class="st1" d="M192.7,198.3c-0.1-0.1-0.2-0.1-0.3-0.2C192.5,198.2,192.6,198.3,192.7,198.3z"/>
		<path class="st1" d="M193,198.5c-0.1,0-0.1-0.1-0.2-0.1C192.9,198.4,193,198.5,193,198.5z"/>
		<path class="st1" d="M191.7,197.8c-0.1,0-0.2-0.1-0.3-0.1C191.5,197.7,191.6,197.8,191.7,197.8z"/>
		<path class="st1" d="M192,198c-0.1-0.1-0.2-0.1-0.3-0.1C191.8,197.9,191.9,197.9,192,198z"/>
		<path class="st1" d="M192.4,198.2c-0.1-0.1-0.2-0.1-0.3-0.2C192.2,198,192.3,198.1,192.4,198.2z"/>
		<path class="st1" d="M192,198L192,198L192,198z"/>
	</g>
	<path class="st2" d="M209.9,260.3c0,0-1.1-10.4,1.4-14c0,0,2.8,5.7,3.4,15"/>
	<path class="st2" d="M201.6,260.8c0,0-1.6-4.9-2.2-9.1c0,0,3.3-3.9,4.4-7.3c0,0-4,3.7-7,2.3c-4.7-2.1-10.3-20.2-10.9-22.4
		c0,0-3.6-3.6-3.9-7.8c0,0-1.5-11.7,8-17c0,0-7.2,2.9-9.2,7.8c-2,4.9-2,8.3-1.9,10c0.1,1.7,1,4.6,1.5,5.2c0.5,0.6,1.7,1.7,1.7,1.7
		l4.2,9.4l1.6,4.3l2.5,6.2c0,0,2.5,4.3,2.6,4.4c0.1,0.1,2.3,2.4,2.7,2.8c0.4,0.3,1,0.8,1,0.8s-1.2,3.1-1.2,3.4
		c0,0.2-0.1,3.6-0.1,3.6s0.3,2.3,0.5,3c0.2,0.7,0.6,1.9,0.8,2.5c0.2,0.6,0.4,1.2,0.4,1.2l2.3-2.6L201.6,260.8"/>
	<path class="st0" d="M196.7,252.5c-6.8-6.7-13.3-27.9-13.3-27.9l1,0.2c0.3,2.2,4.5,12.9,7.2,18.3c3.8,7.5,5.9,8.4,5.9,8.4
		c-2,4.9,0.2,10.1,0.8,11l-1.2,1.4c0,0-1.5-5.1-1.3-7.4C196,254.2,196.4,253.2,196.7,252.5"/>
	<path class="st0" d="M181.5,222.6c0,0-2-6-0.8-11.7C180.6,210.9,178.2,216.9,181.5,222.6C184.7,228.4,181.5,222.6,181.5,222.6
		L181.5,222.6z"/>
	<path class="st8" d="M217.9,261.4l-2.1-14.8c0,0-4.5-3.8-5-8.2v-3.5c0,0,3,9.6,6.5,10.8l3.8,16.9L217.9,261.4"/>
	<path class="st8" d="M210.8,237c0,0-1.7-4.8-1.7-5.6c0-0.7,0.8-3,0.7-5.2s-5.4-9.6-5.4-9.6l1.9-2c0,0,5.1,7.3,5.3,11.3
		c0.3,4-0.8,5.8-0.8,5.8V237"/>
	<path class="st8" d="M204.4,216.6c0,0-1.7-12.9-1-10.6c0.3,1.2,3,9,3,9L204.4,216.6z"/>
	<path class="st0" d="M180.6,210.9c0,0-0.3,5.2,3.4,8.7c0,0,2.4,2.7-0.4,2.3s-2.2,0.7-2.2,0.7S178.7,214.6,180.6,210.9"/>
	<path class="st8" d="M203.8,234.6c0,0-3.8-11.1-8.2-15.3c0,0,0.8-5.3,0.7-8.4c-0.1-3.1-0.7-4.6-1.7-7.1c-1-2.4-3.6-4.5-3.6-4.5
		s4.3-0.3,5.4,0.6c1.1,0.8,6,5.9,3.5,18.9"/>
	<path class="st2" d="M204.4,216.6l-3.8,2.7c0,0,2.5-11.2-1.6-17.7c-2.7-4.2,3.3,3.3,3.3,3.3l1.5,3.5L204.4,216.6z"/>
	<path class="st8" d="M199,245.9c0.8-0.4-4.3-4.3-10.3-21.9l0,0c-0.2-0.6-0.9-0.9-1.5-0.6l0.1-0.1c-0.3,0.1-0.5,0.8-0.3,1l0.2,0.8
		c0,0,3,11.5,9.4,19.8C196.6,245,197.7,246.5,199,245.9z"/>
	<path class="st0" d="M208.1,251c1.1-2.6,2-5.3,1.7-6s-2.1-7-3.2-7.8c-1.1-0.8-0.8,5.7-1.3,7.7c-0.4,2-1.3,5.2-1.3,7.7s0.9,8,0.9,8
		l3.3-0.8C208.3,259.7,206.7,254.3,208.1,251z"/>
	<path class="st2" d="M187,200.7c0.8,0.6,6.3,3.6,8.1,13c0,0,0.7-8.8-5.2-14.2c-0.3-0.3,1.3,1.2,0,0l-1.7,0.5"/>
	<path class="st1" d="M204.3,235.7c0,0-6-13.2-10.3-15.3c0,0-4.5,1.3-6.6,0.1c-2.1-1.1-4.5-3.2-4.2-6.1c0.3-2.9,1-10.1,4.3-12.6l0,0
		c0,0,5.5,7.1,6.9,12.6c0,0,1,2.1,1.7-1.7l-0.5,6.4C195.7,219.1,202.5,227,204.3,235.7z"/>
	<path class="st8" d="M188,218.6c-0.5-0.9-2.3-3.2-2.3-7.6c0-3.2-0.8-3.1-1-1.9s-0.8,5-0.7,6.4c0.2,1.4,1.9,4,3.2,4.3
		C188.5,220,188.9,220.2,188,218.6z"/>
	<path class="st1" d="M194.2,219.6c0,0,5.4-2.1,6.7-11.4l-0.3,11.1c0,0-4.2,1.3-5,1.2S194.2,219.6,194.2,219.6z"/>
	<path class="st2" d="M209,233.9c0,0,1.3,2.7,1.3,3.6c0.1,0.9,0.1,6-0.5,5.3s-1.8-4.4-2.3-5.7c-0.5-1.3,0.1-2,0.8-2.9
		C208.9,233.7,209,233.9,209,233.9z"/>
	<path class="st8" d="M206.8,239.8c0.2,0.2,0.4,3.4,0.1,4.5c-0.3,1.1-0.8,5.4-1.2,6.4s-1,0.2-0.8-0.8s1.3-5.3,1.3-7.3
		C206.2,240.6,206,239,206.8,239.8z"/>
	<path class="st2" d="M204.4,216.6c0,0-3,1.6-3.8,2.7c-1.4,2,0.9,6.7,2,10.5c1.2,3.9,1.2,1.5,0.9,0c-0.2-1-2.3-8-0.8-9.9
		C204.2,218,205.3,216.8,204.4,216.6z"/>
	<path class="st1" d="M203,231.3c-0.1-0.3-1.4-4.7-1.6-6s-0.7-2.5-0.2-4.2s-0.1-1.4-0.3-1.3c-0.2,0.1-0.6,2.5-0.4,3.6
		c0.2,1.1,1.8,7,1.8,7l0.7,1.6V231.3z"/>
	<path class="st1" d="M200.5,223.3c0,0-0.4-2.4-0.8-2.8c-0.7-0.8-1.6-0.5-1.8-0.5c-0.2,0.1-1.6,0.3-1.6,0.3s-0.2-0.6,0.6-1
		c0.8-0.4,2.1-1.2,2.6-0.9s1.5,1.3,1.5,1.3L200.5,223.3z"/>
	<path class="st8" d="M155.6,147.8c1,0.4,0.1,4.5-2.9,7.1c-1.8,1.5-3.9,2.7-3.9,1.6c0-1.2,0.9-4,0.9-4S153.5,147.1,155.6,147.8z"/>
	<path class="st2" d="M170.5,229.5c0,0-8.7,19-8.7,19.5c0,0.6,0.7,1,0.7,1l-8.2-1.2l0,0l2.6-0.1l3.4-16.3L170.5,229.5z"/>
	<path class="st15" d="M172.6,272.3c-1.1-5-2.6-13.3-1-18.1l3.6,0.7c0,0-0.6,7.3,0,9.6c0.6,2.3,0.8,4.2,2,6.9
		c0.1,0.2,0.2,0.4,0.3,0.7L172.6,272.3z"/>
	<path class="st16" d="M155.9,273.1c-0.1-0.2-0.2-0.3-0.2-0.3l-0.8-21.2l20.5,3.2c-1.7,14.1,2,16.5,2,16.5s0.2,0.2,0.4,0.6
		L155.9,273.1z"/>
	<path class="st2" d="M185.9,224.3c0,0,0.2-1.7,2.4-2c2.2-0.3-4.7-0.3-4.7-0.3s0.8,1.5,1,1.8C184.9,224,185.9,224.3,185.9,224.3z"/>
	<path class="st8" d="M150.5,247.9c0,0-5.9-1.7-8.7-2.1c-2.8-0.4-4.5,0.2-4.5,0.2l0.2-0.8c0,0,3.6-1.3,6.7,0.4
		C147.3,247.3,150.5,247.9,150.5,247.9z"/>
	<polygon class="st16" points="154.3,251.9 155.3,273 153.1,251.7 	"/>
	<path class="st2" d="M172.4,295.7c0.5-4,1-7.6,1-7.6l0.2-11.4l-1-4.3l5.1-0.3c0,0,4.7,5.7,4.6,12.3c0,0-1.2,6.6-1.2,7
		s0.2,7.4,0.3,7.7c0.1,0.3,2.2,10.5,2.2,10.5l1.9,5.7c0,0-0.2,0-0.6-0.1l6.3,28.2c6.1,6.4,9.9,23.2,9.9,23.2l-4.5,4.5
		c-1.7-14-11.1-27.5-11.1-27.5s-2.2-21.6-5.9-30.1c-2.2-1-4.4-2.5-5.3-4.7C172.1,303.4,171.9,299.6,172.4,295.7z"/>
	<path class="st2" d="M150.3,351.2l8.4-2.1c0,0-4.5-7.6-5.4-12.6l-5.5-33.6c0,0,1.5,0.4,2.5,3c0,0,3.8,20,5,22.3l4.6,11.2l6.6,11.5
		l5.7,8.4l-7.8,1.9l-2.1-2.7l-6,0.6l-4.7-1.4L150.3,351.2z"/>
	<line class="st7" x1="160.2" y1="232.4" x2="156.9" y2="248.7"/>
	<polygon class="st7" points="152.6,251.4 154.6,272.2 151.6,251.3 	"/>
	<path class="st2" d="M177.4,238.5c0.4-1.3,1.5-7.5,2.3-11.8c-3.8-4.5-3.6-11.6-3.4-14.4c0.3-3.1,3.6-8.5,3.6-8.5
		c5.6-9.8,15.2-7.5,15.2-7.5c9.9,1.8,10.4,14.3,10.4,14.3s-3.7-6.9-5.6-8.4c-2-1.5-4.2-5-12.8-1.4c-8.6,3.6-8.2,15.7-8.1,17.6
		c0.1,1.9,3.8,6.7,3.8,6.7l5.4,13.2l-8,9.5c-4.6,3.4-4.8,7.2-4.8,7.2l-3.6-0.7C171.7,254.2,176.8,240.6,177.4,238.5z"/>
	<path class="st8" d="M183.9,192.8c0.4,1.3-9.8-4.3-9.8-4.3s1.4-2.5,4.2-1.1C178.7,187.7,183.3,190.8,183.9,192.8z"/>
	<path class="st2" d="M157.2,185.2L157.2,185.2c0,0,7.5,5.3,11.4,5c3.9-0.3,3.6-1.8,5.8-3.7c0.8-0.7,4.6-0.6,4.6-0.6
		c2.4,1.1-0.9-2.2-2.4-2.9c-1.5-0.7-2.7-4.5-2.7-4.5l-0.6-8l-0.5-16.8l-2.9-4.5l-4.6-2.2l0.1,0.1c2.4,3.5,3.7,7.6,3.8,11.9l0.9,21.5
		l2.1-1.9l0,0C172.2,178.6,169.2,184.8,157.2,185.2z"/>
	<path class="st8" d="M194.4,303.3c0.2-0.1,0.6,0,1,0.2v0.3c-0.2-0.1-0.5-0.2-0.7-0.2C194.2,303.6,194.4,303.3,194.4,303.3z"/>
	<polygon class="st1" points="154.3,248.8 146.9,246.9 148.9,229.8 158.6,232.3 161.9,232.4 158.2,249.3 	"/>
	<path class="st8" d="M191.3,370.9c0,0-8.4,4.1-12.9,0.9C178.4,371.8,182.3,373.6,191.3,370.9z"/>
	<path class="st8" d="M184.1,372.6c0,0,5.7,27.8,4.5,43.5l-1.5-0.2c0,0-0.7-15.5-1.4-22.4c-0.5-6-3.9-20.8-3.9-20.8h2.3V372.6z"/>
	<path class="st8" d="M190.7,420.1l1.1,0.9c0,0,0,11.4-0.6,13.1c-0.6,1.7-5.1,9.8-5.4,10.3s2.8-8.4,3.4-10.8
		C189.8,431.2,190.7,420.1,190.7,420.1z"/>
	<path class="st8" d="M168.4,377.6c0,0-2,24.1-1.9,28.4c0.1,4.3,0.9,7.5,0.9,7.5s-3.7-4.9-3.7-8s2-24.3,2.3-24.8
		C166.4,380.2,168.4,377.6,168.4,377.6z"/>
	<polygon class="st2" points="150.5,306.9 150.1,300.4 147.4,300.6 148.5,307 	"/>
	<g>
		<polygon class="st2" points="150.1,300.9 144.9,300.9 144.5,300.9 144.5,300.6 143.9,290.7 144,290.9 137.4,288.3 144.1,290.6 
			144.2,290.6 144.2,290.7 145.2,300.5 144.9,300.2 150.1,299.9 		"/>
	</g>
	<path class="st8" d="M169.8,350.2l-3.3,0.3c0,0-7-11.7-10-20.1c-3.5-9.9-7.4-24.5-6.6-38.8l2.5-1.4c0,0,0.7,16.4,5.8,33.2
		C161.9,336.1,169.8,350.2,169.8,350.2z"/>
	<path class="st2" d="M171.7,349.8c0,0-10.3-51.2-10.6-61.9c0,0,12.1,59.2,14.4,60.9L171.7,349.8z"/>
	<path class="st2" d="M155.7,290.1c0,0,0.5,13.2,1.3,18.6c0,0-2.4-14.6-2.4-18L155.7,290.1z"/>
	<path class="st8" d="M167.8,242.9c0,0,2.6-2.9,4.2-9.9c0.2-0.7,0.4-2.9-0.7-1.2c-1.1,1.7-7.3,15.9-7.3,15.9L167.8,242.9z"/>
	<path class="st2" d="M176.2,227.7l-2.8,2.8c0,0-1.6,6.3-2.3,9.2c0,0,1.6-2.4,2.6-4.8C174.7,232.5,176.2,227.7,176.2,227.7z"/>
	<path class="st2" d="M148.6,336.3c-0.3-2.4-3.8-33.8-3.8-33.8s0.1,21.4,2.3,33.9L148.6,336.3z"/>
	<path class="st8" d="M141.6,338.2l1.8-0.1c0,0-2.1-4.5-4.2-9.1c-1.4-3.2-2.7-16.2-2.3-20.7c0.4-4.5,0.6-15.8,0.5-17.3l-0.9,8.7
		c0,0-1.1,10.4-1.2,11.5s0.4,8.5,0.8,11.4c0.4,2.9,1.3,6.5,2,7.9C138.7,332.1,141.6,338.2,141.6,338.2z"/>
	<path class="st8" d="M163.9,283.8c0.9,8.5,6.7,40,14.5,64.2l-1.7,0.3c0,0-9.6-32.1-14-63.8L163.9,283.8z"/>
	<path class="st2" d="M166,349.5c0.4,0,10.2-0.4,12.7-2.4l7.9,18.4c0,0-9,2.6-11.4,0.5c-2.4-2.1-2.1-5.6-2.1-5.6L166,349.5z"/>
	<polygon class="st2" points="141,338 149.5,337.5 154.4,351.4 147.1,352.3 145,347.7 	"/>
	<path class="st1" d="M164.3,281.8c0,0-10.1,5.6-12.9,6.6c-2.1,0.7-2.8,0.8-4.1,0.9c-0.4,0-3-0.2-3.4-0.3c-1.3-0.3-4.6-1.2-5.1-1.7
		l-1-9.4c-0.1-0.6-0.3-1.2-0.8-1.7l-0.6-0.6l0.4,6l0.4,6.4l7.2,2.5c0.9,0.3,1.7,1.3,1.9,2.2l0.1,1.4c0.3,3.5,0.9,5.3,1.8,5.2h1.6
		v-7.9l15.1-8.5L164.3,281.8z"/>
	<polyline class="st17" points="182.1,281.4 170.6,279.8 163.9,283.8 	"/>
	<path class="st2" d="M153.1,289.7l0.1,0.1l0.1-0.1l10.6-5.8l-0.3-0.1c0.4,5.5,1.4,10.9,2.4,16.3s2.2,10.8,3.5,16.1
		c1.3,5.4,2.6,10.7,4,16c1.4,5.3,2.8,10.6,4.4,15.9l0.2-0.6c-0.8,0.5-1.7,1-2.6,1.3c-0.9,0.3-1.9,0.5-2.8,0.7c-1,0.1-2,0.2-2.9,0.2
		c-1,0-2.7-0.1-3.7-0.2l0.6,1.3c1.1,0.1,2.1,0.1,3.1,0.1s2.1-0.1,3.1-0.3c1-0.2,2.1-0.4,3-0.8c1-0.4,2-0.8,2.8-1.5l0.3-0.2l-0.1-0.4
		c-1.6-5.3-3.1-10.5-4.5-15.8c-1.5-5.3-2.8-10.6-4.2-15.9c-1.3-5.3-2.5-10.7-3.6-16.1c-1.1-5.4-2.1-10.8-2.5-16.3v-0.3l-0.2,0.1
		l-10.6,5.9h0.2"/>
	<path class="st2" d="M158,286.9l-8.2,4.4h-0.1v0.1c-0.1,1.2-0.1,2.4,0,3.6c0,1.2,0.1,2.4,0.1,3.6c0.1,1.2,0.1,2.4,0.2,3.6
		c0.1,1.2,0.2,2.4,0.3,3.6c-0.1-1.2-0.2-2.4-0.2-3.6c-0.1-1.2-0.1-2.4-0.2-3.6c0-1.2,0-2.4,0-3.6s0-2.4,0.1-3.6l-0.1,0.1l3.4-1.9
		L158,286.9z"/>
	<path class="st2" d="M186.8,347c0.3,0.3,5.1,17.5,5.2,19.1c0,0,0.4-3.2-0.4-7.7C191.3,356.4,186.8,347,186.8,347z"/>
	<path class="st1" d="M186.1,237.4L185,235c0,0-2.8,7-3.2,7.8L186.1,237.4z"/>
	<path class="st2" d="M191.4,197.7c-1-0.5-6.3-6.9-7.3-7.9s-5.9-4.2-8.7-3.8c-2.8,0.4-1.1-2.7-1.1-2.7l4.7,0.6c0,0,6.6,1.7,10.8,6.1
		c4.2,4.5,8.2,6.7,8.2,6.7L191.4,197.7z"/>
	<path class="st1" d="M194.1,195.4c-2-2.4-5.5-6.2-5.5-6.2s5.8,5.9,6.5,6.2S194.1,195.4,194.1,195.4z"/>
	<path class="st1" d="M193.1,194.4c0,0-3.5-2.7-5.3-4.3c-2.9-2.6-5.1-3.9-7.3-4.9c-2.2-1-4.6-0.4-5.6-1.2c-1-0.8-1-1.8-1.5-5.2
		c-0.3-2.9-0.5-11-0.5-11s-0.9-9-1.3-11.4c-0.3-2.4-1.3-5.4-2.3-6.4c-1-1-2.3-1.9-2.3-1.9s3.1,0.6,4.8,5l0.5,3l0.3,9.4
		c0,0,0.6,7.1,0.7,8.4c0.1,1.3,1.5,8,2.2,8.8s2.7,0.9,2.7,0.9s4.1,0.6,5.2,1.4c1.1,0.7,9.3,7.5,9.3,7.5l1.7,2L193.1,194.4z"/>
	<path class="st2" d="M175.9,223.5c-1.6-2.6-0.7-8.8-2.4-6.6s-4.2,7.5-6,9.1C165.8,227.6,175.9,223.5,175.9,223.5z"/>
	<path class="st8" d="M161.6,224.5c0,0,3.6-0.6,8.1-11.1c0,0,2.4-4.4,0.8-3.5c-1,0.6-5.3,7.2-9.3,10s-9.7,4.7-9.7,4.7
		s-2.2,0.5-1,1.5C150.5,226.1,159.2,225,161.6,224.5z"/>
	<path class="st2" d="M168.3,192.7c-0.4,0,8.6,0.6,8.4,4.9c-0.1,2.5-4.2,13.8-4.2,13.8s6.2-9.4,8.1-11.6c2-2.2,6.7-3.9,2-5.3
		C179,193.4,172.4,193,168.3,192.7z"/>
	<path class="st2" d="M175.3,206.4l-3.7,7.9l-2.9,6.1c0,0-2.8,5.8-5.9,6.4c-3.1,0.6-16.6,0.4-16.6,0.4s14.2-1,15.9-1.6
		c2.6-0.9,4.5-3.8,5.2-5s5.4-9.2,6.6-13L175.3,206.4z"/>
	<path class="st1" d="M158.1,190.7L153,196c0,0,1.4-2,0.2-2.8c-1.2-0.7-4-0.1-4-0.1l4.6-1L158.1,190.7z"/>
	<path class="st1" d="M168.3,192.7c0,0-9.2-1.1-13.8,1.1c-2.6,1.3,0.9-2.2,0.9-2.2l5.1-0.9L168.3,192.7z"/>
	<path class="st2" d="M156.3,192.9c0,0-9.7,8.1-13.9,29.8C142.3,222.7,145,200.5,156.3,192.9z"/>
	<path class="st2" d="M155.2,193.8c0.5-0.5,3.2-1.5,7.3-1.3c11.2,0.5,4.6,0.8-1.1-1.7c-1.8-0.8-2.7-2.5-2.9-3.5c0,0-0.2,1.6-0.4,1.9
		c-0.2,0.3-5.8,2.7-5.8,2.7l-4,1.6c0,0,7.4-2.1,4.6,2.4L155.2,193.8z"/>
	<path class="st2" d="M177.6,193.6c0,0-12.6-1-15.1-2.3l-0.5,1.2c0,0,9.2,0.5,11.8,1.6c2.7,1.1,5.8,1.6,5.8,1.6L177.6,193.6z"/>
	<path class="st2" d="M149.9,300.1c0,0-2.6,0.4-3.2-1.5c-0.4-1.3-0.6-3.8-0.6-5.2c0-0.5-0.2-1-0.4-1.5c-0.2-0.3-0.5-0.6-0.8-0.8
		l-0.7-0.3l0.8,9.8L149.9,300.1z"/>
	<path class="st0" d="M190.4,342.3c0,0-2.4-10.9-3.6-14.5c-0.9-2.5-5.7-28-5.9-30.6c-0.1-1.8,5.9,25.4,5.9,25.4L190.4,342.3z"/>
	<path class="st1" d="M186.8,327.8c0,0,2.4,12,2.5,13.5c0.1,1.5,0.6,2.7,0.6,2.7s7.7,8.5,10.6,20.4l0.9,0.4c0,0-3-10.1-5.3-13.7
		c-2.2-3.6-4.9-7.8-4.9-7.8l-3.5-15.5L186.8,327.8L186.8,327.8z"/>
	<path class="st8" d="M146.7,286.9c0,0-2.3,0.5-4.6-0.1c0,0-1.3-7.3-1.3-7.7s-0.8-3.2,0.8-3.8c0,0,1.9,0.5,4.3,0.2
		c0,0-0.8,0.7-0.8,2.4C145.2,279.7,146.7,286.9,146.7,286.9z"/>
	<path class="st2" d="M145.5,276c0,0,25.7-1.8,30.1-3.5c0.5-0.2-26.4,2.5-30.2,2.5l-8.4-0.3C137,274.7,141,276.1,145.5,276z"/>
	<path class="st2" d="M156.4,285.2c0,0-7.1,5.8-16.3,1.9C140.1,287.1,148.8,289.3,156.4,285.2z"/>
	<path class="st2" d="M167.6,192.9c0,0-9.7-0.7-12.9,1.6c0,0-0.1-1.4,0.5-1.9c0.6-0.5,4-1.1,4-1.1L167.6,192.9z"/>
	<path class="st8" d="M162.5,193.2c-0.8,0-5.9,0.3-7.2,1.6c-1.3,1.3-3.3,4.1-3.2,4.4c0.1,0.3,2.2-2.1,3.7-3.1
		c2.4-1.7,6.6-1.7,7.4-2.4C163.6,193.4,162.5,193.2,162.5,193.2z"/>
	<path class="st0" d="M151.1,247.9c0,0-0.6-14.9-0.9-15.6s-2.4,14.6-2.4,14.6L151.1,247.9z"/>
	<path class="st8" d="M140.1,243.7c0,0,0.5-11.6,0.4-13.4c-0.1-1.3-0.1-2.3-0.1-2.3l-2.1,3.2l0.1,12.9
		C138.3,244.2,139.3,243.7,140.1,243.7z"/>
	<path class="st8" d="M139,207c0,0-4.1,12.1-3.8,16c0.3,3.9,0.7,3.9,0.7,3.9l-2.1-0.1c0,0,0.1-7.8,0.4-8.6c0.3-0.8,2.3-6.5,2.3-6.5
		L139,207z"/>
	<path class="st2" d="M137.4,211.2l4.7-11c0,0-3.8,6.7-4.9,7.7L137.4,211.2z"/>
	<path class="st2" d="M151.2,230.4c0,0-3.1,14.5-3.4,16.4l-0.9-0.9l2-16.1L151.2,230.4z"/>
	<path class="st8" d="M154.9,410.1c-0.2,0.6-0.5,3-1.3,3.7c-0.7,0.6-6.2,3.1-10.5,3.4c0,0,6.5-2.2,9.1-4.6
		C154.9,410.1,154.9,410.1,154.9,410.1z"/>
	<path class="st2" d="M204.7,238.5c0,0-4.8-9.8-13.5-17.1c-0.1-0.1,0.6-0.3,0.7-0.3l2.6-0.9c0.3-0.1,0.5,0,0.7,0.2
		c1,1,4.4,4.9,8.6,14.2C203.8,234.6,204.6,236.5,204.7,238.5z"/>
	<path class="st2" d="M204.7,238.5c0,0,0.1,3.9-1.1,6.4c0,0-2.4,3.1-4.3,2.7c0,0,5.1-2.3,5.1-10.4L204.7,238.5z"/>
	<path class="st2" d="M200.6,231.9c1.2,1.6,3.5,8.7,1.9,12.7c0,0,2.8-2.7,1.9-8.3C204,234.2,200.6,231.9,200.6,231.9z"/>
	<path class="st2" d="M203.7,242.5c0,0,0.5-2.8,0.2-5.1c-0.3-2.3-0.9-5.5-1.3-7.6c-0.3-1.6-1-3.9-1-3.9l0.9-1.4c0,0,1.6,12,3.6,11.4
		c0,0-1.5,1.1-1.5,4.1C204.6,240,204.2,241.8,203.7,242.5z"/>
	<path class="st2" d="M203,239.8c0,0-2.1-8.4-8.4-15.2c0,0,1.1-0.9,1.9-0.3c0.7,0.6,5.1,7.4,5.1,7.4S203.3,238.4,203,239.8z"/>
	<path class="st2" d="M204.4,215.4c0,0,1.7,3.4,2,4c0,0-1-1.3-2.2-0.7c-1.4,0.6-1.5,2.5-1.7,3.5c-0.1,1,0.6,6.7,0.5,6.3
		c-0.1-0.3-2.4-9.2-2.4-9.2s1.3-2.3,1.5-2.5C202.3,216.6,204.4,215.4,204.4,215.4z"/>
	<path class="st2" d="M200.6,219.3c0,0,0.3,3.9,0.5,4.5c0.2,0.6,0.5-1.6,0.5-1.6l0.1-2.4L200.6,219.3z"/>
	<path class="st2" d="M183.7,221.9c0,0-2.5,0-3.3-1.7c-0.8-1.6-0.1,3-0.1,3l1.8,0.9L183.7,221.9z"/>
	<path class="st0" d="M177.3,310.9c0,0-4.9-5.6-3.7-10.9c1.2-5.3,1.7-9.4,1.7-13.7c0,0,0.9,5.3-0.5,14.1
		C174,305.5,176.5,309.6,177.3,310.9z"/>
	<path class="st1" d="M174.8,306.6c-0.3-1.6-1.1-3.8-0.6-6.8c0.7-4.4,1-13.4,1-13.4s-0.5,7.1-1.7,13.7c-0.6,3,0.4,6.8,3.7,10.9
		C177.3,310.9,175,307.6,174.8,306.6z"/>
	<path class="st7" d="M179.1,293.1c0.2-0.5,1.5-4.7,2-7.5c0.5-2.8,0,2.6-0.4,4.7C180.2,292.4,179.1,293.1,179.1,293.1z"/>
	<path class="st7" d="M179.3,289.1c0,0-2.1,6.2-2.5,8.8c0,0,0.9,1.4,1,2.1c0,0,0.4-4.5,1.2-5.4c0,0-2.1,2-0.3-2.6L179.3,289.1z"/>
	<path class="st2" d="M187.6,238.4l1-0.4l-5.9-14.5l-0.3-0.1c0,0-2.6-1.1-2.9-6.8c-0.8-11.6,7.7-16.2,12.9-17.1
		c0.6-0.1,10.6-0.6,13.3,15.7l1.2-0.2c-0.9-5.1-3-11.8-8.4-15c-3.3-2-6.2-1.7-6.3-1.7l0,0c-5,0.9-9,3.5-11.4,7.5
		c-1.9,3.1-2.8,7.1-2.5,10.9c0.4,5.6,2.7,7.3,3.5,7.8L187.6,238.4z"/>
	<path class="st2" d="M221.1,262.5c-2-0.8-4.1-1.5-6.3-2c-2.1-0.5-4.3-0.8-6.6-0.8c-1.1,0-2.2,0-3.4,0.1c-1.1,0.1-2.3,0.4-3.3,0.9
		c-2.1,0.9-3.9,2.7-4.7,4.8c0,0,0,0.1,0.1,0.1h0.1h0.2c0.6-1,1.3-1.5,2.2-2.1c0.9-0.6,1.8-1,2.7-1.3c1.9-0.7,4-1.2,6.1-1.3
		c1.1-0.1,2.1,0,3.2,0c1.1,0,2.1,0.2,3.2,0.3c2.1,0.3,3.9,0.8,6.2,1.6l0.2-0.1C221.1,262.9,221.2,262.6,221.1,262.5
		C221.2,262.5,221.2,262.5,221.1,262.5z"/>
	<path class="st2" d="M215.9,289.3c-0.1,0-0.2,0.1-0.4,0.1c-0.1,0-0.3,0.1-0.4,0.1c-0.3,0.1-0.6,0.1-0.9,0.1c-0.6,0.1-1.3,0-1.9,0
		c-1.3-0.1-2.5-0.4-3.8-0.9c-1.2-0.4-2.4-1.1-3.6-1.7c-0.6-0.3-1.1-0.7-1.7-1.1l-1.6-1.2l1.5,1.4c0.5,0.4,1,0.8,1.6,1.3
		c1.1,0.8,2.2,1.5,3.5,2.1c1.2,0.6,2.5,1.1,3.9,1.4c0.7,0.1,1.4,0.2,2.1,0.2c0.4,0,0.7,0,1.1,0c0.2,0,0.4,0,0.6-0.1
		c0.2,0,0.4-0.1,0.6-0.1L215.9,289.3z"/>
	<path class="st2" d="M175.9,252c-3.3-0.5-6.5-1.1-9.8-1.6c-3.3-0.6-6.5-1.2-9.7-1.9c-1.6-0.4-3.2-0.7-4.8-1.2
		c-1.6-0.4-3.2-0.8-4.7-1.4c-0.4-0.1-0.7-0.3-1.1-0.4c-0.4-0.1-0.8-0.3-1.2-0.4c-0.4-0.1-0.8-0.3-1.2-0.4l-0.6-0.2l-0.6-0.1
		c-0.8-0.1-1.7-0.2-2.6-0.1c-0.4,0.1-0.9,0.1-1.3,0.3c-0.4,0.2-0.8,0.3-1.1,0.7l0.1,0.1c0.7-0.4,1.5-0.5,2.3-0.5
		c0.8,0,1.6,0.2,2.4,0.4l0.6,0.2l0.6,0.2c0.4,0.1,0.8,0.3,1.1,0.4c0.4,0.1,0.7,0.3,1.1,0.5c0.4,0.2,0.8,0.3,1.2,0.5
		c0.2,0.1,0.4,0.2,0.6,0.2l0.6,0.2c0.4,0.1,0.8,0.3,1.2,0.4c0.8,0.2,1.6,0.4,2.4,0.6c1.6,0.3,3.3,0.6,4.9,0.9
		c3.3,0.6,6.5,1.1,9.8,1.5c3.3,0.4,6.6,0.8,9.9,1.1L175.9,252z"/>
	<path class="st2" d="M201.1,364.5c-0.2,0.8-0.7,1.6-1.2,2.3c-0.5,0.7-1.1,1.3-1.7,1.9c-0.6,0.6-1.3,1.1-2,1.6
		c-0.4,0.2-0.7,0.5-1.1,0.7l-1.1,0.6l0.6,0.1l-2.6-2.4c-0.2-0.2-0.4-0.2-0.6-0.1h-0.1c-1.1,0.4-2.4,0.6-3.6,0.8
		c-1.2,0.2-2.4,0.4-3.6,0.6c-0.3,0-0.6,0.1-0.9,0.1s-0.6,0.1-0.9,0.1l-0.9,0.1c-0.3,0-0.6,0-0.9,0c-1.2,0-2.4-0.1-3.6-0.3l0,0
		c0,0-0.1,0-0.1,0.1v0.1c1,0.8,2.3,1.2,3.6,1.4c1.3,0.2,2.6,0.2,3.9,0.1s2.5-0.3,3.8-0.7c1.2-0.4,2.4-0.7,3.6-1.2l-0.6-0.1l2.8,2.2
		l0,0c0.2,0.1,0.4,0.1,0.6,0l1.1-0.7c0.4-0.3,0.7-0.5,1.1-0.8c0.3-0.3,0.7-0.6,1-0.9l0.5-0.5l0.5-0.5c0.6-0.7,1.8-2.1,2.3-2.8
		c0.5-0.8,0.6-0.7,0.8-1.6C201.7,364.7,201.2,364.4,201.1,364.5C201.1,364.4,201.1,364.4,201.1,364.5L201.1,364.5z"/>
	<path class="st2" d="M172.3,358.7c-0.7,0.3-1.3,0.5-2,0.8c-0.7,0.2-1.4,0.4-2,0.6c-0.7,0.2-1.4,0.3-2.1,0.4s-1.4,0.1-2,0l0.4,0.2
		l-2-2.9c-0.2-0.2-0.4-0.3-0.7-0.2h-0.1c-0.7,0.2-1.5,0.4-2.3,0.5s-1.5,0.2-2.3,0.2s-1.5,0-2.2-0.1s-1.4-0.3-1.9-0.7l-0.1-0.1h-0.1
		l-0.1-0.1c-0.1-0.1-0.2-0.2-0.3-0.2c-0.2-0.2-0.4-0.4-0.5-0.6c-0.3-0.5-0.4-1-0.6-1.6l-0.2,0.1c0,0-0.1-0.1-0.1,0
		c0,0-0.1,0-0.1,0.1v0.5c0,0.2,0,0.3,0,0.5c0,0.3,0.1,0.6,0.2,0.9c0.1,0.3,0.2,0.6,0.4,0.9c0.1,0.1,0.2,0.3,0.3,0.4
		c0.1,0.1,0.1,0.1,0.2,0.2c0.1,0.1,0.1,0.1,0.3,0.2l-0.1-0.1l0.5,0.5c0.2,0.2,0.4,0.2,0.6,0.4c0.2,0.1,0.4,0.2,0.6,0.3
		s0.4,0.2,0.7,0.2c0.9,0.2,1.8,0.3,2.6,0.2c0.9,0,1.7-0.2,2.5-0.4c0.8-0.2,1.6-0.4,2.4-0.7l-0.7-0.2l2.2,2.7l0,0
		c0.1,0.1,0.2,0.2,0.3,0.2c0.8,0,1.5-0.1,2.3-0.2c0.7-0.2,1.4-0.4,2.1-0.6c0.7-0.2,1.4-0.5,2-0.8c0.7-0.3,1.3-0.6,1.9-1
		c0,0,0.1-0.1,0-0.1C172.4,358.7,172.4,358.7,172.3,358.7z"/>
	<path class="st2" d="M198.4,196.9c-1-0.4-1.9-0.9-3.2-1c-1.1-0.2-2.1-0.1-3.2-0.1c-2.2,0.1-4.4,0.6-6.4,1.6s-3.7,2.6-4.9,4.4
		c-1.3,1.8-2.4,3.7-3.3,5.7c-0.9,2-1.6,4.2-1.7,6.4v0.4v0.4v0.8c0.1,0.5,0.1,1.1,0.2,1.6c0.1,1.1,0.3,2.2,0.6,3.2
		c0.5,2.1,1.4,4.2,2.8,5.9c1.4,1.7,3.3,2.9,5.4,3.6c-2-0.9-3.8-2.1-5.1-3.9c-0.6-0.9-1.2-1.8-1.6-2.8c-0.4-1-0.7-2-0.9-3.1
		c-0.2-1-0.4-2.1-0.5-3.2c-0.1-0.5-0.1-1.1-0.1-1.6v-0.8V214v-0.4c0.1-1,0.3-2.1,0.6-3.1s0.7-2,1.1-3c0.9-2,1.9-3.9,3.1-5.6
		s2.8-3.2,4.6-4.3c1.8-1,4-1.4,6.2-1.5C195.3,196.7,196.7,196.8,198.4,196.9z"/>
	<path class="st2" d="M176.5,225.9c-2.4,1.8-5.1,3.3-7.9,4.4c-0.7,0.3-1.4,0.5-2.1,0.7s-1.4,0.4-2.2,0.5l-0.6,0.1
		c-0.2,0-0.4,0-0.6,0.1c-0.4,0-0.7,0.1-1.1,0.1h-1.1c-0.4,0-0.7-0.1-1.1-0.1c-1.5-0.2-3-0.4-4.4-0.8c-1.5-0.3-2.9-0.7-4.4-1.1
		c-2.9-0.8-5.8-1.6-8.8-2.5v0.1c1.3,0.7,2.7,1.4,4.1,2c1.4,0.6,2.9,1.1,4.3,1.6c0.7,0.2,1.5,0.4,2.2,0.6c0.8,0.2,1.5,0.3,2.3,0.5
		c1.5,0.3,3.1,0.5,4.6,0.6c0.4,0,0.8,0,1.2,0h1.2c0.4,0,0.8-0.1,1.2-0.1c0.2,0,0.4,0,0.6-0.1l0.6-0.1c0.8-0.1,1.5-0.4,2.2-0.6
		c0.7-0.3,1.5-0.5,2.2-0.8C171.6,229.6,174.3,228,176.5,225.9L176.5,225.9z"/>
	<polygon class="st2" points="137.5,230.9 139.7,227.9 136.6,230 	"/>
	
		<rect x="172.4" y="160.1" transform="matrix(0.9992 -4.003297e-02 4.003297e-02 0.9992 -6.4794 7.0608)" class="st2" width="1.3" height="10.5"/>
	<polygon class="st2" points="150.3,169.3 151.9,170.8 150.2,161.8 148.9,162.5 	"/>
	<path class="st2" d="M171.5,167.9v1.6l0.3,9.2l0.1-0.3c-0.9,1.1-1.8,2.1-3,2.9c-0.5,0.4-1.1,0.8-1.7,1.1c-0.3,0.2-0.6,0.3-0.9,0.5
		s-0.6,0.3-1,0.4c-1.3,0.5-2.6,0.8-4,1l-1,0.1c-0.3,0-0.7,0-1,0c-0.7,0-1.4-0.1-2-0.2l-0.3,1.2c0.8,0.1,1.5,0.1,2.2,0.1
		c0.4,0,0.7,0,1.1,0l1.1-0.1c1.5-0.2,2.9-0.6,4.2-1.1c0.3-0.1,0.7-0.3,1-0.5c0.3-0.2,0.7-0.3,1-0.5c0.6-0.4,1.3-0.8,1.8-1.3
		c0.3-0.2,0.6-0.4,0.8-0.7l0.8-0.8c0.3-0.2,0.5-0.5,0.7-0.8l0.7-0.8l0.1-0.1v-0.1L171.5,167.9"/>
	<path class="st7" d="M164.6,175.3l-4-0.1c0,0-0.7,0.3-1.8,0.1l-3,0.8C155.8,176.1,161.8,175.9,164.6,175.3z"/>
	<path class="st7" d="M161,176.9l-1.9,0.1c-0.3,0-0.7,0.1-0.9,0.4l-0.4,0.3c0,0,3,0.2,5-0.4l-0.4-0.2
		C161.9,177,161.5,176.9,161,176.9z"/>
	<path class="st2" d="M194.1,372.1c1.2,2.9,2.3,5.8,3.3,8.7c0.5,1.5,0.9,3,1.2,4.5c0.2,0.8,0.3,1.5,0.3,2.3c0.1,0.8,0.1,1.5-0.1,2.2
		v-0.1c-1.6,2.4-2.2,5.1-2.5,7.8c-0.3,2.7-0.6,5.4-0.8,8.1c-0.3,2.7-0.5,5.4-0.8,8.1c-0.1,1.4-0.2,2.7-0.3,4.1s-0.2,2.7-0.3,4.1
		l0.7-0.2c-0.8-0.8-1.7-1.6-2.6-2.4c-0.9-0.7-1.9-1.4-3-2c-0.5-0.3-1.1-0.5-1.7-0.6c-0.3-0.1-0.6-0.1-0.9,0c-0.3,0-0.6,0.1-0.9,0.2
		c-1.1,0.3-2.3,0.7-3.2,1.4l0.1,0.1c1-0.6,2.1-0.9,3.2-1.1c0.3,0,0.6-0.1,0.9-0.1s0.5,0,0.8,0.1c0.5,0.1,1.1,0.4,1.5,0.6
		c1,0.6,1.9,1.3,2.8,2c0.9,0.7,1.7,1.5,2.5,2.4l0.6,0.6l0.1-0.9c0.3-2.7,0.5-5.4,0.7-8.1l0.6-8.1c0.2-2.7,0.4-5.4,0.7-8.1
		c0.1-1.4,0.3-2.7,0.7-4c0.4-1.3,0.8-2.6,1.6-3.7l0,0l0,0c0.2-0.8,0.1-1.6,0.1-2.4c-0.1-0.8-0.2-1.6-0.4-2.3c-0.3-1.5-0.8-3-1.3-4.5
		C196.6,377.8,195.5,374.9,194.1,372.1L194.1,372.1z"/>
	<path class="st2" d="M164.1,361l3.7,14.7l0.1-0.2l-3.7,3.9l-0.1,0.1v0.1l-1.1,9.1l-1.1,9.1l-0.5,4.6c-0.1,0.8-0.2,1.5-0.3,2.3
		c0,0.2,0,0.4-0.1,0.5v0.2c0,0,0,0,0.1-0.1c0,0,0.1-0.1,0.2-0.1c0.1,0,0.1,0,0.1,0c0.1,0,0,0,0,0c-0.1-0.1-0.2-0.2-0.3-0.4
		c-0.1-0.2-0.2-0.3-0.3-0.5c-0.8-1.3-1.6-2.6-2.5-3.9c-0.4-0.6-0.9-1.2-1.4-1.8c-0.3-0.3-0.5-0.6-0.8-0.8c-0.3-0.2-0.7-0.5-1.1-0.5
		v0.1c0.4,0.1,0.7,0.3,0.9,0.6c0.3,0.3,0.5,0.5,0.8,0.8c0.5,0.6,0.9,1.2,1.3,1.9c0.8,1.3,1.5,2.6,2.3,4c0.1,0.2,0.2,0.3,0.3,0.5
		s0.2,0.3,0.4,0.5c0.1,0,0.1,0.1,0.2,0.2c0.1,0,0.1,0,0.2,0c0.1,0,0.2-0.1,0.2-0.1c0.1-0.1,0.1-0.2,0.1-0.2l0.1-0.3
		c0-0.2,0.1-0.4,0.1-0.6c0.1-0.8,0.2-1.5,0.3-2.3c0.2-1.5,0.4-3,0.6-4.6c0.3-3,0.7-6.1,1-9.1l0.9-9.1l-0.1,0.2l3.6-3.9l0.1-0.1v-0.1
		L164.1,361L164.1,361z"/>
	<path class="st2" d="M166.9,445.5c0.9,0.1,1.9,0.3,2.8,0.5c0.9,0.2,1.8,0.5,2.7,0.8c0.9,0.3,1.8,0.7,2.6,1.1s1.6,1,2.1,1.7l0.1,0.1
		h0.1l8.7,0.4h0.1l0.1-0.1l6.3-4.9c1.1-0.8,2.1-1.6,3.2-2.5c1-0.8,2.1-1.7,3.1-2.5h0.1l0,0c0.8-1.2,1.5-2.5,2.3-3.8s1.5-2.5,2.2-3.8
		h-0.1c-0.9,1.2-1.7,2.4-2.5,3.6s-1.7,2.4-2.5,3.6l0.1-0.1c-1.1,0.8-2.1,1.6-3.2,2.4c-1.1,0.8-2.1,1.7-3.1,2.5l-6.2,5l0.2-0.1
		l-8.7-0.2l0.2,0.1c-0.6-0.8-1.5-1.3-2.3-1.7c-0.8-0.4-1.7-0.8-2.6-1.1c-0.9-0.3-1.8-0.5-2.7-0.7
		C168.8,445.7,167.9,445.6,166.9,445.5L166.9,445.5z"/>
	<path class="st2" d="M178.1,413.1l-11,6.4h0.1c-1.4,0.1-2.7,0.3-4.1,0.6c-1.4,0.2-2.7,0.5-4.1,0.8c-1.3,0.3-2.7,0.7-4,1.1
		s-2.6,0.9-3.9,1.5h0.1c-1.4,0.2-2.8,0.4-4.2,0.5c-1.4,0.2-2.8,0.3-4.2,0.4c-1.4,0.1-2.8,0.2-4.2,0.2c-0.7,0-1.4,0-2.1-0.1
		s-1.4-0.2-1.9-0.4h0.1c-1.2-0.9-2.5-1.8-3.7-2.6c-1.2-0.9-2.5-1.7-3.7-2.6l-0.1,0.1c1.2,1,2.3,1.9,3.5,2.9c1.2,0.9,2.4,1.9,3.6,2.8
		l0,0l0,0c0.7,0.3,1.4,0.5,2.1,0.6s1.4,0.1,2.1,0.2c1.4,0,2.8,0,4.3-0.1c2.8-0.2,5.6-0.6,8.4-1.1h0.1l0,0c1.2-0.6,2.5-1.1,3.8-1.5
		s2.6-0.8,3.9-1.1c2.7-0.7,5.4-1.2,8.1-1.5l0,0l0,0L178.1,413.1L178.1,413.1z"/>
	<path class="st7" d="M170,163.3c0,0-10.2,7-19.1,2L170,163.3z"/>
	<path class="st2" d="M175.1,254.8l-7.3-1.3c-2.4-0.5-4.9-0.9-7.3-1.3l-7-1c-2.4-0.4-6.1-1.1-7.6-1.6h0.1c-0.7-0.2-1.4-0.4-2.2-0.6
		c-0.7-0.2-1.5-0.3-2.2-0.4c-0.8-0.1-1.5-0.1-2.3,0c-0.4,0.1-0.7,0.2-1.1,0.3c-0.2,0.1-0.4,0.1-0.5,0.2c-0.1,0-0.2,0.1-0.3,0.1
		c0,0-0.1,0-0.1,0.1c0,0,0,0-0.1,0l0,0l0,0c0,0,0,0,0,0.1l0.1-0.1v0.1l0,0l0,0c0,0,0,0,0.1,0h0.1h0.3c0.2,0,0.4,0,0.5,0
		c0.4,0,0.8,0,1.1,0c0.7,0,1.4,0.2,2.1,0.3c0.7,0.2,1.4,0.4,2.1,0.6s1.4,0.4,2.1,0.7h0.1h0.1c2.4,0.4,4.9,0.7,7.4,1l7.4,1
		c2.5,0.3,4.9,0.7,7.4,1l7.4,1L175.1,254.8z"/>
	<path class="st7" d="M164.3,175.2c0,0,0.3-0.1,0.3,0.1c0,0.4-0.2,0-0.7,0.1C163.3,175.5,164.3,175.2,164.3,175.2z"/>
	<path class="st7" d="M155.9,176c0,0-0.3-0.1-0.2,0.2c0.1,0.4,0.2-0.1,0.7-0.1C156.9,176,155.9,176,155.9,176z"/>
	<path class="st2" d="M192.9,302.9c0.8-0.8,1.6-1.6,2.3-2.3c0.2-0.2,0.4-0.4,0.6-0.5c0.2-0.2,0.4-0.4,0.6-0.5
		c0.1-0.1,0.4,0.1,0.6,0.3c0.2,0.2,0.3,0.4,0.4,0.6c0.1,0.2,0.2,0.5,0.2,0.7c0,0.1,0,0.2,0,0.3s-0.1,0.2-0.2,0.4
		c-0.3,0.5-0.6,0.9-0.9,1.4s-0.6,0.9-0.9,1.4c-0.1,0.2-0.3,0.5-0.4,0.7c-0.1,0.3-0.2,0.5-0.2,0.8c0-0.1,0.1-0.3,0.1-0.4
		c0.1-0.1,0.1-0.2,0.2-0.4c0.1-0.2,0.3-0.5,0.4-0.7c0.3-0.5,0.7-0.9,1-1.3s0.6-0.9,0.9-1.4c0.1-0.1,0.1-0.3,0.2-0.4
		c0.1-0.1,0.1-0.3,0.1-0.5c0-0.3-0.1-0.6-0.3-0.8c-0.1-0.3-0.3-0.5-0.5-0.7c-0.1-0.1-0.2-0.2-0.4-0.3c-0.1,0-0.2-0.1-0.2-0.1
		c-0.1,0-0.2,0-0.3,0.1c-0.5,0.3-0.9,0.7-1.3,1.1C194.3,301.2,193.6,302,192.9,302.9z"/>
	<path class="st2" d="M196.3,297.3c0.3,0.7,0.7,1.4,0.9,2.1c0.1,0.4,0.3,0.7,0.4,1.1c0.1,0.4,0.2,0.7,0.2,1.1c0.1-0.4,0.1-0.8,0-1.2
		c-0.1-0.4-0.2-0.8-0.3-1.1C197.3,298.6,196.9,297.9,196.3,297.3z"/>
	<path class="st2" d="M196.5,303.4c-0.3-0.1-0.5-0.1-0.8-0.2c-0.3,0-0.5-0.1-0.8,0c0.5,0.1,1,0.3,1.5,0.5l0,0c0.1,0,0.2,0,0.2-0.1
		C196.7,303.5,196.6,303.5,196.5,303.4L196.5,303.4z"/>
	<path class="st7" d="M137.5,273.9c4-0.3,7.9-0.6,11.9-0.8c4-0.2,8-0.3,12-0.3c-4-0.3-8-0.4-12-0.5s-8-0.1-12-0.1L137.5,273.9z"/>
	<path class="st2" d="M148.1,162.7L148.1,162.7L148.1,162.7z"/>
	<path class="st2" d="M149.3,162.6L149.3,162.6c-0.1,0-0.3-0.1-0.4-0.1c-0.1-0.5-0.2-1-0.2-1.3l-0.6-5.9h1.5l0.6,6.6
		c0,0.1,0,0.1,0,0.2C150.1,162.4,149.7,162.7,149.3,162.6z"/>
	<g>
		<path class="st2" d="M137.5,272c6.5,0.3,13,0.4,19.6,0.4c6.5,0,13.1-0.2,19.6-0.5c-6.5,0.8-13,1.5-19.6,2
			c-6.5,0.5-13.1,0.9-19.7,1.1L137.5,272z"/>
	</g>
	<path class="st2" d="M171.9,155.6c0,0,0-2.5-1.3-4.3l0.5-0.5l1.1,1.5l0.2,2L171.9,155.6z"/>
	<path class="st2" d="M173.2,153.3c0,0.1,0,0.1,0,0.2l0.2,4.4l0,0c0,0.1,0,2.7,0,2.7l0,0c-0.1,0-0.1,0.1-0.2,0.1l0,0
		c-0.1,0.1-0.3,0.1-0.4,0.1c-0.4,0-0.6,0.4-0.6,0l-0.5-7.5C171.7,153.3,173.2,153.3,173.2,153.3z"/>
	<path class="st2" d="M151,149.3c2.5-2.3,7.2-4.5,13.9-3.1c6.5,1.3,7.8,5.3,8.2,6.7c0,0.2,0.1,0.4,0.1,0.6c-0.1,0.4-1.5-0.2-1.5-0.2
		s-1.5-3.5-4.2-4.7c-2.7-1.2-6.1-1.4-7.8-1.1s-5.5,1-7.8,3.4c-2.3,2.4-2.3,4.3-2.3,4.3h-1.5C148.1,155.3,148.3,151.8,151,149.3z"/>
	<g>
		<polygon class="st2" points="152,176.8 153.8,175.1 154.1,174.9 154.4,174.9 165.4,174.1 165.6,174.1 165.6,174.1 168.7,175.6 
			168.4,175.7 171.6,170.4 168.8,176 168.7,176.2 168.5,176.1 165.3,174.9 165.5,174.9 154.6,176.6 155.1,176.4 153.4,178.2 		"/>
	</g>
	<g>
		<path class="st2" d="M157.7,188.3c0,0.2-0.1,0.4-0.3,0.5l-14.6,7.9c-0.9,0.9-1.8,1.9-2.5,2.9c-0.8,1.1-1.4,2.2-1.9,3.4
			s-0.9,2.4-1,3.7c-0.1,1.3,0,2.6,0.3,3.8c0,0.1,0,0.3,0,0.4c-0.6,1.2-1.2,2.5-1.7,3.9c-0.5,1.3-0.9,2.7-1.2,4.1
			c-0.3,1.4-0.5,2.8-0.6,4.2c-0.1,1.4,0,2.7,0.2,4l3.2,3.1l0,0c0.1,0.1,0.1,0.2,0.1,0.3c0,3.6,0.1,7.2,0.1,10.9l-0.2,10.9l-0.1,5.4
			c0,0.9,0,1.8,0,2.7l0.1,2.7l0.4,10.8c0,0.1,0,0.1,0,0.2l0,0c-0.3,0.5-0.5,1-0.7,1.6c-0.1,0.3-0.1,0.5-0.1,0.8c0,0.3,0,0.6,0,0.9
			l0.2,3.6c0.1,2.4,0.2,4.8,0.3,7.3c0,1.2,0,2.4-0.1,3.7c-0.1,1.2-0.3,2.4-0.5,3.6c-0.3,2.4-0.6,4.8-0.9,7.2
			c-0.5,4.8-0.7,9.7-0.4,14.5c0.3,4.5,0.9,8.9,2.5,13.1c-0.1,0.2-0.2,0.4-0.4,0.5c-1.7-4.3-2.3-9-2.6-13.6
			c-0.3-4.9-0.1-9.7,0.4-14.6c0.2-2.4,0.5-4.8,0.9-7.2c0.2-1.2,0.3-2.4,0.5-3.6c0.1-1.2,0.1-2.4,0.1-3.6c0-2.4-0.1-4.8-0.3-7.3
			l-0.2-3.6c0-0.3,0-0.6,0-0.9s0-0.7,0.1-1c0.2-0.6,0.4-1.1,0.7-1.7L137,263l-0.1-2.7c0-0.9,0-1.8,0-2.7l0.1-5.4l0.1-10.9
			c0-3.6-0.1-7.1-0.2-10.7l-3.2-3.1l0,0c-0.1-0.1-0.1-0.1-0.1-0.2c-0.3-1.5-0.4-2.9-0.3-4.4s0.3-2.9,0.6-4.3
			c0.3-1.4,0.8-2.8,1.3-4.2c0.5-1.3,1-2.6,1.7-3.8c-0.3-1.3-0.4-2.7-0.3-4c0.1-1.4,0.5-2.7,1.1-4c0.5-1.3,1.2-2.5,2-3.6
			c0.8-1.1,1.7-2.2,2.7-3.1l0.1-0.1l0,0l14.3-7.8l0.1-2.6c-0.2,0-0.4-0.1-0.6-0.2c-0.4-0.1-0.7-0.3-1.1-0.4c-0.3-0.2-0.7-0.4-1-0.6
			s-0.6-0.4-0.9-0.7c-0.1-0.1-0.2-0.2-0.2-0.4l0,0l-2.1-11.6l-0.4-2.2c0.2,0.1,0.3,0.2,0.4,0.4c0.1,0.2,0.3,0.3,0.4,0.4
			c0.1,0.1,0.3,0.2,0.4,0.2l0,0c0.2,0.1,0.4,0.3,0.4,0.5l1.8,11.8c0.2,0.1,0.4,0.3,0.6,0.4c0.3,0.2,0.6,0.3,0.8,0.5
			c0.3,0.1,0.6,0.3,0.9,0.4c0.3,0.1,0.6,0.2,0.9,0.2l0,0c0.3,0.1,0.6,0.3,0.5,0.7V188.3L157.7,188.3z"/>
		<path class="st2" d="M127,418.1c0.1-0.2,0.2-0.5,0.3-0.7s0.9-1.1,1-1.3c0.3-0.4,0.1-0.1,0.5-0.5c0.1-0.1,0.2-0.1,0.3-0.1l0,0
			c0.7,0,1.5-0.1,2.3-0.2s1.5-0.3,2.3-0.6c1.5-0.5,2.9-1.1,4.3-1.9c1.4-0.7,2.7-1.6,4-2.6c1.3-0.9,2.5-2,3.7-3
			c1.2-1.1,2.4-2.2,3.5-3.3c1.1-1.1,2.2-2.3,3.2-3.5l0.7-0.9c0.2-0.3,0.5-0.6,0.7-1c0.4-0.7,0.8-1.3,1-2c0.5-1.5,0.6-3.1,0.7-4.6
			c0.1-3.2-0.1-6.4-0.4-9.6c-0.3-3.2-1-6.3-1.7-9.4s-1.6-6.2-2.4-9.3l-1.3-4.7l-0.3-1.2c-0.1-0.4-0.2-0.8-0.2-1.3
			c0-0.4,0.1-1,0.5-1.3c0.2-0.2,0.4-0.3,0.6-0.4c0.1,0,0.2-0.1,0.3-0.1l-0.7-2.5c0.2,0,0.4-0.1,0.6-0.1l0.8,2.8c0,0,0,0,0,0.1
			c0,0.2-0.1,0.3-0.3,0.3l0,0c-0.3,0-0.7,0.1-0.9,0.4c-0.2,0.2-0.3,0.5-0.3,0.9c0,0.3,0.1,0.7,0.2,1.1l0.3,1.2l1.3,4.7
			c0.8,3.1,1.7,6.2,2.4,9.3c0.8,3.1,1.4,6.3,1.8,9.5c0.4,3.2,0.6,6.4,0.5,9.7c-0.1,1.6-0.2,3.3-0.7,4.9c-0.3,0.8-0.7,1.6-1.1,2.2
			c-0.2,0.3-0.5,0.7-0.7,1l-0.7,1c-1,1.3-2.1,2.5-3.2,3.6c-1.1,1.2-2.3,2.3-3.5,3.4s-2.5,2.1-3.8,3.1s-2.7,1.9-4.1,2.7
			c-1.4,0.8-2.9,1.5-4.5,2c-0.8,0.3-1.6,0.5-2.4,0.6c-0.8,0.1-1.5,0.2-2.3,0.2c-0.3,0.2-0.5,0.5-0.8,0.8c-0.1,0.2-0.2,0.4-0.3,0.5
			c-0.1,0.2-0.2,0.4-0.3,0.6c-0.3,0.8-0.4,1.7-0.3,2.6s0.4,1.7,0.7,2.6c0.2,0.4,0.4,0.8,0.6,1.2l0.6,1c0.5,0.2,1.1,0.3,1.7,0.5
			l1,0.2l1,0.1c0.7,0.1,1.3,0.1,2,0.2c0.7,0,1.3,0.1,2,0.1c2.7,0.1,5.3-0.1,8-0.5c2.6-0.3,5.3-0.9,7.9-1.5c1.3-0.3,2.6-0.7,3.9-1.1
			l3.8-1.2l0,0c0,0,0,0,0.1,0c1.4-0.2,2.7-0.4,4.1-0.5c1.4-0.1,2.7-0.2,4.1-0.2c1.4,0,2.7,0,4.1,0c1.1,0,2.3,0.1,3.4,0.1l1.1-9
			c-0.9-3.3-1.7-6.7-2.3-10.1c-0.1-0.4-0.1-0.9-0.2-1.3c0-0.4-0.1-0.9-0.1-1.3l-0.1-1.3l-0.1-1.3c-0.1-1.7-0.1-3.5-0.1-5.2
			c0-3.5,0-7,0.3-10.4c0.1-0.9,0.1-1.7,0.2-2.6c0.1-0.9,0.2-1.7,0.3-2.6c0-0.4,0.1-0.9,0.2-1.3c0.1-0.4,0.1-0.9,0.2-1.3l0.3-1.3
			l0.4-1.3c0.1-0.3,0.3-0.5,0.6-0.5c0.4-0.1,0.8,0.2,0.9,0.6l0,0c1.3,7,2.5,14,3.6,21.1c0.5,3.5,1.1,7.1,1.5,10.6
			c0.1,0.9,0.2,1.8,0.3,2.7c0.1,0.9,0.1,1.8,0.2,2.7c0.1,1.8,0.2,3.6,0.2,5.4s-0.1,3.6-0.4,5.4s-0.7,3.6-1.3,5.3
			c-0.2,0.4-0.3,0.9-0.5,1.3l-0.5,1.3c-0.4,0.8-0.8,1.7-1.3,2.4c-0.2,0.4-0.4,0.8-0.7,1.2l-0.7,1.1c-0.5,0.8-1,1.5-1.5,2.2
			c-2,2.9-4.2,5.8-6.4,8.6c-0.6,0.7-1.1,1.4-1.7,2.1l-0.8,1c-0.2,0.2-0.3,0.5-0.3,0.8s0,0.6,0.1,1c0.1,0.4,0.2,0.8,0.4,1.2
			c0.2,0.7,0.5,1.4,0.8,2.1c0.6,0.2,1.3,0.4,1.9,0.6c0.8,0.2,1.6,0.4,2.4,0.5c1.6,0.3,3.2,0.4,4.8,0.4c1.6,0,3.2-0.2,4.7-0.5
			c1.5-0.4,3-0.9,4.4-1.6c0.7-0.4,1.3-0.8,2-1.3s1.3-0.9,2-1.4c1.3-1,2.6-2,3.7-3.1c0.6-0.6,1.1-1.2,1.7-1.8c0.6-0.6,1.3-1.2,2-1.7
			c1.2-1,2.5-1.8,3.8-2.6l0.5-8.9c-0.1-0.1-0.1-0.2-0.1-0.3c-0.1-0.2-0.2-0.3-0.2-0.5c-0.1-0.3-0.2-0.7-0.3-1s-0.2-0.7-0.3-1
			s-0.1-0.7-0.2-1c-0.2-1.4-0.3-2.7-0.4-4.1c-0.1-2.7,0.1-5.4,0.3-8.1c0.6-5.3,1-10.6,1.3-16c0.3-5.3,0.4-10.7,0.3-16
			c-0.2-5.2-0.6-10.5-1.6-15.6l-0.8-0.9c-0.1-0.1-0.2-0.2-0.2-0.4l0,0c-0.4-1.9-0.9-3.8-1.5-5.6c-0.6-1.9-1.3-3.7-2.1-5.5
			c-0.8-1.8-1.7-3.5-2.7-5.2c-1-1.7-2.2-3.2-3.4-4.7l0,0c-0.1-0.1-0.1-0.2-0.2-0.3l-6.3-29.1l-3.1-14.5c-0.1-0.3-0.1-0.6-0.2-0.9
			c-0.1-0.3-0.1-0.6-0.1-1c-0.1-0.6-0.1-1.3-0.2-1.9c-0.1-1.3-0.1-2.5,0-3.8c0.1-2.5,0.5-5,1.1-7.4c0.1-1.1,0-2.3-0.2-3.4
			s-0.5-2.3-0.9-3.4c-0.4-1.1-0.9-2.1-1.5-3.1c-0.6-1-1.3-1.9-2.1-2.8l0,0c0,0,0-0.1-0.1-0.1c-0.8-1.6-1.3-3.2-1.7-4.9
			c-0.4-1.7-0.6-3.3-0.7-5c0-0.4,0-0.8,0-1.3c0-0.4,0-0.8,0-1.3v-1.3l0.1-1.3c0.1-0.8,0.2-1.7,0.3-2.5c0.1-0.8,0.4-1.7,0.5-2.5
			c0-0.1,0.1-0.1,0.1-0.2l0,0l12.3-13.9c0.1-0.1,0.1-0.1,0.2-0.1c0.2-0.1,0.5,0,0.6,0.3c0.4,1.3,0.9,2.6,1.5,3.9
			c0.5,1.3,1.1,2.5,1.7,3.7c0.6,1.2,1.3,2.4,2.1,3.5c0.8,1.1,1.7,2.2,2.7,2.9c0.1,0.1,0.2,0.3,0.1,0.5l0,0c-0.4,1-0.7,2.1-0.8,3.2
			c-0.2,1.1-0.2,2.2-0.1,3.3c0.1,0.6,0.1,1.1,0.2,1.7c0,0.3,0.1,0.6,0.1,0.8l0.2,0.8c0.1,0.5,0.3,1.1,0.4,1.6
			c0.2,0.5,0.4,1.1,0.6,1.6l0,0c0,0.1,0,0.1,0,0.2l-0.4,1.3c0.6,1.4,1.2,2.8,1.7,4.2c0.5,1.5,1,2.9,1.5,4.4c0.4,1.5,0.8,3,1.2,4.5
			c0.3,1.5,0.5,3.1,0.7,4.6c0,0.1,0,0.2-0.1,0.2c-1.3,0.7-2.6,1.4-3.9,2.1c-0.6,0.4-1.3,0.8-1.8,1.2c-0.3,0.2-0.6,0.5-0.8,0.7
			c-0.2,0.2-0.4,0.6-0.5,0.9l-4,8c-0.2,0.5-0.2,1.1-0.2,1.6c0,0.3,0.1,0.5,0.2,0.8c0.1,0.2,0.3,0.4,0.5,0.6c0.8,0.4,1.6,0.9,2.4,1.3
			v0.1l0,0l0,0l0,0l-0.1,0.1c-0.1,0.1-0.1,0.1-0.2,0.2c-0.1,0.1-0.2,0.3-0.3,0.4c-0.2,0.3-0.3,0.6-0.3,0.9c0,0.3,0.1,0.6,0.2,0.9
			l0.3,0.9c0.4,1.2,0.8,2.4,1.2,3.6l4.2,1.3c2.2-0.5,4.4-1.1,6.6-1.6c1.1-0.2,2.2-0.5,3.4-0.7c1.1-0.2,2.2-0.4,3.3-0.6l1.7-1.8l0,0
			l0.1-0.1c0-0.1,0.1-0.1,0.1-0.2c0.1-0.1,0.1-0.3,0.2-0.5c0.1-0.3,0.2-0.6,0.3-1c0.2-0.7,0.3-1.3,0.4-2c0.2-1.3,0.4-2.7,0.5-4.1
			c0.1-1.4,0.2-2.7,0.3-4.1c0.1-1.4,0.1-2.7,0.2-4.1c0-0.1,0-0.7,0.1-0.8l1.9-0.8c0.1-2.1,0.4-4.2,0.9-6.3c0.3-1.1,0.6-2.1,1-3.1
			s0.8-2,1.2-3c0.7-2,1.3-4.1,1.5-6.2c0.2-2,0.2-4.1-0.1-6.1l-1.5-0.7c-0.1-0.1-0.2-0.2-0.3-0.3l0,0c-0.5-2.9-1-5.8-1.6-8.6
			c-0.3-1.4-0.6-2.9-1-4.3c-0.4-1.4-0.8-2.7-1.3-4c-0.6-0.4-1.1-0.8-1.5-1.3c-0.5-0.5-0.9-1.1-1.4-1.7c-0.8-1.2-1.4-2.5-1.9-3.8
			s-0.8-2.7-1.1-4.1c-0.1-0.7-0.2-1.4-0.3-2.1l-0.2-2.1c0-0.1,0-0.2,0.1-0.3l0,0c0.1-0.1,0.1-0.3,0.2-0.4c0.1-0.1,0.1-0.3,0.2-0.5
			c0.1-0.3,0.2-0.6,0.2-1c0.1-0.3,0.1-0.7,0.1-1s0-0.7,0-1c-0.1-1.4-0.4-2.7-0.9-4c-0.2-0.7-0.6-1.3-0.9-1.9c-0.3-0.6-0.7-1.2-1-1.8
			c-0.4-0.6-0.8-1.2-1.2-1.7l-1.3-1.6l0,0c-0.1-0.1-0.2-0.3-0.1-0.5c0.1-1.4,0-2.8-0.1-4.2c-0.2-1.4-0.5-2.8-0.9-4.2s-1-2.6-1.7-3.9
			c-0.7-1.2-1.6-2.3-2.6-3.3c-0.2-0.3-0.5-0.5-0.8-0.7s-0.5-0.4-0.8-0.7l-0.9-0.6l-0.9-0.7c-1.2-0.9-2.3-1.8-3.5-2.7
			c-1.2-0.9-2.3-1.8-3.4-2.8c-1.1-0.9-2.2-1.9-3.2-3c-0.7-0.6-1.6-1.2-2.5-1.7c-0.9-0.5-1.8-1-2.7-1.4c-0.9-0.4-1.9-0.7-2.8-1
			c-1-0.2-1.9-0.4-2.9-0.4l0,0c-0.2,0-0.4-0.1-0.5-0.3c-0.2-0.3-0.3-0.5-0.4-0.8c-0.1-0.3-0.2-0.5-0.3-0.8c-0.2-0.5-0.4-1.1-0.6-1.6
			c-0.3-1.1-0.6-2.2-0.8-3.3c-0.9-1-0.9-2-1-3.1l-0.2-1.6l-0.1-1.8v-0.7c0-0.4,0.2-0.1,0.6-0.1l0,0c0.2,0,0.4,0,0.6-0.1l0.2,1.4
			l0.1,1l0.1,1.6c0.1,1.1,0.3,2.1,0.5,3.2s0.4,2.1,0.8,3.1c0.2,0.5,0.3,1,0.5,1.5c0.1,0.2,0.2,0.5,0.3,0.7c0.1,0.1,0.1,0.2,0.2,0.4
			c1,0.1,1.9,0.2,2.8,0.4c1,0.3,2.1,0.6,3,1c1,0.4,1.9,0.9,2.8,1.5c0.9,0.6,1.8,1.1,2.6,1.8c0,0,0,0,0.1,0l0,0c0.9,1,2.1,2,3.2,2.9
			c1.1,0.9,2.2,1.8,3.4,2.7c1.1,0.9,2.3,1.8,3.5,2.7l0.9,0.7l0.9,0.7c0.3,0.2,0.6,0.5,0.9,0.7c0.3,0.3,0.6,0.5,0.8,0.8
			c1.1,1.1,2,2.3,2.8,3.6c0.8,1.3,1.4,2.7,1.8,4.1c0.5,1.4,0.8,2.9,0.9,4.4c0.2,1.4,0.2,2.8,0.1,4.2l1.2,1.5
			c0.4,0.6,0.8,1.2,1.3,1.8c0.4,0.6,0.8,1.3,1.1,1.9c0.3,0.7,0.7,1.3,0.9,2c0.5,1.4,0.9,2.9,0.9,4.4c0,0.4,0,0.8,0,1.1
			c0,0.4-0.1,0.8-0.1,1.1c-0.1,0.4-0.2,0.8-0.3,1.1c-0.1,0.2-0.1,0.4-0.2,0.6c-0.1,0.1-0.1,0.2-0.2,0.4l0.1,1.9
			c0.1,0.7,0.2,1.3,0.3,2c0.3,1.3,0.6,2.6,1,3.9c0.5,1.3,1,2.5,1.8,3.6c0.4,0.5,0.8,1.1,1.2,1.5c0.2,0.2,0.5,0.5,0.7,0.7
			s0.5,0.4,0.7,0.5l0,0c0.1,0.1,0.2,0.1,0.2,0.3c0.5,1.4,0.9,2.8,1.3,4.3c0.4,1.4,0.7,2.9,1,4.3c0.6,2.8,1.1,5.6,1.5,8.5l1.5,0.7
			l0,0c0.1,0.1,0.2,0.2,0.2,0.4c0.2,2.2,0.3,4.4,0,6.6c-0.2,2.2-0.9,4.3-1.6,6.4c-0.4,1-0.8,2-1.2,3s-0.7,2-1,3
			c-0.5,2.1-0.8,4.2-1,6.3l0,0c0,0.1-0.1,0.2-0.1,0.3l-1.8,1.3c-0.1,1.3-0.1,2.6-0.2,4c-0.1,1.4-0.2,2.7-0.4,4.1
			c-0.2,1.4-0.3,2.7-0.6,4.1c-0.1,0.7-0.3,1.4-0.5,2c-0.1,0.3-0.2,0.7-0.3,1c-0.1,0.2-0.1,0.3-0.2,0.5c0,0.1-0.1,0.2-0.1,0.2
			c-0.1,0.1-0.1,0.2-0.2,0.3l0,0l-1.8,1.8l-0.1,0.1c-1.1,0.1-2.2,0.3-3.4,0.5c-1.1,0.2-2.2,0.4-3.4,0.7c-2.2,0.5-4.5,1-6.7,1.5l0,0
			h-0.1l-4.3-1.4l0,0c0,0-0.1,0-0.1-0.1c-0.4-1.2-0.8-2.5-1.2-3.7l-0.3-0.9c-0.1-0.3-0.2-0.6-0.2-1c0-0.3,0.1-0.7,0.3-1
			c0.1-0.1,0.2-0.3,0.3-0.4c0.1-0.1,0.1-0.1,0.2-0.2l0.1-0.1l0,0c-0.8-0.4-1.5-0.8-2.3-1.2l0,0c-0.2-0.2-0.4-0.4-0.5-0.7
			c-0.1-0.3-0.2-0.5-0.2-0.8c0-0.3,0-0.6,0-0.9s0.1-0.6,0.2-0.8l0,0l0,0l4-8c0.2-0.3,0.3-0.7,0.6-1c0.3-0.3,0.6-0.5,0.9-0.8
			c0.6-0.5,1.2-0.9,1.9-1.3c1.2-0.8,2.5-1.5,3.8-2.1c-0.1-1.5-0.4-3-0.7-4.4c-0.3-1.5-0.7-3-1.2-4.5s-1-2.9-1.5-4.4
			c-0.6-1.4-1.2-2.9-1.8-4.2c0-0.1,0-0.1,0-0.2l0.4-1.3c-0.2-0.5-0.4-1-0.6-1.5l-0.2-0.8c-0.1-0.3-0.2-0.6-0.2-0.8l-0.2-0.8
			c-0.1-0.3-0.1-0.6-0.1-0.9c-0.1-0.6-0.1-1.1-0.2-1.7c-0.1-1.2,0-2.3,0.1-3.5c0.1-1.1,0.4-2.1,0.8-3.1c-1.1-0.8-1.9-1.9-2.7-2.9
			c-0.8-1.1-1.5-2.4-2.2-3.6s-1.2-2.5-1.8-3.8c-0.4-1.1-0.9-2.1-1.2-3.2l-11.6,13.3c-0.2,0.8-0.3,1.5-0.5,2.3
			c-0.1,0.8-0.3,1.6-0.3,2.4l-0.1,1.2v1.2c0,0.4,0,0.8,0,1.2s0,0.8,0,1.2c0.1,1.6,0.4,3.3,0.7,4.8c0.2,0.8,0.4,1.6,0.7,2.3
			c0.3,0.7,0.6,1.5,0.9,2.2c0.8,0.9,1.6,1.8,2.2,2.9c0.7,1,1.2,2.2,1.6,3.3c0.4,1.2,0.8,2.4,1,3.6s0.3,2.4,0.2,3.7c0,0,0,0,0,0.1
			l0,0c-0.6,2.4-0.9,4.8-1,7.2c-0.1,1.2-0.1,2.4,0,3.6c0.1,1.2,0.2,2.4,0.5,3.6l3.2,14.5l6.4,28.9c1.3,1.5,2.5,3.1,3.5,4.7
			c1.1,1.7,2,3.5,2.8,5.4c0.8,1.8,1.6,3.7,2.2,5.6c0.6,1.8,1.1,3.7,1.6,5.6l0.8,1l0,0c0.1,0.1,0.2,0.2,0.2,0.4
			c1.1,5.3,1.6,10.7,1.8,16.1c0.2,5.4,0.1,10.8-0.2,16.1c-0.3,5.4-0.8,10.7-1.3,16c-0.3,2.6-0.4,5.3-0.3,7.9c0,1.3,0.2,2.6,0.4,3.9
			c0.1,0.3,0.1,0.6,0.2,0.9c0.1,0.3,0.1,0.6,0.2,0.9c0.1,0.3,0.2,0.6,0.3,0.9c0.1,0.1,0.1,0.3,0.2,0.4c0.1,0.1,0.1,0.3,0.2,0.3v0.1
			c0.1,0.1,0.1,0.3,0.1,0.5l-0.6,9.6c0,0.3-0.2,0.5-0.4,0.7l0,0c-1.4,0.9-2.8,1.8-4,2.8c-0.6,0.5-1.2,1-1.8,1.6s-1.1,1.2-1.7,1.8
			c-1.2,1.2-2.6,2.3-3.9,3.3c-0.7,0.5-1.4,1-2.1,1.5s-1.4,1-2.2,1.4c-1.5,0.8-3.2,1.4-4.9,1.8c-1.7,0.4-3.4,0.6-5.1,0.6
			s-3.4-0.1-5.1-0.4c-0.8-0.1-1.7-0.3-2.5-0.5s-1.6-0.4-2.5-0.8c-0.2-0.1-0.4-0.2-0.5-0.5l0,0c-0.4-0.8-0.7-1.7-1-2.5
			c-0.2-0.4-0.3-0.9-0.4-1.3c-0.1-0.5-0.2-1-0.2-1.6c0.1-0.6,0.3-1.2,0.6-1.7l0.9-1c0.6-0.7,1.1-1.3,1.7-2c2.2-2.7,4.3-5.6,6.4-8.5
			c0.5-0.7,1-1.5,1.5-2.2l0.7-1.1c0.2-0.4,0.4-0.7,0.7-1.1c0.5-0.7,0.8-1.5,1.2-2.3l0.5-1.2c0.2-0.4,0.3-0.8,0.5-1.2
			c0.6-1.6,1-3.3,1.3-5s0.4-3.5,0.4-5.2s0-3.5-0.2-5.3c0-0.9-0.1-1.8-0.2-2.6c-0.1-0.9-0.1-1.8-0.3-2.6c-0.4-3.5-0.9-7-1.4-10.5
			c-0.9-5.8-1.9-11.5-2.9-17.2c-0.1,0.4-0.1,0.8-0.2,1.2c-0.1,0.9-0.2,1.7-0.3,2.6s-0.1,1.7-0.2,2.6c-0.2,3.4-0.3,6.9-0.3,10.3
			c0,1.7,0,3.5,0.1,5.2c0.1,1.7,0.2,3.4,0.4,5.1c0.6,3.4,1.4,6.8,2.3,10.1l0,0c0,0.1,0,0.2,0,0.3l-1.3,9.8c0,0.4-0.4,0.6-0.7,0.6
			c-1.3-0.1-2.7-0.2-4-0.2s-2.7,0-4,0s-2.7,0.1-4,0.2s-2.6,0.2-3.9,0.4l-3.8,1.2c-1.3,0.4-2.6,0.7-3.9,1.1c-2.6,0.6-5.3,1.2-8,1.5
			c-2.7,0.4-5.4,0.6-8.2,0.5c-0.7,0-1.4-0.1-2-0.1c-0.7-0.1-1.4-0.1-2-0.2l-1-0.2l-1-0.2c-0.7-0.2-1.3-0.3-2-0.6l0,0
			c-0.1,0-0.2-0.1-0.2-0.2l-0.7-1.3c-0.2-0.4-0.4-0.9-0.6-1.3c-0.3-0.9-0.7-1.9-0.7-2.9C126.5,420.1,126.6,419.1,127,418.1z"/>
	</g>
	<path class="st2" d="M138,330.3"/>
	<polygon class="st2" points="149.9,352.1 147.1,352.3 137.7,330.8 138,330.3 147.5,351.7 150.4,351.4 150.5,352 	"/>
	<path class="st2" d="M150.2,305.6c0.1,0,0.1,0,0.2,0l0.1,0.1l0,0l0,0c0.5,3,1.1,5.9,1.8,8.8c0.7,2.9,1.4,5.8,2.2,8.7
		c0.8,2.9,1.7,5.8,2.6,8.6c1,2.8,2.2,5.6,3.6,8.2c2.8,5.3,6.2,10.3,9.7,15.1c0.9,1.2,1.8,2.4,2.6,3.8c0.1,0.2,0.2,0.4,0.3,0.6
		c0,0.1,0.1,0.2,0.1,0.4c0,0.1,0,0.2,0,0.2v0.1c0,0.3,0.1,0.7,0.2,1c0.2,0.7,0.4,1.4,0.6,2c0.3,0.7,0.6,1.3,0.9,1.9
		c0.1,0.2,0.2,0.3,0.3,0.5c0.1,0.2,0.2,0.3,0.3,0.5c0.2,0.4,0.4,0.7,0.6,1.1c0.7,1.5,1.1,2.9,1.4,4.5l0,0c0.1,0.5-0.2,0.9-0.7,1
		s-0.9-0.2-1-0.7l0,0c-0.3-1.4-0.6-2.9-1.2-4.1c-0.1-0.3-0.3-0.6-0.5-0.9c-0.1-0.1-0.2-0.3-0.3-0.5c-0.1-0.2-0.2-0.3-0.3-0.5
		c-0.4-0.7-0.7-1.4-1-2.2c-0.3-0.7-0.5-1.5-0.6-2.3c-0.1-0.4-0.1-0.8-0.2-1.2v-0.1l0,0c0,0,0-0.1-0.1-0.2c0-0.1-0.1-0.3-0.2-0.4
		c-0.7-1.2-1.6-2.5-2.5-3.7c-3.5-4.9-6.8-10-9.5-15.4c-1.3-2.7-2.5-5.5-3.5-8.4c-0.9-2.9-1.7-5.8-2.4-8.7s-1.4-5.8-2.1-8.8
		c-0.6-2.9-1.2-5.9-1.6-8.9C150.3,305.7,150.2,305.6,150.2,305.6z"/>
</g>
</svg>
