<?xml version="1.0" encoding="utf-8"?>
<!-- Generator: Adobe Illustrator 23.1.1, SVG Export Plug-In . SVG Version: 6.00 Build 0)  -->
<svg version="1.1" id="Capa_1" xmlns="http://www.w3.org/2000/svg" xmlns:xlink="http://www.w3.org/1999/xlink" x="0px" y="0px"
	 viewBox="0 0 450 380" style="enable-background:new 0 0 450 380;" xml:space="preserve">
<style type="text/css">
	.st0{fill:#FFFFFF;}
	.st1{clip-path:url(#SVGID_2_);fill:#1DCE58;}
	.st2{fill:#1DCE58;}
</style>
<g>
	<g>
		<rect x="24" y="280" class="st0" width="401.6" height="0.8"/>
	</g>
	<g>
		<g>
			<defs>
				<path id="SVGID_1_" d="M399.4,118H265.3c-5.7,16.9-21.6,29.1-40.5,29.1c-18.8,0-34.8-12.2-40.5-29.1H49.2
					C26.8,151.4,13.7,191.7,13.7,235c0,27.7,3.4,35.9,5.1,44.7h410.8c2.1-10.1,5.3-17,5.3-44.7C434.9,191.7,421.9,151.4,399.4,118z"
					/>
			</defs>
			<clipPath id="SVGID_2_">
				<use xlink:href="#SVGID_1_"  style="overflow:visible;"/>
			</clipPath>
			<path class="st1" d="M517.9,246.4c0.1,0,0.2-0.1,0.2-0.2c0-0.1-0.1-0.2-0.2-0.2l-6.7-0.3l-17.4-6l13.2,1.2l10.8,3.2
				c0,0,0,0,0.1,0c0.1,0,0.2-0.1,0.2-0.1c0-0.1,0-0.2-0.1-0.3l-9.3-2.7l9.3,0.2c0,0,0,0,0,0c0.1,0,0.2-0.1,0.2-0.2
				c0-0.1-0.1-0.2-0.2-0.2l-10.8-0.2l-16.1-4.5l12.4,0.1l14.4,3.9c0,0,0,0,0.1,0c0.1,0,0.2-0.1,0.2-0.2c0-0.1,0-0.2-0.1-0.3
				l-195-53.1c0,0,0,0-0.1,0l-0.5,0l-5.6-6.9c0,0,0,0,0,0c0,0,0,0-0.1-0.1c0,0,0,0,0,0c0,0,0,0-0.1,0c0,0,0,0,0,0l-6.4,0.6
				c0,0,0,0,0,0c0,0,0,0,0,0c0,0-0.1,0-0.1,0c0,0,0,0,0,0c0,0,0,0,0,0c0,0,0,0,0,0c0,0,0,0,0,0l-5,5.6l-0.2,0.1l-8.5-7.8l-10.1-9.1
				c0,0,0,0,0,0c0,0,0,0-0.1,0c0,0,0,0,0,0c0,0-0.1,0-0.1,0c0,0,0,0,0,0c0,0,0,0,0,0l-3.4,0.9l-4.2,1.3c0,0,0-0.1,0-0.1l-1.3-2.5
				c0,0,0,0,0,0c0,0,0,0,0,0c0,0,0,0,0,0c0,0,0,0,0,0l-7-3.4c0,0,0,0,0,0l0,0c0,0,0,0,0,0l0,0c0,0,0,0,0,0c0,0,0,0,0,0c0,0,0,0,0,0
				c0,0,0,0,0,0c0,0,0,0,0,0c0,0,0,0,0,0c0,0,0,0,0,0c0,0,0,0,0,0c0,0,0,0,0,0c0,0,0,0,0,0c0,0,0,0,0,0l0,0c0,0,0,0,0,0l0,0
				l-5.7,4.3l-1.9,1.2l-0.6-0.4l-0.3-0.4l2.7-0.4c0.1,0,0.2-0.1,0.2-0.2c0-0.1-0.1-0.2-0.2-0.2l-2.9,0.5l-6.1-5.9l-0.7-0.8
				c0,0,0,0,0,0c0,0,0,0,0,0c0,0,0,0,0,0c0,0,0,0,0,0c0,0,0,0,0,0c0,0,0,0,0,0c0,0,0,0,0,0c0,0,0,0,0,0c0,0,0,0,0,0c0,0,0,0,0,0
				c0,0,0,0,0,0c0,0,0,0,0,0l-4.8,1.7l-5.6-1.2c0,0,0,0,0,0c0,0,0,0,0,0c0,0,0,0,0,0c0,0,0,0,0,0c0,0,0,0,0,0c0,0,0,0,0,0
				c0,0,0,0,0,0c0,0,0,0,0,0c0,0,0,0,0,0c0,0,0,0,0,0c0,0,0,0,0,0c0,0,0,0,0,0c0,0,0,0,0,0l0,0c0,0,0,0,0,0l-3.7,5l-5.7,0.6
				l-8.9-8.3c0,0,0,0,0,0c0,0,0,0,0,0c0,0,0,0,0,0c0,0,0,0,0,0c0,0,0,0,0,0c0,0,0,0,0,0c0,0,0,0,0,0c0,0,0,0,0,0c0,0,0,0,0,0
				c0,0,0,0,0,0c0,0,0,0,0,0c0,0,0,0,0,0c0,0,0,0,0,0c0,0,0,0,0,0l-4.6,4.1l-1.9-3.8c0,0,0,0,0,0c0,0,0,0,0,0c0,0,0,0,0,0
				c0,0,0,0,0,0c0,0,0,0,0,0c0,0,0,0,0,0c0,0,0,0,0,0c0,0,0,0,0,0c0,0,0,0,0,0c0,0,0,0,0,0c0,0,0,0,0,0c0,0,0,0,0,0c0,0,0,0,0,0
				c0,0,0,0,0,0c0,0,0,0,0,0c0,0,0,0,0,0c0,0,0,0,0,0c0,0,0,0,0,0c0,0,0,0,0,0.1c0,0,0,0,0,0l-4.4,6.8l-4.5,2.9l-8-1.1c0,0,0,0,0,0
				c0,0,0,0,0,0c0,0,0,0-0.1,0c0,0,0,0,0,0c0,0,0,0-0.1,0c0,0,0,0,0,0c0,0,0,0,0,0c0,0,0,0,0,0l-0.9,1.7l-2.5-1.5c0,0,0,0,0,0
				c0,0,0,0,0,0c0,0,0,0,0,0c0,0,0,0,0,0c0,0,0,0,0,0c0,0,0,0,0,0c0,0,0,0,0,0c0,0,0,0,0,0c0,0,0,0,0,0c0,0,0,0,0,0c0,0,0,0,0,0
				l-7,4.2l-8.3,3.3l-7.2-3.1c0,0,0,0,0,0c0,0,0,0,0,0c0,0-0.1,0-0.1,0c0,0,0,0,0,0l-7.2,1.8c0,0-0.1,0-0.1,0l-1.2,1l-10-8.1
				c0,0,0,0,0,0c0,0,0,0,0,0c0,0,0,0,0,0c0,0,0,0,0,0c0,0,0,0,0,0c0,0,0,0,0,0c0,0,0,0,0,0c0,0,0,0,0,0c0,0,0,0,0,0c0,0,0,0,0,0
				c0,0,0,0,0,0c0,0,0,0,0,0c0,0,0,0,0,0c0,0,0,0,0,0c0,0,0,0,0,0c0,0,0,0,0,0c0,0,0,0,0,0c0,0,0,0,0,0c0,0,0,0,0,0c0,0,0,0,0,0
				c0,0,0,0,0,0c0,0,0,0,0,0c0,0,0,0,0,0l-3,7.5l-3,0.8c0,0,0,0,0,0c0,0-0.1,0-0.1,0.1c0,0,0,0,0,0l-1,1.3l-0.1,0l-1.3-0.5
				c0,0,0,0,0,0c0,0,0,0,0,0c0,0-0.1,0-0.1,0l-3.9,2.6l-9.5,2.4l-8.2,1.4c0,0,0,0,0,0c0,0,0,0,0,0c0,0,0,0,0,0l-6.9,4.5l-7,1.9
				l-2.4,0c0,0,0,0,0,0c0,0,0,0,0,0c0,0,0,0,0,0c0,0,0,0,0,0l-2.1,1.2l-174.9,46.3c-0.1,0-0.2,0.1-0.1,0.3c0,0.1,0.1,0.2,0.2,0.2
				c0,0,0,0,0.1,0l13.1-3.5l12.2-0.2l-12.5,3.5l-3.9,1.1l-9.1,0.1c-0.1,0-0.2,0.1-0.2,0.2c0,0.1,0.1,0.2,0.2,0.2c0,0,0,0,0,0
				l7.5-0.1l-7.6,2.1c-0.1,0-0.2,0.1-0.1,0.3c0,0.1,0.1,0.2,0.2,0.2c0,0,0,0,0.1,0l9.1-2.5l13-0.6l-17.7,5.1l-4.5,0.2
				c-0.1,0-0.2,0.1-0.2,0.2c0,0.1,0.1,0.2,0.2,0.2l2.8-0.1l-2.9,0.9c-0.1,0-0.2,0.1-0.1,0.3c0,0.1,0.1,0.1,0.2,0.1c0,0,0,0,0.1,0
				l4.5-1.3l14.4,0.3l-19,5.3c-0.1,0-0.2,0.1-0.1,0.3c0,0,0,0,0,0.1c0,0-0.1,0.1-0.1,0.1c0,0.1,0.1,0.2,0.2,0.2l14.8,0.3l-14.8,3.9
				c-0.1,0-0.2,0.1-0.1,0.3c0,0.1,0.1,0.2,0.2,0.2c0,0,0,0,0.1,0l16.2-4.3l15.5,0.3l-20.5,5.3l-11.3,0.1c-0.1,0-0.2,0.1-0.2,0.2
				c0,0.1,0.1,0.2,0.2,0.2c0,0,0,0,0,0l10.1-0.1l-10.1,3.4c-0.1,0-0.2,0.2-0.1,0.3c0,0.1,0.1,0.1,0.2,0.1c0,0,0,0,0.1,0l11.3-3.8
				l17.3-0.9l-23,9.9l-5.7-0.2c-0.1,0-0.2,0.1-0.2,0.2c0,0.1,0.1,0.2,0.2,0.2l4.7,0.2l-4.8,1.9c-0.1,0-0.2,0.2-0.1,0.3
				c0,0.1,0.1,0.1,0.2,0.1c0,0,0.1,0,0.1,0l5.7-2.2l18.9-0.8l-24.7,9.4c-0.1,0-0.2,0.2-0.1,0.3c0,0.1,0.1,0.1,0.2,0.1
				c-0.1,0-0.2,0.1-0.2,0.2c0,0.1,0.1,0.2,0.2,0.2c0,0,0,0,0,0l20.2-0.6L-68,287.3c-0.1,0.1-0.1,0.2-0.1,0.3c0,0.1,0.1,0.1,0.2,0.1
				c0,0,0.1,0,0.1,0l21-11.5l21.3-0.8l-27.1,15.2l-15.3,1.1c-0.1,0-0.2,0.1-0.2,0.2c0,0.1,0.1,0.2,0.2,0.2c0,0,0,0,0,0l14.4-1
				l-14.5,7.9c-0.1,0.1-0.1,0.2-0.1,0.3c0,0.1,0.1,0.1,0.2,0.1c0,0,0.1,0,0.1,0l15.3-8.3l23.7-1.6l-31.1,18.7l-8.1,0.4
				c-0.1,0-0.2,0.1-0.2,0.2c0,0.1,0.1,0.2,0.2,0.2c0,0,0,0,0,0l7.3-0.3l-7.4,4.2c-0.1,0.1-0.1,0.2-0.1,0.3c0,0.1,0.1,0.1,0.2,0.1
				c0,0,0.1,0,0.1,0l8.1-4.6l27.1,0.4l-18.5,11.3c-0.1,0.1-0.1,0.2-0.1,0.3c0,0.1,0.1,0.1,0.2,0.1c0,0,0.1,0,0.1,0l19.1-11.6l27-1.3
				l-17.5,12.6c-0.1,0.1-0.1,0.2,0,0.3c0,0.1,0.1,0.1,0.2,0.1c0,0,0.1,0,0.1,0l18-12.9l27.2-0.2L7.8,320.2c-0.1,0.1-0.1,0.2,0,0.3
				c0,0,0.1,0.1,0.2,0.1c0,0,0.1,0,0.1,0l15.8-13.1l27.4,0.7l-12.8,12.1c-0.1,0.1-0.1,0.2,0,0.3c0,0,0.1,0.1,0.2,0.1
				c0.1,0,0.1,0,0.1-0.1l13.1-12.4l27.4-0.5l-11.1,12.6c-0.1,0.1-0.1,0.2,0,0.3c0,0,0.1,0.1,0.1,0.1c0.1,0,0.1,0,0.2-0.1l11.3-12.9
				l27.4-0.4L98,320.3c-0.1,0.1,0,0.2,0.1,0.3c0.1,0.1,0.2,0,0.3-0.1l9.4-13.3l27.5,0.1l-7.1,13.1c-0.1,0.1,0,0.2,0.1,0.3
				c0,0,0.1,0,0.1,0c0.1,0,0.1,0,0.2-0.1l7.2-13.3l27.6-0.9l-5.1,14c0,0.1,0,0.2,0.1,0.3c0,0,0,0,0.1,0c0.1,0,0.2-0.1,0.2-0.1
				l5.2-14.2l27.6,1.4l-2.8,12.7c0,0.1,0,0.2,0.2,0.2c0,0,0,0,0,0c0.1,0,0.2-0.1,0.2-0.2l2.8-12.7l27.6,0.1l-0.6,12.6
				c0,0.1,0.1,0.2,0.2,0.2c0,0,0,0,0,0c0.1,0,0.2-0.1,0.2-0.2l0.6-12.6l27.7-1.3l1.6,13.9c0,0.1,0.1,0.2,0.2,0.2c0,0,0,0,0,0
				c0.1,0,0.2-0.1,0.2-0.2l-1.6-13.9l27.7-0.6l3.9,14.6c0,0.1,0.1,0.2,0.2,0.2c0,0,0,0,0.1,0c0.1,0,0.2-0.1,0.1-0.3l-3.9-14.5
				l27.7,0.4l5.9,14.2c0,0.1,0.1,0.1,0.2,0.1c0,0,0.1,0,0.1,0c0.1,0,0.2-0.2,0.1-0.3l-5.9-14l27.6,1l7.8,13.2c0,0.1,0.1,0.1,0.2,0.1
				c0,0,0.1,0,0.1,0c0.1-0.1,0.1-0.2,0.1-0.3l-7.7-13l27.6,1.5l9.4,11.7c0.1,0.1,0.2,0.1,0.3,0c0.1-0.1,0.1-0.2,0-0.3l-9.2-11.5
				l27.6,0.2l11.3,11.5c0,0,0.1,0.1,0.1,0.1c0.1,0,0.1,0,0.1-0.1c0.1-0.1,0.1-0.2,0-0.3l-11-11.3l27.7-1.4l14.1,12.9
				c0,0,0.1,0.1,0.1,0.1c0.1,0,0.1,0,0.2-0.1c0.1-0.1,0.1-0.2,0-0.3l-13.8-12.6l27.5,0.6l15.8,12.3c0.1,0.1,0.2,0.1,0.3,0
				c0.1-0.1,0.1-0.2,0-0.3l-15.3-11.9l27.3,2l16,10.3c0,0,0.1,0,0.1,0c0.1,0,0.1,0,0.2-0.1c0.1-0.1,0-0.2-0.1-0.3l-15.4-9.9
				l27.3,0.8l16.9,9.5c0,0,0.1,0,0.1,0c0.1,0,0.1,0,0.2-0.1c0.1-0.1,0-0.2-0.1-0.3l-16.3-9.1l16.4-0.7c0.1,0,0.2-0.1,0.2-0.2
				c0-0.1-0.1-0.2-0.2-0.2l-17.1,0.8l-30-18l24.5-2l22.5,12.8c0.1,0.1,0.2,0,0.3-0.1c0.1-0.1,0-0.2-0.1-0.3l-21.9-12.4l21.8,0.1h0
				c0.1,0,0.2-0.1,0.2-0.2c0-0.1-0.1-0.2-0.2-0.2l-22.5-0.1l-26.1-15.7l21.6,1.4l26.9,13.5c0,0,0.1,0,0.1,0c0.1,0,0.1,0,0.2-0.1
				c0.1-0.1,0-0.2-0.1-0.3l-26.2-13.1l21.6,0.1l4.4,2.1c0,0,0.1,0,0.1,0c0.1,0,0.2,0,0.2-0.1c0-0.1,0-0.2-0.1-0.3l-3.4-1.6l3.3,0.3
				c0.1,0,0.2-0.1,0.2-0.2c0-0.1-0.1-0.2-0.2-0.2l-4.4-0.4l-25.3-11l19.6-0.6l10.1,5c0,0,0.1,0,0.1,0c0.1,0,0.2,0,0.2-0.1
				c0.1-0.1,0-0.2-0.1-0.3l-9.1-4.5l8.9,1c0,0,0,0,0,0c0.1,0,0.2-0.1,0.2-0.2c0-0.1-0.1-0.2-0.2-0.2l-10.1-1.1l-21.9-8.4l16.8,2.3
				l15.1,5.2c0.1,0,0.2,0,0.3-0.1c0-0.1,0-0.2-0.1-0.3l-13.8-4.7l13.7,0.4c0,0,0,0,0,0c0.1,0,0.2-0.1,0.2-0.2c0-0.1-0.1-0.2-0.2-0.2
				l-15-0.5l-19.9-9.6l15.7,2.6l19.1,6.7c0,0,0,0,0.1,0c0.1,0,0.2-0.1,0.2-0.1c0-0.1,0-0.2-0.1-0.3l-17.6-6.2l15.6,1.2l1.9,0.7
				c0,0,0,0,0.1,0c0.1,0,0.2-0.1,0.2-0.1c0-0.1,0-0.2-0.1-0.3l-0.4-0.2l0.3,0c0,0,0,0,0,0c0.1,0,0.2-0.1,0.2-0.2
				c0-0.1-0.1-0.2-0.2-0.2L516,251l-19-6l14.2,1.1l6.7,2.2c0,0,0,0,0.1,0c0.1,0,0.2-0.1,0.2-0.1c0-0.1,0-0.2-0.1-0.3l-5.3-1.7
				L517.9,246.4C517.9,246.4,517.9,246.4,517.9,246.4z M295.6,286.7l24.6-1.1l11.4,21.3l-27.6-1L295.6,286.7z M115,191.6l-1.9,1.2
				l-7.6,2l1-0.8l1-1.1l1.8-1.4L115,191.6z M122,187.5l-2.6,2l-1.5,0.8l-0.7,0.3L122,187.5z M144,181L144,181
				C143.9,181,143.9,181,144,181C143.9,181,143.9,181,144,181l-11.2,10.9l-3.4-0.6l1-3.7l8.5-3.1l1.2-0.8L144,181z M148.2,179.1
				L148.2,179.1l-2.9,1.3l2-1.7L148.2,179.1z M153.5,184.2l6.4,5.5l-3.1,3.2l-11-7.3l3.6-4.9L153.5,184.2z M167.2,178.6l-3.4-1.5
				l-5.3-5.6L167.2,178.6z M174.8,174.8l6.9,3l-1.3,7.2l-4.6-2l-2.4-0.9L174.8,174.8z M201.1,170l7.7,1.1l-0.3,5.8l-1.3,1.5
				l-4.2-3.4c0,0,0,0,0,0c0,0,0,0,0,0c0,0,0,0,0,0c0,0,0,0,0,0c0,0,0,0,0,0c0,0,0,0,0,0c0,0,0,0,0,0c0,0,0,0,0,0c0,0,0,0,0,0
				c0,0,0,0,0,0c0,0,0,0,0,0c0,0,0,0,0,0c0,0,0,0,0,0c0,0,0,0,0,0c0,0,0,0,0,0c0,0,0,0,0,0l-4.5,3.4l-1.3-0.5L201.1,170z
				 M215.1,167.2l-1.9,4.3l-4.2,4.9l0.3-5.4L215.1,167.2z M223.3,162.5l-4.6,6L216,169L223.3,162.5z M243.4,163.9l0.6,2.4l-9.4,15.8
				l0,0l-0.3-5.8l5.6-7.6L243.4,163.9z M253.9,163.2l1.1,7l-9.9,2.2l-0.7-5.9L253.9,163.2z M316.5,180l3.7,11.1l-9.5-10.6L316.5,180
				z M330.4,189l-3.7,0l-0.9-0.2l3.7,0L330.4,189z M295.5,286.3l-6.6-19.3l21.9,8.3l9.1,9.8L295.5,286.3z M23,217.4l8.5-0.6
				l-7.7,2.2l-9,0.7L23,217.4z M32.3,214.8l8.1-0.8l-6.9,2.3l-8.5,0.6L32.3,214.8z M106.1,193.4l0.4-0.2l0.2,0l-0.5,0.6l-1.5,1.4
				l-2.9,1.2l-0.3,0.1l0.4-0.4l1.4-0.9l0.6-0.2c0,0,0,0,0,0l1.2-0.9L106.1,193.4z M116.2,191.5l2-0.8l3.1-1.6l-1.5,3.5l-2,1.4
				l-0.1,0c0,0,0,0,0,0c0,0,0,0,0,0l-1.1,0.3l-3.6,0.4l-0.6,0.1l1.1-1.6L116.2,191.5C116.1,191.5,116.2,191.5,116.2,191.5z
				 M134.4,192.2l-1.1-0.2l10.1-9.8l-2.4,4.7L134.4,192.2z M160.3,189.9l10.4,4.6l-2.6,7.9l-10.9-9.3L160.3,189.9z M182,186.2
				l-2.6,1.9l-3.1-4.3L182,186.2z M179.1,188.3l-4.1,2.9l0.9-7.4L179.1,188.3z M182.9,186.1l-1.1,1.8l-0.5,1L181,189l-7.7,3.9
				L182.9,186.1z M189,179.9l-3-1l3.9-3.9L189,179.9z M189.4,180.3l0.2-0.1l-0.2,0.2L189.4,180.3z M193.8,177.3l4,1.5l-7.5,5.7
				c0,0,0,0,0,0c0,0,0,0,0,0l-10.5,10.1l2-5.5c0-0.1,0-0.2,0-0.2l0.4-0.8l1.7-2.6L193.8,177.3z M215.1,169.9l-0.3,5.4l-1.8-1.2
				c0,0,0,0,0,0c0,0,0,0,0,0c0,0,0,0,0,0c0,0,0,0,0,0c0,0,0,0,0,0c0,0,0,0,0,0c0,0,0,0,0,0c0,0,0,0,0,0c0,0,0,0,0,0c0,0,0,0,0,0
				c0,0,0,0,0,0c0,0,0,0,0,0c0,0,0,0,0,0c0,0,0,0,0,0l-4.3,3.5L215.1,169.9z M244.1,167l0.7,5.6l-9.4,9.1L244.1,167z M265.3,171.4
				l1.7,5.1l-10.4,9l-1.2-14.9L265.3,171.4z M276.7,169l0.6,2.4l-1.6,0.4l-10.1-0.8c0,0-0.1,0-0.2,0c0,0,0,0,0,0l-2.1-0.2l6.6-5.2
				l2.3,2.8c0,0,0.1,0.1,0.1,0.1L276.7,169z M316.4,195.4l5.3,7.6l-13.7,1.9l-4.5-8.6L316.4,195.4z M332,192.5
				C332,192.5,332,192.5,332,192.5C332,192.5,332,192.5,332,192.5l-0.3,0l1.4-0.1l1.3,0.3l0.7,0.2l1.6,0.5l2.5,2.2
				c0,0,0.1,0.1,0.2,0l5.9-0.5l4.1,4.1l-0.4-0.1l-3-1.6c0,0,0,0-0.1,0c0,0,0,0,0,0c0,0,0,0,0,0l-4.5-0.7l-4.8-2.1c0,0,0,0,0,0
				L332,192.5z M329.1,190.1l0.9,0.2l-3.8-0.1l-0.7-0.2L329.1,190.1z M328.7,190.8l-0.6-0.1l3.6,0.1l0,0l0.8,0.2L328.7,190.8z
				 M334.3,191.5l1.1,0.3l-4-0.2l-1.1-0.4L334.3,191.5z M344.9,194.1l3.1,1.4l6,1.1l4.4,3.6l-8.2-0.9l-4.6-4.6c0,0-0.1-0.1-0.2-0.1
				l-5.9,0.5l-2-1.7L344.9,194.1z M288.7,266.5l-5.4-11.1l19.8,5.4l7.3,13.9L288.7,266.5z M50.4,211.2L51,211l6.6-1.3l-5.2,2.4
				l-0.1,0l-7.9,1L50.4,211.2L50.4,211.2z M122.6,191l-4.9,10l-10.5,5.7l-0.2,0.1l5.4-8.5l5.5-3.9c0,0,0,0,0,0L122.6,191z
				 M134.4,202l-9.4,3l-5.7-1.1L134.4,202z M173.9,210.9l-3,7.8l-12.9-5.9l3.6-7.8L173.9,210.9z M171.1,194.5l10.1-5.1l-2.1,5.8
				l-10.5,7L171.1,194.5z M212.6,174.8l-0.6,3.5l-11.3,12.9l1.2-7.8L212.6,174.8z M219.1,178.8l-6.7-0.6l0.7-3.5L219.1,178.8z
				 M234.2,182.3C234.2,182.3,234.2,182.3,234.2,182.3l0.3,0.3l0.3,1.1l-5.8,0.8l-2-2.3l-2.3-2.5l-0.4-0.5c0,0,0,0-0.1-0.1
				c0,0,0,0,0,0c0,0,0,0-0.1,0c0,0,0,0,0,0l-4.1-0.4l-0.1-0.1l4.6-6L234.2,182.3z M244.8,173.1l0.8,12.1l-10.3-1.5l-0.3-1.1
				L244.8,173.1z M277.6,171.8l-0.3,0.2l-9.8,4.3l-1.6-4.8l9.9,0.8c0,0,0,0,0.1,0L277.6,171.8z M267.2,177l1.8,5.7l-11,8l-1.3-4.7
				L267.2,177z M280.5,177l2.6,8.8l-11.6,8.7l-2-11.5L280.5,177z M279.6,199.1l3.2,20.3l-14.6,3.6l-2.4-19.9l7.4-2.1c0,0,0,0,0,0
				c0,0,0,0,0,0L279.6,199.1z M289.8,197l3.5,7.2l-9.1-3.7L289.8,197z M321.9,203.4l5.8,16l-14.4-5.4l-5.1-8.7L321.9,203.4z
				 M346.2,201.7l-3.8-4.2l1.7,0.8l7,3.3c0,0,0,0,0,0c0,0,0,0,0,0l4.1,1.5l-4.6-0.4L346.2,201.7z M380,205.5l5.6,1.4l4.3,1.6
				l-6.8-1.3l-4.2-1.9L380,205.5z M283.1,254.9l-4.5-14.7l18.2,3.1l6.1,17.1L283.1,254.9z M85,202l-0.6,0.5l-5.5,5.6l-10-0.6L85,202
				z M105.2,207.3L95,207.7l6.2-7.5l10.6-1.7l-5.4,8.5L105.2,207.3z M178,206.1l8.7-11.7l-9,15.7l-3.1,0.5l0,0L178,206.1z
				 M219.2,178.4l2.7-2.8l-2.4,3.1L219.2,178.4z M223.9,179.7l0.3,0.4l1.6,2.4l2.2,3.2l7.2,6.4l0.2,1.9l-11.7-2.4c0,0-0.1,0-0.1,0
				c0,0-0.1-0.1-0.1-0.1c-0.1,0-0.2,0.1-0.2,0.2l0,0.2l-3.1,3.3l-8.5,1.3l0.8-18.1L223.9,179.7z M245.6,185.7l0.9,8l-10.8-1.9
				l-0.4-7.7L245.6,185.7z M269.1,183.1l2,11.5l-11.5,1.3l-1.5-4.7L269.1,183.1z M328,219.9l6.1,6.2l-14.5-8.5c0,0,0,0,0,0l-4.2-2.5
				L328,219.9z M360.8,209.6l-0.8-1l0.2,0.2l3.5,2.9L360.8,209.6z M353.1,201.6L353.1,201.6C353.1,201.6,353.1,201.6,353.1,201.6
				l7.1-0.2l0.7,0l5.2,3.7l-9.2-1.8l-4.6-1.7L353.1,201.6z M375.4,204.4l1.4,0.3l0.6,0.2l0.5,0.3l2.7,1.3l-6.6-1.9l-1.1-0.6
				L375.4,204.4L375.4,204.4z M383,207.6L383,207.6l5.4,2.1l-3.6-0.3c0,0,0,0,0,0l-0.5-0.1l0,0l-5.3-1.1l-4.1-2.9L383,207.6z
				 M405.5,213.7l7.7,2.7l-9.8-0.3l-7.3-3.7l1.4,0.2L405.5,213.7z M405.7,226.5C405.7,226.5,405.7,226.5,405.7,226.5l-2.7-0.6
				c0,0,0,0,0,0l0,0c0,0,0,0,0,0c0,0,0,0,0,0c0,0,0,0,0,0l-0.8,0l-3.5-2.2l12-2.1l10.2,4l-7.4,2.3L405.7,226.5z M278.5,239.8
				l-3.7-6.4l16.8,0.8l5.1,8.7L278.5,239.8z M46.9,216.8L42,219l-5.1,2l-10.1,1.2l9.5-4.9L46.9,216.8z M83.8,212.8l1.8-0.8l-2.6,1.3
				l-1.8,0.7L83.8,212.8z M73.8,224l-13.6,4.5l9.4-7.9l0.2-0.1l0,0c0,0,0,0,0,0l12.8-6.3L73.8,224z M67.5,212.3l-5.1,1.3l-8.1,1.4
				l5.3-1.6L67.5,212.3z M75,216.6L75,216.6l6.2-2.2l-11.6,5.7l-0.5,0l-2.4-0.7L75,216.6L75,216.6C75,216.6,75,216.6,75,216.6z
				 M67.9,220.2l-8.3,0.7l6.4-1.3L67.9,220.2z M65.9,219.3l-12.3,0.6l8.9-5.8l11.7,2.4L65.9,219.3z M49.5,216.7l0.7-0.4l0.9-0.3
				l10.4-1.8l-8.7,5.7l-11.9,3.6L49.5,216.7z M52.9,220.3l10.3-0.5l-7.4,1.5l0,0c0,0,0,0,0,0l0,0L44.1,225L52.9,220.3z M55.8,221.7
				l13.2-1.2l-9.8,8.2l-14,1.4L55.8,221.7z M74.9,216.1l-11.5-2.3l7.8-2l10.1,1.6L74.9,216.1z M71.1,211.4l-10.8,1.5l7.5-5.1
				l10.2,0.6L71.1,211.4z M25.8,222.6l10.5-1.2l-9.4,3.3l-11,2.3L25.8,222.6z M38.1,221.2l10.3-4.2l-8.6,6.8l-11.5,0.8L38.1,221.2z
				 M40,224.2l10.9-3.3l-8.9,4.7l0,0l-11.5,4.7L40,224.2z M42.1,226l12.7-4l-10.4,8.3l-13.5,4.4L42.1,226z M44.5,230.7l14-1.4
				L47.3,238l-15,2.1L44.5,230.7z M59.4,229.2l14.1-4.6l-8.2,11.7l-5.3,2.6l-12-0.8L59.4,229.2z M83.5,213.7l13.3-3.6l-8.1,12.7
				l-14.2,1.2L83.5,213.7z M88.9,223.1L88.9,223.1C88.9,223.1,88.9,223.1,88.9,223.1l14-8.3l-8.1,14l-15.1,0.8L88.9,223.1z
				 M124.7,211.3l-6.3,4.3l-14.3-1.5l7.1-4L124.7,211.3z M131.3,206.7l4.1,1.4l-9.2,2.5L131.3,206.7z M171.2,219.3l12.7-0.3
				l-2.5,10.6l-13.5,1.7L171.2,219.3z M186.3,208.9l-8.1,1.3l10-17.4L186.3,208.9z M186.7,209.3l12.1,4.5l-0.8,5.1l-2.7,2.8
				l-1.5,0.9l-9.4-3.9L186.7,209.3z M223.7,192.1l13.6,2.8l0.7,9.4l-14.6,4.3l0.2-16.3L223.7,192.1z M246.5,194.1l0.4,4.6l-1.1,0.5
				l-8.2-4.6c0,0,0,0,0,0c0,0,0,0,0,0c0,0,0,0,0,0l-1.7-0.4l-0.2-1.9L246.5,194.1z M248.8,198.4l7.3,4.2l-4.5-0.1l-5.4-3.1l1-0.4
				c0,0,0,0,0,0L248.8,198.4z M257,202.6l-3.6-2.1l6-4.1l1.2,6.2L257,202.6z M253,200.3l-3.6-2l9.1-1.7L253,200.3z M267.9,223.4
				l2.2,2.9l-5.1-3.5l-4-3L267.9,223.4z M335.2,227.2l8,5.8l-16.8,3.5l-6.6-18.2L335.2,227.2L335.2,227.2z M319.3,218.1l6.7,18.5
				l-16.9,1.2l-5.5-18.8L319.3,218.1z M303.2,219.1l5.5,18.6l-16.8-3.9l-4.5-6.2L303.2,219.1z M287,227.7l4.3,6l-16.7-0.8l-3.2-5.5
				L287,227.7z M118,216l-7.4,7.3l-15.2,5.4l8.2-14.2L118,216z M143.2,210.4l1.2,0.9l8.7,6.3l-4.6,12.1l-14.8-12.4l5.6-9.6
				L143.2,210.4z M181.3,230l-2.9,10.3l-14.4-1.3l3.8-7.3L181.3,230z M193.4,222.8l-11.5,6.6l2.5-10.3L193.4,222.8z M250.9,202.6
				l-12.5,1.6l-0.6-9.1L250.9,202.6z M238,204.7l0.7,11.9l-15.6-1.5l0.3-6.1L238,204.7z M222.7,215.1l-15.5,15.1l1.3-11l14.5-10
				L222.7,215.1z M178.1,240.7l-3.1,3.5l-12.1-4.4l0.8-0.4L178.1,240.7z M178.7,240.7l14.3-9.5l-2.2,7l-15,5.8L178.7,240.7z
				 M193.5,230.8l14.4-11.2l-1.3,11.1l-15.4,7.3L193.5,230.8z M208,219l-14.3,11.2l1.9-8.2l13.5-13.4L208,219z M210.6,206.2l0.3-0.3
				l-0.4,0.5L210.6,206.2z M208.1,209l-2.4,2.4l2.9-3L208.1,209z M193.2,230.6l-14.3,9.5l2.8-10.2l12.2-7c0,0,0,0,0,0l1.2-0.7
				L193.2,230.6z M162.3,239.7l-8.7-3.2c0,0,0,0,0,0c0,0,0,0,0,0c0,0,0,0,0,0l-0.1,0l-10.5-9c0,0,0,0,0,0c0,0,0,0,0,0l0,0
				c0,0-0.1,0-0.1,0l-15.6-0.8l6.3-9.1l15,12.5c0,0,0,0,0,0l0,0l14.7,9.1L162.3,239.7z M126.7,226.6l-15.6-3.2l7.4-7.3l14.5,1.3
				L126.7,226.6z M95,229.3l15.3-5.4l-7.2,15.8l-3.3,1.8l-14.5-3.6L95,229.3z M103.3,239.9C103.4,239.9,103.4,239.9,103.3,239.9
				l7.5-16.2l15.4,3.2l-7.3,4.1c0,0,0,0,0,0c0,0,0,0,0,0L102,242l-7.9,2.9L103.3,239.9z M126.8,227l15.5,0.8l-6.1,6.5l-16.6-3.3
				L126.8,227z M142.8,227.9l9.9,8.4l-16-2L142.8,227.9z M162.3,240.1l10.3,3.7l-11.6-2.2l-5.9-4.2L162.3,240.1z M174.6,244.6
				l-3.7,4.1l-9.2-6.5L174.6,244.6z M175.2,244.7l15.4-6l-2.6,7.5l-16.5,2.5L175.2,244.7z M191.1,238.5l15.1-7.1l-1,1.3l-16.6,13.1
				L191.1,238.5z M207,231l15.6-15.2l-0.3,24.5l-16.7-7.5L207,231z M223.1,215.4l15.7,1.5l0.9,15.7l-16.9,7.6L223.1,215.4z
				 M239.2,216.6l-0.7-12l13-1.7l3.4,13.1L239.2,216.6z M223,208.7l-14.5,10l1.1-10.6l4.4-5l6.4-7.4l2.8-3L223,208.7z M213.6,202.8
				l-2.9,2.8l0.8-8.5l8.1-1.3L213.6,202.8z M210.2,206l-11.8,12.4l0.7-4.6l11.9-16.1L210.2,206z M163.6,239l-14.7-9.1l4.6-12
				l13.9,13.8L163.6,239z M153.4,217.2l-8-5.8l12,1.8L153.4,217.2z M133.3,217l-14.3-1.3l6.3-4.3l10.8-3c0,0,0,0,0,0l2.6-0.7
				L133.3,217z M62.2,245.2l-10.7-1.7l12-4l14.8-8.9l-8.1,11.9L62.2,245.2z M79.1,230.1l15.2-0.8l-9.6,8.4l-13.8,4.6L79.1,230.1z
				 M72.9,250.2L56,248l11.9-1.5c0,0,0,0,0.1,0l15.8-7.9L72.9,250.2z M84.8,238.1l14.4,3.6l-7.7,4.2l0,0l-17.8,4.1L84.8,238.1z
				 M102.2,242.4l16.1-10.5l-8.3,13.9l-17.4,0.1L102.2,242.4z M119.1,231.4l16.8,3.3l-7.3,9.1l-18.1,1.9L119.1,231.4z M136.4,234.8
				l16.9,2.1l-5.9,10.5l-18.3-3.5L136.4,234.8z M153.6,237l16.9,12l-4.4,2.2l-18.4-3.7L153.6,237z M171,249.2l16.7-2.5l-3,4.9
				l-17.7-0.4L171,249.2z M188.3,246.5l16.7-13.2l-1.7,10.3l-17.9,7.7L188.3,246.5z M205.4,233.1l16.9,7.5l-0.4,5.5l-18.3-2.6
				L205.4,233.1z M222.8,240.7l16.9-7.6l1,3.5l-18.3,9.5L222.8,240.7z M240,232.4l-0.8-15.4l15.8-0.6l2,3.3L240,232.4z M257.4,219.6
				l-1.7-2.8l3.1,1.9l6.1,4.5l6.1,4.2l2.9,5L257.4,219.6z M297.2,242.9l-5.1-8.6l16.7,3.9l6.3,4L297.2,242.9z M315.9,242.2l-6.3-4
				l16.6-1.2l7.7,4.7L315.9,242.2z M334.7,241.7l-7.9-4.8l16.8-3.5l9.3,6.2L334.7,241.7z M353.6,239.5l-8.9-6l16.1,3.6l10.2,11.5
				L353.6,239.5z M372,249.2l-10.3-11.7l16.1,7.6l11.7,8.9L372,249.2z M370.2,216.2l10.8-4.9l7.6,6l-11.1,3.9l-0.4-0.2L370.2,216.2z
				 M394.8,212.2l6,3l-8.5-2.7l0,0l-5.3-2.2L394.8,212.2z M378,221.5L378,221.5l11-3.9l8.2,5.8l-11.7-0.6L378,221.5z M392.1,212.9
				l7.9,4.8l-10.9-0.6l-7.3-5.8L392.1,212.9z M398,223.4l-8.3-5.9l11,0.6l8.9,3.2L398,223.4z M410.6,221.3l-8.5-3.1l10.5,0.2
				l9.1,3.9L410.6,221.3z M400.9,217.7l-7.1-4.3l9.4,3l7.1,1.5L400.9,217.7z M384.3,209.7l6.2,2.5l-9.4-1.4l-5.6-1.8L384.3,209.7z
				 M378.8,222l6.7,1.2l12.4,0.7l3.4,2.1l-13.5,0.8l-8.3-4.4L378.8,222z M398.5,238.6l-15.2-3.5l-9.7-13.2l14.1,5.4L398.5,238.6z
				 M383.1,235.4l11.4,11.7l-16.5-2.3l-10.1-14.6L383.1,235.4z M378.6,245.3l16.4,2.3l13.3,6.3l-17.8,0.5L378.6,245.3z M395.1,247.1
				l-11.3-11.5l15.2,3.5l12.7,6.3L395.1,247.1z M388.3,227.3l14.5-0.9l12,9.4l-15.6,3L388.3,227.3z M421.4,225.5l-9.5-3.7l10.9,1
				l10.1,3.8L421.4,225.5z M423,222.4l-7.8-3.3l9,2.3l0,0l8.2,3.1L423,222.4z M412.7,218l-7-1.4l8.7,0.3l7.7,3.6L412.7,218z
				 M395,211.9l-7.3-1.8l2.2,0.2l5.3,1.6L395,211.9z M378.9,208.6l2.3,0.5l-7.5-0.6l-4.8-2.4l8.2,2L378.9,208.6z M366.9,205.7l6.2,3
				l-8.8,3l-3.8-3.1l-3.2-4.8L366.9,205.7z M364.4,212.1l9.3-3.1l6.8,2.1l-10.7,4.8L364.4,212.1
				C364.3,212.1,364.4,212.1,364.4,212.1z M377.5,221.8l0.1,0.1l0.9,0.4l0.5,0.3c0,0,0,0,0,0l0,0l5.7,3l-11.5-4.4l-5.7-2.5l9.6,3.1
				L377.5,221.8z M373,221.6l9.7,13.2l-15.2-5.2l-8.9-7L373,221.6z M367.3,230l10,14.4l-16.3-7.7l-9.1-4.1L367.3,230z M351.1,232.8
				l7.8,3.5l-15.2-3.4l-7.2-5.2L351.1,232.8z M313.1,214.4l5.6,3.3l-15.3,0.9l-4.7-7.2L313.1,214.4z M298.2,211.4l4.8,7.3l-15.8,8.5
				l-3.8-7.6L298.2,211.4z M283,219.8l3.7,7.5l-15.6-0.3l-2.7-3.6L283,219.8z M259,218.3l-3.7-2.3l-3.4-13.2l5.1,0.1c0,0,0,0,0,0
				s0,0,0,0l3.9,0.1c0,0,0,0,0,0c0,0,0,0,0,0l4.7,0.1l2.3,19.8L259,218.3z M265.6,202.7l-4.6-0.1l-1.2-6.4l11.5-1.2l1.7,5.6
				L265.6,202.7z M257.8,191.3l1.5,4.6l-10.4,2c0,0,0,0,0,0l0,0l-1.4,0.6l-0.4-4.4L257.8,191.3z M234.9,184.2l0.3,7.3l-5.9-6.5
				L234.9,184.2z M228.7,185l3.9,4.3l-4.3-3.9l-2.2-3.2l-0.2-0.3l0.7,0.7L228.7,185z M211.2,196.8L199.2,213l1.3-21l11.4-13
				L211.2,196.8z M198.8,213.4l-12.1-4.5l2-17l11.4,0.2L198.8,213.4z M174.3,211.1L174.3,211.1l0.4,0l11.6-1.8l-2.2,9.3l-12.7,0.3
				L174.3,211.1z M167.5,231.1l-13.8-13.7l4.1-4.2l13,5.9L167.5,231.1z M144.6,210.9l-4.2-3l14.7,4.5L144.6,210.9z M139.3,207.1
				C139.3,207.1,139.3,207.1,139.3,207.1C139.2,207.1,139.2,207.1,139.3,207.1C139.2,207.1,139.2,207.1,139.3,207.1
				C139.2,207.1,139.2,207.1,139.3,207.1C139.2,207.1,139.2,207.1,139.3,207.1c-0.1,0-0.1,0-0.1,0c0,0,0,0,0,0c0,0,0,0,0,0l-3,0.8
				l-4.5-1.5l5-4.7l12.1,3.7l-3,3.7L139.3,207.1z M131.2,206.3l-5.4-1.1l9.9-3.2L131.2,206.3z M130.8,206.6l-5.6,4.3l-13.5-1.2
				l6.4-5.7L130.8,206.6z M103.4,214.1C103.4,214.1,103.4,214.1,103.4,214.1C103.4,214.1,103.4,214.1,103.4,214.1l-13.9,8.3
				l7.9-12.4l13.1,0.2L103.4,214.1z M97.2,209.5L84.5,213l10.1-4.9l8.9-0.3L97.2,209.5z M94.4,207.7l-10.1,4.3l5.8-7.5l10.2-4.1
				L94.4,207.7z M83.5,212.4l-1.6,0.7l-10-1.6l7.1-3.1l10.4-3.6L83.5,212.4z M59.4,213l-7.3,2.1l-1.8,0.6l-0.9,0.2l7.5-4.3l9.5-3.4
				L59.4,213z M59.2,209.4l0.8-0.2l3.5-0.3l-1.7,0.6c0,0,0,0,0,0l-2.4,0.7l-4.6,1.3L59.2,209.4z M45.8,214.4
				C45.8,214.4,45.8,214.4,45.8,214.4l9.4-2.3l0.3-0.1l-7.5,4.3l-0.1,0l-9.9,0.3L45.8,214.4z M24.8,220.8l7.6-2.4l1.8-0.6l-8.5,4.4
				l-9.8,1L24.8,220.8z M13.5,223.9l10.9-1.2l-10.6,4.7l-11.5,2.1L13.5,223.9z M14,227.8l11.9-2.5l-11.4,7.9l-12.8,1L14,227.8z
				 M26.9,225.2l12.2-0.9l-10.9,6.9l-12.9,1.9L26.9,225.2z M28.4,231.6l12.3-5l-10.9,8.6l-13.1,3.7L28.4,231.6z M29.9,235.5
				l13.4-4.4l-11.9,9.2L17,243.8L29.9,235.5z M31.6,240.6l14.1-2l-12.3,4.9l-15.1,2.8L31.6,240.6z M47.4,238.4l12.5,0.9
				c0,0,0.1,0,0.1,0l5.4-2.6c0,0,0.1,0,0.1-0.1l8.6-12.2l14-1.2l-9.2,6.5l-15.5,9.4l-12.7,4.2l-16,0.2L47.4,238.4z M50.7,243.8
				l11.5,1.8c0,0,0.1,0,0.1,0l8.1-2.7L82,239l-14.2,7.1l-13.6,1.7l-17.1,4.3L50.7,243.8z M54.4,248.3l18.1,2.3L59,260.9l-19.8-3
				L54.4,248.3z M73.1,250.6l17.6-4.1l-11.7,10l-19.2,4.2L73.1,250.6z M91.6,246.3l18.1-0.1L99.4,257l-19.7-0.5L91.6,246.3z
				 M110.2,246.2l18.2-1.9l-8.5,18.4l-20-5.5L110.2,246.2z M128.8,244.3l18.3,3.5l-7,10.8l-19.7,4L128.8,244.3z M147.6,247.9
				l18.2,3.6l-5.3,5.9l-19.8,1.1L147.6,247.9z M166.3,251.6l18.1,0.4l-3.5,3.7l-19.7,1.8L166.3,251.6z M185,251.9l18.2-7.8
				l-2.1,13.2l-19.8-1.6L185,251.9z M203.6,244l18.3,2.6l-0.4,7.7l-19.9,3.1L203.6,244z M222.4,246.5l18.4-9.5l1.2,14.9l-20,2.3
				L222.4,246.5z M241.1,236.4l-1-3.6l17-12.7l2.4,15.5L241.1,236.4z M259.8,235.7l-2.3-15.4l16.8,13l3.7,6.4L259.8,235.7z
				 M303.4,260.4l-6.1-17.1l18.4-0.7l7.8,11.5L303.4,260.4z M324,254.1l-7.8-11.5l18.3-0.5l9.3,16.2L324,254.1z M344.3,258.5
				l-9.4-16.4l18.4-2.1l10.9,19.8L344.3,258.5z M354,240.2l17.8,9.4l12.7,10.8l-19.7-0.7L354,240.2z M385.1,260.4l-12.4-10.6
				l17.6,4.9l14.1,6.6L385.1,260.4z M405.5,261.4l-14.2-6.6l17.8-0.5l15.8,8.9L405.5,261.4z M409.2,253.8l-13.4-6.3l16.6-1.7
				l14.7,7.7L409.2,253.8z M412.4,245.4l-12.7-6.3l15.6-2.9l14,2.7L412.4,245.4z M415.4,235.7l-11.4-8.9l1,0.3c0,0,0,0,0,0
				c0,0,0,0,0,0l6,2l6.6,2.5l12.5,4.8L415.4,235.7z M411.1,228.7l-3.5-1.4l5.6,1.1c0,0,0,0,0,0l6.2,1.2l10.5,3.2l-12.3-1.7
				L411.1,228.7z M419.6,229.2l-5.4-1.1l7.2-2.2l10.8,3.5L419.6,229.2z M433.7,229.4l-10.4-3.3l11.2,1l11.1,3.8L433.7,229.4z
				 M434.6,226.7l-8.8-3.3l9.4,2.1l0,0l9.3,1.9L434.6,226.7z M447.7,227.6l-8.7-1.7l8.6,0.8l9.1,2.5L447.7,227.6L447.7,227.6z
				 M435.3,225.1l-9.4-3.6l10,1.2l9.9,3.3L435.3,225.1z M424.4,221l-8-3.7l9.1,2.1l0,0l8.5,2.7L424.4,221z M414.6,216.4L414.6,216.4
				l-5.9-2.1l6.5,1.4l0.9,0.2l6.2,2.2L414.6,216.4z M397.6,212.2l-5.3-1.6l7.3,0.9l5.1,1.7L397.6,212.2z M389.9,209.9l-4.6-1.8
				l7,1.4l4.5,1.3L389.9,209.9z M371.7,203.1l-0.3-0.1l0.4,0C371.7,203,371.7,203.1,371.7,203.1z M368.1,202.3l-0.9-0.2l-1.5-0.9
				L368.1,202.3z M370.6,203.2l0.5,0.4l0.2,0.1l1,0.8l0.5,0.3l0.4,0.1c0,0,0,0,0.1,0l0.6,0l4.3,3l-0.9-0.2l-10.1-2.5l-5.2-3.7
				L370.6,203.2z M359,200.6l0.5,0.3l-6.4,0.2l-2.2-1.4L359,200.6z M349,199.5C349,199.5,349,199.5,349,199.5l3.1,1.7l-0.8,0
				l-2.5-1.8L349,199.5z M349.4,200.3l-4.5-2.1l1.2-0.3L349.4,200.3z M344.2,197.9l-1.2-0.6l2.1,0.3L344.2,197.9z M356.8,203.7
				l2.7,4l-0.6-0.5c0,0,0,0,0,0c0,0,0,0,0,0l-6-3.9L356.8,203.7z M358.6,207.6l1.1,1.4l-2.2-1.5L358.6,207.6z M360.5,210l8.2,5.7
				c0,0,0,0,0.1,0.1l8,5.5l-12.8-4.1l-6.5-9.2L360.5,210z M363.8,217.5l8.4,3.7l-14.2,1l-7.4-2.1L363.8,217.5z M349.5,220.3
				C349.5,220.3,349.5,220.3,349.5,220.3l8.4,2.4l8.9,7l-15.6,2.7l-7.7-13.7L349.5,220.3z M350.7,232.2l-15.3-5.3l-6.9-7l14.5-1.3
				L350.7,232.2z M307.8,205.3l5,8.5l-14.4-3l-4.2-6.1L307.8,205.3z M283.8,200.7l9.9,4l4.3,6.3l-14.7,8.2l-3.2-20L283.8,200.7z
				 M273.3,200.5l-1.7-5.6l11.1-8.3l-7.6,13.4L273.3,200.5z M256.3,186.1l1.3,4.8l-10.8,2.8l-0.8-8L256.3,186.1z M224.7,172.4
				l0.1-4.3l7.4,11.7L224.7,172.4z M224.4,167.9l-0.2,4.5l-5.4,5.7l-1.7-1.2L224.4,167.9z M201.5,183.1l-4.2,0.5l5.2-7.5
				L201.5,183.1z M201.4,183.5l-1.2,8.2l-11.4-0.2l1.8-6.7L201.4,183.5z M188.3,191.6l-10.2,13.7l1.4-9.8l10.5-10.2L188.3,191.6z
				 M168.4,202.9l10.7-7.1l-1.4,10.1l-3.5,4.7l-6.9-3.3L168.4,202.9z M157.6,212.8l-11.4-3.5l3-3.7l9-0.4l3-0.1L157.6,212.8z
				 M149.5,205.1l3.7-6.3l4.6,5.9L149.5,205.1z M149,205.1l-11.8-3.6l4.3-1.9l11.3-0.9L149,205.1z M111.2,209.7l-12.5-0.2l18.6-5.2
				L111.2,209.7z M112.1,198l-9.8,1.6l4.8-2.5l9.5-2.4L112.1,198z M112.5,195.3l0.5-0.2l0.6-0.1L112.5,195.3z M109.2,196.1l-2.2,0.6
				l0,0c0,0,0,0,0,0l-2.1,0.2l5.2-1.1L109.2,196.1z M101.1,197.1l-0.7,0.1l1.4-0.4L101.1,197.1z M99,197.7
				C99,197.7,99,197.7,99,197.7C99,197.7,99,197.7,99,197.7l2.1-0.2c0,0,0,0,0,0c0,0,0,0,0,0l0.8-0.1c0,0,0,0,0,0c0,0,0,0,0,0l4-0.3
				l-5.1,2.7l-10.1,4.1l5.7-6.1L99,197.7z M89.9,204.3l-10.1,3.5l4.9-5l1.3-1.1l8.1-2.9l1.6-0.6L89.9,204.3z M89.1,200.1l3.2-1.6
				l0.9,0.1L89.1,200.1z M86.1,201.1l-0.2,0.1l0,0l-6.2,2.1l-1.2,0.2L82,202L86.1,201.1z M76.6,204.4L76.6,204.4l-3.4,1.2l-0.2,0
				L76.6,204.4z M70.8,206.2l0.4,0l-1.4,0.5l-1.1,0.1L70.8,206.2z M65.6,207.6l2.3-0.3l-0.1,0c0,0,0,0,0,0l0,0l-2.3,0.8l-3.9,0.5
				l3-0.8L65.6,207.6z M42.3,213.8l7.3-0.9l-5.6,1.6l-7.8,1.3L42.3,213.8L42.3,213.8z M33.6,216.7l6.8-1.1l-4.2,1.2l-4,1.2l-5.7,0.7
				L33.6,216.7z M23.8,219.4l5.8-0.7l-6.2,1.9l-7.4,1L23.8,219.4L23.8,219.4z M13.1,222.4l8.5-1.2l-8.3,2.3l-9,1.3l6.4-1.7
				L13.1,222.4L13.1,222.4z M12.2,224.1l-11.3,5.7l-11.8-0.1l12.1-4L12.2,224.1z M1,230.2l11.6-2.1l-12,6.2l-12.5,0.4L1,230.2z
				 M0.7,234.8l12.7-1l-13,6.2l-13.6-0.1L0.7,234.8z M14.6,233.6l12.8-1.9l-12.2,7.5l-13.7,0.6L14.6,233.6z M15.3,239.6l13.3-3.7
				l-12.7,8.2l-14.5,0.4L15.3,239.6z M15.9,244.5l13.2-3.2l-12.7,5.4l-14.4,1.5L15.9,244.5z M16.6,247.1l14.6-2.7l-14,5.1L1.6,255
				L16.6,247.1z M33.5,244l16.4-0.2l-14,8.7L18,249.7L33.5,244z M36,252.9l17.1-4.3l-14.6,9.3l-18.7,2.7L36,252.9z M38.6,258.2
				l19.8,3L42,271.4l-21.6,0.8L38.6,258.2z M59.1,261.3l19.2-4.2l-14,10.3l-21.1,3.8L59.1,261.3z M79.2,256.9l19.8,0.5l-12.3,13.4
				l-21.9-3.4L79.2,256.9z M99.6,257.5l20,5.5l-10.4,11.7l-22-3.7L99.6,257.5z M120.1,263.1l19.7-4l-8.4,15.5l-21.8,0.1L120.1,263.1
				z M140.4,259l19.9-1.1l-6.4,14.6l-21.8,2L140.4,259z M160.7,257.8l19.9-1.8l-4.5,13.6l-21.9,2.8L160.7,257.8z M181.1,256.1
				l20,1.7l-2.5,13.8l-22-1.8L181.1,256.1z M201.5,257.7l20-3.1l-0.5,18.8l-22-1.9L201.5,257.7z M221.9,254.6l20-2.3l1.5,10.9
				l-22,10.2L221.9,254.6z M242.3,251.8l-1.2-15l18.4-0.8l2.8,15.3L242.3,251.8z M262.7,251.4l-2.8-15.3l18.3,4.1l4.5,14.6
				L262.7,251.4z M311,274.9l-7.4-14.1l20.2-6.3l9.4,14.2L311,274.9z M333.6,268.6l-9.3-14l19.8,4.3l11.3,11.7L333.6,268.6z
				 M356.1,270.6l-11.3-11.7l19.8,1.3l13.3,10L356.1,270.6z M378.6,270.2l-13.3-10l19.7,0.7l15.2,12.4L378.6,270.2z M401,273.3
				l-15.3-12.4l19.7,0.9l17.3,11.8L401,273.3z M423.5,273.6l-17.2-11.8l19.5,1.8l19.2,12.5L423.5,273.6z M425.9,263.2l-15.9-9
				l18-0.3l17.7,6.9L425.9,263.2z M428,253.5l-15.1-7.8l17.1-6.7l16.3,10.9L428,253.5z M430.1,238.5l-11.9-2.3l13.1,0.6l13,6.1
				L430.1,238.5z M431.4,236.4l-12-4.6l13.1,1.8l12.9,5.8L431.4,236.4z M432.6,233.2l-11.6-3.5l12.6,0.2l12.4,3.6L432.6,233.2z
				 M447.6,233.5l-11.3-3.3l11.2,1.5l12,4.1L447.6,233.5L447.6,233.5z M447.6,231.3l-11.5-4l11.6,0.8l12.3,4L447.6,231.3z
				 M461.6,232.1l-11.1-3.6l10.2,1.7l11.8,3.6L461.6,232.1z M460.8,229.8l-11-3l10.2,0.8l11.6,3.3L460.8,229.8z M447.7,226.2
				L438,223l9.8,1.1l10.4,3L447.7,226.2z M436.1,222.3l-8.4-2.7l9,1.1l8.9,2.7L436.1,222.3z M425.6,219l-7.4-2.7l8.4,1.3l7.8,2.4
				L425.6,219z M416.1,215.6l-5.2-1.1l6.6,0.7l5.7,1.6L416.1,215.6z M407.5,213.7l-0.2,0l-0.4-0.1l-5.2-1.7l7.5,1l6.1,1.7
				L407.5,213.7z M399.6,211.1l-4.8-1.3l6.7,0.7l5.1,1.5L399.6,211.1z M392.4,209.1l-4.6-1.7l6.8,1.1l4.7,1.3L392.4,209.1z
				 M385.8,206.6l-1.8-0.5l4.2,0.6l0,0l2.4,0.7L385.8,206.6z M380.1,205.1l-2.6-0.6l0,0l4.6,0.6l2.8,0.8L380.1,205.1z M376,203.9
				l-1.4-0.1l-0.7-0.1l-2-0.6l4.6,0.4l3.1,0.9L376,203.9z M370.3,202.5l-0.2,0l-1.7-0.5l-5.2-2.3l3.4,0.9l4.8,1.4l3,0.8L370.3,202.5
				z M362.5,199.8l3.5,2.1l-2.3-0.4c0,0,0,0,0,0l-4.4-1.2l-4-3.2L362.5,199.8z M337.6,193L337.6,193l2.5,0.1l0,0c0,0,0,0,0,0
				l0.5,0.2L337.6,193z M335.4,192.5C335.4,192.5,335.4,192.5,335.4,192.5L335.4,192.5l-1.2-0.3l2.9,0.1l1.2,0.3L335.4,192.5z
				 M337.8,195.5l3.7,1.6l3.9,4.3l-0.3-0.1l-3.1-2.6l-3-2.4L337.8,195.5z M344.9,201.6l0.7,0.4c0,0,0,0,0,0l0,0l4.9,1.1c0,0,0,0,0,0
				l1.8,0.4l5.5,3.6l-1-0.1c0,0-0.1,0-0.1,0l-0.7-0.6c0,0-0.1-0.1-0.1-0.1c0,0,0,0,0,0c0,0,0,0,0,0l-3.2,0.3l-5.1-0.5l-5.1-4.9
				L344.9,201.6z M348.2,207l-0.3-0.4l2.4,0.2L348.2,207z M347.4,206.5l0.3,0.5l-4.7,0.4l-0.7-0.5l-4.9-4.4L347.4,206.5z
				 M336.3,202.1l2.4,2.2l-2.8-2.2L336.3,202.1z M355.9,206.8l0.6,0.5l7,9.9l-13.7,2.7l-6.8-12L355.9,206.8z M343.2,218.2l-5.9-6.8
				l9.4,6.8l1.9,1.4L343.2,218.2z M335.8,210.3l6.9,7.9l-14.5,1.3l-5.8-15.9L335.8,210.3z M303.1,196.3l4.5,8.6l-13.6-0.6l-3.7-7.5
				L303.1,196.3z M283.8,200.2l-4-1.6c0,0,0,0,0,0c0,0-0.1,0-0.1,0c0,0,0,0,0,0c0,0,0,0,0,0l-4,1.2l7.8-13.8c0,0,0,0,0,0l3-5.3
				l3.2,15.9L283.8,200.2z M286.4,180C286.4,180,286.4,180,286.4,180l-3,5.3l-2.5-8.3L286.4,180C286.4,180,286.4,180,286.4,180z
				 M269.4,182.5l-1.8-5.8l9.9-4.4l0.5-0.3l2.4,4.6L269.4,182.5z M255,170.7l1.2,15.1l-10.3-0.4l-0.8-12.5L255,170.7z M233.5,181.1
				l-7.8-12.4l8.2,7.6l0.2,5.3L233.5,181.1z M224.4,167.3l-5.2,1.1l5.3-6.9L224.4,167.3z M218.8,168.9l5.2-1.1l-7.2,8.9l-1.6-1.1
				l0.3-6.1L218.8,168.9z M202,182.8l1.1-7.2l3.9,3.2L202,182.8z M196.8,183.7l-5.6,0.7l10.8-8.1L196.8,183.7z M168,202.8l-1.1,4.3
				l-5.2-2.5c0,0,0,0,0,0c0,0,0,0,0,0c0,0-0.1,0-0.1,0c0,0,0,0,0,0l-3.3,0.1l-4.9-6.3l3.5-5.1L168,202.8z M153.1,198.3l-11.4,0.9
				l3.9-13.3l10.9,7.3L153.1,198.3z M141.2,199.3l-4.7,2.1c0,0,0,0,0,0l-5.6,0.7l3.7-9.5l10.6-6.5L141.2,199.3z M134.1,192.6
				l-3.7,9.5l-12.5,1.6c0,0,0,0,0,0l0,0l-9,2.5l9-4.9c0,0,0.1-0.1,0.1-0.1l5.2-10.6L134.1,192.6z M123.2,190.2
				C123.2,190.2,123.2,190.2,123.2,190.2C123.2,190.2,123.2,190.2,123.2,190.2C123.1,190.2,123.1,190.2,123.2,190.2
				c-0.1,0-0.1,0-0.1,0c0,0,0,0,0,0l-2.7,1.9l1.4-3.3l8.1-1.1l-1,3.5L123.2,190.2z M121.5,188.5l-0.2,0.1l0.6-0.5L121.5,188.5z
				 M111.7,194.9l-9.6,2.1l2.4-1.4l0.3-0.2l8-2.1L111.7,194.9z M100.4,196.2l-0.9,0.5l-2.1,0.7l-1,0.1c0,0,0,0,0,0c0,0,0,0,0,0
				l-2.3,0.8l-1-0.2l4.3-1.1c0,0,0.1,0,0.1,0l3.6-1L100.4,196.2z M87.9,200.2l-0.9,0.2l0,0l-0.4,0.1l-4.7,0.5l2.5-0.7l4.6-1.2
				l2.1-0.6L87.9,200.2z M79.4,201.7l3.6-0.4l-1,0.2l-4.5,0.7L79.4,201.7z M74.1,203.2l6.3-1l-3.9,1.7l-6.3,0.3L74.1,203.2z
				 M75.1,204.4l-4.3,1.4l-6.9,0.3l4.5-1.4L75.1,204.4z M62.3,206.6l6.6-0.3l-3.4,0.9l-1,0.2l-6.8,0.5L62.3,206.6z M55.7,208.4
				l6.7-0.5l-1.6,0.4l-1.6,0.5l-0.2,0l-0.1,0c0,0-0.1,0-0.1,0l-1,0.3l-7.1,0.6L55.7,208.4z M48.6,210.5l5.6-0.5l-2.7,0.6l-1.1,0.2
				l-6.1,0.8L48.6,210.5z M40.8,212.5l7.4-1l-5.9,1.9l-7.6,0.7L40.8,212.5z M12.8,220.2l9-0.7l-8.7,2.4l-9.4,0.8L12.8,220.2z
				 M1.5,223.4l9.4-0.8l-9.7,2.6l-9.9,1L1.5,223.4L1.5,223.4z M-11.1,226.8l10.4-1l-11.5,3.8l-11.1,0.6L-11.1,226.8z M-12.1,230
				l11.9,0.1l-13,4.6l-12.7-0.8L-12.1,230z M-13.1,235.2l12.5-0.4l-13.8,5l-13.4,0.1L-13.1,235.2z M-29.2,240.3l13.4-0.1l-16,5.2
				l-14.4-0.1L-29.2,240.3z M-14.4,240.2l13.6,0.1l-15.1,5.5l-14.6-0.4L-14.4,240.2z M0.5,240.3C0.5,240.3,0.5,240.3,0.5,240.3
				l13.3-0.6L0,244.5l-14.2,1.1L0.5,240.3z M0.1,244.9l14.1-0.4l-14.7,3.9h0l-14.9,2.4L0.1,244.9z M-0.5,248.9l15.9-1.7L0,255.3
				l-1.7,0.6l-16.8-0.1L-0.5,248.9z M-12.7,260.1l11.7-3.8l15.9-5.6l-16.9,9.3l-17.9,2.4L-12.7,260.1z M17.2,250l18,2.8l-16.8,8
				l-19.5-0.6L17.2,250z M18.5,261.2l19.3-2.8l-18.1,13.9l-21.3,1.1L18.5,261.2z M19.9,272.7l21.5-0.8l-20,14.5l-23.9,2.1
				L19.9,272.7z M42.2,271.8l21.5-3.8l-17.4,18.7l-24.1-0.3L42.2,271.8z M64.4,267.8l22,3.4l-15.2,16l-24.3-0.6L64.4,267.8z
				 M86.8,271.3l22,3.7L96,287.2H71.7L86.8,271.3z M109.3,275.1l21.8-0.1l-10.3,11.6l-24.2,0.6L109.3,275.1z M131.7,275l21.9-2
				l-7.9,13.3l-24.3,0.3L131.7,275z M154.1,272.9l21.9-2.8l-5.5,13.8l-24.3,2.3L154.1,272.9z M176.4,270.1l22,1.8l-3.1,14.7
				l-24.5-2.8L176.4,270.1z M198.9,272l22,1.9l-0.7,14l-24.5-1.2L198.9,272z M221.4,273.8l22.1-10.2l1.8,20.5l-24.5,3.8L221.4,273.8
				z M243.8,263.1l-1.4-10.9l20-0.4l3.4,17.6L243.8,263.1z M266.2,269.4l-3.4-17.6l20,3.4l5.4,11.2L266.2,269.4z M320.4,285.2
				l-9.2-9.9l22.2-6.2l11.5,17.2L320.4,285.2z M345.4,286.3L333.9,269l21.9,2l14,15.4L345.4,286.3z M370.4,286.5l-14-15.4l22-0.4
				l16.4,16.3L370.4,286.5z M395.4,286.9l-16.3-16.2l21.7,3l18.8,14.6L395.4,286.9z M420.4,288.4l-18.9-14.6l21.8,0.3l21.2,16.3
				L420.4,288.4z M445.3,290.4l-21.2-16.2l21.6,2.5l23.6,15.6L445.3,290.4z M445.8,276.2l-19.4-12.6l20-2.4l21.4,13L445.8,276.2z
				 M446.5,260.7l-17.8-7l18.2-3.5l19.1,12.3L446.5,260.7z M447,249.8l-15.6-10.5l15.6,4.9l0,0c0,0,0,0,0,0l17.1,8.3L447,249.8z
				 M447.2,243.8l-14.1-6.6l14.1,3l0,0l15.4,4.2L447.2,243.8z M447.3,239.8l-13.8-6.2l13.9,0.2l14.8,6.2L447.3,239.8z M463.4,240.1
				l-13.9-5.9l12.9,2.5l15,5.1L463.4,240.1z M462.4,236.3l-13.3-4.6l12.4,0.7l14.1,5.2L462.4,236.3z M477.3,237.8l-13.6-5l11.8,1.9
				l14.6,4.2L477.3,237.8z M477.6,234.9l11.8,1l15.4,4.3l-12.6-1.1L477.6,234.9z M475.5,234.3l-12.7-3.9l11,1.1l13.4,3.8
				L475.5,234.3z M473.9,231.1l-12.3-3.5l10.9,0.1l13,3.5L473.9,231.1z M460.2,227.2l-10.8-3.2l10.3,0.1l11.4,3.1L460.2,227.2z
				 M447.8,223.6l-9.6-2.9l9.6,0.2l10.1,2.7L447.8,223.6z M436.7,220.3l-8.4-2.6l9,0.4l8.9,2.4L436.7,220.3z M426.7,217.2l-7.4-2
				l8.4,0.3l7.8,2.1L426.7,217.2z M417.6,214.7l-6.6-1.9l8,0.3l7,1.9L417.6,214.7z M409.3,212.3l-6-1.8l7.6,0.4l6.3,1.7L409.3,212.3
				z M401.7,210l-5.2-1.5l7.1,0.3l5.5,1.5L401.7,210z M394.7,208l-4.7-1.3l6.7,0.3l4.9,1.3L394.7,208z M388.3,206.3l-4.3-1.2
				l6.5,0.2l4.5,1.2L388.3,206.3z M382.2,204.6l-3.9-1.1l6.3,0.2l4.1,1.1L382.2,204.6z M376.7,203l-5.1-1.4l-4.8-1.4l-4.5-1.2
				l-1-0.1l-7-2.7c0,0,0,0,0,0l0,0l-6-1.1l-2.2-1l3.6,0.1l33.3,9.1L376.7,203z M344.3,193.6l-1.4-0.1l-1.2-0.3l4.4,0.1l1.6,0.4
				L344.3,193.6z M340.2,192.7l-1.4-0.4l4.2,0.1l1.5,0.4L340.2,192.7z M337.2,191.9l-1.3-0.3l4.1,0l1.3,0.4L337.2,191.9z
				 M334.4,191.1L334.4,191.1l-1.1-0.3l4,0l1.2,0.3L334.4,191.1z M331.7,190.4l-1-0.3l3.9,0l1.1,0.3L331.7,190.4z M329.2,189.7
				l-1-0.3l3.8,0l1,0.3L329.2,189.7z M324.3,188.7l0.9,0.2l-0.9,0l-0.2-0.2L324.3,188.7z M326.7,189.4l0.9,0.3l-2.7,0l-0.2-0.2
				L326.7,189.4z M328.6,191.2l1.2,0.4l-1.7-0.1l-1-0.3l-0.9-0.1L326,191L328.6,191.2z M326.9,191.6l1.4,0.5l-1.6-0.2l-0.2-0.3
				L326.9,191.6z M330.6,192.8l-0.4,0.1l-0.8-0.2L330.6,192.8z M331.9,193l2.1,0.9l-2.8-0.8L331.9,193z M338.7,196.6l3,2.3l2.5,2.1
				l-2.3-0.4l-3.7-4.4L338.7,196.6z M341.8,201.1l4.8,4.6l-10.1-4.1l-1.8-0.7l-0.7-0.6L341.8,201.1z M342.5,207.8
				C342.5,207.8,342.5,207.8,342.5,207.8l6.6,11.7l-2.2-1.6l-10.9-7.9l-5.8-11.9L342.5,207.8z M329.6,197.6l5.9,12.1l-13.3-6.7
				l-5.2-7.6l5.6,0.8l0.6,0.2c0,0,0,0,0,0l0,0L329.6,197.6z M323.3,196.1l-0.5-0.2c0,0,0,0,0,0l-1.5-3.2l5.2,3.9L323.3,196.1z
				 M320.5,192.1l1.6,3.5l-1.6-0.9l-8.3-4.3l-1.7-9.3L320.5,192.1z M320.4,195l1.2,0.7l-4.9-0.7l-3.9-3.9L320.4,195z M303.1,188.8
				l8.3,1.6l4.6,4.6l-12.7,0.9l-3.9-7.8l7.6,0.3l2.9,1.4l-6.7-1.3c-0.1,0-0.2,0.1-0.2,0.2C303,188.7,303,188.8,303.1,188.8z
				 M298.9,188l4,7.9l-12.8,0.5l-3.2-15.9l5.8,3.6c0,0,0,0,0,0L298.9,188z M292,183.2l-3.9-2.4l0.6,0.3l3,1.8L292,183.2z
				 M286.8,179.7l-6.1-3.2l-2.2-4.3l3.9,3.5l4.5,3.7l0.7,0.6L286.8,179.7z M277.8,171.3C277.8,171.3,277.8,171.3,277.8,171.3
				l-0.2-0.8l0.4,0.8L277.8,171.3z M272.4,168.2l-1.8-2.2l5.1,2.5L272.4,168.2z M261.3,170.7L261.3,170.7l-5.9-0.5l-1-6.6l0.1,0.2
				l3.1,4.6c0,0,0,0,0.1,0.1l2.5,1.5L261.3,170.7z M234.3,175.6l-0.2-6.3l5.3-0.6L234.3,175.6z M233.9,175.7l-9-8.4l0.1-6.1l8.6,8
				L233.9,175.7z M218,166.7l-1.4,1.2l0.2-3.1L218,166.7z M216.1,168.3l-0.9,0.8c0,0,0,0,0,0c0,0,0,0,0,0l-1.1,1.2l1.7-3.7l0.6-1.4
				L216.1,168.3z M193.9,176.9c-0.1,0-0.1,0-0.2,0l-3.2,2.6l-1,0.3l1.1-5.4l6.5-4l-0.9,7.2L193.9,176.9z M185.6,178.7l-3.1-1
				l6.9-2.8L185.6,178.7z M188.9,180.3l-0.1,0.5l-5.4,4.3l-1.1,0.8l-1.6-0.7l1.3-7.2L188.9,180.3z M175.6,183.4l-1,8.1l-3.6,2.6
				l-6.4-2.8l1.7-11.4l4.2,1.5L175.6,183.4z M164.5,177.8l3.2,1.4l-1.7,0.2L164.5,177.8z M166.9,179.8l1.6-0.2l1.1,1.2L166.9,179.8z
				 M163.5,177.3C163.5,177.3,163.5,177.3,163.5,177.3l2.3,2.4l-1.7,11.4l-3.8-1.7l-6.4-5.5l2.3-14.2L163.5,177.3z M145.4,185.4
				l-8.3,5.1l4.1-3.3l7-5.6L145.4,185.4z M141.7,186.3l2.5-4.9l3.9-1.7l-3.6,4.3L141.7,186.3z M138.7,184.1l-7.7,2.9l2.9-3.2
				l5.4-0.1L138.7,184.1z M130.1,187.2l-7.8,1.1l3.3-3.2l7.6-1.3L130.1,187.2z M104.8,193.7L104.8,193.7l-2.7,1.6l-0.5,0.1l-0.6,0.1
				l-3.9,1.1l-8.3,2.2l-4.6,1.2l-4.9,1.4l-5.7,0.3l32.2-8.5L104.8,193.7z M71.7,202.1l5.8-0.3l-3.5,1l-6,0.3L71.7,202.1z
				 M66.2,203.6l6-0.3l-3.9,1l0,0l-6.2,0.3L66.2,203.6z M60.2,205.1l6.5-0.3l-4.4,1.3l-6.7,0.2L60.2,205.1z M53.8,206.8l6.8-0.2
				l-4.9,1.4l-7.1,0.2L53.8,206.8z M46.8,208.7l7.2-0.2l-5.5,1.6l-7.5,0.2L46.8,208.7z M39.3,210.7l7.4-0.2l-6,1.5l-7.7,0.3
				L39.3,210.7z M31.1,212.8l7.8-0.3l-6.7,1.9l0,0l-8.2,0.3L31.1,212.8z M22.2,215.2l8.3-0.3L23,217l0,0l-8.7,0.3L22.2,215.2z
				 M12.4,217.8l8.8-0.3l-8.5,2.4l-9.2,0.3L12.4,217.8z M1.7,220.6l9.3-0.3L1.4,223l-9.7,0.3L1.7,220.6z M-10.2,223.8l9.8-0.3
				l-10.8,3l-10.4,0.4L-10.2,223.8z M-23.4,227.3l10.5-0.4l-12.3,3.5l-11.2,0.4L-23.4,227.3z M-25.1,230.8l11.1-0.6l-13.1,3.7
				l-11.8,0.9L-25.1,230.8z M-14.3,235.1l-14.9,4.8l-13.6-0.5l15.8-5.1L-14.3,235.1z M-30.5,240.3l-17.1,5L-62,245l18-5.2
				L-30.5,240.3z M-33,245.8l-18.6,5.8l-15.7-0.3l19.8-5.5L-33,245.8z M-31.6,245.8l14.6,0.4l-17.6,5.7l-15.8-0.3L-31.6,245.8z
				 M-15.7,246.2l14.3-1.1l-16.1,6.1l-15.5,0.6L-15.7,246.2z M-19.4,251.7l-18.7,4.9l-16.4,0.8l20-5.1L-19.4,251.7z M-17.5,251.6
				L-17.5,251.6l15-2.4l-17.2,6.7l-16.5,0.6L-17.5,251.6z M-20.6,256.3l-21.4,9.9l-19,0.8l23-9.9L-20.6,256.3z M-19.5,256.3
				l16.7,0.1l-10,3.4l-9.2,3.1l-18.5,3.1L-19.5,256.3z M-23.2,263.4l-23.7,12.4l-20.9,0.6l25.9-9.9L-23.2,263.4z M-21.9,263.2
				l19.2-2.6l-21.9,14.3l-21.2,0.8L-21.9,263.2z M-1.8,260.5l19.5,0.6l-20.2,12.3l-21.3,1.4L-1.8,260.5z M-3.3,273.9L-28,289
				l-23.7,1.6l26.8-15l0.3-0.2L-3.3,273.9z M-2.4,273.9l21.5-1.2l-22.3,15.8l-23.9,0.5L-2.4,273.9z M-3.8,288.9l-28.1,19.7
				l-27.1-0.4l31.2-18.8L-3.8,288.9z M-3.1,288.9l23.9-2.1l-25,20.4l-27,1.3L-3.1,288.9z M21.6,286.8l24.2,0.3l-22.1,20l-27.2,0.2
				L21.6,286.8z M46.4,287.1l24.3,0.6l-19.1,20.1l-27.3-0.7L46.4,287.1z M71.3,287.6h24.3l-16,19.6l-27.3,0.5L71.3,287.6z
				 M96.1,287.6l24.3-0.6l-13,19.7l-27.4,0.4L96.1,287.6z M121,287l24.4-0.3l-10,20.1l-27.5-0.1L121,287z M145.9,286.7l24.4-2.4
				l-6.9,21.6l-27.5,0.9L145.9,286.7z M170.8,284.3l24.5,2.8l-3.9,20.2l-27.6-1.4L170.8,284.3z M195.7,287.1l24.5,1.2l-0.8,19.1
				l-27.6-0.1L195.7,287.1z M220.7,288.3l24.6-3.8l2.2,21.6l-27.6,1.3L220.7,288.3z M245.6,284.1l-1.8-20.5l22,6.3l4.2,15.5
				L245.6,284.1z M270.5,285.3l-4.2-15.5l22.1-2.9l6.6,19.4L270.5,285.3z M320.7,285.6l24.5,1.1l14.4,21.7l-27.5-1.5L320.7,285.6z
				 M345.7,286.7l24.5,0.2l17.5,21.7l-27.6-0.2L345.7,286.7z M370.8,286.9l24.5,0.4l20.6,19.9l-27.6,1.4L370.8,286.9z M395.9,287.3
				l24.3,1.5l23.7,19l-27.5-0.6L395.9,287.3z M420.9,288.9l24.2,1.9l26.7,19.1l-27.3-2L420.9,288.9z M446,290.8l24.1,1.9l29.9,18
				l-27.3-0.8L446,290.8z M446.4,276.6l22-2.1l26.3,15.8l-24.5,2L446.4,276.6z M447.4,261.2l19.4,1.8l23.2,12.5l-21.5-1.4
				L447.4,261.2z M467.8,263.1l19.4,1.5l25.3,11l-21.5-0.1L467.8,263.1z M466.9,262.6l-19-12.2l17.6,2.8l20.8,11L466.9,262.6z
				 M466.6,253.2l17.6,1.7l22.6,8.6l-19.5,0.6L466.6,253.2z M465.6,252.7l-17.5-8.4l16.2,0.7l18.8,9.5L465.6,252.7z M465.6,245.1
				l15.9,2.1l20,9.7l-17.3-2.4L465.6,245.1z M464.5,244.5l-15.6-4.3l14.4,0.3l16.5,6L464.5,244.5z M465.1,240.8l14.1,1.7l17.6,6.8
				l-15.1-2.5L465.1,240.8z M481.1,242.7l14,2.1l19,6l-15.4-1.2L481.1,242.7z M479.3,242l-15.2-5.1l13,1.3l16,5.9L479.3,242z
				 M478.8,238.4l13.4,1.1l17.5,6.1l-14.4-1.1L478.8,238.4z M489.5,235.5l-14-4l11.6,0.1l14.8,4L489.5,235.5z M322.8,186.9l5.1,1.4
				l-3.6,0l-0.8-0.2l-0.9-1.2L322.8,186.9z M324.6,190C324.6,190,324.6,190,324.6,190l0.4,0.5c0,0,0,0,0,0l0.8,1c0,0,0,0,0,0
				l0.6,0.7c0,0,0,0,0,0c0,0,0.1,0,0.1,0.1c0,0,0,0,0,0l3.7,1l6.4,1.7l0.7,0.7l0.5,0.8l3.5,4.2l-8-0.7l-3.5-2.8c0,0,0,0,0,0
				c0,0,0,0,0,0c0,0,0,0-0.1,0c0,0,0,0,0,0l-2.5-0.4l-6.4-4.9l-3.7-11.1l4.7,5.9L324.6,190z M304.6,186.3c0.1,0.1,0.1,0.1,0.2,0
				l0.4-0.2c0,0,0.1,0,0.1-0.1l4.8-5.4l1.7,9.3l-0.2-0.1c0,0,0,0,0,0c0,0,0,0,0,0l-4.5-2.1c0,0-0.1,0-0.1,0l-8-0.3l-6.2-3.8
				l-0.9-1.2l0,0c0,0,0,0,0,0l0,0c0,0,0,0-0.1-0.1l-3-1.7c0,0,0,0,0-0.1l-2.5-10.8l9.6,8.6L304.6,186.3z M282.7,170.4l3.2-0.9
				l2.5,10.8l-1.2-1.1l-4.5-3.7l-4.2-3.7L282.7,170.4z M260.7,169.9L260.7,169.9l-0.4-0.2l-2.4-1.5l-2-3L260.7,169.9z M244.4,166.1
				l-0.6-2.4l4.6,1L244.4,166.1z M218.3,166.4l-0.2-0.3l0.1-4.2l1.5,3.1L218.3,166.4z M217.8,161.8l-0.1,3.6l-0.9-1.4c0,0,0,0,0,0
				c0,0,0,0,0,0c0,0,0,0,0,0c0,0,0,0,0,0c0,0,0,0,0,0c0,0,0,0,0,0c0,0,0,0,0,0c0,0,0,0,0,0c0,0,0,0,0,0c0,0,0,0,0,0c0,0,0,0,0,0
				c0,0,0,0,0,0c0,0,0,0,0,0c0,0,0,0,0,0c0,0,0,0,0,0c0,0,0,0,0,0c0,0,0,0,0,0c0,0,0,0,0,0c0,0,0,0,0,0c0,0,0,0,0,0c0,0,0,0,0,0
				l-1.1,2.4l-1.1,0.7L217.8,161.8z M196.6,177.8l0.9-7.4l2.3,1.3L196.6,177.8z M167.6,176.6l6.8-1.8l-1.3,7.2l-2.6-1l-1.8-1.9l0,0
				l0,0c0,0,0,0,0,0c0,0,0,0,0,0l-2.2-1.8L167.6,176.6z M153,177c0.1,0,0.1-0.1,0.1-0.1l2.4-5.9l-2,12.6l-4-3.5c0,0,0,0,0,0
				c0,0,0,0,0,0c0,0,0,0,0,0c0,0,0,0,0,0c0,0,0,0,0,0c0,0,0,0,0,0c0,0,0,0,0,0c0,0,0,0,0,0l0,0h0l0,0l-0.1,0.1l-2.6,2.1l-0.4,0.3
				l2.5-3l0.4-0.4l0.9-1.4L153,177z M139.9,183.3l-4.3,0.1l6.7-1.7L139.9,183.3z M117.4,190l-0.6,0.4l-0.9,0.8l-0.3,0l-2.6,0
				L117.4,190z M-38.1,231.2l11.4-0.4l-14.2,4.1l-12.1,0.2L-38.1,231.2z M-40.8,235.4l12-0.9l-15.2,4.9L-57,240L-40.8,235.4z
				 M247.9,306.1l-2.2-21.6l24.6,1.3l5.3,19.7L247.9,306.1z M270.6,285.8l24.5,1l8.3,19.2l-27.6-0.4L270.6,285.8z"/>
		</g>
		<g>
			<path class="st0" d="M404.7,338.2l-0.6-0.3c17.6-30.9,27-66.2,27-102c0-39.8-11.4-78.4-32.9-111.7l0.6-0.4
				c21.6,33.4,33,72.1,33,112.1C431.8,271.8,422.4,307.2,404.7,338.2z"/>
		</g>
		<g>
			<path class="st0" d="M45.3,338.2c-17.7-31-27-66.4-27-102.3c0-39.7,11.3-78.3,32.7-111.6l0.6,0.4
				c-21.3,33.2-32.6,71.7-32.6,111.3c0,35.8,9.3,71.1,27,102L45.3,338.2z"/>
		</g>
		<g>
			<path class="st2" d="M405.5,344H43.8l-0.2-0.3c-13.5-22.3-22.6-46.5-27.1-72c-0.1-0.4,0.2-0.7,0.5-0.8c0.4-0.1,0.7,0.2,0.8,0.5
				c4.5,25.3,13.5,49.2,26.7,71.2h360.2c19.6-32.5,29.9-69.9,29.9-108c0-23.5-3.9-46.6-11.5-68.6h-8.1c-0.4,0-0.7-0.3-0.7-0.7
				c0-0.4,0.3-0.7,0.7-0.7h9l0.2,0.4c7.8,22.3,11.7,45.6,11.7,69.5c0,38.5-10.5,76.2-30.3,109L405.5,344z"/>
		</g>
		<g>
			<path class="st2" d="M26.7,254H14.2l-0.1-0.6c-0.5-6.2-0.8-12.5-0.8-18.7c0-41.9,12.3-82.4,35.5-117.1l0.2-0.3h134.1
				c1.2,0,2.2,0.7,2.6,1.8c6.2,16.2,21.9,27.1,39.3,27.1c17.3,0,33.1-10.9,39.3-27.1c0.4-1.1,1.5-1.8,2.6-1.8h133.4l0.2,0.3
				c5.7,8.5,10.8,17.5,15.2,26.8c0.2,0.3,0,0.7-0.3,0.9c-0.3,0.2-0.7,0-0.9-0.3c-4.3-9.1-9.3-17.9-14.9-26.3H266.9
				c-0.6,0-1.2,0.4-1.4,0.9c-6.4,16.7-22.6,28-40.5,28c-17.9,0-34.2-11.2-40.5-28c-0.2-0.6-0.8-0.9-1.4-0.9H49.7
				c-22.9,34.4-35.1,74.6-35.1,116.1c0,6,0.3,12.1,0.8,18h11.4c0.4,0,0.7,0.3,0.7,0.7S27.1,254,26.7,254z"/>
		</g>
		<path class="st0" d="M65.2,82.7c-0.2-0.2-0.5-0.2-0.7,0C24.9,124.1,3.1,178.5,3.1,235.9c0,26.3,4.5,52,13.5,76.4
			c8.7,23.6,21.2,45.5,37.3,64.9c0.1,0.1,0.2,0.2,0.4,0.2c0.1,0,0.2,0,0.3-0.1c0.2-0.2,0.2-0.5,0.1-0.7
			c-8.4-10.2-15.9-21.1-22.3-32.5l1.4-2.3l1.9-3l-3.6-0.1l-2.7-0.1c-4.5-8.6-8.5-17.5-11.8-26.6c-8.6-23.4-13.1-48-13.4-73.2
			l2.7-1.5l3.1-1.8l-3.1-1.8l-2.7-1.5c0.6-34.7,9.2-68.3,24.9-98.4l3-0.1l3.6-0.1l-1.9-3l-1.6-2.5c9-16,20-31,33-44.6
			C65.4,83.2,65.4,82.9,65.2,82.7z"/>
		<path class="st0" d="M384.9,82.1c-0.2-0.2-0.5-0.2-0.7,0c-0.2,0.2-0.2,0.5,0,0.7c13.2,13.7,24.5,28.9,33.6,45.2l-1.6,2.5l-1.9,3
			l3.6,0.1l3,0.1c15.7,30.1,24.3,63.7,24.9,98.4l-2.7,1.5l-3.1,1.8l3.1,1.8l2.7,1.5c-0.3,25.3-4.9,50-13.6,73.6
			c-3.3,9-7.2,17.8-11.7,26.2l-2.7,0.1l-3.6,0.1l1.9,3l1.4,2.3c-6.6,11.7-14.2,22.8-22.9,33.2c-0.2,0.2-0.1,0.5,0.1,0.7
			c0.1,0.1,0.2,0.1,0.3,0.1c0.1,0,0.3-0.1,0.4-0.2c16.3-19.5,29-41.4,37.7-65.2c9.1-24.6,13.7-50.4,13.7-76.8
			C446.9,178.2,424.9,123.6,384.9,82.1z"/>
	</g>
	<g>
		<g>
			<g>
				<path class="st0" d="M246.7,125.5c-0.1,0-0.2,0-0.2-0.1l-1.8-1.8c-0.1-0.1-0.1-0.3,0-0.5c0.1-0.1,0.3-0.1,0.5,0l1.8,1.8
					c0.1,0.1,0.1,0.3,0,0.5C246.9,125.5,246.8,125.5,246.7,125.5z"/>
			</g>
			<g>
				<path class="st0" d="M224.7,134.7c-0.2,0-0.3-0.1-0.3-0.3v-2.5c0-0.2,0.1-0.3,0.3-0.3s0.3,0.1,0.3,0.3v2.5
					C225,134.6,224.9,134.7,224.7,134.7z"/>
			</g>
			<g>
				<path class="st0" d="M202.6,125.7c-0.1,0-0.2,0-0.2-0.1c-0.1-0.1-0.1-0.3,0-0.5l1.8-1.8c0.1-0.1,0.3-0.1,0.5,0
					c0.1,0.1,0.1,0.3,0,0.5l-1.8,1.8C202.7,125.6,202.7,125.7,202.6,125.7z"/>
			</g>
			<g>
				<g>
					<g>
						<path class="st2" d="M224.5,130.1c-14.8,0-26.9-12.1-26.9-26.9s12.1-26.9,26.9-26.9c14.8,0,26.9,12.1,26.9,26.9
							S239.4,130.1,224.5,130.1z M224.5,77c-14.5,0-26.3,11.8-26.3,26.3c0,14.5,11.8,26.3,26.3,26.3c14.5,0,26.3-11.8,26.3-26.3
							C250.8,88.7,239,77,224.5,77z"/>
					</g>
					<g>
						<path class="st2" d="M224.5,121.3c-10,0-18.1-8.1-18.1-18.1c0-10,8.1-18.1,18.1-18.1c10,0,18.1,8.1,18.1,18.1
							C242.6,113.2,234.5,121.3,224.5,121.3z M224.5,85.8c-9.6,0-17.4,7.8-17.4,17.4c0,9.6,7.8,17.4,17.4,17.4
							c9.6,0,17.4-7.8,17.4-17.4C241.9,93.6,234.1,85.8,224.5,85.8z"/>
					</g>
					<g>
						<path class="st2" d="M224.5,112.4c-5.1,0-9.2-4.1-9.2-9.2c0-5.1,4.1-9.2,9.2-9.2c5.1,0,9.2,4.1,9.2,9.2
							C233.7,108.3,229.6,112.4,224.5,112.4z M224.5,94.7c-4.7,0-8.5,3.8-8.5,8.5c0,4.7,3.8,8.5,8.5,8.5c4.7,0,8.5-3.8,8.5-8.5
							C233.1,98.5,229.2,94.7,224.5,94.7z"/>
					</g>
				</g>
				<g>
					<g>
						<path class="st2" d="M224.5,130.1c-14.8,0-26.9-12.1-26.9-26.9s12.1-26.9,26.9-26.9c14.8,0,26.9,12.1,26.9,26.9
							S239.4,130.1,224.5,130.1z M224.5,77c-14.5,0-26.3,11.8-26.3,26.3c0,14.5,11.8,26.3,26.3,26.3c14.5,0,26.3-11.8,26.3-26.3
							C250.8,88.7,239,77,224.5,77z"/>
					</g>
					<g>
						<path class="st2" d="M224.5,121.3c-10,0-18.1-8.1-18.1-18.1c0-10,8.1-18.1,18.1-18.1c10,0,18.1,8.1,18.1,18.1
							C242.6,113.2,234.5,121.3,224.5,121.3z M224.5,85.8c-9.6,0-17.4,7.8-17.4,17.4c0,9.6,7.8,17.4,17.4,17.4
							c9.6,0,17.4-7.8,17.4-17.4C241.9,93.6,234.1,85.8,224.5,85.8z"/>
					</g>
					<g>
						<path class="st2" d="M224.5,112.4c-5.1,0-9.2-4.1-9.2-9.2c0-5.1,4.1-9.2,9.2-9.2c5.1,0,9.2,4.1,9.2,9.2
							C233.7,108.3,229.6,112.4,224.5,112.4z M224.5,94.7c-4.7,0-8.5,3.8-8.5,8.5c0,4.7,3.8,8.5,8.5,8.5c4.7,0,8.5-3.8,8.5-8.5
							C233.1,98.5,229.2,94.7,224.5,94.7z"/>
					</g>
				</g>
				<g>
					<g>
						<rect x="224.2" y="103.2" class="st2" width="0.7" height="26.6"/>
					</g>
					<g>
						
							<rect x="233.6" y="99.3" transform="matrix(0.7071 -0.7071 0.7071 0.7071 -11.1168 198.4083)" class="st2" width="0.7" height="26.6"/>
					</g>
					<g>
						<rect x="224.5" y="102.9" class="st2" width="26.6" height="0.7"/>
					</g>
					<g>
						
							<rect x="220.6" y="93.5" transform="matrix(0.7072 -0.7071 0.7071 0.7072 2.1717 192.8848)" class="st2" width="26.6" height="0.7"/>
					</g>
					<g>
						<rect x="224.2" y="76.6" class="st2" width="0.7" height="26.6"/>
					</g>
					<g>
						
							<rect x="214.8" y="80.5" transform="matrix(0.7071 -0.7071 0.7071 0.7071 -3.3291 179.604)" class="st2" width="0.7" height="26.6"/>
					</g>
					<g>
						<rect x="197.9" y="102.9" class="st2" width="26.6" height="0.7"/>
					</g>
					<g>
						
							<rect x="201.8" y="112.3" transform="matrix(0.7071 -0.7071 0.7071 0.7071 -16.6239 185.113)" class="st2" width="26.6" height="0.7"/>
					</g>
				</g>
				<g>
					<path class="st2" d="M224.5,137.8c-19.1,0-34.6-15.5-34.6-34.6c0-19.1,15.5-34.6,34.6-34.6c19.1,0,34.6,15.5,34.6,34.6
						C259.1,122.3,243.6,137.8,224.5,137.8z M224.5,70.6c-18,0-32.6,14.6-32.6,32.6c0,18,14.6,32.6,32.6,32.6
						c18,0,32.6-14.6,32.6-32.6C257.1,85.3,242.5,70.6,224.5,70.6z"/>
				</g>
				<g>
					<path class="st2" d="M224.5,137.8c-19.1,0-34.6-15.5-34.6-34.6c0-19.1,15.5-34.6,34.6-34.6c19.1,0,34.6,15.5,34.6,34.6
						C259.1,122.3,243.6,137.8,224.5,137.8z M224.5,70.6c-18,0-32.6,14.6-32.6,32.6c0,18,14.6,32.6,32.6,32.6
						c18,0,32.6-14.6,32.6-32.6C257.1,85.3,242.5,70.6,224.5,70.6z"/>
				</g>
				<g>
					<path class="st0" d="M224.5,74.8c-0.2,0-0.3-0.1-0.3-0.3V72c0-0.2,0.1-0.3,0.3-0.3s0.3,0.1,0.3,0.3v2.5
						C224.8,74.7,224.7,74.8,224.5,74.8z"/>
				</g>
				<g>
					<path class="st0" d="M244.8,83.1c-0.1,0-0.2,0-0.2-0.1c-0.1-0.1-0.1-0.3,0-0.5l1.8-1.8c0.1-0.1,0.3-0.1,0.5,0
						c0.1,0.1,0.1,0.3,0,0.5l-1.8,1.8C245,83.1,244.9,83.1,244.8,83.1z"/>
				</g>
				<g>
					<path class="st0" d="M255.8,103.4h-2.5c-0.2,0-0.3-0.1-0.3-0.3c0-0.2,0.1-0.3,0.3-0.3h2.5c0.2,0,0.3,0.1,0.3,0.3
						C256.1,103.3,256,103.4,255.8,103.4z"/>
				</g>
				<g>
					<path class="st0" d="M195.9,103.6h-2.5c-0.2,0-0.3-0.1-0.3-0.3c0-0.2,0.1-0.3,0.3-0.3h2.5c0.2,0,0.3,0.1,0.3,0.3
						C196.2,103.5,196,103.6,195.9,103.6z"/>
				</g>
				<g>
					<path class="st0" d="M204.2,83.3c-0.1,0-0.2,0-0.2-0.1l-1.8-1.8c-0.1-0.1-0.1-0.3,0-0.5s0.3-0.1,0.5,0l1.8,1.8
						c0.1,0.1,0.1,0.3,0,0.5C204.4,83.2,204.3,83.3,204.2,83.3z"/>
				</g>
				<g>
					<g>
						<rect x="224.1" y="64.3" class="st0" width="0.7" height="1.4"/>
					</g>
					<g>
						
							<rect x="226.2" y="64.7" transform="matrix(6.349251e-02 -0.998 0.998 6.349251e-02 147.5649 287.3864)" class="st0" width="1.4" height="0.7"/>
					</g>
					<g>
						
							<rect x="228.6" y="65" transform="matrix(0.125 -0.9922 0.9922 0.125 135.8868 284.6595)" class="st0" width="1.4" height="0.7"/>
					</g>
					<g>
						
							<rect x="231" y="65.3" transform="matrix(0.1875 -0.9823 0.9823 0.1875 123.7886 280.9762)" class="st0" width="1.4" height="0.7"/>
					</g>
					<g>
						
							<rect x="233.4" y="65.9" transform="matrix(0.249 -0.9685 0.9685 0.249 111.7212 276.4453)" class="st0" width="1.4" height="0.7"/>
					</g>
					<g>
						
							<rect x="235.7" y="66.5" transform="matrix(0.3086 -0.9512 0.9512 0.3086 99.8798 271.1286)" class="st0" width="1.4" height="0.7"/>
					</g>
					<g>
						
							<rect x="238" y="67.3" transform="matrix(0.3682 -0.9297 0.9297 0.3682 87.9056 264.7166)" class="st0" width="1.4" height="0.7"/>
					</g>
					<g>
						
							<rect x="240.3" y="68.3" transform="matrix(0.426 -0.9047 0.9047 0.426 76.2181 257.4054)" class="st0" width="1.4" height="0.7"/>
					</g>
					<g>
						
							<rect x="242.4" y="69.4" transform="matrix(0.4812 -0.8766 0.8766 0.4812 65.0113 249.3161)" class="st0" width="1.4" height="0.7"/>
					</g>
					<g>
						
							<rect x="244.5" y="70.6" transform="matrix(0.5363 -0.844 0.844 0.5363 53.8155 239.8884)" class="st0" width="1.4" height="0.7"/>
					</g>
					<g>
						
							<rect x="246.5" y="72" transform="matrix(0.5881 -0.8088 0.8088 0.5881 43.3514 229.7725)" class="st0" width="1.4" height="0.7"/>
					</g>
					<g>
						
							<rect x="248.5" y="73.5" transform="matrix(0.6371 -0.7708 0.7708 0.6371 33.5322 218.845)" class="st0" width="1.4" height="0.7"/>
					</g>
					<g>
						
							<rect x="250.3" y="75.1" transform="matrix(0.6848 -0.7287 0.7287 0.6848 24.1559 206.6797)" class="st0" width="1.4" height="0.7"/>
					</g>
					<g>
						
							<rect x="252" y="76.8" transform="matrix(0.7297 -0.6838 0.6838 0.7297 15.574 193.6562)" class="st0" width="1.4" height="0.7"/>
					</g>
					<g>
						
							<rect x="253.6" y="78.6" transform="matrix(0.7709 -0.637 0.637 0.7709 7.9869 180.1028)" class="st0" width="1.4" height="0.7"/>
					</g>
					<g>
						
							<rect x="255.1" y="80.5" transform="matrix(0.8088 -0.588 0.588 0.8088 1.355 165.9011)" class="st0" width="1.4" height="0.7"/>
					</g>
					<g>
						
							<rect x="256.5" y="82.5" transform="matrix(0.8447 -0.5352 0.5352 0.8447 -4.4159 150.5276)" class="st0" width="1.4" height="0.7"/>
					</g>
					<g>
						
							<rect x="257.7" y="84.6" transform="matrix(0.876 -0.4824 0.4824 0.876 -8.9265 135.2126)" class="st0" width="1.4" height="0.7"/>
					</g>
					<g>
						
							<rect x="258.9" y="86.8" transform="matrix(0.9049 -0.4256 0.4256 0.9049 -12.3997 118.7565)" class="st0" width="1.4" height="0.7"/>
					</g>
					<g>
						
							<rect x="259.8" y="89" transform="matrix(0.9301 -0.3674 0.3674 0.9301 -14.6088 101.9632)" class="st0" width="1.4" height="0.7"/>
					</g>
					<g>
						
							<rect x="260.7" y="91.3" transform="matrix(0.9512 -0.3086 0.3086 0.9512 -15.5239 85.1274)" class="st0" width="1.4" height="0.7"/>
					</g>
					<g>
						
							<rect x="261.3" y="93.6" transform="matrix(0.9687 -0.2481 0.2481 0.9687 -15.1216 67.9467)" class="st0" width="1.4" height="0.7"/>
					</g>
					<g>
						
							<rect x="261.9" y="96" transform="matrix(0.9823 -0.1875 0.1875 0.9823 -13.4058 50.9303)" class="st0" width="1.4" height="0.7"/>
					</g>
					<g>
						
							<rect x="262.3" y="98.4" transform="matrix(0.9922 -0.125 0.125 0.9922 -10.2803 33.6439)" class="st0" width="1.4" height="0.7"/>
					</g>
					<g>
						
							<rect x="262.5" y="100.8" transform="matrix(0.998 -6.249657e-02 6.249657e-02 0.998 -5.808 16.647)" class="st0" width="1.4" height="0.7"/>
					</g>
					<g>
						<rect x="262.6" y="103.3" class="st0" width="1.4" height="0.7"/>
					</g>
					<g>
						
							<rect x="262.9" y="105.3" transform="matrix(6.275048e-02 -0.998 0.998 6.275048e-02 140.8817 362.0696)" class="st0" width="0.7" height="1.4"/>
					</g>
					<g>
						
							<rect x="262.7" y="107.7" transform="matrix(0.1253 -0.9921 0.9921 0.1253 122.4545 355.7833)" class="st0" width="0.7" height="1.4"/>
					</g>
					<g>
						
							<rect x="262.3" y="110.1" transform="matrix(0.1874 -0.9823 0.9823 0.1874 104.5153 348.0409)" class="st0" width="0.7" height="1.4"/>
					</g>
					<g>
						
							<rect x="261.8" y="112.5" transform="matrix(0.2488 -0.9685 0.9685 0.2488 87.2145 338.9013)" class="st0" width="0.7" height="1.4"/>
					</g>
					<g>
						
							<rect x="261.1" y="114.9" transform="matrix(0.3091 -0.951 0.951 0.3091 70.7235 328.4688)" class="st0" width="0.7" height="1.4"/>
					</g>
					<g>
						
							<rect x="260.3" y="117.1" transform="matrix(0.3681 -0.9298 0.9298 0.3681 55.0963 316.7723)" class="st0" width="0.7" height="1.4"/>
					</g>
					<g>
						
							<rect x="259.3" y="119.4" transform="matrix(0.4258 -0.9048 0.9048 0.4258 40.4422 303.8941)" class="st0" width="0.7" height="1.4"/>
					</g>
					<g>
						
							<rect x="258.2" y="121.6" transform="matrix(0.4817 -0.8764 0.8764 0.4817 26.8773 289.9492)" class="st0" width="0.7" height="1.4"/>
					</g>
					<g>
						
							<rect x="257" y="123.6" transform="matrix(0.5357 -0.8444 0.8444 0.5357 14.4621 275.0032)" class="st0" width="0.7" height="1.4"/>
					</g>
					<g>
						
							<rect x="255.6" y="125.7" transform="matrix(0.588 -0.8089 0.8089 0.588 3.2464 259.1021)" class="st0" width="0.7" height="1.4"/>
					</g>
					<g>
						
							<rect x="254.1" y="127.6" transform="matrix(0.6374 -0.7705 0.7705 0.6374 -6.5814 242.5938)" class="st0" width="0.7" height="1.4"/>
					</g>
					<g>
						
							<rect x="252.5" y="129.4" transform="matrix(0.6843 -0.7292 0.7292 0.6843 -15.0572 225.454)" class="st0" width="0.7" height="1.4"/>
					</g>
					<g>
						
							<rect x="250.8" y="131.1" transform="matrix(0.729 -0.6846 0.6846 0.729 -22.18 207.6646)" class="st0" width="0.7" height="1.4"/>
					</g>
					<g>
						
							<rect x="249" y="132.8" transform="matrix(0.7706 -0.6374 0.6374 0.7706 -27.8518 189.5406)" class="st0" width="0.7" height="1.4"/>
					</g>
					<g>
						
							<rect x="247.1" y="134.2" transform="matrix(0.8091 -0.5877 0.5877 0.8091 -32.0726 171.1748)" class="st0" width="0.7" height="1.4"/>
					</g>
					<g>
						
							<rect x="245.1" y="135.6" transform="matrix(0.8444 -0.5358 0.5358 0.8444 -34.8428 152.6993)" class="st0" width="0.7" height="1.4"/>
					</g>
					<g>
						
							<rect x="243" y="136.9" transform="matrix(0.8763 -0.4818 0.4818 0.8763 -36.1759 134.2524)" class="st0" width="0.7" height="1.4"/>
					</g>
					<g>
						
							<rect x="240.8" y="138" transform="matrix(0.9048 -0.4257 0.4257 0.9048 -36.0927 115.8684)" class="st0" width="0.7" height="1.4"/>
					</g>
					<g>
						
							<rect x="238.6" y="138.9" transform="matrix(0.9297 -0.3682 0.3682 0.9297 -34.6346 97.7979)" class="st0" width="0.7" height="1.4"/>
					</g>
					<g>
						
							<rect x="236.3" y="139.8" transform="matrix(0.9511 -0.309 0.309 0.9511 -31.8234 79.9835)" class="st0" width="0.7" height="1.4"/>
					</g>
					<g>
						
							<rect x="234" y="140.5" transform="matrix(0.9687 -0.2482 0.2482 0.9687 -27.7083 62.5855)" class="st0" width="0.7" height="1.4"/>
					</g>
					<g>
						
							<rect x="231.6" y="141" transform="matrix(0.9823 -0.1872 0.1872 0.9823 -22.4211 45.9116)" class="st0" width="0.7" height="1.4"/>
					</g>
					<g>
						
							<rect x="229.2" y="141.4" transform="matrix(0.9921 -0.1255 0.1255 0.9921 -16.0169 29.9305)" class="st0" width="0.7" height="1.4"/>
					</g>
					<g>
						
							<rect x="226.8" y="141.6" transform="matrix(0.998 -6.299972e-02 6.299972e-02 0.998 -8.515 14.591)" class="st0" width="0.7" height="1.4"/>
					</g>
					<g>
						<rect x="224.4" y="141.7" class="st0" width="0.7" height="1.4"/>
					</g>
					<g>
						
							<rect x="221.6" y="142" transform="matrix(6.249555e-02 -0.998 0.998 6.249555e-02 66.312 355.2611)" class="st0" width="1.4" height="0.7"/>
					</g>
					<g>
						
							<rect x="219.1" y="141.8" transform="matrix(0.125 -0.9922 0.9922 0.125 51.3586 342.458)" class="st0" width="1.4" height="0.7"/>
					</g>
					<g>
						
							<rect x="216.7" y="141.4" transform="matrix(0.1875 -0.9823 0.9823 0.1875 37.4459 328.7437)" class="st0" width="1.4" height="0.7"/>
					</g>
					<g>
						
							<rect x="214.4" y="140.9" transform="matrix(0.2489 -0.9685 0.9685 0.2489 24.7566 314.351)" class="st0" width="1.4" height="0.7"/>
					</g>
					<g>
						
							<rect x="212" y="140.2" transform="matrix(0.3086 -0.9512 0.9512 0.3086 13.394 299.5099)" class="st0" width="1.4" height="0.7"/>
					</g>
					<g>
						
							<rect x="209.7" y="139.4" transform="matrix(0.3682 -0.9297 0.9297 0.3682 3.041 283.9233)" class="st0" width="1.4" height="0.7"/>
					</g>
					<g>
						
							<rect x="207.5" y="138.4" transform="matrix(0.4256 -0.9049 0.9049 0.4256 -5.983 268.1028)" class="st0" width="1.4" height="0.7"/>
					</g>
					<g>
						
							<rect x="205.3" y="137.3" transform="matrix(0.4816 -0.8764 0.8764 0.4816 -13.8457 251.9258)" class="st0" width="1.4" height="0.7"/>
					</g>
					<g>
						
							<rect x="203.2" y="136.1" transform="matrix(0.5358 -0.8443 0.8443 0.5358 -20.5329 235.5208)" class="st0" width="1.4" height="0.7"/>
					</g>
					<g>
						
							<rect x="201.2" y="134.7" transform="matrix(0.588 -0.8089 0.8089 0.588 -26.0644 218.9761)" class="st0" width="1.4" height="0.7"/>
					</g>
					<g>
						
							<rect x="199.3" y="133.3" transform="matrix(0.6376 -0.7704 0.7704 0.6376 -30.4333 202.4849)" class="st0" width="1.4" height="0.7"/>
					</g>
					<g>
						
							<rect x="197.5" y="131.7" transform="matrix(0.6848 -0.7288 0.7288 0.6848 -33.7175 186.0225)" class="st0" width="1.4" height="0.7"/>
					</g>
					<g>
						
							<rect x="195.7" y="129.9" transform="matrix(0.7287 -0.6848 0.6848 0.7287 -35.9205 169.8643)" class="st0" width="1.4" height="0.7"/>
					</g>
					<g>
						
							<rect x="194.1" y="128.1" transform="matrix(0.7704 -0.6376 0.6376 0.7704 -37.1618 153.7175)" class="st0" width="1.4" height="0.7"/>
					</g>
					<g>
						
							<rect x="192.6" y="126.2" transform="matrix(0.8088 -0.5881 0.5881 0.8088 -37.4479 137.8823)" class="st0" width="1.4" height="0.7"/>
					</g>
					<g>
						
							<rect x="191.3" y="124.2" transform="matrix(0.8443 -0.5359 0.5359 0.8443 -36.842 122.2504)" class="st0" width="1.4" height="0.7"/>
					</g>
					<g>
						
							<rect x="190" y="122.1" transform="matrix(0.8764 -0.4816 0.4816 0.8764 -35.3918 106.987)" class="st0" width="1.4" height="0.7"/>
					</g>
					<g>
						
							<rect x="188.9" y="119.9" transform="matrix(0.9049 -0.4256 0.4256 0.9049 -33.1596 92.1374)" class="st0" width="1.4" height="0.7"/>
					</g>
					<g>
						
							<rect x="187.9" y="117.7" transform="matrix(0.9298 -0.3681 0.3681 0.9298 -30.2089 77.7324)" class="st0" width="1.4" height="0.7"/>
					</g>
					<g>
						
							<rect x="187.1" y="115.4" transform="matrix(0.9512 -0.3086 0.3086 0.9512 -26.5578 63.6102)" class="st0" width="1.4" height="0.7"/>
					</g>
					<g>
						
							<rect x="186.4" y="113.1" transform="matrix(0.9685 -0.2489 0.2489 0.9685 -22.345 50.1505)" class="st0" width="1.4" height="0.7"/>
					</g>
					<g>
						
							<rect x="185.9" y="110.7" transform="matrix(0.9823 -0.1875 0.1875 0.9823 -17.5119 36.9492)" class="st0" width="1.4" height="0.7"/>
					</g>
					<g>
						
							<rect x="185.5" y="108.3" transform="matrix(0.9922 -0.125 0.125 0.9922 -12.121 24.1259)" class="st0" width="1.4" height="0.7"/>
					</g>
					<g>
						
							<rect x="185.3" y="105.9" transform="matrix(0.998 -6.249657e-02 6.249657e-02 0.998 -6.2758 11.8297)" class="st0" width="1.4" height="0.7"/>
					</g>
					<g>
						<rect x="185.2" y="103.5" class="st0" width="1.4" height="0.7"/>
					</g>
					<g>
						
							<rect x="185.6" y="100.7" transform="matrix(6.275048e-02 -0.998 0.998 6.275048e-02 73.1059 280.5969)" class="st0" width="0.7" height="1.4"/>
					</g>
					<g>
						
							<rect x="185.8" y="98.3" transform="matrix(0.1253 -0.9921 0.9921 0.1253 64.675 271.2627)" class="st0" width="0.7" height="1.4"/>
					</g>
					<g>
						
							<rect x="186.2" y="95.8" transform="matrix(0.1874 -0.9823 0.9823 0.1874 56.7498 261.7013)" class="st0" width="0.7" height="1.4"/>
					</g>
					<g>
						
							<rect x="186.7" y="93.5" transform="matrix(0.2487 -0.9686 0.9686 0.2487 49.3199 251.9409)" class="st0" width="0.7" height="1.4"/>
					</g>
					<g>
						
							<rect x="187.4" y="91.1" transform="matrix(0.3092 -0.951 0.951 0.3092 42.3566 241.9896)" class="st0" width="0.7" height="1.4"/>
					</g>
					<g>
						
							<rect x="188.2" y="88.8" transform="matrix(0.3683 -0.9297 0.9297 0.3683 35.8532 231.8696)" class="st0" width="0.7" height="1.4"/>
					</g>
					<g>
						
							<rect x="189.2" y="86.6" transform="matrix(0.4259 -0.9048 0.9048 0.4259 29.8011 221.599)" class="st0" width="0.7" height="1.4"/>
					</g>
					<g>
						
							<rect x="190.3" y="84.4" transform="matrix(0.4818 -0.8763 0.8763 0.4818 24.1669 211.1599)" class="st0" width="0.7" height="1.4"/>
					</g>
					<g>
						
							<rect x="191.5" y="82.3" transform="matrix(0.5358 -0.8443 0.8443 0.5358 18.9282 200.5325)" class="st0" width="0.7" height="1.4"/>
					</g>
					<g>
						
							<rect x="192.9" y="80.3" transform="matrix(0.5878 -0.809 0.809 0.5878 14.0765 189.7021)" class="st0" width="0.7" height="1.4"/>
					</g>
					<g>
						
							<rect x="194.4" y="78.4" transform="matrix(0.6374 -0.7705 0.7705 0.6374 9.6353 178.6984)" class="st0" width="0.7" height="1.4"/>
					</g>
					<g>
						
							<rect x="196" y="76.6" transform="matrix(0.6846 -0.729 0.729 0.6846 5.5842 167.4704)" class="st0" width="0.7" height="1.4"/>
					</g>
					<g>
						
							<rect x="197.7" y="74.9" transform="matrix(0.729 -0.6846 0.6846 0.729 1.945 156.0304)" class="st0" width="0.7" height="1.4"/>
					</g>
					<g>
						
							<rect x="199.5" y="73.2" transform="matrix(0.7706 -0.6373 0.6373 0.7706 -1.289 144.3111)" class="st0" width="0.7" height="1.4"/>
					</g>
					<g>
						
							<rect x="201.4" y="71.7" transform="matrix(0.809 -0.5878 0.5878 0.809 -4.0511 132.4353)" class="st0" width="0.7" height="1.4"/>
					</g>
					<g>
						
							<rect x="203.4" y="70.4" transform="matrix(0.8444 -0.5357 0.5357 0.8444 -6.375 120.2074)" class="st0" width="0.7" height="1.4"/>
					</g>
					<g>
						
							<rect x="205.5" y="69.1" transform="matrix(0.8763 -0.4818 0.4818 0.8763 -8.1804 107.8127)" class="st0" width="0.7" height="1.4"/>
					</g>
					<g>
						
							<rect x="207.7" y="68" transform="matrix(0.9048 -0.4257 0.4257 0.9048 -9.4661 95.0996)" class="st0" width="0.7" height="1.4"/>
					</g>
					<g>
						
							<rect x="209.9" y="67.1" transform="matrix(0.9297 -0.3683 0.3683 0.9297 -10.1758 82.1902)" class="st0" width="0.7" height="1.4"/>
					</g>
					<g>
						
							<rect x="212.2" y="66.2" transform="matrix(0.9511 -0.309 0.309 0.9511 -10.2791 68.9466)" class="st0" width="0.7" height="1.4"/>
					</g>
					<g>
						
							<rect x="214.5" y="65.5" transform="matrix(0.9686 -0.2485 0.2485 0.9686 -9.7204 55.4596)" class="st0" width="0.7" height="1.4"/>
					</g>
					<g>
						
							<rect x="216.9" y="65" transform="matrix(0.9823 -0.1873 0.1873 0.9823 -8.4627 41.8575)" class="st0" width="0.7" height="1.4"/>
					</g>
					<g>
						
							<rect x="219.3" y="64.6" transform="matrix(0.9921 -0.1253 0.1253 0.9921 -6.4522 28.0283)" class="st0" width="0.7" height="1.4"/>
					</g>
					<g>
						
							<rect x="221.7" y="64.4" transform="matrix(0.998 -6.297728e-02 6.297728e-02 0.998 -3.6578 14.1132)" class="st0" width="0.7" height="1.4"/>
					</g>
				</g>
			</g>
		</g>
		<g>
			<path class="st2" d="M296,103.9h-28.5v-0.5c0-23.6-19.2-42.8-42.8-42.8c-23.6,0-42.8,19.2-42.8,42.8v0.5h-29
				c-0.3,0-0.5-0.2-0.5-0.5c0-0.3,0.2-0.5,0.5-0.5h28c0.3-23.9,19.8-43.3,43.8-43.3c24,0,43.6,19.4,43.8,43.3H296
				c0.3,0,0.5,0.2,0.5,0.5C296.5,103.7,296.3,103.9,296,103.9z"/>
		</g>
	</g>
	<g>
		<g>
			<g>
				<path class="st2" d="M141.3,101.9c0,1.6-1.3,2.9-2.9,2.9c-1.6,0-2.9-1.3-2.9-2.9c0-1.6,1.3-2.9,2.9-2.9
					C140.1,99,141.3,100.3,141.3,101.9z"/>
				<circle class="st2" cx="130.1" cy="91.8" r="2.9"/>
				<path class="st2" d="M103.9,104.1c0,0.8-0.7,1.5-1.5,1.5c-0.8,0-1.5-0.7-1.5-1.5c0-0.8,0.7-1.5,1.5-1.5
					C103.3,102.6,103.9,103.3,103.9,104.1z"/>
				<path class="st2" d="M96.2,96c0,0.8-0.7,1.5-1.5,1.5c-0.8,0-1.5-0.7-1.5-1.5c0-0.8,0.7-1.5,1.5-1.5C95.5,94.5,96.2,95.2,96.2,96
					z"/>
				<path class="st2" d="M74.2,96c0,0.8-0.7,1.5-1.5,1.5s-1.5-0.7-1.5-1.5c0-0.8,0.7-1.5,1.5-1.5S74.2,95.2,74.2,96z"/>
				<path class="st2" d="M121.7,104.1c0,0.8-0.7,1.5-1.5,1.5c-0.8,0-1.5-0.7-1.5-1.5c0-0.8,0.7-1.5,1.5-1.5
					C121,102.6,121.7,103.3,121.7,104.1z"/>
				<circle class="st2" cx="138.5" cy="91.8" r="2.9"/>
				<path class="st2" d="M130.1,99c1.6,0,2.9,1.3,2.9,2.9c0,1.6-1.3,2.9-2.9,2.9c-1.6,0-2.9-1.3-2.9-2.9
					C127.2,100.3,128.5,99,130.1,99z"/>
				<path class="st2" d="M85.2,96c0,0.8-0.7,1.5-1.5,1.5c-0.8,0-1.5-0.7-1.5-1.5c0-0.8,0.7-1.5,1.5-1.5C84.5,94.5,85.2,95.2,85.2,96
					z"/>
				<circle class="st2" cx="138.5" cy="91.8" r="2.9"/>
				<path class="st2" d="M130.1,99c1.6,0,2.9,1.3,2.9,2.9c0,1.6-1.3,2.9-2.9,2.9c-1.6,0-2.9-1.3-2.9-2.9
					C127.2,100.3,128.5,99,130.1,99z"/>
				<path class="st2" d="M85.2,96c0,0.8-0.7,1.5-1.5,1.5c-0.8,0-1.5-0.7-1.5-1.5c0-0.8,0.7-1.5,1.5-1.5C84.5,94.5,85.2,95.2,85.2,96
					z"/>
			</g>
			<g>
				<path class="st2" d="M308.7,101.9c0,1.6,1.3,2.9,2.9,2.9c1.6,0,2.9-1.3,2.9-2.9c0-1.6-1.3-2.9-2.9-2.9
					C309.9,99,308.7,100.3,308.7,101.9z"/>
				<circle class="st2" cx="319.9" cy="91.8" r="2.9"/>
				<path class="st2" d="M346.1,104.1c0,0.8,0.7,1.5,1.5,1.5c0.8,0,1.5-0.7,1.5-1.5c0-0.8-0.7-1.5-1.5-1.5
					C346.7,102.6,346.1,103.3,346.1,104.1z"/>
				<path class="st2" d="M353.8,96c0,0.8,0.7,1.5,1.5,1.5c0.8,0,1.5-0.7,1.5-1.5c0-0.8-0.7-1.5-1.5-1.5
					C354.5,94.5,353.8,95.2,353.8,96z"/>
				<path class="st2" d="M375.8,96c0,0.8,0.7,1.5,1.5,1.5c0.8,0,1.5-0.7,1.5-1.5c0-0.8-0.7-1.5-1.5-1.5
					C376.4,94.5,375.8,95.2,375.8,96z"/>
				<path class="st2" d="M328.3,104.1c0,0.8,0.7,1.5,1.5,1.5c0.8,0,1.5-0.7,1.5-1.5c0-0.8-0.7-1.5-1.5-1.5
					C329,102.6,328.3,103.3,328.3,104.1z"/>
				<path class="st2" d="M308.7,91.8c0,1.6,1.3,2.9,2.9,2.9c1.6,0,2.9-1.3,2.9-2.9c0-1.6-1.3-2.9-2.9-2.9
					C309.9,88.9,308.7,90.2,308.7,91.8z"/>
				<path class="st2" d="M319.9,99c-1.6,0-2.9,1.3-2.9,2.9c0,1.6,1.3,2.9,2.9,2.9c1.6,0,2.9-1.3,2.9-2.9
					C322.8,100.3,321.5,99,319.9,99z"/>
				<path class="st2" d="M364.8,96c0,0.8,0.7,1.5,1.5,1.5c0.8,0,1.5-0.7,1.5-1.5c0-0.8-0.7-1.5-1.5-1.5
					C365.5,94.5,364.8,95.2,364.8,96z"/>
				<path class="st2" d="M308.7,91.8c0,1.6,1.3,2.9,2.9,2.9c1.6,0,2.9-1.3,2.9-2.9c0-1.6-1.3-2.9-2.9-2.9
					C309.9,88.9,308.7,90.2,308.7,91.8z"/>
				<path class="st2" d="M319.9,99c-1.6,0-2.9,1.3-2.9,2.9c0,1.6,1.3,2.9,2.9,2.9c1.6,0,2.9-1.3,2.9-2.9
					C322.8,100.3,321.5,99,319.9,99z"/>
				<path class="st2" d="M364.8,96c0,0.8,0.7,1.5,1.5,1.5c0.8,0,1.5-0.7,1.5-1.5c0-0.8-0.7-1.5-1.5-1.5
					C365.5,94.5,364.8,95.2,364.8,96z"/>
			</g>
		</g>
	</g>
	<path class="st2" d="M357.2,133.9h-29.5v-3.2h29.5V133.9z M328.5,133.1h27.9v-1.6h-27.9V133.1z"/>
	<rect x="372.9" y="131.1" class="st2" width="12.7" height="2.4"/>
	<rect x="360" y="131.1" class="st2" width="10.5" height="2.4"/>
	<rect x="328.1" y="137.5" class="st2" width="12.6" height="2.4"/>
	<rect x="363.2" y="137.5" class="st2" width="22.4" height="2.4"/>
	<path class="st2" d="M361.2,140.3h-17.7v-3.2h17.7V140.3z M344.3,139.5h16.1v-1.6h-16.1V139.5z"/>
	<path class="st2" d="M357.2,133.9h-29.5v-3.2h29.5V133.9z M328.5,133.1h27.9v-1.6h-27.9V133.1z"/>
	<rect x="363.2" y="137.5" class="st2" width="22.4" height="2.4"/>
	<path class="st2" d="M361.2,140.3h-17.7v-3.2h17.7V140.3z M344.3,139.5h16.1v-1.6h-16.1V139.5z"/>
</g>
<g>
	<polygon class="st2" points="136.5,10.7 130.3,6.6 138.3,6.6 141.4,1.5 144.7,6.5 152.1,6.5 146.8,10.3 149.8,17.4 141.6,13.9 
		134.2,17.9 	"/>
	<g>
		<g>
			<polygon class="st0" points="151,41.8 140.9,41.8 140.9,16.7 141.3,16.4 151,19.6 			"/>
			<polygon class="st0" points="160,9.6 163.2,6.4 174.5,6.4 179.2,10.8 179.2,41.8 169,41.8 169,15.6 165,15.6 165,41.8 155,41.8 
				155,15.6 151.3,15.6 148.9,10.7 154.8,6.4 157.2,6.4 			"/>
			<path class="st0" d="M181.8,41.8V22.6l2.8-2.3h10.4l2.8,2.3v19.3h-6.8v-5.9h-2.4v5.9H181.8z M188.7,30.3h2.4v-4.5h-2.4V30.3z"/>
			<path class="st0" d="M204.6,25.8h-4.7v-5.6H216v5.6h-4.6v16h-6.8V25.8z"/>
		</g>
		<path class="st0" d="M227.2,41.8v-8.1h-2.4v8.1H218V20.2h6.9v7.9h2.4v-7.9h6.8v21.6H227.2z"/>
		<path class="st0" d="M236,22.4l2.7-2.2h11.1v5.6h-6.9v2.3h6.9v5.6h-6.9v2.5h6.9v5.6h-10.9l-2.9-2.6V22.4z"/>
		<path class="st0" d="M258.6,41.8h-6.9V20.2h13.6l2.5,2.2v8.4l-2.5,2.2l2.5,2.2v6.6H261v-5.9h-2.4V41.8z M261,25.8h-2.4v4.5h2.4
			V25.8z"/>
		<path class="st0" d="M272.7,41.8l-2.9-2.7V22.6l2.8-2.3h10.4l2.8,2.3v16.6l-2.9,2.7H272.7z M279.1,36.2V25.8h-2.4v10.4H279.1z"/>
		<path class="st0" d="M287.9,22.4l2.7-2.2h11.1v5.6h-6.9v2.3h6.9v5.6h-6.9v2.5h6.9v5.6h-10.9l-2.9-2.6V22.4z"/>
		<path class="st0" d="M303.6,41.8v-5.6h9.3v-2.5h-6.8l-2.5-2.2v-9.2l2.6-2.2h13.6v5.6h-9.3v2.3h6.9l2.4,2.2v9l-2.5,2.5H303.6z"/>
		<g>
			<path class="st0" d="M184.7,9h-2.3V6.4h7.7V9h-2.2v7.7h-3.3V9z"/>
			<path class="st0" d="M195.5,16.7v-3.9h-1.2v3.9h-3.3V6.4h3.3v3.8h1.2V6.4h3.3v10.3H195.5z"/>
			<path class="st0" d="M199.7,7.4l1.3-1.1h5.3V9H203v1.1h3.3v2.7H203V14h3.3v2.7h-5.2l-1.4-1.3V7.4z"/>
		</g>
	</g>
</g>
</svg>
