<?xml version="1.0" encoding="utf-8"?>
<!-- Generator: Adobe Illustrator 23.1.1, SVG Export Plug-In . SVG Version: 6.00 Build 0)  -->
<svg version="1.1" id="Capa_1" xmlns="http://www.w3.org/2000/svg" xmlns:xlink="http://www.w3.org/1999/xlink" x="0px" y="0px"
	 viewBox="0 0 380 160" style="enable-background:new 0 0 380 160;" xml:space="preserve">
<polygon points="78.5,27.1 56.6,27.1 56.6,25.1 76.5,25.1 76.5,5.2 78.5,5.2 "/>
<polygon points="43.2,26.8 32.1,15.6 43.2,4.5 44.6,5.9 34.9,15.6 44.6,25.4 "/>
<polygon points="118.8,26.8 117.4,25.4 127.1,15.6 117.4,5.9 118.8,4.5 130,15.6 "/>
<polygon points="5.2,69.2 3.7,67.8 13.5,58.1 3.7,48.4 5.2,46.9 16.3,58.1 "/>
<polygon points="218.1,69.2 216.7,67.8 226.5,58.1 216.7,48.4 218.1,46.9 229.3,58.1 "/>
<polygon points="89.9,69.2 78.7,58.1 89.9,46.9 91.3,48.4 81.6,58.1 91.3,67.8 "/>
<polygon points="149.8,25.1 138.6,14 140,12.5 149.8,22.3 159.5,12.5 160.9,14 "/>
<polygon points="201.8,8.5 213,19.6 211.6,21.1 201.8,11.3 192.1,21.1 190.7,19.6 "/>
<polygon points="316.1,25.1 305,14 306.4,12.5 316.1,22.3 325.8,12.5 327.3,14 "/>
<path d="M106.2,27.1H83.3V4.2h22.9C106.2,4.2,106.2,27.1,106.2,27.1z M85.3,25.1h18.9V6.2H85.3V25.1z"/>
<path d="M50.9,69.5H28V46.6h22.9V69.5z M30,67.5h18.9V48.6H30V67.5z"/>
<path d="M97.5,110.6H74.6V87.7h22.9V110.6z M76.6,108.6h18.9V89.7H76.6V108.6z"/>
<path d="M289.7,111.9h-22.9V89h22.9V111.9z M268.8,109.9h18.9V91h-18.9V109.9z"/>
<path d="M205.7,69.5h-22.9V46.6h22.9V69.5z M184.9,67.5h18.9V48.6h-18.9V67.5z"/>
<path d="M289.6,69.5h-22.9V46.6h22.9V69.5z M268.8,67.5h18.9V48.6h-18.9V67.5z"/>
<path d="M239.3,27.1h-22.9V4.2h22.9V27.1z M218.5,25.1h18.9V6.2h-18.9V25.1z"/>
<path d="M94.7,23.1c-1.1,0-2.1-0.9-2.1-2.1s0.9-2.1,2.1-2.1c1.1,0,2.1,0.9,2.1,2.1S95.9,23.1,94.7,23.1z"/>
<polygon points="176.8,110.9 174.8,110.9 174.8,91.1 155,91.1 155,89.1 176.8,89.1 "/>
<path d="M167.4,96.1c0-1.1,0.9-2.1,2.1-2.1c1.1,0,2.1,0.9,2.1,2.1c0,1.1-0.9,2.1-2.1,2.1C168.4,98.1,167.4,97.2,167.4,96.1z"/>
<polygon points="102.5,89.1 104.5,89.1 104.5,108.9 124.4,108.9 124.4,110.9 102.5,110.9 "/>
<path d="M111.9,103.9c0,1.1-0.9,2.1-2.1,2.1c-1.1,0-2.1-0.9-2.1-2.1c0-1.1,0.9-2.1,2.1-2.1C111,101.9,111.9,102.8,111.9,103.9z"/>
<polygon points="243.8,154.4 241.8,154.4 241.8,132.5 263.7,132.5 263.7,134.5 243.8,134.5 "/>
<path d="M249.2,141.6c-1.1,0-2.1-0.9-2.1-2.1c0-1.1,0.9-2.1,2.1-2.1s2.1,0.9,2.1,2.1C251.2,140.7,250.2,141.6,249.2,141.6z"/>
<path d="M124.9,69.5H102V46.6h22.9V69.5z M104,67.5h18.9V48.6H104V67.5z"/>
<path d="M113.5,65.5c-1.1,0-2.1-0.9-2.1-2.1c0-1.1,0.9-2.1,2.1-2.1c1.1,0,2.1,0.9,2.1,2.1C115.5,64.6,114.6,65.5,113.5,65.5z"/>
<path d="M201.9,19.6c-1.1,0-2.1-0.9-2.1-2.1c0-1.1,0.9-2.1,2.1-2.1c1.1,0,2.1,0.9,2.1,2.1C203.9,18.7,203,19.6,201.9,19.6z"/>
<polygon points="177.3,69.5 155.4,69.5 155.4,67.5 175.3,67.5 175.3,48.6 155.4,48.6 155.4,46.6 177.3,46.6 "/>
<path d="M170.9,60.1c-1.1,0-2.1-0.9-2.1-2.1s0.9-2.1,2.1-2.1c1.1,0,2.1,0.9,2.1,2.1S172.1,60.1,170.9,60.1z"/>
<polygon points="319.8,112 297.9,112 297.9,110 317.8,110 317.8,91.1 297.9,91.1 297.9,89.1 319.8,89.1 "/>
<path d="M313.4,102.6c-1.1,0-2.1-0.9-2.1-2.1c0-1.1,0.9-2.1,2.1-2.1c1.1,0,2.1,0.9,2.1,2.1S314.5,102.6,313.4,102.6z"/>
<polygon points="241.8,68.5 239.8,68.5 239.8,46.6 261.6,46.6 261.6,48.6 241.8,48.6 "/>
<path d="M246.2,56c1.1,0,2.1,0.9,2.1,2.1s-0.9,2.1-2.1,2.1c-1.1,0-2.1-0.9-2.1-2.1S245,56,246.2,56z"/>
<polygon points="223.6,155.1 222.2,153.7 231.9,144 222.2,134.3 223.6,132.8 234.8,144 "/>
<polygon points="104.3,155.4 82.4,155.4 82.4,153.4 102.3,153.4 102.3,133.5 104.3,133.5 "/>
<polygon points="24.8,155.4 2.9,155.4 2.9,153.4 22.8,153.4 22.8,133.5 24.8,133.5 "/>
<polygon points="158.3,155.4 136.4,155.4 136.4,132.5 158.3,132.5 158.3,134.5 138.4,134.5 138.4,153.4 158.3,153.4 "/>
<path d="M145.6,144c0,1.1-0.9,2.1-2.1,2.1c-1.1,0-2.1-0.9-2.1-2.1c0-1.1,0.9-2.1,2.1-2.1S145.6,142.9,145.6,144z"/>
<polygon points="185.4,155.4 163.5,155.4 163.5,153.4 183.4,153.4 183.4,134.5 163.5,134.5 163.5,132.5 185.4,132.5 "/>
<path d="M176.3,144c0-1.1,0.9-2.1,2.1-2.1s2.1,0.9,2.1,2.1c0,1.1-0.9,2.1-2.1,2.1S176.3,145.1,176.3,144z"/>
<path d="M131.4,155.4h-22.9v-22.9h22.9V155.4z M110.5,153.4h18.9v-18.9h-18.9V153.4z"/>
<path d="M119.9,151.4c-1.1,0-2.1-0.9-2.1-2.1c0-1.1,0.9-2.1,2.1-2.1c1.1,0,2.1,0.9,2.1,2.1S121.1,151.4,119.9,151.4z"/>
<path d="M78.2,155.4H55.4v-22.9h22.9L78.2,155.4L78.2,155.4z M57.4,153.4h18.9v-18.9H57.4V153.4z"/>
<path d="M66.8,151.4c-1.1,0-2.1-0.9-2.1-2.1c0-1.1,0.9-2.1,2.1-2.1c1.1,0,2.1,0.9,2.1,2.1C68.8,150.5,67.9,151.4,66.8,151.4z"/>
<path d="M212.5,155.4h-22.9v-22.9h22.9V155.4z M191.6,153.4h18.9v-18.9h-18.9V153.4z"/>
<path d="M291.2,155.4h-22.9v-22.9h22.9V155.4z M270.4,153.4h18.9v-18.9h-18.9V153.4z"/>
<polygon points="2.9,26.1 2.9,4.7 25.8,4.7 25.8,26.1 23.8,26.1 23.8,6.7 4.9,6.7 4.9,26.1 "/>
<path d="M14.4,8.6c1.1,0,2.1,0.9,2.1,2.1c0,1.1-0.9,2.1-2.1,2.1c-1.1,0-2.1-0.9-2.1-2.1C12.3,9.5,13.2,8.6,14.4,8.6z"/>
<polygon points="205.2,112 183.3,112 183.3,110 203.2,110 203.2,90.1 205.2,90.1 "/>
<polygon points="13.9,110 2.7,98.8 4.2,97.4 13.9,107.2 23.6,97.4 25,98.8 "/>
<polygon points="223,110 211.9,98.8 213.2,97.4 223,107.2 232.8,97.4 234.1,98.8 "/>
<polygon points="250.6,110 239.5,98.8 240.9,97.4 250.6,107.2 260.4,97.4 261.9,98.8 "/>
<polygon points="307.7,152.5 296.5,141.4 297.9,140 307.7,149.7 317.4,140 318.8,141.4 "/>
<polygon points="30.5,110.9 28.5,110.9 28.5,89.1 50.4,89.1 50.4,91.1 30.5,91.1 "/>
<path d="M32.5,100.5"/>
<polygon points="294.6,27.1 272.8,27.1 272.8,4.2 294.6,4.2 294.6,6.2 274.8,6.2 274.8,25.1 294.6,25.1 "/>
<path d="M276.7,15.6c0-1.1,0.9-2.1,2.1-2.1c1.1,0,2.1,0.9,2.1,2.1c0,1.1-0.9,2.1-2.1,2.1C277.7,17.7,276.7,16.8,276.7,15.6z"/>
<polygon points="247.4,26.1 245.4,26.1 245.4,4.2 267.3,4.2 267.3,6.2 247.4,6.2 "/>
<path d="M249.4,15.6c0-1.1,0.9-2.1,2.1-2.1c1.1,0,2.1,0.9,2.1,2.1c0,1.1-0.9,2.1-2.1,2.1C250.3,17.7,249.4,16.8,249.4,15.6z"/>
</svg>
