<?xml version="1.0" encoding="utf-8"?>
<!-- Generator: Adobe Illustrator 23.1.1, SVG Export Plug-In . SVG Version: 6.00 Build 0)  -->
<svg version="1.1" id="Capa_1" xmlns="http://www.w3.org/2000/svg" xmlns:xlink="http://www.w3.org/1999/xlink" x="0px" y="0px"
	 viewBox="0 0 340 220" style="enable-background:new 0 0 340 220;" xml:space="preserve">
<style type="text/css">
	.st0{fill:#E400FF;}
	.st1{fill:#FFDF00;}
	.st2{fill:#DF172F;}
	.st3{fill:#171829;}
</style>
<g>
	<rect x="65.7" y="195.2" class="st0" width="18.1" height="18.1"/>
	<rect x="43.2" y="195.2" class="st1" width="18.1" height="18.1"/>
	<rect x="20.7" y="195.2" class="st2" width="18.1" height="18.1"/>
</g>
<g>
	<rect x="181.8" y="195.2" class="st2" width="18.1" height="18.1"/>
	<rect x="159.3" y="195.2" class="st0" width="18.1" height="18.1"/>
	<rect x="136.8" y="195.2" class="st1" width="18.1" height="18.1"/>
</g>
<g>
	<rect x="252.9" y="195.2" class="st0" width="18.1" height="18.1"/>
	<rect x="275.4" y="195.2" class="st1" width="18.1" height="18.1"/>
	<rect x="297.9" y="195.2" class="st2" width="18.1" height="18.1"/>
</g>
<g>
	<path class="st3" d="M17.4,108.4c0.1-0.1,0.2-0.2,0.3-0.3c0-0.2,0-0.3-0.1-0.5c0,0-0.1-0.1-0.2-0.1c0,0,0,0,0,0
		c0-0.1,0.1-0.2,0.1-0.3c1-1.1,3.9-4.2,4-4.2c0.1-0.1,0.1-0.2,0.1-0.4c0-0.1-0.1-0.3-0.2-0.3c-0.5-0.5-1.4-1.5-1.5-2l-0.2-1.3
		c0-0.1-0.1-0.3-0.2-0.3l-3.1-1.9c-0.2-0.4-0.4-0.9-0.4-1.1c0-0.1,0-0.1,0-0.2c-0.1-0.3-0.1-1.5,0.5-1.9c0.2-0.2,0.3-0.4,0.1-0.6
		l-0.8-1.4c-0.1-0.2-0.4-0.3-0.6-0.2c-0.2,0.1-0.4,0.3-0.4,0.5c0.1,1.3-0.2,3.3-0.4,4.5l0,0.3c0,0.1,0,0.3,0.1,0.4l0.7,1
		c0,0.1,0.1,0.1,0.2,0.1l2.6,1.5c0.7,1.1,1.4,2.5,1.3,3c-0.1,0.6-1.5,2.4-2.3,3.4c0,0-0.1,0.1-0.1,0.1c0,0-0.1,0.1-0.1,0.4
		c-0.8-0.8-1.6-1.9-2.1-2.5c-0.1-0.1-0.2-0.2-0.3-0.2l-1.2-0.2c-0.1,0-0.2,0-0.3,0l-2.9,1.1c-1.3-0.2-2.9-0.6-3.1-1
		c-0.4-0.5-0.8-2.6-1-4c0,0,0-0.1,0-0.1c-0.1-0.2-0.9-1.8-1.7-2.5C4,97,3.9,96.8,4,96.4c0.1-0.7,0.7-1.7,1.8-2.2
		c0.6-0.1,1.2,0,1.3,0.1c0.1,0.1,0.3,0.2,0.4,0.1c0.2,0,0.3-0.1,0.4-0.2c0.4-0.7,1.2-1.8,1.7-2.1c0.2-0.1,0.3-0.3,0.2-0.5
		c-0.2-0.9-0.2-2,0-2.3c0.1-0.1,0.1-0.3,0.1-0.4c0-0.1-0.1-0.3-0.2-0.3c-1.2-0.7-3.2-2.2-3.4-3.2c0-0.3-0.3-0.5-0.6-0.4
		c-0.3,0-0.5,0.3-0.4,0.5l0.2,1.9c0,0.1,0.1,0.2,0.1,0.3l1.6,1.6l0.2,1.6l-1.2,1.3c-0.4,0.2-1.8,0.9-2.2,1c-0.4,0.2-0.5,0.5-0.7,0.9
		c-0.2,0.5-0.4,1-1.1,1.3c-0.2,0.1-0.3,0.3-0.3,0.5C2,96.3,2.1,97.4,2,97.9c0,0.3,0.1,0.5,0.4,0.6c0.4,0.1,1.7,0.5,1.8,1.2
		c0.3,1.2,0.9,5.7,0.9,5.7c0,0.1,0.1,0.3,0.2,0.3c0.1,0.1,0.2,0.1,0.4,0.1c0.8-0.1,2-0.1,2.5,0.1l1.1,0.7c0.1,0.1,0.3,0.1,0.4,0.1
		l3.4-1.1c0.5,0.2,1.1,0.4,1.2,0.4c0.2,0.1,1.2,0.8,1.1,1.6c0,0.2,0.1,0.5,0.4,0.5l0.3,0.1c-0.1,0.3-0.1,0.6-0.1,0.9
		c0,0.1-0.1,0.3-0.4,0.5c-0.6,0.4-1.8,0.6-2.8,0c-0.5-0.4-0.9-0.9-0.9-1.1c0-0.1-0.1-0.3-0.2-0.4c-0.1-0.1-0.3-0.1-0.4-0.1
		c-0.8,0.1-2.2,0.3-2.7,0.1c-0.2-0.1-0.4,0-0.5,0.2c-0.6,0.8-1.5,1.5-1.7,1.5c-0.1,0-0.3,0.1-0.4,0.2c-0.1,0.1-0.1,0.3-0.1,0.4
		c0.3,1.4,0.4,3.9-0.3,4.7c-0.2,0.2-0.2,0.5,0,0.7c0.1,0.1,0.2,0.1,0.3,0.1c0.1,0,0.3-0.1,0.4-0.2l1.2-1.3c0.1-0.1,0.1-0.2,0.1-0.3
		l0.2-2.2l1.1-1.2l1.7,0.1c0.5,0.2,1.8,0.8,2.2,1c0.4,0.2,0.8,0.1,1.2,0c0.5-0.2,1-0.3,1.7,0c0.2,0.1,0.4,0,0.6-0.1
		c0,0,1.1-1.1,1.6-1.5c0.2-0.2,0.2-0.4,0.1-0.6C17.8,109.7,17.5,109.1,17.4,108.4z"/>
	<path class="st3" d="M106.5,87.2c-1.8,0.3-4.7,0.1-6.3-0.2c-0.1,0-0.3,0-0.4,0.1l-1.3,1c-0.1,0-0.1,0.1-0.1,0.2L96.6,92
		c-1,0.8-2.8,2-3.8,2.1l-1.1-0.7c-0.2-0.4-0.6-1.4-0.6-1.6c-0.1-0.3-0.1-2,0.7-2.8c0.2-0.2,0.2-0.4,0.1-0.6l-1.1-1.8
		c-0.1-0.2-0.4-0.3-0.6-0.2c-0.2,0.1-0.4,0.3-0.4,0.5c0.1,1.7-0.3,3.9-0.6,5.5c-0.8-0.5-1.4-1-1.5-1c0,0-0.1,0-0.1-0.1
		c-0.1,0-2.4-0.9-3.9-0.8c-0.2,0-0.6-0.2-0.9-0.6c-0.6-0.8-1-2.4-0.3-3.8c0.4-0.6,1.1-1.3,1.4-1.3c0.2,0,0.3-0.1,0.4-0.2
		c0.1-0.1,0.1-0.3,0.1-0.4c-0.1-0.3-0.2-0.7-0.3-1.2c0.1,0,0.1,0.1,0.2,0.1c0.1,0,0,0,0.1,0c0.1,0,0.2,0.1,0.5,0.1h0.4
		c0.1,0,0.1,0,0.2,0c0.4-0.1,0.5-0.3,0.7-0.5c0,0,0.1-0.1,0.1-0.1c0.1-0.1,0.2-0.3,0.3-0.4c0,0,0.1-0.1,0.1-0.1
		c0.1-0.1,0.1-0.2,0.2-0.3c0-0.1,0.1-0.1,0.1-0.1c0,0,0.1-0.1,0.1-0.1c0,0,0.1-0.1,0.1-0.1c0,0,0.1,0,0.1-0.1c0,0,0.1-0.1,0.1-0.1
		c0,0,0.1,0,0.1-0.1l0.6-0.6c0,0,0,0,0,0c0.3,0.1,0.8,0.3,1.2,0.4l0.9,0.5c0,0,0.1,0,0.1,0l0.9,0.3l0.5,0.2l2,0.6c0,0,0.1,0,0.1,0
		c0.2,0.1,0.6,0.2,0.9,0.2c0.1,0,0.1,0,0.2,0.1l0.3,0.4l0.1,1.3v0.2c-0.1,0.1-0.1,0.2-0.2,0.3c0,0-0.1,0.1-0.1,0.1
		c-0.1,0.2-0.1,0.3-0.1,0.5c0,0.1,0,0.2-0.1,0.2c0,0,0,0.1,0,0.1l-0.1,0.4c0,0,0,0.1,0,0.1v0.2c0,0.2,0,0.5,0.2,0.7
		c0,0.1,0.1,0.1,0.1,0.2c0,0.1,0.1,0.2,0.1,0.3c0,0.1,0.2,0.2,0.3,0.3l0.2,0.2c0.1,0.1,0.3,0.2,0.4,0.1c0.1,0,0.3-0.1,0.4-0.2
		l1.3-1.7l0.1-0.1c0.1-0.1,0.1-0.2,0.1-0.4l0-0.1c0.2,0.1,0.4,0.1,0.5,0.1c0.2,0,0.5,0,0.8-0.2l0.1-0.1c0.2-0.1,0.3-0.3,0.3-0.4
		v-0.2c0-0.3,0-0.5-0.1-0.8c0-0.2,0-0.5,0-0.7v-0.4c0-0.1,0-0.2-0.1-0.3c0,0,0-0.1,0-0.1c0-0.1,0-0.2-0.1-0.2c0-0.1,0-0.1-0.1-0.1
		c0-0.1-0.1-0.2-0.3-0.4c0-0.1,0-0.2-0.1-0.2l-0.8-1.5c0,0,0-0.1,0-0.1c0-0.1,0.1-0.3,0.1-0.4v-0.2c0-0.2-0.1-0.3-0.1-0.4
		c0-0.1,0-0.1-0.1-0.2v-0.1c0-0.1-0.1-0.3-0.1-0.4l-1.8-1.8l-0.5-0.4c0,0,0-0.1-0.1-0.1c-0.1-0.1-0.2-0.3-0.3-0.3
		c-0.2-0.3-0.4-0.5-0.5-0.9l-0.4-2.5c-0.1-0.7-0.1-1.3-0.1-2.1c-0.1-1.4-0.2-2.8-0.2-4.2c0-0.7,0-1.4,0.1-2.1c0-0.2,0-0.3,0-0.5
		c0-0.2,0.1-0.3,0.1-0.5c0,0,0-0.1,0-0.2c0-0.1,0.1-0.2,0.1-0.3c0,0,0-0.1,0-0.2c0-0.1,0.1-0.3,0.1-0.3l0.1-0.5
		c0.1-0.3-0.1-0.5-0.4-0.6L94,61.4c0-0.2,0-0.4,0-0.6c0-0.3,0-0.5-0.1-0.8c0-0.2,0-0.4-0.1-0.7c0-0.2-0.1-0.4-0.1-0.7
		c0-0.2-0.1-0.5-0.1-0.7c-0.1-0.5-0.2-0.9-0.4-1.3v-0.8c0-0.1-0.1-0.3-0.1-0.4l-0.1,0c-0.4-0.5-0.7-0.7-1.1-0.9
		c-0.1-0.1-0.2-0.1-0.3-0.2c0-0.1-0.1-0.1-0.1-0.2c0,0,0,0,0-0.1l-0.1-0.1c-0.1-0.1-0.2-0.2-0.4-0.2c-0.2-0.2-0.4-0.3-0.6-0.6
		c-0.2-0.2-0.5-0.5-0.6-0.7c-0.1-0.2-0.2-0.5-0.3-0.6c-0.1-0.1-0.1-0.2-0.2-0.3c-0.1-0.1-0.1-0.2-0.2-0.3c-0.1-0.2-0.3-0.4-0.4-0.6
		c-0.2-0.3-0.4-0.6-0.6-0.9c-0.2-0.3-0.4-0.6-0.6-1c-0.9-1.4-1.8-2.6-2.9-3.7l-0.7-0.7c-0.1-0.2-0.3-0.3-0.4-0.5
		c-0.1-0.1-0.2-0.2-0.3-0.4c-0.5-0.6-0.9-1.1-1.2-1.8c-0.4-0.6-0.8-1.2-1.2-1.9c-0.1-0.2-0.2-0.4-0.3-0.6c-0.3-0.5-0.5-0.9-0.7-1.4
		l-0.2-0.5c-0.1-0.2-0.2-0.4-0.3-0.6c-0.2-0.4-0.4-0.7-0.6-1c-0.5-0.7-0.9-1.2-1.5-1.8c-0.2-0.2-0.4-0.4-0.6-0.6
		c-0.1-0.1-0.2-0.1-0.2-0.2c0-0.2,0.1-0.5-0.3-0.9c-0.5-0.4-1-0.7-1.5-0.9c-0.2-0.1-0.4-0.2-0.6-0.3c-1.5-0.7-2.9-1.2-4.4-1.5
		c-0.9-0.2-1.6-0.3-2.4-0.4C66.5,29,65.7,29,65,29l-0.4-0.2c-0.1-0.1-0.2-0.2-0.3-0.2l-1.4-1.4c-0.2-0.2-0.4-0.5-0.6-0.8
		c-0.1-0.1-0.2-0.3-0.3-0.4l0-0.3c0-0.1,0.1-0.2,0.1-0.3c0.1-0.2,0.1-0.3,0.1-0.5c0-0.1,0-0.1,0.1-0.2c0,0,0.1-0.1,0.1-0.1l0.5-1.2
		c0.2-0.5,0.4-1,0.5-1.5c0-0.1,0.1-0.3,0.1-0.4c0.1-0.1,0.1-0.3,0.2-0.5c0.1-0.4,0.2-0.9,0.2-1.1c0.1-0.3,0.1-0.6,0.1-0.9
		c0-0.3,0-0.6,0.1-0.9c0.1-1.2,0.2-2.3,0.4-3.5c0.1-0.8,0.2-1.8,0.2-2.7c0-0.5,0-1,0.1-1.4C64.8,9.6,64.8,9,64.8,9L65,6.3V6
		c0-0.1,0-0.2-0.1-0.2c-0.1-0.2-0.3-0.4-0.5-0.4c-0.2,0-0.3,0-0.4,0.1c-0.1,0-0.1,0-0.2,0l0-0.1c-0.1-0.4-0.2-0.8-0.6-1.1
		C63.1,4.1,63,4.1,62.9,4c-0.2-0.1-0.4-0.3-0.6-0.4c-0.1-0.1-0.3-0.2-0.5-0.2l-0.5,0c0,0-0.1,0-0.1-0.1c0,0-0.1-0.1-0.1-0.1
		c-0.2-0.2-0.4-0.4-0.6-0.7l-0.1-0.1c0-0.1-0.1-0.2-0.1-0.2C60.1,2.1,60,2,59.8,1.9c-0.4-0.3-0.7-0.3-1-0.3c-0.6-0.1-1,0-1.5,0.1
		l-0.1,0c-0.1,0-0.2,0-0.3,0c0,0,0,0-0.1,0c0,0-0.1-0.1-0.1-0.1c-0.2-0.1-0.4-0.1-0.6-0.1c-0.1,0-0.1,0-0.3,0
		c-0.2-0.1-0.5,0.1-0.6,0.1c0,0,0,0-0.1,0c-0.1,0-0.3,0-0.4,0.2c0,0-0.1,0-0.1,0c-0.1,0-0.3,0.1-0.5,0.2c-0.1,0-0.2,0-0.3,0
		C53.5,2,53.3,2,53.1,2c0,0-0.1,0-0.2,0c-0.1,0-0.3-0.1-0.4-0.1h-0.6c-0.2,0-0.4,0.1-0.5,0.2c0,0-0.1,0.1-0.2,0.1
		c0,0-0.1,0.1-0.1,0.1l-0.4,0.4c-0.2,0.1-0.3,0.2-0.3,0.2c-0.1,0.1-0.1,0.1-0.1,0.2c-0.1,0.2-1.1,1.3-1.9,2.3
		c-0.1,0.1-0.1,0.2-0.1,0.3V9c0,0.1,0,0.2,0,0.3c0,0.2-0.1,0.3-0.1,0.4C48.1,10.3,48,11,48,11.5l-0.3,3.5c0,0.4-0.1,0.9-0.1,1.3
		c0,0.4,0,0.9-0.1,1.3l-0.2,1.9c0,0.2,0,0.6,0.1,0.9c0,0.2,0,0.4,0.1,0.6c0,0.1,0,0.1,0,0.1l0.4,0.9l-0.4,5.3l-0.2,1.8
		c0,0-0.1,0-0.1,0.1c-0.2,0.2-0.7,0.7-1,0.9c-0.1,0.1-0.3,0.2-0.4,0.2c-0.1,0.1-0.1,0.1-0.3,0.2c-0.6,0.4-1.5,0.8-2.7,1.2
		c-0.2,0.1-0.4,0.1-0.5,0.1c0,0-0.1,0-0.1,0l-0.8,0.2c0,0-0.2,0-0.3,0.1c-0.1,0-0.3,0.1-0.4,0.1l-0.4,0.1c-0.1,0-0.2,0.1-0.2,0.1
		l-0.1,0.1c-1.2,0.5-2,1-2.7,1.5c-0.9,0.7-1.7,1.4-2.4,2.2c-0.4,0.4-0.5,0.9-0.6,1.3c0,0.1-0.1,0.2-0.2,0.4
		c-0.1,0.7-0.2,1.2-0.2,1.6l0,3.1c0,0.3,0.1,0.7,0.1,1c0,0.7,0.1,1.4,0.2,2c0,0.7-0.1,1.5-0.2,2.1l-0.4,2.7
		c-0.2,1.2-0.4,2.5-0.6,3.7l-5.4,6.5c0,0-0.1,0-0.1,0h-0.7c-0.2,0-0.4,0.1-0.4,0.3l-0.1,0.2c-0.2,0.5-0.4,0.8-0.7,1.4
		c-0.1,0.3-0.3,0.6-0.5,0.9C25,63.8,25,63.9,24.9,64c-0.3,0.4-0.7,0.9-1,1.3c-0.3,0.4-0.7,0.9-1,1.3c-1.2,1.4-2.2,2.8-3.4,4.2
		l-0.7,0.9l-0.1,0.1c-0.1,0.1-0.1,0.2-0.1,0.4c-0.2,0.1-0.4,0.1-0.7,0.2c0,0-0.1,0-0.1,0l-1.2,0.6c-0.2,0.1-0.4,0.3-0.6,0.4
		c-0.2,0.1-0.3,0.2-0.5,0.3c-0.5,0.2-0.8,0.6-1.1,0.8c-0.4,0.3-0.7,0.5-1,0.8c-0.3,0.3-0.6,0.5-1,0.8c-0.1,0.1-0.2,0.1-0.2,0.2
		c-0.1,0.1-0.2,0.2-0.4,0.3L11.4,77c-0.1,0.1-0.2,0.2-0.3,0.3c-0.2,0.2-0.5,0.4-0.6,0.6c-0.1,0.1-0.3,0.3-0.5,0.6
		c-0.1,0.1-0.1,0.2-0.1,0.2c-0.1,0.1-0.2,0.2-0.2,0.3c-0.1,0.1-0.1,0.2-0.1,0.3l-1.2,3.3c-0.2,0.6-0.4,1.1-0.5,1.5
		c-0.1,0.2-0.1,0.4-0.2,0.5l-0.1,0.2c-0.2,0.3-0.2,0.6,0,0.9c0.1,0.4,0.4,0.7,0.7,0.9c0.2,0.2,0.5,0.2,0.7,0.2c0.3,0,0.6,0,0.8-0.2
		l0,0.2c0,0.2,0.2,0.4,0.4,0.4c0,0,0.8,0.1,0.9,0.1c0.3,0,0.6-0.1,0.9-0.4c0.1-0.1,0.2-0.2,0.3-0.3l0.1-0.1c0,0,0,0,0-0.1
		c0.1-0.1,0.2-0.2,0.2-0.3l0,0.1c0,0.1,0.1,0.1,0.1,0.2c0,0.1,0.2,0.2,0.3,0.3l0.2,0.2c0.1,0.1,0.2,0.1,0.4,0.1h0.6
		c0.1,0,0.2,0,0.3-0.1c0.3,0,0.5-0.2,0.7-0.3c0.1-0.1,0.1-0.2,0.1-0.3c0.1-0.2,0.1-0.4,0.1-0.6v-0.6v0c0,0,0,0,0.1,0l0.1-0.1
		c0,0,0,0,0-0.1c0.1-0.1,0.2-0.2,0.2-0.3c0.1-0.1,0.1-0.3,0.1-0.4c0-0.1,0.1-0.2,0.1-0.3c0-0.1,0.1-0.3,0.1-0.4c0-0.1,0-0.1,0-0.2
		c0.1,0,0.2-0.1,0.2-0.1c0.1-0.1,0.3-0.3,0.4-0.5c0-0.1,0.1-0.1,0.1-0.2c0.1-0.1,0.1-0.2,0.2-0.4c0.1-0.1,0.2-0.1,0.3-0.2
		c0,0,0,0,0,0v0.3c0,0.3,0,0.6,0.3,0.9c0,0.1,0.1,0.1,0.1,0.2c0,0,0.1,0.1,0.1,0.1c0.1,0.1,0.2,0.2,0.3,0.2c0.1,0.1,0.1,0.1,0.2,0.1
		c0.5,0.1,0.8,0.1,1.1,0.1h0.2c0.1,0,0.3-0.1,0.4-0.1l0.1-0.1c0,0,0.1-0.1,0.1-0.1l0.1-0.3c0.1-0.3,0.3-0.5,0.4-0.9
		c0.1-0.1,0.1-0.2,0.1-0.4v0c0.1-0.1,0.1-0.3,0.1-0.4l1-2.3c0.3-0.1,0.5-0.4,0.7-0.5c0.1-0.1,0.1-0.1,0.2-0.2
		c0.1-0.1,0.3-0.3,0.5-0.5c0,0,0.1,0,0.1,0c0.1,0.1,0.1,0.1,0.2,0.1c0.4,0.1,0.6,0.1,0.7,0.1c0.1,0,0.3-0.1,0.4-0.1l0.1-0.1
		c0,0,0.1-0.1,0.1-0.2c0.1-0.2,0.3-0.5,0.5-0.7c0.1-0.2,0.3-0.4,0.4-0.5l0.2-0.3c0.3-0.4,0.6-0.7,0.9-1c0.2-0.2,0.4-0.4,0.6-0.6
		c0.2-0.2,0.3-0.4,0.5-0.6c0.4-0.4,0.7-0.6,1.3-1c0.6-0.5,1.2-1,1.8-1.6c0.3-0.3,0.6-0.5,0.9-0.8c0.4-0.4,0.8-0.8,1.2-1.2
		c0.4-0.4,0.7-0.8,1.1-1.2l0.1-0.1c0.1-0.1,0.1-0.2,0.1-0.4c0-0.1,0-0.2-0.1-0.3c0.4-0.3,0.8-0.7,1.1-1c0.1-0.1,0.3-0.3,0.4-0.4
		c0.5-0.5,1-1.1,1.5-1.7l1.9-2.2c0.1-0.1,0.2-0.2,0.3-0.3l0,0.9c0.1,1.6,0.2,3.2,0.2,4.8c0.1,1.3,0.2,2.6,0.3,4c0,0.2,0,0.5,0.2,0.8
		l0.1,0.1c0,0,0,0.1,0,0.1c0,0.2,0,0.4,0.1,0.5c0,0.1,0,0.2,0,0.4c0,0.2,0,0.5,0.1,0.7c0,0,0,0,0,0.1c-2,0.2-3.5,0.2-4-0.1
		c-0.2-0.1-0.4-0.1-0.5,0c-2.2,1.3-4.9,2.7-5.4,2.5c-0.3-0.1-0.5,0.1-0.6,0.3c-0.8,2.6-2.1,6.5-2.3,6.9c-0.4,0.6-0.3,1.7-0.2,3
		c0,0.3,0.1,0.5,0.1,0.7c0,0.2,0.2,0.5,0.4,0.5c0,0,0.6,0.1,1.1,0.6c0.2,0.2,0.5,0.2,0.7,0.1c0.2-0.2,0.7-0.5,1.1-0.7
		c-0.6,0.7-1.1,1.4-1.6,2c-1.6,2.1-3.1,4.6-4.3,7c-1.1,2.3-2.1,4.7-2.8,7.5l-0.5,0.5c-0.1,0.1-0.1,0.1-0.1,0.2l-0.1,0.1
		c-0.1,0.1-0.2,0.3-0.1,0.4l0.1,1.2v0.3c0,0.1,0,0.3,0.1,0.4v0.1c0,0.1,0.1,0.3,0.1,0.4l0.2,0.2l-0.2,0.3c0,0.1-0.1,0.3-0.1,0.3v0.4
		c0,0.1,0,0.4,0.1,0.6c0,0,0,0.1,0,0.1c0.1,0.3,0.2,0.6,0.5,0.9l0.2,0.1l0,0c-0.1,0.1-0.1,0.2-0.1,0.4v0.1c0,0.1,0,0.3,0.1,0.4
		c0,0.1,0,0.2,0.1,0.3c0,0,0,0.1,0,0.1c0,0.1,0.1,0.3,0.2,0.4c0,0.1,0.1,0.1,0.1,0.2c0,0,0.1,0.2,0.1,0.2c0.1,0.1,0.2,0.3,0.5,0.4
		c0.1,0,0.1,0.1,0.2,0.1h0.1c0.1,0,0.3,0.1,0.4,0.2c0.1,0.1,0.3,0.1,0.4,0.2l2,1.7c0.6,0.4,1.3,0.7,1.9,1l1.8,0.6
		c0.7,0.2,1.4,0.3,1.9,0.4c0.2,0.1,0.3,0.1,0.5,0.1c0.1,0,0.3,0,0.4,0.1l0.8,0.2c0.6,0.2,1,0.4,1.4,0.7c0.2,0.2,0.3,0.3,0.4,0.5
		c0,0,0.1,0.1,0.1,0.2c0,0,0,0.1,0.1,0.2c0,0,0,0.1,0.1,0.1v0.3c-0.2,0.1-0.3,0.3-0.3,0.5c0,0.1-0.1,2.1-0.2,3.9
		c-0.2,2.9-0.3,3.8-0.3,3.9c0,1.1,0.1,2,0.5,2.9c0.2,0.4,0.4,0.8,0.7,1.3c0.4,0.5,0.9,0.9,1.3,1c0.2,0.1,0.5,0.2,0.8,0.2
		c0.3,0.1,0.6,0.1,0.8,0.1c0.2,0,0.3,0,0.5,0.1c0.3,0.1,0.6,0.1,1,0c0.9-0.2,1.7-0.7,2.6-1.4c0.8-0.8,1.2-1.8,1.5-2.5
		c0.1-0.4,0.2-0.8,0.4-1.3c0.1-0.4,0.2-0.9,0.2-1.4l0-0.2c0.1-0.1,0.1-0.2,0.1-0.4c0,0,0-0.4,0.1-1l0.3-3.6c0.1-1.9,0.1-3.6-0.1-5.2
		l0-1.7l0.2-3.7v-1.3c0.6,1.4,1.4,3.5,1.7,3.9c0.5,1,1.9,1.2,2.4,1.3c0.3,0.2,0.5,0.5,0.5,0.5c-0.1,0.4-0.7,2.6-0.9,3.4
		c0,0.2,0,0.3,0.1,0.5c0.8,1,2.1,2.6,2.3,3.3c0.1,0.2,0.2,0.3,0.4,0.3l2.3,0.6l2.1,2l-0.2,2c-0.3,0.6-0.9,2-1.1,2.4
		c-0.2,0.4-0.1,0.8,0,1.2c0.1,0.6,0.3,1.3-0.1,2.1c-0.1,0.2-0.1,0.4,0,0.5c0,0,1.1,1.4,1.5,2c0.1,0.2,0.4,0.3,0.6,0.2
		c0,0,1.5-0.6,2.2,0.2c1,1.1,4.5,5.2,4.5,5.3c0.1,0.1,0.2,0.2,0.4,0.2c0.1,0,0.3,0,0.4-0.1c0,0,0.2-0.2,0.4-0.4l0.4,0.9
		c0.8,1.8,1.5,3.7,2.2,5.6l0.1,0.3c0.1,0.3,0.3,0.6,0.3,1c0,0,0,0.1,0,0.1s0,0.1,0.1,0.2c0,0.1,0.1,0.3,0.1,0.5c0,0.1,0,0.4,0,0.5
		c0,0.5,0.1,1,0.1,1.5c0,0.5,0.1,1,0.1,1.5c0.1,2,0.2,4,0.2,6l0.1,3l0.1,1.5v6c0,0.5,0,1,0.1,1.5c0,0.3,0.1,0.6,0.2,0.8l0.1,0.2
		c0,0,0,0.2,0.1,0.3c0,0.2,0.1,0.3,0.1,0.5c0.2,0.5,0.4,1,0.7,1.4c0.2,0.5,0.5,1,1,1.5c0.4,0.4,1,0.8,1.6,1c0.1,0,0.1,0,0.2,0h0.1
		l2.8-0.1c0.1,0,0.3-0.1,0.4-0.1l0,0c0.1,0,0.1-0.1,0.2-0.1c0.1,0,0.2-0.1,0.3-0.1c0,0,0.1-0.1,0-0.1c0.1,0,0.3-0.1,0.4-0.1
		c0.1-0.1,0.2-0.2,0.3-0.3c0.1-0.1,0.3-0.2,0.4-0.3c0.2-0.2,0.3-0.3,0.4-0.5c0.1,0,0.2-0.1,0.2-0.1c0,0,0.1-0.1,0.1-0.1
		c0.2-0.3,1.2-1.5,1.4-3.2c0.1-0.3,0.2-0.5,0.2-0.9c0.5-0.6,0.5-1,0.5-1.3c0-1.2,0-2.4-0.1-3.6l-0.3-3.6c-0.1-1.2-0.3-2.4-0.5-3.6
		c-0.1-0.6-0.2-1.2-0.4-1.9l-0.2-0.4c0,0,0-0.1,0-0.1c0-0.1,0-0.1,0-0.2l-0.1-0.2c-0.1-0.2-0.1-0.3-0.1-0.6
		c-0.1-0.5-0.2-1.1-0.3-1.6v-0.9c0-0.1,0-0.2,0-0.2c0-0.2,0.1-0.5,0-0.7v-0.1c0-0.2-0.1-0.3-0.1-0.4l0,0c0-0.1,0-0.2-0.1-0.3
		c0,0,0-0.1,0-0.1c0-0.1,0-0.1,0-0.2c-0.1-0.2-0.1-0.5-0.1-0.7c0-0.3-0.1-0.6-0.1-0.9c0-0.3-0.1-0.6-0.1-0.9
		c-0.1-1.2-0.1-2.4-0.1-3.5c0.1-0.6,0.1-1.2,0.1-1.8c0-0.6,0-1.2,0.1-1.8c0.1-1.6,0.1-3.3,0-5c0.4-0.1,0.8,0,1-0.3
		c1.3-1.8,2.9-3.9,3.4-4c0.2-0.1,0.4-0.3,0.4-0.5s-0.1-0.4-0.4-0.5c-0.6-0.5-1.3-5.2-1.1-6c0,0,0,0,0-0.1c0.1-0.6-0.3-1.4-0.9-2.4
		c-0.1-0.3-0.3-0.5-0.3-0.6c-0.1-0.2-0.4-0.4-0.6-0.3c0,0-0.5,0.1-1-0.2c-0.1-0.1-0.3-0.1-0.4,0c-0.1,0-0.2,0.1-0.3,0.3
		c-0.2,0.5-0.8,1.3-1.2,1.5c-0.2,0.1-0.3,0.3-0.3,0.5s0.2,0.4,0.4,0.5c0.2,0,0.8,0.1,1.8-0.7c0.2,0,0.6,0,0.8,0.5
		c0.4,1,0.6,1.9,0.7,2.3l0,0.2c0.1,0.5-0.1,4.2-1,5c-0.9,0.9-1.3,1.5-1.5,1.8l-0.7,0.4c0-0.1,0-0.2,0-0.3c-0.2-1.1-0.6-2.3-1.1-3.7
		c-0.2-0.5-0.4-0.9-0.6-1.3l-0.2-0.5c-0.3-0.5-0.6-1-0.8-1.4l-0.3-0.6c-0.4-0.9-0.8-1.7-1.1-2.6c-0.2-0.6-0.4-1.1-0.5-1.7
		c0-0.1-0.1-0.2-0.1-0.3c0-0.2-0.1-0.4-0.1-0.5c-0.1-0.2-0.1-0.5-0.1-0.6c0.1-4.4,0.1-8.2-0.1-11.6c-0.1-1.9-0.2-3.9-0.5-5.8
		c-0.1-0.8-0.3-1.9-0.5-3l-0.1-0.4c-0.2-0.8-0.4-1.6-0.6-2.4c-0.9-3.8-1.8-7.5-3-11.3c-0.3-0.9-0.6-1.8-0.9-2.9
		c0-0.1-0.1-0.2-0.1-0.3c-0.1-0.1-0.1-0.3-0.2-0.4c-0.1-0.2-0.2-0.4-0.3-0.7c-0.2-0.3-0.4-0.8-0.5-1.3c-0.1-0.4-0.2-0.8-0.3-1.2
		c-0.1-0.5-0.3-1-0.4-1.6c-0.1-0.4-0.1-0.7-0.2-1c0-0.1,0.1-0.2,0.1-0.3c0-0.1,0-0.4-0.1-0.8c0-0.4,0-0.7-0.1-0.8
		c-0.1-1.1,0.1-2.7,0.3-3.6c0.2-1.1,0.5-2.1,0.9-3.2l0.1-0.3c0.2-0.4,0.3-0.8,0.6-1.3c0.2-0.5,0.5-1,0.8-1.5l0.4-0.8
		c0.4-0.8,0.7-1.6,1-2.4c0.9-2.1,1.7-4.4,2.5-6.5c0.6-1.7,1.2-3.5,1.8-5.3l0.1,0.1c0.3,0.5,0.7,0.9,1.1,1.3c0.2,0.2,0.4,0.4,0.6,0.6
		c0.3,0.3,0.6,0.6,0.9,1l0.2,0.2c0.4,0.5,0.8,1,1.3,1.5c1.1,1.1,2.1,1.9,3,2.6c0.9,0.7,1.9,1.4,2.8,2c0,0.3,0,0.6,0.1,0.9v0.2
		c0,0.2,0.1,0.3,0.1,0.4c0,0,0,0.1,0,0.1c0,0.1,0,0.1,0.1,0.2c0,0.1,0.1,0.2,0.1,0.3c0.3,1.1,0.9,2.1,1.2,2.7
		c0.1,0.1,0.1,0.2,0.1,0.2L85,64.7l-0.1,0.1c-0.2,0.2-0.2,0.5,0,0.7l0,0c0,0.1,0.1,0.4,0.3,0.6l0.2,0.3l0.3,0.9
		c0,0.1,0.1,0.2,0.1,0.2c0,0.1,0.1,0.2,0.1,0.3c0.1,0.3,0.1,0.6,0.2,0.9c0.1,0.3,0.2,0.7,0.2,1c0.2,1.1,0.5,2.4,0.7,3.6
		c0.2,0.8,0.3,1.5,0.4,1.8c-0.2,0.2-0.3,0.4-0.5,0.6c-0.1,0.1-0.1,0.2-0.2,0.3c-0.1,0.1-0.2,0.2-0.3,0.3c0,0,0,0,0,0c0,0,0,0-0.1,0
		c0,0-0.1,0.1-0.1,0.1c-0.1,0-0.1,0.1-0.2,0.2C86.1,76.8,86,76.9,86,77c0,0-0.1,0.1-0.1,0.1c-0.1,0.1-0.2,0.2-0.2,0.3
		c0,0-0.1,0.1-0.1,0.1c0,0-0.1,0-0.1,0.1c-0.1,0.1-0.1,0.1-0.2,0.2C85.2,77.9,85.1,78,85,78c-0.1,0.1-0.2,0.3-0.3,0.4
		c0,0-0.1,0.1-0.1,0.1c-0.1,0.1-0.2,0.3-0.2,0.4c0,0,0,0.1,0,0.1c-0.1,0.1-0.1,0.2-0.2,0.2c-0.1,0.1-0.1,0.1-0.1,0.2L84,80.1
		c-1-0.8-2.1-1.8-2.2-2.2c0-0.1-0.1-0.3-0.2-0.4s-0.3-0.1-0.4-0.1c-1.3,0.3-5,0.9-6.3,0c-0.2-0.2-0.5-0.1-0.7,0.1
		c-0.2,0.2-0.1,0.5,0.1,0.7l1.8,1.5c0.1,0.1,0.2,0.1,0.3,0.1l3-0.1l1.8,1.5l0.1,2.3c-0.3,1-0.8,2.6-1.1,3c-0.2,0.5,0,0.9,0.2,1.4
		c0.3,0.6,0.6,1.3,0.2,2.3c-0.1,0.2,0,0.4,0.2,0.6c0,0,1.5,1.2,2,1.8c0.2,0.2,0.4,0.2,0.7,0.1c0,0,1.9-1.2,3-0.6
		c0.6,0.3,2,1.4,3.5,2.5l0.2,0.2c0,0.1,0.1,0.1,0.2,0.1l0.8,0.5c0.9,0.7,1.6,1.2,1.6,1.2c0.2,0.1,0.4,0.1,0.6,0l0.6,0.3
		c0.8,1.3,1.9,3.4,1.7,4.1c-0.2,1-2.3,3.5-3.1,4.4c0,0-0.1,0.1-0.1,0.1c-0.1,0.2-1.2,2.5-1,3.9c0,0.3-0.2,0.6-0.6,0.8
		c-0.9,0.6-2.4,0.8-3.8,0c-0.5-0.4-1.2-1.2-1.2-1.6c0-0.1-0.1-0.3-0.2-0.4c-0.1-0.1-0.3-0.1-0.4-0.1c-0.8,0.1-2.9,0.3-3.7,0.1
		c-0.2-0.1-0.4,0-0.5,0.2c-0.8,0.9-2,2-2.4,2c-0.1,0-0.3,0.1-0.3,0.2c-0.1,0.1-0.1,0.2-0.1,0.4c0.3,1.9,0.4,5.2-0.5,6.2
		c-0.2,0.2-0.2,0.5,0,0.7c0.1,0.1,0.2,0.1,0.3,0.1c0.1,0,0.3-0.1,0.4-0.2l1.6-1.7c0.1-0.1,0.1-0.2,0.1-0.3l0.2-2.9l1.6-1.7l2.3,0.1
		c0.4,0.2,2.4,1,3,1.3c0.5,0.3,1,0.1,1.5-0.1c0.6-0.2,1.3-0.4,2.3,0c0.2,0.1,0.4,0,0.6-0.1c0,0,1.4-1.4,2.1-2
		c0.2-0.2,0.2-0.4,0.1-0.6c-0.3-0.6-0.9-2.2-0.3-3.1c0.9-1.3,4.9-5.8,5-5.9c0.2-0.2,0.2-0.5,0-0.7c-0.7-0.6-1.9-2-1.9-2.8L96,96
		c0-0.2-0.1-0.3-0.2-0.4l-0.9-0.6c0.5-0.4,1-0.7,1.3-0.8l1.6-0.4c0.1,0,0.3-0.1,0.3-0.3l2.2-4.2c0.4-0.2,1.4-0.6,1.5-0.7
		c0.2-0.1,2-0.3,2.8,0.6c0.2,0.2,0.5,0.2,0.7,0.1l1.7-1.2c0.2-0.1,0.3-0.4,0.2-0.6C107,87.3,106.7,87.2,106.5,87.2z M29.8,87.3
		c-0.2,0-0.7-0.2-0.7-1c0.1-1.5,0.3-2.7,0.4-3c0.1-0.6,2-4.4,3.3-4.9c1.4-0.6,2.1-1,2.4-1.2l5-0.6c-0.3,1-0.7,2-1.3,2.9l-0.2,0.4
		c-0.9,1.1-2.1,2.3-3.2,3.4c-0.9,0.9-1.7,1.7-2.4,2.5c-0.2,0.3-0.4,0.5-0.7,0.8c-0.2,0.2-0.4,0.4-0.6,0.6
		C31.5,87.2,30.9,87.1,29.8,87.3z M45.7,108.4C45.6,108.4,45.6,108.5,45.7,108.4l-0.2-0.3c0-0.1-0.1-0.1-0.1-0.2
		c-0.2-0.2-0.8-0.8-1.3-0.9c-0.1,0-0.2,0-0.5,0c-0.3,0-0.6-0.1-0.9-0.1l-0.5-0.2c-0.1,0-0.3,0-0.4,0l-0.1,0c-0.1,0-0.2,0-0.2,0
		c-0.3,0-0.6,0.2-0.8,0.5l-0.3,0c-0.1,0-0.3,0.1-0.3,0.1l-0.4-1.7c0-0.1,0.1-0.2,0.1-0.3c0.1-0.1,0.2-0.2,0.3-0.2l0.7-0.5l1.8-1.6
		c2.1-1.8,2.4-2,2.5-2.3l0.4-0.4c0,0,0.1-0.1,0.1-0.1c0.1-0.1,0.1-0.2,0.2-0.3c0.5-0.6,1.2-1.3,1.2-1.3l1.7-2.4c0,0,0,0,0,0
		c0.1,0,0.2-0.1,0.2-0.1c0,0,0.1,0,0.1,0c0.1,0,0.1,0,0.3,0l0.2,0c0,0,0.1,0,0.1,0c0.4,0.1,0.6,0.2,0.9,0.4c0.5,0.2,0.9,0.7,1.3,1.2
		c0.4,0.6,0.7,1.2,0.8,1.8c0.1,0.2,0.1,0.4,0.2,0.6c0,0.2,0.1,0.3,0.1,0.5c0,0,0,0.1,0,0.1c0,0.1,0,0.2,0.1,0.4l0.1,0.5
		c0.1,0.7,0.2,1.4,0.4,2.1c0.2,1.4,0.5,2.8,0.9,4.4c0.1,0.2,0.1,0.4,0.2,0.6c0,0.2,0.1,0.3,0.1,0.5c0,0.1,0.1,0.2,0.1,0.2
		c0,0,0.1,0.1,0.1,0.1l5,15.3l1.4,2.9l0.6,1.7c0,0.1,0.1,0.3,0.1,0.4l0.4,0.4c0.1,0.1,0.1,0.1,0.2,0.3c0,0,0.1,0.1,0.1,0.1
		c0.2,0.2,0.3,0.4,0.4,0.6c0,0,0.1,0.1,0.1,0.1c0,0,0.1,0.1,0.2,0.2c0.1,0.1,0.2,0.2,0.2,0.3c0,0.1,0.1,0.4,0.2,0.5
		c0,0.1,0,0.1,0.1,0.1c0,0,0,0.1,0,0.1c0,0.1,0,0.3,0.1,0.4c0,0.1,0,0.4,0,0.5c0,0.1,0,0.1-0.1,0.2c-0.1,1-0.2,2-0.1,3.1
		c0.1,1,0.4,2,0.8,3c0,0,0,0,0,0c-0.7-0.3-2.5-2.3-3.4-3.5c0,0-0.1-0.1-0.1-0.1c-0.2-0.1-1.8-1.4-3-1.6c-0.1,0-0.4-0.2-0.6-0.6
		c-0.4-0.8-0.6-2.3,0.1-3.4c0.3-0.4,0.8-0.7,1-0.7c0,0,0,0,0,0c0.2,0,0.3,0,0.5-0.1c0.1-0.1,0.2-0.3,0.2-0.4
		c-0.1-0.9-0.1-2.6,0.1-3.2c0.1-0.2,0-0.3-0.1-0.5c-0.8-1-1.5-2.1-1.5-2.4c0-0.2,0-0.3-0.1-0.4c-0.1-0.1-0.3-0.2-0.4-0.1
		c-0.7,0.1-2.8,0.1-3.6-0.9c-0.4-0.5-0.8-0.9-1.1-1.2c-0.7-0.7-0.9-0.9-0.8-1.5c0.2-1.2,0.9-3.1,0.9-3.1c0.1-0.2,0-0.4-0.2-0.6
		c0,0-0.7-0.6-1.3-1.4c-0.1-0.1-0.2-0.2-0.4-0.2c0,0-1.2,0-1.9-0.9l-1.5-3.7c0-0.1-0.1-0.2-0.2-0.3l-0.9-0.5
		C46.1,108.3,45.8,108.3,45.7,108.4z"/>
	<path class="st3" d="M136.2,97.9c-0.1-0.5,0-1.7,0.1-2.1c0-0.2-0.1-0.4-0.3-0.5c-0.7-0.4-0.9-0.9-1.1-1.3c-0.2-0.4-0.3-0.7-0.7-0.9
		c-0.4-0.2-1.8-0.9-2.2-1l-1.2-1.3l0.2-1.7l1.6-1.6c0.1-0.1,0.1-0.2,0.1-0.3l0.2-1.8c0-0.3-0.2-0.5-0.4-0.6c-0.3,0-0.5,0.2-0.6,0.4
		c-0.1,1-2.1,2.5-3.4,3.2c-0.1,0.1-0.2,0.2-0.2,0.3c0,0.1,0,0.3,0.1,0.4c0.2,0.2,0.2,1.3,0,2.3c0,0.2,0.1,0.4,0.2,0.5
		c0.5,0.3,1.3,1.5,1.7,2.1c0.1,0.1,0.2,0.2,0.4,0.2c0.2,0,0.3,0,0.4-0.1c0.1-0.1,0.8-0.1,1.3-0.1c1.1,0.5,1.7,1.4,1.8,2.2
		c0,0.4,0,0.6-0.2,0.7c-0.8,0.7-1.5,2.3-1.6,2.5c0,0,0,0.1,0,0.1c-0.2,1.4-0.6,3.5-1,4c-0.3,0.4-1.8,0.8-3.1,1l-2.9-1.1
		c-0.1,0-0.2,0-0.3,0l-1.2,0.2c-0.1,0-0.2,0.1-0.3,0.2c-0.5,0.6-1.3,1.7-2.1,2.5c-0.1-0.2-0.1-0.4-0.1-0.4c0,0,0-0.1-0.1-0.1
		c-0.8-1-2.2-2.7-2.3-3.4c-0.1-0.4,0.5-1.9,1.3-3l2.6-1.5c0.1,0,0.1-0.1,0.2-0.1l0.7-1c0.1-0.1,0.1-0.2,0.1-0.4l0-0.3
		c-0.2-1.2-0.5-3.2-0.4-4.5c0-0.2-0.1-0.4-0.4-0.5c-0.2-0.1-0.5,0-0.6,0.2l-0.8,1.4c-0.1,0.2-0.1,0.5,0.1,0.6
		c0.6,0.5,0.6,1.7,0.6,1.9c0,0.1-0.1,0.1-0.1,0.2c0,0.1-0.2,0.6-0.4,1.1l-3.1,1.9c-0.1,0.1-0.2,0.2-0.2,0.4l-0.1,1.2
		c-0.1,0.5-1,1.5-1.6,2c-0.2,0.2-0.2,0.5,0,0.7c0,0,2.8,3.1,3.9,4.3c0,0.1,0.1,0.2,0.1,0.3c0,0,0,0,0,0c-0.1,0-0.1,0.1-0.2,0.1
		c-0.1,0.1-0.2,0.3-0.1,0.5c0,0.1,0.1,0.3,0.3,0.3c-0.1,0.6-0.4,1.2-0.4,1.2c-0.1,0.2-0.1,0.5,0.1,0.6c0.5,0.4,1.5,1.5,1.6,1.5
		c0.1,0.1,0.4,0.2,0.6,0.1c0.7-0.3,1.2-0.1,1.7,0c0.4,0.1,0.8,0.3,1.2,0c0.4-0.2,1.6-0.8,2.2-1l1.7-0.1l1.1,1.2l0.2,2.2
		c0,0.1,0.1,0.2,0.1,0.3l1.2,1.3c0.1,0.1,0.2,0.2,0.4,0.2c0.1,0,0.2,0,0.3-0.1c0.2-0.2,0.2-0.5,0-0.7c-0.7-0.7-0.5-3.3-0.3-4.7
		c0-0.1,0-0.3-0.1-0.4c-0.1-0.1-0.2-0.2-0.4-0.2c-0.3,0-1.1-0.7-1.7-1.5c-0.1-0.2-0.3-0.2-0.5-0.2c-0.6,0.2-2,0-2.7-0.1
		c-0.1,0-0.3,0-0.4,0.1c-0.1,0.1-0.2,0.2-0.2,0.4c0,0.2-0.4,0.7-0.9,1.1c-1,0.6-2.2,0.4-2.8,0c-0.3-0.2-0.4-0.4-0.4-0.6
		c0-0.2,0-0.6-0.1-0.8l0.3-0.1c0.2-0.1,0.4-0.3,0.4-0.5c-0.1-0.8,1-1.5,1.1-1.6c0.1,0,0.7-0.2,1.2-0.4l3.4,1.1c0.1,0,0.3,0,0.4-0.1
		l1.1-0.7c0.4-0.3,1.7-0.2,2.5-0.1c0.1,0,0.3,0,0.4-0.1c0.1-0.1,0.2-0.2,0.2-0.3c0,0,0.6-4.6,0.9-5.8c0.1-0.7,1.4-1.1,1.8-1.2
		C136.1,98.4,136.2,98.2,136.2,97.9z"/>
	<path class="st3" d="M221.3,87.1c-1.8,0.4-4.6,0.2-6.3-0.1c-0.1,0-0.3,0-0.4,0.1l-1.3,1c-0.1,0-0.1,0.1-0.1,0.2l-1.8,3.6
		c-1,0.8-2.8,2-3.8,2.1l-1.1-0.7c-0.2-0.4-0.6-1.4-0.6-1.6c-0.1-0.3-0.1-2.1,0.7-2.8c0.2-0.2,0.2-0.4,0.1-0.6l-1.1-1.8
		c-0.1-0.2-0.4-0.3-0.6-0.2c-0.2,0.1-0.4,0.3-0.4,0.5c0.1,1.7-0.3,3.9-0.6,5.5c-0.8-0.5-1.4-1-1.5-1c0,0-0.1,0-0.1-0.1
		c-0.1,0-2.4-0.9-3.9-0.8c-0.2,0-0.6-0.2-0.9-0.6c-0.6-0.8-1-2.4-0.3-3.8c0.4-0.6,1.1-1.3,1.4-1.3c0.2,0,0.3-0.1,0.4-0.2
		c0.1-0.1,0.1-0.3,0.1-0.4c-0.1-0.2-0.2-0.6-0.2-1.1c0.1,0,0.1,0.1,0.2,0.1c0.1,0,0,0,0.1,0c0.1,0,0.2,0.1,0.5,0.1h0.4
		c0.1,0,0.1,0,0.2,0c0.4-0.1,0.5-0.3,0.7-0.5c0,0,0.1-0.1,0.1-0.1c0.1-0.1,0.2-0.3,0.3-0.4c0,0,0.1-0.1,0.1-0.1c0,0,0.1-0.1,0.1-0.1
		c0.1-0.1,0.1-0.2,0.2-0.3c0,0,0.1-0.1,0.1-0.1c0,0,0.1-0.1,0.1-0.1c0,0,0.1,0,0.1-0.1c0,0,0.1-0.1,0.1-0.1c0,0,0.1,0,0.1-0.1
		l0.6-0.6c0,0,0,0,0,0c0.3,0.1,0.8,0.3,1.2,0.4l0.9,0.5c0,0,0.1,0,0.1,0l0.9,0.3l0.5,0.2l2,0.6c0,0,0.1,0,0.1,0
		c0.2,0.1,0.6,0.2,0.9,0.2c0.1,0,0.1,0,0.2,0.1l0.3,0.4l0.1,1.3v0.2c-0.1,0.1-0.1,0.2-0.2,0.3c0,0-0.1,0.1-0.1,0.1
		c-0.1,0.2-0.1,0.3-0.1,0.5c0,0.1,0,0.2-0.1,0.2c0,0,0,0.1,0,0.1l-0.1,0.4c0,0,0,0.1,0,0.1v0.2c0,0.2,0,0.5,0.2,0.7
		c0,0.1,0.1,0.1,0.1,0.2c0,0.1,0.1,0.2,0.1,0.3c0,0.1,0.2,0.2,0.3,0.3l0.2,0.2c0.1,0.1,0.3,0.2,0.4,0.1c0.1,0,0.3-0.1,0.4-0.2
		l1.3-1.7l0.1-0.1c0.1-0.1,0.1-0.2,0.1-0.4l0-0.1c0.2,0.1,0.4,0.1,0.5,0.1c0.2,0,0.5,0,0.8-0.2l0.1-0.1c0.2-0.1,0.3-0.3,0.3-0.4
		v-0.2c0-0.3,0-0.5-0.1-0.8c0-0.2,0-0.5,0-0.7v-0.4c0-0.1,0-0.2-0.1-0.3c0,0,0-0.1,0-0.1c0-0.1,0-0.2-0.1-0.2c0-0.1,0-0.1-0.1-0.1
		c0-0.1-0.1-0.2-0.3-0.4c0-0.1,0-0.2-0.1-0.2l-0.8-1.5c0,0,0-0.1,0-0.1c0-0.1,0.1-0.3,0.1-0.4v-0.2c0-0.2-0.1-0.3-0.1-0.4
		c0-0.1,0-0.1-0.1-0.2v-0.1c0-0.1-0.1-0.3-0.1-0.4l-1.8-1.8l-0.5-0.4c0,0,0-0.1-0.1-0.1c-0.1-0.1-0.2-0.3-0.3-0.3
		c-0.2-0.3-0.4-0.5-0.5-0.9l-0.4-2.5c-0.1-0.7-0.1-1.3-0.1-2.1c-0.1-1.4-0.2-2.8-0.2-4.2c0-0.7,0-1.4,0.1-2.1c0-0.2,0-0.3,0-0.5
		c0-0.2,0.1-0.3,0.1-0.5c0,0,0-0.1,0-0.2c0-0.1,0.1-0.2,0.1-0.3c0,0,0-0.1,0-0.2c0-0.1,0.1-0.3,0.1-0.3l0.1-0.5
		c0.1-0.3-0.1-0.5-0.4-0.6l-0.3-0.1c0-0.2,0-0.4,0-0.6c0-0.3,0-0.5-0.1-0.8c0-0.2,0-0.4-0.1-0.7c0-0.2-0.1-0.4-0.1-0.7
		c0-0.2-0.1-0.5-0.1-0.7c-0.1-0.5-0.2-0.9-0.4-1.3v-0.8c0-0.1-0.1-0.3-0.1-0.4l-0.1,0c-0.4-0.5-0.7-0.7-1.1-0.9
		c-0.1-0.1-0.2-0.1-0.3-0.2c0-0.1-0.1-0.1-0.1-0.2c0,0,0,0,0-0.1l-0.1-0.1c-0.1-0.1-0.2-0.2-0.4-0.2c-0.2-0.2-0.4-0.3-0.6-0.6
		c-0.2-0.2-0.5-0.5-0.6-0.7c-0.1-0.2-0.2-0.5-0.3-0.6c-0.1-0.1-0.1-0.2-0.2-0.3c-0.1-0.1-0.1-0.2-0.2-0.3c-0.1-0.2-0.3-0.4-0.4-0.6
		c-0.2-0.3-0.4-0.6-0.6-0.9c-0.2-0.3-0.4-0.6-0.6-1c-0.9-1.4-1.8-2.6-2.9-3.7l-0.7-0.7c-0.1-0.2-0.3-0.3-0.4-0.5
		c-0.1-0.1-0.2-0.2-0.3-0.4c-0.5-0.6-0.9-1.1-1.2-1.8c-0.4-0.6-0.8-1.2-1.2-1.9c-0.1-0.2-0.2-0.4-0.3-0.6c-0.3-0.5-0.5-0.9-0.7-1.4
		l-0.2-0.5c-0.1-0.2-0.2-0.4-0.3-0.6c-0.2-0.4-0.4-0.7-0.6-1c-0.5-0.7-0.9-1.2-1.5-1.8c-0.2-0.2-0.4-0.4-0.6-0.6
		c-0.1-0.1-0.2-0.2-0.4-0.3c-0.1-0.1-0.3-0.2-0.4-0.3c-0.2-0.1-0.3-0.3-0.5-0.3c-0.5-0.4-1-0.7-1.5-0.9c-0.2-0.1-0.4-0.2-0.6-0.3
		c-1.5-0.7-2.9-1.2-4.4-1.5c-0.9-0.2-1.6-0.3-2.4-0.4c-0.7-0.1-1.5-0.1-2.2-0.1l-0.4-0.2c-0.1-0.1-0.2-0.2-0.3-0.2l-1.4-1.4
		c-0.2-0.2-0.4-0.5-0.6-0.8c-0.1-0.2-0.3-0.3-0.4-0.6l0-0.1c0-0.1,0.1-0.2,0.1-0.3c0.1-0.2,0.1-0.3,0.1-0.5c0-0.1,0-0.1,0.1-0.2
		c0,0,0.1-0.1,0.1-0.1l0.5-1.2c0.2-0.5,0.4-1,0.5-1.5c0-0.1,0.1-0.3,0.1-0.4c0.1-0.1,0.1-0.3,0.2-0.5c0.1-0.4,0.2-0.9,0.2-1.1
		c0.1-0.3,0.1-0.6,0.1-0.9c0-0.3,0-0.6,0.1-0.9c0.1-1.2,0.2-2.3,0.4-3.5c0-0.6,0.1-1.3,0.1-2c0-0.7,0.1-1.5,0.1-2.1
		c0.1-0.8,0.1-1.4,0.1-1.4l0.2-2.7V6.1c0-0.1,0-0.2-0.1-0.2c0-0.1-0.2-0.3-0.4-0.4c0,0,0,0,0,0c0-0.1,0-0.1,0-0.2
		c-0.1-0.4-0.2-0.8-0.6-1.2c-0.1-0.1-0.2-0.1-0.3-0.2c-0.2-0.1-0.4-0.3-0.6-0.4c-0.1-0.1-0.3-0.2-0.5-0.2l-0.5,0c0,0-0.1,0-0.1-0.1
		c0,0-0.1-0.1-0.1-0.1c-0.2-0.2-0.4-0.4-0.6-0.7l-0.1-0.1c0-0.1-0.1-0.2-0.1-0.2c-0.1-0.1-0.3-0.3-0.5-0.4c-0.4-0.3-0.7-0.3-1-0.3
		c-0.6-0.1-1,0-1.5,0.1l-0.1,0c-0.1,0-0.2,0-0.3,0c0,0,0,0-0.1,0c0,0-0.1-0.1-0.1-0.1c-0.2-0.1-0.4-0.1-0.6-0.1c-0.1,0-0.1,0-0.3,0
		c-0.2-0.1-0.5,0-0.6,0.1c0,0,0,0-0.1,0c-0.1,0-0.3,0-0.4,0.2c0,0-0.1,0-0.1,0c-0.1,0-0.3,0.1-0.5,0.2c-0.1,0-0.2,0-0.3,0
		c-0.3-0.1-0.5-0.1-0.7-0.1c0,0-0.1,0-0.2,0c-0.1,0-0.3-0.1-0.4-0.1h-0.6c-0.2,0-0.4,0.1-0.5,0.2c0,0-0.1,0.1-0.2,0.1
		c-0.1,0-0.1,0.1-0.2,0.1l-0.5,0.7C165.2,2.9,165.1,3,165,3c-0.1,0.1-0.1,0.1-0.1,0.2c-0.1,0.2-1.1,1.3-1.9,2.3
		c-0.1,0.1-0.1,0.2-0.1,0.3v3.4c0,0.1,0,0.2,0,0.3c0,0.2-0.1,0.3-0.1,0.4c-0.1,0.6-0.2,1.2-0.2,1.7l-0.3,3.5c0,0.4-0.1,0.9-0.1,1.3
		c0,0.4,0,0.9-0.1,1.3l-0.2,1.9c0,0.2,0,0.5,0.1,0.9v0c0,0.2,0,0.4,0.1,0.6c0,0.1,0,0.1,0,0.1l0.4,0.9l-0.3,5.3l-0.2,1.8
		c0,0-0.1,0-0.1,0.1c-0.2,0.2-0.7,0.7-1,0.9c-0.1,0.1-0.3,0.2-0.4,0.2c-0.1,0.1-0.1,0.1-0.3,0.2c-0.6,0.4-1.5,0.8-2.7,1.2
		c-0.2,0.1-0.4,0.1-0.5,0.1c0,0-0.1,0-0.1,0l-0.8,0.2c0,0-0.2,0-0.3,0.1c-0.2,0-0.3,0.1-0.4,0.1l-0.9,0.2c-1.2,0.5-2.1,1-2.8,1.6
		c-0.9,0.7-1.7,1.4-2.4,2.2c-0.4,0.4-0.5,0.9-0.6,1.3c0,0.1-0.1,0.2-0.2,0.4c-0.1,0.7-0.2,1.2-0.2,1.6l0,3.1c0,0.3,0.1,0.7,0.1,1
		c0,0.7,0.1,1.4,0.2,2c0,0.7-0.1,1.5-0.2,2.1l-0.4,2.7c-0.2,1.2-0.4,2.5-0.6,3.7l-5.4,6.5c0,0-0.1,0-0.1,0h-0.7
		c-0.2,0-0.4,0.1-0.4,0.3l-0.1,0.2c-0.2,0.5-0.4,0.8-0.7,1.4c-0.1,0.3-0.3,0.6-0.5,0.9c-0.1,0.1-0.2,0.3-0.2,0.4
		c-0.3,0.4-0.7,0.9-1,1.3c-0.3,0.4-0.7,0.9-1,1.3c-1.2,1.4-2.2,2.8-3.4,4.2l-0.7,0.9l-0.1,0.1c-0.1,0.1-0.1,0.2-0.1,0.4v0
		c-0.2,0.1-0.4,0.1-0.7,0.2c0,0-0.1,0-0.1,0l-1.2,0.6c-0.2,0.1-0.4,0.2-0.6,0.4c-0.2,0.1-0.3,0.2-0.5,0.3c-0.5,0.2-0.8,0.6-1.1,0.8
		c-0.4,0.3-0.7,0.5-1,0.8c-0.3,0.3-0.6,0.5-1,0.8c-0.1,0.1-0.2,0.1-0.2,0.2c-0.1,0.1-0.2,0.2-0.4,0.3l-0.3,0.3
		c-0.1,0.1-0.2,0.2-0.3,0.3c-0.2,0.2-0.5,0.4-0.6,0.6c-0.1,0.1-0.3,0.3-0.5,0.6c-0.1,0.1-0.1,0.2-0.1,0.2c-0.1,0.1-0.2,0.2-0.2,0.3
		c-0.1,0.1-0.1,0.2-0.1,0.3l-1.2,3.3c-0.2,0.6-0.4,1.1-0.5,1.5c-0.1,0.2-0.1,0.4-0.2,0.5l-0.1,0.2c-0.2,0.3-0.2,0.6,0,0.9
		c0.1,0.4,0.4,0.7,0.7,0.9c0.2,0.2,0.5,0.2,0.7,0.2c0.3,0,0.6,0,0.8-0.2l0,0.2c0,0.2,0.2,0.4,0.4,0.4c0,0,0.8,0.1,0.9,0.1
		c0.3,0,0.6-0.1,0.9-0.4c0.1-0.1,0.2-0.2,0.3-0.3l0.1-0.1c0,0,0,0,0-0.1c0.1-0.1,0.2-0.2,0.2-0.3l0,0.1c0,0.1,0.1,0.1,0.1,0.2
		c0,0.1,0.2,0.2,0.3,0.3l0.2,0.2c0.1,0.1,0.2,0.1,0.4,0.1h0.6c0.1,0,0.2,0,0.3-0.1c0,0,0,0,0,0c0.1,0,0.3-0.1,0.4-0.2
		c0.1,0,0.2-0.1,0.3-0.2c0.1-0.1,0.1-0.2,0.1-0.3c0.1-0.2,0.1-0.4,0.1-0.6v-1c0,0,0,0,0,0c0.1-0.1,0.2-0.2,0.2-0.3
		c0.1-0.1,0.1-0.3,0.1-0.4c0-0.1,0.1-0.2,0.1-0.3c0-0.1,0.1-0.3,0.1-0.4c0-0.1,0-0.1,0-0.2c0.1,0,0.2-0.1,0.2-0.1
		c0.1-0.1,0.3-0.3,0.4-0.5c0-0.1,0.1-0.1,0.1-0.2c0.1-0.1,0.1-0.2,0.2-0.4c0.1-0.1,0.2-0.1,0.3-0.2c0,0,0,0,0,0v0.3
		c0,0.3,0,0.6,0.3,0.9c0,0.1,0.1,0.1,0.1,0.2c0,0,0.1,0.1,0.1,0.1c0.1,0.1,0.2,0.2,0.3,0.2c0.1,0.1,0.1,0.1,0.2,0.1
		c0.5,0.1,0.8,0.1,1.1,0.1h0.2c0.1,0,0.3-0.1,0.4-0.1l0.1-0.1c0,0,0.1-0.1,0.1-0.1l0.1-0.3c0.1-0.3,0.3-0.5,0.4-0.9
		c0.1-0.1,0.1-0.2,0.1-0.4v0c0.1-0.1,0.1-0.3,0.1-0.4l1-2.3c0.3-0.1,0.5-0.4,0.7-0.5c0.1-0.1,0.1-0.1,0.2-0.2
		c0.1-0.1,0.3-0.3,0.5-0.5c0,0,0.1,0,0.1,0c0.1,0.1,0.1,0.1,0.2,0.1c0.4,0.1,0.6,0.1,0.7,0.1h0.5c0.2,0,0.4-0.1,0.5-0.3
		c0.1-0.2,0.3-0.5,0.5-0.7c0.1-0.2,0.3-0.4,0.4-0.5l0.2-0.2c0.3-0.4,0.6-0.7,0.9-1c0.2-0.2,0.4-0.4,0.6-0.6c0.2-0.2,0.3-0.4,0.5-0.6
		c0.4-0.4,0.7-0.6,1.3-1c0.6-0.5,1.2-1,1.8-1.6c0.3-0.3,0.6-0.5,0.9-0.8c0.4-0.4,0.8-0.8,1.2-1.2c0.4-0.4,0.7-0.8,1.1-1.2l0.1-0.1
		c0.1-0.1,0.1-0.2,0.1-0.4c0-0.1,0-0.2-0.1-0.3c0.4-0.3,0.8-0.7,1.1-1c0.1-0.1,0.3-0.3,0.4-0.4c0.5-0.5,1-1.1,1.5-1.7l1.9-2.2
		c0.1-0.1,0.2-0.2,0.3-0.3l0,0.9c0.1,1.6,0.2,3.2,0.2,4.8c0.1,1.3,0.2,2.6,0.3,4c0,0.2,0,0.5,0.2,0.8l0.1,0.1c0,0,0,0.1,0,0.1
		c0,0.2,0,0.4,0.1,0.5c0,0.1,0,0.2,0,0.4c0,0.2,0,0.5,0.1,0.7c0,0,0,0,0,0.1c-2,0.2-3.5,0.2-4-0.1c-0.2-0.1-0.4-0.1-0.5,0
		c-2.2,1.3-4.9,2.7-5.4,2.5c-0.3-0.1-0.5,0.1-0.6,0.3c-0.8,2.6-2.1,6.5-2.3,6.9c-0.4,0.6-0.3,1.7-0.2,3c0,0.3,0.1,0.5,0.1,0.7
		c0,0.2,0.2,0.5,0.4,0.5c0,0,0.6,0.1,1.1,0.6c0.2,0.2,0.5,0.2,0.7,0.1c0.2-0.2,0.7-0.5,1.1-0.7c-0.6,0.7-1.1,1.4-1.6,2
		c-1.6,2.1-3.1,4.6-4.3,7c-1.1,2.3-2.1,4.7-2.8,7.5l-0.5,0.5c-0.1,0.1-0.1,0.1-0.1,0.2l-0.1,0.1c-0.1,0.1-0.2,0.3-0.1,0.4l0.1,1.2
		v0.3c0,0.1,0,0.3,0.1,0.4v0.1c0,0.1,0.1,0.3,0.1,0.4l0.2,0.2l-0.2,0.3c0,0.1-0.1,0.3-0.1,0.3v0.4c0,0.1,0,0.4,0.1,0.6
		c0,0,0,0.1,0,0.1c0.1,0.3,0.2,0.6,0.5,0.9l0.2,0.1l0,0c-0.1,0.1-0.1,0.2-0.1,0.4v0.1c0,0.1,0,0.3,0.1,0.4c0,0.1,0,0.2,0.1,0.3
		c0,0,0,0.1,0,0.1c0,0.1,0.1,0.3,0.2,0.4c0,0.1,0.1,0.1,0.1,0.2c0,0,0.1,0.2,0.1,0.2c0.1,0.1,0.2,0.3,0.5,0.4c0.1,0,0.1,0.1,0.2,0.1
		h0.1c0.1,0,0.3,0.1,0.4,0.2c0.1,0.1,0.3,0.1,0.4,0.2l2,1.7c0.6,0.4,1.3,0.7,1.9,1l1.8,0.6c0.7,0.2,1.4,0.3,1.9,0.4
		c0.2,0.1,0.3,0.1,0.5,0.1c0.1,0,0.3,0,0.4,0.1l0.8,0.2c0.6,0.2,1,0.4,1.4,0.7c0.2,0.2,0.3,0.3,0.4,0.5c0,0,0.1,0.1,0.1,0.1
		c0,0,0.1,0.1,0.1,0.2c0,0,0,0.1,0.1,0.1v0.3c-0.2,0.1-0.3,0.3-0.3,0.5c0,0.1-0.1,2.1-0.2,3.9c-0.2,2.9-0.3,3.8-0.3,3.9
		c0,1.1,0.1,2,0.5,2.9c0.2,0.4,0.4,0.8,0.7,1.3c0.3,0.4,0.8,0.8,1.3,1c0.2,0.1,0.5,0.2,0.8,0.2c0.3,0.1,0.6,0.1,0.8,0.1
		c0.2,0,0.3,0,0.5,0.1c0.3,0.1,0.6,0.1,1,0c0.9-0.2,1.7-0.7,2.6-1.4c0.8-0.8,1.2-1.8,1.5-2.5c0.1-0.4,0.2-0.8,0.4-1.3
		c0.1-0.4,0.2-0.9,0.2-1.4l0-0.2c0.1-0.1,0.1-0.2,0.1-0.4c0,0,0-0.4,0.1-1l0.3-3.6c0.1-1.9,0.1-3.6-0.1-5.2l0-1.7l0.2-3.7v-1.3
		c0.6,1.4,1.4,3.5,1.7,3.9c0.5,1,1.9,1.2,2.4,1.3c0.3,0.2,0.5,0.5,0.5,0.5c-0.1,0.4-0.7,2.6-0.9,3.4c0,0.2,0,0.3,0.1,0.5
		c0.8,1,2.1,2.6,2.3,3.3c0.1,0.2,0.2,0.3,0.4,0.3l2.3,0.6l2.1,2l-0.2,2c-0.3,0.6-0.9,2-1.1,2.4c-0.2,0.4-0.1,0.8,0,1.2
		c0.1,0.6,0.3,1.3-0.1,2.1c-0.1,0.2-0.1,0.4,0,0.5c0,0,1.1,1.4,1.5,2c0.1,0.2,0.4,0.3,0.6,0.2c0,0,1.5-0.6,2.2,0.2
		c1,1.1,4.5,5.2,4.5,5.3c0.1,0.1,0.2,0.2,0.4,0.2c0.1,0,0.3,0,0.4-0.1c0,0,0.2-0.2,0.4-0.4l0.4,0.9c0.8,1.8,1.5,3.7,2.2,5.6l0.1,0.3
		c0.1,0.3,0.3,0.6,0.3,1c0,0,0,0.1,0,0.1c0,0,0,0.1,0.1,0.2c0,0.1,0.1,0.3,0.1,0.5c0,0.1,0,0.4,0,0.5c0,0.5,0.1,1,0.1,1.5
		c0,0.5,0.1,1,0.1,1.6c0.1,1.9,0.2,3.9,0.2,5.9l0.1,3l0.1,1.5v6c0,0.5,0,1,0.1,1.5c0,0.3,0.1,0.6,0.2,0.8l0.1,0.2c0,0,0,0.2,0.1,0.3
		c0,0.2,0.1,0.3,0.1,0.5c0.2,0.5,0.4,1,0.7,1.4c0.2,0.5,0.5,1,1,1.5c0.4,0.4,1,0.8,1.6,1c0.1,0,0.1,0,0.2,0h0.1c0,0,0.1,0,0.1,0
		l2.7-0.1c0.1,0,0.3-0.1,0.4-0.1l0,0c0.1,0,0.1-0.1,0.2-0.1c0.1,0,0.2-0.1,0.3-0.1c0,0,0.1-0.1,0-0.1c0.1,0,0.3-0.1,0.4-0.1
		c0.1-0.1,0.2-0.2,0.3-0.3c0.1-0.1,0.3-0.2,0.4-0.3c0.2-0.2,0.3-0.3,0.5-0.5c0.1,0,0.2-0.1,0.2-0.1c0,0,0.1-0.1,0.1-0.1
		c0.2-0.3,1.1-1.5,1.4-3.2c0.1-0.3,0.2-0.6,0.2-0.9c0.5-0.6,0.5-1,0.5-1.3c0-1.2,0-2.4-0.1-3.6l-0.3-3.6c-0.1-1.2-0.3-2.4-0.5-3.7
		c-0.1-0.6-0.2-1.2-0.4-1.9l-0.2-0.4c0,0,0-0.1,0-0.1c0-0.1,0-0.1,0-0.2l-0.1-0.2c-0.1-0.2-0.1-0.3-0.1-0.6
		c-0.1-0.5-0.2-1.1-0.3-1.6v-0.9c0-0.1,0-0.2,0-0.2c0-0.2,0-0.5,0-0.7v-0.1c0-0.2-0.1-0.3-0.1-0.4l0,0c0-0.1,0-0.2-0.1-0.3
		c0,0,0-0.1,0-0.1c0-0.1,0-0.1,0-0.2c-0.1-0.2-0.1-0.5-0.1-0.7c0-0.3-0.1-0.6-0.1-0.9c0-0.3-0.1-0.6-0.1-0.9
		c-0.1-1.2-0.1-2.4-0.1-3.5c0.1-0.6,0.1-1.2,0.1-1.8c0-0.6,0-1.2,0.1-1.8c0.1-1.6,0.1-3.3,0-5c0.4-0.1,0.8,0,1-0.3
		c1.2-1.8,2.9-3.9,3.4-4c0.2-0.1,0.4-0.3,0.4-0.5c0-0.2-0.1-0.4-0.3-0.4c-0.5-0.6-1.2-5.3-1-6c0,0,0,0,0-0.1
		c0.1-0.6-0.3-1.4-0.9-2.4c-0.1-0.3-0.3-0.5-0.3-0.6c-0.1-0.2-0.4-0.4-0.6-0.3c0,0-0.5,0.1-1-0.2c-0.1-0.1-0.3-0.1-0.4,0
		c-0.1,0-0.2,0.1-0.3,0.3c-0.2,0.4-0.8,1.3-1.2,1.5c-0.2,0.1-0.3,0.3-0.3,0.5c0,0.2,0.2,0.4,0.4,0.5c0.2,0,0.8,0.1,1.8-0.7
		c0.2-0.1,0.6,0,0.8,0.5c0.4,1,0.6,1.9,0.7,2.3l0,0.2c0.1,0.5-0.1,4.2-1,5c-0.9,0.9-1.3,1.5-1.5,1.8l-0.7,0.4c0-0.1,0-0.2,0-0.3
		c-0.2-1.1-0.6-2.3-1.1-3.7c-0.2-0.5-0.4-0.9-0.6-1.3l-0.2-0.5c-0.3-0.5-0.6-1-0.8-1.4l-0.3-0.6c-0.4-0.9-0.8-1.7-1.1-2.6
		c-0.2-0.6-0.4-1.1-0.5-1.7c0-0.1-0.1-0.2-0.1-0.3c0-0.2-0.1-0.4-0.1-0.5c-0.1-0.2-0.1-0.5-0.1-0.6c0.1-4.4,0.1-8.2-0.1-11.6
		c-0.1-1.9-0.2-3.9-0.5-5.8c-0.1-0.8-0.3-1.9-0.5-3l-0.1-0.4c-0.2-0.8-0.4-1.6-0.6-2.4c-0.9-3.8-1.8-7.5-3-11.3
		c-0.3-0.9-0.6-1.8-0.9-2.9c0-0.1-0.1-0.2-0.1-0.3c-0.1-0.1-0.1-0.3-0.2-0.4c-0.1-0.2-0.2-0.4-0.3-0.7c-0.2-0.3-0.4-0.8-0.5-1.3
		c-0.1-0.4-0.2-0.8-0.3-1.2c-0.1-0.5-0.3-1-0.4-1.6c-0.1-0.4-0.1-0.7-0.2-1c0-0.1,0.1-0.2,0.1-0.3c0-0.1,0-0.4-0.1-0.8
		c0-0.4,0-0.7-0.1-0.8c-0.1-1.1,0.1-2.7,0.3-3.6c0.2-1.1,0.5-2.2,0.9-3.2l0.1-0.3c0.2-0.4,0.3-0.8,0.6-1.3c0.2-0.5,0.5-1,0.8-1.5
		l0.4-0.8c0.4-0.8,0.7-1.6,1-2.4c0.9-2.1,1.7-4.4,2.5-6.5c0.6-1.7,1.2-3.5,1.8-5.3l0.1,0.1c0.3,0.5,0.7,0.9,1.1,1.3
		c0.2,0.2,0.4,0.4,0.6,0.6c0.3,0.3,0.6,0.6,0.9,1l0.2,0.3c0.4,0.5,0.8,1,1.3,1.5c1.1,1.1,2.1,1.9,3,2.6c0.9,0.7,1.9,1.4,2.8,2
		c0,0.3,0,0.6,0.1,0.9v0.2c0,0.2,0.1,0.3,0.1,0.4c0,0,0,0.1,0,0.1c0,0.1,0,0.1,0.1,0.2c0,0.1,0.1,0.2,0.1,0.3
		c0.3,1.1,0.9,2.1,1.2,2.7c0.1,0.1,0.1,0.2,0.1,0.2l-0.1,0.2l-0.1,0.1c-0.1,0.1-0.1,0.2-0.1,0.4s0.1,0.3,0.1,0.4l0,0
		c0.1,0.1,0.1,0.4,0.3,0.6l0.2,0.3l0.3,0.9c0,0.1,0.1,0.2,0.1,0.2c0,0.1,0.1,0.2,0.1,0.3c0.1,0.3,0.1,0.6,0.2,0.9
		c0.1,0.3,0.2,0.7,0.2,1c0.2,1.1,0.5,2.4,0.7,3.6c0.2,0.8,0.3,1.5,0.4,1.8c-0.2,0.2-0.3,0.4-0.5,0.6c-0.1,0.1-0.1,0.2-0.2,0.3
		c-0.1,0.1-0.2,0.2-0.3,0.3c0,0,0,0,0,0c0,0,0,0-0.1,0c0,0-0.1,0.1-0.1,0.1c-0.1,0-0.1,0.1-0.2,0.2c-0.1,0.1-0.1,0.2-0.2,0.3
		c0,0-0.1,0.1-0.1,0.1c-0.1,0.1-0.2,0.2-0.2,0.3c0,0-0.1,0.1-0.1,0.1c0,0-0.1,0-0.1,0.1c-0.1,0.1-0.1,0.1-0.2,0.2
		c-0.1,0.1-0.1,0.2-0.2,0.3c0,0-0.1,0.1-0.1,0.1c-0.1,0.1-0.1,0.2-0.2,0.3c0,0-0.1,0.1-0.1,0.1c-0.1,0.1-0.2,0.3-0.2,0.4
		c0,0,0,0.1,0,0.1c-0.1,0.1-0.1,0.2-0.2,0.3c-0.1,0.1-0.1,0.1-0.1,0.2l-0.1,0.5c-1-0.8-2.1-1.8-2.2-2.2c0-0.1-0.1-0.3-0.2-0.4
		s-0.3-0.1-0.4-0.1c-1.3,0.3-5,0.9-6.3,0c-0.2-0.2-0.5-0.1-0.7,0.1c-0.2,0.2-0.1,0.5,0.1,0.7l1.8,1.5c0.1,0.1,0.2,0.1,0.3,0.1l3-0.1
		l1.8,1.5l0.1,2.3c-0.3,1-0.8,2.6-1.1,3c-0.2,0.5,0,0.9,0.2,1.4c0.3,0.6,0.6,1.3,0.2,2.3c-0.1,0.2,0,0.4,0.2,0.6c0,0,1.5,1.2,2,1.8
		c0.2,0.2,0.4,0.2,0.7,0.1c0,0,1.9-1.2,3-0.6c0.6,0.3,2,1.4,3.5,2.5l0.2,0.2c0,0.1,0.1,0.1,0.2,0.1l0.8,0.5c0.9,0.7,1.6,1.2,1.6,1.2
		c0.2,0.1,0.4,0.1,0.6,0l0.6,0.3c0.8,1.3,1.9,3.4,1.7,4.1c-0.2,1-2.3,3.5-3.1,4.4c0,0-0.1,0.1-0.1,0.1c-0.1,0.2-1.2,2.5-1,3.9
		c0,0.3-0.2,0.6-0.6,0.8c-0.9,0.6-2.4,0.8-3.8,0c-0.5-0.4-1.2-1.2-1.2-1.6c0-0.1-0.1-0.3-0.2-0.4c-0.1-0.1-0.3-0.1-0.4-0.1
		c-0.8,0.1-2.9,0.3-3.7,0.1c-0.2-0.1-0.4,0-0.5,0.2c-0.8,0.9-2,2-2.4,2c-0.1,0-0.3,0.1-0.3,0.2c-0.1,0.1-0.1,0.2-0.1,0.4
		c0.3,1.9,0.4,5.2-0.5,6.2c-0.2,0.2-0.2,0.5,0,0.7c0.1,0.1,0.2,0.1,0.3,0.1c0.1,0,0.3-0.1,0.4-0.2l1.6-1.7c0.1-0.1,0.1-0.2,0.1-0.3
		l0.2-2.9l1.6-1.7l2.3,0.1c0.4,0.2,2.4,1,3,1.3c0.5,0.3,1,0.1,1.5-0.1c0.6-0.2,1.3-0.4,2.3,0c0.2,0.1,0.4,0,0.6-0.1
		c0,0,1.4-1.4,2.1-2c0.2-0.2,0.2-0.4,0.1-0.6c-0.3-0.6-0.9-2.2-0.3-3.1c0.9-1.3,4.9-5.8,5-5.9c0.2-0.2,0.2-0.5,0-0.7
		c-0.7-0.6-1.9-2-1.9-2.8l-0.2-1.6c0-0.2-0.1-0.3-0.2-0.4l-0.9-0.6c0.5-0.4,1-0.7,1.3-0.8l1.6-0.4c0.1,0,0.3-0.1,0.3-0.3l2.2-4.2
		c0.4-0.2,1.4-0.6,1.5-0.7c0.2-0.1,2-0.3,2.8,0.6c0.2,0.2,0.5,0.2,0.7,0.1l1.7-1.2c0.2-0.1,0.3-0.4,0.2-0.6
		C221.8,87.2,221.5,87.1,221.3,87.1z M144.5,87.3c-0.2,0-0.7-0.2-0.7-1c0.1-1.5,0.3-2.7,0.4-3c0.1-0.6,2-4.4,3.3-4.9
		c1.4-0.6,2.1-1,2.4-1.2l5-0.6c-0.3,1-0.7,2-1.3,2.9l-0.2,0.4c-0.9,1.1-2.1,2.3-3.2,3.4c-0.9,0.9-1.7,1.7-2.4,2.5
		c-0.2,0.3-0.4,0.5-0.7,0.8c-0.2,0.2-0.4,0.4-0.6,0.6C146.2,87.2,145.6,87.1,144.5,87.3z M160.4,108.4
		C160.3,108.4,160.3,108.5,160.4,108.4l-0.2-0.3c0-0.1-0.1-0.1-0.1-0.2c-0.2-0.2-0.8-0.8-1.3-0.9c-0.1,0-0.2,0-0.5,0
		c-0.3,0-0.6-0.1-0.9-0.1l-0.5-0.2c-0.1,0-0.3,0-0.4,0l-0.1,0c-0.1,0-0.2,0-0.2,0c-0.3,0-0.6,0.2-0.8,0.5l-0.3,0
		c-0.1,0-0.3,0.1-0.3,0.1l-0.4-1.7c0-0.1,0-0.2,0-0.2c0.1-0.1,0.2-0.2,0.3-0.3l0.7-0.5l1.8-1.6c2.1-1.8,2.4-2,2.5-2.3l0.4-0.4
		c0,0,0.1-0.1,0.1-0.1c0.1-0.1,0.1-0.2,0.2-0.3c0.5-0.6,1.2-1.3,1.2-1.3l1.7-2.4c0,0,0,0,0,0c0.1,0,0.2-0.1,0.2-0.1c0,0,0.1,0,0.1,0
		c0.1,0,0.1,0,0.3,0l0.2,0c0,0,0.1,0,0.1,0c0.4,0.1,0.6,0.2,0.9,0.4c0.5,0.2,0.9,0.7,1.3,1.2c0.4,0.6,0.7,1.2,0.8,1.8
		c0.1,0.2,0.1,0.4,0.2,0.6c0,0.2,0.1,0.3,0.1,0.5c0,0,0,0.1,0,0.1c0,0.1,0,0.2,0.1,0.4l0.1,0.5c0.1,0.7,0.2,1.4,0.4,2.1
		c0.2,1.4,0.5,2.8,0.9,4.4c0.1,0.2,0.1,0.4,0.2,0.6c0,0.2,0.1,0.3,0.1,0.5c0,0.1,0.1,0.2,0.1,0.2c0,0,0.1,0.1,0.1,0.1l5,15.3
		l1.4,2.9l0.6,1.7c0,0.1,0.1,0.3,0.1,0.4l0.4,0.4c0.1,0.1,0.1,0.1,0.2,0.3c0,0,0.1,0.1,0.1,0.1c0.2,0.2,0.3,0.4,0.4,0.6
		c0,0,0.1,0.1,0.1,0.1c0,0,0.1,0.1,0.2,0.2c0.1,0.1,0.1,0.2,0.2,0.2c0.1,0.2,0.2,0.3,0.2,0.6c0,0.1,0,0.1,0.1,0.1c0,0,0,0.1,0,0.1
		c0,0.1,0,0.2,0.1,0.4c0,0.1,0,0.4,0,0.5c0,0.1,0,0.1-0.1,0.2c-0.1,1-0.2,2-0.1,3.1c0.1,1,0.4,2,0.8,3c0,0,0,0,0,0
		c-0.7-0.3-2.5-2.3-3.4-3.5c0,0-0.1-0.1-0.1-0.1c-0.2-0.1-1.8-1.4-3-1.6c-0.1,0-0.4-0.2-0.6-0.6c-0.4-0.8-0.6-2.3,0.1-3.4
		c0.3-0.4,0.8-0.7,1-0.7c0,0,0,0,0,0c0.2,0,0.3,0,0.5-0.1c0.1-0.1,0.2-0.3,0.2-0.4c-0.1-0.9-0.1-2.6,0.1-3.2c0.1-0.2,0-0.3-0.1-0.5
		c-0.8-1-1.5-2.1-1.5-2.4c0-0.2,0-0.3-0.1-0.4c-0.1-0.1-0.3-0.2-0.4-0.1c0,0-2.6,0.3-3.6-0.9c-0.4-0.5-0.8-0.9-1.1-1.2
		c-0.7-0.7-0.9-0.9-0.8-1.5c0.2-1.2,0.9-3.1,0.9-3.1c0.1-0.2,0-0.4-0.2-0.6c0,0-0.7-0.6-1.3-1.4c-0.1-0.1-0.2-0.2-0.4-0.2
		c0,0-1.2,0-1.9-0.9l-1.5-3.7c0-0.1-0.1-0.2-0.2-0.3l-0.9-0.5C160.8,108.3,160.5,108.3,160.4,108.4z"/>
	<path class="st3" d="M248.9,108.5c0.1-0.1,0.2-0.2,0.3-0.3c0-0.2,0-0.3-0.1-0.5c0,0-0.1-0.1-0.2-0.1c0,0,0,0,0,0
		c0-0.1,0.1-0.2,0.1-0.3l4-4.4c0.2-0.2,0.2-0.5,0-0.7c-0.5-0.5-1.4-1.5-1.5-2l-0.2-1.2c0-0.1-0.1-0.3-0.2-0.3l-3.1-1.9
		c-0.2-0.4-0.4-0.9-0.4-1.1c0-0.1,0-0.1,0-0.2c-0.1-0.3-0.1-1.5,0.5-1.9c0.2-0.2,0.3-0.4,0.1-0.6l-0.8-1.4c-0.1-0.2-0.4-0.3-0.6-0.2
		c-0.2,0.1-0.4,0.3-0.4,0.5c0.1,1.3-0.2,3.3-0.4,4.5l-0.1,0.3c0,0.1,0,0.3,0.1,0.4l0.7,1c0,0.1,0.1,0.1,0.2,0.1l2.6,1.5
		c0.7,1.1,1.4,2.5,1.3,3c-0.1,0.6-1.5,2.4-2.3,3.4c0,0-0.1,0.1-0.1,0.1c0,0-0.1,0.1-0.1,0.4c-0.8-0.8-1.6-1.9-2.1-2.5
		c-0.1-0.1-0.2-0.2-0.3-0.2l-1.2-0.2c-0.1,0-0.2,0-0.3,0l-2.9,1.1c-1.3-0.2-2.9-0.6-3.1-1c-0.4-0.5-0.8-2.6-1-4c0,0,0-0.1,0-0.1
		c-0.1-0.2-0.9-1.8-1.7-2.5c-0.1-0.1-0.2-0.3-0.1-0.7c0.1-0.7,0.7-1.7,1.8-2.2c0.6-0.1,1.2,0,1.3,0.1c0.1,0.1,0.3,0.2,0.4,0.1
		c0.2,0,0.3-0.1,0.4-0.2c0.4-0.7,1.2-1.8,1.7-2.1c0.2-0.1,0.3-0.3,0.2-0.5c-0.2-0.9-0.2-2,0-2.3c0.1-0.1,0.1-0.3,0.1-0.4
		c0-0.1-0.1-0.3-0.2-0.3c-1.2-0.7-3.2-2.2-3.4-3.2c0-0.3-0.3-0.5-0.6-0.4c-0.3,0-0.5,0.3-0.4,0.6l0.2,1.8c0,0.1,0.1,0.2,0.1,0.3
		l1.6,1.6l0.2,1.7l-1.2,1.3c-0.4,0.2-1.8,0.9-2.2,1c-0.4,0.2-0.5,0.5-0.7,0.9c-0.2,0.5-0.4,1-1.1,1.3c-0.2,0.1-0.3,0.3-0.3,0.5
		c0.1,0.4,0.2,1.5,0.1,2.1c0,0.3,0.1,0.5,0.4,0.6c0.4,0.1,1.7,0.5,1.8,1.2c0.3,1.2,0.9,5.7,0.9,5.7c0,0.1,0.1,0.3,0.2,0.3
		c0.1,0.1,0.2,0.1,0.4,0.1c0.8-0.1,2-0.1,2.5,0.1l1.1,0.7c0.1,0.1,0.3,0.1,0.4,0.1l3.4-1.1c0.5,0.2,1.1,0.4,1.2,0.4
		c0.2,0.1,1.2,0.8,1.1,1.6c0,0.2,0.1,0.5,0.4,0.5l0.3,0.1c-0.1,0.3-0.1,0.6-0.1,0.9c0,0.1-0.1,0.3-0.4,0.5c-0.6,0.4-1.8,0.6-2.8,0
		c-0.5-0.4-0.9-0.9-0.9-1.1c0-0.1-0.1-0.3-0.2-0.4c-0.1-0.1-0.3-0.1-0.4-0.1c-0.8,0.1-2.2,0.3-2.7,0.1c-0.2-0.1-0.4,0-0.5,0.2
		c-0.6,0.8-1.5,1.5-1.7,1.5c-0.1,0-0.3,0.1-0.4,0.2c-0.1,0.1-0.1,0.3-0.1,0.4c0.3,1.4,0.4,3.9-0.3,4.7c-0.2,0.2-0.2,0.5,0,0.7
		c0.1,0.1,0.2,0.1,0.3,0.1c0.1,0,0.3-0.1,0.4-0.2l1.2-1.3c0.1-0.1,0.1-0.2,0.1-0.3l0.2-2.2l1.1-1.2l1.7,0.1c0.5,0.2,1.8,0.8,2.2,1
		c0.4,0.2,0.8,0.1,1.2,0c0.5-0.2,1-0.3,1.7,0c0.2,0.1,0.4,0,0.6-0.1c0,0,1.1-1.1,1.6-1.5c0.2-0.2,0.2-0.4,0.1-0.6
		C249.3,109.8,249,109.2,248.9,108.5z"/>
	<path class="st3" d="M338.6,87.4c-0.1-0.2-0.3-0.3-0.6-0.3c-1.8,0.4-4.6,0.2-6.3-0.1c-0.1,0-0.3,0-0.4,0.1l-1.3,1
		c-0.1,0-0.1,0.1-0.1,0.2l-1.8,3.6c-1,0.8-2.8,2-3.8,2.1l-1.1-0.7c-0.2-0.4-0.6-1.4-0.6-1.6c-0.1-0.3-0.1-2.1,0.7-2.8
		c0.2-0.2,0.2-0.4,0.1-0.6l-1.1-1.8c-0.1-0.2-0.4-0.3-0.6-0.2s-0.4,0.3-0.4,0.5c0.1,1.7-0.3,3.9-0.6,5.5c-0.8-0.5-1.5-1-1.5-1
		c0,0-0.1,0-0.1-0.1c-0.1,0-2.4-0.9-3.9-0.8c-0.2,0-0.6-0.2-0.9-0.6c-0.6-0.8-1-2.4-0.3-3.8c0.4-0.6,1.1-1.3,1.4-1.3
		c0.2,0,0.3-0.1,0.4-0.2c0.1-0.1,0.1-0.3,0.1-0.4c0-0.2-0.1-0.4-0.2-0.7c0.1,0.1,0.3,0.1,0.4,0.2c0.1,0,0.2,0.1,0.5,0.1h0.4
		c0.1,0,0.1,0,0.2,0c0.4-0.1,0.5-0.3,0.7-0.5c0,0,0.1-0.1,0.1-0.1c0.1-0.1,0.2-0.3,0.3-0.4c0,0,0.1-0.1,0.1-0.1c0,0,0.1-0.1,0.1-0.1
		c0.1-0.1,0.1-0.3,0.2-0.3c0,0,0.1-0.1,0.1-0.1c0,0,0.1-0.1,0.1-0.1c0,0,0.1,0,0.1-0.1c0,0,0.1-0.1,0.1-0.1c0,0,0.1,0,0.1-0.1
		l0.6-0.6c0,0,0,0,0,0c0.3,0.1,0.8,0.3,1.2,0.4l0.9,0.5c0,0,0.1,0,0.1,0l0.9,0.3l0.5,0.2l2,0.6c0,0,0.1,0,0.1,0
		c0.2,0.1,0.6,0.2,0.9,0.2c0.1,0,0.1,0,0.2,0.1l0.3,0.4l0.1,1.3v0.2c-0.1,0.1-0.1,0.2-0.2,0.3c0,0-0.1,0.1-0.1,0.1
		c-0.1,0.2-0.1,0.3-0.1,0.5c0,0.1,0,0.2-0.1,0.2c0,0,0,0.1,0,0.1l-0.1,0.4c0,0,0,0.2,0,0.2v0.1c0,0.2,0,0.5,0.2,0.7
		c0,0.1,0.1,0.1,0.1,0.2c0,0.1,0.1,0.2,0.1,0.3c0,0.1,0.2,0.2,0.3,0.3l0.2,0.2c0.1,0.1,0.3,0.2,0.4,0.1c0.1,0,0.3-0.1,0.4-0.2
		l1.3-1.7l0.1-0.1c0.1-0.1,0.1-0.2,0.1-0.4l0-0.1c0.2,0.1,0.4,0.1,0.5,0.1c0.2,0,0.5,0,0.8-0.2l0.1-0.1c0.2-0.1,0.3-0.3,0.3-0.4
		c0.7-0.8,0.7-1.4,0.7-1.9l0-0.5c0-0.1,0-0.2-0.1-0.3c0,0,0-0.1,0-0.1c0-0.1,0-0.2-0.1-0.2c0-0.1,0-0.1-0.1-0.1
		c0-0.1-0.1-0.2-0.3-0.4c0-0.1,0-0.2-0.1-0.2l-0.8-1.5c0,0,0-0.1,0-0.1c0-0.1,0.1-0.3,0.1-0.4v-0.2c0-0.2-0.1-0.3-0.1-0.4
		c0,0,0-0.1,0-0.1l0-0.2c0-0.1-0.1-0.3-0.1-0.4l-1.8-1.8l-0.5-0.4c0,0,0-0.1-0.1-0.1c-0.1-0.1-0.2-0.3-0.3-0.3
		c-0.2-0.3-0.4-0.5-0.5-0.9l-0.4-2.5c-0.1-0.7-0.1-1.3-0.1-2.1c-0.1-1.4-0.2-2.8-0.2-4.2c0-0.7,0-1.4,0.1-2.1c0-0.2,0-0.3,0-0.5
		c0-0.2,0.1-0.3,0.1-0.5c0,0,0-0.1,0-0.2c0-0.1,0.1-0.2,0.1-0.3c0,0,0-0.1,0-0.2c0-0.1,0.1-0.2,0-0.2l0.1-0.5c0-0.1,0-0.3-0.1-0.4
		c-0.1-0.1-0.2-0.2-0.3-0.2l-0.3-0.1c0-0.2,0-0.4,0-0.6c0-0.3,0-0.5-0.1-0.8c0-0.2,0-0.4-0.1-0.7c0-0.2-0.1-0.4-0.1-0.7
		c0-0.2-0.1-0.5-0.1-0.7c-0.1-0.5-0.2-0.9-0.4-1.3v-1.1c0-0.1-0.1-0.3-0.1-0.4l-0.1,0c-0.4-0.5-0.7-0.7-1.1-0.9
		c-0.1-0.1-0.3-0.1-0.3-0.2c0-0.1-0.1-0.1-0.1-0.2c0,0,0,0,0-0.1l-0.1-0.1c-0.1-0.1-0.2-0.2-0.4-0.2c-0.2-0.2-0.4-0.3-0.6-0.6
		c-0.2-0.2-0.5-0.5-0.6-0.7c-0.1-0.2-0.2-0.5-0.3-0.6c-0.1-0.1-0.1-0.2-0.2-0.3c-0.1-0.1-0.1-0.2-0.2-0.3c-0.1-0.2-0.3-0.4-0.4-0.6
		c-0.2-0.3-0.4-0.6-0.6-0.9c-0.2-0.3-0.4-0.6-0.6-0.9c-0.9-1.4-1.8-2.6-2.9-3.7l-0.7-0.7c-0.1-0.2-0.3-0.3-0.4-0.5
		c-0.1-0.1-0.2-0.2-0.3-0.4c-0.5-0.6-0.9-1.1-1.2-1.8c-0.4-0.6-0.8-1.2-1.2-1.9c-0.1-0.2-0.2-0.4-0.3-0.6c-0.3-0.5-0.5-0.9-0.7-1.4
		l-0.2-0.5c-0.1-0.2-0.2-0.4-0.3-0.6c-0.2-0.4-0.4-0.7-0.6-1c-0.5-0.7-0.9-1.2-1.5-1.8c-0.2-0.2-0.4-0.4-0.6-0.6
		c-0.1-0.1-0.2-0.2-0.3-0.3c-0.3-0.3-0.7-0.6-0.9-0.7c-0.5-0.4-1-0.7-1.5-0.9c-0.2-0.1-0.4-0.2-0.6-0.3c-1.5-0.7-2.9-1.2-4.4-1.5
		c-0.9-0.2-1.6-0.3-2.4-0.4c-0.7-0.1-1.5-0.1-2.2-0.1l-0.4-0.2c-0.1-0.1-0.2-0.2-0.3-0.2l-1.4-1.4c-0.2-0.2-0.4-0.5-0.6-0.8
		c-0.1-0.2-0.2-0.3-0.4-0.5l0-0.1c0-0.1,0.1-0.2,0.1-0.3c0.1-0.2,0.1-0.3,0.1-0.5c0-0.1,0-0.1,0.1-0.2c0,0,0.1-0.1,0.1-0.1l0.5-1.2
		c0.2-0.5,0.4-1,0.5-1.5c0-0.1,0.1-0.3,0.1-0.4c0.1-0.1,0.1-0.3,0.2-0.5c0.1-0.4,0.2-0.9,0.2-1.1c0.1-0.3,0.1-0.6,0.1-0.9
		c0-0.3,0-0.6,0.1-0.9c0.1-1.2,0.2-2.3,0.4-3.5c0.1-0.6,0.1-1.3,0.2-2.1c0-0.7,0.1-1.4,0.1-2c0.1-0.8,0.1-1.4,0.1-1.4l0.2-2.7V6
		c0-0.1,0-0.2-0.1-0.2c-0.1-0.2-0.4-0.6-1-0.4c-0.1,0-0.1,0-0.2,0l0-0.1c-0.1-0.4-0.2-0.8-0.6-1.1c-0.1-0.1-0.2-0.1-0.3-0.2
		c-0.2-0.1-0.4-0.3-0.6-0.4c-0.1-0.1-0.3-0.2-0.5-0.2l-0.5,0c0,0-0.1,0-0.1-0.1c0,0-0.1-0.1-0.1-0.1c-0.2-0.2-0.4-0.4-0.6-0.7
		l-0.1-0.1c0-0.1-0.1-0.2-0.1-0.2c-0.1-0.1-0.3-0.3-0.5-0.4c-0.4-0.3-0.7-0.3-1-0.3c-0.6-0.1-1,0-1.5,0.1l-0.1,0c-0.1,0-0.2,0-0.3,0
		c0,0,0,0-0.1,0c0,0-0.1-0.1-0.1-0.1c-0.2-0.1-0.4-0.1-0.6-0.1c-0.1,0-0.1,0-0.3,0c-0.2-0.1-0.5,0.1-0.6,0.1c0,0,0,0-0.1,0
		c-0.1,0-0.3,0-0.4,0.2c0,0-0.1,0-0.1,0c-0.1,0-0.3,0.1-0.5,0.2c-0.1,0-0.2,0-0.3,0C285.2,2,285,2,284.8,2c0,0-0.1,0-0.2,0
		c-0.1,0-0.3-0.1-0.4-0.1h-0.6c-0.2,0-0.4,0.1-0.5,0.2c0,0-0.1,0.1-0.2,0.1c-0.1,0-0.1,0.1-0.2,0.1L282.3,3
		c-0.1,0.1-0.2,0.1-0.2,0.2c-0.1,0.1-0.1,0.1-0.1,0.2c-0.1,0.2-1.1,1.3-1.9,2.3c-0.1,0.1-0.1,0.2-0.1,0.3v3.4c0,0.1,0,0.2,0,0.3
		c0,0.2-0.1,0.3-0.1,0.4c-0.1,0.6-0.2,1.2-0.2,1.7l-0.3,3.5c0,0.4-0.1,0.9-0.1,1.3c0,0.4,0,0.9-0.1,1.3l-0.2,1.9
		c0,0.2,0,0.5,0.1,0.9v0c0,0.2,0,0.4,0.1,0.6c0,0.1,0,0.1,0,0.1l0.4,0.9l-0.3,5.3l-0.2,1.8c0,0-0.1,0-0.1,0.1
		c-0.2,0.2-0.7,0.7-1,0.9c-0.1,0.1-0.3,0.2-0.4,0.2c-0.1,0.1-0.1,0.1-0.3,0.2c-0.6,0.4-1.5,0.8-2.7,1.2c-0.2,0.1-0.4,0.1-0.5,0.1
		c0,0-0.1,0-0.1,0l-0.8,0.2c0,0-0.2,0-0.3,0.1c-0.2,0-0.3,0.1-0.4,0.1l-0.9,0.2c-1.2,0.5-2.1,1-2.8,1.6c-0.9,0.7-1.7,1.4-2.4,2.2
		c-0.4,0.4-0.5,0.9-0.6,1.3c0,0.1-0.1,0.2-0.2,0.4c-0.1,0.7-0.2,1.2-0.2,1.6l0,3.1c0,0.3,0.1,0.7,0.1,1c0,0.7,0.1,1.4,0.2,2
		c0,0.7-0.1,1.5-0.2,2.1c0,0.4-0.1,0.8-0.1,1.1c0,0.4-0.1,0.8-0.1,1.1l-0.1,0.5c-0.2,1.2-0.4,2.5-0.6,3.7l-5.4,6.5c0,0-0.1,0-0.1,0
		h-0.8c-0.2,0-0.4,0.1-0.4,0.3l-0.1,0.2c-0.2,0.5-0.4,0.8-0.7,1.4c-0.1,0.3-0.3,0.6-0.5,0.9c-0.1,0.1-0.2,0.3-0.2,0.4
		c-0.4,0.5-0.7,0.9-1,1.3c-0.3,0.4-0.6,0.8-1,1.3c-1.1,1.4-2.2,2.8-3.3,4.2l-0.7,1l-0.1,0.1c-0.1,0.1-0.1,0.2-0.1,0.4v0
		c-0.2,0.1-0.4,0.1-0.7,0.2c0,0-0.1,0-0.1,0l-1.2,0.6c-0.2,0.1-0.4,0.2-0.6,0.4c-0.2,0.1-0.3,0.2-0.5,0.3c-0.5,0.2-0.8,0.6-1.1,0.8
		c-0.4,0.3-0.7,0.5-1,0.8c-0.3,0.3-0.6,0.5-1,0.8c-0.1,0.1-0.2,0.1-0.2,0.2c-0.1,0.1-0.2,0.2-0.4,0.3l-0.3,0.3
		c-0.1,0.1-0.2,0.2-0.3,0.3c-0.2,0.2-0.5,0.4-0.6,0.6c-0.1,0.1-0.3,0.3-0.5,0.6c-0.1,0.1-0.1,0.2-0.1,0.2c-0.1,0.1-0.2,0.2-0.2,0.3
		c-0.1,0.1-0.1,0.2-0.1,0.3l-1.2,3.3c-0.2,0.6-0.4,1.1-0.5,1.5c-0.1,0.2-0.1,0.4-0.2,0.4l-0.1,0.2c-0.2,0.3-0.2,0.6,0,0.9
		c0.1,0.4,0.4,0.7,0.7,0.9c0.2,0.2,0.5,0.2,0.7,0.2c0.3,0,0.6,0,0.8-0.2l0,0.2c0,0.2,0.2,0.4,0.4,0.4c0,0,0.8,0.1,0.9,0.1
		c0.3,0,0.6-0.1,0.9-0.4c0.1-0.1,0.2-0.2,0.3-0.3l0,0c0,0,0,0,0-0.1c0.1-0.1,0.2-0.2,0.2-0.3l0,0.1c0,0.1,0.1,0.1,0.1,0.2
		c0,0.1,0.2,0.2,0.3,0.3l0.2,0.2c0.1,0.1,0.2,0.1,0.4,0.1h0.6c0.1,0,0.2,0,0.3-0.1c0.1,0,0.3-0.1,0.4-0.2c0.1,0,0.2-0.1,0.3-0.2
		c0.1-0.1,0.1-0.2,0.1-0.3c0.1-0.2,0.1-0.4,0.1-0.6v-1c0.1,0,0.1-0.1,0.1-0.2l0.1-0.2c0-0.1,0.1-0.2,0.1-0.3c0-0.1,0.1-0.2,0.1-0.3
		c0-0.1,0.1-0.3,0.1-0.4c0-0.1,0-0.1,0-0.2c0.1,0,0.2-0.1,0.2-0.1c0.1-0.1,0.3-0.3,0.4-0.5c0-0.1,0.1-0.1,0.1-0.2
		c0.1-0.1,0.1-0.2,0.2-0.4c0.1-0.1,0.2-0.1,0.3-0.2c0,0,0,0,0,0v0.3c0,0.3,0,0.6,0.2,0.9c0,0.1,0.1,0.1,0.1,0.2c0,0,0.1,0.1,0.1,0.1
		c0.1,0.1,0.2,0.2,0.3,0.2c0.1,0.1,0.1,0.1,0.2,0.1c0.5,0.1,0.8,0.1,1.1,0.1h0.2c0.1,0,0.3-0.1,0.4-0.1l0.1-0.1c0,0,0.1-0.1,0.1-0.1
		l0.1-0.3c0.1-0.3,0.3-0.5,0.4-0.9c0-0.1,0.1-0.2,0.1-0.3c0.1-0.1,0.1-0.3,0.1-0.4l1-2.3c0.3-0.1,0.5-0.4,0.7-0.5
		c0.1-0.1,0.1-0.1,0.2-0.2c0.1-0.1,0.3-0.3,0.5-0.5c0,0,0.1,0,0.1,0c0.1,0.1,0.1,0.1,0.2,0.1c0.4,0.1,0.6,0.1,0.7,0.1
		c0.1,0,0.3-0.1,0.4-0.1l0.1-0.1c0,0,0.1-0.1,0.1-0.2c0.1-0.2,0.3-0.5,0.5-0.7c0.1-0.2,0.3-0.4,0.4-0.5l0.2-0.3
		c0.3-0.4,0.6-0.7,0.9-1c0.2-0.2,0.4-0.4,0.6-0.6c0.2-0.2,0.3-0.4,0.5-0.6c0.4-0.4,0.7-0.6,1.3-1c0.6-0.5,1.2-1,1.8-1.5
		c0.3-0.3,0.6-0.5,0.9-0.8c0.4-0.4,0.8-0.8,1.2-1.2c0.4-0.4,0.7-0.8,1.1-1.2l0.1-0.1c0.2-0.2,0.2-0.4,0.1-0.6c0.4-0.3,0.8-0.7,1.1-1
		c0.1-0.1,0.3-0.3,0.4-0.4c0.5-0.5,1-1.1,1.5-1.7l1.9-2.2c0.1-0.1,0.2-0.2,0.3-0.3l0,1c0.1,1.6,0.2,3.2,0.2,4.8l0,0.4
		c0.1,1.2,0.2,2.3,0.3,3.6c0,0.2,0,0.5,0.2,0.8l0.1,0.1c0,0,0,0.1,0,0.1c0,0.2,0,0.4,0.1,0.5c0,0.1,0,0.2,0,0.4v1c0,0,0,0.1,0,0.1
		c0.2,0.6,0.1,1.1-0.2,1.6c0,0-0.1,0.1-0.1,0.2c-0.2,0.8-0.6,1.7-1.2,2.5c0,0,0,0.1-0.1,0.1l-0.2,0.4c-0.9,1.1-2.1,2.3-3.2,3.4
		c-0.9,0.9-1.7,1.7-2.4,2.5c-0.2,0.3-0.4,0.5-0.7,0.8c-0.2,0.3-0.5,0.5-0.7,0.8c-0.9,1-1.7,2-2.4,3c-1.6,2.1-3.1,4.6-4.3,7
		c-1.1,2.3-2.1,4.7-2.8,7.5l-0.5,0.5c-0.1,0.1-0.1,0.1-0.1,0.2l-0.1,0.1c-0.1,0.1-0.2,0.3-0.1,0.4l0.1,1.1v0.4c0,0.1,0,0.3,0.1,0.4
		v0.1c0,0.1,0.1,0.3,0.1,0.4l0.2,0.2l-0.2,0.3c0,0.1-0.1,0.2-0.1,0.2v0.5c0,0.1,0,0.4,0.1,0.6c0,0,0,0.1,0,0.1
		c0.1,0.3,0.2,0.6,0.5,0.9l0.2,0.1l0,0c-0.1,0.1-0.1,0.3-0.1,0.5c0,0.1,0,0.3,0.1,0.4c0,0.1,0,0.2,0.1,0.3c0,0,0,0.1,0,0.1
		c0,0.1,0.1,0.3,0.2,0.4c0,0.1,0.1,0.1,0.1,0.2c0,0,0.1,0.2,0.1,0.2c0.1,0.1,0.2,0.3,0.5,0.4c0,0,0.1,0,0.2,0c0.1,0,0.3,0.1,0.4,0.2
		c0.1,0.1,0.3,0.1,0.4,0.2l2,1.7c0.6,0.4,1.3,0.7,1.9,1l1.8,0.6c0.6,0.2,1.2,0.3,1.8,0.4l0.1,0c0.2,0.1,0.4,0.1,0.5,0.1
		c0.1,0,0.2,0,0.4,0.1l0.8,0.2c0.6,0.2,1,0.4,1.4,0.7c0.2,0.2,0.3,0.3,0.4,0.5c0,0,0.1,0.1,0.1,0.2c0,0,0.1,0.1,0.1,0.2
		c0,0,0,0.1,0,0.1v0.3c-0.2,0.1-0.3,0.3-0.3,0.5c0,0.1-0.1,2.1-0.2,3.9c-0.2,2.9-0.3,3.8-0.3,3.9c0,1.1,0.1,2,0.5,2.9
		c0.2,0.4,0.4,0.8,0.7,1.3c0.3,0.4,0.8,0.8,1.3,1c0.2,0.1,0.5,0.2,0.8,0.2c0.3,0.1,0.6,0.1,0.8,0.1c0.2,0,0.3,0,0.5,0.1
		c0.3,0.1,0.6,0.1,1,0c0.9-0.2,1.7-0.7,2.6-1.4c0.8-0.8,1.2-1.8,1.5-2.5c0.1-0.4,0.2-0.8,0.4-1.3c0.1-0.4,0.2-0.9,0.2-1.4l0-0.2
		c0.1-0.1,0.1-0.2,0.1-0.4c0,0,0-0.4,0.1-1l0.3-3.6c0.1-1.9,0.1-3.6-0.1-5.2l0-1.7l0.2-3.7v-1.2c0.6,1.4,1.4,3.5,1.7,3.9
		c0.5,1,1.9,1.2,2.4,1.3c0.3,0.2,0.5,0.5,0.5,0.5c-0.1,0.4-0.7,2.6-0.9,3.4c0,0.2,0,0.3,0.1,0.5c0.8,1,2.1,2.6,2.3,3.3
		c0.1,0.2,0.2,0.3,0.4,0.3l2.3,0.6l2.1,2l-0.2,2c-0.3,0.6-0.9,2-1.1,2.4c-0.2,0.4-0.1,0.8,0,1.2c0.1,0.6,0.3,1.3-0.1,2.1
		c-0.1,0.2-0.1,0.4,0,0.5c0,0,1.1,1.4,1.5,2c0.1,0.2,0.4,0.3,0.6,0.2c0,0,1.5-0.6,2.2,0.2c1,1.1,4.5,5.2,4.5,5.3
		c0.1,0.1,0.2,0.2,0.4,0.2c0.1,0,0.3,0,0.4-0.1c0,0,0.2-0.2,0.4-0.4l0.4,0.9c0.8,1.8,1.5,3.7,2.2,5.6l0.1,0.3c0.1,0.3,0.3,0.6,0.3,1
		c0,0,0,0.1,0,0.1c0,0,0,0.1,0.1,0.2c0,0.1,0.1,0.3,0.1,0.5c0,0.1,0,0.4,0,0.5c0,0.5,0.1,1,0.1,1.5c0,0.5,0.1,1,0.1,1.5
		c0.1,2,0.2,4,0.2,6l0.1,3l0.1,1.5v5.9c0,0.5,0,1,0.1,1.5c0,0.3,0.1,0.6,0.2,0.8l0.1,0.2c0,0,0,0.2,0.1,0.3c0,0.1,0.1,0.3,0.1,0.5
		c0.2,0.5,0.4,1,0.7,1.4c0.2,0.5,0.5,1,1,1.5c0.4,0.4,1,0.8,1.6,1c0.1,0,0.1,0,0.2,0l2.8-0.1c0.1,0,0.3-0.1,0.4-0.1l0,0
		c0.1,0,0.1-0.1,0.2-0.1c0.2,0,0.3-0.1,0.4-0.2c0.1,0,0.2-0.1,0.2-0.1c0.1-0.1,0.2-0.2,0.3-0.3c0.1-0.1,0.3-0.2,0.4-0.3
		c0.2-0.2,0.3-0.3,0.5-0.5c0.1,0,0.2-0.1,0.3-0.1c0,0,0,0,0.1-0.1c0.2-0.3,1.2-1.5,1.4-3.2c0.1-0.3,0.2-0.5,0.2-0.9
		c0.5-0.6,0.5-1,0.5-1.3c0-1.2,0-2.4-0.1-3.6l-0.3-3.6c-0.1-1.2-0.3-2.5-0.5-3.6c-0.1-0.6-0.2-1.2-0.4-1.9l-0.2-0.5c0,0,0-0.1,0-0.1
		c0-0.1,0-0.1,0-0.2l-0.1-0.2c-0.1-0.2-0.1-0.3-0.1-0.5c-0.1-0.5-0.2-1-0.3-1.6l0-0.8c0-0.1,0-0.2,0-0.2c0-0.2,0.1-0.5,0-0.7v-0.1
		c0-0.1,0-0.3-0.1-0.4v0c0-0.1,0-0.2-0.1-0.3c0,0,0-0.1,0-0.1c0-0.1,0-0.1,0-0.2c-0.1-0.2-0.1-0.5-0.1-0.7c0-0.3-0.1-0.6-0.1-0.9
		c0-0.3-0.1-0.6-0.1-0.9c-0.1-1.2-0.1-2.4-0.1-3.5c0.1-0.6,0.1-1.2,0.1-1.8c0-0.6,0-1.2,0.1-1.8c0.1-1.6,0.1-3.3,0-5
		c0.4-0.1,0.8,0,1-0.3c1.3-1.8,2.9-3.9,3.4-4c0.2-0.1,0.4-0.3,0.4-0.5c-0.3-2.7-0.6-5.8-0.5-6.3c0.1-0.6-0.3-1.4-0.9-2.4
		c-0.1-0.3-0.3-0.5-0.3-0.6c-0.1-0.2-0.4-0.4-0.6-0.3c0,0-0.5,0.1-1-0.2c-0.1-0.1-0.3-0.1-0.4,0c-0.1,0-0.2,0.1-0.3,0.3
		c-0.2,0.5-0.8,1.3-1.2,1.5c-0.2,0.1-0.3,0.3-0.3,0.5c0,0.2,0.2,0.4,0.4,0.5c0.2,0,0.8,0.1,1.8-0.7c0.2,0,0.5-0.1,0.8,0.5
		c0.4,1,0.6,1.9,0.7,2.3l0,0.2c0.1,0.5-0.1,4.2-1,5c-0.9,0.9-1.3,1.5-1.5,1.8l-0.7,0.4c0-0.1,0-0.2,0-0.3c-0.2-1.1-0.6-2.3-1.1-3.7
		c-0.2-0.5-0.4-0.9-0.6-1.3l-0.2-0.5c-0.3-0.5-0.6-1-0.8-1.5l-0.3-0.6c-0.4-0.9-0.8-1.7-1.1-2.6c-0.2-0.6-0.4-1.1-0.5-1.7
		c0-0.1-0.1-0.2-0.1-0.3c0-0.2-0.1-0.4-0.1-0.5c-0.1-0.2-0.1-0.5-0.1-0.6c0.1-4.4,0.1-8.2-0.1-11.6c-0.1-1.9-0.2-3.9-0.5-5.8
		c-0.1-0.8-0.3-1.9-0.5-3l-0.1-0.4c-0.2-0.8-0.4-1.6-0.6-2.4c-0.9-3.8-1.8-7.5-3-11.3c-0.3-0.9-0.6-1.8-0.9-2.9
		c0-0.1-0.1-0.2-0.1-0.3c-0.1-0.1-0.1-0.3-0.2-0.4c-0.1-0.2-0.2-0.4-0.3-0.7c-0.2-0.3-0.4-0.8-0.5-1.3c-0.1-0.4-0.2-0.8-0.3-1.2
		c-0.1-0.5-0.3-1-0.4-1.6c-0.1-0.4-0.1-0.7-0.2-1c0-0.1,0.1-0.2,0.1-0.3c0-0.1,0-0.4-0.1-0.8c0-0.4,0-0.7-0.1-0.8
		c-0.1-1.1,0.1-2.7,0.3-3.6c0.2-1.1,0.5-2.1,0.9-3.2l0.1-0.3c0.2-0.4,0.3-0.8,0.6-1.3c0.2-0.5,0.5-0.9,0.8-1.5l0.4-0.8
		c0.4-0.8,0.7-1.6,1-2.4c0.9-2.1,1.7-4.4,2.5-6.5c0.6-1.7,1.2-3.5,1.8-5.3l0.1,0.1c0.3,0.5,0.7,0.9,1.1,1.3c0.2,0.2,0.4,0.4,0.6,0.6
		c0.3,0.3,0.6,0.6,0.9,1l0.2,0.3c0.4,0.5,0.8,1,1.3,1.5c1.1,1.1,2.1,1.9,3,2.6c0.9,0.7,1.9,1.4,2.8,2c0,0.3,0,0.6,0.1,0.9V61
		c0,0.2,0.1,0.3,0.1,0.4c0,0,0,0.1,0,0.1c0,0.1,0,0.1,0.1,0.2c0,0.1,0.1,0.2,0.1,0.3c0.3,1.1,0.9,2.1,1.2,2.7
		c0.1,0.1,0.1,0.2,0.1,0.2l-0.1,0.2l-0.1,0.1c-0.2,0.2-0.2,0.5,0,0.7l0,0c0.1,0.1,0.1,0.4,0.3,0.6l0.2,0.3l0.3,0.9
		c0,0.1,0.1,0.2,0.1,0.2c0,0.1,0.1,0.2,0.1,0.3c0.1,0.3,0.1,0.6,0.2,0.9c0.1,0.3,0.2,0.7,0.2,1c0.2,1,0.5,2.4,0.7,3.5
		c0.2,0.8,0.3,1.5,0.4,1.8c-0.2,0.2-0.3,0.4-0.5,0.6c-0.1,0.1-0.1,0.2-0.2,0.3c-0.1,0.1-0.2,0.2-0.3,0.3c0,0,0,0,0,0c0,0,0,0-0.1,0
		c0,0-0.1,0.1-0.1,0.1c-0.1,0-0.1,0.1-0.2,0.2c-0.1,0.1-0.1,0.2-0.2,0.3c0,0-0.1,0.1-0.1,0.1c-0.1,0.1-0.2,0.2-0.2,0.3
		c0,0-0.1,0.1-0.1,0.1c0,0-0.1,0-0.1,0.1c-0.1,0.1-0.1,0.1-0.2,0.2c-0.1,0.1-0.1,0.2-0.2,0.3c0,0-0.1,0.1-0.1,0.1
		c-0.1,0.1-0.1,0.2-0.2,0.3c0,0-0.1,0.1-0.1,0.1c-0.1,0.1-0.2,0.3-0.2,0.4c0,0,0,0.1,0,0.1c-0.1,0.1-0.1,0.2-0.2,0.2
		c-0.1,0.1-0.1,0.1-0.1,0.2l-0.1,0.5c0-0.2,0-0.3-0.2-0.4c-1-0.8-2.2-1.8-2.2-2.3c0-0.1-0.1-0.3-0.2-0.4s-0.3-0.1-0.4-0.1
		c-1.3,0.3-5,0.9-6.3,0c-0.2-0.2-0.5-0.1-0.7,0.1c-0.2,0.2-0.1,0.5,0.1,0.7l1.8,1.5c0.1,0.1,0.2,0.1,0.3,0.1l3-0.1l1.8,1.5l0.1,2.3
		c-0.3,1-0.8,2.6-1.1,3c-0.2,0.5,0,0.9,0.2,1.4c0.3,0.6,0.6,1.3,0.2,2.3c-0.1,0.2,0,0.4,0.2,0.6c0,0,1.5,1.2,2,1.8
		c0.2,0.2,0.4,0.2,0.7,0.1c0,0,1.9-1.2,3-0.6c0.6,0.3,2,1.4,3.5,2.5l0.2,0.2c0,0.1,0.1,0.1,0.2,0.1l0.8,0.5c0.9,0.7,1.6,1.2,1.6,1.2
		c0.2,0.1,0.4,0.1,0.6,0l0.6,0.3c0.8,1.3,1.9,3.4,1.7,4.1c-0.2,1-2.3,3.5-3.1,4.4c0,0-0.1,0.1-0.1,0.1c-0.1,0.2-1.2,2.5-1,3.9
		c0,0.3-0.2,0.6-0.6,0.8c-0.9,0.6-2.4,0.8-3.8,0c-0.5-0.4-1.2-1.2-1.2-1.6c0-0.1-0.1-0.3-0.2-0.4c-0.1-0.1-0.3-0.1-0.4-0.1
		c-0.8,0.1-2.9,0.3-3.7,0.1c-0.2-0.1-0.4,0-0.5,0.2c-0.8,0.9-2,2-2.4,2c-0.1,0-0.3,0.1-0.3,0.2c-0.1,0.1-0.1,0.2-0.1,0.4
		c0.3,1.9,0.4,5.2-0.5,6.2c-0.2,0.2-0.2,0.5,0,0.7c0.1,0.1,0.2,0.1,0.3,0.1c0.1,0,0.3-0.1,0.4-0.2l1.6-1.7c0.1-0.1,0.1-0.2,0.1-0.3
		l0.2-2.9l1.6-1.7l2.3,0.1c0.4,0.2,2.4,1,3,1.3c0.5,0.3,1,0.1,1.5-0.1c0.6-0.2,1.3-0.4,2.3,0c0.2,0.1,0.4,0,0.6-0.1
		c0,0,1.4-1.4,2.1-2c0.2-0.2,0.2-0.4,0.1-0.6c-0.3-0.6-0.9-2.2-0.3-3.1c0.9-1.3,4.9-5.8,5-5.9c0.2-0.2,0.2-0.5,0-0.7
		c-0.7-0.6-1.9-2-1.9-2.8l-0.2-1.6c0-0.2-0.1-0.3-0.2-0.4l-0.9-0.6c0.5-0.4,1-0.7,1.3-0.8l1.6-0.4c0.1,0,0.3-0.1,0.3-0.3l2.2-4.3
		c0.4-0.2,1.4-0.6,1.5-0.7c0.2-0.1,2-0.3,2.8,0.6c0.2,0.2,0.5,0.2,0.7,0.1l1.7-1.2C338.6,87.9,338.7,87.6,338.6,87.4z M276.6,108.6
		C276.5,108.6,276.5,108.7,276.6,108.6l-0.2-0.3c0-0.1-0.1-0.1-0.1-0.2c-0.2-0.2-0.8-0.8-1.3-0.9c-0.1,0-0.2,0-0.5,0
		c-0.3,0-0.6-0.1-0.9-0.1l-0.5-0.2c-0.1,0-0.3,0-0.4,0l-0.1,0c-0.1,0-0.2,0-0.2,0c-0.3,0-0.6,0.2-0.8,0.5l-0.3,0.1
		c-0.1,0-0.3,0.1-0.3,0.1l-0.4-1.7c0-0.1,0-0.2,0-0.2c0.1-0.1,0.2-0.2,0.3-0.3l0.7-0.5l1.8-1.6c2.1-1.8,2.4-2,2.5-2.3l0.4-0.4
		c0,0,0.1-0.1,0.1-0.1c0.1-0.1,0.1-0.2,0.2-0.3c0.5-0.6,1.2-1.3,1.2-1.3l1.7-2.4c0,0,0,0,0,0c0.1,0,0.2-0.1,0.2-0.1c0,0,0.1,0,0.1,0
		c0.1,0,0.1,0,0.3,0l0.2,0c0,0,0.1,0,0.1,0c0.4,0.1,0.6,0.2,0.9,0.4c0.5,0.2,0.9,0.7,1.3,1.2c0.4,0.6,0.7,1.2,0.8,1.8
		c0.1,0.2,0.1,0.4,0.2,0.6c0,0.2,0.1,0.3,0.1,0.5c0,0,0,0.1,0,0.1c0,0.1,0,0.2,0.1,0.4l0.1,0.5c0.1,0.7,0.2,1.4,0.4,2.1
		c0.2,1.4,0.5,2.8,0.9,4.3c0.1,0.2,0.1,0.4,0.2,0.6c0,0.2,0.1,0.3,0.1,0.5c0,0.1,0.1,0.2,0.1,0.2c0,0,0.1,0.1,0.1,0.1l5,15.3
		l1.4,2.9l0.6,1.7v0c0,0.1,0.1,0.3,0.1,0.4l0.4,0.4c0.1,0.1,0.1,0.1,0.2,0.3c0,0,0.1,0.1,0.1,0.1c0.2,0.2,0.3,0.4,0.4,0.6
		c0,0,0.1,0.1,0.1,0.1c0,0,0.1,0.1,0.2,0.2c0.1,0.1,0.1,0.2,0.2,0.2c0.1,0.2,0.2,0.3,0.2,0.6c0,0.1,0,0.1,0.1,0.1c0,0,0,0.1,0,0.1
		c0,0.1,0,0.2,0.1,0.4c0,0.1,0,0.4,0,0.5c0,0.1,0,0.1,0,0.2c-0.1,1-0.2,2-0.1,3.1c0.1,1,0.4,2,0.8,3c0,0,0,0,0,0
		c-0.7-0.3-2.5-2.3-3.4-3.5c0,0-0.1-0.1-0.1-0.1c-0.2-0.1-1.8-1.4-3-1.6c-0.1,0-0.4-0.2-0.6-0.6c-0.4-0.8-0.6-2.3,0.1-3.4
		c0.3-0.4,0.8-0.7,1-0.7c0,0,0,0,0,0c0.2,0,0.3,0,0.5-0.1c0.1-0.1,0.2-0.3,0.2-0.4c-0.1-0.9-0.1-2.6,0.1-3.2c0.1-0.2,0-0.3-0.1-0.5
		c-0.8-1-1.5-2.1-1.5-2.4c0-0.2,0-0.3-0.1-0.4s-0.3-0.2-0.4-0.1c-0.7,0.1-2.8,0.1-3.6-0.9c-0.4-0.5-0.8-0.9-1.1-1.2
		c-0.7-0.7-0.9-0.9-0.8-1.5c0.2-1.2,0.9-3.1,0.9-3.1c0.1-0.2,0-0.4-0.2-0.6c0,0-0.7-0.6-1.3-1.4c-0.1-0.1-0.2-0.2-0.4-0.2
		c0,0-1.2,0-1.9-0.9l-1.5-3.7c0-0.1-0.1-0.2-0.2-0.3l-0.9-0.5C277,108.5,276.7,108.5,276.6,108.6z"/>
</g>
</svg>
