<?xml version="1.0" encoding="utf-8"?>
<!-- Generator: Adobe Illustrator 23.1.1, SVG Export Plug-In . SVG Version: 6.00 Build 0)  -->
<svg version="1.1" id="Capa_1" xmlns="http://www.w3.org/2000/svg" xmlns:xlink="http://www.w3.org/1999/xlink" x="0px" y="0px"
	 viewBox="0 0 340 400" style="enable-background:new 0 0 340 400;" xml:space="preserve">
<style type="text/css">
	.st0{fill:#F8E7BC;}
</style>
<g>
	<rect x="140.8" y="1.8" class="st0" width="58.7" height="58.7"/>
	<rect x="210.3" y="1.8" class="st0" width="58.7" height="58.7"/>
	<rect x="278.7" y="1.8" class="st0" width="58.7" height="58.7"/>
</g>
<g>
	<rect x="2.6" y="68.7" class="st0" width="58.7" height="58.7"/>
	<rect x="72.1" y="68.7" class="st0" width="58.7" height="58.7"/>
	<rect x="140.8" y="68.7" class="st0" width="58.7" height="58.7"/>
	<rect x="210.3" y="68.7" class="st0" width="58.7" height="58.7"/>
	<rect x="278.7" y="68.7" class="st0" width="58.7" height="58.7"/>
</g>
<g>
	<rect x="2.6" y="137.4" class="st0" width="58.7" height="58.7"/>
	<rect x="72.1" y="137.4" class="st0" width="58.7" height="58.7"/>
	<rect x="140.8" y="137.4" class="st0" width="58.7" height="58.7"/>
	<rect x="210.3" y="137.4" class="st0" width="58.7" height="58.7"/>
	<rect x="278.7" y="137.4" class="st0" width="58.7" height="58.7"/>
</g>
<rect x="2.6" y="204.3" class="st0" width="58.7" height="58.7"/>
<rect x="72.1" y="204.3" class="st0" width="58.7" height="58.7"/>
<rect x="139.2" y="204.3" class="st0" width="58.7" height="58.7"/>
<rect x="208.7" y="204.3" class="st0" width="58.7" height="58.7"/>
<rect x="278.7" y="204.3" class="st0" width="58.7" height="58.7"/>
<rect x="2.6" y="273" class="st0" width="58.7" height="58.7"/>
<rect x="72.1" y="273" class="st0" width="58.7" height="58.7"/>
<rect x="140.8" y="273" class="st0" width="58.7" height="58.7"/>
<rect x="210.3" y="273" class="st0" width="58.7" height="58.7"/>
<rect x="278.9" y="272.8" class="st0" width="58.7" height="58.7"/>
<g>
	<rect x="2.5" y="340" class="st0" width="58.7" height="58.7"/>
	<rect x="72" y="340" class="st0" width="58.7" height="58.7"/>
	<rect x="140.7" y="340" class="st0" width="58.7" height="58.7"/>
</g>
<g>
	<path d="M157.9,21.4h-6.4l-1.2,3.7h-3.9L153,7.3h3.4L163,25h-3.9L157.9,21.4z M152.5,18.4h4.4l-2.2-6.7L152.5,18.4z"/>
</g>
<g>
	<path d="M217.2,25V7.3h6.2c2.2,0,3.8,0.4,4.9,1.2c1.1,0.8,1.7,2,1.7,3.6c0,0.9-0.2,1.6-0.7,2.3c-0.4,0.7-1.1,1.1-1.9,1.5
		c0.9,0.2,1.6,0.7,2.2,1.4c0.5,0.7,0.8,1.5,0.8,2.5c0,1.7-0.5,3-1.6,3.9s-2.6,1.3-4.7,1.3H217.2z M220.9,14.7h2.7
		c1.8,0,2.8-0.8,2.8-2.2c0-0.8-0.2-1.4-0.7-1.7c-0.5-0.4-1.2-0.5-2.2-0.5h-2.6V14.7z M220.9,17.3v4.8h3.1c0.9,0,1.5-0.2,2-0.6
		s0.7-1,0.7-1.7c0-1.6-0.8-2.5-2.5-2.5C224.2,17.3,220.9,17.3,220.9,17.3z"/>
</g>
<g>
	<path d="M300.5,19.1c-0.1,1.9-0.8,3.4-2.1,4.5c-1.3,1.1-3,1.6-5,1.6c-2.3,0-4.1-0.8-5.4-2.3s-2-3.6-2-6.3v-1.1
		c0-1.7,0.3-3.2,0.9-4.5s1.5-2.3,2.6-3s2.4-1,3.9-1c2.1,0,3.7,0.5,5,1.6s2,2.6,2.2,4.6h-3.7c-0.1-1.1-0.4-2-1-2.5
		c-0.5-0.5-1.4-0.8-2.5-0.8c-1.2,0-2.1,0.4-2.7,1.3c-0.6,0.9-0.9,2.2-0.9,4.1v1.3c0,1.9,0.3,3.3,0.9,4.2c0.6,0.9,1.5,1.3,2.8,1.3
		c1.1,0,2-0.3,2.5-0.8c0.6-0.5,0.9-1.3,1-2.4h3.5L300.5,19.1L300.5,19.1z"/>
</g>
<g>
	<path d="M9.2,93.1V75.3h5.5c1.6,0,3,0.4,4.2,1.1c1.2,0.7,2.2,1.7,2.9,3c0.7,1.3,1,2.8,1,4.4v0.8c0,1.7-0.3,3.1-1,4.4
		s-1.6,2.3-2.9,3s-2.6,1.1-4.2,1.1C14.7,93.1,9.2,93.1,9.2,93.1z M12.8,78.3v11.9h1.8c1.4,0,2.5-0.5,3.3-1.4s1.1-2.3,1.2-4v-0.9
		c0-1.8-0.4-3.2-1.1-4.1s-1.8-1.4-3.3-1.4L12.8,78.3L12.8,78.3z"/>
</g>
<g>
	<path d="M89.4,85.4h-7v4.8h8.3v2.9h-12V75.3h11.9v3h-8.2v4.2h7C89.4,82.5,89.4,85.4,89.4,85.4z"/>
</g>
<g>
	<path d="M158.6,85.8h-7v7.3h-3.7V75.3h11.6v3h-7.9v4.6h7L158.6,85.8L158.6,85.8z"/>
</g>
<g>
	<path d="M231.3,90.8c-0.7,0.8-1.6,1.4-2.8,1.8s-2.5,0.7-4,0.7s-2.9-0.3-4-1c-1.2-0.7-2.1-1.6-2.7-2.9c-0.6-1.3-1-2.8-1-4.5v-1.2
		c0-1.8,0.3-3.3,0.9-4.6c0.6-1.3,1.5-2.3,2.6-3s2.4-1,4-1c2.1,0,3.8,0.5,4.9,1.5c1.2,1,1.9,2.5,2.1,4.4h-3.6c-0.2-1-0.5-1.8-1.1-2.2
		c-0.6-0.5-1.3-0.7-2.3-0.7c-1.2,0-2.2,0.5-2.8,1.4c-0.7,0.9-1,2.3-1,4.2v1.1c0,1.9,0.4,3.3,1.1,4.2s1.7,1.4,3.1,1.4
		c1.4,0,2.4-0.3,2.9-0.9v-3.1h-3.3v-2.7h7L231.3,90.8L231.3,90.8z"/>
</g>
<g>
	<path d="M301,93.1h-3.7v-7.6h-7.1v7.6h-3.7V75.3h3.7v7.2h7.1v-7.2h3.7V93.1z"/>
</g>
<g>
	<path d="M13.1,160.9H9.4v-17.8h3.7C13.1,143.1,13.1,160.9,13.1,160.9z"/>
</g>
<g>
	<path d="M85.8,143.1h3.7v12.3c0,1.1-0.2,2.1-0.8,3c-0.5,0.9-1.2,1.5-2.1,2s-1.9,0.7-3.1,0.7c-1.9,0-3.3-0.5-4.4-1.4
		c-1-1-1.6-2.3-1.6-4.1h3.7c0,0.9,0.2,1.5,0.5,1.9c0.4,0.4,0.9,0.6,1.7,0.6c0.7,0,1.3-0.2,1.7-0.7c0.4-0.5,0.6-1.2,0.6-2.1v-12.2
		H85.8z"/>
</g>
<g>
	<path d="M153.4,153.8l-1.9,2.1v5.1h-3.7v-17.8h3.7v8.1l1.6-2.2l4.5-5.8h4.5l-6.3,7.9l6.5,9.9H158L153.4,153.8z"/>
</g>
<g>
	<path d="M220.9,158h7.8v2.9h-11.4v-17.8h3.7V158H220.9z"/>
</g>
<g>
	<path d="M291.4,143.1L296,156l4.5-12.9h4.8v17.8h-3.7V156l0.4-8.4l-4.8,13.2h-2.5l-4.8-13.2l0.4,8.4v4.9h-3.7v-17.8L291.4,143.1
		L291.4,143.1z"/>
</g>
<g>
	<path d="M23.6,229H20l-7.1-11.7V229H9.2v-17.8h3.7l7.1,11.7v-11.7h3.6V229z"/>
</g>
<g>
	<path d="M93.2,220.6c0,1.8-0.3,3.3-0.9,4.6s-1.5,2.3-2.7,3.1c-1.2,0.7-2.5,1.1-4,1.1s-2.8-0.4-3.9-1.1c-1.2-0.7-2.1-1.7-2.7-3
		c-0.6-1.3-1-2.8-1-4.5v-0.9c0-1.8,0.3-3.3,0.9-4.6c0.6-1.3,1.5-2.4,2.7-3.1s2.5-1.1,3.9-1.1s2.8,0.4,3.9,1.1c1.2,0.7,2,1.7,2.7,3.1
		c0.6,1.3,0.9,2.9,0.9,4.6v0.7L93.2,220.6L93.2,220.6z M89.5,219.8c0-1.9-0.3-3.3-1-4.2s-1.6-1.5-2.9-1.5c-1.2,0-2.2,0.5-2.8,1.4
		c-0.7,1-1,2.4-1,4.2v0.9c0,1.8,0.3,3.2,1,4.2s1.6,1.5,2.9,1.5c1.2,0,2.2-0.5,2.8-1.4c0.7-1,1-2.4,1-4.2V219.8z"/>
</g>
<g>
	<path d="M149.9,222.8v6.3h-3.7v-17.8h6.9c1.3,0,2.5,0.2,3.5,0.7s1.8,1.2,2.3,2.1c0.5,0.9,0.8,1.9,0.8,3.1c0,1.7-0.6,3.1-1.8,4.1
		s-2.8,1.5-5,1.5L149.9,222.8L149.9,222.8z M149.9,219.9h3.3c1,0,1.7-0.2,2.2-0.7s0.8-1.1,0.8-2s-0.3-1.6-0.8-2.1s-1.2-0.8-2.1-0.8
		h-3.4V219.9z"/>
</g>
<g>
	<path d="M230.2,220.6c0,1.7-0.3,3.1-0.8,4.3s-1.3,2.2-2.2,2.9l3,2.3l-2.3,2.1l-3.8-3c-0.4,0.1-0.9,0.1-1.3,0.1
		c-1.5,0-2.8-0.4-3.9-1.1c-1.2-0.7-2.1-1.7-2.7-3s-1-2.8-1-4.5v-0.9c0-1.8,0.3-3.3,0.9-4.6s1.5-2.4,2.7-3.1s2.5-1.1,3.9-1.1
		s2.8,0.4,3.9,1.1c1.2,0.7,2,1.7,2.7,3.1c0.6,1.3,0.9,2.9,0.9,4.6L230.2,220.6L230.2,220.6z M226.5,219.8c0-1.9-0.3-3.3-1-4.2
		s-1.6-1.5-2.9-1.5c-1.2,0-2.2,0.5-2.8,1.4c-0.7,1-1,2.4-1,4.2v0.9c0,1.8,0.3,3.2,1,4.2s1.6,1.5,2.9,1.5c1.2,0,2.2-0.5,2.8-1.4
		c0.7-1,1-2.4,1-4.2V219.8z"/>
</g>
<g>
	<path d="M293.2,222.6h-2.9v6.5h-3.7v-17.8h6.6c2.1,0,3.7,0.5,4.9,1.4c1.1,0.9,1.7,2.3,1.7,4c0,1.2-0.3,2.2-0.8,3s-1.3,1.5-2.4,1.9
		l3.8,7.3v0.2h-3.9L293.2,222.6z M290.3,219.6h3c0.9,0,1.6-0.2,2.1-0.7s0.8-1.1,0.8-1.9s-0.2-1.5-0.7-2s-1.2-0.7-2.2-0.7h-2.9
		L290.3,219.6L290.3,219.6z"/>
</g>
<path d="M18.4,292.7c0-0.7-0.2-1.2-0.7-1.6s-1.4-0.8-2.6-1.2s-2.3-0.8-3-1.2c-2-1.1-3-2.6-3-4.4c0-1,0.3-1.8,0.8-2.6
	c0.5-0.8,1.3-1.3,2.3-1.8c1-0.4,2.2-0.6,3.4-0.6c1.3,0,2.4,0.2,3.4,0.7s1.8,1.1,2.3,1.9s0.8,1.8,0.8,2.9h-3.7c0-0.8-0.3-1.4-0.8-1.9
	s-1.2-0.7-2.2-0.7c-0.9,0-1.6,0.2-2.1,0.6s-0.7,0.9-0.7,1.5s0.3,1.1,0.9,1.5s1.4,0.8,2.6,1.1c2.1,0.6,3.6,1.4,4.6,2.3
	s1.4,2.1,1.4,3.5c0,1.5-0.6,2.7-1.7,3.6c-1.2,0.9-2.7,1.3-4.7,1.3c-1.4,0-2.6-0.2-3.7-0.8c-1.1-0.5-2-1.2-2.6-2.1s-0.9-1.9-0.9-3
	h3.7c0,2,1.2,2.9,3.5,2.9c0.9,0,1.5-0.2,2-0.5C18.1,293.8,18.4,293.3,18.4,292.7z"/>
<path d="M92,282.6h-5.4v14.8h-3.7v-14.8h-5.4v-3H92L92,282.6L92,282.6z"/>
<path d="M161.3,279.6v11.7c0,1.9-0.6,3.5-1.8,4.6s-2.9,1.7-5,1.7s-3.7-0.5-4.9-1.6s-1.8-2.6-1.9-4.5v-11.8h3.7v11.7
	c0,1.2,0.3,2,0.8,2.5s1.3,0.8,2.3,0.8c2.1,0,3.1-1.1,3.1-3.2v-11.8h3.7L161.3,279.6L161.3,279.6z"/>
<path d="M223.8,293l4-13.4h4.1l-6.2,17.8h-3.8l-6.2-17.8h4.1L223.8,293z"/>
<g>
	<path d="M300.6,292l2.4-12.6h3.7l-3.9,17.8h-3.7l-2.9-11.9l-2.9,11.8h-3.7l-3.9-17.8h3.6l2.4,12.6l2.9-12.6h3.1L300.6,292z"/>
</g>
<g>
	<path d="M15.4,353.8l3.3-6.1h4.2l-5.2,8.8l5.3,9h-4.3l-3.4-6.2l-3.4,6.2H7.6l5.3-9l-5.2-8.8h4.2L15.4,353.8z"/>
</g>
<g>
	<path d="M84.7,355.6l3.7-8h4l-5.8,11.3v6.4h-3.7V359l-5.8-11.3h4L84.7,355.6z"/>
</g>
<g>
	<path d="M151.6,362.5h9v2.9h-13.5v-2.1l8.8-12.7h-8.8v-3h13.3v2.1L151.6,362.5z"/>
</g>
<g>
	<path d="M161.1,53c-1.8,0-3.3-1.5-3.3-3.3s1.5-3.3,3.3-3.3s3.3,1.5,3.3,3.3S163,53,161.1,53z"/>
	<rect x="168.7" y="46.4" width="11.5" height="6.6"/>
</g>
<g>
	<path d="M238.4,53c-1.8,0-3.3-1.5-3.3-3.3s1.5-3.3,3.3-3.3s3.3,1.5,3.3,3.3S240.3,53,238.4,53z"/>
	<path d="M248.1,53c-1.8,0-3.3-1.5-3.3-3.3s1.5-3.3,3.3-3.3s3.3,1.5,3.3,3.3S250,53,248.1,53z"/>
	<path d="M257.7,53c-1.8,0-3.3-1.5-3.3-3.3s1.5-3.3,3.3-3.3c1.8,0,3.3,1.5,3.3,3.3S259.6,53,257.7,53z"/>
	<rect x="218.9" y="46.4" width="11.5" height="6.6"/>
</g>
<g>
	<path d="M304.9,119.5c-1.8,0-3.3-1.5-3.3-3.3c0-1.8,1.5-3.3,3.3-3.3c1.8,0,3.3,1.5,3.3,3.3C308.2,118,306.8,119.5,304.9,119.5z"/>
	<path d="M294.4,119.5c-1.8,0-3.3-1.5-3.3-3.3c0-1.8,1.5-3.3,3.3-3.3c1.8,0,3.3,1.5,3.3,3.3C297.7,118,296.3,119.5,294.4,119.5z"/>
	<path d="M314.6,119.5c-1.8,0-3.3-1.5-3.3-3.3c0-1.8,1.5-3.3,3.3-3.3c1.8,0,3.3,1.5,3.3,3.3C317.9,118,316.5,119.5,314.6,119.5z"/>
	<path d="M324.2,119.5c-1.8,0-3.3-1.5-3.3-3.3c0-1.8,1.5-3.3,3.3-3.3c1.8,0,3.3,1.5,3.3,3.3C327.5,118,326.1,119.5,324.2,119.5z"/>
</g>
<g>
	<path d="M32.6,323.7c-1.8,0-3.3-1.5-3.3-3.3s1.5-3.3,3.3-3.3c1.8,0,3.3,1.5,3.3,3.3S34.5,323.7,32.6,323.7z"/>
	<path d="M22.1,323.7c-1.8,0-3.3-1.5-3.3-3.3s1.5-3.3,3.3-3.3s3.3,1.5,3.3,3.3S24,323.7,22.1,323.7z"/>
	<path d="M42.3,323.7c-1.8,0-3.3-1.5-3.3-3.3s1.5-3.3,3.3-3.3s3.3,1.5,3.3,3.3S44.2,323.7,42.3,323.7z"/>
</g>
<g>
	<path d="M26.6,188c-1.8,0-3.3-1.5-3.3-3.3c0-1.8,1.5-3.3,3.3-3.3s3.3,1.5,3.3,3.3C29.9,186.5,28.5,188,26.6,188z"/>
	<path d="M36.3,188c-1.8,0-3.3-1.5-3.3-3.3c0-1.8,1.5-3.3,3.3-3.3s3.3,1.5,3.3,3.3C39.6,186.5,38.2,188,36.3,188z"/>
</g>
<g>
	<path d="M303.1,53c-1.8,0-3.3-1.5-3.3-3.3s1.5-3.3,3.3-3.3c1.8,0,3.3,1.5,3.3,3.3S305,53,303.1,53z"/>
	<rect x="283.6" y="46.4" width="11.5" height="6.6"/>
	<path d="M329.7,53c-1.8,0-3.3-1.5-3.3-3.3s1.5-3.3,3.3-3.3c1.8,0,3.3,1.5,3.3,3.3S331.6,53,329.7,53z"/>
	<rect x="310.2" y="46.4" width="11.5" height="6.6"/>
</g>
<g>
	<path d="M172.3,188c-1.8,0-3.3-1.5-3.3-3.3c0-1.8,1.5-3.3,3.3-3.3s3.3,1.5,3.3,3.3C175.6,186.5,174.2,188,172.3,188z"/>
	<rect x="152.8" y="181.4" width="11.5" height="6.6"/>
	<rect x="179.3" y="181.4" width="11.5" height="6.6"/>
</g>
<g>
	<rect x="100.5" y="181.4" width="11.3" height="6.6"/>
	<rect x="85" y="181.4" width="11.3" height="6.6"/>
	<path d="M78.1,188c-1.8,0-3.3-1.5-3.3-3.3c0-1.8,1.5-3.3,3.3-3.3s3.3,1.5,3.3,3.3C81.4,186.5,80,188,78.1,188z"/>
	<rect x="116.2" y="181.4" width="11.3" height="6.6"/>
</g>
<g>
	<rect x="96.7" y="247.7" width="11.3" height="6.6"/>
	<rect x="81.2" y="247.7" width="11.3" height="6.6"/>
	<rect x="112.4" y="247.7" width="11.3" height="6.6"/>
</g>
<g>
	<rect x="96.7" y="317.1" width="11.3" height="6.6"/>
</g>
<g>
	<path d="M190.3,119.5c-1.8,0-3.3-1.5-3.3-3.3c0-1.8,1.5-3.3,3.3-3.3s3.3,1.5,3.3,3.3C193.6,118,192.2,119.5,190.3,119.5z"/>
	<rect x="170.8" y="112.9" width="11.5" height="6.6"/>
	<path d="M162.7,119.5c-1.8,0-3.3-1.5-3.3-3.3c0-1.8,1.5-3.3,3.3-3.3s3.3,1.5,3.3,3.3C166,118,164.6,119.5,162.7,119.5z"/>
	<path d="M151.9,119.5c-1.8,0-3.3-1.5-3.3-3.3c0-1.8,1.5-3.3,3.3-3.3s3.3,1.5,3.3,3.3C155.2,118,153.8,119.5,151.9,119.5z"/>
</g>
<g>
	<path d="M221.5,181.4c1.8,0,3.3,1.5,3.3,3.3c0,1.8-1.5,3.3-3.3,3.3s-3.3-1.5-3.3-3.3C218.2,182.9,219.6,181.4,221.5,181.4z"/>
	<rect x="229.5" y="181.4" transform="matrix(-1 -1.224647e-16 1.224647e-16 -1 470.4948 369.4)" width="11.5" height="6.6"/>
	<path d="M249.1,181.4c1.8,0,3.3,1.5,3.3,3.3c0,1.8-1.5,3.3-3.3,3.3s-3.3-1.5-3.3-3.3C245.8,182.9,247.2,181.4,249.1,181.4z"/>
	<path d="M259.9,181.4c1.8,0,3.3,1.5,3.3,3.3c0,1.8-1.5,3.3-3.3,3.3c-1.8,0-3.3-1.5-3.3-3.3C256.6,182.9,258,181.4,259.9,181.4z"/>
</g>
<g>
	<rect x="7.6" y="385.5" transform="matrix(-1 -1.224647e-16 1.224647e-16 -1 26.787 777.6826)" width="11.5" height="6.6"/>
	<rect x="45.6" y="385.5" transform="matrix(-1 -1.224647e-16 1.224647e-16 -1 102.8 777.6826)" width="11.5" height="6.6"/>
	<path d="M27.3,385.5c1.8,0,3.3,1.5,3.3,3.3c0,1.8-1.5,3.3-3.3,3.3s-3.3-1.5-3.3-3.3C24,387,25.4,385.5,27.3,385.5z"/>
	<path d="M38.1,385.5c1.8,0,3.3,1.5,3.3,3.3c0,1.8-1.5,3.3-3.3,3.3s-3.3-1.5-3.3-3.3C34.8,387,36.2,385.5,38.1,385.5z"/>
</g>
<g>
	<rect x="175.3" y="317.1" width="11.5" height="6.6"/>
	<path d="M167.2,323.7c-1.8,0-3.3-1.5-3.3-3.3s1.5-3.3,3.3-3.3s3.3,1.5,3.3,3.3S169.1,323.7,167.2,323.7z"/>
	<path d="M156.4,323.7c-1.8,0-3.3-1.5-3.3-3.3s1.5-3.3,3.3-3.3s3.3,1.5,3.3,3.3S158.3,323.7,156.4,323.7z"/>
</g>
<g>
	<rect x="250.1" y="317.1" width="11.5" height="6.6"/>
	<path d="M242,323.7c-1.8,0-3.3-1.5-3.3-3.3s1.5-3.3,3.3-3.3s3.3,1.5,3.3,3.3S243.9,323.7,242,323.7z"/>
	<path d="M231.2,323.7c-1.8,0-3.3-1.5-3.3-3.3s1.5-3.3,3.3-3.3s3.3,1.5,3.3,3.3S233.1,323.7,231.2,323.7z"/>
	<path d="M219.9,323.7c-1.8,0-3.3-1.5-3.3-3.3s1.5-3.3,3.3-3.3s3.3,1.5,3.3,3.3S221.8,323.7,219.9,323.7z"/>
</g>
<g>
	<path d="M294.7,247.7c1.8,0,3.3,1.5,3.3,3.3s-1.5,3.3-3.3,3.3c-1.8,0-3.3-1.5-3.3-3.3S292.8,247.7,294.7,247.7z"/>
	<rect x="302.7" y="247.7" transform="matrix(-1 -1.224647e-16 1.224647e-16 -1 616.987 502)" width="11.5" height="6.6"/>
	<path d="M322.4,247.7c1.8,0,3.3,1.5,3.3,3.3s-1.5,3.3-3.3,3.3c-1.8,0-3.3-1.5-3.3-3.3S320.5,247.7,322.4,247.7z"/>
</g>
<g>
	<path d="M255.9,119.5c-1.8,0-3.3-1.5-3.3-3.3c0-1.8,1.5-3.3,3.3-3.3c1.8,0,3.3,1.5,3.3,3.3C259.2,118,257.8,119.5,255.9,119.5z"/>
	<rect x="236.3" y="112.9" width="11.5" height="6.6"/>
	<rect x="219.9" y="112.9" width="11.5" height="6.6"/>
</g>
<g>
	<path d="M181.5,392.1c-1.8,0-3.3-1.5-3.3-3.3c0-1.8,1.5-3.3,3.3-3.3s3.3,1.5,3.3,3.3C184.8,390.6,183.4,392.1,181.5,392.1z"/>
	<path d="M191.6,392.1c-1.8,0-3.3-1.5-3.3-3.3c0-1.8,1.5-3.3,3.3-3.3s3.3,1.5,3.3,3.3C194.9,390.6,193.5,392.1,191.6,392.1z"/>
	<rect x="162" y="385.5" width="11.5" height="6.6"/>
	<rect x="145.6" y="385.5" width="11.5" height="6.6"/>
</g>
<g>
	<path d="M191.9,254.3c-1.8,0-3.3-1.5-3.3-3.3s1.5-3.3,3.3-3.3s3.3,1.5,3.3,3.3S193.8,254.3,191.9,254.3z"/>
	<path d="M147.8,254.3c-1.8,0-3.3-1.5-3.3-3.3s1.5-3.3,3.3-3.3s3.3,1.5,3.3,3.3S149.7,254.3,147.8,254.3z"/>
	<rect x="172.4" y="247.7" width="11.5" height="6.6"/>
	<rect x="156" y="247.7" width="11.5" height="6.6"/>
</g>
<g>
	<path d="M245.8,254.3c-1.8,0-3.3-1.5-3.3-3.3s1.5-3.3,3.3-3.3s3.3,1.5,3.3,3.3S247.7,254.3,245.8,254.3z"/>
	<rect x="228.7" y="247.7" width="10.9" height="6.6"/>
	<rect x="251.2" y="247.7" width="10.9" height="6.6"/>
	<rect x="214.8" y="247.7" width="10.9" height="6.6"/>
</g>
<g>
	<path d="M94.2,385.5c1.8,0,3.3,1.5,3.3,3.3c0,1.8-1.5,3.3-3.3,3.3s-3.3-1.5-3.3-3.3C90.9,387,92.3,385.5,94.2,385.5z"/>
	<rect x="100.3" y="385.5" transform="matrix(-1 -1.224647e-16 1.224647e-16 -1 211.5906 777.6826)" width="10.9" height="6.6"/>
	<rect x="77.9" y="385.5" transform="matrix(-1 -1.224647e-16 1.224647e-16 -1 166.7114 777.6826)" width="10.9" height="6.6"/>
	<rect x="114.2" y="385.5" transform="matrix(-1 -1.224647e-16 1.224647e-16 -1 239.3985 777.6826)" width="10.9" height="6.6"/>
</g>
<g>
	<path d="M294.6,317.1c1.8,0,3.3,1.5,3.3,3.3s-1.5,3.3-3.3,3.3c-1.8,0-3.3-1.5-3.3-3.3S292.7,317.1,294.6,317.1z"/>
	<rect x="300.8" y="317.1" transform="matrix(-1 -1.224647e-16 1.224647e-16 -1 612.5579 640.8413)" width="10.9" height="6.6"/>
	<rect x="314.7" y="317.1" transform="matrix(-1 -1.224647e-16 1.224647e-16 -1 640.3658 640.8413)" width="10.9" height="6.6"/>
</g>
<g>
	<rect x="311.2" y="181.4" width="11.5" height="6.6"/>
	<rect x="294.8" y="181.4" width="11.5" height="6.6"/>
</g>
<g>
	<path d="M34.8,119.5c-1.8,0-3.3-1.5-3.3-3.3c0-1.8,1.5-3.3,3.3-3.3s3.3,1.5,3.3,3.3C38.1,118,36.7,119.5,34.8,119.5z"/>
	<path d="M44.5,119.5c-1.8,0-3.3-1.5-3.3-3.3c0-1.8,1.5-3.3,3.3-3.3s3.3,1.5,3.3,3.3C47.8,118,46.4,119.5,44.5,119.5z"/>
	<rect x="15.3" y="112.9" width="11.5" height="6.6"/>
</g>
<g>
	<path d="M39.6,254.3c-1.8,0-3.3-1.5-3.3-3.3s1.5-3.3,3.3-3.3s3.3,1.5,3.3,3.3S41.5,254.3,39.6,254.3z"/>
	<rect x="20.1" y="247.7" width="11.5" height="6.6"/>
</g>
<path d="M103.5,119.5c-1.8,0-3.3-1.5-3.3-3.3c0-1.8,1.5-3.3,3.3-3.3s3.3,1.5,3.3,3.3C106.8,118,105.4,119.5,103.5,119.5z"/>
</svg>
