<?xml version="1.0" encoding="utf-8"?>
<!-- Generator: Adobe Illustrator 23.1.1, SVG Export Plug-In . SVG Version: 6.00 Build 0)  -->
<svg version="1.1" id="Capa_1" xmlns="http://www.w3.org/2000/svg" xmlns:xlink="http://www.w3.org/1999/xlink" x="0px" y="0px"
	 viewBox="0 0 600 100" style="enable-background:new 0 0 600 100;" xml:space="preserve">
<style type="text/css">
	.st0{enable-background:new    ;}
	.st1{fill:#171829;}
</style>
<g>
	<g class="st0">
		<path class="st1" d="M174.9,55.3l5.1-8.8h6.6l-8.2,13.1l8.4,13.5h-6.6L175,64l-5.3,9.1h-6.6l8.4-13.5l-8.1-13.1h6.6L174.9,55.3z"
			/>
		<path class="st1" d="M225,53.9h-21.2v-5H225V53.9z M225,64.4h-21.2v-5H225V64.4z"/>
		<path class="st1" d="M244.2,58.6c0-3.8,0.5-7.4,1.5-10.8c1-3.4,2.5-6.5,4.5-9.1c2-2.7,4.1-4.6,6.3-5.7l1.2,3.5
			c-2.3,1.8-4.2,4.4-5.6,8c-1.4,3.6-2.2,7.7-2.4,12.4l0,2.1c0,5,0.7,9.4,2.1,13.3c1.4,3.9,3.4,6.9,5.9,8.9l-1.2,3.3
			c-2.2-1.1-4.3-3-6.3-5.7c-2-2.7-3.5-5.7-4.5-9.1C244.7,66.3,244.2,62.6,244.2,58.6z"/>
		<path class="st1" d="M273.8,36.8c3.4,0,6.1,0.9,8.1,2.7c2,1.8,3,4.1,3,7c0,1.6-0.4,3-1.2,4.2c-0.8,1.3-1.9,2.3-3.4,3.1
			c2,0.7,3.5,1.9,4.6,3.4c1.1,1.6,1.6,3.4,1.6,5.5c0,3.4-1,6-3,8s-4.7,2.9-8.1,2.9c-2.7,0-5.1-0.7-7.1-2v11.2h-6V47.1
			c0-1.9,0.5-3.6,1.5-5.2c1-1.6,2.4-2.8,4.2-3.8S271.7,36.8,273.8,36.8z M278.9,46.7c0-1.5-0.5-2.7-1.4-3.7c-0.9-1-2.2-1.5-3.7-1.5
			c-1.6,0-2.9,0.5-4,1.6c-1.1,1-1.6,2.4-1.6,4.1v19.6c1.4,1.3,3.5,2,6,2c1.9,0,3.3-0.6,4.5-1.7c1.1-1.1,1.7-2.6,1.7-4.4
			c0-1.8-0.5-3.3-1.5-4.5c-1-1.2-2.3-1.8-4-1.8h-3v-4.6h1.8C277.1,51.9,278.9,50.2,278.9,46.7z"/>
		<path class="st1" d="M303.3,58.9c0,3.6-0.5,7.2-1.5,10.6c-1,3.4-2.5,6.5-4.6,9.3c-2,2.8-4.2,4.7-6.4,5.8l-1.2-3.3
			c2.5-1.9,4.4-4.8,5.8-8.7c1.4-3.9,2.2-8.4,2.2-13.4v-0.6c0-4.6-0.6-8.7-1.9-12.5c-1.2-3.8-3-6.8-5.4-9l-0.8-0.7l1.2-3.3
			c2.1,1,4.1,2.8,6.1,5.4c2,2.6,3.5,5.5,4.5,8.7c1.1,3.2,1.6,6.5,1.8,9.9L303.3,58.9z"/>
		<path class="st1" d="M335.9,53.4h9.4v5.5h-9.4v10.7h-5.8V58.9h-9.4v-5.5h9.4v-10h5.8V53.4z"/>
		<path class="st1" d="M362.8,58.6c0-3.8,0.5-7.4,1.5-10.8c1-3.4,2.5-6.5,4.5-9.1c2-2.7,4.1-4.6,6.3-5.7l1.2,3.5
			c-2.3,1.8-4.2,4.4-5.6,8c-1.4,3.6-2.2,7.7-2.4,12.4l0,2.1c0,5,0.7,9.4,2.1,13.3c1.4,3.9,3.4,6.9,5.9,8.9l-1.2,3.3
			c-2.2-1.1-4.3-3-6.3-5.7c-2-2.7-3.5-5.7-4.5-9.1C363.3,66.3,362.8,62.6,362.8,58.6z"/>
		<path class="st1" d="M390.2,65.4l5.8-18.9h6.2l-9.1,25.6v11.3h-6V72L378,46.5h6.2L390.2,65.4z"/>
		<path class="st1" d="M417.4,58.9c0,3.6-0.5,7.2-1.5,10.6c-1,3.4-2.5,6.5-4.6,9.3c-2,2.8-4.2,4.7-6.4,5.8l-1.2-3.3
			c2.5-1.9,4.4-4.8,5.8-8.7c1.4-3.9,2.2-8.4,2.2-13.4v-0.6c0-4.6-0.6-8.7-1.9-12.5c-1.2-3.8-3-6.8-5.4-9l-0.8-0.7L405,33
			c2.1,1,4.1,2.8,6.1,5.4c2,2.6,3.5,5.5,4.5,8.7c1.1,3.2,1.6,6.5,1.8,9.9L417.4,58.9z"/>
	</g>
	<g>
		<path class="st1" d="M313.9,12.6h5.3l9.7,24.7H304L313.9,12.6z M310.9,33.2H322l-5.5-14.7L310.9,33.2z"/>
	</g>
	<g>
		<path class="st1" d="M435.8,27c0,3.4-0.7,6-2.2,7.9c-1.4,1.9-3.5,2.8-6.2,2.8c-2.6,0-4.7-0.9-6.1-2.7c-1.4-1.8-2.2-4.4-2.2-7.7
			v-4.4c0-3.4,0.7-6,2.2-7.9c1.4-1.8,3.5-2.8,6.2-2.8c2.6,0,4.6,0.9,6.1,2.7c1.5,1.8,2.2,4.3,2.2,7.7V27z M424,23h6.9v-0.8
			c0-2-0.3-3.5-0.9-4.5c-0.6-1-1.4-1.5-2.6-1.5c-2.1,0-3.3,1.7-3.4,5.1L424,23z M430.9,26.8H424v0.9c0,4,1.2,6,3.5,6
			c2.1,0,3.2-1.7,3.4-5.2L430.9,26.8z"/>
	</g>
</g>
</svg>
