<?xml version="1.0" encoding="utf-8"?>
<!-- Generator: Adobe Illustrator 23.1.1, SVG Export Plug-In . SVG Version: 6.00 Build 0)  -->
<svg version="1.1" id="Capa_1" xmlns="http://www.w3.org/2000/svg" xmlns:xlink="http://www.w3.org/1999/xlink" x="0px" y="0px"
	 viewBox="0 0 340 400" style="enable-background:new 0 0 340 400;" xml:space="preserve">
<style type="text/css">
	.st0{fill:#F8E7BC;}
</style>
<g>
	<rect x="140.8" y="1.8" class="st0" width="58.7" height="58.7"/>
	<rect x="210.3" y="1.8" class="st0" width="58.7" height="58.7"/>
	<rect x="278.7" y="1.8" class="st0" width="58.7" height="58.7"/>
</g>
<g>
	<rect x="2.6" y="68.7" class="st0" width="58.7" height="58.7"/>
	<rect x="72.1" y="68.7" class="st0" width="58.7" height="58.7"/>
	<rect x="140.8" y="68.7" class="st0" width="58.7" height="58.7"/>
	<rect x="210.3" y="68.7" class="st0" width="58.7" height="58.7"/>
	<rect x="278.7" y="68.7" class="st0" width="58.7" height="58.7"/>
</g>
<g>
	<rect x="2.6" y="137.4" class="st0" width="58.7" height="58.7"/>
	<rect x="72.1" y="137.4" class="st0" width="58.7" height="58.7"/>
	<rect x="140.8" y="137.4" class="st0" width="58.7" height="58.7"/>
	<rect x="210.3" y="137.4" class="st0" width="58.7" height="58.7"/>
	<rect x="278.7" y="137.4" class="st0" width="58.7" height="58.7"/>
</g>
<g>
	<rect x="2.6" y="204.3" class="st0" width="58.7" height="58.7"/>
	<rect x="140.8" y="204.3" class="st0" width="58.7" height="58.7"/>
	<rect x="209.5" y="204.3" class="st0" width="58.7" height="58.7"/>
	<rect x="279" y="204.3" class="st0" width="58.7" height="58.7"/>
	<rect x="2.6" y="273" class="st0" width="58.7" height="58.7"/>
</g>
<g>
	<rect x="71.3" y="273" class="st0" width="58.7" height="58.7"/>
	<rect x="140.8" y="273" class="st0" width="58.7" height="58.7"/>
	<rect x="209.5" y="273" class="st0" width="58.7" height="58.7"/>
	<rect x="279" y="273" class="st0" width="58.7" height="58.7"/>
	<rect x="2.6" y="340" class="st0" width="58.7" height="58.7"/>
</g>
<g>
	<rect x="71.3" y="340" class="st0" width="58.7" height="58.7"/>
	<rect x="140.8" y="340" class="st0" width="58.7" height="58.7"/>
	<rect x="209.5" y="340" class="st0" width="58.7" height="58.7"/>
</g>
<g>
	<g>
		<path d="M157.9,21.4h-6.4l-1.2,3.7h-3.9L153,7.3h3.4L163,25h-3.9L157.9,21.4z M152.5,18.4h4.4l-2.2-6.7L152.5,18.4z"/>
	</g>
	<g>
		<path d="M217.2,25V7.3h6.2c2.2,0,3.8,0.4,4.9,1.2c1.1,0.8,1.7,2,1.7,3.6c0,0.9-0.2,1.6-0.7,2.3c-0.4,0.7-1.1,1.1-1.9,1.5
			c0.9,0.2,1.6,0.7,2.2,1.4c0.5,0.7,0.8,1.5,0.8,2.5c0,1.7-0.5,3-1.6,3.9s-2.6,1.3-4.7,1.3H217.2z M220.9,14.7h2.7
			c1.8,0,2.8-0.8,2.8-2.2c0-0.8-0.2-1.4-0.7-1.7c-0.5-0.4-1.2-0.5-2.2-0.5h-2.6V14.7z M220.9,17.3v4.8h3.1c0.9,0,1.5-0.2,2-0.6
			s0.7-1,0.7-1.7c0-1.6-0.8-2.5-2.5-2.5C224.2,17.3,220.9,17.3,220.9,17.3z"/>
	</g>
	<g>
		<path d="M300.5,19.1c-0.1,1.9-0.8,3.4-2.1,4.5c-1.3,1.1-3,1.6-5,1.6c-2.3,0-4.1-0.8-5.4-2.3s-2-3.6-2-6.3v-1.1
			c0-1.7,0.3-3.2,0.9-4.5s1.5-2.3,2.6-3s2.4-1,3.9-1c2.1,0,3.7,0.5,5,1.6s2,2.6,2.2,4.6h-3.7c-0.1-1.1-0.4-2-1-2.5
			c-0.5-0.5-1.4-0.8-2.5-0.8c-1.2,0-2.1,0.4-2.7,1.3c-0.6,0.9-0.9,2.2-0.9,4.1v1.3c0,1.9,0.3,3.3,0.9,4.2c0.6,0.9,1.5,1.3,2.8,1.3
			c1.1,0,2-0.3,2.5-0.8c0.6-0.5,0.9-1.3,1-2.4h3.5V19.1z"/>
	</g>
	<g>
		<path d="M9.2,93.1V75.3h5.5c1.6,0,3,0.4,4.2,1.1c1.2,0.7,2.2,1.7,2.9,3c0.7,1.3,1,2.8,1,4.4v0.8c0,1.7-0.3,3.1-1,4.4
			s-1.6,2.3-2.9,3s-2.6,1.1-4.2,1.1C14.7,93.1,9.2,93.1,9.2,93.1z M12.8,78.3v11.9h1.8c1.4,0,2.5-0.5,3.3-1.4s1.1-2.3,1.2-4v-0.9
			c0-1.8-0.4-3.2-1.1-4.1s-1.8-1.4-3.3-1.4L12.8,78.3L12.8,78.3z"/>
	</g>
	<g>
		<path d="M89.4,85.4h-7v4.8h8.3v2.9h-12V75.3h11.9v3h-8.2v4.2h7V85.4z"/>
	</g>
	<g>
		<path d="M158.6,85.8h-7v7.3h-3.7V75.3h11.6v3h-7.9v4.6h7L158.6,85.8L158.6,85.8z"/>
	</g>
	<g>
		<path d="M231.3,90.8c-0.7,0.8-1.6,1.4-2.8,1.8s-2.5,0.7-4,0.7s-2.9-0.3-4-1c-1.2-0.7-2.1-1.6-2.7-2.9c-0.6-1.3-1-2.8-1-4.5v-1.2
			c0-1.8,0.3-3.3,0.9-4.6c0.6-1.3,1.5-2.3,2.6-3s2.4-1,4-1c2.1,0,3.8,0.5,4.9,1.5c1.2,1,1.9,2.5,2.1,4.4h-3.6
			c-0.2-1-0.5-1.8-1.1-2.2c-0.6-0.5-1.3-0.7-2.3-0.7c-1.2,0-2.2,0.5-2.8,1.4c-0.7,0.9-1,2.3-1,4.2v1.1c0,1.9,0.4,3.3,1.1,4.2
			s1.7,1.4,3.1,1.4c1.4,0,2.4-0.3,2.9-0.9v-3.1h-3.3v-2.7h7L231.3,90.8L231.3,90.8z"/>
	</g>
	<g>
		<path d="M301,93.1h-3.7v-7.6h-7.1v7.6h-3.7V75.3h3.7v7.2h7.1v-7.2h3.7V93.1z"/>
	</g>
	<g>
		<path d="M13.1,160.9H9.4v-17.8h3.7C13.1,143.1,13.1,160.9,13.1,160.9z"/>
	</g>
	<g>
		<path d="M85.8,143.1h3.7v12.3c0,1.1-0.2,2.1-0.8,3c-0.5,0.9-1.2,1.5-2.1,2s-1.9,0.7-3.1,0.7c-1.9,0-3.3-0.5-4.4-1.4
			c-1-1-1.6-2.3-1.6-4.1h3.7c0,0.9,0.2,1.5,0.5,1.9c0.4,0.4,0.9,0.6,1.7,0.6c0.7,0,1.3-0.2,1.7-0.7c0.4-0.5,0.6-1.2,0.6-2.1v-12.2
			H85.8z"/>
	</g>
	<g>
		<path d="M153.4,153.8l-1.9,2.1v5.1h-3.7v-17.8h3.7v8.1l1.6-2.2l4.5-5.8h4.5l-6.3,7.9l6.5,9.9H158L153.4,153.8z"/>
	</g>
	<g>
		<path d="M220.9,158h7.8v2.9h-11.4v-17.8h3.7V158H220.9z"/>
	</g>
	<g>
		<path d="M291.4,143.1L296,156l4.5-12.9h4.8v17.8h-3.7V156l0.4-8.4l-4.8,13.2h-2.5l-4.8-13.2l0.4,8.4v4.9h-3.7v-17.8H291.4z"/>
	</g>
	<g>
		<path d="M23.6,229H20l-7.1-11.7V229H9.2v-17.8h3.7l7.1,11.7v-11.7h3.6V229z"/>
	</g>
	<g>
		<path d="M161.9,220.6c0,1.8-0.3,3.3-0.9,4.6s-1.5,2.3-2.7,3.1c-1.2,0.7-2.5,1.1-4,1.1s-2.8-0.4-3.9-1.1c-1.2-0.7-2.1-1.7-2.7-3
			c-0.6-1.3-1-2.8-1-4.5v-0.9c0-1.8,0.3-3.3,0.9-4.6c0.6-1.3,1.5-2.4,2.7-3.1s2.5-1.1,3.9-1.1s2.8,0.4,3.9,1.1
			c1.2,0.7,2,1.7,2.7,3.1c0.6,1.3,0.9,2.9,0.9,4.6v0.7H161.9z M158.2,219.8c0-1.9-0.3-3.3-1-4.2s-1.6-1.5-2.9-1.5
			c-1.2,0-2.2,0.5-2.8,1.4c-0.7,1-1,2.4-1,4.2v0.9c0,1.8,0.3,3.2,1,4.2s1.6,1.5,2.9,1.5c1.2,0,2.2-0.5,2.8-1.4c0.7-1,1-2.4,1-4.2
			V219.8z"/>
	</g>
	<g>
		<path d="M220.2,222.8v6.3h-3.7v-17.8h6.9c1.3,0,2.5,0.2,3.5,0.7s1.8,1.2,2.3,2.1c0.5,0.9,0.8,1.9,0.8,3.1c0,1.7-0.6,3.1-1.8,4.1
			s-2.8,1.5-5,1.5L220.2,222.8L220.2,222.8z M220.2,219.9h3.3c1,0,1.7-0.2,2.2-0.7s0.8-1.1,0.8-2s-0.3-1.6-0.8-2.1s-1.2-0.8-2.1-0.8
			h-3.4V219.9z"/>
	</g>
	<g>
		<path d="M300.5,220.6c0,1.7-0.3,3.1-0.8,4.3s-1.3,2.2-2.2,2.9l3,2.3l-2.3,2.1l-3.8-3c-0.4,0.1-0.9,0.1-1.3,0.1
			c-1.5,0-2.8-0.4-3.9-1.1c-1.2-0.7-2.1-1.7-2.7-3s-1-2.8-1-4.5v-0.9c0-1.8,0.3-3.3,0.9-4.6s1.5-2.4,2.7-3.1s2.5-1.1,3.9-1.1
			s2.8,0.4,3.9,1.1c1.2,0.7,2,1.7,2.7,3.1c0.6,1.3,0.9,2.9,0.9,4.6L300.5,220.6L300.5,220.6z M296.8,219.8c0-1.9-0.3-3.3-1-4.2
			s-1.6-1.5-2.9-1.5c-1.2,0-2.2,0.5-2.8,1.4c-0.7,1-1,2.4-1,4.2v0.9c0,1.8,0.3,3.2,1,4.2s1.6,1.5,2.9,1.5c1.2,0,2.2-0.5,2.8-1.4
			c0.7-1,1-2.4,1-4.2V219.8z"/>
	</g>
	<g>
		<path d="M17.1,291.3h-2.9v6.5h-3.7V280h6.6c2.1,0,3.7,0.5,4.9,1.4c1.1,0.9,1.7,2.3,1.7,4c0,1.2-0.3,2.2-0.8,3s-1.3,1.5-2.4,1.9
			l3.8,7.3v0.2h-3.9L17.1,291.3z M14.2,288.3h3c0.9,0,1.6-0.2,2.1-0.7s0.8-1.1,0.8-1.9s-0.2-1.5-0.7-2s-1.2-0.7-2.2-0.7h-2.9
			L14.2,288.3L14.2,288.3z"/>
	</g>
	<g>
		<path d="M87.1,292.7c0-0.7-0.2-1.2-0.7-1.6s-1.4-0.8-2.6-1.2s-2.3-0.8-3-1.2c-2-1.1-3-2.6-3-4.4c0-1,0.3-1.8,0.8-2.6
			c0.5-0.8,1.3-1.3,2.3-1.8c1-0.4,2.2-0.6,3.4-0.6c1.3,0,2.4,0.2,3.4,0.7s1.8,1.1,2.3,1.9s0.8,1.8,0.8,2.9h-3.7
			c0-0.8-0.3-1.4-0.8-1.9s-1.2-0.7-2.2-0.7c-0.9,0-1.6,0.2-2.1,0.6s-0.7,0.9-0.7,1.5s0.3,1.1,0.9,1.5s1.4,0.8,2.6,1.1
			c2.1,0.6,3.6,1.4,4.6,2.3s1.4,2.1,1.4,3.5c0,1.5-0.6,2.7-1.7,3.6c-1.2,0.9-2.7,1.3-4.7,1.3c-1.4,0-2.6-0.2-3.7-0.8
			c-1.1-0.5-2-1.2-2.6-2.1s-0.9-1.9-0.9-3h3.7c0,2,1.2,2.9,3.5,2.9c0.9,0,1.5-0.2,2-0.5C86.8,293.8,87.1,293.3,87.1,292.7z"/>
	</g>
	<g>
		<path d="M160.7,282.6h-5.4v14.8h-3.7v-14.8h-5.4v-3h14.5L160.7,282.6L160.7,282.6z"/>
	</g>
	<g>
		<path d="M230,279.6v11.7c0,1.9-0.6,3.5-1.8,4.6s-2.9,1.7-5,1.7s-3.7-0.5-4.9-1.6s-1.8-2.6-1.9-4.5v-11.8h3.7v11.7
			c0,1.2,0.3,2,0.8,2.5s1.3,0.8,2.3,0.8c2.1,0,3.1-1.1,3.1-3.2v-11.8h3.7V279.6z"/>
	</g>
	<g>
		<path d="M292.5,293l4-13.4h4.1l-6.2,17.8h-3.8l-6.2-17.8h4.1L292.5,293z"/>
	</g>
	<g>
		<path d="M24.3,359.2l2.4-12.6h3.7l-3.9,17.8h-3.7l-2.9-11.9L17,364.3h-3.7l-3.9-17.8H13l2.4,12.6l2.9-12.6h3.1L24.3,359.2z"/>
	</g>
	<g>
		<path d="M84.2,353.8l3.3-6.1h4.2l-5.2,8.8l5.3,9h-4.3l-3.4-6.2l-3.4,6.2h-4.3l5.3-9l-5.2-8.8h4.2L84.2,353.8z"/>
	</g>
	<g>
		<path d="M153.5,355.6l3.7-8h4l-5.8,11.3v6.4h-3.7V359l-5.8-11.3h4L153.5,355.6z"/>
	</g>
	<g>
		<path d="M220.4,362.5h9v2.9h-13.5v-2.1l8.8-12.7h-8.8v-3h13.3v2.1L220.4,362.5z"/>
	</g>
</g>
<rect x="72.1" y="204.3" class="st0" width="58.7" height="58.7"/>
<g>
	<path d="M93.6,229.1h-3.7l-7.1-11.7v11.7h-3.7v-17.8h3.7l7.1,11.7v-11.7h3.6L93.6,229.1L93.6,229.1z M91,206.7
		c0,0.9-0.3,1.7-0.8,2.3s-1.2,0.9-2,0.9c-0.3,0-0.6,0-0.8-0.1c-0.2-0.1-0.6-0.2-1-0.4s-0.7-0.4-0.9-0.4c-0.2-0.1-0.4-0.1-0.6-0.1
		c-0.3,0-0.5,0.1-0.7,0.3s-0.3,0.5-0.3,0.9l-2.1-0.1c0-0.9,0.3-1.7,0.8-2.3s1.2-1,2-1c0.2,0,0.5,0,0.7,0.1s0.6,0.2,1.1,0.4
		s0.8,0.4,1,0.4s0.4,0.1,0.6,0.1c0.3,0,0.5-0.1,0.7-0.3s0.3-0.5,0.3-0.9L91,206.7z"/>
</g>
<path d="M179.9,57.4c-8.8,0-15.9-7.1-15.9-15.9s7.1-15.9,15.9-15.9s15.9,7.1,15.9,15.9S188.7,57.4,179.9,57.4z M179.9,27.5
	c-7.7,0-13.9,6.2-13.9,13.9s6.2,13.9,13.9,13.9s13.9-6.2,13.9-13.9S187.6,27.5,179.9,27.5z"/>
<path d="M179.9,53.7c-1.8,0-3.3-1.5-3.3-3.3s1.5-3.3,3.3-3.3c1.8,0,3.3,1.5,3.3,3.3S181.7,53.7,179.9,53.7z M179.9,49.2
	c-0.7,0-1.3,0.6-1.3,1.3s0.6,1.3,1.3,1.3c0.7,0,1.3-0.6,1.3-1.3S180.6,49.2,179.9,49.2z"/>
<path d="M318.1,57.4c-8.8,0-15.9-7.1-15.9-15.9s7.1-15.9,15.9-15.9S334,32.6,334,41.4S326.9,57.4,318.1,57.4z M318.1,27.5
	c-7.7,0-13.9,6.2-13.9,13.9s6.2,13.9,13.9,13.9S332,49.1,332,41.4S325.8,27.5,318.1,27.5z"/>
<path d="M327.1,44.7c-1.8,0-3.3-1.5-3.3-3.3s1.5-3.3,3.3-3.3c1.8,0,3.3,1.5,3.3,3.3S328.9,44.7,327.1,44.7z M327.1,40.2
	c-0.7,0-1.3,0.6-1.3,1.3s0.6,1.3,1.3,1.3c0.7,0,1.3-0.6,1.3-1.3S327.8,40.2,327.1,40.2z"/>
<path d="M250,57.4c-8.8,0-15.9-7.1-15.9-15.9s7.1-15.9,15.9-15.9S266,32.6,266,41.4S258.8,57.4,250,57.4z M250,27.5
	c-7.7,0-13.9,6.2-13.9,13.9s6.2,13.9,13.9,13.9S264,49.1,264,41.4S257.7,27.5,250,27.5z"/>
<path d="M250,53.7c-1.8,0-3.3-1.5-3.3-3.3s1.5-3.3,3.3-3.3s3.3,1.5,3.3,3.3S251.9,53.7,250,53.7z M250,49.2c-0.7,0-1.3,0.6-1.3,1.3
	s0.6,1.3,1.3,1.3s1.3-0.6,1.3-1.3S250.7,49.2,250,49.2z"/>
<path d="M250,35.4c-1.8,0-3.3-1.5-3.3-3.3c0-1.8,1.5-3.3,3.3-3.3s3.3,1.5,3.3,3.3C253.3,33.9,251.9,35.4,250,35.4z M250,30.8
	c-0.7,0-1.3,0.6-1.3,1.3s0.6,1.3,1.3,1.3s1.3-0.6,1.3-1.3S250.7,30.8,250,30.8z"/>
<path d="M249,329c-8.8,0-15.9-7.1-15.9-15.9s7.1-15.9,15.9-15.9s15.9,7.1,15.9,15.9S257.8,329,249,329z M249,299.2
	c-7.7,0-13.9,6.2-13.9,13.9S241.4,327,249,327s13.9-6.2,13.9-13.9S256.7,299.2,249,299.2z"/>
<path d="M249,307c-1.8,0-3.3-1.5-3.3-3.3c0-1.8,1.5-3.3,3.3-3.3s3.3,1.5,3.3,3.3C252.3,305.6,250.9,307,249,307z M249,302.5
	c-0.7,0-1.3,0.6-1.3,1.3c0,0.7,0.6,1.3,1.3,1.3s1.3-0.6,1.3-1.3C250.3,303.1,249.7,302.5,249,302.5z"/>
<path d="M318.1,329c-8.8,0-15.9-7.1-15.9-15.9s7.1-15.9,15.9-15.9s15.9,7.1,15.9,15.9S326.9,329,318.1,329z M318.1,299.2
	c-7.7,0-13.9,6.2-13.9,13.9s6.2,13.9,13.9,13.9s13.9-6.2,13.9-13.9S325.8,299.2,318.1,299.2z"/>
<path d="M318.1,307c-1.8,0-3.3-1.5-3.3-3.3c0-1.8,1.5-3.3,3.3-3.3c1.8,0,3.3,1.5,3.3,3.3C321.4,305.6,319.9,307,318.1,307z
	 M318.1,302.5c-0.7,0-1.3,0.6-1.3,1.3c0,0.7,0.6,1.3,1.3,1.3c0.7,0,1.3-0.6,1.3-1.3C319.4,303.1,318.8,302.5,318.1,302.5z"/>
<path d="M110.5,328.9c-4.1,0-8.2-1.6-11.3-4.7c-3-3-4.7-7-4.7-11.3c0-4.3,1.7-8.3,4.7-11.3c6.2-6.2,16.3-6.2,22.5,0
	c3,3,4.7,7,4.7,11.3c0,4.3-1.7,8.3-4.7,11.3l0,0C118.6,327.3,114.6,328.9,110.5,328.9z M110.5,299c-3.6,0-7.1,1.4-9.9,4.1
	c-2.6,2.6-4.1,6.1-4.1,9.9c0,3.7,1.4,7.2,4.1,9.9c5.4,5.4,14.3,5.4,19.7,0c2.6-2.6,4.1-6.1,4.1-9.9c0-3.7-1.4-7.2-4.1-9.9
	C117.6,300.4,114.1,299,110.5,299z"/>
<path d="M104.1,322.6c-0.9,0-1.7-0.3-2.3-1c-1.3-1.3-1.3-3.4,0-4.6c1.3-1.3,3.4-1.3,4.6,0c0.6,0.6,1,1.4,1,2.3c0,0.9-0.3,1.7-1,2.3
	l0,0h0l0,0C105.8,322.2,105,322.6,104.1,322.6z M104.1,318c-0.3,0-0.7,0.1-0.9,0.4c-0.5,0.5-0.5,1.3,0,1.8c0.5,0.5,1.3,0.5,1.8,0h0
	c0.2-0.2,0.4-0.6,0.4-0.9s-0.1-0.7-0.4-0.9C104.8,318.1,104.4,318,104.1,318z"/>
<path d="M117.1,309.6c-0.9,0-1.7-0.3-2.3-1c-1.3-1.3-1.3-3.4,0-4.6c1.3-1.3,3.4-1.3,4.6,0c0.6,0.6,1,1.4,1,2.3c0,0.9-0.3,1.7-1,2.3
	C118.8,309.3,118,309.6,117.1,309.6z M117.1,305.1c-0.3,0-0.7,0.1-0.9,0.4c-0.5,0.5-0.5,1.3,0,1.8c0.5,0.5,1.3,0.5,1.8,0h0
	c0.2-0.2,0.4-0.6,0.4-0.9s-0.1-0.7-0.4-0.9C117.7,305.2,117.4,305.1,117.1,305.1z"/>
<path d="M41.8,395.4c-8.8,0-15.9-7.1-15.9-15.9c0-8.8,7.1-15.9,15.9-15.9c8.8,0,15.9,7.1,15.9,15.9
	C57.7,388.3,50.6,395.4,41.8,395.4z M41.8,365.6c-7.7,0-13.9,6.2-13.9,13.9s6.2,13.9,13.9,13.9c7.7,0,13.9-6.2,13.9-13.9
	S49.5,365.6,41.8,365.6z"/>
<path d="M32.8,382.8c-1.8,0-3.3-1.5-3.3-3.3c0-1.8,1.5-3.3,3.3-3.3c1.8,0,3.3,1.5,3.3,3.3C36.1,381.3,34.6,382.8,32.8,382.8z
	 M32.8,378.2c-0.7,0-1.3,0.6-1.3,1.3c0,0.7,0.6,1.3,1.3,1.3s1.3-0.6,1.3-1.3C34.1,378.8,33.5,378.2,32.8,378.2z"/>
<path d="M51.1,382.8c-1.8,0-3.3-1.5-3.3-3.3c0-1.8,1.5-3.3,3.3-3.3s3.3,1.5,3.3,3.3C54.4,381.3,52.9,382.8,51.1,382.8z M51.1,378.2
	c-0.7,0-1.3,0.6-1.3,1.3c0,0.7,0.6,1.3,1.3,1.3s1.3-0.6,1.3-1.3C52.4,378.8,51.8,378.2,51.1,378.2z"/>
<path d="M318.8,124.5c-8.8,0-15.9-7.1-15.9-15.9c0-8.8,7.1-15.9,15.9-15.9c8.8,0,15.9,7.1,15.9,15.9
	C334.8,117.3,327.6,124.5,318.8,124.5z M318.8,94.6c-7.7,0-13.9,6.2-13.9,13.9c0,7.7,6.2,13.9,13.9,13.9s13.9-6.2,13.9-13.9
	C332.8,100.8,326.5,94.6,318.8,94.6z"/>
<path d="M318.8,120.8c-1.8,0-3.3-1.5-3.3-3.3c0-1.8,1.5-3.3,3.3-3.3c1.8,0,3.3,1.5,3.3,3.3C322.1,119.3,320.7,120.8,318.8,120.8z
	 M318.8,116.3c-0.7,0-1.3,0.6-1.3,1.3s0.6,1.3,1.3,1.3c0.7,0,1.3-0.6,1.3-1.3S319.6,116.3,318.8,116.3z"/>
<path d="M318.8,102.5c-1.8,0-3.3-1.5-3.3-3.3c0-1.8,1.5-3.3,3.3-3.3c1.8,0,3.3,1.5,3.3,3.3C322.1,101,320.7,102.5,318.8,102.5z
	 M318.8,97.9c-0.7,0-1.3,0.6-1.3,1.3s0.6,1.3,1.3,1.3c0.7,0,1.3-0.6,1.3-1.3S319.6,97.9,318.8,97.9z"/>
<path d="M41.8,124.5c-8.8,0-15.9-7.1-15.9-15.9c0-8.8,7.1-15.9,15.9-15.9c8.8,0,15.9,7.1,15.9,15.9
	C57.7,117.3,50.6,124.5,41.8,124.5z M41.8,94.6c-7.7,0-13.9,6.2-13.9,13.9c0,7.7,6.2,13.9,13.9,13.9c7.7,0,13.9-6.2,13.9-13.9
	C55.7,100.8,49.5,94.6,41.8,94.6z"/>
<path d="M50.8,111.8c-1.8,0-3.3-1.5-3.3-3.3c0-1.8,1.5-3.3,3.3-3.3c1.8,0,3.3,1.5,3.3,3.3C54.1,110.3,52.6,111.8,50.8,111.8z
	 M50.8,107.3c-0.7,0-1.3,0.6-1.3,1.3s0.6,1.3,1.3,1.3s1.3-0.6,1.3-1.3S51.5,107.3,50.8,107.3z"/>
<path d="M105.1,186.7c-1.8,0-3.3-1.5-3.3-3.3c0-1.8,1.5-3.3,3.3-3.3c1.8,0,3.3,1.5,3.3,3.3C108.4,185.2,106.9,186.7,105.1,186.7z
	 M105.1,182.1c-0.7,0-1.3,0.6-1.3,1.3s0.6,1.3,1.3,1.3s1.3-0.6,1.3-1.3S105.8,182.1,105.1,182.1z"/>
<path d="M48.5,309.6c-1.8,0-3.3-1.5-3.3-3.3s1.5-3.3,3.3-3.3s3.3,1.5,3.3,3.3S50.3,309.6,48.5,309.6z M48.5,305
	c-0.7,0-1.3,0.6-1.3,1.3s0.6,1.3,1.3,1.3s1.3-0.6,1.3-1.3S49.2,305,48.5,305z"/>
<rect x="40.8" y="93.6" width="2" height="29.9"/>
<path d="M41.8,192.9c-8.8,0-15.9-7.1-15.9-15.9c0-8.8,7.1-15.9,15.9-15.9c8.8,0,15.9,7.1,15.9,15.9
	C57.7,185.8,50.6,192.9,41.8,192.9z M41.8,163.1c-7.7,0-13.9,6.2-13.9,13.9c0,7.7,6.2,13.9,13.9,13.9c7.7,0,13.9-6.2,13.9-13.9
	C55.7,169.3,49.5,163.1,41.8,163.1z"/>
<path d="M41.8,260.1c-8.8,0-15.9-7.1-15.9-15.9c0-8.8,7.1-15.9,15.9-15.9c8.8,0,15.9,7.1,15.9,15.9C57.7,253,50.6,260.1,41.8,260.1z
	 M41.8,230.3c-7.7,0-13.9,6.2-13.9,13.9s6.2,13.9,13.9,13.9c7.7,0,13.9-6.3,13.9-13.9S49.5,230.3,41.8,230.3z"/>
<rect x="40.8" y="162.1" width="2" height="29.9"/>
<rect x="40.8" y="229.3" transform="matrix(0.7071 -0.7071 0.7071 0.7071 -160.4698 101.0987)" width="2" height="29.9"/>
<rect x="317.1" y="298.2" transform="matrix(0.7071 -0.7071 0.7071 0.7071 -128.2302 316.6249)" width="2" height="29.9"/>
<path d="M179.9,192.9c-8.8,0-15.9-7.1-15.9-15.9c0-8.8,7.1-15.9,15.9-15.9s15.9,7.1,15.9,15.9C195.9,185.8,188.7,192.9,179.9,192.9z
	 M179.9,163.1c-7.7,0-13.9,6.2-13.9,13.9c0,7.7,6.2,13.9,13.9,13.9s13.9-6.2,13.9-13.9C193.9,169.3,187.6,163.1,179.9,163.1z"/>
<rect x="165" y="176" width="14.9" height="2"/>
<polygon points="189.8,188.3 178.5,176.9 191.2,166.2 192.5,167.8 181.4,177.1 191.2,186.8 "/>
<path d="M111.6,192.9c-8.8,0-15.9-7.1-15.9-15.9c0-8.8,7.1-15.9,15.9-15.9c8.8,0,15.9,7.1,15.9,15.9
	C127.6,185.8,120.4,192.9,111.6,192.9z M111.6,163.1c-7.7,0-13.9,6.2-13.9,13.9c0,7.7,6.2,13.9,13.9,13.9c7.7,0,13.9-6.2,13.9-13.9
	C125.6,169.3,119.3,163.1,111.6,163.1z"/>
<rect x="110.6" y="162.1" width="2" height="29.9"/>
<path d="M325.8,253.8c-1.8,0-3.3-1.5-3.3-3.3c0-1.8,1.5-3.3,3.3-3.3s3.3,1.5,3.3,3.3C329.1,252.4,327.6,253.8,325.8,253.8z
	 M325.8,249.3c-0.7,0-1.3,0.6-1.3,1.3c0,0.7,0.6,1.3,1.3,1.3s1.3-0.6,1.3-1.3C327.1,249.9,326.5,249.3,325.8,249.3z"/>
<path d="M318.6,260.1c-8.8,0-15.9-7.1-15.9-15.9s7.1-15.9,15.9-15.9s15.9,7.1,15.9,15.9S327.4,260.1,318.6,260.1z M318.6,230.2
	c-7.7,0-13.9,6.2-13.9,13.9s6.2,13.9,13.9,13.9s13.9-6.2,13.9-13.9S326.3,230.2,318.6,230.2z"/>
<path d="M255.7,241.1c-1.8,0-3.3-1.5-3.3-3.3c0-1.8,1.5-3.3,3.3-3.3s3.3,1.5,3.3,3.3C259,239.6,257.5,241.1,255.7,241.1z
	 M255.7,236.5c-0.7,0-1.3,0.6-1.3,1.3c0,0.7,0.6,1.3,1.3,1.3s1.3-0.6,1.3-1.3C257,237.1,256.4,236.5,255.7,236.5z"/>
<path d="M249.1,260.1c-8.8,0-15.9-7.1-15.9-15.9c0-8.8,7.1-15.9,15.9-15.9c8.8,0,15.9,7.1,15.9,15.9
	C265,253,257.9,260.1,249.1,260.1z M249.1,230.3c-7.7,0-13.9,6.2-13.9,13.9s6.2,13.9,13.9,13.9s13.9-6.3,13.9-13.9
	S256.8,230.3,249.1,230.3z"/>
<rect x="248.1" y="229.3" width="2" height="29.9"/>
<path d="M181,261c-8.8,0-15.9-7.1-15.9-15.9s7.1-15.9,15.9-15.9s15.9,7.1,15.9,15.9S189.8,261,181,261z M181,231.1
	c-7.7,0-13.9,6.2-13.9,13.9S173.3,259,181,259s13.9-6.2,13.9-13.9S188.7,231.1,181,231.1z"/>
<path d="M255.7,186.7c-1.8,0-3.3-1.5-3.3-3.3c0-1.8,1.5-3.3,3.3-3.3s3.3,1.5,3.3,3.3C259,185.2,257.5,186.7,255.7,186.7z
	 M255.7,182.1c-0.7,0-1.3,0.6-1.3,1.3s0.6,1.3,1.3,1.3s1.3-0.6,1.3-1.3S256.4,182.1,255.7,182.1z"/>
<path d="M249.1,192.9c-8.8,0-15.9-7.1-15.9-15.9c0-8.8,7.1-15.9,15.9-15.9c8.8,0,15.9,7.1,15.9,15.9
	C265,185.8,257.9,192.9,249.1,192.9z M249.1,163.1c-7.7,0-13.9,6.2-13.9,13.9c0,7.7,6.2,13.9,13.9,13.9S263,184.7,263,177
	C263,169.3,256.8,163.1,249.1,163.1z"/>
<rect x="248.1" y="162.1" width="2" height="29.9"/>
<path d="M250.3,124.5c-8.8,0-15.9-7.1-15.9-15.9c0-8.8,7.1-15.9,15.9-15.9c8.8,0,15.9,7.1,15.9,15.9
	C266.3,117.3,259.1,124.5,250.3,124.5z M250.3,94.6c-7.7,0-13.9,6.2-13.9,13.9c0,7.7,6.2,13.9,13.9,13.9s13.9-6.2,13.9-13.9
	C264.3,100.8,258,94.6,250.3,94.6z"/>
<rect x="249.3" y="93.6" width="2" height="29.9"/>
<path d="M111.5,124.5c-8.8,0-15.9-7.1-15.9-15.9c0-8.8,7.1-15.9,15.9-15.9s15.9,7.1,15.9,15.9C127.4,117.3,120.3,124.5,111.5,124.5z
	 M111.5,94.6c-7.7,0-13.9,6.2-13.9,13.9c0,7.7,6.2,13.9,13.9,13.9s13.9-6.2,13.9-13.9C125.4,100.8,119.2,94.6,111.5,94.6z"/>
<rect x="100.2" y="116.6" width="23.1" height="2"/>
<rect x="100.2" y="98" width="23.1" height="2"/>
<path d="M318.8,193.5c-8.8,0-15.9-7.1-15.9-15.9c0-8.8,7.1-15.9,15.9-15.9c8.8,0,15.9,7.1,15.9,15.9
	C334.8,186.3,327.6,193.5,318.8,193.5z M318.8,163.6c-7.7,0-13.9,6.2-13.9,13.9c0,7.7,6.2,13.9,13.9,13.9s13.9-6.2,13.9-13.9
	C332.8,169.9,326.5,163.6,318.8,163.6z"/>
<rect x="327" y="165.8" width="2" height="23.1"/>
<rect x="308.3" y="165.8" width="2" height="23.1"/>
<path d="M111.8,260.2c-4.1,0-8.2-1.6-11.3-4.7c-3-3-4.7-7-4.7-11.3c0-4.3,1.7-8.3,4.7-11.3l0,0l0,0c6.2-6.2,16.3-6.2,22.5,0
	c3,3,4.7,7,4.7,11.3c0,4.3-1.7,8.3-4.7,11.3C120,258.6,115.9,260.2,111.8,260.2z M111.8,230.3c-3.6,0-7.1,1.4-9.9,4.1l0,0
	c-2.6,2.6-4.1,6.1-4.1,9.9c0,3.7,1.4,7.2,4.1,9.9c5.4,5.4,14.3,5.4,19.7,0c2.6-2.6,4.1-6.1,4.1-9.9c0-3.7-1.4-7.2-4.1-9.9
	C118.9,231.7,115.4,230.3,111.8,230.3z"/>
<rect x="117.1" y="226.1" transform="matrix(0.7071 -0.7071 0.7071 0.7071 -133.4537 153.0776)" width="2" height="23.1"/>
<rect x="103.9" y="239.3" transform="matrix(0.7071 -0.7071 0.7071 0.7071 -146.6217 147.6233)" width="2" height="23.1"/>
<rect x="327" y="96.7" width="2" height="23.1"/>
<rect x="308.3" y="96.7" width="2" height="23.1"/>
<path d="M180.3,124.5c-8.8,0-15.9-7.1-15.9-15.9c0-8.8,7.1-15.9,15.9-15.9c8.8,0,15.9,7.1,15.9,15.9
	C196.3,117.3,189.1,124.5,180.3,124.5z M180.3,94.6c-7.7,0-13.9,6.2-13.9,13.9c0,7.7,6.2,13.9,13.9,13.9s13.9-6.2,13.9-13.9
	C194.3,100.8,188,94.6,180.3,94.6z"/>
<rect x="169.1" y="98" width="23.1" height="2"/>
<rect x="250.3" y="107.5" width="14.9" height="2"/>
<path d="M180.2,328.3c-8.8,0-15.9-7.1-15.9-15.9s7.1-15.9,15.9-15.9s15.9,7.1,15.9,15.9S189,328.3,180.2,328.3z M180.2,298.4
	c-7.7,0-13.9,6.2-13.9,13.9s6.2,13.9,13.9,13.9s13.9-6.2,13.9-13.9S187.9,298.4,180.2,298.4z"/>
<rect x="165.3" y="311.3" width="29.9" height="2"/>
<rect x="179.2" y="312.3" width="2" height="14.9"/>
<path d="M180.2,396.3c-4.3,0-8.3-1.7-11.3-4.7c-6.2-6.2-6.2-16.3,0-22.5l0,0l0,0c3-3,7-4.7,11.3-4.7c4.3,0,8.3,1.7,11.3,4.7
	c6.2,6.2,6.2,16.3,0,22.5C188.5,394.6,184.5,396.3,180.2,396.3z M180.2,366.4c-3.7,0-7.2,1.4-9.9,4.1l0,0c-5.4,5.4-5.4,14.3,0,19.7
	c2.6,2.6,6.1,4.1,9.9,4.1c3.7,0,7.2-1.4,9.9-4.1c5.4-5.4,5.4-14.3,0-19.7C187.4,367.9,183.9,366.4,180.2,366.4z"/>
<rect x="179.2" y="365.4" transform="matrix(0.7071 -0.7071 0.7071 0.7071 -216.1588 238.8353)" width="2" height="29.9"/>
<path d="M248.2,396.3c-4.1,0-8.2-1.6-11.3-4.7l0,0c-6.2-6.2-6.2-16.3,0-22.5c6.2-6.2,16.3-6.2,22.5,0c6.2,6.2,6.2,16.3,0,22.5
	C256.4,394.7,252.3,396.3,248.2,396.3z M238.4,390.2c5.4,5.4,14.3,5.4,19.7,0c5.4-5.4,5.4-14.3,0-19.7c-5.4-5.4-14.3-5.4-19.7,0
	C232.9,375.9,232.9,384.8,238.4,390.2L238.4,390.2z"/>
<rect x="233.3" y="379.3" transform="matrix(0.7071 -0.7071 0.7071 0.7071 -196.2434 286.9069)" width="29.9" height="2"/>
<rect x="178" y="374.1" transform="matrix(0.7071 -0.7071 0.7071 0.7071 -210.8783 241.0174)" width="14.9" height="2"/>
<path d="M42.9,328.9c-8.8,0-15.9-7.1-15.9-15.9S34.2,297,42.9,297c8.8,0,15.9,7.1,15.9,15.9S51.7,328.9,42.9,328.9z M42.9,299
	c-7.7,0-13.9,6.2-13.9,13.9s6.2,13.9,13.9,13.9c7.7,0,13.9-6.2,13.9-13.9S50.6,299,42.9,299z"/>
<rect x="41.9" y="298" width="2" height="29.9"/>
<rect x="42.9" y="311.9" width="14.9" height="2"/>
<rect x="303.2" y="312.1" transform="matrix(0.7071 -0.7071 0.7071 0.7071 -128.2302 316.6249)" width="29.9" height="2"/>
<rect x="40.8" y="364.6" transform="matrix(0.7071 -0.7071 0.7071 0.7071 -256.1216 140.7523)" width="2" height="29.9"/>
<rect x="26.9" y="378.5" transform="matrix(0.7071 -0.7071 0.7071 0.7071 -256.1216 140.7523)" width="29.9" height="2"/>
<path d="M110.1,395.4c-8.8,0-15.9-7.1-15.9-15.9c0-8.8,7.1-15.9,15.9-15.9c8.8,0,15.9,7.1,15.9,15.9
	C126,388.3,118.9,395.4,110.1,395.4z M110.1,365.6c-7.7,0-13.9,6.2-13.9,13.9s6.2,13.9,13.9,13.9c7.7,0,13.9-6.2,13.9-13.9
	S117.8,365.6,110.1,365.6z"/>
<rect x="109.1" y="364.6" transform="matrix(0.7071 -0.7071 0.7071 0.7071 -236.1182 189.0542)" width="2" height="29.9"/>
<rect x="95.2" y="378.5" transform="matrix(0.7071 -0.7071 0.7071 0.7071 -236.116 189.0502)" width="29.9" height="2"/>
</svg>
