<?xml version="1.0" encoding="utf-8"?>
<!-- Generator: Adobe Illustrator 23.1.1, SVG Export Plug-In . SVG Version: 6.00 Build 0)  -->
<svg version="1.1" id="Capa_1" xmlns="http://www.w3.org/2000/svg" xmlns:xlink="http://www.w3.org/1999/xlink" x="0px" y="0px"
	 viewBox="0 0 340 180" style="enable-background:new 0 0 340 180;" xml:space="preserve">
<style type="text/css">
	.st0{fill:#171829;}
	.st1{fill:#FFDF00;}
	.st2{fill:#DF172F;}
	.st3{fill:#0F5AD2;}
	.st4{fill:#E400FF;}
</style>
<path class="st0" d="M235.1,54.7c0,0.1,0,0.1,0,0.2C235.1,54.8,235.1,54.8,235.1,54.7z"/>
<path class="st0" d="M305,82.1L305,82.1c0.4-0.1,0.7-0.2,1.1-0.3c0,0,0,0,0,0C305.7,81.9,305.3,82,305,82.1z"/>
<path class="st0" d="M336.8,31.5L336.8,31.5C336.9,31.4,336.9,31.4,336.8,31.5C336.9,31.5,336.8,31.5,336.8,31.5z"/>
<g>
	<path class="st0" d="M32.2,33.5c0.2,0.3,0.4,0.6,0.7,0.9c0.2,0.1,0.3,0.3,0.5,0.4c0,0,0,0,0,0c0.1,0.1,0.2,0.1,0.3,0.2
		c0.2,0.1,0.4,0.2,0.5,0.3c0,0,0,0,0,0c0.1,0,0.1,0.1,0.2,0.1c0.7,0.3,1.4,0.3,2.3,0.1c0.7-0.1,1.3-0.6,1.7-1
		c0.2-0.2,0.4-0.4,0.5-0.6c0,0,0,0,0,0c0.1-0.2,0.2-0.3,0.2-0.3c0,0,0,0,0,0c0.4-0.8,0.5-1.8,0.4-2.7c-0.2-1-0.8-1.9-1.6-2.5
		c-0.8-0.6-1.8-0.9-2.9-0.9c-0.6,0-1.1,0.2-1.6,0.4c-0.5,0.3-0.9,0.6-1.3,1.1c-0.3,0.5-0.6,1-0.7,1.5c-0.2,0.6-0.2,1.1-0.1,1.7
		C31.8,32.6,32,33,32.2,33.5z M39.1,29.4c0,0,0,0.1,0.1,0.1C39.1,29.5,39.1,29.5,39.1,29.4C39,29.4,39,29.4,39.1,29.4z"/>
	<path class="st0" d="M9.7,52.7c0,0.3,0.2,0.6,0.5,0.8c0,0,0,0,0,0c0,0,0,0,0,0c0.1,0.1,0.2,0.1,0.3,0.1c0,0,0,0,0,0
		c0.3,0.1,0.5,0.2,0.9,0.1c0.2,0,0.5-0.2,0.6-0.4c0.1-0.1,0.1-0.1,0.2-0.2c0,0,0-0.1,0-0.1c0,0,0,0,0,0c0,0,0,0,0,0
		c0.2-0.3,0.2-0.6,0.2-1c-0.1-0.4-0.3-0.7-0.6-0.9c-0.3-0.2-0.7-0.3-1-0.3c-0.2,0-0.4,0.1-0.6,0.2c-0.2,0.1-0.4,0.2-0.5,0.4
		c-0.1,0.2-0.2,0.3-0.3,0.5c-0.1,0.2-0.1,0.4,0,0.6C9.7,52.6,9.7,52.7,9.7,52.7z"/>
	<path class="st0" d="M84.7,41.5c0.4,0.3,1,0.4,1.4,0.3c0.5-0.1,0.9-0.4,1.2-0.8c0.3-0.4,0.4-0.9,0.3-1.4c-0.1-0.5-0.4-0.9-0.7-1.1
		c-0.4-0.3-0.8-0.5-1.4-0.4c-0.3,0.1-0.5,0.1-0.7,0.2c-0.2,0.1-0.4,0.3-0.6,0.5c-0.2,0.2-0.3,0.5-0.3,0.7c-0.1,0.3-0.1,0.5,0,0.8
		C84,40.8,84.3,41.3,84.7,41.5z"/>
	<path class="st0" d="M90.9,47.3c0,0.1,0.1,0.2,0.2,0.3c0,0,0.1,0.1,0.1,0.1c0,0,0,0,0,0c0.4,0.2,0.5,0.3,0.9,0.2c0,0,0.1,0,0.1-0.1
		c0.2-0.1,0.4-0.2,0.5-0.3c0.2-0.3,0.2-0.5,0.2-0.8c0-0.1,0-0.1-0.1-0.2c-0.1-0.4-0.5-0.6-0.9-0.6c-0.1,0-0.3,0-0.4,0.1
		c0,0-0.1,0-0.1,0.1c-0.1,0.1-0.2,0.2-0.3,0.3c-0.1,0.1-0.2,0.2-0.2,0.4c0,0.1-0.1,0.3,0,0.4C90.8,47.1,90.8,47.2,90.9,47.3z"/>
	<path class="st0" d="M106.5,83.4c-0.3-2.5-1-5-2.2-7.3c-0.6-1.2-1.3-2.2-2-3.3c-0.4-0.5-0.8-1-1.2-1.5c-0.4-0.5-0.8-0.9-1.3-1.2
		c0-0.2-0.1-0.4-0.1-0.6c-0.1-0.2-0.2-0.5-0.3-0.7c-0.2-0.4-0.5-0.8-0.7-1.1c-0.3-0.4-0.5-0.7-0.8-1c-0.3-0.3-0.5-0.6-0.8-0.8
		c-0.1-2.7-0.3-5.4-1.2-7.9c-0.5-1.3-1.1-2.5-1.9-3.6s-1.8-2.1-2.8-3c-1.1-0.9-2.2-1.6-3.4-2.2c-1.2-0.6-2.5-1.1-3.8-1.4l0.1-0.1
		c-2-0.5-3.5-0.6-3.5-0.6s0,0,0,0c0.7-10.2-3.2-16.2-3.2-16.2c-4.7-7.7-12.6-8.9-12.6-8.9c-0.3-6.2-1.6-11.9-1.9-13.3
		c0.2-0.2,0.7-0.6,0.7-1.3c0-0.8-0.5-1.9-1.9-1.8c-1.2,0.1-1.5,0.8-1.6,1.4c0,0.1-0.1,0.2-0.1,0.4c-0.1,0.8,0.4,1.6,1.3,1.7
		c0,0,0,0-0.1-0.1c0,0,0.1,0,0.1,0l0.1,5.3l0.1-1c-0.2,2.8-0.6,6.2-1.3,7.8l-0.3,0.5c0,0-12.1-0.5-16.5,14.7
		c-0.1,0.4-0.2,0.8-0.2,1.2c-0.2,1-0.4,2-0.4,2.4c-0.6-0.2-1.2-0.3-1.8-0.4c-0.2,0-0.3-0.1-0.5-0.1c-0.3-0.1-0.6-0.1-0.8-0.1
		l-0.7-0.1c-2-0.1-3.9,0.1-5.8,0.4c-1.9,0.3-3.8,0.9-5.6,1.6s-3.5,1.8-5.1,3c-1.6,1.2-2.9,2.6-4.1,4.2c-1.2,1.6-2.2,3.3-3.1,5
		c-0.4,0.9-0.8,1.8-1.1,2.7c-0.3,0.9-0.6,1.8-0.8,2.7c-0.5,0.3-1,0.6-1.4,1c-0.5,0.4-0.9,0.9-1.3,1.4c0,0.1-0.1,0.1-0.1,0.2
		c-1.4,1.4-3.1,3.6-4.9,7c-1.4,2.4-2.5,5-3.3,7.7c-1.1,3.9-1.5,8.1-1.1,12.1c0.2,2.1,0.7,4.1,1.3,6c0.2,0.5,0.4,1,0.5,1.5L3.1,96
		v0.1c0,0.1,0.1,0.1,0.1,0.1c0.1,0.1,0.1,0.1,0.1,0.2c0.1,0.2,0.2,0.3,0.3,0.4c0.2,0.2,0.4,0.4,0.5,0.6c0.7,0.8,1.4,1.5,2.2,2.2
		c0.4,0.4,0.8,0.7,1.2,1c0.1,0.1,0.3,0.2,0.4,0.3c0.1,0.1,0.2,0.1,0.3,0.1c0.1,0,0.1,0.1,0.2,0.1c0.1,0,0.1,0,0.1,0
		c0.1,0,0.1,0,0.1,0h0.8l3,0.1h1.5c0.6,0,1.1-0.1,1.6-0.1c1.1-0.2,2-0.3,3-0.6c0.5-0.1,0.9-0.3,1.4-0.5c0.5-0.3,0.9-0.6,1.2-1
		c0.3-0.4,0.6-0.9,0.7-1.4c0.1-0.3,0.1-0.5,0.1-0.8v-0.3c0.5-0.2,1-0.4,1.5-0.5c0.1,0,0.2-0.1,0.2-0.1h0.1c0.1,0,0.1-0.1,0.1-0.1
		c0.2-0.1,0.2-0.2,0.3-0.2c0.1-0.1,0.2-0.2,0.3-0.3c0.1-0.1,0.1-0.2,0.2-0.3c0.2-0.4,0.3-0.7,0.4-1c0.3-0.7,0.4-1.3,0.6-2
		c0.2-0.7,0.4-1.3,0.5-2l0.1-0.1l-0.1-0.1c-0.1-0.5-0.3-0.9-0.6-1.3c-0.2-0.4-0.5-0.8-0.8-1.1c-0.3-0.4-0.6-0.7-0.9-1
		c-0.3-0.3-0.5-0.5-0.8-0.8l-0.3-2.2c0,0,0,0,0,0c-0.4-0.8-0.6-1.6-0.7-2.6c-0.1-1.6,0.7-3.1,1.1-4.6c2.5-8,9.5-9,9.5-9L38,75
		l1.5,9.2c-0.2,0.7-0.4,1.5-0.5,2.2c-0.2,0.8-0.3,1.6-0.3,2.4c-0.1,0.7-0.1,1.5-0.2,2.2c-1.6,1.5-3,3.2-4.1,5
		c-0.6,1-1.2,1.9-1.7,2.9c-0.5,1-1,2-1.4,3c-0.9,2.1-1.5,4.2-1.9,6.4c-0.1,0.6-0.2,1.1-0.2,1.7s0,1.2,0.1,1.7c0.1,0.5,0.2,1,0.4,1.5
		c-1.2,1.3-2.1,2.6-2.9,4.1c-0.5,0.8-0.9,1.6-1.2,2.4c-0.2,0.4-0.4,0.8-0.5,1.2l-0.5,1.3c-0.6,1.7-1.1,3.4-1.3,5.2
		c-0.2,0.9-0.2,1.8-0.3,2.7c-0.1,0.4-0.1,0.9-0.1,1.3l-0.1,1.3c0.1,0.2,0.1,0.4,0.1,0.5c0.1,0.2,0.1,0.4,0.2,0.5
		c0.1,0.2,0.1,0.4,0.2,0.5c0.1,0.1,0.2,0.3,0.3,0.4c0,0,0,0,0,0c0,0,0,0,0,0c0,0,0,0,0,0.1l0-0.1c0,0,0,0,0,0c0,0.1,0.1,0.1,0.1,0.2
		c0,0,0,0.1,0,0.2c-0.1,0.5,0,1,0.2,1.4c0.3,0.6,0.8,1,1.4,1.3c0.3,0.2,0.6,0.3,0.9,0.4s0.6,0.2,0.9,0.3c0.6,0.1,1.2,0.3,1.8,0.4
		c0.6,0.1,1.2,0.2,1.8,0.3c0.6,0.1,1.2,0.1,1.8,0.1c0.7-0.1,1.3-0.2,1.9-0.4c0.3-0.2,0.6-0.3,0.9-0.5c0.1-0.1,0.3-0.3,0.4-0.4
		c0,0,0.1,0,0.1,0c0.5,0.1,0.9-0.1,1.3-0.3l0.3-0.2c0.1-0.1,0.2-0.1,0.3-0.2c0.2-0.1,0.3-0.2,0.5-0.4c0.1-0.2,0.3-0.3,0.4-0.4
		l0.4-0.4c0.2-0.3,0.5-0.5,0.7-0.7c0.5-0.5,1.1-0.9,1.6-1.4c0.6-0.5,1.1-1,1.6-1.5c1.1-1.1,1.9-2.4,2.3-3.9c0.5-1.5,0.5-3,0.3-4.4
		l-0.1-0.6l-0.1-0.6c-0.1-0.4-0.2-0.7-0.3-1.1c-0.1-0.4-0.2-0.7-0.3-1.1c-0.1-0.2-0.2-0.5-0.3-0.7c0.5-0.1,0.9-0.2,1.4-0.4
		c1.1-0.5,2-1.2,2.7-2s1.4-1.7,2-2.7c0.6-1,1.1-2,1.5-3c0.9-2,1.6-4.1,2.3-6.2l0.3-0.8c0.1-0.3,0.2-0.5,0.3-0.8c0,0,0-0.1,0.1-0.1
		h1.4c0.6,0,1.1,0.1,1.7,0.1l0.8,0.1h0.9c1.1,0,2.2-0.1,3.3-0.4l0.2,1c0.2,1.6,0.4,3.3,0.6,4.9l0.4,3.1l0.5,3.1l0.1,0.2l0.2,0.1
		c0.3,0.1,0.6,0.2,0.9,0.4l0,0c-0.1,0.1-0.2,0.2-0.3,0.3c-0.5,0.5-1,1.1-1.4,1.6c-0.6,0.8-1.1,1.6-1.5,2.5c-0.4,0.9-0.7,1.9-0.8,2.8
		l-0.1,0.8v0.8c0,0.3,0.1,0.5,0.1,0.8c0,0.2,0,0.5,0.1,0.7c0.3,1.9,0.8,3.8,1.4,5.5c0.3,0.9,0.7,1.8,1,2.7c0.4,0.9,0.7,1.8,1.1,2.6
		l0.1,0.1h0.1c0.7,0.2,1.3,0.2,2,0.3c0.6,0,1.3,0,1.9-0.1c0.9,0.1,1.8,0.2,2.6,0.1c1.2,0.1,2.5,0.1,3.7,0.1c0.6,0,1.3,0,1.9-0.1
		c0.7-0.1,1.3-0.1,1.9-0.2c0.2-0.1,0.4-0.1,0.5-0.1c0.2,0,0.4-0.1,0.6-0.2c0.4-0.2,0.6-0.5,0.8-0.9c0.2-0.4,0.2-0.7,0.2-1.1
		c0-0.3-0.1-0.7-0.2-1l-0.1-0.1H81c-0.2-0.1-0.3-0.2-0.5-0.2c0.2-0.7,0.4-1.4,0.6-2.1c0.2-0.7,0.4-1.5,0.6-2.2s0.4-1.5,0.5-2.2
		c0.2-0.8,0.3-1.5,0.5-2.2c0.1-0.4,0.2-0.8,0.2-1.1c0.1-0.4,0.1-0.8,0.2-1.1c0.1-0.4,0.1-0.8,0.1-1.2c0.1-0.4,0.1-0.8,0-1.2
		c-0.1-1.2-0.6-2.3-1.4-3.2c-0.1-0.2-0.3-0.3-0.4-0.4c0.1-0.1,0.3-0.2,0.4-0.3c0.4-0.3,0.7-0.6,1-1c0.2-0.2,0.3-0.4,0.4-0.6
		c0.1-0.1,0.1-0.2,0.2-0.3c0-0.1,0.1-0.1,0.1-0.2s0-0.1,0.1-0.2v0.1c0.8-2,1.4-4.1,1.8-6.3c0.2-1.1,0.4-2.2,0.4-3.3
		c0.1-1.1,0.1-2.2-0.1-3.3c-0.1-1.1-0.3-2.2-0.6-3.2s-0.6-2.1-1.1-3.1c-0.5-1-1-1.9-1.7-2.8c-0.5-0.6-1.1-1.2-1.7-1.7
		c-0.3-0.3-0.4-0.4-0.4-0.4c0,0,0,0,0,0c0,0-0.1,0-0.1-0.1c0.1-0.4,0.2-0.8,0.3-1.2c0.2-1.1,0.3-2.2,0.4-3.3
		c0.1-1.1,0.1-2.2,0.1-3.3c0.1-2.2,0-4.4-0.1-6.5l0.4-1c0.4-0.7,0.8-1.5,1.1-2.2c0,0,4.5,1.7,7.4,9.5c0.4,1,0.9,2.1,1.2,3.1
		c0.2,0.9,0.4,1.9,0.3,2.8c0,0.3-0.1,0.5-0.1,0.7l0.1,0.1c0.2,0.1,0.3,0.2,0.4,0.3c0.1,0,0.1,0.1,0.1,0.1l-0.3,0.6
		c-0.2,0.3-0.3,0.6-0.4,0.9l-0.1,0.1v0.1c0,0,0,0.1-0.1,0.1c-0.1,0.1-0.1,0.1-0.1,0.2c-0.1,0.1-0.2,0.2-0.4,0.3
		c-0.3,0.2-0.5,0.3-0.8,0.4c-0.4,0.1-0.9,0.2-1.3,0.4c-0.4,0.3-0.7,0.7-0.9,1.2c-0.2,0.5-0.2,0.9-0.2,1.3c0,0.2,0,0.4,0.1,0.7
		c0,0.2,0.1,0.4,0.1,0.7v0.1l0.1,0.1c0.3,0.4,0.5,0.7,0.7,1.1c0.2,0.4,0.4,0.8,0.6,1.2c0.2,0.4,0.3,0.8,0.5,1.3
		c0.2,0.4,0.3,0.9,0.3,1.3l0.1,0.3l0.2,0.1l1.4,0.7h-0.1c0.4,0.3,0.9,0.5,1.4,0.6c0.5,0.1,1,0.2,1.5,0.1c0.5-0.1,1-0.1,1.4-0.3
		c0.3-0.1,0.5-0.2,0.7-0.3c0.1-0.1,0.2-0.1,0.4-0.2l0.2,0.2c0.2,0.2,0.4,0.3,0.6,0.4c0.1,0.1,0.3,0.1,0.4,0.2h0.3
		c0.1,0,0.2,0,0.2-0.1c0.3-0.1,0.5-0.2,0.7-0.2c0.8-0.4,1.4-0.7,2.1-1.1c0.1,0,0.1-0.1,0.2-0.1s0.1-0.1,0.2-0.1
		c0.1-0.1,0.2-0.2,0.3-0.3c0.2-0.2,0.3-0.3,0.4-0.5c0.3-0.3,0.5-0.7,0.7-1c0.5-0.7,0.9-1.3,1.3-2c1.1-2.3,1.9-4.7,2.4-7.2
		C106.6,88.5,106.8,85.9,106.5,83.4z M45.9,119c-0.5,0.2-1,0.4-1.5,0.4c-0.1,0-0.1,0-0.2,0l-0.1,0c0,0,0,0,0,0c0.1,0,0.1,0,0.2,0
		c0.7-0.1,1.4-0.3,2.1-0.6c0.1-0.1,0.3-0.1,0.4-0.2C46.5,118.8,46.2,118.9,45.9,119z M61.6,6.2C61.6,6.2,61.7,6.2,61.6,6.2
		c0.1,0,0.8-0.2,1.3,0.3c-0.1,0-0.1,0-0.2,0c-0.3-0.2-0.6-0.3-1-0.3C61.7,6.2,61.6,6.2,61.6,6.2z M62.4,8.9c0.1-0.1,0.3-0.1,0.4-0.2
		C62.6,8.9,62.5,8.9,62.4,8.9c0.4,1.2,0.7,3,0.9,4.8C63,11.1,62.6,9.6,62.4,8.9z"/>
	<path class="st0" d="M63.2,7.7C63.3,7.6,63.3,7.6,63.2,7.7c0,0.1,0,0.3-0.1,0.5C63.2,8,63.2,7.8,63.2,7.7z"/>
	<path class="st0" d="M48.9,116.6C48.9,116.6,48.9,116.6,48.9,116.6c0-0.1,0.1-0.1,0.1-0.2C49,116.5,49,116.6,48.9,116.6z"/>
	<path class="st0" d="M62.9,8.6L62.9,8.6C62.8,8.6,62.8,8.6,62.9,8.6C62.9,8.6,62.9,8.6,62.9,8.6z"/>
</g>
<g>
	<path class="st0" d="M152.9,33.6c0.1,0.1,0.2,0.3,0.3,0.4c0.1,0.1,0.1,0.1,0.2,0.2c0,0,0,0,0,0c0.1,0,0.1,0.1,0.1,0.1
		c0.1,0,0.1,0.1,0.2,0.1c0,0,0,0,0,0c0,0,0.1,0,0.1,0c0.3,0.1,0.6,0.1,1,0.1c0.3-0.1,0.5-0.3,0.7-0.5c0.1-0.1,0.2-0.2,0.2-0.3
		c0,0,0,0,0,0c0-0.1,0.1-0.1,0.1-0.1c0,0,0,0,0,0c0.2-0.4,0.2-0.8,0.2-1.2c-0.1-0.4-0.3-0.8-0.7-1.1c-0.3-0.2-0.7-0.4-1.2-0.4
		c-0.2,0-0.4,0.1-0.7,0.2c-0.2,0.1-0.4,0.3-0.5,0.5c-0.1,0.2-0.2,0.4-0.3,0.7c-0.1,0.2-0.1,0.5,0,0.7
		C152.7,33.2,152.8,33.4,152.9,33.6z M155.8,31.8C155.8,31.8,155.8,31.9,155.8,31.8C155.8,31.8,155.8,31.8,155.8,31.8
		C155.8,31.8,155.8,31.8,155.8,31.8z"/>
	<path class="st0" d="M126.1,52.7c0,0.3,0.2,0.6,0.5,0.8c0,0,0,0,0,0c0,0,0,0,0,0c0.1,0.1,0.2,0.1,0.3,0.1c0,0,0,0,0,0
		c0.3,0.1,0.5,0.2,0.9,0.1c0.2,0,0.5-0.2,0.6-0.4c0.1-0.1,0.1-0.1,0.2-0.2c0,0,0-0.1,0-0.1c0,0,0,0,0,0c0,0,0,0,0,0
		c0.2-0.3,0.2-0.6,0.2-1c-0.1-0.4-0.3-0.7-0.6-0.9c-0.3-0.2-0.7-0.3-1-0.3c-0.2,0-0.4,0.1-0.6,0.2c-0.2,0.1-0.4,0.2-0.5,0.4
		c-0.1,0.2-0.2,0.3-0.3,0.5c-0.1,0.2-0.1,0.4,0,0.6C126.1,52.6,126.1,52.7,126.1,52.7z"/>
	<path class="st0" d="M201,41.5c0.4,0.3,1,0.4,1.4,0.3c0.5-0.1,0.9-0.4,1.2-0.8c0.3-0.4,0.4-0.9,0.3-1.4c-0.1-0.5-0.4-0.9-0.7-1.1
		c-0.4-0.3-0.8-0.5-1.4-0.4c-0.3,0.1-0.5,0.1-0.7,0.2c-0.2,0.1-0.4,0.3-0.6,0.5c-0.2,0.2-0.3,0.5-0.3,0.7c-0.1,0.3-0.1,0.5,0,0.8
		C200.3,40.8,200.6,41.3,201,41.5z"/>
	<path class="st0" d="M207.2,47.3c0,0.1,0.1,0.2,0.2,0.3c0,0,0.1,0.1,0.1,0.1c0,0,0,0,0,0c0.4,0.2,0.5,0.3,0.9,0.2
		c0,0,0.1,0,0.1-0.1c0.2-0.1,0.4-0.2,0.5-0.3c0.2-0.3,0.2-0.5,0.2-0.8c0-0.1,0-0.1-0.1-0.2c-0.1-0.4-0.5-0.6-0.9-0.6
		c-0.1,0-0.3,0-0.4,0.1c0,0-0.1,0-0.1,0.1c-0.1,0.1-0.2,0.2-0.3,0.3c-0.1,0.1-0.2,0.2-0.2,0.4c0,0.1-0.1,0.3,0,0.4
		C207.2,47.1,207.2,47.2,207.2,47.3z"/>
	<path class="st0" d="M220.7,76.1c-0.6-1.2-1.3-2.2-2-3.3c-0.4-0.5-0.8-1-1.2-1.5c-0.4-0.5-0.8-0.9-1.3-1.2c0-0.2-0.1-0.4-0.1-0.6
		c-0.1-0.2-0.2-0.5-0.3-0.7c-0.2-0.4-0.5-0.8-0.7-1.1c-0.3-0.4-0.5-0.7-0.8-1c-0.3-0.3-0.5-0.6-0.8-0.8c-0.1-2.7-0.3-5.4-1.2-7.9
		c-0.5-1.3-1.1-2.5-1.9-3.6c-0.8-1.1-1.8-2.1-2.8-3c-1.1-0.9-2.2-1.6-3.4-2.2c-1.2-0.6-2.5-1.1-3.8-1.4l0.1-0.1
		c-2-0.5-3.5-0.6-3.5-0.6s0,0,0,0c0.7-10.2-3.2-16.2-3.2-16.2c-4.7-7.7-12.6-8.9-12.6-8.9c-0.3-6.2-1.6-11.9-1.9-13.3
		c0.2-0.2,0.7-0.6,0.7-1.3c0-0.8-0.5-1.9-1.9-1.8c-1.2,0.1-1.5,0.8-1.6,1.4c0,0.1-0.1,0.2-0.1,0.4c-0.1,0.8,0.4,1.6,1.3,1.7
		c0,0,0,0-0.1-0.1c0,0,0.1,0,0.1,0l0.1,5.3l0.1-1c-0.2,2.8-0.6,6.2-1.3,7.8l-0.3,0.5c0,0-12.1-0.5-16.5,14.7
		c-0.1,0.4-0.2,0.8-0.2,1.2c-0.2,1-0.4,2-0.4,2.4c-0.6-0.2-1.2-0.3-1.8-0.4c-0.2,0-0.3-0.1-0.5-0.1c-0.3-0.1-0.6-0.1-0.8-0.1
		l-0.7-0.1c-2-0.1-3.9,0.1-5.8,0.4c-1.9,0.3-3.8,0.9-5.6,1.6c-1.8,0.8-3.5,1.8-5.1,3c-1.6,1.2-2.9,2.6-4.1,4.2
		c-1.2,1.6-2.2,3.3-3.1,5c-0.4,0.9-0.8,1.8-1.1,2.7c-0.3,0.9-0.6,1.8-0.8,2.7c-0.5,0.3-1,0.6-1.4,1c-0.5,0.4-0.9,0.9-1.3,1.4
		c0,0.1-0.1,0.1-0.1,0.2c-1.4,1.4-3.1,3.6-4.9,7c-1.4,2.4-2.5,5-3.3,7.7c-1.1,3.9-1.5,8.1-1.1,12.1c0.2,2.1,0.7,4.1,1.3,6
		c0.2,0.5,0.4,1,0.5,1.5l0.1,0.2v0.1c0,0.1,0.1,0.1,0.1,0.1c0.1,0.1,0.1,0.1,0.1,0.2c0.1,0.2,0.2,0.3,0.3,0.4
		c0.2,0.2,0.4,0.4,0.5,0.6c0.7,0.8,1.4,1.5,2.2,2.2c0.4,0.4,0.8,0.7,1.2,1c0.1,0.1,0.3,0.2,0.4,0.3c0.1,0.1,0.2,0.1,0.3,0.1
		c0.1,0,0.1,0.1,0.2,0.1c0.1,0,0.1,0,0.1,0s0.1,0,0.1,0h0.8l3,0.1c0.5,0,1,0,1.5,0c0.6,0,1.1-0.1,1.6-0.1c1.1-0.2,2-0.3,3-0.6
		c0.5-0.1,0.9-0.3,1.4-0.5c0.5-0.3,0.9-0.6,1.2-1c0.3-0.4,0.6-0.9,0.7-1.4c0.1-0.3,0.1-0.5,0.1-0.8c0-0.1,0-0.2,0-0.3
		c0.5-0.2,1-0.4,1.5-0.5c0.1,0,0.2-0.1,0.2-0.1h0.1h0.1c0.1,0,0.1-0.1,0.1-0.1c0.2-0.1,0.2-0.2,0.3-0.2c0.1-0.1,0.2-0.2,0.3-0.3
		c0.1-0.1,0.1-0.2,0.2-0.3c0.2-0.4,0.3-0.7,0.4-1c0.3-0.7,0.4-1.3,0.6-2c0.2-0.7,0.4-1.3,0.5-2l0.1-0.1l-0.1-0.1
		c-0.1-0.5-0.3-0.9-0.6-1.3c-0.2-0.4-0.5-0.8-0.8-1.1c-0.3-0.4-0.6-0.7-0.9-1c-0.3-0.3-0.5-0.5-0.8-0.8l-0.3-2.2
		c1.2-0.5,2.3-1.3,3.1-2.2c1-1.1,1.6-2.4,2-3.8c0.4-1.4,0.5-2.8,0.5-4.2c0-0.7-0.1-1.4-0.2-2.1c-0.1-0.6-0.2-1.1-0.3-1.6l4.8-2.4
		l5.9,7.7l1.5,9.2c-0.2,0.7-0.4,1.5-0.5,2.2c-0.2,0.8-0.3,1.6-0.3,2.4c-0.1,0.7-0.1,1.5-0.2,2.2c-1.6,1.5-3,3.2-4.1,5
		c-0.6,1-1.2,1.9-1.7,2.9c-0.5,1-1,2-1.4,3c-0.9,2.1-1.5,4.2-1.9,6.4c-0.1,0.6-0.2,1.1-0.2,1.7s0,1.2,0.1,1.7c0.1,0.5,0.2,1,0.4,1.5
		c-1.2,1.3-2.1,2.6-2.9,4.1c-0.5,0.8-0.9,1.6-1.2,2.4c-0.2,0.4-0.4,0.8-0.5,1.2l-0.5,1.3c-0.6,1.7-1.1,3.4-1.3,5.2
		c-0.2,0.9-0.2,1.8-0.3,2.7c-0.1,0.4-0.1,0.9-0.1,1.3l-0.1,1.3c0.1,0.2,0.1,0.4,0.1,0.5c0.1,0.2,0.1,0.4,0.2,0.5
		c0.1,0.2,0.1,0.4,0.2,0.5c0.1,0.1,0.2,0.3,0.3,0.4c0,0,0,0,0,0c0,0,0,0,0,0c0,0,0,0,0,0.1l0-0.1c0,0,0,0,0,0c0,0.1,0.1,0.1,0.1,0.2
		c0,0,0,0.1,0,0.2c-0.1,0.5,0,1,0.2,1.4c0.3,0.6,0.8,1,1.4,1.3c0.3,0.2,0.6,0.3,0.9,0.4c0.3,0.1,0.6,0.2,0.9,0.3
		c0.6,0.1,1.2,0.3,1.8,0.4c0.6,0.1,1.2,0.2,1.8,0.3c0.6,0.1,1.2,0.1,1.8,0.1c0.7-0.1,1.3-0.2,1.9-0.4c0.3-0.2,0.6-0.3,0.9-0.5
		c0.1-0.1,0.3-0.3,0.4-0.4c0,0,0.1,0,0.1,0c0.5,0.1,0.9-0.1,1.3-0.3l0.3-0.2c0.1-0.1,0.2-0.1,0.3-0.2c0.2-0.1,0.3-0.2,0.5-0.4
		c0.1-0.2,0.3-0.3,0.4-0.4l0.4-0.4c0.2-0.3,0.5-0.5,0.7-0.7c0.5-0.5,1.1-0.9,1.6-1.4c0.6-0.5,1.1-1,1.6-1.5c1.1-1.1,1.9-2.4,2.3-3.9
		c0.5-1.5,0.5-3,0.3-4.4l-0.1-0.6l-0.1-0.6c-0.1-0.4-0.2-0.7-0.3-1.1c-0.1-0.4-0.2-0.7-0.3-1.1c-0.1-0.2-0.2-0.5-0.3-0.7
		c0.5-0.1,0.9-0.2,1.4-0.4c1.1-0.5,2-1.2,2.7-2c0.8-0.8,1.4-1.7,2-2.7c0.6-1,1.1-2,1.5-3c0.9-2,1.6-4.1,2.3-6.2l0.3-0.8
		c0.1-0.3,0.2-0.5,0.3-0.8c0,0,0-0.1,0.1-0.1c0.1,0,0.1,0,0.2,0c0.2,0,0.3,0,0.4,0c0.3,0,0.6,0,0.8,0c0.6,0,1.1,0.1,1.7,0.1l0.8,0.1
		c0.3,0,0.6,0,0.9,0c1.1,0,2.2-0.2,3.3-0.4l0.2,1c0.2,1.6,0.4,3.3,0.6,4.9l0.4,3.1l0.5,3.1l0.1,0.2l0.2,0.1c0.3,0.1,0.6,0.2,0.9,0.4
		l0,0c-0.1,0.1-0.2,0.2-0.3,0.3c-0.5,0.5-1,1.1-1.4,1.6c-0.6,0.8-1.1,1.6-1.5,2.5c-0.4,0.9-0.7,1.9-0.8,2.8l-0.1,0.8v0.8
		c0,0.3,0.1,0.5,0.1,0.8c0,0.2,0,0.5,0.1,0.7c0.3,1.9,0.8,3.8,1.4,5.5c0.3,0.9,0.7,1.8,1,2.7c0.4,0.9,0.7,1.8,1.1,2.6l0.1,0.1h0.1
		c0.7,0.2,1.3,0.2,2,0.3c0.6,0,1.3,0,1.9-0.1c0.9,0.1,1.8,0.2,2.6,0.1c1.2,0.1,2.5,0.1,3.7,0.1c0.6,0,1.3,0,1.9-0.1
		c0.7-0.1,1.3-0.1,1.9-0.2c0.2-0.1,0.4-0.1,0.5-0.1c0.2,0,0.4-0.1,0.6-0.2c0.4-0.2,0.6-0.5,0.8-0.9c0.2-0.4,0.2-0.7,0.2-1.1
		c0-0.3-0.1-0.7-0.2-1l-0.1-0.1h-0.1c-0.2-0.1-0.3-0.2-0.5-0.2c0.2-0.7,0.4-1.4,0.6-2.1c0.2-0.7,0.4-1.5,0.6-2.2
		c0.2-0.7,0.4-1.5,0.5-2.2c0.2-0.8,0.3-1.5,0.5-2.2c0.1-0.4,0.2-0.8,0.2-1.1c0.1-0.4,0.1-0.8,0.2-1.1c0.1-0.4,0.1-0.8,0.1-1.2
		c0.1-0.4,0.1-0.8,0-1.2c-0.1-1.2-0.6-2.3-1.4-3.2c-0.1-0.2-0.3-0.3-0.4-0.4c0.1-0.1,0.3-0.2,0.4-0.3c0.4-0.3,0.7-0.6,1-1
		c0.2-0.2,0.3-0.4,0.4-0.6c0.1-0.1,0.1-0.2,0.2-0.3c0-0.1,0.1-0.1,0.1-0.2c0-0.1,0-0.1,0.1-0.2v0.1c0.8-2,1.4-4.1,1.8-6.3
		c0.2-1.1,0.4-2.2,0.4-3.3c0.1-1.1,0.1-2.2-0.1-3.3c-0.1-1.1-0.3-2.2-0.6-3.2c-0.3-1.1-0.6-2.1-1.1-3.1c-0.5-1-1-1.9-1.7-2.8
		c-0.5-0.6-1.1-1.2-1.7-1.7c-0.3-0.3-0.4-0.4-0.4-0.4c0,0,0,0,0,0c0,0-0.1,0-0.1-0.1c0.1-0.4,0.2-0.8,0.3-1.2
		c0.2-1.1,0.3-2.2,0.4-3.3c0.1-1.1,0.1-2.2,0.1-3.3c0.1-2.2,0-4.4-0.1-6.5l0.4-1c0.4-0.7,0.8-1.5,1.1-2.2l3.7,3.7
		c-0.1,0.3-0.1,0.5-0.1,0.8c-0.1,0.3-0.1,0.7-0.1,1c0,0.7,0.1,1.3,0.2,1.9c0.2,1.3,0.6,2.5,1.1,3.7s1.2,2.3,2,3.3
		c0.4,0.5,0.9,1,1.4,1.4c0.3,0.2,0.5,0.4,0.8,0.6c0.2,0.1,0.3,0.2,0.4,0.3c0.1,0,0.1,0.1,0.1,0.1l-0.3,0.6c-0.2,0.3-0.3,0.6-0.4,0.9
		l-0.1,0.1v0.1c0,0,0,0.1-0.1,0.1c-0.1,0.1-0.1,0.1-0.1,0.2c-0.1,0.1-0.2,0.2-0.4,0.3c-0.3,0.2-0.5,0.3-0.8,0.4
		c-0.4,0.1-0.9,0.2-1.3,0.4c-0.4,0.3-0.7,0.7-0.9,1.2c-0.2,0.5-0.2,0.9-0.2,1.3c0,0.2,0,0.4,0.1,0.7c0,0.2,0.1,0.4,0.1,0.7v0.1
		l0.1,0.1c0.3,0.4,0.5,0.7,0.7,1.1c0.2,0.4,0.4,0.8,0.6,1.2c0.2,0.4,0.3,0.8,0.5,1.3c0.2,0.4,0.3,0.9,0.3,1.3l0.1,0.3l0.2,0.1
		l1.4,0.7h-0.1c0.4,0.3,0.9,0.5,1.4,0.6c0.5,0.1,1,0.2,1.5,0.1c0.5-0.1,1-0.1,1.4-0.3c0.3-0.1,0.5-0.2,0.7-0.3
		c0.1-0.1,0.2-0.1,0.4-0.2c0.1,0.1,0.2,0.2,0.2,0.2c0.2,0.2,0.4,0.3,0.6,0.4c0.1,0.1,0.3,0.1,0.4,0.2c0.1,0,0.2,0,0.3,0
		s0.2,0,0.2-0.1c0.3-0.1,0.5-0.2,0.7-0.2c0.8-0.4,1.4-0.7,2.1-1.1c0.1,0,0.1-0.1,0.2-0.1c0.1-0.1,0.1-0.1,0.2-0.1
		c0.1-0.1,0.2-0.2,0.3-0.3c0.2-0.2,0.3-0.3,0.4-0.5c0.3-0.3,0.5-0.7,0.7-1c0.5-0.7,0.9-1.3,1.3-2c1.1-2.3,1.9-4.7,2.4-7.2
		c0.9-2.7,1-5.3,0.7-7.8C222.5,80.9,221.8,78.4,220.7,76.1z M179.6,7.7C179.6,7.6,179.6,7.6,179.6,7.7c0,0.1,0,0.3-0.1,0.5
		C179.6,8,179.6,7.8,179.6,7.7z M162.2,119c-0.5,0.2-1,0.4-1.5,0.4c-0.1,0-0.1,0-0.2,0l-0.1,0c0,0,0,0,0,0c0.1,0,0.1,0,0.2,0
		c0.7-0.1,1.4-0.3,2.1-0.6c0.1-0.1,0.3-0.1,0.4-0.2C162.8,118.8,162.5,118.9,162.2,119z M165.3,116.6
		C165.3,116.6,165.3,116.6,165.3,116.6c0-0.1,0.1-0.1,0.1-0.2C165.4,116.5,165.4,116.6,165.3,116.6z M178,6.2
		C178,6.2,178,6.2,178,6.2c0.1,0,0.8-0.2,1.3,0.3c-0.1,0-0.1,0-0.2,0c-0.3-0.2-0.6-0.3-1-0.3C178.1,6.2,178,6.2,178,6.2z M179.3,8.6
		L179.3,8.6C179.2,8.6,179.2,8.6,179.3,8.6C179.2,8.6,179.2,8.6,179.3,8.6z M178.8,8.9c0.1-0.1,0.3-0.1,0.4-0.2
		C179,8.9,178.8,8.9,178.8,8.9c0.4,1.2,0.7,3,0.9,4.8C179.3,11.1,179,9.6,178.8,8.9z"/>
</g>
<g>
	<path class="st0" d="M263.1,33.5c0.2,0.3,0.4,0.6,0.7,0.9c0.2,0.1,0.3,0.3,0.5,0.4c0,0,0,0,0,0c0.1,0.1,0.2,0.1,0.3,0.2
		c0.2,0.1,0.4,0.2,0.5,0.3c0,0,0,0,0,0c0.1,0,0.1,0.1,0.2,0.1c0.7,0.3,1.4,0.3,2.3,0.1c0.7-0.1,1.3-0.6,1.7-1
		c0.2-0.2,0.4-0.4,0.5-0.6c0,0,0,0,0,0c0.1-0.2,0.2-0.3,0.2-0.3c0,0,0,0,0,0c0.4-0.8,0.5-1.8,0.4-2.7c-0.2-1-0.8-1.9-1.6-2.5
		c-0.8-0.6-1.8-0.9-2.9-0.9c-0.6,0-1.1,0.2-1.6,0.4c-0.5,0.3-0.9,0.6-1.3,1.1c-0.3,0.5-0.6,1-0.7,1.5c-0.2,0.6-0.2,1.1-0.1,1.7
		C262.7,32.6,262.8,33,263.1,33.5z M269.9,29.4c0,0,0,0.1,0.1,0.1C270,29.5,269.9,29.5,269.9,29.4C269.9,29.4,269.9,29.4,269.9,29.4
		z"/>
	<path class="st0" d="M240.6,52.7c0,0.3,0.2,0.6,0.5,0.8c0,0,0,0,0,0c0,0,0,0,0,0c0.1,0.1,0.2,0.1,0.3,0.1c0,0,0,0,0,0
		c0.3,0.1,0.5,0.2,0.9,0.1c0.2,0,0.5-0.2,0.6-0.4c0.1-0.1,0.1-0.1,0.2-0.2c0,0,0-0.1,0-0.1c0,0,0,0,0,0c0,0,0,0,0,0
		c0.2-0.3,0.2-0.6,0.2-1c-0.1-0.4-0.3-0.7-0.6-0.9c-0.3-0.2-0.7-0.3-1-0.3c-0.2,0-0.4,0.1-0.6,0.2c-0.2,0.1-0.4,0.2-0.5,0.4
		c-0.1,0.2-0.2,0.3-0.3,0.5c-0.1,0.2-0.1,0.4,0,0.6C240.6,52.6,240.6,52.7,240.6,52.7z"/>
	<path class="st0" d="M315.5,41.5c0.4,0.3,1,0.4,1.4,0.3c0.5-0.1,0.9-0.4,1.2-0.8c0.3-0.4,0.4-0.9,0.3-1.4c-0.1-0.5-0.4-0.9-0.7-1.1
		c-0.4-0.3-0.8-0.5-1.4-0.4c-0.3,0.1-0.5,0.1-0.7,0.2c-0.2,0.1-0.4,0.3-0.6,0.5c-0.2,0.2-0.3,0.5-0.3,0.7c-0.1,0.3-0.1,0.5,0,0.8
		C314.8,40.8,315.1,41.3,315.5,41.5z"/>
	<path class="st0" d="M321.8,47.3c0,0.1,0.1,0.2,0.2,0.3c0,0,0.1,0.1,0.1,0.1c0,0,0,0,0,0c0.4,0.2,0.5,0.3,0.9,0.2
		c0,0,0.1,0,0.1-0.1c0.2-0.1,0.4-0.2,0.5-0.3c0.2-0.3,0.2-0.5,0.2-0.8c0-0.1,0-0.1-0.1-0.2c-0.1-0.4-0.5-0.6-0.9-0.6
		c-0.1,0-0.3,0-0.4,0.1c0,0-0.1,0-0.1,0.1c-0.1,0.1-0.2,0.2-0.3,0.3c-0.1,0.1-0.2,0.2-0.2,0.4c0,0.1-0.1,0.3,0,0.4
		C321.7,47.1,321.7,47.2,321.8,47.3z"/>
	<path class="st0" d="M335.2,76.1c-0.6-1.2-1.3-2.2-2-3.3c-0.4-0.5-0.8-1-1.2-1.5c-0.4-0.5-0.8-0.9-1.3-1.2c0-0.2-0.1-0.4-0.1-0.6
		c-0.1-0.2-0.2-0.5-0.3-0.7c-0.2-0.4-0.5-0.8-0.7-1.1c-0.3-0.4-0.5-0.7-0.8-1c-0.3-0.3-0.5-0.6-0.8-0.8c-0.1-2.7-0.3-5.4-1.2-7.9
		c-0.5-1.3-1.1-2.5-1.9-3.6c-0.8-1.1-1.8-2.1-2.8-3c-1.1-0.9-2.2-1.6-3.4-2.2c-1.2-0.6-2.5-1.1-3.8-1.4l0.1-0.1
		c-2-0.5-3.5-0.6-3.5-0.6s0,0,0,0c0.7-10.2-3.2-16.2-3.2-16.2c-4.7-7.7-12.6-8.9-12.6-8.9c-0.3-6.2-1.6-11.9-1.9-13.3
		c0.2-0.2,0.7-0.6,0.7-1.3c0-0.8-0.5-1.9-1.9-1.8c-1.2,0.1-1.5,0.8-1.6,1.4c0,0.1-0.1,0.2-0.1,0.4c-0.1,0.8,0.4,1.6,1.3,1.7
		c0,0,0,0-0.1-0.1c0,0,0.1,0,0.1,0l0.1,5.3l0.1-1c-0.2,2.8-0.6,6.2-1.3,7.8l-0.3,0.5c0,0-12.1-0.5-16.5,14.7
		c-0.1,0.4-0.2,0.8-0.2,1.2c-0.2,1-0.4,2-0.4,2.4c-0.6-0.2-1.2-0.3-1.8-0.4c-0.2,0-0.3-0.1-0.5-0.1c-0.3-0.1-0.6-0.1-0.8-0.1
		l-0.7-0.1c-2-0.1-3.9,0.1-5.8,0.4c-1.9,0.3-3.8,0.9-5.6,1.6c-1.8,0.8-3.5,1.8-5.1,3c-1.6,1.2-2.9,2.6-4.1,4.2
		c-1.2,1.6-2.2,3.3-3.1,5c-0.4,0.9-0.8,1.8-1.1,2.7c-0.3,0.9-0.6,1.8-0.8,2.7c-0.5,0.3-1,0.6-1.4,1c-0.5,0.4-0.9,0.9-1.3,1.4
		c0,0.1-0.1,0.1-0.1,0.2c-1.4,1.4-3.1,3.6-4.9,7c-1.4,2.4-2.5,5-3.3,7.7c-1.1,3.9-1.5,8.1-1.1,12.1c0.2,2.1,0.7,4.1,1.3,6
		c0.2,0.5,0.4,1,0.5,1.5L234,96v0.1c0,0.1,0.1,0.1,0.1,0.1c0.1,0.1,0.1,0.1,0.1,0.2c0.1,0.2,0.2,0.3,0.3,0.4
		c0.2,0.2,0.4,0.4,0.5,0.6c0.7,0.8,1.4,1.5,2.2,2.2c0.4,0.4,0.8,0.7,1.2,1c0.1,0.1,0.3,0.2,0.4,0.3c0.1,0.1,0.2,0.1,0.3,0.1
		c0.1,0,0.1,0.1,0.2,0.1c0.1,0,0.1,0,0.1,0s0.1,0,0.1,0h0.8l3,0.1c0.5,0,1,0,1.5,0c0.6,0,1.1-0.1,1.6-0.1c1.1-0.2,2-0.3,3-0.6
		c0.5-0.1,0.9-0.3,1.4-0.5c0.5-0.3,0.9-0.6,1.2-1c0.3-0.4,0.6-0.9,0.7-1.4c0.1-0.3,0.1-0.5,0.1-0.8c0-0.1,0-0.2,0-0.3
		c0.5-0.2,1-0.4,1.5-0.5c0.1,0,0.2-0.1,0.2-0.1h0.1h0.1c0.1,0,0.1-0.1,0.1-0.1c0.2-0.1,0.2-0.2,0.3-0.2c0.1-0.1,0.2-0.2,0.3-0.3
		c0.1-0.1,0.1-0.2,0.2-0.3c0.2-0.4,0.3-0.7,0.4-1c0.3-0.7,0.4-1.3,0.6-2c0.2-0.7,0.4-1.3,0.5-2l0.1-0.1l-0.1-0.1
		c-0.1-0.5-0.3-0.9-0.6-1.3c-0.2-0.4-0.5-0.8-0.8-1.1c-0.3-0.4-0.6-0.7-0.9-1c-0.3-0.3-0.5-0.5-0.8-0.8l-0.3-2.2
		c1.2-0.5,2.3-1.3,3.1-2.2c1-1.1,1.6-2.4,2-3.8c0.4-1.4,0.5-2.8,0.5-4.2c0-0.7-0.1-1.4-0.2-2.1c-0.1-0.6-0.2-1.1-0.3-1.6l4.8-2.4
		l5.9,7.7l1.5,9.2c-0.2,0.7-0.4,1.5-0.5,2.2c-0.2,0.8-0.3,1.6-0.3,2.4c-0.1,0.7-0.1,1.5-0.2,2.2c-1.6,1.5-3,3.2-4.1,5
		c-0.6,1-1.2,1.9-1.7,2.9c-0.5,1-1,2-1.4,3c-0.9,2.1-1.5,4.2-1.9,6.4c-0.1,0.6-0.2,1.1-0.2,1.7s0,1.2,0.1,1.7c0.1,0.5,0.2,1,0.4,1.5
		c-1.2,1.3-2.1,2.6-2.9,4.1c-0.5,0.8-0.9,1.6-1.2,2.4c-0.2,0.4-0.4,0.8-0.5,1.2l-0.5,1.3c-0.6,1.7-1.1,3.4-1.3,5.2
		c-0.2,0.9-0.2,1.8-0.3,2.7c-0.1,0.4-0.1,0.9-0.1,1.3l-0.1,1.3c0.1,0.2,0.1,0.4,0.1,0.5c0.1,0.2,0.1,0.4,0.2,0.5
		c0.1,0.2,0.1,0.4,0.2,0.5c0.1,0.1,0.2,0.3,0.3,0.4c0,0,0,0,0,0c0,0,0,0,0,0c0,0,0,0,0,0.1l0-0.1c0,0,0,0,0,0c0,0.1,0.1,0.1,0.1,0.2
		c0,0,0,0.1,0,0.2c-0.1,0.5,0,1,0.2,1.4c0.3,0.6,0.8,1,1.4,1.3c0.3,0.2,0.6,0.3,0.9,0.4c0.3,0.1,0.6,0.2,0.9,0.3
		c0.6,0.1,1.2,0.3,1.8,0.4c0.6,0.1,1.2,0.2,1.8,0.3c0.6,0.1,1.2,0.1,1.8,0.1c0.7-0.1,1.3-0.2,1.9-0.4c0.3-0.2,0.6-0.3,0.9-0.5
		c0.1-0.1,0.3-0.3,0.4-0.4c0,0,0.1,0,0.1,0c0.5,0.1,0.9-0.1,1.3-0.3l0.3-0.2c0.1-0.1,0.2-0.1,0.3-0.2c0.2-0.1,0.3-0.2,0.5-0.4
		c0.1-0.2,0.3-0.3,0.4-0.4l0.4-0.4c0.2-0.3,0.5-0.5,0.7-0.7c0.5-0.5,1.1-0.9,1.6-1.4c0.6-0.5,1.1-1,1.6-1.5c1.1-1.1,1.9-2.4,2.3-3.9
		c0.5-1.5,0.5-3,0.3-4.4l-0.1-0.6l-0.1-0.6c-0.1-0.4-0.2-0.7-0.3-1.1c-0.1-0.4-0.2-0.7-0.3-1.1c-0.1-0.2-0.2-0.5-0.3-0.7
		c0.5-0.1,0.9-0.2,1.4-0.4c1.1-0.5,2-1.2,2.7-2c0.8-0.8,1.4-1.7,2-2.7c0.6-1,1.1-2,1.5-3c0.9-2,1.6-4.1,2.3-6.2l0.3-0.8
		c0.1-0.3,0.2-0.5,0.3-0.8c0,0,0-0.1,0.1-0.1s0.1,0,0.2,0c0.2,0,0.3,0,0.4,0c0.3,0,0.6,0,0.8,0c0.6,0,1.1,0.1,1.7,0.1l0.8,0.1
		c0.3,0,0.6,0,0.9,0c1.1,0,2.2-0.2,3.3-0.4l0.2,1c0.2,1.6,0.4,3.3,0.6,4.9l0.4,3.1l0.5,3.1l0.1,0.2l0.2,0.1c0.3,0.1,0.6,0.2,0.9,0.4
		l0,0c-0.1,0.1-0.2,0.2-0.3,0.3c-0.5,0.5-1,1.1-1.4,1.6c-0.6,0.8-1.1,1.6-1.5,2.5c-0.4,0.9-0.7,1.9-0.8,2.8l-0.1,0.8v0.8
		c0,0.3,0.1,0.5,0.1,0.8c0,0.2,0,0.5,0.1,0.7c0.3,1.9,0.8,3.8,1.4,5.5c0.3,0.9,0.7,1.8,1,2.7c0.4,0.9,0.7,1.8,1.1,2.6l0.1,0.1h0.1
		c0.7,0.2,1.3,0.2,2,0.3c0.6,0,1.3,0,1.9-0.1c0.9,0.1,1.8,0.2,2.6,0.1c1.2,0.1,2.5,0.1,3.7,0.1c0.6,0,1.3,0,1.9-0.1
		c0.7-0.1,1.3-0.1,1.9-0.2c0.2-0.1,0.4-0.1,0.5-0.1c0.2,0,0.4-0.1,0.6-0.2c0.4-0.2,0.6-0.5,0.8-0.9c0.2-0.4,0.2-0.7,0.2-1.1
		c0-0.3-0.1-0.7-0.2-1l-0.1-0.1h-0.1c-0.2-0.1-0.3-0.2-0.5-0.2c0.2-0.7,0.4-1.4,0.6-2.1c0.2-0.7,0.4-1.5,0.6-2.2
		c0.2-0.7,0.4-1.5,0.5-2.2c0.2-0.8,0.3-1.5,0.5-2.2c0.1-0.4,0.2-0.8,0.2-1.1c0.1-0.4,0.1-0.8,0.2-1.1c0.1-0.4,0.1-0.8,0.1-1.2
		c0.1-0.4,0.1-0.8,0-1.2c-0.1-1.2-0.6-2.3-1.4-3.2c-0.1-0.2-0.3-0.3-0.4-0.4c0.1-0.1,0.3-0.2,0.4-0.3c0.4-0.3,0.7-0.6,1-1
		c0.2-0.2,0.3-0.4,0.4-0.6c0.1-0.1,0.1-0.2,0.2-0.3c0-0.1,0.1-0.1,0.1-0.2c0-0.1,0-0.1,0.1-0.2v0.1c0.8-2,1.4-4.1,1.8-6.3
		c0.2-1.1,0.4-2.2,0.4-3.3c0.1-1.1,0.1-2.2-0.1-3.3c-0.1-1.1-0.3-2.2-0.6-3.2c-0.3-1.1-0.6-2.1-1.1-3.1c-0.5-1-1-1.9-1.7-2.8
		c-0.5-0.6-1.1-1.2-1.7-1.7c-0.3-0.3-0.4-0.4-0.4-0.4c0,0,0,0,0,0c0,0-0.1,0-0.1-0.1c0.1-0.4,0.2-0.8,0.3-1.2
		c0.2-1.1,0.3-2.2,0.4-3.3c0.1-1.1,0.1-2.2,0.1-3.3c0.1-2.2,0-4.4-0.1-6.5l0.4-1c0.4-0.7,0.8-1.5,1.1-2.2l3.7,3.7
		c-0.1,0.3-0.1,0.5-0.1,0.8c-0.1,0.3-0.1,0.7-0.1,1c0,0.7,0.1,1.3,0.2,1.9c0.2,1.3,0.6,2.5,1.1,3.7c0.5,1.2,1.2,2.3,2,3.3
		c0.4,0.5,0.9,1,1.4,1.4c0.3,0.2,0.5,0.4,0.8,0.6c0.2,0.1,0.3,0.2,0.4,0.3c0.1,0,0.1,0.1,0.1,0.1l-0.3,0.6c-0.2,0.3-0.3,0.6-0.4,0.9
		l-0.1,0.1v0.1c0,0,0,0.1-0.1,0.1c-0.1,0.1-0.1,0.1-0.1,0.2c-0.1,0.1-0.2,0.2-0.4,0.3c-0.3,0.2-0.5,0.3-0.8,0.4
		c-0.4,0.1-0.9,0.2-1.3,0.4c-0.4,0.3-0.7,0.7-0.9,1.2c-0.2,0.5-0.2,0.9-0.2,1.3c0,0.2,0,0.4,0.1,0.7c0,0.2,0.1,0.4,0.1,0.7v0.1
		l0.1,0.1c0.3,0.4,0.5,0.7,0.7,1.1c0.2,0.4,0.4,0.8,0.6,1.2c0.2,0.4,0.3,0.8,0.5,1.3c0.2,0.4,0.3,0.9,0.3,1.3l0.1,0.3l0.2,0.1
		l1.4,0.7h-0.1c0.4,0.3,0.9,0.5,1.4,0.6c0.5,0.1,1,0.2,1.5,0.1c0.5-0.1,1-0.1,1.4-0.3c0.3-0.1,0.5-0.2,0.7-0.3
		c0.1-0.1,0.2-0.1,0.4-0.2c0.1,0.1,0.2,0.2,0.2,0.2c0.2,0.2,0.4,0.3,0.6,0.4c0.1,0.1,0.3,0.1,0.4,0.2c0.1,0,0.2,0,0.3,0
		s0.2,0,0.2-0.1c0.3-0.1,0.5-0.2,0.7-0.2c0.8-0.4,1.4-0.7,2.1-1.1c0.1,0,0.1-0.1,0.2-0.1c0.1-0.1,0.1-0.1,0.2-0.1
		c0.1-0.1,0.2-0.2,0.3-0.3c0.2-0.2,0.3-0.3,0.4-0.5c0.3-0.3,0.5-0.7,0.7-1c0.5-0.7,0.9-1.3,1.3-2c1.1-2.3,1.9-4.7,2.4-7.2
		c0.9-2.7,1-5.3,0.7-7.8C337.1,80.9,336.4,78.4,335.2,76.1z M294.1,7.7C294.1,7.6,294.1,7.6,294.1,7.7c0,0.1,0,0.3-0.1,0.5
		C294.1,8,294.1,7.8,294.1,7.7z M276.8,119c-0.5,0.2-1,0.4-1.5,0.4c-0.1,0-0.1,0-0.2,0l-0.1,0c0,0,0,0,0,0c0.1,0,0.1,0,0.2,0
		c0.7-0.1,1.4-0.3,2.1-0.6c0.1-0.1,0.3-0.1,0.4-0.2C277.3,118.8,277.1,118.9,276.8,119z M279.8,116.6
		C279.8,116.6,279.8,116.6,279.8,116.6c0-0.1,0.1-0.1,0.1-0.2C279.9,116.5,279.9,116.6,279.8,116.6z M292.5,6.2
		C292.5,6.2,292.5,6.2,292.5,6.2c0.1,0,0.8-0.2,1.3,0.3c-0.1,0-0.1,0-0.2,0c-0.3-0.2-0.6-0.3-1-0.3C292.6,6.2,292.5,6.2,292.5,6.2z
		 M293.8,8.6L293.8,8.6C293.7,8.6,293.7,8.6,293.8,8.6C293.7,8.6,293.8,8.6,293.8,8.6z M293.3,8.9c0.1-0.1,0.3-0.1,0.4-0.2
		C293.5,8.9,293.4,8.9,293.3,8.9c0.4,1.2,0.7,3,0.9,4.8C293.8,11.1,293.5,9.6,293.3,8.9z"/>
</g>
<rect x="127.1" y="157" class="st1" width="18.1" height="18.1"/>
<rect x="149.6" y="157" class="st2" width="18.1" height="18.1"/>
<rect x="172.2" y="157" class="st3" width="18.1" height="18.1"/>
<rect x="194.7" y="157" class="st4" width="18.1" height="18.1"/>
<g>
	<rect x="3" y="157" class="st3" width="18.1" height="18.1"/>
	<rect x="25.5" y="157" class="st4" width="18.1" height="18.1"/>
	<rect x="48" y="157" class="st2" width="18.1" height="18.1"/>
	<rect x="70.6" y="157" class="st1" width="18.1" height="18.1"/>
</g>
<rect x="251.3" y="157" class="st4" width="18.1" height="18.1"/>
<rect x="273.8" y="157" class="st1" width="18.1" height="18.1"/>
<rect x="296.4" y="157" class="st2" width="18.1" height="18.1"/>
<rect x="318.9" y="157" class="st3" width="18.1" height="18.1"/>
</svg>
