<?xml version="1.0" encoding="utf-8"?>
<!-- Generator: Adobe Illustrator 23.1.1, SVG Export Plug-In . SVG Version: 6.00 Build 0)  -->
<svg version="1.1" id="Capa_1" xmlns="http://www.w3.org/2000/svg" xmlns:xlink="http://www.w3.org/1999/xlink" x="0px" y="0px"
	 viewBox="0 0 600 100" style="enable-background:new 0 0 600 100;" xml:space="preserve">
<style type="text/css">
	.st0{enable-background:new    ;}
	.st1{fill:#171829;}
</style>
<g>
	<g class="st0">
		<path class="st1" d="M68.5,49.7l5-8.6H80L72,54l8.3,13.3h-6.5l-5.2-9l-5.2,9h-6.5L65.1,54l-8-12.9h6.5L68.5,49.7z"/>
		<path class="st1" d="M110,47.9h9.2v5.4H110v10.5h-5.7V53.2H95v-5.4h9.3v-9.8h5.7V47.9z"/>
		<path class="st1" d="M159.2,52.1c0,5.1-1,9-3,11.7c-2,2.7-4.8,4-8.5,4c-3.6,0-6.4-1.3-8.4-3.9c-2-2.6-3.1-6.3-3.1-11.2V47
			c0-5,1-8.8,3-11.5c2-2.7,4.8-4,8.5-4c3.6,0,6.5,1.3,8.5,3.8c2,2.6,3,6.3,3.1,11.1V52.1z M142,47.3h11.3v-1.2
			c0-3.3-0.5-5.8-1.5-7.4c-1-1.6-2.4-2.5-4.2-2.5c-1.8,0-3.2,0.8-4.2,2.5c-1,1.6-1.5,4.1-1.5,7.4V47.3z M153.4,51.9H142v1
			c0,3.4,0.5,5.9,1.5,7.6s2.4,2.5,4.2,2.5c1.8,0,3.2-0.8,4.2-2.4c1-1.6,1.5-4.1,1.5-7.3V51.9z"/>
		<path class="st1" d="M198.8,48.4h-20.9v-4.9h20.9V48.4z M198.8,58.7h-20.9v-4.9h20.9V58.7z"/>
		<path class="st1" d="M217.6,52.9c0-3.7,0.5-7.3,1.5-10.6c1-3.4,2.5-6.3,4.4-9c1.9-2.6,4-4.5,6.2-5.6l1.2,3.4
			c-2.3,1.7-4.1,4.4-5.5,7.9s-2.2,7.6-2.3,12.2l0,2.1c0,4.9,0.7,9.3,2.1,13.1c1.4,3.8,3.3,6.8,5.8,8.8l-1.2,3.3
			c-2.2-1.1-4.2-2.9-6.2-5.6c-1.9-2.7-3.4-5.7-4.4-9S217.6,56.9,217.6,52.9z"/>
		<path class="st1" d="M246.9,32h5.9l13.9,35.3h-34.3L246.9,32z M240.7,62.4h17.8l-8.7-23.1L240.7,62.4z"/>
		<path class="st1" d="M296.4,47.9h9.2v5.4h-9.2v10.5h-5.7V53.2h-9.3v-5.4h9.3v-9.8h5.7V47.9z"/>
		<path class="st1" d="M334.7,31.5c3.3,0,6,0.9,7.9,2.6c2,1.7,2.9,4.1,2.9,6.9c0,1.5-0.4,2.9-1.2,4.2c-0.8,1.3-1.9,2.3-3.3,3
			c2,0.7,3.5,1.8,4.5,3.4c1,1.5,1.6,3.3,1.6,5.4c0,3.3-1,5.9-2.9,7.8c-2,1.9-4.6,2.9-8,2.9c-2.7,0-5-0.7-7-2v11h-5.9V41.7
			c0-1.9,0.5-3.6,1.5-5.1c1-1.6,2.4-2.8,4.1-3.7S332.7,31.5,334.7,31.5z M339.7,41.3c0-1.5-0.5-2.7-1.4-3.6c-0.9-1-2.1-1.4-3.6-1.4
			c-1.6,0-2.8,0.5-3.9,1.5c-1,1-1.6,2.4-1.6,4v19.3c1.4,1.3,3.4,2,5.9,2c1.8,0,3.3-0.6,4.4-1.7c1.1-1.1,1.7-2.5,1.7-4.3
			c0-1.8-0.5-3.2-1.5-4.4c-1-1.2-2.3-1.8-4-1.8h-3v-4.5h1.7C338,46.4,339.7,44.7,339.7,41.3z"/>
		<path class="st1" d="M363.7,53.3c0,3.6-0.5,7-1.5,10.4c-1,3.3-2.5,6.4-4.5,9.1c-2,2.7-4.1,4.6-6.3,5.7l-1.2-3.3
			c2.4-1.9,4.3-4.7,5.8-8.6c1.4-3.9,2.1-8.2,2.1-13.2v-0.6c0-4.5-0.6-8.6-1.8-12.3c-1.2-3.7-3-6.6-5.3-8.9l-0.8-0.7l1.2-3.3
			c2.1,1,4.1,2.8,6,5.3c1.9,2.6,3.4,5.4,4.5,8.6c1,3.2,1.6,6.4,1.7,9.8L363.7,53.3z"/>
		<path class="st1" d="M393.6,54.7h-12.7v-4.7h12.7V54.7z"/>
		<path class="st1" d="M410.9,52.9c0-3.7,0.5-7.3,1.5-10.6s2.5-6.3,4.4-9c1.9-2.6,4-4.5,6.2-5.6l1.2,3.4c-2.3,1.7-4.1,4.4-5.5,7.9
			s-2.2,7.6-2.3,12.2l0,2.1c0,4.9,0.7,9.3,2.1,13.1s3.3,6.8,5.8,8.8l-1.2,3.3c-2.2-1.1-4.2-2.9-6.2-5.6c-1.9-2.7-3.4-5.7-4.4-9
			S410.9,56.9,410.9,52.9z"/>
		<path class="st1" d="M437.9,59.6l5.7-18.6h6.1l-8.9,25.2v11.1h-5.9V66.1l-8.9-25.1h6.1L437.9,59.6z"/>
		<path class="st1" d="M477.1,54.7h-12.7v-4.7h12.7V54.7z"/>
		<path class="st1" d="M523.1,50.6c0,3.5-0.6,6.5-1.8,9.1c-1.2,2.6-2.9,4.6-5.1,6c-2.2,1.4-4.8,2.1-7.7,2.1c-2.6,0-5-0.6-7.2-1.8
			l-2.2,3.6H495l3.5-5.8c-3.1-3.1-4.7-7.6-4.7-13.4v-1.6c0-3.4,0.6-6.5,1.8-9.1c1.2-2.6,2.9-4.6,5.2-6c2.2-1.4,4.8-2.1,7.7-2.1
			c3.2,0,5.9,0.8,8.2,2.4l2.1-3.5h4l-3.6,5.9c2.5,3.1,3.8,7.2,3.8,12.4V50.6z M499.9,50.6c0,3.3,0.6,6,1.7,8.1l12.2-20
			c-1.4-1.4-3.2-2.1-5.4-2.1c-2.6,0-4.7,1-6.2,3.1s-2.3,5-2.3,8.8V50.6z M517,48.7c0-2.7-0.4-4.9-1.1-6.8L504,61.4
			c1.3,0.9,2.7,1.3,4.4,1.3c2.7,0,4.8-1,6.3-3.1c1.5-2.1,2.2-5.1,2.2-9.1V48.7z"/>
		<path class="st1" d="M539.8,53.3c0,3.6-0.5,7-1.5,10.4c-1,3.3-2.5,6.4-4.5,9.1c-2,2.7-4.1,4.6-6.3,5.7l-1.2-3.3
			c2.4-1.9,4.3-4.7,5.8-8.6c1.4-3.9,2.1-8.2,2.1-13.2v-0.6c0-4.5-0.6-8.6-1.8-12.3c-1.2-3.7-3-6.6-5.3-8.9l-0.8-0.7l1.2-3.3
			c2.1,1,4.1,2.8,6,5.3c1.9,2.6,3.4,5.4,4.5,8.6c1,3.2,1.6,6.4,1.7,9.8L539.8,53.3z"/>
	</g>
</g>
</svg>
