<?xml version="1.0" encoding="utf-8"?>
<!-- Generator: Adobe Illustrator 23.1.1, SVG Export Plug-In . SVG Version: 6.00 Build 0)  -->
<svg version="1.1" id="Capa_1" xmlns="http://www.w3.org/2000/svg" xmlns:xlink="http://www.w3.org/1999/xlink" x="0px" y="0px"
	 viewBox="0 0 380 220" style="enable-background:new 0 0 380 220;" xml:space="preserve">
<g>
	<g>
		<path d="M170.8,24.5c-1.1,0-2-0.9-2-2s0.9-2,2-2s2,0.9,2,2S171.9,24.5,170.8,24.5z"/>
		<rect x="175.4" y="20.5" width="7" height="4"/>
	</g>
</g>
<g>
	<g>
		<path d="M53.8,63.3c-1.1,0-2-0.9-2-2c0-1.1,0.9-2,2-2s2,0.9,2,2C55.8,62.4,54.9,63.3,53.8,63.3z"/>
		<rect x="58.4" y="59.3" width="7" height="4"/>
	</g>
</g>
<g>
	<g>
		<path d="M3.8,139.4c-1.1,0-2-0.9-2-2c0-1.1,0.9-2,2-2s2,0.9,2,2C5.8,138.5,4.9,139.4,3.8,139.4z"/>
		<rect x="8.4" y="135.4" width="7" height="4"/>
	</g>
</g>
<g>
	<g>
		<path d="M156,139.4c-1.1,0-2-0.9-2-2c0-1.1,0.9-2,2-2s2,0.9,2,2C158,138.5,157.1,139.4,156,139.4z"/>
		<rect x="160.6" y="135.4" width="7" height="4"/>
	</g>
</g>
<g>
	<g>
		<path d="M80.7,139.4c-1.1,0-2-0.9-2-2c0-1.1,0.9-2,2-2s2,0.9,2,2C82.7,138.5,81.8,139.4,80.7,139.4z"/>
		<rect x="85.2" y="135.4" width="7" height="4"/>
	</g>
</g>
<g>
	<g>
		<path d="M224.8,63.3c-1.1,0-2-0.9-2-2c0-1.1,0.9-2,2-2s2,0.9,2,2C226.8,62.4,225.9,63.3,224.8,63.3z"/>
		<rect x="229.4" y="59.3" width="7" height="4"/>
	</g>
</g>
<g>
	<g>
		<path d="M299.5,179.1c-1.1,0-2-0.9-2-2s0.9-2,2-2c1.1,0,2,0.9,2,2C301.5,178.2,300.6,179.1,299.5,179.1z"/>
		<rect x="304.1" y="175.1" width="7" height="4"/>
	</g>
</g>
<g>
	<g>
		<path d="M325.6,175.1c1.1,0,2,0.9,2,2s-0.9,2-2,2s-2-0.9-2-2C323.6,176.1,324.5,175.1,325.6,175.1z"/>
		<rect x="314" y="175.1" width="7" height="4"/>
	</g>
</g>
<g>
	<g>
		<path d="M133.5,217.3c-1.1,0-2-0.9-2-2s0.9-2,2-2s2,0.9,2,2C135.5,216.4,134.6,217.3,133.5,217.3z"/>
		<rect x="138.1" y="213.3" width="7" height="4"/>
	</g>
</g>
<g>
	<g>
		<path d="M13.2,213.3c1.1,0,2,0.9,2,2s-0.9,2-2,2s-2-0.9-2-2C11.2,214.2,12.1,213.3,13.2,213.3z"/>
		<path d="M20.4,213.3c1.1,0,2,0.9,2,2s-0.9,2-2,2s-2-0.9-2-2C18.4,214.2,19.3,213.3,20.4,213.3z"/>
		<rect x="1.6" y="213.3" width="7" height="4"/>
	</g>
</g>
<g>
	<g>
		<path d="M307.3,217.3c-1.1,0-2-0.9-2-2s0.9-2,2-2c1.1,0,2,0.9,2,2C309.3,216.4,308.5,217.3,307.3,217.3z"/>
		<rect x="312" y="213.3" width="7" height="4"/>
	</g>
</g>
<g>
	<g>
		<path d="M370.8,178.8c-1.1,0-2-0.9-2-2s0.9-2,2-2s2,0.9,2,2S372,178.8,370.8,178.8z"/>
		<path d="M364.4,178.8c-1.1,0-2-0.9-2-2s0.9-2,2-2s2,0.9,2,2C366.5,177.9,365.6,178.8,364.4,178.8z"/>
		<path d="M376.7,178.8c-1.1,0-2-0.9-2-2s0.9-2,2-2s2,0.9,2,2S377.9,178.8,376.7,178.8z"/>
	</g>
</g>
<g>
	<g>
		<path d="M277.5,179c-1.1,0-2-0.9-2-2s0.9-2,2-2s2,0.9,2,2S278.8,179,277.5,179z"/>
		<path d="M271.1,179c-1.1,0-2-0.9-2-2s0.9-2,2-2s2,0.9,2,2C273.2,178.1,272.3,179,271.1,179z"/>
		<path d="M283.4,179c-1.1,0-2-0.9-2-2s0.9-2,2-2s2,0.9,2,2S284.6,179,283.4,179z"/>
	</g>
</g>
<g>
	<path d="M15.8,63.3c-1.1,0-2-0.9-2-2c0-1.1,0.9-2,2-2s2,0.9,2,2C17.8,62.4,16.9,63.3,15.8,63.3z"/>
	<rect x="3.9" y="59.3" width="7" height="4"/>
	<path d="M32,63.3c-1.1,0-2-0.9-2-2c0-1.1,0.9-2,2-2c1.1,0,2,0.9,2,2C34,62.4,33.1,63.3,32,63.3z"/>
	<rect x="20.1" y="59.3" width="7" height="4"/>
</g>
<g>
	<path d="M232.2,101.9c-1.1,0-2-0.9-2-2s0.9-2,2-2s2,0.9,2,2S233.4,101.9,232.2,101.9z"/>
	<rect x="220.3" y="97.9" width="7" height="4"/>
	<path d="M248.4,101.9c-1.1,0-2-0.9-2-2s0.9-2,2-2s2,0.9,2,2S249.5,101.9,248.4,101.9z"/>
	<rect x="236.5" y="97.9" width="7" height="4"/>
</g>
<g>
	<path d="M200.5,217.3c-1.1,0-2-0.9-2-2s0.9-2,2-2s2,0.9,2,2C202.5,216.4,201.7,217.3,200.5,217.3z"/>
	<rect x="188.6" y="213.3" width="7" height="4"/>
	<path d="M216.7,217.3c-1.1,0-2-0.9-2-2s0.9-2,2-2s2,0.9,2,2C218.7,216.4,217.8,217.3,216.7,217.3z"/>
	<rect x="204.8" y="213.3" width="7" height="4"/>
</g>
<g>
	<g>
		<rect x="350.3" y="97.1" width="6.9" height="4"/>
		<rect x="340.9" y="97.1" width="6.9" height="4"/>
		<rect x="359.8" y="97.1" width="6.9" height="4"/>
	</g>
</g>
<g>
	<g>
		<rect x="240.4" y="212.6" width="6.9" height="4"/>
		<rect x="230.9" y="212.6" width="6.9" height="4"/>
		<rect x="249.9" y="212.6" width="6.9" height="4"/>
	</g>
</g>
<g>
	<g>
		<rect x="291.4" y="59.3" width="6.9" height="4"/>
	</g>
</g>
<g>
	<g>
		<rect x="272.6" y="97.6" width="6.9" height="4"/>
	</g>
</g>
<g>
	<g>
		<path d="M146.6,97.5c1.1,0,2,0.9,2,2s-0.9,2-2,2c-1.1,0-2-0.9-2-2S145.5,97.5,146.6,97.5z"/>
		<rect x="151.4" y="97.5" width="7" height="4"/>
		<path d="M163.4,97.5c1.1,0,2,0.9,2,2s-0.9,2-2,2c-1.1,0-2-0.9-2-2S162.3,97.5,163.4,97.5z"/>
		<path d="M170,97.5c1.1,0,2,0.9,2,2s-0.9,2-2,2c-1.1,0-2-0.9-2-2S168.8,97.5,170,97.5z"/>
	</g>
</g>
<g>
	<g>
		<path d="M88.2,213c1.1,0,2,0.9,2,2s-0.9,2-2,2s-2-0.9-2-2S87.1,213,88.2,213z"/>
		<rect x="93.2" y="212.9" width="7" height="4"/>
		<path d="M105.1,213c1.1,0,2,0.9,2,2s-0.9,2-2,2s-2-0.9-2-2S103.9,213,105.1,213z"/>
		<path d="M111.6,213c1.1,0,2,0.9,2,2s-0.9,2-2,2s-2-0.9-2-2S110.5,213,111.6,213z"/>
	</g>
</g>
<g>
	<g>
		<path d="M250,135.8c1.1,0,2,0.9,2,2s-0.9,2-2,2s-2-0.9-2-2S248.8,135.8,250,135.8z"/>
		<rect x="254.8" y="135.8" width="7" height="4"/>
		<path d="M266.8,135.8c1.1,0,2,0.9,2,2s-0.9,2-2,2s-2-0.9-2-2S265.6,135.8,266.8,135.8z"/>
		<path d="M273.4,135.8c1.1,0,2,0.9,2,2s-0.9,2-2,2s-2-0.9-2-2S272.2,135.8,273.4,135.8z"/>
	</g>
</g>
<g>
	<g>
		<path d="M135.8,139.8c-1.1,0-2-0.9-2-2s0.9-2,2-2s2,0.9,2,2S137,139.8,135.8,139.8z"/>
		<rect x="124" y="135.8" width="7" height="4"/>
		<path d="M119,139.8c-1.1,0-2-0.9-2-2s0.9-2,2-2s2,0.9,2,2S120.2,139.8,119,139.8z"/>
		<path d="M112.4,139.8c-1.1,0-2-0.9-2-2s0.9-2,2-2s2,0.9,2,2S113.6,139.8,112.4,139.8z"/>
	</g>
</g>
<g>
	<g>
		<rect x="61.1" y="20.2" width="7" height="4"/>
		<path d="M56.2,24.2c-1.1,0-2-0.9-2-2s0.9-2,2-2s2,0.9,2,2C58.2,23.3,57.3,24.2,56.2,24.2z"/>
		<path d="M49.6,24.2c-1.1,0-2-0.9-2-2s0.9-2,2-2s2,0.9,2,2C51.6,23.3,50.8,24.2,49.6,24.2z"/>
	</g>
</g>
<g>
	<g>
		<rect x="14.9" y="98.1" width="7" height="4"/>
		<path d="M10,102.1c-1.1,0-2-0.9-2-2s0.9-2,2-2s2,0.9,2,2C12,101.2,11.1,102.1,10,102.1z"/>
		<path d="M3.4,102.1c-1.1,0-2-0.9-2-2s0.9-2,2-2s2,0.9,2,2C5.4,101.2,4.5,102.1,3.4,102.1z"/>
	</g>
</g>
<g>
	<g>
		<rect x="46.1" y="174.5" width="7" height="4"/>
		<path d="M41.2,178.5c-1.1,0-2-0.9-2-2s0.9-2,2-2s2,0.9,2,2S42.3,178.5,41.2,178.5z"/>
		<path d="M34.6,178.5c-1.1,0-2-0.9-2-2s0.9-2,2-2s2,0.9,2,2S35.8,178.5,34.6,178.5z"/>
	</g>
</g>
<g>
	<g>
		<path d="M163.9,58.5c1.1,0,2,0.9,2,2c0,1.1-0.9,2-2,2s-2-0.9-2-2C161.9,59.4,162.8,58.5,163.9,58.5z"/>
	</g>
</g>
<g>
	<g>
		<path d="M90.3,58.5c1.1,0,2,0.9,2,2c0,1.1-0.9,2-2,2s-2-0.9-2-2C88.3,59.4,89.2,58.5,90.3,58.5z"/>
		<rect x="95.2" y="58.6" width="7" height="4"/>
		<path d="M107.1,58.5c1.1,0,2,0.9,2,2c0,1.1-0.9,2-2,2s-2-0.9-2-2C105.1,59.4,106,58.5,107.1,58.5z"/>
	</g>
</g>
<g>
	<g>
		<path d="M125.5,58.5c1.1,0,2,0.9,2,2c0,1.1-0.9,2-2,2s-2-0.9-2-2C123.5,59.4,124.4,58.5,125.5,58.5z"/>
		<rect x="130.4" y="58.6" width="7" height="4"/>
		<path d="M142.3,58.5c1.1,0,2,0.9,2,2c0,1.1-0.9,2-2,2s-2-0.9-2-2C140.3,59.4,141.2,58.5,142.3,58.5z"/>
	</g>
</g>
<g>
	<g>
		<path d="M306.5,97.1c1.1,0,2,0.9,2,2s-0.9,2-2,2s-2-0.9-2-2S305.3,97.1,306.5,97.1z"/>
		<rect x="311.3" y="97.2" width="7" height="4"/>
		<path d="M323.3,97.1c1.1,0,2,0.9,2,2s-0.9,2-2,2s-2-0.9-2-2S322.2,97.1,323.3,97.1z"/>
	</g>
</g>
<g>
	<g>
		<path d="M242.2,174.5c1.1,0,2,0.9,2,2s-0.9,2-2,2s-2-0.9-2-2S241,174.5,242.2,174.5z"/>
		<rect x="223.1" y="174.6" width="7" height="4"/>
		<path d="M235.1,174.5c1.1,0,2,0.9,2,2s-0.9,2-2,2s-2-0.9-2-2S233.9,174.5,235.1,174.5z"/>
	</g>
</g>
<g>
	<g>
		<rect x="168.2" y="174.5" width="6.9" height="4"/>
		<rect x="158.7" y="174.5" width="6.9" height="4"/>
		<rect x="177.7" y="174.5" width="6.9" height="4"/>
	</g>
</g>
<g>
	<g>
		<path d="M125.4,174.5c1.1,0,2,0.9,2,2s-0.9,2-2,2s-2-0.9-2-2S124.2,174.5,125.4,174.5z"/>
		<rect x="130.2" y="174.6" width="7" height="4"/>
		<path d="M142.2,174.5c1.1,0,2,0.9,2,2s-0.9,2-2,2s-2-0.9-2-2S141,174.5,142.2,174.5z"/>
	</g>
</g>
<g>
	<g>
		<path d="M204,63c-1.1,0-2-0.9-2-2c0-1.1,0.9-2,2-2s2,0.9,2,2S205.1,63,204,63z"/>
		<rect x="192.1" y="59" width="7" height="4"/>
		<rect x="182.1" y="59" width="7" height="4"/>
	</g>
</g>
<g>
	<g>
		<path d="M56.3,139.9c-1.1,0-2-0.9-2-2s0.9-2,2-2s2,0.9,2,2S57.5,139.9,56.3,139.9z"/>
		<rect x="44.4" y="135.9" width="7" height="4"/>
		<rect x="34.5" y="135.9" width="7" height="4"/>
	</g>
</g>
<g>
	<g>
		<path d="M22.8,23.8c-1.1,0-2-0.9-2-2s0.9-2,2-2s2,0.9,2,2C24.8,22.8,23.9,23.8,22.8,23.8z"/>
		<rect x="12.4" y="19.7" width="6.6" height="4"/>
		<rect x="26" y="19.7" width="6.6" height="4"/>
		<rect x="3.9" y="19.7" width="6.6" height="4"/>
	</g>
</g>
<g>
	<g>
		<rect x="80.3" y="174.4" width="7" height="4"/>
		<rect x="70.4" y="174.4" width="7" height="4"/>
	</g>
</g>
<g>
	<g>
		<rect x="284" y="213" width="7" height="4"/>
		<rect x="274" y="213" width="7" height="4"/>
	</g>
</g>
<g>
	<g>
		<path d="M14.1,178c-1.1,0-2-0.9-2-2s0.9-2,2-2s2,0.9,2,2S15.3,178,14.1,178z"/>
		<rect x="2.2" y="174" width="7" height="4"/>
	</g>
</g>
<g>
	<g>
		<path d="M55.9,101.6c-1.1,0-2-0.9-2-2s0.9-2,2-2s2,0.9,2,2C57.9,100.8,57.1,101.6,55.9,101.6z"/>
		<rect x="44" y="97.6" width="7" height="4"/>
	</g>
</g>
<g>
	<g>
		<path d="M140.2,24.2c-1.1,0-2-0.9-2-2s0.9-2,2-2s2,0.9,2,2C142.2,23.3,141.4,24.2,140.2,24.2z"/>
		<rect x="128.4" y="20.2" width="7" height="4"/>
	</g>
</g>
<g>
	<path d="M119,101.6c-1.1,0-2-0.9-2-2s0.9-2,2-2s2,0.9,2,2S120.1,101.6,119,101.6z"/>
</g>
<g>
	<path d="M198.1,101.6c-1.1,0-2-0.9-2-2s0.9-2,2-2c1.1,0,2,0.9,2,2S199.3,101.6,198.1,101.6z"/>
</g>
<g>
	<path d="M105.5,179c-1.1,0-2-0.9-2-2s0.9-2,2-2s2,0.9,2,2S106.6,179,105.5,179z"/>
</g>
<g>
	<path d="M40.4,217.3c-1.1,0-2-0.9-2-2s0.9-2,2-2s2,0.9,2,2S41.5,217.3,40.4,217.3z"/>
</g>
<g>
	<path d="M343.4,178.8c-1.1,0-2-0.9-2-2s0.9-2,2-2s2,0.9,2,2S344.5,178.8,343.4,178.8z"/>
</g>
<g>
	<path d="M257.3,179c-1.1,0-2-0.9-2-2s0.9-2,2-2s2,0.9,2,2S258.4,179,257.3,179z"/>
</g>
<g>
	<path d="M323.3,63.3c-1.1,0-2-0.9-2-2s0.9-2,2-2s2,0.9,2,2C325.3,62.4,324.5,63.3,323.3,63.3z"/>
</g>
<g>
	<path d="M225.4,140.3c-1.1,0-2-0.9-2-2s0.9-2,2-2s2,0.9,2,2C227.4,139.4,226.6,140.3,225.4,140.3z"/>
</g>
<g>
	<path d="M333.3,142.5h-2.8v-11l-3.4,1.1v-2.3l5.9-2.1h0.3V142.5z"/>
	<path d="M343,142.7c-1.6,0-2.8-0.5-3.8-1.4c-1-1-1.5-2.2-1.5-3.8v-0.3c0-1.1,0.2-2,0.6-2.9c0.4-0.8,1-1.5,1.8-1.9
		c0.8-0.5,1.6-0.7,2.6-0.7c1.5,0,2.6,0.5,3.4,1.4s1.3,2.2,1.3,3.9v1.2h-6.8c0.1,0.7,0.4,1.3,0.8,1.7c0.5,0.4,1,0.6,1.8,0.6
		c1.1,0,2-0.4,2.6-1.2l1.4,1.6c-0.4,0.6-1,1.1-1.7,1.4C344.7,142.5,343.9,142.7,343,142.7z M342.7,134c-0.6,0-1,0.2-1.4,0.6
		c-0.4,0.4-0.6,0.9-0.7,1.6h4V136c0-0.6-0.2-1.1-0.5-1.5C343.8,134.1,343.3,134,342.7,134z"/>
	<path d="M355,134.5c-0.4-0.1-0.7-0.1-1-0.1c-1.1,0-1.8,0.4-2.1,1.1v7H349v-10.6h2.7l0.1,1.3c0.6-1,1.4-1.5,2.4-1.5
		c0.3,0,0.6,0,0.9,0.1L355,134.5z"/>
</g>
<g id="aqkymb_1_">
</g>
<g>
	<path d="M95.4,24.2c-1.1,0-2-0.9-2-2s0.9-2,2-2c1.1,0,2,0.9,2,2S96.6,24.2,95.4,24.2z"/>
	<path d="M101.4,24.2c-1.1,0-2-0.9-2-2s0.9-2,2-2c1.1,0,2,0.9,2,2S102.4,24.2,101.4,24.2z"/>
</g>
</svg>
