<?xml version="1.0" encoding="utf-8"?>
<!-- Generator: Adobe Illustrator 23.1.1, SVG Export Plug-In . SVG Version: 6.00 Build 0)  -->
<svg version="1.1" id="Capa_1" xmlns="http://www.w3.org/2000/svg" xmlns:xlink="http://www.w3.org/1999/xlink" x="0px" y="0px"
	 viewBox="0 0 340 250" style="enable-background:new 0 0 340 250;" xml:space="preserve">
<style type="text/css">
	.st0{fill:#FFDF00;}
	.st1{fill:#DF172F;}
	.st2{fill:#FFFFFF;}
	.st3{fill:#0F5AD2;}
	.st4{fill:#171829;}
</style>
<g>
	<g>
		<rect x="173" y="88.5" class="st0" width="29.5" height="29.5"/>
		<polygon class="st1" points="202.5,118 173,88.5 202.5,88.5 		"/>
	</g>
</g>
<g>
	<g>
		<rect x="240.1" y="45" class="st0" width="29.5" height="29.5"/>
		<polygon class="st1" points="269.6,74.5 240.1,45 269.6,45 		"/>
	</g>
</g>
<g>
	<g>
		<rect x="205.2" y="1.5" class="st0" width="29.5" height="29.5"/>
		<polygon class="st1" points="234.8,31 205.2,1.5 234.8,1.5 		"/>
	</g>
</g>
<g>
	<rect x="70.7" y="218.9" class="st2" width="14.8" height="29.5"/>
	<polygon class="st3" points="100.2,248.4 85.4,248.4 85.4,218.9 100.2,218.9 89.3,233.6 	"/>
</g>
<g>
	<rect x="35.9" y="132" class="st2" width="14.8" height="29.5"/>
	<polygon class="st3" points="65.4,161.5 50.6,161.5 50.6,132 65.4,132 54.5,146.7 	"/>
</g>
<g>
	<rect x="240.5" y="155.5" class="st3" width="29.5" height="5.8"/>
	<rect x="240.4" y="149.7" class="st2" width="29.5" height="5.8"/>
	<rect x="240.5" y="143.8" class="st1" width="29.5" height="5.8"/>
	<rect x="240.4" y="138" class="st2" width="29.5" height="5.8"/>
	<rect x="240.5" y="132.2" class="st3" width="29.5" height="5.8"/>
</g>
<g>
	<rect x="2.1" y="45.1" class="st0" width="29.5" height="9.8"/>
	<rect x="2.1" y="54.9" class="st3" width="29.5" height="9.8"/>
	<rect x="2.1" y="64.7" class="st0" width="29.5" height="9.8"/>
</g>
<g>
	<rect x="2.1" y="1.5" class="st3" width="29.5" height="14.8"/>
	<rect x="2.1" y="16.2" class="st1" width="29.5" height="14.8"/>
</g>
<g>
	<rect x="2.1" y="88.4" class="st3" width="29.5" height="14.8"/>
	<rect x="2.1" y="103.1" class="st1" width="29.5" height="14.8"/>
</g>
<g>
	<rect x="173" y="175.4" class="st3" width="29.5" height="14.8"/>
	<rect x="173" y="190.2" class="st1" width="29.5" height="14.8"/>
</g>
<g>
	<rect x="70.7" y="175.4" class="st3" width="29.5" height="14.8"/>
	<rect x="70.6" y="190.2" class="st1" width="29.5" height="14.8"/>
</g>
<g>
	<rect x="138.3" y="131.9" class="st3" width="29.5" height="14.8"/>
	<rect x="138.2" y="146.7" class="st1" width="29.5" height="14.8"/>
</g>
<g>
	<rect x="137.6" y="1.5" class="st3" width="29.5" height="14.8"/>
	<rect x="137.5" y="16.2" class="st1" width="29.5" height="14.8"/>
</g>
<g>
	<rect x="2.1" y="218.9" class="st0" width="29.5" height="29.5"/>
	<circle class="st4" cx="16.9" cy="233.7" r="8.6"/>
</g>
<g>
	<rect x="205.9" y="132" class="st0" width="29.5" height="29.5"/>
	<circle class="st4" cx="220.7" cy="146.8" r="8.6"/>
</g>
<g>
	<rect x="104.4" y="45" class="st0" width="29.5" height="29.5"/>
	<circle class="st4" cx="119.2" cy="59.8" r="8.6"/>
</g>
<g>
	<rect x="36" y="45" class="st0" width="29.5" height="29.5"/>
	<circle class="st4" cx="50.8" cy="59.8" r="8.6"/>
</g>
<g>
	<rect x="70.6" y="132" class="st0" width="4.9" height="29.5"/>
	<rect x="75.5" y="132" class="st3" width="4.9" height="29.5"/>
	<rect x="80.5" y="132" class="st0" width="4.9" height="29.5"/>
	<rect x="85.4" y="132" class="st3" width="4.9" height="29.5"/>
	<rect x="90.3" y="132" class="st0" width="4.9" height="29.5"/>
	<rect x="95.2" y="132" class="st3" width="4.9" height="29.5"/>
</g>
<g>
	<rect x="70.5" y="45" class="st0" width="4.9" height="29.5"/>
	<rect x="75.4" y="45" class="st3" width="4.9" height="29.5"/>
	<rect x="80.4" y="45" class="st0" width="4.9" height="29.5"/>
	<rect x="85.3" y="45" class="st3" width="4.9" height="29.5"/>
	<rect x="90.2" y="45" class="st0" width="4.9" height="29.5"/>
	<rect x="95.1" y="45" class="st3" width="4.9" height="29.5"/>
</g>
<g>
	<rect x="171.3" y="1.5" class="st0" width="4.9" height="29.5"/>
	<rect x="176.2" y="1.5" class="st3" width="4.9" height="29.5"/>
	<rect x="181.2" y="1.5" class="st0" width="4.9" height="29.5"/>
	<rect x="186.1" y="1.5" class="st3" width="4.9" height="29.5"/>
	<rect x="191" y="1.5" class="st0" width="4.9" height="29.5"/>
	<rect x="195.9" y="1.5" class="st3" width="4.9" height="29.5"/>
</g>
<g>
	<rect x="51.4" y="1.4" class="st4" width="14.8" height="14.8"/>
	<rect x="36.6" y="1.4" class="st0" width="14.8" height="14.8"/>
	<rect x="51.4" y="16.3" class="st0" width="14.8" height="14.8"/>
	<rect x="36.6" y="16.3" class="st4" width="14.8" height="14.8"/>
</g>
<g>
	<rect x="221.4" y="88.4" class="st4" width="14.8" height="14.8"/>
	<rect x="206.6" y="88.4" class="st0" width="14.8" height="14.8"/>
	<rect x="221.4" y="103.2" class="st0" width="14.8" height="14.8"/>
	<rect x="206.6" y="103.2" class="st4" width="14.8" height="14.8"/>
</g>
<g>
	<rect x="50.6" y="88.4" class="st4" width="14.8" height="14.8"/>
	<rect x="35.8" y="88.4" class="st0" width="14.8" height="14.8"/>
	<rect x="50.6" y="103.2" class="st0" width="14.8" height="14.8"/>
	<rect x="35.8" y="103.2" class="st4" width="14.8" height="14.8"/>
</g>
<g>
	<g>
		<rect x="282.3" y="175.3" class="st2" width="7.4" height="7.4"/>
		<rect x="274.8" y="175.3" class="st3" width="7.4" height="7.4"/>
		<rect x="282.3" y="182.7" class="st3" width="7.4" height="7.4"/>
		<rect x="274.8" y="182.7" class="st2" width="7.4" height="7.4"/>
	</g>
	<g>
		<rect x="297.1" y="175.3" class="st2" width="7.4" height="7.4"/>
		<rect x="289.7" y="175.3" class="st3" width="7.4" height="7.4"/>
		<rect x="297.1" y="182.7" class="st3" width="7.4" height="7.4"/>
		<rect x="289.7" y="182.7" class="st2" width="7.4" height="7.4"/>
	</g>
	<g>
		<rect x="282.3" y="190.1" class="st2" width="7.4" height="7.4"/>
		<rect x="274.8" y="190.1" class="st3" width="7.4" height="7.4"/>
		<rect x="282.3" y="197.5" class="st3" width="7.4" height="7.4"/>
		<rect x="274.8" y="197.5" class="st2" width="7.4" height="7.4"/>
	</g>
	<g>
		<rect x="297.1" y="190.1" class="st2" width="7.4" height="7.4"/>
		<rect x="289.7" y="190.1" class="st3" width="7.4" height="7.4"/>
		<rect x="297.1" y="197.5" class="st3" width="7.4" height="7.4"/>
		<rect x="289.7" y="197.5" class="st2" width="7.4" height="7.4"/>
	</g>
</g>
<g>
	<g>
		<rect x="112.2" y="218.8" class="st2" width="7.4" height="7.4"/>
		<rect x="104.6" y="218.8" class="st3" width="7.4" height="7.4"/>
		<rect x="112.2" y="226.2" class="st3" width="7.4" height="7.4"/>
		<rect x="104.6" y="226.2" class="st2" width="7.4" height="7.4"/>
	</g>
	<g>
		<rect x="127" y="218.8" class="st2" width="7.4" height="7.4"/>
		<rect x="119.6" y="218.8" class="st3" width="7.4" height="7.4"/>
		<rect x="127" y="226.2" class="st3" width="7.4" height="7.4"/>
		<rect x="119.6" y="226.2" class="st2" width="7.4" height="7.4"/>
	</g>
	<g>
		<rect x="112.2" y="233.6" class="st2" width="7.4" height="7.4"/>
		<rect x="104.6" y="233.6" class="st3" width="7.4" height="7.4"/>
		<rect x="112.2" y="241" class="st3" width="7.4" height="7.4"/>
		<rect x="104.6" y="241" class="st2" width="7.4" height="7.4"/>
	</g>
	<g>
		<rect x="127" y="233.6" class="st2" width="7.4" height="7.4"/>
		<rect x="119.6" y="233.6" class="st3" width="7.4" height="7.4"/>
		<rect x="127" y="241" class="st3" width="7.4" height="7.4"/>
		<rect x="119.6" y="241" class="st2" width="7.4" height="7.4"/>
	</g>
</g>
<g>
	<g>
		<rect x="111.9" y="131.9" class="st2" width="7.4" height="7.4"/>
		<rect x="104.3" y="131.9" class="st3" width="7.4" height="7.4"/>
		<rect x="111.9" y="139.3" class="st3" width="7.4" height="7.4"/>
		<rect x="104.3" y="139.3" class="st2" width="7.4" height="7.4"/>
	</g>
	<g>
		<rect x="126.7" y="131.9" class="st2" width="7.4" height="7.4"/>
		<rect x="119.3" y="131.9" class="st3" width="7.4" height="7.4"/>
		<rect x="126.7" y="139.3" class="st3" width="7.4" height="7.4"/>
		<rect x="119.3" y="139.3" class="st2" width="7.4" height="7.4"/>
	</g>
	<g>
		<rect x="111.9" y="146.7" class="st2" width="7.4" height="7.4"/>
		<rect x="104.3" y="146.7" class="st3" width="7.4" height="7.4"/>
		<rect x="111.9" y="154.1" class="st3" width="7.4" height="7.4"/>
		<rect x="104.3" y="154.1" class="st2" width="7.4" height="7.4"/>
	</g>
	<g>
		<rect x="126.7" y="146.7" class="st2" width="7.4" height="7.4"/>
		<rect x="119.3" y="146.7" class="st3" width="7.4" height="7.4"/>
		<rect x="126.7" y="154.1" class="st3" width="7.4" height="7.4"/>
		<rect x="119.3" y="154.1" class="st2" width="7.4" height="7.4"/>
	</g>
</g>
<g>
	<g>
		<rect x="281.7" y="44.9" class="st2" width="7.4" height="7.4"/>
		<rect x="274.2" y="44.9" class="st3" width="7.4" height="7.4"/>
		<rect x="281.7" y="52.3" class="st3" width="7.4" height="7.4"/>
		<rect x="274.2" y="52.3" class="st2" width="7.4" height="7.4"/>
	</g>
	<g>
		<rect x="296.5" y="44.9" class="st2" width="7.4" height="7.4"/>
		<rect x="289.1" y="44.9" class="st3" width="7.4" height="7.4"/>
		<rect x="296.5" y="52.3" class="st3" width="7.4" height="7.4"/>
		<rect x="289.1" y="52.3" class="st2" width="7.4" height="7.4"/>
	</g>
	<g>
		<rect x="281.7" y="59.8" class="st2" width="7.4" height="7.4"/>
		<rect x="274.2" y="59.8" class="st3" width="7.4" height="7.4"/>
		<rect x="281.7" y="67.2" class="st3" width="7.4" height="7.4"/>
		<rect x="274.2" y="67.2" class="st2" width="7.4" height="7.4"/>
	</g>
	<g>
		<rect x="296.5" y="59.8" class="st2" width="7.4" height="7.4"/>
		<rect x="289.1" y="59.8" class="st3" width="7.4" height="7.4"/>
		<rect x="296.5" y="67.2" class="st3" width="7.4" height="7.4"/>
		<rect x="289.1" y="67.2" class="st2" width="7.4" height="7.4"/>
	</g>
</g>
<g>
	<g>
		<rect x="247.2" y="1.4" class="st2" width="7.4" height="7.4"/>
		<rect x="239.7" y="1.4" class="st3" width="7.4" height="7.4"/>
		<rect x="247.2" y="8.8" class="st3" width="7.4" height="7.4"/>
		<rect x="239.7" y="8.8" class="st2" width="7.4" height="7.4"/>
	</g>
	<g>
		<rect x="262" y="1.4" class="st2" width="7.4" height="7.4"/>
		<rect x="254.6" y="1.4" class="st3" width="7.4" height="7.4"/>
		<rect x="262" y="8.8" class="st3" width="7.4" height="7.4"/>
		<rect x="254.6" y="8.8" class="st2" width="7.4" height="7.4"/>
	</g>
	<g>
		<rect x="247.2" y="16.3" class="st2" width="7.4" height="7.4"/>
		<rect x="239.7" y="16.3" class="st3" width="7.4" height="7.4"/>
		<rect x="247.2" y="23.7" class="st3" width="7.4" height="7.4"/>
		<rect x="239.7" y="23.7" class="st2" width="7.4" height="7.4"/>
	</g>
	<g>
		<rect x="262" y="16.3" class="st2" width="7.4" height="7.4"/>
		<rect x="254.6" y="16.3" class="st3" width="7.4" height="7.4"/>
		<rect x="262" y="23.7" class="st3" width="7.4" height="7.4"/>
		<rect x="254.6" y="23.7" class="st2" width="7.4" height="7.4"/>
	</g>
</g>
<g>
	<rect x="36.8" y="218.9" class="st3" width="29.5" height="29.5"/>
	<polygon class="st2" points="66.3,221.4 66.3,218.9 63.9,218.9 51.5,231.3 39.2,218.9 36.8,218.9 36.8,221.3 49.1,233.7 36.8,246 
		36.8,248.4 39.2,248.4 51.5,236.1 63.9,248.4 66.3,248.4 66.3,246 53.9,233.7 	"/>
</g>
<g>
	<rect x="2.3" y="132" class="st3" width="29.5" height="29.5"/>
	<polygon class="st2" points="31.8,134.5 31.8,132 29.4,132 17,144.4 4.7,132 2.3,132 2.3,134.4 14.6,146.8 2.3,159.1 2.3,161.5 
		4.7,161.5 17,149.2 29.4,161.5 31.8,161.5 31.8,159.1 19.3,146.8 	"/>
</g>
<g>
	<rect x="139.2" y="175.5" class="st3" width="9.8" height="29.5"/>
	<rect x="149" y="175.5" class="st2" width="9.8" height="29.5"/>
	<rect x="158.8" y="175.4" class="st1" width="9.8" height="29.5"/>
</g>
<g>
	<rect x="139.2" y="218.9" class="st3" width="9.8" height="29.5"/>
	<rect x="149" y="218.9" class="st2" width="9.8" height="29.5"/>
	<rect x="158.8" y="218.8" class="st1" width="9.8" height="29.5"/>
</g>
<g>
	<rect x="172.3" y="132" class="st3" width="9.8" height="29.5"/>
	<rect x="182.1" y="132" class="st2" width="9.8" height="29.5"/>
	<rect x="192" y="131.9" class="st1" width="9.8" height="29.5"/>
</g>
<g>
	<rect x="138.3" y="45" class="st3" width="9.8" height="29.5"/>
	<rect x="148.1" y="45" class="st2" width="9.8" height="29.5"/>
	<rect x="157.9" y="45" class="st1" width="9.8" height="29.5"/>
</g>
<g>
	<rect x="104.2" y="1.5" class="st2" width="29.5" height="29.5"/>
	<rect x="108.4" y="5.7" class="st3" width="21.1" height="21.1"/>
</g>
<g>
	<rect x="275.4" y="132" class="st2" width="29.5" height="29.5"/>
	<rect x="279.5" y="136.2" class="st3" width="21.1" height="21.1"/>
</g>
<g>
	<rect x="241.2" y="88.5" class="st2" width="29.5" height="29.5"/>
	<rect x="245.4" y="92.7" class="st3" width="21.1" height="21.1"/>
</g>
<g>
	<rect x="69.9" y="88.5" class="st2" width="29.5" height="29.5"/>
	<rect x="74.1" y="92.7" class="st3" width="21.1" height="21.1"/>
</g>
<g>
	<rect x="206.3" y="45" class="st2" width="29.5" height="29.5"/>
	<rect x="210.4" y="49.2" class="st3" width="21.1" height="21.1"/>
</g>
<g>
	<rect x="255.2" y="175.3" class="st2" width="14.8" height="14.8"/>
	<rect x="240.4" y="175.3" class="st1" width="14.8" height="14.8"/>
	<rect x="255.2" y="190.1" class="st1" width="14.8" height="14.8"/>
	<rect x="240.4" y="190.1" class="st2" width="14.8" height="14.8"/>
</g>
<g>
	<rect x="50.7" y="175.4" class="st2" width="14.8" height="14.8"/>
	<rect x="35.9" y="175.4" class="st1" width="14.8" height="14.8"/>
	<rect x="50.7" y="190.2" class="st1" width="14.8" height="14.8"/>
	<rect x="35.9" y="190.2" class="st2" width="14.8" height="14.8"/>
</g>
<g>
	<rect x="2.3" y="175.5" class="st0" width="29.5" height="29.5"/>
</g>
<g>
	<rect x="139.1" y="88.5" class="st3" width="29.5" height="29.5"/>
	<rect x="143.4" y="92.6" class="st2" width="21.1" height="21.1"/>
</g>
</svg>
