<?xml version="1.0" encoding="utf-8"?>
<!-- Generator: Adobe Illustrator 23.1.1, SVG Export Plug-In . SVG Version: 6.00 Build 0)  -->
<svg version="1.1" id="Capa_1" xmlns="http://www.w3.org/2000/svg" xmlns:xlink="http://www.w3.org/1999/xlink" x="0px" y="0px"
	 viewBox="0 0 380 290" style="enable-background:new 0 0 380 290;" xml:space="preserve">
<g>
	<path d="M88.2,202.5c8.6,0,15.5-6.9,15.5-15.5s-6.9-15.5-15.5-15.5s-15.5,6.9-15.5,15.5S79.6,202.5,88.2,202.5z M88.2,173.4
		c7.5,0,13.5,6,13.5,13.5s-6,13.5-13.5,13.5s-13.5-6-13.5-13.5C74.7,179.6,80.7,173.4,88.2,173.4z"/>
	<path d="M88.2,198.9c1.7,0,3.2-1.5,3.2-3.2s-1.5-3.2-3.2-3.2S85,194,85,195.7C85,197.5,86.4,198.9,88.2,198.9z M88.2,194.5
		c0.7,0,1.3,0.6,1.3,1.3s-0.6,1.3-1.3,1.3c-0.7,0-1.3-0.6-1.3-1.3C86.9,195.1,87.5,194.5,88.2,194.5z"/>
	<path d="M52.5,202.5c8.6,0,15.5-6.9,15.5-15.5s-6.9-15.5-15.5-15.5S37,178.5,37,187S44,202.5,52.5,202.5z M52.5,173.4
		c7.5,0,13.5,6,13.5,13.5s-6,13.5-13.5,13.5s-13.6-5.9-13.6-13.4S45,173.4,52.5,173.4z"/>
	<path d="M52.5,181.4c1.7,0,3.2-1.5,3.2-3.2s-1.5-3.2-3.2-3.2s-3.2,1.5-3.2,3.2C49.3,180,50.8,181.4,52.5,181.4z M52.5,177
		c0.7,0,1.3,0.6,1.3,1.3s-0.6,1.3-1.3,1.3s-1.3-0.6-1.3-1.3S51.8,177,52.5,177z"/>
	<path d="M195.4,243.3c8.6,0,15.5-6.9,15.5-15.5s-6.9-15.5-15.5-15.5s-15.5,6.9-15.5,15.5C179.8,236.4,186.8,243.3,195.4,243.3z
		 M195.4,214.2c7.5,0,13.5,6,13.5,13.5s-6,13.5-13.5,13.5s-13.5-6-13.5-13.5C181.8,220.4,187.9,214.2,195.4,214.2z"/>
	<path d="M195.4,222.2c1.7,0,3.2-1.5,3.2-3.2s-1.5-3.2-3.2-3.2s-3.2,1.5-3.2,3.2C192.2,220.9,193.5,222.2,195.4,222.2z M195.4,217.8
		c0.7,0,1.3,0.6,1.3,1.3s-0.6,1.3-1.3,1.3s-1.3-0.6-1.3-1.3C194.1,218.4,194.6,217.8,195.4,217.8z"/>
	<path d="M52.5,49.4c-8.6,0-15.5,6.9-15.5,15.5s7,15.4,15.5,15.4S68,73.4,68,64.9S61.1,49.4,52.5,49.4z M52.5,78.4
		c-7.5,0-13.5-6-13.5-13.5s6-13.5,13.5-13.5S66,57.4,66,64.9S60,78.4,52.5,78.4z"/>
	<path d="M52.5,70.4c-1.7,0-3.2,1.5-3.2,3.2s1.5,3.2,3.2,3.2s3.2-1.5,3.2-3.2S54.3,70.4,52.5,70.4z M52.5,74.9
		c-0.7,0-1.3-0.6-1.3-1.3c0-0.7,0.6-1.3,1.3-1.3s1.3,0.6,1.3,1.3S53.2,74.9,52.5,74.9z"/>
	<path d="M183.2,40c8.6,0,15.5-6.9,15.5-15.5S191.8,9,183.2,9s-15.4,7-15.4,15.6S174.7,40,183.2,40z M183.2,11
		c7.5,0,13.5,6,13.5,13.5s-6,13.5-13.5,13.5s-13.5-6-13.5-13.5S175.8,11,183.2,11z"/>
	<path d="M183.2,36.5c1.7,0,3.2-1.5,3.2-3.2s-1.5-3.2-3.2-3.2s-3.2,1.5-3.2,3.2C180.1,35,181.5,36.5,183.2,36.5z M183.2,32
		c0.7,0,1.3,0.6,1.3,1.3s-0.6,1.3-1.3,1.3s-1.3-0.6-1.3-1.3S182.6,32,183.2,32z"/>
	<path d="M255.1,40c8.6,0,15.5-6.9,15.5-15.5s-6.9-15.4-15.5-15.4s-15.4,6.9-15.4,15.5C239.6,33.1,246.6,40,255.1,40z M255.1,11
		c7.5,0,13.5,6,13.5,13.5s-6,13.5-13.5,13.5s-13.5-6-13.5-13.5C241.5,17.1,247.7,11,255.1,11z"/>
	<path d="M263.9,27.8c1.7,0,3.2-1.5,3.2-3.2s-1.5-3.2-3.2-3.2s-3.2,1.5-3.2,3.2C260.7,26.3,262,27.8,263.9,27.8z M263.9,23.3
		c0.7,0,1.3,0.6,1.3,1.3c0,0.7-0.6,1.3-1.3,1.3c-0.7,0-1.3-0.6-1.3-1.3S263.1,23.3,263.9,23.3z"/>
	<path d="M147.5,40c8.6,0,15.5-6.9,15.5-15.5S156.1,9,147.5,9S132,16,132,24.6C131.9,33.1,138.9,40,147.5,40z M147.5,11
		c7.5,0,13.5,6,13.5,13.5S155,38,147.5,38S134,32,134,24.5C133.9,17.1,140,11,147.5,11z"/>
	<path d="M156.2,27.8c1.7,0,3.2-1.5,3.2-3.2s-1.5-3.2-3.2-3.2s-3.2,1.5-3.2,3.2C153,26.3,154.5,27.8,156.2,27.8z M156.2,23.3
		c0.7,0,1.3,0.6,1.3,1.3c0,0.7-0.6,1.3-1.3,1.3s-1.3-0.6-1.3-1.3C155,23.9,155.5,23.3,156.2,23.3z"/>
	<path d="M291.2,40c8.6,0,15.5-6.9,15.5-15.5S299.8,9,291.2,9s-15.4,7-15.4,15.6S282.7,40,291.2,40z M291.2,11
		c7.5,0,13.5,6,13.5,13.5s-6,13.5-13.5,13.5s-13.5-6-13.5-13.5S283.7,11,291.2,11z"/>
	<path d="M291.2,18.7c1.7,0,3.2-1.5,3.2-3.2s-1.5-3.2-3.2-3.2s-3.2,1.5-3.2,3.2S289.5,18.7,291.2,18.7z M291.2,14.3
		c0.7,0,1.3,0.6,1.3,1.3s-0.6,1.3-1.3,1.3s-1.3-0.6-1.3-1.3C289.9,14.9,290.5,14.3,291.2,14.3z"/>
	<path d="M195.3,202.5c4,0,8-1.6,11-4.6c6-6,6-15.8,0-21.9c-6-6-15.8-6-21.9,0c-6,6-6,15.8,0,21.9
		C187.3,200.9,191.3,202.5,195.3,202.5z M185.7,177.4c2.6-2.6,6.1-4,9.6-4s6.9,1.4,9.6,4c5.2,5.2,5.2,13.9,0,19.1s-13.9,5.2-19.1,0
		S180.4,182.7,185.7,177.4z"/>
	<path d="M189.1,196.4c0.8,0,1.7-0.3,2.2-1c1.3-1.3,1.3-3.3,0-4.5c-1.3-1.3-3.3-1.3-4.5,0c-0.6,0.6-1,1.4-1,2.2s0.3,1.7,1,2.2
		C187.5,196.1,188.3,196.4,189.1,196.4z M188.2,192.3c0.2-0.2,0.6-0.4,0.9-0.4c0.3,0,0.7,0.1,0.9,0.4c0.5,0.5,0.5,1.3,0,1.7
		c-0.5,0.5-1.3,0.5-1.7,0c-0.2-0.2-0.4-0.6-0.4-0.9S188,192.6,188.2,192.3z"/>
	<path d="M201.7,183.7c0.8,0,1.7-0.3,2.2-1c1.3-1.3,1.3-3.3,0-4.5c-1.3-1.3-3.3-1.3-4.5,0c-0.6,0.6-1,1.4-1,2.2s0.3,1.7,1,2.2
		C200.1,183.4,200.9,183.7,201.7,183.7z M200.8,179.7c0.2-0.2,0.6-0.4,0.9-0.4s0.7,0.1,0.9,0.4c0.5,0.5,0.5,1.3,0,1.7
		c-0.5,0.5-1.3,0.5-1.7,0c-0.2-0.2-0.4-0.6-0.4-0.9C200.5,180.3,200.7,179.9,200.8,179.7z"/>
	<path d="M220.4,216.9c-6,6-6,15.8,0,21.9c3,3,7,4.6,11,4.6s8-1.6,11-4.6c6-6,6-15.8,0-21.9C236.3,210.8,226.5,210.8,220.4,216.9z
		 M240.9,237.4c-5.2,5.2-13.9,5.2-19.1,0c-5.2-5.2-5.2-13.9,0-19.1c2.6-2.6,6.1-4,9.6-4s6.9,1.4,9.6,4
		C246.3,223.5,246.3,232.1,240.9,237.4z"/>
	<path d="M223,231.7c-0.6,0.6-1,1.4-1,2.2s0.3,1.7,1,2.2c0.6,0.6,1.5,1,2.2,1s1.7-0.3,2.2-1c1.3-1.3,1.3-3.3,0-4.5
		C226.3,230.5,224.2,230.5,223,231.7z M226.1,234.8c-0.5,0.5-1.3,0.5-1.7,0c-0.2-0.2-0.4-0.6-0.4-0.9c0-0.3,0.1-0.7,0.4-0.9
		c0.2-0.2,0.6-0.4,0.9-0.4c0.3,0,0.7,0.1,0.9,0.4C226.6,233.6,226.6,234.4,226.1,234.8z"/>
	<path d="M235.6,219.2c-0.6,0.6-1,1.4-1,2.2s0.3,1.7,1,2.2c0.6,0.6,1.5,1,2.2,1s1.7-0.3,2.2-1c1.3-1.3,1.3-3.3,0-4.5
		C238.8,217.9,236.8,217.9,235.6,219.2z M238.7,222.3c-0.5,0.5-1.3,0.5-1.7,0c-0.2-0.2-0.4-0.6-0.4-0.9c0-0.3,0.1-0.7,0.4-0.9
		c0.2-0.2,0.6-0.4,0.9-0.4s0.7,0.1,0.9,0.4C239.2,221,239.2,221.8,238.7,222.3z"/>
	<path d="M281.4,216.9c-6,6-6,15.8,0,21.9c3,3,7,4.6,11,4.6s8-1.6,11-4.6c6-6,6-15.8,0-21.9C297.3,210.8,287.5,210.8,281.4,216.9z
		 M301.9,237.4c-5.2,5.2-13.9,5.2-19.1,0s-5.2-13.9,0-19.1c2.6-2.6,6.1-4,9.6-4s6.9,1.4,9.6,4C307.3,223.5,307.3,232.1,301.9,237.4z
		"/>
	<path d="M284,231.7c-0.6,0.6-1,1.4-1,2.2s0.3,1.7,1,2.2c0.6,0.6,1.5,1,2.2,1c0.8,0,1.7-0.3,2.2-1c1.3-1.3,1.3-3.3,0-4.5
		C287.3,230.5,285.2,230.5,284,231.7z M287.1,234.8c-0.5,0.5-1.3,0.5-1.7,0c-0.2-0.2-0.4-0.6-0.4-0.9c0-0.3,0.1-0.7,0.4-0.9
		c0.2-0.2,0.6-0.4,0.9-0.4s0.7,0.1,0.9,0.4C287.6,233.6,287.6,234.4,287.1,234.8z"/>
	<path d="M296.6,219.2c-0.6,0.6-1,1.4-1,2.2s0.3,1.7,1,2.2c0.6,0.6,1.5,1,2.2,1c0.8,0,1.7-0.3,2.2-1c1.3-1.3,1.3-3.3,0-4.5
		C299.8,217.9,297.8,217.9,296.6,219.2z M299.7,222.3c-0.5,0.5-1.3,0.5-1.7,0c-0.2-0.2-0.4-0.6-0.4-0.9c0-0.3,0.1-0.7,0.4-0.9
		c0.2-0.2,0.6-0.4,0.9-0.4s0.7,0.1,0.9,0.4C300.2,221,300.2,221.8,299.7,222.3z"/>
	<path d="M134.9,216.9c-6-6-15.8-6-21.9,0c-6,6-6,15.8,0,21.9c3,3,7,4.6,11,4.6s8-1.6,11-4.6C140.9,232.7,140.9,222.9,134.9,216.9z
		 M114.4,237.4c-5.2-5.2-5.2-13.9,0-19.1c2.6-2.6,6.1-4,9.6-4s6.9,1.4,9.6,4c5.2,5.2,5.2,13.9,0,19.1
		C128.4,242.6,119.7,242.7,114.4,237.4z"/>
	<path d="M115.6,231.7c-0.6,0.6-1,1.4-1,2.2s0.3,1.7,1,2.2c0.6,0.6,1.5,1,2.2,1c0.8,0,1.7-0.3,2.2-1c1.3-1.3,1.3-3.3,0-4.5
		C118.8,230.5,116.7,230.5,115.6,231.7z M118.7,234.8c-0.5,0.5-1.3,0.5-1.7,0c-0.2-0.2-0.4-0.6-0.4-0.9c0-0.3,0.1-0.7,0.4-0.9
		c0.2-0.2,0.6-0.4,0.9-0.4s0.7,0.1,0.9,0.4C119.2,233.6,119.2,234.4,118.7,234.8z"/>
	<path d="M132.6,219.2c-1.3-1.3-3.3-1.3-4.5,0c-0.6,0.6-1,1.4-1,2.2s0.3,1.7,1,2.2c0.6,0.6,1.5,1,2.2,1c0.8,0,1.7-0.3,2.2-1
		C133.8,222.4,133.8,220.4,132.6,219.2z M131.2,222.3c-0.5,0.5-1.3,0.5-1.7,0c-0.2-0.2-0.4-0.6-0.4-0.9c0-0.3,0.1-0.7,0.4-0.9
		c0.2-0.2,0.6-0.4,0.9-0.4c0.3,0,0.7,0.1,0.9,0.4C131.7,221,131.7,221.8,131.2,222.3z"/>
	<path d="M290.8,80.3c8.6,0,15.5-6.9,15.5-15.5s-6.9-15.5-15.5-15.5s-15.5,6.9-15.5,15.5S282.3,80.3,290.8,80.3z M290.8,51.3
		c7.5,0,13.5,6,13.5,13.5s-6,13.5-13.5,13.5s-13.5-6-13.5-13.4S283.3,51.3,290.8,51.3z"/>
	<path d="M299.6,68c1.7,0,3.2-1.5,3.2-3.2c0-1.7-1.5-3.2-3.2-3.2s-3.2,1.5-3.2,3.2C296.4,66.5,297.8,68,299.6,68z M299.6,63.6
		c0.7,0,1.3,0.6,1.3,1.3c0,0.7-0.6,1.3-1.3,1.3s-1.3-0.6-1.3-1.3S298.9,63.6,299.6,63.6z"/>
	<path d="M27.5,176c-6.1-6.1-15.8-6.1-21.9,0c-6.1,6.1-6.1,15.8,0,21.9s15.8,6.1,21.9,0C33.5,191.9,33.5,182.1,27.5,176z M7,196.5
		c-5.3-5.3-5.3-13.8,0-19.1s13.8-5.3,19.1,0s5.2,13.9,0,19.1C20.8,201.8,12.2,201.8,7,196.5z"/>
	<path d="M20.5,191c-1.2,1.2-1.2,3.3,0,4.5s3.3,1.2,4.5,0c1.2-1.2,1.2-3.3,0-4.5C23.6,189.6,21.7,189.8,20.5,191z M23.6,194.1
		c-0.5,0.5-1.3,0.5-1.8,0c-0.5-0.5-0.5-1.3,0-1.8c0.5-0.5,1.3-0.5,1.8,0C24.1,192.7,24,193.6,23.6,194.1z"/>
	<path d="M16.5,243.3c8.6,0,15.5-6.9,15.5-15.5s-6.9-15.5-15.5-15.5S1,219.3,1,227.8S7.9,243.3,16.5,243.3z M16.5,214.2
		c7.5,0,13.5,6,13.5,13.5s-6,13.5-13.5,13.5S3,235.2,3,227.8C2.9,220.5,9,214.2,16.5,214.2z"/>
	<path d="M25.2,231c1.7,0,3.2-1.5,3.2-3.2s-1.5-3.2-3.2-3.2s-3.2,1.5-3.2,3.2S23.4,231,25.2,231z M25.2,226.6c0.7,0,1.3,0.6,1.3,1.3
		s-0.6,1.3-1.3,1.3c-0.7,0-1.3-0.6-1.3-1.3C23.9,227.2,24.5,226.6,25.2,226.6z"/>
	<path d="M123.7,161.8c8.6,0,15.5-6.9,15.5-15.5s-6.9-15.5-15.5-15.5s-15.5,6.9-15.5,15.5S115.2,161.8,123.7,161.8z M123.7,132.8
		c7.5,0,13.5,6,13.5,13.5s-6,13.5-13.5,13.5s-13.5-6-13.5-13.5S116.3,132.8,123.7,132.8z"/>
	<path d="M132.5,149.5c1.7,0,3.2-1.5,3.2-3.2s-1.5-3.2-3.2-3.2s-3.2,1.5-3.2,3.2S130.7,149.5,132.5,149.5z M132.5,145.1
		c0.7,0,1.3,0.6,1.3,1.3s-0.6,1.3-1.3,1.3s-1.3-0.6-1.3-1.3S131.8,145.1,132.5,145.1z"/>
	<path d="M266.8,161.8c8.6,0,15.5-6.9,15.5-15.5s-6.9-15.5-15.5-15.5s-15.5,6.9-15.5,15.5S258.3,161.8,266.8,161.8z M266.8,132.8
		c7.5,0,13.5,6,13.5,13.5s-6,13.5-13.5,13.5s-13.5-6-13.5-13.5S259.3,132.8,266.8,132.8z"/>
	<path d="M275.6,149.5c1.7,0,3.2-1.5,3.2-3.2s-1.5-3.2-3.2-3.2s-3.2,1.5-3.2,3.2S273.8,149.5,275.6,149.5z M275.6,145.1
		c0.7,0,1.3,0.6,1.3,1.3s-0.6,1.3-1.3,1.3c-0.7,0-1.3-0.6-1.3-1.3S274.9,145.1,275.6,145.1z"/>
	<path d="M52.4,121c8.6,0,15.5-6.9,15.5-15.5S61,90.1,52.4,90.1S36.9,97,36.9,105.6S43.8,121,52.4,121z M52.4,92
		c7.5,0,13.5,6,13.5,13.5s-6,13.5-13.5,13.5s-13.5-6-13.5-13.5S44.9,92,52.4,92z"/>
	<path d="M312.3,227.8c0,8.6,6.9,15.5,15.5,15.5s15.5-6.9,15.5-15.5s-6.9-15.5-15.5-15.5C319.2,212.4,312.3,219.3,312.3,227.8z
		 M327.8,214.2c7.5,0,13.5,6,13.5,13.5s-6,13.5-13.5,13.5s-13.5-6-13.5-13.5C314.3,220.3,320.3,214.2,327.8,214.2z"/>
	<path d="M256.3,121c8.6,0,15.5-6.9,15.5-15.5S264.9,90,256.3,90s-15.5,6.9-15.5,15.5S247.7,121,256.3,121z M256.3,92
		c7.5,0,13.5,6,13.5,13.5s-6,13.5-13.5,13.5s-13.5-6-13.5-13.5S248.8,92,256.3,92z"/>
	<path d="M124.2,202.5c8.6,0,15.5-6.9,15.5-15.5s-6.9-15.5-15.5-15.5s-15.5,6.9-15.5,15.5S115.7,202.5,124.2,202.5z M124.2,173.4
		c7.5,0,13.5,6,13.5,13.5c0,3.4-1.3,6.5-3.3,8.8l-19-19C117.8,174.7,120.8,173.4,124.2,173.4z M114,178.2l19,19
		c-2.3,2-5.4,3.3-8.8,3.3c-7.5,0-13.5-6-13.5-13.5C110.7,183.6,112,180.5,114,178.2z"/>
	<path d="M363.5,212.4c-8.6,0-15.5,6.9-15.5,15.5s6.9,15.5,15.5,15.5s15.5-6.9,15.5-15.5S372.1,212.4,363.5,212.4z M363.5,241.5
		c-7.5,0-13.5-6-13.5-13.5c0-3.4,1.3-6.4,3.3-8.8l19,19C370,240.2,366.9,241.5,363.5,241.5z M373.8,236.8l-19.1-19
		c2.3-2,5.4-3.3,8.8-3.3c7.5,0,13.5,6,13.5,13.5C377.1,231.3,375.8,234.5,373.8,236.8z"/>
	<path d="M297.4,253.1c-8.6,0-15.5,6.9-15.5,15.5s6.9,15.5,15.5,15.5s15.5-6.9,15.5-15.5S305.9,253.1,297.4,253.1z M297.4,282.2
		c-7.5,0-13.5-6-13.5-13.5c0-3.4,1.3-6.4,3.3-8.8l19,19C303.9,280.9,300.7,282.2,297.4,282.2z M307.5,277.5l-19-19
		c2.3-2,5.4-3.3,8.8-3.3c7.5,0,13.5,6,13.5,13.5C311,272.1,309.7,275.2,307.5,277.5z"/>
	<path d="M118.8,253.1c-8.6,0-15.5,6.9-15.5,15.5s6.9,15.5,15.5,15.5s15.5-6.9,15.5-15.5C134.4,260.1,127.4,253.1,118.8,253.1z
		 M118.8,255.1c3.8,0,7.3,1.6,9.7,4.1l-10.1,8.5h-13.1C105.9,260.7,111.7,255.1,118.8,255.1z M118.8,282.2c-7.1,0-13-5.5-13.5-12.5
		h13.1l9.2,9.2C125.3,280.9,122.2,282.2,118.8,282.2z M132.4,268.7c0,3.4-1.3,6.5-3.3,8.8l-8.7-8.7l9.5-8
		C131.5,262.9,132.4,265.7,132.4,268.7z"/>
	<path d="M22.9,15.2c-1.7,0-3.2,1.5-3.2,3.2c0,1.7,1.5,3.2,3.2,3.2s3.2-1.5,3.2-3.2C26.1,16.6,24.6,15.2,22.9,15.2z M22.9,19.6
		c-0.7,0-1.3-0.6-1.3-1.3c0-0.7,0.6-1.3,1.3-1.3s1.3,0.6,1.3,1.3C24.1,19,23.5,19.6,22.9,19.6z"/>
	<path d="M16.5,40C25.1,40,32,33.1,32,24.5S25,9.1,16.5,9.1S1,16,1,24.6S7.9,40,16.5,40z M17.4,11c7,0.5,12.6,6.4,12.6,13.6
		s-5.5,13-12.5,13.5V11H17.4z M15.5,11v27C8.5,37.5,3,31.7,3,24.5S8.5,11.5,15.5,11z"/>
	<path d="M22.9,67.9c-1.7,0-3.2,1.5-3.2,3.2s1.5,3.2,3.2,3.2s3.2-1.5,3.2-3.2S24.6,67.9,22.9,67.9z M22.9,72.3
		c-0.7,0-1.3-0.6-1.3-1.3c0-0.7,0.6-1.3,1.3-1.3s1.3,0.6,1.3,1.3C24.1,71.8,23.5,72.3,22.9,72.3z"/>
	<path d="M16.5,80.3c8.6,0,15.5-6.9,15.5-15.5s-7-15.4-15.5-15.4S1,56.3,1,64.9S7.9,80.3,16.5,80.3z M17.4,51.4
		c7,0.5,12.5,6.3,12.5,13.5s-5.5,13-12.5,13.5V51.4z M15.5,51.4v27C8.5,77.9,2.9,72,2.9,64.9S8.5,51.9,15.5,51.4z"/>
	<path d="M58.8,149.3c-1.7,0-3.2,1.5-3.2,3.2s1.5,3.2,3.2,3.2s3.2-1.5,3.2-3.2C62,150.7,60.6,149.3,58.8,149.3z M58.8,153.8
		c-0.7,0-1.3-0.6-1.3-1.3s0.6-1.3,1.3-1.3s1.3,0.6,1.3,1.3S59.5,153.8,58.8,153.8z"/>
	<path d="M52.4,130.8c-8.6,0-15.5,6.9-15.5,15.5s6.9,15.5,15.5,15.5s15.5-6.9,15.5-15.5S61,130.8,52.4,130.8z M51.4,159.8
		c-7-0.5-12.5-6.3-12.5-13.5s5.5-13,12.5-13.5V159.8z M53.4,159.8v-27c7,0.5,12.5,6.3,12.5,13.5S60.5,159.3,53.4,159.8z"/>
	<path d="M94.6,230.9c-1.7,0-3.2,1.5-3.2,3.2s1.5,3.2,3.2,3.2s3.2-1.5,3.2-3.2C97.8,232.2,96.3,230.9,94.6,230.9z M94.6,235.2
		c-0.7,0-1.3-0.6-1.3-1.3s0.6-1.3,1.3-1.3c0.7,0,1.3,0.6,1.3,1.3C95.8,234.7,95.3,235.2,94.6,235.2z"/>
	<path d="M103.6,227.8c0-8.6-6.9-15.5-15.5-15.5s-15.5,6.9-15.5,15.5s6.9,15.5,15.5,15.5S103.6,236.4,103.6,227.8z M87.2,241.3
		c-7-0.5-12.5-6.3-12.5-13.5s5.5-13,12.5-13.5V241.3z M89.1,241.3v-27c7,0.5,12.5,6.3,12.5,13.5C101.7,234.9,96.1,240.8,89.1,241.3z
		"/>
	<path d="M197.2,271.7c-1.7,0-3.2,1.5-3.2,3.2s1.5,3.2,3.2,3.2s3.2-1.5,3.2-3.2C200.4,273,198.9,271.7,197.2,271.7z M197.2,276
		c-0.7,0-1.3-0.6-1.3-1.3s0.6-1.3,1.3-1.3s1.3,0.6,1.3,1.3C198.4,275.6,197.8,276,197.2,276z"/>
	<path d="M190.7,253.1c-8.6,0-15.5,6.9-15.5,15.5s6.9,15.5,15.5,15.5s15.5-6.9,15.5-15.5S199.3,253.1,190.7,253.1z M189.8,282.1
		c-7-0.5-12.5-6.3-12.5-13.5s5.5-13,12.5-13.5V282.1z M191.7,282.1v-27c7,0.5,12.5,6.3,12.5,13.5
		C204.2,275.8,198.7,281.6,191.7,282.1z"/>
	<path d="M153.8,67.9c-1.7,0-3.2,1.5-3.2,3.2s1.5,3.2,3.2,3.2s3.2-1.5,3.2-3.2S155.7,67.9,153.8,67.9z M153.8,72.3
		c-0.7,0-1.3-0.6-1.3-1.3c0-0.7,0.6-1.3,1.3-1.3s1.3,0.6,1.3,1.3C155.1,71.8,154.6,72.3,153.8,72.3z"/>
	<path d="M147.5,80.3c8.6,0,15.5-6.9,15.5-15.5s-6.9-15.5-15.5-15.5S132,56.2,132,64.8S138.9,80.3,147.5,80.3z M148.5,51.4
		c7,0.5,12.5,6.3,12.5,13.5s-5.5,13-12.5,13.5V51.4z M146.5,51.4v27c-7-0.5-12.5-6.3-12.5-13.5S139.5,51.9,146.5,51.4z"/>
	<path d="M225.5,27.6c-1.7,0-3.2,1.5-3.2,3.2c0,1.7,1.5,3.2,3.2,3.2s3.2-1.5,3.2-3.2C228.7,29.1,227.3,27.6,225.5,27.6z M225.5,32
		c-0.7,0-1.3-0.6-1.3-1.3s0.6-1.3,1.3-1.3s1.3,0.6,1.3,1.3S226.2,32,225.5,32z"/>
	<path d="M219.1,40c8.6,0,15.5-6.9,15.5-15.5s-7-15.4-15.5-15.4c-8.6,0-15.5,6.9-15.5,15.5S210.5,40,219.1,40z M220.1,11
		c7,0.5,12.5,6.3,12.5,13.5c0,7.1-5.5,13-12.5,13.5V11z M218.1,11v27c-7-0.5-12.5-6.3-12.5-13.5C205.6,17.5,211.1,11.5,218.1,11z"/>
	<path d="M231.1,130.8c-8.6,0-15.5,6.9-15.5,15.5s6.9,15.5,15.5,15.5s15.5-6.9,15.5-15.5C246.5,137.7,239.6,130.8,231.1,130.8z
		 M230.1,159.8c-7-0.5-12.5-6.3-12.5-13.5c0-7.1,5.5-13,12.5-13.5V159.8z M232,159.8v-27c7,0.5,12.5,6.3,12.5,13.5
		C244.6,153.5,239,159.3,232,159.8z"/>
	<path d="M261.7,253.1c-8.6,0-15.5,6.9-15.5,15.5s6.9,15.5,15.5,15.5s15.5-6.9,15.5-15.5C277.1,260.1,270.2,253.1,261.7,253.1z
		 M260.7,282.1c-7-0.5-12.5-6.3-12.5-13.5c0-7.1,5.5-13,12.5-13.5V282.1z M262.7,282.1v-27c7,0.5,12.5,6.3,12.5,13.5
		C275.2,275.8,269.6,281.6,262.7,282.1z"/>
	<path d="M159.4,243.3c8.6,0,15.5-6.9,15.5-15.5s-6.9-15.5-15.5-15.5s-15.5,6.9-15.5,15.5C143.9,236.4,150.8,243.3,159.4,243.3z
		 M160.4,214.3c7,0.5,12.5,6.3,12.5,13.5c0,7.1-5.5,13-12.5,13.5V214.3z M158.4,214.3v26.9c-7-0.5-12.5-6.3-12.5-13.5
		C145.8,220.7,151.4,214.8,158.4,214.3z"/>
	<path d="M37,24.5C37,33.1,43.9,40,52.5,40S68,33.1,68,24.5S61.1,9,52.5,9S37,15.9,37,24.5z M52.4,38c-3.6,0-6.9-1.5-9.3-3.7h18.7
		C59.3,36.6,56,38,52.4,38z M52.4,11c3.4,0,6.5,1.3,8.8,3.3H43.5C46,12.1,49,11,52.4,11z M63.1,16.2c1.7,2.3,2.8,5.2,2.8,8.3
		c0,2.9-1,5.6-2.5,7.9h-22l0,0c-1.7-2.2-2.5-5-2.5-7.9c0-3.1,1.1-6,2.8-8.3C41.7,16.2,63.1,16.2,63.1,16.2z"/>
	<path d="M235.7,105.6c0-8.6-6.9-15.5-15.5-15.5s-15.5,6.9-15.5,15.5s6.9,15.5,15.5,15.5S235.7,114.1,235.7,105.6z M230,96.3
		c2.3,2.4,3.7,5.7,3.7,9.3s-1.5,6.9-3.7,9.3V96.3z M210,114.4c-2-2.3-3.3-5.4-3.3-8.8s1.3-6.5,3.3-8.8V114.4z M212,94.9
		c2.3-1.7,5.2-2.8,8.3-2.8c2.9,0,5.6,1,7.9,2.5v22l0,0c-2.2,1.7-5,2.5-7.9,2.5c-3.1,0-6-1.1-8.3-2.8V94.9z"/>
	<path d="M148.2,90c-8.6,0-15.5,6.9-15.5,15.5s6.9,15.5,15.5,15.5s15.5-6.9,15.5-15.5S156.8,90,148.2,90z M148.2,92
		c3.4,0,6.5,1.3,8.8,3.3h-17.7C141.7,93.3,144.8,92,148.2,92z M148.2,119.1c-3.6,0-6.9-1.5-9.3-3.7h18.6
		C155,117.6,151.8,119.1,148.2,119.1z M137.2,113.5L137.2,113.5c-1.7-2.2-2.5-5-2.5-7.9c0-3.1,1.1-6,2.8-8.3h21.4
		c1.7,2.3,2.8,5.2,2.8,8.3c0,2.9-1,5.6-2.5,7.9H137.2z"/>
	<path d="M88.1,130.8c-8.6,0-15.5,6.9-15.5,15.5s6.9,15.5,15.5,15.5s15.5-6.9,15.5-15.5S96.6,130.8,88.1,130.8z M88.1,132.8
		c3.4,0,6.5,1.3,8.8,3.3H79.2C81.6,134,84.7,132.8,88.1,132.8z M88.1,159.9c-3.6,0-6.9-1.5-9.3-3.7h18.6
		C94.9,158.4,91.7,159.9,88.1,159.9z M99.1,154.1h-22l0,0c-1.7-2.2-2.5-5-2.5-7.9c0-3.1,1.1-6,2.8-8.3h21.4c1.7,2.3,2.8,5.2,2.8,8.3
		C101.6,149.2,100.6,151.9,99.1,154.1z"/>
	<path d="M17.1,130.8c-8.6,0-15.5,6.9-15.5,15.5s6.9,15.5,15.5,15.5s15.5-6.9,15.5-15.5S25.7,130.8,17.1,130.8z M17.1,132.7
		c3.4,0,6.5,1.3,8.8,3.3H8.3C10.6,134,13.7,132.7,17.1,132.7z M17.1,159.8c-3.6,0-6.9-1.5-9.3-3.7h18.6
		C23.9,158.4,20.7,159.8,17.1,159.8z M28.1,154.1h-22l0,0c-1.7-2.2-2.5-5-2.5-7.9c0-3.1,1.1-6,2.8-8.3h21.4c1.7,2.3,2.8,5.2,2.8,8.3
		C30.6,149.1,29.7,151.9,28.1,154.1z"/>
	<path d="M68,227.8c0-8.6-6.9-15.5-15.5-15.5s-15.5,7-15.5,15.5s6.9,15.5,15.5,15.5S68,236.4,68,227.8z M52.5,214.2
		c3.4,0,6.5,1.3,8.8,3.3H43.7C46,215.5,49.1,214.2,52.5,214.2z M41.5,235.7L41.5,235.7c-1.7-2.2-2.5-5-2.5-7.9c0-3.1,1.1-6,2.8-8.3
		h21.4c1.7,2.3,2.8,5.2,2.8,8.3c0,2.9-1,5.6-2.5,7.9H41.5z M52.5,241.4c-3.6,0-6.9-1.5-9.3-3.7h18.6
		C59.3,239.9,56.1,241.4,52.5,241.4z"/>
	<path d="M154.9,253.1c-8.6,0-15.5,6.9-15.5,15.5s6.9,15.5,15.5,15.5s15.5-6.9,15.5-15.5C170.3,260,163.4,253.1,154.9,253.1z
		 M154.9,255.1c3.4,0,6.5,1.3,8.8,3.3H146C148.5,256.3,151.5,255.1,154.9,255.1z M154.9,282.2c-3.6,0-6.9-1.5-9.3-3.7h18.6
		C161.8,280.7,158.5,282.2,154.9,282.2z M165.9,276.5h-22l0,0c-1.7-2.2-2.5-5-2.5-7.9c0-3.1,1.1-6,2.8-8.3h21.4
		c1.7,2.3,2.8,5.2,2.8,8.3C168.4,271.6,167.5,274.3,165.9,276.5z"/>
	<path d="M183.8,80.3c8.6,0,15.5-6.9,15.5-15.5s-6.9-15.5-15.5-15.5s-15.4,7-15.4,15.6S175.3,80.3,183.8,80.3z M183.8,78.4
		c-3.6,0-6.9-1.5-9.3-3.7h18.6C190.8,77,187.4,78.4,183.8,78.4z M183.8,51.4c3.4,0,6.5,1.3,8.8,3.3h-17.7
		C177.4,52.5,180.4,51.4,183.8,51.4z M172.8,72.8c-1.7-2.2-2.5-5-2.5-7.9c0-3.1,1.1-6,2.8-8.3h21.4c1.7,2.3,2.8,5.2,2.8,8.3
		c0,2.9-1,5.6-2.5,7.9H172.8L172.8,72.8z"/>
	<path d="M256,80.3c8.6,0,15.5-6.9,15.5-15.5s-6.9-15.5-15.5-15.5s-15.5,6.9-15.5,15.5S247.5,80.3,256,80.3z M256,78.4
		c-3.6,0-6.9-1.5-9.3-3.7h18.6C262.8,77,259.6,78.4,256,78.4z M256,51.4c3.4,0,6.5,1.3,8.8,3.3h-17.7
		C249.5,52.5,252.6,51.4,256,51.4z M245,72.8c-1.7-2.2-2.5-5-2.5-7.9c0-3.1,1.1-6,2.8-8.3h21.4c1.7,2.3,2.8,5.2,2.8,8.3
		c0,2.9-1,5.6-2.5,7.9H245L245,72.8z"/>
	<path d="M220,80.3c8.6,0,15.5-6.9,15.5-15.5s-6.9-15.5-15.5-15.5s-15.5,6.9-15.5,15.5S211.4,80.3,220,80.3z M220,51.4
		c3.4,0,6.5,1.3,8.8,3.3h-17.7C213.5,52.5,216.6,51.4,220,51.4z M209.3,56.6h21.4c1.7,2.3,2.8,5.2,2.8,8.3c0,7.5-6,13.5-13.5,13.5
		s-13.5-6-13.5-13.5C206.5,61.8,207.5,58.9,209.3,56.6z"/>
	<path d="M93.6,14.9c-1.7,0-3.2,1.5-3.2,3.2s1.5,3.2,3.2,3.2s3.2-1.5,3.2-3.2C96.8,16.4,95.4,14.9,93.6,14.9z M93.6,19.3
		c-0.7,0-1.3-0.6-1.3-1.3c0-0.7,0.6-1.3,1.3-1.3c0.7,0,1.3,0.6,1.3,1.3C94.9,18.8,94.3,19.3,93.6,19.3z"/>
	<path d="M88.2,40c8.6,0,15.5-6.9,15.5-15.5s-7-15.4-15.5-15.4S72.7,16,72.7,24.6S79.6,40,88.2,40z M89.1,11
		c6.7,0.5,12.1,5.8,12.5,12.5H89.1V11z M89.1,25.5h12.5c-0.5,6.7-5.8,12.1-12.5,12.5V25.5z M87.2,11v27c-7-0.5-12.5-6.3-12.5-13.5
		S80.2,11.5,87.2,11z"/>
	<path d="M93.6,55.3c-1.7,0-3.2,1.5-3.2,3.2s1.5,3.2,3.2,3.2s3.2-1.5,3.2-3.2C96.8,56.6,95.4,55.3,93.6,55.3z M93.6,59.6
		c-0.7,0-1.3-0.6-1.3-1.3s0.6-1.3,1.3-1.3c0.7,0,1.3,0.6,1.3,1.3C94.9,59.1,94.3,59.6,93.6,59.6z"/>
	<path d="M88.2,80.3c8.6,0,15.5-6.9,15.5-15.5s-6.9-15.5-15.5-15.5s-15.5,6.9-15.5,15.5S79.6,80.3,88.2,80.3z M89.1,51.4
		c6.7,0.5,12.1,5.8,12.5,12.5H89.1V51.4z M89.1,65.9h12.5c-0.5,6.7-5.8,12.1-12.5,12.5V65.9z M87.2,51.4v27
		c-7-0.5-12.5-6.3-12.5-13.5S80.2,51.9,87.2,51.4z"/>
	<path d="M189.5,96c-1.7,0-3.2,1.5-3.2,3.2s1.5,3.2,3.2,3.2s3.2-1.5,3.2-3.2C192.7,97.3,191.3,96,189.5,96z M189.5,100.4
		c-0.7,0-1.3-0.6-1.3-1.3c0-0.7,0.6-1.3,1.3-1.3s1.3,0.6,1.3,1.3S190.2,100.4,189.5,100.4z"/>
	<path d="M184.2,121c8.6,0,15.5-6.9,15.5-15.5S192.8,90,184.2,90s-15.5,6.9-15.5,15.5C168.6,114.1,175.6,121,184.2,121z M185.1,92.1
		c6.7,0.5,12.1,5.8,12.5,12.5h-12.5V92.1z M185.1,106.6h12.5c-0.5,6.7-5.8,12.1-12.5,12.5V106.6z M183.2,92.1v27
		c-7-0.5-12.5-6.3-12.5-13.5S176.1,92.6,183.2,92.1z"/>
	<path d="M200.3,136.7c-1.7,0-3.2,1.5-3.2,3.2s1.5,3.2,3.2,3.2s3.2-1.5,3.2-3.2C203.4,138.1,202,136.7,200.3,136.7z M200.3,141.1
		c-0.7,0-1.3-0.6-1.3-1.3s0.6-1.3,1.3-1.3s1.3,0.6,1.3,1.3C201.4,140.5,200.9,141.1,200.3,141.1z"/>
	<path d="M194.8,130.8c-8.6,0-15.5,6.9-15.5,15.5s6.9,15.5,15.5,15.5s15.5-6.9,15.5-15.5S203.4,130.8,194.8,130.8z M193.9,159.8
		c-7-0.5-12.5-6.3-12.5-13.5s5.5-13,12.5-13.5V159.8z M195.8,159.8v-12.5h12.5C207.8,154,202.5,159.3,195.8,159.8z M195.8,145.3
		v-12.5c6.7,0.5,12.1,5.8,12.5,12.5H195.8z"/>
	<path d="M225.9,253.1c-8.6,0-15.5,6.9-15.5,15.5s6.9,15.5,15.5,15.5s15.5-6.8,15.5-15.4S234.4,253.1,225.9,253.1z M225.9,255.1
		c3.4,0,6.5,1.3,8.8,3.3l-8.8,8.8l-8.8-8.8C219.4,256.3,222.5,255.1,225.9,255.1z M212.3,268.7c0-3.4,1.3-6.5,3.3-8.8l8.8,8.8
		l-8.8,8.8C213.6,275.1,212.3,272.1,212.3,268.7z M225.9,282.2c-3.4,0-6.5-1.3-8.8-3.3l8.8-8.8l8.8,8.8
		C232.3,280.9,229.2,282.2,225.9,282.2z M236.1,277.5l-8.8-8.8l8.8-8.8c2,2.3,3.3,5.4,3.3,8.8S238.2,275.1,236.1,277.5z"/>
	<path d="M229,259.5c0-1.7-1.5-3.2-3.2-3.2s-3.2,1.5-3.2,3.2s1.5,3.2,3.2,3.2C227.7,262.7,229,261.3,229,259.5z M224.7,259.5
		c0-0.7,0.6-1.3,1.3-1.3s1.3,0.6,1.3,1.3c0,0.7-0.6,1.3-1.3,1.3C225.1,260.8,224.7,260.2,224.7,259.5z"/>
	<path d="M16.7,121c8.6,0,15.5-6.9,15.5-15.5S25.3,90,16.7,90S1.3,96.9,1.3,105.5S8.2,121,16.7,121z M17.7,119v-12.5h12.5
		C29.8,113.2,24.4,118.6,17.7,119z M16.7,92c7.1,0,13,5.5,13.5,12.5h-27C3.7,97.6,9.5,92,16.7,92z M15.8,106.6v12.5
		c-6.7-0.5-12.1-5.8-12.5-12.5H15.8z"/>
	<path d="M159.4,161.8c8.6,0,15.5-6.9,15.5-15.5s-6.9-15.5-15.5-15.5s-15.5,6.9-15.5,15.5S150.8,161.8,159.4,161.8z M160.3,159.8
		v-12.5h12.5C172.4,154,167,159.3,160.3,159.8z M159.4,132.8c7.1,0,13,5.5,13.5,12.5H146C146.4,138.3,152.3,132.8,159.4,132.8z
		 M158.4,147.2v12.5c-6.7-0.5-12.1-5.8-12.5-12.5H158.4z"/>
	<path d="M112.4,121c8.6,0,15.5-6.9,15.5-15.5S121,90,112.4,90s-15.5,7-15.5,15.6S103.8,121,112.4,121z M113.3,119v-12.5h12.5
		C125.4,113.2,120,118.6,113.3,119z M112.4,92c7.1,0,13,5.5,13.5,12.5h-27C99.3,97.6,105.3,92,112.4,92z M111.4,106.6v12.5
		c-6.7-0.5-12.1-5.8-12.5-12.5H111.4z"/>
	<path d="M159.7,202.5c8.6,0,15.5-6.9,15.5-15.5s-6.9-15.5-15.5-15.5s-15.5,6.9-15.5,15.5S151.1,202.5,159.7,202.5z M160.7,200.4
		v-12.5h12.5C172.7,194.7,167.4,200.1,160.7,200.4z M159.7,173.4c7.1,0,13,5.5,13.5,12.5h-27C146.7,179.1,152.5,173.4,159.7,173.4z
		 M158.7,188v12.4c-6.7-0.5-12.1-5.8-12.5-12.5L158.7,188L158.7,188z"/>
	<path d="M14.9,270c1.2-1.3,1.9-2.3,2.4-3.3s0.8-1.9,0.8-2.8c0-1.6-0.5-2.7-1.5-3.6s-2.3-1.3-4.1-1.3c-1.2,0-2.2,0.2-3.2,0.7
		c-0.9,0.5-1.7,1.2-2.1,2s-0.8,1.8-0.8,2.9h2.9c0-1,0.3-1.8,0.8-2.4s1.3-0.9,2.2-0.9c0.8,0,1.5,0.3,1.9,0.8c0.5,0.5,0.7,1.2,0.7,2
		c0,0.7-0.2,1.3-0.6,1.9c-0.4,0.7-1,1.5-1.8,2.4L6.7,275v2h12.1v-2.3h-8.3L14.9,270z"/>
	<path d="M29.8,267.9c0.8-0.4,1.4-1,1.8-1.6c0.5-0.7,0.7-1.5,0.7-2.3c0-1.6-0.5-2.7-1.5-3.6s-2.3-1.4-4-1.4s-3,0.5-4,1.4
		s-1.5,2-1.5,3.6c0,0.9,0.2,1.7,0.7,2.3c0.5,0.7,1.1,1.2,1.8,1.6c-0.9,0.4-1.7,1-2.1,1.7c-0.5,0.8-0.8,1.7-0.8,2.5
		c0,1.6,0.5,2.8,1.6,3.7s2.4,1.4,4.3,1.4c1.7,0,3.2-0.5,4.2-1.4c1.1-0.9,1.6-2.1,1.6-3.7c0-1-0.3-1.7-0.8-2.5
		C31.5,268.9,30.7,268.3,29.8,267.9z M25.1,262.1c0.5-0.5,1.1-0.7,1.7-0.7c0.7,0,1.4,0.3,1.8,0.8c0.5,0.5,0.7,1.2,0.7,1.9
		c0,0.8-0.2,1.5-0.7,1.9c-0.5,0.5-1.1,0.7-1.7,0.7s-1.4-0.2-1.7-0.7c-0.5-0.5-0.7-1.2-0.7-1.9C24.5,263.2,24.7,262.5,25.1,262.1z
		 M28.9,274.1c-0.5,0.5-1.2,0.8-2.1,0.8s-1.6-0.3-2.1-0.8s-0.8-1.3-0.8-2c0-0.9,0.3-1.6,0.8-2.1c0.5-0.6,1.2-0.8,2-0.8
		c0.9,0,1.6,0.3,2,0.8c0.5,0.6,0.8,1.3,0.8,2.1C29.7,272.9,29.5,273.6,28.9,274.1z"/>
	<path d="M41.1,259c-1.9,0-3.4,0.7-4.4,1.9c-1,1.3-1.5,3.2-1.5,5.7v3.1c0,2.5,0.5,4.4,1.5,5.6c1,1.3,2.4,1.8,4.4,1.8
		s3.4-0.7,4.4-1.9c1-1.3,1.5-3.2,1.5-5.7v-3.1c0-2.4-0.5-4.4-1.5-5.5C44.5,259.6,43,259,41.1,259z M43.9,270.2
		c0,1.6-0.3,2.8-0.7,3.5c-0.5,0.8-1.2,1.2-2.1,1.2c-1,0-1.7-0.4-2.1-1.3c-0.5-0.8-0.7-2-0.7-3.7v-4c0-1.6,0.3-2.7,0.7-3.4
		c0.5-0.8,1.2-1.1,2.1-1.1c1,0,1.7,0.4,2.1,1.2c0.5,0.8,0.7,2,0.7,3.7V270.2z"/>
	<path d="M49.7,276.4c0,0.6-0.1,1.2-0.3,1.7c-0.2,0.6-0.5,1.2-1,1.9l1.6,1c0.7-0.6,1.3-1.3,1.7-2.1c0.4-0.9,0.7-1.7,0.7-2.6v-2.1
		h-2.6C49.7,274.1,49.7,276.4,49.7,276.4z"/>
	<path d="M165.5,50.1c0,0.6-0.1,1.2-0.3,1.7c-0.2,0.6-0.5,1.2-1,1.9l1.6,1c0.7-0.6,1.3-1.3,1.7-2.1c0.4-0.9,0.7-1.7,0.7-2.6v-2.1
		h-2.6C165.5,47.8,165.5,50.1,165.5,50.1z"/>
	<polygon points="54.7,261.8 54.7,264.2 59.1,262.7 59.1,277 62,277 62,259.2 61.7,259.2 	"/>
	<path d="M72.8,265.4c-1.1,0-1.9,0.2-2.8,0.7l0.5-4.3h7.1v-2.5H68l-1,8.9l2.3,0.6c0.5-0.4,0.9-0.7,1.3-0.9c0.4-0.1,0.9-0.2,1.4-0.2
		c1,0,1.7,0.3,2.3,1c0.6,0.6,0.9,1.5,0.9,2.5c0,1.2-0.3,2-0.8,2.6c-0.5,0.7-1.3,1-2.1,1c-0.8,0-1.5-0.2-1.9-0.7
		c-0.5-0.5-0.8-1.2-1-1.9h-2.9c0.1,1.6,0.7,2.7,1.7,3.7c1.1,0.9,2.4,1.4,4.1,1.4c1.8,0,3.2-0.5,4.3-1.6c1.1-1.1,1.6-2.5,1.6-4.3
		s-0.5-3.3-1.4-4.4C75.8,265.8,74.4,265.4,72.8,265.4z"/>
	<rect x="311.4" y="23.6" width="7.4" height="1.9"/>
	<rect x="311.4" y="63.7" width="7.4" height="1.9"/>
	<rect x="276.6" y="104.6" width="7.4" height="1.9"/>
</g>
</svg>
