<?xml version="1.0" encoding="UTF-8"?><svg id="logo" xmlns="http://www.w3.org/2000/svg" viewBox="0 0 149.29 160.95"><defs><style>.cls-1{fill:#fff;}</style></defs><polygon class="cls-1" points="53.81 152.92 51.96 152.92 51.96 137.82 53.81 137.82 53.81 152.92 53.81 152.92"/><polygon class="cls-1" points="96.93 153.7 95.09 153.7 95.09 137.09 96.93 137.09 96.93 153.7 96.93 153.7"/><path class="cls-1" d="M53.83,135.91h41.24c-.53-9.96-9.57-17.92-20.62-17.92s-20.09,7.96-20.62,17.92h0Zm43.1,1.84H51.96v-.92c0-11.41,10.09-20.69,22.49-20.69s22.48,9.28,22.48,20.69v.92h0Z"/><polygon class="cls-1" points="52.64 137.9 1.31 137.9 1.31 136.05 52.64 136.05 52.64 137.9 52.64 137.9"/><polygon class="cls-1" points="147.59 137.9 96.25 137.9 96.25 136.05 147.59 136.05 147.59 137.9 147.59 137.9"/><polygon class="cls-1" points="52.64 143.47 1.31 143.47 1.31 141.63 52.64 141.63 52.64 143.47 52.64 143.47"/><polygon class="cls-1" points="147.59 143.47 96.25 143.47 96.25 141.63 147.59 141.63 147.59 143.47 147.59 143.47"/><polygon class="cls-1" points="147.59 154.62 1.31 154.62 1.31 152.78 147.59 152.78 147.59 154.62 147.59 154.62"/><path class="cls-1" d="M2.22,158.21l-.37-55.94H147.07l.37,55.94H2.22ZM1.84,1.84H147.05V100.43H1.84V1.84h0ZM147.45,160.1h1.84l-.39-59.57h0V0H0V102.27H.01l.38,57.82h1.84v-.04H147.45v.04h0Z"/><polygon class="cls-1" points="14.48 136.22 12.64 136.22 12.64 101.35 14.48 101.35 14.48 136.22 14.48 136.22"/><polygon class="cls-1" points="21.08 136.22 19.24 136.22 19.24 101.35 21.08 101.35 21.08 136.22 21.08 136.22"/><polygon class="cls-1" points="129.76 136.22 127.92 136.22 127.92 101.35 129.76 101.35 129.76 136.22 129.76 136.22"/><polygon class="cls-1" points="136.36 136.22 134.52 136.22 134.52 101.35 136.36 101.35 136.36 136.22 136.36 136.22"/><polygon class="cls-1" points="12.35 70.91 12.35 66.2 12.81 66.2 12.81 70.91 12.35 70.91 12.35 70.91"/><path class="cls-1" d="M12.53,70.73h.1v-4.34h-.1v4.34h0Zm.46,.37h-.83v-5.08h.83v5.08h0Z"/><path class="cls-1" d="M16.08,68.52c0-.28,.05-.57,.15-.85,.1-.28,.24-.53,.43-.75,.19-.22,.42-.4,.7-.54,.28-.14,.59-.21,.95-.21,.42,0,.78,.1,1.08,.28,.3,.19,.52,.44,.66,.74l-.37,.23c-.08-.15-.17-.28-.28-.39-.11-.11-.22-.19-.35-.26-.12-.07-.25-.11-.38-.14-.13-.03-.26-.04-.39-.04-.28,0-.53,.06-.75,.17-.22,.12-.4,.27-.55,.45-.15,.19-.26,.39-.34,.63-.08,.23-.11,.47-.11,.71,0,.26,.05,.51,.14,.75,.09,.24,.21,.45,.37,.63,.16,.18,.34,.33,.56,.44,.21,.11,.45,.16,.7,.16,.13,0,.27-.02,.41-.05,.14-.03,.27-.09,.4-.16,.13-.07,.25-.16,.36-.27,.11-.11,.2-.24,.28-.39l.38,.2c-.08,.18-.18,.33-.32,.47-.14,.14-.29,.25-.46,.34-.17,.09-.35,.16-.53,.21-.19,.05-.37,.07-.55,.07-.32,0-.62-.07-.89-.21-.27-.14-.5-.33-.7-.55-.19-.23-.35-.49-.45-.78-.11-.29-.16-.58-.16-.89h0Z"/><path class="cls-1" d="M18.31,66.36c-.32,0-.61,.06-.87,.19-.26,.13-.47,.29-.65,.5-.17,.2-.31,.44-.4,.69-.09,.26-.14,.52-.14,.78,0,.28,.05,.55,.15,.82,.1,.27,.24,.51,.42,.72,.18,.21,.39,.38,.64,.51,.38,.2,.83,.25,1.31,.12,.17-.04,.34-.11,.49-.2,.15-.08,.29-.19,.42-.31,.08-.08,.15-.16,.2-.26l-.06-.03c-.07,.1-.14,.2-.22,.28-.12,.12-.26,.22-.4,.3-.14,.08-.3,.14-.45,.18-.44,.11-.87,.06-1.23-.13-.24-.12-.44-.28-.61-.48-.17-.2-.31-.43-.4-.69-.1-.26-.15-.53-.15-.81,0-.26,.04-.51,.12-.76,.08-.25,.2-.48,.37-.68,.16-.2,.37-.37,.6-.5,.35-.19,.8-.25,1.27-.15,.15,.03,.29,.09,.43,.16,.14,.07,.27,.17,.39,.29,.08,.08,.15,.17,.21,.26l.05-.03c-.12-.21-.29-.38-.52-.52-.27-.17-.6-.26-.98-.26h0Zm-.03,4.78c-.35,0-.68-.08-.97-.23-.29-.15-.54-.35-.75-.6-.21-.24-.37-.52-.49-.83-.12-.31-.17-.63-.17-.95,0-.3,.05-.61,.16-.91,.11-.3,.26-.57,.47-.81,.21-.24,.46-.44,.76-.59,.3-.15,.65-.23,1.03-.23,.45,0,.85,.11,1.18,.31,.33,.21,.57,.49,.73,.82l.07,.15-.68,.42-.09-.18c-.07-.13-.15-.25-.24-.34-.1-.09-.2-.17-.31-.23-.11-.06-.22-.1-.34-.12-.38-.08-.74-.03-1.02,.11-.19,.1-.36,.24-.49,.4-.13,.17-.24,.36-.3,.57-.07,.21-.1,.43-.1,.65,0,.24,.04,.47,.12,.68,.08,.22,.2,.41,.34,.58,.14,.16,.31,.3,.5,.39,.29,.15,.62,.18,.98,.1,.12-.03,.24-.08,.36-.14,.12-.07,.22-.15,.32-.24,.1-.09,.18-.21,.24-.34l.08-.17,.7,.36-.07,.16c-.08,.2-.21,.38-.36,.53-.15,.15-.32,.27-.5,.37-.18,.1-.38,.18-.58,.23-.2,.05-.4,.08-.6,.08h0Z"/><polygon class="cls-1" points="27.51 70.91 27.51 67.04 25.79 70.04 25.52 70.04 23.8 67.04 23.8 70.91 23.34 70.91 23.34 66.2 23.81 66.2 25.65 69.43 27.5 66.2 27.97 66.2 27.97 70.91 27.51 70.91 27.51 70.91"/><path class="cls-1" d="M25.63,69.85h.06l1.99-3.47h-.07l-1.96,3.41-1.94-3.41h-.07l1.99,3.47h0Zm-2.11,.88h.1v-4.34h-.1v4.34h0Zm4.17,0h.1v-4.34h-.1v4.34h0Zm.46,.37h-.83v-3.36l-1.43,2.49h-.49l-1.43-2.49v3.36h-.83v-5.08h.77l1.73,3.04,1.74-3.04h.76v5.08h0Z"/><path class="cls-1" d="M34.15,69.07l-.95-2.33-.96,2.33h1.91Zm-1.14-2.87h.39l1.96,4.71h-.49l-.61-1.47h-2.12l-.6,1.47h-.5l1.97-4.71h0Z"/><path class="cls-1" d="M32.52,68.89h1.36l-.68-1.66-.69,1.66h0Zm-1.2,1.84h.1l.6-1.47h-.05l1.19-2.87h-.02l-1.82,4.34h0Zm3.67,0h.09l-1.8-4.34h-.02l1.17,2.87h-.04l.61,1.47h0Zm.64,.37h-.89l-.61-1.47h-1.87l-.6,1.47h-.9l2.12-5.08h.64l2.11,5.08h0Z"/><path class="cls-1" d="M41.51,69.62c0-.11-.02-.23-.06-.34-.04-.11-.1-.2-.17-.28-.07-.08-.16-.15-.26-.2-.1-.05-.21-.08-.32-.08h-1.8v1.78h1.76c.12,0,.23-.02,.34-.07,.1-.05,.19-.11,.27-.2,.08-.08,.14-.18,.18-.28,.04-.11,.07-.22,.07-.34h0Zm-2.61-3.01v1.74h1.62c.11,0,.22-.02,.32-.07,.1-.05,.18-.11,.26-.19,.07-.08,.13-.17,.17-.28,.04-.1,.06-.21,.06-.33s-.02-.23-.06-.34c-.04-.11-.09-.2-.16-.27-.07-.08-.15-.14-.24-.19-.09-.05-.19-.07-.31-.07h-1.66Zm3.08,3.09c0,.18-.04,.34-.11,.49-.07,.15-.17,.28-.29,.38-.12,.11-.26,.19-.42,.25-.16,.06-.33,.09-.51,.09h-2.22v-4.71h2.27c.16,0,.31,.04,.44,.11,.13,.07,.25,.16,.34,.28,.09,.11,.16,.24,.22,.38,.05,.14,.08,.29,.08,.43,0,.24-.06,.46-.18,.65-.12,.2-.29,.34-.5,.44,.27,.08,.48,.23,.64,.44,.16,.22,.24,.47,.24,.76h0Z"/><path class="cls-1" d="M39.08,68.16h1.43c.09,0,.17-.02,.24-.05,.08-.04,.14-.09,.2-.15,.06-.06,.1-.14,.13-.22,.03-.08,.05-.17,.05-.26,0-.1-.02-.19-.05-.28-.03-.08-.07-.16-.12-.21-.05-.06-.11-.11-.19-.14-.07-.03-.14-.05-.22-.05h-1.47v1.37h0Zm0,2.16h1.57c.09,0,.18-.02,.26-.06,.08-.04,.15-.09,.22-.16,.06-.06,.11-.14,.15-.23,.04-.09,.05-.17,.05-.27s-.02-.18-.05-.27c-.03-.09-.08-.16-.13-.23-.06-.07-.13-.12-.2-.16-.07-.04-.15-.06-.24-.06h-1.62v1.42h0Zm-.46,.4h2.04c.16,0,.31-.03,.45-.08,.14-.05,.26-.12,.36-.22,.1-.09,.18-.2,.24-.33,.06-.12,.09-.26,.09-.41,0-.25-.07-.46-.2-.65-.06-.08-.13-.15-.2-.21l.03,.03c.09,.1,.16,.21,.2,.34,.05,.13,.07,.26,.07,.4s-.03,.27-.08,.41c-.05,.13-.13,.24-.22,.34-.09,.1-.2,.18-.33,.24-.13,.06-.27,.09-.41,.09h-1.94v-2.15h1.88s-.05,0-.08,0h-1.8v-2.11h1.84c.14,0,.27,.03,.39,.09,.11,.06,.21,.13,.3,.23,.08,.1,.15,.21,.19,.34,.04,.13,.07,.26,.07,.4s-.02,.27-.07,.39c-.05,.12-.12,.24-.2,.33h0c.08-.07,.15-.15,.21-.24,.1-.17,.15-.35,.15-.56,0-.12-.02-.25-.07-.37-.04-.12-.11-.23-.18-.33-.08-.09-.17-.17-.28-.23-.11-.06-.22-.08-.36-.08h-2.08v4.34h0Zm2.04,.37h-2.41v-5.08h2.45c.19,0,.37,.04,.53,.13,.15,.08,.29,.19,.39,.32,.11,.13,.19,.28,.25,.44,.06,.16,.09,.33,.09,.5,0,.27-.07,.52-.21,.75-.07,.12-.16,.23-.27,.31,.16,.09,.29,.22,.4,.37,.18,.25,.27,.54,.27,.86,0,.2-.04,.39-.12,.57-.08,.17-.19,.32-.33,.44-.14,.12-.3,.22-.48,.29-.18,.07-.37,.1-.58,.1h0Z"/><polygon class="cls-1" points="52.01 69.83 52.01 66.43 52.34 66.43 52.34 69.83 52.01 69.83 52.01 69.83"/><polygon class="cls-1" points="52.52 70.02 51.82 70.02 51.82 66.24 52.52 66.24 52.52 70.02 52.52 70.02"/><polygon class="cls-1" points="53.53 67.05 53.53 69.83 53.19 69.83 53.19 66.43 53.45 66.43 55.7 69.26 55.7 66.43 56.04 66.43 56.04 69.83 55.75 69.83 53.53 67.05 53.53 67.05"/><polygon class="cls-1" points="56.22 70.02 55.66 70.02 53.71 67.58 53.71 70.02 53.01 70.02 53.01 66.24 53.54 66.24 55.52 68.73 55.52 66.25 56.22 66.25 56.22 70.02 56.22 70.02"/><path class="cls-1" d="M58.88,67.07c-.1-.11-.22-.2-.38-.26-.16-.07-.34-.1-.55-.1-.3,0-.52,.06-.66,.17-.14,.11-.21,.27-.21,.46,0,.1,.02,.19,.06,.25,.04,.07,.09,.12,.17,.17,.08,.05,.18,.09,.29,.12,.12,.04,.26,.07,.42,.11,.18,.04,.35,.08,.49,.13,.15,.05,.27,.11,.37,.18,.1,.07,.18,.16,.23,.26,.05,.1,.08,.23,.08,.38s-.03,.29-.09,.41c-.06,.11-.15,.21-.25,.29-.11,.08-.24,.13-.39,.17-.15,.04-.31,.06-.49,.06-.53,0-.98-.16-1.37-.49l.17-.27c.06,.06,.13,.12,.22,.18,.08,.06,.18,.11,.28,.15,.1,.04,.21,.08,.33,.1,.12,.02,.24,.04,.37,.04,.27,0,.48-.05,.64-.15,.15-.1,.23-.25,.23-.44,0-.11-.02-.19-.06-.27-.04-.07-.11-.13-.19-.19-.09-.05-.19-.1-.32-.14-.13-.04-.28-.08-.45-.12-.18-.04-.34-.08-.47-.13-.13-.04-.25-.1-.34-.17-.09-.07-.16-.15-.21-.24-.05-.09-.07-.21-.07-.35,0-.16,.03-.3,.09-.42,.06-.12,.14-.23,.25-.31,.11-.08,.24-.14,.38-.19,.15-.04,.31-.06,.49-.06,.23,0,.43,.03,.61,.1,.18,.07,.34,.17,.48,.29l-.16,.27h0Z"/><path class="cls-1" d="M58.96,68.63s.01,.02,.02,.03v-.02h-.02Zm-.98,1.4c-.57,0-1.07-.18-1.49-.54l-.12-.1,.38-.61,.17,.17c.05,.05,.11,.11,.19,.16,.07,.05,.16,.1,.25,.13,.09,.04,.19,.07,.3,.09,.11,.02,.22,.03,.34,.03,.23,0,.41-.04,.54-.12,.1-.06,.14-.15,.14-.29,0-.07-.01-.13-.04-.17-.03-.05-.07-.09-.13-.13-.07-.04-.17-.08-.28-.12-.12-.04-.27-.07-.43-.11-.19-.04-.35-.09-.49-.13-.15-.05-.28-.12-.39-.19-.12-.08-.21-.19-.27-.31-.06-.12-.09-.26-.09-.43,0-.18,.04-.35,.11-.5,.07-.15,.18-.28,.31-.37,.13-.09,.27-.17,.44-.22,.37-.11,.86-.09,1.21,.04,.2,.08,.38,.18,.54,.32l.12,.1-.37,.61-.17-.19c-.08-.09-.18-.16-.32-.22-.14-.06-.3-.09-.48-.09-.25,0-.44,.04-.54,.13-.1,.08-.14,.18-.14,.32,0,.07,.01,.12,.03,.16,.02,.04,.06,.07,.11,.1,.06,.04,.15,.07,.25,.1,.12,.03,.25,.07,.41,.1,.19,.04,.36,.08,.51,.13,.16,.05,.3,.12,.42,.2,.13,.09,.22,.2,.29,.33,.07,.13,.1,.29,.1,.47s-.04,.35-.11,.49c-.07,.14-.18,.26-.31,.35-.13,.09-.28,.16-.45,.2-.16,.04-.34,.06-.54,.06h0Z"/><polygon class="cls-1" points="62.19 66.73 60.98 66.73 60.98 69.83 60.64 69.83 60.64 66.73 59.43 66.73 59.43 66.43 62.19 66.43 62.19 66.73 62.19 66.73"/><polygon class="cls-1" points="61.16 70.02 60.46 70.02 60.46 66.91 59.25 66.91 59.25 66.24 62.38 66.24 62.38 66.91 61.16 66.91 61.16 70.02 61.16 70.02"/><polygon class="cls-1" points="62.7 69.83 62.7 66.43 63.04 66.43 63.04 69.83 62.7 69.83 62.7 69.83"/><polygon class="cls-1" points="63.22 70.02 62.52 70.02 62.52 66.24 63.22 66.24 63.22 70.02 63.22 70.02"/><polygon class="cls-1" points="66.3 66.73 65.09 66.73 65.09 69.83 64.76 69.83 64.76 66.73 63.54 66.73 63.54 66.43 66.3 66.43 66.3 66.73 66.3 66.73"/><polygon class="cls-1" points="65.28 70.02 64.57 70.02 64.57 66.91 63.36 66.91 63.36 66.24 66.49 66.24 66.49 66.91 65.28 66.91 65.28 70.02 65.28 70.02"/><path class="cls-1" d="M68.19,69.55c.21,0,.39-.04,.53-.12,.14-.08,.26-.19,.34-.32,.08-.13,.14-.28,.18-.45,.03-.17,.05-.34,.05-.51v-1.72h.34v1.72c0,.23-.03,.45-.08,.65-.05,.21-.13,.39-.25,.54-.11,.16-.26,.28-.44,.37-.18,.09-.4,.14-.67,.14s-.49-.05-.68-.15c-.18-.1-.33-.23-.44-.39-.11-.16-.19-.34-.24-.55-.05-.2-.07-.42-.07-.63v-1.72h.33v1.72c0,.18,.02,.35,.05,.52,.04,.17,.1,.32,.18,.45,.08,.13,.2,.24,.34,.32,.14,.08,.32,.12,.53,.12h0Z"/><path class="cls-1" d="M68.2,70.04c-.3,0-.56-.06-.76-.17-.21-.11-.38-.26-.51-.44-.12-.18-.21-.38-.27-.61-.05-.22-.08-.44-.08-.67v-1.9h.7v1.9c0,.17,.02,.33,.05,.49,.03,.15,.08,.28,.15,.39,.07,.11,.16,.19,.27,.26,.23,.13,.65,.13,.88,0,.12-.07,.21-.15,.28-.26,.07-.11,.12-.24,.15-.39,.03-.16,.05-.32,.05-.48v-1.9h.7v1.9c0,.24-.03,.48-.08,.7-.06,.23-.15,.43-.28,.61-.13,.18-.3,.32-.51,.43-.21,.11-.46,.16-.75,.16h0Z"/><polygon class="cls-1" points="72.84 66.73 71.63 66.73 71.63 69.83 71.3 69.83 71.3 66.73 70.08 66.73 70.08 66.43 72.84 66.43 72.84 66.73 72.84 66.73"/><polygon class="cls-1" points="71.82 70.02 71.11 70.02 71.11 66.91 69.9 66.91 69.9 66.24 73.03 66.24 73.03 66.91 71.82 66.91 71.82 70.02 71.82 70.02"/><path class="cls-1" d="M76.89,68.13c0-.2-.03-.39-.09-.56-.06-.17-.14-.32-.25-.44-.11-.12-.25-.22-.41-.29-.16-.07-.34-.1-.55-.1h-.82v2.81h.82c.21,0,.4-.04,.56-.11,.16-.07,.3-.17,.4-.3,.11-.13,.19-.27,.25-.45,.06-.17,.08-.36,.08-.56h0Zm-2.45,1.71v-3.4h1.15c.27,0,.51,.04,.71,.13,.2,.09,.37,.21,.51,.36,.14,.15,.24,.33,.31,.54,.07,.21,.1,.43,.1,.66,0,.26-.04,.49-.12,.7-.08,.21-.19,.39-.33,.54-.14,.15-.31,.26-.51,.35-.2,.08-.42,.12-.67,.12h-1.15Z"/><path class="cls-1" d="M74.96,69.35h.64c.18,0,.35-.03,.48-.09,.14-.06,.25-.14,.34-.25,.09-.11,.16-.24,.21-.38,.05-.15,.07-.32,.07-.5s-.03-.35-.08-.5c-.05-.15-.12-.27-.22-.38-.09-.1-.21-.19-.34-.24-.14-.06-.3-.09-.48-.09h-.64v2.44h0Zm.64,.67h-1.34v-3.77h1.34c.3,0,.56,.05,.79,.15,.23,.1,.42,.24,.57,.41,.15,.17,.27,.37,.34,.6,.07,.22,.11,.46,.11,.72,0,.28-.04,.54-.13,.77-.09,.23-.21,.43-.37,.6-.16,.17-.35,.3-.58,.39-.22,.09-.47,.14-.74,.14h0Z"/><polygon class="cls-1" points="80.15 69.53 80.15 69.83 77.87 69.83 77.87 66.43 80.11 66.43 80.11 66.73 78.2 66.73 78.2 67.95 79.86 67.95 79.86 68.24 78.2 68.24 78.2 69.53 80.15 69.53 80.15 69.53"/><polygon class="cls-1" points="80.33 70.02 77.68 70.02 77.68 66.24 80.29 66.24 80.29 66.91 78.38 66.91 78.38 67.77 80.05 67.77 80.05 68.42 78.38 68.42 78.38 69.35 80.33 69.35 80.33 70.02 80.33 70.02"/><path class="cls-1" d="M81.78,68.11c0-.2,.04-.41,.11-.61,.07-.2,.18-.38,.31-.54,.14-.16,.31-.29,.51-.39,.2-.1,.43-.15,.69-.15,.3,0,.56,.07,.78,.21s.37,.32,.48,.54l-.26,.16c-.05-.11-.12-.21-.2-.28-.08-.08-.16-.14-.25-.19-.09-.05-.18-.08-.28-.1-.1-.02-.19-.03-.28-.03-.2,0-.39,.04-.54,.12-.16,.08-.29,.19-.4,.33-.11,.13-.19,.29-.24,.45-.05,.17-.08,.34-.08,.51,0,.19,.03,.37,.1,.54,.07,.17,.15,.33,.27,.46,.11,.13,.25,.24,.4,.32,.16,.08,.32,.12,.51,.12,.1,0,.19-.01,.29-.04,.1-.02,.2-.06,.29-.12,.09-.05,.18-.12,.26-.2,.08-.08,.15-.17,.2-.28l.28,.14c-.05,.13-.13,.24-.23,.34-.1,.1-.21,.18-.33,.25-.12,.07-.25,.12-.39,.15-.14,.04-.27,.05-.4,.05-.23,0-.45-.05-.64-.15-.19-.1-.36-.24-.5-.4-.14-.16-.25-.35-.33-.56-.08-.21-.12-.42-.12-.64h0Z"/><path class="cls-1" d="M83.37,70.04c-.26,0-.51-.06-.73-.17-.22-.11-.4-.26-.56-.44-.15-.18-.28-.39-.36-.62-.09-.23-.13-.46-.13-.7,0-.22,.04-.45,.12-.67,.08-.22,.2-.43,.35-.6,.15-.18,.34-.32,.57-.44,.23-.11,.48-.17,.77-.17,.34,0,.63,.08,.88,.24,.25,.16,.43,.36,.55,.61l.07,.15-.58,.36-.09-.18c-.04-.09-.1-.17-.16-.23-.07-.06-.14-.12-.21-.16-.07-.04-.15-.07-.23-.09-.26-.06-.51-.02-.7,.08-.13,.07-.25,.16-.34,.28-.09,.12-.16,.25-.21,.39-.05,.15-.07,.3-.07,.45,0,.17,.03,.33,.09,.48,.06,.15,.14,.29,.24,.4,.1,.11,.21,.2,.35,.27,.2,.1,.42,.13,.67,.07,.08-.02,.17-.05,.24-.1,.08-.04,.15-.1,.22-.17,.06-.06,.12-.14,.16-.23l.08-.17,.6,.31-.07,.16c-.06,.15-.15,.28-.27,.4-.11,.11-.23,.2-.37,.28-.14,.07-.28,.13-.43,.17-.15,.04-.3,.06-.45,.06h0Z"/><polygon class="cls-1" points="85.29 69.83 85.29 66.43 85.63 66.43 85.63 69.83 85.29 69.83 85.29 69.83"/><polygon class="cls-1" points="85.81 70.02 85.11 70.02 85.11 66.24 85.81 66.24 85.81 70.02 85.81 70.02"/><path class="cls-1" d="M87.22,65.44h.34l.29,.45-.21,.08-.42-.53h0Zm1.54,4.1v.3h-2.29v-3.4h2.24v.3h-1.91v1.23h1.66v.28h-1.66v1.3h1.95Z"/><path class="cls-1" d="M87.58,66.19l-.74-.93h.82l.47,.72-.55,.21h0Zm1.37,3.83h-2.65v-3.77h2.61v.67h-1.91v.86h1.66v.65h-1.66v.93h1.95v.67h0Z"/><polygon class="cls-1" points="89.73 67.05 89.73 69.83 89.4 69.83 89.4 66.43 89.66 66.43 91.91 69.26 91.91 66.43 92.24 66.43 92.24 69.83 91.95 69.83 89.73 67.05 89.73 67.05"/><polygon class="cls-1" points="92.43 70.02 91.86 70.02 89.92 67.58 89.92 70.02 89.21 70.02 89.21 66.24 89.75 66.24 91.73 68.73 91.73 66.25 92.43 66.25 92.43 70.02 92.43 70.02"/><path class="cls-1" d="M92.87,68.11c0-.2,.04-.41,.11-.61,.07-.2,.18-.38,.31-.54,.14-.16,.31-.29,.51-.39,.2-.1,.43-.15,.69-.15,.3,0,.56,.07,.78,.21s.37,.32,.48,.54l-.26,.16c-.05-.11-.12-.21-.2-.28-.08-.08-.16-.14-.25-.19-.09-.05-.18-.08-.28-.1-.1-.02-.19-.03-.28-.03-.2,0-.38,.04-.54,.12-.16,.08-.29,.19-.4,.33-.11,.13-.19,.29-.24,.45-.05,.17-.08,.34-.08,.51,0,.19,.03,.37,.1,.54,.07,.17,.15,.33,.27,.46,.11,.13,.25,.24,.4,.32,.15,.08,.32,.12,.51,.12,.1,0,.19-.01,.29-.04,.1-.02,.2-.06,.29-.12,.09-.05,.18-.12,.26-.2,.08-.08,.15-.17,.2-.28l.28,.14c-.05,.13-.13,.24-.23,.34-.1,.1-.21,.18-.33,.25-.12,.07-.25,.12-.39,.15-.14,.04-.27,.05-.4,.05-.23,0-.45-.05-.64-.15-.19-.1-.36-.24-.5-.4-.14-.16-.25-.35-.33-.56-.08-.21-.12-.42-.12-.64h0Z"/><path class="cls-1" d="M94.46,70.04c-.26,0-.51-.06-.73-.17-.21-.11-.4-.26-.56-.44-.15-.18-.27-.39-.36-.62-.09-.23-.13-.47-.13-.7,0-.22,.04-.45,.12-.67,.08-.22,.2-.43,.35-.6,.15-.18,.34-.32,.57-.44,.23-.11,.48-.17,.77-.17,.34,0,.63,.08,.88,.24,.24,.16,.43,.36,.54,.61l.07,.15-.58,.36-.09-.18c-.04-.09-.1-.17-.16-.23-.06-.06-.14-.12-.21-.16-.07-.04-.15-.07-.23-.09-.27-.06-.51-.02-.7,.08-.13,.07-.25,.16-.34,.28-.09,.12-.16,.25-.21,.39-.05,.15-.07,.3-.07,.45,0,.17,.03,.33,.09,.48,.06,.15,.14,.29,.24,.4,.1,.11,.21,.2,.35,.27,.2,.1,.42,.13,.68,.07,.08-.02,.17-.05,.24-.1,.08-.04,.15-.1,.22-.17,.06-.06,.12-.14,.16-.23l.08-.17,.6,.31-.07,.16c-.06,.15-.15,.28-.27,.4-.11,.11-.24,.2-.37,.28-.13,.07-.28,.13-.43,.17-.15,.04-.3,.06-.45,.06h0Z"/><polygon class="cls-1" points="96.38 69.83 96.38 66.43 96.72 66.43 96.72 69.83 96.38 69.83 96.38 69.83"/><polygon class="cls-1" points="96.9 70.02 96.2 70.02 96.2 66.24 96.9 66.24 96.9 70.02 96.9 70.02"/><path class="cls-1" d="M99.45,68.5l-.68-1.68-.7,1.68h1.38Zm-.82-2.07h.28l1.41,3.4h-.35l-.44-1.06h-1.53l-.44,1.06h-.36l1.42-3.4h0Z"/><path class="cls-1" d="M98.35,68.32h.83l-.41-1.01-.42,1.01h0Zm2.25,1.7h-.75l-.44-1.06h-1.28l-.44,1.06h-.76l1.58-3.77h.53l1.57,3.77h0Z"/><path class="cls-1" d="M104.33,68.13c0-.2-.03-.39-.09-.56-.06-.17-.14-.32-.25-.44-.11-.12-.25-.22-.41-.29-.16-.07-.34-.1-.55-.1h-.82v2.81h.82c.21,0,.4-.04,.56-.11,.16-.07,.3-.17,.41-.3,.11-.13,.19-.27,.25-.45,.06-.17,.08-.36,.08-.56h0Zm-2.45,1.71v-3.4h1.15c.27,0,.51,.04,.71,.13,.2,.09,.37,.21,.51,.36,.14,.15,.24,.33,.31,.54,.07,.21,.1,.43,.1,.66,0,.26-.04,.49-.12,.7-.08,.21-.19,.39-.33,.54-.14,.15-.31,.26-.51,.35-.2,.08-.42,.12-.67,.12h-1.15Z"/><path class="cls-1" d="M102.41,69.35h.64c.18,0,.35-.03,.48-.09,.14-.06,.25-.14,.34-.25,.09-.11,.16-.24,.21-.38,.05-.15,.08-.32,.08-.5s-.03-.35-.08-.5c-.05-.15-.12-.27-.21-.38-.09-.1-.21-.19-.34-.24-.14-.06-.3-.09-.48-.09h-.64v2.44h0Zm.64,.67h-1.34v-3.77h1.34c.3,0,.56,.05,.79,.15,.23,.1,.42,.24,.57,.41,.15,.17,.27,.37,.34,.6,.07,.22,.11,.46,.11,.72,0,.28-.04,.54-.13,.77-.09,.23-.21,.43-.37,.6-.16,.17-.35,.3-.58,.39-.22,.09-.47,.14-.74,.14h0Z"/><polygon class="cls-1" points="107.6 69.53 107.6 69.83 105.31 69.83 105.31 66.43 107.55 66.43 107.55 66.73 105.65 66.73 105.65 67.95 107.31 67.95 107.31 68.24 105.65 68.24 105.65 69.53 107.6 69.53 107.6 69.53"/><polygon class="cls-1" points="107.78 70.02 105.13 70.02 105.13 66.24 107.74 66.24 107.74 66.91 105.83 66.91 105.83 67.77 107.49 67.77 107.49 68.42 105.83 68.42 105.83 69.35 107.78 69.35 107.78 70.02 107.78 70.02"/><polygon class="cls-1" points="112.47 69.83 112.47 67.04 111.22 69.2 111.03 69.2 109.79 67.04 109.79 69.83 109.45 69.83 109.45 66.43 109.8 66.43 111.12 68.76 112.46 66.43 112.8 66.43 112.8 69.83 112.47 69.83 112.47 69.83"/><polygon class="cls-1" points="112.99 70.02 112.28 70.02 112.28 67.73 111.33 69.38 110.92 69.38 109.97 67.73 109.97 70.02 109.27 70.02 109.27 66.24 109.9 66.24 111.12 68.39 112.35 66.24 112.99 66.24 112.99 70.02 112.99 70.02"/><path class="cls-1" d="M115.53,68.5l-.68-1.68-.7,1.68h1.38Zm-.82-2.07h.28l1.41,3.4h-.35l-.44-1.06h-1.53l-.44,1.06h-.36l1.42-3.4h0Z"/><path class="cls-1" d="M114.43,68.32h.83l-.41-1.01-.42,1.01h0Zm2.25,1.7h-.75l-.44-1.06h-1.28l-.44,1.06h-.76l1.58-3.77h.53l1.57,3.77h0Z"/><polygon class="cls-1" points="118.97 66.73 117.76 66.73 117.76 69.83 117.42 69.83 117.42 66.73 116.21 66.73 116.21 66.43 118.97 66.43 118.97 66.73 118.97 66.73"/><polygon class="cls-1" points="117.94 70.02 117.24 70.02 117.24 66.91 116.03 66.91 116.03 66.24 119.16 66.24 119.16 66.91 117.94 66.91 117.94 70.02 117.94 70.02"/><polygon class="cls-1" points="121.77 69.53 121.77 69.83 119.48 69.83 119.48 66.43 121.72 66.43 121.72 66.73 119.82 66.73 119.82 67.95 121.48 67.95 121.48 68.24 119.82 68.24 119.82 69.53 121.77 69.53 121.77 69.53"/><polygon class="cls-1" points="121.95 70.02 119.3 70.02 119.3 66.24 121.91 66.24 121.91 66.91 120 66.91 120 67.77 121.66 67.77 121.66 68.42 120 68.42 120 69.35 121.95 69.35 121.95 70.02 121.95 70.02"/><path class="cls-1" d="M122.73,68.28h1.11c.1,0,.19-.02,.27-.06,.08-.04,.15-.1,.21-.17s.1-.16,.13-.25c.03-.09,.05-.19,.05-.29s-.02-.2-.05-.29c-.04-.09-.09-.18-.15-.25-.06-.07-.14-.13-.22-.17-.08-.04-.17-.06-.27-.06h-1.08v1.55h0Zm-.34,1.55v-3.4h1.44c.15,0,.28,.03,.4,.09,.12,.06,.23,.14,.32,.24,.09,.1,.16,.21,.21,.34,.05,.13,.07,.26,.07,.39s-.02,.24-.05,.36c-.04,.11-.09,.22-.15,.31-.07,.09-.14,.17-.24,.23-.09,.06-.2,.11-.31,.13l.83,1.31h-.38l-.8-1.26h-1.01v1.26h-.34Z"/><path class="cls-1" d="M122.92,68.09h.93c.07,0,.13-.01,.18-.04,.06-.03,.11-.07,.15-.13,.04-.06,.08-.12,.11-.2,.03-.07,.04-.15,.04-.23s-.01-.16-.04-.23c-.03-.07-.07-.14-.12-.19-.05-.05-.1-.09-.16-.12-.06-.03-.12-.04-.18-.04h-.9v1.18h0Zm2.34,1.92h-.82l-.8-1.26h-.72v1.26h-.7v-3.77h1.62c.18,0,.34,.04,.49,.11,.14,.07,.27,.17,.37,.29,.1,.12,.19,.25,.24,.4,.06,.15,.09,.3,.09,.45,0,.14-.02,.28-.06,.41-.04,.13-.1,.25-.18,.36-.08,.11-.17,.2-.28,.28-.04,.03-.09,.05-.13,.07l.89,1.4h0Z"/><polygon class="cls-1" points="125.53 69.83 125.53 66.43 125.86 66.43 125.86 69.83 125.53 69.83 125.53 69.83"/><polygon class="cls-1" points="126.05 70.02 125.34 70.02 125.34 66.24 126.05 66.24 126.05 70.02 126.05 70.02"/><path class="cls-1" d="M128.59,68.5l-.69-1.68-.69,1.68h1.38Zm-.82-2.07h.28l1.41,3.4h-.35l-.44-1.06h-1.53l-.44,1.06h-.36l1.42-3.4h0Z"/><path class="cls-1" d="M127.49,68.32h.83l-.41-1.01-.42,1.01h0Zm2.25,1.7h-.75l-.44-1.06h-1.28l-.44,1.06h-.76l1.58-3.77h.53l1.57,3.77h0Z"/><polygon class="cls-1" points="129.95 69.83 129.95 66.43 130.29 66.43 130.29 69.53 132.25 69.53 132.25 69.83 129.95 69.83 129.95 69.83"/><polygon class="cls-1" points="132.44 70.02 129.77 70.02 129.77 66.24 130.47 66.24 130.47 69.35 132.44 69.35 132.44 70.02 132.44 70.02"/><path class="cls-1" d="M134.74,67.07c-.1-.11-.22-.2-.38-.26-.16-.07-.34-.1-.55-.1-.3,0-.52,.06-.66,.17-.14,.11-.21,.27-.21,.46,0,.1,.02,.19,.05,.25,.04,.07,.09,.12,.17,.17,.08,.05,.18,.09,.29,.12,.12,.04,.26,.07,.42,.11,.18,.04,.35,.08,.49,.13,.15,.05,.27,.11,.37,.18,.1,.07,.18,.16,.23,.26,.05,.1,.08,.23,.08,.38s-.03,.29-.09,.41c-.06,.11-.15,.21-.25,.29-.11,.08-.24,.13-.39,.17-.15,.04-.31,.06-.49,.06-.53,0-.98-.16-1.37-.49l.17-.27c.06,.06,.13,.12,.22,.18,.08,.06,.18,.11,.28,.15,.1,.04,.21,.08,.33,.1s.24,.04,.37,.04c.27,0,.48-.05,.63-.15,.15-.1,.23-.25,.23-.44,0-.11-.02-.19-.06-.27-.04-.07-.11-.13-.19-.19-.09-.05-.19-.1-.32-.14-.13-.04-.28-.08-.45-.12-.18-.04-.34-.08-.47-.13-.13-.04-.25-.1-.34-.17-.09-.07-.16-.15-.21-.24-.05-.09-.07-.21-.07-.35,0-.16,.03-.3,.09-.42,.06-.12,.14-.23,.25-.31,.11-.08,.24-.14,.38-.19,.15-.04,.31-.06,.49-.06,.23,0,.43,.03,.61,.1,.18,.07,.34,.17,.48,.29l-.16,.27h0Z"/><path class="cls-1" d="M133.84,70.04c-.57,0-1.07-.18-1.49-.54l-.12-.1,.38-.61,.17,.17c.05,.05,.11,.11,.19,.16,.07,.05,.16,.1,.25,.13,.09,.04,.19,.07,.3,.09,.11,.02,.22,.03,.34,.03,.23,0,.41-.04,.53-.12,.1-.06,.14-.15,.14-.29,0-.07-.01-.13-.04-.17-.03-.05-.07-.09-.13-.13-.07-.04-.17-.08-.28-.12-.12-.04-.27-.07-.43-.11-.19-.04-.35-.09-.49-.13-.15-.05-.28-.12-.39-.19-.12-.08-.21-.19-.27-.31-.06-.12-.09-.26-.09-.43,0-.18,.04-.35,.11-.5,.07-.15,.18-.28,.31-.37,.13-.09,.27-.17,.44-.22,.37-.11,.86-.09,1.21,.04,.2,.08,.38,.18,.54,.32l.12,.1-.37,.61-.17-.19c-.08-.09-.18-.16-.32-.22-.14-.06-.3-.09-.47-.09-.25,0-.44,.04-.54,.13-.09,.08-.14,.18-.14,.32,0,.07,.01,.12,.03,.16,.02,.04,.06,.07,.11,.1,.06,.04,.15,.07,.25,.1,.12,.03,.25,.07,.41,.1,.19,.04,.36,.08,.51,.13,.16,.05,.3,.12,.42,.2,.12,.09,.22,.2,.29,.33,.07,.13,.1,.29,.1,.47s-.04,.35-.11,.49c-.07,.14-.18,.26-.31,.35-.13,.09-.28,.16-.45,.2-.16,.04-.34,.06-.54,.06h0Z"/><path class="cls-1" d="M51.78,73.86c0-.2,.04-.41,.11-.61,.07-.2,.18-.38,.31-.54,.14-.16,.31-.29,.51-.39,.2-.1,.43-.15,.69-.15,.3,0,.56,.07,.78,.21,.22,.14,.37,.32,.48,.54l-.26,.16c-.05-.11-.12-.21-.2-.28-.08-.08-.16-.14-.25-.19-.09-.05-.18-.08-.28-.1-.1-.02-.19-.03-.28-.03-.2,0-.38,.04-.54,.12-.16,.08-.29,.19-.4,.33-.11,.13-.19,.28-.24,.45-.05,.17-.08,.34-.08,.51,0,.19,.03,.37,.1,.54,.07,.17,.15,.33,.27,.46,.11,.13,.25,.24,.4,.32,.15,.08,.32,.12,.51,.12,.1,0,.19-.01,.29-.04,.1-.02,.2-.06,.29-.11,.09-.05,.18-.12,.26-.2,.08-.08,.15-.17,.2-.29l.28,.14c-.05,.13-.13,.24-.23,.34-.1,.1-.21,.18-.33,.25-.12,.07-.25,.12-.39,.15-.14,.04-.27,.05-.4,.05-.23,0-.45-.05-.64-.15-.19-.1-.36-.24-.5-.4-.14-.16-.25-.35-.33-.56-.08-.21-.12-.42-.12-.64h0Z"/><path class="cls-1" d="M53.37,75.79c-.26,0-.51-.06-.73-.17-.21-.11-.4-.26-.56-.44-.15-.18-.28-.39-.36-.62-.09-.23-.13-.47-.13-.7,0-.22,.04-.45,.12-.67,.08-.22,.2-.43,.35-.6,.15-.18,.34-.32,.57-.44,.23-.11,.48-.17,.77-.17,.34,0,.63,.08,.88,.23,.24,.16,.43,.36,.55,.61l.07,.15-.58,.36-.09-.18c-.04-.09-.1-.17-.16-.23-.07-.06-.14-.12-.21-.16-.07-.04-.15-.07-.23-.09-.27-.06-.51-.02-.7,.08-.13,.07-.25,.16-.34,.28-.09,.12-.16,.25-.21,.4-.05,.15-.07,.3-.07,.45,0,.17,.03,.33,.09,.48,.06,.15,.14,.29,.24,.4,.1,.11,.21,.2,.35,.27,.2,.1,.43,.13,.67,.07,.08-.02,.17-.05,.25-.1,.08-.04,.15-.1,.22-.17,.06-.06,.12-.14,.16-.23l.08-.17,.6,.31-.07,.16c-.06,.15-.15,.28-.27,.4-.11,.11-.24,.2-.37,.28-.13,.07-.28,.13-.43,.17-.15,.04-.3,.06-.45,.06h0Z"/><path class="cls-1" d="M57.28,72.82c-.1-.11-.22-.2-.38-.26-.16-.07-.34-.1-.55-.1-.3,0-.52,.06-.66,.17-.14,.11-.21,.27-.21,.46,0,.1,.02,.19,.05,.25,.04,.07,.09,.12,.17,.17,.08,.05,.17,.09,.29,.12,.12,.04,.26,.07,.42,.11,.18,.04,.35,.08,.49,.13,.15,.05,.27,.11,.37,.18,.1,.07,.18,.16,.23,.26,.05,.1,.08,.23,.08,.38s-.03,.29-.09,.41c-.06,.11-.15,.21-.25,.29-.11,.08-.24,.13-.39,.17-.15,.04-.31,.05-.49,.05-.53,0-.98-.16-1.37-.49l.17-.27c.06,.06,.13,.12,.22,.18,.08,.06,.18,.11,.28,.15,.1,.04,.21,.08,.33,.1,.12,.02,.24,.04,.37,.04,.27,0,.48-.05,.64-.15,.15-.1,.23-.25,.23-.44,0-.11-.02-.19-.06-.27-.04-.07-.11-.13-.19-.19-.09-.05-.19-.1-.32-.14-.13-.04-.28-.08-.45-.11-.18-.04-.34-.08-.47-.13-.13-.04-.25-.1-.34-.17-.09-.07-.16-.15-.21-.24-.05-.09-.07-.21-.07-.35,0-.16,.03-.3,.09-.42,.06-.12,.14-.23,.25-.31,.11-.08,.24-.14,.38-.19,.15-.04,.31-.06,.49-.06,.23,0,.43,.03,.61,.1,.18,.07,.34,.17,.48,.29l-.16,.27h0Z"/><path class="cls-1" d="M57.37,74.39v0h0Zm-.98,1.4c-.57,0-1.07-.18-1.49-.54l-.12-.1,.38-.61,.17,.17c.05,.05,.11,.11,.19,.16,.07,.05,.16,.1,.25,.13,.09,.04,.19,.07,.3,.09,.11,.02,.22,.03,.34,.03,.23,0,.41-.04,.54-.12,.1-.06,.14-.15,.14-.29,0-.07-.01-.13-.04-.17-.03-.05-.07-.09-.13-.12-.07-.04-.17-.08-.28-.12-.12-.04-.27-.07-.43-.11-.19-.04-.35-.09-.49-.13-.15-.05-.28-.12-.39-.19-.12-.09-.21-.19-.27-.31-.06-.12-.09-.26-.09-.43,0-.18,.04-.35,.11-.5,.07-.15,.18-.27,.31-.37,.13-.09,.27-.17,.44-.22,.37-.11,.86-.09,1.21,.04,.2,.08,.38,.18,.54,.32l.12,.1-.37,.62-.17-.19c-.08-.09-.18-.16-.32-.22-.14-.06-.3-.09-.48-.09-.25,0-.44,.04-.54,.13-.09,.08-.14,.18-.14,.32,0,.07,.01,.12,.03,.16,.02,.04,.06,.07,.11,.1,.06,.04,.15,.07,.25,.1,.12,.03,.25,.07,.41,.1,.19,.04,.36,.08,.51,.13,.16,.05,.3,.12,.42,.2,.13,.09,.22,.2,.29,.33,.07,.13,.1,.29,.1,.47s-.04,.35-.11,.49c-.07,.14-.18,.26-.31,.35-.13,.09-.28,.16-.45,.2-.17,.04-.35,.06-.54,.06h0Z"/><polygon class="cls-1" points="58.2 75.58 58.2 72.18 58.54 72.18 58.54 75.58 58.2 75.58 58.2 75.58"/><polygon class="cls-1" points="58.72 75.77 58.02 75.77 58.02 71.99 58.72 71.99 58.72 75.77 58.72 75.77"/><path class="cls-1" d="M59.16,73.86c0-.2,.04-.41,.11-.61,.07-.2,.18-.38,.31-.54,.14-.16,.31-.29,.51-.39,.2-.1,.43-.15,.69-.15,.3,0,.56,.07,.78,.21,.22,.14,.37,.32,.48,.54l-.26,.16c-.05-.11-.12-.21-.2-.28-.08-.08-.16-.14-.25-.19-.09-.05-.18-.08-.28-.1-.1-.02-.19-.03-.28-.03-.2,0-.39,.04-.54,.12-.16,.08-.29,.19-.4,.33-.11,.13-.19,.28-.24,.45-.05,.17-.08,.34-.08,.51,0,.19,.03,.37,.1,.54,.07,.17,.15,.33,.27,.46,.11,.13,.25,.24,.4,.32,.16,.08,.32,.12,.51,.12,.1,0,.19-.01,.29-.04,.1-.02,.2-.06,.29-.11,.09-.05,.18-.12,.26-.2,.08-.08,.15-.17,.2-.29l.28,.14c-.05,.13-.13,.24-.23,.34-.1,.1-.21,.18-.33,.25-.12,.07-.25,.12-.39,.15-.14,.04-.27,.05-.4,.05-.23,0-.45-.05-.64-.15-.19-.1-.36-.24-.5-.4-.14-.16-.25-.35-.33-.56-.08-.21-.12-.42-.12-.64h0Z"/><path class="cls-1" d="M60.75,75.79c-.26,0-.51-.06-.73-.17-.21-.11-.4-.26-.56-.44-.15-.18-.27-.39-.36-.62-.09-.23-.13-.47-.13-.7,0-.22,.04-.45,.12-.67,.08-.22,.2-.43,.35-.6,.15-.18,.34-.32,.57-.44,.23-.11,.48-.17,.77-.17,.34,0,.63,.08,.88,.23,.24,.16,.43,.36,.54,.61l.07,.15-.58,.36-.09-.18c-.04-.09-.1-.17-.16-.23-.07-.06-.14-.12-.21-.16-.07-.04-.15-.07-.23-.09-.26-.06-.51-.02-.7,.08-.13,.07-.25,.16-.34,.28-.09,.12-.16,.25-.21,.4-.05,.15-.07,.3-.07,.45,0,.17,.03,.33,.09,.48,.06,.15,.14,.29,.24,.4,.1,.11,.21,.2,.35,.27,.2,.1,.43,.13,.67,.07,.08-.02,.17-.05,.25-.1,.08-.04,.15-.1,.22-.17,.06-.06,.12-.14,.16-.23l.08-.17,.6,.31-.07,.16c-.06,.15-.15,.28-.27,.4-.11,.11-.24,.2-.37,.28-.13,.07-.28,.13-.43,.17-.15,.04-.3,.06-.45,.06h0Z"/><polygon class="cls-1" points="147.59 19.15 1.31 19.15 1.31 18.78 147.59 18.78 147.59 19.15 147.59 19.15"/><polygon class="cls-1" points="148.16 39.98 1.88 39.98 1.88 39.61 148.16 39.61 148.16 39.98 148.16 39.98"/><polygon class="cls-1" points="147.59 60.81 1.31 60.81 1.31 60.45 147.59 60.45 147.59 60.81 147.59 60.81"/><polygon class="cls-1" points="147.59 81.65 1.31 81.65 1.31 81.28 147.59 81.28 147.59 81.65 147.59 81.65"/><polygon class="cls-1" points="52.64 149.04 1.31 149.04 1.31 147.2 52.64 147.2 52.64 149.04 52.64 149.04"/><polygon class="cls-1" points="147.43 149.04 96.1 149.04 96.1 147.2 147.43 147.2 147.43 149.04 147.43 149.04"/></svg>